<?xml version="1.0" encoding="UTF-8" standalone="no"?>
<svg
   xmlns:dc="http://purl.org/dc/elements/1.1/"
   xmlns:cc="http://creativecommons.org/ns#"
   xmlns:rdf="http://www.w3.org/1999/02/22-rdf-syntax-ns#"
   xmlns:svg="http://www.w3.org/2000/svg"
   xmlns="http://www.w3.org/2000/svg"
   xmlns:xlink="http://www.w3.org/1999/xlink"
   style="display:inline;enable-background:new"
   version="1.0"
   id="svg11300"
   height="256"
   width="256">
  <title
     id="title3004">Suru Icon Theme Template</title>
  <defs
     id="defs3">
    <linearGradient
       id="linearGradient1874">
      <stop
         id="stop1870"
         offset="0"
         style="stop-color:#000000;stop-opacity:1;" />
      <stop
         id="stop1872"
         offset="1"
         style="stop-color:#000000;stop-opacity:0;" />
    </linearGradient>
    <linearGradient
       id="linearGradient1048">
      <stop
         id="stop1044"
         offset="0"
         style="stop-color:#666666;stop-opacity:1" />
      <stop
         id="stop1046"
         offset="1"
         style="stop-color:#808080;stop-opacity:1" />
    </linearGradient>
    <clipPath
       id="clipPath9430"
       clipPathUnits="userSpaceOnUse">
      <path
         style="color:#000000;display:inline;overflow:visible;visibility:visible;fill:#ffffff;fill-opacity:1;fill-rule:nonzero;stroke:none;stroke-width:1;marker:none;enable-background:new"
         d="m 166.0625,-196 h 179.875 C 491.2348,-196 512,-175.28677 512,-30.125 v 148.25 C 512,263.28618 491.2348,284 345.9375,284 H 166.0625 C 20.7652,284 0,263.28618 0,118.125 V -30.125 C 0,-175.28677 20.7652,-196 166.0625,-196 Z"
         id="path9432" />
    </clipPath>
    <clipPath
       id="clipPath1082"
       clipPathUnits="userSpaceOnUse">
      <path
         style="display:inline;opacity:1;fill:#8c59d9;fill-opacity:1;stroke:none;stroke-width:2;stroke-linecap:round;stroke-linejoin:round;stroke-miterlimit:4;stroke-dasharray:none;stroke-dashoffset:0;stroke-opacity:1;enable-background:new"
         d="M 361.9375,-212 C 507.2348,-212 528,-191.28677 528,-46.125 V 70.125 C 528,215.28618 507.2348,236 361.9375,236 H 214.0625 C 68.7652,236 48,215.28618 48,70.125 V -46.125 C 48,-191.28677 68.7652,-212 214.0625,-212 Z"
         id="path1084" />
    </clipPath>
    <clipPath
       id="clipPath994"
       clipPathUnits="userSpaceOnUse">
      <path
         id="path996"
         d="m 335.73108,62 c -8.82418,0 -9.77365,0.90635 -9.7304,9.74838 V 84 96.25162 c -0.0433,8.84203 0.90622,9.74838 9.7304,9.74838 h 16.53919 c 8.82418,0 9.7304,-0.90625 9.7304,-9.74838 V 84 71.74838 C 362.00067,62.90625 361.09445,62 352.27027,62 Z"
         style="color:#000000;display:inline;overflow:visible;visibility:visible;fill:#cdcdcd;fill-opacity:1;fill-rule:nonzero;stroke:none;stroke-width:2;stroke-miterlimit:4;stroke-dasharray:none;stroke-opacity:1;marker:none;enable-background:accumulate" />
    </clipPath>
    <clipPath
       id="clipPath994-5"
       clipPathUnits="userSpaceOnUse">
      <path
         id="path996-3"
         d="m 335.73108,62 c -8.82418,0 -9.77365,0.90635 -9.7304,9.74838 V 84 96.25162 c -0.0433,8.84203 0.90622,9.74838 9.7304,9.74838 h 16.53919 c 8.82418,0 9.7304,-0.90625 9.7304,-9.74838 V 84 71.74838 C 362.00067,62.90625 361.09445,62 352.27027,62 Z"
         style="color:#000000;display:inline;overflow:visible;visibility:visible;fill:#cdcdcd;fill-opacity:1;fill-rule:nonzero;stroke:none;stroke-width:2;stroke-miterlimit:4;stroke-dasharray:none;stroke-opacity:1;marker:none;enable-background:accumulate" />
    </clipPath>
    <clipPath
       id="clipPath971"
       clipPathUnits="userSpaceOnUse">
      <path
         id="path973"
         d="m 327.8652,189 c -4.41209,0 -4.88682,0.45318 -4.8652,4.87419 V 200 206.12581 C 322.9783,210.54682 323.45311,211 327.8652,211 h 8.2696 C 340.54689,211 341,210.54688 341,206.12581 V 200 193.87419 C 341,189.45313 340.54688,189 336.13479,189 Z"
         style="color:#000000;display:inline;overflow:visible;visibility:visible;opacity:1;fill:#46a926;fill-opacity:1;fill-rule:nonzero;stroke:none;stroke-width:2;stroke-miterlimit:4;stroke-dasharray:none;stroke-opacity:1;marker:none;enable-background:accumulate" />
    </clipPath>
    <clipPath
       id="clipPath983"
       clipPathUnits="userSpaceOnUse">
      <path
         style="color:#000000;display:inline;overflow:visible;visibility:visible;opacity:1;fill:#46a926;fill-opacity:1;fill-rule:nonzero;stroke:none;stroke-width:2;stroke-miterlimit:4;stroke-dasharray:none;stroke-opacity:1;marker:none;enable-background:accumulate"
         d="m 325.09646,237 c -2.80769,0 -3.10979,0.28839 -3.09603,3.10176 V 244 v 3.89824 c -0.0138,2.81337 0.28834,3.10176 3.09603,3.10176 h 5.8075 C 333.71166,251 334,250.71165 334,247.89824 V 244 240.10176 C 334,237.28836 333.71165,237 330.90396,237 Z"
         id="path985" />
    </clipPath>
    <clipPath
       id="clipPath959"
       clipPathUnits="userSpaceOnUse">
      <path
         id="path961"
         d="m 330.1929,133.99999 c -5.61538,0 -6.21958,0.57678 -6.19206,6.20352 v 7.79648 7.79648 c -0.0276,5.62673 0.57668,6.20351 6.19206,6.20351 h 11.615 c 5.6154,0 6.19208,-0.5767 6.19208,-6.20351 v -7.79648 -7.79648 c 0,-5.6268 -0.5767,-6.20352 -6.19208,-6.20352 z"
         style="color:#000000;display:inline;overflow:visible;visibility:visible;opacity:1;fill:#46a926;fill-opacity:1;fill-rule:nonzero;stroke:none;stroke-width:2;stroke-miterlimit:4;stroke-dasharray:none;stroke-opacity:1;marker:none;enable-background:accumulate" />
    </clipPath>
    <linearGradient
       id="linearGradient927">
      <stop
         id="stop923"
         offset="0"
         style="stop-color:#ffffff;stop-opacity:1;" />
      <stop
         style="stop-color:#ffffff;stop-opacity:0.09803922"
         offset="0.125"
         id="stop933" />
      <stop
         style="stop-color:#ffffff;stop-opacity:0.09803922"
         offset="0.92500001"
         id="stop931" />
      <stop
         id="stop925"
         offset="1"
         style="stop-color:#ffffff;stop-opacity:0.49803922" />
    </linearGradient>
    <linearGradient
       gradientTransform="translate(0,2)"
       gradientUnits="userSpaceOnUse"
       y2="98"
       x2="344"
       y1="64"
       x1="344"
       id="linearGradient920"
       xlink:href="#linearGradient927" />
    <linearGradient
       gradientTransform="translate(0,2)"
       gradientUnits="userSpaceOnUse"
       y2="98"
       x2="344"
       y1="62"
       x1="344"
       id="linearGradient1050"
       xlink:href="#linearGradient1048" />
    <clipPath
       id="clipPath1070"
       clipPathUnits="userSpaceOnUse">
      <path
         style="color:#000000;display:inline;overflow:visible;visibility:visible;opacity:0.2;fill:#cdcdcd;fill-opacity:1;fill-rule:nonzero;stroke:none;stroke-width:2;stroke-linecap:butt;stroke-linejoin:miter;stroke-miterlimit:4;stroke-dasharray:none;stroke-dashoffset:0;stroke-opacity:1;marker:none;enable-background:accumulate"
         d="m 350.9998,152.99999 c 0,5.00001 -1.95653,4.9417 -7,5.00001 H 328 c -5.04347,-0.0583 -7,0 -7,-5.00001 v -11.0002 c 0,-5.00001 1.95653,-4.9417 7,-5.00001 h 15.9998 c 5.04347,0.0583 7,0 7,5.00001 z"
         id="path1072" />
    </clipPath>
    <linearGradient
       gradientUnits="userSpaceOnUse"
       y2="158"
       x2="338"
       y1="137"
       x1="338"
       id="linearGradient1080"
       xlink:href="#linearGradient927" />
    <linearGradient
       gradientUnits="userSpaceOnUse"
       y2="158"
       x2="337"
       y1="137"
       x1="337"
       id="linearGradient1093"
       xlink:href="#linearGradient1048" />
    <linearGradient
       gradientTransform="translate(-1)"
       y2="249"
       x2="329"
       y1="239"
       x1="329"
       gradientUnits="userSpaceOnUse"
       id="linearGradient1178"
       xlink:href="#linearGradient1048" />
    <clipPath
       id="clipPath1193"
       clipPathUnits="userSpaceOnUse">
      <path
         id="path1195"
         d="m 324,239 c -1.25854,0.0147 -2.08718,0.0598 -2.45312,0.26172 -0.18343,0.10119 -0.28912,0.21275 -0.38672,0.47266 C 321.0626,239.99428 321,240.4076 321,241 v 5 c 0,0.5924 0.0626,1.00571 0.16016,1.26562 0.0976,0.25992 0.20329,0.37146 0.38672,0.47266 0.36594,0.20192 1.19459,0.24702 2.45312,0.26172 h 0.006 6.994 c 1.25853,-0.0147 2.08718,-0.0598 2.45312,-0.26172 0.18343,-0.10119 0.28912,-0.21275 0.38672,-0.47266 C 333.9374,247.00572 334,246.5924 334,246 v -5 c 0,-0.5924 -0.0627,-1.00571 -0.16016,-1.26562 -0.0976,-0.25992 -0.20329,-0.37146 -0.38672,-0.47266 C 333.08718,239.0598 332.25853,239.0147 331,239 Z"
         style="color:#000000;display:inline;overflow:visible;visibility:visible;opacity:1;fill:url(#linearGradient1197);fill-opacity:1;fill-rule:nonzero;stroke:none;stroke-width:1.00000668;stroke-linecap:butt;stroke-linejoin:miter;stroke-miterlimit:4;stroke-dasharray:none;stroke-dashoffset:0;stroke-opacity:1;marker:none;enable-background:accumulate" />
    </clipPath>
    <linearGradient
       y2="249"
       x2="329"
       y1="239"
       x1="329"
       gradientTransform="translate(-1)"
       gradientUnits="userSpaceOnUse"
       id="linearGradient1197"
       xlink:href="#linearGradient1048" />
    <linearGradient
       gradientUnits="userSpaceOnUse"
       y2="248"
       x2="328"
       y1="239"
       x1="328"
       id="linearGradient1205"
       xlink:href="#linearGradient927" />
    <linearGradient
       gradientUnits="userSpaceOnUse"
       y2="206"
       x2="333"
       y1="194"
       x1="333"
       id="linearGradient1223"
       xlink:href="#linearGradient1048" />
    <clipPath
       id="clipPath1238"
       clipPathUnits="userSpaceOnUse">
      <path
         id="path1240"
         d="m 338,194 c 1.25853,0.0147 2.08912,0.0598 2.45508,0.26172 0.18341,0.10119 0.28716,0.21275 0.38476,0.47266 C 340.9374,194.99427 341,195.40761 341,196 v 8 c 0,0.59239 -0.0626,1.00572 -0.16016,1.26562 -0.0976,0.25992 -0.20135,0.37147 -0.38476,0.47266 C 340.08912,205.9402 339.25853,205.9853 338,206 H 337.994 326 c -1.25852,-0.0147 -2.08912,-0.0598 -2.45508,-0.26172 -0.18341,-0.10119 -0.28716,-0.21275 -0.38476,-0.47266 C 323.0626,205.00573 323,204.59239 323,204 v -8 c 0,-0.59239 0.0627,-1.00571 0.16016,-1.26562 0.0976,-0.25992 0.20331,-0.37146 0.38672,-0.47266 C 323.91282,194.0598 324.74148,194.0147 326,194 Z"
         style="color:#000000;display:inline;overflow:visible;visibility:visible;opacity:1;fill:url(#linearGradient1242);fill-opacity:1;fill-rule:nonzero;stroke:none;stroke-width:1.00000012;stroke-linecap:butt;stroke-linejoin:miter;stroke-miterlimit:4;stroke-dasharray:none;stroke-dashoffset:0;stroke-opacity:1;marker:none;enable-background:accumulate" />
    </clipPath>
    <linearGradient
       y2="206"
       x2="333"
       y1="194"
       x1="333"
       gradientTransform="matrix(-1,0,0,1,664,0)"
       gradientUnits="userSpaceOnUse"
       id="linearGradient1242"
       xlink:href="#linearGradient1048" />
    <linearGradient
       gradientUnits="userSpaceOnUse"
       y2="206"
       x2="332"
       y1="194"
       x1="332"
       id="linearGradient1250"
       xlink:href="#linearGradient927" />
    <linearGradient
       gradientUnits="userSpaceOnUse"
       y2="228"
       x2="152"
       y1="84"
       x1="152"
       id="linearGradient1331"
       xlink:href="#linearGradient1048" />
    <clipPath
       id="clipPath1337"
       clipPathUnits="userSpaceOnUse">
      <path
         style="color:#000000;display:inline;overflow:visible;visibility:visible;opacity:1;fill:#808080;fill-opacity:1;fill-rule:nonzero;stroke:none;stroke-width:4;stroke-linecap:butt;stroke-linejoin:miter;stroke-miterlimit:4;stroke-dasharray:none;stroke-dashoffset:0;stroke-opacity:1;marker:none;enable-background:accumulate"
         d="m 265.99897,205.00107 c 0,25.00001 -9.78264,24.70848 -35,25.00001 H 72.99995 c -25.21735,-0.29153 -35,0 -35,-25.00001 v -98.00104 c 0,-25.000009 9.78265,-24.708474 35,-25.000009 h 157.99902 c 25.21736,0.291535 35,0 35,25.000009 z"
         id="path1339" />
    </clipPath>
    <linearGradient
       gradientUnits="userSpaceOnUse"
       y2="232"
       x2="156"
       y1="80"
       x1="156"
       id="linearGradient1347"
       xlink:href="#linearGradient927" />
    <filter
       height="1.1524314"
       y="-0.076215684"
       width="1.0989478"
       x="-0.049473908"
       id="filter1355"
       style="color-interpolation-filters:sRGB">
      <feGaussianBlur
         id="feGaussianBlur1357"
         stdDeviation="4.700001" />
    </filter>
    <filter
       height="1.0609725"
       y="-0.030486275"
       width="1.0395792"
       x="-0.019789563"
       id="filter1361"
       style="color-interpolation-filters:sRGB">
      <feGaussianBlur
         id="feGaussianBlur1363"
         stdDeviation="1.8800004" />
    </filter>
    <filter
       height="1.0304863"
       y="-0.015243137"
       width="1.0197896"
       x="-0.0098947817"
       id="filter1379"
       style="color-interpolation-filters:sRGB">
      <feGaussianBlur
         id="feGaussianBlur1381"
         stdDeviation="0.9400002" />
    </filter>
    <clipPath
       id="clipPath1463"
       clipPathUnits="userSpaceOnUse">
      <path
         id="path1465"
         d="m 271.99897,211.00107 c 0,25.00001 -9.78264,24.70848 -35,25.00001 H 66.99995 c -25.21735,-0.29153 -35,0 -35,-25.00001 V 101.00003 c 0,-25.000009 9.78265,-24.708474 35,-25.000009 h 169.99902 c 25.21736,0.291535 35,0 35,25.000009 z"
         style="color:#000000;display:inline;overflow:visible;visibility:visible;opacity:1;fill:#808080;fill-opacity:1;fill-rule:nonzero;stroke:none;stroke-width:4;stroke-linecap:butt;stroke-linejoin:miter;stroke-miterlimit:4;stroke-dasharray:none;stroke-dashoffset:0;stroke-opacity:1;marker:none;enable-background:accumulate" />
    </clipPath>
    <clipPath
       id="clipPath1668"
       clipPathUnits="userSpaceOnUse">
      <path
         id="path1670"
         d="m 365.9998,95.00023 c 0,5 -1.95653,4.94169 -7,5 H 329 c -5.04347,-0.0583 -7,0 -7,-5 V 71.000018 c 0,-5.000001 1.95653,-4.941694 7,-5.000001 h 29.9998 c 5.04347,0.05831 7,0 7,5.000001 z"
         style="color:#000000;display:inline;overflow:visible;visibility:visible;opacity:1;fill:#cdcdcd;fill-opacity:1;fill-rule:nonzero;stroke:none;stroke-width:2;stroke-linecap:butt;stroke-linejoin:miter;stroke-miterlimit:4;stroke-dasharray:none;stroke-dashoffset:0;stroke-opacity:1;marker:none;enable-background:accumulate" />
    </clipPath>
    <linearGradient
       id="linearGradient4136-4">
      <stop
         id="stop4138-5"
         offset="0"
         style="stop-color:#f3e1d4;stop-opacity:1" />
      <stop
         style="stop-color:#e4bb9d;stop-opacity:1"
         offset="0.5"
         id="stop4144-9-1" />
      <stop
         id="stop4178-9"
         offset="0.75"
         style="stop-color:#d3976d;stop-opacity:1" />
      <stop
         id="stop4140-8"
         offset="1"
         style="stop-color:#c16829;stop-opacity:1" />
    </linearGradient>
    <linearGradient
       id="linearGradient4126-7">
      <stop
         id="stop4128-7"
         offset="0"
         style="stop-color:#424242;stop-opacity:1;" />
      <stop
         style="stop-color:#7d7d7d;stop-opacity:1;"
         offset="0.3611111"
         id="stop4134-9" />
      <stop
         id="stop4130-0"
         offset="1"
         style="stop-color:#151515;stop-opacity:1;" />
    </linearGradient>
    <clipPath
       id="clipPath4150-7"
       clipPathUnits="userSpaceOnUse">
      <path
         style="fill:#ff00ff;fill-opacity:1;stroke:none"
         d="m 704,384 -32,88 -32,-88 v -12 h 64 z"
         id="path4152-6" />
    </clipPath>
    <linearGradient
       id="linearGradient4336-3">
      <stop
         id="stop4338-8"
         offset="0"
         style="stop-color:#6184dd;stop-opacity:1" />
      <stop
         style="stop-color:#2d5bd2;stop-opacity:1"
         offset="0.26562485"
         id="stop4344-3" />
      <stop
         id="stop4346-3"
         offset="0.29687488"
         style="stop-color:#2b4fad;stop-opacity:1" />
      <stop
         style="stop-color:#294ca3;stop-opacity:1"
         offset="0.70735365"
         id="stop4350-1" />
      <stop
         style="stop-color:#213a78;stop-opacity:1"
         offset="0.7363447"
         id="stop4348-6" />
      <stop
         id="stop4340-0"
         offset="1"
         style="stop-color:#1f366f;stop-opacity:1" />
    </linearGradient>
    <linearGradient
       y2="3.5158892"
       y1="19.01865"
       xlink:href="#linearGradient9508"
       x2="49.73465"
       x1="26.32226"
       id="linearGradient4652"
       gradientUnits="userSpaceOnUse"
       gradientTransform="matrix(0.9557953,0,0.3203373,-0.7915548,12.366592,55.429887)" />
    <linearGradient
       id="linearGradient9508">
      <stop
         style="stop-color:#2e3436;stop-opacity:0.58152175;"
         offset="0"
         id="stop9510" />
      <stop
         style="stop-color:#2e3436;stop-opacity:0;"
         offset="1"
         id="stop9512" />
    </linearGradient>
    <linearGradient
       y2="8"
       y1="4.2648559"
       xlink:href="#linearGradient3648"
       x2="1.5"
       x1="1.5"
       id="linearGradient2756"
       gradientUnits="userSpaceOnUse"
       gradientTransform="matrix(0.49065479,-0.59354527,0.56198192,0.51821218,359.54322,94.806169)" />
    <linearGradient
       id="linearGradient3648">
      <stop
         style="stop-color:#545454;stop-opacity:1"
         offset="0"
         id="stop3650" />
      <stop
         style="stop-color:#232323;stop-opacity:1"
         offset="0.79710144"
         id="stop26236" />
      <stop
         style="stop-color:#303030;stop-opacity:1"
         offset="1"
         id="stop3652" />
    </linearGradient>
    <linearGradient
       y2="8.5"
       y1="3.5"
       xlink:href="#linearGradient3648"
       x2="24"
       x1="24"
       id="linearGradient2760"
       gradientUnits="userSpaceOnUse"
       gradientTransform="matrix(0.49065479,-0.59354527,0.56198192,0.51821218,40.638295,37.768025)" />
    <linearGradient
       y2="9"
       y1="3"
       xlink:href="#linearGradient16397"
       x2="6.5"
       x1="6.5"
       id="linearGradient2762"
       gradientUnits="userSpaceOnUse"
       gradientTransform="matrix(0.49065479,-0.59354527,0.56198192,0.51821218,40.638295,37.768025)" />
    <linearGradient
       id="linearGradient16397">
      <stop
         style="stop-color:#565656;stop-opacity:1"
         offset="0"
         id="stop16399" />
      <stop
         style="stop-color:#454545;stop-opacity:1"
         offset="1"
         id="stop16401" />
    </linearGradient>
    <linearGradient
       gradientTransform="translate(0,-166)"
       gradientUnits="userSpaceOnUse"
       y2="72"
       x2="344"
       y1="96"
       x1="344"
       id="linearGradient1876"
       xlink:href="#linearGradient1874" />
    <linearGradient
       y2="9"
       y1="3"
       xlink:href="#linearGradient16397"
       x2="6.5"
       x1="6.5"
       id="linearGradient2762-0"
       gradientUnits="userSpaceOnUse"
       gradientTransform="matrix(0.49065479,-0.59354527,0.56198192,0.51821218,359.54322,96.806169)" />
    <linearGradient
       y2="232"
       x2="156"
       y1="80"
       x1="156"
       gradientUnits="userSpaceOnUse"
       id="linearGradient543944"
       xlink:href="#linearGradient927" />
  </defs>
  <metadata
     id="metadata4">
    <rdf:RDF>
      <cc:Work
         rdf:about="">
        <dc:format>image/svg+xml</dc:format>
        <dc:type
           rdf:resource="http://purl.org/dc/dcmitype/StillImage" />
        <dc:creator>
          <cc:Agent>
            <dc:title>Sam Hewitt</dc:title>
          </cc:Agent>
        </dc:creator>
        <dc:source />
        <cc:license
           rdf:resource="http://creativecommons.org/licenses/by-sa/4.0/" />
        <dc:title>Suru Icon Theme Template</dc:title>
        <dc:subject>
          <rdf:Bag />
        </dc:subject>
        <dc:date />
        <dc:rights>
          <cc:Agent>
            <dc:title />
          </cc:Agent>
        </dc:rights>
        <dc:publisher>
          <cc:Agent>
            <dc:title />
          </cc:Agent>
        </dc:publisher>
        <dc:identifier />
        <dc:relation />
        <dc:language />
        <dc:coverage />
        <dc:description />
        <dc:contributor>
          <cc:Agent>
            <dc:title />
          </cc:Agent>
        </dc:contributor>
      </cc:Work>
      <cc:Work
         rdf:about="">
        <dc:format>image/svg+xml</dc:format>
        <dc:type
           rdf:resource="http://purl.org/dc/dcmitype/StillImage" />
      </cc:Work>
      <cc:License
         rdf:about="http://creativecommons.org/licenses/by-sa/4.0/">
        <cc:permits
           rdf:resource="http://creativecommons.org/ns#Reproduction" />
        <cc:permits
           rdf:resource="http://creativecommons.org/ns#Distribution" />
        <cc:requires
           rdf:resource="http://creativecommons.org/ns#Notice" />
        <cc:requires
           rdf:resource="http://creativecommons.org/ns#Attribution" />
        <cc:permits
           rdf:resource="http://creativecommons.org/ns#DerivativeWorks" />
        <cc:requires
           rdf:resource="http://creativecommons.org/ns#ShareAlike" />
      </cc:License>
    </rdf:RDF>
  </metadata>
  <g
     transform="translate(-24,-28)"
     id="layer1"
     style="display:inline">
    <g
       id="layer7"
       style="display:none">
      <text
         id="context"
         style="font-style:normal;font-variant:normal;font-weight:normal;font-stretch:normal;line-height:0%;font-family:'DejaVu Sans';-inkscape-font-specification:'DejaVu Sans';display:inline;fill:#000000;fill-opacity:1;stroke:none;enable-background:new"
         x="19.006836"
         xml:space="preserve"
         y="-8.2548828"><tspan
           id="tspan3933"
           x="19.006836"
           y="-8.2548828"
           style="font-style:normal;font-variant:normal;font-weight:normal;font-stretch:normal;font-size:18px;line-height:1.25;font-family:'DejaVu Sans';-inkscape-font-specification:'DejaVu Sans'">devices</tspan></text>
      <text
         id="icon-name"
         style="font-style:normal;font-variant:normal;font-weight:bold;font-stretch:normal;line-height:0%;font-family:'DejaVu Sans';-inkscape-font-specification:'DejaVu Sans Bold';text-align:start;writing-mode:lr-tb;text-anchor:start;display:inline;fill:#000000;fill-opacity:1;stroke:none;enable-background:new"
         x="146.48828"
         xml:space="preserve"
         y="-8.2548828"><tspan
           id="tspan924"
           x="146.48828"
           y="-8.2548828"
           style="font-style:normal;font-variant:normal;font-weight:bold;font-stretch:normal;font-size:18px;line-height:1.25;font-family:'DejaVu Sans';-inkscape-font-specification:'DejaVu Sans Bold'">input-tablet</tspan></text>
      <rect
         y="236"
         x="320"
         height="16"
         width="16"
         id="rect16x16"
         style="display:inline;overflow:visible;visibility:visible;fill:#cdcdcd;fill-opacity:1;fill-rule:nonzero;stroke:none;stroke-width:2;marker:none;enable-background:accumulate" />
      <rect
         y="188"
         x="320"
         height="24"
         width="24"
         id="rect24x24"
         style="display:inline;overflow:visible;visibility:visible;fill:#cdcdcd;fill-opacity:1;fill-rule:nonzero;stroke:none;stroke-width:2;marker:none;enable-background:accumulate" />
      <rect
         y="132"
         x="320"
         height="32"
         width="32"
         id="rect32x32"
         style="display:inline;overflow:visible;visibility:visible;fill:#cdcdcd;fill-opacity:1;fill-rule:nonzero;stroke:none;stroke-width:2;marker:none;enable-background:accumulate" />
      <rect
         style="display:inline;overflow:visible;visibility:visible;fill:#cdcdcd;fill-opacity:1;fill-rule:nonzero;stroke:none;stroke-width:2;marker:none;enable-background:accumulate"
         id="rect48x48"
         width="48"
         height="48"
         x="320"
         y="60" />
      <rect
         y="28"
         x="24"
         height="256"
         width="256"
         id="rect3951"
         style="display:inline;overflow:visible;visibility:visible;fill:#cdcdcd;fill-opacity:1;fill-rule:nonzero;stroke:none;stroke-width:2;marker:none;enable-background:accumulate" />
    </g>
    <g
       style="display:inline"
       id="layer2">
      <path
         style="color:#000000;display:inline;overflow:visible;visibility:visible;opacity:0.5;fill:#000000;fill-opacity:1;fill-rule:nonzero;stroke:url(#linearGradient543944);stroke-width:4;stroke-linecap:butt;stroke-linejoin:miter;stroke-miterlimit:4;stroke-dasharray:none;stroke-dashoffset:0;stroke-opacity:1;marker:none;filter:url(#filter1379);enable-background:accumulate"
         d="m 271.99897,211.00107 c 0,25.00001 -9.78264,24.70848 -35,25.00001 H 66.99995 c -25.21735,-0.29153 -35,0 -35,-25.00001 V 101.00003 c 0,-25.000009 9.78265,-24.708474 35,-25.000009 h 169.99902 c 25.21736,0.291535 35,0 35,25.000009 z"
         id="path1365"
         clip-path="url(#clipPath1337)" />
      <path
         id="path1359"
         d="m 271.99897,213.00107 c 0,25.00001 -9.78264,24.70848 -35,25.00001 H 66.99995 c -25.21735,-0.29153 -35,0 -35,-25.00001 l 4,-110.00104 c 0,-25.000009 5.78265,-24.708474 31,-25.000009 h 169.99902 c 25.21736,0.291535 35,0 35,25.000009 z"
         style="color:#000000;display:inline;overflow:visible;visibility:visible;opacity:0.5;fill:#000000;fill-opacity:1;fill-rule:nonzero;stroke:none;stroke-width:4;stroke-linecap:butt;stroke-linejoin:miter;stroke-miterlimit:4;stroke-dasharray:none;stroke-dashoffset:0;stroke-opacity:1;marker:none;filter:url(#filter1361);enable-background:accumulate" />
      <path
         style="color:#000000;display:inline;overflow:visible;visibility:visible;opacity:0.5;fill:none;fill-opacity:1;fill-rule:nonzero;stroke:#000000;stroke-width:4;stroke-linecap:butt;stroke-linejoin:miter;stroke-miterlimit:4;stroke-dasharray:none;stroke-dashoffset:0;stroke-opacity:1;marker:none;enable-background:accumulate"
         d="m 271.99897,211.00107 c 0,25.00001 -9.78264,24.70848 -35,25.00001 H 66.99995 c -25.21735,-0.29153 -35,0 -35,-25.00001 V 101.00003 c 0,-25.000009 9.78265,-24.708474 35,-25.000009 h 169.99902 c 25.21736,0.291535 35,0 35,25.000009 z"
         id="path4297" />
      <path
         style="color:#000000;display:inline;overflow:visible;visibility:visible;opacity:0.2;fill:#000000;fill-opacity:1;fill-rule:nonzero;stroke:none;stroke-width:4;stroke-linecap:butt;stroke-linejoin:miter;stroke-miterlimit:4;stroke-dasharray:none;stroke-dashoffset:0;stroke-opacity:1;marker:none;filter:url(#filter1355);enable-background:accumulate"
         d="m 271.99897,213.00107 c 0,25.00001 -9.78264,24.70848 -35,25.00001 H 66.99995 c -25.21735,-0.29153 -35,0 -35,-25.00001 l 4,-110.00104 c 0,-25.000009 5.78265,-24.708474 31,-25.000009 h 169.99902 c 25.21736,0.291535 35,0 35,25.000009 z"
         id="path1351" />
      <path
         style="color:#000000;display:inline;overflow:visible;visibility:visible;opacity:0.2;fill:none;fill-opacity:1;fill-rule:nonzero;stroke:#000000;stroke-width:1.00000012;stroke-linecap:butt;stroke-linejoin:miter;stroke-miterlimit:4;stroke-dasharray:none;stroke-dashoffset:0;stroke-opacity:1;marker:none;enable-background:accumulate"
         d="m 341.5,205.00011 c 0,2.5 -0.97827,2.47085 -3.5,2.5 h -12 c -2.52174,-0.0292 -3.5,0 -3.5,-2.5 v -8.0001 c 0,-2.5 0.97826,-2.47085 3.5,-2.5 h 12 c 2.52173,0.0291 3.5,0 3.5,2.5 z"
         id="path1225" />
      <path
         style="color:#000000;display:inline;overflow:visible;visibility:visible;opacity:1;fill:url(#linearGradient1223);fill-opacity:1;fill-rule:nonzero;stroke:none;stroke-width:1.00000012;stroke-linecap:butt;stroke-linejoin:miter;stroke-miterlimit:4;stroke-dasharray:none;stroke-dashoffset:0;stroke-opacity:1;marker:none;enable-background:accumulate"
         d="m 341.5,204.00011 c 0,2.5 -0.97827,2.47085 -3.5,2.5 h -12 c -2.52174,-0.0292 -3.5,0 -3.5,-2.5 v -8.0001 c 0,-2.5 0.97826,-2.47085 3.5,-2.5 h 12 c 2.52173,0.0291 3.5,0 3.5,2.5 z"
         id="path1215" />
      <path
         id="path1134"
         d="m 334.5,246.99997 c 0,2.50003 -0.97828,2.47087 -3.50003,2.50003 h -6.99994 c -2.52176,-0.0291 -3.50003,0 -3.50003,-2.50003 v -5.00013 c 0,-2.50002 0.97827,-2.47087 3.50003,-2.50002 h 6.99994 c 2.52175,0.0291 3.50003,0 3.50003,2.50002 z"
         style="color:#000000;display:inline;overflow:visible;visibility:visible;opacity:0.2;fill:none;fill-opacity:1;fill-rule:nonzero;stroke:#000000;stroke-width:1.00000668;stroke-linecap:butt;stroke-linejoin:miter;stroke-miterlimit:4;stroke-dasharray:none;stroke-dashoffset:0;stroke-opacity:1;marker:none;enable-background:accumulate" />
      <path
         id="path1097"
         d="m 334.5,245.99997 c 0,2.50003 -0.97828,2.47087 -3.50003,2.50003 h -6.99994 c -2.52176,-0.0291 -3.50003,0 -3.50003,-2.50003 v -5.00013 c 0,-2.50002 0.97827,-2.47087 3.50003,-2.50002 h 6.99994 c 2.52175,0.0291 3.50003,0 3.50003,2.50002 z"
         style="color:#000000;display:inline;overflow:visible;visibility:visible;opacity:1;fill:url(#linearGradient1178);fill-opacity:1;fill-rule:nonzero;stroke:none;stroke-width:1.00000668;stroke-linecap:butt;stroke-linejoin:miter;stroke-miterlimit:4;stroke-dasharray:none;stroke-dashoffset:0;stroke-opacity:1;marker:none;enable-background:accumulate" />
      <path
         id="path922"
         d="m 365.9998,96.00023 c 0,5 -1.95653,4.94169 -7,5 H 329 c -5.04347,-0.0583 -7,0 -7,-5 V 72.000018 c 0,-5.000001 1.95653,-4.941694 7,-5.000001 h 29.9998 c 5.04347,0.05831 7,0 7,5.000001 z"
         style="color:#000000;display:inline;overflow:visible;visibility:visible;opacity:0.2;fill:none;fill-opacity:1;fill-rule:nonzero;stroke:#000000;stroke-width:2;stroke-linecap:butt;stroke-linejoin:miter;stroke-miterlimit:4;stroke-dasharray:none;stroke-dashoffset:0;stroke-opacity:1;marker:none;enable-background:accumulate" />
      <path
         id="path881"
         d="m 341.5,204.00011 c 0,2.5 -0.97827,2.47085 -3.5,2.5 h -12 c -2.52174,-0.0292 -3.5,0 -3.5,-2.5 v -8.0001 c 0,-2.5 0.97826,-2.47085 3.5,-2.5 h 12 c 2.52173,0.0291 3.5,0 3.5,2.5 z"
         style="color:#000000;display:inline;overflow:visible;visibility:visible;opacity:0.5;fill:none;fill-opacity:1;fill-rule:nonzero;stroke:#000000;stroke-width:1.00000012;stroke-linecap:butt;stroke-linejoin:miter;stroke-miterlimit:4;stroke-dasharray:none;stroke-dashoffset:0;stroke-opacity:1;marker:none;enable-background:accumulate" />
      <path
         id="path4297-3"
         d="m 350.9998,153.99999 c 0,5.00001 -1.95653,4.9417 -7,5.00001 H 328 c -5.04347,-0.0583 -7,0 -7,-5.00001 v -11.0002 c 0,-5.00001 1.95653,-4.9417 7,-5.00001 h 15.9998 c 5.04347,0.0583 7,0 7,5.00001 z"
         style="color:#000000;display:inline;overflow:visible;visibility:visible;opacity:0.2;fill:none;fill-opacity:1;fill-rule:nonzero;stroke:#000000;stroke-width:2;stroke-linecap:butt;stroke-linejoin:miter;stroke-miterlimit:4;stroke-dasharray:none;stroke-dashoffset:0;stroke-opacity:1;marker:none;enable-background:accumulate" />
      <path
         style="color:#000000;display:inline;overflow:visible;visibility:visible;opacity:0.5;fill:none;fill-opacity:1;fill-rule:nonzero;stroke:#000000;stroke-width:1.00000668;stroke-linecap:butt;stroke-linejoin:miter;stroke-miterlimit:4;stroke-dasharray:none;stroke-dashoffset:0;stroke-opacity:1;marker:none;enable-background:accumulate"
         d="m 334.5,245.99997 c 0,2.50003 -0.97828,2.47087 -3.50003,2.50003 h -6.99994 c -2.52176,-0.0291 -3.50003,0 -3.50003,-2.50003 v -5.00013 c 0,-2.50002 0.97827,-2.47087 3.50003,-2.50002 h 6.99994 c 2.52175,0.0291 3.50003,0 3.50003,2.50002 z"
         id="path1010" />
      <path
         id="path865"
         d="m 328.99414,100.5 c -2.51906,-0.0291 -4.31442,0.0152 -5.62695,-0.70898 -0.65627,-0.36209 -1.15539,-0.94448 -1.45117,-1.73243 C 321.62024,97.270645 321.5,96.282609 321.5,95 V 71 c 0,-1.282609 0.12024,-2.270644 0.41602,-3.058594 0.29578,-0.787949 0.7949,-1.370332 1.45117,-1.732422 1.31253,-0.724179 3.10789,-0.679865 5.62695,-0.708984 h 0.004 30.0039 0.004 c 2.51906,0.02912 4.31442,-0.01519 5.62695,0.708984 0.65627,0.362089 1.15539,0.944474 1.45117,1.732422 C 366.37958,68.729355 366.5,69.717391 366.5,71 v 24 c 0,1.282609 -0.12024,2.270645 -0.41602,3.05859 -0.29578,0.78795 -0.7949,1.37034 -1.45117,1.73243 -1.31253,0.72417 -3.10789,0.67986 -5.62695,0.70898 h -0.004 -30.0039 z"
         style="color:#000000;display:inline;overflow:visible;visibility:visible;opacity:1;fill:url(#linearGradient1050);fill-opacity:1;fill-rule:nonzero;stroke:none;stroke-width:2;stroke-linecap:butt;stroke-linejoin:miter;stroke-miterlimit:4;stroke-dasharray:none;stroke-dashoffset:0;stroke-opacity:1;marker:none;enable-background:accumulate" />
      <path
         id="path882"
         d="m 327.99414,136.5 c -2.51906,0.0291 -4.31442,-0.0152 -5.62695,0.70898 -0.65627,0.36209 -1.15539,0.94448 -1.45117,1.73243 C 320.62024,139.72936 320.5,140.71739 320.5,142 v 11 c 0,1.28261 0.12024,2.27064 0.41602,3.05859 0.29578,0.78795 0.7949,1.37034 1.45117,1.73243 1.31253,0.72418 3.10789,0.67986 5.62695,0.70898 h 0.004 16.0039 0.004 c 2.51906,-0.0291 4.31442,0.0152 5.62695,-0.70898 0.65627,-0.36209 1.15539,-0.94448 1.45117,-1.73243 C 351.37958,155.27064 351.5,154.28261 351.5,153 v -11 c 0,-1.28261 -0.12024,-2.27064 -0.41602,-3.05859 -0.29578,-0.78795 -0.7949,-1.37034 -1.45117,-1.73243 -1.31253,-0.72418 -3.10789,-0.67986 -5.62695,-0.70898 h -0.004 -16.0039 z"
         style="color:#000000;display:inline;overflow:visible;visibility:visible;opacity:1;fill:url(#linearGradient1093);fill-opacity:1;fill-rule:nonzero;stroke:none;stroke-width:2;stroke-linecap:butt;stroke-linejoin:miter;stroke-miterlimit:4;stroke-dasharray:none;stroke-dashoffset:0;stroke-opacity:1;marker:none;enable-background:accumulate" />
      <path
         clip-path="url(#clipPath1668)"
         id="path888"
         d="m 365.9998,95.00023 c 0,5 -1.95653,4.94169 -7,5 H 329 c -5.04347,-0.0583 -7,0 -7,-5 V 71.000018 c 0,-5.000001 1.95653,-4.941694 7,-5.000001 h 29.9998 c 5.04347,0.05831 7,0 7,5.000001 z"
         style="color:#000000;display:inline;overflow:visible;visibility:visible;opacity:0.5;fill:none;fill-opacity:1;fill-rule:nonzero;stroke:url(#linearGradient920);stroke-width:2;stroke-linecap:butt;stroke-linejoin:miter;stroke-miterlimit:4;stroke-dasharray:none;stroke-dashoffset:0;stroke-opacity:1;marker:none;enable-background:accumulate" />
      <path
         style="color:#000000;display:inline;overflow:visible;visibility:visible;opacity:0.5;fill:none;fill-opacity:1;fill-rule:nonzero;stroke:#000000;stroke-width:1;stroke-linecap:butt;stroke-linejoin:miter;stroke-miterlimit:4;stroke-dasharray:none;stroke-dashoffset:0;stroke-opacity:1;marker:none;enable-background:accumulate"
         d="m 328.99414,65.5 c -2.51906,0.02912 -4.31442,-0.01519 -5.62695,0.708984 -0.65627,0.36209 -1.15539,0.944473 -1.45117,1.732422 C 321.62024,68.729355 321.5,69.717391 321.5,71 v 24 c 0,1.282609 0.12024,2.270644 0.41602,3.05859 0.29578,0.78795 0.7949,1.37034 1.45117,1.73243 1.31253,0.72418 3.10789,0.67986 5.62695,0.70898 h 0.004 30.0039 0.004 c 2.51906,-0.0291 4.31442,0.0152 5.62695,-0.70898 0.65627,-0.36209 1.15539,-0.94448 1.45117,-1.73243 C 366.37958,97.270645 366.5,96.282609 366.5,95 V 71 c 0,-1.282609 -0.12024,-2.270645 -0.41602,-3.058594 -0.29578,-0.787949 -0.7949,-1.370333 -1.45117,-1.732422 -1.31253,-0.724178 -3.10789,-0.67986 -5.62695,-0.708984 h -0.004 -30.0039 z"
         id="path1057" />
      <path
         style="color:#000000;display:inline;overflow:visible;visibility:visible;opacity:0.5;fill:none;fill-opacity:1;fill-rule:nonzero;stroke:#000000;stroke-width:1;stroke-linecap:butt;stroke-linejoin:miter;stroke-miterlimit:4;stroke-dasharray:none;stroke-dashoffset:0;stroke-opacity:1;marker:none;enable-background:accumulate"
         d="m 327.99414,136.5 c -2.51906,0.0291 -4.31442,-0.0152 -5.62695,0.70898 -0.65627,0.36209 -1.15539,0.94448 -1.45117,1.73243 C 320.62024,139.72936 320.5,140.71739 320.5,142 v 11 c 0,1.28261 0.12024,2.27064 0.41602,3.05859 0.29578,0.78795 0.7949,1.37034 1.45117,1.73243 1.31253,0.72418 3.10789,0.67986 5.62695,0.70898 h 0.004 16.0039 0.004 c 2.51906,-0.0291 4.31442,0.0152 5.62695,-0.70898 0.65627,-0.36209 1.15539,-0.94448 1.45117,-1.73243 C 351.37958,155.27064 351.5,154.28261 351.5,153 v -11 c 0,-1.28261 -0.12024,-2.27064 -0.41602,-3.05859 -0.29578,-0.78795 -0.7949,-1.37034 -1.45117,-1.73243 -1.31253,-0.72418 -3.10789,-0.67986 -5.62695,-0.70898 h -0.004 -16.0039 z"
         id="path1064" />
      <path
         clip-path="url(#clipPath1070)"
         id="path1068"
         d="m 350.9998,152.99999 c 0,5.00001 -1.95653,4.9417 -7,5.00001 H 328 c -5.04347,-0.0583 -7,0 -7,-5.00001 v -11.0002 c 0,-5.00001 1.95653,-4.9417 7,-5.00001 h 15.9998 c 5.04347,0.0583 7,0 7,5.00001 z"
         style="color:#000000;display:inline;overflow:visible;visibility:visible;opacity:0.2;fill:none;fill-opacity:1;fill-rule:nonzero;stroke:url(#linearGradient1080);stroke-width:2;stroke-linecap:butt;stroke-linejoin:miter;stroke-miterlimit:4;stroke-dasharray:none;stroke-dashoffset:0;stroke-opacity:1;marker:none;enable-background:accumulate" />
      <path
         clip-path="url(#clipPath1193)"
         style="color:#000000;display:inline;overflow:visible;visibility:visible;opacity:0.5;fill:none;fill-opacity:1;fill-rule:nonzero;stroke:url(#linearGradient1205);stroke-width:2;stroke-linecap:butt;stroke-linejoin:miter;stroke-miterlimit:4;stroke-dasharray:none;stroke-dashoffset:0;stroke-opacity:1;marker:none;enable-background:accumulate"
         d="m 324,239 c -1.25854,0.0147 -2.08718,0.0598 -2.45312,0.26172 -0.18343,0.10119 -0.28912,0.21275 -0.38672,0.47266 C 321.0626,239.99428 321,240.4076 321,241 v 5 c 0,0.5924 0.0626,1.00571 0.16016,1.26562 0.0976,0.25992 0.20329,0.37146 0.38672,0.47266 0.36594,0.20192 1.19459,0.24702 2.45312,0.26172 h 0.006 6.994 c 1.25853,-0.0147 2.08718,-0.0598 2.45312,-0.26172 0.18343,-0.10119 0.28912,-0.21275 0.38672,-0.47266 C 333.9374,247.00572 334,246.5924 334,246 v -5 c 0,-0.5924 -0.0627,-1.00571 -0.16016,-1.26562 -0.0976,-0.25992 -0.20329,-0.37146 -0.38672,-0.47266 C 333.08718,239.0598 332.25853,239.0147 331,239 Z"
         id="path1191" />
      <path
         clip-path="url(#clipPath1238)"
         style="color:#000000;display:inline;overflow:visible;visibility:visible;opacity:0.5;fill:none;fill-opacity:1;fill-rule:nonzero;stroke:url(#linearGradient1250);stroke-width:2;stroke-linecap:butt;stroke-linejoin:miter;stroke-miterlimit:4;stroke-dasharray:none;stroke-dashoffset:0;stroke-opacity:1;marker:none;enable-background:accumulate"
         d="m 326,194 c -1.25853,0.0147 -2.08912,0.0598 -2.45508,0.26172 -0.18341,0.10119 -0.28716,0.21275 -0.38476,0.47266 C 323.0626,194.99427 323,195.40761 323,196 v 8 c 0,0.59239 0.0626,1.00572 0.16016,1.26562 0.0976,0.25992 0.20135,0.37147 0.38476,0.47266 C 323.91088,205.9402 324.74147,205.9853 326,206 H 326.006 338 c 1.25852,-0.0147 2.08912,-0.0598 2.45508,-0.26172 0.18341,-0.10119 0.28716,-0.21275 0.38476,-0.47266 C 340.9374,205.00573 341,204.59239 341,204 v -8 c 0,-0.59239 -0.0627,-1.00571 -0.16016,-1.26562 -0.0976,-0.25992 -0.20331,-0.37146 -0.38672,-0.47266 C 340.08718,194.0598 339.25852,194.0147 338,194 Z"
         id="path1236" />
      <path
         id="path1323"
         d="m 271.99897,211.00107 c 0,25.00001 -9.78264,24.70848 -35,25.00001 H 66.99995 c -25.21735,-0.29153 -35,0 -35,-25.00001 V 101.00003 c 0,-25.000009 9.78265,-24.708474 35,-25.000009 h 169.99902 c 25.21736,0.291535 35,0 35,25.000009 z"
         style="color:#000000;display:inline;overflow:visible;visibility:visible;opacity:1;fill:url(#linearGradient1331);fill-opacity:1;fill-rule:nonzero;stroke:none;stroke-width:4;stroke-linecap:butt;stroke-linejoin:miter;stroke-miterlimit:4;stroke-dasharray:none;stroke-dashoffset:0;stroke-opacity:1;marker:none;enable-background:accumulate" />
      <path
         clip-path="url(#clipPath1463)"
         id="path1333"
         d="m 271.99897,211.00107 c 0,25.00001 -9.78264,24.70848 -35,25.00001 H 66.99995 c -25.21735,-0.29153 -35,0 -35,-25.00001 V 101.00003 c 0,-25.000009 9.78265,-24.708474 35,-25.000009 h 169.99902 c 25.21736,0.291535 35,0 35,25.000009 z"
         style="color:#000000;display:inline;overflow:visible;visibility:visible;opacity:0.5;fill:none;fill-opacity:1;fill-rule:nonzero;stroke:url(#linearGradient1347);stroke-width:4;stroke-linecap:butt;stroke-linejoin:miter;stroke-miterlimit:4;stroke-dasharray:none;stroke-dashoffset:0;stroke-opacity:1;marker:none;enable-background:accumulate" />
      <rect
         transform="scale(1,-1)"
         y="-95.5"
         x="326.5"
         height="25"
         width="35"
         id="rect1691"
         style="opacity:0.2;fill:url(#linearGradient1876);fill-opacity:1;stroke:#000000;stroke-width:1;stroke-linecap:round;stroke-linejoin:miter;stroke-miterlimit:4;stroke-dasharray:none;stroke-dashoffset:0;stroke-opacity:1" />
      <g
         id="g1965">
        <path
           d="m 361.84667,66.02707 0.84911,-0.989044 c 0.27482,-0.320109 0.73307,-0.358399 1.04095,-0.0745 l 0.57446,0.529715 c 0.30788,0.283903 0.34535,0.779308 0.0705,1.099419 l -0.84911,0.989044 c -0.27482,0.320109 -0.73307,0.3584 -1.04096,0.0745 l -0.57445,-0.529715 c -0.30788,-0.283903 -0.34535,-0.77931 -0.0705,-1.099419 z"
           id="rect10493"
           style="fill:#888888;fill-opacity:1;stroke:none" />
        <path
           style="fill:#666666;fill-opacity:1;stroke:none"
           d="m 361.92188,65.416016 c -0.45713,-0.08787 -1.14443,0.07975 -1.64844,0.689453 l -8.92188,10.654297 -1.2832,0.800781 -7.02734,9.251953 -0.30664,1.082031 0.42578,0.384766 -1.59961,3.484375 0.5625,0.519531 3.07617,-2.162109 0.6582,0.595703 0.71094,-0.650391 7.73242,-8.601562 0.57813,-1.451172 8.89257,-10.628906 c 0.67202,-0.812937 0.43948,-2.028707 0.0957,-2.345704 l -1.58008,-1.457031 c -0.0859,-0.07925 -0.21286,-0.136725 -0.36523,-0.166015 z"
           id="rect10499" />
        <path
           d="m 341.31594,92.061144 c -0.13542,0.163819 -0.11944,0.412852 0.0357,0.555879 0.15511,0.143026 0.3909,0.126152 0.52632,-0.03767 l 0.49065,-0.593546 -0.56198,-0.518211 z"
           id="path10496"
           style="color:#000000;display:inline;overflow:visible;visibility:visible;fill:#000000;fill-opacity:1;fill-rule:evenodd;stroke:none;stroke-width:1px;marker:none;enable-background:accumulate" />
        <path
           d="m 342.73407,87.894326 3.12293,2.822848 0.71151,-0.650674 7.73287,-8.602391 0.57757,-1.450753 -3.52785,-3.253089 -1.28314,0.800136 -7.02731,9.253008 z"
           id="path10502"
           style="display:inline;fill:#5d5d5d;fill-opacity:1;stroke:none;enable-background:new" />
        <path
           d="m 341.31856,92.656993 3.99818,-2.016327 1.25177,-0.574166 7.73287,-8.602391 0.57757,-1.450753 8.67978,-10.499942 c 0.65822,-0.796248 0.94899,-1.803438 0.60702,-2.238452 l 0.45004,-0.544424 c 0.27839,-0.336768 0.18913,-0.908881 -0.19742,-1.265323 l -0.70557,-0.650618 c -0.38655,-0.356442 -0.93533,-0.37268 -1.21372,-0.03591 l -0.45005,0.544424 c -0.45425,-0.2992 -1.35993,0.140967 -2.01815,0.937216 l -8.67979,10.499942 -1.28313,0.800136 -7.02731,9.253008 -0.3698,1.387438 z"
           id="path12486"
           style="opacity:1;fill:none;stroke:#3b3b3b;stroke-width:1;stroke-linecap:butt;stroke-linejoin:round;stroke-miterlimit:1;stroke-dasharray:none;stroke-dashoffset:0;stroke-opacity:1" />
        <path
           style="opacity:0.2;fill:none;fill-rule:evenodd;stroke:#ffffff;stroke-width:1px;stroke-linecap:round;stroke-linejoin:miter;stroke-opacity:1"
           d="m 342.96742,91.038144 1,-4 7,-9 1.875,-1.25 8.375,-10.375"
           id="path12944" />
        <path
           id="path12946"
           d="m 344.29325,90.331037 1.7071,-0.994796 7.44194,-8.558058 1.07951,-2.133884 8.64016,-10.109835"
           style="opacity:0.2;fill:none;fill-rule:evenodd;stroke:#000000;stroke-width:1px;stroke-linecap:round;stroke-linejoin:miter;stroke-opacity:1" />
      </g>
    </g>
    <g
       style="display:inline"
       id="layer6" />
  </g>
</svg>
