<?xml version="1.0" encoding="UTF-8"?>
<svg enable-background="new" version="1.0" viewBox="0 0 256 256" xmlns="http://www.w3.org/2000/svg" xmlns:xlink="http://www.w3.org/1999/xlink"><defs><filter id="w"><feGaussianBlur stdDeviation="2.1206897"/></filter><mask id="m" maskUnits="userSpaceOnUse"><rect transform="matrix(.65558 .75513 .75513 -.65558 0 0)" x="127.96" y="-26.827" width="74.184" height="45.5" rx="3.3447" ry="3.3447" color="#000000" display="block" enable-background="accumulate" fill="url(#n)"/></mask><linearGradient id="n" x1="102.5" x2="102.5" y1="139.25" y2="165.75" gradientTransform="matrix(1.7252 0 0 1.4 -11.782 -217.23)" gradientUnits="userSpaceOnUse"><stop stop-color="#fff" offset="0"/><stop offset="1"/></linearGradient><linearGradient id="c" x1="97.878" x2="112.42" y1="122.47" y2="132.34" gradientUnits="userSpaceOnUse" xlink:href="#s"/><radialGradient id="a" cx="110.13" cy="120.15" r="10.491" gradientTransform="matrix(.95366 -.3009 .40443 1.2818 -43.49 -5.1456)" gradientUnits="userSpaceOnUse" xlink:href="#t"/><radialGradient id="b" cx="111.17" cy="86.433" r="2.25" gradientTransform="matrix(3.1067 .31925 -.36631 3.5646 -201.47 -258.31)" gradientUnits="userSpaceOnUse" xlink:href="#q"/><filter id="x" x="-.097352" y="-.14734" width="1.1947" height="1.2947"><feGaussianBlur stdDeviation="6.8146552"/></filter><linearGradient id="o" x1="82.179" x2="25" y1="127.66" y2="79.33" gradientUnits="userSpaceOnUse"><stop offset="0"/><stop stop-opacity="0" offset="1"/></linearGradient><linearGradient id="p" x1="96" x2="66" y1="137" y2="106" gradientUnits="userSpaceOnUse"><stop offset="0"/><stop stop-opacity="0" offset="1"/></linearGradient><filter id="d" x="-.22207" y="-.26437" width="1.4441" height="1.5287"><feGaussianBlur stdDeviation="4.6264368"/></filter><filter id="e"><feGaussianBlur stdDeviation="0.22873649"/></filter><filter id="f" x="-.14775" y="-.088054" width="1.2955" height="1.1761"><feGaussianBlur stdDeviation="0.3378439"/></filter><linearGradient id="r" x1="102.5" x2="88.14" y1="89.789" y2="104.64" gradientTransform="matrix(1.1703 0 0 1.1703 -25.007 -21.752)" gradientUnits="userSpaceOnUse"><stop stop-color="#c3c3c3" offset="0"/><stop stop-color="#fff" offset=".125"/><stop stop-color="#fff" offset=".25"/><stop stop-color="#181818" offset=".5"/><stop stop-color="#a5a4a5" offset="1"/></linearGradient><filter id="g"><feGaussianBlur stdDeviation="0.42277299"/></filter><filter id="h"><feGaussianBlur stdDeviation="0.28289998"/></filter><filter id="i" x="-.1615" y="-.049574" width="1.323" height="1.0991"><feGaussianBlur stdDeviation="0.75726679"/></filter><filter id="j"><feGaussianBlur stdDeviation="0.87715447"/></filter><linearGradient id="v" x1="67" x2="67" y1="57.986" y2="78.516" gradientTransform="matrix(.82318 .8319 -.8319 .82318 61.593 -50.915)" gradientUnits="userSpaceOnUse"><stop stop-color="#eabf92" offset="0"/><stop stop-color="#51361a" offset="1"/></linearGradient><linearGradient id="t"><stop stop-color="#fff" offset="0"/><stop stop-color="#9e9c9d" offset="1"/></linearGradient><linearGradient id="s"><stop offset="0"/><stop stop-opacity="0" offset="1"/></linearGradient><linearGradient id="q"><stop stop-color="#d3d7cf" offset="0"/><stop stop-color="#949494" offset="1"/></linearGradient><linearGradient id="u" x1="181" x2="160" y1="70" y2="210" gradientTransform="matrix(1.1703 0 0 1.1703 -25.007 -21.752)" gradientUnits="userSpaceOnUse"><stop stop-color="#fff" offset="0"/><stop stop-color="#ebebeb" offset="1"/></linearGradient><filter id="y" color-interpolation-filters="sRGB"><feGaussianBlur stdDeviation="0.87715447"/></filter><filter id="z" x="-.11788" y="-.12007" width="1.2358" height="1.2401"><feGaussianBlur stdDeviation="2.7015086"/></filter><radialGradient id="k" cx="207.5" cy="87" r="33.984" gradientTransform="matrix(2.2064 .045057 -.043552 2.1327 -247.53 -109.89)" gradientUnits="userSpaceOnUse"><stop stop-color="#fff" offset="0"/><stop stop-color="#fff" stop-opacity="0" offset="1"/></radialGradient></defs><g transform="translate(-21,-33)"><g transform="matrix(-1.1111 0 0 1.1111 277.73 25.384)"><path transform="matrix(1.1703 0 0 1.1703 -25.007 -21.752)" d="m116 114-55 47s95.531 62.291 143.38 47.765l4.1128-7.1316c2.5634-55.54-92.493-87.634-92.493-87.634z" color="#000000" display="block" enable-background="accumulate" filter="url(#x)" opacity=".10345"/><g transform="matrix(1.1703 0 0 1.1703 -22.666 -15.901)" opacity=".4023"><path d="m110 148c-7-3-50-29-50-29l15-13z" color="#000000" display="block" enable-background="accumulate" fill="url(#p)" filter="url(#d)" opacity=".22414"/><path d="m110 148c-7-3-85-37-85-37-7.1702-26.018-25.922-36.512 25-15z" color="#000000" display="block" enable-background="accumulate" fill="url(#o)" filter="url(#d)" opacity=".22414"/></g><path transform="translate(0,1)" d="m123.62 112.25-64.953 55.006s63.418 54.709 154.42 51.709l7.2285-6.9082c1-57-96.693-99.807-96.693-99.807z" color="#000000" display="block" enable-background="accumulate" filter="url(#y)" xlink:href="#l"/><path id="l" d="m123.63 112.25-64.954 55.006s63.418 54.709 154.42 51.709l7.2282-6.9095c1-57-96.693-99.805-96.693-99.805z" color="#000000" display="block" enable-background="accumulate" fill="url(#u)"/><g transform="matrix(.56883 .88375 .65521 -.76724 -48.846 162.96)" mask="url(#m)" opacity=".41379"><path d="m103.25 142.12c0.5-0.5 4.625-4.875 4.625-4.875l11.25 8.625-3.625 2.25z" color="#000000" display="block" enable-background="accumulate" filter="url(#g)" opacity=".27586"/><ellipse transform="matrix(.54381 .60063 -.60063 .54381 95.563 -10.89)" cx="110.75" cy="86.938" rx="2.25" ry="8.0625" color="#000000" enable-background="accumulate" fill="#fff" fill-rule="evenodd"/><ellipse transform="matrix(.54381 .60063 -.60063 .54381 95.917 -10.36)" cx="110.75" cy="86.938" rx="2.25" ry="8.0625" color="#000000" enable-background="accumulate" fill="url(#b)" fill-rule="evenodd"/><path d="m106.22 102.28c-1.4792-0.10396-4.019 1.54-3.9072 3.1446 2.6509 4.8199 2.7967 6.9177 2.5947 8.5741s-1.2402 2.9474-3.625 5.0938c-1.2186 1.0967-2.6371 2.3015-3.8438 3.875s-2.1636 3.6678-2.0312 6.0938c0.26465 4.8519 4.9769 10.434 7.6875 11.969l12.007 5.1134 1.2738-1.2675-9.8438-7.4085c-3.1644-2.9656-5.9522-6.6331-6.0625-8.6562-0.0552-1.0116 0.28476-1.7766 1.0312-2.75s1.9373-2.003 3.2188-3.1562c2.6152-2.3537 4.827-4.8127 5.25-8.2812s-0.90093-7.1636-3.75-12.344z" color="#000000" enable-background="accumulate" fill="url(#a)" fill-rule="evenodd"/><path d="m104.12 140.5s-9.6912-10.457-6.625-14.75c3.75-5.25 9-8.25 9-11.75s-2.875-9.125-2.875-9.125" color="#000000" display="block" enable-background="accumulate" fill="none" filter="url(#i)" stroke="#fff" stroke-miterlimit="10" stroke-width="1.0279"/><path d="m106.81 139.56s-10.566-8.4574-7.3125-13.312c3.5917-5.3595 8.5258-6.8243 9-11.75 0.43869-4.5568-2.875-9.125-2.875-9.125" color="#000000" display="block" enable-background="accumulate" fill="none" filter="url(#h)" opacity=".22414" stroke="url(#c)" stroke-miterlimit="10" stroke-width="1.9847"/><path d="m114.81 146.38 1.6875-1.625s-1.0625-1.375-1.5-1-0.1875 2.625-0.1875 2.625z" color="#000000" display="block" enable-background="accumulate" fill="#fff"/><path d="m115.44 143.66-8.125-6-3.7812 3.1875 11.25 3.7188z" color="#000000" display="block" enable-background="accumulate" fill="#e4e4e4" opacity=".93103"/><path d="m105.53 102.28c-0.44101 0.0673-1.0933 0.37723-1.7812 0.875-1.1007 0.79643-1.8588 1.7577-1.6875 2.1562 0.0321 0.0747 0.10006 0.13061 0.1875 0.15625-0.13129-0.41288 0.60909-1.3447 1.6875-2.125 0.91498-0.66203 1.7598-1.0098 2.125-0.875-3e-3 -9e-3 4e-3 -0.0229 0-0.0312-0.0642-0.14947-0.26664-0.19662-0.53125-0.15625z" color="#000000" enable-background="accumulate" fill="#fff" fill-rule="evenodd"/><path d="m103.94 103.26 1.7678-0.88389s3.5355 6.364 3.7123 8.8388c0.17678 2.4749-5.6568-8.3085-5.4801-7.955z" color="#000000" display="block" enable-background="accumulate" fill="#fff" filter="url(#f)"/><path d="m106.81 138.12-1.625 1.375s-3.9688-5.125-4.1875-6.2812 5.7812 4.9062 5.8125 4.9062z" color="#000000" display="block" enable-background="accumulate" fill="#fff" filter="url(#e)"/></g><path d="m31.325 15.002c27.68 21.565 36.567 30.697 57.893 59.838 1.5254 1.5415 1.5123 4.0105-0.02918 5.5358l-11.489 11.369c-1.5415 1.5253-4.0105 1.5123-5.5358-0.029169-26.823-21.193-37.258-32.996-57.893-59.838-4.8096-7.6311 9.6805-22.269 17.054-16.875z" color="#000000" enable-background="accumulate" fill="url(#v)" fill-rule="evenodd"/><path d="m71.253 91.368 20.042 13.13 11.264-10.387-13.239-18.981c-5.1772-3.5772-20.693 11.24-18.067 16.238z" color="#000000" enable-background="accumulate" fill="url(#r)" fill-rule="evenodd"/><path d="m50.773 37.349-2.0481 1.1703 15.507 15.653 1.6092-1.3166z" color="#000000" display="block" enable-background="accumulate" fill="#564527" opacity=".48851"/><g transform="matrix(1.1703 0 0 1.1703 -25.007 -21.752)"><path d="m103.25 142.12c0.5-0.5 4.625-4.875 4.625-4.875l11.25 8.625-3.625 2.25z" color="#000000" display="block" enable-background="accumulate" filter="url(#g)" opacity=".27586"/><ellipse transform="matrix(.54381 .60063 -.60063 .54381 95.563 -10.89)" cx="110.75" cy="86.938" rx="2.25" ry="8.0625" color="#000000" enable-background="accumulate" fill="#fff" fill-rule="evenodd"/><ellipse transform="matrix(.54381 .60063 -.60063 .54381 95.917 -10.36)" cx="110.75" cy="86.938" rx="2.25" ry="8.0625" color="#000000" enable-background="accumulate" fill="url(#b)" fill-rule="evenodd"/><path d="m106.22 102.28c-1.4792-0.10396-4.019 1.54-3.9072 3.1446 2.6509 4.8199 2.7967 6.9177 2.5947 8.5741s-1.2402 2.9474-3.625 5.0938c-1.2186 1.0967-2.6371 2.3015-3.8438 3.875s-2.1636 3.6678-2.0312 6.0938c0.26465 4.8519 4.9769 10.434 7.6875 11.969l12.007 5.1134 1.2738-1.2675-9.8438-7.4085c-3.1644-2.9656-5.9522-6.6331-6.0625-8.6562-0.0552-1.0116 0.28476-1.7766 1.0312-2.75s1.9373-2.003 3.2188-3.1562c2.6152-2.3537 4.827-4.8127 5.25-8.2812s-0.90093-7.1636-3.75-12.344z" color="#000000" enable-background="accumulate" fill="url(#a)" fill-rule="evenodd"/><path d="m104.12 140.5s-9.6912-10.457-6.625-14.75c3.75-5.25 9-8.25 9-11.75s-2.875-9.125-2.875-9.125" color="#000000" display="block" enable-background="accumulate" fill="none" filter="url(#i)" stroke="#fff" stroke-miterlimit="10" stroke-width=".88506"/><path d="m106.81 139.56s-10.566-8.4574-7.3125-13.312c3.5917-5.3595 8.5258-6.8243 9-11.75 0.43869-4.5568-2.875-9.125-2.875-9.125" color="#000000" display="block" enable-background="accumulate" fill="none" filter="url(#h)" opacity=".22414" stroke="url(#c)" stroke-miterlimit="10" stroke-width="1.7089"/><path d="m114.81 146.38 1.6875-1.625s-1.0625-1.375-1.5-1-0.1875 2.625-0.1875 2.625z" color="#000000" display="block" enable-background="accumulate" fill="#fff"/><path d="m115.44 143.66-8.125-6-3.7812 3.1875 11.25 3.7188z" color="#000000" display="block" enable-background="accumulate" fill="#e4e4e4" opacity=".93103"/><path d="m105.53 102.28c-0.44101 0.0673-1.0933 0.37723-1.7812 0.875-1.1007 0.79643-1.8588 1.7577-1.6875 2.1562 0.0321 0.0747 0.10006 0.13061 0.1875 0.15625-0.13129-0.41288 0.60909-1.3447 1.6875-2.125 0.91498-0.66203 1.7598-1.0098 2.125-0.875-3e-3 -9e-3 4e-3 -0.0229 0-0.0312-0.0642-0.14947-0.26664-0.19662-0.53125-0.15625z" color="#000000" enable-background="accumulate" fill="#fff" fill-rule="evenodd"/><path d="m103.94 103.26 1.7678-0.88389s3.5355 6.364 3.7123 8.8388c0.17678 2.4749-5.6568-8.3085-5.4801-7.955z" color="#000000" display="block" enable-background="accumulate" fill="#fff" filter="url(#f)"/><path d="m106.81 138.12-1.625 1.375s-3.9688-5.125-4.1875-6.2812 5.7812 4.9062 5.8125 4.9062z" color="#000000" display="block" enable-background="accumulate" fill="#fff" filter="url(#e)"/></g><path transform="matrix(1.1703 0 0 1.1703 -25.007 -21.752)" d="m82.75 95.5 0.5-2.5 15.75 12.25-0.25 1z" color="#000000" display="block" enable-background="accumulate" fill="#fff" filter="url(#j)"/><path transform="matrix(1.1703 0 0 1.1703 -25.007 -21.752)" d="m82.024 94.78 0.70711-2.8284c-16.527-13.623-32.846-28.492-48.437-47.73 14.739 20.95 31.132 36.112 47.73 50.558z" color="#000000" display="block" enable-background="accumulate" fill="#fff" filter="url(#j)" opacity=".18391"/><path d="m84.5 75-9 7c-20.394-22.151-44.459-46.417-51.5-62.5 22.323 13.451 43.548 34.748 60.5 55.5z" color="#000000" display="block" enable-background="accumulate" fill="#eabf92" filter="url(#w)" opacity=".67241"/></g><path d="m179 112c19.71-15.246 37.956-33.422 55-54-18.333 14.613-36.667 31.425-55 54z" fill="url(#k)" filter="url(#z)"/></g></svg>
