<?xml version="1.0" encoding="UTF-8"?>
<svg enable-background="new" version="1.0" viewBox="0 0 256 256" xmlns="http://www.w3.org/2000/svg" xmlns:xlink="http://www.w3.org/1999/xlink"><defs><radialGradient id="f" cx="-393.93" cy="151.57" r="53.54" gradientTransform="matrix(1 0 0 .71015 -11 40.933)" gradientUnits="userSpaceOnUse"><stop stop-color="#fff" offset="0"/><stop stop-color="#fff" stop-opacity="0" offset="1"/></radialGradient><radialGradient id="g" cx="-394.62" cy="176.62" r="75.873" gradientTransform="matrix(1.042 0 0 .97029 136.55 5.464)" gradientUnits="userSpaceOnUse"><stop stop-opacity="0" offset="0"/><stop stop-opacity="0" offset=".90858"/><stop offset="1"/></radialGradient><clipPath id="q"><path d="m-278.64 180.07c0 41.571-33.711 75.272-75.289 75.272-41.582 0-75.291-33.701-75.291-75.272 0-41.569 33.709-75.266 75.291-75.266 41.578 0 75.289 33.697 75.289 75.266z"/></clipPath><radialGradient id="h" cx="-418.62" cy="149.46" r="75.873" gradientTransform="matrix(1.3694 0 0 1.2752 184.62 -39.245)" gradientUnits="userSpaceOnUse"><stop stop-color="#fff" offset="0"/><stop stop-color="#eeeeec" offset=".15517"/><stop stop-color="#eeeeec" offset=".63109"/><stop stop-color="#babdb6" offset=".81554"/><stop stop-color="#888a85" offset="1"/></radialGradient><filter id="o"><feGaussianBlur stdDeviation="3.6522887"/></filter><clipPath id="r"><path d="m-243.94 104.81c-7.0217 0-13.802 0.98382-20.25 2.7812l-0.46875-0.78125-3.6875 0.5625-1.75 1.75-2.9062 0.40625-2.5625 1.1875-1.25 0.625-0.75 1 0.5625 0.0937c-1.531 0.74984-3.0295 1.5577-4.5 2.4062l-0.0937-0.1875-0.1563 0.3438c-1.45 0.8443-2.8949 1.72-4.2812 2.6562l-0.15625-0.0937-2.3125-0.34375-1.25 3.1562c-0.22912 0.17606-0.46047 0.35263-0.6875 0.53125-0.56625 0.10725-2.0151 0.37256-2.5312 0.5-7.8919 7.2702-23.827 22.966-27.531 52.594 0.072 0.3369 0.7375 1.4663 1.375 2.5312-0.0541 1.1705-0.0937 2.3474-0.0937 3.5312 0 25.276 12.477 47.631 31.594 61.281l-0.0313 0.125c-0.0277 0.0221-0.0714 0.12606 0.0937 0.6875 0.22223 0.74898 9.2412 5.737 9.8125 5.3125 0.0677-0.0514 0.0605-0.044 0.125-0.0937 10.141 5.085 21.569 7.9688 33.688 7.9688 41.578 0 75.312-33.71 75.312-75.281 0-3.876-0.30979-7.6881-0.875-11.406l0.75-0.84375c-1e-5 -2.5861-2.9526-15.321-9.25-26.125-6.2973-10.8-17.344-20.688-17.344-20.688l-0.625 1.0625c-0.65527-0.54189-1.3264-1.0739-2-1.5938l0.59375-0.65625-1.9062-0.34375c-12.493-9.2134-27.942-14.656-44.656-14.656z"/></clipPath><radialGradient id="i" cx="-393.93" cy="174.24" r="75.29" gradientTransform="matrix(1.0282 -6.6497e-8 6.6479e-8 1.0279 11.116 -4.8659)" gradientUnits="userSpaceOnUse"><stop stop-opacity="0" offset="0"/><stop stop-opacity="0" offset=".82124"/><stop offset="1"/></radialGradient><radialGradient id="j" cx="18.248" cy="15.716" r="29.993" gradientTransform="matrix(3.5875 0 0 3.5866 -483.94 93.547)" gradientUnits="userSpaceOnUse"><stop stop-color="#d3e9ff" offset="0"/><stop stop-color="#d3e9ff" offset=".15517"/><stop stop-color="#4074ae" offset=".63109"/><stop stop-color="#3b5e8d" offset=".81554"/><stop stop-color="#526ea5" offset="1"/></radialGradient><filter id="m" x="-.050594" y="-.13674" width="1.1012" height="1.2735"><feGaussianBlur stdDeviation="0.85179702"/></filter><radialGradient id="k" cx="15.116" cy="63.965" r="12.289" gradientTransform="scale(1.644 .60828)" gradientUnits="userSpaceOnUse" xlink:href="#a"/><linearGradient id="a"><stop offset="0"/><stop stop-opacity="0" offset="1"/></linearGradient><radialGradient id="l" cx="15.116" cy="63.965" r="12.289" gradientTransform="matrix(1.6414 0 0 .60731 .039567 .061952)" gradientUnits="userSpaceOnUse" xlink:href="#a"/><radialGradient id="c" cx="-259.12" cy="152.68" r="75.873" gradientTransform="matrix(1.033 0 0 .96191 8.5381 7.4775)" gradientUnits="userSpaceOnUse"><stop offset="0"/><stop stop-opacity="0" offset="1"/></radialGradient><radialGradient id="b" cx="-376.48" cy="150.05" r="75.483" gradientTransform="matrix(1.0596 0 0 .99888 22.452 1.7041)" gradientUnits="userSpaceOnUse"><stop stop-color="#fff" offset="0"/><stop stop-color="#fff" stop-opacity="0" offset="1"/></radialGradient><clipPath id="s"><path d="m-318.64 180.07c0 41.571-33.711 75.272-75.289 75.272-41.582 0-75.291-33.701-75.291-75.272 0-41.569 33.709-75.266 75.291-75.266 41.578 0 75.289 33.697 75.289 75.266z" fill="none" stroke="#000"/></clipPath><filter id="p"><feGaussianBlur stdDeviation="1.513086"/></filter><radialGradient id="e" cx="148.06" cy="160.81" r="75.662" gradientTransform="matrix(1 0 0 .93103 0 11.092)" gradientUnits="userSpaceOnUse"><stop stop-color="#fff" offset="0"/><stop stop-color="#fff" stop-opacity=".49804" offset=".64216"/><stop stop-color="#fff" stop-opacity="0" offset=".92446"/><stop stop-color="#fff" stop-opacity="0" offset="1"/></radialGradient><filter id="n" x="-.063896" y="-.11195" width="1.1278" height="1.2239" color-interpolation-filters="sRGB"><feGaussianBlur stdDeviation="3.7621822"/></filter><radialGradient id="d" cx="186.5" cy="271.15" r="70.656" gradientTransform="matrix(1 0 0 .57076 -61.583 47.714)" gradientUnits="userSpaceOnUse"><stop stop-color="#fff" offset="0"/><stop stop-color="#fff" stop-opacity="0" offset="1"/></radialGradient></defs><g transform="translate(-16,-28)"><g transform="matrix(1.4323 0 0 1.4323 -70.181 -81.4)" enable-background="new"><g transform="translate(712,-16)"><ellipse transform="matrix(2.1378 0 0 2.4826 -616.65 146.86)" cx="24.85" cy="38.909" rx="20.203" ry="7.4751" fill="url(#l)" opacity=".86939"/><ellipse transform="matrix(3.1746 0 0 3.6866 -642.41 95.745)" cx="24.85" cy="38.909" rx="20.203" ry="7.4751" fill="url(#k)" filter="url(#m)" opacity=".63265"/><g transform="translate(-170)"><path d="m-318.64 180.07c0 41.571-33.711 75.272-75.289 75.272-41.582 0-75.291-33.701-75.291-75.272 0-41.569 33.709-75.266 75.291-75.266 41.578 0 75.289 33.697 75.289 75.266z" fill="url(#j)"/><path d="m-318.64 180.07c0 41.571-33.711 75.272-75.289 75.272-41.582 0-75.291-33.701-75.291-75.272 0-41.569 33.709-75.266 75.291-75.266 41.578 0 75.289 33.697 75.289 75.266z" fill="url(#i)" opacity=".4898"/><path transform="translate(-150)" d="m-243.24 107.19-8.6176 0.95396-10.621 2.9255-2.0352 1.9716 6.6143 4.5473v2.6076l-2.5757 2.5758 3.4343 6.8368 2.2895-1.3038 2.8938-4.5473c4.4399-1.3723 8.436-2.914 12.656-4.8653l3.4343-8.7766zm-20.415 0.63598-3.6887 0.54058-1.749 1.749-2.8938 0.41338-2.5757 1.2084-1.2402 0.60419-0.76319 1.0176 3.7205 0.63598 1.431-1.3038 2.8937-0.63598c1.9689-0.95729 3.9528-1.6141 6.0419-2.2896zm-11.766 7.7908-2.6076 0.66778-1.1448 2.2896-1.431-2.9255-0.57241 1.272 0.28621 3.2753-2.2896 1.9398-1.431 3.5933h2.8619l1.431-3.2753c1.2394-0.87625 2.4899-1.7641 3.7523-2.6075l2.8619 0.98579c1.9151 1.3008 3.839 2.6125 5.7557 3.9113l2.8619-2.6075-3.1481-1.3038-1.431-2.9255-5.4695-0.636zm-12.084 2.6075-1.431 3.5933c-1e-5 0-2.403 0.45163-3.0209 0.60419-7.8919 7.2702-23.834 22.968-27.538 52.596 0.14672 0.68694 2.6711 4.6745 2.6711 4.6745l6.0419 3.5933 6.0419 1.6218 2.5758 3.2435 4.0385 2.9255 2.2896-0.318 1.7172 0.76319v0.54058l-2.2896 6.1691-1.7172 2.6075 0.57238 1.3038-1.431 4.8653 5.1515 9.4444 5.1833 4.5473 2.2896 3.2435-0.28621 6.8368 1.749 3.9113-1.749 7.4728c-0.0277 0.0221-0.0698 0.13815 0.0954 0.69959 0.22222 0.74899 9.2229 5.735 9.7942 5.3105 0.56931-0.43241 1.0494-0.82678 1.0494-0.82678l-0.57238-1.59 2.2895-2.2896 0.85858-2.2896 3.7523-1.3038 2.8619-7.1548-0.85858-1.9398 2.0034-2.9255 4.3247-0.98578 2.2896-5.1833-0.57238-6.5189 3.4343-4.8653 0.57239-4.8971c-4.7183-2.339-9.3722-4.7466-14.055-7.1548l-2.3214-4.5473-4.2929-0.98577-2.3214-6.1691-5.7239 0.66779-4.8971-3.5933-5.1833 4.5473v0.73138c-1.5657-0.45176-3.4713-0.51045-4.8653-1.3674l-1.1448-3.2435v-3.5933l-3.4661 0.31799c0.28784-2.2774 0.56878-4.528 0.85858-6.805h-2.0034l-2.0034 2.5757-2.0352 0.9858-2.8619-1.6218-0.2862-3.5933 0.5724-3.8795 4.3247-3.2435h3.4343l0.57239-1.9716 4.3247 0.98578 3.1481 3.9113 0.5724-6.5189 5.4695-4.5473 2.0034-4.8971 4.0385-1.6218 2.2895-3.2435 5.1833-0.98578 2.5758-3.8795h-7.759l4.8971-2.2896h3.4343l4.8971-1.6218 0.57238-1.9398-1.7172-1.6536-2.0352-0.63599 0.5724-1.9398-1.431-2.9255-3.4343 1.272 0.57239-2.5757-4.0385-2.2896-3.1481 5.5331 0.28619 1.9398-3.1481 1.3038-2.0352 4.2293-0.85858-3.9113-5.4695-2.2578-0.85857-2.9255 7.1866-4.2293 3.1799-2.9255 0.2862-3.5933-1.7172-0.95398-2.3214-0.3498zm80.516 0-5.4695 1.3038-3.4343 2.2895v1.9398l-5.4695 3.5933 1.1448 5.1833 3.1799-2.2577 2.0034 2.2577 2.2896 1.3038 1.4628-3.8795-0.89039-2.2896 0.89039-1.6218 3.1481-2.9255h1.431l-1.431 3.2435v2.9255c1.3205-0.35928 2.6554-0.46802 4.0067-0.63599l-3.7205 2.5757-0.28619 1.6536-4.3247 3.5615-4.2929-0.98578v-2.5757l-2.0034 1.3038 0.85858 2.2578h-3.1799l-1.7172 2.9255-2.1624 2.4485-3.8795 0.79498 2.2896 2.2896 0.60418 2.2578h-2.8937l-3.7205 1.9716v5.8511h1.7172l1.59 1.7808 3.5933-1.7808 1.431-3.5933 2.5757-1.6218 0.5724-1.3038 4.3247-0.95397 2.2896 2.6076 2.6076 1.272-1.4628 2.9256 2.3213-0.63599 1.1448-2.9255-2.8938-3.2435h1.1766l2.8619 2.2578 0.57239 3.2753 2.5758 2.9255 0.57238-4.2293 1.4628-0.66779c1.4209 1.4747 2.5237 3.2375 3.7205 4.8971l4.3247 0.31799 2.5757 1.6218-1.1448 1.6218-2.5758 2.2896h-3.7523l-4.8971-1.6218-2.5758 0.31798-1.8762 2.0988-5.3105-5.3423-3.7205-0.98578-5.4695 0.63598-4.8971 1.3038c-2.7415 3.107-5.4504 6.2176-8.0452 9.4444l-3.1481 7.4728 1.431 1.6218-2.5757 3.9113 2.8619 6.8369c2.4437 2.7636 4.8737 5.5023 7.3138 8.2678l3.5933-3.0845 1.59 1.8126 3.8795-2.4486 1.3038 1.4628h3.8795l2.226 2.5122-1.3674 4.4837 2.7347 3.0845-0.159 5.3741 2.0352 3.8795-1.4628 3.2753c-0.14311 2.3928-0.28618 4.7616-0.28618 7.1548 1.1778 3.2422 2.3539 6.4651 3.4661 9.7306l0.85858 5.2151v2.6075h2.0034l3.1799-1.9398h3.7205l5.5967-6.3599-0.69959-2.0988 3.7205-3.2753-2.7347-3.0845 3.3071-2.7665 3.1799-1.9398 1.431-1.6218-0.8586-3.5933v-9.0946l2.5758-5.5331 3.1799-3.5615 3.4343-8.4586v-2.2896c-1.713 0.21571-3.3802 0.42013-5.0561 0.54058l3.4661-3.4661 4.7381-3.2435 2.6076-2.9255v-3.2753c-0.57527-1.0846-1.1698-2.159-1.749-3.2435l-2.2896 2.6075-1.7172-1.9398-2.5757-1.9716v-4.2293l3.0209 3.4343 3.2753-0.50878c1.5055 1.3664 3.0042 2.6736 4.3247 4.2293l2.1624-2.4167c0-2.5861-2.9562-15.335-9.2536-26.139-6.2974-10.8-17.331-20.67-17.331-20.67l-0.85858 1.431-2.8937 3.2436-3.7205-3.9113h3.7205l1.7172-1.9398-6.8686-1.3038zm-28.492 4.2293-2.2896 1.3038-1.1448-0.31801-0.28618 1.9398 2.0034 1.3038 3.4343-2.2578zm-37.937 0.66779-2.2896 1.6218 2.8619 1.9398h2.2896v-2.2578zm45.409 7.4728v1.9398l1.1448 1.3038v2.9255l-0.57239 3.9113 3.1799-0.63599 2.2896-2.2896-2.0034-1.9397c-0.67567-1.7988-1.4757-3.4898-2.3214-5.2151zm-1.1448 3.9113-2.0034 0.63599 0.57238 3.5933 2.5757-1.3038zm-39.654 5.8511 0.85859 4.5473 1.7172-2.6076zm75.046 25.376 3.3071 3.7205 3.8795 8.2996 2.2895 2.6076-1.1448 2.9255 2.1942 2.4804c-1.0086 0.0684-2.0157 0.1272-3.0527 0.1272-1.8301-3.8446-3.2172-7.7119-4.6109-11.734l-2.4485-2.7665-1.272-4.7063z" clip-path="url(#r)" fill="url(#c)" filter="url(#o)"/><path transform="matrix(1.0092 0 0 1.0092 3.6288 -1.6611)" d="m-318.64 180.07c0 41.571-33.711 75.272-75.289 75.272-41.582 0-75.291-33.701-75.291-75.272 0-41.569 33.709-75.266 75.291-75.266 41.578 0 75.289 33.697 75.289 75.266z" clip-path="url(#s)" fill="none" filter="url(#p)" stroke="#000" stroke-width=".99087"/><g transform="translate(-120)"><g transform="translate(90)"><path d="m-364.24 106.19-8.6176 0.95396-10.621 2.9255-2.0352 1.9716 6.6143 4.5473v2.6076l-2.5757 2.5758 3.4343 6.8368 2.2895-1.3038 2.8938-4.5473c4.4399-1.3723 8.436-2.914 12.656-4.8653l3.4343-8.7766zm-20.415 0.63598-3.6887 0.54058-1.749 1.749-2.8938 0.41338-2.5757 1.2084-1.2402 0.60419-0.76319 1.0176 3.7205 0.63598 1.431-1.3038 2.8937-0.63598c1.9689-0.95729 3.9528-1.6141 6.0419-2.2896zm-11.766 7.7908-2.6076 0.66778-1.1448 2.2896-1.431-2.9255-0.57241 1.272 0.28621 3.2753-2.2896 1.9398-1.431 3.5933h2.8619l1.431-3.2753c1.2394-0.87625 2.4899-1.7641 3.7523-2.6075l2.8619 0.98579c1.9151 1.3008 3.839 2.6125 5.7557 3.9113l2.8619-2.6075-3.1481-1.3038-1.431-2.9255-5.4695-0.636zm-12.084 2.6075-1.431 3.5933c-1e-5 0-2.403 0.45163-3.0209 0.60419-7.8919 7.2702-23.834 22.968-27.538 52.596 0.14672 0.68694 2.6711 4.6745 2.6711 4.6745l6.0419 3.5933 6.0419 1.6218 2.5758 3.2435 4.0385 2.9255 2.2896-0.318 1.7172 0.76319v0.54058l-2.2896 6.1691-1.7172 2.6075 0.57238 1.3038-1.431 4.8653 5.1515 9.4444 5.1833 4.5473 2.2896 3.2435-0.28621 6.8368 1.749 3.9113-1.749 7.4728c-0.0277 0.0221-0.0698 0.13815 0.0954 0.69959 0.22222 0.74899 9.2229 5.735 9.7942 5.3105 0.56931-0.43241 1.0494-0.82678 1.0494-0.82678l-0.57238-1.59 2.2895-2.2896 0.85858-2.2896 3.7523-1.3038 2.8619-7.1548-0.85858-1.9398 2.0034-2.9255 4.3247-0.98578 2.2896-5.1833-0.57238-6.5189 3.4343-4.8653 0.57239-4.8971c-4.7183-2.339-9.3722-4.7466-14.055-7.1548l-2.3214-4.5473-4.2929-0.98577-2.3214-6.1691-5.7239 0.66779-4.8971-3.5933-5.1833 4.5473v0.73138c-1.5657-0.45176-3.4713-0.51045-4.8653-1.3674l-1.1448-3.2435v-3.5933l-3.4661 0.31799c0.28784-2.2774 0.56878-4.528 0.85858-6.805h-2.0034l-2.0034 2.5757-2.0352 0.9858-2.8619-1.6218-0.2862-3.5933 0.5724-3.8795 4.3247-3.2435h3.4343l0.57239-1.9716 4.3247 0.98578 3.1481 3.9113 0.5724-6.5189 5.4695-4.5473 2.0034-4.8971 4.0385-1.6218 2.2895-3.2435 5.1833-0.98578 2.5758-3.8795h-7.759l4.8971-2.2896h3.4343l4.8971-1.6218 0.57238-1.9398-1.7172-1.6536-2.0352-0.63599 0.5724-1.9398-1.431-2.9255-3.4343 1.272 0.57239-2.5757-4.0385-2.2896-3.1481 5.5331 0.28619 1.9398-3.1481 1.3038-2.0352 4.2293-0.85858-3.9113-5.4695-2.2578-0.85857-2.9255 7.1866-4.2293 3.1799-2.9255 0.2862-3.5933-1.7172-0.95398-2.3214-0.3498zm80.516 0-5.4695 1.3038-3.4343 2.2895v1.9398l-5.4695 3.5933 1.1448 5.1833 3.1799-2.2577 2.0034 2.2577 2.2896 1.3038 1.4628-3.8795-0.89039-2.2896 0.89039-1.6218 3.1481-2.9255h1.431l-1.431 3.2435v2.9255c1.3205-0.35928 2.6554-0.46802 4.0067-0.63599l-3.7205 2.5757-0.28619 1.6536-4.3247 3.5615-4.2929-0.98578v-2.5757l-2.0034 1.3038 0.85858 2.2578h-3.1799l-1.7172 2.9255-2.1624 2.4485-3.8795 0.79498 2.2896 2.2896 0.60418 2.2578h-2.8937l-3.7205 1.9716v5.8511h1.7172l1.59 1.7808 3.5933-1.7808 1.431-3.5933 2.5757-1.6218 0.5724-1.3038 4.3247-0.95397 2.2896 2.6076 2.6076 1.272-1.4628 2.9256 2.3213-0.63599 1.1448-2.9255-2.8938-3.2435h1.1766l2.8619 2.2578 0.57239 3.2753 2.5758 2.9255 0.57238-4.2293 1.4628-0.66779c1.4209 1.4747 2.5237 3.2375 3.7205 4.8971l4.3247 0.31799 2.5757 1.6218-1.1448 1.6218-2.5758 2.2896h-3.7523l-4.8971-1.6218-2.5758 0.31798-1.8762 2.0988-5.3105-5.3423-3.7205-0.98578-5.4695 0.63598-4.8971 1.3038c-2.7415 3.107-5.4504 6.2176-8.0452 9.4444l-3.1481 7.4728 1.431 1.6218-2.5757 3.9113 2.8619 6.8369c2.4437 2.7636 4.8737 5.5023 7.3138 8.2678l3.5933-3.0845 1.59 1.8126 3.8795-2.4486 1.3038 1.4628h3.8795l2.226 2.5122-1.3674 4.4837 2.7347 3.0845-0.159 5.3741 2.0352 3.8795-1.4628 3.2753c-0.14311 2.3928-0.28618 4.7616-0.28618 7.1548 1.1778 3.2422 2.3539 6.4651 3.4661 9.7306l0.85858 5.2151v2.6075h2.0034l3.1799-1.9398h3.7205l5.5967-6.3599-0.69959-2.0988 3.7205-3.2753-2.7347-3.0845 3.3071-2.7665 3.1799-1.9398 1.431-1.6218-0.8586-3.5933v-9.0946l2.5758-5.5331 3.1799-3.5615 3.4343-8.4586v-2.2896c-1.713 0.21571-3.3802 0.42013-5.0561 0.54058l3.4661-3.4661 4.7381-3.2435 2.6076-2.9255v-3.2753c-0.57527-1.0846-1.1698-2.159-1.749-3.2435l-2.2896 2.6075-1.7172-1.9398-2.5757-1.9716v-4.2293l3.0209 3.4343 3.2753-0.50878c1.5055 1.3664 3.0042 2.6736 4.3247 4.2293l2.1624-2.4167c0-2.5861-2.9562-15.335-9.2536-26.139-6.2974-10.8-17.331-20.67-17.331-20.67l-0.85858 1.431-2.8937 3.2436-3.7205-3.9113h3.7205l1.7172-1.9398-6.8686-1.3038zm-28.492 4.2293-2.2896 1.3038-1.1448-0.31801-0.28618 1.9398 2.0034 1.3038 3.4343-2.2578zm-37.937 0.66779-2.2896 1.6218 2.8619 1.9398h2.2896v-2.2578zm45.409 7.4728v1.9398l1.1448 1.3038v2.9255l-0.57239 3.9113 3.1799-0.63599 2.2896-2.2896-2.0034-1.9397c-0.67567-1.7988-1.4757-3.4898-2.3214-5.2151zm-1.1448 3.9113-2.0034 0.63599 0.57238 3.5933 2.5757-1.3038zm-39.654 5.8511 0.85859 4.5473 1.7172-2.6076zm75.046 25.376 3.3071 3.7205 3.8795 8.2996 2.2895 2.6076-1.1448 2.9255 2.1942 2.4804c-1.0086 0.0684-2.0157 0.1272-3.0527 0.1272-1.8301-3.8446-3.2172-7.7119-4.6109-11.734l-2.4485-2.7665-1.272-4.7063z" fill="url(#h)" stroke-width=".12032"/><path transform="translate(-10)" d="m-354.24 106.19-8.6176 0.95396-10.621 2.9255-2.0352 1.9716 6.6143 4.5473v2.6076l-2.5757 2.5758 3.4343 6.8368 2.2895-1.3038 2.8938-4.5473c4.4399-1.3723 8.436-2.914 12.656-4.8653l3.4343-8.7766zm-20.415 0.63598-3.6887 0.54058-1.749 1.749-2.8938 0.41338-2.5757 1.2084-1.2402 0.60419-0.76319 1.0176 3.7205 0.63598 1.431-1.3038 2.8937-0.63598c1.9689-0.95729 3.9528-1.6141 6.0419-2.2896zm-11.766 7.7908-2.6076 0.66778-1.1448 2.2896-1.431-2.9255-0.57241 1.272 0.28621 3.2753-2.2896 1.9398-1.431 3.5933h2.8619l1.431-3.2753c1.2394-0.87625 2.4899-1.7641 3.7523-2.6075l2.8619 0.98579c1.9151 1.3008 3.839 2.6125 5.7557 3.9113l2.8619-2.6075-3.1481-1.3038-1.431-2.9255-5.4695-0.636zm-12.084 2.6075-1.431 3.5933c-1e-5 0-2.403 0.45163-3.0209 0.60419-7.8919 7.2702-23.834 22.968-27.538 52.596 0.14672 0.68694 2.6711 4.6745 2.6711 4.6745l6.0419 3.5933 6.0419 1.6218 2.5758 3.2435 4.0385 2.9255 2.2896-0.318 1.7172 0.76319v0.54058l-2.2896 6.1691-1.7172 2.6075 0.57238 1.3038-1.431 4.8653 5.1515 9.4444 5.1833 4.5473 2.2896 3.2435-0.28621 6.8368 1.749 3.9113-1.749 7.4728c-0.0277 0.0221-0.0698 0.13815 0.0954 0.69959 0.22222 0.74899 9.2229 5.735 9.7942 5.3105 0.56931-0.43241 1.0494-0.82678 1.0494-0.82678l-0.57238-1.59 2.2895-2.2896 0.85858-2.2896 3.7523-1.3038 2.8619-7.1548-0.85858-1.9398 2.0034-2.9255 4.3247-0.98578 2.2896-5.1833-0.57238-6.5189 3.4343-4.8653 0.57239-4.8971c-4.7183-2.339-9.3722-4.7466-14.055-7.1548l-2.3214-4.5473-4.2929-0.98577-2.3214-6.1691-5.7239 0.66779-4.8971-3.5933-5.1833 4.5473v0.73138c-1.5657-0.45176-3.4713-0.51045-4.8653-1.3674l-1.1448-3.2435v-3.5933l-3.4661 0.31799c0.28784-2.2774 0.56878-4.528 0.85858-6.805h-2.0034l-2.0034 2.5757-2.0352 0.9858-2.8619-1.6218-0.2862-3.5933 0.5724-3.8795 4.3247-3.2435h3.4343l0.57239-1.9716 4.3247 0.98578 3.1481 3.9113 0.5724-6.5189 5.4695-4.5473 2.0034-4.8971 4.0385-1.6218 2.2895-3.2435 5.1833-0.98578 2.5758-3.8795h-7.759l4.8971-2.2896h3.4343l4.8971-1.6218 0.57238-1.9398-1.7172-1.6536-2.0352-0.63599 0.5724-1.9398-1.431-2.9255-3.4343 1.272 0.57239-2.5757-4.0385-2.2896-3.1481 5.5331 0.28619 1.9398-3.1481 1.3038-2.0352 4.2293-0.85858-3.9113-5.4695-2.2578-0.85857-2.9255 7.1866-4.2293 3.1799-2.9255 0.2862-3.5933-1.7172-0.95398-2.3214-0.3498zm80.516 0-5.4695 1.3038-3.4343 2.2895v1.9398l-5.4695 3.5933 1.1448 5.1833 3.1799-2.2577 2.0034 2.2577 2.2896 1.3038 1.4628-3.8795-0.89039-2.2896 0.89039-1.6218 3.1481-2.9255h1.431l-1.431 3.2435v2.9255c1.3205-0.35928 2.6554-0.46802 4.0067-0.63599l-3.7205 2.5757-0.28619 1.6536-4.3247 3.5615-4.2929-0.98578v-2.5757l-2.0034 1.3038 0.85858 2.2578h-3.1799l-1.7172 2.9255-2.1624 2.4485-3.8795 0.79498 2.2896 2.2896 0.60418 2.2578h-2.8937l-3.7205 1.9716v5.8511h1.7172l1.59 1.7808 3.5933-1.7808 1.431-3.5933 2.5757-1.6218 0.5724-1.3038 4.3247-0.95397 2.2896 2.6076 2.6076 1.272-1.4628 2.9256 2.3213-0.63599 1.1448-2.9255-2.8938-3.2435h1.1766l2.8619 2.2578 0.57239 3.2753 2.5758 2.9255 0.57238-4.2293 1.4628-0.66779c1.4209 1.4747 2.5237 3.2375 3.7205 4.8971l4.3247 0.31799 2.5757 1.6218-1.1448 1.6218-2.5758 2.2896h-3.7523l-4.8971-1.6218-2.5758 0.31798-1.8762 2.0988-5.3105-5.3423-3.7205-0.98578-5.4695 0.63598-4.8971 1.3038c-2.7415 3.107-5.4504 6.2176-8.0452 9.4444l-3.1481 7.4728 1.431 1.6218-2.5757 3.9113 2.8619 6.8369c2.4437 2.7636 4.8737 5.5023 7.3138 8.2678l3.5933-3.0845 1.59 1.8126 3.8795-2.4486 1.3038 1.4628h3.8795l2.226 2.5122-1.3674 4.4837 2.7347 3.0845-0.159 5.3741 2.0352 3.8795-1.4628 3.2753c-0.14311 2.3928-0.28618 4.7616-0.28618 7.1548 1.1778 3.2422 2.3539 6.4651 3.4661 9.7306l0.85858 5.2151v2.6075h2.0034l3.1799-1.9398h3.7205l5.5967-6.3599-0.69959-2.0988 3.7205-3.2753-2.7347-3.0845 3.3071-2.7665 3.1799-1.9398 1.431-1.6218-0.8586-3.5933v-9.0946l2.5758-5.5331 3.1799-3.5615 3.4343-8.4586v-2.2896c-1.713 0.21571-3.3802 0.42013-5.0561 0.54058l3.4661-3.4661 4.7381-3.2435 2.6076-2.9255v-3.2753c-0.57527-1.0846-1.1698-2.159-1.749-3.2435l-2.2896 2.6075-1.7172-1.9398-2.5757-1.9716v-4.2293l3.0209 3.4343 3.2753-0.50878c1.5055 1.3664 3.0042 2.6736 4.3247 4.2293l2.1624-2.4167c0-2.5861-2.9562-15.335-9.2536-26.139-6.2974-10.8-17.331-20.67-17.331-20.67l-0.85858 1.431-2.8937 3.2436-3.7205-3.9113h3.7205l1.7172-1.9398-6.8686-1.3038zm-28.492 4.2293-2.2896 1.3038-1.1448-0.31801-0.28618 1.9398 2.0034 1.3038 3.4343-2.2578zm-37.937 0.66779-2.2896 1.6218 2.8619 1.9398h2.2896v-2.2578zm45.409 7.4728v1.9398l1.1448 1.3038v2.9255l-0.57239 3.9113 3.1799-0.63599 2.2896-2.2896-2.0034-1.9397c-0.67567-1.7988-1.4757-3.4898-2.3214-5.2151zm-1.1448 3.9113-2.0034 0.63599 0.57238 3.5933 2.5757-1.3038zm-39.654 5.8511 0.85859 4.5473 1.7172-2.6076zm75.046 25.376 3.3071 3.7205 3.8795 8.2996 2.2895 2.6076-1.1448 2.9255 2.1942 2.4804c-1.0086 0.0684-2.0157 0.1272-3.0527 0.1272-1.8301-3.8446-3.2172-7.7119-4.6109-11.734l-2.4485-2.7665-1.272-4.7063z" clip-path="url(#q)" fill="none" stroke="url(#b)" stroke-width=".69815"/></g><path d="m-274.24 106.19-8.6176 0.95396-10.621 2.9255-2.0352 1.9716 6.6143 4.5473v2.6076l-2.5757 2.5758 3.4343 6.8368 2.2895-1.3038 2.8938-4.5473c4.4399-1.3723 8.436-2.914 12.656-4.8653l3.4343-8.7766zm-20.415 0.63598-3.6887 0.54058-1.749 1.749-2.8938 0.41338-2.5757 1.2084-1.2402 0.60419-0.76319 1.0176 3.7205 0.63598 1.431-1.3038 2.8937-0.63598c1.9689-0.95729 3.9528-1.6141 6.0419-2.2896zm-11.766 7.7908-2.6076 0.66778-1.1448 2.2896-1.431-2.9255-0.57241 1.272 0.28621 3.2753-2.2896 1.9398-1.431 3.5933h2.8619l1.431-3.2753c1.2394-0.87625 2.4899-1.7641 3.7523-2.6075l2.8619 0.98579c1.9151 1.3008 3.839 2.6125 5.7557 3.9113l2.8619-2.6075-3.1481-1.3038-1.431-2.9255-5.4695-0.636zm-12.084 2.6075-1.431 3.5933c-1e-5 0-2.403 0.45163-3.0209 0.60419-7.8919 7.2702-23.834 22.968-27.538 52.596 0.14672 0.68694 2.6711 4.6745 2.6711 4.6745l6.0419 3.5933 6.0419 1.6218 2.5758 3.2435 4.0385 2.9255 2.2896-0.318 1.7172 0.76319v0.54058l-2.2896 6.1691-1.7172 2.6075 0.57238 1.3038-1.431 4.8653 5.1515 9.4444 5.1833 4.5473 2.2896 3.2435-0.28621 6.8368 1.749 3.9113-1.749 7.4728c-0.0277 0.0221-0.0698 0.13815 0.0954 0.69959 0.22222 0.74899 9.2229 5.735 9.7942 5.3105 0.56931-0.43241 1.0494-0.82678 1.0494-0.82678l-0.57238-1.59 2.2895-2.2896 0.85858-2.2896 3.7523-1.3038 2.8619-7.1548-0.85858-1.9398 2.0034-2.9255 4.3247-0.98578 2.2896-5.1833-0.57238-6.5189 3.4343-4.8653 0.57239-4.8971c-4.7183-2.339-9.3722-4.7466-14.055-7.1548l-2.3214-4.5473-4.2929-0.98577-2.3214-6.1691-5.7239 0.66779-4.8971-3.5933-5.1833 4.5473v0.73138c-1.5657-0.45176-3.4713-0.51045-4.8653-1.3674l-1.1448-3.2435v-3.5933l-3.4661 0.31799c0.28784-2.2774 0.56878-4.528 0.85858-6.805h-2.0034l-2.0034 2.5757-2.0352 0.9858-2.8619-1.6218-0.2862-3.5933 0.5724-3.8795 4.3247-3.2435h3.4343l0.57239-1.9716 4.3247 0.98578 3.1481 3.9113 0.5724-6.5189 5.4695-4.5473 2.0034-4.8971 4.0385-1.6218 2.2895-3.2435 5.1833-0.98578 2.5758-3.8795h-7.759l4.8971-2.2896h3.4343l4.8971-1.6218 0.57238-1.9398-1.7172-1.6536-2.0352-0.63599 0.5724-1.9398-1.431-2.9255-3.4343 1.272 0.57239-2.5757-4.0385-2.2896-3.1481 5.5331 0.28619 1.9398-3.1481 1.3038-2.0352 4.2293-0.85858-3.9113-5.4695-2.2578-0.85857-2.9255 7.1866-4.2293 3.1799-2.9255 0.2862-3.5933-1.7172-0.95398-2.3214-0.3498zm80.516 0-5.4695 1.3038-3.4343 2.2895v1.9398l-5.4695 3.5933 1.1448 5.1833 3.1799-2.2577 2.0034 2.2577 2.2896 1.3038 1.4628-3.8795-0.89039-2.2896 0.89039-1.6218 3.1481-2.9255h1.431l-1.431 3.2435v2.9255c1.3205-0.35928 2.6554-0.46802 4.0067-0.63599l-3.7205 2.5757-0.28619 1.6536-4.3247 3.5615-4.2929-0.98578v-2.5757l-2.0034 1.3038 0.85858 2.2578h-3.1799l-1.7172 2.9255-2.1624 2.4485-3.8795 0.79498 2.2896 2.2896 0.60418 2.2578h-2.8937l-3.7205 1.9716v5.8511h1.7172l1.59 1.7808 3.5933-1.7808 1.431-3.5933 2.5757-1.6218 0.5724-1.3038 4.3247-0.95397 2.2896 2.6076 2.6076 1.272-1.4628 2.9256 2.3213-0.63599 1.1448-2.9255-2.8938-3.2435h1.1766l2.8619 2.2578 0.57239 3.2753 2.5758 2.9255 0.57238-4.2293 1.4628-0.66779c1.4209 1.4747 2.5237 3.2375 3.7205 4.8971l4.3247 0.31799 2.5757 1.6218-1.1448 1.6218-2.5758 2.2896h-3.7523l-4.8971-1.6218-2.5758 0.31798-1.8762 2.0988-5.3105-5.3423-3.7205-0.98578-5.4695 0.63598-4.8971 1.3038c-2.7415 3.107-5.4504 6.2176-8.0452 9.4444l-3.1481 7.4728 1.431 1.6218-2.5757 3.9113 2.8619 6.8369c2.4437 2.7636 4.8737 5.5023 7.3138 8.2678l3.5933-3.0845 1.59 1.8126 3.8795-2.4486 1.3038 1.4628h3.8795l2.226 2.5122-1.3674 4.4837 2.7347 3.0845-0.159 5.3741 2.0352 3.8795-1.4628 3.2753c-0.14311 2.3928-0.28618 4.7616-0.28618 7.1548 1.1778 3.2422 2.3539 6.4651 3.4661 9.7306l0.85858 5.2151v2.6075h2.0034l3.1799-1.9398h3.7205l5.5967-6.3599-0.69959-2.0988 3.7205-3.2753-2.7347-3.0845 3.3071-2.7665 3.1799-1.9398 1.431-1.6218-0.8586-3.5933v-9.0946l2.5758-5.5331 3.1799-3.5615 3.4343-8.4586v-2.2896c-1.713 0.21571-3.3802 0.42013-5.0561 0.54058l3.4661-3.4661 4.7381-3.2435 2.6076-2.9255v-3.2753c-0.57527-1.0846-1.1698-2.159-1.749-3.2435l-2.2896 2.6075-1.7172-1.9398-2.5757-1.9716v-4.2293l3.0209 3.4343 3.2753-0.50878c1.5055 1.3664 3.0042 2.6736 4.3247 4.2293l2.1624-2.4167c0-2.5861-2.9562-15.335-9.2536-26.139-6.2974-10.8-17.331-20.67-17.331-20.67l-0.85858 1.431-2.8937 3.2436-3.7205-3.9113h3.7205l1.7172-1.9398-6.8686-1.3038zm-28.492 4.2293-2.2896 1.3038-1.1448-0.31801-0.28618 1.9398 2.0034 1.3038 3.4343-2.2578zm-37.937 0.66779-2.2896 1.6218 2.8619 1.9398h2.2896v-2.2578zm45.409 7.4728v1.9398l1.1448 1.3038v2.9255l-0.57239 3.9113 3.1799-0.63599 2.2896-2.2896-2.0034-1.9397c-0.67567-1.7988-1.4757-3.4898-2.3214-5.2151zm-1.1448 3.9113-2.0034 0.63599 0.57238 3.5933 2.5757-1.3038zm-39.654 5.8511 0.85859 4.5473 1.7172-2.6076zm75.046 25.376 3.3071 3.7205 3.8795 8.2996 2.2895 2.6076-1.1448 2.9255 2.1942 2.4804c-1.0086 0.0684-2.0157 0.1272-3.0527 0.1272-1.8301-3.8446-3.2172-7.7119-4.6109-11.734l-2.4485-2.7665-1.272-4.7063z" fill="url(#g)" opacity=".24082" stroke-width=".12032"/></g><path d="m-351.39 148.57c0 20.999-23.972 38.023-53.539 38.023-29.569 0-53.54-17.024-53.54-38.023 0-20.998 23.971-38.02 53.54-38.02 29.567 0 53.539 17.022 53.539 38.02z" fill="url(#f)"/></g></g><path transform="translate(-.69816)" d="m148.39 90.742-8.4453 0.91797-10.447 2.8887-1.457 1.4121 6.0488 4.1855a0.54324 0.54324 0 0 1 0.23438 0.44727v2.5938a0.54324 0.54324 0 0 1-0.15625 0.38086l-2.2891 2.3164 3.0059 5.959 1.668-0.9375 2.832-4.4473a0.54324 0.54324 0 0 1 0.29882-0.22851c4.3481-1.3439 8.2644-2.8659 12.393-4.7656l3.1562-8.0332zm-20.633 0.66211-3.1562 0.48047-1.623 1.625a0.54324 0.54324 0 0 1-0.3086 0.15234l-2.7969 0.39648-2.5117 1.1484-1.1016 0.56641-0.15039 0.19141 2.5664 0.45312 1.2383-1.1309a0.54324 0.54324 0 0 1 0.25391-0.13086l2.8574-0.61523c1.7698-0.85418 3.5452-1.4836 5.377-2.0859zm-11.914 7.8906-1.8125 0.45312-1.0137 2.0547a0.54324 0.54324 0 0 1-0.97266 0l-0.92773-1.875-0.0332 0.07227 0.26954 3.1406a0.54324 0.54324 0 0 1-0.19141 0.4629l-2.207 1.8496-1.0664 2.7227h1.6934l1.2949-2.957a0.54324 0.54324 0 0 1 0.1836-0.22461c1.2408-0.8772 2.4927-1.7537 3.7617-2.6016a0.54324 0.54324 0 0 1 0.47656-0.0645l2.875 0.96876a0.54324 0.54324 0 0 1 0.13086 0.0664c1.8001 1.2227 3.5996 2.473 5.3945 3.6934l1.9062-1.7578-2.3477-0.98633a0.54324 0.54324 0 0 1-0.27539-0.25977l-1.3066-2.6406-5.1758-0.5918a0.54324 0.54324 0 0 1-0.47266-0.44726zm68.846 2.4883-5.2188 1.2539-3.1152 2.0664v1.6465a0.54324 0.54324 0 0 1-0.24414 0.45312l-5.1582 3.3906 0.87305 4.0215 2.5176-1.7773a0.54324 0.54324 0 0 1 0.71875 0.082l1.9414 2.1836 1.6523 0.95117 1.1699-3.0859-0.80273-2.1211a0.54324 0.54324 0 0 1 0.0293-0.44922l0.875-1.625a0.54324 0.54324 0 0 1 0.11133-0.14258l3.1562-2.9062a0.54324 0.54324 0 0 1 0.36719-0.14258h1.4375a0.54324 0.54324 0 0 1 0.49609 0.76172l-1.3906 3.1465v2.1602c1.1445-0.24348 2.2812-0.3953 3.3906-0.5332a0.54324 0.54324 0 0 1 0.375 0.98633l-3.5293 2.4316-0.24414 1.4316a0.54324 0.54324 0 0 1-0.18946 0.32617l-4.3125 3.5625a0.54324 0.54324 0 0 1-0.46484 0.11133l-4.3125-0.96875a0.54324 0.54324 0 0 1-0.42383-0.5293v-1.5859l-0.79101 0.51758 0.71484 1.8398a0.54324 0.54324 0 0 1-0.50586 0.74024h-2.877l-1.5606 2.668a0.54324 0.54324 0 0 1-0.0625 0.0859l-2.1562 2.4375a0.54324 0.54324 0 0 1-0.29492 0.17187l-2.8926 0.60547 1.5723 1.5723a0.54324 0.54324 0 0 1 0.14062 0.2461l0.59375 2.25a0.54324 0.54324 0 0 1-0.52539 0.68164h-2.7402l-3.3418 1.7539v4.9727h1.1758a0.54324 0.54324 0 0 1 0.4043 0.18164l1.3184 1.4727 3.0371-1.5059 1.3613-3.4004a0.54324 0.54324 0 0 1 0.21289-0.25781l2.4277-1.5391 0.52734-1.1367a0.54324 0.54324 0 0 1 0.37305-0.30078l4.3125-0.96875a0.54324 0.54324 0 0 1 0.5293 0.17383l2.207 2.5391 2.5234 1.2012a0.54324 0.54324 0 0 1 0.25196 0.73242l-0.92774 1.8555 0.87891-0.23828 0.93359-2.3711-2.6816-3.002a0.54324 0.54324 0 0 1 0.4043-0.9043h1.1875a0.54324 0.54324 0 0 1 0.33398 0.11524l2.875 2.25a0.54324 0.54324 0 0 1 0.20118 0.33593l0.53711 3.1309 1.6816 1.9258 0.42773-3.041a0.54324 0.54324 0 0 1 0.30664-0.41602l1.4688-0.6875a0.54324 0.54324 0 0 1 0.62109 0.11524c1.4152 1.4687 2.4973 3.1771 3.627 4.7617l4.0527 0.29296a0.54324 0.54324 0 0 1 0.25196 0.082l2.5625 1.625a0.54324 0.54324 0 0 1 0.15625 0.76757l-1.125 1.625a0.54324 0.54324 0 0 1-0.0879 0.0996l-2.5937 2.2812a0.54324 0.54324 0 0 1-0.35938 0.13477h-3.75a0.54324 0.54324 0 0 1-0.17188-0.0273l-4.7598-1.5859-2.2676 0.27148-1.7363 1.9707a0.54324 0.54324 0 0 1-0.79297 0.0234l-5.209-5.2402-3.4785-0.93555-5.3262 0.60938-4.7031 1.2598c-2.6879 3.0476-5.3293 6.0883-7.8691 9.2441l-2.9883 7.1035 1.207 1.3379a0.54324 0.54324 0 0 1 0.0508 0.66016l-2.4062 3.6973 2.7012 6.4668c2.3042 2.6058 4.5966 5.2021 6.8965 7.8086l3.1875-2.7441a0.54324 0.54324 0 0 1 0.76172 0.0527l1.2871 1.4648 3.4844-2.1894a0.54324 0.54324 0 0 1 0.69336 0.0976l1.1504 1.2871h3.6328a0.54324 0.54324 0 0 1 0.40625 0.18164l2.2188 2.5a0.54324 0.54324 0 0 1 0.11328 0.51758l-1.2559 4.209 2.5176 2.8359a0.54324 0.54324 0 0 1 0.13672 0.37696l-0.15235 5.2324 1.9648 3.75a0.54324 0.54324 0 0 1 0.0156 0.47461l-1.4258 3.1855c-0.13933 2.3317-0.2703 4.6325-0.27343 6.9453 1.1651 3.2066 2.3323 6.3877 3.4355 9.627a0.54324 0.54324 0 0 1 0.0234 0.0898l0.84375 5.2188a0.54324 0.54324 0 0 1 6e-3 0.0859v2.082h1.334l3.0274-1.8574a0.54324 0.54324 0 0 1 0.2832-0.0801h3.4727l5.2266-5.957-0.58984-1.7988a0.54324 0.54324 0 0 1 0.15624-0.57812l3.3086-2.9199-2.3555-2.6543a0.54324 0.54324 0 0 1 0.0547-0.77539l3.2812-2.7812a0.54324 0.54324 0 0 1 0.0703-0.0508l3.1172-1.8945 1.1953-1.3535-0.7793-3.3184a0.54324 0.54324 0 0 1-0.0137-0.125v-9.0938a0.54324 0.54324 0 0 1 0.0508-0.22852l2.5625-5.5312a0.54324 0.54324 0 0 1 0.0879-0.13281l3.123-3.4922 3.3633-8.2832v-1.5723c-1.5037 0.1853-2.9917 0.36174-4.4805 0.46875a0.54324 0.54324 0 0 1-0.14844-0.01 0.54324 0.54324 0 0 1-0.0723 0.01c-1.013 0.0687-2.0428 0.12695-3.0996 0.12695a0.54324 0.54324 0 0 1-0.49023-0.30859c-1.8286-3.8414-3.2276-7.6838-4.6113-11.674l-2.3691-2.7031a0.54324 0.54324 0 0 1-0.11524-0.21484l-1.2812-4.6875a0.54324 0.54324 0 0 1 0.1211-0.50586l0.875-0.96875a0.54324 0.54324 0 0 1 0.80859 2e-3l3.3125 3.7188a0.54324 0.54324 0 0 1 0.0859 0.13086l3.8418 8.2422 2.2305 2.5352a0.54324 0.54324 0 0 1 0.0996 0.55273l-1.0078 2.6309 1.6875 1.9062 3.1777-3.1777a0.54324 0.54324 0 0 1 0.0781-0.0644l4.6641-3.1816 2.4434-2.7324v-2.9356c-0.43117-0.81073-0.87265-1.6242-1.3125-2.4394l-1.7656 2.0312a0.54324 0.54324 0 0 1-0.81641 6e-3l-1.6836-1.8984-2.5508-1.9356a0.54324 0.54324 0 0 1-0.21484-0.43359v-4.25a0.54324 0.54324 0 0 1 0.95117-0.35938l2.834 3.2148 2.9883-0.45508a0.54324 0.54324 0 0 1 0.44726 0.13477c1.3494 1.2247 2.6894 2.4356 3.9336 3.8223l1.5996-1.7852c-0.0169-0.58609-0.16696-1.7391-0.51953-3.3613-0.37122-1.708-0.93347-3.8656-1.6914-6.2793-1.5159-4.8274-3.817-10.68-6.9375-16.033-5.8199-9.9813-15.439-18.925-16.729-20.105l-0.52539 0.86523a0.54324 0.54324 0 0 1-0.0586 0.0762l-2.875 3.25a0.54324 0.54324 0 0 1-0.79883 0.0176l-3.75-3.9062a0.54324 0.54324 0 0 1 0.39258-0.91992h3.5l0.91406-1.0664-5.9199-1.1074a0.54324 0.54324 0 0 1-0.0801-0.0215zm-80.158 0.0352-1.2773 3.1953a0.54324 0.54324 0 0 1-0.4043 0.33203s-2.1748 0.40992-2.8398 0.5625c-7.8951 7.2813-23.569 22.78-27.266 52.041 0.0131 0.0346 0.03256 0.0906 0.0918 0.21484 0.07634 0.1601 0.1842 0.36742 0.31055 0.59766 0.2527 0.46049 0.57963 1.0191 0.9043 1.5586 0.61573 1.0232 1.1563 1.8733 1.2168 1.9688l5.8516 3.4863 5.9902 1.6055a0.54324 0.54324 0 0 1 0.28516 0.18945l2.5156 3.1895 3.793 2.7344 2.0664-0.2832a0.54324 0.54324 0 0 1 0.29883 0.0449l1.7188 0.78125a0.54324 0.54324 0 0 1 0.31836 0.49414v0.53125a0.54324 0.54324 0 0 1-0.0332 0.18945l-2.2812 6.1562a0.54324 0.54324 0 0 1-0.05469 0.10742l-1.5547 2.373 0.4668 1.0078a0.54324 0.54324 0 0 1 0.0293 0.38282l-1.375 4.6582 5.0039 9.1562 5.084 4.5a0.54324 0.54324 0 0 1 0.084 0.0918l2.3125 3.25a0.54324 0.54324 0 0 1 0.0996 0.33593l-0.27539 6.6856 1.6973 3.8223a0.54324 0.54324 0 0 1 0.0332 0.34375l-1.75 7.4688a0.54324 0.54324 0 0 1-4e-3 0.0156c4e-3 0.0403 0.0191 0.15412 0.0898 0.39453-0.0454-0.15309-0.0503-0.0949 2e-3 -0.043s0.14634 0.13331 0.26953 0.22852c0.24638 0.19042 0.60954 0.43874 1.043 0.7168 0.86685 0.5561 2.0214 1.2341 3.1855 1.873 1.1642 0.63892 2.3406 1.2402 3.2461 1.6504 0.45274 0.20508 0.83993 0.36341 1.1055 0.44922 0.10222 0.033 0.16302 0.0436 0.21679 0.0547 0.30813-0.23474 0.45637-0.34786 0.60352-0.46094l-0.45313-1.2188a0.54324 0.54324 0 0 1 0.125-0.57422l2.2285-2.2285 0.80273-2.168a0.54324 0.54324 0 0 1 0.33008-0.32422l3.5176-1.2324 2.6973-6.7129-0.7793-1.7266a0.54324 0.54324 0 0 1 0.0469-0.53125l2-2.9062a0.54324 0.54324 0 0 1 0.32618-0.22071l4.0781-0.93945 2.1152-4.8106-0.55079-6.3613a0.54324 0.54324 0 0 1 0.0977-0.35937l3.3574-4.7617 0.50393-4.3945c-4.6067-2.2883-9.1593-4.6367-13.729-6.9863a0.54324 0.54324 0 0 1-0.23633-0.23633l-2.1973-4.3047-4.0664-0.94336a0.54324 0.54324 0 0 1-0.38476-0.33789l-2.1641-5.7598-5.2969 0.60742a0.54324 0.54324 0 0 1-0.38281-0.10156l-4.5547-3.3359-4.6758 4.1133v0.47266a0.54324 0.54324 0 0 1-0.69336 0.52148c-1.4613-0.42165-3.4041-0.43456-4.9785-1.4023a0.54324 0.54324 0 0 1-0.22656-0.28125l-1.1562-3.25a0.54324 0.54324 0 0 1-0.03125-0.18164v-3l-2.877 0.25977a0.54324 0.54324 0 0 1-0.58789-0.60938c0.26223-2.0748 0.53211-4.1324 0.79687-6.2012h-1.1191l-1.8672 2.3848a0.54324 0.54324 0 0 1-0.19336 0.15625l-2.0312 0.96875a0.54324 0.54324 0 0 1-0.50391-0.0195l-2.8438-1.625a0.54324 0.54324 0 0 1-0.27148-0.42773l-0.28125-3.5938a0.54324 0.54324 0 0 1 0.0039-0.1211l0.5625-3.875a0.54324 0.54324 0 0 1 0.21094-0.35546l4.3125-3.25a0.54324 0.54324 0 0 1 0.32617-0.10938h3.0332l0.47852-1.582a0.54324 0.54324 0 0 1 0.64258-0.37305l4.3125 1a0.54324 0.54324 0 0 1 0.29883 0.1875l2.3086 2.8574 0.44726-5.1875a0.54324 0.54324 0 0 1 0.19531-0.37109l5.3633-4.4453 1.9473-4.7793a0.54324 0.54324 0 0 1 0.30079-0.29883l3.8848-1.5664 2.2188-3.1191a0.54324 0.54324 0 0 1 0.34375-0.21875l4.9316-0.92774 1.9004-2.8398h-6.7324a0.54324 0.54324 0 0 1-0.23242-1.0332l4.875-2.3125a0.54324 0.54324 0 0 1 0.23242-0.0527h3.3516l4.5488-1.4785 0.39258-1.373-1.3887-1.3144-1.9141-0.61719a0.54324 0.54324 0 0 1-0.35546-0.66992l0.5039-1.7363-1.1016-2.2774-2.9766 1.082a0.54324 0.54324 0 0 1-0.7168-0.62696l0.47656-2.1699-3.2109-1.8164-2.7949 4.8984 0.25391 1.752a0.54324 0.54324 0 0 1-0.33008 0.58008l-2.9336 1.2031-1.9727 4.0625a0.54324 0.54324 0 0 1-1.0195-0.1211l-0.7832-3.6289-5.207-2.1719a0.54324 0.54324 0 0 1-0.31055-0.3457l-0.875-2.9062a0.54324 0.54324 0 0 1 0.24219-0.62305l7.1406-4.2226 2.9863-2.7227 0.23828-3.0352-1.3301-0.74804zm51.57 4.3125-1.8926 1.0898a0.54324 0.54324 0 0 1-0.41406 0.0527l-0.56445-0.15235-0.14258 0.99024 1.4102 0.92578 2.6211-1.7402zm-37.76 0.61719-1.3906 0.99218 2.0606 1.4043h1.5703v-1.3867zm45.889 7.3887v1.1894l1.0215 1.1582a0.54324 0.54324 0 0 1 0.13477 0.35937v2.9062a0.54324 0.54324 0 0 1-6e-3 0.082l-0.47852 3.1426 2.2676-0.44531 1.7734-1.7734-1.6035-1.5527a0.54324 0.54324 0 0 1-0.1289-0.19921c-0.62686-1.6688-1.3719-3.2533-2.1582-4.8672zm-2.0195 4.0312-1.0664 0.33398 0.39649 2.4024 1.459-0.73051zm-38.539 6.4492 0.35937 1.8691 0.70313-1.0762z" enable-background="new" fill="none" stroke="url(#e)" stroke-width=".69816"/><path transform="matrix(.9699 0 0 .9699 26.086 29.267)" d="m54.979 127.15c-0.46429 3.2696-0.71875 6.6028-0.71875 10 0 38.998 31.659 70.656 70.656 70.656 38.998 0 70.656-31.659 70.656-70.656 0-3.3972-0.25446-6.7304-0.71875-10-4.8655 34.263-34.337 60.656-69.938 60.656-35.6 0-65.072-26.393-69.938-60.656z" enable-background="new" fill="url(#d)" filter="url(#n)" opacity=".48707"/></g></g></svg>
