<?xml version="1.0" encoding="UTF-8"?>
<svg enable-background="new" version="1.0" viewBox="0 0 256 256" xmlns="http://www.w3.org/2000/svg" xmlns:xlink="http://www.w3.org/1999/xlink"><defs><filter id="ab" x="-.10164" y="-.13053" width="1.2033" height="1.2611" color-interpolation-filters="sRGB"><feGaussianBlur stdDeviation="10.332143"/></filter><filter id="ad" color-interpolation-filters="sRGB"><feGaussianBlur stdDeviation="2.5830357"/></filter><linearGradient id="k" x1="57.214" x2="93.291" y1="179.58" y2="177.24" gradientUnits="userSpaceOnUse" xlink:href="#a"/><linearGradient id="a"><stop stop-color="#b5b5b5" offset="0"/><stop stop-color="#868686" offset=".5"/><stop stop-color="#c7c7c7" offset="1"/></linearGradient><linearGradient id="n" x1="38.891" x2="59.22" y1="145.83" y2="145.89" gradientUnits="userSpaceOnUse"><stop stop-color="#e3e3e3" offset="0"/><stop stop-color="#b2b2b2" offset=".5"/><stop stop-color="#d6d6d6" offset="1"/></linearGradient><linearGradient id="q" x1="80.964" x2="108.54" y1="195.33" y2="195.74" gradientUnits="userSpaceOnUse" xlink:href="#a"/><linearGradient id="s" x1="199.5" x2="228.25" y1="114.25" y2="113" gradientUnits="userSpaceOnUse" xlink:href="#a"/><linearGradient id="e" x1="192" x2="225.75" y1="146.25" y2="145.25" gradientUnits="userSpaceOnUse" xlink:href="#a"/><linearGradient id="v" x1="184" x2="215.5" y1="166" y2="170.25" gradientUnits="userSpaceOnUse" xlink:href="#b"/><linearGradient id="b"><stop stop-color="#717171" offset="0"/><stop stop-color="#ccc" offset="1"/></linearGradient><linearGradient id="r" x1="116.83" x2="145.66" y1="194.84" y2="194.84" gradientUnits="userSpaceOnUse" xlink:href="#a"/><linearGradient id="z" x1="134.34" x2="171.66" y1="71.5" y2="212.5" gradientTransform="translate(0,-26)" gradientUnits="userSpaceOnUse"><stop stop-color="#e5e5e5" offset="0"/><stop stop-color="#b5b5b5" offset="1"/></linearGradient><linearGradient id="u" x1="153.25" x2="184.25" y1="202.75" y2="201.75" gradientUnits="userSpaceOnUse" xlink:href="#a"/><radialGradient id="i" cx="-88.308" cy="73.568" r="101.66" gradientTransform="matrix(.68698 .22625 -.11856 .35999 107.39 88.996)" gradientUnits="userSpaceOnUse" xlink:href="#d"/><linearGradient id="d"><stop stop-color="#717171" offset="0"/><stop stop-color="#717171" stop-opacity="0" offset="1"/></linearGradient><radialGradient id="h" cx="147.51" cy="165.91" r="101.66" gradientTransform="matrix(.71649 .29511 -.14435 .35045 118.26 28.824)" gradientUnits="userSpaceOnUse" xlink:href="#d"/><linearGradient id="y" x1="172.43" x2="152.25" y1="202.57" y2="202.57" gradientUnits="userSpaceOnUse" xlink:href="#b"/><linearGradient id="x" x1="201" x2="145" y1="189" y2="212.5" gradientUnits="userSpaceOnUse" xlink:href="#b"/><linearGradient id="w" x1="228.5" x2="141" y1="149.5" y2="202.5" gradientUnits="userSpaceOnUse" xlink:href="#b"/><linearGradient id="t" x1="65" x2="190" y1="95" y2="95" gradientTransform="matrix(.99 0 0 1 1.9 0)" gradientUnits="userSpaceOnUse"><stop stop-color="#c9c9c9" offset="0"/><stop stop-color="#939393" offset=".32143"/><stop stop-color="#d1d1d1" offset=".75"/><stop stop-color="#b2b2b2" offset="1"/></linearGradient><radialGradient id="g" cx="69.515" cy="48.968" r="101.66" gradientTransform="matrix(1.408 -1.408 .73179 .73179 27.285 128.55)" gradientUnits="userSpaceOnUse"><stop stop-color="#e8e8e8" offset="0"/><stop stop-color="#717171" stop-opacity="0" offset="1"/></radialGradient><linearGradient id="j" x1="166.34" x2="198.66" y1="102.27" y2="130.27" gradientUnits="userSpaceOnUse"><stop stop-color="#fff" offset="0"/><stop stop-color="#fff" stop-opacity="0" offset="1"/></linearGradient><filter id="ac" color-interpolation-filters="sRGB"><feGaussianBlur stdDeviation="2.5578125"/></filter><radialGradient id="f" cx="157" cy="70" r="8" gradientUnits="userSpaceOnUse"><stop stop-color="#fff" offset="0"/><stop stop-color="#fff" stop-opacity="0" offset="1"/></radialGradient><linearGradient id="p" x1="147.25" x2="148.75" y1="195.62" y2="218.88" gradientTransform="translate(0,-1)" gradientUnits="userSpaceOnUse"><stop stop-color="#fff" offset="0"/><stop stop-color="#fff" stop-opacity="0" offset="1"/></linearGradient><linearGradient id="o" x1="115" x2="124.5" y1="205.75" y2="206" gradientUnits="userSpaceOnUse"><stop stop-color="#cecece" offset="0"/><stop stop-color="#a0a0a0" offset="1"/></linearGradient><linearGradient id="l" x1="63.213" x2="83.841" y1="180.76" y2="193.12" gradientUnits="userSpaceOnUse" xlink:href="#c"/><linearGradient id="c"><stop stop-color="#f5f5f5" offset="0"/><stop stop-color="#c7c7c7" offset="1"/></linearGradient><linearGradient id="m" x1="42" x2="55.911" y1="172.62" y2="172.62" gradientUnits="userSpaceOnUse" xlink:href="#c"/><linearGradient id="aa" x1="155.34" x2="239.16" y1="125.77" y2="168.77" gradientUnits="userSpaceOnUse"><stop stop-color="#fff" offset="0"/><stop stop-color="#fff" stop-opacity="0" offset="1"/></linearGradient></defs><g transform="translate(-17,-34)"><g transform="translate(17 37.405)" enable-background="new"><path d="m136.22 61.344c-3.1711 5.5983-4.1801 14.455-12.125 14.746-7.9589 0.2918-9.9981-8.4824-13.844-13.821-4.64 0.63432-9.1605 1.5224-13.562 2.628-0.19539 6.1202 3.2759 14.61-3.9375 17.252-7.2149 2.6431-13.412-4.8544-19.594-8.6383-3.9356 1.9587-7.6756 4.1485-11.219 6.497 2.8416 5.7046 10.166 12.502 4.8125 17.082-5.3602 4.5863-14.747-0.45675-22.312-2.117-2.6692 2.9637-5.112 6.0542-7.25 9.2953 5.4155 4.4404 15.61 8.5348 12.906 14.381-2.6981 5.8341-13.882 3.9761-21.688 4.6963-0.99158 3.5033-1.6872 7.0959-2.0625 10.755 7.1896 2.4692 18.563 3.2549 18.938 9.4413 0.37474 6.1974-10.894 7.7852-17.75 10.78 0.81462 3.613 1.9552 7.133 3.375 10.561 7.8599 0.15215 18.763-2.5509 22.156 3.066 3.3944 5.618-6.2343 10.444-11.094 15.257 2.5155 3.0645 5.3277 5.9767 8.3438 8.7356 7.3261-2.2126 16.055-7.9158 21.938-3.7473 5.8899 4.1738-0.58658 11.483-2.7188 17.374 3.8061 2.0784 7.7751 3.9805 11.938 5.6453 5.7025-4.2168 10.961-12.155 18.469-10.05 7.4924 2.1009 5.1063 10.809 6.0312 16.887 4.499 0.77211 9.1128 1.3138 13.812 1.606 3.1711-5.5983 4.1801-14.455 12.125-14.746 7.9589-0.2918 9.9981 8.4824 13.844 13.821 4.64-0.63431 9.1605-1.5224 13.562-2.628 0.19539-6.1202-3.276-14.61 3.9375-17.252 7.2149-2.6431 13.412 4.8544 19.594 8.6383 3.9356-1.9587 7.6756-4.1485 11.219-6.497-2.8416-5.7046-10.166-12.502-4.8125-17.082 5.3602-4.5863 14.747 0.45675 22.312 2.117 2.6692-2.9637 5.112-6.0542 7.25-9.2953-5.4155-4.4404-15.61-8.5348-12.906-14.381 2.6981-5.8341 13.882-3.9761 21.688-4.6963 0.99158-3.5032 1.6872-7.0959 2.0625-10.755-7.1896-2.4692-18.563-3.2549-18.938-9.4413-0.37474-6.1974 10.894-7.7852 17.75-10.78-0.81462-3.613-1.9552-7.133-3.375-10.561-7.8599-0.15215-18.763 2.5509-22.156-3.066-3.3944-5.618 6.2343-10.444 11.094-15.257-2.5155-3.0645-5.3277-5.9767-8.3438-8.7357-7.3261 2.2126-16.055 7.9158-21.938 3.7473-5.8899-4.1738 0.58658-11.483 2.7188-17.374-3.8062-2.0784-7.7751-3.9805-11.938-5.6453-5.7025 4.2169-10.961 12.155-18.469 10.05-7.4924-2.1009-5.1063-10.809-6.0312-16.887-4.499-0.77211-9.1128-1.3138-13.812-1.606zm-8.2188 30.879c34.224 0 62 21.628 62 48.277s-27.776 48.277-62 48.277c-34.224 0-62-21.628-62-48.277-1e-6 -26.649 27.776-48.277 62-48.277z" color="#000000" display="block" enable-background="accumulate" filter="url(#ab)" opacity=".53714"/><path d="m136.22 59.344c-3.1711 5.5983-4.1801 14.455-12.125 14.746-7.9589 0.2918-9.9981-8.4824-13.844-13.821-4.64 0.63432-9.1605 1.5224-13.562 2.628-0.19539 6.1202 3.2759 14.61-3.9375 17.252-7.2149 2.6431-13.412-4.8544-19.594-8.6383-3.9356 1.9587-7.6756 4.1485-11.219 6.497 2.8416 5.7046 10.166 12.502 4.8125 17.082-5.3602 4.5863-14.747-0.45675-22.312-2.117-2.6692 2.9637-5.112 6.0542-7.25 9.2953 5.4155 4.4404 15.61 8.5348 12.906 14.381-2.6981 5.8341-13.882 3.9761-21.688 4.6963-0.99158 3.5033-1.6872 7.0959-2.0625 10.755 7.1896 2.4692 18.563 3.2549 18.938 9.4413 0.37474 6.1974-10.894 7.7852-17.75 10.78 0.81462 3.613 1.9552 7.133 3.375 10.561 7.8599 0.15215 18.763-2.5509 22.156 3.066 3.3944 5.618-6.2343 10.444-11.094 15.257 2.5155 3.0645 5.3277 5.9767 8.3438 8.7356 7.3261-2.2126 16.055-7.9158 21.938-3.7473 5.8899 4.1738-0.58658 11.483-2.7188 17.374 3.8061 2.0784 7.7751 3.9805 11.938 5.6453 5.7025-4.2168 10.961-12.155 18.469-10.05 7.4924 2.1009 5.1063 10.809 6.0312 16.887 4.499 0.77211 9.1128 1.3138 13.812 1.606 3.1711-5.5983 4.1801-14.455 12.125-14.746 7.9589-0.2918 9.9981 8.4824 13.844 13.821 4.64-0.63431 9.1605-1.5224 13.562-2.628 0.19539-6.1202-3.276-14.61 3.9375-17.252 7.2149-2.6431 13.412 4.8544 19.594 8.6383 3.9356-1.9587 7.6756-4.1485 11.219-6.497-2.8416-5.7046-10.166-12.502-4.8125-17.082 5.3602-4.5863 14.747 0.45675 22.312 2.117 2.6692-2.9637 5.112-6.0542 7.25-9.2953-5.4155-4.4404-15.61-8.5348-12.906-14.381 2.6981-5.8341 13.882-3.9761 21.688-4.6963 0.99158-3.5032 1.6872-7.0959 2.0625-10.755-7.1896-2.4692-18.563-3.2549-18.938-9.4413-0.37474-6.1974 10.894-7.7852 17.75-10.78-0.81462-3.613-1.9552-7.133-3.375-10.561-7.8599-0.15215-18.763 2.5509-22.156-3.066-3.3944-5.618 6.2343-10.444 11.094-15.257-2.5155-3.0645-5.3277-5.9767-8.3438-8.7357-7.3261 2.2126-16.055 7.9158-21.938 3.7473-5.8899-4.1738 0.58658-11.483 2.7188-17.374-3.8062-2.0784-7.7751-3.9805-11.938-5.6453-5.7025 4.2169-10.961 12.155-18.469 10.05-7.4924-2.1009-5.1063-10.809-6.0312-16.887-4.499-0.77211-9.1128-1.3138-13.812-1.606zm-8.2188 30.879c34.224 0 62 21.628 62 48.277s-27.776 48.277-62 48.277c-34.224 0-62-21.628-62-48.277-1e-6 -26.649 27.776-48.277 62-48.277z" color="#000000" display="block" enable-background="accumulate" filter="url(#ad)" opacity=".84"/><path d="m136.22 59.344c-3.1711 5.5983-4.1801 14.455-12.125 14.746-7.9589 0.2918-9.9981-8.4824-13.844-13.821-4.64 0.63432-9.1605 1.5224-13.562 2.628-0.19539 6.1202 3.2759 14.61-3.9375 17.252-7.2149 2.6431-13.412-4.8544-19.594-8.6383-3.9356 1.9587-7.6756 4.1485-11.219 6.497 2.8416 5.7046 10.166 12.502 4.8125 17.082-5.3602 4.5863-14.747-0.45675-22.312-2.117-2.6692 2.9637-5.112 6.0542-7.25 9.2953 5.4155 4.4404 15.61 8.5348 12.906 14.381-2.6981 5.8341-13.882 3.9761-21.688 4.6963-0.99158 3.5033-1.6872 7.0959-2.0625 10.755 7.1896 2.4692 18.563 3.2549 18.938 9.4413 0.37474 6.1974-10.894 7.7852-17.75 10.78 0.81462 3.613 1.9552 7.133 3.375 10.561 7.8599 0.15215 18.763-2.5509 22.156 3.066 3.3944 5.618-6.2343 10.444-11.094 15.257 2.5155 3.0645 5.3277 5.9767 8.3438 8.7356 7.3261-2.2126 16.055-7.9158 21.938-3.7473 5.8899 4.1738-0.58658 11.483-2.7188 17.374 3.8061 2.0784 7.7751 3.9805 11.938 5.6453 5.7025-4.2168 10.961-12.155 18.469-10.05 7.4924 2.1009 5.1063 10.809 6.0312 16.887 4.499 0.77211 9.1128 1.3138 13.812 1.606 3.1711-5.5983 4.1801-14.455 12.125-14.746 7.9589-0.2918 9.9981 8.4824 13.844 13.821 4.64-0.63431 9.1605-1.5224 13.562-2.628 0.19539-6.1202-3.276-14.61 3.9375-17.252 7.2149-2.6431 13.412 4.8544 19.594 8.6383 3.9356-1.9587 7.6756-4.1485 11.219-6.497-2.8416-5.7046-10.166-12.502-4.8125-17.082 5.3602-4.5863 14.747 0.45675 22.312 2.117 2.6692-2.9637 5.112-6.0542 7.25-9.2953-5.4155-4.4404-15.61-8.5348-12.906-14.381 2.6981-5.8341 13.882-3.9761 21.688-4.6963 0.99158-3.5032 1.6872-7.0959 2.0625-10.755-7.1896-2.4692-18.563-3.2549-18.938-9.4413-0.37474-6.1974 10.894-7.7852 17.75-10.78-0.81462-3.613-1.9552-7.133-3.375-10.561-7.8599-0.15215-18.763 2.5509-22.156-3.066-3.3944-5.618 6.2343-10.444 11.094-15.257-2.5155-3.0645-5.3277-5.9767-8.3438-8.7357-7.3261 2.2126-16.055 7.9158-21.938 3.7473-5.8899-4.1738 0.58658-11.483 2.7188-17.374-3.8062-2.0784-7.7751-3.9805-11.938-5.6453-5.7025 4.2169-10.961 12.155-18.469 10.05-7.4924-2.1009-5.1063-10.809-6.0312-16.887-4.499-0.77211-9.1128-1.3138-13.812-1.606zm-8.2188 30.879c34.224 0 62 21.628 62 48.277s-27.776 48.277-62 48.277c-34.224 0-62-21.628-62-48.277-1e-6 -26.649 27.776-48.277 62-48.277z" color="#000000" display="block" enable-background="accumulate" fill="#717171"/><path d="m50.25 163.25 0.25 26.75 10.75-4.25s8.75-2.5 13 0.5c2.8374 2.0029 3.75-30.25 3.75-30.25l-18 0.25z" color="#000000" enable-background="accumulate" fill="url(#k)" fill-rule="evenodd"/><path d="m30.406 136.15 0.70711 26.87 24.572-1.4142 3.5355-27.047z" color="#000000" enable-background="accumulate" fill="url(#n)" fill-rule="evenodd"/><path d="m105.84 215.82 1.4786-26.392 1.2249-20.049-16.263-3.182-11.314 17.324 0.35355 25.809c2.625-1.5 11.364-11.888 19.799-9.628 5.3541 1.4346 4.7212 16.117 4.7212 16.117z" color="#000000" enable-background="accumulate" fill="url(#q)" fill-rule="evenodd"/><path d="m228.25 98.75-0.5 23.75-28.25-2.5 2-12z" color="#000000" enable-background="accumulate" fill="url(#s)" fill-rule="evenodd"/><path d="m227.5 129.5v26l-25.75 1.75-2.5-26.5z" color="#000000" enable-background="accumulate" fill="url(#e)" fill-rule="evenodd"/><path d="m211.5 184.25s-16-6-20.5-4-4-23.25-4-23.25c9.2291-6.2078 16.463-0.44235 24.5 0.5z" color="#000000" enable-background="accumulate" fill="url(#v)" fill-rule="evenodd"/><path d="m212.5 96 1-26.25-27.5 1.75 0.25-23.75-11.5-5.75-12.5 20.5-9-5.75-3-21.25-13.75-1.75-4.25 20.25-26.75 2.5-8.5-19.5v22.5s-11.25 1-12.25 0.75-22-8.25-22-8.25l0.75 23-20.5-2.5-5.5 3.75 2.25 20.75 10.25 4-23.5 5-0.25 26.25 29.751-6.2937 4.7486-35.706 18-13 29-16.75 54 5.5 36.5 30.5z" color="#000000" enable-background="accumulate" fill="url(#e)" fill-rule="evenodd"/><path d="m145.41 216.55 0.25-27.016-9.1924-17.678-12.728 1.0607-3.8891 19.092-0.20711 26.309s5.0962-15.599 12.581-15.349c8.4806 0.28324 10.831 11.081 13.185 13.581z" color="#000000" enable-background="accumulate" fill="url(#r)" fill-rule="evenodd"/><path d="m136.22 33.344c-3.1711 5.5983-4.1801 14.455-12.125 14.746-7.9589 0.2918-9.9981-8.4824-13.844-13.821-4.64 0.63432-9.1605 1.5224-13.562 2.628-0.19539 6.1202 3.2759 14.61-3.9375 17.252-7.2149 2.6431-13.412-4.8544-19.594-8.6383-3.9356 1.9587-7.6756 4.1485-11.219 6.497 2.8416 5.7046 10.166 12.502 4.8125 17.082-5.3602 4.5863-14.747-0.45675-22.312-2.117-2.6692 2.9637-5.112 6.0542-7.25 9.2953 5.4155 4.4404 15.61 8.5348 12.906 14.381-2.6981 5.8341-13.882 3.9761-21.688 4.6963-0.99158 3.5033-1.6872 7.0959-2.0625 10.755 7.1896 2.4692 18.563 3.2549 18.938 9.4413 0.37474 6.1974-10.894 7.7852-17.75 10.78 0.81462 3.613 1.9552 7.133 3.375 10.561 7.8599 0.15215 18.763-2.5509 22.156 3.066 3.3944 5.618-6.2343 10.444-11.094 15.257 2.5155 3.0645 5.3277 5.9767 8.3438 8.7356 7.3261-2.2126 16.055-7.9158 21.938-3.7473 5.8899 4.1738-0.58658 11.483-2.7188 17.374 3.8061 2.0784 7.7751 3.9805 11.938 5.6453 5.7025-4.2168 10.961-12.155 18.469-10.05 7.4924 2.1009 5.1063 10.809 6.0312 16.887 4.499 0.77211 9.1128 1.3138 13.812 1.606 3.1711-5.5983 4.1801-14.455 12.125-14.746 7.9589-0.2918 9.9981 8.4824 13.844 13.821 4.64-0.63431 9.1605-1.5224 13.562-2.628 0.19539-6.1202-3.276-14.61 3.9375-17.252 7.2149-2.6431 13.412 4.8544 19.594 8.6383 3.9356-1.9587 7.6756-4.1485 11.219-6.497-2.8416-5.7046-10.166-12.502-4.8125-17.082 5.3602-4.5863 14.747 0.45675 22.312 2.117 2.6692-2.9637 5.112-6.0542 7.25-9.2953-5.4155-4.4404-15.61-8.5348-12.906-14.381 2.6981-5.8341 13.882-3.9761 21.688-4.6963 0.99158-3.5032 1.6872-7.0959 2.0625-10.755-7.1896-2.4692-18.563-3.2549-18.938-9.4413-0.37474-6.1974 10.894-7.7852 17.75-10.78-0.81462-3.613-1.9552-7.133-3.375-10.561-7.8599-0.15215-18.763 2.5509-22.156-3.066-3.3944-5.618 6.2343-10.444 11.094-15.257-2.5155-3.0645-5.3277-5.9767-8.3438-8.7357-7.3261 2.2126-16.055 7.9158-21.938 3.7473-5.8899-4.1738 0.58658-11.483 2.7188-17.374-3.8062-2.0784-7.7751-3.9805-11.938-5.6453-5.7025 4.2169-10.961 12.155-18.469 10.05-7.4924-2.1009-5.1063-10.809-6.0312-16.887-4.499-0.77211-9.1128-1.3138-13.812-1.606zm-8.2188 30.879c34.224 0 62 21.628 62 48.277s-27.776 48.277-62 48.277c-34.224 0-62-21.628-62-48.277-1e-6 -26.649 27.776-48.277 62-48.277z" color="#000000" display="block" enable-background="accumulate" fill="url(#z)"/><path d="m182.5 206v-27.5s-13.5-11.5-19-8.75-6.5 10.5-6.5 10.5l2 34s-2.75-16 5-17.5 18.5 9.25 18.5 9.25z" color="#000000" enable-background="accumulate" fill="url(#u)" fill-rule="evenodd"/><path d="m136.22 33.344c-3.1711 5.5983-4.1801 14.455-12.125 14.746-7.9589 0.2918-9.9981-8.4824-13.844-13.821-4.64 0.63432-9.1605 1.5224-13.562 2.628-0.19539 6.1202 3.276 14.61-3.9375 17.252-7.2149 2.6431-13.412-4.8544-19.594-8.6383-3.9356 1.9587-7.6756 4.1485-11.219 6.497 2.8416 5.7046 10.166 12.502 4.8125 17.082-5.3602 4.5863-14.747-0.45675-22.312-2.117-2.6692 2.9637-5.112 6.0542-7.25 9.2953 5.4155 4.4404 15.61 8.5348 12.906 14.381-2.6981 5.8341-13.882 3.9761-21.688 4.6963-0.99158 3.5033-1.6872 7.0959-2.0625 10.755 7.1896 2.4692 18.563 3.2549 18.938 9.4413 0.37474 6.1974-10.894 7.7852-17.75 10.78 0.81462 3.613 1.9552 7.133 3.375 10.561 7.8599 0.15215 18.763-2.5509 22.156 3.066 3.3944 5.618-6.2343 10.444-11.094 15.257 2.5155 3.0645 5.3277 5.9767 8.3438 8.7356 7.3261-2.2126 16.055-7.9158 21.938-3.7473 5.8899 4.1738-0.58658 11.483-2.7188 17.374 3.8061 2.0784 7.7751 3.9805 11.938 5.6453 5.7025-4.2168 10.961-12.155 18.469-10.05 7.4924 2.1009 5.1063 10.809 6.0312 16.887 4.499 0.77211 9.1128 1.3138 13.812 1.606 3.1711-5.5983 4.1801-14.455 12.125-14.746 7.9589-0.2918 9.9981 8.4824 13.844 13.821 4.64-0.63431 9.1605-1.5224 13.562-2.628 0.19539-6.1202-3.276-14.61 3.9375-17.252 7.2149-2.6431 13.412 4.8544 19.594 8.6383 3.9356-1.9587 7.6756-4.1485 11.219-6.497-2.8416-5.7046-10.166-12.502-4.8125-17.082 5.3602-4.5863 14.747 0.45675 22.312 2.117 2.6692-2.9637 5.112-6.0542 7.25-9.2953-5.4155-4.4404-15.61-8.5348-12.906-14.381 2.6981-5.8341 13.882-3.9761 21.688-4.6963 0.99158-3.5032 1.6872-7.0959 2.0625-10.755-7.1896-2.4692-18.563-3.2549-18.938-9.4413-0.37474-6.1974 10.894-7.7852 17.75-10.78-0.81462-3.613-1.9552-7.133-3.375-10.561-7.8599-0.15215-18.763 2.5509-22.156-3.066-3.3944-5.618 6.2343-10.444 11.094-15.257-2.5155-3.0645-5.3277-5.9767-8.3438-8.7357-7.3261 2.2126-16.055 7.9158-21.938 3.7473-5.8899-4.1738 0.58658-11.483 2.7188-17.374-3.8062-2.0784-7.7751-3.9805-11.938-5.6453-5.7025 4.2169-10.961 12.155-18.469 10.05-7.4924-2.1009-5.1063-10.809-6.0312-16.887-4.499-0.77211-9.1128-1.3138-13.812-1.606zm-8.2188 30.879c34.224 0 62 21.628 62 48.277s-27.776 48.277-62 48.277-62-21.628-62-48.277 27.776-48.277 62-48.277z" color="#000000" display="block" enable-background="accumulate" fill="url(#i)"/><path d="m136.22 33.344c-3.1711 5.5983-4.1801 14.455-12.125 14.746-7.9589 0.2918-9.9981-8.4824-13.844-13.821-4.64 0.63432-9.1605 1.5224-13.562 2.628-0.19539 6.1202 3.276 14.61-3.9375 17.252-7.2149 2.6431-13.412-4.8544-19.594-8.6383-3.9356 1.9587-7.6756 4.1485-11.219 6.497 2.8416 5.7046 10.166 12.502 4.8125 17.082-5.3602 4.5863-14.747-0.45675-22.312-2.117-2.6692 2.9637-5.112 6.0542-7.25 9.2953 5.4155 4.4404 15.61 8.5348 12.906 14.381-2.6981 5.8341-13.882 3.9761-21.688 4.6963-0.99158 3.5033-1.6872 7.0959-2.0625 10.755 7.1896 2.4692 18.563 3.2549 18.938 9.4413 0.37474 6.1974-10.894 7.7852-17.75 10.78 0.81462 3.613 1.9552 7.133 3.375 10.561 7.8599 0.15215 18.763-2.5509 22.156 3.066 3.3944 5.618-6.2343 10.444-11.094 15.257 2.5155 3.0645 5.3277 5.9767 8.3438 8.7356 7.3261-2.2126 16.055-7.9158 21.938-3.7473 5.8899 4.1738-0.58658 11.483-2.7188 17.374 3.8061 2.0784 7.7751 3.9805 11.938 5.6453 5.7025-4.2168 10.961-12.155 18.469-10.05 7.4924 2.1009 5.1063 10.809 6.0312 16.887 4.499 0.77211 9.1128 1.3138 13.812 1.606 3.1711-5.5983 4.1801-14.455 12.125-14.746 7.9589-0.2918 9.9981 8.4824 13.844 13.821 4.64-0.63431 9.1605-1.5224 13.562-2.628 0.19539-6.1202-3.276-14.61 3.9375-17.252 7.2149-2.6431 13.412 4.8544 19.594 8.6383 3.9356-1.9587 7.6756-4.1485 11.219-6.497-2.8416-5.7046-10.166-12.502-4.8125-17.082 5.3602-4.5863 14.747 0.45675 22.312 2.117 2.6692-2.9637 5.112-6.0542 7.25-9.2953-5.4155-4.4404-15.61-8.5348-12.906-14.381 2.6981-5.8341 13.882-3.9761 21.688-4.6963 0.99158-3.5032 1.6872-7.0959 2.0625-10.755-7.1896-2.4692-18.563-3.2549-18.938-9.4413-0.37474-6.1974 10.894-7.7852 17.75-10.78-0.81462-3.613-1.9552-7.133-3.375-10.561-7.8599-0.15215-18.763 2.5509-22.156-3.066-3.3944-5.618 6.2343-10.444 11.094-15.257-2.5155-3.0645-5.3277-5.9767-8.3438-8.7357-7.3261 2.2126-16.055 7.9158-21.938 3.7473-5.8899-4.1738 0.58658-11.483 2.7188-17.374-3.8062-2.0784-7.7751-3.9805-11.938-5.6453-5.7025 4.2169-10.961 12.155-18.469 10.05-7.4924-2.1009-5.1063-10.809-6.0312-16.887-4.499-0.77211-9.1128-1.3138-13.812-1.606zm-8.2188 30.879c34.224 0 62 21.628 62 48.277s-27.776 48.277-62 48.277-62-21.628-62-48.277 27.776-48.277 62-48.277z" color="#000000" display="block" enable-background="accumulate" fill="url(#h)"/><path d="m145.5 190.75-0.25 26.5 14-3-0.12868-26.354z" fill="url(#y)" fill-rule="evenodd"/><path d="m182.5 178.5 0.25 27.75 11.75-7.75-1-25z" color="#000000" enable-background="accumulate" fill="url(#x)" fill-rule="evenodd"/><path d="m211.5 158v27l7.25-10.5 0.25-25z" color="#000000" enable-background="accumulate" fill="url(#w)" fill-rule="evenodd"/><path d="m128.12 64c-34.155 0-62.125 21.452-62.125 48.5 0 4.5013 1.0402 9.3587 2.4775 13.5 7.1994-20.744 31.177-36 59.648-36 28.471 0 52.448 15.256 59.648 36 1.4373-4.1413 2.2275-8.9987 2.2275-13.5 0-27.048-27.72-48.5-61.875-48.5z" color="#000000" enable-background="accumulate" fill="url(#t)" fill-rule="evenodd"/><path d="m136.22 33.344c-3.1711 5.5983-4.1801 14.455-12.125 14.746-7.9589 0.2918-9.9981-8.4824-13.844-13.821-4.64 0.63432-9.1605 1.5224-13.562 2.628-0.19539 6.1202 3.276 14.61-3.9375 17.252-7.2149 2.6431-13.412-4.8544-19.594-8.6383-3.9356 1.9587-7.6756 4.1485-11.219 6.497 2.8416 5.7046 10.166 12.502 4.8125 17.082-5.3602 4.5863-14.747-0.45675-22.312-2.117-2.6692 2.9637-5.112 6.0542-7.25 9.2953 5.4155 4.4404 15.61 8.5348 12.906 14.381-2.6981 5.8341-13.882 3.9761-21.688 4.6963-0.99158 3.5033-1.6872 7.0959-2.0625 10.755 7.1896 2.4692 18.563 3.2549 18.938 9.4413 0.37474 6.1974-10.894 7.7852-17.75 10.78 0.81462 3.613 1.9552 7.133 3.375 10.561 7.8599 0.15215 18.763-2.5509 22.156 3.066 3.3944 5.618-6.2343 10.444-11.094 15.257 2.5155 3.0645 5.3277 5.9767 8.3438 8.7356 7.3261-2.2126 16.055-7.9158 21.938-3.7473 5.8899 4.1738-0.58658 11.483-2.7188 17.374 3.8061 2.0784 7.7751 3.9805 11.938 5.6453 5.7025-4.2168 10.961-12.155 18.469-10.05 7.4924 2.1009 5.1063 10.809 6.0312 16.887 4.499 0.77211 9.1128 1.3138 13.812 1.606 3.1711-5.5983 4.1801-14.455 12.125-14.746 7.9589-0.2918 9.9981 8.4824 13.844 13.821 4.64-0.63431 9.1605-1.5224 13.562-2.628 0.19539-6.1202-3.276-14.61 3.9375-17.252 7.2149-2.6431 13.412 4.8544 19.594 8.6383 3.9356-1.9587 7.6756-4.1485 11.219-6.497-2.8416-5.7046-10.166-12.502-4.8125-17.082 5.3602-4.5863 14.747 0.45675 22.312 2.117 2.6692-2.9637 5.112-6.0542 7.25-9.2953-5.4155-4.4404-15.61-8.5348-12.906-14.381 2.6981-5.8341 13.882-3.9761 21.688-4.6963 0.99158-3.5032 1.6872-7.0959 2.0625-10.755-7.1896-2.4692-18.563-3.2549-18.938-9.4413-0.37474-6.1974 10.894-7.7852 17.75-10.78-0.81462-3.613-1.9552-7.133-3.375-10.561-7.8599-0.15215-18.763 2.5509-22.156-3.066-3.3944-5.618 6.2343-10.444 11.094-15.257-2.5155-3.0645-5.3277-5.9767-8.3438-8.7357-7.3261 2.2126-16.055 7.9158-21.938 3.7473-5.8899-4.1738 0.58658-11.483 2.7188-17.374-3.8062-2.0784-7.7751-3.9805-11.938-5.6453-5.7025 4.2169-10.961 12.155-18.469 10.05-7.4924-2.1009-5.1063-10.809-6.0312-16.887-4.499-0.77211-9.1128-1.3138-13.812-1.606zm-8.2188 30.879c34.224 0 62 21.628 62 48.277s-27.776 48.277-62 48.277-62-21.628-62-48.277 27.776-48.277 62-48.277z" color="#000000" display="block" enable-background="accumulate" fill="url(#g)"/><path d="m229.75 119.25v25.75l-2.25 10.75v-26z" color="#000000" enable-background="accumulate" fill="#6f6f6f" fill-rule="evenodd"/><path d="m96.812 36.875c-0.04159 0.0104-0.08343 0.02081-0.125 0.03125-0.07815 2.448 0.41702 5.2572 0.59375 7.9375 0.21595-2.4887-0.23094-5.3067-0.46875-7.9688zm88.594 10c-1.9626 4.0494-4.8014 8.4436-3.875 11.906 0.73453-3.6197 3.6347-7.7441 4.9375-11.344-0.35119-0.19178-0.70852-0.37378-1.0625-0.5625zm-122.22 4.3125c-0.41932 0.26993-0.83605 0.53812-1.25 0.8125 1.8488 3.7115 5.5822 7.9 6.5 11.625 1.1389-3.7032-2.6327-8.2389-5.25-12.438zm64.812 10.031c-34.224 0-62 21.632-62 48.281 0 0.50607 0.04261 0.99767 0.0625 1.5 1.0274-25.95 28.363-46.781 61.938-46.781 33.574 0 60.91 20.831 61.938 46.781 0.0199-0.50233 0.0625-0.99393 0.0625-1.5 0-26.649-27.776-48.281-62-48.281zm84.594 6.875c-4.7747 4.1271-11.853 8.3244-10.094 13.062 1.3716-4.0259 7.8294-7.7084 11.531-11.375-0.46949-0.57197-0.94794-1.1262-1.4375-1.6875zm-174.03 6.2188c-0.46445 0.65357-0.93561 1.3027-1.375 1.9688 4.2934 3.5204 11.57 6.8067 13.062 10.938 1.8771-5.1672-6.2517-8.9625-11.688-12.906zm189.25 21.625c-6.8937 2.8261-17.457 4.5221-17.094 10.531 0.0264 0.43697 0.11917 0.83317 0.25 1.2188 1.6721-4.7571 11.354-6.3157 17.5-9-0.20804-0.9227-0.40648-1.8394-0.65625-2.75zm-201.09 7.2812c-0.14359 0.95792-0.27577 1.9073-0.375 2.875 6.6818 2.2948 16.966 3.1455 18.688 8.2188 0.19324-0.54977 0.28882-1.1392 0.25-1.7812-0.3678-6.0826-11.36-6.9383-18.562-9.3125zm202.56 15.562c-0.39941 2.6646-0.95813 5.2981-1.6875 7.875-7.8056 0.72023-18.989-1.1466-21.688 4.6875-0.56018 1.2113-0.54624 2.358-0.15625 3.4375 0.0503-0.13857 0.0912-0.29693 0.15625-0.4375 2.6981-5.8341 13.882-3.9673 21.688-4.6875 0.99158-3.5032 1.6872-7.0905 2.0625-10.75-0.12058-0.0414-0.25214-0.0845-0.375-0.125zm-201.09 7.2812c-0.21594 0.0885-0.448 0.15905-0.65625 0.25 0.81462 3.613 1.9552 7.1348 3.375 10.562 7.8599 0.15215 18.763-2.5544 22.156 3.0625 0.18108 0.2997 0.32784 0.61094 0.4375 0.90625 0.42889-1.2589 0.3711-2.568-0.4375-3.9062-3.3937-5.6169-14.296-2.9104-22.156-3.0625-1.0572-2.5523-1.9905-5.1575-2.7188-7.8125zm189.25 21.625c-1.7955 2.5266-3.7543 4.9891-5.875 7.3438-7.5657-1.6602-16.952-6.7113-22.312-2.125-1.8704 1.6003-2.1804 3.4684-1.6875 5.4688 0.26764-0.87023 0.7962-1.7061 1.6875-2.4688 5.3602-4.5863 14.747 0.46475 22.312 2.125 2.6692-2.9637 5.112-6.0714 7.25-9.3125-0.42983-0.35243-0.8938-0.68213-1.375-1.0312zm-174.03 6.2188c-0.50618 0.43753-0.99656 0.87576-1.4375 1.3125 2.5155 3.0645 5.3277 5.9598 8.3438 8.7188 7.3261-2.2126 16.055-7.9184 21.938-3.75 1.2424 0.88042 1.92 1.9146 2.2188 3.0312 0.46759-2.3042 0.07226-4.4078-2.2188-6.0312-5.8824-4.1684-14.611 1.5374-21.938 3.75-2.4531-2.244-4.7728-4.585-6.9062-7.0312zm122.5 13.406c-0.87203 0.0405-1.7544 0.20086-2.6562 0.53125-4.3282 1.5856-4.7964 5.2917-4.5312 9.3125 0.24065-2.7733 1.3162-5.1347 4.5312-6.3125 7.2149-2.6431 13.412 4.8723 19.594 8.6562 3.9356-1.9587 7.6756-4.1515 11.219-6.5-0.3552-0.71307-0.78824-1.4468-1.25-2.1875-3.1698 2.0405-6.4929 3.9576-9.9688 5.6875-5.4086-3.3109-10.833-9.4714-16.938-9.1875zm-68.688 2.5c-6.1142 0.16669-10.76 6.7165-15.75 10.406-3.7784-1.5112-7.3925-3.2371-10.875-5.0938-0.40498 0.83561-0.77471 1.6424-1.0625 2.4375 3.8061 2.0784 7.7751 3.9914 11.938 5.6562 5.7025-4.2168 10.961-12.168 18.469-10.062 7.4924 2.1009 5.1063 10.828 6.0312 16.906 4.499 0.77211 9.1128 1.3016 13.812 1.5938 3.1711-5.5983 4.1801-14.459 12.125-14.75 7.9589-0.29179 9.9981 8.4736 13.844 13.812 4.64-0.63431 9.1605-1.5194 13.562-2.625 0.0302-0.9446-0.0332-1.9415-0.125-2.9688-4.3626 1.091-8.8413 1.9654-13.438 2.5938-3.8457-5.3389-5.8848-14.104-13.844-13.812-7.9449 0.29127-8.9539 9.1517-12.125 14.75-4.6997-0.2922-9.3134-0.82164-13.812-1.5938-0.92495-6.078 1.4612-14.805-6.0312-16.906-0.9385-0.26316-1.8453-0.36756-2.7188-0.34375z" color="#000000" display="block" enable-background="accumulate" fill="url(#j)" filter="url(#ac)"/><g transform="matrix(.9375 0 0 .9375 9.8125 3.375)" fill-rule="evenodd" opacity=".65714"><circle cx="157" cy="70" r="8" color="#000000" enable-background="accumulate" fill="url(#f)"/><circle transform="matrix(.375 0 0 .375 98.125 43.75)" cx="157" cy="70" r="8" color="#000000" enable-background="accumulate" fill="#fff"/></g><path d="m144.88 189 0.75 0.875 0.75-0.375-0.44519 26.127-0.67981 0.62269z" color="#000000" enable-background="accumulate" fill="url(#p)" fill-rule="evenodd" opacity=".36571"/><path d="m105.88 190.12c4.5396 0.62904 9.1422 1.3823 14 1.375l-0.125 26.25c-4.3909-0.39091-9.1514-0.90137-13.875-1.625z" color="#000000" enable-background="accumulate" fill="url(#o)" fill-rule="evenodd"/><path d="m81.25 182.75v26.25l-12.25-5.75 0.75-26z" color="#000000" enable-background="accumulate" fill="url(#l)" fill-rule="evenodd"/><path d="m50.25 163.75 0.25 26c-2.75-1.4927-5.75-4.3509-8.5-8.5v-26c2.75 3.4006 5.5 6.4268 8.25 8.5z" color="#000000" enable-background="accumulate" fill="url(#m)" fill-rule="evenodd"/><path d="m31 163-0.375-26.875c-1-2.4013-2.125-5.7721-3.125-9.5v25.875c0.67883 4.6302 2.1619 7.8477 3.5 10.5z" color="#000000" enable-background="accumulate" fill="#fff" fill-rule="evenodd"/><path d="m96.812 36.875c-0.04159 0.0104-0.08343 0.02081-0.125 0.03125-0.07815 2.448 0.41702 5.2572 0.59375 7.9375 0.21595-2.4887-0.23094-5.3067-0.46875-7.9688zm88.594 10c-1.9626 4.0494-4.8014 8.4436-3.875 11.906 0.73453-3.6197 3.6347-7.7441 4.9375-11.344-0.35119-0.19178-0.70852-0.37378-1.0625-0.5625zm-122.22 4.3125c-0.41932 0.26993-0.83605 0.53812-1.25 0.8125 1.8488 3.7115 5.5822 7.9 6.5 11.625 1.1389-3.7032-2.6327-8.2389-5.25-12.438zm64.812 10.031c-34.224 0-62 21.632-62 48.281 0 0.50607 0.04261 0.99767 0.0625 1.5 1.0274-25.95 28.363-46.781 61.938-46.781 33.574 0 60.91 20.831 61.938 46.781 0.0199-0.50233 0.0625-0.99393 0.0625-1.5 0-26.649-27.776-48.281-62-48.281zm84.594 6.875c-4.7747 4.1271-11.853 8.3244-10.094 13.062 1.3716-4.0259 7.8294-7.7084 11.531-11.375-0.46949-0.57197-0.94794-1.1262-1.4375-1.6875zm-174.03 6.2188c-0.46445 0.65357-0.93561 1.3027-1.375 1.9688 4.2934 3.5204 11.57 6.8067 13.062 10.938 1.8771-5.1672-6.2517-8.9625-11.688-12.906zm189.25 21.625c-6.8937 2.8261-17.457 4.5221-17.094 10.531 0.0264 0.43697 0.11917 0.83317 0.25 1.2188 1.6721-4.7571 11.354-6.3157 17.5-9-0.20804-0.9227-0.40648-1.8394-0.65625-2.75zm-201.09 7.2812c-0.14359 0.95792-0.27577 1.9073-0.375 2.875 6.6818 2.2948 16.966 3.1455 18.688 8.2188 0.19324-0.54977 0.28882-1.1392 0.25-1.7812-0.3678-6.0826-11.36-6.9383-18.562-9.3125zm202.56 15.562c-0.39941 2.6646-0.95813 5.2981-1.6875 7.875-7.8056 0.72023-18.989-1.1466-21.688 4.6875-0.56018 1.2113-0.54624 2.358-0.15625 3.4375 0.0503-0.13857 0.0912-0.29693 0.15625-0.4375 2.6981-5.8341 13.882-3.9673 21.688-4.6875 0.99158-3.5032 1.6872-7.0905 2.0625-10.75-0.12058-0.0414-0.25214-0.0845-0.375-0.125zm-201.09 7.2812c-0.21594 0.0885-0.448 0.15905-0.65625 0.25 0.81462 3.613 1.9552 7.1348 3.375 10.562 7.8599 0.15215 18.763-2.5544 22.156 3.0625 0.18108 0.2997 0.32784 0.61094 0.4375 0.90625 0.42889-1.2589 0.3711-2.568-0.4375-3.9062-3.3937-5.6169-14.296-2.9104-22.156-3.0625-1.0572-2.5523-1.9905-5.1575-2.7188-7.8125zm189.25 21.625c-1.7955 2.5266-3.7543 4.9891-5.875 7.3438-7.5657-1.6602-16.952-6.7113-22.312-2.125-1.8704 1.6003-2.1804 3.4684-1.6875 5.4688 0.26764-0.87023 0.7962-1.7061 1.6875-2.4688 5.3602-4.5863 14.747 0.46475 22.312 2.125 2.6692-2.9637 5.112-6.0714 7.25-9.3125-0.42983-0.35243-0.8938-0.68213-1.375-1.0312zm-174.03 6.2188c-0.50618 0.43753-0.99656 0.87576-1.4375 1.3125 2.5155 3.0645 5.3277 5.9598 8.3438 8.7188 7.3261-2.2126 16.055-7.9184 21.938-3.75 1.2424 0.88042 1.92 1.9146 2.2188 3.0312 0.46759-2.3042 0.07226-4.4078-2.2188-6.0312-5.8824-4.1684-14.611 1.5374-21.938 3.75-2.4531-2.244-4.7728-4.585-6.9062-7.0312zm122.5 13.406c-0.87203 0.0405-1.7544 0.20086-2.6562 0.53125-4.3282 1.5856-4.7964 5.2917-4.5312 9.3125 0.24065-2.7733 1.3162-5.1347 4.5312-6.3125 7.2149-2.6431 13.412 4.8723 19.594 8.6562 3.9356-1.9587 7.6756-4.1515 11.219-6.5-0.3552-0.71307-0.78824-1.4468-1.25-2.1875-3.1698 2.0405-6.4929 3.9576-9.9688 5.6875-5.4086-3.3109-10.833-9.4714-16.938-9.1875zm-68.688 2.5c-6.1142 0.16669-10.76 6.7165-15.75 10.406-3.7784-1.5112-7.3925-3.2371-10.875-5.0938-0.40498 0.83561-0.77471 1.6424-1.0625 2.4375 3.8061 2.0784 7.7751 3.9914 11.938 5.6562 5.7025-4.2168 10.961-12.168 18.469-10.062 7.4924 2.1009 5.1063 10.828 6.0312 16.906 4.499 0.77211 9.1128 1.3016 13.812 1.5938 3.1711-5.5983 4.1801-14.459 12.125-14.75 7.9589-0.29179 9.9981 8.4736 13.844 13.812 4.64-0.63431 9.1605-1.5194 13.562-2.625 0.0302-0.9446-0.0332-1.9415-0.125-2.9688-4.3626 1.091-8.8413 1.9654-13.438 2.5938-3.8457-5.3389-5.8848-14.104-13.844-13.812-7.9449 0.29127-8.9539 9.1517-12.125 14.75-4.6997-0.2922-9.3134-0.82164-13.812-1.5938-0.92495-6.078 1.4612-14.805-6.0312-16.906-0.9385-0.26316-1.8453-0.36756-2.7188-0.34375z" color="#000000" display="block" enable-background="accumulate" fill="url(#aa)" opacity=".84571"/></g></g></svg>
