<?xml version="1.0" encoding="UTF-8"?>
<svg enable-background="new" version="1.0" viewBox="0 0 256 256" xmlns="http://www.w3.org/2000/svg" xmlns:xlink="http://www.w3.org/1999/xlink"><defs><linearGradient id="e"><stop offset="0"/><stop offset=".89537"/><stop stop-opacity="0" offset="1"/></linearGradient><filter id="bg"><feGaussianBlur stdDeviation="0.74353448"/></filter><filter id="ba"><feGaussianBlur stdDeviation="0.8362069"/></filter><filter id="bb"><feGaussianBlur stdDeviation="0.42025862"/></filter><filter id="ax" x="-.053383" y="-.13104" width="1.1068" height="1.2621"><feGaussianBlur stdDeviation="0.2536155"/></filter><filter id="az"><feGaussianBlur stdDeviation="0.26364111"/></filter><filter id="ay"><feGaussianBlur stdDeviation="0.46767241"/></filter><filter id="bh"><feGaussianBlur stdDeviation="0.18020551"/></filter><linearGradient id="d"><stop stop-color="#2e3436" offset="0"/><stop stop-color="#eeeeec" offset=".31579"/><stop stop-color="#7f8383" offset=".61765"/><stop stop-color="#eeeeec" offset="1"/></linearGradient><filter id="a" x="-.2162" y="-.043192" width="1.4324" height="1.0864" color-interpolation-filters="sRGB"><feGaussianBlur stdDeviation="0.6163846"/></filter><filter id="bc" color-interpolation-filters="sRGB"><feGaussianBlur stdDeviation="0.13003822"/></filter><filter id="bk" color-interpolation-filters="sRGB"><feGaussianBlur stdDeviation="0.38947335"/></filter><filter id="bm" x="-.20538" y="-.15573" width="1.4108" height="1.3115" color-interpolation-filters="sRGB"><feGaussianBlur stdDeviation="0.77922653"/></filter><filter id="bl" x="-.1541" y="-.77603" width="1.3082" height="2.5521" color-interpolation-filters="sRGB"><feGaussianBlur stdDeviation="0.75526875"/></filter><filter id="br" color-interpolation-filters="sRGB"><feGaussianBlur stdDeviation="1.09875"/></filter><linearGradient id="av"><stop stop-color="#fff" offset="0"/><stop stop-color="#fff" stop-opacity="0" offset="1"/></linearGradient><linearGradient id="aw"><stop offset="0"/><stop stop-opacity="0" offset="1"/></linearGradient><clipPath id="bs"><path d="m-164.25 115.75c6.5136 3.7207 6.2315 15.446 0 19.25h12.25c6.2103-2.2229 6.0582-16.864 0-19.5z" color="#000000" enable-background="new" fill="none" stroke="#000"/></clipPath><clipPath id="bw"><path d="m415 266.5-11.164-45.626-70.516-142.6-8.5978-2.2448-7.2358 3.3602-4.108 8.9634 69.895 143.19z" color="#000000" enable-background="accumulate" fill="none" stroke="#000"/></clipPath><filter id="f"><feGaussianBlur stdDeviation="0.7"/></filter><clipPath id="bu"><path d="m215.44 139.61c0.34595-1.1781 0.5625-2.3903 0.5625-3.6094 0-15.456-28.672-28-64-28-35.328 0-64 12.544-64 28 0 1.2292 0.21089 2.4375 0.5625 3.625 1.048 6.7465 15.438 99.375 15.438 99.375 0 11.592 21.504 21 48 21 26.496 0 48-9.408 48-21 0 0 14.389-92.644 15.438-99.391z" enable-background="new" fill="#999" fill-rule="evenodd"/></clipPath><radialGradient id="ab" cx="144.5" cy="109.5" r="64" gradientTransform="matrix(-1 0 0 -3.8516 304 529.75)" gradientUnits="userSpaceOnUse"><stop stop-opacity="0" offset="0"/><stop stop-opacity="0" offset=".35226"/><stop offset="1"/></radialGradient><linearGradient id="au" x1="163.35" x2="174.2" y1="92.226" y2="157.85" gradientUnits="userSpaceOnUse"><stop offset="0"/><stop stop-opacity="0" offset="1"/></linearGradient><radialGradient id="aa" cx="144.5" cy="109.5" r="64" gradientTransform="matrix(-.9375 0 0 -3.7634 294.5 523.09)" gradientUnits="userSpaceOnUse"><stop stop-opacity="0" offset="0"/><stop stop-opacity="0" offset=".41215"/><stop offset="1"/></radialGradient><linearGradient id="at" x1="184.5" x2="173.59" y1="123.36" y2="192.17" gradientUnits="userSpaceOnUse"><stop stop-color="#fff" offset="0"/><stop stop-color="#fff" stop-opacity="0" offset="1"/></linearGradient><radialGradient id="z" cx="160.43" cy="129.18" r="61.25" gradientTransform="matrix(1.6975 0 0 .73444 -114.08 39.628)" gradientUnits="userSpaceOnUse"><stop stop-color="#fff" offset="0"/><stop stop-color="#fff" stop-opacity="0" offset="1"/></radialGradient><radialGradient id="y" cx="146.02" cy="184.03" r="64" gradientTransform="matrix(-.35087 .60772 -.61588 -.35558 340.57 84.7)" gradientUnits="userSpaceOnUse"><stop stop-color="#fff" offset="0"/><stop stop-color="#fff" offset=".4335"/><stop stop-color="#fff" stop-opacity="0" offset="1"/></radialGradient><radialGradient id="x" cx="187.48" cy="77.251" r="62.682" gradientTransform="matrix(1.174 0 0 .37533 -32.617 81.949)" gradientUnits="userSpaceOnUse"><stop stop-color="#fff" offset="0"/><stop stop-color="#fff" stop-opacity="0" offset="1"/></radialGradient><clipPath id="bt"><path d="m158.25 103.67c-36.064 0-65.333 13.568-65.333 30.286 0 16.718 29.269 30.286 65.333 30.286 36.064 0 65.333-13.568 65.333-30.286s-29.269-30.286-65.333-30.286zm0 3.2449c33.81 0 61.25 11.872 61.25 26.5 1e-5 14.628-27.44 26.5-61.25 26.5-33.81 0-61.25-11.872-61.25-26.5 2e-6 -14.628 27.44-26.5 61.25-26.5z" enable-background="new" fill="#808080" fill-rule="evenodd"/></clipPath><filter id="bq"><feGaussianBlur stdDeviation="0.88792037"/></filter><filter id="bp"><feGaussianBlur stdDeviation="0.89057794"/></filter><filter id="bo"><feGaussianBlur stdDeviation="0.35532668"/></filter><linearGradient id="as" x1="122" x2="137.5" y1="169" y2="325" gradientTransform="matrix(1 0 0 .99509 0 1.2756)" gradientUnits="userSpaceOnUse"><stop stop-color="#fff" offset="0"/><stop stop-color="#fff" stop-opacity="0" offset="1"/></linearGradient><radialGradient id="w" cx="245.27" cy="204.61" r="64" gradientTransform="matrix(1.2406e-7 .47958 -1.3672 0 408.24 43.374)" gradientUnits="userSpaceOnUse"><stop stop-color="#fff" offset="0"/><stop stop-color="#fff" offset=".35921"/><stop stop-color="#fff" stop-opacity="0" offset="1"/></radialGradient><radialGradient id="v" cx="158.25" cy="195.75" r="61.25" gradientTransform="matrix(1 0 0 .75935 -3.6719e-5 12.357)" gradientUnits="userSpaceOnUse" xlink:href="#e"/><radialGradient id="u" cx="158.25" cy="196.49" r="62" gradientTransform="matrix(1 0 0 .78298 0 7.8981)" gradientUnits="userSpaceOnUse" xlink:href="#e"/><filter id="bn"><feGaussianBlur stdDeviation="0.3775"/></filter><linearGradient id="ar" x1="146.5" x2="135.5" y1="219" y2="50" gradientUnits="userSpaceOnUse"><stop offset="0"/><stop stop-opacity="0" offset="1"/></linearGradient><radialGradient id="t" cx="158.25" cy="134.5" r="62.586" gradientTransform="matrix(1 0 0 .44476 0 74.679)" gradientUnits="userSpaceOnUse"><stop stop-opacity="0" offset="0"/><stop offset="1"/></radialGradient><clipPath id="bv"><path d="m234.05-268.68-28.818 31.152-71.922 124.33 2.6824 7.6256 6.2274 3.8058 8.8714-1.3498 72.685-124.16z" enable-background="accumulate" fill="none" stroke="#000"/></clipPath><filter id="bj" x="-.13679" y="-.10688" width="1.2736" height="1.2138"><feGaussianBlur stdDeviation="6.4671532"/></filter><radialGradient id="s" cx="248.9" cy="224.74" r="22.228" gradientTransform="matrix(.011988 -.24831 -2.0228 -.097663 296.24 495.61)" gradientUnits="userSpaceOnUse"><stop stop-color="#f5f2e9" offset="0"/><stop stop-color="#d1c59a" offset="1"/></radialGradient><linearGradient id="aq" x1="241" x2="252.29" y1="247.37" y2="242.42" gradientTransform="matrix(-.43925 -.77254 -.77254 .43925 112.08 494.83)" gradientUnits="userSpaceOnUse"><stop offset="0"/><stop stop-color="#555" offset=".52711"/><stop stop-color="#8d8d8d" offset=".68191"/><stop offset="1"/></linearGradient><linearGradient id="ap" x1="336.84" x2="321.5" y1="97.874" y2="63" gradientUnits="userSpaceOnUse"><stop offset="0"/><stop stop-opacity="0" offset="1"/></linearGradient><radialGradient id="r" cx="-138.84" cy="128" r="9.1267" gradientTransform="matrix(1.8164 0 0 1.8278 245.73 177.39)" gradientUnits="userSpaceOnUse"><stop stop-color="#f9a9a9" offset="0"/><stop stop-color="#ab5f5f" offset="1"/></radialGradient><linearGradient id="ao" x1="-146.31" x2="-146.81" y1="116.47" y2="120.59" gradientTransform="matrix(1.14 1.652e-8 1.652e-8 -1.14 153.09 555.56)" gradientUnits="userSpaceOnUse"><stop offset="0"/><stop stop-opacity="0" offset="1"/></linearGradient><linearGradient id="an" x1="-146.25" x2="-145.88" y1="117.09" y2="119.53" gradientTransform="matrix(1.14 1.652e-8 -1.652e-8 1.14 153.23 269.91)" gradientUnits="userSpaceOnUse"><stop stop-color="#9e5a5a" offset="0"/><stop stop-color="#e3a4a4" offset="1"/></linearGradient><linearGradient id="am" x1="-158.75" x2="-158.75" y1="115.94" y2="134.25" gradientTransform="matrix(1.0786 0 0 1.0786 145.45 277.61)" gradientUnits="userSpaceOnUse"><stop stop-color="#ddd" offset="0"/><stop stop-color="#fff" offset=".34468"/><stop stop-color="#737373" offset=".72695"/><stop stop-color="#bbb" offset="1"/></linearGradient><linearGradient id="al" x1="-152" x2="-159.02" y1="132" y2="115.75" gradientUnits="userSpaceOnUse"><stop offset="0"/><stop stop-opacity="0" offset="1"/></linearGradient><linearGradient id="ak" x1="172.34" x2="169.41" y1="75.391" y2="76.84" gradientTransform="matrix(-.39457 -.79628 -.79628 .39457 106.54 509.8)" gradientUnits="userSpaceOnUse"><stop stop-color="#767676" offset="0"/><stop stop-color="#767676" stop-opacity="0" offset="1"/></linearGradient><radialGradient id="q" cx="173.93" cy="145.18" r="30.125" gradientTransform="matrix(-.050503 -.58791 -3.2858 .28226 366.72 491.17)" gradientUnits="userSpaceOnUse"><stop stop-color="#fff" offset="0"/><stop stop-color="#fff" stop-opacity="0" offset="1"/></radialGradient><radialGradient id="p" cx="-139.49" cy="124.53" r="2.8607" gradientTransform="matrix(3.7531 0 0 2.8521 384.25 -233.11)" gradientUnits="userSpaceOnUse"><stop stop-color="#eeeeec" offset="0"/><stop stop-color="#eeeeec" stop-opacity="0" offset="1"/></radialGradient><radialGradient id="o" cx="-140.38" cy="122.88" r="1.5" gradientUnits="userSpaceOnUse"><stop stop-color="#eeeeec" offset="0"/><stop stop-color="#eeeeec" stop-opacity="0" offset="1"/></radialGradient><radialGradient id="c" cx="354.57" cy="37.125" r="5.4005" gradientTransform="matrix(1.3666 0 0 4.8342 -129.97 -142.34)" gradientUnits="userSpaceOnUse" xlink:href="#aw"/><radialGradient id="b" cx="354.57" cy="37.125" r="5.4005" gradientTransform="matrix(1.1115 0 0 3.9321 -39.549 -108.85)" gradientUnits="userSpaceOnUse" xlink:href="#av"/><radialGradient id="n" cx="345.87" cy="37.281" r="4.6222" gradientTransform="matrix(.69976 0 0 2.8055 -267.57 308.18)" gradientUnits="userSpaceOnUse"><stop stop-color="#fff" offset="0"/><stop stop-color="#fff" stop-opacity="0" offset="1"/></radialGradient><linearGradient id="aj" x1="37.83" x2="42.073" y1="210.75" y2="215.34" gradientTransform="matrix(1.1515 0 0 1.1515 -33.499 -31.936)" gradientUnits="userSpaceOnUse" xlink:href="#d"/><linearGradient id="ai" x1="39.244" x2="48.437" y1="203.67" y2="214.99" gradientTransform="matrix(1.1515 0 0 1.1515 -33.499 -31.936)" gradientUnits="userSpaceOnUse" xlink:href="#d"/><linearGradient id="ah" x1="28.406" x2="28.466" y1="67.78" y2="60.984" gradientTransform="matrix(3.5534 -2.8067 2.8067 3.5534 -175.07 -8.8132)" gradientUnits="userSpaceOnUse"><stop stop-color="#729fcf" offset="0"/><stop stop-color="#a5bfda" offset=".31579"/><stop stop-color="#376ca4" offset="1"/></linearGradient><linearGradient id="ag" x1="171.52" x2="190.18" y1="87.734" y2="111.38" gradientTransform="matrix(1.1515 0 0 1.1515 -33.499 -31.936)" gradientUnits="userSpaceOnUse"><stop stop-color="#dfe2e3" offset="0"/><stop stop-color="#282a2a" offset=".14286"/><stop stop-color="#cacaca" offset=".46562"/><stop stop-color="#fff" offset=".77618"/><stop stop-color="#a0a1a0" offset=".89721"/><stop stop-color="#eeeeec" offset="1"/></linearGradient><linearGradient id="af" x1="212.43" x2="225.3" y1="61.815" y2="78.176" gradientTransform="matrix(1.1515 0 0 1.1515 -33.499 -31.936)" gradientUnits="userSpaceOnUse"><stop stop-color="#dfe2e3" offset="0"/><stop stop-color="#282a2a" offset=".14286"/><stop stop-color="#c7c7c7" offset=".46562"/><stop stop-color="#fff" offset=".77618"/><stop stop-color="#a0a1a0" offset=".89721"/><stop stop-color="#eeeeec" offset="1"/></linearGradient><radialGradient id="m" cx="35.911" cy="54.913" r="2.9034" gradientTransform="matrix(.64709 .026653 -.016509 .39321 12.621 32.625)" gradientUnits="userSpaceOnUse"><stop stop-color="#fff" offset="0"/><stop stop-color="#707070" offset="1"/></radialGradient><radialGradient id="l" cx="199.58" cy="61.701" r="6.7175" gradientTransform="matrix(1.0744 0 0 1.3713 -15.605 -23.582)" gradientUnits="userSpaceOnUse"><stop stop-opacity="0" offset="0"/><stop offset="1"/></radialGradient><radialGradient id="k" cx="199.58" cy="61.248" r="6.7175" gradientTransform="matrix(2.3653 0 0 3.0188 -261.19 -130.76)" gradientUnits="userSpaceOnUse"><stop stop-color="#fff" offset="0"/><stop stop-color="#fff" stop-opacity="0" offset="1"/></radialGradient><linearGradient id="ae" x1="122.15" x2="133.55" y1="92.771" y2="92.771" gradientUnits="userSpaceOnUse"><stop stop-color="#fff" offset="0"/><stop stop-color="#fff" stop-opacity="0" offset="1"/></linearGradient><radialGradient id="j" cx="126.25" cy="139.83" r="82.75" gradientTransform="matrix(1.6707 0 0 1.282 -97.675 -59.774)" gradientUnits="userSpaceOnUse"><stop stop-color="#fff" offset="0"/><stop stop-color="#fff" stop-opacity="0" offset="1"/></radialGradient><linearGradient id="ad" x1="170.88" x2="179.61" y1="310.6" y2="298.11" gradientUnits="userSpaceOnUse"><stop offset="0"/><stop stop-opacity="0" offset="1"/></linearGradient><filter id="bi" x="-.093524" y="-.14875" width="1.187" height="1.2975"><feGaussianBlur stdDeviation="3.0208873"/></filter><radialGradient id="ac" cx="158.25" cy="71.368" r="62" gradientTransform="matrix(1 0 0 .43952 0 74.779)" gradientUnits="userSpaceOnUse"><stop offset="0"/><stop stop-opacity="0" offset="1"/></radialGradient><radialGradient id="i" cx="152" cy="203.36" r="55.812" gradientTransform="matrix(.86578 1.9236e-7 -9.0219e-7 4.1626 20.402 -643.12)" gradientUnits="userSpaceOnUse"><stop stop-color="#fff" offset="0"/><stop stop-color="#fff" stop-opacity="0" offset="1"/></radialGradient><filter id="bf"><feGaussianBlur stdDeviation="1.1998924"/></filter><radialGradient id="h" cx="158.25" cy="134.5" r="62.586" gradientTransform="matrix(1 0 0 .44476 0 74.679)" gradientUnits="userSpaceOnUse"><stop stop-opacity=".018349" offset="0"/><stop offset="1"/></radialGradient><filter id="be" x="-.067177" y="-.15527" width="1.1344" height="1.3105"><feGaussianBlur stdDeviation="3.4288044"/></filter><radialGradient id="g" cx="158.25" cy="139.61" r="72.289" gradientTransform="matrix(1.8171 5.05e-7 -1.3108e-7 .57341 -129.31 54.447)" gradientUnits="userSpaceOnUse"><stop stop-opacity=".018349" offset="0"/><stop stop-opacity="0" offset="1"/></radialGradient><filter id="bd" x="-.24077" y="-.5565" width="1.4815" height="2.113"><feGaussianBlur stdDeviation="12.28939"/></filter></defs><g transform="translate(-20,-28)"><g><ellipse transform="matrix(.72798 0 0 .66025 36.796 144.2)" cx="158.25" cy="134.5" rx="61.25" ry="26.5" enable-background="new" fill="url(#h)" fill-rule="evenodd" filter="url(#be)" opacity=".33945" stroke="url(#g)" stroke-linecap="round" stroke-linejoin="round" stroke-width="10.097"/><ellipse transform="matrix(.80057 0 0 .72988 25.31 132.83)" cx="158.25" cy="134.5" rx="61.25" ry="26.5" enable-background="new" fill="url(#t)" fill-rule="evenodd" filter="url(#bd)" opacity=".23853" stroke="#000" stroke-linecap="round" stroke-linejoin="round" stroke-width="9.1574"/><rect transform="matrix(.91587 -.40148 0 1 1 -9)" x="140.85" y="291.61" width="77.522" height="18.5" rx="7.37" ry="9.25" enable-background="new" fill="url(#ad)" fill-rule="evenodd" filter="url(#bi)" opacity=".7"/><path transform="translate(0,-8)" d="m152 110c-17.428 0-33.205 3.1186-44.447 8.0371-5.6212 2.4592-10.097 5.3708-13.084 8.459s-4.4707 6.2596-4.4707 9.5059c0 1.0006 0.17187 2.0164 0.48047 3.0586a1.9983 1.9983 0 0 1 0.05859 0.25977c1.048 6.7464 15.438 99.375 15.438 99.375a1.9983 1.9983 0 0 1 0.02344 0.30664c0 2.2802 1.0357 4.5324 3.2129 6.7832 2.1772 2.2508 5.4811 4.4067 9.6543 6.2324 8.3463 3.6515 20.123 5.9863 33.135 5.9863s24.788-2.3348 33.135-5.9863c4.1732-1.8258 7.4771-3.9816 9.6543-6.2324 2.1772-2.2508 3.2129-4.503 3.2129-6.7832a1.9983 1.9983 0 0 1 0.0234-0.30664s14.39-92.629 15.438-99.375a1.9983 1.9983 0 0 1 0.0566-0.25586c0.30372-1.0343 0.48242-2.08 0.48242-3.0625 0-3.2462-1.4835-6.4177-4.4707-9.5059s-7.4628-5.9997-13.084-8.459c-11.242-4.9185-27.02-8.0371-44.447-8.0371z" enable-background="new" fill="none" filter="url(#f)" opacity=".70183" stroke="#fff" stroke-linecap="round" stroke-linejoin="round"/><g transform="translate(0,-8)" clip-path="url(#bu)" enable-background="new"><path d="m152 108c-35.328 0-64 12.544-64 28l16 103c0-11.592 21.504-21 48-21 26.496-1e-5 48 9.408 48 21l16-103c0-15.456-28.672-28-64-28z" enable-background="new" fill="url(#ab)" fill-rule="evenodd" opacity=".1"/><ellipse transform="matrix(.78367 0 0 .79245 27.984 132.42)" cx="158.25" cy="134.5" rx="61.25" ry="26.5" enable-background="new" fill="url(#au)" fill-rule="evenodd" opacity=".4"/><path d="m152 111c-33.12 0-60 10.992-60 24.344l16 100.66c0-9.936 19.712-18 44-18 24.288-1e-5 44 8.064 44 18l16-100.66c0-13.352-26.88-24.344-60-24.344z" enable-background="new" fill="url(#aa)" fill-rule="evenodd" opacity=".2"/><path transform="matrix(1 0 0 1.0253 0 -5.6371)" d="m154.56 111.03c-0.0423 9.0668-0.4723 96.71-0.5625 107 10.796 0.19916 20.596 1.9875 28 4.8125 0.68439-6.767 8.167-77.749 11.188-104.38-10.172-4.3811-23.687-7.1516-38.625-7.4375z" enable-background="new" fill="url(#at)" fill-rule="evenodd" filter="url(#bn)" opacity=".4"/><ellipse transform="matrix(.71837 0 0 .67925 38.318 144.64)" cx="158.25" cy="134.5" rx="61.25" ry="26.5" enable-background="new" fill="url(#z)" fill-rule="evenodd" opacity=".3"/><path d="m152 108c-35.328 0-64 12.544-64 28 0 15.456 28.672 28 64 28 35.328 0 64-12.544 64-28s-28.672-28-64-28zm0 3c33.12 0 60 10.976 60 24.5 1e-5 13.524-26.88 24.5-60 24.5s-60-10.976-60-24.5c2e-6 -13.524 26.88-24.5 60-24.5z" enable-background="new" fill="url(#y)" fill-rule="evenodd" opacity=".7"/><path transform="matrix(.71837 0 0 .67925 38.318 144.64)" d="m97 134.5c0-14.628 27.44-26.5 61.25-26.5s61.25 11.872 61.25 26.5" enable-background="new" fill="none" opacity=".6" stroke="url(#x)" stroke-linecap="round" stroke-linejoin="round" stroke-width="2.8631"/><path d="m215.44 139.61c0.34595-1.1781 0.5625-2.3903 0.5625-3.6094 0-15.456-28.672-28-64-28-35.328 0-64 12.544-64 28 0 1.2292 0.21089 2.4375 0.5625 3.625 1.048 6.7465 15.438 99.375 15.438 99.375 0 11.592 21.504 21 48 21 26.496 0 48-9.408 48-21 0 0 14.389-92.644 15.438-99.391z" clip-path="none" enable-background="new" fill="none" filter="url(#f)" opacity=".76606" stroke="url(#ar)" stroke-linecap="round" stroke-linejoin="round"/></g><path transform="matrix(.97959 0 0 .92453 -3.0204 5.1509)" d="m219.5 133.42c0 14.628-27.44 26.5-61.25 26.5s-61.25-11.872-61.25-26.5 27.44-26.5 61.25-26.5 61.25 11.872 61.25 26.5z" enable-background="new" fill="none" filter="url(#bf)" opacity=".2156" stroke="url(#ac)" stroke-linecap="round" stroke-linejoin="round" stroke-width="1.5"/><g transform="translate(0,332)" enable-background="new"><g transform="rotate(120 210.18 200.22)" enable-background="new"><g transform="matrix(1,0,0,-1,0,826)"><path d="m-208.12 411.7 41.438-9.4098c15.24 0.42818 28.498 20.488-0.13903 21.381z" enable-background="accumulate" fill="url(#s)"/><path d="m-17.592 416.17-5.42 6.8294-143.7 0.67169c4.054-1.9848 5.492-4.8913 2.2484-7.4813 0.40448 0.13483 146.87-0.0198 146.87-0.0198v2e-5z" enable-background="accumulate" fill="#d9700f"/><path d="m-22.65 402.52 5.5156 5.8525-151.86-0.22409c1.6837-2.5464 8.5726-3.9347 2.2417-5.6967l144.1 0.0683v-4e-5z" enable-background="accumulate" fill="#fcaf3e"/><path d="m-17.628 416.23 0.22405-7.8626-151.15-0.30701c4.3535 1.342 8.9516 5.3157 4.4338 8.2471l146.5-0.0775z" enable-background="accumulate" fill="#f09a2e"/><path d="m-207.48 411.5 16.53-3.5375c2.5939 2.9984 2.7529 6.4819 0.52077 8.6443z" enable-background="accumulate" fill="url(#aq)"/><path transform="matrix(-.40088 -.8197 -.80901 .40618 174.14 643.93)" d="m415 266.5-10.083-44.657-70.961-143.85-9.087-1.412-6.8332 2.8274-3.9754 9.231 69.558 144.43z" clip-path="url(#bw)" enable-background="accumulate" fill="none" filter="url(#br)" stroke="url(#ap)" stroke-width="1.2137"/><path d="m-168.78 408.04c5.3562 1.3819 9.2166 5.9 4.4808 8.2943 4.3695-3.6323-2.3264-7.3942-4.4808-8.2943z" enable-background="new" fill="#fdd498"/><path d="m-166.45 423.54c2.39-0.87552 5.9134-4.5302 2.1551-7.2108 1.5719 2.6778 0.10041 5.8158-2.1551 7.2108z" enable-background="new" fill="#fdd498"/><path d="m-167.61 408.66 4.0448 2.9662-43.953 0.40448z" enable-background="new" fill="#fff" opacity=".21845"/><path d="m-168.96 407.58 2.0224 1.2134h149.39v-0.5393l-0.80896-0.80896z" enable-background="new" fill="#fff" opacity=".46602"/><path d="m-23.563 403.05c6.618 3.7803 6.3314 15.694 0 19.558h12.446c10.015-3.9686 9.2903-15.709 0-19.812z" enable-background="new" fill="url(#r)"/><path transform="matrix(1.14 1.652e-8 -1.652e-8 1.14 152.18 271.4)" d="m-152.25 119.38h9.875l1.8876 2.3358-2.8876-0.58579-8.375 0.125z" enable-background="new" fill="#fff" filter="url(#bl)" opacity=".35437"/><path transform="matrix(1.0786 0 0 1.0786 143.3 273.3)" d="m-142.5 124.62c-1.125 2.625-3.625 2.125-3.625 2.125s-4.375 2.25-2.25 4.875 4.75 5.125 4.125 5 2.625-2.75 4-3.75-1.25-1.25-1.25-3.5-1-4.875-1-4.75z" enable-background="new" fill="#ab5f5f" filter="url(#bm)" opacity=".35437"/><path d="m-18.698 422.53 6.4807 0.21376c2.3295 0.0768 6.2805-3.4636 6.739-4.5346l-10.975-0.12721z" enable-background="new" fill="url(#ao)" opacity=".25243"/><path d="m-18.555 402.94 7.339-0.21375c1.4368 0.83175 2.9435 1.3842 4.2039 2.9214h-10.545z" enable-background="new" fill="url(#an)" opacity=".60194"/><path d="m-31.71 402.46c7.0256 4.0132 6.7214 16.661 0 20.763h13.213c6.6985-2.3977 6.5344-18.19 0-21.033z" enable-background="new" fill="url(#am)"/><path transform="matrix(1.0786 0 0 1.0786 145.45 277.61)" d="m-164.25 115.75c6.5136 3.7207 6.2315 15.446 0 19.25h12.25c6.2103-2.2229 6.0582-16.864 0-19.5z" clip-path="url(#bs)" enable-background="new" fill="none" filter="url(#bk)" opacity=".50485" stroke="url(#al)"/><path d="m-31.646 402.32 13.417 5e-5c1.3594 0.78693 1.7734 1.4445 2.9659 2.8988l-13.551-0.26973c-0.85145-0.71644-1.8024-1.7346-2.8319-2.6291z" enable-background="new" fill="url(#ak)" opacity=".60194"/><path d="m-20.117 419.33-2.8928 3.1691-143.47 0.95283 2.0195-1.2699 0.90028-1.6858z" enable-background="accumulate" fill="url(#q)" opacity=".2602"/><path transform="matrix(1.2251 0 0 1.14 165.51 269.91)" d="m-143.62 117.25c5.9116 4.375 4.8678 12.5-0.5 16.125 6.4383-2.4728 8.5369-11.85 0.5-16.125z" enable-background="new" fill="url(#p)" filter="url(#bc)" opacity=".23786"/><circle transform="matrix(2.1274 0 0 2.1274 291.4 146.9)" cx="-140.38" cy="122.88" r="1.5" enable-background="new" fill="url(#o)" opacity=".45146"/><path transform="matrix(.53946 0 0 .53946 -212.5 392.66)" d="m345.75 20c9.1272 8.6667 9.119 24.833 0 34.25" enable-background="new" fill="none" filter="url(#a)" opacity=".3" stroke="url(#c)"/><path transform="matrix(.53946 0 0 .53946 -211.58 392.66)" d="m345.75 20c9.1272 8.6667 9.119 24.833 0 34.25" enable-background="new" fill="none" filter="url(#a)" stroke="url(#b)"/><path transform="matrix(.53946 0 0 .53946 -210.77 392.66)" d="m345.75 20c9.1272 8.6667 9.119 24.833 0 34.25" enable-background="new" fill="none" filter="url(#a)" opacity=".3" stroke="url(#c)"/><path transform="matrix(.53946 0 0 .53946 -209.97 392.66)" d="m345.75 20c9.1272 8.6667 9.119 24.833 0 34.25" enable-background="new" fill="none" filter="url(#a)" stroke="url(#b)"/><path transform="matrix(.53946 0 0 .53946 -209.22 392.66)" d="m345.75 20c9.1272 8.6667 9.119 24.833 0 34.25" enable-background="new" fill="none" filter="url(#a)" opacity=".3" stroke="url(#c)"/><path transform="matrix(.53946 0 0 .53946 -208.41 392.66)" d="m345.75 20c9.1272 8.6667 9.119 24.833 0 34.25" enable-background="new" fill="none" filter="url(#a)" stroke="url(#b)"/><path transform="matrix(.53946 0 0 .53946 -207.41 392.66)" d="m345.75 20c9.1272 8.6667 9.119 24.833 0 34.25" enable-background="new" fill="none" filter="url(#a)" opacity=".3" stroke="url(#c)"/><path transform="matrix(.53946 0 0 .53946 -206.48 392.66)" d="m345.75 20c9.1272 8.6667 9.119 24.833 0 34.25" enable-background="new" fill="none" filter="url(#a)" stroke="url(#b)"/><path d="m-30.529 402.78c7.0685 5.8172 4.9055 16.008 0.10117 19.994 8.0221-6.1599 6.0351-16.349-0.10117-19.994z" enable-background="new" fill="url(#n)"/></g><g><path d="m-60.141 411.14v3.5365h0.47953v-2.9071h0.0097l1.9681 2.9071h0.6094v-3.5365h-0.47953v2.9071h-0.0097l-1.9481-2.9071h-0.62938" fill="#fdd498" style="text-decoration-line:none;text-indent:0;text-transform:none"/><path d="m-55.248 414.74c0.71929 0 1.2588-0.56445 1.2588-1.2438 0-0.67434-0.54446-1.2438-1.2588-1.2438-0.71929 0-1.2588 0.56943-1.2588 1.2438 0 0.72429 0.57943 1.2438 1.2588 1.2438m0-2.068c0.46454 0 0.77923 0.33467 0.77923 0.82419 0 0.49451-0.3147 0.82419-0.77923 0.82419-0.46954 0-0.77923-0.32968-0.77923-0.82419 0-0.48952 0.30969-0.82419 0.77923-0.82419" fill="#fdd498" style="text-decoration-line:none;text-indent:0;text-transform:none"/><path d="m-50.898 411.05c-0.64937 0-1.0839 0.32968-1.1688 0.9191l0.51948 0.045c0.0549-0.32468 0.27973-0.54447 0.64437-0.54447 0.31468 0 0.60939 0.20481 0.60939 0.56445 0 0.0999-0.01499 0.37463-0.38962 0.72429l-1.4186 1.4086v0.5095h2.3177v-0.41959h-1.7782l1.1639-1.1239c0.25475-0.24476 0.6144-0.6094 0.6144-1.1039 0-0.65936-0.52448-0.97904-1.1139-0.97904" fill="#fdd498" style="text-decoration-line:none;text-indent:0;text-transform:none"/><path d="m-46.471 411.88v-0.73428h-0.35965v0.73428l-0.7043-0.23976-0.10495 0.32468 0.70929 0.23976-0.44456 0.58443 0.27473 0.20479 0.44456-0.59941 0.45455 0.6094 0.27473-0.2048-0.43957-0.59441 0.69431-0.22478-0.10495-0.33467-0.69431 0.23477" fill="#fdd498" style="text-decoration-line:none;text-indent:0;text-transform:none"/><path d="m-43.37 411.14v3.5365h0.47953v-1.6184h1.8332v1.6184h0.47953v-3.5365h-0.47953v1.4686h-1.8332v-1.4686h-0.47953" fill="#fdd498" style="text-decoration-line:none;text-indent:0;text-transform:none"/><path d="m-37.851 413.66c0 0.47953-0.43957 0.59941-0.76425 0.59941h-0.7043v-1.2288h0.7093c0.34965 0 0.75924 0.12987 0.75924 0.62938m-0.15485-1.5784c0 0.38462-0.29471 0.52947-0.65935 0.52947h-0.65435v-1.049h0.75425c0.46954 0 0.55945 0.33967 0.55945 0.5195m0.66435 1.6134c0-0.51448-0.38462-0.85415-0.76425-0.87913v-0.01c0.28472-0.0949 0.6094-0.30969 0.6094-0.77923 0-0.61939-0.49952-0.88412-1.074-0.88412h-1.2288v3.5365h1.2138c0.69431 0 1.2438-0.35466 1.2438-0.98404" fill="#fdd498" style="text-decoration-line:none;text-indent:0;text-transform:none"/><path d="m-60.141 410.87v3.5365h0.47953v-2.9071h0.0097l1.9681 2.9071h0.6094v-3.5365h-0.47953v2.9071h-0.0097l-1.9481-2.9071h-0.62938" fill="#7f4109" style="text-decoration-line:none;text-indent:0;text-transform:none"/><path d="m-55.248 414.47c0.71929 0 1.2588-0.56444 1.2588-1.2438 0-0.67434-0.54446-1.2438-1.2588-1.2438-0.71929 0-1.2588 0.56943-1.2588 1.2438 0 0.72428 0.57943 1.2438 1.2588 1.2438m0-2.068c0.46454 0 0.77923 0.33467 0.77923 0.82419 0 0.49451-0.3147 0.82418-0.77923 0.82418-0.46954 0-0.77923-0.32967-0.77923-0.82418 0-0.48952 0.30969-0.82419 0.77923-0.82419" fill="#7f4109" style="text-decoration-line:none;text-indent:0;text-transform:none"/><path d="m-50.898 410.78c-0.64937 0-1.0839 0.32968-1.1688 0.91909l0.51948 0.045c0.0549-0.32468 0.27973-0.54447 0.64437-0.54447 0.31468 0 0.60939 0.20481 0.60939 0.56445 0 0.0999-0.01499 0.37463-0.38962 0.72428l-1.4186 1.4086v0.50951h2.3177v-0.41959h-1.7782l1.1639-1.1239c0.25475-0.24476 0.6144-0.60941 0.6144-1.1039 0-0.65935-0.52448-0.97903-1.1139-0.97903" fill="#7f4109" style="text-decoration-line:none;text-indent:0;text-transform:none"/><path d="m-46.471 411.61v-0.73428h-0.35965v0.73428l-0.7043-0.23977-0.10495 0.32469 0.70929 0.23976-0.44456 0.58442 0.27473 0.2048 0.44456-0.59942 0.45455 0.60941 0.27473-0.2048-0.43957-0.59441 0.69431-0.22478-0.10495-0.33467-0.69431 0.23477" fill="#7f4109" style="text-decoration-line:none;text-indent:0;text-transform:none"/><path d="m-43.37 410.87v3.5365h0.47953v-1.6184h1.8332v1.6184h0.47953v-3.5365h-0.47953v1.4686h-1.8332v-1.4686h-0.47953" fill="#7f4109" style="text-decoration-line:none;text-indent:0;text-transform:none"/><path d="m-37.851 413.39c0 0.47953-0.43957 0.59941-0.76425 0.59941h-0.7043v-1.2288h0.7093c0.34965 0 0.75924 0.12987 0.75924 0.62938m-0.15485-1.5784c0 0.38462-0.29471 0.52948-0.65935 0.52948h-0.65435v-1.049h0.75425c0.46954 0 0.55945 0.33967 0.55945 0.51949m0.66435 1.6134c0-0.51449-0.38462-0.85415-0.76425-0.87913v-0.01c0.28472-0.0949 0.6094-0.30969 0.6094-0.77923 0-0.61939-0.49952-0.88413-1.074-0.88413h-1.2288v3.5365h1.2138c0.69431 0 1.2438-0.35466 1.2438-0.98404" fill="#7f4109" style="text-decoration-line:none;text-indent:0;text-transform:none"/><text x="-131.33987" y="414.5318" enable-background="new" fill="#7f4109" font-family="RaveIn" style="line-height:0%;text-decoration-line:none;text-indent:0;text-transform:none" xml:space="preserve"><tspan x="-131.33987" y="414.5318" font-size="4.9492px" style="line-height:1.25">TAN-GO</tspan></text></g></g><path d="m121.11-166.87c11.866 15.123 38.969 47.459 58.591 65.957 1.9134-3.8354 4.1393-5.5457 9.2066-6.7221-12.961-25.004-39.29-62.408-52.732-80.015-24.263-31.782-47.95-55.738-56.978-58.274-0.27682-0.073-0.64794-0.16868-0.89597-0.1997-0.17417-0.0178-0.42986 4e-3 -0.58891 8e-3 -0.24958 0.0135-0.56711 0.0807-0.77681 0.15118-0.05115 0.0194-0.21032 0.0274-0.25893 0.0504-0.04731 0.0248-0.14316 0.11495-0.18789 0.14344-0.02172 0.0152-0.07288 0.0556-0.09395 0.0717s-0.0736 0.0548-0.09395 0.0717c-0.03929 0.0357-0.15146 0.10436-0.1879 0.14345-0.03504 0.0408-0.08465 0.19227-0.11686 0.2365-0.12322 0.1837-0.27184 0.47226-0.35058 0.70948-0.04578 0.15237-0.13396 0.39333-0.16268 0.56604-0.03546 0.24743-0.04094 0.63066-0.04352 0.91692 0.06668 9.3772 16.932 38.541 41.195 70.323 1.5097 1.9775 2.974 3.9487 4.4753 5.8622z" clip-path="url(#bv)" enable-background="new" fill-rule="evenodd" filter="url(#bj)" opacity=".5"/><g transform="matrix(.11093 -.67263 .67263 .11093 21.523 -116.5)" enable-background="new"><g transform="matrix(1.0528 -.15583 .15583 1.0528 -25.937 8.4161)" fill-rule="evenodd"><path d="m41.808 189.11c2.1798 2.7585-4.4628 11.411-14.691 19.486-10.228 8.0753-21.887 10.38-22.368 9.7718-0.53527-0.67734 4.4628-11.411 14.691-19.486 10.228-8.0753 20.188-12.53 22.368-9.7718z" enable-background="accumulate" fill="url(#aj)"/><path d="m9.0433 209.61c3.0124 2.1764 4.2864 3.9447 5.1065 6.3378l0.89826 0.68474 13.333-6.3101-10.585-12.62-8.9772 10.348z" enable-background="accumulate" fill="url(#ai)"/><path d="m106.34 116.52c-20.573 16.697-64.519 54.785-89.566 82.247 5.3293 2.5497 7.7369 5.5784 9.4734 12.535 34.165-18.431 85.114-55.567 109.07-74.491 43.248-34.16 75.725-67.35 79.014-79.85 0.0943-0.38316 0.21774-0.89679 0.25484-1.2393 0.0206-0.24044-0.0149-0.59232-0.024-0.81142-0.0242-0.34365-0.12417-0.77973-0.22601-1.0671-0.0279-0.07005-0.0425-0.28924-0.0753-0.3557-0.0353-0.06464-0.16167-0.19468-0.20196-0.25568-0.0214-0.02959-0.0783-0.09918-0.10098-0.12784-0.0226-0.02867-0.0771-0.10019-0.10097-0.12784-0.05-0.05333-0.14726-0.20636-0.20197-0.25569-0.057-0.04736-0.26689-0.11229-0.32858-0.15567-0.25597-0.16564-0.65703-0.36389-0.98574-0.46701-0.21103-0.05963-0.54511-0.17568-0.78379-0.21133-0.3418-0.04324-0.87006-0.04208-1.2646-0.03912-12.922 0.30511-52.731 24.212-95.979 58.372-2.691 2.1255-5.3743 4.1883-7.9772 6.301z" fill="url(#ah)"/><path transform="matrix(1.1515 0 0 1.1515 -18.53 -15.816)" d="m24.035 195.07c2.0938 1.7069 3.9692 3.6322 5.1265 6.2756-0.08942-3.4506-2.5958-5.5031-5.1265-6.2756z" enable-background="accumulate" fill="#fff" filter="url(#bh)"/></g><g transform="matrix(1.0528 -.15583 .15583 1.0528 -25.937 8.4161)"><g transform="matrix(1.1515 0 0 1.1515 -14.866 -12.966)" fill="none"><path transform="matrix(4.0797 -2.5703 2.6121 4.0921 -163.81 -60.938)" d="m31.964 57.727a13.062 5.5 0 0 1 12.55-0.91599 13.062 5.5 0 0 1 8.4356 4.0185" stroke="#5e5e5e" stroke-width=".49921"/><path transform="matrix(4.0797 -2.5703 2.6121 4.0921 -163.81 -61.188)" d="m31.964 57.727a13.062 5.5 0 0 1 12.55-0.91599 13.062 5.5 0 0 1 8.4356 4.0185" stroke="#fff" stroke-width=".2496"/></g><path transform="matrix(1.1515 0 0 1.1515 -18.53 -15.816)" d="m122.75 103.88c8.4189 4.9849 14.62 12.33 17.875 22.812l-4.25-16.562z" enable-background="accumulate" fill-rule="evenodd" filter="url(#ay)" opacity=".62069"/><path d="m136.94 90.693c-5.1853 4.2376-10.148 8.6006-14.816 12.741 12.983 6.3204 17.888 16.231 21.206 26.847 7.2672-5.0953 14.892-10.724 22.537-16.763 36.491-28.823 63.089-57.836 64.834-69.687 0.0135-0.10398 0.0417-0.35445 0.0513-0.45572 8e-3 -0.09989 0.0477-0.35857 0.0513-0.45571 4e-3 -0.23939-3e-3 -0.58961-0.024-0.81142-0.0105-0.08731-0.0608-0.27126-0.0753-0.3557-0.0498-0.24899-0.16474-0.6166-0.25165-0.83925-0.0311-0.07273-0.0401-0.28595-0.0753-0.3557-0.056-0.10236-0.23746-0.28798-0.30294-0.38353-0.0229-0.03109-0.077-0.09752-0.10098-0.12784-0.024-0.03032-0.076-0.09838-0.10099-0.12785-0.0778-0.08584-0.21631-0.30534-0.30293-0.38353-0.0597-0.05042-0.26501-0.1086-0.32858-0.15566-0.19648-0.13612-0.52745-0.33312-0.75815-0.43919-0.0788-0.0337-0.24606-0.12527-0.32858-0.15567-0.2109-0.07189-0.54996-0.15986-0.78379-0.21132-0.0953-0.01897-0.35626-0.03993-0.4552-0.05566-0.10073-0.01412-0.3509-0.04475-0.4552-0.05565-11.933-1.047-46.318 18.108-82.808 46.931-2.2705 1.7934-4.5206 3.5108-6.711 5.3008z" enable-background="accumulate" fill="url(#ag)" fill-rule="evenodd"/><path d="m201.02 47.132c8.4889 3.3007 14.046 9.1142 14.945 18.921 11.07-11.29 17.711-21.259 17.081-26.363-5e-3 -0.03252-0.0184-0.15678-0.0237-0.18889-6e-3 -0.03171-0.0172-0.15759-0.0237-0.18889-7e-3 -0.0309-0.016-0.15842-0.0237-0.1889-0.0499-0.18036-0.17729-0.4683-0.24934-0.63347-0.0126-0.02711-0.0877-0.10118-0.10097-0.12784-0.0139-0.02624-9e-3 -0.1631-0.0237-0.18889-0.0151-0.02537-0.0852-0.10292-0.10098-0.12785-0.0164-0.02448-0.084-0.10379-0.10097-0.12784-0.0177-0.0236-0.0827-0.10469-0.10099-0.12784-0.0183-0.02316-0.0821-0.1052-0.10098-0.12784-0.0195-0.02214-0.081-0.10624-0.10097-0.12785-0.0206-0.0211-0.0798-0.10725-0.10098-0.12784-0.0217-0.02009-0.15596-0.04722-0.17827-0.0668-0.0229-0.01907-0.0775-0.10928-0.10098-0.12784-0.144-0.10835-0.39459-0.299-0.5585-0.38927-0.0279-0.01454-0.14986-0.05273-0.17828-0.06679-0.0289-0.01356-0.14878-0.05373-0.17827-0.06679-0.03-0.01256-0.14771-0.05472-0.17827-0.0668-4.8193-1.7946-16.056 2.3562-29.603 10.511z" enable-background="accumulate" fill="url(#af)" fill-rule="evenodd"/><path transform="matrix(3.4897 -2.213 2.2344 3.5233 -110.95 -33.315)" d="m36.365 54.473a3 1.5625 0 0 1-1.888 1.9417 3 1.5625 0 0 1-3.7827-0.92487l2.8062-0.55253z" fill="url(#m)" fill-rule="evenodd"/><path transform="matrix(1.1515 0 0 1.1515 -18.53 -15.816)" d="m189.82 54.401c8.1244 2.7989 12.38 8.6928 13.435 17.147-2.0708-7.7942-5.7268-13.487-13.435-17.147z" enable-background="accumulate" fill="url(#l)" fill-rule="evenodd" filter="url(#az)" opacity=".33333"/><path d="m200.9 46.91c9.355 3.2228 14.255 10.009 15.47 19.744-2.3845-8.9748-6.5942-15.53-15.47-19.744z" enable-background="accumulate" fill="url(#k)" fill-rule="evenodd"/><path transform="matrix(1.1515 0 0 1.1515 -18.53 -15.816)" d="m122.15 94.78c4.9479 1.4243 9.3904-2.3481 11.402-4.331 0 0-6.7162 4.5302-9.2808 2.5633z" enable-background="accumulate" fill="url(#ae)" fill-rule="evenodd" filter="url(#ax)" opacity=".62069"/></g><path transform="matrix(1.2122 -.17944 .17944 1.2122 -47.111 -3.7501)" d="m192.95 55.486-68.019 49.75c-32.971 25.9-80.112 72.74-80.112 72.74s46.123-44.136 82.624-71.265l67.628-50.088c7.1389-6.1892 18.757-10.484 18.757-10.484s-13.669 4.5339-20.88 9.3463z" enable-background="accumulate" fill="url(#j)" fill-rule="evenodd" filter="url(#bb)" opacity=".5"/><path transform="matrix(1.2122 -.17944 .17944 1.2122 -45.651 .86301)" d="m213.07 47.704s-6.612 9.2963-12.092 13.243c0 0-9.4212 11.214-64.981 55.053l-37.567 29.952 39.067-28.452c25.082-18.003 64.481-55.053 64.481-55.053 6.6859-5.7028 11.092-14.743 11.092-14.743z" enable-background="accumulate" fill="#fff" fill-rule="evenodd" filter="url(#ba)"/><path d="m167 101s33.387-36.76 44.75-56.25l-1-2.3787c-11.907 17.439-43.75 58.629-43.75 58.629z" enable-background="accumulate" fill="#fff" fill-rule="evenodd" filter="url(#bg)" opacity=".28736"/></g></g><g transform="translate(0,-8)" enable-background="new"><g transform="matrix(.99567 0 0 .98339 .65849 2.3187)" fill-rule="evenodd"><path transform="matrix(1.0726 0 0 1.0726 -11.034 -13.901)" d="m96.188 152.12c4.0719 26.219 13.156 86.071 13.156 86.071 0.0413 0.26874 0.0622 0.54061 0.0625 0.8125 0 1.2301 0.50248 2.5997 2.25 4.4062s4.6798 3.8013 8.5625 5.5c7.7655 3.3974 19.172 5.6875 31.781 5.6875 12.61 0 24.016-2.2901 31.781-5.6875 3.8828-1.6987 6.815-3.6934 8.5625-5.5s2.25-3.1762 2.25-4.4062c3.2e-4 -0.27189 0.0212-0.54376 0.0625-0.8125 0 0 9.0838-59.852 13.156-86.071-3.34 2.0755-6.974 4.0104-11.093 5.6096-12.19 4.7324-27.717 7.4689-44.719 7.4689s-32.529-2.7365-44.719-7.4689c-4.119-1.5991-7.753-3.534-11.093-5.6096z" enable-background="new" fill="url(#i)" opacity=".6"/><path transform="matrix(1 0 0 1.0099 0 -5.1061)" d="m108 156.82c2.9782 25.696 10.051 89.495 11.344 100.6 7.522 3.0418 17.291 5.0598 28.094 5.5041-0.0801-7.0584-0.72482-67.016-1.0938-98.581-14.813-0.56613-28.16-3.3134-38.344-7.5254z" enable-background="new" fill="url(#as)" filter="url(#bo)" opacity=".8"/></g><path d="m152 108c-35.328 0-64 12.544-64 28 0 15.456 28.672 28 64 28 35.328 0 64-12.544 64-28s-28.672-28-64-28zm0 3c33.12 0 60 10.976 60 24.5 1e-5 13.524-26.88 24.5-60 24.5s-60-10.976-60-24.5 26.88-24.5 60-24.5z" enable-background="new" fill="url(#w)" fill-rule="evenodd" opacity=".7"/><ellipse transform="matrix(.97959 0 0 .92453 -3.0204 12.151)" cx="158.25" cy="134.5" rx="61.25" ry="26.5" clip-path="url(#bt)" enable-background="new" fill="url(#v)" fill-rule="evenodd" filter="url(#bq)" opacity=".4"/><ellipse transform="matrix(1.0449 0 0 1.0566 -13.355 -5.1132)" cx="158.25" cy="134.5" rx="61.25" ry="26.5" enable-background="new" fill="none" filter="url(#bp)" opacity=".1" stroke="url(#u)" stroke-linecap="round" stroke-linejoin="round" stroke-width="1.5"/></g></g></g></svg>
