<?xml version="1.0" encoding="UTF-8" standalone="no"?>
<svg
   xmlns:dc="http://purl.org/dc/elements/1.1/"
   xmlns:cc="http://creativecommons.org/ns#"
   xmlns:rdf="http://www.w3.org/1999/02/22-rdf-syntax-ns#"
   xmlns:svg="http://www.w3.org/2000/svg"
   xmlns="http://www.w3.org/2000/svg"
   xmlns:xlink="http://www.w3.org/1999/xlink"
   style="display:inline;enable-background:new"
   version="1.0"
   id="svg11300"
   height="256"
   width="256">
  <title
     id="title3004">Suru Icon Theme Template</title>
  <defs
     id="defs3">
    <linearGradient
       id="linearGradient1048">
      <stop
         id="stop1044"
         offset="0"
         style="stop-color:#cdcdcd;stop-opacity:1;" />
      <stop
         id="stop1046"
         offset="1"
         style="stop-color:#d9d9d9;stop-opacity:1" />
    </linearGradient>
    <clipPath
       id="clipPath9430"
       clipPathUnits="userSpaceOnUse">
      <path
         style="color:#000000;display:inline;overflow:visible;visibility:visible;fill:#ffffff;fill-opacity:1;fill-rule:nonzero;stroke:none;stroke-width:1;marker:none;enable-background:new"
         d="m 166.0625,-196 h 179.875 C 491.2348,-196 512,-175.28677 512,-30.125 v 148.25 C 512,263.28618 491.2348,284 345.9375,284 H 166.0625 C 20.7652,284 0,263.28618 0,118.125 V -30.125 C 0,-175.28677 20.7652,-196 166.0625,-196 Z"
         id="path9432" />
    </clipPath>
    <clipPath
       id="clipPath1082"
       clipPathUnits="userSpaceOnUse">
      <path
         style="display:inline;opacity:1;fill:#8c59d9;fill-opacity:1;stroke:none;stroke-width:2;stroke-linecap:round;stroke-linejoin:round;stroke-miterlimit:4;stroke-dasharray:none;stroke-dashoffset:0;stroke-opacity:1;enable-background:new"
         d="M 361.9375,-212 C 507.2348,-212 528,-191.28677 528,-46.125 V 70.125 C 528,215.28618 507.2348,236 361.9375,236 H 214.0625 C 68.7652,236 48,215.28618 48,70.125 V -46.125 C 48,-191.28677 68.7652,-212 214.0625,-212 Z"
         id="path1084" />
    </clipPath>
    <clipPath
       id="clipPath994"
       clipPathUnits="userSpaceOnUse">
      <path
         id="path996"
         d="m 335.73108,62 c -8.82418,0 -9.77365,0.90635 -9.7304,9.74838 V 84 96.25162 c -0.0433,8.84203 0.90622,9.74838 9.7304,9.74838 h 16.53919 c 8.82418,0 9.7304,-0.90625 9.7304,-9.74838 V 84 71.74838 C 362.00067,62.90625 361.09445,62 352.27027,62 Z"
         style="color:#000000;display:inline;overflow:visible;visibility:visible;fill:#cdcdcd;fill-opacity:1;fill-rule:nonzero;stroke:none;stroke-width:2;stroke-miterlimit:4;stroke-dasharray:none;stroke-opacity:1;marker:none;enable-background:accumulate" />
    </clipPath>
    <clipPath
       id="clipPath994-5"
       clipPathUnits="userSpaceOnUse">
      <path
         id="path996-3"
         d="m 335.73108,62 c -8.82418,0 -9.77365,0.90635 -9.7304,9.74838 V 84 96.25162 c -0.0433,8.84203 0.90622,9.74838 9.7304,9.74838 h 16.53919 c 8.82418,0 9.7304,-0.90625 9.7304,-9.74838 V 84 71.74838 C 362.00067,62.90625 361.09445,62 352.27027,62 Z"
         style="color:#000000;display:inline;overflow:visible;visibility:visible;fill:#cdcdcd;fill-opacity:1;fill-rule:nonzero;stroke:none;stroke-width:2;stroke-miterlimit:4;stroke-dasharray:none;stroke-opacity:1;marker:none;enable-background:accumulate" />
    </clipPath>
    <clipPath
       id="clipPath971"
       clipPathUnits="userSpaceOnUse">
      <path
         id="path973"
         d="m 327.8652,189 c -4.41209,0 -4.88682,0.45318 -4.8652,4.87419 V 200 206.12581 C 322.9783,210.54682 323.45311,211 327.8652,211 h 8.2696 C 340.54689,211 341,210.54688 341,206.12581 V 200 193.87419 C 341,189.45313 340.54688,189 336.13479,189 Z"
         style="color:#000000;display:inline;overflow:visible;visibility:visible;opacity:1;fill:#46a926;fill-opacity:1;fill-rule:nonzero;stroke:none;stroke-width:2;stroke-miterlimit:4;stroke-dasharray:none;stroke-opacity:1;marker:none;enable-background:accumulate" />
    </clipPath>
    <clipPath
       id="clipPath983"
       clipPathUnits="userSpaceOnUse">
      <path
         style="color:#000000;display:inline;overflow:visible;visibility:visible;opacity:1;fill:#46a926;fill-opacity:1;fill-rule:nonzero;stroke:none;stroke-width:2;stroke-miterlimit:4;stroke-dasharray:none;stroke-opacity:1;marker:none;enable-background:accumulate"
         d="m 325.09646,237 c -2.80769,0 -3.10979,0.28839 -3.09603,3.10176 V 244 v 3.89824 c -0.0138,2.81337 0.28834,3.10176 3.09603,3.10176 h 5.8075 C 333.71166,251 334,250.71165 334,247.89824 V 244 240.10176 C 334,237.28836 333.71165,237 330.90396,237 Z"
         id="path985" />
    </clipPath>
    <clipPath
       id="clipPath959"
       clipPathUnits="userSpaceOnUse">
      <path
         id="path961"
         d="m 330.1929,133.99999 c -5.61538,0 -6.21958,0.57678 -6.19206,6.20352 v 7.79648 7.79648 c -0.0276,5.62673 0.57668,6.20351 6.19206,6.20351 h 11.615 c 5.6154,0 6.19208,-0.5767 6.19208,-6.20351 v -7.79648 -7.79648 c 0,-5.6268 -0.5767,-6.20352 -6.19208,-6.20352 z"
         style="color:#000000;display:inline;overflow:visible;visibility:visible;opacity:1;fill:#46a926;fill-opacity:1;fill-rule:nonzero;stroke:none;stroke-width:2;stroke-miterlimit:4;stroke-dasharray:none;stroke-opacity:1;marker:none;enable-background:accumulate" />
    </clipPath>
    <clipPath
       id="clipPath892"
       clipPathUnits="userSpaceOnUse">
      <path
         style="color:#000000;display:inline;overflow:visible;visibility:visible;opacity:1;fill:#cdcdcd;fill-opacity:1;fill-rule:nonzero;stroke:none;stroke-width:2;stroke-linecap:butt;stroke-linejoin:miter;stroke-miterlimit:4;stroke-dasharray:none;stroke-dashoffset:0;stroke-opacity:1;marker:none;enable-background:accumulate"
         d="m 365.9998,93.00023 c 0,5 -1.95653,4.94169 -7,5 H 329 c -5.04347,-0.0583 -7,0 -7,-5 V 75.000018 c 0,-5.000001 1.95653,-4.941694 7,-5.000001 h 29.9998 c 5.04347,0.05831 7,0 7,5.000001 z"
         id="path894" />
    </clipPath>
    <linearGradient
       id="linearGradient927">
      <stop
         id="stop923"
         offset="0"
         style="stop-color:#ffffff;stop-opacity:1;" />
      <stop
         style="stop-color:#ffffff;stop-opacity:0.09803922"
         offset="0.125"
         id="stop933" />
      <stop
         style="stop-color:#ffffff;stop-opacity:0.09803922"
         offset="0.92500001"
         id="stop931" />
      <stop
         id="stop925"
         offset="1"
         style="stop-color:#ffffff;stop-opacity:0.49803922" />
    </linearGradient>
    <linearGradient
       gradientUnits="userSpaceOnUse"
       y2="98"
       x2="344"
       y1="70"
       x1="344"
       id="linearGradient920"
       xlink:href="#linearGradient927" />
    <linearGradient
       gradientUnits="userSpaceOnUse"
       y2="98"
       x2="344"
       y1="70"
       x1="344"
       id="linearGradient1050"
       xlink:href="#linearGradient1048" />
    <clipPath
       id="clipPath1070"
       clipPathUnits="userSpaceOnUse">
      <path
         style="color:#000000;display:inline;overflow:visible;visibility:visible;opacity:0.2;fill:#cdcdcd;fill-opacity:1;fill-rule:nonzero;stroke:none;stroke-width:2;stroke-linecap:butt;stroke-linejoin:miter;stroke-miterlimit:4;stroke-dasharray:none;stroke-dashoffset:0;stroke-opacity:1;marker:none;enable-background:accumulate"
         d="m 350.9998,152.99999 c 0,5.00001 -1.95653,4.9417 -7,5.00001 H 328 c -5.04347,-0.0583 -7,0 -7,-5.00001 v -11.0002 c 0,-5.00001 1.95653,-4.9417 7,-5.00001 h 15.9998 c 5.04347,0.0583 7,0 7,5.00001 z"
         id="path1072" />
    </clipPath>
    <linearGradient
       gradientUnits="userSpaceOnUse"
       y2="158"
       x2="338"
       y1="137"
       x1="338"
       id="linearGradient1080"
       xlink:href="#linearGradient927" />
    <linearGradient
       gradientUnits="userSpaceOnUse"
       y2="158"
       x2="337"
       y1="137"
       x1="337"
       id="linearGradient1093"
       xlink:href="#linearGradient1048" />
    <linearGradient
       gradientTransform="translate(-1)"
       y2="249"
       x2="329"
       y1="239"
       x1="329"
       gradientUnits="userSpaceOnUse"
       id="linearGradient1176"
       xlink:href="#linearGradient1048" />
    <linearGradient
       gradientTransform="translate(-1)"
       y2="249"
       x2="329"
       y1="239"
       x1="329"
       gradientUnits="userSpaceOnUse"
       id="linearGradient1178"
       xlink:href="#linearGradient1048" />
    <clipPath
       id="clipPath1193"
       clipPathUnits="userSpaceOnUse">
      <path
         id="path1195"
         d="m 324,239 c -1.25854,0.0147 -2.08718,0.0598 -2.45312,0.26172 -0.18343,0.10119 -0.28912,0.21275 -0.38672,0.47266 C 321.0626,239.99428 321,240.4076 321,241 v 5 c 0,0.5924 0.0626,1.00571 0.16016,1.26562 0.0976,0.25992 0.20329,0.37146 0.38672,0.47266 0.36594,0.20192 1.19459,0.24702 2.45312,0.26172 h 0.006 6.994 c 1.25853,-0.0147 2.08718,-0.0598 2.45312,-0.26172 0.18343,-0.10119 0.28912,-0.21275 0.38672,-0.47266 C 333.9374,247.00572 334,246.5924 334,246 v -5 c 0,-0.5924 -0.0627,-1.00571 -0.16016,-1.26562 -0.0976,-0.25992 -0.20329,-0.37146 -0.38672,-0.47266 C 333.08718,239.0598 332.25853,239.0147 331,239 Z"
         style="color:#000000;display:inline;overflow:visible;visibility:visible;opacity:1;fill:url(#linearGradient1197);fill-opacity:1;fill-rule:nonzero;stroke:none;stroke-width:1.00000668;stroke-linecap:butt;stroke-linejoin:miter;stroke-miterlimit:4;stroke-dasharray:none;stroke-dashoffset:0;stroke-opacity:1;marker:none;enable-background:accumulate" />
    </clipPath>
    <linearGradient
       y2="249"
       x2="329"
       y1="239"
       x1="329"
       gradientTransform="translate(-1)"
       gradientUnits="userSpaceOnUse"
       id="linearGradient1197"
       xlink:href="#linearGradient1048" />
    <linearGradient
       gradientUnits="userSpaceOnUse"
       y2="248"
       x2="328"
       y1="239"
       x1="328"
       id="linearGradient1205"
       xlink:href="#linearGradient927" />
    <linearGradient
       gradientUnits="userSpaceOnUse"
       y2="206"
       x2="333"
       y1="194"
       x1="333"
       id="linearGradient1223"
       xlink:href="#linearGradient1048" />
    <clipPath
       id="clipPath1238"
       clipPathUnits="userSpaceOnUse">
      <path
         id="path1240"
         d="m 338,194 c 1.25853,0.0147 2.08912,0.0598 2.45508,0.26172 0.18341,0.10119 0.28716,0.21275 0.38476,0.47266 C 340.9374,194.99427 341,195.40761 341,196 v 8 c 0,0.59239 -0.0626,1.00572 -0.16016,1.26562 -0.0976,0.25992 -0.20135,0.37147 -0.38476,0.47266 C 340.08912,205.9402 339.25853,205.9853 338,206 H 337.994 326 c -1.25852,-0.0147 -2.08912,-0.0598 -2.45508,-0.26172 -0.18341,-0.10119 -0.28716,-0.21275 -0.38476,-0.47266 C 323.0626,205.00573 323,204.59239 323,204 v -8 c 0,-0.59239 0.0627,-1.00571 0.16016,-1.26562 0.0976,-0.25992 0.20331,-0.37146 0.38672,-0.47266 C 323.91282,194.0598 324.74148,194.0147 326,194 Z"
         style="color:#000000;display:inline;overflow:visible;visibility:visible;opacity:1;fill:url(#linearGradient1242);fill-opacity:1;fill-rule:nonzero;stroke:none;stroke-width:1.00000012;stroke-linecap:butt;stroke-linejoin:miter;stroke-miterlimit:4;stroke-dasharray:none;stroke-dashoffset:0;stroke-opacity:1;marker:none;enable-background:accumulate" />
    </clipPath>
    <linearGradient
       y2="206"
       x2="333"
       y1="194"
       x1="333"
       gradientTransform="matrix(-1,0,0,1,664,0)"
       gradientUnits="userSpaceOnUse"
       id="linearGradient1242"
       xlink:href="#linearGradient1048" />
    <linearGradient
       gradientUnits="userSpaceOnUse"
       y2="206"
       x2="332"
       y1="194"
       x1="332"
       id="linearGradient1250"
       xlink:href="#linearGradient927" />
    <linearGradient
       gradientUnits="userSpaceOnUse"
       y2="228"
       x2="152"
       y1="84"
       x1="152"
       id="linearGradient1331"
       xlink:href="#linearGradient1048" />
    <clipPath
       id="clipPath1337"
       clipPathUnits="userSpaceOnUse">
      <path
         style="color:#000000;display:inline;overflow:visible;visibility:visible;opacity:1;fill:#808080;fill-opacity:1;fill-rule:nonzero;stroke:none;stroke-width:4;stroke-linecap:butt;stroke-linejoin:miter;stroke-miterlimit:4;stroke-dasharray:none;stroke-dashoffset:0;stroke-opacity:1;marker:none;enable-background:accumulate"
         d="m 265.99897,205.00107 c 0,25.00001 -9.78264,24.70848 -35,25.00001 H 72.99995 c -25.21735,-0.29153 -35,0 -35,-25.00001 v -98.00104 c 0,-25.000009 9.78265,-24.708474 35,-25.000009 h 157.99902 c 25.21736,0.291535 35,0 35,25.000009 z"
         id="path1339" />
    </clipPath>
    <linearGradient
       gradientUnits="userSpaceOnUse"
       y2="232"
       x2="156"
       y1="80"
       x1="156"
       id="linearGradient1347"
       xlink:href="#linearGradient927" />
    <filter
       height="1.0304863"
       y="-0.015243137"
       width="1.0197896"
       x="-0.0098947817"
       id="filter1379"
       style="color-interpolation-filters:sRGB">
      <feGaussianBlur
         id="feGaussianBlur1381"
         stdDeviation="0.9400002" />
    </filter>
    <clipPath
       id="clipPath1463"
       clipPathUnits="userSpaceOnUse">
      <path
         id="path1465"
         d="m 271.99897,211.00107 c 0,25.00001 -9.78264,24.70848 -35,25.00001 H 66.99995 c -25.21735,-0.29153 -35,0 -35,-25.00001 V 101.00003 c 0,-25.000009 9.78265,-24.708474 35,-25.000009 h 169.99902 c 25.21736,0.291535 35,0 35,25.000009 z"
         style="color:#000000;display:inline;overflow:visible;visibility:visible;opacity:1;fill:#808080;fill-opacity:1;fill-rule:nonzero;stroke:none;stroke-width:4;stroke-linecap:butt;stroke-linejoin:miter;stroke-miterlimit:4;stroke-dasharray:none;stroke-dashoffset:0;stroke-opacity:1;marker:none;enable-background:accumulate" />
    </clipPath>
    <filter
       height="1.0299999"
       y="-0.014999904"
       width="1.0200001"
       x="-0.010000043"
       id="filter932"
       style="color-interpolation-filters:sRGB">
      <feGaussianBlur
         id="feGaussianBlur934"
         stdDeviation="1.0000002" />
    </filter>
    <filter
       height="1.0599996"
       y="-0.029999807"
       width="1.0400002"
       x="-0.020000085"
       id="filter938"
       style="color-interpolation-filters:sRGB">
      <feGaussianBlur
         id="feGaussianBlur940"
         stdDeviation="2.0000004" />
    </filter>
    <clipPath
       id="clipPath1082-3"
       clipPathUnits="userSpaceOnUse">
      <path
         style="display:inline;opacity:1;fill:#8c59d9;fill-opacity:1;stroke:none;stroke-width:2;stroke-linecap:round;stroke-linejoin:round;stroke-miterlimit:4;stroke-dasharray:none;stroke-dashoffset:0;stroke-opacity:1;enable-background:new"
         d="M 361.9375,-212 C 507.2348,-212 528,-191.28677 528,-46.125 V 70.125 C 528,215.28618 507.2348,236 361.9375,236 H 214.0625 C 68.7652,236 48,215.28618 48,70.125 V -46.125 C 48,-191.28677 68.7652,-212 214.0625,-212 Z"
         id="path1084-6" />
    </clipPath>
    <linearGradient
       y2="228"
       x2="152"
       y1="76"
       x1="152"
       gradientUnits="userSpaceOnUse"
       id="linearGradient962"
       xlink:href="#linearGradient1013-6" />
    <linearGradient
       id="linearGradient1013-6">
      <stop
         style="stop-color:#ffffff;stop-opacity:1;"
         offset="0"
         id="stop1005-7" />
      <stop
         id="stop1007-5"
         offset="0.125"
         style="stop-color:#ffffff;stop-opacity:0.09803922" />
      <stop
         id="stop1009-3"
         offset="0.92500001"
         style="stop-color:#000000;stop-opacity:0.09803922" />
      <stop
         style="stop-color:#000000;stop-opacity:0.49803922"
         offset="1"
         id="stop1011" />
    </linearGradient>
    <clipPath
       id="clipPath1082-3-5"
       clipPathUnits="userSpaceOnUse">
      <path
         style="display:inline;opacity:1;fill:#8c59d9;fill-opacity:1;stroke:none;stroke-width:2;stroke-linecap:round;stroke-linejoin:round;stroke-miterlimit:4;stroke-dasharray:none;stroke-dashoffset:0;stroke-opacity:1;enable-background:new"
         d="M 361.9375,-212 C 507.2348,-212 528,-191.28677 528,-46.125 V 70.125 C 528,215.28618 507.2348,236 361.9375,236 H 214.0625 C 68.7652,236 48,215.28618 48,70.125 V -46.125 C 48,-191.28677 68.7652,-212 214.0625,-212 Z"
         id="path1084-6-6" />
    </clipPath>
    <clipPath
       id="clipPath1082-3-1"
       clipPathUnits="userSpaceOnUse">
      <path
         style="display:inline;opacity:1;fill:#8c59d9;fill-opacity:1;stroke:none;stroke-width:2;stroke-linecap:round;stroke-linejoin:round;stroke-miterlimit:4;stroke-dasharray:none;stroke-dashoffset:0;stroke-opacity:1;enable-background:new"
         d="M 361.9375,-212 C 507.2348,-212 528,-191.28677 528,-46.125 V 70.125 C 528,215.28618 507.2348,236 361.9375,236 H 214.0625 C 68.7652,236 48,215.28618 48,70.125 V -46.125 C 48,-191.28677 68.7652,-212 214.0625,-212 Z"
         id="path1084-6-2" />
    </clipPath>
    <filter
       height="1.0325714"
       y="-0.016285714"
       width="1.0190001"
       x="-0.0094999997"
       id="filter991"
       style="color-interpolation-filters:sRGB">
      <feGaussianBlur
         id="feGaussianBlur993"
         stdDeviation="0.76" />
    </filter>
    <filter
       height="1.0651429"
       y="-0.032571428"
       width="1.038"
       x="-0.018999999"
       id="filter997"
       style="color-interpolation-filters:sRGB">
      <feGaussianBlur
         id="feGaussianBlur999"
         stdDeviation="1.52" />
    </filter>
  </defs>
  <metadata
     id="metadata4">
    <rdf:RDF>
      <cc:Work
         rdf:about="">
        <dc:format>image/svg+xml</dc:format>
        <dc:type
           rdf:resource="http://purl.org/dc/dcmitype/StillImage" />
        <dc:creator>
          <cc:Agent>
            <dc:title>Sam Hewitt</dc:title>
          </cc:Agent>
        </dc:creator>
        <dc:source />
        <cc:license
           rdf:resource="http://creativecommons.org/licenses/by-sa/4.0/" />
        <dc:title>Suru Icon Theme Template</dc:title>
        <dc:subject>
          <rdf:Bag />
        </dc:subject>
        <dc:date />
        <dc:rights>
          <cc:Agent>
            <dc:title />
          </cc:Agent>
        </dc:rights>
        <dc:publisher>
          <cc:Agent>
            <dc:title />
          </cc:Agent>
        </dc:publisher>
        <dc:identifier />
        <dc:relation />
        <dc:language />
        <dc:coverage />
        <dc:description />
        <dc:contributor>
          <cc:Agent>
            <dc:title />
          </cc:Agent>
        </dc:contributor>
      </cc:Work>
      <cc:Work
         rdf:about="">
        <dc:format>image/svg+xml</dc:format>
        <dc:type
           rdf:resource="http://purl.org/dc/dcmitype/StillImage" />
      </cc:Work>
      <cc:License
         rdf:about="http://creativecommons.org/licenses/by-sa/4.0/">
        <cc:permits
           rdf:resource="http://creativecommons.org/ns#Reproduction" />
        <cc:permits
           rdf:resource="http://creativecommons.org/ns#Distribution" />
        <cc:requires
           rdf:resource="http://creativecommons.org/ns#Notice" />
        <cc:requires
           rdf:resource="http://creativecommons.org/ns#Attribution" />
        <cc:permits
           rdf:resource="http://creativecommons.org/ns#DerivativeWorks" />
        <cc:requires
           rdf:resource="http://creativecommons.org/ns#ShareAlike" />
      </cc:License>
    </rdf:RDF>
  </metadata>
  <g
     transform="translate(-24,-28)"
     id="layer1"
     style="display:inline">
    <g
       id="layer7"
       style="display:none">
      <text
         id="context"
         style="font-style:normal;font-variant:normal;font-weight:normal;font-stretch:normal;line-height:0%;font-family:'DejaVu Sans';-inkscape-font-specification:'DejaVu Sans';display:inline;fill:#000000;fill-opacity:1;stroke:none;enable-background:new"
         x="19.006836"
         xml:space="preserve"
         y="-8.2548828"><tspan
           id="tspan3933"
           x="19.006836"
           y="-8.2548828"
           style="font-style:normal;font-variant:normal;font-weight:normal;font-stretch:normal;font-size:18px;line-height:1.25;font-family:'DejaVu Sans';-inkscape-font-specification:'DejaVu Sans'">devices</tspan></text>
      <text
         id="icon-name"
         style="font-style:normal;font-variant:normal;font-weight:bold;font-stretch:normal;line-height:0%;font-family:'DejaVu Sans';-inkscape-font-specification:'DejaVu Sans Bold';text-align:start;writing-mode:lr-tb;text-anchor:start;display:inline;fill:#000000;fill-opacity:1;stroke:none;enable-background:new"
         x="146.48828"
         xml:space="preserve"
         y="-8.2548828"><tspan
           id="tspan924"
           x="146.48828"
           y="-8.2548828"
           style="font-style:normal;font-variant:normal;font-weight:bold;font-stretch:normal;font-size:18px;line-height:1.25;font-family:'DejaVu Sans';-inkscape-font-specification:'DejaVu Sans Bold'">input-keyboard</tspan></text>
      <rect
         y="236"
         x="320"
         height="16"
         width="16"
         id="rect16x16"
         style="display:inline;overflow:visible;visibility:visible;fill:#cdcdcd;fill-opacity:1;fill-rule:nonzero;stroke:none;stroke-width:2;marker:none;enable-background:accumulate" />
      <rect
         y="188"
         x="320"
         height="24"
         width="24"
         id="rect24x24"
         style="display:inline;overflow:visible;visibility:visible;fill:#cdcdcd;fill-opacity:1;fill-rule:nonzero;stroke:none;stroke-width:2;marker:none;enable-background:accumulate" />
      <rect
         y="132"
         x="320"
         height="32"
         width="32"
         id="rect32x32"
         style="display:inline;overflow:visible;visibility:visible;fill:#cdcdcd;fill-opacity:1;fill-rule:nonzero;stroke:none;stroke-width:2;marker:none;enable-background:accumulate" />
      <rect
         style="display:inline;overflow:visible;visibility:visible;fill:#cdcdcd;fill-opacity:1;fill-rule:nonzero;stroke:none;stroke-width:2;marker:none;enable-background:accumulate"
         id="rect48x48"
         width="48"
         height="48"
         x="320"
         y="60" />
      <rect
         y="28"
         x="24"
         height="256"
         width="256"
         id="rect3951"
         style="display:inline;overflow:visible;visibility:visible;fill:#cdcdcd;fill-opacity:1;fill-rule:nonzero;stroke:none;stroke-width:2;marker:none;enable-background:accumulate" />
    </g>
    <g
       style="display:inline"
       id="layer2">
      <path
         id="path936"
         d="m 271.99897,213.00107 c 0,25.00001 -9.78264,24.70848 -35,25.00001 H 66.99995 c -25.21735,-0.29153 -35,0 -35,-25.00001 V 103.00003 c 0,-25.000009 9.78265,-24.708474 35,-25.000009 h 169.99902 c 25.21736,0.291535 35,0 35,25.000009 z"
         style="color:#000000;display:inline;overflow:visible;visibility:visible;opacity:0.2;fill:#000000;fill-opacity:1;fill-rule:nonzero;stroke:none;stroke-width:4;stroke-linecap:butt;stroke-linejoin:miter;stroke-miterlimit:4;stroke-dasharray:none;stroke-dashoffset:0;stroke-opacity:1;marker:none;filter:url(#filter938);enable-background:accumulate" />
      <path
         style="color:#000000;display:inline;overflow:visible;visibility:visible;opacity:0.1;fill:#000000;fill-opacity:1;fill-rule:nonzero;stroke:none;stroke-width:4;stroke-linecap:butt;stroke-linejoin:miter;stroke-miterlimit:4;stroke-dasharray:none;stroke-dashoffset:0;stroke-opacity:1;marker:none;filter:url(#filter932);enable-background:accumulate"
         d="m 271.99897,211.00107 c 0,25.00001 -9.78264,24.70848 -35,25.00001 H 66.99995 c -25.21735,-0.29153 -35,0 -35,-25.00001 V 101.00003 c 0,-25.000009 9.78265,-24.708474 35,-25.000009 h 169.99902 c 25.21736,0.291535 35,0 35,25.000009 z"
         id="path930" />
      <path
         style="color:#000000;display:inline;overflow:visible;visibility:visible;opacity:0.5;fill:#000000;fill-opacity:1;fill-rule:nonzero;stroke:url(#linearGradient1347);stroke-width:4;stroke-linecap:butt;stroke-linejoin:miter;stroke-miterlimit:4;stroke-dasharray:none;stroke-dashoffset:0;stroke-opacity:1;marker:none;filter:url(#filter1379);enable-background:accumulate"
         d="m 271.99897,211.00107 c 0,25.00001 -9.78264,24.70848 -35,25.00001 H 66.99995 c -25.21735,-0.29153 -35,0 -35,-25.00001 V 101.00003 c 0,-25.000009 9.78265,-24.708474 35,-25.000009 h 169.99902 c 25.21736,0.291535 35,0 35,25.000009 z"
         id="path1365"
         clip-path="url(#clipPath1337)" />
      <path
         style="color:#000000;display:inline;overflow:visible;visibility:visible;opacity:0.2;fill:none;fill-opacity:1;fill-rule:nonzero;stroke:#000000;stroke-width:1.00000012;stroke-linecap:butt;stroke-linejoin:miter;stroke-miterlimit:4;stroke-dasharray:none;stroke-dashoffset:0;stroke-opacity:1;marker:none;enable-background:accumulate"
         d="m 341.5,205.00011 c 0,2.5 -0.97827,2.47085 -3.5,2.5 h -12 c -2.52174,-0.0292 -3.5,0 -3.5,-2.5 v -8.0001 c 0,-2.5 0.97826,-2.47085 3.5,-2.5 h 12 c 2.52173,0.0291 3.5,0 3.5,2.5 z"
         id="path1225" />
      <path
         style="color:#000000;display:inline;overflow:visible;visibility:visible;opacity:1;fill:url(#linearGradient1223);fill-opacity:1;fill-rule:nonzero;stroke:none;stroke-width:1.00000012;stroke-linecap:butt;stroke-linejoin:miter;stroke-miterlimit:4;stroke-dasharray:none;stroke-dashoffset:0;stroke-opacity:1;marker:none;enable-background:accumulate"
         d="m 341.5,204.00011 c 0,2.5 -0.97827,2.47085 -3.5,2.5 h -12 c -2.52174,-0.0292 -3.5,0 -3.5,-2.5 v -8.0001 c 0,-2.5 0.97826,-2.47085 3.5,-2.5 h 12 c 2.52173,0.0291 3.5,0 3.5,2.5 z"
         id="path1215" />
      <path
         id="path1134"
         d="m 334.5,246.99997 c 0,2.50003 -0.97828,2.47087 -3.50003,2.50003 h -6.99994 c -2.52176,-0.0291 -3.50003,0 -3.50003,-2.50003 v -5.00013 c 0,-2.50002 0.97827,-2.47087 3.50003,-2.50002 h 6.99994 c 2.52175,0.0291 3.50003,0 3.50003,2.50002 z"
         style="color:#000000;display:inline;overflow:visible;visibility:visible;opacity:0.2;fill:none;fill-opacity:1;fill-rule:nonzero;stroke:#000000;stroke-width:1.00000668;stroke-linecap:butt;stroke-linejoin:miter;stroke-miterlimit:4;stroke-dasharray:none;stroke-dashoffset:0;stroke-opacity:1;marker:none;enable-background:accumulate" />
      <path
         id="path1097"
         d="m 334.5,245.99997 c 0,2.50003 -0.97828,2.47087 -3.50003,2.50003 h -6.99994 c -2.52176,-0.0291 -3.50003,0 -3.50003,-2.50003 v -5.00013 c 0,-2.50002 0.97827,-2.47087 3.50003,-2.50002 h 6.99994 c 2.52175,0.0291 3.50003,0 3.50003,2.50002 z"
         style="color:#000000;display:inline;overflow:visible;visibility:visible;opacity:1;fill:url(#linearGradient1178);fill-opacity:1;fill-rule:nonzero;stroke:none;stroke-width:1.00000668;stroke-linecap:butt;stroke-linejoin:miter;stroke-miterlimit:4;stroke-dasharray:none;stroke-dashoffset:0;stroke-opacity:1;marker:none;enable-background:accumulate" />
      <path
         id="path922"
         d="m 365.9998,94.00023 c 0,5 -1.95653,4.94169 -7,5 H 329 c -5.04347,-0.0583 -7,0 -7,-5 V 76.000018 c 0,-5.000001 1.95653,-4.941694 7,-5.000001 h 29.9998 c 5.04347,0.05831 7,0 7,5.000001 z"
         style="color:#000000;display:inline;overflow:visible;visibility:visible;opacity:0.2;fill:none;fill-opacity:1;fill-rule:nonzero;stroke:#000000;stroke-width:2;stroke-linecap:butt;stroke-linejoin:miter;stroke-miterlimit:4;stroke-dasharray:none;stroke-dashoffset:0;stroke-opacity:1;marker:none;enable-background:accumulate" />
      <path
         id="path881"
         d="m 341.5,204.00011 c 0,2.5 -0.97827,2.47085 -3.5,2.5 h -12 c -2.52174,-0.0292 -3.5,0 -3.5,-2.5 v -8.0001 c 0,-2.5 0.97826,-2.47085 3.5,-2.5 h 12 c 2.52173,0.0291 3.5,0 3.5,2.5 z"
         style="color:#000000;display:inline;overflow:visible;visibility:visible;opacity:0.3;fill:none;fill-opacity:1;fill-rule:nonzero;stroke:#000000;stroke-width:1.00000012;stroke-linecap:butt;stroke-linejoin:miter;stroke-miterlimit:4;stroke-dasharray:none;stroke-dashoffset:0;stroke-opacity:1;marker:none;enable-background:accumulate" />
      <path
         id="path4297-3"
         d="m 350.9998,153.99999 c 0,5.00001 -1.95653,4.9417 -7,5.00001 H 328 c -5.04347,-0.0583 -7,0 -7,-5.00001 v -11.0002 c 0,-5.00001 1.95653,-4.9417 7,-5.00001 h 15.9998 c 5.04347,0.0583 7,0 7,5.00001 z"
         style="color:#000000;display:inline;overflow:visible;visibility:visible;opacity:0.2;fill:none;fill-opacity:1;fill-rule:nonzero;stroke:#000000;stroke-width:2;stroke-linecap:butt;stroke-linejoin:miter;stroke-miterlimit:4;stroke-dasharray:none;stroke-dashoffset:0;stroke-opacity:1;marker:none;enable-background:accumulate" />
      <path
         style="color:#000000;display:inline;overflow:visible;visibility:visible;opacity:0.3;fill:none;fill-opacity:1;fill-rule:nonzero;stroke:#000000;stroke-width:1.00000668;stroke-linecap:butt;stroke-linejoin:miter;stroke-miterlimit:4;stroke-dasharray:none;stroke-dashoffset:0;stroke-opacity:1;marker:none;enable-background:accumulate"
         d="m 334.5,245.99997 c 0,2.50003 -0.97828,2.47087 -3.50003,2.50003 h -6.99994 c -2.52176,-0.0291 -3.50003,0 -3.50003,-2.50003 v -5.00013 c 0,-2.50002 0.97827,-2.47087 3.50003,-2.50002 h 6.99994 c 2.52175,0.0291 3.50003,0 3.50003,2.50002 z"
         id="path1010" />
      <path
         id="path865"
         d="m 328.99414,98.5 c -2.51906,-0.02912 -4.31442,0.01519 -5.62695,-0.708984 -0.65627,-0.36209 -1.15539,-0.944473 -1.45117,-1.732422 C 321.62024,95.270645 321.5,94.282609 321.5,93 V 75 c 0,-1.282609 0.12024,-2.270644 0.41602,-3.058594 0.29578,-0.787949 0.7949,-1.370332 1.45117,-1.732422 1.31253,-0.724179 3.10789,-0.679865 5.62695,-0.708984 h 0.004 30.0039 0.004 c 2.51906,0.02912 4.31442,-0.01519 5.62695,0.708984 0.65627,0.362089 1.15539,0.944474 1.45117,1.732422 C 366.37958,72.729355 366.5,73.717391 366.5,75 v 18 c 0,1.282609 -0.12024,2.270645 -0.41602,3.058594 -0.29578,0.787949 -0.7949,1.370333 -1.45117,1.732422 -1.31253,0.724178 -3.10789,0.67986 -5.62695,0.708984 h -0.004 -30.0039 z"
         style="color:#000000;display:inline;overflow:visible;visibility:visible;opacity:1;fill:url(#linearGradient1050);fill-opacity:1;fill-rule:nonzero;stroke:none;stroke-width:2;stroke-linecap:butt;stroke-linejoin:miter;stroke-miterlimit:4;stroke-dasharray:none;stroke-dashoffset:0;stroke-opacity:1;marker:none;enable-background:accumulate" />
      <path
         id="path882"
         d="m 327.99414,136.5 c -2.51906,0.0291 -4.31442,-0.0152 -5.62695,0.70898 -0.65627,0.36209 -1.15539,0.94448 -1.45117,1.73243 C 320.62024,139.72936 320.5,140.71739 320.5,142 v 11 c 0,1.28261 0.12024,2.27064 0.41602,3.05859 0.29578,0.78795 0.7949,1.37034 1.45117,1.73243 1.31253,0.72418 3.10789,0.67986 5.62695,0.70898 h 0.004 16.0039 0.004 c 2.51906,-0.0291 4.31442,0.0152 5.62695,-0.70898 0.65627,-0.36209 1.15539,-0.94448 1.45117,-1.73243 C 351.37958,155.27064 351.5,154.28261 351.5,153 v -11 c 0,-1.28261 -0.12024,-2.27064 -0.41602,-3.05859 -0.29578,-0.78795 -0.7949,-1.37034 -1.45117,-1.73243 -1.31253,-0.72418 -3.10789,-0.67986 -5.62695,-0.70898 h -0.004 -16.0039 z"
         style="color:#000000;display:inline;overflow:visible;visibility:visible;opacity:1;fill:url(#linearGradient1093);fill-opacity:1;fill-rule:nonzero;stroke:none;stroke-width:2;stroke-linecap:butt;stroke-linejoin:miter;stroke-miterlimit:4;stroke-dasharray:none;stroke-dashoffset:0;stroke-opacity:1;marker:none;enable-background:accumulate" />
      <path
         clip-path="url(#clipPath892)"
         id="path888"
         d="m 365.9998,93.00023 c 0,5 -1.95653,4.94169 -7,5 H 329 c -5.04347,-0.0583 -7,0 -7,-5 V 75.000018 c 0,-5.000001 1.95653,-4.941694 7,-5.000001 h 29.9998 c 5.04347,0.05831 7,0 7,5.000001 z"
         style="color:#000000;display:inline;overflow:visible;visibility:visible;opacity:0.5;fill:none;fill-opacity:1;fill-rule:nonzero;stroke:url(#linearGradient920);stroke-width:2;stroke-linecap:butt;stroke-linejoin:miter;stroke-miterlimit:4;stroke-dasharray:none;stroke-dashoffset:0;stroke-opacity:1;marker:none;enable-background:accumulate" />
      <path
         style="color:#000000;display:inline;overflow:visible;visibility:visible;opacity:0.3;fill:none;fill-opacity:1;fill-rule:nonzero;stroke:#000000;stroke-width:1;stroke-linecap:butt;stroke-linejoin:miter;stroke-miterlimit:4;stroke-dasharray:none;stroke-dashoffset:0;stroke-opacity:1;marker:none;enable-background:accumulate"
         d="m 328.99414,69.5 c -2.51906,0.02912 -4.31442,-0.01519 -5.62695,0.708984 -0.65627,0.36209 -1.15539,0.944473 -1.45117,1.732422 C 321.62024,72.729355 321.5,73.717391 321.5,75 v 18 c 0,1.282609 0.12024,2.270644 0.41602,3.058594 0.29578,0.787949 0.7949,1.370332 1.45117,1.732422 1.31253,0.724179 3.10789,0.679865 5.62695,0.708984 h 0.004 30.0039 0.004 c 2.51906,-0.02912 4.31442,0.01519 5.62695,-0.708984 0.65627,-0.362089 1.15539,-0.944474 1.45117,-1.732422 C 366.37958,95.270645 366.5,94.282609 366.5,93 V 75 c 0,-1.282609 -0.12024,-2.270645 -0.41602,-3.058594 -0.29578,-0.787949 -0.7949,-1.370333 -1.45117,-1.732422 -1.31253,-0.724178 -3.10789,-0.67986 -5.62695,-0.708984 h -0.004 -30.0039 z"
         id="path1057" />
      <path
         style="color:#000000;display:inline;overflow:visible;visibility:visible;opacity:0.3;fill:none;fill-opacity:1;fill-rule:nonzero;stroke:#000000;stroke-width:1;stroke-linecap:butt;stroke-linejoin:miter;stroke-miterlimit:4;stroke-dasharray:none;stroke-dashoffset:0;stroke-opacity:1;marker:none;enable-background:accumulate"
         d="m 327.99414,136.5 c -2.51906,0.0291 -4.31442,-0.0152 -5.62695,0.70898 -0.65627,0.36209 -1.15539,0.94448 -1.45117,1.73243 C 320.62024,139.72936 320.5,140.71739 320.5,142 v 11 c 0,1.28261 0.12024,2.27064 0.41602,3.05859 0.29578,0.78795 0.7949,1.37034 1.45117,1.73243 1.31253,0.72418 3.10789,0.67986 5.62695,0.70898 h 0.004 16.0039 0.004 c 2.51906,-0.0291 4.31442,0.0152 5.62695,-0.70898 0.65627,-0.36209 1.15539,-0.94448 1.45117,-1.73243 C 351.37958,155.27064 351.5,154.28261 351.5,153 v -11 c 0,-1.28261 -0.12024,-2.27064 -0.41602,-3.05859 -0.29578,-0.78795 -0.7949,-1.37034 -1.45117,-1.73243 -1.31253,-0.72418 -3.10789,-0.67986 -5.62695,-0.70898 h -0.004 -16.0039 z"
         id="path1064" />
      <path
         clip-path="url(#clipPath1070)"
         id="path1068"
         d="m 350.9998,152.99999 c 0,5.00001 -1.95653,4.9417 -7,5.00001 H 328 c -5.04347,-0.0583 -7,0 -7,-5.00001 v -11.0002 c 0,-5.00001 1.95653,-4.9417 7,-5.00001 h 15.9998 c 5.04347,0.0583 7,0 7,5.00001 z"
         style="color:#000000;display:inline;overflow:visible;visibility:visible;opacity:0.2;fill:none;fill-opacity:1;fill-rule:nonzero;stroke:url(#linearGradient1080);stroke-width:2;stroke-linecap:butt;stroke-linejoin:miter;stroke-miterlimit:4;stroke-dasharray:none;stroke-dashoffset:0;stroke-opacity:1;marker:none;enable-background:accumulate" />
      <path
         clip-path="url(#clipPath1193)"
         style="color:#000000;display:inline;overflow:visible;visibility:visible;opacity:0.5;fill:none;fill-opacity:1;fill-rule:nonzero;stroke:url(#linearGradient1205);stroke-width:2;stroke-linecap:butt;stroke-linejoin:miter;stroke-miterlimit:4;stroke-dasharray:none;stroke-dashoffset:0;stroke-opacity:1;marker:none;enable-background:accumulate"
         d="m 324,239 c -1.25854,0.0147 -2.08718,0.0598 -2.45312,0.26172 -0.18343,0.10119 -0.28912,0.21275 -0.38672,0.47266 C 321.0626,239.99428 321,240.4076 321,241 v 5 c 0,0.5924 0.0626,1.00571 0.16016,1.26562 0.0976,0.25992 0.20329,0.37146 0.38672,0.47266 0.36594,0.20192 1.19459,0.24702 2.45312,0.26172 h 0.006 6.994 c 1.25853,-0.0147 2.08718,-0.0598 2.45312,-0.26172 0.18343,-0.10119 0.28912,-0.21275 0.38672,-0.47266 C 333.9374,247.00572 334,246.5924 334,246 v -5 c 0,-0.5924 -0.0627,-1.00571 -0.16016,-1.26562 -0.0976,-0.25992 -0.20329,-0.37146 -0.38672,-0.47266 C 333.08718,239.0598 332.25853,239.0147 331,239 Z"
         id="path1191" />
      <path
         clip-path="url(#clipPath1238)"
         style="color:#000000;display:inline;overflow:visible;visibility:visible;opacity:0.5;fill:none;fill-opacity:1;fill-rule:nonzero;stroke:url(#linearGradient1250);stroke-width:2;stroke-linecap:butt;stroke-linejoin:miter;stroke-miterlimit:4;stroke-dasharray:none;stroke-dashoffset:0;stroke-opacity:1;marker:none;enable-background:accumulate"
         d="m 326,194 c -1.25853,0.0147 -2.08912,0.0598 -2.45508,0.26172 -0.18341,0.10119 -0.28716,0.21275 -0.38476,0.47266 C 323.0626,194.99427 323,195.40761 323,196 v 8 c 0,0.59239 0.0626,1.00572 0.16016,1.26562 0.0976,0.25992 0.20135,0.37147 0.38476,0.47266 C 323.91088,205.9402 324.74147,205.9853 326,206 H 326.006 338 c 1.25852,-0.0147 2.08912,-0.0598 2.45508,-0.26172 0.18341,-0.10119 0.28716,-0.21275 0.38476,-0.47266 C 340.9374,205.00573 341,204.59239 341,204 v -8 c 0,-0.59239 -0.0627,-1.00571 -0.16016,-1.26562 -0.0976,-0.25992 -0.20331,-0.37146 -0.38672,-0.47266 C 340.08718,194.0598 339.25852,194.0147 338,194 Z"
         id="path1236" />
      <path
         id="path1323"
         d="m 271.99897,211.00107 c 0,25.00001 -9.78264,24.70848 -35,25.00001 H 66.99995 c -25.21735,-0.29153 -35,0 -35,-25.00001 V 101.00003 c 0,-25.000009 9.78265,-24.708474 35,-25.000009 h 169.99902 c 25.21736,0.291535 35,0 35,25.000009 z"
         style="color:#000000;display:inline;overflow:visible;visibility:visible;opacity:1;fill:url(#linearGradient1331);fill-opacity:1;fill-rule:nonzero;stroke:none;stroke-width:4;stroke-linecap:butt;stroke-linejoin:miter;stroke-miterlimit:4;stroke-dasharray:none;stroke-dashoffset:0;stroke-opacity:1;marker:none;enable-background:accumulate" />
      <path
         clip-path="url(#clipPath1463)"
         id="path1333"
         d="m 271.99897,211.00107 c 0,25.00001 -9.78264,24.70848 -35,25.00001 H 66.99995 c -25.21735,-0.29153 -35,0 -35,-25.00001 V 101.00003 c 0,-25.000009 9.78265,-24.708474 35,-25.000009 h 169.99902 c 25.21736,0.291535 35,0 35,25.000009 z"
         style="color:#000000;display:inline;overflow:visible;visibility:visible;opacity:0.3;fill:none;fill-opacity:1;fill-rule:nonzero;stroke:url(#linearGradient962);stroke-width:4;stroke-linecap:butt;stroke-linejoin:miter;stroke-miterlimit:4;stroke-dasharray:none;stroke-dashoffset:0;stroke-opacity:1;marker:none;enable-background:accumulate" />
    </g>
    <g
       style="display:inline"
       id="layer6">
      <path
         id="path1254"
         d="m 325,196 v 2 h 2 v -2 z m 3,0 v 2 h 2 v -2 z m 3,0 v 2 h 2 v -2 z m 3,0 v 2 h 2 v -2 z m 3,0 v 2 h 2 v -2 z m -10,3 v 2 h 2 v -2 z m 3,0 v 2 h 2 v -2 z m 3,0 v 2 h 2 v -2 z m 3,0 v 2 h 2 v -2 z m -11,3 v 2 h 2 v -2 z m 3,0 v 2 h 8 v -2 z m 9,0 v 2 h 2 v -2 z"
         style="font-style:normal;font-variant:normal;font-weight:normal;font-stretch:normal;font-size:15px;line-height:125%;font-family:Ubuntu;-inkscape-font-specification:Ubuntu;text-align:center;letter-spacing:0px;word-spacing:0px;writing-mode:lr-tb;text-anchor:middle;display:inline;opacity:0.05;fill:#000000;fill-opacity:1;stroke:#000000;stroke-width:2;stroke-linejoin:round;stroke-miterlimit:4;stroke-dasharray:none;stroke-opacity:1;enable-background:new" />
      <path
         style="font-style:normal;font-variant:normal;font-weight:normal;font-stretch:normal;font-size:15px;line-height:125%;font-family:Ubuntu;-inkscape-font-specification:Ubuntu;text-align:center;letter-spacing:0px;word-spacing:0px;writing-mode:lr-tb;text-anchor:middle;display:inline;opacity:0.25;fill:#000000;fill-opacity:1;stroke:none;stroke-width:0.24995056;enable-background:new"
         d="m 325,197 v 2 h 2 v -2 z m 3,0 v 2 h 2 v -2 z m 3,0 v 2 h 2 v -2 z m 3,0 v 2 h 2 v -2 z m 3,0 v 2 h 2 v -2 z m -10,3 v 2 h 2 v -2 z m 3,0 v 2 h 2 v -2 z m 3,0 v 2 h 2 v -2 z m 3,0 v 2 h 2 v -2 z m -11,3 v 2 h 2 v -2 z m 3,0 v 2 h 8 v -2 z m 9,0 v 2 h 2 v -2 z"
         id="path1252" />
      <path
         id="path877"
         d="m 325,196 v 2 h 2 v -2 z m 3,0 v 2 h 2 v -2 z m 3,0 v 2 h 2 v -2 z m 3,0 v 2 h 2 v -2 z m 3,0 v 2 h 2 v -2 z m -10,3 v 2 h 2 v -2 z m 3,0 v 2 h 2 v -2 z m 3,0 v 2 h 2 v -2 z m 3,0 v 2 h 2 v -2 z m -11,3 v 2 h 2 v -2 z m 3,0 v 2 h 8 v -2 z m 9,0 v 2 h 2 v -2 z"
         style="font-style:normal;font-variant:normal;font-weight:normal;font-stretch:normal;font-size:15px;line-height:125%;font-family:Ubuntu;-inkscape-font-specification:Ubuntu;text-align:center;letter-spacing:0px;word-spacing:0px;writing-mode:lr-tb;text-anchor:middle;display:inline;fill:#f7f7f7;fill-opacity:1;stroke:none;stroke-width:0.24995056;enable-background:new" />
      <path
         id="path886"
         d="m 328,75 v 4 h 4 v -4 z m 7,0 v 4 h 4 v -4 z m 7,0 v 4 h 4 v -4 z m 7,0 v 4 h 4 v -4 z m 7,0 v 4 h 4 v -4 z m -25,7 v 4 h 4 v -4 z m 7,0 v 4 h 4 v -4 z m 7,0 v 4 h 4 v -4 z m 7,0 v 4 h 4 v -4 z m -24,7 v 4 h 4 v -4 z m 7,0 v 4 h 18 v -4 z m 21,0 v 4 h 4 v -4 z"
         style="font-style:normal;font-variant:normal;font-weight:normal;font-stretch:normal;font-size:15px;line-height:125%;font-family:Ubuntu;-inkscape-font-specification:Ubuntu;text-align:center;letter-spacing:0px;word-spacing:0px;writing-mode:lr-tb;text-anchor:middle;display:inline;opacity:0.05;fill:#000000;fill-opacity:1;stroke:#000000;stroke-width:2;stroke-linejoin:round;stroke-miterlimit:4;stroke-dasharray:none;stroke-opacity:1;enable-background:new" />
      <path
         style="font-style:normal;font-variant:normal;font-weight:normal;font-stretch:normal;font-size:15px;line-height:125%;font-family:Ubuntu;-inkscape-font-specification:Ubuntu;text-align:center;letter-spacing:0px;word-spacing:0px;writing-mode:lr-tb;text-anchor:middle;display:inline;opacity:0.25;fill:#000000;fill-opacity:1;stroke:none;stroke-width:0.49990109;enable-background:new"
         d="m 328,76 v 4 h 4 v -4 z m 7,0 v 4 h 4 v -4 z m 7,0 v 4 h 4 v -4 z m 7,0 v 4 h 4 v -4 z m 7,0 v 4 h 4 v -4 z m -25,7 v 4 h 4 v -4 z m 7,0 v 4 h 4 v -4 z m 7,0 v 4 h 4 v -4 z m 7,0 v 4 h 4 v -4 z m -24,7 v 4 h 4 v -4 z m 7,0 v 4 h 18 v -4 z m 21,0 v 4 h 4 v -4 z"
         id="path884" />
      <path
         id="path4321"
         d="m 328,75 v 4 h 4 v -4 z m 7,0 v 4 h 4 v -4 z m 7,0 v 4 h 4 v -4 z m 7,0 v 4 h 4 v -4 z m 7,0 v 4 h 4 v -4 z m -25,7 v 4 h 4 v -4 z m 7,0 v 4 h 4 v -4 z m 7,0 v 4 h 4 v -4 z m 7,0 v 4 h 4 v -4 z m -24,7 v 4 h 4 v -4 z m 7,0 v 4 h 18 v -4 z m 21,0 v 4 h 4 v -4 z"
         style="font-style:normal;font-variant:normal;font-weight:normal;font-stretch:normal;font-size:15px;line-height:125%;font-family:Ubuntu;-inkscape-font-specification:Ubuntu;text-align:center;letter-spacing:0px;word-spacing:0px;writing-mode:lr-tb;text-anchor:middle;display:inline;opacity:1;fill:#f7f7f7;fill-opacity:1;stroke:none;stroke-width:0.49990109;enable-background:new" />
      <path
         id="path1085"
         d="m 324,141 v 3 h 3 v -3 z m 5,0 v 3 h 3 v -3 z m 5,0 v 3 h 3 v -3 z m 5,0 v 3 h 3 v -3 z m 4.9649,0 v 3 h 3 v -3 z m -17.00598,5 0.012,3 h 2.99387 v -3 z m 5.00587,0 v 3 h 3 v -3 z m 5,0 v 3 h 3 v -3 z m 5,0 v 3 h 3 v -3 z m -17,5 v 3 h 3 v -3 z m 5,0 v 3 h 13 v -3 z m 14.9649,0 0.0351,3 h 2.98242 l -0.0351,-3 z"
         style="color:#000000;font-style:normal;font-variant:normal;font-weight:normal;font-stretch:normal;font-size:medium;line-height:normal;font-family:sans-serif;font-variant-ligatures:normal;font-variant-position:normal;font-variant-caps:normal;font-variant-numeric:normal;font-variant-alternates:normal;font-feature-settings:normal;text-indent:0;text-align:start;text-decoration:none;text-decoration-line:none;text-decoration-style:solid;text-decoration-color:#000000;letter-spacing:normal;word-spacing:normal;text-transform:none;writing-mode:lr-tb;direction:ltr;text-orientation:mixed;dominant-baseline:auto;baseline-shift:baseline;text-anchor:start;white-space:normal;shape-padding:0;clip-rule:nonzero;display:inline;overflow:visible;visibility:visible;opacity:0.05;isolation:auto;mix-blend-mode:normal;color-interpolation:sRGB;color-interpolation-filters:linearRGB;solid-color:#000000;solid-opacity:1;vector-effect:none;fill:#000000;fill-opacity:1;fill-rule:evenodd;stroke:#000000;stroke-width:2;stroke-linecap:butt;stroke-linejoin:round;stroke-miterlimit:4;stroke-dasharray:none;stroke-dashoffset:0;stroke-opacity:1;color-rendering:auto;image-rendering:auto;shape-rendering:auto;text-rendering:auto;enable-background:accumulate" />
      <path
         style="color:#000000;font-style:normal;font-variant:normal;font-weight:normal;font-stretch:normal;font-size:medium;line-height:normal;font-family:sans-serif;font-variant-ligatures:normal;font-variant-position:normal;font-variant-caps:normal;font-variant-numeric:normal;font-variant-alternates:normal;font-feature-settings:normal;text-indent:0;text-align:start;text-decoration:none;text-decoration-line:none;text-decoration-style:solid;text-decoration-color:#000000;letter-spacing:normal;word-spacing:normal;text-transform:none;writing-mode:lr-tb;direction:ltr;text-orientation:mixed;dominant-baseline:auto;baseline-shift:baseline;text-anchor:start;white-space:normal;shape-padding:0;clip-rule:nonzero;display:inline;overflow:visible;visibility:visible;opacity:0.25;isolation:auto;mix-blend-mode:normal;color-interpolation:sRGB;color-interpolation-filters:linearRGB;solid-color:#000000;solid-opacity:1;vector-effect:none;fill:#000000;fill-opacity:1;fill-rule:evenodd;stroke:none;stroke-width:3px;stroke-linecap:butt;stroke-linejoin:miter;stroke-miterlimit:4;stroke-dasharray:none;stroke-dashoffset:0;stroke-opacity:1;color-rendering:auto;image-rendering:auto;shape-rendering:auto;text-rendering:auto;enable-background:accumulate"
         d="m 324,142 v 3 h 3 v -3 z m 5,0 v 3 h 3 v -3 z m 5,0 v 3 h 3 v -3 z m 5,0 v 3 h 3 v -3 z m 4.9649,0 v 3 h 3 v -3 z m -17.00598,5 0.012,3 h 2.99387 v -3 z m 5.00587,0 v 3 h 3 v -3 z m 5,0 v 3 h 3 v -3 z m 5,0 v 3 h 3 v -3 z m -17,5 v 3 h 3 v -3 z m 5,0 v 3 h 13 v -3 z m 14.9649,0 0.0351,3 h 2.98242 l -0.0351,-3 z"
         id="path1082" />
      <path
         id="path939"
         d="m 324,141 v 3 h 3 v -3 z m 5,0 v 3 h 3 v -3 z m 5,0 v 3 h 3 v -3 z m 5,0 v 3 h 3 v -3 z m 4.9649,0 v 3 h 3 v -3 z m -17.00598,5 0.012,3 h 2.99387 v -3 z m 5.00587,0 v 3 h 3 v -3 z m 5,0 v 3 h 3 v -3 z m 5,0 v 3 h 3 v -3 z m -17,5 v 3 h 3 v -3 z m 5,0 v 3 h 13 v -3 z m 14.9649,0 0.0351,3 h 2.98242 l -0.0351,-3 z"
         style="color:#000000;font-style:normal;font-variant:normal;font-weight:normal;font-stretch:normal;font-size:medium;line-height:normal;font-family:sans-serif;font-variant-ligatures:normal;font-variant-position:normal;font-variant-caps:normal;font-variant-numeric:normal;font-variant-alternates:normal;font-feature-settings:normal;text-indent:0;text-align:start;text-decoration:none;text-decoration-line:none;text-decoration-style:solid;text-decoration-color:#000000;letter-spacing:normal;word-spacing:normal;text-transform:none;writing-mode:lr-tb;direction:ltr;text-orientation:mixed;dominant-baseline:auto;baseline-shift:baseline;text-anchor:start;white-space:normal;shape-padding:0;clip-rule:nonzero;display:inline;overflow:visible;visibility:visible;opacity:1;isolation:auto;mix-blend-mode:normal;color-interpolation:sRGB;color-interpolation-filters:linearRGB;solid-color:#000000;solid-opacity:1;vector-effect:none;fill:#f7f7f7;fill-opacity:1;fill-rule:evenodd;stroke:none;stroke-width:3px;stroke-linecap:butt;stroke-linejoin:miter;stroke-miterlimit:4;stroke-dasharray:none;stroke-dashoffset:0;stroke-opacity:1;color-rendering:auto;image-rendering:auto;shape-rendering:auto;text-rendering:auto;enable-background:accumulate" />
      <path
         id="path1256"
         d="m 328,75 v 1 h 4 v -1 z m 7,0 v 1 h 4 v -1 z m 7,0 v 1 h 4 v -1 z m 7,0 v 1 h 4 v -1 z m 7,0 v 1 h 4 v -1 z m -25,7 v 1 h 4 v -1 z m 7,0 v 1 h 4 v -1 z m 7,0 v 1 h 4 v -1 z m 7,0 v 1 h 4 v -1 z m -24,7 v 1 h 4 v -1 z m 7,0 v 1 h 18 v -1 z m 21,0 v 1 h 4 v -1 z"
         style="font-style:normal;font-variant:normal;font-weight:normal;font-stretch:normal;font-size:15px;line-height:125%;font-family:Ubuntu;-inkscape-font-specification:Ubuntu;text-align:center;letter-spacing:0px;word-spacing:0px;writing-mode:lr-tb;text-anchor:middle;display:inline;opacity:1;fill:#ffffff;fill-opacity:1;stroke:none;stroke-width:0.49990109;enable-background:new" />
      <path
         style="color:#000000;font-style:normal;font-variant:normal;font-weight:normal;font-stretch:normal;font-size:medium;line-height:normal;font-family:sans-serif;font-variant-ligatures:normal;font-variant-position:normal;font-variant-caps:normal;font-variant-numeric:normal;font-variant-alternates:normal;font-feature-settings:normal;text-indent:0;text-align:start;text-decoration:none;text-decoration-line:none;text-decoration-style:solid;text-decoration-color:#000000;letter-spacing:normal;word-spacing:normal;text-transform:none;writing-mode:lr-tb;direction:ltr;text-orientation:mixed;baseline-shift:baseline;text-anchor:start;white-space:normal;shape-padding:0;clip-rule:nonzero;display:inline;overflow:visible;visibility:visible;opacity:0.1;isolation:auto;mix-blend-mode:normal;color-interpolation:sRGB;color-interpolation-filters:linearRGB;solid-color:#000000;solid-opacity:1;fill:#000000;fill-opacity:1;fill-rule:nonzero;stroke:none;stroke-width:9.14285851;stroke-linecap:butt;stroke-linejoin:miter;stroke-miterlimit:4;stroke-dasharray:none;stroke-dashoffset:0;stroke-opacity:1;marker:none;filter:url(#filter991);color-rendering:auto;image-rendering:auto;shape-rendering:auto;text-rendering:auto;enable-background:accumulate"
         d="m 65.128906,100 c -2.875863,0.0331 -4.980463,-0.0705 -6.701172,0.87891 -0.860365,0.4747 -1.537696,1.27869 -1.914062,2.28125 C 56.137329,104.16272 56,105.35436 56,106.85742 v 18.28516 c 0,1.50306 0.137421,2.69468 0.513672,3.69726 0.376366,1.00256 1.053697,1.80069 1.914062,2.27539 1.720709,0.94937 3.825309,0.85154 6.701172,0.88477 h 0.0098 13.722656 0.0098 c 2.875862,-0.0331 4.980463,0.0646 6.701172,-0.88477 0.860366,-0.4747 1.537719,-1.27283 1.914062,-2.27539 C 87.861111,127.83726 88,126.64564 88,125.14258 v -18.28516 c 0,-1.50306 -0.137421,-2.6947 -0.513672,-3.69726 -0.376343,-1.00256 -1.053697,-1.80655 -1.914062,-2.28125 C 83.851557,99.929539 81.746957,100.03323 78.871094,100 h -0.0098 -13.722656 z m 40.000004,0 c -2.87586,0.0331 -4.98047,-0.0705 -6.701176,0.87891 -0.860365,0.4747 -1.537696,1.27869 -1.914062,2.28125 C 96.137329,104.16272 96,105.35436 96,106.85742 v 18.28516 c 0,1.50306 0.137421,2.69468 0.513672,3.69726 0.376366,1.00256 1.053697,1.80069 1.914062,2.27539 1.720706,0.94937 3.825316,0.85154 6.701176,0.88477 h 0.01 13.72266 0.01 c 2.87587,-0.0331 4.98048,0.0646 6.70118,-0.88477 0.86037,-0.4747 1.53772,-1.27283 1.91406,-2.27539 0.37498,-1.00258 0.51367,-2.1942 0.51367,-3.69726 v -18.28516 c 0,-1.50306 -0.13742,-2.6947 -0.51367,-3.69726 -0.37635,-1.00256 -1.0537,-1.80655 -1.91406,-2.28125 -1.72071,-0.949371 -3.82532,-0.84568 -6.70118,-0.87891 h -0.01 -13.72266 z m 40,0 c -2.87586,0.0331 -4.98047,-0.0705 -6.70118,0.87891 -0.86036,0.4747 -1.53769,1.27869 -1.91406,2.28125 -0.37634,1.00256 -0.51367,2.1942 -0.51367,3.69726 v 18.28516 c 0,1.50306 0.13742,2.69468 0.51367,3.69726 0.37637,1.00256 1.0537,1.80069 1.91406,2.27539 1.72071,0.94937 3.82532,0.85154 6.70118,0.88477 h 0.01 13.72266 0.01 c 2.87587,-0.0331 4.98048,0.0646 6.70118,-0.88477 0.86037,-0.4747 1.53772,-1.27283 1.91406,-2.27539 0.37498,-1.00258 0.51367,-2.1942 0.51367,-3.69726 v -18.28516 c 0,-1.50306 -0.13742,-2.6947 -0.51367,-3.69726 -0.37635,-1.00256 -1.0537,-1.80655 -1.91406,-2.28125 -1.72071,-0.949371 -3.82532,-0.84568 -6.70118,-0.87891 h -0.01 -13.72266 z m 40,0 c -2.87586,0.0331 -4.98047,-0.0705 -6.70118,0.87891 -0.86036,0.4747 -1.53769,1.27869 -1.91406,2.28125 -0.37634,1.00256 -0.51367,2.1942 -0.51367,3.69726 v 18.28516 c 0,1.50306 0.13742,2.69468 0.51367,3.69726 0.37637,1.00256 1.0537,1.80069 1.91406,2.27539 1.72071,0.94937 3.82532,0.85154 6.70118,0.88477 h 0.01 13.72266 0.01 c 2.87587,-0.0331 4.98048,0.0646 6.70118,-0.88477 0.86037,-0.4747 1.53772,-1.27283 1.91406,-2.27539 0.37498,-1.00258 0.51367,-2.1942 0.51367,-3.69726 v -18.28516 c 0,-1.50306 -0.13742,-2.6947 -0.51367,-3.69726 -0.37635,-1.00256 -1.0537,-1.80655 -1.91406,-2.28125 -1.72071,-0.949371 -3.82532,-0.84568 -6.70118,-0.87891 h -0.01 -13.72266 z m 40,0 c -2.87586,0.0331 -4.98047,-0.0705 -6.70118,0.87891 -0.86036,0.4747 -1.53769,1.27869 -1.91406,2.28125 -0.37634,1.00256 -0.51367,2.1942 -0.51367,3.69726 v 18.28516 c 0,1.50306 0.13742,2.69468 0.51367,3.69726 0.37637,1.00256 1.0537,1.80069 1.91406,2.27539 1.72071,0.94937 3.82532,0.85154 6.70118,0.88477 h 0.01 13.72266 0.01 c 2.87587,-0.0331 4.98048,0.0646 6.70118,-0.88477 0.86037,-0.4747 1.53772,-1.27283 1.91406,-2.27539 0.37498,-1.00258 0.51367,-2.1942 0.51367,-3.69726 v -18.28516 c 0,-1.50306 -0.13742,-2.6947 -0.51367,-3.69726 -0.37635,-1.00256 -1.0537,-1.80655 -1.91406,-2.28125 -1.72071,-0.949371 -3.82532,-0.84568 -6.70118,-0.87891 h -0.01 -13.72266 z M 81.128906,140 c -2.87586,0.0331 -4.980463,-0.0705 -6.701172,0.87891 -0.860365,0.4747 -1.537696,1.27869 -1.914062,2.28125 C 72.137329,144.16272 72,145.35436 72,146.85742 v 18.28516 c 0,1.50306 0.137421,2.69468 0.513672,3.69726 0.376366,1.00256 1.053697,1.80069 1.914062,2.27539 1.720709,0.94937 3.825312,0.85154 6.701172,0.88477 h 0.0098 13.722656 0.0098 c 2.87587,-0.0331 4.980472,0.0646 6.701178,-0.88477 0.86037,-0.4747 1.53772,-1.27283 1.91406,-2.27539 0.37498,-1.00258 0.51367,-2.1942 0.51367,-3.69726 v -18.28516 c 0,-1.50306 -0.13742,-2.6947 -0.51367,-3.69726 -0.37635,-1.00256 -1.0537,-1.80655 -1.91406,-2.28125 C 99.851556,139.92954 97.746954,140.03323 94.871094,140 h -0.0098 -13.722656 z m 40.000004,0 c -2.87586,0.0331 -4.98047,-0.0705 -6.70118,0.87891 -0.86036,0.4747 -1.53769,1.27869 -1.91406,2.28125 -0.37634,1.00256 -0.51367,2.1942 -0.51367,3.69726 v 18.28516 c 0,1.50306 0.13742,2.69468 0.51367,3.69726 0.37637,1.00256 1.0537,1.80069 1.91406,2.27539 1.72071,0.94937 3.82532,0.85154 6.70118,0.88477 h 0.01 13.72266 0.01 c 2.87587,-0.0331 4.98048,0.0646 6.70118,-0.88477 0.86037,-0.4747 1.53772,-1.27283 1.91406,-2.27539 0.37498,-1.00258 0.51367,-2.1942 0.51367,-3.69726 v -18.28516 c 0,-1.50306 -0.13742,-2.6947 -0.51367,-3.69726 -0.37635,-1.00256 -1.0537,-1.80655 -1.91406,-2.28125 -1.72071,-0.94937 -3.82532,-0.84568 -6.70118,-0.87891 h -0.01 -13.72266 z m 40,0 c -2.87586,0.0331 -4.98047,-0.0705 -6.70118,0.87891 -0.86036,0.4747 -1.53769,1.27869 -1.91406,2.28125 -0.37634,1.00256 -0.51367,2.1942 -0.51367,3.69726 v 18.28516 c 0,1.50306 0.13742,2.69468 0.51367,3.69726 0.37637,1.00256 1.0537,1.80069 1.91406,2.27539 1.72071,0.94937 3.82532,0.85154 6.70118,0.88477 h 0.01 13.72266 0.01 c 2.87587,-0.0331 4.98048,0.0646 6.70118,-0.88477 0.86037,-0.4747 1.53772,-1.27283 1.91406,-2.27539 0.37498,-1.00258 0.51367,-2.1942 0.51367,-3.69726 v -18.28516 c 0,-1.50306 -0.13742,-2.6947 -0.51367,-3.69726 -0.37635,-1.00256 -1.0537,-1.80655 -1.91406,-2.28125 -1.72071,-0.94937 -3.82532,-0.84568 -6.70118,-0.87891 h -0.01 -13.72266 z m 40,0 c -2.87586,0.0331 -4.98047,-0.0705 -6.70118,0.87891 -0.86036,0.4747 -1.53769,1.27869 -1.91406,2.28125 -0.37634,1.00256 -0.51367,2.1942 -0.51367,3.69726 v 18.28516 c 0,1.50306 0.13742,2.69468 0.51367,3.69726 0.37637,1.00256 1.0537,1.80069 1.91406,2.27539 1.72071,0.94937 3.82532,0.85154 6.70118,0.88477 h 0.01 13.72266 0.01 c 2.87587,-0.0331 4.98048,0.0646 6.70118,-0.88477 0.86037,-0.4747 1.53772,-1.27283 1.91406,-2.27539 0.37498,-1.00258 0.51367,-2.1942 0.51367,-3.69726 v -18.28516 c 0,-1.50306 -0.13742,-2.6947 -0.51367,-3.69726 -0.37635,-1.00256 -1.0537,-1.80655 -1.91406,-2.28125 -1.72071,-0.94937 -3.82532,-0.84568 -6.70118,-0.87891 h -0.01 -13.72266 z M 65.128906,180 c -2.87586,0.0331 -4.980463,-0.0705 -6.701172,0.87891 -0.860365,0.4747 -1.537696,1.27869 -1.914062,2.28125 C 56.137329,184.16272 56,185.35436 56,186.85742 v 18.28516 c 0,1.50306 0.137421,2.69468 0.513672,3.69726 0.376366,1.00256 1.053697,1.80069 1.914062,2.27539 1.720709,0.94937 3.825312,0.85154 6.701172,0.88477 h 0.0098 13.722656 0.0098 c 2.87587,-0.0331 4.980472,0.0646 6.701172,-0.88477 0.86037,-0.4747 1.537722,-1.27283 1.914062,-2.27539 C 87.861308,207.83726 88,206.64564 88,205.14258 v -18.28516 c 0,-1.50306 -0.137422,-2.6947 -0.513672,-3.69726 -0.37635,-1.00256 -1.053702,-1.80655 -1.914062,-2.28125 -1.72071,-0.94937 -3.825312,-0.84568 -6.701172,-0.87891 h -0.0098 -13.722656 z m 40.000004,0 c -2.87586,0.0331 -4.98047,-0.0705 -6.701176,0.87891 -0.86036,0.4747 -1.537692,1.27869 -1.914062,2.28125 C 96.137332,184.16272 96,185.35436 96,186.85742 v 18.28516 c 0,1.50306 0.137422,2.69468 0.513672,3.69726 0.37637,1.00256 1.053702,1.80069 1.914062,2.27539 1.720706,0.94937 3.825316,0.85154 6.701176,0.88477 h 0.01 93.72266 0.01 c 2.87587,-0.0331 4.98048,0.0646 6.70118,-0.88477 0.86037,-0.4747 1.53772,-1.27283 1.91406,-2.27539 0.37498,-1.00258 0.51367,-2.1942 0.51367,-3.69726 v -18.28516 c 0,-1.50306 -0.13742,-2.6947 -0.51367,-3.69726 -0.37635,-1.00256 -1.0537,-1.80655 -1.91406,-2.28125 -1.72071,-0.94937 -3.82532,-0.84568 -6.70118,-0.87891 h -0.01 -93.72266 z m 120,0 c -2.87586,0.0331 -4.98047,-0.0705 -6.70118,0.87891 -0.86036,0.4747 -1.53769,1.27869 -1.91406,2.28125 -0.37634,1.00256 -0.51367,2.1942 -0.51367,3.69726 v 18.28516 c 0,1.50306 0.13742,2.69468 0.51367,3.69726 0.37637,1.00256 1.0537,1.80069 1.91406,2.27539 1.72071,0.94937 3.82532,0.85154 6.70118,0.88477 h 0.01 13.72266 0.01 c 2.87587,-0.0331 4.98048,0.0646 6.70118,-0.88477 0.86037,-0.4747 1.53772,-1.27283 1.91406,-2.27539 0.37498,-1.00258 0.51367,-2.1942 0.51367,-3.69726 v -18.28516 c 0,-1.50306 -0.13742,-2.6947 -0.51367,-3.69726 -0.37635,-1.00256 -1.0537,-1.80655 -1.91406,-2.28125 -1.72071,-0.94937 -3.82532,-0.84568 -6.70118,-0.87891 h -0.01 -13.72266 z"
         id="path981" />
      <path
         id="path995"
         d="m 65.128906,102 c -2.875863,0.0331 -4.980463,-0.0705 -6.701172,0.87891 -0.860365,0.4747 -1.537696,1.27869 -1.914062,2.28125 C 56.137329,106.16272 56,107.35436 56,108.85742 v 18.28516 c 0,1.50306 0.137421,2.69468 0.513672,3.69726 0.376366,1.00256 1.053697,1.80069 1.914062,2.27539 1.720709,0.94937 3.825309,0.85154 6.701172,0.88477 h 0.0098 13.722656 0.0098 c 2.875862,-0.0331 4.980463,0.0646 6.701172,-0.88477 0.860366,-0.4747 1.537719,-1.27283 1.914062,-2.27539 C 87.861111,129.83726 88,128.64564 88,127.14258 v -18.28516 c 0,-1.50306 -0.137421,-2.6947 -0.513672,-3.69726 -0.376343,-1.00256 -1.053697,-1.80655 -1.914062,-2.28125 C 83.851557,101.92954 81.746957,102.03323 78.871094,102 h -0.0098 -13.722656 z m 40.000004,0 c -2.87586,0.0331 -4.98047,-0.0705 -6.701176,0.87891 -0.860365,0.4747 -1.537696,1.27869 -1.914062,2.28125 C 96.137329,106.16272 96,107.35436 96,108.85742 v 18.28516 c 0,1.50306 0.137421,2.69468 0.513672,3.69726 0.376366,1.00256 1.053697,1.80069 1.914062,2.27539 1.720706,0.94937 3.825316,0.85154 6.701176,0.88477 h 0.01 13.72266 0.01 c 2.87587,-0.0331 4.98048,0.0646 6.70118,-0.88477 0.86037,-0.4747 1.53772,-1.27283 1.91406,-2.27539 0.37498,-1.00258 0.51367,-2.1942 0.51367,-3.69726 v -18.28516 c 0,-1.50306 -0.13742,-2.6947 -0.51367,-3.69726 -0.37635,-1.00256 -1.0537,-1.80655 -1.91406,-2.28125 -1.72071,-0.94937 -3.82532,-0.84568 -6.70118,-0.87891 h -0.01 -13.72266 z m 40,0 c -2.87586,0.0331 -4.98047,-0.0705 -6.70118,0.87891 -0.86036,0.4747 -1.53769,1.27869 -1.91406,2.28125 -0.37634,1.00256 -0.51367,2.1942 -0.51367,3.69726 v 18.28516 c 0,1.50306 0.13742,2.69468 0.51367,3.69726 0.37637,1.00256 1.0537,1.80069 1.91406,2.27539 1.72071,0.94937 3.82532,0.85154 6.70118,0.88477 h 0.01 13.72266 0.01 c 2.87587,-0.0331 4.98048,0.0646 6.70118,-0.88477 0.86037,-0.4747 1.53772,-1.27283 1.91406,-2.27539 0.37498,-1.00258 0.51367,-2.1942 0.51367,-3.69726 v -18.28516 c 0,-1.50306 -0.13742,-2.6947 -0.51367,-3.69726 -0.37635,-1.00256 -1.0537,-1.80655 -1.91406,-2.28125 -1.72071,-0.94937 -3.82532,-0.84568 -6.70118,-0.87891 h -0.01 -13.72266 z m 40,0 c -2.87586,0.0331 -4.98047,-0.0705 -6.70118,0.87891 -0.86036,0.4747 -1.53769,1.27869 -1.91406,2.28125 -0.37634,1.00256 -0.51367,2.1942 -0.51367,3.69726 v 18.28516 c 0,1.50306 0.13742,2.69468 0.51367,3.69726 0.37637,1.00256 1.0537,1.80069 1.91406,2.27539 1.72071,0.94937 3.82532,0.85154 6.70118,0.88477 h 0.01 13.72266 0.01 c 2.87587,-0.0331 4.98048,0.0646 6.70118,-0.88477 0.86037,-0.4747 1.53772,-1.27283 1.91406,-2.27539 0.37498,-1.00258 0.51367,-2.1942 0.51367,-3.69726 v -18.28516 c 0,-1.50306 -0.13742,-2.6947 -0.51367,-3.69726 -0.37635,-1.00256 -1.0537,-1.80655 -1.91406,-2.28125 -1.72071,-0.94937 -3.82532,-0.84568 -6.70118,-0.87891 h -0.01 -13.72266 z m 40,0 c -2.87586,0.0331 -4.98047,-0.0705 -6.70118,0.87891 -0.86036,0.4747 -1.53769,1.27869 -1.91406,2.28125 -0.37634,1.00256 -0.51367,2.1942 -0.51367,3.69726 v 18.28516 c 0,1.50306 0.13742,2.69468 0.51367,3.69726 0.37637,1.00256 1.0537,1.80069 1.91406,2.27539 1.72071,0.94937 3.82532,0.85154 6.70118,0.88477 h 0.01 13.72266 0.01 c 2.87587,-0.0331 4.98048,0.0646 6.70118,-0.88477 0.86037,-0.4747 1.53772,-1.27283 1.91406,-2.27539 0.37498,-1.00258 0.51367,-2.1942 0.51367,-3.69726 v -18.28516 c 0,-1.50306 -0.13742,-2.6947 -0.51367,-3.69726 -0.37635,-1.00256 -1.0537,-1.80655 -1.91406,-2.28125 -1.72071,-0.94937 -3.82532,-0.84568 -6.70118,-0.87891 h -0.01 -13.72266 z M 81.128906,142 c -2.87586,0.0331 -4.980463,-0.0705 -6.701172,0.87891 -0.860365,0.4747 -1.537696,1.27869 -1.914062,2.28125 C 72.137329,146.16272 72,147.35436 72,148.85742 v 18.28516 c 0,1.50306 0.137421,2.69468 0.513672,3.69726 0.376366,1.00256 1.053697,1.80069 1.914062,2.27539 1.720709,0.94937 3.825312,0.85154 6.701172,0.88477 h 0.0098 13.722656 0.0098 c 2.87587,-0.0331 4.980472,0.0646 6.701178,-0.88477 0.86037,-0.4747 1.53772,-1.27283 1.91406,-2.27539 0.37498,-1.00258 0.51367,-2.1942 0.51367,-3.69726 v -18.28516 c 0,-1.50306 -0.13742,-2.6947 -0.51367,-3.69726 -0.37635,-1.00256 -1.0537,-1.80655 -1.91406,-2.28125 C 99.851556,141.92954 97.746954,142.03323 94.871094,142 h -0.0098 -13.722656 z m 40.000004,0 c -2.87586,0.0331 -4.98047,-0.0705 -6.70118,0.87891 -0.86036,0.4747 -1.53769,1.27869 -1.91406,2.28125 -0.37634,1.00256 -0.51367,2.1942 -0.51367,3.69726 v 18.28516 c 0,1.50306 0.13742,2.69468 0.51367,3.69726 0.37637,1.00256 1.0537,1.80069 1.91406,2.27539 1.72071,0.94937 3.82532,0.85154 6.70118,0.88477 h 0.01 13.72266 0.01 c 2.87587,-0.0331 4.98048,0.0646 6.70118,-0.88477 0.86037,-0.4747 1.53772,-1.27283 1.91406,-2.27539 0.37498,-1.00258 0.51367,-2.1942 0.51367,-3.69726 v -18.28516 c 0,-1.50306 -0.13742,-2.6947 -0.51367,-3.69726 -0.37635,-1.00256 -1.0537,-1.80655 -1.91406,-2.28125 -1.72071,-0.94937 -3.82532,-0.84568 -6.70118,-0.87891 h -0.01 -13.72266 z m 40,0 c -2.87586,0.0331 -4.98047,-0.0705 -6.70118,0.87891 -0.86036,0.4747 -1.53769,1.27869 -1.91406,2.28125 -0.37634,1.00256 -0.51367,2.1942 -0.51367,3.69726 v 18.28516 c 0,1.50306 0.13742,2.69468 0.51367,3.69726 0.37637,1.00256 1.0537,1.80069 1.91406,2.27539 1.72071,0.94937 3.82532,0.85154 6.70118,0.88477 h 0.01 13.72266 0.01 c 2.87587,-0.0331 4.98048,0.0646 6.70118,-0.88477 0.86037,-0.4747 1.53772,-1.27283 1.91406,-2.27539 0.37498,-1.00258 0.51367,-2.1942 0.51367,-3.69726 v -18.28516 c 0,-1.50306 -0.13742,-2.6947 -0.51367,-3.69726 -0.37635,-1.00256 -1.0537,-1.80655 -1.91406,-2.28125 -1.72071,-0.94937 -3.82532,-0.84568 -6.70118,-0.87891 h -0.01 -13.72266 z m 40,0 c -2.87586,0.0331 -4.98047,-0.0705 -6.70118,0.87891 -0.86036,0.4747 -1.53769,1.27869 -1.91406,2.28125 -0.37634,1.00256 -0.51367,2.1942 -0.51367,3.69726 v 18.28516 c 0,1.50306 0.13742,2.69468 0.51367,3.69726 0.37637,1.00256 1.0537,1.80069 1.91406,2.27539 1.72071,0.94937 3.82532,0.85154 6.70118,0.88477 h 0.01 13.72266 0.01 c 2.87587,-0.0331 4.98048,0.0646 6.70118,-0.88477 0.86037,-0.4747 1.53772,-1.27283 1.91406,-2.27539 0.37498,-1.00258 0.51367,-2.1942 0.51367,-3.69726 v -18.28516 c 0,-1.50306 -0.13742,-2.6947 -0.51367,-3.69726 -0.37635,-1.00256 -1.0537,-1.80655 -1.91406,-2.28125 -1.72071,-0.94937 -3.82532,-0.84568 -6.70118,-0.87891 h -0.01 -13.72266 z M 65.128906,182 c -2.87586,0.0331 -4.980463,-0.0705 -6.701172,0.87891 -0.860365,0.4747 -1.537696,1.27869 -1.914062,2.28125 C 56.137329,186.16272 56,187.35436 56,188.85742 v 18.28516 c 0,1.50306 0.137421,2.69468 0.513672,3.69726 0.376366,1.00256 1.053697,1.80069 1.914062,2.27539 1.720709,0.94937 3.825312,0.85154 6.701172,0.88477 h 0.0098 13.722656 0.0098 c 2.87587,-0.0331 4.980472,0.0646 6.701172,-0.88477 0.86037,-0.4747 1.537722,-1.27283 1.914062,-2.27539 C 87.861308,209.83726 88,208.64564 88,207.14258 v -18.28516 c 0,-1.50306 -0.137422,-2.6947 -0.513672,-3.69726 -0.37635,-1.00256 -1.053702,-1.80655 -1.914062,-2.28125 -1.72071,-0.94937 -3.825312,-0.84568 -6.701172,-0.87891 h -0.0098 -13.722656 z m 40.000004,0 c -2.87586,0.0331 -4.98047,-0.0705 -6.701176,0.87891 -0.86036,0.4747 -1.537692,1.27869 -1.914062,2.28125 C 96.137332,186.16272 96,187.35436 96,188.85742 v 18.28516 c 0,1.50306 0.137422,2.69468 0.513672,3.69726 0.37637,1.00256 1.053702,1.80069 1.914062,2.27539 1.720706,0.94937 3.825316,0.85154 6.701176,0.88477 h 0.01 93.72266 0.01 c 2.87587,-0.0331 4.98048,0.0646 6.70118,-0.88477 0.86037,-0.4747 1.53772,-1.27283 1.91406,-2.27539 0.37498,-1.00258 0.51367,-2.1942 0.51367,-3.69726 v -18.28516 c 0,-1.50306 -0.13742,-2.6947 -0.51367,-3.69726 -0.37635,-1.00256 -1.0537,-1.80655 -1.91406,-2.28125 -1.72071,-0.94937 -3.82532,-0.84568 -6.70118,-0.87891 h -0.01 -93.72266 z m 120,0 c -2.87586,0.0331 -4.98047,-0.0705 -6.70118,0.87891 -0.86036,0.4747 -1.53769,1.27869 -1.91406,2.28125 -0.37634,1.00256 -0.51367,2.1942 -0.51367,3.69726 v 18.28516 c 0,1.50306 0.13742,2.69468 0.51367,3.69726 0.37637,1.00256 1.0537,1.80069 1.91406,2.27539 1.72071,0.94937 3.82532,0.85154 6.70118,0.88477 h 0.01 13.72266 0.01 c 2.87587,-0.0331 4.98048,0.0646 6.70118,-0.88477 0.86037,-0.4747 1.53772,-1.27283 1.91406,-2.27539 0.37498,-1.00258 0.51367,-2.1942 0.51367,-3.69726 v -18.28516 c 0,-1.50306 -0.13742,-2.6947 -0.51367,-3.69726 -0.37635,-1.00256 -1.0537,-1.80655 -1.91406,-2.28125 -1.72071,-0.94937 -3.82532,-0.84568 -6.70118,-0.87891 h -0.01 -13.72266 z"
         style="color:#000000;font-style:normal;font-variant:normal;font-weight:normal;font-stretch:normal;font-size:medium;line-height:normal;font-family:sans-serif;font-variant-ligatures:normal;font-variant-position:normal;font-variant-caps:normal;font-variant-numeric:normal;font-variant-alternates:normal;font-feature-settings:normal;text-indent:0;text-align:start;text-decoration:none;text-decoration-line:none;text-decoration-style:solid;text-decoration-color:#000000;letter-spacing:normal;word-spacing:normal;text-transform:none;writing-mode:lr-tb;direction:ltr;text-orientation:mixed;baseline-shift:baseline;text-anchor:start;white-space:normal;shape-padding:0;clip-rule:nonzero;display:inline;overflow:visible;visibility:visible;opacity:0.4;isolation:auto;mix-blend-mode:normal;color-interpolation:sRGB;color-interpolation-filters:linearRGB;solid-color:#000000;solid-opacity:1;fill:#000000;fill-opacity:1;fill-rule:nonzero;stroke:none;stroke-width:9.14285851;stroke-linecap:butt;stroke-linejoin:miter;stroke-miterlimit:4;stroke-dasharray:none;stroke-dashoffset:0;stroke-opacity:1;marker:none;filter:url(#filter997);color-rendering:auto;image-rendering:auto;shape-rendering:auto;text-rendering:auto;enable-background:accumulate" />
      <path
         id="path2932"
         d="m 65.128906,100 c -2.875863,0.0331 -4.980463,-0.0705 -6.701172,0.87891 -0.860365,0.4747 -1.537696,1.27869 -1.914062,2.28125 C 56.137329,104.16272 56,105.35436 56,106.85742 v 18.28516 c 0,1.50306 0.137421,2.69468 0.513672,3.69726 0.376366,1.00256 1.053697,1.80069 1.914062,2.27539 1.720709,0.94937 3.825309,0.85154 6.701172,0.88477 h 0.0098 13.722656 0.0098 c 2.875862,-0.0331 4.980463,0.0646 6.701172,-0.88477 0.860366,-0.4747 1.537719,-1.27283 1.914062,-2.27539 C 87.861111,127.83726 88,126.64564 88,125.14258 v -18.28516 c 0,-1.50306 -0.137421,-2.6947 -0.513672,-3.69726 -0.376343,-1.00256 -1.053697,-1.80655 -1.914062,-2.28125 C 83.851557,99.929539 81.746957,100.03323 78.871094,100 h -0.0098 -13.722656 z m 40.000004,0 c -2.87586,0.0331 -4.98047,-0.0705 -6.701176,0.87891 -0.860365,0.4747 -1.537696,1.27869 -1.914062,2.28125 C 96.137329,104.16272 96,105.35436 96,106.85742 v 18.28516 c 0,1.50306 0.137421,2.69468 0.513672,3.69726 0.376366,1.00256 1.053697,1.80069 1.914062,2.27539 1.720706,0.94937 3.825316,0.85154 6.701176,0.88477 h 0.01 13.72266 0.01 c 2.87587,-0.0331 4.98048,0.0646 6.70118,-0.88477 0.86037,-0.4747 1.53772,-1.27283 1.91406,-2.27539 0.37498,-1.00258 0.51367,-2.1942 0.51367,-3.69726 v -18.28516 c 0,-1.50306 -0.13742,-2.6947 -0.51367,-3.69726 -0.37635,-1.00256 -1.0537,-1.80655 -1.91406,-2.28125 -1.72071,-0.949371 -3.82532,-0.84568 -6.70118,-0.87891 h -0.01 -13.72266 z m 40,0 c -2.87586,0.0331 -4.98047,-0.0705 -6.70118,0.87891 -0.86036,0.4747 -1.53769,1.27869 -1.91406,2.28125 -0.37634,1.00256 -0.51367,2.1942 -0.51367,3.69726 v 18.28516 c 0,1.50306 0.13742,2.69468 0.51367,3.69726 0.37637,1.00256 1.0537,1.80069 1.91406,2.27539 1.72071,0.94937 3.82532,0.85154 6.70118,0.88477 h 0.01 13.72266 0.01 c 2.87587,-0.0331 4.98048,0.0646 6.70118,-0.88477 0.86037,-0.4747 1.53772,-1.27283 1.91406,-2.27539 0.37498,-1.00258 0.51367,-2.1942 0.51367,-3.69726 v -18.28516 c 0,-1.50306 -0.13742,-2.6947 -0.51367,-3.69726 -0.37635,-1.00256 -1.0537,-1.80655 -1.91406,-2.28125 -1.72071,-0.949371 -3.82532,-0.84568 -6.70118,-0.87891 h -0.01 -13.72266 z m 40,0 c -2.87586,0.0331 -4.98047,-0.0705 -6.70118,0.87891 -0.86036,0.4747 -1.53769,1.27869 -1.91406,2.28125 -0.37634,1.00256 -0.51367,2.1942 -0.51367,3.69726 v 18.28516 c 0,1.50306 0.13742,2.69468 0.51367,3.69726 0.37637,1.00256 1.0537,1.80069 1.91406,2.27539 1.72071,0.94937 3.82532,0.85154 6.70118,0.88477 h 0.01 13.72266 0.01 c 2.87587,-0.0331 4.98048,0.0646 6.70118,-0.88477 0.86037,-0.4747 1.53772,-1.27283 1.91406,-2.27539 0.37498,-1.00258 0.51367,-2.1942 0.51367,-3.69726 v -18.28516 c 0,-1.50306 -0.13742,-2.6947 -0.51367,-3.69726 -0.37635,-1.00256 -1.0537,-1.80655 -1.91406,-2.28125 -1.72071,-0.949371 -3.82532,-0.84568 -6.70118,-0.87891 h -0.01 -13.72266 z m 40,0 c -2.87586,0.0331 -4.98047,-0.0705 -6.70118,0.87891 -0.86036,0.4747 -1.53769,1.27869 -1.91406,2.28125 -0.37634,1.00256 -0.51367,2.1942 -0.51367,3.69726 v 18.28516 c 0,1.50306 0.13742,2.69468 0.51367,3.69726 0.37637,1.00256 1.0537,1.80069 1.91406,2.27539 1.72071,0.94937 3.82532,0.85154 6.70118,0.88477 h 0.01 13.72266 0.01 c 2.87587,-0.0331 4.98048,0.0646 6.70118,-0.88477 0.86037,-0.4747 1.53772,-1.27283 1.91406,-2.27539 0.37498,-1.00258 0.51367,-2.1942 0.51367,-3.69726 v -18.28516 c 0,-1.50306 -0.13742,-2.6947 -0.51367,-3.69726 -0.37635,-1.00256 -1.0537,-1.80655 -1.91406,-2.28125 -1.72071,-0.949371 -3.82532,-0.84568 -6.70118,-0.87891 h -0.01 -13.72266 z M 81.128906,140 c -2.87586,0.0331 -4.980463,-0.0705 -6.701172,0.87891 -0.860365,0.4747 -1.537696,1.27869 -1.914062,2.28125 C 72.137329,144.16272 72,145.35436 72,146.85742 v 18.28516 c 0,1.50306 0.137421,2.69468 0.513672,3.69726 0.376366,1.00256 1.053697,1.80069 1.914062,2.27539 1.720709,0.94937 3.825312,0.85154 6.701172,0.88477 h 0.0098 13.722656 0.0098 c 2.87587,-0.0331 4.980472,0.0646 6.701178,-0.88477 0.86037,-0.4747 1.53772,-1.27283 1.91406,-2.27539 0.37498,-1.00258 0.51367,-2.1942 0.51367,-3.69726 v -18.28516 c 0,-1.50306 -0.13742,-2.6947 -0.51367,-3.69726 -0.37635,-1.00256 -1.0537,-1.80655 -1.91406,-2.28125 C 99.851556,139.92954 97.746954,140.03323 94.871094,140 h -0.0098 -13.722656 z m 40.000004,0 c -2.87586,0.0331 -4.98047,-0.0705 -6.70118,0.87891 -0.86036,0.4747 -1.53769,1.27869 -1.91406,2.28125 -0.37634,1.00256 -0.51367,2.1942 -0.51367,3.69726 v 18.28516 c 0,1.50306 0.13742,2.69468 0.51367,3.69726 0.37637,1.00256 1.0537,1.80069 1.91406,2.27539 1.72071,0.94937 3.82532,0.85154 6.70118,0.88477 h 0.01 13.72266 0.01 c 2.87587,-0.0331 4.98048,0.0646 6.70118,-0.88477 0.86037,-0.4747 1.53772,-1.27283 1.91406,-2.27539 0.37498,-1.00258 0.51367,-2.1942 0.51367,-3.69726 v -18.28516 c 0,-1.50306 -0.13742,-2.6947 -0.51367,-3.69726 -0.37635,-1.00256 -1.0537,-1.80655 -1.91406,-2.28125 -1.72071,-0.94937 -3.82532,-0.84568 -6.70118,-0.87891 h -0.01 -13.72266 z m 40,0 c -2.87586,0.0331 -4.98047,-0.0705 -6.70118,0.87891 -0.86036,0.4747 -1.53769,1.27869 -1.91406,2.28125 -0.37634,1.00256 -0.51367,2.1942 -0.51367,3.69726 v 18.28516 c 0,1.50306 0.13742,2.69468 0.51367,3.69726 0.37637,1.00256 1.0537,1.80069 1.91406,2.27539 1.72071,0.94937 3.82532,0.85154 6.70118,0.88477 h 0.01 13.72266 0.01 c 2.87587,-0.0331 4.98048,0.0646 6.70118,-0.88477 0.86037,-0.4747 1.53772,-1.27283 1.91406,-2.27539 0.37498,-1.00258 0.51367,-2.1942 0.51367,-3.69726 v -18.28516 c 0,-1.50306 -0.13742,-2.6947 -0.51367,-3.69726 -0.37635,-1.00256 -1.0537,-1.80655 -1.91406,-2.28125 -1.72071,-0.94937 -3.82532,-0.84568 -6.70118,-0.87891 h -0.01 -13.72266 z m 40,0 c -2.87586,0.0331 -4.98047,-0.0705 -6.70118,0.87891 -0.86036,0.4747 -1.53769,1.27869 -1.91406,2.28125 -0.37634,1.00256 -0.51367,2.1942 -0.51367,3.69726 v 18.28516 c 0,1.50306 0.13742,2.69468 0.51367,3.69726 0.37637,1.00256 1.0537,1.80069 1.91406,2.27539 1.72071,0.94937 3.82532,0.85154 6.70118,0.88477 h 0.01 13.72266 0.01 c 2.87587,-0.0331 4.98048,0.0646 6.70118,-0.88477 0.86037,-0.4747 1.53772,-1.27283 1.91406,-2.27539 0.37498,-1.00258 0.51367,-2.1942 0.51367,-3.69726 v -18.28516 c 0,-1.50306 -0.13742,-2.6947 -0.51367,-3.69726 -0.37635,-1.00256 -1.0537,-1.80655 -1.91406,-2.28125 -1.72071,-0.94937 -3.82532,-0.84568 -6.70118,-0.87891 h -0.01 -13.72266 z M 65.128906,180 c -2.87586,0.0331 -4.980463,-0.0705 -6.701172,0.87891 -0.860365,0.4747 -1.537696,1.27869 -1.914062,2.28125 C 56.137329,184.16272 56,185.35436 56,186.85742 v 18.28516 c 0,1.50306 0.137421,2.69468 0.513672,3.69726 0.376366,1.00256 1.053697,1.80069 1.914062,2.27539 1.720709,0.94937 3.825312,0.85154 6.701172,0.88477 h 0.0098 13.722656 0.0098 c 2.87587,-0.0331 4.980472,0.0646 6.701172,-0.88477 0.86037,-0.4747 1.537722,-1.27283 1.914062,-2.27539 C 87.861308,207.83726 88,206.64564 88,205.14258 v -18.28516 c 0,-1.50306 -0.137422,-2.6947 -0.513672,-3.69726 -0.37635,-1.00256 -1.053702,-1.80655 -1.914062,-2.28125 -1.72071,-0.94937 -3.825312,-0.84568 -6.701172,-0.87891 h -0.0098 -13.722656 z m 40.000004,0 c -2.87586,0.0331 -4.98047,-0.0705 -6.701176,0.87891 -0.86036,0.4747 -1.537692,1.27869 -1.914062,2.28125 C 96.137332,184.16272 96,185.35436 96,186.85742 v 18.28516 c 0,1.50306 0.137422,2.69468 0.513672,3.69726 0.37637,1.00256 1.053702,1.80069 1.914062,2.27539 1.720706,0.94937 3.825316,0.85154 6.701176,0.88477 h 0.01 93.72266 0.01 c 2.87587,-0.0331 4.98048,0.0646 6.70118,-0.88477 0.86037,-0.4747 1.53772,-1.27283 1.91406,-2.27539 0.37498,-1.00258 0.51367,-2.1942 0.51367,-3.69726 v -18.28516 c 0,-1.50306 -0.13742,-2.6947 -0.51367,-3.69726 -0.37635,-1.00256 -1.0537,-1.80655 -1.91406,-2.28125 -1.72071,-0.94937 -3.82532,-0.84568 -6.70118,-0.87891 h -0.01 -93.72266 z m 120,0 c -2.87586,0.0331 -4.98047,-0.0705 -6.70118,0.87891 -0.86036,0.4747 -1.53769,1.27869 -1.91406,2.28125 -0.37634,1.00256 -0.51367,2.1942 -0.51367,3.69726 v 18.28516 c 0,1.50306 0.13742,2.69468 0.51367,3.69726 0.37637,1.00256 1.0537,1.80069 1.91406,2.27539 1.72071,0.94937 3.82532,0.85154 6.70118,0.88477 h 0.01 13.72266 0.01 c 2.87587,-0.0331 4.98048,0.0646 6.70118,-0.88477 0.86037,-0.4747 1.53772,-1.27283 1.91406,-2.27539 0.37498,-1.00258 0.51367,-2.1942 0.51367,-3.69726 v -18.28516 c 0,-1.50306 -0.13742,-2.6947 -0.51367,-3.69726 -0.37635,-1.00256 -1.0537,-1.80655 -1.91406,-2.28125 -1.72071,-0.94937 -3.82532,-0.84568 -6.70118,-0.87891 h -0.01 -13.72266 z"
         style="color:#000000;font-style:normal;font-variant:normal;font-weight:normal;font-stretch:normal;font-size:medium;line-height:normal;font-family:sans-serif;font-variant-ligatures:normal;font-variant-position:normal;font-variant-caps:normal;font-variant-numeric:normal;font-variant-alternates:normal;font-feature-settings:normal;text-indent:0;text-align:start;text-decoration:none;text-decoration-line:none;text-decoration-style:solid;text-decoration-color:#000000;letter-spacing:normal;word-spacing:normal;text-transform:none;writing-mode:lr-tb;direction:ltr;text-orientation:mixed;baseline-shift:baseline;text-anchor:start;white-space:normal;shape-padding:0;clip-rule:nonzero;display:inline;overflow:visible;visibility:visible;opacity:1;isolation:auto;mix-blend-mode:normal;color-interpolation:sRGB;color-interpolation-filters:linearRGB;solid-color:#000000;solid-opacity:1;fill:#f7f7f7;fill-opacity:1;fill-rule:nonzero;stroke:none;stroke-width:9.14285851;stroke-linecap:butt;stroke-linejoin:miter;stroke-miterlimit:4;stroke-dasharray:none;stroke-dashoffset:0;stroke-opacity:1;marker:none;color-rendering:auto;image-rendering:auto;shape-rendering:auto;text-rendering:auto;enable-background:accumulate" />
      <path
         id="path1095"
         d="m 323.00002,240.99995 v 1.00001 h 1.00001 v -1.00001 z m 2.00001,0 v 1.00001 h 1.00001 v -1.00001 z m 2.00002,0 v 1.00001 h 1 v -1.00001 z m 2.00001,0 v 1.00001 h 1.00001 v -1.00001 z m 2.00001,0 v 1.00001 h 1.00001 v -1.00001 z m -7.002,2.00001 0.004,1.00001 h 0.99796 v -1.00001 z m 2.00197,0 v 1.00001 h 1.00001 v -1.00001 z m 2.00001,0 v 1.00001 h 1.00001 v -1.00001 z m 2.00002,0 v 1.00001 h 1 v -1.00001 z m -7.00005,2.00002 v 1 h 1.00001 v -1 z m 2.00001,0 v 1 h 5.00004 v -1 z m 6.00004,0 0.0117,1 h 0.99415 l -0.0117,-1 z"
         style="color:#000000;font-style:normal;font-variant:normal;font-weight:normal;font-stretch:normal;font-size:medium;line-height:normal;font-family:sans-serif;font-variant-ligatures:normal;font-variant-position:normal;font-variant-caps:normal;font-variant-numeric:normal;font-variant-alternates:normal;font-feature-settings:normal;text-indent:0;text-align:start;text-decoration:none;text-decoration-line:none;text-decoration-style:solid;text-decoration-color:#000000;letter-spacing:normal;word-spacing:normal;text-transform:none;writing-mode:lr-tb;direction:ltr;text-orientation:mixed;dominant-baseline:auto;baseline-shift:baseline;text-anchor:start;white-space:normal;shape-padding:0;clip-rule:nonzero;display:inline;overflow:visible;visibility:visible;opacity:1;isolation:auto;mix-blend-mode:normal;color-interpolation:sRGB;color-interpolation-filters:linearRGB;solid-color:#000000;solid-opacity:1;vector-effect:none;fill:url(#linearGradient1176);fill-opacity:1;fill-rule:evenodd;stroke:none;stroke-width:1.00000668px;stroke-linecap:butt;stroke-linejoin:miter;stroke-miterlimit:4;stroke-dasharray:none;stroke-dashoffset:0;stroke-opacity:1;color-rendering:auto;image-rendering:auto;shape-rendering:auto;text-rendering:auto;enable-background:accumulate" />
      <path
         style="color:#000000;font-style:normal;font-variant:normal;font-weight:normal;font-stretch:normal;font-size:medium;line-height:normal;font-family:sans-serif;font-variant-ligatures:normal;font-variant-position:normal;font-variant-caps:normal;font-variant-numeric:normal;font-variant-alternates:normal;font-feature-settings:normal;text-indent:0;text-align:start;text-decoration:none;text-decoration-line:none;text-decoration-style:solid;text-decoration-color:#000000;letter-spacing:normal;word-spacing:normal;text-transform:none;writing-mode:lr-tb;direction:ltr;text-orientation:mixed;dominant-baseline:auto;baseline-shift:baseline;text-anchor:start;white-space:normal;shape-padding:0;clip-rule:nonzero;display:inline;overflow:visible;visibility:visible;opacity:0.05;isolation:auto;mix-blend-mode:normal;color-interpolation:sRGB;color-interpolation-filters:linearRGB;solid-color:#000000;solid-opacity:1;vector-effect:none;fill:#000000;fill-opacity:1;fill-rule:evenodd;stroke:#000000;stroke-width:2;stroke-linecap:butt;stroke-linejoin:round;stroke-miterlimit:4;stroke-dasharray:none;stroke-dashoffset:0;stroke-opacity:1;color-rendering:auto;image-rendering:auto;shape-rendering:auto;text-rendering:auto;enable-background:accumulate"
         d="m 322.99997,240.99997 v 1.00001 h 1.00001 v -1.00001 z m 2.00001,0 v 1.00001 h 1.00001 v -1.00001 z m 2.00002,0 v 1.00001 h 1 v -1.00001 z m 2.00001,0 v 1.00001 h 1.00001 v -1.00001 z m 2.00001,0 v 1.00001 h 1.00001 v -1.00001 z m -7.002,2.00001 0.004,1.00001 h 0.99796 v -1.00001 z m 2.00197,0 v 1.00001 H 327 v -1.00001 z m 2.00001,0 v 1.00001 h 1.00001 v -1.00001 z m 2.00002,0 v 1.00001 h 1 v -1.00001 z M 322.99997,245 v 1 h 1.00001 v -1 z m 2.00001,0 v 1 h 5.00004 v -1 z m 6.00004,0 0.0117,1 h 0.99415 l -0.0117,-1 z"
         id="path1113" />
      <path
         id="path1111"
         d="m 322.99997,241.49997 v 1.00001 h 1.00001 v -1.00001 z m 2.00001,0 v 1.00001 h 1.00001 v -1.00001 z m 2.00002,0 v 1.00001 h 1 v -1.00001 z m 2.00001,0 v 1.00001 h 1.00001 v -1.00001 z m 2.00001,0 v 1.00001 h 1.00001 v -1.00001 z m -7.002,2.00001 0.004,1.00001 h 0.99796 v -1.00001 z m 2.00197,0 v 1.00001 H 327 v -1.00001 z m 2.00001,0 v 1.00001 h 1.00001 v -1.00001 z m 2.00002,0 v 1.00001 h 1 v -1.00001 z M 322.99997,245.5 v 1 h 1.00001 v -1 z m 2.00001,0 v 1 h 5.00004 v -1 z m 6.00004,0 0.0117,1 h 0.99415 l -0.0117,-1 z"
         style="color:#000000;font-style:normal;font-variant:normal;font-weight:normal;font-stretch:normal;font-size:medium;line-height:normal;font-family:sans-serif;font-variant-ligatures:normal;font-variant-position:normal;font-variant-caps:normal;font-variant-numeric:normal;font-variant-alternates:normal;font-feature-settings:normal;text-indent:0;text-align:start;text-decoration:none;text-decoration-line:none;text-decoration-style:solid;text-decoration-color:#000000;letter-spacing:normal;word-spacing:normal;text-transform:none;writing-mode:lr-tb;direction:ltr;text-orientation:mixed;dominant-baseline:auto;baseline-shift:baseline;text-anchor:start;white-space:normal;shape-padding:0;clip-rule:nonzero;display:inline;overflow:visible;visibility:visible;opacity:0.25;isolation:auto;mix-blend-mode:normal;color-interpolation:sRGB;color-interpolation-filters:linearRGB;solid-color:#000000;solid-opacity:1;vector-effect:none;fill:#000000;fill-opacity:1;fill-rule:evenodd;stroke:none;stroke-width:1.00000668px;stroke-linecap:butt;stroke-linejoin:miter;stroke-miterlimit:4;stroke-dasharray:none;stroke-dashoffset:0;stroke-opacity:1;color-rendering:auto;image-rendering:auto;shape-rendering:auto;text-rendering:auto;enable-background:accumulate" />
      <path
         style="color:#000000;font-style:normal;font-variant:normal;font-weight:normal;font-stretch:normal;font-size:medium;line-height:normal;font-family:sans-serif;font-variant-ligatures:normal;font-variant-position:normal;font-variant-caps:normal;font-variant-numeric:normal;font-variant-alternates:normal;font-feature-settings:normal;text-indent:0;text-align:start;text-decoration:none;text-decoration-line:none;text-decoration-style:solid;text-decoration-color:#000000;letter-spacing:normal;word-spacing:normal;text-transform:none;writing-mode:lr-tb;direction:ltr;text-orientation:mixed;dominant-baseline:auto;baseline-shift:baseline;text-anchor:start;white-space:normal;shape-padding:0;clip-rule:nonzero;display:inline;overflow:visible;visibility:visible;opacity:1;isolation:auto;mix-blend-mode:normal;color-interpolation:sRGB;color-interpolation-filters:linearRGB;solid-color:#000000;solid-opacity:1;vector-effect:none;fill:#ffffff;fill-opacity:1;fill-rule:evenodd;stroke:none;stroke-width:1.00000668px;stroke-linecap:butt;stroke-linejoin:miter;stroke-miterlimit:4;stroke-dasharray:none;stroke-dashoffset:0;stroke-opacity:1;color-rendering:auto;image-rendering:auto;shape-rendering:auto;text-rendering:auto;enable-background:accumulate"
         d="m 323.00002,240.99995 v 1.00001 h 1.00001 v -1.00001 z m 2.00001,0 v 1.00001 h 1.00001 v -1.00001 z m 2.00002,0 v 1.00001 h 1 v -1.00001 z m 2.00001,0 v 1.00001 h 1.00001 v -1.00001 z m 2.00001,0 v 1.00001 h 1.00001 v -1.00001 z m -7.002,2.00001 0.004,1.00001 h 0.99796 v -1.00001 z m 2.00197,0 v 1.00001 h 1.00001 v -1.00001 z m 2.00001,0 v 1.00001 h 1.00001 v -1.00001 z m 2.00002,0 v 1.00001 h 1 v -1.00001 z m -7.00005,2.00002 v 1 h 1.00001 v -1 z m 2.00001,0 v 1 h 5.00004 v -1 z m 6.00004,0 0.0117,1 h 0.99415 l -0.0117,-1 z"
         id="path1008" />
      <path
         id="path1001"
         d="m 65.128906,100 c -2.875863,0.0331 -4.980463,-0.07051 -6.701172,0.87891 -0.860365,0.4747 -1.537696,1.27869 -1.914062,2.28125 C 56.137329,104.16272 56,105.35436 56,106.85742 v 2 c 0,-1.50306 0.137329,-2.6947 0.513672,-3.69726 0.376366,-1.00256 1.053697,-1.80655 1.914062,-2.28125 1.720709,-0.94941 3.825309,-0.84581 6.701172,-0.87891 h 0.0098 13.722656 0.0098 c 2.875863,0.0332 4.980463,-0.0705 6.701172,0.87891 0.860365,0.4747 1.537719,1.27869 1.914062,2.28125 C 87.862579,106.16272 88,107.35436 88,108.85742 v -2 c 0,-1.50306 -0.137421,-2.6947 -0.513672,-3.69726 -0.376343,-1.00256 -1.053697,-1.80655 -1.914062,-2.28125 C 83.851557,99.929535 81.746957,100.03323 78.871094,100 h -0.0098 -13.722656 z m 40.000004,0 c -2.87586,0.0331 -4.98047,-0.07051 -6.701176,0.87891 -0.860365,0.4747 -1.537696,1.27869 -1.914062,2.28125 C 96.137329,104.16272 96,105.35436 96,106.85742 v 2 c 0,-1.50306 0.137329,-2.6947 0.513672,-3.69726 0.376366,-1.00256 1.053697,-1.80655 1.914062,-2.28125 1.720706,-0.94941 3.825316,-0.84581 6.701176,-0.87891 h 0.01 13.72266 0.01 c 2.87586,0.0332 4.98047,-0.0705 6.70118,0.87891 0.86036,0.4747 1.53771,1.27869 1.91406,2.28125 0.37625,1.00256 0.51367,2.1942 0.51367,3.69726 v -2 c 0,-1.50306 -0.13742,-2.6947 -0.51367,-3.69726 -0.37635,-1.00256 -1.0537,-1.80655 -1.91406,-2.28125 -1.72071,-0.949375 -3.82532,-0.84568 -6.70118,-0.87891 h -0.01 -13.72266 z m 40,0 c -2.87586,0.0331 -4.98047,-0.07051 -6.70118,0.87891 -0.86036,0.4747 -1.53769,1.27869 -1.91406,2.28125 -0.37634,1.00256 -0.51367,2.1942 -0.51367,3.69726 v 2 c 0,-1.50306 0.13733,-2.6947 0.51367,-3.69726 0.37637,-1.00256 1.0537,-1.80655 1.91406,-2.28125 1.72071,-0.94941 3.82532,-0.84581 6.70118,-0.87891 h 0.01 13.72266 0.01 c 2.87586,0.0332 4.98047,-0.0705 6.70118,0.87891 0.86036,0.4747 1.53771,1.27869 1.91406,2.28125 0.37625,1.00256 0.51367,2.1942 0.51367,3.69726 v -2 c 0,-1.50306 -0.13742,-2.6947 -0.51367,-3.69726 -0.37635,-1.00256 -1.0537,-1.80655 -1.91406,-2.28125 -1.72071,-0.949375 -3.82532,-0.84568 -6.70118,-0.87891 h -0.01 -13.72266 z m 40,0 c -2.87586,0.0331 -4.98047,-0.07051 -6.70118,0.87891 -0.86036,0.4747 -1.53769,1.27869 -1.91406,2.28125 -0.37634,1.00256 -0.51367,2.1942 -0.51367,3.69726 v 2 c 0,-1.50306 0.13733,-2.6947 0.51367,-3.69726 0.37637,-1.00256 1.0537,-1.80655 1.91406,-2.28125 1.72071,-0.94941 3.82532,-0.84581 6.70118,-0.87891 h 0.01 13.72266 0.01 c 2.87586,0.0332 4.98047,-0.0705 6.70118,0.87891 0.86036,0.4747 1.53771,1.27869 1.91406,2.28125 0.37625,1.00256 0.51367,2.1942 0.51367,3.69726 v -2 c 0,-1.50306 -0.13742,-2.6947 -0.51367,-3.69726 -0.37635,-1.00256 -1.0537,-1.80655 -1.91406,-2.28125 -1.72071,-0.949375 -3.82532,-0.84568 -6.70118,-0.87891 h -0.01 -13.72266 z m 40,0 c -2.87586,0.0331 -4.98047,-0.07051 -6.70118,0.87891 -0.86036,0.4747 -1.53769,1.27869 -1.91406,2.28125 -0.37634,1.00256 -0.51367,2.1942 -0.51367,3.69726 v 2 c 0,-1.50306 0.13733,-2.6947 0.51367,-3.69726 0.37637,-1.00256 1.0537,-1.80655 1.91406,-2.28125 1.72071,-0.94941 3.82532,-0.84581 6.70118,-0.87891 h 0.01 13.72266 0.01 c 2.87586,0.0332 4.98047,-0.0705 6.70118,0.87891 0.86036,0.4747 1.53771,1.27869 1.91406,2.28125 0.37625,1.00256 0.51367,2.1942 0.51367,3.69726 v -2 c 0,-1.50306 -0.13742,-2.6947 -0.51367,-3.69726 -0.37635,-1.00256 -1.0537,-1.80655 -1.91406,-2.28125 -1.72071,-0.949375 -3.82532,-0.84568 -6.70118,-0.87891 h -0.01 -13.72266 z M 81.128906,140 c -2.87586,0.0331 -4.980463,-0.0705 -6.701172,0.87891 -0.860365,0.4747 -1.537696,1.27869 -1.914062,2.28125 C 72.137329,144.16272 72,145.35436 72,146.85742 v 2 c 0,-1.50306 0.137329,-2.6947 0.513672,-3.69726 0.376366,-1.00256 1.053697,-1.80655 1.914062,-2.28125 1.720709,-0.94941 3.825312,-0.84581 6.701172,-0.87891 h 0.0098 13.722656 0.0098 c 2.87586,0.0332 4.98039,-0.0705 6.701178,0.87891 0.86036,0.4747 1.53771,1.27869 1.91406,2.28125 0.37625,1.00256 0.51367,2.1942 0.51367,3.69726 v -2 c 0,-1.50306 -0.13742,-2.6947 -0.51367,-3.69726 -0.37635,-1.00256 -1.0537,-1.80655 -1.91406,-2.28125 C 99.851552,139.92954 97.746954,140.03323 94.871094,140 h -0.0098 -13.722656 z m 40.000004,0 c -2.87586,0.0331 -4.98047,-0.0705 -6.70118,0.87891 -0.86036,0.4747 -1.53769,1.27869 -1.91406,2.28125 -0.37634,1.00256 -0.51367,2.1942 -0.51367,3.69726 v 2 c 0,-1.50306 0.13733,-2.6947 0.51367,-3.69726 0.37637,-1.00256 1.0537,-1.80655 1.91406,-2.28125 1.72071,-0.94941 3.82532,-0.84581 6.70118,-0.87891 h 0.01 13.72266 0.01 c 2.87586,0.0332 4.98047,-0.0705 6.70118,0.87891 0.86036,0.4747 1.53771,1.27869 1.91406,2.28125 0.37625,1.00256 0.51367,2.1942 0.51367,3.69726 v -2 c 0,-1.50306 -0.13742,-2.6947 -0.51367,-3.69726 -0.37635,-1.00256 -1.0537,-1.80655 -1.91406,-2.28125 -1.72071,-0.94937 -3.82532,-0.84568 -6.70118,-0.87891 h -0.01 -13.72266 z m 40,0 c -2.87586,0.0331 -4.98047,-0.0705 -6.70118,0.87891 -0.86036,0.4747 -1.53769,1.27869 -1.91406,2.28125 -0.37634,1.00256 -0.51367,2.1942 -0.51367,3.69726 v 2 c 0,-1.50306 0.13733,-2.6947 0.51367,-3.69726 0.37637,-1.00256 1.0537,-1.80655 1.91406,-2.28125 1.72071,-0.94941 3.82532,-0.84581 6.70118,-0.87891 h 0.01 13.72266 0.01 c 2.87586,0.0332 4.98047,-0.0705 6.70118,0.87891 0.86036,0.4747 1.53771,1.27869 1.91406,2.28125 0.37625,1.00256 0.51367,2.1942 0.51367,3.69726 v -2 c 0,-1.50306 -0.13742,-2.6947 -0.51367,-3.69726 -0.37635,-1.00256 -1.0537,-1.80655 -1.91406,-2.28125 -1.72071,-0.94937 -3.82532,-0.84568 -6.70118,-0.87891 h -0.01 -13.72266 z m 40,0 c -2.87586,0.0331 -4.98047,-0.0705 -6.70118,0.87891 -0.86036,0.4747 -1.53769,1.27869 -1.91406,2.28125 -0.37634,1.00256 -0.51367,2.1942 -0.51367,3.69726 v 2 c 0,-1.50306 0.13733,-2.6947 0.51367,-3.69726 0.37637,-1.00256 1.0537,-1.80655 1.91406,-2.28125 1.72071,-0.94941 3.82532,-0.84581 6.70118,-0.87891 h 0.01 13.72266 0.01 c 2.87586,0.0332 4.98047,-0.0705 6.70118,0.87891 0.86036,0.4747 1.53771,1.27869 1.91406,2.28125 0.37625,1.00256 0.51367,2.1942 0.51367,3.69726 v -2 c 0,-1.50306 -0.13742,-2.6947 -0.51367,-3.69726 -0.37635,-1.00256 -1.0537,-1.80655 -1.91406,-2.28125 -1.72071,-0.94937 -3.82532,-0.84568 -6.70118,-0.87891 h -0.01 -13.72266 z M 65.128906,180 c -2.87586,0.0331 -4.980463,-0.0705 -6.701172,0.87891 -0.860365,0.4747 -1.537696,1.27869 -1.914062,2.28125 C 56.137329,184.16272 56,185.35436 56,186.85742 v 2 c 0,-1.50306 0.137329,-2.6947 0.513672,-3.69726 0.376366,-1.00256 1.053697,-1.80655 1.914062,-2.28125 1.720709,-0.94941 3.825312,-0.84581 6.701172,-0.87891 h 0.0098 13.722656 0.0098 c 2.87586,0.0332 4.980462,-0.0705 6.701172,0.87891 0.86036,0.4747 1.537712,1.27869 1.914062,2.28125 C 87.862578,186.16272 88,187.35436 88,188.85742 v -2 c 0,-1.50306 -0.137422,-2.6947 -0.513672,-3.69726 -0.37635,-1.00256 -1.053702,-1.80655 -1.914062,-2.28125 -1.72071,-0.94937 -3.825312,-0.84568 -6.701172,-0.87891 h -0.0098 -13.722656 z m 40.000004,0 c -2.87586,0.0331 -4.98047,-0.0705 -6.701176,0.87891 -0.86036,0.4747 -1.537692,1.27869 -1.914062,2.28125 C 96.137332,184.16272 96,185.35436 96,186.85742 v 2 c 0,-1.50306 0.137332,-2.6947 0.513672,-3.69726 0.37637,-1.00256 1.053702,-1.80655 1.914062,-2.28125 1.720706,-0.94941 3.825316,-0.84581 6.701176,-0.87891 h 0.01 93.72266 0.01 c 2.87586,0.0332 4.98047,-0.0705 6.70118,0.87891 0.86036,0.4747 1.53771,1.27869 1.91406,2.28125 0.37625,1.00256 0.51367,2.1942 0.51367,3.69726 v -2 c 0,-1.50306 -0.13742,-2.6947 -0.51367,-3.69726 -0.37635,-1.00256 -1.0537,-1.80655 -1.91406,-2.28125 -1.72071,-0.94937 -3.82532,-0.84568 -6.70118,-0.87891 h -0.01 -93.72266 z m 120,0 c -2.87586,0.0331 -4.98047,-0.0705 -6.70118,0.87891 -0.86036,0.4747 -1.53769,1.27869 -1.91406,2.28125 -0.37634,1.00256 -0.51367,2.1942 -0.51367,3.69726 v 2 c 0,-1.50306 0.13733,-2.6947 0.51367,-3.69726 0.37637,-1.00256 1.0537,-1.80655 1.91406,-2.28125 1.72071,-0.94941 3.82532,-0.84581 6.70118,-0.87891 h 0.01 13.72266 0.01 c 2.87586,0.0332 4.98047,-0.0705 6.70118,0.87891 0.86036,0.4747 1.53771,1.27869 1.91406,2.28125 0.37625,1.00256 0.51367,2.1942 0.51367,3.69726 v -2 c 0,-1.50306 -0.13742,-2.6947 -0.51367,-3.69726 -0.37635,-1.00256 -1.0537,-1.80655 -1.91406,-2.28125 -1.72071,-0.94937 -3.82532,-0.84568 -6.70118,-0.87891 h -0.01 -13.72266 z"
         style="color:#000000;font-style:normal;font-variant:normal;font-weight:normal;font-stretch:normal;font-size:medium;line-height:normal;font-family:sans-serif;font-variant-ligatures:normal;font-variant-position:normal;font-variant-caps:normal;font-variant-numeric:normal;font-variant-alternates:normal;font-feature-settings:normal;text-indent:0;text-align:start;text-decoration:none;text-decoration-line:none;text-decoration-style:solid;text-decoration-color:#000000;letter-spacing:normal;word-spacing:normal;text-transform:none;writing-mode:lr-tb;direction:ltr;text-orientation:mixed;baseline-shift:baseline;text-anchor:start;white-space:normal;shape-padding:0;clip-rule:nonzero;display:inline;overflow:visible;visibility:visible;opacity:0.4;isolation:auto;mix-blend-mode:normal;color-interpolation:sRGB;color-interpolation-filters:linearRGB;solid-color:#000000;solid-opacity:1;fill:#ffffff;fill-opacity:1;fill-rule:nonzero;stroke:none;stroke-width:9.14285851;stroke-linecap:butt;stroke-linejoin:miter;stroke-miterlimit:4;stroke-dasharray:none;stroke-dashoffset:0;stroke-opacity:1;marker:none;color-rendering:auto;image-rendering:auto;shape-rendering:auto;text-rendering:auto;enable-background:accumulate" />
    </g>
  </g>
</svg>
