<?xml version="1.0" encoding="UTF-8" standalone="no"?>
<svg
   xmlns:dc="http://purl.org/dc/elements/1.1/"
   xmlns:cc="http://creativecommons.org/ns#"
   xmlns:rdf="http://www.w3.org/1999/02/22-rdf-syntax-ns#"
   xmlns:svg="http://www.w3.org/2000/svg"
   xmlns="http://www.w3.org/2000/svg"
   xmlns:xlink="http://www.w3.org/1999/xlink"
   width="32"
   version="1.0"
   style="display:inline;enable-background:new"
   id="svg11300"
   height="32">
  <title
     id="title8836">Optical Drive</title>
  <metadata
     id="metadata154">
    <rdf:RDF>
      <cc:Work
         rdf:about="">
        <dc:format>image/svg+xml</dc:format>
        <dc:type
           rdf:resource="http://purl.org/dc/dcmitype/StillImage" />
        <dc:title />
        <dc:creator>
          <cc:Agent>
            <dc:title />
          </cc:Agent>
        </dc:creator>
        <dc:contributor>
          <cc:Agent>
            <dc:title />
          </cc:Agent>
        </dc:contributor>
        <dc:source />
        <cc:license
           rdf:resource="" />
        <dc:subject>
          <rdf:Bag />
        </dc:subject>
      </cc:Work>
    </rdf:RDF>
  </metadata>
  <defs
     id="defs3">
    <linearGradient
       id="linearGradient2806">
      <stop
         style="stop-color:black;stop-opacity:1;"
         offset="0"
         id="stop2808" />
      <stop
         style="stop-color:black;stop-opacity:0;"
         offset="1"
         id="stop2810" />
    </linearGradient>
    <linearGradient
       id="linearGradient2796">
      <stop
         style="stop-color:white;stop-opacity:1;"
         offset="0"
         id="stop2798" />
      <stop
         style="stop-color:#dfdfdf;stop-opacity:1;"
         offset="1"
         id="stop2800" />
    </linearGradient>
    <linearGradient
       id="linearGradient2788">
      <stop
         style="stop-color:white;stop-opacity:1;"
         offset="0"
         id="stop2790" />
      <stop
         style="stop-color:white;stop-opacity:0;"
         offset="1"
         id="stop2792" />
    </linearGradient>
    <linearGradient
       id="linearGradient2778">
      <stop
         style="stop-color:#ff0202;stop-opacity:1;"
         offset="0"
         id="stop2780" />
      <stop
         style="stop-color:#b20000;stop-opacity:1;"
         offset="1"
         id="stop2782" />
    </linearGradient>
    <radialGradient
       xlink:href="#linearGradient2778"
       r="29.755747"
       id="radialGradient2784"
       gradientUnits="userSpaceOnUse"
       gradientTransform="matrix(1.531919,0,0,1.531919,-16.12973,-7.117303)"
       fy="13.380429"
       fx="30.323671"
       cy="13.380429"
       cx="30.323671" />
    <linearGradient
       y2="29.207693"
       y1="29.207693"
       xlink:href="#linearGradient2788"
       x2="59.148403"
       x1="-0.36309087"
       id="linearGradient2794"
       gradientUnits="userSpaceOnUse" />
    <radialGradient
       xlink:href="#linearGradient2796"
       r="18.624397"
       id="radialGradient2802"
       gradientUnits="userSpaceOnUse"
       gradientTransform="matrix(1.316528,0,0,1.316528,-10.05306,-9.280346)"
       fy="22.226139"
       fx="31.760437"
       cy="22.226139"
       cx="31.760437" />
    <radialGradient
       xlink:href="#linearGradient2806"
       r="17.25"
       id="radialGradient2812"
       gradientUnits="userSpaceOnUse"
       gradientTransform="matrix(1,0,0,0.333333,0,26.5)"
       fy="39.75"
       fx="25.25"
       cy="39.75"
       cx="25.25" />
    <radialGradient
       r="17.25"
       fy="39.75"
       fx="25.25"
       cy="39.75"
       cx="25.25"
       gradientTransform="matrix(1,0,0,0.333333,0,26.5)"
       gradientUnits="userSpaceOnUse"
       id="radialGradient22312"
       xlink:href="#linearGradient2806" />
    <radialGradient
       r="29.755747"
       fy="13.380429"
       fx="30.323671"
       cy="13.380429"
       cx="30.323671"
       gradientTransform="matrix(1.531919,0,0,1.531919,-16.12973,-7.117303)"
       gradientUnits="userSpaceOnUse"
       id="radialGradient22314"
       xlink:href="#linearGradient2778" />
    <radialGradient
       r="18.624397"
       fy="22.226139"
       fx="31.760437"
       cy="22.226139"
       cx="31.760437"
       gradientTransform="matrix(1.316528,0,0,1.316528,-10.05306,-9.280346)"
       gradientUnits="userSpaceOnUse"
       id="radialGradient22316"
       xlink:href="#linearGradient2796" />
    <linearGradient
       y2="29.207693"
       x2="59.148403"
       y1="29.207693"
       x1="-0.36309087"
       gradientUnits="userSpaceOnUse"
       id="linearGradient22318"
       xlink:href="#linearGradient2788" />
    <radialGradient
       r="17.25"
       fy="39.75"
       fx="25.25"
       cy="39.75"
       cx="25.25"
       gradientTransform="matrix(1,0,0,0.333333,0,26.5)"
       gradientUnits="userSpaceOnUse"
       id="radialGradient22320"
       xlink:href="#linearGradient2806" />
    <radialGradient
       r="29.755747"
       fy="13.380429"
       fx="30.323671"
       cy="13.380429"
       cx="30.323671"
       gradientTransform="matrix(1.531919,0,0,1.531919,-16.12973,-7.117303)"
       gradientUnits="userSpaceOnUse"
       id="radialGradient22322"
       xlink:href="#linearGradient2778" />
    <radialGradient
       r="18.624397"
       fy="22.226139"
       fx="31.760437"
       cy="22.226139"
       cx="31.760437"
       gradientTransform="matrix(1.316528,0,0,1.316528,-10.05306,-9.280346)"
       gradientUnits="userSpaceOnUse"
       id="radialGradient22324"
       xlink:href="#linearGradient2796" />
    <linearGradient
       y2="29.207693"
       x2="59.148403"
       y1="29.207693"
       x1="-0.36309087"
       gradientUnits="userSpaceOnUse"
       id="linearGradient22326"
       xlink:href="#linearGradient2788" />
    <radialGradient
       r="29.755747"
       fy="13.380429"
       fx="30.323671"
       cy="13.380429"
       cx="30.323671"
       gradientTransform="matrix(1.531919,0,0,1.531919,-16.12973,-7.117303)"
       gradientUnits="userSpaceOnUse"
       id="radialGradient22328"
       xlink:href="#linearGradient2778" />
    <radialGradient
       r="18.624397"
       fy="22.226139"
       fx="31.760437"
       cy="22.226139"
       cx="31.760437"
       gradientTransform="matrix(1.316528,0,0,1.316528,-10.05306,-9.280346)"
       gradientUnits="userSpaceOnUse"
       id="radialGradient22330"
       xlink:href="#linearGradient2796" />
  </defs>
  <g
     transform="translate(-303,-126)"
     style="display:none"
     id="layer6">
    <rect
       y="50"
       x="296"
       width="48"
       style="display:inline;overflow:visible;visibility:visible;fill:#eeeeec;fill-opacity:1;fill-rule:nonzero;stroke:none;stroke-width:2;marker:none;enable-background:accumulate"
       id="rect6284"
       height="48" />
    <rect
       y="126"
       x="303"
       width="32"
       style="display:inline;overflow:visible;visibility:visible;fill:#eeeeec;fill-opacity:1;fill-rule:nonzero;stroke:none;stroke-width:2;marker:none;enable-background:accumulate"
       id="rect6592"
       height="32" />
    <rect
       height="24"
       id="rect22310"
       style="display:inline;overflow:visible;visibility:visible;fill:#babdb6;fill-opacity:1;fill-rule:nonzero;stroke:none;stroke-width:2;marker:none;enable-background:accumulate"
       width="24"
       x="302"
       y="176" />
    <rect
       y="177"
       x="303"
       width="22"
       style="display:inline;overflow:visible;visibility:visible;fill:#eeeeec;fill-opacity:1;fill-rule:nonzero;stroke:none;stroke-width:2;marker:none;enable-background:accumulate"
       id="rect6749"
       height="22" />
    <rect
       y="219"
       x="303"
       width="16"
       style="display:inline;overflow:visible;visibility:visible;fill:#eeeeec;fill-opacity:1;fill-rule:nonzero;stroke:none;stroke-width:2;marker:none;enable-background:accumulate"
       id="rect6833"
       height="16" />
    <text
       y="21.513618"
       xml:space="preserve"
       x="20.970737"
       style="font-style:normal;font-weight:normal;line-height:0%;font-family:'Bitstream Vera Sans';display:inline;fill:#000000;fill-opacity:1;stroke:none;enable-background:new"
       id="context"><tspan
         style="font-size:18.30070686px;line-height:1.25"
         y="21.513618"
         x="20.970737"
         id="tspan2716">emblems</tspan></text>
    <text
       y="21.513618"
       xml:space="preserve"
       x="191.97073"
       style="font-style:normal;font-variant:normal;font-weight:bold;font-stretch:normal;line-height:0%;font-family:'Droid Sans';-inkscape-font-specification:'Droid Sans Bold';text-align:start;writing-mode:lr-tb;text-anchor:start;display:inline;fill:#000000;fill-opacity:1;stroke:none;enable-background:new"
       id="icon-name"><tspan
         style="font-size:18.30070686px;line-height:1.25"
         y="21.513618"
         x="191.97073"
         id="tspan3023">emblem-important</tspan></text>
  </g>
  <g
     transform="translate(-303,-126)"
     style="display:inline"
     id="layer2">
    <g
       transform="translate(295.06251,50.949541)"
       style="display:inline;enable-background:new"
       id="g48">
      <ellipse
         ry="5.75"
         rx="17.25"
         cy="39.75"
         cx="25.25"
         transform="matrix(1.15942,0,0,1.507246,-3.775362,-22.16304)"
         style="color:#000000;display:inline;overflow:visible;visibility:visible;opacity:0.64432989;fill:url(#radialGradient2812);fill-opacity:1;fill-rule:nonzero;stroke:none;stroke-width:1;marker:none"
         id="path2804" />
      <circle
         r="29.010935"
         cy="29.207693"
         cx="29.392656"
         transform="matrix(0.67131,0,0,0.67131,5.222369,3.418373)"
         style="fill:url(#radialGradient22328);fill-opacity:1;fill-rule:evenodd;stroke:#a40000;stroke-width:1.48962474;stroke-linecap:butt;stroke-linejoin:miter;stroke-miterlimit:4;stroke-dasharray:none;stroke-opacity:1"
         id="path907" />
      <circle
         r="18.624397"
         cy="29.319231"
         cx="31.760445"
         transform="matrix(0.780964,0,0,0.780964,0.172888,-0.147684)"
         style="fill:url(#radialGradient22330);fill-opacity:1;fill-rule:evenodd;stroke:none"
         id="path2159" />
      <path
         style="font-style:normal;font-variant:normal;font-weight:normal;font-stretch:normal;font-size:19.83371353px;line-height:100%;font-family:'Dutch801 SWM';writing-mode:lr-tb;text-anchor:start;fill:#a63434;fill-opacity:1;stroke:none"
         id="text1299"
         d="m 23.270741,31.644037 c -3e-6,-0.504836 0.184052,-0.946569 0.552168,-1.325199 0.378624,-0.389142 0.820357,-0.583715 1.325199,-0.583718 0.51535,3e-6 0.962341,0.189317 1.340975,0.567941 0.378622,0.378633 0.567935,0.825624 0.567944,1.340976 -9e-6,0.50484 -0.194582,0.946573 -0.58372,1.325201 -0.378634,0.36811 -0.820367,0.552165 -1.325199,0.552165 -0.483807,0 -0.920282,-0.189313 -1.309423,-0.567941 -0.378632,-0.389148 -0.567947,-0.825619 -0.567944,-1.309425" />
      <path
         style="font-style:normal;font-variant:normal;font-weight:normal;font-stretch:normal;font-size:19.83371353px;line-height:100%;font-family:'Dutch801 SWM';writing-mode:lr-tb;text-anchor:start;fill:#a63434;fill-opacity:1;stroke:none"
         id="path1591"
         d="m 22.990601,14.858179 c -0.05384,-0.252402 -0.09421,-0.510078 -0.121124,-0.773033 -0.01347,-0.262918 -0.02019,-0.525854 -0.02019,-0.788809 -4e-6,-0.694132 0.195141,-1.220004 0.585436,-1.577619 0.403742,-0.368088 0.982446,-0.552145 1.736114,-0.552165 0.780572,2e-5 1.372734,0.178817 1.776489,0.536389 0.417197,0.357615 0.6258,0.888746 0.62581,1.593395 -1e-5,0.262955 -0.01347,0.525891 -0.04037,0.788809 -0.01347,0.262955 -0.04038,0.515373 -0.08075,0.757256 l -1.958178,12.447409 h -0.82768 L 22.990605,14.858179" />
      <circle
         r="29.010935"
         cy="29.207693"
         cx="29.392656"
         transform="matrix(0.629301,0,0,0.629301,6.457116,4.64535)"
         style="opacity:0.37628868;fill:none;stroke:url(#linearGradient2794);stroke-width:1.58906472;stroke-linecap:butt;stroke-linejoin:miter;stroke-miterlimit:4;stroke-dasharray:none;stroke-opacity:1"
         id="path2786" />
    </g>
    <g
       transform="matrix(1.004178,0,0,1.004178,302.55726,126.75664)"
       style="display:inline;enable-background:new"
       id="g32">
      <ellipse
         ry="5.75"
         rx="17.25"
         cy="39.75"
         cx="25.25"
         transform="matrix(0.799736,0,0,1.040426,-4.3066155,-16.125896)"
         style="color:#000000;display:inline;overflow:visible;visibility:visible;opacity:0.64432989;fill:url(#radialGradient22320);fill-opacity:1;fill-rule:nonzero;stroke:none;stroke-width:1;marker:none"
         id="path42" />
      <circle
         r="29.010935"
         cy="29.207693"
         cx="29.392656"
         transform="matrix(0.463051,0,0,0.463394,2.783652,1.709282)"
         style="fill:url(#radialGradient22322);fill-opacity:1;fill-rule:evenodd;stroke:#a40000;stroke-width:2.14980912;stroke-linecap:butt;stroke-linejoin:miter;stroke-miterlimit:4;stroke-dasharray:none;stroke-opacity:1"
         id="path44" />
      <circle
         r="18.624397"
         cy="29.319231"
         cx="31.760445"
         transform="matrix(0.538687,0,0,0.539085,-0.699339,-0.752305)"
         style="fill:url(#radialGradient22324);fill-opacity:1;fill-rule:evenodd;stroke:none"
         id="path46" />
      <path
         style="font-style:normal;font-variant:normal;font-weight:normal;font-stretch:normal;font-size:19.83371353px;line-height:100%;font-family:'Dutch801 SWM';writing-mode:lr-tb;text-anchor:start;fill:#a63434;fill-opacity:1;stroke:none"
         id="path48"
         d="m 15.232916,21.192967 c -2e-6,-0.348479 0.126955,-0.6534 0.38087,-0.914762 0.261165,-0.268617 0.565861,-0.402927 0.914086,-0.40293 0.355474,3e-6 0.663796,0.130683 0.924967,0.39204 0.261163,0.261364 0.391746,0.569913 0.391752,0.925652 -6e-6,0.348482 -0.134217,0.653403 -0.402634,0.914764 -0.26117,0.254099 -0.565866,0.38115 -0.914085,0.38115 -0.333716,0 -0.634784,-0.13068 -0.903203,-0.392041 -0.261171,-0.268622 -0.391755,-0.56991 -0.391753,-0.903873" />
      <path
         style="font-style:normal;font-variant:normal;font-weight:normal;font-stretch:normal;font-size:19.83371353px;line-height:100%;font-family:'Dutch801 SWM';writing-mode:lr-tb;text-anchor:start;fill:#a63434;fill-opacity:1;stroke:none"
         id="path50"
         d="m 15.039683,9.605981 c -0.03713,-0.1742282 -0.06499,-0.3520975 -0.08355,-0.5336108 -0.0093,-0.1814877 -0.01393,-0.3629879 -0.01393,-0.5445011 -3e-6,-0.4791473 0.134603,-0.8421476 0.403817,-1.089003 0.27849,-0.2540848 0.677664,-0.3811361 1.197523,-0.3811499 0.538418,1.38e-5 0.946875,0.1234343 1.225373,0.3702601 0.287772,0.2468554 0.431659,0.6134858 0.431667,1.0998928 -8e-6,0.1815132 -0.0093,0.3630134 -0.02785,0.5445011 -0.0093,0.1815133 -0.02786,0.3557529 -0.0557,0.5227204 l -1.350697,8.5922304 h -0.570911 l -1.15575,-8.58134" />
      <circle
         r="29.010935"
         cy="29.207693"
         cx="29.392656"
         transform="matrix(0.42788778,0,0,0.42820518,3.8171768,2.7370625)"
         style="opacity:0.37628868;fill:none;stroke:url(#linearGradient22326);stroke-width:2.32647562;stroke-linecap:butt;stroke-linejoin:miter;stroke-miterlimit:4;stroke-dasharray:none;stroke-opacity:1"
         id="path52" />
    </g>
    <g
       transform="matrix(1.0244573,0,0,1.0244573,302.7831,177.56101)"
       style="display:inline;enable-background:new"
       id="g22">
      <ellipse
         ry="5.75"
         rx="17.25"
         cy="39.75"
         cx="25.25"
         transform="matrix(0.551085,0,0,0.68280556,-2.710736,-10.140485)"
         style="color:#000000;display:inline;overflow:visible;visibility:visible;opacity:0.64432989;fill:url(#radialGradient22312);fill-opacity:1;fill-rule:nonzero;stroke:none;stroke-width:1;marker:none"
         id="path55" />
      <circle
         r="29.010935"
         cy="29.207693"
         cx="29.392656"
         transform="matrix(0.31908,0,0,0.319667,1.565977,0.853677)"
         style="fill:url(#radialGradient22314);fill-opacity:1;fill-rule:evenodd;stroke:#a40000;stroke-width:3.05637765;stroke-linecap:butt;stroke-linejoin:miter;stroke-miterlimit:4;stroke-dasharray:none;stroke-opacity:1"
         id="path57" />
      <circle
         r="18.624397"
         cy="29.319231"
         cx="31.760445"
         transform="matrix(0.3712,0,0,0.371882,-0.834093,-0.844422)"
         style="fill:url(#radialGradient22316);fill-opacity:1;fill-rule:evenodd;stroke:none"
         id="path59" />
      <path
         style="font-style:normal;font-variant:normal;font-weight:normal;font-stretch:normal;font-size:19.83371353px;line-height:100%;font-family:'Dutch801 SWM';writing-mode:lr-tb;text-anchor:start;fill:#a63434;fill-opacity:1;stroke:none"
         id="path61"
         d="m 10.144553,14.294287 c -2e-6,-0.240395 0.08748,-0.450741 0.26245,-0.631039 0.179965,-0.185302 0.389926,-0.277955 0.629882,-0.277957 0.244951,2e-6 0.457411,0.09015 0.63738,0.270445 0.179962,0.180299 0.269944,0.393148 0.269949,0.638551 -5e-6,0.240396 -0.09249,0.450743 -0.277448,0.63104 -0.179969,0.175287 -0.389929,0.262932 -0.629881,0.262932 -0.229957,0 -0.437418,-0.09015 -0.622382,-0.270445 -0.179969,-0.185306 -0.269952,-0.393146 -0.26995,-0.623527" />
      <path
         style="font-style:normal;font-variant:normal;font-weight:normal;font-stretch:normal;font-size:19.83371353px;line-height:100%;font-family:'Dutch801 SWM';writing-mode:lr-tb;text-anchor:start;fill:#a63434;fill-opacity:1;stroke:none"
         id="path63"
         d="M 10.011399,6.3011302 C 9.985809,6.1809407 9.966619,6.0582395 9.953828,5.9330245 c -0.0064,-0.1251973 -0.0096,-0.2504032 -0.0096,-0.3756182 -2.1e-6,-0.3305345 0.092752,-0.5809464 0.278263,-0.7512369 0.191904,-0.1752777 0.466968,-0.2629226 0.825193,-0.2629321 0.371015,9.5e-6 0.652476,0.08515 0.844384,0.2554199 0.198299,0.1702905 0.297449,0.4232065 0.297455,0.7587491 -6e-6,0.125215 -0.0064,0.2504209 -0.01919,0.3756182 -0.0064,0.125215 -0.0192,0.2454123 -0.03838,0.360593 L 11.20121,12.220874 H 10.807806 L 10.011397,6.3011302" />
      <circle
         r="29.010935"
         cy="29.207693"
         cx="29.392656"
         transform="matrix(0.283879,0,0,0.284403,2.600623,1.883658)"
         style="opacity:0.37628868;fill:none;stroke:url(#linearGradient22318);stroke-width:3.43535829;stroke-linecap:butt;stroke-linejoin:miter;stroke-miterlimit:4;stroke-dasharray:none;stroke-opacity:1"
         id="path65" />
    </g>
    <g
       transform="translate(303,219)"
       style="display:inline;enable-background:new"
       id="g16">
      <circle
         r="29.010935"
         cy="29.207693"
         cx="29.392656"
         transform="matrix(0.252052,0,0,0.252522,0.707678,0.513334)"
         style="fill:url(#radialGradient2784);fill-opacity:1;fill-rule:evenodd;stroke:#a40000;stroke-width:3.96373653;stroke-linecap:butt;stroke-linejoin:miter;stroke-miterlimit:4;stroke-dasharray:none;stroke-opacity:1"
         id="path68" />
      <circle
         r="18.624397"
         cy="29.319231"
         cx="31.760445"
         transform="matrix(0.297898,0,0,0.298453,-1.336708,-0.965415)"
         style="fill:url(#radialGradient2802);fill-opacity:1;fill-rule:evenodd;stroke:none;stroke-width:1.00000003pt;stroke-linecap:butt;stroke-linejoin:miter;stroke-opacity:1"
         id="path70" />
      <path
         style="font-style:normal;font-variant:normal;font-weight:normal;font-stretch:normal;font-size:19.83371353px;line-height:100%;font-family:'Dutch801 SWM';writing-mode:lr-tb;text-anchor:start;fill:#a63434;fill-opacity:1;stroke:none;stroke-width:1px;stroke-linecap:butt;stroke-linejoin:miter;stroke-opacity:1"
         id="path72"
         d="m 7.4841858,11.130791 c -1.6e-6,-0.189901 0.069105,-0.356065 0.2073181,-0.498492 0.1421604,-0.14638 0.3080157,-0.219571 0.497565,-0.219573 0.193495,2e-6 0.3613244,0.07122 0.5034879,0.213639 0.1421581,0.142428 0.2132379,0.310569 0.2132418,0.504426 -3.9e-6,0.189901 -0.073059,0.356066 -0.2191655,0.498492 -0.1421636,0.138469 -0.308018,0.207704 -0.4975642,0.207704 -0.1816508,0 -0.3455312,-0.07121 -0.4916405,-0.213639 C 7.5552648,11.476965 7.4841842,11.312781 7.4841858,11.130791" />
      <path
         style="font-style:normal;font-variant:normal;font-weight:normal;font-stretch:normal;font-size:19.83371353px;line-height:100%;font-family:'Dutch801 SWM';writing-mode:lr-tb;text-anchor:start;fill:#a63434;fill-opacity:1;stroke:none;stroke-width:1px;stroke-linecap:butt;stroke-linejoin:miter;stroke-opacity:1"
         id="path74"
         d="M 7.3790029,4.8165695 C 7.3587889,4.7216253 7.3436294,4.6246971 7.3335255,4.5257831 7.3284698,4.426883 7.3259435,4.3279762 7.3259452,4.2290622 7.3259435,3.9679553 7.3992134,3.7701416 7.5457548,3.63562 7.6973462,3.4971588 7.9146285,3.4279234 8.1976025,3.4279159 c 0.2930773,7.5e-6 0.5154128,0.067264 0.6670074,0.2017698 0.1566431,0.1345216 0.234965,0.3343134 0.2349698,0.5993765 -4.8e-6,0.098914 -0.00506,0.1978208 -0.01516,0.2967209 -0.00506,0.098914 -0.015163,0.1938643 -0.030318,0.2848517 L 8.3188763,9.4928916 H 8.0081133 L 7.3790029,4.8165695" />
    </g>
  </g>
  <g
     transform="translate(-303,-126)"
     style="display:inline"
     id="layer4" />
</svg>
