<?xml version="1.0" encoding="UTF-8"?>
<svg enable-background="new" version="1.0" viewBox="0 0 256 256" xmlns="http://www.w3.org/2000/svg" xmlns:xlink="http://www.w3.org/1999/xlink"><defs><filter id="i" x="-.15294" y="-1.2777" width="1.3059" height="3.5554" color-interpolation-filters="sRGB"><feGaussianBlur stdDeviation="12.776994"/></filter><filter id="j" x="-.076471" y="-.63885" width="1.1529" height="2.2777" color-interpolation-filters="sRGB"><feGaussianBlur stdDeviation="6.388497"/></filter><clipPath id="o"><rect x="56" y="60" width="184" height="184" rx="25.053" ry="25.053" enable-background="new" fill="url(#radialGradient4319)" fill-rule="evenodd"/></clipPath><radialGradient id="d" cx="17.321" cy="6.8679" r="20.531" gradientTransform="matrix(13.339 1.2973e-6 -3.2848e-7 3.3774 -169.04 33.206)" gradientUnits="userSpaceOnUse"><stop stop-color="#fff" offset="0"/><stop stop-color="#d4d4d4" offset="1"/></radialGradient><radialGradient id="c" cx="176.67" cy="214.94" r="92" gradientTransform="matrix(1.5656 0 0 .95658 -83.703 9.3322)" gradientUnits="userSpaceOnUse"><stop stop-color="#eeeeec" offset="0"/><stop stop-color="#eeeeec" stop-opacity="0" offset="1"/></radialGradient><linearGradient id="g" x1="131.5" x2="131.5" y1="234.5" y2="206.98" gradientTransform="translate(0,1)" gradientUnits="userSpaceOnUse"><stop stop-color="#fff" offset="0"/><stop stop-color="#fff" stop-opacity="0" offset="1"/></linearGradient><filter id="n" x="-.036813" y="-.1621" width="1.0736" height="1.3242" color-interpolation-filters="sRGB"><feGaussianBlur stdDeviation="2.6382812"/></filter><radialGradient id="b" cx="132" cy="272.15" r="92.332" gradientTransform="matrix(2.0831 0 0 .22596 -158.48 172.97)" gradientUnits="userSpaceOnUse"><stop stop-color="#fff" offset="0"/><stop stop-color="#fff" stop-opacity="0" offset="1"/></radialGradient><filter id="m" color-interpolation-filters="sRGB"><feGaussianBlur stdDeviation="0.98531245"/></filter><radialGradient id="a" cx="148" cy="152" r="90" gradientTransform="matrix(4.0735 .53629 -.11022 .83722 -438.13 -54.628)" gradientUnits="userSpaceOnUse"><stop stop-color="#fff" offset="0"/><stop stop-color="#fff" stop-opacity="0" offset="1"/></radialGradient><filter id="l" color-interpolation-filters="sRGB"><feGaussianBlur stdDeviation="0.83"/></filter><linearGradient id="f" x1="195.48" x2="100.52" y1="234.24" y2="69.761" gradientUnits="userSpaceOnUse"><stop stop-color="#2e3436" offset="0"/><stop stop-color="#888a85" offset="1"/></linearGradient><filter id="k" color-interpolation-filters="sRGB"><feGaussianBlur stdDeviation="0.91999947"/></filter><linearGradient id="h"><stop stop-color="#888a85" offset="0"/><stop stop-color="#d3d7cf" offset="1"/></linearGradient><linearGradient id="e" x1="491.22" x2="491.22" y1="506.65" y2="614.15" gradientUnits="userSpaceOnUse" xlink:href="#h"/></defs><g transform="translate(-20 -28)"><g><g transform="translate(-2,-6)" enable-background="new"><rect transform="matrix(.94656 0 0 .68863 7.8959 80.837)" x="47.5" y="222" width="200.5" height="24" rx="25.041" ry="12" color="#000000" enable-background="accumulate" filter="url(#i)" opacity=".5"/><rect transform="matrix(.94656 0 0 .68863 7.8959 76.837)" x="47.5" y="222" width="200.5" height="24" rx="25.041" ry="12" color="#000000" enable-background="accumulate" filter="url(#j)" opacity=".5"/><g clip-path="url(#o)"><rect x="56" y="60" width="184" height="184" rx="25.053" ry="25.053" fill="url(#d)" fill-rule="evenodd"/><rect x="56" y="60" width="184" height="184" rx="25.053" ry="25.053" enable-background="new" fill="url(#c)" fill-rule="evenodd"/><path d="m62 189.94v30c0 10.657 8.4058 19.062 19.062 19.062h133.88c10.657 0 19.062-8.4058 19.062-19.062v-30c0 10.657-8.4058 19.062-19.062 19.062h-133.88c-10.657 0-19.062-8.4058-19.062-19.062z" enable-background="new" fill="url(#g)" fill-rule="evenodd" filter="url(#n)"/><path transform="matrix(1 0 0 -1 0 300.94)" d="m62 212.94v6c0 10.657 8.4058 19.062 19.062 19.062h133.87c10.657 0 19.062-8.4058 19.062-19.062v-6c0 10.657-8.4058 19.062-19.062 19.062h-133.87c-10.657 0-19.062-8.4058-19.062-19.062z" enable-background="new" fill="url(#b)" fill-rule="evenodd" filter="url(#m)"/><path d="m60 76c-1.108 0-2 0.892-2 2v148c0 1.108 0.892 2 2 2s2-0.892 2-2v-148c0-1.108-0.892-2-2-2zm176 0c-1.108 0-2 0.892-2 2v148c0 1.108 0.892 2 2 2s2-0.892 2-2v-148c0-1.108-0.892-2-2-2z" color="#000000" enable-background="accumulate" fill="url(#a)" filter="url(#l)"/><rect x="56" y="60" width="184" height="184" rx="25.053" ry="25.053" enable-background="new" fill="none" filter="url(#k)" stroke="url(#f)" stroke-width="2"/></g></g><g transform="translate(-324.19 -410.18)" enable-background="new"><path d="m502.41 504.89c-10.796 0-19.547 8.7515-19.547 19.547 0 0.92055 0.0826 1.7882 0.20576 2.6749l-32.922 16.049c-3.5002-3.3016-8.183-5.3498-13.374-5.3498-10.796 0-19.547 8.7515-19.547 19.547s8.7516 19.547 19.547 19.547c5.2946 0 10.06-2.1367 13.58-5.5555l32.716 16.461c-0.10532 0.82172-0.20576 1.6188-0.20576 2.4691 0 10.796 8.7516 19.547 19.547 19.547 10.796 0 19.547-8.7515 19.547-19.547s-8.7516-19.547-19.547-19.547c-5.1358 0-9.6802 2.1106-13.169 5.3498l-33.127-16.667c0.0738-0.6903 0.20575-1.3477 0.20575-2.0576 0-0.78011-0.11689-1.5072-0.20575-2.2634l33.333-16.255c3.4647 3.1243 7.9302 5.144 12.963 5.144 10.796 0 19.547-8.7515 19.547-19.547s-8.7516-19.547-19.547-19.547z" color="#000000" display="block" enable-background="new" fill="#fff"/><path d="m502.41 503.18c-10.796 0-19.547 8.7515-19.547 19.547 0 0.92055 0.0826 1.7882 0.20576 2.6749l-32.922 16.049c-3.5002-3.3016-8.183-5.3498-13.374-5.3498-10.796 0-19.547 8.7515-19.547 19.547s8.7516 19.547 19.547 19.547c5.2946 0 10.06-2.1367 13.58-5.5555l32.716 16.461c-0.10532 0.82172-0.20576 1.6188-0.20576 2.4691 0 10.796 8.7516 19.547 19.547 19.547 10.796 0 19.547-8.7515 19.547-19.547s-8.7516-19.547-19.547-19.547c-5.1358 0-9.6802 2.1106-13.169 5.3498l-33.127-16.667c0.0738-0.6903 0.20575-1.3477 0.20575-2.0576 0-0.78011-0.11689-1.5072-0.20575-2.2634l33.333-16.255c3.4647 3.1243 7.9302 5.144 12.963 5.144 10.796 0 19.547-8.7515 19.547-19.547s-8.7516-19.547-19.547-19.547z" color="#000000" display="block" enable-background="new" fill="url(#e)"/></g></g></g></svg>
