<?xml version="1.0" encoding="UTF-8"?>
<svg enable-background="new" version="1.0" viewBox="0 0 256 256" xmlns="http://www.w3.org/2000/svg" xmlns:xlink="http://www.w3.org/1999/xlink"><defs><filter id="n" x="-.036813" y="-.1621" width="1.0736" height="1.3242"><feGaussianBlur stdDeviation="2.6382812"/></filter><filter id="m"><feGaussianBlur stdDeviation="0.98531245"/></filter><filter id="l"><feGaussianBlur stdDeviation="0.83"/></filter><clipPath id="o"><rect x="56" y="60" width="184" height="184" rx="25.053" ry="25.053" enable-background="new" fill="url(#a)" fill-rule="evenodd"/></clipPath><radialGradient id="a" cx="176.67" cy="214.94" r="92" gradientTransform="matrix(1.5656 0 0 .95658 -83.703 9.3322)" gradientUnits="userSpaceOnUse"><stop stop-color="#eeeeec" offset="0"/><stop stop-color="#eeeeec" stop-opacity="0" offset="1"/></radialGradient><filter id="k"><feGaussianBlur stdDeviation="0.91999947"/></filter><linearGradient id="f" x1="149" x2="149" y1="118" y2="224.12" gradientTransform="translate(-2,-6)" gradientUnits="userSpaceOnUse"><stop stop-color="#888a85" offset="0"/><stop stop-color="#d3d7cf" offset="1"/></linearGradient><filter id="j" x="-.076471" y="-.63885" width="1.1529" height="2.2777"><feGaussianBlur stdDeviation="6.388497"/></filter><filter id="i" x="-.15294" y="-1.2777" width="1.3059" height="3.5554" color-interpolation-filters="sRGB"><feGaussianBlur stdDeviation="12.776994"/></filter><radialGradient id="e" cx="17.321" cy="6.8679" r="20.531" gradientTransform="matrix(13.339 1.2973e-6 -3.2848e-7 3.3774 -169.04 33.206)" gradientUnits="userSpaceOnUse"><stop stop-color="#fff" offset="0"/><stop stop-color="#dcdcdc" offset="1"/></radialGradient><radialGradient id="d" cx="176.67" cy="214.94" r="92" gradientTransform="matrix(1.5656 0 0 .95658 -83.703 9.3322)" gradientUnits="userSpaceOnUse"><stop stop-color="#eeeeec" offset="0"/><stop stop-color="#eeeeec" stop-opacity="0" offset="1"/></radialGradient><linearGradient id="h" x1="131.5" x2="131.5" y1="234.5" y2="206.98" gradientTransform="translate(0,1)" gradientUnits="userSpaceOnUse"><stop stop-color="#fff" offset="0"/><stop stop-color="#fff" stop-opacity="0" offset="1"/></linearGradient><radialGradient id="c" cx="132" cy="272.15" r="92.332" gradientTransform="matrix(2.0831 0 0 .22596 -158.48 172.97)" gradientUnits="userSpaceOnUse"><stop stop-color="#fff" offset="0"/><stop stop-color="#fff" stop-opacity="0" offset="1"/></radialGradient><radialGradient id="b" cx="148" cy="152" r="90" gradientTransform="matrix(4.0735 .53629 -.11022 .83722 -438.13 -54.628)" gradientUnits="userSpaceOnUse"><stop stop-color="#fff" offset="0"/><stop stop-color="#fff" stop-opacity="0" offset="1"/></radialGradient><linearGradient id="g" x1="195.48" x2="100.52" y1="234.24" y2="69.761" gradientUnits="userSpaceOnUse"><stop stop-color="#2e3436" offset="0"/><stop stop-color="#888a85" offset="1"/></linearGradient></defs><g transform="translate(-20 -28)"><g><g transform="translate(-2,-6)"><rect transform="matrix(.94656 0 0 .68863 7.8959 80.837)" x="47.5" y="222" width="200.5" height="24" rx="25.041" ry="12" color="#000000" enable-background="accumulate" filter="url(#i)" opacity=".5"/><rect transform="matrix(.94656 0 0 .68863 7.8959 76.837)" x="47.5" y="222" width="200.5" height="24" rx="25.041" ry="12" color="#000000" enable-background="accumulate" filter="url(#j)" opacity=".5"/><g clip-path="url(#o)"><rect x="56" y="60" width="184" height="184" rx="25.053" ry="25.053" fill="url(#e)" fill-rule="evenodd"/><rect x="56" y="60" width="184" height="184" rx="25.053" ry="25.053" enable-background="new" fill="url(#d)" fill-rule="evenodd"/><path d="m62 189.94v30c0 10.657 8.4058 19.062 19.062 19.062h133.88c10.657 0 19.062-8.4058 19.062-19.062v-30c0 10.657-8.4058 19.062-19.062 19.062h-133.88c-10.657 0-19.062-8.4058-19.062-19.062z" enable-background="new" fill="url(#h)" fill-rule="evenodd" filter="url(#n)"/><path transform="matrix(1 0 0 -1 0 300.94)" d="m62 212.94v6c0 10.657 8.4058 19.062 19.062 19.062h133.87c10.657 0 19.062-8.4058 19.062-19.062v-6c0 10.657-8.4058 19.062-19.062 19.062h-133.87c-10.657 0-19.062-8.4058-19.062-19.062z" enable-background="new" fill="url(#c)" fill-rule="evenodd" filter="url(#m)"/><path d="m60 76c-1.108 0-2 0.892-2 2v148c0 1.108 0.892 2 2 2s2-0.892 2-2v-148c0-1.108-0.892-2-2-2zm176 0c-1.108 0-2 0.892-2 2v148c0 1.108 0.892 2 2 2s2-0.892 2-2v-148c0-1.108-0.892-2-2-2z" color="#000000" enable-background="accumulate" fill="url(#b)" filter="url(#l)"/><rect x="56" y="60" width="184" height="184" rx="25.053" ry="25.053" enable-background="new" fill="none" filter="url(#k)" stroke="url(#g)" stroke-width="2"/></g></g><path d="m81.804 181.26c2.1377-55.035 51.172-97.622 100.27-45.901l23.831-22.973 0.0952 71.609-72.456-0.10628 23.48-23.48c-41.106-43.082-66.524-9.2702-75.22 20.851z" display="block" enable-background="new" fill="#fff"/><path d="m81.804 179.26c2.1377-55.035 51.172-97.622 100.27-45.901l23.831-22.973 0.0952 71.609-72.456-0.10628 23.48-23.48c-41.106-43.082-66.524-9.2702-75.22 20.851z" display="block" enable-background="new" fill="url(#f)"/></g></g></svg>
