<?xml version="1.0" encoding="UTF-8"?>
<svg enable-background="new" version="1.0" viewBox="0 0 256 256" xmlns="http://www.w3.org/2000/svg" xmlns:xlink="http://www.w3.org/1999/xlink"><defs><filter id="u" x="-.08721" y="-1.3929" width="1.1744" height="3.7858" color-interpolation-filters="sRGB"><feGaussianBlur stdDeviation="7.4125232"/></filter><filter id="v" x="-.034664" y="-.55368" width="1.0693" height="2.1074" color-interpolation-filters="sRGB"><feGaussianBlur stdDeviation="2.9464591"/></filter><clipPath id="aa"><path d="m-442 129.75v134.09c0 2.2962 1.86 4.1562 4.1562 4.1562h191.69c2.2962 0 4.1562-1.86 4.1562-4.1562v-134.09l-57.844 71.375c-6.0222 7.4308-12.045 14.875-42.156 14.875-30.111 0-36.134-7.4442-42.156-14.875z" enable-background="new"/></clipPath><filter id="q" color-interpolation-filters="sRGB"><feGaussianBlur stdDeviation="1.43625"/></filter><clipPath id="ac"><path d="m-472-100.25v134.09c0 2.2962 1.86 4.1562 4.1562 4.1562h191.69c2.2962 0 4.1562-1.86 4.1562-4.1562v-134.09l-57.844 71.375c-6.0222 7.4308-12.045 14.875-42.156 14.875-30.111 0-36.134-7.4442-42.156-14.875z" enable-background="new"/></clipPath><filter id="s" color-interpolation-filters="sRGB"><feGaussianBlur stdDeviation="2.795625"/></filter><clipPath id="z"><path d="m-422 184c-30.111 0-36.134 7.4442-42.156 14.875l-55.625 68.625c0.57753 0.30447 1.2368 0.5 1.9375 0.5h191.69c0.70071 0 1.36-0.19553 1.9375-0.5l-55.625-68.625c-6.0222-7.4308-12.045-14.875-42.156-14.875z" enable-background="new"/></clipPath><filter id="p" color-interpolation-filters="sRGB"><feGaussianBlur stdDeviation="1.3978125"/></filter><clipPath id="y"><path d="m-382 38c-30.111 0-36.134 7.4442-42.156 14.875l-57.844 77.125v133.84c0 2.2962 1.86 4.1562 4.1562 4.1562h191.69c2.2962 0 4.1562-1.86 4.1562-4.1562v-133.84l-57.844-77.125c-6.0222-7.4308-12.045-14.875-42.156-14.875z" enable-background="new"/></clipPath><filter id="o" color-interpolation-filters="sRGB"><feGaussianBlur stdDeviation="1.075"/></filter><clipPath id="x"><path d="m-412 38c-30.111 0-36.134 7.4442-42.156 14.875l-57.844 77.125v133.84c0 2.2962 1.86 4.1562 4.1562 4.1562h191.69c2.2962 0 4.1562-1.86 4.1562-4.1562v-133.84l-57.844-77.125c-6.0222-7.4308-12.045-14.875-42.156-14.875z" enable-background="new"/></clipPath><filter id="n" color-interpolation-filters="sRGB"><feGaussianBlur stdDeviation="0.5375"/></filter><filter id="m" x="-.024368" y="-1.5874" width="1.0487" height="4.1749" color-interpolation-filters="sRGB"><feGaussianBlur stdDeviation="1.6369521"/></filter><linearGradient id="b" x1="-393.5" x2="-393.5" y1="53.755" y2="-74.509" gradientUnits="userSpaceOnUse"><stop offset="0"/><stop stop-opacity="0" offset="1"/></linearGradient><clipPath id="ad"><path d="m-322-132c-30.111 0-36.134 7.4442-42.156 14.875l-57.844 77.125v133.84c0 2.2962 1.86 4.1562 4.1562 4.1562h191.69c2.2962 0 4.1562-1.86 4.1562-4.1562v-133.84l-57.844-77.125c-6.0222-7.4308-12.045-14.875-42.156-14.875z" enable-background="new"/></clipPath><filter id="t" color-interpolation-filters="sRGB"><feGaussianBlur stdDeviation="2.5676682"/></filter><clipPath id="ab"><path d="m-422 38c-30.111 0-36.134 7.4442-42.156 14.875l-57.844 77.125v133.84c0 2.2962 1.86 4.1562 4.1562 4.1562h191.69c2.2962 0 4.1562-1.86 4.1562-4.1562v-133.84l-57.844-77.125c-6.0222-7.4308-12.045-14.875-42.156-14.875z" enable-background="new"/></clipPath><filter id="r" x="-.085772" y="-.19969" width="1.1715" height="1.3994" color-interpolation-filters="sRGB"><feGaussianBlur stdDeviation="6.9890625"/></filter><filter id="l" x="-.072652" y="-.11233" width="1.1453" height="1.2247"><feGaussianBlur stdDeviation="5.1577869"/></filter><clipPath id="w"><path d="m859.64 131.3 50.322 61.501c5.8315-6.6759 9.9224-10.247 18.051-11.926 12.139-2.5072 32.127-2.7688 43.937 1.138 6.4954 2.1487 11.197 7.2261 14.302 11.082l49.864-62.594 11.085-76.031-208.67 7.3003z" color="#000000" enable-background="accumulate" fill="#e00000"/></clipPath><linearGradient id="a" x1="981.95" x2="981.95" y1="128.23" y2="216.41" gradientUnits="userSpaceOnUse"><stop stop-color="#fff" offset="0"/><stop stop-color="#d3d7cf" offset="1"/></linearGradient><clipPath><path d="m859.64 131.3 50.322 61.501c5.8315-6.6759 9.9224-10.247 18.051-11.926 12.139-2.5072 32.127-2.7688 43.937 1.138 6.4954 2.1487 11.197 7.2261 14.302 11.082l49.864-62.594 11.085-76.031-208.67 7.3003z" color="#000000" enable-background="accumulate" fill="#e00000"/></clipPath><linearGradient id="k" x1="-112" x2="-112" y1="53" y2="201" gradientTransform="translate(260)" gradientUnits="userSpaceOnUse"><stop stop-color="#dbded7" offset="0"/><stop stop-color="#eeeeec" offset=".31757"/><stop stop-color="#eeeeec" offset=".49662"/><stop stop-color="#d3d7cf" offset=".76689"/><stop stop-color="#babdb6" offset="1"/></linearGradient><linearGradient id="j" x1="-182" x2="-169" y1="189" y2="321" gradientTransform="translate(260)" gradientUnits="userSpaceOnUse"><stop stop-color="#fff" offset="0"/><stop stop-color="#babdb6" offset="1"/></linearGradient><linearGradient id="i" x1="-212" x2="-12" y1="198.88" y2="198.88" gradientTransform="translate(260)" gradientUnits="userSpaceOnUse"><stop stop-color="#fff" offset="0"/><stop stop-color="#eeeeec" stop-opacity="0" offset=".0275"/><stop stop-color="#d3d7cf" stop-opacity="0" offset=".9775"/><stop stop-color="#d3d7cf" offset="1"/></linearGradient><linearGradient id="h" x1="-372.5" x2="-372.5" y1="164.82" y2="129.75" gradientUnits="userSpaceOnUse"><stop stop-color="#fff" offset="0"/><stop stop-color="#fff" stop-opacity="0" offset="1"/></linearGradient><linearGradient id="g" x1="-324" x2="-324" y1="-17.507" y2="49.516" gradientUnits="userSpaceOnUse"><stop offset="0"/><stop stop-opacity="0" offset="1"/></linearGradient><linearGradient id="f" x1="-111" x2="-111" y1="262" y2="183.99" gradientTransform="translate(260)" gradientUnits="userSpaceOnUse"><stop stop-color="#eeeeec" offset="0"/><stop stop-color="#f4f4f3" offset=".5"/><stop stop-color="#fbfbfa" offset="1"/></linearGradient><linearGradient id="e" x1="-111" x2="-111" y1="268.15" y2="195.99" gradientTransform="translate(260)" gradientUnits="userSpaceOnUse"><stop stop-color="#c8cdc3" offset="0"/><stop stop-color="#eeeeec" offset=".10637"/><stop stop-color="#fbfbfa" offset="1"/></linearGradient><linearGradient id="d" x1="-445.5" x2="-445.5" y1="237.43" y2="256.75" gradientUnits="userSpaceOnUse"><stop stop-color="#fff" offset="0"/><stop stop-color="#fff" stop-opacity="0" offset="1"/></linearGradient><linearGradient id="c" x1="-393" x2="-336" y1="153" y2="242" gradientUnits="userSpaceOnUse"><stop stop-color="#fff" offset="0"/><stop stop-color="#fff" stop-opacity="0" offset="1"/></linearGradient></defs><g transform="translate(-820 -28)"><g><g transform="matrix(.88671 0 0 .88671 816.77 15.876)" enable-background="new"><rect transform="matrix(1.0105 0 0 .50893 -3.5686 130.37)" x="48.4" y="260.4" width="203.2" height="11.2" rx="5.6" ry="5.6" enable-background="new" filter="url(#u)" opacity=".3" stroke="#000" stroke-linecap="square" stroke-width="1.1156"/><rect transform="matrix(.99692 0 0 .50893 -1.5386 130.37)" x="48.4" y="260.4" width="203.2" height="11.2" rx="5.6" ry="5.6" filter="url(#v)" opacity=".5" stroke="#000" stroke-linecap="square" stroke-width="1.1231"/><path d="m148 38c-30.111 0-36.134 7.4442-42.156 14.875l-57.844 77.125v133.84c0 2.2962 1.86 4.1562 4.1562 4.1562h191.69c2.2962 0 4.1562-1.86 4.1562-4.1562v-133.84l-57.844-77.125c-6.0222-7.4308-12.045-14.875-42.156-14.875z" fill="url(#k)"/><path d="m48 129.75v134.09c0 2.2962 1.86 4.1562 4.1562 4.1562h191.69c2.2962 0 4.1562-1.86 4.1562-4.1562v-134.09l-57.844 71.375c-6.0222 7.4308-12.045 14.875-42.156 14.875-30.111 0-36.134-7.4442-42.156-14.875z" enable-background="new" fill="url(#j)"/><path d="m48 129.75v134.09c0 2.2962 1.86 4.1562 4.1562 4.1562h191.69c2.2962 0 4.1562-1.86 4.1562-4.1562v-134.09l-57.844 71.375c-6.0222 7.4308-12.045 14.875-42.156 14.875-30.111 0-36.134-7.4442-42.156-14.875z" enable-background="new" fill="url(#i)"/><path transform="translate(490)" d="m-442 129.75h200l-57.844 71.375c-6.0222 7.4308-12.045 14.875-42.156 14.875-30.111 0-36.134-7.4442-42.156-14.875z" clip-path="url(#aa)" enable-background="new" fill="none" filter="url(#q)" stroke="url(#h)" stroke-dashoffset=".5" stroke-linecap="round" stroke-linejoin="round" stroke-width="4"/><path transform="translate(520,230)" d="m-371-46c-30.111 0-36.134 7.4442-42.156 14.875l-56.625 68.625c0.57753 0.30447 1.2368 0.5 1.9375 0.5h191.69c0.70071 0 1.36-0.19553 1.9375-0.5l-54.625-68.625c-6.0222-7.4308-12.045-14.875-42.156-14.875z" clip-path="url(#ac)" enable-background="new" fill="url(#g)" filter="url(#s)" opacity=".4"/><path d="m148 184c-30.111 0-36.134 7.4442-42.156 14.875l-55.625 68.625c0.57753 0.30447 1.2368 0.5 1.9375 0.5h191.69c0.70071 0 1.36-0.19553 1.9375-0.5l-55.625-68.625c-6.0222-7.4308-12.045-14.875-42.156-14.875z" enable-background="new" fill="url(#f)"/><path d="m148 184c-30.111 0-36.134 7.4442-42.156 14.875l-55.625 68.625c0.57753 0.30447 1.2368 0.5 1.9375 0.5h191.69c0.70071 0 1.36-0.19553 1.9375-0.5l-55.625-68.625c-6.0222-7.4308-12.045-14.875-42.156-14.875z" enable-background="new" fill="url(#e)"/><path transform="translate(570)" d="m-422 184c-30.111 0-36.134 7.4442-42.156 14.875l-55.625 68.625c0.57753 0.30447 1.2368 0.5 1.9375 0.5h191.69c0.70071 0 1.36-0.19553 1.9375-0.5l-55.625-68.625c-6.0222-7.4308-12.045-14.875-42.156-14.875z" clip-path="url(#z)" enable-background="new" fill="none" filter="url(#p)" stroke="url(#d)" stroke-dashoffset=".5" stroke-linecap="round" stroke-linejoin="round" stroke-width="4"/><path transform="matrix(1 0 0 .99781 530 .58553)" d="m-382 38c-30.111 0-36.134 7.4442-42.156 14.875l-57.844 77.125v133.84c0 2.2962 1.86 4.1562 4.1562 4.1562h191.69c2.2962 0 4.1562-1.86 4.1562-4.1562v-133.84l-57.844-77.125c-6.0222-7.4308-12.045-14.875-42.156-14.875z" clip-path="url(#y)" enable-background="new" fill="none" filter="url(#o)" stroke="url(#c)" stroke-dashoffset=".5" stroke-linecap="round" stroke-linejoin="round" stroke-width="2.0022"/><path transform="translate(560)" d="m-412 38c-30.111 0-36.134 7.4442-42.156 14.875l-57.844 77.125v133.84c0 2.2962 1.86 4.1562 4.1562 4.1562h191.69c2.2962 0 4.1562-1.86 4.1562-4.1562v-133.84l-57.844-77.125c-6.0222-7.4308-12.045-14.875-42.156-14.875z" clip-path="url(#x)" enable-background="new" fill="none" filter="url(#n)" stroke="#777a74" stroke-dashoffset=".5" stroke-linecap="round" stroke-linejoin="round" stroke-width="1.2736"/><rect transform="matrix(1.1845 0 0 .90946 -27.268 36.497)" x="66.822" y="247.97" width="161.22" height="2.4749" rx="2.1881" ry="2.8497" color="#000000" enable-background="new" fill="#fff" filter="url(#m)"/></g><g clip-path="url(#w)"><g fill-rule="evenodd"><path d="m864.95 176.13 136.97-58.868 33.418 81.473-152.5 28.727z" color="#000000" enable-background="accumulate" filter="url(#l)" opacity=".31343"/><path d="m862.95 173.13 136.97-58.868 33.418 81.473-152.5 28.727z" color="#000000" enable-background="accumulate" fill="url(#a)"/><path d="m999.91 114.28-136.97 58.844 0.3125 0.875 136.66-58.719 33.063 80.531 0.375-0.0625z" color="#000000" enable-background="accumulate" fill="#fff"/></g><g transform="matrix(1.1293 0 0 1.1293 752.63 39.437)" clip-path="none" enable-background="new"><path transform="matrix(.78519 0 0 .7 425.83 108.94)" d="m-422-40.25v134.09c0 2.2962 1.86 4.1562 4.1562 4.1562h191.69c2.2962 0 4.1562-1.86 4.1562-4.1562v-134.09l-55.344 77.7c-6.0222 7.4308-12.045 14.875-42.156 14.875-30.111 0-36.134-7.4442-42.156-14.875z" clip-path="url(#ad)" enable-background="new" fill="url(#b)" filter="url(#t)" opacity=".26299"/><path transform="matrix(.78519 0 0 .78519 504.35 -20.868)" d="m-422 187.38c-30.111 0-36.134 7.4442-42.156 14.875l-55.625 65.242c0.57753 0.30447 1.2368 0.5 1.9375 0.5h191.69c0.70071 0 1.36-0.19553 1.9375-0.5l-55.625-65.242c-6.0222-7.4308-12.045-14.875-42.156-14.875z" clip-path="url(#ab)" enable-background="new" filter="url(#r)" opacity=".4"/></g></g></g></g></svg>
