<?xml version="1.0" encoding="UTF-8"?>
<svg enable-background="new" version="1.0" viewBox="0 0 256 256" xmlns="http://www.w3.org/2000/svg" xmlns:xlink="http://www.w3.org/1999/xlink"><defs><filter id="ae" x="-.12188" y="-.039796" width="1.2438" height="1.0796"><feGaussianBlur stdDeviation="1.625"/></filter><clipPath id="aj"><path d="m59.875 74.344-16.688 49.531 1.0938-0.21875c-0.05438 0.1788-0.11847 0.3457-0.15625 0.53125-0.0016 0.01 0.0016 0.0216 0 0.0312-0.07572 0.38194-0.125 0.78267-0.125 1.1875v133c0 3.324 2.676 6 6 6h188.03c3.324 0 6-2.676 6-6v-133c0-0.6925-0.1298-1.3508-0.34375-1.9688l0.875 0.4375-16.688-49.531z" enable-background="new" fill-rule="evenodd"/></clipPath><filter id="c"><feGaussianBlur stdDeviation="0.335"/></filter><clipPath id="ai"><path d="m-88.625 74c-0.53122 0-0.78227 3.0925-0.9375 5.9688l-2.3438 42.5c-0.0534 0.7367-0.04986 1.5198-0.0625 2.3125h-0.03125v47.219h32v-47.219l-0.0625-2.3125-2.3438-43.219c-0.15496-2.877-0.40628-5.25-0.9375-5.25z" enable-background="new" fill="#808080" fill-rule="evenodd"/></clipPath><linearGradient id="b"><stop stop-color="#8f5902" offset="0"/><stop stop-color="#8f5902" stop-opacity="0" offset="1"/></linearGradient><mask id="m" maskUnits="userSpaceOnUse"><path d="m36 91c-3.324 0-6 2.676-6 6v133c0 3.324 2.676 6 6 6h188.03c3.324 0 6-2.676 6-6v-133c0-3.324-2.676-6-6-6z" fill="url(#h)" fill-rule="evenodd"/></mask><pattern id="j" width="15" height="15" patternTransform="translate(-110,111)" patternUnits="userSpaceOnUse"><rect width="15" height="15" fill="url(#i)"/></pattern><linearGradient id="n" x1="-110" x2="-70" y1="106" y2="106" gradientTransform="matrix(.75 0 0 .75 82.5 -64.5)" gradientUnits="userSpaceOnUse"><stop stop-color="#fff" offset="0"/><stop stop-color="#fff" stop-opacity="0" offset=".125"/><stop stop-color="#fff" offset=".25"/><stop stop-color="#fff" stop-opacity="0" offset=".375"/><stop stop-color="#fff" offset=".5"/><stop stop-color="#fff" stop-opacity="0" offset=".625"/><stop stop-color="#fff" offset=".75"/><stop stop-color="#fff" stop-opacity="0" offset=".875"/><stop stop-color="#fff" offset="1"/></linearGradient><pattern id="l" width="30" height="30" patternTransform="translate(-110,96)" patternUnits="userSpaceOnUse"><rect width="30" height="30" fill="url(#n)" fill-rule="evenodd"/></pattern><mask id="a" maskUnits="userSpaceOnUse"><path d="m33.406 86-2.9375 8.6562c-0.08353 0.18482-0.13407 0.37027-0.1875 0.5625-0.05826 0.18811-0.11642 0.36686-0.15625 0.5625-0.0017 0.0097 0.0016 0.02155 0 0.03125-0.075722 0.38194-0.125 0.78267-0.125 1.1875v9h200.03v-9c0-0.831-0.16594-1.6254-0.46875-2.3438l-2.9062-8.6562z" fill="url(#o)" fill-rule="evenodd"/></mask><linearGradient id="o" x1="90.25" x2="90.25" y1="106" y2="86" gradientUnits="userSpaceOnUse"><stop stop-color="#fff" stop-opacity="0" offset="0"/><stop stop-color="#fff" offset=".63482"/><stop stop-color="#fff" offset=".7367"/><stop stop-color="#fff" stop-opacity="0" offset="1"/></linearGradient><pattern id="k" xlink:href="#l" patternTransform="matrix(.5 0 0 .5 -110 111)"/><pattern id="i" xlink:href="#k" patternTransform="scale(.5)"/><pattern id="h" xlink:href="#j" patternTransform="translate(-110,111)"/><filter id="ah"><feGaussianBlur stdDeviation="2.1614063"/></filter><filter id="ag"><feGaussianBlur stdDeviation="1.2808222"/></filter><filter id="af" x="-.088412" y="-.31566" width="1.1768" height="1.6313"><feGaussianBlur stdDeviation="7.5339885"/></filter><linearGradient id="ad" x1="52" x2="52" y1="40.482" y2="76.674" gradientTransform="translate(14 28.406)" gradientUnits="userSpaceOnUse"><stop stop-color="#ebd3ad" offset="0"/><stop stop-color="#e9b96e" offset="1"/></linearGradient><linearGradient id="ac" x1="174.02" x2="30" y1="236" y2="64" gradientTransform="translate(14 28.406)" gradientUnits="userSpaceOnUse"><stop stop-color="#c17d11" offset="0"/><stop stop-color="#e9b96e" offset="1"/></linearGradient><radialGradient id="g" cx="136.13" cy="96" r="105.23" gradientTransform="matrix(1.7673 0 0 .02407 -63.863 93.689)" gradientUnits="userSpaceOnUse"><stop stop-color="#eeeeec" offset="0"/><stop stop-color="#e9b96e" offset="1"/></radialGradient><linearGradient id="ab" x1="29.981" x2="35.523" y1="192" y2="192" gradientTransform="translate(14 28.406)" gradientUnits="userSpaceOnUse"><stop stop-color="#fff" offset="0"/><stop stop-color="#fff" stop-opacity="0" offset="1"/></linearGradient><linearGradient id="aa" x1="97" x2="97" y1="236.06" y2="222.18" gradientTransform="translate(14 28.406)" gradientUnits="userSpaceOnUse"><stop stop-color="#e9b96e" offset="0"/><stop stop-color="#e9b96e" stop-opacity="0" offset="1"/></linearGradient><linearGradient id="z" x1="125.75" x2="125.75" y1="235.5" y2="233.38" gradientTransform="translate(14 28.406)" gradientUnits="userSpaceOnUse"><stop offset="0"/><stop stop-opacity="0" offset="1"/></linearGradient><linearGradient id="y" x1="230.5" x2="223" y1="172.5" y2="172.5" gradientTransform="translate(14 28.406)" gradientUnits="userSpaceOnUse"><stop stop-color="#fff" offset="0"/><stop stop-color="#fff" stop-opacity="0" offset="1"/></linearGradient><linearGradient id="x" x1="139" x2="140" y1="300" y2="101" gradientUnits="userSpaceOnUse"><stop stop-color="#8f5902" offset="0"/><stop stop-color="#8f5902" stop-opacity="0" offset="1"/></linearGradient><radialGradient id="f" cx="123.93" cy="96" r="105.23" gradientTransform="matrix(.56641 0 0 .02407 84.965 93.689)" gradientUnits="userSpaceOnUse"><stop stop-color="#eeeeec" offset="0"/><stop stop-color="#fff" stop-opacity="0" offset="1"/></radialGradient><linearGradient id="w" x1="44" x2="46" y1="192.14" y2="192.14" gradientUnits="userSpaceOnUse" xlink:href="#b"/><linearGradient id="v" x1="44" x2="46" y1="192.14" y2="192.14" gradientTransform="translate(-287.94)" gradientUnits="userSpaceOnUse" xlink:href="#b"/><linearGradient id="u" x1="189" x2="117" y1="221.5" y2="21.5" gradientUnits="userSpaceOnUse"><stop offset="0"/><stop stop-opacity="0" offset="1"/></linearGradient><linearGradient id="t" x1="-84" x2="-84" y1="132.9" y2="123" gradientTransform="translate(221)" gradientUnits="userSpaceOnUse"><stop offset="0"/><stop stop-opacity=".4" offset="1"/></linearGradient><radialGradient id="e" cx="129.71" cy="199.67" r="100.02" gradientTransform="matrix(1.6076 0 0 .56169 334.96 15.302)" gradientUnits="userSpaceOnUse"><stop stop-color="#eeeeec" offset="0"/><stop stop-color="#eeeeec" stop-opacity="0" offset="1"/></radialGradient><radialGradient id="d" cx="554.02" cy="30.515" r="95.891" gradientTransform="matrix(1.0652 0 0 .009125 -40.11 128.13)" gradientUnits="userSpaceOnUse"><stop offset="0"/><stop stop-opacity="0" offset="1"/></radialGradient><linearGradient id="s" x1="-76" x2="-76" y1="120.99" y2="127.26" gradientUnits="userSpaceOnUse"><stop stop-color="#fff" offset="0"/><stop stop-color="#fff" offset=".5"/><stop stop-color="#e9b96e" offset="1"/></linearGradient><linearGradient id="r" x1="-91.906" x2="-31.75" y1="13.246" y2="220" gradientUnits="userSpaceOnUse"><stop stop-color="#e9b96e" offset="0"/><stop stop-color="#fff" stop-opacity="0" offset="1"/></linearGradient><linearGradient id="q" x1="-76" x2="-76" y1="121.24" y2="126.51" gradientUnits="userSpaceOnUse"><stop stop-color="#888a85" offset="0"/><stop stop-color="#eeeeec" offset=".5"/><stop stop-color="#2e3436" offset="1"/></linearGradient><linearGradient id="p" x1="-91.25" x2="-77.5" y1="117.25" y2="123.25" gradientUnits="userSpaceOnUse"><stop stop-color="#fff" offset="0"/><stop stop-color="#fff" stop-opacity="0" offset="1"/></linearGradient></defs><g transform="translate(-420,-30)"><g><g transform="translate(166,2)" enable-background="new" fill-rule="evenodd"><path transform="matrix(1.0244 0 0 .8778 250.82 52.877)" d="m51 183.87c-0.7742 0-2.418 0.15685-3.8398 0.94336-1.4218 0.7865-2.041 1.6074-2.4473 2.0879-1.3221 1.5638-1.8979 2.921-2.4199 4.3906a6.3523 6.3523 0 0 0-0.30469 0.72266l-13.906 40.75a6.3523 6.3523 0 0 0 6.0117 8.4023h191.81a6.3523 6.3523 0 0 0 6.0234-8.3691l-13.906-41.5a6.3523 6.3523 0 0 0-2e-3 -4e-3c-0.61375-1.8278-1.2374-3.3085-2.8828-4.9473-0.78166-0.7785-4.3804-2.4766-6.1074-2.4766zm-7.459 5.6719a6.3523 6.3523 0 0 0-0.03906 0.043l0.0059-0.01c0.01007-0.0102 0.02168-0.0219 0.0332-0.0332z" enable-background="new" filter="url(#af)" opacity=".55"/><path transform="translate(254 26.406)" d="m51 185.27c-0.67709 0-2.0082 0.12929-3.1621 0.76758-1.1539 0.63829-1.6782 1.3222-2.0547 1.7676-1.1477 1.3575-1.7017 2.6388-2.1992 4.0332a4.9502 4.9502 0 0 0-0.26758 0.62695l-13.906 40.75a4.9502 4.9502 0 0 0 4.6836 6.5469h191.81a4.9502 4.9502 0 0 0 4.6934-6.5215l-13.906-41.5a4.9502 4.9502 0 0 0-2e-3 -4e-3c-0.56434-1.6806-1.1612-3.0242-2.543-4.4004-0.70868-0.70582-3.5732-2.0664-5.1172-2.0664z" enable-background="new" filter="url(#ag)" opacity=".9"/></g><g transform="translate(406,2)" clip-path="url(#aj)" enable-background="new"><g><path d="m65 74.438c-3.324 0-5.0288 3.1136-6 6l-14.531 42.625c-0.33411 0.7393-0.38968 1.5482-0.46875 2.3438h200.03l-0.46875-2.3438-14.531-43.344c-0.96949-2.8871-2.676-5.2812-6-5.2812z" fill="url(#ad)" fill-rule="evenodd"/><path d="m50 119.41c-3.324 0-6 2.676-6 6v133c0 3.324 2.676 6 6 6h188.03c3.324 0 6-2.676 6-6v-133c0-3.324-2.676-6-6-6z" fill="url(#ac)" fill-rule="evenodd"/><rect transform="translate(14 28.406)" x="25" y="76" width="210.45" height="40" fill="url(#g)" fill-rule="evenodd" mask="url(#a)"/><path d="m50 119.41c-3.324 0-6 2.676-6 6v133c0 3.324 2.676 6 6 6h18.031c3.324 0 6-2.676 6-6v-133c0-3.324-2.676-6-6-6z" fill="url(#ab)" fill-rule="evenodd" opacity=".33208"/><path d="m50 219.41c-3.324 0-6 2.676-6 6v33c0 3.324 2.676 6 6 6h188.03c3.324 0 6-2.676 6-6v-33c0-3.324-2.676-6-6-6z" fill="url(#aa)" fill-rule="evenodd" opacity=".28679"/><path d="m50 239.41c-3.324 0-6 2.676-6 6v13c0 3.324 2.676 6 6 6h188.03c3.324 0 6-2.676 6-6v-13c0-3.324-2.676-6-6-6z" fill="url(#z)" fill-rule="evenodd" opacity=".20755"/><path d="m230 123.41c-3.324 0-6 2.676-6 6v129c0 3.324 2.676 6 6 6h8.0312c3.324 0 6-2.676 6-6v-129c0-3.324-2.676-6-6-6z" fill="url(#y)" fill-rule="evenodd" opacity=".1"/><rect transform="translate(14 30.406)" x="25" y="91" width="210.5" height="149.5" clip-path="none" fill="url(#x)" fill-rule="evenodd" mask="url(#m)" opacity=".15"/><rect transform="translate(14 28.406)" x="25" y="76" width="210.45" height="40" enable-background="new" fill="url(#f)" fill-rule="evenodd" mask="url(#a)" opacity=".68468"/><rect x="44" y="123.75" width="4.0575" height="138.19" rx="2.008" ry="2.0586" fill="url(#w)" opacity=".74324"/><rect transform="scale(-1,1)" x="-243.94" y="123.75" width="4.0575" height="138.19" rx="2.008" ry="2.0586" enable-background="new" fill="url(#v)" opacity=".77477"/></g><path transform="translate(-20)" d="m79.875 74.344-16.688 49.531 1.0938-0.21875c-0.05438 0.1788-0.11847 0.3457-0.15625 0.53125-0.0017 0.01 0.0016 0.0216 0 0.0313-0.07572 0.38194-0.125 0.78267-0.125 1.1875v133c0 3.324 2.676 6 6 6h188.03c3.324 0 6-2.676 6-6v-133c0-0.6925-0.1298-1.3508-0.34375-1.9688l0.875 0.4375-16.688-49.531h-168z" clip-path="none" enable-background="new" fill="none" filter="url(#ah)" opacity=".5" stroke="url(#u)" stroke-dashoffset=".7" stroke-linecap="round" stroke-width="2"/><path d="m132.38 74c-0.53122 0-0.78227 3.0925-0.9375 5.9688l-2.3438 42.5c-0.0534 0.7367-0.0499 1.5198-0.0625 2.3125h-0.0313v47.219h32v-47.219l-0.0625-2.3125-2.3437-43.219c-0.15496-2.877-0.40628-5.25-0.9375-5.25z" enable-background="new" fill="url(#t)" fill-rule="evenodd" filter="url(#ae)" opacity=".3"/></g><path d="m471 76.438c-3.324 0-5.0288 3.1136-6 6l-14.531 42.625c-0.33411 0.7393-0.38968 1.5482-0.46875 2.3438h200.03l-0.46875-2.3438-14.531-43.344c-0.96949-2.8871-2.676-5.2812-6-5.2812z" enable-background="new" fill="url(#e)" fill-rule="evenodd" opacity=".4"/><path d="m454.45 128.41c-0.20712 0.64182-0.26545 1.3271-0.32957 2h191.78l-0.38949-2z" enable-background="new" fill="url(#d)" fill-rule="evenodd" opacity=".7"/><g transform="translate(626,2)" clip-path="url(#ai)" enable-background="new" stroke-width="2"><path d="m-88.625 74c-0.53122 0-0.78227 3.0925-0.9375 5.9688l-2.3438 42.5c-0.0534 0.7367-0.04986 1.5198-0.0625 2.3125h-0.03125v47.219h32v-47.219l-0.0625-2.3125-2.3438-43.219c-0.15496-2.877-0.40628-5.25-0.9375-5.25z" enable-background="new" fill="url(#s)" fill-rule="evenodd"/><path d="m-88.625 74c-0.53122 0-0.78227 3.0925-0.9375 5.9688l-2.3438 42.5h31.844l-2.3438-43.219c-0.15496-2.877-0.40628-5.25-0.9375-5.25z" enable-background="new" fill="url(#r)" fill-rule="evenodd"/><path d="m-88.625 74c-0.53122 0-0.78227 3.0925-0.9375 5.9688l-2.3438 42.5c-0.0534 0.7367-0.04986 1.5198-0.0625 2.3125h-0.03125v47.219h32v-47.219l-0.0625-2.3125-2.3438-43.219c-0.15496-2.877-0.40628-5.25-0.9375-5.25z" enable-background="new" fill="none" filter="url(#c)" stroke="url(#q)" stroke-dashoffset=".7" stroke-linecap="round" stroke-width=".5"/><path d="m-87.625 75c-0.53122 0-0.78227 3.0925-0.9375 5.9688l-2.3438 42.5c-0.0534 0.7367-0.04986 1.5198-0.0625 2.3125h-0.03125v50.219h40v-50.219l-0.0625-2.3125-2.3438-43.219c-0.15496-2.877-0.40628-5.25-0.9375-5.25z" enable-background="new" fill="none" filter="url(#c)" stroke="url(#p)" stroke-dashoffset=".7" stroke-linecap="round" stroke-width=".5"/></g></g></g></svg>
