<?xml version="1.0" encoding="UTF-8" standalone="no"?>
<svg
   xmlns:dc="http://purl.org/dc/elements/1.1/"
   xmlns:cc="http://creativecommons.org/ns#"
   xmlns:rdf="http://www.w3.org/1999/02/22-rdf-syntax-ns#"
   xmlns:svg="http://www.w3.org/2000/svg"
   xmlns="http://www.w3.org/2000/svg"
   xmlns:xlink="http://www.w3.org/1999/xlink"
   width="16"
   version="1.0"
   style="display:inline;enable-background:new"
   id="svg11300"
   height="16">
  <title
     id="title8836">Optical Drive</title>
  <metadata
     id="metadata154">
    <rdf:RDF>
      <cc:Work
         rdf:about="">
        <dc:format>image/svg+xml</dc:format>
        <dc:type
           rdf:resource="http://purl.org/dc/dcmitype/StillImage" />
        <dc:title />
        <dc:creator>
          <cc:Agent>
            <dc:title />
          </cc:Agent>
        </dc:creator>
        <dc:contributor>
          <cc:Agent>
            <dc:title />
          </cc:Agent>
        </dc:contributor>
        <dc:source />
        <cc:license
           rdf:resource="" />
        <dc:subject>
          <rdf:Bag />
        </dc:subject>
      </cc:Work>
    </rdf:RDF>
  </metadata>
  <defs
     id="defs3">
    <linearGradient
       id="linearGradient3100">
      <stop
         style="stop-color:#eeeeec;stop-opacity:1"
         offset="0"
         id="stop3102" />
      <stop
         style="stop-color:white;stop-opacity:1"
         offset="1"
         id="stop3104" />
    </linearGradient>
    <linearGradient
       id="linearGradient3075">
      <stop
         style="stop-color:black;stop-opacity:1;"
         offset="0"
         id="stop3077" />
      <stop
         style="stop-color:black;stop-opacity:0;"
         offset="1"
         id="stop3079" />
    </linearGradient>
    <linearGradient
       y2="9.68291"
       y1="4.0344343"
       xlink:href="#linearGradient3100"
       x2="6.2186141"
       x1="6.2186141"
       id="linearGradient3255"
       gradientUnits="userSpaceOnUse"
       gradientTransform="matrix(2.083509,0,0,1.903226,-0.794382,15.54839)" />
    <radialGradient
       xlink:href="#linearGradient3075"
       r="7.21875"
       id="radialGradient3271"
       gradientUnits="userSpaceOnUse"
       gradientTransform="matrix(1,0,0,0.554113,0,8.025974)"
       fy="18"
       fx="7.21875"
       cy="18"
       cx="7.21875" />
    <radialGradient
       xlink:href="#linearGradient3075"
       r="7.21875"
       id="radialGradient3292"
       gradientUnits="userSpaceOnUse"
       gradientTransform="matrix(1,0,0,0.554113,0,8.025974)"
       fy="18"
       fx="7.21875"
       cy="18"
       cx="7.21875" />
    <linearGradient
       y2="9.68291"
       y1="4.0344343"
       xlink:href="#linearGradient3100"
       x2="6.2186141"
       x1="6.2186141"
       id="linearGradient3294"
       gradientUnits="userSpaceOnUse"
       gradientTransform="matrix(2.083509,0,0,1.903226,-0.794382,15.54839)" />
    <radialGradient
       xlink:href="#linearGradient3075"
       r="7.21875"
       id="radialGradient3308"
       gradientUnits="userSpaceOnUse"
       gradientTransform="matrix(1,0,0,0.554113,0,8.025974)"
       fy="18"
       fx="7.21875"
       cy="18"
       cx="7.21875" />
    <linearGradient
       y2="9.68291"
       y1="4.0344343"
       xlink:href="#linearGradient3100"
       x2="6.2186141"
       x1="6.2186141"
       id="linearGradient3310"
       gradientUnits="userSpaceOnUse"
       gradientTransform="matrix(2.083509,0,0,1.903226,-0.794382,15.54839)" />
    <linearGradient
       y2="9.68291"
       y1="3.5228794"
       xlink:href="#linearGradient3100"
       x2="6.2186141"
       x1="6.2186141"
       id="linearGradient2900"
       gradientUnits="userSpaceOnUse"
       gradientTransform="matrix(1.884891,0,0,1.592494,-9.715796,7.193552)" />
    <radialGradient
       xlink:href="#linearGradient3075"
       r="7.21875"
       id="radialGradient2935"
       gradientUnits="userSpaceOnUse"
       gradientTransform="matrix(1,0,0,0.554113,0,8.025974)"
       fy="18"
       fx="7.21875"
       cy="18"
       cx="7.21875" />
    <radialGradient
       xlink:href="#linearGradient3075"
       r="7.21875"
       id="radialGradient2956"
       gradientUnits="userSpaceOnUse"
       gradientTransform="matrix(1,0,0,0.554113,0,8.025974)"
       fy="18"
       fx="7.21875"
       cy="18"
       cx="7.21875" />
    <linearGradient
       y2="9.68291"
       y1="3.5228794"
       xlink:href="#linearGradient3100"
       x2="6.2186141"
       x1="6.2186141"
       id="linearGradient2958"
       gradientUnits="userSpaceOnUse"
       gradientTransform="matrix(1.884891,0,0,1.592494,-9.715796,7.193552)" />
    <radialGradient
       xlink:href="#linearGradient3075"
       r="7.21875"
       id="radialGradient2972"
       gradientUnits="userSpaceOnUse"
       gradientTransform="matrix(1,0,0,0.554113,0,8.025974)"
       fy="18"
       fx="7.21875"
       cy="18"
       cx="7.21875" />
    <linearGradient
       y2="9.68291"
       y1="3.5228794"
       xlink:href="#linearGradient3100"
       x2="6.2186141"
       x1="6.2186141"
       id="linearGradient2974"
       gradientUnits="userSpaceOnUse"
       gradientTransform="matrix(1.884891,0,0,1.592494,-9.715796,7.193552)" />
    <linearGradient
       y2="9.68291"
       y1="4.0344343"
       xlink:href="#linearGradient3100"
       x2="6.2186141"
       x1="6.2186141"
       id="linearGradient2105"
       gradientUnits="userSpaceOnUse"
       gradientTransform="translate(-1)" />
    <radialGradient
       xlink:href="#linearGradient3075"
       r="7.21875"
       id="radialGradient3081"
       gradientUnits="userSpaceOnUse"
       gradientTransform="matrix(1,0,0,0.554113,0,8.025974)"
       fy="18"
       fx="7.21875"
       cy="18"
       cx="7.21875" />
    <radialGradient
       xlink:href="#linearGradient3075"
       r="7.21875"
       id="radialGradient3163"
       gradientUnits="userSpaceOnUse"
       gradientTransform="matrix(1,0,0,0.554113,0,8.025974)"
       fy="18"
       fx="7.21875"
       cy="18"
       cx="7.21875" />
    <linearGradient
       y2="9.68291"
       y1="4.0344343"
       xlink:href="#linearGradient3100"
       x2="6.2186141"
       x1="6.2186141"
       id="linearGradient3165"
       gradientUnits="userSpaceOnUse"
       gradientTransform="translate(-1)" />
    <radialGradient
       xlink:href="#linearGradient3075"
       r="7.21875"
       id="radialGradient3167"
       gradientUnits="userSpaceOnUse"
       gradientTransform="matrix(1,0,0,0.554113,0,8.025974)"
       fy="18"
       fx="7.21875"
       cy="18"
       cx="7.21875" />
    <linearGradient
       y2="9.68291"
       y1="4.0344343"
       xlink:href="#linearGradient3100"
       x2="6.2186141"
       x1="6.2186141"
       id="linearGradient3169"
       gradientUnits="userSpaceOnUse"
       gradientTransform="translate(-1)" />
    <linearGradient
       y2="9.68291"
       y1="4.0344343"
       xlink:href="#linearGradient3100"
       x2="6.2186141"
       x1="6.2186141"
       id="linearGradient2031"
       gradientUnits="userSpaceOnUse" />
    <linearGradient
       y2="9.68291"
       y1="4.0344343"
       xlink:href="#linearGradient3100"
       x2="6.2186141"
       x1="6.2186141"
       id="linearGradient3011"
       gradientUnits="userSpaceOnUse"
       gradientTransform="translate(-1)" />
    <linearGradient
       y2="9.68291"
       y1="4.0344343"
       xlink:href="#linearGradient3100"
       x2="6.2186141"
       x1="6.2186141"
       id="linearGradient3013"
       gradientUnits="userSpaceOnUse"
       gradientTransform="translate(-1)" />
  </defs>
  <g
     transform="translate(-303,-219)"
     style="display:none"
     id="layer6">
    <rect
       y="50"
       x="296"
       width="48"
       style="display:inline;overflow:visible;visibility:visible;fill:#eeeeec;fill-opacity:1;fill-rule:nonzero;stroke:none;stroke-width:2;marker:none;enable-background:accumulate"
       id="rect6284"
       height="48" />
    <rect
       y="126"
       x="303"
       width="32"
       style="display:inline;overflow:visible;visibility:visible;fill:#eeeeec;fill-opacity:1;fill-rule:nonzero;stroke:none;stroke-width:2;marker:none;enable-background:accumulate"
       id="rect6592"
       height="32" />
    <rect
       y="177"
       x="303"
       width="22"
       style="display:inline;overflow:visible;visibility:visible;fill:#eeeeec;fill-opacity:1;fill-rule:nonzero;stroke:none;stroke-width:2;marker:none;enable-background:accumulate"
       id="rect6749"
       height="22" />
    <rect
       y="219"
       x="303"
       width="16"
       style="display:inline;overflow:visible;visibility:visible;fill:#eeeeec;fill-opacity:1;fill-rule:nonzero;stroke:none;stroke-width:2;marker:none;enable-background:accumulate"
       id="rect6833"
       height="16" />
    <text
       y="21.513618"
       xml:space="preserve"
       x="20.970737"
       style="font-style:normal;font-weight:normal;line-height:0%;font-family:'Bitstream Vera Sans';display:inline;fill:#000000;fill-opacity:1;stroke:none;enable-background:new"
       id="context"><tspan
         style="font-size:18.30070686px;line-height:1.25"
         y="21.513618"
         x="20.970737"
         id="tspan2716">actions</tspan></text>
    <text
       y="21.513618"
       xml:space="preserve"
       x="191.97073"
       style="font-style:normal;font-variant:normal;font-weight:bold;font-stretch:normal;line-height:0%;font-family:'Droid Sans';-inkscape-font-specification:'Droid Sans Bold';text-align:start;writing-mode:lr-tb;text-anchor:start;display:inline;fill:#000000;fill-opacity:1;stroke:none;enable-background:new"
       id="icon-name"><tspan
         style="font-size:18.30070686px;line-height:1.25"
         y="21.513618"
         x="191.97073"
         id="tspan3023">help-faq</tspan></text>
  </g>
  <g
     transform="translate(-303,-219)"
     style="display:inline"
     id="layer2">
    <g
       transform="translate(296,50)"
       style="display:inline;enable-background:new"
       id="g48">
      <g
         transform="translate(21,173)"
         id="g2138" />
      <g
         transform="matrix(2.074433,0,0,1.931125,63.62304,305.1745)"
         id="g3248" />
      <g
         style="opacity:0.7"
         id="g3312">
        <g
           transform="translate(-6,-15)"
           style="opacity:0.6"
           id="g3296">
          <ellipse
             ry="4"
             rx="7.21875"
             cy="18"
             cx="7.21875"
             transform="matrix(2.030696,0,0,2.061435,5,1.546145)"
             style="opacity:0.15;fill:url(#radialGradient3308);fill-opacity:1;stroke:none;stroke-width:2;stroke-linecap:round;stroke-linejoin:round;stroke-miterlimit:4;stroke-dasharray:none;stroke-dashoffset:0;stroke-opacity:1"
             id="path3298" />
          <path
             style="fill:url(#linearGradient3310);fill-opacity:1;fill-rule:evenodd;stroke:#888a85;stroke-width:0.99999994px;stroke-linecap:butt;stroke-linejoin:miter;stroke-opacity:1"
             id="path3300"
             d="m 11.836888,16.500001 c -2.9586797,0 -5.3389912,2.17434 -5.3389912,4.877016 v 11.181454 c 0,2.702676 2.3803115,4.877016 5.3389912,4.877016 h 5.078552 l 13.542807,8.564518 -2.669495,-8.861897 c 2.119436,-0.646164 3.711249,-2.420865 3.711249,-4.579637 V 21.377017 c 0,-2.702676 -2.445421,-4.877016 -5.4041,-4.877016 z" />
          <path
             transform="matrix(1.00418,0,0,1,-0.127496,0)"
             style="fill:none;fill-opacity:1;fill-rule:evenodd;stroke:#ffffff;stroke-width:0.9979164px;stroke-linecap:butt;stroke-linejoin:miter;stroke-opacity:1"
             id="path3302"
             d="m 11.9375,17.5 c -2.4541694,-1e-6 -4.34375,1.763826 -4.34375,3.875 v 11.1875 c 1e-7,2.111173 1.8895802,3.875 4.34375,3.875 h 5.03125 a 1.0001,1.0001 0 0 1 0.535156,0.15625 l 11.238282,7.126953 -1.888672,-6.308594 a 1.0001,1.0001 0 0 1 0.666015,-1.24414 C 29.277716,35.629597 30.5,34.234176 30.5,32.5625 V 21.375 C 30.5,19.271536 28.57917,17.5 26.125,17.5 Z" />
          <path
             style="font-style:normal;font-weight:normal;font-size:24.39787865px;font-family:'Bitstream Vera Sans Mono';opacity:1;fill:#729fcf;fill-opacity:1;stroke:none;stroke-width:1px;stroke-linecap:butt;stroke-linejoin:miter;stroke-opacity:1"
             id="path3304"
             d="M 19.938404,30.098361 H 18.1224 V 28.98384 c -4e-6,-0.487297 0.08874,-0.887752 0.26622,-1.201366 0.177477,-0.313605 0.551453,-0.677874 1.121929,-1.092809 l 0.85571,-0.644107 c 0.361293,-0.255706 0.621174,-0.496944 0.779645,-0.723716 0.164796,-0.226755 0.247198,-0.458344 0.247205,-0.694765 -7e-6,-0.429396 -0.20918,-0.776778 -0.62752,-1.04215 -0.412014,-0.265353 -0.9603,-0.398033 -1.644862,-0.398042 -0.500752,9e-6 -1.036363,0.08444 -1.606831,0.253299 -0.564137,0.168877 -1.153624,0.414939 -1.768464,0.73819 V 22.81779 c 0.595824,-0.275001 1.197989,-0.480054 1.806496,-0.615158 0.614838,-0.135083 1.248696,-0.202629 1.901574,-0.202639 1.166293,10e-6 2.101233,0.234011 2.804823,0.702002 0.709913,0.468012 1.064874,1.085582 1.064883,1.852711 -9e-6,0.36669 -0.114104,0.716485 -0.342284,1.049385 -0.228198,0.328092 -0.627528,0.699598 -1.197993,1.114522 l -0.836692,0.622395 c -0.297919,0.226769 -0.510263,0.405285 -0.637027,0.535548 -0.12044,0.12545 -0.206011,0.24848 -0.256714,0.369095 -0.03804,0.101325 -0.06656,0.224355 -0.08557,0.369095 -0.01902,0.144746 -0.02853,0.342562 -0.02852,0.593445 v 0.89017" />
          <path
             style="font-style:normal;font-weight:normal;font-size:24.39787865px;font-family:'Bitstream Vera Sans Mono';opacity:1;fill:#729fcf;fill-opacity:1;stroke:none;stroke-width:1px;stroke-linecap:butt;stroke-linejoin:miter;stroke-opacity:1"
             id="path3306"
             d="m 18.065353,31.162221 h 1.930098 v 1.838236 h -1.930098 v -1.838236" />
        </g>
        <g
           transform="translate(16,-12)"
           id="g3280">
          <ellipse
             ry="4"
             rx="7.21875"
             cy="18"
             cx="7.21875"
             transform="matrix(2.030696,0,0,2.061435,5,1.546145)"
             style="opacity:0.15;fill:url(#radialGradient3292);fill-opacity:1;stroke:none;stroke-width:2;stroke-linecap:round;stroke-linejoin:round;stroke-miterlimit:4;stroke-dasharray:none;stroke-dashoffset:0;stroke-opacity:1"
             id="path3282" />
          <path
             style="fill:url(#linearGradient3294);fill-opacity:1;fill-rule:evenodd;stroke:#888a85;stroke-width:0.99999994px;stroke-linecap:butt;stroke-linejoin:miter;stroke-opacity:1"
             id="path3284"
             d="m 11.836888,16.500001 c -2.9586797,0 -5.3389912,2.17434 -5.3389912,4.877016 v 11.181454 c 0,2.702676 2.3803115,4.877016 5.3389912,4.877016 h 5.078552 l 13.542807,8.564518 -2.669495,-8.861897 c 2.119436,-0.646164 3.711249,-2.420865 3.711249,-4.579637 V 21.377017 c 0,-2.702676 -2.445421,-4.877016 -5.4041,-4.877016 z" />
          <path
             transform="matrix(1.00418,0,0,1,-0.127496,0)"
             style="fill:none;fill-opacity:1;fill-rule:evenodd;stroke:#ffffff;stroke-width:0.9979164px;stroke-linecap:butt;stroke-linejoin:miter;stroke-opacity:1"
             id="path3286"
             d="m 11.9375,17.5 c -2.4541694,-1e-6 -4.34375,1.763826 -4.34375,3.875 v 11.1875 c 1e-7,2.111173 1.8895802,3.875 4.34375,3.875 h 5.03125 a 1.0001,1.0001 0 0 1 0.535156,0.15625 l 11.238282,7.126953 -1.888672,-6.308594 a 1.0001,1.0001 0 0 1 0.666015,-1.24414 C 29.277716,35.629597 30.5,34.234176 30.5,32.5625 V 21.375 C 30.5,19.271536 28.57917,17.5 26.125,17.5 Z" />
          <path
             style="font-style:normal;font-weight:normal;font-size:24.39787865px;font-family:'Bitstream Vera Sans Mono';opacity:1;fill:#729fcf;fill-opacity:1;stroke:none;stroke-width:1px;stroke-linecap:butt;stroke-linejoin:miter;stroke-opacity:1"
             id="path3288"
             d="M 19.938404,30.098361 H 18.1224 V 28.98384 c -4e-6,-0.487297 0.08874,-0.887752 0.26622,-1.201366 0.177477,-0.313605 0.551453,-0.677874 1.121929,-1.092809 l 0.85571,-0.644107 c 0.361293,-0.255706 0.621174,-0.496944 0.779645,-0.723716 0.164796,-0.226755 0.247198,-0.458344 0.247205,-0.694765 -7e-6,-0.429396 -0.20918,-0.776778 -0.62752,-1.04215 -0.412014,-0.265353 -0.9603,-0.398033 -1.644862,-0.398042 -0.500752,9e-6 -1.036363,0.08444 -1.606831,0.253299 -0.564137,0.168877 -1.153624,0.414939 -1.768464,0.73819 V 22.81779 c 0.595824,-0.275001 1.197989,-0.480054 1.806496,-0.615158 0.614838,-0.135083 1.248696,-0.202629 1.901574,-0.202639 1.166293,10e-6 2.101233,0.234011 2.804823,0.702002 0.709913,0.468012 1.064874,1.085582 1.064883,1.852711 -9e-6,0.36669 -0.114104,0.716485 -0.342284,1.049385 -0.228198,0.328092 -0.627528,0.699598 -1.197993,1.114522 l -0.836692,0.622395 c -0.297919,0.226769 -0.510263,0.405285 -0.637027,0.535548 -0.12044,0.12545 -0.206011,0.24848 -0.256714,0.369095 -0.03804,0.101325 -0.06656,0.224355 -0.08557,0.369095 -0.01902,0.144746 -0.02853,0.342562 -0.02852,0.593445 v 0.89017" />
          <path
             style="font-style:normal;font-weight:normal;font-size:24.39787865px;font-family:'Bitstream Vera Sans Mono';opacity:1;fill:#729fcf;fill-opacity:1;stroke:none;stroke-width:1px;stroke-linecap:butt;stroke-linejoin:miter;stroke-opacity:1"
             id="path3290"
             d="m 18.065353,31.162221 h 1.930098 v 1.838236 h -1.930098 v -1.838236" />
        </g>
      </g>
      <g
         id="g3273">
        <ellipse
           ry="4"
           rx="7.21875"
           cy="18"
           cx="7.21875"
           transform="matrix(2.030696,0,0,2.061435,5,1.546145)"
           style="opacity:0.15;fill:url(#radialGradient3271);fill-opacity:1;stroke:none;stroke-width:2;stroke-linecap:round;stroke-linejoin:round;stroke-miterlimit:4;stroke-dasharray:none;stroke-dashoffset:0;stroke-opacity:1"
           id="path3269" />
        <path
           style="fill:url(#linearGradient3255);fill-opacity:1;fill-rule:evenodd;stroke:#888a85;stroke-width:0.99999994px;stroke-linecap:butt;stroke-linejoin:miter;stroke-opacity:1"
           id="path3244"
           d="m 11.836888,16.500001 c -2.9586797,0 -5.3389912,2.17434 -5.3389912,4.877016 v 11.181454 c 0,2.702676 2.3803115,4.877016 5.3389912,4.877016 h 5.078552 l 13.542807,8.564518 -2.669495,-8.861897 c 2.119436,-0.646164 3.711249,-2.420865 3.711249,-4.579637 V 21.377017 c 0,-2.702676 -2.445421,-4.877016 -5.4041,-4.877016 z" />
        <path
           transform="matrix(1.00418,0,0,1,-0.127496,0)"
           style="fill:none;fill-opacity:1;fill-rule:evenodd;stroke:#ffffff;stroke-width:0.9979164px;stroke-linecap:butt;stroke-linejoin:miter;stroke-opacity:1"
           id="path3261"
           d="m 11.9375,17.5 c -2.4541694,-1e-6 -4.34375,1.763826 -4.34375,3.875 v 11.1875 c 1e-7,2.111173 1.8895802,3.875 4.34375,3.875 h 5.03125 a 1.0001,1.0001 0 0 1 0.535156,0.15625 l 11.238282,7.126953 -1.888672,-6.308594 a 1.0001,1.0001 0 0 1 0.666015,-1.24414 C 29.277716,35.629597 30.5,34.234176 30.5,32.5625 V 21.375 C 30.5,19.271536 28.57917,17.5 26.125,17.5 Z" />
        <path
           style="font-style:normal;font-weight:normal;font-size:24.39787865px;font-family:'Bitstream Vera Sans Mono';opacity:1;fill:#729fcf;fill-opacity:1;stroke:none;stroke-width:1px;stroke-linecap:butt;stroke-linejoin:miter;stroke-opacity:1"
           id="path3265"
           d="M 19.938404,30.098361 H 18.1224 V 28.98384 c -4e-6,-0.487297 0.08874,-0.887752 0.26622,-1.201366 0.177477,-0.313605 0.551453,-0.677874 1.121929,-1.092809 l 0.85571,-0.644107 c 0.361293,-0.255706 0.621174,-0.496944 0.779645,-0.723716 0.164796,-0.226755 0.247198,-0.458344 0.247205,-0.694765 -7e-6,-0.429396 -0.20918,-0.776778 -0.62752,-1.04215 -0.412014,-0.265353 -0.9603,-0.398033 -1.644862,-0.398042 -0.500752,9e-6 -1.036363,0.08444 -1.606831,0.253299 -0.564137,0.168877 -1.153624,0.414939 -1.768464,0.73819 V 22.81779 c 0.595824,-0.275001 1.197989,-0.480054 1.806496,-0.615158 0.614838,-0.135083 1.248696,-0.202629 1.901574,-0.202639 1.166293,10e-6 2.101233,0.234011 2.804823,0.702002 0.709913,0.468012 1.064874,1.085582 1.064883,1.852711 -9e-6,0.36669 -0.114104,0.716485 -0.342284,1.049385 -0.228198,0.328092 -0.627528,0.699598 -1.197993,1.114522 l -0.836692,0.622395 c -0.297919,0.226769 -0.510263,0.405285 -0.637027,0.535548 -0.12044,0.12545 -0.206011,0.24848 -0.256714,0.369095 -0.03804,0.101325 -0.06656,0.224355 -0.08557,0.369095 -0.01902,0.144746 -0.02853,0.342562 -0.02852,0.593445 v 0.89017" />
        <path
           style="font-style:normal;font-weight:normal;font-size:24.39787865px;font-family:'Bitstream Vera Sans Mono';opacity:1;fill:#729fcf;fill-opacity:1;stroke:none;stroke-width:1px;stroke-linecap:butt;stroke-linejoin:miter;stroke-opacity:1"
           id="path3267"
           d="m 18.065353,31.162221 h 1.930098 v 1.838236 h -1.930098 v -1.838236" />
      </g>
    </g>
    <g
       transform="translate(303,126)"
       style="display:inline;enable-background:new"
       id="g32">
      <g
         transform="translate(21,173)"
         id="g68" />
      <g
         transform="matrix(2.074433,0,0,1.931125,63.62304,305.1745)"
         id="g70" />
      <g
         style="opacity:0.6"
         id="g2977">
        <g
           transform="translate(4,-8)"
           style="opacity:0.6"
           id="g2960">
          <ellipse
             ry="4"
             rx="7.21875"
             cy="18"
             cx="7.21875"
             transform="matrix(1.593074,0,0,2.002839,-1,-12.03975)"
             style="opacity:0.15;fill:url(#radialGradient2972);fill-opacity:1;stroke:none;stroke-width:2;stroke-linecap:round;stroke-linejoin:round;stroke-miterlimit:4;stroke-dasharray:none;stroke-dashoffset:0;stroke-opacity:1"
             id="path2962" />
          <path
             style="fill:url(#linearGradient2974);fill-opacity:1;fill-rule:evenodd;stroke:#888a85;stroke-width:0.99999952px;stroke-linecap:butt;stroke-linejoin:miter;stroke-opacity:1"
             id="path2964"
             d="m 5.330031,10.5 c -2.6766323,0 -4.83003098,1.819345 -4.83003098,4.080767 v 6.845702 c 0,2.261422 2.15339868,4.080767 4.83003098,4.080767 h 2.7850772 l 8.0274278,-0.248827 c 1.917394,-0.540668 3.357461,-2.025621 3.357461,-3.83194 V 14.580767 C 19.499997,12.319345 17.287695,10.5 14.611064,10.5 Z" />
          <path
             style="font-style:normal;font-weight:normal;font-size:24.39787865px;font-family:'Bitstream Vera Sans Mono';fill:#729fcf;fill-opacity:1;stroke:none;stroke-width:1px;stroke-linecap:butt;stroke-linejoin:miter;stroke-opacity:1"
             id="path2966"
             d="M 10.85793,20.098361 H 9.403588 v -0.976897 c -3e-6,-0.427124 0.071064,-0.77813 0.213202,-1.053018 0.142132,-0.274881 0.441629,-0.594169 0.898493,-0.957867 l 0.685293,-0.564571 c 0.289341,-0.22413 0.497466,-0.43558 0.624376,-0.634349 0.131977,-0.198755 0.197968,-0.401747 0.197974,-0.608974 -6e-6,-0.376373 -0.167522,-0.680859 -0.502548,-0.913463 -0.32996,-0.232586 -0.769054,-0.348883 -1.317283,-0.34889 -0.401025,7e-6 -0.829968,0.07401 -1.286826,0.222021 C 8.4644818,14.410376 7.9923929,14.626054 7.5,14.909389 V 13.716813 C 7.9771639,13.47577 8.459406,13.296038 8.9467269,13.177617 9.439118,13.059214 9.946742,13.000009 10.469597,13 c 0.934023,9e-6 1.682767,0.205115 2.246235,0.615317 0.568531,0.410221 0.852801,0.951532 0.852808,1.623934 -7e-6,0.32141 -0.09138,0.628011 -0.274118,0.919804 -0.182751,0.287578 -0.502553,0.61321 -0.959408,0.976898 l -0.670062,0.54554 c -0.238588,0.198767 -0.408643,0.355239 -0.510161,0.469417 -0.09645,0.109959 -0.164985,0.217797 -0.20559,0.323518 -0.03046,0.08881 -0.0533,0.196651 -0.06853,0.323519 -0.01523,0.126872 -0.02285,0.300261 -0.02284,0.520164 v 0.78025" />
          <path
             style="font-style:normal;font-weight:normal;font-size:24.39787865px;font-family:'Bitstream Vera Sans Mono';fill:#729fcf;fill-opacity:1;stroke:none;stroke-width:1px;stroke-linecap:butt;stroke-linejoin:miter;stroke-opacity:1"
             id="path2968"
             d="m 9.065353,21.162221 h 1.930098 v 1.838236 H 9.065353 v -1.838236" />
          <path
             transform="matrix(1.00369,0,0,1,-0.00553507,0)"
             style="fill:none;fill-opacity:1;fill-rule:evenodd;stroke:#ffffff;stroke-width:0.99815965px;stroke-linecap:butt;stroke-linejoin:miter;stroke-opacity:1"
             id="path2970"
             d="M 5.3125,11.5 C 3.0990224,11.5 1.5,12.961967 1.5,14.59375 V 21.4375 C 1.5,23.069282 3.0912445,24.5 5.3125,24.5 h 2.78125 c 0.1882867,8.62e-4 0.3724788,0.05504 0.53125,0.15625 l 6.46875,0.6875 c -0.05041,-0.481762 0.252825,-0.930024 0.71875,-1.0625 1.583887,-0.447813 2.625,-1.563978 2.625,-2.84375 V 14.59375 C 18.4375,12.980331 16.775977,11.5 14.5625,11.5 Z" />
        </g>
        <g
           transform="translate(12,-5)"
           id="g2944">
          <ellipse
             ry="4"
             rx="7.21875"
             cy="18"
             cx="7.21875"
             transform="matrix(1.593074,0,0,2.002839,-1,-12.03975)"
             style="opacity:0.15;fill:url(#radialGradient2956);fill-opacity:1;stroke:none;stroke-width:2;stroke-linecap:round;stroke-linejoin:round;stroke-miterlimit:4;stroke-dasharray:none;stroke-dashoffset:0;stroke-opacity:1"
             id="path2946" />
          <path
             style="fill:url(#linearGradient2958);fill-opacity:1;fill-rule:evenodd;stroke:#888a85;stroke-width:0.99999952px;stroke-linecap:butt;stroke-linejoin:miter;stroke-opacity:1"
             id="path2948"
             d="m 5.330031,10.5 c -2.6766323,0 -4.83003098,1.819345 -4.83003098,4.080767 v 6.845702 c 0,2.261422 2.15339868,4.080767 4.83003098,4.080767 h 2.7850772 l 8.6331018,5.492758 -0.605674,-5.741585 c 1.917394,-0.540668 3.357461,-2.025621 3.357461,-3.83194 V 14.580767 C 19.499997,12.319345 17.287695,10.5 14.611064,10.5 Z" />
          <path
             style="font-style:normal;font-weight:normal;font-size:24.39787865px;font-family:'Bitstream Vera Sans Mono';fill:#729fcf;fill-opacity:1;stroke:none;stroke-width:1px;stroke-linecap:butt;stroke-linejoin:miter;stroke-opacity:1"
             id="path2950"
             d="M 10.85793,20.098361 H 9.403588 v -0.976897 c -3e-6,-0.427124 0.071064,-0.77813 0.213202,-1.053018 0.142132,-0.274881 0.441629,-0.594169 0.898493,-0.957867 l 0.685293,-0.564571 c 0.289341,-0.22413 0.497466,-0.43558 0.624376,-0.634349 0.131977,-0.198755 0.197968,-0.401747 0.197974,-0.608974 -6e-6,-0.376373 -0.167522,-0.680859 -0.502548,-0.913463 -0.32996,-0.232586 -0.769054,-0.348883 -1.317283,-0.34889 -0.401025,7e-6 -0.829968,0.07401 -1.286826,0.222021 C 8.4644818,14.410376 7.9923929,14.626054 7.5,14.909389 V 13.716813 C 7.9771639,13.47577 8.459406,13.296038 8.9467269,13.177617 9.439118,13.059214 9.946742,13.000009 10.469597,13 c 0.934023,9e-6 1.682767,0.205115 2.246235,0.615317 0.568531,0.410221 0.852801,0.951532 0.852808,1.623934 -7e-6,0.32141 -0.09138,0.628011 -0.274118,0.919804 -0.182751,0.287578 -0.502553,0.61321 -0.959408,0.976898 l -0.670062,0.54554 c -0.238588,0.198767 -0.408643,0.355239 -0.510161,0.469417 -0.09645,0.109959 -0.164985,0.217797 -0.20559,0.323518 -0.03046,0.08881 -0.0533,0.196651 -0.06853,0.323519 -0.01523,0.126872 -0.02285,0.300261 -0.02284,0.520164 v 0.78025" />
          <path
             style="font-style:normal;font-weight:normal;font-size:24.39787865px;font-family:'Bitstream Vera Sans Mono';fill:#729fcf;fill-opacity:1;stroke:none;stroke-width:1px;stroke-linecap:butt;stroke-linejoin:miter;stroke-opacity:1"
             id="path2952"
             d="m 9.065353,21.162221 h 1.930098 v 1.838236 H 9.065353 v -1.838236" />
          <path
             transform="matrix(1.00369,0,0,1,-0.00553507,0)"
             style="fill:none;fill-opacity:1;fill-rule:evenodd;stroke:#ffffff;stroke-width:0.99815965px;stroke-linecap:butt;stroke-linejoin:miter;stroke-opacity:1"
             id="path2954"
             d="m 5.3125,11.496094 c -2.2134776,0 -3.8164062,1.465873 -3.8164062,3.097656 v 6.84375 c -10e-8,1.631782 1.5951507,3.066406 3.8164062,3.066406 h 2.78125 a 0.99676854,0.99676854 0 0 1 0.5351562,0.15625 l 6.8749998,4.384766 -0.40039,-3.6875 a 0.99676854,0.99676854 0 0 1 0.71875,-1.066406 c 1.583887,-0.447813 2.61914,-1.573744 2.61914,-2.853516 v -6.84375 c 0,-1.613419 -1.665429,-3.097656 -3.878906,-3.097656 z" />
        </g>
      </g>
      <g
         id="g2937">
        <ellipse
           ry="4"
           rx="7.21875"
           cy="18"
           cx="7.21875"
           transform="matrix(1.593074,0,0,2.002839,-1,-12.03975)"
           style="opacity:0.15;fill:url(#radialGradient2935);fill-opacity:1;stroke:none;stroke-width:2;stroke-linecap:round;stroke-linejoin:round;stroke-miterlimit:4;stroke-dasharray:none;stroke-dashoffset:0;stroke-opacity:1"
           id="path86" />
        <path
           style="fill:url(#linearGradient2900);fill-opacity:1;fill-rule:evenodd;stroke:#888a85;stroke-width:0.99999952px;stroke-linecap:butt;stroke-linejoin:miter;stroke-opacity:1"
           id="path88"
           d="m 5.330031,10.5 c -2.6766323,0 -4.83003098,1.819345 -4.83003098,4.080767 v 6.845702 c 0,2.261422 2.15339868,4.080767 4.83003098,4.080767 h 2.7850772 l 8.6331018,5.492758 -0.605674,-5.741585 c 1.917394,-0.540668 3.357461,-2.025621 3.357461,-3.83194 V 14.580767 C 19.499997,12.319345 17.287695,10.5 14.611064,10.5 Z" />
        <path
           style="font-style:normal;font-weight:normal;font-size:24.39787865px;font-family:'Bitstream Vera Sans Mono';fill:#729fcf;fill-opacity:1;stroke:none;stroke-width:1px;stroke-linecap:butt;stroke-linejoin:miter;stroke-opacity:1"
           id="path90"
           d="M 10.85793,20.098361 H 9.403588 v -0.976897 c -3e-6,-0.427124 0.071064,-0.77813 0.213202,-1.053018 0.142132,-0.274881 0.441629,-0.594169 0.898493,-0.957867 l 0.685293,-0.564571 c 0.289341,-0.22413 0.497466,-0.43558 0.624376,-0.634349 0.131977,-0.198755 0.197968,-0.401747 0.197974,-0.608974 -6e-6,-0.376373 -0.167522,-0.680859 -0.502548,-0.913463 -0.32996,-0.232586 -0.769054,-0.348883 -1.317283,-0.34889 -0.401025,7e-6 -0.829968,0.07401 -1.286826,0.222021 C 8.4644818,14.410376 7.9923929,14.626054 7.5,14.909389 V 13.716813 C 7.9771639,13.47577 8.459406,13.296038 8.9467269,13.177617 9.439118,13.059214 9.946742,13.000009 10.469597,13 c 0.934023,9e-6 1.682767,0.205115 2.246235,0.615317 0.568531,0.410221 0.852801,0.951532 0.852808,1.623934 -7e-6,0.32141 -0.09138,0.628011 -0.274118,0.919804 -0.182751,0.287578 -0.502553,0.61321 -0.959408,0.976898 l -0.670062,0.54554 c -0.238588,0.198767 -0.408643,0.355239 -0.510161,0.469417 -0.09645,0.109959 -0.164985,0.217797 -0.20559,0.323518 -0.03046,0.08881 -0.0533,0.196651 -0.06853,0.323519 -0.01523,0.126872 -0.02285,0.300261 -0.02284,0.520164 v 0.78025" />
        <path
           style="font-style:normal;font-weight:normal;font-size:24.39787865px;font-family:'Bitstream Vera Sans Mono';fill:#729fcf;fill-opacity:1;stroke:none;stroke-width:1px;stroke-linecap:butt;stroke-linejoin:miter;stroke-opacity:1"
           id="path92"
           d="m 9.065353,21.162221 h 1.930098 v 1.838236 H 9.065353 v -1.838236" />
        <path
           transform="matrix(1.00369,0,0,1,-0.00553507,0)"
           style="fill:none;fill-opacity:1;fill-rule:evenodd;stroke:#ffffff;stroke-width:0.99815965px;stroke-linecap:butt;stroke-linejoin:miter;stroke-opacity:1"
           id="path2931"
           d="m 5.3125,11.496094 c -2.2134776,0 -3.8164062,1.465873 -3.8164062,3.097656 v 6.84375 c -10e-8,1.631782 1.5951507,3.066406 3.8164062,3.066406 h 2.78125 a 0.99676854,0.99676854 0 0 1 0.5351562,0.15625 l 6.8749998,4.384766 -0.40039,-3.6875 a 0.99676854,0.99676854 0 0 1 0.71875,-1.066406 c 1.583887,-0.447813 2.61914,-1.573744 2.61914,-2.853516 v -6.84375 c 0,-1.613419 -1.665429,-3.097656 -3.878906,-3.097656 z" />
      </g>
    </g>
    <g
       transform="translate(303,177)"
       style="display:inline;enable-background:new"
       id="g22">
      <g
         style="opacity:0.6"
         id="g3246">
        <g
           transform="translate(3,-5)"
           style="opacity:0.6"
           id="g3090">
          <ellipse
             ry="4"
             rx="7.21875"
             cy="18"
             cx="7.21875"
             transform="matrix(1.038961,0,0,1.054688,0,-2.203136)"
             style="opacity:0.2;fill:url(#radialGradient3163);fill-opacity:1;stroke:none;stroke-width:2;stroke-linecap:round;stroke-linejoin:round;stroke-miterlimit:4;stroke-dasharray:none;stroke-dashoffset:0;stroke-opacity:1"
             id="path3092" />
          <g
             transform="translate(-2,5)"
             id="g3094">
            <path
               style="fill:url(#linearGradient3165);fill-opacity:1;fill-rule:evenodd;stroke:#888a85;stroke-width:1px;stroke-linecap:butt;stroke-linejoin:miter;stroke-opacity:1"
               id="path3096"
               d="M 5.0625,0.5 C 3.642453,0.5 2.5,1.64245 2.5,3.0625 v 5.875 C 2.5,10.35755 3.642453,11.5 5.0625,11.5 H 7.5 l 5.21875,-0.15625 C 13.735994,11.00424 14.5,10.07177 14.5,8.9375 V 3.0625 C 14.5,1.64245 13.326297,0.5 11.90625,0.5 Z" />
            <path
               style="fill:none;fill-opacity:1;fill-rule:evenodd;stroke:#ffffff;stroke-width:1px;stroke-linecap:butt;stroke-linejoin:miter;stroke-opacity:1"
               id="path3098"
               d="M 5.0625,1.5 C 4.178798,1.5 3.5,2.178798 3.5,3.0625 v 5.875 c 0,0.8837019 0.678798,1.5625 1.5625,1.5625 0,0 0.6395824,0.03435 2.4375,0 l 4.90625,-0.09375 C 13.07903,10.393394 13.5,9.6227258 13.5,8.9375 V 3.0625 C 13.5,2.1934689 12.789952,1.5 11.90625,1.5 Z" />
            <g
               transform="translate(30,150)"
               id="g3100" />
          </g>
        </g>
        <g
           id="g3235">
          <g
             transform="translate(9,-3)"
             id="g3112">
            <ellipse
               ry="4"
               rx="7.21875"
               cy="18"
               cx="7.21875"
               transform="matrix(1.038961,0,0,1.054688,0,-2.203136)"
               style="opacity:0.2;fill:url(#radialGradient3167);fill-opacity:1;stroke:none;stroke-width:2;stroke-linecap:round;stroke-linejoin:round;stroke-miterlimit:4;stroke-dasharray:none;stroke-dashoffset:0;stroke-opacity:1"
               id="path3114" />
            <g
               transform="translate(-2,5)"
               id="g3116">
              <path
                 style="fill:url(#linearGradient3169);fill-opacity:1;fill-rule:evenodd;stroke:#888a85;stroke-width:1px;stroke-linecap:butt;stroke-linejoin:miter;stroke-opacity:1"
                 id="path3118"
                 d="M 5.0625,0.5 C 3.642453,0.5 2.5,1.64245 2.5,3.0625 v 5.875 C 2.5,10.35755 3.642453,11.5 5.0625,11.5 H 7.5 L 14,16 12.71875,11.34375 C 13.735994,11.00424 14.5,10.07177 14.5,8.9375 V 3.0625 C 14.5,1.64245 13.326297,0.5 11.90625,0.5 Z" />
              <path
                 style="fill:none;fill-opacity:1;fill-rule:evenodd;stroke:#ffffff;stroke-width:1px;stroke-linecap:butt;stroke-linejoin:miter;stroke-opacity:1"
                 id="path3120"
                 d="M 5.0625,1.5 C 4.178798,1.5 3.5,2.178798 3.5,3.0625 v 5.875 C 3.5,9.8212019 4.178798,10.5 5.0625,10.5 H 7.5 c 0.2021424,0.0042 0.3982637,0.06958 0.5625,0.1875 l 4.25,2.9375 -0.5625,-2.03125 c -0.124246,-0.506382 0.161393,-1.023254 0.65625,-1.1875 C 13.044542,10.19322 13.5,9.6227258 13.5,8.9375 V 3.0625 C 13.5,2.1934689 12.789952,1.5 11.90625,1.5 Z" />
              <g
                 transform="translate(30,150)"
                 id="g3122" />
            </g>
          </g>
          <g
             transform="translate(7,-3)"
             style="fill:#729fcf"
             id="g3229">
            <path
               style="font-style:normal;font-weight:normal;font-size:8.88391113px;font-family:'Bitstream Vera Sans';fill:#729fcf;fill-opacity:1;stroke:none;stroke-width:1px;stroke-linecap:butt;stroke-linejoin:miter;stroke-opacity:1"
               id="path3231"
               d="M 8.9366382,12 H 8.0978674 v -0.550491 c -1.7e-6,-0.24069 0.040985,-0.438484 0.1229612,-0.593388 0.081972,-0.154898 0.2547031,-0.33482 0.5181934,-0.539768 L 9.1342543,9.9982118 C 9.3011272,9.8719118 9.4211606,9.752758 9.4943548,9.6407492 9.5704703,9.5287487 9.6085298,9.4143608 9.608533,9.2975858 9.6085298,9.0854955 9.5119175,8.913914 9.318696,8.78284 9.1283962,8.6517753 8.875155,8.5862406 8.5589718,8.5862357 8.3276857,8.5862406 8.0802998,8.6279445 7.8168134,8.7113476 7.5562517,8.7947601 7.2839808,8.9162971 7,9.0759587 V 8.40393 C 7.2751978,8.2680994 7.553324,8.1668186 7.8343793,8.1000871 8.1183592,8.0333661 8.4111235,8.000003 8.7126731,7.9999976 c 0.5386841,5.4e-6 0.9705116,0.1155848 1.2954839,0.3467384 0.327892,0.2311638 0.49184,0.536198 0.491844,0.915103 -4e-6,0.181119 -0.0527,0.3538919 -0.158093,0.5183205 -0.105399,0.1620536 -0.28984,0.3455505 -0.5533248,0.5504925 L 9.402134,10.63807 c -0.1376023,0.112007 -0.2356784,0.200181 -0.2942285,0.264521 -0.055628,0.06196 -0.095151,0.122732 -0.1185697,0.182306 -0.017569,0.05005 -0.030743,0.110816 -0.039523,0.182306 -0.00879,0.07149 -0.013177,0.169201 -0.013174,0.293119 V 12" />
            <path
               style="font-style:normal;font-weight:normal;font-size:8.88391113px;font-family:'Bitstream Vera Sans';fill:#729fcf;fill-opacity:1;stroke:none;stroke-width:1px;stroke-linecap:butt;stroke-linejoin:miter;stroke-opacity:1"
               id="path3233"
               d="m 8,13 h 0.9676912 v 1 H 8 v -1" />
          </g>
        </g>
      </g>
      <g
         id="g3083">
        <ellipse
           ry="4"
           rx="7.21875"
           cy="18"
           cx="7.21875"
           transform="matrix(1.038961,0,0,1.054688,0,-2.203136)"
           style="opacity:0.2;fill:url(#radialGradient3081);fill-opacity:1;stroke:none;stroke-width:2;stroke-linecap:round;stroke-linejoin:round;stroke-miterlimit:4;stroke-dasharray:none;stroke-dashoffset:0;stroke-opacity:1"
           id="path3073" />
        <g
           transform="translate(-2,5)"
           id="g2089">
          <path
             style="fill:url(#linearGradient2105);fill-opacity:1;fill-rule:evenodd;stroke:#888a85;stroke-width:1px;stroke-linecap:butt;stroke-linejoin:miter;stroke-opacity:1"
             id="path2091"
             d="M 5.0625,0.5 C 3.642453,0.5 2.5,1.64245 2.5,3.0625 v 5.875 C 2.5,10.35755 3.642453,11.5 5.0625,11.5 H 7.5 L 14,16 12.71875,11.34375 C 13.735994,11.00424 14.5,10.07177 14.5,8.9375 V 3.0625 C 14.5,1.64245 13.326297,0.5 11.90625,0.5 Z" />
          <path
             style="fill:none;fill-opacity:1;fill-rule:evenodd;stroke:#ffffff;stroke-width:1px;stroke-linecap:butt;stroke-linejoin:miter;stroke-opacity:1"
             id="path2095"
             d="M 5.0625,1.5 C 4.178798,1.5 3.5,2.178798 3.5,3.0625 v 5.875 C 3.5,9.8212019 4.178798,10.5 5.0625,10.5 H 7.5 c 0.2021424,0.0042 0.3982637,0.06958 0.5625,0.1875 l 4.25,2.9375 -0.5625,-2.03125 c -0.124246,-0.506382 0.161393,-1.023254 0.65625,-1.1875 C 13.044542,10.19322 13.5,9.6227258 13.5,8.9375 V 3.0625 C 13.5,2.1934689 12.789952,1.5 11.90625,1.5 Z" />
          <g
             transform="translate(30,150)"
             id="g2097" />
        </g>
      </g>
      <g
         transform="translate(-2)"
         style="fill:#729fcf"
         id="g2133">
        <path
           style="font-style:normal;font-weight:normal;font-size:8.88391113px;font-family:'Bitstream Vera Sans';fill:#729fcf;fill-opacity:1;stroke:none;stroke-width:1px;stroke-linecap:butt;stroke-linejoin:miter;stroke-opacity:1"
           id="text2126"
           d="M 8.9366382,12 H 8.0978674 v -0.550491 c -1.7e-6,-0.24069 0.040985,-0.438484 0.1229612,-0.593388 0.081972,-0.154898 0.2547031,-0.33482 0.5181934,-0.539768 L 9.1342543,9.9982118 C 9.3011272,9.8719118 9.4211606,9.752758 9.4943548,9.6407492 9.5704703,9.5287487 9.6085298,9.4143608 9.608533,9.2975858 9.6085298,9.0854955 9.5119175,8.913914 9.318696,8.78284 9.1283962,8.6517753 8.875155,8.5862406 8.5589718,8.5862357 8.3276857,8.5862406 8.0802998,8.6279445 7.8168134,8.7113476 7.5562517,8.7947601 7.2839808,8.9162971 7,9.0759587 V 8.40393 C 7.2751978,8.2680994 7.553324,8.1668186 7.8343793,8.1000871 8.1183592,8.0333661 8.4111235,8.000003 8.7126731,7.9999976 c 0.5386841,5.4e-6 0.9705116,0.1155848 1.2954839,0.3467384 0.327892,0.2311638 0.49184,0.536198 0.491844,0.915103 -4e-6,0.181119 -0.0527,0.3538919 -0.158093,0.5183205 -0.105399,0.1620536 -0.28984,0.3455505 -0.5533248,0.5504925 L 9.402134,10.63807 c -0.1376023,0.112007 -0.2356784,0.200181 -0.2942285,0.264521 -0.055628,0.06196 -0.095151,0.122732 -0.1185697,0.182306 -0.017569,0.05005 -0.030743,0.110816 -0.039523,0.182306 -0.00879,0.07149 -0.013177,0.169201 -0.013174,0.293119 V 12" />
        <path
           style="font-style:normal;font-weight:normal;font-size:8.88391113px;font-family:'Bitstream Vera Sans';fill:#729fcf;fill-opacity:1;stroke:none;stroke-width:1px;stroke-linecap:butt;stroke-linejoin:miter;stroke-opacity:1"
           id="path2131"
           d="m 8,13 h 0.9676912 v 1 H 8 v -1" />
      </g>
    </g>
    <g
       transform="translate(303,219)"
       style="display:inline;enable-background:new"
       id="g16">
      <g
         style="opacity:0.7"
         id="g2996">
        <g
           transform="translate(-5,-1)"
           style="opacity:0.7"
           id="g2964">
          <g
             transform="translate(3,-1)"
             id="g2956">
            <path
               style="fill:url(#linearGradient3011);fill-opacity:1;fill-rule:evenodd;stroke:#888a85;stroke-width:1px;stroke-linecap:butt;stroke-linejoin:miter;stroke-opacity:1"
               id="path2958"
               d="M 6.0625,2.5 C 4.642453,2.5 3.5,3.64245 3.5,5.0625 v 3.875 C 3.5,10.35755 4.642453,11.5 6.0625,11.5 H 7.5 h 4 c 1.017244,-0.33951 1,-1.42823 1,-2.5625 V 5.0625 C 12.5,3.64245 11.326297,2.5 9.90625,2.5 Z" />
            <g
               transform="translate(30,150)"
               id="g127" />
          </g>
          <path
             transform="translate(2,-1)"
             style="fill:none;fill-opacity:1;fill-rule:evenodd;stroke:#ffffff;stroke-width:1px;stroke-linecap:butt;stroke-linejoin:miter;stroke-opacity:1"
             id="path129"
             d="m 7.0625,3.46875 c -0.9079011,0 -1.59375,0.6858462 -1.59375,1.59375 v 3.875 c 0,0.9079038 0.6858489,1.59375 1.59375,1.59375 H 8.5 c 0.2317714,0.0047 0.4539156,0.09357 0.625,0.25 l 3.34375,-0.5 c 0.269497,-0.0403 0.0625,-0.7717761 0.0625,-1.34375 v -3.875 c 0,-0.8938949 -0.717099,-1.59375 -1.625,-1.59375 z" />
        </g>
        <g
           id="g2987">
          <g
             transform="translate(3,-1)"
             id="g2047">
            <path
               style="fill:url(#linearGradient3013);fill-opacity:1;fill-rule:evenodd;stroke:#888a85;stroke-width:1px;stroke-linecap:butt;stroke-linejoin:miter;stroke-opacity:1"
               id="path2049"
               d="M 6.0625,2.5 C 4.642453,2.5 3.5,3.64245 3.5,5.0625 v 3.875 C 3.5,10.35755 4.642453,11.5 6.0625,11.5 H 7.5 l 4,3.5 v -3.5 c 1.017244,-0.33951 1,-1.42823 1,-2.5625 V 5.0625 C 12.5,3.64245 11.326297,2.5 9.90625,2.5 Z" />
            <g
               transform="translate(30,150)"
               id="g2051" />
          </g>
          <path
             transform="translate(2,-1)"
             style="fill:none;fill-opacity:1;fill-rule:evenodd;stroke:#ffffff;stroke-width:1px;stroke-linecap:butt;stroke-linejoin:miter;stroke-opacity:1"
             id="path135"
             d="m 7.0625,3.4550781 c -0.9079011,0 -1.6074219,0.6995181 -1.6074219,1.6074219 v 3.875 c 0,0.9079038 0.6995208,1.607422 1.6074219,1.607422 H 8.5 a 0.95497924,0.95497924 0 0 1 0.6289062,0.236328 l 2.4160158,2.113281 V 11.5 a 0.95497924,0.95497924 0 0 1 0.652344,-0.90625 c 0.216335,-0.0722 0.190895,-0.06109 0.261718,-0.324219 0.07082,-0.263129 0.08594,-0.7600571 0.08594,-1.332031 v -3.875 c 0,-0.8938949 -0.730771,-1.6074219 -1.638672,-1.6074219 z" />
          <g
             transform="translate(3,-5)"
             style="fill:#729fcf"
             id="g2055">
            <path
               style="font-style:normal;font-weight:normal;font-size:8.88391113px;font-family:'Bitstream Vera Sans';fill:#729fcf;fill-opacity:1;stroke:none;stroke-width:1px;stroke-linecap:butt;stroke-linejoin:miter;stroke-opacity:1"
               id="path2057"
               d="M 8.9366382,12 H 8.0978674 v -0.550491 c -1.7e-6,-0.24069 0.040985,-0.438484 0.1229612,-0.593388 0.081972,-0.154898 0.2547031,-0.33482 0.5181934,-0.539768 L 9.1342543,9.9982118 C 9.3011272,9.8719118 9.4211606,9.752758 9.4943548,9.6407492 9.5704703,9.5287487 9.6085298,9.4143608 9.608533,9.2975858 9.6085298,9.0854955 9.5119175,8.913914 9.318696,8.78284 9.1283962,8.6517753 8.875155,8.5862406 8.5589718,8.5862357 8.3276857,8.5862406 8.0802998,8.6279445 7.8168134,8.7113476 7.5562517,8.7947601 7.2839808,8.9162971 7,9.0759587 V 8.40393 C 7.2751978,8.2680994 7.553324,8.1668186 7.8343793,8.1000871 8.1183592,8.0333661 8.4111235,8.000003 8.7126731,7.9999976 c 0.5386841,5.4e-6 0.9705116,0.1155848 1.2954839,0.3467384 0.327892,0.2311638 0.49184,0.536198 0.491844,0.915103 -4e-6,0.181119 -0.0527,0.3538919 -0.158093,0.5183205 -0.105399,0.1620536 -0.28984,0.3455505 -0.5533248,0.5504925 L 9.402134,10.63807 c -0.1376023,0.112007 -0.2356784,0.200181 -0.2942285,0.264521 -0.055628,0.06196 -0.095151,0.122732 -0.1185697,0.182306 -0.017569,0.05005 -0.030743,0.110816 -0.039523,0.182306 -0.00879,0.07149 -0.013177,0.169201 -0.013174,0.293119 V 12" />
            <path
               style="font-style:normal;font-weight:normal;font-size:8.88391113px;font-family:'Bitstream Vera Sans';fill:#729fcf;fill-opacity:1;stroke:none;stroke-width:1px;stroke-linecap:butt;stroke-linejoin:miter;stroke-opacity:1"
               id="path2059"
               d="m 8,13 h 0.9676912 v 1 H 8 v -1" />
          </g>
        </g>
      </g>
      <g
         transform="translate(-4,1)"
         id="g140">
        <path
           style="fill:url(#linearGradient2031);fill-opacity:1;fill-rule:evenodd;stroke:#888a85;stroke-width:1px;stroke-linecap:butt;stroke-linejoin:miter;stroke-opacity:1"
           id="path142"
           d="M 7.0625,2.5 C 5.642453,2.5 4.5,3.64245 4.5,5.0625 v 3.875 C 4.5,10.35755 5.642453,11.5 7.0625,11.5 H 8.5 l 4,3.5 v -3.5 c 1.017244,-0.33951 1,-1.42823 1,-2.5625 V 5.0625 C 13.5,3.64245 12.326297,2.5 10.90625,2.5 Z" />
        <g
           transform="translate(30,150)"
           id="g144" />
      </g>
      <g
         transform="translate(-3,-3)"
         style="fill:#729fcf"
         id="g146">
        <path
           style="font-style:normal;font-weight:normal;font-size:8.88391113px;font-family:'Bitstream Vera Sans';fill:#729fcf;fill-opacity:1;stroke:none;stroke-width:1px;stroke-linecap:butt;stroke-linejoin:miter;stroke-opacity:1"
           id="path148"
           d="M 8.9366382,12 H 8.0978674 v -0.550491 c -1.7e-6,-0.24069 0.040985,-0.438484 0.1229612,-0.593388 0.081972,-0.154898 0.2547031,-0.33482 0.5181934,-0.539768 L 9.1342543,9.9982118 C 9.3011272,9.8719118 9.4211606,9.752758 9.4943548,9.6407492 9.5704703,9.5287487 9.6085298,9.4143608 9.608533,9.2975858 9.6085298,9.0854955 9.5119175,8.913914 9.318696,8.78284 9.1283962,8.6517753 8.875155,8.5862406 8.5589718,8.5862357 8.3276857,8.5862406 8.0802998,8.6279445 7.8168134,8.7113476 7.5562517,8.7947601 7.2839808,8.9162971 7,9.0759587 V 8.40393 C 7.2751978,8.2680994 7.553324,8.1668186 7.8343793,8.1000871 8.1183592,8.0333661 8.4111235,8.000003 8.7126731,7.9999976 c 0.5386841,5.4e-6 0.9705116,0.1155848 1.2954839,0.3467384 0.327892,0.2311638 0.49184,0.536198 0.491844,0.915103 -4e-6,0.181119 -0.0527,0.3538919 -0.158093,0.5183205 -0.105399,0.1620536 -0.28984,0.3455505 -0.5533248,0.5504925 L 9.402134,10.63807 c -0.1376023,0.112007 -0.2356784,0.200181 -0.2942285,0.264521 -0.055628,0.06196 -0.095151,0.122732 -0.1185697,0.182306 -0.017569,0.05005 -0.030743,0.110816 -0.039523,0.182306 -0.00879,0.07149 -0.013177,0.169201 -0.013174,0.293119 V 12" />
        <path
           style="font-style:normal;font-weight:normal;font-size:8.88391113px;font-family:'Bitstream Vera Sans';fill:#729fcf;fill-opacity:1;stroke:none;stroke-width:1px;stroke-linecap:butt;stroke-linejoin:miter;stroke-opacity:1"
           id="path150"
           d="m 8,13 h 0.9676912 v 1 H 8 v -1" />
      </g>
      <g
         transform="translate(-4,1)"
         style="fill:none;stroke:#ffffff"
         id="g2061">
        <path
           style="fill:none;fill-opacity:1;fill-rule:evenodd;stroke:#ffffff;stroke-width:1px;stroke-linecap:butt;stroke-linejoin:miter;stroke-opacity:1"
           id="path153"
           d="m 7.0625,3.4550781 c -0.9079011,0 -1.6074219,0.6995181 -1.6074219,1.6074219 v 3.875 c 0,0.9079038 0.6995208,1.607422 1.6074219,1.607422 H 8.5 a 0.95497924,0.95497924 0 0 1 0.6289062,0.236328 l 2.4160158,2.113281 V 11.5 a 0.95497924,0.95497924 0 0 1 0.652344,-0.90625 c 0.216335,-0.0722 0.190895,-0.06109 0.261718,-0.324219 0.07082,-0.263129 0.08594,-0.7600571 0.08594,-1.332031 v -3.875 c 0,-0.8938949 -0.730771,-1.6074219 -1.638672,-1.6074219 z" />
        <g
           transform="translate(30,150)"
           style="fill:none;stroke:#ffffff"
           id="g2065" />
      </g>
    </g>
  </g>
  <g
     transform="translate(-303,-219)"
     style="display:inline"
     id="layer4" />
</svg>
