<?xml version="1.0" encoding="UTF-8" standalone="no"?>
<svg
   xmlns:dc="http://purl.org/dc/elements/1.1/"
   xmlns:cc="http://creativecommons.org/ns#"
   xmlns:rdf="http://www.w3.org/1999/02/22-rdf-syntax-ns#"
   xmlns:svg="http://www.w3.org/2000/svg"
   xmlns="http://www.w3.org/2000/svg"
   xmlns:xlink="http://www.w3.org/1999/xlink"
   width="16"
   version="1.0"
   style="display:inline;enable-background:new"
   id="svg11300"
   height="16">
  <title
     id="title8836">Optical Drive</title>
  <metadata
     id="metadata154">
    <rdf:RDF>
      <cc:Work
         rdf:about="">
        <dc:format>image/svg+xml</dc:format>
        <dc:type
           rdf:resource="http://purl.org/dc/dcmitype/StillImage" />
        <dc:title>Optical Drive</dc:title>
        <dc:creator>
          <cc:Agent>
            <dc:title />
          </cc:Agent>
        </dc:creator>
        <dc:contributor>
          <cc:Agent>
            <dc:title />
          </cc:Agent>
        </dc:contributor>
        <dc:source />
        <cc:license
           rdf:resource="" />
        <dc:subject>
          <rdf:Bag />
        </dc:subject>
      </cc:Work>
    </rdf:RDF>
  </metadata>
  <defs
     id="defs3">
    <linearGradient
       id="linearGradient3770">
      <stop
         style="stop-color:#6294ca;stop-opacity:1"
         offset="0"
         id="stop3772" />
      <stop
         id="stop3774"
         offset="0.39035457"
         style="stop-color:#3465a4;stop-opacity:1" />
      <stop
         style="stop-color:#bcd1e8;stop-opacity:1"
         offset="1"
         id="stop3776" />
    </linearGradient>
    <linearGradient
       id="linearGradient5484">
      <stop
         id="stop5486"
         offset="0"
         style="stop-color:#000000;stop-opacity:1;" />
      <stop
         id="stop5488"
         offset="1"
         style="stop-color:#000000;stop-opacity:0;" />
    </linearGradient>
    <linearGradient
       id="linearGradient5174">
      <stop
         id="stop5176"
         offset="0"
         style="stop-color:#000000;stop-opacity:1;" />
      <stop
         id="stop5178"
         offset="1"
         style="stop-color:#000000;stop-opacity:0;" />
    </linearGradient>
    <linearGradient
       id="linearGradient5043">
      <stop
         id="stop5045"
         offset="0"
         style="stop-color:#ffffff;stop-opacity:1;" />
      <stop
         id="stop5047"
         offset="1"
         style="stop-color:#ffffff;stop-opacity:0;" />
    </linearGradient>
    <linearGradient
       id="linearGradient4594">
      <stop
         id="stop4596"
         offset="0"
         style="stop-color:#000000;stop-opacity:1;" />
      <stop
         id="stop4598"
         offset="1"
         style="stop-color:#000000;stop-opacity:0;" />
    </linearGradient>
    <linearGradient
       id="linearGradient4179">
      <stop
         style="stop-color:#9ebdde;stop-opacity:1;"
         offset="0"
         id="stop4181" />
      <stop
         id="stop4183"
         offset="0.39035457"
         style="stop-color:#729fcf;stop-opacity:1" />
      <stop
         style="stop-color:#ffffff;stop-opacity:1"
         offset="1"
         id="stop4185" />
    </linearGradient>
    <linearGradient
       id="linearGradient4051">
      <stop
         id="stop4053"
         offset="0"
         style="stop-color:#204a87;stop-opacity:1" />
      <stop
         id="stop4055"
         offset="1"
         style="stop-color:#3465a4;stop-opacity:1" />
    </linearGradient>
    <linearGradient
       id="linearGradient3995">
      <stop
         id="stop3997"
         offset="0"
         style="stop-color:#729fcf;stop-opacity:1" />
      <stop
         style="stop-color:#3465a4;stop-opacity:1"
         offset="0.39035457"
         id="stop4003" />
      <stop
         id="stop3999"
         offset="1"
         style="stop-color:#bcd1e8;stop-opacity:1" />
    </linearGradient>
    <linearGradient
       gradientUnits="userSpaceOnUse"
       y2="220.53125"
       x2="309.88742"
       y1="231.31859"
       x1="311.30759"
       id="linearGradient4001"
       xlink:href="#linearGradient3995" />
    <linearGradient
       gradientUnits="userSpaceOnUse"
       y2="224"
       x2="310.40625"
       y1="229.34375"
       x1="311.71875"
       id="linearGradient4057"
       xlink:href="#linearGradient4051" />
    <linearGradient
       gradientTransform="translate(2,-40)"
       xlink:href="#linearGradient3770"
       id="linearGradient4142"
       gradientUnits="userSpaceOnUse"
       x1="311.5"
       y1="233.44359"
       x2="310.13742"
       y2="218.03125" />
    <linearGradient
       gradientTransform="translate(2,-40)"
       xlink:href="#linearGradient4051"
       id="linearGradient4144"
       gradientUnits="userSpaceOnUse"
       x1="312.59375"
       y1="231.71875"
       x2="308.40625"
       y2="223" />
    <filter
       height="1.8509091"
       y="-0.42545456"
       width="1.3342857"
       x="-0.16714285"
       id="filter4590">
      <feGaussianBlur
         id="feGaussianBlur4592"
         stdDeviation="0.975" />
    </filter>
    <linearGradient
       gradientUnits="userSpaceOnUse"
       y2="191.69005"
       x2="313.5"
       y1="194.0311"
       x1="313.5"
       id="linearGradient4600"
       xlink:href="#linearGradient4594" />
    <linearGradient
       xlink:href="#linearGradient3770"
       id="linearGradient4864-5"
       gradientUnits="userSpaceOnUse"
       gradientTransform="matrix(2.2142854,0,0,2.2142854,-368.7499,-430.74993)"
       x1="312.112"
       y1="236.49721"
       x2="309.29477"
       y2="215.09795" />
    <linearGradient
       id="linearGradient4179-1-1">
      <stop
         style="stop-color:#9ebdde;stop-opacity:1;"
         offset="0"
         id="stop4181-9-4" />
      <stop
         id="stop4183-88-9"
         offset="0.39035457"
         style="stop-color:#6294ca;stop-opacity:1;" />
      <stop
         style="stop-color:#ffffff;stop-opacity:1"
         offset="1"
         id="stop4185-6-0" />
    </linearGradient>
    <linearGradient
       xlink:href="#linearGradient4051"
       id="linearGradient4866-4"
       gradientUnits="userSpaceOnUse"
       gradientTransform="matrix(2.2142854,0,0,2.2142854,-368.7499,-430.74993)"
       x1="312.75342"
       y1="232.67677"
       x2="309.52393"
       y2="223.31934" />
    <linearGradient
       y2="93.818466"
       x2="329.01147"
       y1="68.5"
       x1="320"
       gradientUnits="userSpaceOnUse"
       id="linearGradient5107"
       xlink:href="#linearGradient5043" />
    <linearGradient
       gradientTransform="matrix(1.1612903,0,0,1,-51.774194,0)"
       gradientUnits="userSpaceOnUse"
       y2="81.701683"
       x2="321"
       y1="87.033554"
       x1="321"
       id="linearGradient5180"
       xlink:href="#linearGradient5174" />
    <filter
       height="1.5524138"
       y="-0.27620691"
       width="1.267"
       x="-0.13349999"
       id="filter5186">
      <feGaussianBlur
         id="feGaussianBlur5188"
         stdDeviation="1.66875" />
    </filter>
    <linearGradient
       id="linearGradient5043-8">
      <stop
         id="stop5045-1"
         offset="0"
         style="stop-color:#ffffff;stop-opacity:1;" />
      <stop
         id="stop5047-9"
         offset="1"
         style="stop-color:#ffffff;stop-opacity:0;" />
    </linearGradient>
    <linearGradient
       id="linearGradient4179-1-1-12">
      <stop
         style="stop-color:#9ebdde;stop-opacity:1;"
         offset="0"
         id="stop4181-9-4-7" />
      <stop
         id="stop4183-88-9-19"
         offset="0.39035457"
         style="stop-color:#6294ca;stop-opacity:1;" />
      <stop
         style="stop-color:#ffffff;stop-opacity:1"
         offset="1"
         id="stop4185-6-0-8" />
    </linearGradient>
    <linearGradient
       xlink:href="#linearGradient3770"
       id="linearGradient5322"
       gradientUnits="userSpaceOnUse"
       gradientTransform="matrix(2.2142854,0,0,2.2142854,-369.7499,-360.74993)"
       x1="311.58011"
       y1="232.4227"
       x2="309.74197"
       y2="218.6644" />
    <linearGradient
       xlink:href="#linearGradient4051"
       id="linearGradient5324"
       gradientUnits="userSpaceOnUse"
       gradientTransform="matrix(2.2142854,0,0,2.2142854,-369.7499,-360.74993)"
       x1="311.36337"
       y1="229.10173"
       x2="310.19247"
       y2="224.10898" />
    <linearGradient
       y2="93.818466"
       x2="329.01147"
       y1="68.5"
       x1="320"
       gradientTransform="translate(-1,70)"
       gradientUnits="userSpaceOnUse"
       id="linearGradient5369"
       xlink:href="#linearGradient5043-8" />
    <filter
       height="1.5914286"
       y="-0.29571429"
       width="1.25875"
       x="-0.129375"
       id="filter5480">
      <feGaussianBlur
         id="feGaussianBlur5482"
         stdDeviation="1.29375" />
    </filter>
    <linearGradient
       gradientUnits="userSpaceOnUse"
       y2="147.37494"
       x2="318.5"
       y1="152.75006"
       x1="318.5"
       id="linearGradient5490"
       xlink:href="#linearGradient5484" />
    <linearGradient
       y2="93.818466"
       x2="329.01147"
       y1="68.5"
       x1="320"
       gradientTransform="translate(399,70)"
       gradientUnits="userSpaceOnUse"
       id="linearGradient5369-4-0"
       xlink:href="#linearGradient5043-8-1-8" />
    <linearGradient
       id="linearGradient5043-8-1-8">
      <stop
         id="stop5045-1-1-8"
         offset="0"
         style="stop-color:#ffffff;stop-opacity:1;" />
      <stop
         id="stop5047-9-9-5"
         offset="1"
         style="stop-color:#ffffff;stop-opacity:0;" />
    </linearGradient>
    <linearGradient
       xlink:href="#linearGradient3770"
       id="linearGradient5322-9-0"
       gradientUnits="userSpaceOnUse"
       gradientTransform="matrix(2.2142854,0,0,2.2142854,30.2501,-360.74993)"
       x1="311.58011"
       y1="232.4227"
       x2="309.74197"
       y2="218.6644" />
    <linearGradient
       id="linearGradient4179-1-1-12-6-9">
      <stop
         style="stop-color:#9ebdde;stop-opacity:1;"
         offset="0"
         id="stop4181-9-4-7-5-6" />
      <stop
         id="stop4183-88-9-19-8-3"
         offset="0.39035457"
         style="stop-color:#6294ca;stop-opacity:1;" />
      <stop
         style="stop-color:#ffffff;stop-opacity:1"
         offset="1"
         id="stop4185-6-0-8-0-8" />
    </linearGradient>
    <linearGradient
       xlink:href="#linearGradient4051"
       id="linearGradient5324-14-5"
       gradientUnits="userSpaceOnUse"
       gradientTransform="matrix(2.2142854,0,0,2.2142854,30.2501,-360.74993)"
       x1="311.36337"
       y1="229.10173"
       x2="310.19247"
       y2="224.10898" />
    <linearGradient
       gradientTransform="translate(400)"
       xlink:href="#linearGradient5484-6-9"
       id="linearGradient5527-5"
       gradientUnits="userSpaceOnUse"
       x1="318.5"
       y1="152.75006"
       x2="318.5"
       y2="147.37494" />
    <linearGradient
       id="linearGradient5484-6-9">
      <stop
         id="stop5486-4-8"
         offset="0"
         style="stop-color:#000000;stop-opacity:1;" />
      <stop
         id="stop5488-3-4"
         offset="1"
         style="stop-color:#000000;stop-opacity:0;" />
    </linearGradient>
    <filter
       style="color-interpolation-filters:sRGB"
       height="1.5914286"
       y="-0.29571429"
       width="1.25875"
       x="-0.129375"
       id="filter5480-0-8">
      <feGaussianBlur
         id="feGaussianBlur5482-7-1"
         stdDeviation="1.29375" />
    </filter>
    <linearGradient
       gradientTransform="translate(400)"
       xlink:href="#linearGradient4594-72-3"
       id="linearGradient5390-0"
       gradientUnits="userSpaceOnUse"
       x1="313.5"
       y1="194.0311"
       x2="313.5"
       y2="191.69005" />
    <linearGradient
       id="linearGradient4594-72-3">
      <stop
         id="stop4596-0-0"
         offset="0"
         style="stop-color:#000000;stop-opacity:1;" />
      <stop
         id="stop4598-0-4"
         offset="1"
         style="stop-color:#000000;stop-opacity:0;" />
    </linearGradient>
    <filter
       style="color-interpolation-filters:sRGB"
       height="1.8509091"
       y="-0.42545456"
       width="1.3342857"
       x="-0.16714285"
       id="filter4590-1-4">
      <feGaussianBlur
         id="feGaussianBlur4592-3-4"
         stdDeviation="0.975" />
    </filter>
    <linearGradient
       gradientTransform="translate(400)"
       y2="93.818466"
       x2="329.01147"
       y1="68.5"
       x1="320"
       gradientUnits="userSpaceOnUse"
       id="linearGradient5107-5-4"
       xlink:href="#linearGradient5043-4-7" />
    <linearGradient
       id="linearGradient5043-4-7">
      <stop
         id="stop5045-5-6"
         offset="0"
         style="stop-color:#ffffff;stop-opacity:1;" />
      <stop
         id="stop5047-4-3"
         offset="1"
         style="stop-color:#ffffff;stop-opacity:0;" />
    </linearGradient>
    <linearGradient
       xlink:href="#linearGradient3770"
       id="linearGradient4864-5-7-1"
       gradientUnits="userSpaceOnUse"
       gradientTransform="matrix(2.2142854,0,0,2.2142854,31.2501,-430.74993)"
       x1="312.112"
       y1="236.49721"
       x2="309.29477"
       y2="215.09795" />
    <linearGradient
       id="linearGradient4179-1-1-1-7">
      <stop
         style="stop-color:#9ebdde;stop-opacity:1;"
         offset="0"
         id="stop4181-9-4-95-5" />
      <stop
         id="stop4183-88-9-5-9"
         offset="0.39035457"
         style="stop-color:#6294ca;stop-opacity:1;" />
      <stop
         style="stop-color:#ffffff;stop-opacity:1"
         offset="1"
         id="stop4185-6-0-3-6" />
    </linearGradient>
    <linearGradient
       xlink:href="#linearGradient4051"
       id="linearGradient4866-4-2-2"
       gradientUnits="userSpaceOnUse"
       gradientTransform="matrix(2.2142854,0,0,2.2142854,31.2501,-430.74993)"
       x1="312.75342"
       y1="232.67677"
       x2="309.52393"
       y2="223.31934" />
    <linearGradient
       xlink:href="#linearGradient5174-8-7"
       id="linearGradient5237-5"
       gradientUnits="userSpaceOnUse"
       gradientTransform="matrix(1.1612903,0,0,1,348.22581,0)"
       x1="321"
       y1="87.033554"
       x2="321"
       y2="81.701683" />
    <linearGradient
       id="linearGradient5174-8-7">
      <stop
         id="stop5176-9-4"
         offset="0"
         style="stop-color:#000000;stop-opacity:1;" />
      <stop
         id="stop5178-9-1"
         offset="1"
         style="stop-color:#000000;stop-opacity:0;" />
    </linearGradient>
    <filter
       style="color-interpolation-filters:sRGB"
       height="1.5524138"
       y="-0.27620691"
       width="1.267"
       x="-0.13349999"
       id="filter5186-3-8">
      <feGaussianBlur
         id="feGaussianBlur5188-8-5"
         stdDeviation="1.66875" />
    </filter>
    <linearGradient
       gradientUnits="userSpaceOnUse"
       y2="193.625"
       x2="316.78125"
       y1="182.5"
       x1="312.3125"
       id="linearGradient4256-1-9"
       xlink:href="#linearGradient4250-1-7"
       gradientTransform="translate(400)" />
    <linearGradient
       id="linearGradient4250-1-7">
      <stop
         id="stop4252-0-5"
         offset="0"
         style="stop-color:#ffffff;stop-opacity:1;" />
      <stop
         id="stop4254-9-3"
         offset="1"
         style="stop-color:#ffffff;stop-opacity:0;" />
    </linearGradient>
    <linearGradient
       xlink:href="#linearGradient3770"
       id="linearGradient4298-8"
       gradientUnits="userSpaceOnUse"
       gradientTransform="translate(402,-40)"
       x1="311.5"
       y1="233.44359"
       x2="310.13742"
       y2="218.03125" />
    <linearGradient
       id="linearGradient4179-7-8">
      <stop
         style="stop-color:#9ebdde;stop-opacity:1;"
         offset="0"
         id="stop4181-2-3" />
      <stop
         id="stop4183-4-1"
         offset="0.39035457"
         style="stop-color:#729fcf;stop-opacity:1" />
      <stop
         style="stop-color:#ffffff;stop-opacity:1"
         offset="1"
         id="stop4185-0-8" />
    </linearGradient>
    <linearGradient
       xlink:href="#linearGradient4051"
       id="linearGradient4300-9"
       gradientUnits="userSpaceOnUse"
       gradientTransform="translate(402,-40)"
       x1="312.59375"
       y1="231.71875"
       x2="308.40625"
       y2="223" />
    <linearGradient
       id="linearGradient3995-6-3">
      <stop
         id="stop3997-0-8"
         offset="0"
         style="stop-color:#9ebdde;stop-opacity:1;" />
      <stop
         style="stop-color:#729fcf;stop-opacity:1"
         offset="0.39035457"
         id="stop4003-8-6" />
      <stop
         id="stop3999-8-0"
         offset="1"
         style="stop-color:#ffffff;stop-opacity:1" />
    </linearGradient>
    <linearGradient
       xlink:href="#linearGradient3995"
       id="linearGradient3092"
       gradientUnits="userSpaceOnUse"
       gradientTransform="translate(400)"
       x1="311.30759"
       y1="231.31859"
       x2="309.88742"
       y2="220.53125" />
    <linearGradient
       xlink:href="#linearGradient4051"
       id="linearGradient3094"
       gradientUnits="userSpaceOnUse"
       gradientTransform="translate(400)"
       x1="311.71875"
       y1="229.34375"
       x2="310.40625"
       y2="224" />
  </defs>
  <g
     transform="translate(-703,-219)"
     id="g3048"
     style="display:inline">
    <g
       id="g3050"
       style="display:none">
      <rect
         height="48"
         id="rect3052"
         style="display:inline;overflow:visible;visibility:visible;fill:#eeeeec;fill-opacity:1;fill-rule:nonzero;stroke:none;stroke-width:2;marker:none;enable-background:accumulate"
         width="48"
         x="696"
         y="50" />
      <rect
         height="32"
         id="rect3054"
         style="display:inline;overflow:visible;visibility:visible;fill:#eeeeec;fill-opacity:1;fill-rule:nonzero;stroke:none;stroke-width:2;marker:none;enable-background:accumulate"
         width="32"
         x="703"
         y="126" />
      <rect
         height="24"
         id="rect3056"
         style="display:inline;overflow:visible;visibility:visible;fill:#ffffff;fill-opacity:1;fill-rule:nonzero;stroke:none;stroke-width:2;marker:none;enable-background:accumulate"
         width="24"
         x="702"
         y="176" />
      <rect
         height="22"
         id="rect3058"
         style="display:inline;overflow:visible;visibility:visible;fill:#eeeeec;fill-opacity:1;fill-rule:nonzero;stroke:none;stroke-width:2;marker:none;enable-background:accumulate"
         width="22"
         x="703"
         y="177" />
      <rect
         height="16"
         id="rect3060"
         style="display:inline;overflow:visible;visibility:visible;fill:#eeeeec;fill-opacity:1;fill-rule:nonzero;stroke:none;stroke-width:2;marker:none;enable-background:accumulate"
         width="16"
         x="703"
         y="219" />
      <text
         id="text3062"
         style="font-style:normal;font-weight:normal;line-height:0%;font-family:'Bitstream Vera Sans';display:inline;fill:#000000;fill-opacity:1;stroke:none;enable-background:new"
         x="420.90088"
         xml:space="preserve"
         y="21.74086"><tspan
           style="font-size:18.30070686px;line-height:1.25"
           id="tspan3064"
           x="420.90088"
           y="21.74086">actions</tspan></text>
      <text
         id="text3066"
         style="font-style:normal;font-variant:normal;font-weight:bold;font-stretch:normal;line-height:0%;font-family:'Droid Sans';-inkscape-font-specification:'Droid Sans Bold';text-align:start;writing-mode:lr-tb;text-anchor:start;display:inline;fill:#000000;fill-opacity:1;stroke:none;enable-background:new"
         x="591.97076"
         xml:space="preserve"
         y="21.513618"><tspan
           style="font-size:18.30070686px;line-height:1.25"
           id="tspan3068"
           x="591.97076"
           y="21.513618">list-remove</tspan></text>
    </g>
    <g
       id="g3070"
       style="display:inline">
      <path
         id="rect3969-3"
         d="m 706.5,225.5 c -0.554,0 -1,0.446 -1,1 v 1 c 0,0.554 0.446,1 1,1 h 9 c 0.554,0 1,-0.446 1,-1 v -1 c 0,-0.554 -0.446,-1 -1,-1 z"
         style="color:#000000;display:block;overflow:visible;visibility:visible;fill:url(#linearGradient3092);fill-opacity:1;fill-rule:nonzero;stroke:url(#linearGradient3094);stroke-width:1;stroke-linecap:round;stroke-linejoin:round;stroke-miterlimit:4;stroke-dasharray:none;stroke-dashoffset:0;stroke-opacity:1;marker:none;enable-background:accumulate" />
      <path
         id="path4046-1"
         d="m 715.5,226.5 h -9 v 1"
         style="color:#000000;display:block;overflow:visible;visibility:visible;opacity:0.3;fill:none;stroke:#ffffff;stroke-width:1;stroke-linecap:round;stroke-linejoin:round;stroke-miterlimit:4;stroke-dashoffset:0;stroke-opacity:1;marker:none;enable-background:accumulate" />
      <path
         id="rect3969-7-7"
         d="m 707.5,185.5 c -0.554,0 -1,0.446 -1,1 v 2 c 0,0.554 0.446,1 1,1 h 12 c 0.554,0 1,-0.446 1,-1 v -2 c 0,-0.554 -0.446,-1 -1,-1 z"
         style="color:#000000;display:block;overflow:visible;visibility:visible;fill:url(#linearGradient4298-8);fill-opacity:1;fill-rule:nonzero;stroke:url(#linearGradient4300-9);stroke-width:1;stroke-linecap:round;stroke-linejoin:round;stroke-miterlimit:4;stroke-dasharray:none;stroke-dashoffset:0;stroke-opacity:1;marker:none;enable-background:accumulate" />
      <path
         id="path4244-5"
         d="m 707.53125,186.53125 v 1.9375 h 11.9375 v -1.9375 z"
         style="color:#000000;display:block;overflow:visible;visibility:visible;opacity:0.1;fill:none;stroke:url(#linearGradient4256-1-9);stroke-width:1;stroke-linecap:round;stroke-linejoin:round;stroke-miterlimit:4;stroke-dashoffset:0;stroke-opacity:1;marker:none;enable-background:accumulate" />
      <path
         id="path4046-9-9"
         d="m 719.5,186.5 h -12 v 1"
         style="color:#000000;display:block;overflow:visible;visibility:visible;opacity:0.3;fill:none;stroke:#ffffff;stroke-width:1;stroke-linecap:round;stroke-linejoin:round;stroke-miterlimit:4;stroke-dashoffset:0;stroke-opacity:1;marker:none;enable-background:accumulate" />
      <path
         id="rect4899-2-1"
         d="m 707.66935,80.145161 c -0.92121,0 -1.66935,0.301335 -1.66935,0.672379 v 2.86492 c 0,0.371044 0.74814,0.672379 1.66935,0.672379 h 26.6613 c 0.92121,0 1.66935,-0.301335 1.66935,-0.672379 v -2.86492 c 0,-0.371044 -0.74814,-0.672379 -1.66935,-0.672379 z"
         style="color:#000000;display:block;overflow:visible;visibility:visible;opacity:0.5;fill:url(#linearGradient5237-5);fill-opacity:1;fill-rule:nonzero;stroke:none;stroke-width:0.99999994;marker:none;filter:url(#filter5186-3-8);enable-background:accumulate" />
      <path
         id="rect4899-1"
         d="m 706.9375,68.5 c -0.79327,0 -1.4375,0.644232 -1.4375,1.4375 v 6.125 c 0,0.793268 0.64423,1.4375 1.4375,1.4375 h 28.125 c 0.79327,0 1.4375,-0.644232 1.4375,-1.4375 v -6.125 c 0,-0.793268 -0.64423,-1.4375 -1.4375,-1.4375 z"
         style="color:#000000;display:block;overflow:visible;visibility:visible;fill:url(#linearGradient4864-5-7-1);fill-opacity:1;fill-rule:nonzero;stroke:url(#linearGradient4866-4-2-2);stroke-width:0.99999994;stroke-linecap:round;stroke-linejoin:round;stroke-miterlimit:4;stroke-dasharray:none;stroke-dashoffset:0;stroke-opacity:1;marker:none;enable-background:accumulate" />
      <path
         id="path5037-0"
         d="m 706.9375,69.53125 c -0.24294,0 -0.40625,0.163311 -0.40625,0.40625 v 6.125 c 0,0.242939 0.16331,0.40625 0.40625,0.40625 h 28.125 c 0.24294,0 0.40625,-0.163311 0.40625,-0.40625 v -6.125 c 0,-0.242939 -0.16331,-0.40625 -0.40625,-0.40625 z"
         style="color:#000000;display:block;overflow:visible;visibility:visible;opacity:0.15;fill:none;stroke:url(#linearGradient5107-5-4);stroke-width:0.99999994;stroke-linecap:round;stroke-linejoin:round;stroke-miterlimit:4;stroke-dashoffset:0;stroke-opacity:1;marker:none;enable-background:accumulate" />
      <path
         id="path5090-0"
         d="m 734.40625,70.59375 h -26.8125 v 4.8125"
         style="color:#000000;display:block;overflow:visible;visibility:visible;opacity:0.3;fill:none;stroke:#ffffff;stroke-width:0.99999994;stroke-linecap:round;stroke-linejoin:round;stroke-miterlimit:4;stroke-dashoffset:0;stroke-opacity:1;marker:none;enable-background:accumulate" />
      <path
         id="rect3969-7-2-3"
         d="m 707.5,191.96429 c -0.554,0 -1,0.17521 -1,0.39286 v 0.78571 c 0,0.21764 0.446,0.39286 1,0.39286 h 12 c 0.554,0 1,-0.17522 1,-0.39286 v -0.78571 c 0,-0.21765 -0.446,-0.39286 -1,-0.39286 z"
         style="color:#000000;display:block;overflow:visible;visibility:visible;opacity:0.4;fill:url(#linearGradient5390-0);fill-opacity:1;fill-rule:nonzero;stroke:none;stroke-width:0.99999994;marker:none;filter:url(#filter4590-1-4);enable-background:accumulate" />
      <path
         id="rect4899-8-4-7"
         d="m 707.9375,147.9375 c -0.79327,0 -1.4375,0.28185 -1.4375,0.62891 v 1.36718 c 0,0.34706 0.64423,0.62891 1.4375,0.62891 h 21.125 c 0.79327,0 1.4375,-0.28185 1.4375,-0.62891 v -1.36718 c 0,-0.34706 -0.64423,-0.62891 -1.4375,-0.62891 z"
         style="color:#000000;display:block;overflow:visible;visibility:visible;opacity:0.5;fill:url(#linearGradient5527-5);fill-opacity:1;fill-rule:nonzero;stroke:none;stroke-width:0.99999994;marker:none;filter:url(#filter5480-0-8);enable-background:accumulate" />
      <path
         id="rect4899-8-7"
         d="m 707.9375,138.5 c -0.79327,0 -1.4375,0.64423 -1.4375,1.4375 v 3.125 c 0,0.79327 0.64423,1.4375 1.4375,1.4375 h 21.125 c 0.79327,0 1.4375,-0.64423 1.4375,-1.4375 v -3.125 c 0,-0.79327 -0.64423,-1.4375 -1.4375,-1.4375 z"
         style="color:#000000;display:block;overflow:visible;visibility:visible;fill:url(#linearGradient5322-9-0);fill-opacity:1;fill-rule:nonzero;stroke:url(#linearGradient5324-14-5);stroke-width:0.99999994;stroke-linecap:round;stroke-linejoin:round;stroke-miterlimit:4;stroke-dasharray:none;stroke-dashoffset:0;stroke-opacity:1;marker:none;enable-background:accumulate" />
      <path
         id="path5037-3-7"
         d="m 707.9375,139.53125 c -0.24294,0 -0.40625,0.16331 -0.40625,0.40625 v 3.125 c 0,0.24294 0.16331,0.40625 0.40625,0.40625 h 21.125 c 0.24294,0 0.40625,-0.16331 0.40625,-0.40625 v -3.125 c 0,-0.24294 -0.16331,-0.40625 -0.40625,-0.40625 z"
         style="color:#000000;display:block;overflow:visible;visibility:visible;opacity:0.15;fill:none;stroke:url(#linearGradient5369-4-0);stroke-width:0.99999994;stroke-linecap:round;stroke-linejoin:round;stroke-miterlimit:4;stroke-dashoffset:0;stroke-opacity:1;marker:none;enable-background:accumulate" />
      <path
         id="path5090-6-6"
         d="m 728.40625,140.5938 h -19.8125 v 1.8125"
         style="color:#000000;display:block;overflow:visible;visibility:visible;opacity:0.3;fill:none;stroke:#ffffff;stroke-width:0.99999994;stroke-linecap:round;stroke-linejoin:round;stroke-miterlimit:4;stroke-dashoffset:0;stroke-opacity:1;marker:none;enable-background:accumulate" />
    </g>
  </g>
  <g
     transform="translate(-703,-219)"
     style="display:inline"
     id="layer1">
    <g
       style="display:none"
       id="layer3">
      <rect
         y="50"
         x="296"
         width="48"
         style="display:inline;overflow:visible;visibility:visible;fill:#eeeeec;fill-opacity:1;fill-rule:nonzero;stroke:none;stroke-width:2;marker:none;enable-background:accumulate"
         id="rect6284"
         height="48" />
      <rect
         y="126"
         x="303"
         width="32"
         style="display:inline;overflow:visible;visibility:visible;fill:#eeeeec;fill-opacity:1;fill-rule:nonzero;stroke:none;stroke-width:2;marker:none;enable-background:accumulate"
         id="rect6592"
         height="32" />
      <rect
         y="176"
         x="302"
         width="24"
         style="display:inline;overflow:visible;visibility:visible;fill:#ffffff;fill-opacity:1;fill-rule:nonzero;stroke:none;stroke-width:2;marker:none;enable-background:accumulate"
         id="rect6749-1"
         height="24" />
      <rect
         y="177"
         x="303"
         width="22"
         style="display:inline;overflow:visible;visibility:visible;fill:#eeeeec;fill-opacity:1;fill-rule:nonzero;stroke:none;stroke-width:2;marker:none;enable-background:accumulate"
         id="rect6749"
         height="22" />
      <rect
         y="219"
         x="303"
         width="16"
         style="display:inline;overflow:visible;visibility:visible;fill:#eeeeec;fill-opacity:1;fill-rule:nonzero;stroke:none;stroke-width:2;marker:none;enable-background:accumulate"
         id="rect6833"
         height="16" />
      <text
         y="21.74086"
         xml:space="preserve"
         x="20.900885"
         style="font-style:normal;font-weight:normal;line-height:0%;font-family:'Bitstream Vera Sans';display:inline;fill:#000000;fill-opacity:1;stroke:none;enable-background:new"
         id="context"><tspan
           style="font-size:18.30070686px;line-height:1.25"
           y="21.74086"
           x="20.900885"
           id="tspan2716">actions</tspan></text>
      <text
         y="21.513618"
         xml:space="preserve"
         x="191.97073"
         style="font-style:normal;font-variant:normal;font-weight:bold;font-stretch:normal;line-height:0%;font-family:'Droid Sans';-inkscape-font-specification:'Droid Sans Bold';text-align:start;writing-mode:lr-tb;text-anchor:start;display:inline;fill:#000000;fill-opacity:1;stroke:none;enable-background:new"
         id="icon-name"><tspan
           style="font-size:18.30070686px;line-height:1.25"
           y="21.513618"
           x="191.97073"
           id="tspan3023">list-add</tspan></text>
    </g>
    <g
       style="display:inline"
       id="layer5">
      <path
         id="rect3969"
         d="m 310.5,221.5 c -0.554,0 -1,0.446 -1,1 v 3 h -3 c -0.554,0 -1,0.446 -1,1 v 1 c 0,0.554 0.446,1 1,1 h 3 v 3 c 0,0.554 0.446,1 1,1 h 1 c 0.554,0 1,-0.446 1,-1 v -3 h 3 c 0.554,0 1,-0.446 1,-1 v -1 c 0,-0.554 -0.446,-1 -1,-1 h -3 v -3 c 0,-0.554 -0.446,-1 -1,-1 z"
         style="color:#000000;display:block;overflow:visible;visibility:visible;fill:url(#linearGradient4001);fill-opacity:1;fill-rule:nonzero;stroke:url(#linearGradient4057);stroke-width:1;stroke-linecap:round;stroke-linejoin:round;stroke-miterlimit:4;stroke-dasharray:none;stroke-dashoffset:0;stroke-opacity:1;marker:none;enable-background:accumulate" />
      <path
         id="path4046"
         d="m 311.5,222.5 h -1 v 3 c -0.005,0.52235 -0.47765,0.99549 -1,1 h -3 v 1 m 9,-1 h -3 m -2,2 v 3"
         style="color:#000000;display:block;overflow:visible;visibility:visible;opacity:0.3;fill:none;fill-opacity:1;fill-rule:nonzero;stroke:#ffffff;stroke-width:1;stroke-linecap:round;stroke-linejoin:round;stroke-miterlimit:4;stroke-dashoffset:0;stroke-opacity:1;marker:none;enable-background:accumulate" />
      <path
         id="rect3969-7-2"
         d="m 312.5,190 c -0.554,0 -1,0.17522 -1,0.39286 v 1.57143 h -4 c -0.554,0 -1,0.17521 -1,0.39286 v 0.78571 c 0,0.21764 0.446,0.39286 1,0.39286 h 4 l -1,1.57143 c 0,0.21764 0.446,0.39285 1,0.39285 h 4 c 0.554,0 1,-0.17521 1,-0.39285 l -1,-1.57143 h 4 c 0.554,0 1,-0.17522 1,-0.39286 v -0.78571 c 0,-0.21765 -0.446,-0.39286 -1,-0.39286 h -4 v -1.57143 C 315.5,190.17522 315.054,190 314.5,190 Z"
         style="color:#000000;display:block;overflow:visible;visibility:visible;opacity:0.4;fill:url(#linearGradient4600);fill-opacity:1;fill-rule:nonzero;stroke:none;stroke-width:0.99999994;stroke-linecap:round;stroke-linejoin:round;stroke-miterlimit:4;stroke-dasharray:none;stroke-dashoffset:0;stroke-opacity:1;marker:none;filter:url(#filter4590);enable-background:accumulate" />
      <path
         id="rect3969-7"
         d="m 312.5,180.5 c -0.554,0 -1,0.446 -1,1 v 4 h -4 c -0.554,0 -1,0.446 -1,1 v 2 c 0,0.554 0.446,1 1,1 h 4 v 4 c 0,0.554 0.446,1 1,1 h 2 c 0.554,0 1,-0.446 1,-1 v -4 h 4 c 0.554,0 1,-0.446 1,-1 v -2 c 0,-0.554 -0.446,-1 -1,-1 h -4 v -4 c 0,-0.554 -0.446,-1 -1,-1 z"
         style="color:#000000;display:block;overflow:visible;visibility:visible;fill:url(#linearGradient4142);fill-opacity:1;fill-rule:nonzero;stroke:url(#linearGradient4144);stroke-width:1;stroke-linecap:round;stroke-linejoin:round;stroke-miterlimit:4;stroke-dasharray:none;stroke-dashoffset:0;stroke-opacity:1;marker:none;enable-background:accumulate" />
      <path
         d="M 312.53125,181.53125 V 185.5 A 1.0313531,1.0313531 0 0 1 311.5,186.53125 h -3.96875 v 1.9375 H 311.5 a 1.0313531,1.0313531 0 0 1 1.03125,1.03125 v 3.96875 h 1.9375 V 189.5 A 1.0313531,1.0313531 0 0 1 315.5,188.46875 h 3.96875 v -1.9375 H 315.5 A 1.0313531,1.0313531 0 0 1 314.46875,185.5 v -3.96875 z"
         id="path4244"
         style="color:#000000;display:block;overflow:visible;visibility:visible;opacity:0.1;fill:none;fill-opacity:1;fill-rule:nonzero;stroke:#ffffff;stroke-width:1;stroke-linecap:round;stroke-linejoin:round;stroke-miterlimit:4;stroke-dasharray:none;stroke-dashoffset:0;stroke-opacity:1;marker:none;enable-background:accumulate" />
      <path
         id="path4046-9"
         d="m 313.5,181.5 h -1 v 4 c -0.005,0.52235 -0.47765,0.99549 -1,1 h -4 v 1 m 12,-1 h -4 m -3,3 v 4"
         style="color:#000000;display:block;overflow:visible;visibility:visible;opacity:0.3;fill:none;stroke:#ffffff;stroke-width:1;stroke-linecap:round;stroke-linejoin:round;stroke-miterlimit:4;stroke-dashoffset:0;stroke-opacity:1;marker:none;enable-background:accumulate" />
      <path
         id="rect4899-2"
         d="m 317.44355,75 c -0.92122,0 -1.66936,0.301334 -1.66936,0.672379 v 4.472782 h -8.10484 c -0.92121,0 -1.66935,0.301335 -1.66935,0.672379 v 2.86492 c 0,0.371044 0.74814,0.672379 1.66935,0.672379 h 8.10484 v 4.472782 c 0,0.371045 0.74814,0.672379 1.66936,0.672379 h 7.1129 c 0.92122,0 1.66936,-0.301334 1.66936,-0.672379 v -4.472782 h 8.10484 c 0.92121,0 1.66935,-0.301335 1.66935,-0.672379 v -2.86492 c 0,-0.371044 -0.74814,-0.672379 -1.66935,-0.672379 h -8.10484 V 75.672379 C 326.22581,75.301334 325.47767,75 324.55645,75 Z"
         style="color:#000000;display:block;overflow:visible;visibility:visible;opacity:0.5;fill:url(#linearGradient5180);fill-opacity:1;fill-rule:nonzero;stroke:none;stroke-width:0.99999994;marker:none;filter:url(#filter5186);enable-background:accumulate" />
      <path
         id="rect4899"
         d="m 317.9375,57.5 c -0.79327,0 -1.4375,0.644232 -1.4375,1.4375 V 68.5 h -9.5625 c -0.79327,0 -1.4375,0.644232 -1.4375,1.4375 v 6.125 c 0,0.793268 0.64423,1.4375 1.4375,1.4375 H 316.5 v 9.5625 c 0,0.793268 0.64423,1.4375 1.4375,1.4375 h 6.125 c 0.79327,0 1.4375,-0.644232 1.4375,-1.4375 V 77.5 h 9.5625 c 0.79327,0 1.4375,-0.644232 1.4375,-1.4375 v -6.125 C 336.5,69.144232 335.85577,68.5 335.0625,68.5 H 325.5 v -9.5625 c 0,-0.793268 -0.64423,-1.4375 -1.4375,-1.4375 z"
         style="color:#000000;display:block;overflow:visible;visibility:visible;opacity:1;fill:url(#linearGradient4864-5);fill-opacity:1;fill-rule:nonzero;stroke:url(#linearGradient4866-4);stroke-width:0.99999994;stroke-linecap:round;stroke-linejoin:round;stroke-miterlimit:4;stroke-dasharray:none;stroke-dashoffset:0;stroke-opacity:1;marker:none;enable-background:accumulate" />
      <path
         id="path5037"
         d="m 317.9375,58.53125 c -0.24294,0 -0.40625,0.163311 -0.40625,0.40625 V 68.5 c 0.008,0.542077 -0.48917,1.039137 -1.03125,1.03125 h -9.5625 c -0.24294,0 -0.40625,0.163311 -0.40625,0.40625 v 6.125 c 0,0.242939 0.16331,0.40625 0.40625,0.40625 H 316.5 c 0.54208,-0.0079 1.03914,0.489173 1.03125,1.03125 v 9.5625 c 0,0.242939 0.16331,0.40625 0.40625,0.40625 h 6.125 c 0.24294,0 0.40625,-0.163311 0.40625,-0.40625 V 77.5 c -0.008,-0.542077 0.48917,-1.039137 1.03125,-1.03125 h 9.5625 c 0.24294,0 0.40625,-0.163311 0.40625,-0.40625 v -6.125 c 0,-0.242939 -0.16331,-0.40625 -0.40625,-0.40625 H 325.5 c -0.54208,0.0079 -1.03914,-0.489173 -1.03125,-1.03125 v -9.5625 c 0,-0.242939 -0.16331,-0.40625 -0.40625,-0.40625 z"
         style="color:#000000;display:block;overflow:visible;visibility:visible;opacity:0.15;fill:none;stroke:url(#linearGradient5107);stroke-width:0.99999994;stroke-linecap:round;stroke-linejoin:round;stroke-miterlimit:4;stroke-dashoffset:0;stroke-opacity:1;marker:none;enable-background:accumulate" />
      <path
         id="path5090"
         d="m 323.40625,59.59375 h -4.8125 v 8.875 c 1.6e-4,0.01064 -10e-6,0.02065 0,0.03125 10e-4,1.184427 -0.9047,2.11105 -2.09375,2.09375 h -8.90625 v 4.8125 m 26.8125,-4.8125 H 325.5 M 318.59375,77.5 v 8.90625"
         style="color:#000000;display:block;overflow:visible;visibility:visible;opacity:0.3;fill:none;stroke:#ffffff;stroke-width:0.99999994;stroke-linecap:round;stroke-linejoin:round;stroke-miterlimit:4;stroke-dashoffset:0;stroke-opacity:1;marker:none;enable-background:accumulate" />
      <path
         id="rect4899-8-4"
         d="m 316.9375,144 c -0.79327,0 -1.4375,0.28185 -1.4375,0.62891 v 3.30859 h -7.5625 c -0.79327,0 -1.4375,0.28185 -1.4375,0.62891 v 1.36718 c 0,0.34706 0.64423,0.62891 1.4375,0.62891 H 315.5 l -1,3.30859 c 0,0.34706 0.64423,0.62891 1.4375,0.62891 h 5.125 c 0.79327,0 1.4375,-0.28185 1.4375,-0.62891 l -1,-3.30859 h 7.5625 c 0.79327,0 1.4375,-0.28185 1.4375,-0.62891 v -1.36718 c 0,-0.34706 -0.64423,-0.62891 -1.4375,-0.62891 H 321.5 v -3.30859 C 321.5,144.28185 320.85577,144 320.0625,144 Z"
         style="color:#000000;display:block;overflow:visible;visibility:visible;opacity:0.5;fill:url(#linearGradient5490);fill-opacity:1;fill-rule:nonzero;stroke:none;stroke-width:0.99999994;marker:none;filter:url(#filter5480);enable-background:accumulate" />
      <path
         id="rect4899-8"
         d="m 316.9375,129.5 c -0.79327,0 -1.4375,0.64423 -1.4375,1.4375 V 138.5 h -7.5625 c -0.79327,0 -1.4375,0.64423 -1.4375,1.4375 v 3.125 c 0,0.79327 0.64423,1.4375 1.4375,1.4375 H 315.5 v 7.5625 c 0,0.79327 0.64423,1.4375 1.4375,1.4375 h 3.125 c 0.79327,0 1.4375,-0.64423 1.4375,-1.4375 V 144.5 h 7.5625 c 0.79327,0 1.4375,-0.64423 1.4375,-1.4375 v -3.125 c 0,-0.79327 -0.64423,-1.4375 -1.4375,-1.4375 H 321.5 v -7.5625 c 0,-0.79327 -0.64423,-1.4375 -1.4375,-1.4375 z"
         style="color:#000000;display:block;overflow:visible;visibility:visible;fill:url(#linearGradient5322);fill-opacity:1;fill-rule:nonzero;stroke:url(#linearGradient5324);stroke-width:0.99999994;stroke-linecap:round;stroke-linejoin:round;stroke-miterlimit:4;stroke-dasharray:none;stroke-dashoffset:0;stroke-opacity:1;marker:none;enable-background:accumulate" />
      <path
         id="path5037-3"
         d="m 316.9375,130.53125 c -0.24294,0 -0.40625,0.16331 -0.40625,0.40625 V 138.5 c 0.008,0.54208 -0.48917,1.03914 -1.03125,1.03125 h -7.5625 c -0.24294,0 -0.40625,0.16331 -0.40625,0.40625 v 3.125 c 0,0.24294 0.16331,0.40625 0.40625,0.40625 H 315.5 c 0.54208,-0.008 1.03914,0.48917 1.03125,1.03125 v 7.5625 c 0,0.24294 0.16331,0.40625 0.40625,0.40625 h 3.125 c 0.24294,0 0.40625,-0.16331 0.40625,-0.40625 V 144.5 c -0.008,-0.54208 0.48917,-1.03914 1.03125,-1.03125 h 7.5625 c 0.24294,0 0.40625,-0.16331 0.40625,-0.40625 v -3.125 c 0,-0.24294 -0.16331,-0.40625 -0.40625,-0.40625 H 321.5 c -0.54208,0.008 -1.03914,-0.48917 -1.03125,-1.03125 v -7.5625 c 0,-0.24294 -0.16331,-0.40625 -0.40625,-0.40625 z"
         style="color:#000000;display:block;overflow:visible;visibility:visible;opacity:0.15;fill:none;stroke:url(#linearGradient5369);stroke-width:0.99999994;stroke-linecap:round;stroke-linejoin:round;stroke-miterlimit:4;stroke-dashoffset:0;stroke-opacity:1;marker:none;enable-background:accumulate" />
      <path
         id="path5090-6"
         d="m 319.40625,131.59375 h -1.8125 v 6.875 c 1.6e-4,0.0106 -10e-6,0.0207 0,0.0313 10e-4,1.18443 -0.9047,2.11105 -2.09375,2.09375 h -6.90625 v 1.8125 m 19.8125,-1.8125 H 321.5 m -3.90625,3.90625 v 6.90625"
         style="color:#000000;display:block;overflow:visible;visibility:visible;opacity:0.3;fill:none;stroke:#ffffff;stroke-width:0.99999994;stroke-linecap:round;stroke-linejoin:round;stroke-miterlimit:4;stroke-dashoffset:0;stroke-opacity:1;marker:none;enable-background:accumulate" />
    </g>
  </g>
</svg>
