<?xml version="1.0" encoding="UTF-8"?>
<svg enable-background="new" version="1.0" viewBox="0 0 256 256" xmlns="http://www.w3.org/2000/svg" xmlns:xlink="http://www.w3.org/1999/xlink"><defs><linearGradient id="a"><stop stop-color="#babdb6" offset="0"/><stop stop-color="#555753" offset="1"/></linearGradient><linearGradient id="c"><stop offset="0"/><stop stop-color="#888a85" offset="1"/></linearGradient><linearGradient id="d"><stop stop-color="#2e3436" offset="0"/><stop stop-color="#888a85" offset="1"/></linearGradient><linearGradient id="b"><stop offset="0"/><stop stop-opacity="0" offset="1"/></linearGradient><linearGradient id="k"><stop stop-color="#fff" offset="0"/><stop stop-color="#babdb6" offset=".30515"/><stop stop-color="#555753" offset=".63299"/><stop stop-color="#888a85" offset=".85721"/><stop stop-color="#2e3436" offset="1"/></linearGradient><filter id="q"><feGaussianBlur stdDeviation="0.89191478"/></filter><filter id="ar"><feGaussianBlur stdDeviation="0.89"/></filter><clipPath id="at"><circle transform="translate(-8,-8)" cx="556" cy="1068" r="44" fill="#555753"/></clipPath><filter id="p" x="-.21978" y="-.21978" width="1.4396" height="1.4396"><feGaussianBlur stdDeviation="8.05845"/></filter><clipPath id="r"><rect x="-126" y="160" width="52" height="8" rx="4" ry="4" color="#000000" enable-background="accumulate" fill="#808080"/></clipPath><filter id="n"><feGaussianBlur stdDeviation="0.15"/></filter><linearGradient id="al"><stop stop-color="#204a87" offset="0"/><stop stop-color="#729fcf" offset="1"/></linearGradient><clipPath id="s"><rect x="76" y="160" width="68" height="8" rx="4" ry="4" color="#000000" enable-background="accumulate" fill="#808080"/></clipPath><filter id="o" color-interpolation-filters="sRGB"><feGaussianBlur stdDeviation="0.19"/></filter><filter id="an" color-interpolation-filters="sRGB"><feGaussianBlur stdDeviation="0.77258479"/></filter><filter id="am" color-interpolation-filters="sRGB"><feGaussianBlur stdDeviation="0.77258479"/></filter><radialGradient id="u" cx="501.87" cy="406.87" r="32.066" gradientTransform="matrix(1.0193 -1.1699 .54352 .47355 -246.45 829.26)" gradientUnits="userSpaceOnUse"><stop stop-color="#fce94f" offset="0"/><stop stop-color="#edd400" offset="1"/></radialGradient><filter id="aq"><feGaussianBlur stdDeviation="0.29367188"/></filter><clipPath id="as"><path d="m481.16 421.15 11.919 6.06c13.612-19.579 29.456-30.503 52.212-30.765-18.025 4.5294-29.465 22.94-36.385 39.704l11.596 7.3668-36.445 18.324z" color="#000000" enable-background="accumulate" fill="none" stroke="#c4a000"/></clipPath><filter id="ap"><feGaussianBlur stdDeviation="0.3238145"/></filter><linearGradient id="ah" x1="506.64" x2="521.07" y1="420.89" y2="435.14" gradientUnits="userSpaceOnUse"><stop stop-color="#9c7f00" offset="0"/><stop stop-color="#786200" offset="1"/></linearGradient><radialGradient id="t" cx="495.19" cy="422.11" r="28.219" gradientTransform="matrix(1.1533 .7565 -1.3091 1.9957 478.61 -796.18)" gradientUnits="userSpaceOnUse"><stop stop-color="#fff" offset="0"/><stop stop-color="#fff" stop-opacity="0" offset="1"/></radialGradient><linearGradient id="ag" x1="512.75" x2="534.24" y1="406" y2="401.68" gradientUnits="userSpaceOnUse"><stop stop-color="#fff" offset="0"/><stop offset="1"/></linearGradient><mask id="ae" maskUnits="userSpaceOnUse"><rect x="480" y="392" width="64" height="72" color="#000000" enable-background="accumulate" fill="url(#ag)"/></mask><linearGradient id="af" x1="487.5" x2="530" y1="434" y2="408.5" gradientTransform="translate(12,-6)" gradientUnits="userSpaceOnUse"><stop offset="0"/><stop stop-opacity="0" offset="1"/></linearGradient><filter id="ao"><feGaussianBlur stdDeviation="1.995116"/></filter><linearGradient id="m" x1="118.69" x2="77.832" y1="179.42" y2="155.83" gradientUnits="userSpaceOnUse" xlink:href="#d"/><linearGradient id="l" x1="110" x2="110" y1="167.8" y2="154.34" gradientUnits="userSpaceOnUse" xlink:href="#c"/><linearGradient id="au" x1="96.625" x2="96.625" y1="166" y2="162.12" gradientUnits="userSpaceOnUse" xlink:href="#al"/><linearGradient id="ak" x1="582.04" x2="582.04" y1="1102.4" y2="1024" gradientUnits="userSpaceOnUse" xlink:href="#b"/><radialGradient id="ad" cx="556" cy="1063.7" r="44" gradientTransform="matrix(1.1388 0 0 1.2005 -77.2 -214.6)" gradientUnits="userSpaceOnUse"><stop stop-color="#babdb6" offset="0"/><stop stop-color="#888a85" offset=".62351"/><stop stop-color="#2e3436" offset=".80543"/><stop stop-color="#fff" offset="1"/></radialGradient><radialGradient id="ac" cx="540.88" cy="1031.9" r="44" gradientTransform="matrix(1.8605 0 0 1.8605 -459.48 -891.44)" gradientUnits="userSpaceOnUse"><stop stop-color="#fff" offset="0"/><stop stop-color="#fff" offset=".23621"/><stop stop-color="#fff" stop-opacity="0" offset="1"/></radialGradient><linearGradient id="aj" x1="559.2" x2="518.88" y1="1119.5" y2="968.99" gradientUnits="userSpaceOnUse"><stop offset="0"/><stop stop-opacity="0" offset="1"/></linearGradient><radialGradient id="ab" cx="562.8" cy="1106.7" r="44.596" gradientTransform="matrix(2.6154 0 0 1.4833 -909.47 -534.89)" gradientUnits="userSpaceOnUse"><stop stop-color="#fff" offset="0"/><stop stop-color="#2e3436" offset="1"/></radialGradient><linearGradient id="ai" x1="534.77" x2="576.96" y1="1094" y2="1020.9" gradientUnits="userSpaceOnUse"><stop stop-color="#fff" offset="0"/><stop stop-color="#d3d7cf" offset="1"/></linearGradient><linearGradient id="j" x1="144" x2="144" y1="106.25" y2="91.981" gradientUnits="userSpaceOnUse" xlink:href="#a"/><linearGradient id="i" x1="143.78" x2="143.78" y1="235.92" y2="221.92" gradientUnits="userSpaceOnUse" xlink:href="#a"/><linearGradient id="h" x1="211.03" x2="211.03" y1="170.51" y2="157.49" gradientUnits="userSpaceOnUse" xlink:href="#a"/><linearGradient id="g" x1="77.137" x2="77.137" y1="170.74" y2="157.23" gradientUnits="userSpaceOnUse" xlink:href="#a"/><radialGradient id="aa" cx="556" cy="1068" r="44" gradientTransform="matrix(.23863 0 0 .23863 411.32 210.14)" gradientUnits="userSpaceOnUse" xlink:href="#b"/><radialGradient id="z" cx="556" cy="1068" r="44" gradientTransform="matrix(.23863 0 0 .23863 1091.3 210.14)" gradientUnits="userSpaceOnUse" xlink:href="#b"/><linearGradient id="f" x1="-106.75" x2="-85.376" y1="174.03" y2="156.63" gradientUnits="userSpaceOnUse" xlink:href="#d"/><linearGradient id="e" x1="-100" x2="-100" y1="167.71" y2="157.19" gradientUnits="userSpaceOnUse" xlink:href="#c"/><radialGradient id="y" cx="549.58" cy="1053.6" r="44" gradientTransform="matrix(.25042 -3.2568e-8 3.2568e-8 .25042 405.12 197.9)" gradientUnits="userSpaceOnUse" xlink:href="#k"/><radialGradient id="x" cx="549.58" cy="1053.6" r="44" gradientTransform="matrix(.25042 -3.2568e-8 3.2568e-8 .25042 1085.1 197.9)" gradientUnits="userSpaceOnUse" xlink:href="#k"/><radialGradient id="w" cx="556" cy="1115.4" r="44" gradientTransform="matrix(.99363 0 0 .34956 3.5429 708.68)" gradientUnits="userSpaceOnUse"><stop stop-color="#fff" offset="0"/><stop stop-color="#fff" stop-opacity="0" offset="1"/></radialGradient><radialGradient id="v" cx="543.43" cy="1035" r="44" gradientTransform="matrix(2.7739 0 0 .71408 -965.5 297.44)" gradientUnits="userSpaceOnUse"><stop stop-color="#fff" offset="0"/><stop stop-color="#fff" stop-opacity="0" offset="1"/></radialGradient></defs><g transform="translate(-420,-336)"><g><g transform="translate(400 300)" fill="url(#ak)"><circle transform="matrix(1.7516 0 0 .4744 -829.9 -261)" cx="556" cy="1068" r="44" enable-background="new" filter="url(#p)" opacity=".4"/><circle transform="matrix(1.2481 0 0 .33803 -549.96 -111.36)" cx="556" cy="1068" r="44" enable-background="new" filter="url(#p)" opacity=".8"/></g><g transform="translate(400 300)"><g transform="matrix(2.1818 0 0 2.1818 -1051.6 -2148.7)" enable-background="new"><g clip-path="url(#at)"><circle transform="translate(-8,-8)" cx="556" cy="1068" r="44" fill="url(#ad)"/><circle transform="translate(-8 -8)" cx="556" cy="1068" r="44" fill="url(#ac)"/><circle transform="translate(-8,-8)" cx="556" cy="1068" r="44" fill="none" filter="url(#ar)" stroke="url(#aj)" stroke-linecap="round" stroke-linejoin="round" stroke-width="2.2917"/><circle transform="matrix(.86458 0 0 .86458 67.292 136.63)" cx="556" cy="1068" r="44" fill="none" filter="url(#q)" stroke="url(#ab)" stroke-linecap="round" stroke-linejoin="round" stroke-width="1.0602"/></g><circle transform="matrix(.8052 0 0 .8052 100.31 200.04)" cx="556" cy="1068" r="44" fill="none" filter="url(#q)" stroke="#2e3436" stroke-linecap="round" stroke-linejoin="round" stroke-width="1.1384"/></g><g transform="translate(10)"><circle transform="matrix(1.8182 0 0 1.8182 -876.91 -1777.8)" cx="556" cy="1068" r="44" enable-background="new" fill="url(#ai)"/><g transform="matrix(1.0457 0 0 1.0457 -16.576 -7.4898)" opacity=".2"><circle transform="matrix(.059049 .034092 -.034092 .059049 180.08 25.689)" cx="556" cy="1068" r="44" enable-background="new"/><circle transform="matrix(.059049 .034092 -.034092 .059049 115.08 138.27)" cx="556" cy="1068" r="44" enable-background="new"/><circle transform="matrix(.034092 .059049 -.059049 .034092 244.4 62.259)" cx="556" cy="1068" r="44" enable-background="new"/><circle transform="matrix(.034092 .059049 -.059049 .034092 131.82 127.26)" cx="556" cy="1068" r="44" enable-background="new"/><circle transform="matrix(-.059049 .034092 .034092 .059049 107.92 25.689)" cx="556" cy="1068" r="44" enable-background="new"/><circle transform="matrix(-.059049 .034092 .034092 .059049 172.92 138.27)" cx="556" cy="1068" r="44" enable-background="new"/><circle transform="matrix(-.034092 .059049 .059049 .034092 43.599 62.259)" cx="556" cy="1068" r="44" enable-background="new"/><circle transform="matrix(-.034092 .059049 .059049 .034092 156.18 127.26)" cx="556" cy="1068" r="44" enable-background="new"/></g><g transform="translate(-10)" font-family="'Liberation Sans'" font-weight="bold" text-anchor="middle"><text x="143.77536" y="106.96484" enable-background="new" fill="#ffffff" stroke="#ffffff" text-align="center" style="line-height:0%" xml:space="preserve"><tspan x="143.77536" y="106.96484" font-size="20px" style="line-height:1.25">12</tspan></text><text x="143.77536" y="105.96484" fill="url(#j)" text-align="center" style="line-height:0%" xml:space="preserve"><tspan x="143.77536" y="105.96484" fill="url(#j)" font-size="20px" style="line-height:1.25">12</tspan></text><text x="143.77536" y="236.80469" enable-background="new" fill="#ffffff" stroke="#ffffff" text-align="center" style="line-height:0%" xml:space="preserve"><tspan x="143.77536" y="236.80469" font-size="20px" style="line-height:1.25">6</tspan></text><text x="143.77536" y="235.80469" enable-background="new" fill="url(#i)" text-align="center" style="line-height:0%" xml:space="preserve"><tspan x="143.77536" y="235.80469" fill="url(#i)" font-size="20px" style="line-height:1.25">6</tspan></text><text x="211.16602" y="171.87004" enable-background="new" fill="#ffffff" stroke="#ffffff" text-align="center" style="line-height:0%" xml:space="preserve"><tspan x="211.16602" y="171.87004" font-size="20px" style="line-height:1.25">3</tspan></text><text x="211.16602" y="170.87004" enable-background="new" fill="url(#h)" text-align="center" style="line-height:0%" xml:space="preserve"><tspan x="211.16602" y="170.87004" fill="url(#h)" font-size="20px" style="line-height:1.25">3</tspan></text><text x="77.166023" y="171.87004" enable-background="new" fill="#ffffff" stroke="#ffffff" text-align="center" style="line-height:0%" xml:space="preserve"><tspan x="77.166023" y="171.87004" font-size="20px" style="line-height:1.25">9</tspan></text><text x="77.166023" y="170.87004" enable-background="new" fill="url(#g)" text-align="center" style="line-height:0%" xml:space="preserve"><tspan x="77.166023" y="170.87004" fill="url(#g)" font-size="20px" style="line-height:1.25">9</tspan></text></g></g></g><path d="m477.61 415.36 13.216 10.582c21.918-20.767 44.372-30.228 72.651-24.692-23.512 0.97269-42.436 20.85-55.333 39.849l12.478 12.119-49.9 13.329z" color="#000000" enable-background="accumulate" fill="url(#af)" filter="url(#ao)" opacity=".4"/><rect transform="rotate(195)" x="-646.56" y="-379.39" width="2" height="72" rx=".14389" ry="1.2136" enable-background="new" fill="#2e3436" fill-rule="evenodd"/><circle cx="544" cy="465" r="10.5" enable-background="new" fill="url(#aa)"/><g transform="translate(670 300)" clip-path="url(#r)"><rect x="-126" y="160" width="52" height="8" rx="4" ry="4" color="#000000" enable-background="accumulate" fill="url(#f)"/><rect x="-126" y="160" width="52" height="8" rx="4" ry="4" color="#000000" enable-background="accumulate" fill="none" filter="url(#n)" stroke="url(#e)"/></g><g transform="translate(400,302)" enable-background="new" filter="url(#an)" opacity=".5"><rect x="144" y="160" width="52" height="8" rx="4" ry="4" color="#000000" enable-background="accumulate"/><rect transform="rotate(90)" x="97" y="-149" width="68" height="8" rx="4" ry="4" color="#000000" enable-background="accumulate"/></g><g transform="matrix(0,1,1,0,380,320)" clip-path="url(#s)" enable-background="new"><rect x="76" y="160" width="68" height="8" rx="4" ry="4" color="#000000" enable-background="accumulate" fill="url(#m)"/><rect x="76" y="160" width="68" height="8" rx="4" ry="4" color="#000000" enable-background="accumulate" fill="none" filter="url(#o)" stroke="url(#l)"/></g><circle cx="544" cy="464" r="7.9999" enable-background="new" fill="url(#y)"/><g transform="translate(180 300)"><g transform="translate(220)" fill="none" stroke="#000"><circle transform="matrix(1.8239 0 0 1.8239 -870.07 -1783.9)" cx="556" cy="1068" r="44" enable-background="new" opacity=".5" stroke-width=".27414"/><circle transform="matrix(1.7713 0 0 1.7713 -840.84 -1727.8)" cx="556" cy="1068" r="44" enable-background="new" opacity=".2" stroke-width=".28228"/></g><g transform="translate(220,20)" enable-background="new"><circle transform="matrix(1.7955 0 0 1.7955 -854.27 -1773.5)" cx="556" cy="1068" r="44" enable-background="new" fill="none" opacity=".4" stroke="#888a85" stroke-linecap="round" stroke-linejoin="round" stroke-width="1.1139"/><g transform="matrix(2.2242 0 0 2.2242 -1074.9 -2213.6)"><circle transform="matrix(.81746 0 0 .81746 93.491 186.95)" cx="556" cy="1068" r="44" fill="url(#w)" opacity=".7"/><circle transform="matrix(.56818 0 0 .36526 232.09 653.4)" cx="556" cy="1068" r="44" fill="url(#v)" opacity=".8"/></g></g></g><rect transform="rotate(195)" x="-1303.4" y="-203.39" width="2" height="72" rx=".14389" ry="1.2136" enable-background="new" fill="#2e3436" fill-rule="evenodd"/><circle cx="1224" cy="465" r="10.5" enable-background="new" fill="url(#z)"/><g transform="translate(1350 300)" clip-path="url(#r)"><rect x="-126" y="160" width="52" height="8" rx="4" ry="4" color="#000000" enable-background="accumulate" fill="url(#f)"/><rect x="-126" y="160" width="52" height="8" rx="4" ry="4" color="#000000" enable-background="accumulate" fill="none" filter="url(#n)" stroke="url(#e)"/></g><g transform="translate(1080,302)" enable-background="new" filter="url(#am)" opacity=".5"><rect x="144" y="160" width="52" height="8" rx="4" ry="4" color="#000000" enable-background="accumulate"/><rect transform="rotate(90)" x="97" y="-149" width="68" height="8" rx="4" ry="4" color="#000000" enable-background="accumulate"/></g><g transform="matrix(0,1,1,0,1060,320)" clip-path="url(#s)" enable-background="new"><rect x="76" y="160" width="68" height="8" rx="4" ry="4" color="#000000" enable-background="accumulate" fill="url(#m)"/><rect x="76" y="160" width="68" height="8" rx="4" ry="4" color="#000000" enable-background="accumulate" fill="none" filter="url(#o)" stroke="url(#l)"/></g><circle cx="1224" cy="464" r="7.9999" enable-background="new" fill="url(#x)"/><g transform="matrix(1.2397 .25755 -.25755 1.2397 -13.419 -234.66)" clip-path="url(#as)" mask="url(#ae)"><path d="m481.16 421.15 11.919 6.06c13.612-19.579 29.456-30.503 52.212-30.765-18.025 4.5294-29.465 22.94-36.385 39.704l11.596 7.3668-36.445 18.324z" color="#000000" enable-background="accumulate" fill="url(#u)"/><path d="m534.75 399.2c-16.653 3.0376-29.101 12.892-40.279 28.971a1.6732 1.6732 0 0 1-2.1309 0.53711l-9.3008-4.7227 2.5156 35.232 31.561-15.887-9.0996-5.7637a1.6732 1.6732 0 0 1-0.65234-2.0527c5.6436-13.67 14.355-28.525 27.387-36.314z" color="#000000" enable-background="accumulate" fill="none" filter="url(#aq)" opacity=".65969" stroke="url(#t)" stroke-width=".78979"/><path d="m481.16 421.15 11.919 6.06c13.612-19.579 29.456-30.503 52.212-30.765-18.025 4.5294-29.465 22.94-36.385 39.704l11.596 7.3668-36.445 18.324z" color="#000000" enable-background="accumulate" fill="none" filter="url(#ap)" stroke="url(#ah)" stroke-width=".78979"/></g></g></g></svg>
