<?xml version="1.0" encoding="UTF-8"?>
<svg version="1.0" viewBox="0 0 256 256" xmlns="http://www.w3.org/2000/svg" xmlns:xlink="http://www.w3.org/1999/xlink"><defs><filter id="ae" x="-.16294" y="-2.3897" width="1.3259" height="5.7795" color-interpolation-filters="sRGB"><feGaussianBlur stdDeviation="11.948684"/></filter><filter id="ad" x="-.093476" y="-1.094" width="1.187" height="3.188" color-interpolation-filters="sRGB"><feGaussianBlur stdDeviation="8.257079"/></filter><filter id="t" color-interpolation-filters="sRGB"><feGaussianBlur stdDeviation="2.43"/></filter><clipPath id="ah"><path d="m36 19c-0.56266 0-1 0.43734-1 1v217c0 0.56266 0.43734 1 1 1h184c0.56266 0 1-0.43734 1-1v-171c0-13.558-10.858-25.296-16.281-30.719-5.4231-5.4231-17.161-16.281-30.719-16.281z" fill="url(#linearGradient6013) #000000" fill-rule="evenodd"/></clipPath><filter id="z" color-interpolation-filters="sRGB"><feGaussianBlur stdDeviation="2.025"/></filter><linearGradient id="a"><stop stop-color="#fff" offset="0"/><stop stop-color="#fff" stop-opacity="0" offset="1"/></linearGradient><filter id="aa" x="-.10594" y="-.11513" width="1.2119" height="1.2303" color-interpolation-filters="sRGB"><feGaussianBlur stdDeviation="3.0222701"/></filter><mask id="n" maskUnits="userSpaceOnUse"><path d="m36-31c-0.56266 0-1 0.43734-1 1v217c0 0.56266 0.43734 1 1 1h184c0.56266 0 1-0.43734 1-1v-171c0-13.558-12.858-23.296-18.281-28.719-5.4231-5.4231-15.161-18.281-28.719-18.281z" fill="#fff" fill-rule="evenodd"/></mask><filter id="y" x="-.24138" y="-.24138" width="1.4828" height="1.4828" color-interpolation-filters="sRGB"><feGaussianBlur stdDeviation="4.7270115"/></filter><filter id="x" color-interpolation-filters="sRGB"><feGaussianBlur stdDeviation="0.27169794"/></filter><filter id="w" x="-.13103" y="-.13103" width="1.2621" height="1.2621" color-interpolation-filters="sRGB"><feGaussianBlur stdDeviation="2.566092"/></filter><filter id="v" color-interpolation-filters="sRGB"><feGaussianBlur stdDeviation="0.30732727"/></filter><filter id="u" x="-.031646" y="-.10174" width="1.0633" height="1.2035" color-interpolation-filters="sRGB"><feGaussianBlur stdDeviation="0.35931052"/></filter><clipPath id="ag"><path d="m1252 1006v138h224v-2zm32 58.844 74.375 45.156h-74.375z"/></clipPath><filter id="ac" color-interpolation-filters="sRGB"><feGaussianBlur stdDeviation="0.91"/></filter><linearGradient id="s" x1="1305.5" x2="1438" y1="1056" y2="1188" gradientUnits="userSpaceOnUse"><stop stop-color="#4e9a06" offset="0"/><stop stop-color="#8ae234" stop-opacity=".2" offset="1"/></linearGradient><filter id="ab" color-interpolation-filters="sRGB"><feGaussianBlur stdDeviation="4.625"/></filter><clipPath id="af"><path d="m1241 951.96c-0.5566 0-0.9892 0.44748-0.9892 1.0232v222.03c0 0.5757 0.4326 1.0232 0.9892 1.0232h182.02c0.5566 0 0.9892-0.4475 0.9892-1.0232v-174.96c0-13.872-10.742-25.882-16.106-31.43s-16.977-16.658-30.389-16.658z"/></clipPath><linearGradient id="r" x1="1358" x2="1358.2" y1="1132" y2="1138" gradientUnits="userSpaceOnUse"><stop stop-color="#fff" offset="0"/><stop stop-color="#fff" stop-opacity="0" offset="1"/></linearGradient><linearGradient id="q" x1="84" x2="-104.07" y1="200.5" y2="-127.99" gradientUnits="userSpaceOnUse"><stop offset="0"/><stop stop-opacity="0" offset="1"/></linearGradient><radialGradient id="m" cx="-80.661" cy="88.983" r="18" gradientTransform="matrix(25.306 2.1794e-6 -1.0731e-6 12.46 2199.2 -911.49)" gradientUnits="userSpaceOnUse"><stop stop-color="#fff" offset="0"/><stop stop-color="#d3d7cf" offset="1"/></radialGradient><radialGradient id="l" cx="128.59" cy="116.47" r="92.902" gradientTransform="matrix(3.5967 -.28529 .17691 2.2303 -355.12 -121.58)" gradientUnits="userSpaceOnUse"><stop stop-color="#fff" offset="0"/><stop stop-color="#fff" stop-opacity="0" offset="1"/></radialGradient><radialGradient id="k" cx="36" cy="45.297" r="84.203" gradientTransform="matrix(0 2.7411 -1.8799 0 120.78 -78.804)" gradientUnits="userSpaceOnUse"><stop stop-color="#fff" offset="0"/><stop stop-color="#fff" stop-opacity="0" offset="1"/></radialGradient><radialGradient id="j" cx="127.75" cy="261.27" r="92.25" gradientTransform="matrix(1.663 0 0 .34037 -84.702 148.57)" gradientUnits="userSpaceOnUse" xlink:href="#a"/><radialGradient id="i" cx="20.48" cy="31.231" r="93" gradientTransform="matrix(0 1.0485 -3.8781 0 165.49 13.855)" gradientUnits="userSpaceOnUse"><stop stop-color="#fff" offset="0"/><stop stop-color="#fff" stop-opacity="0" offset="1"/></radialGradient><radialGradient id="h" cx="127.75" cy="236.25" r="92.25" gradientTransform="matrix(1.5709 0 0 1.1159 -53.057 .95481)" gradientUnits="userSpaceOnUse" xlink:href="#a"/><radialGradient id="g" cx="210.96" cy="38.58" r="34.234" gradientTransform="matrix(1.0442 0 0 .96082 -12.745 6.3495)" gradientUnits="userSpaceOnUse"><stop offset="0"/><stop stop-opacity="0" offset="1"/></radialGradient><radialGradient id="f" cx="196.36" cy="44.213" r="23.763" gradientTransform="matrix(1 0 0 .98931 0 .47264)" gradientUnits="userSpaceOnUse"><stop offset="0"/><stop stop-opacity="0" offset="1"/></radialGradient><linearGradient id="p" x1="190.98" x2="196.45" y1="52.973" y2="39.564" gradientTransform="translate(-1.5 2.5214)" gradientUnits="userSpaceOnUse"><stop offset="0"/><stop stop-opacity="0" offset="1"/></linearGradient><radialGradient id="e" cx="190.88" cy="49.25" r="23.5" gradientTransform="matrix(1.4473 0 0 1.4473 -85.751 -21.529)" gradientUnits="userSpaceOnUse"><stop stop-color="#fff" offset="0"/><stop stop-color="#fff" stop-opacity="0" offset="1"/></radialGradient><radialGradient id="d" cx="192.25" cy="45.75" r="23.5" gradientTransform="matrix(.5972 -.4509 1.7045 2.2575 -.54025 29.158)" gradientUnits="userSpaceOnUse"><stop stop-color="#fff" offset="0"/><stop stop-color="#e6e6e6" offset=".44761"/><stop stop-color="#cbcbcb" offset=".81268"/><stop stop-color="#dbdbdb" offset="1"/></radialGradient><radialGradient id="c" cx="186.77" cy="27.786" r="8.9714" gradientTransform="matrix(2.1152 0 0 2.9279 -207.44 -53.617)" gradientUnits="userSpaceOnUse"><stop stop-color="#fff" offset="0"/><stop stop-color="#fff" stop-opacity="0" offset="1"/></radialGradient><radialGradient id="b" cx="208.68" cy="39.762" r="13.625" gradientTransform="matrix(.99733 .072992 -.11677 1.5955 5.1997 -29.524)" gradientUnits="userSpaceOnUse"><stop stop-color="#fff" offset="0"/><stop stop-color="#fff" stop-opacity="0" offset="1"/></radialGradient><linearGradient id="o" x1="189.25" x2="189.25" y1="23.662" y2="43.888" gradientUnits="userSpaceOnUse"><stop stop-color="#fff" offset="0"/><stop stop-color="#fff" stop-opacity="0" offset="1"/></linearGradient></defs><g transform="translate(-24 -936)"><g><g transform="translate(-416 904)"><rect transform="matrix(1.1875 0 0 .625 372.25 116)" x="60" y="244" width="176" height="12" rx="30.842" ry="6" filter="url(#ae)" opacity=".3"/><rect transform="matrix(.88797 0 0 .18573 434.71 228.96)" x="22.995" y="223.44" width="211" height="18.114" rx="4.9924" ry="9.0572" fill-rule="evenodd" filter="url(#ad)" opacity=".8"/><path transform="matrix(.98925 0 0 1.0129 401.72 .5305)" d="m55.872 47.328c-0.56266 0-1 0.43734-1 1l-1.0109 217c0 0.56266 0.43734 1 1 1h186.02c0.56266 0 1-0.43734 1-1l-1.0109-171c0-13.558-10.858-25.296-16.281-30.719-5.4231-5.4231-17.161-16.281-30.719-16.281z" fill="url(#q)" fill-rule="evenodd" filter="url(#t)" opacity=".7"/><g transform="matrix(.98925 0 0 1.0232 401.72 .044255)"><g transform="translate(19.872 27.828)"><path d="m36 19c-0.56266 0-1 0.43734-1 1v217c0 0.56266 0.43734 1 1 1h184c0.56266 0 1-0.43734 1-1v-171c0-13.558-10.858-25.296-16.281-30.719-5.4231-5.4231-17.161-16.281-30.719-16.281z" fill="url(#m)"/><path d="m36.591 19.704c-0.55904 0-0.99357 0.43453-0.99357 0.99357v215.61c0 0.55904 0.43453 0.99357 0.99357 0.99357h182.82c0.55904 0 0.99357-0.43453 0.99357-0.99357v-169.9c0-13.471-10.788-25.133-16.177-30.521-5.3882-5.3882-17.051-16.177-30.521-16.177z" fill="none" stroke="url(#l)" stroke-dashoffset=".7" stroke-linecap="round" stroke-width=".99397"/><path d="m36 19c-0.56266 0-1 0.43734-1 1v217c0 0.56266 0.43734 1 1 1h184c0.56266 0 1-0.43734 1-1v-171c0-13.558-10.858-25.296-16.281-30.719-5.4231-5.4231-17.161-16.281-30.719-16.281z" clip-path="url(#ah)" fill="none" filter="url(#z)" opacity=".072289" stroke="#000" stroke-dashoffset=".7" stroke-linecap="round" stroke-width=".99397"/><path d="m36.625 19.875c-0.56266 0-1 0.43734-1 1v217c0 0.56266 0.43734 1 1 1v-217c0-0.56266 0.43734-1 1-1h138c11.863 0 22.341 8.3199 28.406 14.031-5.8462-5.6773-16.801-15.031-29.406-15.031z" fill="url(#k)" fill-rule="evenodd"/><rect x="35.5" y="186.25" width="184.5" height="51.25" rx="1.0156" ry="1.0156" fill="url(#j)" fill-rule="evenodd" opacity=".56024"/></g><path d="m55.875 46.812c-0.56266-1e-6 -1 0.43734-1 1v88.188h186v-42.188c-1e-5 -13.558-10.858-25.296-16.281-30.719-5.4231-5.4231-17.161-16.281-30.719-16.281z" fill="url(#i)"/><rect x="55.372" y="263.83" width="184.5" height="1.5" rx="1.0156" ry="1.0156" fill="url(#h)" fill-rule="evenodd"/></g></g><g transform="translate(-16 907.93)" fill-rule="evenodd"><g transform="matrix(.98925 0 0 1.0232 21.376 24.59)"><path transform="matrix(.76048 0 0 .87302 56.123 8.4826)" d="m162 24c-2.7302 0-5.4062 0.18108-8.0312 0.5625-3.1702 5.9491-4.9688 12.73-4.9688 19.938 0 23.46 19.04 42.5 42.5 42.5 9.7773 0 18.785-3.3191 25.969-8.875-0.73575-29.997-25.296-54.125-55.469-54.125z" fill="url(#g)" filter="url(#aa)" opacity=".16868"/><path transform="translate(0,50)" d="m174-31c13.558 0 22.308 11.846 27.731 17.269s19.269 16.173 19.269 29.731c0-13.558-20.111-8.6028-26.192-8.6028-0.6357 0-1.2268-0.51769-1.1502-1.1502 2.5084-20.705-6.1006-37.247-19.658-37.247z" filter="url(#y)" mask="url(#n)" opacity=".37952"/><path d="m172.59 20.722c24.827-0.87083 48.543 30.546 47.5 47 0-13.558-7.491-16.365-29.984-16.365-0.6357 0-1.1502-0.51307-1.1502-1.1502 0-22.493-2.8077-29.484-16.365-29.484z" fill="url(#f)" filter="url(#x)" opacity=".42771"/><path d="m171.45 22.448c13.558 0 25.308 10.846 30.731 16.269s16.269 17.173 16.269 30.731c0-13.558-6.991-16.365-29.484-16.365-0.6357 0-1.1502-0.51307-1.1502-1.1502 0-22.493-2.8077-29.484-16.365-29.484z" fill="url(#p)" filter="url(#w)" opacity=".27711"/><path d="m173.12 19.75c13.558 0 25.308 10.846 30.731 16.269s16.269 17.173 16.269 30.731c0-13.558-6.991-16.365-29.484-16.365-0.6357 0-1.1502-0.51307-1.1502-1.1502 0-22.493-2.8077-29.484-16.365-29.484z" fill="url(#e)"/><path d="m174 19c13.558 0 25.308 10.846 30.731 16.269s16.269 17.173 16.269 30.731c0-13.558-6.991-16.365-29.484-16.365-0.6357 0-1.1502-0.51307-1.1502-1.1502 0-22.493-2.8077-29.484-16.365-29.484z" fill="url(#d)"/><path d="m174.13 19.031c15.481 1.0337 16.019 13.643 16.263 26.517-0.74413-7.7303 1.374-15.978-4.2426-22.627 4.5078 1.5017 9.8111 5.7816 14.938 9.1924-5.4964-4.8666-14.015-13.001-26.958-13.081z" fill="url(#c)" filter="url(#v)"/><path d="m219.38 57.625c-3.971-8.9-17.43-7.2964-27.25-8 9.9276-0.23867 24.598-2.9842 27.25 8z" fill="url(#b)" filter="url(#u)"/></g><path transform="matrix(.98925 0 0 1.0232 21.376 24.59)" d="m174 19c13.558 0 25.308 10.846 30.731 16.269s16.269 17.173 16.269 30.731c0-13.558-6.991-16.365-29.484-16.365-0.6357 0-1.1502-0.51307-1.1502-1.1502 0-22.493-2.8077-29.484-16.365-29.484z" fill="url(#o)"/></g><g transform="translate(-16 913.93)"><g transform="translate(-400 -1.9265)" fill="#e3e3e3"><rect x="472" y="60" width="132.69" height="4" rx="2" ry="2"/><rect x="472" y="72" width="130.81" height="4" rx="2" ry="2"/><rect x="472" y="84" width="140" height="4" rx="2" ry="2"/><rect x="472" y="96" width="152" height="4" rx="2" ry="2"/><rect x="472" y="108" width="148" height="4" rx="2" ry="2"/><rect x="472" y="120" width="152" height="4" rx="2" ry="2"/><rect x="472" y="132" width="136" height="4" rx="2" ry="2"/><rect x="472" y="144" width="144" height="4" rx="2" ry="2"/><rect x="472" y="156" width="152" height="4" rx="2" ry="2"/><rect x="472" y="168" width="112" height="4" rx="2" ry="2"/><rect x="472" y="192" width="152" height="4" rx="2" ry="2"/><rect x="472" y="204" width="144" height="4" rx="2" ry="2"/><rect x="472" y="216" width="128" height="4" rx="2" ry="2"/><rect x="472" y="228" width="152" height="4" rx="2" ry="2"/><rect x="472" y="240" width="152" height="4" rx="2" ry="2"/></g><path d="m72.991 57.924c-0.56545 2.3166 4.1632 4.326 0 3.645v-3.645zm3.7354 1.2256c-3.2172 2.6754 3.1055 2.6745 0 0zm0-0.38086c5.2014 3.8261-5.017 3.4922 0 0zm3.5816 0.48584c-1.6252 3.4808-1.9982 0.77522-1.1499 0.0049 0.11292-0.43685 1.5069-0.88591 1.1495-0.0049m2.7075 0.83496c-4.204-0.20479 2.3823 3.217-2.5342 0.13916-0.28329-1.7677 2.7356-1.9946 2.5342-0.13916zm-0.44922-0.13184c-0.59298-2.1206-3.2005 0.67901 0 4.2e-5m3.3154-0.59814c2.8441-1.1064 1.7513 4.586 0.83008-0.2002-1.7166 3.7234-0.11303 0.99136-2.3218 0.23438-0.52806 6.5383-1.8725-3.6115 1.4917-0.03418zm4.3359-0.5249c1.3922 1.4968-0.48557 4.2639 0 0.3676zm0-1.0645c1.429-0.2822-0.28063 1.7294 0 0zm1.8213 3.3887c-0.73884 4.248-0.84619-6.8351 1.9946-0.95459 0.30313 1.1289-1.4316 2.0166-1.9946 0.95459zm1.5283-0.95459c-1.9175-3.7581-1.5923 3.6178 0 0zm2.9541-1.2891c-2.8216-0.35437 1.7332 3.9528-1.9434 2.0898 4.3698 1.1509-2.9145-2.8381 1.9434-2.0898zm0.81787 1.5747c-0.46374-4.2686 1.8348 4.1534 1.8408-1.6553 1.7195 1.508-0.55468 4.5325-1.8408 1.6553zm5.3491-1.1304c2.8441-1.1064 1.7513 4.586 0.83008-0.2002-1.7166 3.7234-0.11303 0.99136-2.3218 0.23438-0.52806 6.5383-1.8725-3.6115 1.4917-0.03418zm6.1352-0.10986c0.11411-4.3309 1.8056 5.3824-1.6846 1.9946-1.0651-1.1253 0.52639-3.5367 1.6846-1.9946zm-1.5308 0.95459c1.9136 3.7629 1.5977-3.6168 0 0zm3.9648-1.0547c-3.2172 2.6754 3.1055 2.6745 0 0zm0-0.38086c5.2014 3.8261-5.017 3.4922 0 0zm1.9971-0.99854c1.3947 3.1413-0.55131 5.1202 0 0.01199zm2.4463 1.3794c-3.2172 2.6754 3.1055 2.6746 0 0zm0-0.38086c5.2014 3.8261-5.017 3.4922 0 0zm3.5816 0.48584c-1.6252 3.4808-1.9982 0.77522-1.1499 0.0049 0.11292-0.43685 1.5069-0.88591 1.1495-0.0049m3.811-0.33936c-2.8216-0.35436 1.7332 3.9528-1.9434 2.0898 4.3698 1.1509-2.9145-2.8381 1.9434-2.0898zm0.86426-0.08057c1.3922 1.4968-0.48558 4.2639 0 0.3676zm0-1.0645c1.4291-0.2822-0.28063 1.7294 0 0zm1.831 0.28809c0.48736 0.3575 0.77729 5.6354-0.4517 2.1365 0.18137-1.0784-0.82987-1.7688 0.45166-2.1365m4.353 2.1362c-3.1269 1.2043 1.8268 1.0515 0 0zm0.896-0.18556c-1.1072 3.6458-1.5796-0.10806-1.2256-0.85937-3.0052 0.40892 1.8786-1.5334 1.2256 0.85937zm3.0566-0.64942c2.8441-1.1064 1.7513 4.586 0.83008-0.2002-1.7166 3.7234-0.11303 0.99136-2.3218 0.23438-0.52806 6.5383-1.8725-3.6115 1.4917-0.03418zm5.083 0.72998c-4.204-0.20479 2.3823 3.217-2.5342 0.13916-0.2833-1.7678 2.7356-1.9946 2.5342-0.13916zm-0.44922-0.13184c-0.59299-2.1206-3.2005 0.67901 0 4.2e-5m1.6309-1.8994c0.48735 0.35751 0.77729 5.6354-0.45169 2.1365 0.18137-1.0784-0.82987-1.7688 0.45166-2.1365m1.6333 2.8906c1.4618 0.10816-0.87929 2.3279 0 0zm5.0366-2.0093c-3.432 0.37544 2.0507 4.8228-2.1631 1.2647-0.17634-1.2355 1.2895-1.7172 2.1631-1.2646zm1.8457 0.20997c-3.2172 2.6754 3.1055 2.6746 0 0zm0-0.38086c5.2014 3.8261-5.017 3.4921 0 0zm4.27 1.1499c0.46274 4.2594-1.8333-4.1496-1.8384 1.6504-1.7285-1.5125 0.55837-4.5234 1.8384-1.6504zm2.644-1.0034c-2.8216-0.35436 1.7332 3.9528-1.9434 2.0898 4.3698 1.1509-2.9145-2.8381 1.9434-2.0898zm3.2031 1.1743c-4.2041-0.20479 2.3823 3.217-2.5342 0.13916-0.28329-1.7677 2.7356-1.9946 2.5342-0.13916zm-0.44922-0.13184c-0.59298-2.1206-3.2005 0.67901 0 4.2e-5m3.1543-1.0181c-3.432 0.37543 2.0507 4.8228-2.1631 1.2647-0.17634-1.2355 1.2895-1.7172 2.1631-1.2646zm1.2305-0.88139c0.48735 0.35751 0.77729 5.6354-0.45169 2.1365 0.18137-1.0784-0.82987-1.7688 0.45166-2.1365m3.8574 2.0312c-4.2041-0.20479 2.3823 3.217-2.5342 0.13916-0.28329-1.7677 2.7356-1.9946 2.5342-0.13916zm-0.44922-0.13184c-0.59298-2.1206-3.2005 0.67901 0 4.2e-5m1.6309-1.8994c0.48735 0.35751 0.7773 5.6354-0.45169 2.1365 0.18137-1.0784-0.82987-1.7688 0.45166-2.1365m1.4722 2.4316c-0.46374-4.2686 1.8348 4.1534 1.8408-1.6553 1.7195 1.508-0.55468 4.5325-1.8408 1.6553zm5.5591-0.4004c-4.2041-0.20479 2.3823 3.217-2.5342 0.13916-0.28329-1.7677 2.7356-1.9946 2.5342-0.13916zm-0.44922-0.13184c-0.59298-2.1206-3.2005 0.67901 0 4.2e-5m2.771-0.70312c-1.6252 3.4808-1.9982 0.77522-1.1499 0.0049 0.11292-0.43685 1.5069-0.88591 1.1495-0.0049m3.3105 0.93994c-3.1269 1.2043 1.8268 1.0515 0 0zm0.896-0.18556c-1.1072 3.6458-1.5796-0.10806-1.2256-0.85937-3.0052 0.40892 1.8786-1.5334 1.2256 0.85937zm2.727-0.75928c0.11411-4.3309 1.8056 5.3824-1.6846 1.9946-1.0651-1.1253 0.52637-3.5366 1.6846-1.9946zm-1.5308 0.95459c1.9136 3.7629 1.5977-3.6168 0 0zm2.9053-1.3696c1.3922 1.4968-0.48558 4.2639 0 0.3676zm0-1.0645c1.4291-0.2822-0.28063 1.7294 0 0zm1.8213 3.3887c-0.73884 4.248-0.84619-6.8351 1.9946-0.95459 0.30313 1.1289-1.4316 2.0166-1.9946 0.95459zm1.5283-0.95459c-1.9175-3.7581-1.5923 3.6178 0 0zm1.2109-1.3696c1.3922 1.4968-0.48558 4.2639 0 0.3676zm0-1.0645c1.4291-0.2822-0.28063 1.7294 0 0zm3.1299 1.145c-2.8216-0.35436 1.7332 3.9528-1.9434 2.0898 4.3698 1.1509-2.9145-2.8381 1.9434-2.0898zm2.832 0.02441c-3.4319 0.37544 2.0507 4.8228-2.1631 1.2647-0.17634-1.2355 1.2895-1.7172 2.1631-1.2646zm0.78614-0.10497c1.3922 1.4968-0.48557 4.2639 0 0.3676zm0-1.0645c1.429-0.2822-0.28063 1.7294 0 0zm3.6597 2.1484c0.46274 4.2594-1.8333-4.1496-1.8384 1.6504-1.7285-1.5125 0.55837-4.5234 1.8384-1.6504zm2.7002 0.25146c-1.9087-3.6573-1.6136 3.5108 0 0zm-0.35645 1.2793c-1.5044-5.4496-1.2787 1.7135 0 0zm-128.73 8.9605c-2.0482 2.7038 1.9162 2.5334 0 0zm-0.27832-0.48584c1.6672 1.5557 2.8966 4.809-0.31654 2.71-2.5133 3.8918 0.18397-2.1817 0.31654-2.71zm2.4585-0.15381c1.3947 3.1413-0.55131 5.1202 0 0.01199zm1.3867 1.0645c1.3922 1.4968-0.48558 4.2639 0 0.3676zm0-1.0645c1.4291-0.2822-0.28063 1.7294 0 0zm1.6553 2.4341c1.9136 3.7629 1.5977-3.6168 0 0zm1.5308 0.95459c-4.7207-0.30766 2.2692-5.0244 0.44922 0.98927-0.32648 1.9017-0.60846-0.72624-0.44922-0.98927zm1.3281-0.66894c-0.46374-4.2686 1.8348 4.1534 1.8408-1.6553 1.7195 1.508-0.55468 4.5325-1.8408 1.6553zm4.4629-0.29541c-3.127 1.2043 1.8268 1.0515 0 0zm0.896-0.18556c-1.1072 3.6458-1.5796-0.10806-1.2256-0.85937-3.0052 0.40892 1.8786-1.5334 1.2256 0.85937zm3.0566-0.64942c2.8441-1.1063 1.7513 4.586 0.83007-0.2002-1.7165 3.7234-0.11303 0.99134-2.3218 0.23438-0.52806 6.5383-1.8725-3.6115 1.4917-0.03418zm4.0137-0.5249c1.3253 3.3477 1.784 0.36926 2.4949 0.44322-0.94656 3.6204-1.6068 2.4493-2.4949-0.44322zm5.6201 1.2549c-4.204-0.20479 2.3822 3.217-2.5342 0.13916-0.2833-1.7678 2.7356-1.9946 2.5342-0.13916zm-0.44922-0.13184c-0.59299-2.1206-3.2005 0.67901 0 4.2e-5m1.1865-2.1875c1.3947 3.1413-0.55131 5.1202 0 0.01199zm5.2515 2.1484c0.46275 4.2594-1.8333-4.1496-1.8384 1.6504-1.7285-1.5125 0.55838-4.5234 1.8384-1.6504zm0.90088-1.084c1.3922 1.4968-0.48558 4.2639 0 0.3676zm0-1.0645c1.4291-0.2822-0.28063 1.7294 0 0zm3.3496 2.4341c-1.9175-3.7581-1.5923 3.6178 0 0zm-1.5283-0.95459c4.72 0.317-2.2725 5.0147-0.45166-0.99415 0.10485-1.6751 0.75187 0.50222 0.45166 0.99415zm5.0122 0.66895c0.46275 4.2594-1.8333-4.1496-1.8384 1.6504-0.58-3.4018-1.8187-4.9483 1.8384-1.6504zm0.96436 1.0303c1.5984-0.25749-0.3125 1.7484 0 0zm3.6328-2.6196c-1.452 6.2361 5.3305 0.4799 0 0zm-0.49317-0.40527c6.7364-0.84594-0.78518 7.5754 0 1.2782v-1.2782zm4.8877 1.2256c-3.2172 2.6754 3.1055 2.6746 0 0zm0-0.38086c5.2014 3.8261-5.017 3.4921 0 0zm4.27 1.1499c0.46275 4.2594-1.8333-4.1496-1.8384 1.6504-1.7285-1.5125 0.55837-4.5234 1.8384-1.6504zm3.2397 0.17089c-4.204-0.20479 2.3823 3.217-2.5342 0.13916-0.28331-1.7678 2.7356-1.9946 2.5342-0.13916zm-0.44921-0.13184c-0.59299-2.1206-3.2005 0.67901 0 4.2e-5m3.1543-1.0181c-3.4319 0.37544 2.0507 4.8228-2.1631 1.2646-0.17634-1.2355 1.2895-1.7172 2.1631-1.2646zm4.1772 0.31006c0.11411-4.3309 1.8056 5.3824-1.6846 1.9946-1.0651-1.1253 0.52637-3.5366 1.6846-1.9946zm-1.5308 0.95459c1.9136 3.7629 1.5977-3.6168 0 0zm2.9053-1.3696c1.3922 1.4968-0.48558 4.2639 0 0.3676zm0-1.0645c1.4291-0.2822-0.28063 1.7294 0 0zm2.6294 2.4243c-3.1269 1.2043 1.8268 1.0515 0 0zm0.89599-0.18556c-1.1072 3.6458-1.5796-0.10805-1.2256-0.85937-3.0052 0.40892 1.8785-1.5334 1.2256 0.85937zm3.0566-0.64942c2.8441-1.1064 1.7513 4.586 0.83008-0.2002-1.7165 3.7234-0.11302 0.99134-2.3218 0.23438-0.52803 6.5383-1.8725-3.6115 1.4917-0.03418zm6.6748 0.72998c-4.204-0.20479 2.3823 3.217-2.5342 0.13916-0.28329-1.7677 2.7356-1.9946 2.5342-0.13916zm-0.44922-0.13184c-0.59298-2.1206-3.2005 0.67901 0 4.2e-5m2.771-0.70312c-1.6251 3.4809-1.9982 0.77521-1.1499 0.0049 0.11292-0.43686 1.5069-0.8859 1.1495-0.0049m1.4282-0.10498c-3.2172 2.6754 3.1055 2.6746 0 0zm0-0.38086c5.2014 3.8262-5.017 3.4921 0 0zm3.7402 0.14648c-2.8216-0.35436 1.7332 3.9528-1.9434 2.0898 4.3698 1.1509-2.9145-2.8381 1.9434-2.0898zm0.979 2.0337c1.4619 0.10814-0.87928 2.3279 0 0zm3.5132-2.8906c0.48735 0.35751 0.7773 5.6354-0.45169 2.1365 0.18137-1.0784-0.82987-1.7688 0.45166-2.1365m3.103 1.1963c-1.6252 3.4808-1.9982 0.77522-1.1499 0.0049 0.11292-0.43685 1.5069-0.88591 1.1495-0.0049m0.47607-0.41992c1.3922 1.4968-0.48558 4.2639 0 0.3676zm0-1.0645c1.4291-0.2822-0.28063 1.7294 0 0zm3.1299 1.145c-2.8216-0.35436 1.7332 3.9528-1.9434 2.0898 4.3698 1.1509-2.9145-2.8381 1.9434-2.0898zm1.3086-0.85693c0.48735 0.35751 0.77729 5.6354-0.45169 2.1365 0.18137-1.0784-0.82987-1.7688 0.45166-2.1365m1.5186 0.77637c1.3922 1.4968-0.48558 4.2639 0 0.3676zm0-1.0645c1.4291-0.2822-0.28063 1.7294 0 0zm1.6553 2.4341c1.9136 3.7629 1.5977-3.6168 0 0zm1.5308 0.95459c-4.7207-0.30765 2.2692-5.0244 0.44922 0.98927-0.32648 1.9017-0.60846-0.72624-0.44922-0.98927zm1.3281-0.66894c-0.46374-4.2686 1.8348 4.1534 1.8408-1.6553 1.7195 1.508-0.55468 4.5325-1.8408 1.6553zm5.5591-0.4004c-4.2041-0.20479 2.3823 3.217-2.5342 0.13916-0.28329-1.7677 2.7356-1.9946 2.5342-0.13916zm-0.44922-0.13184c-0.59295-2.1206-3.2005 0.67901 0 4.2e-5m4.5215-1.0425c-2.8216-0.35436 1.7332 3.9528-1.9434 2.0898 4.3698 1.1509-2.9145-2.8381 1.9434-2.0898zm0.86426-0.08057c1.3922 1.4968-0.48558 4.2639 0 0.3676zm0-1.0645c1.4291-0.2822-0.28063 1.7294 0 0zm1.831 0.28809c0.48735 0.35751 0.7773 5.6354-0.45169 2.1365 0.18137-1.0784-0.82987-1.7688 0.45166-2.1365m4.353 2.1362c-3.127 1.2043 1.8268 1.0515 0 0zm0.896-0.18556c-1.1072 3.6458-1.5796-0.10806-1.2256-0.85937-3.0052 0.40892 1.8786-1.5334 1.2256 0.85937zm3.0566-0.64942c2.8441-1.1063 1.7513 4.586 0.83007-0.2002-1.7165 3.7234-0.11303 0.99134-2.3218 0.23438-0.52806 6.5383-1.8725-3.6115 1.4917-0.03418zm-125.34 13.799c-0.73884 4.248-0.84619-6.8351 1.9946-0.95459 0.30313 1.1289-1.4316 2.0166-1.9946 0.95459zm1.5283-0.95459c-1.9175-3.7581-1.5923 3.6178 0 0zm2.7954-0.94971c-1.6251 3.4809-1.9982 0.77521-1.1499 0.0049 0.11292-0.43686 1.5069-0.8859 1.1495-0.0049m2.7075 0.83496c-4.2041-0.20479 2.3823 3.217-2.5342 0.13916-0.28329-1.7677 2.7356-1.9946 2.5342-0.13916zm-0.44922-0.13184c-0.59297-2.1206-3.2005 0.67901 0 4.2e-5m1.6309-1.8994c0.48735 0.3575 0.77731 5.6354-0.45169 2.1365 0.18137-1.0784-0.82987-1.7688 0.45166-2.1365m1.5186 0.77637c1.3922 1.4968-0.48558 4.2639 0 0.3676zm0-1.0645c1.4291-0.2822-0.28063 1.7294 0 0zm1.3403 2.7197c-0.46374-4.2686 1.8348 4.1534 1.8408-1.6553 1.7195 1.508-0.55468 4.5325-1.8408 1.6553zm5.3491-1.1304c2.8441-1.1064 1.7513 4.586 0.83008-0.2002-1.7166 3.7234-0.11303 0.99136-2.3218 0.23438-0.52805 6.5383-1.8725-3.6115 1.4917-0.03418zm4.0137-0.5249c1.3254 3.3477 1.784 0.36927 2.4949 0.44322-0.94656 3.6204-1.6068 2.4493-2.4949-0.44322zm5.6201 1.2549c-4.2041-0.20479 2.3823 3.217-2.5342 0.13916-0.28329-1.7677 2.7356-1.9946 2.5342-0.13916zm-0.44922-0.13184c-0.59298-2.1206-3.2005 0.67901 0 4.2e-5m1.1865-2.1875c1.3947 3.1413-0.55131 5.1202 0 0.01199zm1.5015 3.1787c1.4619 0.10814-0.8793 2.3279 0 0zm3.5034 0.20996c-0.73884 4.2481-0.84619-6.8351 1.9946-0.95459 0.30314 1.1289-1.4316 2.0166-1.9946 0.95459zm1.5283-0.95459c-1.9175-3.7581-1.5923 3.6178 0 0zm3.5498-0.11475c-4.2041-0.20479 2.3823 3.217-2.5342 0.13916-0.28329-1.7677 2.7356-1.9946 2.5342-0.13916zm-0.44922-0.13184c-0.59297-2.1206-3.2005 0.67901 0 4.2e-5m1.1865-2.1875c1.3947 3.1413-0.55131 5.1202 0 0.01199zm1.3867 0c1.3947 3.1413-0.5513 5.1202 0 0.01199zm3.7256 2.3193c-4.2041-0.20479 2.3823 3.217-2.5342 0.13916-0.28329-1.7677 2.7356-1.9946 2.5342-0.13916zm-0.44922-0.13184c-0.59297-2.1206-3.2005 0.67901 0 4.2e-5m3.4595-0.03906c0.46275 4.2594-1.8333-4.1496-1.8384 1.6504-1.7285-1.5125 0.55838-4.5234 1.8384-1.6504zm1.3452-1.8604c0.48735 0.35751 0.7773 5.6354-0.45169 2.1365 0.18137-1.0784-0.82987-1.7688 0.45166-2.1365m3.8574 2.0312c-4.2041-0.20479 2.3823 3.217-2.5342 0.13916-0.28329-1.7677 2.7356-1.9946 2.5342-0.13916zm-0.44922-0.13184c-0.59297-2.1206-3.2005 0.67901 0 4.2e-5m2.9297-1.0425c-2.8216-0.35436 1.7332 3.9528-1.9434 2.0898 4.3698 1.1509-2.9145-2.8381 1.9434-2.0898zm1.1328 1.2891c1.9136 3.7629 1.5977-3.6168 0 0zm1.5308 0.95459c-4.7207-0.30766 2.2692-5.0244 0.44922 0.98927-0.32648 1.9017-0.60846-0.72624-0.44922-0.98927zm1.3281-0.66894c-0.46374-4.2686 1.8348 4.1534 1.8408-1.6553 1.7195 1.508-0.55468 4.5325-1.8408 1.6553zm5.5591-0.4004c-4.2041-0.20479 2.3823 3.217-2.5342 0.13916-0.28329-1.7677 2.7356-1.9946 2.5342-0.13916zm-0.44922-0.13184c-0.59297-2.1206-3.2005 0.67901 0 4.2e-5m2.7319 0.53223c-0.46374-4.2686 1.8348 4.1534 1.8408-1.6553 1.7195 1.508-0.55468 4.5325-1.8408 1.6553zm3.6646-2.4316c0.48735 0.35751 0.77729 5.6354-0.45169 2.1365 0.18137-1.0784-0.82987-1.7688 0.45166-2.1365m1.6333 2.8906c1.4618 0.10816-0.87929 2.3279 0 0zm5.3418-1.0303c0.46275 4.2594-1.8333-4.1496-1.8384 1.6504-1.7285-1.5125 0.55838-4.5234 1.8384-1.6504zm3.2398 0.17089c-4.2041-0.20479 2.3823 3.217-2.5342 0.13916-0.28329-1.7677 2.7356-1.9946 2.5342-0.13916zm-0.44922-0.13184c-0.59297-2.1206-3.2005 0.67901 0 4.2e-5m1.4551 0.24658c1.9136 3.7629 1.5977-3.6168 0 0zm1.5308 0.95459c-4.7207-0.30765 2.2692-5.0244 0.44922 0.98927-0.32648 1.9017-0.60846-0.72624-0.44922-0.98927zm1.3281-0.66894c-0.46374-4.2686 1.8348 4.1534 1.8408-1.6553 1.7195 1.508-0.55468 4.5325-1.8408 1.6553zm5.5591-0.4004c-4.2041-0.20479 2.3823 3.217-2.5342 0.13916-0.28329-1.7677 2.7356-1.9946 2.5342-0.13916zm-0.44922-0.13184c-0.59298-2.1206-3.2005 0.67901 0 4.2e-5m1.25 0.99121c1.5984-0.25748-0.3125 1.7484 0 0zm3.6328-2.6196c-1.452 6.2361 5.3305 0.4799 0 0zm-0.49316-0.40527c6.7364-0.84594-0.78518 7.5754 0 1.2782v-1.2782zm4.8877 1.2256c-3.2172 2.6754 3.1055 2.6745 0 0zm0-0.38086c5.2014 3.8261-5.017 3.4922 0 0zm4.27 1.1499c0.46274 4.2594-1.8333-4.1496-1.8384 1.6504-1.7285-1.5125 0.55837-4.5234 1.8384-1.6504zm3.2398 0.17089c-4.2041-0.20479 2.3823 3.217-2.5342 0.13916-0.28329-1.7677 2.7356-1.9946 2.5342-0.13916zm-0.44922-0.13184c-0.59298-2.1206-3.2005 0.67901 0 4.2e-5m3.1543-1.0181c-3.432 0.37543 2.0507 4.8228-2.1631 1.2646-0.17634-1.2355 1.2895-1.7172 2.1631-1.2646zm4.6509 0.979c0.46275 4.2594-1.8333-4.1496-1.8384 1.6504-1.7285-1.5125 0.55837-4.5234 1.8384-1.6504zm1.9604-0.76904c-3.2172 2.6754 3.1054 2.6746 0 0zm0-0.38086c5.2014 3.8262-5.017 3.4921 0 0zm4.27 1.1499c0.46275 4.2594-1.8333-4.1496-1.8384 1.6504-1.7285-1.5125 0.55837-4.5234 1.8384-1.6504zm0.85449 0.57129c-0.46374-4.2686 1.8348 4.1534 1.8408-1.6553 1.7195 1.508-0.55468 4.5325-1.8408 1.6553zm5.3491-1.1304c2.8441-1.1064 1.7513 4.586 0.83008-0.2002-1.7166 3.7234-0.11303 0.99136-2.3218 0.23438-0.52805 6.5383-1.8725-3.6115 1.4917-0.03418zm4.873 0c2.8441-1.1063 1.7513 4.586 0.83007-0.2002-1.7165 3.7234-0.11303 0.99134-2.3218 0.23438-0.52806 6.5383-1.8725-3.6115 1.4917-0.03418zm3.8818 2.4634c-1.0468 3.48-1.4462-5.2122-0.6326-2.1091 0.73319 2.203 2.6542-3.3056 0.77455 1.7561l-0.14192 0.35307m-133.87 7.9472c1.3947 3.1413-0.55131 5.1202 0 0.01199zm2.6294 2.4243c-3.1269 1.2043 1.8267 1.0515 0 0zm0.89599-0.18555c-1.1071 3.6458-1.5796-0.10805-1.2256-0.85932-3.0052 0.40905 1.8785-1.5334 1.2256 0.85945m2.8955-1.0693c-3.4319 0.37549 2.0507 4.8228-2.1631 1.2646-0.17636-1.2354 1.2896-1.7172 2.1631-1.2647m0.78613-0.10498c1.3922 1.4968-0.48558 4.2639 0 0.3676zm0-1.0645c1.4291-0.2822-0.28063 1.7294 0 0zm3.6597 2.1484c0.46275 4.2594-1.8333-4.1496-1.8384 1.6504-1.7285-1.5125 0.55837-4.5234 1.8384-1.6504zm0.90088-1.084c1.3922 1.4968-0.48558 4.2639 0 0.3676zm0-1.0645c1.4291-0.2822-0.28063 1.7294 0 0zm2.6294 2.4243c-3.1269 1.2043 1.8268 1.0515 0 0zm0.896-0.18555c-1.1071 3.6458-1.5796-0.10806-1.2256-0.85932-3.0052 0.40904 1.8785-1.5333 1.2256 0.85945m2.5195-2.2388c1.3947 3.1413-0.55131 5.1202 0 0.01199zm3.7256 2.3193c-4.204-0.20476 2.3823 3.217-2.5342 0.13912-0.28329-1.7677 2.7356-1.9946 2.5342-0.13916m-0.44922-0.13184c-0.59315-2.1205-3.2002 0.67876 0 4.5e-4m2.2461-0.8081c-3.2172 2.6754 3.1055 2.6746 0 0zm0-0.38086c5.2014 3.8261-5.017 3.4922 0 0zm1.9727 2.1802c1.5984-0.25748-0.3125 1.7484 0 0zm3.1396-3.0249c2.5954 2.2295 1.8385 3.5932 2.7588 0 0.90956 5.1296-1.5871 2.5871-2.2803 1.0691 0.0428 5.05-0.8075 1.9002-0.47851-1.0691zm4.9634 2.2705c-3.1269 1.2043 1.8267 1.0515 0 0zm0.89599-0.18555c-1.1071 3.6458-1.5796-0.10805-1.2256-0.85932-3.0052 0.40905 1.8785-1.5334 1.2256 0.85945m3.0566-0.64941c2.8441-1.1064 1.7514 4.586 0.83008-0.2002-1.7165 3.7234-0.11302 0.99133-2.3218 0.23438-0.52803 6.5383-1.8725-3.6114 1.4917-0.03418zm4.3359-1.5894c1.3947 3.1413-0.55131 5.1202 0 0.01199zm2.6294 2.4243c-3.1269 1.2043 1.8268 1.0515 0 0zm0.896-0.18555c-1.1071 3.6458-1.5796-0.10806-1.2256-0.85932-3.0052 0.40904 1.8785-1.5333 1.2256 0.85945m1.9873-0.85937c-3.2172 2.6754 3.1054 2.6746 0 0zm0-0.38086c5.2014 3.8262-5.017 3.4921 0 0zm3.5815 0.48584c-1.6251 3.4807-1.9982 0.77524-1.1499 0.0048 0.11284-0.43656 1.507-0.8863 1.1495-0.0052m2.7075 0.83496c-4.204-0.20476 2.3823 3.217-2.5342 0.13912-0.28329-1.7677 2.7356-1.9946 2.5342-0.13916m-0.44922-0.13184c-0.59315-2.1205-3.2002 0.67876 0 4.5e-4m3.5254 0.13184c-4.204-0.20476 2.3823 3.217-2.5342 0.13912-0.28329-1.7677 2.7356-1.9946 2.5342-0.13916m-0.44922-0.13184c-0.59315-2.1205-3.2002 0.67876 0 4.5e-4m1.6309-1.8994c0.48735 0.35752 0.7773 5.6354-0.45169 2.1365 0.18137-1.0784-0.82987-1.7688 0.45166-2.1365m4.9097 1.1914c0.11411-4.3309 1.8056 5.3824-1.6846 1.9946-1.0651-1.1253 0.52638-3.5367 1.6846-1.9946zm-1.5308 0.95459c1.9136 3.7629 1.5977-3.6168 0 0zm2.8589 0.28564c-0.46374-4.2686 1.8348 4.1534 1.8408-1.6553 1.7195 1.508-0.55468 4.5325-1.8408 1.6553zm3.2202-1.6553c1.3922 1.4968-0.48558 4.2639 0 0.3676zm0-1.0645c1.4291-0.2822-0.28063 1.7294 0 0zm4.7217 1.145c-2.8216-0.35433 1.7332 3.9529-1.9434 2.0899 4.3698 1.151-2.9145-2.838 1.9434-2.0898m3.2031 1.1743c-4.2041-0.20476 2.3823 3.217-2.5342 0.13912-0.28329-1.7677 2.7356-1.9946 2.5342-0.13916m-0.44922-0.13184c-0.59315-2.1205-3.2002 0.67876 0 4.5e-4m2.9858-0.708c0.11411-4.3309 1.8056 5.3824-1.6846 1.9946-1.0651-1.1253 0.52638-3.5367 1.6846-1.9946zm-1.5308 0.95459c1.9136 3.7629 1.5977-3.6168 0 0zm6.626-0.84473c2.8441-1.1064 1.7513 4.586 0.83008-0.2002-1.7166 3.7234-0.11303 0.99135-2.3218 0.23438-0.52805 6.5383-1.8725-3.6115 1.4917-0.03418zm3.9868 0.83496c-3.1269 1.2043 1.8267 1.0515 0 0zm0.89599-0.18555c-1.1071 3.6458-1.5796-0.10804-1.2256-0.85932-3.0052 0.40905 1.8785-1.5334 1.2256 0.85945m2.727 0.16114c-1.9087-3.6573-1.6136 3.5108 0 0zm0.44922 1.0596c-2.9969 2.9756-0.96951 0.0651-0.80566 0.21977-4.882-1.2229 2.3144-5.0707 0.80566-0.21972m3.1982-1.311c0.46274 4.2594-1.8333-4.1496-1.8384 1.6504-1.7285-1.5125 0.55837-4.5234 1.8384-1.6504zm2.1436 0.27588c-3.127 1.2043 1.8268 1.0515 0 0zm0.89599-0.18555c-1.1071 3.6458-1.5796-0.10807-1.2256-0.85932-3.0052 0.40905 1.8785-1.5334 1.2256 0.85945m0.99121 0.93995c1.5984-0.25748-0.3125 1.7484 0 0zm3.1396-3.0249c1.5845 2.304-0.66331 5.5272 0 0.33154zm3.728 1.9946c0.46275 4.2594-1.8333-4.1496-1.8384 1.6504-1.7285-1.5125 0.55837-4.5234 1.8384-1.6504zm1.3452-1.8604c0.48736 0.35752 0.77729 5.6354-0.45169 2.1365 0.18137-1.0784-0.82987-1.7688 0.45166-2.1365m3.8574 2.0312c-4.204-0.20476 2.3823 3.217-2.5342 0.13912-0.28329-1.7677 2.7356-1.9946 2.5342-0.13916m-0.44922-0.13184c-0.59315-2.1205-3.2002 0.67876 0 4.5e-4m2.9858 0.21241c-1.9087-3.6573-1.6136 3.5108 0 0zm0.44922 1.0596c-2.997 2.9756-0.96949 0.06509-0.80567 0.21977-4.882-1.2229 2.3144-5.0707 0.80567-0.21972m3.2642-1.1401c-4.204-0.20476 2.3823 3.217-2.5342 0.13912-0.28329-1.7677 2.7356-1.9946 2.5342-0.13916m-0.44922-0.13184c-0.59315-2.1205-3.2002 0.67876 0 4.5e-4m2.771-0.70312c-1.6251 3.4807-1.9982 0.77522-1.1499 0.0048 0.11284-0.43656 1.507-0.8863 1.1495-0.0052m3.3106 0.93994c-3.1269 1.2043 1.8268 1.0515 0 0zm0.896-0.18555c-1.1072 3.6458-1.5796-0.10806-1.2256-0.85932-3.0052 0.40905 1.8785-1.5333 1.2256 0.85945m2.8955-1.0693c-3.432 0.37548 2.0507 4.8228-2.1631 1.2646-0.17636-1.2354 1.2895-1.7172 2.1631-1.2647m2.7539 0c-3.4319 0.37549 2.0507 4.8228-2.1631 1.2646-0.17636-1.2354 1.2895-1.7172 2.1631-1.2647m0.73975 1.5503c-0.46374-4.2686 1.8348 4.1534 1.8408-1.6553 1.7195 1.508-0.55468 4.5325-1.8408 1.6553zm5.3491-1.1304c2.8441-1.1064 1.7513 4.586 0.83008-0.2002-1.7166 3.7234-0.11303 0.99135-2.3218 0.23438-0.52805 6.5383-1.8725-3.6115 1.4917-0.03418zm4.4873-0.44434c-2.8216-0.35432 1.7332 3.9529-1.9434 2.0899 4.3698 1.151-2.9145-2.838 1.9434-2.0898m2.1069 1.2793c-3.1269 1.2043 1.8267 1.0515 0 0zm0.89599-0.18555c-1.1071 3.6458-1.5796-0.10805-1.2256-0.85932-3.0052 0.40905 1.8785-1.5334 1.2256 0.85945m3.2007-0.0903c0.46275 4.2594-1.8333-4.1496-1.8384 1.6504-1.7285-1.5125 0.55837-4.5234 1.8384-1.6504zm0.96435 1.0303c1.5984-0.25748-0.3125 1.7484 0 0zm-144.8 9.3096c-4.807 3.8279 4.6399 3.7363 0 0zm0.69092 3.2446c0.42683 2.8982-5.4053-5.4865 0.53464-3.1306 0.74045 0.89297 0.63502 2.6088-0.53467 3.1299m1.6992-1.0132c-0.46374-4.2686 1.8348 4.1534 1.8408-1.6553 1.7195 1.508-0.55468 4.5325-1.8408 1.6553zm3.2202-1.6553c1.3922 1.4968-0.48558 4.2639 0 0.3676zm0-1.0645c1.4291-0.2822-0.28063 1.7294 0 0zm3.1299 1.145c-2.8216-0.35433 1.7332 3.9529-1.9434 2.0899 4.3698 1.151-2.9145-2.838 1.9434-2.0898m1.1328 1.2891c1.9136 3.7629 1.5977-3.6168 0 0zm1.5308 0.95459c-4.7207-0.30766 2.2692-5.0244 0.44922 0.98926-0.32648 1.9017-0.60846-0.72623-0.44922-0.98926zm1.3281-0.66895c-0.46374-4.2686 1.8348 4.1534 1.8408-1.6553 1.7195 1.508-0.55468 4.5325-1.8408 1.6553zm5.5591-0.40039c-4.204-0.20476 2.3823 3.217-2.5342 0.13912-0.28329-1.7677 2.7356-1.9946 2.5342-0.13916m-0.44922-0.13184c-0.59315-2.1205-3.2002 0.67876 0 4.5e-4m2.4561-1.123c1.3254 3.3478 1.784 0.36924 2.4949 0.44322-0.94656 3.6204-1.6068 2.4493-2.4949-0.44322zm5.6201 1.2549c-4.2041-0.20476 2.3823 3.217-2.5342 0.13912-0.28329-1.7677 2.7356-1.9946 2.5342-0.13916m-0.44922-0.13184c-0.59313-2.1205-3.2002 0.67875 0 4.5e-4m3.4595-0.0391c0.46275 4.2594-1.8333-4.1496-1.8384 1.6504-0.58001-3.4018-1.8187-4.9482 1.8384-1.6504zm0.90088-1.084c1.3922 1.4968-0.48558 4.2639 0 0.3676zm0-1.0645c1.4291-0.2822-0.28063 1.7294 0 0zm3.3545 1.1694c-3.432 0.37549 2.0507 4.8228-2.1631 1.2646-0.17636-1.2354 1.2896-1.7172 2.1631-1.2647m0.73974 1.5503c-0.46374-4.2686 1.8348 4.1534 1.8408-1.6553 1.7195 1.508-0.55467 4.5325-1.8408 1.6553zm3.2202-2.7197c1.3947 3.1413-0.55131 5.1202 0 0.012zm2.6294 2.4243c-3.1269 1.2043 1.8268 1.0515 0 0zm0.896-0.18555c-1.1071 3.6458-1.5796-0.10806-1.2256-0.85932-3.0052 0.40904 1.8785-1.5333 1.2256 0.85945m2.9541 1.1499c-0.73884 4.248-0.84618-6.8351 1.9946-0.95459 0.30314 1.1289-1.4316 2.0166-1.9946 0.95459zm1.5283-0.95459c-1.9175-3.7581-1.5923 3.6178 0 0zm2.2705-1.0547c-3.2172 2.6754 3.1055 2.6746 0 0zm0-0.38086c5.2014 3.8261-5.017 3.4921 0 0zm3.5815 0.48584c-1.6251 3.4807-1.9982 0.77523-1.1499 5e-3 0.11284-0.43656 1.507-0.8863 1.1495-5e-3m0.92041-1.1963c0.48736 0.35752 0.77731 5.6354-0.45169 2.1365 0.18137-1.0784-0.82987-1.7688 0.45166-2.1365m1.9629 0c0.48737 0.35751 0.77729 5.6354-0.4517 2.1365 0.18137-1.0784-0.82987-1.7688 0.45166-2.1365m1.5186 0.77637c1.3922 1.4968-0.48558 4.2639 0 0.3676zm0-1.0645c1.4291-0.2822-0.28063 1.7294 0 0zm1.831 0.28809c0.48736 0.35752 0.77731 5.6354-0.45169 2.1365 0.18137-1.0784-0.82987-1.7688 0.45166-2.1365m2.5781 1.0913c-3.2172 2.6754 3.1055 2.6746 0 0zm0-0.38086c5.2014 3.8261-5.017 3.4921 0 0zm3.5815 0.48584c-1.6251 3.4807-1.9982 0.77523-1.1499 5e-3 0.11284-0.43656 1.507-0.8863 1.1495-5e-3m3.1274-0.10498c-3.2172 2.6754 3.1055 2.6746 0 0zm0-0.38086c5.2014 3.8261-5.017 3.4922 0 0zm3.7964 0.48096c0.11411-4.3309 1.8056 5.3824-1.6846 1.9946-1.0651-1.1253 0.52638-3.5367 1.6846-1.9946zm-1.5308 0.95459c1.9136 3.7629 1.5977-3.6168 0 0zm2.9053-1.3696c1.3922 1.4968-0.48558 4.2639 0 0.3676zm0-1.0645c1.4291-0.2822-0.28063 1.7294 0 0zm2.4463 1.3794c-3.2172 2.6754 3.1055 2.6746 0 0zm0-0.38086c5.2014 3.8261-5.017 3.4921 0 0zm1.9727 2.1802c1.5984-0.25749-0.3125 1.7484 0 0zm3.1396-3.0249c2.5954 2.2294 1.8385 3.5933 2.7588 0 0.90956 5.1296-1.5871 2.5871-2.2803 1.0691 0.0428 5.05-0.80752 1.9002-0.47852-1.0691zm3.6743 2.5659c-0.46374-4.2686 1.8348 4.1534 1.8408-1.6553 1.7195 1.508-0.55468 4.5325-1.8408 1.6553zm3.2202-2.7197c1.3947 3.1413-0.5513 5.1202 0 0.012zm1.3867 0c1.3947 3.1413-0.55131 5.1202 0 0.012zm2.6294 2.4243c-3.127 1.2043 1.8268 1.0515 0 0zm0.896-0.18555c-1.1071 3.6458-1.5796-0.10806-1.2256-0.85932-3.0052 0.40905 1.8785-1.5333 1.2256 0.85945m3.9038-2.2388c-1.0629-0.11536-0.39832 4.7356-1.3111 2.8522 0.17934-1.6038-1.0965-2.4385 1.311-2.8521m1.6162 2.4243c-3.1269 1.2043 1.8268 1.0515 0 0zm0.896-0.18555c-1.1071 3.6458-1.5796-0.10806-1.2256-0.85932-3.0052 0.40904 1.8785-1.5333 1.2256 0.85945m2.8955-1.0693c-3.432 0.37549 2.0507 4.8228-2.1631 1.2646-0.17636-1.2354 1.2896-1.7172 2.1631-1.2647m0.78613-0.10498c1.3922 1.4968-0.48558 4.2639 0 0.3676zm0-1.0645c1.4291-0.2822-0.28063 1.7294 0 0zm1.3867 0c1.3947 3.1413-0.55131 5.1202 0 0.012zm1.3867 1.0645c1.3922 1.4968-0.48558 4.2639 0 0.3676zm0-1.0645c1.4291-0.2822-0.28063 1.7294 0 0zm3.1299 1.145c-2.8216-0.35432 1.7332 3.9529-1.9434 2.0899 4.3698 1.151-2.9145-2.838 1.9434-2.0898m0.86426-0.0806c1.3922 1.4968-0.48558 4.2639 0 0.3676zm0-1.0645c1.4291-0.2822-0.28063 1.7294 0 0zm1.4502 3.1787c1.5984-0.25748-0.3125 1.7484 0 0zm5.8692-2.7442c-3.7647 0.0965-0.48337 3.2333-0.54932 3.3472-3.6817 0.95253-2.7253-5.4016 0.54932-3.3472m2.3315 1.0498c-1.6251 3.4807-1.9982 0.77524-1.1499 5e-3 0.11284-0.43656 1.507-0.8863 1.1495-5e-3m1.7188 0.93994c-3.127 1.2043 1.8268 1.0515 0 0zm0.89599-0.18555c-1.1071 3.6458-1.5796-0.10807-1.2256-0.85932-3.0052 0.40905 1.8786-1.5334 1.2256 0.85945m2.6709-1.0938c-2.8216-0.35432 1.7332 3.9529-1.9434 2.0899 4.3698 1.151-2.9145-2.838 1.9434-2.0898m3.8403-1.145c-1.0629-0.11535-0.39832 4.7356-1.3111 2.8522 0.17934-1.6038-1.0965-2.4385 1.311-2.8521m1.6162 2.4243c-3.1269 1.2043 1.8267 1.0515 0 0zm0.89599-0.18555c-1.1071 3.6458-1.5796-0.10805-1.2256-0.85932-3.0052 0.40905 1.8785-1.5334 1.2256 0.85945m2.8955-1.0693c-3.4319 0.37549 2.0507 4.8228-2.1631 1.2646-0.17636-1.2354 1.2896-1.7172 2.1631-1.2647m0.78613-0.10498c1.3922 1.4968-0.48558 4.2639 0 0.3676zm0-1.0645c1.4291-0.2822-0.28063 1.7294 0 0zm1.3867 0c1.3947 3.1413-0.55131 5.1202 0 0.012zm1.3867 1.0645c1.3922 1.4968-0.48558 4.2639 0 0.3676zm0-1.0645c1.4291-0.2822-0.28063 1.7294 0 0zm3.1299 1.145c-2.8216-0.35432 1.7332 3.9529-1.9434 2.0899 4.3698 1.151-2.9145-2.838 1.9434-2.0898m0.86426-0.0806c1.3922 1.4968-0.48558 4.2639 0 0.3676zm0-1.0645c1.4291-0.2822-0.28063 1.7294 0 0zm3.1299 1.145c-2.8216-0.35432 1.7332 3.9529-1.9434 2.0899 4.3698 1.151-2.9145-2.838 1.9434-2.0898m-142.91 10.854c-1.0629-0.11535-0.39831 4.7356-1.3111 2.8522 0.17934-1.6038-1.0965-2.4385 1.311-2.8521m2.7124 2.3193c-4.2041-0.20476 2.3823 3.217-2.5342 0.13912-0.28329-1.7677 2.7356-1.9946 2.5342-0.13916m-0.44922-0.13184c-0.59315-2.1205-3.2002 0.67876 0 4.5e-4m1.1865-2.1875c1.3947 3.1413-0.5513 5.1202 0 0.012zm1.3867 1.0645c1.3922 1.4968-0.48558 4.2639 0 0.3676zm0-1.0645c1.4291-0.2822-0.28063 1.7294 0 0zm3.1299 1.145c-2.8216-0.35433 1.7332 3.9529-1.9434 2.0899 4.3698 1.151-2.9145-2.838 1.9434-2.0898m4.1992 0c-2.8216-0.35433 1.7332 3.9529-1.9434 2.0899 4.3698 1.151-2.9145-2.838 1.9434-2.0898m0.86425-0.0806c1.3922 1.4968-0.48558 4.2639 0 0.3676zm0-1.0645c1.4291-0.2822-0.28063 1.7294 0 0zm1.8311 0.28809c0.48735 0.35752 0.7773 5.6354-0.45169 2.1365 0.18137-1.0784-0.82987-1.7688 0.45166-2.1365m4.353 2.1362c-3.1269 1.2043 1.8267 1.0515 0 0zm0.89599-0.18555c-1.1072 3.6458-1.5795-0.10806-1.2256-0.85942-3.0052 0.40905 1.8785-1.5334 1.2256 0.85945m3.0566-0.64941c2.8441-1.1064 1.7514 4.586 0.83008-0.2002-1.7165 3.7234-0.11302 0.99133-2.3218 0.23438-0.52803 6.5383-1.8725-3.6114 1.4917-0.0342zm5.083 0.72998c-4.204-0.20476 2.3823 3.217-2.5342 0.13912-0.28329-1.7677 2.7356-1.9946 2.5342-0.13916m-0.44922-0.13184c-0.59315-2.1205-3.2002 0.67876 0 4.5e-4m1.6309-1.8994c0.48735 0.35752 0.7773 5.6354-0.45169 2.1365 0.18137-1.0784-0.82987-1.7688 0.45166-2.1365m3.1104-0.28809c1.3947 3.1413-0.55131 5.1202 0 0.012zm2.4463 1.3794c-3.2172 2.6754 3.1055 2.6746 0 0zm0-0.38086c5.2014 3.8261-5.017 3.4921 0 0zm3.5815 0.48584c-1.6251 3.4807-1.9982 0.77522-1.1499 5e-3 0.11284-0.43656 1.507-0.8863 1.1495-5e-3m2.7075 0.83496c-4.2041-0.20476 2.3823 3.217-2.5342 0.13912-0.28329-1.7677 2.7356-1.9946 2.5342-0.13916m-0.44921-0.13184c-0.59316-2.1205-3.2002 0.67876 0 4.5e-4m3.3154-0.59814c2.844-1.1063 1.7513 4.586 0.83007-0.2002-1.7165 3.7234-0.11303 0.99133-2.3218 0.23438-0.52806 6.5383-1.8725-3.6115 1.4917-0.0342zm2.8076 1.5894c1.5984-0.25748-0.3125 1.7484 0 0zm5.3247-2.9053c-3.5987-0.40418 2.3352 5.0052-2.3315 2.8564 5.5064 1.3554-3.6125-3.76 2.3315-2.8564m3.3081 2.0459c-4.204-0.20476 2.3823 3.217-2.5342 0.13912-0.28331-1.7677 2.7356-1.9946 2.5342-0.13916m-0.44921-0.13184c-0.59316-2.1205-3.2002 0.67876 0 4.5e-4m2.9858-0.708c0.11409-4.3309 1.8056 5.3824-1.6846 1.9946-1.0651-1.1253 0.52638-3.5367 1.6846-1.9946zm-1.5308 0.95459c1.9137 3.7629 1.5977-3.6168 0 0zm4.7656 0c1.9136 3.7629 1.5977-3.6168 0 0zm1.5308 0.95459c-4.7207-0.30766 2.2692-5.0244 0.44922 0.98926-0.32648 1.9017-0.60846-0.72623-0.44922-0.98926zm1.3281-0.66895c-0.46375-4.2686 1.8348 4.1534 1.8408-1.6553 1.7195 1.508-0.55468 4.5325-1.8408 1.6553zm3.2202-1.6553c1.3922 1.4968-0.48558 4.2639 0 0.3676zm0-1.0645c1.4291-0.2822-0.28063 1.7294 0 0zm3.1299 1.145c-2.8216-0.35432 1.7332 3.9529-1.9434 2.0899 4.3698 1.151-2.9145-2.838 1.9434-2.0898m4.7949 1.1743c-4.204-0.20477 2.3822 3.217-2.5342 0.13912-0.2833-1.7678 2.7356-1.9946 2.5342-0.13916m-0.44922-0.13184c-0.59316-2.1205-3.2002 0.67876 0 4.5e-4m1.1865-2.1875c1.3947 3.1413-0.55131 5.1202 0 0.012zm1.3867 1.0645c1.3922 1.4968-0.48558 4.2639 0 0.3676zm0-1.0645c1.4291-0.2822-0.28063 1.7294 0 0zm1.831 0.28809c0.48737 0.35751 0.77729 5.6354-0.4517 2.1365 0.18137-1.0784-0.82987-1.7688 0.45166-2.1365m1.582 2.8906c1.5984-0.25748-0.3125 1.7484 0 0zm4.6192-2.6904c-4.807 3.8279 4.6398 3.7364 0 0zm0.69091 3.2446c0.42684 2.8982-5.4053-5.4865 0.53463-3.1306 0.74045 0.89297 0.63502 2.6088-0.53467 3.1299m1.6992-1.0132c-0.46374-4.2686 1.8348 4.1534 1.8408-1.6553 1.7195 1.508-0.55468 4.5325-1.8408 1.6553zm3.2202-1.6553c1.3922 1.4968-0.48558 4.2639 0 0.3676zm0-1.0645c1.4291-0.2822-0.28063 1.7294 0 0zm3.1299 1.145c-2.8216-0.35433 1.7332 3.9529-1.9434 2.0899 4.3698 1.151-2.9145-2.838 1.9434-2.0898m1.1328 1.2891c1.9136 3.7629 1.5977-3.6168 0 0zm1.5308 0.95459c-4.7207-0.30767 2.2692-5.0244 0.44922 0.98926-0.32648 1.9017-0.60846-0.72623-0.44922-0.98926zm1.3281-0.66895c-0.46374-4.2686 1.8348 4.1534 1.8408-1.6553 1.7195 1.508-0.55468 4.5325-1.8408 1.6553zm5.5591-0.40039c-4.2041-0.20476 2.3823 3.217-2.5342 0.13912-0.28329-1.7677 2.7356-1.9946 2.5342-0.13916m-0.44922-0.13184c-0.59315-2.1205-3.2002 0.67876 0 4.5e-4m4.1626-2.1875c-1.0629-0.11535-0.39831 4.7356-1.3111 2.8522 0.17934-1.6038-1.0965-2.4385 1.311-2.8521m1.6162 2.4243c-3.1269 1.2043 1.8268 1.0515 0 0zm0.896-0.18555c-1.1072 3.6458-1.5795-0.10807-1.2256-0.85942-3.0052 0.40905 1.8785-1.5333 1.2256 0.85945m2.8955-1.0693c-3.4319 0.37549 2.0507 4.8228-2.1631 1.2646-0.17636-1.2354 1.2895-1.7172 2.1631-1.2647m0.78614-0.10498c1.3922 1.4968-0.48558 4.2639 0 0.3676zm0-1.0645c1.4291-0.2822-0.28063 1.7294 0 0zm1.3867 0c1.3947 3.1413-0.55131 5.1202 0 0.012zm1.3867 1.0645c1.3922 1.4968-0.48557 4.2639 0 0.3676zm0-1.0645c1.429-0.2822-0.28063 1.7294 0 0zm3.1299 1.145c-2.8216-0.35433 1.7332 3.9529-1.9434 2.0899 4.3698 1.151-2.9145-2.838 1.9434-2.0898m0.86426-0.0806c1.3922 1.4968-0.48557 4.2639 0 0.3676zm0-1.0645c1.429-0.2822-0.28063 1.7294 0 0zm3.1299 1.145c-2.8216-0.35433 1.7332 3.9529-1.9434 2.0899 4.3698 1.151-2.9145-2.838 1.9434-2.0898m0.979 2.0337c1.4619 0.10814-0.87928 2.3279 0 0zm3.0225-0.45899c-0.46374-4.2686 1.8348 4.1534 1.8408-1.6553 1.7195 1.508-0.55468 4.5325-1.8408 1.6553zm4.8047-1.2354c-1.6251 3.4807-1.9982 0.77523-1.1499 5e-3 0.11284-0.43656 1.507-0.8863 1.1495-5e-3m2.6611 0.66406c0.46274 4.2594-1.8333-4.1496-1.8384 1.6504-1.7285-1.5125 0.55837-4.5234 1.8384-1.6504zm2.1436 0.27588c-3.127 1.2043 1.8268 1.0515 0 0zm0.89599-0.18555c-1.1072 3.6458-1.5795-0.10807-1.2256-0.85942-3.0052 0.40905 1.8786-1.5334 1.2256 0.85945m4.2627-1.0938c-2.8216-0.35433 1.7332 3.9529-1.9434 2.0899 4.3698 1.151-2.9145-2.838 1.9434-2.0898m0.86426-0.0806c1.3922 1.4968-0.48558 4.2639 0 0.3676zm0-1.0645c1.4291-0.2822-0.28063 1.7294 0 0zm1.831 0.28809c0.48736 0.35752 0.77731 5.6354-0.45169 2.1365 0.18137-1.0784-0.82987-1.7688 0.45166-2.1365m-145.22 14.136c-3.1269 1.2043 1.8267 1.0515 0 0zm0.89599-0.18555c-1.1072 3.6458-1.5795-0.10806-1.2256-0.85942-3.0052 0.40905 1.8785-1.5334 1.2256 0.85945m3.0566-0.64941c2.8441-1.1064 1.7514 4.586 0.83008-0.2002-1.7165 3.7234-0.11302 0.99133-2.3218 0.23438-0.52803 6.5383-1.8725-3.6115 1.4917-0.0342zm5.083 0.72998c-4.2041-0.20476 2.3823 3.217-2.5342 0.13912-0.28329-1.7677 2.7356-1.9946 2.5342-0.13916m-0.44922-0.13184c-0.59315-2.1205-3.2002 0.67876 0 4.5e-4m1.6309-1.8994c0.48736 0.35752 0.77731 5.6354-0.45169 2.1365 0.18137-1.0784-0.82987-1.7688 0.45166-2.1365m3.5449 3.1006c-0.73884 4.248-0.84618-6.8351 1.9946-0.95459 0.30314 1.1289-1.4316 2.0166-1.9946 0.95459zm1.5283-0.95459c-1.9175-3.7581-1.5923 3.6178 0 0zm1.1646 0.28564c-0.46375-4.2686 1.8348 4.1534 1.8408-1.6553 1.7195 1.508-0.55468 4.5325-1.8408 1.6553zm3.2202-2.7197c1.3947 3.1413-0.55131 5.1202 0 0.012zm1.0644 1.0645c1.3254 3.3477 1.784 0.36925 2.4949 0.44322-0.94655 3.6204-1.6068 2.4493-2.4949-0.44322zm3.2812 0c1.3922 1.4968-0.48558 4.2639 0 0.3676zm0-1.0645c1.4291-0.2822-0.28063 1.7294 0 0zm3.6597 2.1484c0.46275 4.2594-1.8333-4.1496-1.8384 1.6504-1.7285-1.5125 0.55837-4.5234 1.8384-1.6504zm2.1436 0.27588c-3.1269 1.2043 1.8267 1.0515 0 0zm0.89599-0.18555c-1.1072 3.6458-1.5795-0.10806-1.2256-0.85942-3.0052 0.40905 1.8785-1.5334 1.2256 0.85945m2.5122-0.75439c-1.6251 3.4807-1.9982 0.77524-1.1499 5e-3 0.11284-0.43656 1.507-0.8863 1.1495-5e-3m4.1968 0.10498c2.8441-1.1064 1.7513 4.586 0.83007-0.2002-1.7165 3.7234-0.11303 0.99133-2.3218 0.23438-0.52806 6.5383-1.8725-3.6115 1.4917-0.0342zm3.8037-0.20996c-3.2172 2.6754 3.1055 2.6746 0 0zm0-0.38086c5.2014 3.8262-5.017 3.4921 0 0zm1.9971-0.99854c1.3947 3.1413-0.55131 5.1202 0 0.012zm1.3867 0c1.3947 3.1413-0.55131 5.1202 0 0.012zm1.3867 1.0645c1.3922 1.4968-0.48557 4.2639 0 0.3676zm0-1.0645c1.429-0.2822-0.28063 1.7294 0 0zm3.1299 1.145c-2.8216-0.35433 1.7332 3.9529-1.9434 2.0899 4.3698 1.151-2.9145-2.838 1.9434-2.0898m0.979 2.0337c1.4619 0.10814-0.87928 2.3279 0 0zm3.5034 0.20996c-0.73884 4.248-0.84618-6.8351 1.9946-0.95459 0.30314 1.1289-1.4316 2.0166-1.9946 0.95459zm1.5283-0.95459c-1.9175-3.7581-1.5923 3.6178 0 0zm1.1646 0.28564c-0.46374-4.2686 1.8348 4.1534 1.8408-1.6553 1.7195 1.508-0.55468 4.5325-1.8408 1.6553zm4.8047-1.2354c-1.6251 3.4807-1.9982 0.77524-1.1499 5e-3 0.11284-0.43656 1.507-0.8863 1.1495-5e-3m0.42969 1.2354c-0.46375-4.2686 1.8348 4.1534 1.8408-1.6553 1.7195 1.508-0.55468 4.5325-1.8408 1.6553zm4.9634-1.5747c-2.8216-0.35433 1.7332 3.9529-1.9434 2.0899 4.3698 1.1509-2.9145-2.838 1.9434-2.0898m3.6987 1.2793c-3.1269 1.2043 1.8267 1.0515 0 0zm0.89599-0.18555c-1.1072 3.6458-1.5796-0.10805-1.2256-0.85942-3.0052 0.40905 1.8785-1.5334 1.2256 0.85945m2.5122-0.75439c-1.6251 3.4807-1.9982 0.77524-1.1499 5e-3 0.11284-0.43656 1.507-0.8863 1.1495-5e-3m2.3364-0.31494c-3.4319 0.37549 2.0507 4.8228-2.1631 1.2646-0.17636-1.2354 1.2895-1.7172 2.1631-1.2647m0.73975 1.5503c-0.46374-4.2686 1.8348 4.1534 1.8408-1.6553 1.7195 1.508-0.55468 4.5325-1.8408 1.6553zm6.0547-0.29541c-3.127 1.2043 1.8268 1.0515 0 0zm0.89599-0.18555c-1.1072 3.6458-1.5795-0.10807-1.2256-0.85942-3.0052 0.40905 1.8785-1.5334 1.2256 0.85945m2.727-0.75927c0.11411-4.3309 1.8056 5.3824-1.6846 1.9946-1.0651-1.1253 0.52638-3.5367 1.6846-1.9946zm-1.5308 0.95459c1.9136 3.7629 1.5977-3.6168 0 0zm2.9053-1.3696c1.3922 1.4968-0.48558 4.2639 0 0.3676zm0-1.0645c1.4291-0.2822-0.28063 1.7294 0 0zm1.8213 3.3887c-0.73884 4.248-0.84619-6.8351 1.9946-0.95459 0.30315 1.1289-1.4316 2.0166-1.9946 0.95459zm1.5283-0.95459c-1.9175-3.7581-1.5923 3.6178 0 0zm1.2109-1.3696c1.3922 1.4968-0.48558 4.2639 0 0.3676zm0-1.0645c1.4291-0.2822-0.28063 1.7294 0 0zm3.1299 1.145c-2.8216-0.35433 1.7332 3.9529-1.9434 2.0899 4.3698 1.151-2.9145-2.838 1.9434-2.0898m2.832 0.0244c-3.432 0.37548 2.0507 4.8228-2.1631 1.2646-0.17636-1.2354 1.2896-1.7172 2.1631-1.2647m0.78613-0.10498c1.3922 1.4968-0.48558 4.2639 0 0.3676zm0-1.0645c1.4291-0.2822-0.28063 1.7294 0 0zm3.6597 2.1484c0.46275 4.2594-1.8333-4.1496-1.8384 1.6504-1.7285-1.5125 0.55837-4.5234 1.8384-1.6504zm2.7002 0.25147c-1.9087-3.6573-1.6136 3.5108 0 0zm0.44922 1.0596c-2.9969 2.9756-0.9695 0.0651-0.80566 0.21977-4.882-1.2229 2.3144-5.0707 0.80566-0.21972m2.1948-2.395c1.3254 3.3478 1.784 0.36924 2.4949 0.44322-0.94656 3.6204-1.6068 2.4493-2.4949-0.44322zm5.6201 1.2549c-4.2041-0.20476 2.3823 3.217-2.5342 0.13912-0.28329-1.7677 2.7356-1.9946 2.5342-0.13916m-0.44922-0.13184c-0.59313-2.1205-3.2002 0.67875 0 4.5e-4m1.1865-2.1875c1.3947 3.1413-0.55131 5.1202 0 0.012zm1.3867 1.0645c1.3922 1.4968-0.48558 4.2639 0 0.3676zm0-1.0645c1.4291-0.2822-0.28063 1.7294 0 0zm1.831 0.28809c0.48735 0.35752 0.7773 5.6354-0.45169 2.1365 0.18137-1.0784-0.82987-1.7688 0.45166-2.1365m1.6333 2.8906c1.4619 0.10814-0.87928 2.3279 0 0zm5.3418-1.0303c0.46275 4.2594-1.8333-4.1496-1.8384 1.6504-1.7285-1.5125 0.55837-4.5234 1.8384-1.6504zm1.9604-0.76904c-3.2172 2.6754 3.1055 2.6746 0 0zm0-0.38086c5.2014 3.8261-5.017 3.4921 0 0zm4.27 1.1499c0.46275 4.2594-1.8333-4.1496-1.8384 1.6504-1.7285-1.5125 0.55837-4.5234 1.8384-1.6504zm-130.11 11.021c-3.4319 0.37549 2.0507 4.8228-2.1631 1.2646-0.17636-1.2354 1.2895-1.7172 2.1631-1.2647m1.8457 0.20996c-3.2172 2.6754 3.1055 2.6746 0 0zm0-0.38086c5.2014 3.8261-5.017 3.4921 0 0zm4.27 1.1499c0.46275 4.2594-1.8333-4.1496-1.8384 1.6504-1.7285-1.5125 0.55837-4.5234 1.8384-1.6504zm2.7002-0.66894c0.11411-4.3309 1.8056 5.3824-1.6846 1.9946-1.0651-1.1253 0.52639-3.5367 1.6846-1.9946zm-1.5308 0.95459c1.9136 3.7629 1.5977-3.6168 0 0zm2.9053-1.3696c1.3922 1.4968-0.48558 4.2639 0 0.3676zm0-1.0645c1.4291-0.2822-0.28063 1.7294 0 0zm3.5156 1.5894c2.8441-1.1064 1.7513 4.586 0.83008-0.2002-1.7166 3.7234-0.11303 0.99134-2.3218 0.23438-0.52805 6.5383-1.8725-3.6115 1.4917-0.0342zm5.083 0.72998c-4.204-0.20476 2.3823 3.217-2.5342 0.13912-0.28329-1.7677 2.7356-1.9946 2.5342-0.13916m-0.44922-0.13184c-0.59315-2.1205-3.2002 0.67876 0 4.5e-4m3.4595-0.0391c0.46275 4.2594-1.8333-4.1496-1.8384 1.6504-1.7285-1.5125 0.55837-4.5234 1.8384-1.6504zm1.3452-1.8604c0.48736 0.35752 0.77729 5.6354-0.45169 2.1365 0.18137-1.0784-0.82987-1.7688 0.45166-2.1365m1.4722 2.4316c-0.46374-4.2686 1.8348 4.1534 1.8408-1.6553 1.7195 1.508-0.55468 4.5325-1.8408 1.6553zm5.3491-1.1304c2.844-1.1063 1.7513 4.586 0.83007-0.2002-1.7165 3.7234-0.11303 0.99133-2.3218 0.23438-0.52806 6.5383-1.8725-3.6115 1.4917-0.0342zm6.1352-0.10986c0.11411-4.3309 1.8056 5.3824-1.6846 1.9946-1.0651-1.1253 0.52638-3.5367 1.6846-1.9946zm-1.5308 0.95459c1.9136 3.7629 1.5977-3.6168 0 0zm2.9053-1.3696c1.3922 1.4968-0.48558 4.2639 0 0.3676zm0-1.0645c1.4291-0.2822-0.28063 1.7294 0 0zm2.6294 2.4243c-3.1269 1.2043 1.8267 1.0515 0 0zm0.89599-0.18555c-1.1072 3.6458-1.5796-0.10805-1.2256-0.85942-3.0052 0.40905 1.8785-1.5334 1.2256 0.85945m3.0566-0.64941c2.8441-1.1064 1.7513 4.586 0.83008-0.2002-1.7165 3.7234-0.11302 0.99133-2.3218 0.23438-0.52803 6.5383-1.8725-3.6114 1.4917-0.0342zm4.7705 1.7993c-0.73884 4.248-0.84618-6.8351 1.9946-0.95459 0.30314 1.1289-1.4316 2.0166-1.9946 0.95459zm1.5283-0.95459c-1.9175-3.7581-1.5923 3.6178 0 0zm1.1646 0.28564c-0.46374-4.2686 1.8348 4.1534 1.8408-1.6553 1.7195 1.508-0.55468 4.5325-1.8408 1.6553zm4.8047-1.2354c-1.6251 3.4807-1.9982 0.77524-1.1499 5e-3 0.11284-0.43656 1.507-0.8863 1.1495-5e-3m0.42969 1.2354c-0.46375-4.2686 1.8348 4.1534 1.8408-1.6553 1.7195 1.508-0.55468 4.5325-1.8408 1.6553zm4.9634-1.5747c-2.8216-0.35433 1.7332 3.9529-1.9434 2.0899 4.3698 1.1509-2.9145-2.838 1.9434-2.0898m4.7949 1.1743c-4.204-0.20476 2.3823 3.217-2.5342 0.13912-0.28329-1.7677 2.7356-1.9946 2.5342-0.13916m-0.44922-0.13184c-0.59316-2.1205-3.2002 0.67875 0 4.5e-4m1.1401 0.53223c-0.46374-4.2686 1.8348 4.1534 1.8408-1.6553 1.7195 1.508-0.55467 4.5325-1.8408 1.6553zm6.9409-1.1304c2.8441-1.1064 1.7514 4.586 0.83008-0.2002-1.7165 3.7234-0.11302 0.99133-2.3218 0.23438-0.52803 6.5383-1.8725-3.6114 1.4917-0.0342zm3.9868 0.83496c-3.127 1.2043 1.8268 1.0515 0 0zm0.896-0.18555c-1.1072 3.6458-1.5795-0.10807-1.2256-0.85942-3.0052 0.40905 1.8785-1.5333 1.2256 0.85945m2.6709-1.0938c-2.8216-0.35432 1.7332 3.9529-1.9434 2.0899 4.3698 1.151-2.9145-2.838 1.9434-2.0898m2.6074 0c-2.8216-0.35433 1.7332 3.9529-1.9434 2.0899 4.3698 1.151-2.9145-2.838 1.9434-2.0898m2.1069 1.2793c-3.127 1.2043 1.8268 1.0515 0 0zm0.896-0.18555c-1.1072 3.6458-1.5795-0.10807-1.2256-0.85942-3.0052 0.40905 1.8785-1.5333 1.2256 0.85945m0.99121 0.93995c1.5984-0.25749-0.3125 1.7484 0 0zm3.1396-3.0249c2.5954 2.2294 1.8385 3.5933 2.7588 0 0.90956 5.1296-1.5871 2.5871-2.2803 1.0691 0.0428 5.05-0.80752 1.9002-0.47852-1.0691zm4.9634 2.2705c-3.1269 1.2043 1.8268 1.0515 0 0zm0.896-0.18555c-1.1072 3.6458-1.5795-0.10806-1.2256-0.85942-3.0052 0.40905 1.8785-1.5333 1.2256 0.85945m3.0566-0.64941c2.8441-1.1064 1.7513 4.586 0.83008-0.2002-1.7166 3.7234-0.11303 0.99134-2.3218 0.23438-0.52805 6.5383-1.8725-3.6115 1.4917-0.0342zm6.4648 0c2.8441-1.1064 1.7514 4.586 0.83008-0.2002-1.7165 3.7234-0.11302 0.99133-2.3218 0.23438-0.52803 6.5383-1.8725-3.6115 1.4917-0.0342zm3.9868 0.83496c-3.127 1.2043 1.8268 1.0515 0 0zm0.896-0.18555c-1.1072 3.6458-1.5795-0.10807-1.2256-0.85942-3.0052 0.40905 1.8785-1.5333 1.2256 0.85945m2.6709-1.0938c-2.8216-0.35433 1.7332 3.9529-1.9434 2.0899 4.3698 1.1509-2.9145-2.838 1.9434-2.0898m2.6074 0c-2.8216-0.35433 1.7332 3.9529-1.9434 2.0899 4.3698 1.151-2.9145-2.838 1.9434-2.0898m2.1069 1.2793c-3.127 1.2043 1.8268 1.0515 0 0zm0.896-0.18555c-1.1072 3.6458-1.5795-0.10807-1.2256-0.85942-3.0052 0.40905 1.8785-1.5333 1.2256 0.85945m2.9639-1.9507c0.48737 0.35751 0.77729 5.6354-0.4517 2.1365 0.18137-1.0784-0.82987-1.7688 0.45166-2.1365m1.4722 2.4316c-0.46374-4.2686 1.8348 4.1534 1.8408-1.6553 1.7195 1.508-0.55468 4.5325-1.8408 1.6553zm4.8047-1.2354c-1.6251 3.4807-1.9982 0.77524-1.1499 5e-3 0.11284-0.43656 1.507-0.8863 1.1495-5e-3m0.91064 1.9043c-0.73884 4.248-0.84618-6.8351 1.9946-0.95459 0.30314 1.1289-1.4316 2.0166-1.9946 0.95459zm1.5283-0.95459c-1.9175-3.7581-1.5923 3.6178 0 0zm1.2109-1.3696c1.3922 1.4968-0.48558 4.2639 0 0.3676zm0-1.0645c1.4291-0.2822-0.28063 1.7294 0 0zm3.1299 1.145c-2.8216-0.35432 1.7332 3.9529-1.9434 2.0899 4.3698 1.151-2.9145-2.838 1.9434-2.0898m0.97901 2.0337c1.4618 0.10816-0.87929 2.3279 0 0zm-136.68 10.968c0.46275 4.2594-1.8333-4.1496-1.8384 1.6504-1.7285-1.5125 0.55837-4.5234 1.8384-1.6504zm1.9604-0.76904c-3.2172 2.6754 3.1055 2.6746 0 0zm0-0.38086c5.2014 3.8261-5.017 3.4921 0 0zm4.27 1.1499c0.46275 4.2594-1.8333-4.1496-1.8384 1.6504-1.7285-1.5125 0.55837-4.5234 1.8384-1.6504zm0.85449 0.57129c-0.46374-4.2686 1.8348 4.1534 1.8408-1.6553 1.7195 1.508-0.55468 4.5325-1.8408 1.6553zm5.3491-1.1304c2.8441-1.1064 1.7514 4.586 0.83008-0.2002-1.7165 3.7234-0.11302 0.99133-2.3218 0.23438-0.52803 6.5383-1.8725-3.6114 1.4917-0.0342zm4.873 0c2.8441-1.1064 1.7513 4.586 0.83008-0.2002-1.7166 3.7234-0.11303 0.99134-2.3218 0.23438-0.52805 6.5383-1.8725-3.6115 1.4917-0.0342zm3.8818 2.4634c-1.0468 3.48-1.4462-5.2122-0.6326-2.1092 0.73319 2.203 2.6542-3.3056 0.77456 1.7561l-0.14192 0.35307m5.752-1.7334c-4.204-0.20476 2.3823 3.217-2.5342 0.13912-0.28329-1.7677 2.7356-1.9946 2.5342-0.13916m-0.44922-0.13184c-0.59315-2.1205-3.2002 0.67876 0 4.5e-4m1.6309-1.8994c0.48735 0.35752 0.7773 5.6354-0.45169 2.1365 0.18137-1.0784-0.82987-1.7688 0.45166-2.1365m1.6333 2.8906c1.4619 0.10815-0.87929 2.3279 0 0zm5.0366-2.0093c-3.4319 0.37549 2.0507 4.8228-2.1631 1.2646-0.17636-1.2354 1.2895-1.7172 2.1631-1.2647m1.8457 0.20996c-3.2172 2.6754 3.1055 2.6745 0 0zm0-0.38086c5.2014 3.8261-5.017 3.4922 0 0zm4.27 1.1499c0.46274 4.2594-1.8333-4.1496-1.8384 1.6504-1.7285-1.5125 0.55837-4.5234 1.8384-1.6504zm2.644-1.0034c-2.8216-0.35433 1.7332 3.9529-1.9434 2.0899 4.3698 1.151-2.9145-2.838 1.9434-2.0898m3.2031 1.1743c-4.2041-0.20476 2.3823 3.217-2.5342 0.13912-0.28329-1.7677 2.7356-1.9946 2.5342-0.13916m-0.44922-0.13184c-0.59315-2.1205-3.2002 0.67876 0 4.5e-4m3.1543-1.0181c-3.4319 0.37549 2.0507 4.8228-2.1631 1.2646-0.17636-1.2354 1.2896-1.7172 2.1631-1.2647m1.2305-0.88135c0.48735 0.35752 0.7773 5.6354-0.45169 2.1365 0.18137-1.0784-0.82987-1.7688 0.45166-2.1365m3.8574 2.0312c-4.204-0.20476 2.3823 3.217-2.5342 0.13912-0.28329-1.7677 2.7356-1.9946 2.5342-0.13916m-0.44922-0.13184c-0.59315-2.1205-3.2002 0.67876 0 4.5e-4m1.6309-1.8994c0.48735 0.35752 0.7773 5.6354-0.45169 2.1365 0.18137-1.0784-0.82987-1.7688 0.45166-2.1365m1.4722 2.4316c-0.46374-4.2686 1.8348 4.1534 1.8408-1.6553 1.7195 1.508-0.55468 4.5325-1.8408 1.6553zm5.5591-0.40039c-4.2041-0.20476 2.3823 3.217-2.5342 0.13912-0.28329-1.7677 2.7356-1.9946 2.5342-0.13916m-0.44922-0.13184c-0.59315-2.1205-3.2002 0.67876 0 4.5e-4m2.771-0.70312c-1.6251 3.4807-1.9982 0.77524-1.1499 5e-3 0.11284-0.43656 1.507-0.8863 1.1495-5e-3m2.0679-0.41992c1.3922 1.4968-0.48558 4.2639 0 0.3676zm0-1.0645c1.4291-0.2822-0.28063 1.7294 0 0zm3.186 1.4795c0.11411-4.3309 1.8056 5.3824-1.6846 1.9946-1.0651-1.1253 0.52638-3.5367 1.6846-1.9946zm-1.5308 0.95459c1.9136 3.7629 1.5977-3.6168 0 0zm3.02 0.74463c1.4619 0.10814-0.87928 2.3279 0 0zm3.5034 0.20996c-0.73884 4.248-0.84618-6.8351 1.9946-0.95459 0.30314 1.1289-1.4316 2.0166-1.9946 0.95459zm1.5283-0.95459c-1.9175-3.7581-1.5923 3.6178 0 0zm1.2109-2.4341c1.3947 3.1413-0.55131 5.1202 0 0.012zm2.6294 2.4243c-3.1269 1.2043 1.8268 1.0515 0 0zm0.896-0.18555c-1.1072 3.6458-1.5795-0.10806-1.2256-0.85942-3.0052 0.40905 1.8785-1.5333 1.2256 0.85945m2.8955-1.0693c-3.432 0.37548 2.0507 4.8228-2.1631 1.2646-0.17636-1.2354 1.2896-1.7172 2.1631-1.2647m3.125 1.1499c-4.204-0.20476 2.3823 3.217-2.5342 0.13912-0.28329-1.7677 2.7356-1.9946 2.5342-0.13916m-0.44922-0.13184c-0.59316-2.1205-3.2002 0.67875 0 4.5e-4m2.771-0.70312c-1.6251 3.4807-1.9982 0.77522-1.1499 5e-3 0.11284-0.43656 1.507-0.8863 1.1495-5e-3m1.7188 0.93994c-3.1269 1.2043 1.8268 1.0515 0 0zm0.896-0.18555c-1.1072 3.6458-1.5795-0.10806-1.2256-0.85942-3.0052 0.40904 1.8785-1.5333 1.2256 0.85945m1.3721-1.9507c0.48735 0.35752 0.7773 5.6354-0.45169 2.1365 0.18137-1.0784-0.82987-1.7688 0.45166-2.1365m4.353 2.1362c-3.127 1.2043 1.8268 1.0515 0 0zm0.89599-0.18555c-1.1072 3.6458-1.5795-0.10807-1.2256-0.85942-3.0052 0.40905 1.8785-1.5334 1.2256 0.85945m2.8955-1.0693c-3.4319 0.37549 2.0507 4.8228-2.1631 1.2646-0.17636-1.2354 1.2895-1.7172 2.1631-1.2647m0.90088 2.0093c1.4619 0.10814-0.87928 2.3279 0 0zm4.3115-0.7544c-3.1269 1.2043 1.8268 1.0515 0 0zm0.896-0.18555c-1.1072 3.6458-1.5795-0.10806-1.2256-0.85942-3.0052 0.40904 1.8785-1.5333 1.2256 0.85945m3.2007-0.0903c0.46274 4.2594-1.8333-4.1496-1.8384 1.6504-1.7285-1.5125 0.55837-4.5234 1.8384-1.6504zm1.3452-1.8604c0.48735 0.35752 0.7773 5.6354-0.45169 2.1365 0.18137-1.0784-0.82987-1.7688 0.45166-2.1365m3.8574 2.0312c-4.204-0.20476 2.3823 3.217-2.5342 0.13912-0.28329-1.7677 2.7356-1.9946 2.5342-0.13916m-0.44922-0.13184c-0.59315-2.1205-3.2002 0.67876 0 4.5e-4m1.25 0.99122c1.5984-0.25748-0.3125 1.7484 0 0zm3.1396-3.0249c1.9702 3.2604 1.6928 0.55301 3.335 0.47335 0.14982 4.8969-0.65019 1.7811-0.64755 0.41406-1.0562 5.2258-2.8192-3.6703-2.2089 2.3971-0.96131 1.6676-0.2715-2.9327-0.47852-3.2845zm5.5396 2.2705c-3.1269 1.2043 1.8268 1.0515 0 0zm0.896-0.18555c-1.1072 3.6458-1.5795-0.10807-1.2256-0.85942-3.0052 0.40905 1.8785-1.5333 1.2256 0.85945m3.2666 0.0806c-4.204-0.20476 2.3823 3.217-2.5342 0.13912-0.28329-1.7677 2.7356-1.9946 2.5342-0.13916m-0.44922-0.13184c-0.59315-2.1205-3.2002 0.67876 0 4.5e-4m3.1543-1.0181c-3.432 0.37548 2.0507 4.8228-2.1631 1.2646-0.17636-1.2354 1.2896-1.7172 2.1631-1.2647m3.125 1.1499c-4.204-0.20476 2.3823 3.217-2.5342 0.13912-0.28329-1.7677 2.7356-1.9946 2.5342-0.13916m-0.44922-0.13184c-0.59316-2.1205-3.2002 0.67875 0 4.5e-4m3.4595-0.0391c0.46275 4.2594-1.8333-4.1496-1.8384 1.6504-1.7285-1.5125 0.55837-4.5234 1.8384-1.6504zm2.1436 0.27588c-3.1269 1.2043 1.8267 1.0515 0 0zm0.89599-0.18555c-1.1072 3.6458-1.5796-0.10805-1.2256-0.85942-3.0052 0.40905 1.8785-1.5334 1.2256 0.85945m2.6709-1.0938c-2.8216-0.35433 1.7332 3.9529-1.9434 2.0899 4.3698 1.151-2.9145-2.838 1.9434-2.0898m-145.46 12.339c-1.6251 3.4807-1.9982 0.77522-1.1499 5e-3 0.11284-0.43656 1.507-0.8863 1.1495-5e-3m2.6611 0.66406c0.46275 4.2594-1.8333-4.1496-1.8384 1.6504-0.58001-3.4018-1.8187-4.9482 1.8384-1.6504zm1.9604-0.76904c-3.2172 2.6754 3.1054 2.6746 0 0zm0-0.38086c5.2014 3.8262-5.017 3.4921 0 0zm4.27 1.1499c0.46275 4.2594-1.8333-4.1496-1.8384 1.6504-1.7285-1.5125 0.55837-4.5234 1.8384-1.6504zm2.8686-0.979c-3.432 0.37548 2.0507 4.8228-2.1631 1.2646-0.17636-1.2354 1.2896-1.7172 2.1631-1.2647m0.73974 1.5503c-0.46374-4.2686 1.8348 4.1534 1.8408-1.6553 1.7195 1.508-0.55468 4.5325-1.8408 1.6553zm4.9634-1.5747c-2.8216-0.35432 1.7332 3.9529-1.9434 2.0899 4.3698 1.151-2.9145-2.838 1.9434-2.0898m4.0405 0.33936c-1.6251 3.4807-1.9982 0.77524-1.1499 5e-3 0.11284-0.43656 1.507-0.8863 1.1495-5e-3m2.6611 0.66406c0.46274 4.2594-1.8333-4.1496-1.8384 1.6504-0.58001-3.4018-1.8187-4.9482 1.8384-1.6504zm1.9604-0.76904c-3.2172 2.6754 3.1055 2.6746 0 0zm0-0.38086c5.2014 3.8261-5.017 3.4922 0 0zm4.27 1.1499c0.46275 4.2594-1.8333-4.1496-1.8384 1.6504-1.7285-1.5125 0.55837-4.5234 1.8384-1.6504zm2.8686-0.979c-3.4319 0.37549 2.0507 4.8228-2.1631 1.2646-0.17636-1.2354 1.2895-1.7172 2.1631-1.2647m0.73975 1.5503c-0.46374-4.2686 1.8348 4.1534 1.8408-1.6553 1.7195 1.508-0.55468 4.5325-1.8408 1.6553zm4.9634-1.5747c-2.8216-0.35433 1.7332 3.9529-1.9434 2.0899 4.3698 1.151-2.9145-2.838 1.9434-2.0898m2.456-0.0806c1.3922 1.4968-0.48558 4.2639 0 0.3676zm0-1.0645c1.4291-0.2822-0.28063 1.7294 0 0zm1.8213 3.3887c-0.73884 4.248-0.84618-6.8351 1.9946-0.95459 0.30314 1.1289-1.4316 2.0166-1.9946 0.95459zm1.5283-0.95459c-1.9175-3.7581-1.5923 3.6178 0 0zm2.9541-1.2891c-2.8216-0.35433 1.7332 3.9529-1.9434 2.0899 4.3698 1.1509-2.9145-2.838 1.9434-2.0898m0.81788 1.5747c-0.46375-4.2686 1.8348 4.1534 1.8408-1.6553 1.7195 1.508-0.55468 4.5325-1.8408 1.6553zm5.3491-1.1304c2.8441-1.1064 1.7513 4.586 0.83008-0.2002-1.7166 3.7234-0.11303 0.99135-2.3218 0.23438-0.52806 6.5383-1.8725-3.6115 1.4917-0.0342zm2.8076 1.5894c1.5984-0.25748-0.3125 1.7484 0 0zm3.6328-2.6196c-0.80327 3.3867 3.4433-0.1952 0 0zm-0.49317-0.40528c4.8498-1.1948-1.1913 6.4773 0 1.7516v-1.7516zm5.271 1.9946c0.46275 4.2594-1.8333-4.1496-1.8384 1.6504-0.58001-3.4018-1.8187-4.9482 1.8384-1.6504zm2.1436 0.27588c-3.1269 1.2043 1.8268 1.0515 0 0zm0.896-0.18555c-1.1072 3.6458-1.5795-0.10806-1.2256-0.85942-3.0052 0.40905 1.8785-1.5333 1.2256 0.85945m2.6709-1.0938c-2.8216-0.35433 1.7332 3.9529-1.9434 2.0899 4.3698 1.151-2.9145-2.838 1.9434-2.0898m3.2031 1.1743c-4.2041-0.20476 2.3823 3.217-2.5342 0.13912-0.28329-1.7677 2.7356-1.9946 2.5342-0.13916m-0.44922-0.13184c-0.59315-2.1205-3.2002 0.67876 0 4.5e-4m1.1865-2.1875c1.3947 3.1413-0.55131 5.1202 0 0.012zm1.3867 0c1.3947 3.1413-0.55131 5.1202 0 0.012zm1.3403 2.7197c-0.46374-4.2686 1.8348 4.1534 1.8408-1.6553 1.7195 1.508-0.55468 4.5325-1.8408 1.6553zm4.9634-1.5747c-2.8216-0.35433 1.7332 3.9529-1.9434 2.0899 4.3698 1.151-2.9145-2.838 1.9434-2.0898m4.729 1.0034c0.46275 4.2594-1.8333-4.1496-1.8384 1.6504-0.58001-3.4018-1.8187-4.9482 1.8384-1.6504zm3.2398 0.1709c-4.204-0.20476 2.3823 3.217-2.5342 0.13912-0.28329-1.7677 2.7356-1.9946 2.5342-0.13916m-0.44922-0.13184c-0.59315-2.1205-3.2002 0.67876 0 4.5e-4m3.4595-0.0391c0.46275 4.2594-1.8333-4.1496-1.8384 1.6504-1.7285-1.5125 0.55837-4.5234 1.8384-1.6504zm2.7002-0.66894c0.11411-4.3309 1.8056 5.3824-1.6846 1.9946-1.0651-1.1253 0.52638-3.5367 1.6846-1.9946zm-1.5308 0.95459c1.9137 3.7629 1.5977-3.6168 0 0zm4.4898-0.94971c-1.6251 3.4807-1.9982 0.77523-1.1499 5e-3 0.11284-0.43656 1.507-0.8863 1.1495-5e-3m2.7075 0.83496c-4.204-0.20476 2.3823 3.217-2.5342 0.13912-0.28329-1.7677 2.7356-1.9946 2.5342-0.13916m-0.44922-0.13184c-0.59315-2.1205-3.2002 0.67876 0 4.5e-4m2.771-0.70312c-1.6251 3.4807-1.9982 0.77524-1.1499 5e-3 0.11283-0.43656 1.507-0.8863 1.1495-5e-3m0.47607-0.41992c1.3922 1.4968-0.48558 4.2639 0 0.3676zm0-1.0645c1.4291-0.2822-0.28063 1.7294 0 0zm1.8311 0.28809c0.48736 0.35752 0.77729 5.6354-0.45169 2.1365 0.18137-1.0784-0.82987-1.7688 0.45166-2.1365m1.582 2.8906c1.5984-0.25749-0.3125 1.7484 0 0zm-109.63 20.974c0.61196 3.2836 2.1763 3.4906 2.7683 0 1.0038 4.5767-3.645 4.9991-2.7683 0zm4.1431 0.13428c0.48736 0.35752 0.77729 5.6354-0.45169 2.1365 0.18137-1.0784-0.82987-1.7688 0.45166-2.1365m2.7881 0.77637c1.3254 3.3477 1.784 0.36925 2.4949 0.44322-0.94657 3.6204-1.6068 2.4493-2.4949-0.44322zm5.6201 1.2549c-4.204-0.20476 2.3823 3.217-2.5342 0.13912-0.28329-1.7677 2.7356-1.9946 2.5342-0.13916m-0.44922-0.13184c-0.59315-2.1205-3.2002 0.67876 0 4.5e-4m3.4595-0.0391c0.46274 4.2594-1.8333-4.1496-1.8384 1.6504-1.7285-1.5125 0.55837-4.5234 1.8384-1.6504zm3.2398 0.1709c-4.204-0.20476 2.3823 3.217-2.5342 0.13912-0.28329-1.7677 2.7356-1.9946 2.5342-0.13916m-0.44922-0.13184c-0.59315-2.1205-3.2002 0.67876 0 4.5e-4m3.4595-0.0391c0.46274 4.2594-1.8333-4.1496-1.8384 1.6504-1.7285-1.5125 0.55837-4.5234 1.8384-1.6504zm2.1436 0.27588c-3.127 1.2043 1.8268 1.0515 0 0zm0.89599-0.18555c-1.1072 3.6458-1.5795-0.10807-1.2256-0.85942-3.0052 0.40905 1.8786-1.5334 1.2256 0.85945m1.3721-1.9507c0.48737 0.35751 0.77729 5.6354-0.4517 2.1365 0.18137-1.0784-0.82987-1.7688 0.45166-2.1365m1.5186 0.77637c1.3922 1.4968-0.48558 4.2639 0 0.3676zm0-1.0645c1.4291-0.2822-0.28063 1.7294 0 0zm3.1299 1.145c-2.8216-0.35432 1.7332 3.9529-1.9434 2.0899 4.3698 1.151-2.9145-2.838 1.9434-2.0898m0.92774 2.0337c1.5984-0.25749-0.3125 1.7484 0 0zm3.1396-3.0249c1.5844 2.304-0.6633 5.5272 0 0.33154zm3.728 1.9946c0.46275 4.2594-1.8333-4.1496-1.8384 1.6504-1.7285-1.5125 0.55837-4.5234 1.8384-1.6504zm2.937-1.8604c0.48737 0.35751 0.77729 5.6354-0.4517 2.1365 0.18137-1.0784-0.82987-1.7688 0.45166-2.1365m3.8574 2.0312c-4.204-0.20476 2.3823 3.217-2.5342 0.13912-0.2833-1.7678 2.7356-1.9946 2.5342-0.13916m-0.44922-0.13184c-0.59316-2.1205-3.2002 0.67876 0 4.5e-4m3.3154-0.59814c2.8441-1.1064 1.7513 4.586 0.83008-0.2002-1.7166 3.7234-0.11303 0.99135-2.3218 0.23438-0.52806 6.5383-1.8725-3.6115 1.4917-0.0342zm3.1787 1.7993c-0.73884 4.248-0.84619-6.8351 1.9946-0.95459 0.30315 1.1289-1.4316 2.0166-1.9946 0.95459zm1.5283-0.95459c-1.9175-3.7581-1.5923 3.6178 0 0zm1.1646 0.28564c-0.46374-4.2686 1.8348 4.1534 1.8408-1.6553 1.7195 1.508-0.55468 4.5325-1.8408 1.6553zm4.9634-1.5747c-2.8216-0.35433 1.7332 3.9529-1.9434 2.0899 4.3698 1.151-2.9145-2.838 1.9434-2.0898m2.4097 1.5747c-0.46375-4.2686 1.8348 4.1534 1.8408-1.6553 1.7195 1.508-0.55468 4.5325-1.8408 1.6553zm4.8047-1.2354c-1.6251 3.4807-1.9982 0.77522-1.1499 5e-3 0.11284-0.43656 1.507-0.8863 1.1495-5e-3m2.6611 0.66406c0.46275 4.2594-1.8333-4.1496-1.8384 1.6504-1.7285-1.5125 0.55837-4.5234 1.8384-1.6504zm2.1436 0.27588c-3.1269 1.2043 1.8268 1.0515 0 0zm0.896-0.18591c-1.1072 3.6458-1.5795-0.10807-1.2256-0.85942-3.0052 0.40905 1.8785-1.5333 1.2256 0.85945m0.99121 0.93995c1.5984-0.25749-0.3125 1.7484 0 0zm4.3579-2.5391c-2.0483 2.7038 1.9162 2.5334 0 0zm-0.27832-0.48584c1.6672 1.5557 2.8966 4.809-0.31655 2.71-2.5133 3.8917 0.18397-2.1817 0.31655-2.71zm4.7095 2.1655c-4.204-0.20476 2.3823 3.217-2.5342 0.13912-0.28329-1.7677 2.7356-1.9946 2.5342-0.13916m-0.44922-0.13184c-0.59315-2.1205-3.2002 0.67876 0 4.5e-4m3.4595-0.0391c0.46275 4.2594-1.8333-4.1496-1.8384 1.6504-1.7285-1.5125 0.55837-4.5234 1.8384-1.6504zm3.2398 0.1709c-4.204-0.20476 2.3823 3.217-2.5342 0.13912-0.28329-1.7677 2.7356-1.9946 2.5342-0.13916m-0.44922-0.13184c-0.59315-2.1205-3.2002 0.67876 0 4.5e-4m2.4292 0.23682c-3.1269 1.2043 1.8268 1.0515 0 0zm0.896-0.18555c-1.1072 3.6458-1.5795-0.10807-1.2256-0.85942-3.0052 0.40905 1.8785-1.5333 1.2256 0.85945m3.2007-0.0903c0.46275 4.2594-1.8333-4.1496-1.8384 1.6504-1.7285-1.5125 0.55837-4.5234 1.8384-1.6504zm2.4463 0.57129c-0.46374-4.2686 1.8348 4.1534 1.8408-1.6553 1.7195 1.508-0.55468 4.5325-1.8408 1.6553zm3.2202-2.7197c1.3947 3.1413-0.55131 5.1202 0 0.012zm1.8311 0.28809c0.48735 0.35752 0.7773 5.6354-0.45169 2.1365 0.18137-1.0784-0.82987-1.7688 0.45166-2.1365m3.103 1.1963c-1.6252 3.4807-1.9982 0.77524-1.1499 5e-3 0.11284-0.43655 1.507-0.8863 1.1495-5e-3m0.47607-0.41992c1.3922 1.4968-0.48558 4.2639 0 0.3676zm0-1.0645c1.4291-0.2822-0.28063 1.7294 0 0zm3.3545 1.1694c-3.4319 0.37549 2.0507 4.8228-2.1631 1.2646-0.17636-1.2354 1.2895-1.7172 2.1631-1.2647m3.125 1.1499c-4.2041-0.20476 2.3823 3.217-2.5342 0.13912-0.28329-1.7677 2.7356-1.9946 2.5342-0.13916m-0.44922-0.13184c-0.59315-2.1205-3.2002 0.67876 0 4.5e-4m2.9297-1.0425c-2.8216-0.35432 1.7332 3.9529-1.9434 2.0899 4.3698 1.151-2.9145-2.838 1.9434-2.0898m2.9004-0.85693c0.48736 0.35752 0.77731 5.6354-0.45169 2.1365 0.18137-1.0784-0.82987-1.7688 0.45166-2.1365m1.4722 2.4316c-0.46374-4.2686 1.8348 4.1534 1.8408-1.6553 1.7195 1.508-0.55468 4.5325-1.8408 1.6553zm4.8047-1.2354c-1.6251 3.4807-1.9982 0.77524-1.1499 5e-3 0.11283-0.43656 1.507-0.8863 1.1495-5e-3m0.91064 1.9043c-0.73884 4.248-0.84618-6.8351 1.9946-0.95459 0.30314 1.1289-1.4316 2.0166-1.9946 0.95459zm1.5283-0.95459c-1.9175-3.7581-1.5923 3.6178 0 0zm1.2109-1.3696c1.3922 1.4968-0.48558 4.2639 0 0.3676zm0-1.0645c1.4291-0.2822-0.28063 1.7294 0 0zm3.1299 1.145c-2.8216-0.35432 1.7332 3.9529-1.9434 2.0899 4.3698 1.151-2.9145-2.838 1.9434-2.0898m0.92774 2.0337c1.5984-0.25749-0.3125 1.7484 0 0zm3.6328-2.6196c-0.80327 3.3867 3.4433-0.19521 0 0zm-0.49316-0.40528c4.8498-1.1948-1.1913 6.4773 0 1.7516v-1.7516zm4.4946 1.3306c-1.6251 3.4807-1.9982 0.77522-1.1499 5e-3 0.11284-0.43656 1.507-0.8863 1.1495-5e-3m1.4282-0.10498c-3.2172 2.6754 3.1055 2.6746 0 0zm0-0.38086c5.2014 3.8262-5.017 3.4921 0 0zm1.9971 0.0659c1.3922 1.4968-0.48558 4.2639 0 0.3676zm0-1.0645c1.4291-0.2822-0.28063 1.7294 0 0zm3.6597 2.1484c0.46275 4.2594-1.8333-4.1496-1.8384 1.6504-1.7285-1.5125 0.55837-4.5234 1.8384-1.6504zm-143.99 11.33c0.11411-4.3309 1.8056 5.3824-1.6846 1.9946-1.0651-1.1253 0.52638-3.5367 1.6846-1.9946zm-1.5308 0.95459c1.9136 3.7629 1.5977-3.6168 0 0zm3.9648-1.0547c-3.2172 2.6754 3.1055 2.6746 0 0zm0-0.38086c5.2014 3.8261-5.017 3.4921 0 0zm1.9971-0.99854c1.3947 3.1413-0.55131 5.1202 0 0.012zm2.4463 1.3794c-3.2172 2.6754 3.1055 2.6746 0 0zm0-0.38086c5.2014 3.8261-5.017 3.4921 0 0zm3.5815 0.48584c-1.6251 3.4807-1.9982 0.77523-1.1499 5e-3 0.11284-0.43656 1.507-0.8863 1.1495-5e-3m3.811-0.33936c-2.8216-0.35433 1.7332 3.9529-1.9434 2.0899 4.3698 1.151-2.9145-2.838 1.9434-2.0898m2.1069 1.2793c-3.1269 1.2043 1.8268 1.0515 0 0zm0.896-0.18555c-1.1072 3.6458-1.5795-0.10807-1.2256-0.85942-3.0052 0.40905 1.8785-1.5333 1.2256 0.85945m1.3623 1.1499c-0.73884 4.248-0.84618-6.8351 1.9946-0.95459 0.30314 1.1289-1.4316 2.0166-1.9946 0.95459zm1.5283-0.95459c-1.9175-3.7581-1.5923 3.6178 0 0zm1.2109-1.3696c1.3922 1.4968-0.48558 4.2639 0 0.3676zm0-1.0645c1.4291-0.2822-0.28063 1.7294 0 0zm3.7256 2.3193c-4.204-0.20477 2.3822 3.217-2.5342 0.13912-0.2833-1.7678 2.7356-1.9946 2.5342-0.13916m-0.44922-0.13184c-0.59316-2.1205-3.2002 0.67876 0 4.5e-4m3.4595-0.0391c0.46275 4.2594-1.8333-4.1496-1.8384 1.6504-1.7285-1.5125 0.55837-4.5234 1.8384-1.6504zm1.0156 1.0303c1.4619 0.10814-0.87928 2.3279 0 0zm4.3115-0.7544c-3.127 1.2043 1.8268 1.0515 0 0zm0.89599-0.18555c-1.1072 3.6458-1.5795-0.10807-1.2256-0.85942-3.0052 0.40905 1.8785-1.5334 1.2256 0.85945m2.727-0.75927c0.11411-4.3309 1.8056 5.3824-1.6846 1.9946-1.0651-1.1253 0.52638-3.5367 1.6846-1.9946zm-1.5308 0.95459c1.9136 3.7629 1.5977-3.6168 0 0zm2.9053-1.3696c1.3922 1.4968-0.48558 4.2639 0 0.3676zm0-1.0645c1.4291-0.2822-0.28063 1.7294 0 0zm1.8213 3.3887c-0.73884 4.248-0.84619-6.8351 1.9946-0.95459 0.30315 1.1289-1.4316 2.0166-1.9946 0.95459zm1.5283-0.95459c-1.9175-3.7581-1.5923 3.6178 0 0zm1.2109-1.3696c1.3922 1.4968-0.48558 4.2639 0 0.3676zm0-1.0645c1.4291-0.2822-0.28063 1.7294 0 0zm3.1299 1.145c-2.8216-0.35433 1.7332 3.9529-1.9434 2.0899 4.3698 1.151-2.9145-2.838 1.9434-2.0898m2.832 0.0244c-3.432 0.37548 2.0507 4.8228-2.1631 1.2646-0.17636-1.2354 1.2896-1.7172 2.1631-1.2647m0.78613-0.10498c1.3922 1.4968-0.48558 4.2639 0 0.3676zm0-1.0645c1.4291-0.2822-0.28063 1.7294 0 0zm3.6597 2.1484c0.46275 4.2594-1.8333-4.1496-1.8384 1.6504-1.7285-1.5125 0.55837-4.5234 1.8384-1.6504zm2.7002 0.25147c-1.9087-3.6573-1.6136 3.5108 0 0zm0.44922 1.0596c-2.9969 2.9756-0.9695 0.0651-0.80566 0.21977-4.882-1.2229 2.3144-5.0707 0.80566-0.21972m2.5171-2.395c1.3922 1.4968-0.48558 4.2639 0 0.3676zm0-1.0645c1.4291-0.2822-0.28063 1.7294 0 0zm3.186 1.4795c0.11411-4.3309 1.8056 5.3824-1.6846 1.9946-1.0651-1.1253 0.52638-3.5367 1.6846-1.9946zm-1.5308 0.95459c1.9136 3.7629 1.5977-3.6168 0 0zm3.02 0.74463c1.4619 0.10814-0.87928 2.3279 0 0zm4.812-2.0337c-2.8216-0.35433 1.7332 3.9529-1.9434 2.0899 4.3698 1.151-2.9145-2.838 1.9434-2.0898m2.1069 1.2793c-3.127 1.2043 1.8268 1.0515 0 0zm0.896-0.18555c-1.1072 3.6458-1.5795-0.10807-1.2256-0.85942-3.0052 0.40905 1.8785-1.5333 1.2256 0.85945m2.727 0.16114c-1.9087-3.6573-1.6136 3.5108 0 0zm0.44922 1.0596c-2.997 2.9756-0.96949 0.0651-0.80567 0.21977-4.882-1.2229 2.3144-5.0707 0.80567-0.21972m0.92529-2.395c1.3922 1.4968-0.48558 4.2639 0 0.3676zm0-1.0645c1.4291-0.2822-0.28063 1.7294 0 0zm1.831 0.28809c0.48737 0.35751 0.77729 5.6354-0.4517 2.1365 0.18137-1.0784-0.82987-1.7688 0.45166-2.1365m1.9629 0c0.48737 0.35751 0.77729 5.6354-0.4517 2.1365 0.18137-1.0784-0.82987-1.7688 0.45166-2.1365m1.5186 0.77637c1.3922 1.4968-0.48558 4.2639 0 0.3676zm0-1.0645c1.4291-0.2822-0.28063 1.7294 0 0zm3.1299 1.145c-2.8216-0.35432 1.7332 3.9529-1.9434 2.0899 4.3698 1.151-2.9145-2.838 1.9434-2.0898m4.7949 1.1743c-4.2041-0.20476 2.3823 3.217-2.5342 0.13912-0.28329-1.7677 2.7356-1.9946 2.5342-0.13916m-0.44922-0.13184c-0.59313-2.1205-3.2002 0.67875 0 4.5e-4m1.1401 0.53223c-0.46374-4.2686 1.8348 4.1534 1.8408-1.6553 1.7195 1.508-0.55468 4.5325-1.8408 1.6553zm3.335 0.45899c1.4619 0.10814-0.87928 2.3279 0 0zm5.1978-1.5894c2.8441-1.1064 1.7513 4.586 0.83007-0.2002-1.7165 3.7234-0.11303 0.99133-2.3218 0.23438-0.52806 6.5383-1.8725-3.6115 1.4917-0.0342zm3.8037-0.20996c-3.2172 2.6754 3.1055 2.6746 0 0zm0-0.38086c5.2014 3.8262-5.017 3.4921 0 0zm1.9971-0.99854c1.3947 3.1413-0.55131 5.1202 0 0.012zm3.7256 2.3193c-4.2041-0.20476 2.3823 3.217-2.5342 0.13912-0.28329-1.7677 2.7356-1.9946 2.5342-0.13916m-0.44922-0.13184c-0.59313-2.1205-3.2002 0.67875 0 4.5e-4m2.9297-1.0425c-2.8216-0.35432 1.7332 3.9529-1.9434 2.0899 4.3698 1.151-2.9145-2.838 1.9434-2.0898m1.3086-0.85693c0.48736 0.35752 0.77729 5.6354-0.45169 2.1365 0.18137-1.0784-0.82987-1.7688 0.45166-2.1365m1.5186 0.77637c1.3922 1.4968-0.48558 4.2639 0 0.3676zm0-1.0645c1.4291-0.2822-0.28063 1.7294 0 0zm3.7256 2.3193c-4.204-0.20476 2.3823 3.217-2.5342 0.13912-0.28329-1.7677 2.7356-1.9946 2.5342-0.13916m-0.44922-0.13184c-0.59316-2.1205-3.2002 0.67875 0 4.5e-4m2.456-1.123c1.3254 3.3477 1.784 0.36925 2.4949 0.44322-0.94657 3.6204-1.6068 2.4493-2.4949-0.44322zm3.2812 0c1.3922 1.4968-0.48558 4.2639 0 0.3676zm0-1.0645c1.4291-0.2822-0.28063 1.7294 0 0zm1.0645 1.0645c1.3254 3.3478 1.784 0.36924 2.4949 0.44322-0.94656 3.6204-1.6068 2.4493-2.4949-0.44322zm5.6201 1.2549c-4.2041-0.20476 2.3823 3.217-2.5342 0.13912-0.28329-1.7677 2.7356-1.9946 2.5342-0.13916m-0.44922-0.13184c-0.59315-2.1205-3.2002 0.67876 0 4.5e-4m2.771-0.70312c-1.6251 3.4807-1.9982 0.77524-1.1499 5e-3 0.11284-0.43656 1.507-0.8863 1.1495-5e-3m1.9727 0c-1.6252 3.4807-1.9982 0.77524-1.1499 5e-3 0.11284-0.43655 1.507-0.8863 1.1495-5e-3m1.7188 0.93994c-3.1269 1.2043 1.8267 1.0515 0 0zm0.89599-0.18555c-1.1072 3.6458-1.5795-0.10806-1.2256-0.85942-3.0052 0.40905 1.8785-1.5334 1.2256 0.85945m1.0425 0.93995c1.4619 0.10814-0.87928 2.3279 0 0zm-136.26 10.399c2.8441-1.1064 1.7513 4.586 0.83008-0.2002-1.7166 3.7234-0.11303 0.99135-2.3218 0.23438-0.52806 6.5383-1.8725-3.6115 1.4917-0.0342zm3.9868 0.83496c-3.1269 1.2043 1.8268 1.0515 0 0zm0.896-0.18555c-1.1072 3.6458-1.5795-0.10806-1.2256-0.85942-3.0052 0.40904 1.8785-1.5333 1.2256 0.85945m0.88135 0.48096c-0.46374-4.2686 1.8348 4.1534 1.8408-1.6553 1.7195 1.508-0.55468 4.5325-1.8408 1.6553zm4.8047-1.2354c-1.6252 3.4807-1.9982 0.77524-1.1499 5e-3 0.11284-0.43655 1.507-0.8863 1.1495-5e-3m0.47607-0.41992c1.3922 1.4968-0.48558 4.2639 0 0.3676zm0-1.0645c1.4291-0.2822-0.28063 1.7294 0 0zm3.1299 1.145c-2.8216-0.35432 1.7332 3.9529-1.9434 2.0899 4.3698 1.151-2.9145-2.838 1.9434-2.0898m0.92774 2.0337c1.5984-0.25749-0.3125 1.7484 0 0zm5.3247-2.9053c-3.5986-0.40417 2.3352 5.0052-2.3315 2.8564 5.5064 1.3554-3.6125-3.76 2.3315-2.8564m0.92286 2.4463c-0.46375-4.2686 1.8348 4.1534 1.8408-1.6553 1.7195 1.508-0.55468 4.5325-1.8408 1.6553zm4.9634-1.5747c-2.8216-0.35432 1.7332 3.9529-1.9434 2.0899 4.3698 1.151-2.9145-2.838 1.9434-2.0898m1.2988 2.2437c-0.73884 4.248-0.84618-6.8351 1.9946-0.95459 0.30314 1.1289-1.4316 2.0166-1.9946 0.95459zm1.5283-0.95459c-1.9175-3.7581-1.5923 3.6178 0 0zm3.5498-0.11475c-4.204-0.20476 2.3823 3.217-2.5342 0.13912-0.28329-1.7677 2.7356-1.9946 2.5342-0.13916m-0.44922-0.13184c-0.59315-2.1205-3.2002 0.67876 0 4.5e-4m3.4595-0.0391c0.46275 4.2594-1.8333-4.1496-1.8384 1.6504-1.7285-1.5125 0.55837-4.5234 1.8384-1.6504zm2.7002-0.66894c0.11411-4.3309 1.8056 5.3824-1.6846 1.9946-1.0651-1.1253 0.52638-3.5367 1.6846-1.9946zm-1.5308 0.95459c1.9137 3.7629 1.5977-3.6168 0 0zm2.9053-1.3696c1.3922 1.4968-0.48558 4.2639 0 0.3676zm0-1.0645c1.4291-0.2822-0.28063 1.7294 0 0zm3.1299 1.145c-2.8216-0.35432 1.7332 3.9529-1.9434 2.0899 4.3698 1.151-2.9145-2.838 1.9434-2.0898m2.6074 0c-2.8216-0.35432 1.7332 3.9529-1.9434 2.0899 4.3698 1.151-2.9145-2.838 1.9434-2.0898m3.2031 1.1743c-4.204-0.20476 2.3823 3.217-2.5342 0.13912-0.28329-1.7677 2.7356-1.9946 2.5342-0.13916m-0.44922-0.13184c-0.59315-2.1205-3.2002 0.67876 0 4.5e-4m3.2129 1.2012c-0.73884 4.248-0.84618-6.8351 1.9946-0.95459 0.30314 1.1289-1.4316 2.0166-1.9946 0.95459zm1.5283-0.95459c-1.9175-3.7581-1.5923 3.6178 0 0zm2.2705-1.0547c-3.2172 2.6754 3.1055 2.6746 0 0zm0-0.38086c5.2014 3.8261-5.017 3.4921 0 0zm2.4414-0.71045c0.48737 0.35751 0.77729 5.6354-0.4517 2.1365 0.18137-1.0784-0.82987-1.7688 0.45166-2.1365m3.8574 2.0312c-4.204-0.20476 2.3823 3.217-2.5342 0.13912-0.2833-1.7678 2.7356-1.9946 2.5342-0.13916m-0.44922-0.13184c-0.59316-2.1205-3.2002 0.67876 0 4.5e-4m3.4595-0.0391c0.46275 4.2594-1.8333-4.1496-1.8384 1.6504-1.7285-1.5125 0.55837-4.5234 1.8384-1.6504zm1.3452-1.8604c0.48737 0.35751 0.77729 5.6354-0.4517 2.1365 0.18137-1.0784-0.82987-1.7688 0.45166-2.1365m1.5186 0.77637c1.3922 1.4968-0.48558 4.2639 0 0.3676zm0-1.0645c1.4291-0.2822-0.28063 1.7294 0 0zm1.4502 3.1787c1.5984-0.25748-0.3125 1.7484 0 0zm3.1396-3.0249c2.5954 2.2294 1.8385 3.5933 2.7588 0 0.90956 5.1296-1.5871 2.5871-2.2803 1.0691 0.0428 5.05-0.80752 1.9002-0.47852-1.0691zm3.6743 2.5659c-0.46374-4.2686 1.8348 4.1534 1.8408-1.6553 1.7195 1.508-0.55468 4.5325-1.8408 1.6553zm5.4932-0.57129c0.46274 4.2594-1.8333-4.1496-1.8384 1.6504-1.7285-1.5125 0.55837-4.5234 1.8384-1.6504zm2.8687-0.979c-3.432 0.37548 2.0507 4.8228-2.1631 1.2646-0.17636-1.2354 1.2896-1.7172 2.1631-1.2647m4.5068 0.41992c2.8441-1.1064 1.7513 4.586 0.83008-0.2002-1.7165 3.7234-0.11302 0.99133-2.3218 0.23438-0.52803 6.5383-1.8725-3.6114 1.4917-0.0342zm5.083 0.72998c-4.204-0.20476 2.3823 3.217-2.5342 0.13912-0.28329-1.7677 2.7356-1.9946 2.5342-0.13916m-0.44922-0.13184c-0.59315-2.1205-3.2002 0.67876 0 4.5e-4m1.6309-1.8994c0.48735 0.35752 0.7773 5.6354-0.45169 2.1365 0.18137-1.0784-0.82987-1.7688 0.45166-2.1365m1.4722 2.4316c-0.46374-4.2686 1.8348 4.1534 1.8408-1.6553 1.7195 1.508-0.55468 4.5325-1.8408 1.6553zm4.9634-1.5747c-2.8216-0.35433 1.7332 3.9529-1.9434 2.0899 4.3698 1.151-2.9145-2.838 1.9434-2.0898m0.92773 2.0337c1.5984-0.25748-0.3125 1.7484 0 0zm4.3579-2.5391c-2.0482 2.7038 1.9162 2.5334 0 0zm-0.27832-0.48584c1.6672 1.5557 2.8966 4.809-0.31654 2.71-2.5133 3.8918 0.18397-2.1817 0.31654-2.71zm4.7095 2.1655c-4.2041-0.20476 2.3823 3.217-2.5342 0.13912-0.28329-1.7677 2.7356-1.9946 2.5342-0.13916m-0.44921-0.13184c-0.59316-2.1205-3.2002 0.67876 0 4.5e-4m3.4595-0.0391c0.46275 4.2594-1.8333-4.1496-1.8384 1.6504-1.7285-1.5125 0.55837-4.5234 1.8384-1.6504zm3.2397 0.1709c-4.2041-0.20476 2.3823 3.217-2.5342 0.13912-0.28329-1.7677 2.7356-1.9946 2.5342-0.13916m-0.44921-0.13184c-0.59316-2.1205-3.2002 0.67876 0 4.5e-4m2.4292 0.23682c-3.1269 1.2043 1.8268 1.0515 0 0zm0.896-0.18555c-1.1072 3.6458-1.5795-0.10806-1.2256-0.85942-3.0052 0.40904 1.8785-1.5333 1.2256 0.85945m3.2007-0.0903c0.46275 4.2594-1.8333-4.1496-1.8384 1.6504-1.7285-1.5125 0.55837-4.5234 1.8384-1.6504zm-123.71 10.996c-2.8216-0.35433 1.7332 3.9529-1.9434 2.0899 4.3698 1.151-2.9145-2.838 1.9434-2.0898m2.832 0.0244c-3.432 0.37548 2.0507 4.8228-2.1631 1.2646-0.17636-1.2354 1.2896-1.7172 2.1631-1.2647m3.125 1.1499c-4.204-0.20476 2.3823 3.217-2.5342 0.13912-0.28329-1.7677 2.7356-1.9946 2.5342-0.13916m-0.44922-0.13184c-0.59316-2.1205-3.2002 0.67875 0 4.5e-4m1.1865-2.1875c1.3947 3.1413-0.55131 5.1202 0 0.012zm3.7256 2.3193c-4.204-0.20476 2.3823 3.217-2.5342 0.13912-0.28329-1.7677 2.7356-1.9946 2.5342-0.13916m-0.44922-0.13184c-0.59315-2.1205-3.2002 0.67876 0 4.5e-4m2.771-0.70312c-1.6251 3.4807-1.9982 0.77522-1.1499 5e-3 0.11284-0.43656 1.507-0.8863 1.1495-5e-3m0.47608-0.41992c1.3922 1.4968-0.48558 4.2639 0 0.3676zm0-1.0645c1.4291-0.2822-0.28063 1.7294 0 0zm3.1299 1.145c-2.8216-0.35432 1.7332 3.9529-1.9434 2.0899 4.3698 1.151-2.9145-2.838 1.9434-2.0898m1.1328 1.2891c1.9137 3.7629 1.5977-3.6168 0 0zm1.5308 0.95459c-4.7207-0.30766 2.2692-5.0244 0.44921 0.98926-0.32647 1.9017-0.60845-0.72624-0.44921-0.98926zm1.3281-0.66895c-0.46374-4.2686 1.8348 4.1534 1.8408-1.6553 1.7195 1.508-0.55468 4.5325-1.8408 1.6553zm5.5591-0.40039c-4.2041-0.20476 2.3823 3.217-2.5342 0.13912-0.28329-1.7677 2.7356-1.9946 2.5342-0.13916m-0.44922-0.13184c-0.59315-2.1205-3.2002 0.67876 0 4.5e-4m4.9072-0.59814c2.8441-1.1064 1.7513 4.586 0.83008-0.2002-1.7166 3.7234-0.11303 0.99134-2.3218 0.23438-0.52805 6.5383-1.8725-3.6115 1.4917-0.0342zm5.083 0.72998c-4.204-0.20476 2.3823 3.217-2.5342 0.13912-0.28329-1.7677 2.7356-1.9946 2.5342-0.13916m-0.44922-0.13184c-0.59315-2.1205-3.2002 0.67876 0 4.5e-4m1.6309-1.8994c0.48735 0.35752 0.7773 5.6354-0.45169 2.1365 0.18137-1.0784-0.82987-1.7688 0.45166-2.1365m1.4722 2.4316c-0.46374-4.2686 1.8348 4.1534 1.8408-1.6553 1.7195 1.508-0.55468 4.5325-1.8408 1.6553zm4.9634-1.5747c-2.8216-0.35433 1.7332 3.9529-1.9434 2.0899 4.3698 1.151-2.9145-2.838 1.9434-2.0898m4.7949 1.1743c-4.204-0.20476 2.3823 3.217-2.5342 0.13912-0.28329-1.7677 2.7356-1.9946 2.5342-0.13916m-0.44922-0.13184c-0.59315-2.1205-3.2002 0.67876 0 4.5e-4m2.9858 0.21241c-1.9087-3.6573-1.6136 3.5108 0 0zm0.44922 1.0596c-2.997 2.9756-0.96949 0.0651-0.80567 0.21977-4.882-1.2229 2.3144-5.0707 0.80567-0.21972m3.2642-1.1401c-4.204-0.20476 2.3823 3.217-2.5342 0.13912-0.28329-1.7677 2.7356-1.9946 2.5342-0.13916m-0.44922-0.13184c-0.59315-2.1205-3.2002 0.67876 0 4.5e-4m1.6309-1.8994c0.48735 0.35752 0.7773 5.6354-0.45169 2.1365 0.18137-1.0784-0.82987-1.7688 0.45166-2.1365m4.8535 0.85693c-2.8216-0.35432 1.7332 3.9529-1.9434 2.0899 4.3698 1.151-2.9145-2.838 1.9434-2.0898m3.2031 1.1743c-4.204-0.20476 2.3823 3.217-2.5342 0.13912-0.28329-1.7677 2.7356-1.9946 2.5342-0.13916m-0.44922-0.13184c-0.59315-2.1205-3.2002 0.67876 0 4.5e-4m3.3154-0.59814c2.8441-1.1064 1.7513 4.586 0.83008-0.2002-1.7166 3.7234-0.11303 0.99134-2.3218 0.23438-0.52805 6.5383-1.8725-3.6115 1.4917-0.0342zm2.8076 1.5894c1.5984-0.25749-0.3125 1.7484 0 0zm5.8691-2.7442c-3.7647 0.0965-0.48336 3.2333-0.54932 3.3472-3.6817 0.95253-2.7253-5.4016 0.54932-3.3472m2.3315 1.0498c-1.6251 3.4807-1.9982 0.77523-1.1499 5e-3 0.11284-0.43656 1.507-0.8863 1.1495-5e-3m1.7188 0.93994c-3.1269 1.2043 1.8268 1.0515 0 0zm0.896-0.18555c-1.1072 3.6458-1.5795-0.10807-1.2256-0.85942-3.0052 0.40905 1.8785-1.5333 1.2256 0.85945m2.6709-1.0938c-2.8216-0.35433 1.7332 3.9529-1.9434 2.0899 4.3698 1.151-2.9145-2.838 1.9434-2.0898m4.2554 1.2549c-1.9087-3.6573-1.6136 3.5108 0 0zm0.44922 1.0596c-2.997 2.9756-0.96949 0.0651-0.80567 0.21977-4.882-1.2229 2.3144-5.0707 0.80567-0.21972m2.5098-1.9751c-1.6251 3.4807-1.9982 0.77523-1.1499 5e-3 0.11284-0.43656 1.507-0.8863 1.1495-5e-3m1.7188 0.93994c-3.1269 1.2043 1.8268 1.0515 0 0zm0.896-0.18555c-1.1072 3.6458-1.5795-0.10807-1.2256-0.85942-3.0052 0.40905 1.8785-1.5333 1.2256 0.85945m0.60547-1.1743c1.3254 3.3478 1.784 0.36924 2.4949 0.44322-0.94656 3.6204-1.6068 2.4493-2.4949-0.44322zm3.2812 0c1.3922 1.4968-0.48557 4.2639 0 0.3676zm0-1.0645c1.429-0.2822-0.28063 1.7294 0 0zm3.186 1.4795c0.11411-4.3309 1.8056 5.3824-1.6846 1.9946-1.0651-1.1253 0.52638-3.5366 1.6846-1.9946zm-1.5308 0.95459c1.9136 3.7629 1.5977-3.6168 0 0zm4.148-0.01c-3.127 1.2043 1.8268 1.0515 0 0zm0.89599-0.18555c-1.1072 3.6458-1.5795-0.10807-1.2256-0.85942-3.0052 0.40905 1.8786-1.5334 1.2256 0.85945m0.99122 0.93995c1.5984-0.25749-0.3125 1.7484 0 0zm3.6328-2.6196c-1.452 6.2361 5.3305 0.47988 0 0zm-0.49317-0.40528c6.7364-0.84593-0.78518 7.5754 0 1.2782v-1.2782zm4.8877 1.2256c-3.2172 2.6754 3.1055 2.6746 0 0zm0-0.38086c5.2014 3.8261-5.017 3.4921 0 0zm4.27 1.1499c0.46275 4.2594-1.8333-4.1496-1.8384 1.6504-1.7285-1.5125 0.55837-4.5234 1.8384-1.6504zm3.2397 0.1709c-4.204-0.20476 2.3823 3.217-2.5342 0.13912-0.28331-1.7677 2.7356-1.9946 2.5342-0.13916m-0.44921-0.13184c-0.59316-2.1205-3.2002 0.67876 0 4.5e-4m3.1543-1.0181c-3.4319 0.37549 2.0507 4.8228-2.1631 1.2646-0.17636-1.2354 1.2895-1.7172 2.1631-1.2647m4.1211-0.0244c-2.8216-0.35433 1.7332 3.9529-1.9434 2.0899 4.3698 1.151-2.9145-2.838 1.9434-2.0898m0.86425-0.0806c1.3922 1.4968-0.48558 4.2639 0 0.3676zm0-1.0645c1.4291-0.2822-0.28063 1.7294 0 0zm1.8311 0.28809c0.48735 0.35752 0.7773 5.6354-0.45169 2.1365 0.18137-1.0784-0.82987-1.7688 0.45166-2.1365m4.353 2.1362c-3.1269 1.2043 1.8267 1.0515 0 0zm0.89599-0.18555c-1.1072 3.6458-1.5795-0.10806-1.2256-0.85942-3.0052 0.40905 1.8785-1.5334 1.2256 0.85945m3.0566-0.64941c2.8441-1.1064 1.7514 4.586 0.83008-0.2002-1.7165 3.7234-0.11302 0.99133-2.3218 0.23438-0.52803 6.5383-1.8725-3.6114 1.4917-0.0342zm5.083 0.72998c-4.2041-0.20476 2.3823 3.217-2.5342 0.13912-0.28329-1.7677 2.7356-1.9946 2.5342-0.13916m-0.44922-0.13184c-0.59315-2.1205-3.2002 0.67876 0 4.5e-4m1.6309-1.8994c0.48735 0.35752 0.7773 5.6354-0.45169 2.1365 0.18137-1.0784-0.82987-1.7688 0.45166-2.1365m-142.94 14.03c-4.204-0.20476 2.3823 3.217-2.5342 0.13912-0.28329-1.7677 2.7356-1.9946 2.5342-0.13916m-0.44922-0.13184c-0.59315-2.1205-3.2002 0.67876 0 4.5e-4m3.4595-0.0391c0.46275 4.2594-1.8333-4.1496-1.8384 1.6504-1.7285-1.5125 0.55837-4.5234 1.8384-1.6504zm0.90088-1.084c1.3922 1.4968-0.48558 4.2639 0 0.3676zm0-1.0645c1.4291-0.2822-0.28063 1.7294 0 0zm3.5156 1.5894c2.8441-1.1064 1.7513 4.586 0.83007-0.2002-1.7165 3.7234-0.11303 0.99133-2.3218 0.23438-0.52806 6.5383-1.8725-3.6115 1.4917-0.0342zm2.8076 1.5894c1.5984-0.25748-0.3125 1.7484 0 0zm3.1396-3.0249c1.5845 2.304-0.66331 5.5272 0 0.33154zm3.728 1.9946c0.46275 4.2594-1.8333-4.1496-1.8384 1.6504-1.7285-1.5125 0.55837-4.5234 1.8384-1.6504zm4.7656 0c0.46275 4.2594-1.8333-4.1496-1.8384 1.6504-0.58001-3.4018-1.8187-4.9482 1.8384-1.6504zm2.1436 0.27588c-3.127 1.2043 1.8268 1.0515 0 0zm0.896-0.18555c-1.1072 3.6458-1.5795-0.10807-1.2256-0.85942-3.0052 0.40905 1.8785-1.5333 1.2256 0.85945m2.8955-1.0693c-3.4319 0.37549 2.0507 4.8228-2.1631 1.2646-0.17636-1.2354 1.2895-1.7172 2.1631-1.2647m4.6509 0.979c0.46275 4.2594-1.8333-4.1496-1.8384 1.6504-0.58001-3.4018-1.8187-4.9482 1.8384-1.6504zm2.1436 0.27588c-3.1269 1.2043 1.8267 1.0515 0 0zm0.89599-0.18555c-1.1072 3.6458-1.5795-0.10806-1.2256-0.85942-3.0052 0.40905 1.8785-1.5334 1.2256 0.85945m2.8906 0.19532c-1.9175-3.7581-1.5923 3.6178 0 0zm-1.5283-0.95459c4.72 0.317-2.2725 5.0147-0.45166-0.99415 0.10485-1.6751 0.75187 0.50221 0.45166 0.99415zm2.7393-0.41504c1.3922 1.4968-0.48557 4.2639 0 0.3676zm0-1.0645c1.429-0.2822-0.28063 1.7294 0 0zm1.831 0.28809c0.48735 0.35752 0.7773 5.6354-0.45169 2.1365 0.18137-1.0784-0.82987-1.7688 0.45166-2.1365m2.7612 2.1362c-3.127 1.2043 1.8268 1.0515 0 0zm0.896-0.18555c-1.1072 3.6458-1.5795-0.10807-1.2256-0.85942-3.0052 0.40905 1.8785-1.5333 1.2256 0.85945m2.6709-1.0938c-2.8216-0.35433 1.7332 3.9529-1.9434 2.0899 4.3698 1.1509-2.9145-2.838 1.9434-2.0898m2.6074 0c-2.8216-0.35433 1.7332 3.9529-1.9434 2.0899 4.3698 1.151-2.9145-2.838 1.9434-2.0898m3.2031 1.1743c-4.2041-0.20476 2.3823 3.217-2.5342 0.13912-0.28329-1.7677 2.7356-1.9946 2.5342-0.13916m-0.44922-0.13184c-0.59315-2.1205-3.2002 0.67876 0 4.5e-4m3.2129 1.2012c-0.73884 4.248-0.84618-6.8351 1.9946-0.95459 0.30314 1.1289-1.4316 2.0166-1.9946 0.95459zm1.5283-0.95459c-1.9175-3.7581-1.5923 3.6178 0 0zm1.2109-2.4341c1.3947 3.1413-0.55131 5.1202 0 0.012zm2.6294 2.4243c-3.1269 1.2043 1.8267 1.0515 0 0zm0.89599-0.18555c-1.1072 3.6458-1.5795-0.10806-1.2256-0.85942-3.0052 0.40905 1.8785-1.5334 1.2256 0.85945m1.3721-1.9507c0.48736 0.35752 0.77731 5.6354-0.45169 2.1365 0.18137-1.0784-0.82987-1.7688 0.45166-2.1365m3.8574 2.0312c-4.2041-0.20476 2.3823 3.217-2.5342 0.13912-0.28329-1.7677 2.7356-1.9946 2.5342-0.13916m-0.44921-0.13184c-0.59316-2.1205-3.2002 0.67876 0 4.5e-4m2.4292 0.23682c-3.1269 1.2043 1.8268 1.0515 0 0zm0.896-0.18555c-1.1072 3.6458-1.5795-0.10806-1.2256-0.85942-3.0052 0.40904 1.8785-1.5333 1.2256 0.85945m4.3188-0.75927c0.11411-4.3309 1.8056 5.3824-1.6846 1.9946-1.0651-1.1253 0.52638-3.5367 1.6846-1.9946zm-1.5308 0.95459c1.9136 3.7629 1.5977-3.6168 0 0zm2.9053-1.3696c1.3922 1.4968-0.48558 4.2639 0 0.3676zm0-1.0645c1.4291-0.2822-0.28063 1.7294 0 0zm3.3545 1.1694c-3.4319 0.37549 2.0507 4.8228-2.1631 1.2646-0.17636-1.2354 1.2895-1.7172 2.1631-1.2647m1.2305-0.88135c0.48735 0.35752 0.7773 5.6354-0.45169 2.1365 0.18137-1.0784-0.82987-1.7688 0.45166-2.1365m1.4722 2.4316c-0.46374-4.2686 1.8348 4.1534 1.8408-1.6553 1.7195 1.508-0.55468 4.5325-1.8408 1.6553zm5.3491-1.1304c2.8441-1.1064 1.7513 4.586 0.83008-0.2002-1.7166 3.7234-0.11303 0.99134-2.3218 0.23438-0.52805 6.5383-1.8725-3.6115 1.4917-0.0342zm4.4873-0.44434c-2.8216-0.35433 1.7332 3.9529-1.9434 2.0899 4.3698 1.1509-2.9145-2.838 1.9434-2.0898m1.3086-0.85693c0.48735 0.35752 0.7773 5.6354-0.45169 2.1365 0.18137-1.0784-0.82987-1.7688 0.45166-2.1365m1.582 2.8906c1.5984-0.25748-0.3125 1.7484 0 0zm3.1396-3.0249c2.5954 2.2295 1.8385 3.5932 2.7588 0 0.90956 5.1296-1.5871 2.5871-2.2803 1.0691 0.0428 5.05-0.8075 1.9002-0.47851-1.0691zm4.9634 2.2705c-3.1269 1.2043 1.8267 1.0515 0 0zm0.89599-0.18555c-1.1072 3.6458-1.5795-0.10806-1.2256-0.85942-3.0052 0.40905 1.8785-1.5334 1.2256 0.85945m3.0566-0.64941c2.8441-1.1064 1.7514 4.586 0.83008-0.2002-1.7165 3.7234-0.11302 0.99133-2.3218 0.23438-0.52803 6.5383-1.8725-3.6115 1.4917-0.0342zm6.3037-0.41992c-3.4319 0.37549 2.0507 4.8228-2.1631 1.2646-0.17636-1.2354 1.2895-1.7172 2.1631-1.2647m1.8457 0.20996c-3.2172 2.6754 3.1055 2.6746 0 0zm0-0.38086c5.2014 3.8261-5.017 3.4921 0 0zm4.27 1.1499c0.46275 4.2594-1.8333-4.1496-1.8384 1.6504-1.7285-1.5125 0.55837-4.5234 1.8384-1.6504zm2.644-1.0034c-2.8216-0.35433 1.7332 3.9529-1.9434 2.0899 4.3698 1.151-2.9145-2.838 1.9434-2.0898m3.2031 1.1743c-4.204-0.20477 2.3822 3.217-2.5342 0.13912-0.2833-1.7678 2.7356-1.9946 2.5342-0.13916m-0.44922-0.13184c-0.59316-2.1205-3.2002 0.67876 0 4.5e-4m3.1543-1.0181c-3.4319 0.37549 2.0507 4.8228-2.1631 1.2646-0.17636-1.2354 1.2895-1.7172 2.1631-1.2647m1.2305-0.88135c0.48736 0.35752 0.77731 5.6354-0.45169 2.1365 0.18137-1.0784-0.82987-1.7688 0.45166-2.1365m3.8574 2.0312c-4.2041-0.20476 2.3823 3.217-2.5342 0.13912-0.28329-1.7677 2.7356-1.9946 2.5342-0.13916m-0.44921-0.13184c-0.59316-2.1205-3.2002 0.67876 0 4.5e-4m1.6308-1.8994c0.48737 0.35751 0.77729 5.6354-0.4517 2.1365 0.18137-1.0784-0.82987-1.7688 0.45166-2.1365m1.4722 2.4316c-0.46374-4.2686 1.8348 4.1534 1.8408-1.6553 1.7195 1.508-0.55468 4.5325-1.8408 1.6553zm5.5591-0.40039c-4.204-0.20476 2.3823 3.217-2.5342 0.13912-0.28331-1.7677 2.7356-1.9946 2.5342-0.13916m-0.44921-0.13184c-0.59316-2.1205-3.2002 0.67876 0 4.5e-4m2.771-0.70312c-1.6251 3.4807-1.9982 0.77523-1.1499 5e-3 0.11284-0.43656 1.507-0.8863 1.1495-5e-3" fill="#636363" style="text-decoration-line:none;text-indent:0pt;text-transform:none"/></g><path transform="translate(-1200 3)" d="m1252 1007v138h224v-2zm32 58.844 74.375 45.156h-74.375z" clip-path="url(#af)" fill="#8ae234" fill-opacity=".23214" filter="url(#ab)" stroke="#73d216" stroke-width="4"/><g transform="translate(-1200 -2)" opacity=".7"><g transform="translate(1)" opacity=".5"><g transform="matrix(1 0 0 .5 0 572)" fill="#fff"><rect x="1259" y="1136" width="1" height="8"/><rect x="1267" y="1136" width="1" height="8"/><rect x="1275" y="1136" width="1" height="8"/><rect x="1283" y="1136" width="1" height="8"/><rect x="1291" y="1136" width="1" height="8"/><rect x="1299" y="1136" width="1" height="8"/><rect x="1307" y="1136" width="1" height="8"/><rect x="1315" y="1136" width="1" height="8"/><rect x="1323" y="1136" width="1" height="8"/><rect x="1331" y="1136" width="1" height="8"/><rect x="1339" y="1136" width="1" height="8"/><rect x="1347" y="1136" width="1" height="8"/><rect x="1355" y="1136" width="1" height="8"/><rect x="1363" y="1136" width="1" height="8"/><rect x="1371" y="1136" width="1" height="8"/><rect x="1379" y="1136" width="1" height="8"/><rect x="1387" y="1136" width="1" height="8"/><rect x="1395" y="1136" width="1" height="8"/><rect x="1403" y="1136" width="1" height="8"/><rect x="1411" y="1136" width="1" height="8"/><rect x="1419" y="1136" width="1" height="8"/><rect x="1427" y="1136" width="1" height="8"/><rect x="1435" y="1136" width="1" height="8"/><rect x="1443" y="1136" width="1" height="8"/><rect x="1451" y="1136" width="1" height="8"/><rect x="1459" y="1136" width="1" height="8"/></g><text transform="scale(1.0595 -.94387)" x="1187.3527" y="-1204.048" fill="#ffffff" font-family="Arial" style="line-height:0%" xml:space="preserve"><tspan x="1187.3527" y="-1204.048" fill="#ffffff" font-family="'Courier New'" font-size="4.2379px" font-weight="bold" style="line-height:1.25">0  1  2  3  4  5  6  7  8  9 10 11 12 13 14 15 16 17 18 19 20 21 22 23 24 25</tspan></text></g><g transform="matrix(1 0 0 .5 0 572)"><rect x="1259" y="1136" width="1" height="8"/><rect x="1267" y="1136" width="1" height="8"/><rect x="1275" y="1136" width="1" height="8"/><rect x="1283" y="1136" width="1" height="8"/><rect x="1291" y="1136" width="1" height="8"/><rect x="1299" y="1136" width="1" height="8"/><rect x="1307" y="1136" width="1" height="8"/><rect x="1315" y="1136" width="1" height="8"/><rect x="1323" y="1136" width="1" height="8"/><rect x="1331" y="1136" width="1" height="8"/><rect x="1339" y="1136" width="1" height="8"/><rect x="1347" y="1136" width="1" height="8"/><rect x="1355" y="1136" width="1" height="8"/><rect x="1363" y="1136" width="1" height="8"/><rect x="1371" y="1136" width="1" height="8"/><rect x="1379" y="1136" width="1" height="8"/><rect x="1387" y="1136" width="1" height="8"/><rect x="1395" y="1136" width="1" height="8"/><rect x="1403" y="1136" width="1" height="8"/><rect x="1411" y="1136" width="1" height="8"/><rect x="1419" y="1136" width="1" height="8"/><rect x="1427" y="1136" width="1" height="8"/><rect x="1435" y="1136" width="1" height="8"/><rect x="1443" y="1136" width="1" height="8"/><rect x="1451" y="1136" width="1" height="8"/><rect x="1459" y="1136" width="1" height="8"/></g><text transform="scale(1.0595 -.94387)" x="1187.3527" y="-1204.048" fill="#000000" font-family="Arial" style="line-height:0%" xml:space="preserve"><tspan x="1187.3527" y="-1204.048" font-family="'Courier New'" font-size="4.2379px" font-weight="bold" style="line-height:1.25">0  1  2  3  4  5  6  7  8  9 10 11 12 13 14 15 16 17 18 19 20 21 22 23 24 25</tspan></text></g><g transform="translate(-1200)" clip-path="url(#ag)"><path d="m1284 1062.8v2l74.375 45.156h3.2812zm-32 79.156v2h224v-2z" fill="#73d216"/><path d="m1252 1006v138h224v-2zm32 58.844 74.375 45.156h-74.375z" fill="#8ae234" opacity=".6"/><path d="m1252 1008v136h224zm32 56.844 77.656 47.156h-77.656z" fill="url(#s)" opacity=".4"/><path d="m1253 1132v12h223l-19.75-12z" fill="url(#r)" opacity=".2"/><path d="m1252 1006v2l224 136v-2zm32 104v2h77.656l-3.2812-2z" fill="#fff" opacity=".8"/><path d="m1252 1006v138h224v-2zm32 58.844 74.375 45.156h-74.375z" fill="none" filter="url(#ac)" stroke="#274d02" stroke-width="1.4"/></g></g></g></svg>
