<?xml version="1.0" encoding="UTF-8"?>
<svg enable-background="new" version="1.0" viewBox="0 0 256 256" xmlns="http://www.w3.org/2000/svg" xmlns:xlink="http://www.w3.org/1999/xlink"><defs><filter id="cc" x="-.034675" y="-.2225" width="1.0694" height="1.445" color-interpolation-filters="sRGB"><feGaussianBlur stdDeviation="2.225"/></filter><clipPath id="cj"><path d="m92 56-20 24v180h144v-180l-20-24z" color="#000000" enable-background="accumulate"/></clipPath><filter id="cf" color-interpolation-filters="sRGB"><feGaussianBlur stdDeviation="0.87"/></filter><filter id="ce" color-interpolation-filters="sRGB"><feGaussianBlur stdDeviation="0.96"/></filter><clipPath id="ac"><rect x="84" y="92" width="120" height="72" color="#000000" enable-background="accumulate"/></clipPath><linearGradient id="ax"><stop stop-color="#fff" stop-opacity=".302" offset="0"/><stop stop-color="#fff" stop-opacity="0" offset="1"/></linearGradient><linearGradient id="p"><stop stop-color="#fff" offset="0"/><stop stop-color="#fff" stop-opacity="0" offset="1"/></linearGradient><linearGradient id="aw"><stop stop-color="#fff" offset="0"/><stop stop-color="#d3d7cf" offset="1"/></linearGradient><linearGradient id="bj"><stop stop-color="#2e3436" offset="0"/><stop stop-color="#888a85" offset="1"/></linearGradient><filter id="r" color-interpolation-filters="sRGB"><feGaussianBlur stdDeviation="0.48"/></filter><mask id="j" maskUnits="userSpaceOnUse"><rect transform="scale(1,-1)" x="120" y="-127.04" width="48" height="25.042" color="#000000" enable-background="accumulate" fill="url(#av)"/></mask><linearGradient id="av" x1="143.1" x2="143.1" y1="112.1" y2="117.5" gradientTransform="matrix(1.1685 0 0 1.6741 -24.797 -307.85)" gradientUnits="userSpaceOnUse"><stop offset="0"/><stop stop-color="#fff" offset="1"/></linearGradient><filter id="u" x="-.080582" y="-.23491" width="1.1612" height="1.4698" color-interpolation-filters="sRGB"><feGaussianBlur stdDeviation="1.2786157"/></filter><filter id="v" color-interpolation-filters="sRGB"><feGaussianBlur stdDeviation="0.25054962"/></filter><filter id="x" x="-.0675" y="-.54" width="1.135" height="2.08" color-interpolation-filters="sRGB"><feGaussianBlur stdDeviation="0.9"/></filter><filter id="w" color-interpolation-filters="sRGB"><feGaussianBlur stdDeviation="0.12786157"/></filter><linearGradient id="au"><stop offset="0"/><stop stop-opacity="0" offset="1"/></linearGradient><filter id="t" x="-.1275" y="-.306" width="1.255" height="1.612" color-interpolation-filters="sRGB"><feGaussianBlur stdDeviation="1.9125"/></filter><clipPath id="ab"><path d="m129.12 127.94a4.0004 4.0004 0 0 0-4 3.0938l-1 4a4.0004 4.0004 0 0 0 3.875 4.9688h32a4.0004 4.0004 0 0 0 3.875-4.9688l-1-4a4.0004 4.0004 0 0 0-7.875 0.96875h-22a4.0004 4.0004 0 0 0-3.875-4.0625z" color="#000000" enable-background="new" fill="#eeeeec" style="text-decoration-line:none;text-indent:0;text-transform:none"/></clipPath><filter id="y" x="-.0675" y="-.54" width="1.135" height="2.08" color-interpolation-filters="sRGB"><feGaussianBlur stdDeviation="0.9"/></filter><filter id="aa" color-interpolation-filters="sRGB"><feGaussianBlur stdDeviation="0.38262056"/></filter><filter id="z" color-interpolation-filters="sRGB"><feGaussianBlur stdDeviation="0.39038834"/></filter><filter id="s" color-interpolation-filters="sRGB"><feGaussianBlur stdDeviation="0.1625"/></filter><filter id="bt"><feGaussianBlur stdDeviation="0.62888199"/></filter><filter id="bs"><feGaussianBlur stdDeviation="0.3975"/></filter><filter id="br" x="-.05169" y="-.33168" width="1.1034" height="1.6634"><feGaussianBlur stdDeviation="2.9712734"/></filter><clipPath id="ch"><path d="m472 172v8 80h15.75v-80h112.25v80h15.75v-80h0.25v-8h-0.25-15.75-112.25z" color="#000000" enable-background="accumulate" opacity=".40881"/></clipPath><filter id="bq" x="-.19081" y="-.31801" width="1.3816" height="1.636"><feGaussianBlur stdDeviation="9.5403727"/></filter><clipPath id="cg"><path d="m403.81 47.844c-3.1363 0.049-6.2333 1.3866-8.4193 3.6362s-3.4341 5.3836-3.3932 8.5201v102.03l-31.719-25.219c-2.4498-2.0333-5.7328-3.0304-8.8995-2.7028-3.1668 0.32756-6.1762 1.9755-8.1579 4.4671s-2.91 5.7948-2.5165 8.954c0.39357 3.1592 2.1039 6.1336 4.6364 8.0629l58.594 46.562 59.625-46.5c2.5379-1.9122 4.2625-4.8697 4.6769-8.0202 0.41435-3.1505-0.48694-6.4534-2.4441-8.9567-1.9572-2.5033-4.945-4.1749-8.1024-4.533-3.1574-0.35805-6.4436 0.60206-8.9116 2.6036l-32.781 25.562v-102.31c0.0417-3.1989-1.2599-6.3942-3.525-8.6535s-5.4637-3.5526-8.6626-3.5027z" color="#000000" enable-background="new" fill="#999" style="text-decoration-line:none;text-indent:0;text-transform:none"/></clipPath><filter id="bp"><feGaussianBlur stdDeviation="1.4101682"/></filter><filter id="bm" color-interpolation-filters="sRGB"><feGaussianBlur stdDeviation="3.5751766"/></filter><filter id="cb" x="-.096104" y="-.24396" width="1.1922" height="1.4879" color-interpolation-filters="sRGB"><feGaussianBlur stdDeviation="4.3359375"/></filter><filter id="by"><feGaussianBlur stdDeviation="0.67205343"/></filter><filter id="bl" color-interpolation-filters="sRGB"><feGaussianBlur stdDeviation="3.5751766"/></filter><filter id="ca" x="-.096104" y="-.24396" width="1.1922" height="1.4879" color-interpolation-filters="sRGB"><feGaussianBlur stdDeviation="4.3359375"/></filter><filter id="bo" color-interpolation-filters="sRGB"><feGaussianBlur stdDeviation="1.4101682"/></filter><filter id="bx" color-interpolation-filters="sRGB"><feGaussianBlur stdDeviation="0.67205343"/></filter><filter id="bv"><feGaussianBlur stdDeviation="1.5327915"/></filter><filter id="bk" color-interpolation-filters="sRGB"><feGaussianBlur stdDeviation="3.5751766"/></filter><filter id="bz" x="-.096104" y="-.24396" width="1.1922" height="1.4879" color-interpolation-filters="sRGB"><feGaussianBlur stdDeviation="4.3359375"/></filter><filter id="bn" color-interpolation-filters="sRGB"><feGaussianBlur stdDeviation="1.4101682"/></filter><filter id="bw" color-interpolation-filters="sRGB"><feGaussianBlur stdDeviation="0.67205343"/></filter><clipPath id="ci"><path d="m484-65v72h120v-72z" color="#000000" enable-background="accumulate" fill="#1a1a1a" opacity=".48428"/></clipPath><filter id="bu"><feGaussianBlur stdDeviation="1.5327915"/></filter><linearGradient id="at" x1="394" x2="394" y1="65.988" y2="82.61" gradientTransform="translate(159,-155)" gradientUnits="userSpaceOnUse"><stop stop-color="#1a1a1a" offset="0"/><stop stop-color="#fff" offset="1"/></linearGradient><mask id="ap" maskUnits="userSpaceOnUse"><rect x="471" y="-99" width="144" height="124" color="#000000" enable-background="accumulate" fill="url(#at)"/></mask><filter id="q"><feGaussianBlur stdDeviation="1.92"/></filter><filter id="cd" x="-.072438" y="-.46481" width="1.1449" height="1.9296"><feGaussianBlur stdDeviation="4.6481118"/></filter><linearGradient id="m" x1="404.5" x2="404.5" y1="100.98" y2="190.78" gradientTransform="translate(140,-160)" gradientUnits="userSpaceOnUse"><stop stop-color="#8ae234" offset="0"/><stop stop-color="#69c014" offset=".42161"/><stop stop-color="#76d01e" offset="1"/></linearGradient><linearGradient id="l" x1="542.21" x2="542.21" y1="190.38" y2="170.53" gradientTransform="translate(0,-160)" gradientUnits="userSpaceOnUse"><stop stop-color="#d3d7cf" offset="0"/><stop stop-color="#d3d7cf" stop-opacity="0" offset="1"/></linearGradient><linearGradient id="k" x1="404.48" x2="404.48" y1="95.308" y2="174.6" gradientTransform="translate(140,-160)" gradientUnits="userSpaceOnUse"><stop stop-color="#4e9a06" offset="0"/><stop stop-color="#2d5903" offset="1"/></linearGradient><radialGradient id="ag" cx="640.84" cy="149.42" r="61.676" gradientTransform="matrix(-.39394 .68232 -.30074 -.17363 737.55 -262.46)" gradientUnits="userSpaceOnUse"><stop stop-color="#fcaf3e" offset="0"/><stop stop-color="#fff" stop-opacity="0" offset="1"/></radialGradient><radialGradient id="af" cx="518.84" cy="76.238" r="61.676" gradientTransform="matrix(.71483 1.2381 -.53286 .30765 56.241 -584.23)" gradientUnits="userSpaceOnUse"><stop stop-color="#fcaf3e" offset="0"/><stop stop-color="#fff" stop-opacity="0" offset="1"/></radialGradient><radialGradient id="ae" cx="547.78" cy="191.12" r="61.676" gradientTransform="matrix(.58284 1.0095 -.31263 .1805 99.98 -450.13)" gradientUnits="userSpaceOnUse"><stop stop-color="#fcaf3e" offset="0"/><stop stop-color="#fff" stop-opacity="0" offset="1"/></radialGradient><radialGradient id="d" cx="640.84" cy="149.42" r="61.676" gradientTransform="matrix(-.39394 .68232 -.30074 -.17363 737.55 -262.46)" gradientUnits="userSpaceOnUse"><stop stop-color="#b3ec7c" offset="0"/><stop stop-color="#fff" stop-opacity="0" offset="1"/></radialGradient><radialGradient id="c" cx="518.84" cy="76.238" r="61.676" gradientTransform="matrix(.71483 1.2381 -.53286 .30765 56.241 -584.23)" gradientUnits="userSpaceOnUse"><stop stop-color="#b3ec7c" offset="0"/><stop stop-color="#fff" stop-opacity="0" offset="1"/></radialGradient><radialGradient id="b" cx="547.78" cy="191.12" r="61.676" gradientTransform="matrix(.58284 1.0095 -.31263 .1805 99.98 -450.13)" gradientUnits="userSpaceOnUse"><stop stop-color="#b3ec7c" offset="0"/><stop stop-color="#fff" stop-opacity="0" offset="1"/></radialGradient><linearGradient id="as" x1="404.5" x2="404.5" y1="100.98" y2="190.78" gradientUnits="userSpaceOnUse"><stop stop-color="#8ae234" offset="0"/><stop stop-color="#69c014" offset=".42161"/><stop stop-color="#80df23" offset="1"/></linearGradient><linearGradient id="ar" x1="542.21" x2="542.21" y1="190.38" y2="170.53" gradientTransform="translate(-140)" gradientUnits="userSpaceOnUse"><stop stop-color="#d3d7cf" offset="0"/><stop stop-color="#d3d7cf" stop-opacity="0" offset="1"/></linearGradient><linearGradient id="aq" x1="404.48" x2="404.48" y1="95.308" y2="174.6" gradientUnits="userSpaceOnUse"><stop stop-color="#4e9a06" offset="0"/><stop stop-color="#2d5903" offset="1"/></linearGradient><radialGradient id="ad" cx="537" cy="107.66" r="4.969" gradientTransform="matrix(-1.2846 7.0156e-7 -1.2584e-5 -23.043 1226.8 2538)" gradientUnits="userSpaceOnUse"><stop stop-color="#fff" offset="0"/><stop stop-color="#fff" stop-opacity="0" offset="1"/></radialGradient><linearGradient id="a" x1="542.68" x2="542.68" y1="47.436" y2="59.543" gradientUnits="userSpaceOnUse"><stop stop-color="#fff" offset="0"/><stop stop-color="#fff" stop-opacity="0" offset="1"/></linearGradient><linearGradient id="bi" x1="304.51" x2="336" y1="35.121" y2="54.82" gradientTransform="matrix(5.3333 0 0 5.3333 -1162.7 -82)" gradientUnits="userSpaceOnUse"><stop stop-color="#888a85" offset="0"/><stop stop-color="#babdb6" offset=".16058"/><stop stop-color="#888a85" offset=".37341"/><stop stop-color="#555753" offset=".58624"/><stop stop-color="#888a85" offset=".71557"/><stop offset="1"/></linearGradient><linearGradient id="bh" x1="495" x2="488" y1="189.5" y2="189.5" gradientTransform="translate(-1088)" gradientUnits="userSpaceOnUse"><stop stop-color="#fff" offset="0"/><stop stop-color="#555753" stop-opacity="0" offset="1"/></linearGradient><linearGradient id="bg" x1="495" x2="481.66" y1="189.5" y2="189.5" gradientUnits="userSpaceOnUse"><stop stop-color="#555753" offset="0"/><stop stop-color="#555753" stop-opacity="0" offset="1"/></linearGradient><linearGradient id="bf" x1="517.59" x2="517.59" y1="175" y2="204.3" gradientUnits="userSpaceOnUse"><stop offset="0"/><stop stop-opacity="0" offset="1"/></linearGradient><linearGradient id="be" x1="306.57" x2="335.06" y1="59.683" y2="81.257" gradientTransform="matrix(5.3333 0 0 5.3333 -1162.7 -82)" gradientUnits="userSpaceOnUse"><stop stop-color="#babdb6" offset="0"/><stop stop-color="#fff" offset=".16058"/><stop stop-color="#eeeeec" offset=".37341"/><stop stop-color="#dadcd8" offset=".58624"/><stop stop-color="#eeeeec" offset=".71557"/><stop stop-color="#888a85" offset="1"/></linearGradient><linearGradient id="bd" x1="136" x2="136" y1="270.01" y2="188.12" gradientTransform="matrix(.83333 0 0 .72 424 206.8)" gradientUnits="userSpaceOnUse"><stop stop-color="#fff" offset="0"/><stop stop-color="#fff" stop-opacity="0" offset="1"/></linearGradient><radialGradient id="ao" cx="500.04" cy="132.71" r="22.9" gradientTransform="matrix(1.6223 1.3044 -.17501 .21765 -284.89 -535.91)" gradientUnits="userSpaceOnUse"><stop stop-color="#fff" offset="0"/><stop stop-color="#fff" stop-opacity="0" offset="1"/></radialGradient><radialGradient id="an" cx="582.82" cy="137.84" r="24.299" gradientTransform="matrix(1.4986 -1.0413 .20211 .29087 -319.38 712.04)" gradientUnits="userSpaceOnUse"><stop stop-color="#fff" offset="0"/><stop stop-color="#fff" stop-opacity="0" offset="1"/></radialGradient><radialGradient id="am" cx="537" cy="107.66" r="4.969" gradientTransform="matrix(1.2846 7.0156e-7 1.2584e-5 -23.043 -138.84 2538)" gradientUnits="userSpaceOnUse"><stop stop-color="#fff" offset="0"/><stop stop-color="#fff" stop-opacity="0" offset="1"/></radialGradient><linearGradient id="bc" x1="306.5" x2="333.5" y1="64.365" y2="85.346" gradientTransform="matrix(5.3333 0 0 5.3333 -1562.7 -228)" gradientUnits="userSpaceOnUse"><stop stop-color="#e2e3e0" offset="0"/><stop stop-color="#fff" offset=".16058"/><stop stop-color="#eeeeec" offset=".37341"/><stop stop-color="#c5c6c4" offset=".58624"/><stop stop-color="#eeeeec" offset=".71557"/><stop stop-color="#888a85" offset="1"/></linearGradient><linearGradient id="bb" x1="73.479" x2="252.02" y1="85.42" y2="37.58" gradientUnits="userSpaceOnUse"><stop stop-color="#babdb6" offset="0"/><stop stop-color="#fff" offset=".16058"/><stop stop-color="#eeeeec" offset=".37341"/><stop stop-color="#babdb6" offset=".58624"/><stop stop-color="#eeeeec" offset=".71557"/><stop stop-color="#888a85" offset="1"/></linearGradient><radialGradient id="al" cx="144" cy="144.2" r="72" gradientTransform="matrix(2.2628 0 0 .27812 -181.84 41.394)" gradientUnits="userSpaceOnUse"><stop stop-color="#fff" offset="0"/><stop stop-color="#fff" stop-opacity="0" offset="1"/></radialGradient><radialGradient id="ak" cx="119.84" cy="81.462" r="70" gradientTransform="matrix(2.5253 -.125 .0091814 .18549 -209.26 70.37)" gradientUnits="userSpaceOnUse"><stop stop-color="#fff" offset="0"/><stop stop-color="#fff" stop-opacity="0" offset="1"/></radialGradient><linearGradient id="ba" x1="136" x2="136" y1="270.01" y2="188.12" gradientUnits="userSpaceOnUse"><stop stop-color="#fff" offset="0"/><stop stop-color="#fff" stop-opacity="0" offset="1"/></linearGradient><radialGradient id="aj" cx="136.57" cy="79.66" r="73" gradientTransform="matrix(2.9009 0 0 1.2263 -262.43 -18.042)" gradientUnits="userSpaceOnUse"><stop stop-color="#fff" offset="0"/><stop stop-color="#d3d7cf" offset="1"/></radialGradient><linearGradient id="az" x1="148.62" x2="134" y1="161.58" y2="50.5" gradientUnits="userSpaceOnUse"><stop stop-color="#2e3436" offset="0"/><stop stop-color="#babdb6" offset="1"/></linearGradient><radialGradient id="ai" cx="144" cy="267.24" r="73" gradientTransform="matrix(1 0 0 1.1246 0 -32.028)" gradientUnits="userSpaceOnUse"><stop stop-color="#fff" offset="0"/><stop stop-color="#fff" stop-opacity="0" offset="1"/></radialGradient><radialGradient id="ah" cx="140.56" cy="180.14" r="70" gradientTransform="matrix(3.5136 .94147 -.33646 1.2557 -304.76 -179.04)" gradientUnits="userSpaceOnUse"><stop stop-color="#fff" offset="0"/><stop stop-color="#fff" stop-opacity="0" offset="1"/></radialGradient><radialGradient id="i" cx="86.125" cy="94.25" r=".625" gradientUnits="userSpaceOnUse"><stop stop-color="#fff" offset="0"/><stop stop-color="#fff" stop-opacity="0" offset="1"/></radialGradient><linearGradient id="ay" x1="306.57" x2="335.06" y1="59.683" y2="81.257" gradientTransform="matrix(5.3333 0 0 5.3333 -1562.7 -228)" gradientUnits="userSpaceOnUse"><stop stop-color="#babdb6" offset="0"/><stop stop-color="#fff" offset=".16058"/><stop stop-color="#eeeeec" offset=".37341"/><stop stop-color="#dadcd8" offset=".58624"/><stop stop-color="#eeeeec" offset=".71557"/><stop stop-color="#888a85" offset="1"/></linearGradient><radialGradient id="h" cx="85" cy="128.16" r="1" gradientTransform="matrix(41.251 0 0 36.508 -3303.3 -4546.7)" gradientUnits="userSpaceOnUse" xlink:href="#ax"/><radialGradient id="g" cx="85" cy="128" r="1" gradientTransform="matrix(41.251 0 0 37 -3421.3 -4608)" gradientUnits="userSpaceOnUse" xlink:href="#p"/><radialGradient id="f" cx="144" cy="166" r="61.5" gradientTransform="matrix(2.1755 0 0 .55285 -169.27 1.2276)" gradientUnits="userSpaceOnUse" xlink:href="#aw"/><radialGradient id="e" cx="144" cy="267.24" r="73" gradientTransform="matrix(.76712 0 0 1.1246 33.534 -127.03)" gradientUnits="userSpaceOnUse" xlink:href="#p"/><linearGradient id="o" x1="171" x2="154.5" y1="147.75" y2="114.48" gradientUnits="userSpaceOnUse" xlink:href="#bj"/><linearGradient id="n" x1="130.75" x2="130.75" y1="140.3" y2="153.94" gradientUnits="userSpaceOnUse" xlink:href="#au"/></defs><g transform="translate(-416,-28)"><g><g transform="matrix(1.0563 0 0 1.0563 -30.641 -20.931)"><path d="m494.18 253.5-19.161 21.5h137.96l-19.161-21.5z" color="#000000" enable-background="accumulate" filter="url(#br)" opacity=".2673"/><g transform="matrix(1.0527 0 0 1.0293 392.41 -3.2306)"><g opacity=".76923"><path transform="matrix(1 0 0 1.056 0 -12.98)" d="m88.389 237-21.389 24h154l-21.389-24z" color="#000000" enable-background="accumulate" filter="url(#cc)" opacity=".4"/><path transform="matrix(1 0 0 1.0791 7.626e-6 -17.92)" d="m88.389 239-21.389 24h154l-21.389-24z" color="#000000" enable-background="accumulate" filter="url(#cd)" opacity=".2"/></g><g clip-path="url(#cj)" enable-background="new"><path d="m92 56-20 24v180h144v-180l-20-24z" color="#000000" enable-background="accumulate" fill="url(#bc)"/><path d="m92 56-20 24h144l-20-24z" color="#000000" enable-background="accumulate" fill="url(#bb)"/><path d="m92 56-20 24h144l-20-24z" color="#000000" enable-background="accumulate" fill="url(#al)"/><path d="m213 80-20-24m-98 0-20 24" color="#000000" enable-background="accumulate" fill="none" opacity=".5" stroke="url(#ak)" stroke-linecap="round" stroke-width="1.9214"/><path d="m72 160v100h144v-100z" color="#000000" enable-background="accumulate" fill="url(#ba)"/><path d="m72 80v180h144v-180z" color="#000000" enable-background="accumulate" fill="#555753" opacity=".2"/><path d="m72 80h144" enable-background="new" fill="none" stroke="url(#aj)" stroke-width="1.9214"/><path d="m92 56-20 24v180h144v-180l-20-24z" color="#000000" enable-background="accumulate" fill="none" filter="url(#cf)" stroke="url(#az)" stroke-width="1.9214"/><path d="m72 257h144" enable-background="new" fill="none" stroke="url(#ai)" stroke-width="1.9214"/></g><path d="m213 256v-176m-138 0v176" color="#000000" enable-background="accumulate" fill="#888a85" stroke="url(#ah)" stroke-width="1.9214"/><g transform="matrix(1.0667 0 0 1.0667 -17.131 -20.437)" enable-background="new"><circle transform="matrix(2.4 0 0 2.4 -120.58 -131.95)" cx="86.125" cy="94.25" r=".625" color="#000000" enable-background="accumulate" fill="#fff"/><circle transform="matrix(6 0 0 6 -430.62 -471.25)" cx="86.125" cy="94.25" r=".625" color="#000000" enable-background="accumulate" fill="url(#i)"/></g></g><g transform="translate(1,155)" enable-background="new" fill="none" filter="url(#bu)" mask="url(#ap)" opacity=".18553"><path d="m544 21.655v-7.6552l-2e-5 -114m-51.172 86.207 51.172 40.69 52.172-40.69" enable-background="new" stroke="url(#m)" stroke-linecap="round" stroke-width="24"/><path d="m540 16.655v-7.6552l-2e-5 -114m-51.172 86.207 51.172 40.69 52.172-40.69" enable-background="new" filter="url(#bk)" stroke="#73d216" stroke-linecap="round" stroke-width="6.8"/><path d="m490.34-10.656 53.625 42.656 54.656-42.625" color="#000000" enable-background="new" filter="url(#bz)" opacity=".61006" stroke="url(#l)" stroke-linecap="round" stroke-width="6" style="text-decoration-line:none;text-indent:0;text-transform:none"/><path d="m543.81-112.16c-3.1363 0.049-6.2333 1.3866-8.4193 3.6362s-3.4341 5.3836-3.3932 8.5201v102.03l-31.719-25.219c-2.4498-2.0333-5.7328-3.0304-8.8995-2.7028-3.1668 0.32756-6.1762 1.9755-8.1579 4.4671s-2.91 5.7948-2.5165 8.954c0.39357 3.1592 2.1039 6.1336 4.6364 8.0629l58.594 46.562 59.625-46.5c2.5379-1.9122 4.2625-4.8697 4.6769-8.0202 0.41435-3.1505-0.48694-6.4534-2.4441-8.9567-1.9572-2.5033-4.945-4.1749-8.1024-4.533-3.1574-0.35805-6.4436 0.60206-8.9116 2.6036l-32.781 25.562v-102.31c0.0417-3.1989-1.2599-6.3942-3.525-8.6535s-5.4637-3.5526-8.6626-3.5027z" color="#000000" enable-background="new" filter="url(#bn)" stroke="url(#k)" stroke-width="3" style="text-decoration-line:none;text-indent:0;text-transform:none"/><g transform="translate(140,-160)" enable-background="new" filter="url(#bw)" stroke-width="2"><path d="m403.88 50.875c-2.3562 0.03273-4.6844 1.0352-6.3273 2.7244-1.6429 1.6892-2.5804 4.0444-2.5477 6.4006v108.25l-36.562-29.094c-1.8449-1.4685-4.2829-2.1686-6.6258-1.9024-2.3429 0.26611-4.5619 1.4951-6.0304 3.3399s-2.1686 4.2829-1.9024 6.6258c0.2661 2.3429 1.4951 4.5619 3.3399 6.0304l56.719 45.094 57.781-45.031c1.8574-1.4521 3.1055-3.6599 3.3919-6 0.28647-2.3402-0.39223-4.7838-1.8445-6.6411-1.4522-1.8572-3.6602-3.1052-6.0003-3.3914-2.3402-0.28628-4.7838 0.39263-6.6409 1.845l-37.625 29.344v-108.47c0.0333-2.3979-0.93973-4.7939-2.6354-6.4896-1.6957-1.6957-4.0917-2.6687-6.4896-2.6354z" color="#000000" enable-background="new" stroke="url(#ag)" style="text-decoration-line:none;text-indent:0;text-transform:none"/><path d="m403.88 50.875c-2.3562 0.03273-4.6844 1.0352-6.3273 2.7244-1.6429 1.6892-2.5804 4.0444-2.5477 6.4006v108.25l-36.562-29.094c-1.8449-1.4685-4.2829-2.1686-6.6258-1.9024-2.3429 0.26611-4.5619 1.4951-6.0304 3.3399s-2.1686 4.2829-1.9024 6.6258c0.2661 2.3429 1.4951 4.5619 3.3399 6.0304l56.719 45.094 57.781-45.031c1.8574-1.4521 3.1055-3.6599 3.3919-6 0.28647-2.3402-0.39223-4.7838-1.8445-6.6411-1.4522-1.8572-3.6602-3.1052-6.0003-3.3914-2.3402-0.28628-4.7838 0.39263-6.6409 1.845l-37.625 29.344v-108.47c0.0333-2.3979-0.93973-4.7939-2.6354-6.4896-1.6957-1.6957-4.0917-2.6687-6.4896-2.6354z" color="#000000" enable-background="new" stroke="url(#af)" style="text-decoration-line:none;text-indent:0;text-transform:none"/><path d="m403.88 50.875c-2.3562 0.03273-4.6844 1.0352-6.3273 2.7244-1.6429 1.6892-2.5804 4.0444-2.5477 6.4006v108.25l-36.562-29.094c-1.8449-1.4685-4.2829-2.1686-6.6258-1.9024-2.3429 0.26611-4.5619 1.4951-6.0304 3.3399s-2.1686 4.2829-1.9024 6.6258c0.2661 2.3429 1.4951 4.5619 3.3399 6.0304l56.719 45.094 57.781-45.031c1.8574-1.4521 3.1055-3.6599 3.3919-6 0.28647-2.3402-0.39223-4.7838-1.8445-6.6411-1.4522-1.8572-3.6602-3.1052-6.0003-3.3914-2.3402-0.28628-4.7838 0.39263-6.6409 1.845l-37.625 29.344v-108.47c0.0333-2.3979-0.93973-4.7939-2.6354-6.4896-1.6957-1.6957-4.0917-2.6687-6.4896-2.6354z" color="#000000" enable-background="new" stroke="url(#ae)" style="text-decoration-line:none;text-indent:0;text-transform:none"/></g></g><rect x="488" y="180" width="112" height="71.75" color="#000000" enable-background="accumulate" fill="url(#bi)"/><g transform="matrix(1.0271 0 0 1.0271 396.1 -3.4821)"><rect x="84" y="93" width="120" height="72" color="#000000" enable-background="accumulate" filter="url(#ce)" opacity=".5"/><path d="m84 92v72h120v-72z" color="#000000" enable-background="accumulate" fill="url(#ay)"/><g clip-path="url(#ac)" enable-background="new" fill="none"><path d="m203 92v72" color="#000000" enable-background="accumulate" stroke="url(#h)" stroke-width="1.9471"/><path d="m85 92v72" color="#000000" enable-background="accumulate" stroke="url(#g)" stroke-width="1.9471"/><path d="m84 93h120" enable-background="new" stroke="url(#f)" stroke-width="1.9471"/><path d="m85 93h120v72h-120z" color="#000000" enable-background="accumulate" filter="url(#q)" opacity=".66578" stroke="#fff" stroke-width="5.8414"/><path d="m88.767 162h110.47" enable-background="new" opacity=".3" stroke="url(#e)" stroke-width="1.9471"/><path d="m84 92h120v72h-120z" color="#000000" enable-background="accumulate" filter="url(#r)" stroke="url(#o)" stroke-width="1.9471"/></g><g transform="matrix(1.1227 0 0 1.1227 -17.92 -16.65)" enable-background="new"><g fill="none"><g transform="matrix(1,0,0,-1,0,240)" filter="url(#u)" mask="url(#j)" opacity=".7"><path d="m155.12 111.03-0.25 1.9688h-21.594l-0.34375-2.7812m-7.875 1.5625 1 4c0.35895 1.8017 2.1004 3.2253 3.9375 3.2188h28c1.7662-3e-3 3.4471-1.3176 3.875-3.0312l1-3" color="#000000" enable-background="new" filter="url(#v)" stroke="#d3d7cf" stroke-width=".86714" style="text-decoration-line:none;text-indent:0;text-transform:none"/><path d="m129 113 1 4h28l1-4" enable-background="new" filter="url(#x)" stroke="#fff" stroke-linecap="round" stroke-linejoin="round" stroke-width="3.4685"/><path d="m128.94 106.94a4.0004 4.0004 0 0 0-3.875 4.8438l1 5a4.0004 4.0004 0 0 0 3.9375 3.2188h28a4.0004 4.0004 0 0 0 3.875-3.0312l1-4a4.0004 4.0004 0 1 0-7.75-1.9375l-0.25 0.96875h-21.594l-0.34375-1.7812a4.0004 4.0004 0 0 0-4-3.2812z" color="#000000" enable-background="new" filter="url(#w)" stroke="#2e3436" stroke-width=".43357" style="text-decoration-line:none;text-indent:0;text-transform:none"/></g><path d="m129 133 4 14h30l-4-14" enable-background="new" filter="url(#t)" opacity=".2" stroke="url(#n)" stroke-linecap="round" stroke-linejoin="round" stroke-width="6.9371"/><g clip-path="url(#ab)"><path d="m129 131-1 5h32l-1-4" stroke="#888a85" stroke-linecap="round" stroke-linejoin="round" stroke-width="6.9371"/><path d="m129 130-1 4h32l-1-4" enable-background="new" filter="url(#y)" stroke="#fff" stroke-linecap="round" stroke-linejoin="round" stroke-width="3.4685"/><path d="m129.12 127.94c-1.824-0.0472-3.5871 1.3164-4 3.0938l-1 3c-0.58543 2.3466 1.4565 4.9649 3.875 4.9688h32c2.4185-4e-3 4.4604-2.6222 3.875-4.9688l-1-3c-0.4782-1.8622-2.4549-3.2102-4.3631-2.9755-1.9082 0.23475-3.4993 3.0216-3.5119 4.9442h-22c0.0332-2.074-1.8017-4.9977-3.875-5.0625z" color="#000000" enable-background="new" filter="url(#aa)" stroke="#d3d7cf" stroke-width=".86714" style="text-decoration-line:none;text-indent:0;text-transform:none"/><path d="m129.12 127.94a4.0004 4.0004 0 0 0-4 3.0938l-1 4a4.0004 4.0004 0 0 0 3.875 4.9688h32a4.0004 4.0004 0 0 0 3.875-4.9688l-1-4a4.0004 4.0004 0 0 0-7.875 0.96875h-22a4.0004 4.0004 0 0 0-3.875-4.0625z" color="#000000" enable-background="new" filter="url(#z)" stroke="#2e3436" stroke-width=".52028" style="text-decoration-line:none;text-indent:0;text-transform:none"/></g></g><circle transform="matrix(.85027 0 0 .85027 20.409 20.857)" cx="127.12" cy="132.62" r="3.25" color="#000000" enable-background="accumulate" fill="#fff" filter="url(#s)"/></g><g transform="matrix(1.5333 0 0 1.5333 -44.947 -49.546)"><circle transform="matrix(2.4 0 0 2.4 -120.58 -131.95)" cx="86.125" cy="94.25" r=".625" color="#000000" enable-background="accumulate" fill="#fff"/><circle transform="matrix(6 0 0 6 -430.62 -471.25)" cx="86.125" cy="94.25" r=".625" color="#000000" enable-background="accumulate" fill="url(#i)"/></g></g><rect x="487" y="178" width="116" height="46" color="#000000" enable-background="accumulate" fill="#eeeeec" filter="url(#bt)" opacity=".73585"/><g transform="translate(0,157)" clip-path="url(#ci)" fill="none" filter="url(#bv)" opacity=".31761"><path d="m544 21.655v-7.6552l-2e-5 -114m-51.172 86.207 51.172 40.69 52.172-40.69" enable-background="new" stroke="url(#m)" stroke-linecap="round" stroke-width="24"/><path d="m540 16.655v-7.6552l-2e-5 -114m-51.172 86.207 51.172 40.69 52.172-40.69" enable-background="new" filter="url(#bl)" stroke="#73d216" stroke-linecap="round" stroke-width="6.8"/><path d="m490.34-10.656 53.625 42.656 54.656-42.625" color="#000000" enable-background="new" filter="url(#ca)" opacity=".61006" stroke="url(#l)" stroke-linecap="round" stroke-width="6" style="text-decoration-line:none;text-indent:0;text-transform:none"/><path d="m543.81-112.16c-3.1363 0.049-6.2333 1.3866-8.4193 3.6362s-3.4341 5.3836-3.3932 8.5201v102.03l-31.719-25.219c-2.4498-2.0333-5.7328-3.0304-8.8995-2.7028-3.1668 0.32756-6.1762 1.9755-8.1579 4.4671s-2.91 5.7948-2.5165 8.954c0.39357 3.1592 2.1039 6.1336 4.6364 8.0629l58.594 46.562 59.625-46.5c2.5379-1.9122 4.2625-4.8697 4.6769-8.0202 0.41435-3.1505-0.48694-6.4534-2.4441-8.9567-1.9572-2.5033-4.945-4.1749-8.1024-4.533-3.1574-0.35805-6.4436 0.60206-8.9116 2.6036l-32.781 25.562v-102.31c0.0417-3.1989-1.2599-6.3942-3.525-8.6535s-5.4637-3.5526-8.6626-3.5027z" color="#000000" enable-background="new" filter="url(#bo)" stroke="url(#k)" stroke-width="3" style="text-decoration-line:none;text-indent:0;text-transform:none"/><g transform="translate(140,-160)" enable-background="new" filter="url(#bx)" stroke-width="2"><path d="m403.88 50.875c-2.3562 0.03273-4.6844 1.0352-6.3273 2.7244-1.6429 1.6892-2.5804 4.0444-2.5477 6.4006v108.25l-36.562-29.094c-1.8449-1.4685-4.2829-2.1686-6.6258-1.9024-2.3429 0.26611-4.5619 1.4951-6.0304 3.3399s-2.1686 4.2829-1.9024 6.6258c0.2661 2.3429 1.4951 4.5619 3.3399 6.0304l56.719 45.094 57.781-45.031c1.8574-1.4521 3.1055-3.6599 3.3919-6 0.28647-2.3402-0.39223-4.7838-1.8445-6.6411-1.4522-1.8572-3.6602-3.1052-6.0003-3.3914-2.3402-0.28628-4.7838 0.39263-6.6409 1.845l-37.625 29.344v-108.47c0.0333-2.3979-0.93973-4.7939-2.6354-6.4896-1.6957-1.6957-4.0917-2.6687-6.4896-2.6354z" color="#000000" enable-background="new" stroke="url(#d)" style="text-decoration-line:none;text-indent:0;text-transform:none"/><path d="m403.88 50.875c-2.3562 0.03273-4.6844 1.0352-6.3273 2.7244-1.6429 1.6892-2.5804 4.0444-2.5477 6.4006v108.25l-36.562-29.094c-1.8449-1.4685-4.2829-2.1686-6.6258-1.9024-2.3429 0.26611-4.5619 1.4951-6.0304 3.3399s-2.1686 4.2829-1.9024 6.6258c0.2661 2.3429 1.4951 4.5619 3.3399 6.0304l56.719 45.094 57.781-45.031c1.8574-1.4521 3.1055-3.6599 3.3919-6 0.28647-2.3402-0.39223-4.7838-1.8445-6.6411-1.4522-1.8572-3.6602-3.1052-6.0003-3.3914-2.3402-0.28628-4.7838 0.39263-6.6409 1.845l-37.625 29.344v-108.47c0.0333-2.3979-0.93973-4.7939-2.6354-6.4896-1.6957-1.6957-4.0917-2.6687-6.4896-2.6354z" color="#000000" enable-background="new" stroke="url(#c)" style="text-decoration-line:none;text-indent:0;text-transform:none"/><path d="m403.88 50.875c-2.3562 0.03273-4.6844 1.0352-6.3273 2.7244-1.6429 1.6892-2.5804 4.0444-2.5477 6.4006v108.25l-36.562-29.094c-1.8449-1.4685-4.2829-2.1686-6.6258-1.9024-2.3429 0.26611-4.5619 1.4951-6.0304 3.3399s-2.1686 4.2829-1.9024 6.6258c0.2661 2.3429 1.4951 4.5619 3.3399 6.0304l56.719 45.094 57.781-45.031c1.8574-1.4521 3.1055-3.6599 3.3919-6 0.28647-2.3402-0.39223-4.7838-1.8445-6.6411-1.4522-1.8572-3.6602-3.1052-6.0003-3.3914-2.3402-0.28628-4.7838 0.39263-6.6409 1.845l-37.625 29.344v-108.47c0.0333-2.3979-0.93973-4.7939-2.6354-6.4896-1.6957-1.6957-4.0917-2.6687-6.4896-2.6354z" color="#000000" enable-background="new" stroke="url(#b)" style="text-decoration-line:none;text-indent:0;text-transform:none"/></g></g><rect x="487" y="179" width="114" height="45" color="#000000" enable-background="accumulate" fill="#888a85" filter="url(#bs)"/><rect transform="scale(-1,1)" x="-600" y="180" width="8" height="71.75" color="#000000" enable-background="accumulate" fill="url(#bh)" opacity=".2"/><rect x="488" y="180" width="8" height="71.75" color="#000000" enable-background="accumulate" fill="url(#bg)"/><rect x="488" y="180" width="112" height="71.75" color="#000000" enable-background="accumulate" fill="url(#bf)"/><path d="m486 189v72h120v-72z" clip-path="url(#ch)" color="#000000" enable-background="accumulate" filter="url(#bq)" opacity=".60063"/><g transform="translate(140)" clip-path="url(#cg)" fill="none"><path d="m404 181.66v-7.6552l-2e-5 -114m-51.172 86.207 51.172 40.69 52.172-40.69" enable-background="new" stroke="url(#as)" stroke-linecap="round" stroke-width="24"/><path d="m400 176.66v-7.6552l-2e-5 -114m-51.172 86.207 51.172 40.69 52.172-40.69" enable-background="new" filter="url(#bm)" stroke="#73d216" stroke-linecap="round" stroke-width="6.8"/><path d="m350.34 149.34 53.625 42.656 54.656-42.625" color="#000000" enable-background="new" filter="url(#cb)" stroke="url(#ar)" stroke-linecap="round" stroke-width="6" style="text-decoration-line:none;text-indent:0;text-transform:none"/><path d="m403.81 47.844c-3.1363 0.049-6.2333 1.3866-8.4193 3.6362s-3.4341 5.3836-3.3932 8.5201v102.03l-31.719-25.219c-2.4498-2.0333-5.7328-3.0304-8.8995-2.7028-3.1668 0.32756-6.1762 1.9755-8.1579 4.4671s-2.91 5.7948-2.5165 8.954c0.39357 3.1592 2.1039 6.1336 4.6364 8.0629l58.594 46.562 59.625-46.5c2.5379-1.9122 4.2625-4.8697 4.6769-8.0202 0.41435-3.1505-0.48694-6.4534-2.4441-8.9567-1.9572-2.5033-4.945-4.1749-8.1024-4.533-3.1574-0.35805-6.4436 0.60206-8.9116 2.6036l-32.781 25.562v-102.31c0.0417-3.1989-1.2599-6.3942-3.525-8.6535s-5.4637-3.5526-8.6626-3.5027z" color="#000000" enable-background="new" filter="url(#bp)" stroke="url(#aq)" stroke-width="3" style="text-decoration-line:none;text-indent:0;text-transform:none"/><g enable-background="new" filter="url(#by)" stroke-width="2"><path d="m403.88 50.875c-2.3562 0.03273-4.6844 1.0352-6.3273 2.7244-1.6429 1.6892-2.5804 4.0444-2.5477 6.4006v108.25l-36.562-29.094c-1.8449-1.4685-4.2829-2.1686-6.6258-1.9024-2.3429 0.26611-4.5619 1.4951-6.0304 3.3399s-2.1686 4.2829-1.9024 6.6258c0.2661 2.3429 1.4951 4.5619 3.3399 6.0304l56.719 45.094 57.781-45.031c1.8574-1.4521 3.1055-3.6599 3.3919-6 0.28647-2.3402-0.39223-4.7838-1.8445-6.6411-1.4522-1.8572-3.6602-3.1052-6.0003-3.3914-2.3402-0.28628-4.7838 0.39263-6.6409 1.845l-37.625 29.344v-108.47c0.0333-2.3979-0.93973-4.7939-2.6354-6.4896-1.6957-1.6957-4.0917-2.6687-6.4896-2.6354z" color="#000000" enable-background="new" stroke="url(#d)" style="text-decoration-line:none;text-indent:0;text-transform:none"/><path d="m403.88 50.875c-2.3562 0.03273-4.6844 1.0352-6.3273 2.7244-1.6429 1.6892-2.5804 4.0444-2.5477 6.4006v108.25l-36.562-29.094c-1.8449-1.4685-4.2829-2.1686-6.6258-1.9024-2.3429 0.26611-4.5619 1.4951-6.0304 3.3399s-2.1686 4.2829-1.9024 6.6258c0.2661 2.3429 1.4951 4.5619 3.3399 6.0304l56.719 45.094 57.781-45.031c1.8574-1.4521 3.1055-3.6599 3.3919-6 0.28647-2.3402-0.39223-4.7838-1.8445-6.6411-1.4522-1.8572-3.6602-3.1052-6.0003-3.3914-2.3402-0.28628-4.7838 0.39263-6.6409 1.845l-37.625 29.344v-108.47c0.0333-2.3979-0.93973-4.7939-2.6354-6.4896-1.6957-1.6957-4.0917-2.6687-6.4896-2.6354z" color="#000000" enable-background="new" stroke="url(#c)" style="text-decoration-line:none;text-indent:0;text-transform:none"/><path d="m403.88 50.875c-2.3562 0.03273-4.6844 1.0352-6.3273 2.7244-1.6429 1.6892-2.5804 4.0444-2.5477 6.4006v108.25l-36.562-29.094c-1.8449-1.4685-4.2829-2.1686-6.6258-1.9024-2.3429 0.26611-4.5619 1.4951-6.0304 3.3399s-2.1686 4.2829-1.9024 6.6258c0.2661 2.3429 1.4951 4.5619 3.3399 6.0304l56.719 45.094 57.781-45.031c1.8574-1.4521 3.1055-3.6599 3.3919-6 0.28647-2.3402-0.39223-4.7838-1.8445-6.6411-1.4522-1.8572-3.6602-3.1052-6.0003-3.3914-2.3402-0.28628-4.7838 0.39263-6.6409 1.845l-37.625 29.344v-108.47c0.0333-2.3979-0.93973-4.7939-2.6354-6.4896-1.6957-1.6957-4.0917-2.6687-6.4896-2.6354z" color="#000000" enable-background="new" stroke="url(#b)" style="text-decoration-line:none;text-indent:0;text-transform:none"/></g></g><g transform="matrix(1.0991 0 0 1.0991 -53.897 -159.07)"><path d="m484 322v72h120v-72z" color="#000000" enable-background="accumulate" fill="url(#be)"/><path d="m484 322v72h120v-72z" color="#000000" enable-background="accumulate" fill="url(#bd)"/><g transform="matrix(1.1227 0 0 1.1227 382.08 213.35)" enable-background="new"><g fill="none"><g transform="matrix(1,0,0,-1,0,240)" filter="url(#u)" mask="url(#j)" opacity=".7"><path d="m155.12 111.03-0.25 1.9688h-21.594l-0.34375-2.7812m-7.875 1.5625 1 4c0.35895 1.8017 2.1004 3.2253 3.9375 3.2188h28c1.7662-3e-3 3.4471-1.3176 3.875-3.0312l1-3" color="#000000" enable-background="new" filter="url(#v)" stroke="#d3d7cf" stroke-width=".86714" style="text-decoration-line:none;text-indent:0;text-transform:none"/><path d="m129 113 1 4h28l1-4" enable-background="new" filter="url(#x)" stroke="#fff" stroke-linecap="round" stroke-linejoin="round" stroke-width="3.4685"/><path d="m128.94 106.94a4.0004 4.0004 0 0 0-3.875 4.8438l1 5a4.0004 4.0004 0 0 0 3.9375 3.2188h28a4.0004 4.0004 0 0 0 3.875-3.0312l1-4a4.0004 4.0004 0 1 0-7.75-1.9375l-0.25 0.96875h-21.594l-0.34375-1.7812a4.0004 4.0004 0 0 0-4-3.2812z" color="#000000" enable-background="new" filter="url(#w)" stroke="#2e3436" stroke-width=".43357" style="text-decoration-line:none;text-indent:0;text-transform:none"/></g><path d="m129 133 4 14h30l-4-14" enable-background="new" filter="url(#t)" opacity=".2" stroke="url(#n)" stroke-linecap="round" stroke-linejoin="round" stroke-width="6.9371"/><g clip-path="url(#ab)"><path d="m129 131-1 5h32l-1-4" stroke="#888a85" stroke-linecap="round" stroke-linejoin="round" stroke-width="6.9371"/><path d="m129 130-1 4h32l-1-4" enable-background="new" filter="url(#y)" stroke="#fff" stroke-linecap="round" stroke-linejoin="round" stroke-width="3.4685"/><path d="m129.12 127.94c-1.824-0.0472-3.5871 1.3164-4 3.0938l-1 3c-0.58543 2.3466 1.4565 4.9649 3.875 4.9688h32c2.4185-4e-3 4.4604-2.6222 3.875-4.9688l-1-3c-0.4782-1.8622-2.4549-3.2102-4.3631-2.9755-1.9082 0.23475-3.4993 3.0216-3.5119 4.9442h-22c0.0332-2.074-1.8017-4.9977-3.875-5.0625z" color="#000000" enable-background="new" filter="url(#aa)" stroke="#d3d7cf" stroke-width=".86714" style="text-decoration-line:none;text-indent:0;text-transform:none"/><path d="m129.12 127.94a4.0004 4.0004 0 0 0-4 3.0938l-1 4a4.0004 4.0004 0 0 0 3.875 4.9688h32a4.0004 4.0004 0 0 0 3.875-4.9688l-1-4a4.0004 4.0004 0 0 0-7.875 0.96875h-22a4.0004 4.0004 0 0 0-3.875-4.0625z" color="#000000" enable-background="new" filter="url(#z)" stroke="#2e3436" stroke-width=".52028" style="text-decoration-line:none;text-indent:0;text-transform:none"/></g></g><circle transform="matrix(.85027 0 0 .85027 20.409 20.857)" cx="127.12" cy="132.62" r="3.25" color="#000000" enable-background="accumulate" fill="#fff" filter="url(#s)"/></g><g transform="translate(400,230)" clip-path="url(#ac)" enable-background="new" fill="none"><path d="m203 92v72" color="#000000" enable-background="accumulate" stroke="url(#h)" stroke-width="1.9471"/><path d="m85 92v72" color="#000000" enable-background="accumulate" stroke="url(#g)" stroke-width="1.9471"/><path d="m84 93h120" enable-background="new" stroke="url(#f)" stroke-width="1.9471"/><path d="m85 93h120v72h-120z" color="#000000" enable-background="accumulate" filter="url(#q)" opacity=".66578" stroke="#fff" stroke-width="5.8414"/><path d="m88.767 162h110.47" enable-background="new" opacity=".3" stroke="url(#e)" stroke-width="1.9471"/><path d="m84 92h120v72h-120z" color="#000000" enable-background="accumulate" filter="url(#r)" stroke="url(#o)" stroke-width="1.9471"/></g></g><path d="m529.49 170.26-34.175-27.197" color="#000000" enable-background="new" fill="none" opacity=".84277" stroke="url(#ao)" stroke-linecap="round" stroke-width="6" style="text-decoration-line:none;text-indent:0;text-transform:none"/><path d="m540 60v108.62" color="#000000" enable-background="new" fill="none" opacity=".84277" stroke="url(#ad)" stroke-linecap="round" stroke-width="6" style="text-decoration-line:none;text-indent:0;text-transform:none"/><path d="m593.72 143.06-36.864 28.751" color="#000000" enable-background="new" fill="none" opacity=".84277" stroke="url(#an)" stroke-linecap="round" stroke-width="6" style="text-decoration-line:none;text-indent:0;text-transform:none"/><circle transform="matrix(.97475 0 0 .67144 13.732 20.233)" cx="543.75" cy="54.5" r="7" color="#000000" enable-background="accumulate" fill="url(#a)" opacity=".84277"/><circle transform="matrix(.87373 0 0 .67144 17.659 107.23)" cx="543.75" cy="54.5" r="7" color="#000000" enable-background="accumulate" fill="url(#a)" opacity=".84277"/><circle transform="matrix(.87373 0 0 .67144 121.66 107.23)" cx="543.75" cy="54.5" r="7" color="#000000" enable-background="accumulate" fill="url(#a)" opacity=".84277"/><path d="m548 60v108.62" color="#000000" enable-background="new" fill="none" opacity=".15409" stroke="url(#am)" stroke-linecap="round" stroke-width="6" style="text-decoration-line:none;text-indent:0;text-transform:none"/></g></g></g></svg>
