<?xml version="1.0" encoding="UTF-8"?>
<svg enable-background="new" version="1.0" viewBox="0 0 256 256" xmlns="http://www.w3.org/2000/svg" xmlns:xlink="http://www.w3.org/1999/xlink"><defs><linearGradient id="b"><stop stop-color="#fff" offset="0"/><stop stop-color="#fff" stop-opacity="0" offset="1"/></linearGradient><linearGradient id="c"><stop offset="0"/><stop stop-opacity="0" offset="1"/></linearGradient><linearGradient id="da"><stop stop-color="#729fcf" offset="0"/><stop stop-color="#3465a4" offset=".15824"/><stop stop-color="#729fcf" offset=".4673"/><stop stop-color="#729fcf" offset=".70375"/><stop stop-color="#3465a4" offset="1"/></linearGradient><linearGradient id="co"><stop offset="0"/><stop stop-color="#555753" stop-opacity="0" offset="1"/></linearGradient><linearGradient id="cq"><stop stop-color="#2e3436" offset="0"/><stop stop-color="#555753" stop-opacity="0" offset="1"/></linearGradient><linearGradient id="s"><stop stop-color="#888a85" offset="0"/><stop stop-color="#2e3436" offset="1"/></linearGradient><linearGradient id="j"><stop stop-color="#eeeeec" stop-opacity="0" offset="0"/><stop stop-color="#fff" stop-opacity=".498" offset=".2175"/><stop stop-color="#fff" offset=".49552"/><stop stop-color="#fff" stop-opacity=".498" offset=".76177"/><stop stop-color="#eeeeec" stop-opacity="0" offset="1"/></linearGradient><linearGradient id="de"><stop stop-color="#204a87" offset="0"/><stop stop-color="#3465a4" offset="1"/></linearGradient><linearGradient id="df"><stop stop-color="#555753" offset="0"/><stop stop-color="#2e3436" offset=".71258"/><stop stop-color="#272c2e" offset=".9017"/><stop stop-color="#212527" offset="1"/></linearGradient><linearGradient id="dg"><stop stop-color="#d3d7cf" offset="0"/><stop stop-color="#babdb6" offset=".40768"/><stop stop-color="#888a85" offset=".69224"/><stop offset="1"/></linearGradient><linearGradient id="dh"><stop stop-color="#fff" offset="0"/><stop stop-color="#555753" offset="1"/></linearGradient><linearGradient id="di"><stop stop-color="#555753" offset="0"/><stop offset="1"/></linearGradient><linearGradient id="dj"><stop stop-color="#888a85" offset="0"/><stop stop-color="#555753" offset="1"/></linearGradient><linearGradient id="cl"><stop offset="0"/><stop stop-color="#2e3436" offset="1"/></linearGradient><linearGradient id="cm"><stop stop-color="#2e3436" offset="0"/><stop offset="1"/></linearGradient><linearGradient id="cn"><stop stop-color="#555753" offset="0"/><stop stop-color="#2e3436" offset=".5887"/><stop stop-color="#272c2e" offset=".9017"/><stop stop-color="#212527" offset="1"/></linearGradient><linearGradient id="a"><stop stop-color="#babdb6" offset="0"/><stop stop-color="#888a85" offset="1"/></linearGradient><linearGradient id="cs"><stop stop-color="#555753" offset="0"/><stop stop-color="#555753" stop-opacity="0" offset="1"/></linearGradient><linearGradient id="ct"><stop stop-color="#2e3436" offset="0"/><stop stop-color="#2e3436" stop-opacity="0" offset="1"/></linearGradient><linearGradient id="cv"><stop offset="0"/><stop stop-color="#fff" stop-opacity="0" offset="1"/></linearGradient><linearGradient id="cp"><stop stop-color="#555753" offset="0"/><stop stop-color="#2e3436" offset="1"/></linearGradient><linearGradient id="cr"><stop stop-color="#eeeeec" offset="0"/><stop stop-color="#babdb6" offset=".40031"/><stop stop-color="#eeeeec" offset=".49996"/><stop stop-color="#bbbeb7" offset=".53707"/><stop stop-color="#eeeeec" offset=".57878"/><stop stop-color="#babdb6" offset=".61816"/><stop stop-color="#babdb6" offset="1"/></linearGradient><linearGradient id="cu"><stop stop-color="#555753" offset="0"/><stop stop-color="#4b4e4b" offset=".43052"/><stop stop-color="#555753" offset=".5"/><stop stop-color="#373c3d" offset=".53707"/><stop stop-color="#5f615d" offset=".58801"/><stop stop-color="#555753" offset=".62274"/><stop stop-color="#2e3436" offset="1"/></linearGradient><linearGradient id="i"><stop stop-color="#555753" offset="0"/><stop stop-color="#babdb6" offset="1"/></linearGradient><clipPath id="bv"><path d="m46.446 96.014s-14.446 39.2-14.446 51.986v50c0 1.108 3.345 2 7.5 2h217c4.155 0 7.5-0.892 7.5-2v-50c0-15.95-14.316-52.046-14.316-52.046-1.7166-3.8976-3.6887-3.9544-5.6837-3.9544h-192c-2.0511 0-3.9741-8e-3 -5.5541 4.0143z" enable-background="new" fill="#babdb6"/></clipPath><filter id="bl" color-interpolation-filters="sRGB"><feGaussianBlur stdDeviation="0.86"/></filter><clipPath id="bw"><path d="m57.625 184c-0.90256 0-1.625 0.90501-1.625 2.0312l-7.8438 39.219c-0.1026 0.24338-0.15625 0.49969-0.15625 0.78125v15.938c0 1.1262 0.905 2.0312 2.0312 2.0312h15.938c1.1262 0 2.0312-0.90501 2.0312-2.0312l4.0312-40v-15.938c0-1.1262-0.72244-2.0312-1.625-2.0312z" enable-background="new" fill="#808080"/></clipPath><filter id="g" color-interpolation-filters="sRGB"><feGaussianBlur stdDeviation="0.56640625"/></filter><clipPath id="h"><rect x="48" y="148" width="36" height="32" enable-background="new" fill="#232829"/></clipPath><filter id="f" x="-.11277" y="-.040873" width="1.2255" height="1.0817" color-interpolation-filters="sRGB"><feGaussianBlur stdDeviation="1.3289063"/></filter><clipPath id="bu"><path d="m57.625 184c-0.90256 0-1.625 0.90501-1.625 2.0312 0 0-7.5433 37.717-7.8438 39.219-0.1026 0.24338-0.15625 0.49969-0.15625 0.78125v15.938c0 1.1262 0.90501 2.0312 2.0312 2.0312h15.938c1.1262 0 2.0312-0.90501 2.0312-2.0312l4.0312-40v-15.938c0-1.1262-0.72244-2.0312-1.625-2.0312z" enable-background="new" fill="#808080"/></clipPath><filter id="bj" color-interpolation-filters="sRGB"><feGaussianBlur stdDeviation="0.42515625"/></filter><filter id="e" color-interpolation-filters="sRGB"><feGaussianBlur stdDeviation="0.45034723"/></filter><clipPath id="bt"><rect x="40" y="392.75" width="216" height="51.25" rx="5.125" ry="2.125" enable-background="new" fill="#808080"/></clipPath><filter id="bi" color-interpolation-filters="sRGB"><feGaussianBlur stdDeviation="0.678125"/></filter><clipPath id="by"><path d="m75 302-5 66.656v4.0938c0 0.68554 0.56446 1.25 1.25 1.25h129.5c0.68554 0 1.25-0.56447 1.25-1.25v-4.0938l-5-66.656z" enable-background="new" fill="#999"/></clipPath><clipPath id="bx"><path d="m73.812 282-3.8125 50.656v4.0938c0 0.68554 0.56446 1.25 1.25 1.25h129.5c0.68554 0 1.25-0.56447 1.25-1.25v-4.0938l-3.8125-50.656z" enable-background="new" fill="#808080"/></clipPath><filter id="bs" color-interpolation-filters="sRGB"><feGaussianBlur stdDeviation="0.475"/></filter><filter id="br" color-interpolation-filters="sRGB"><feGaussianBlur stdDeviation="0.515"/></filter><filter id="bq" color-interpolation-filters="sRGB"><feGaussianBlur stdDeviation="0.59507812"/></filter><filter id="dx" color-interpolation-filters="sRGB"><feGaussianBlur stdDeviation="2.2340656"/></filter><filter id="bk" color-interpolation-filters="sRGB"><feGaussianBlur stdDeviation="0.28993849"/></filter><filter id="bp" x="-.098333" y="-1.062" width="1.1967" height="3.124" color-interpolation-filters="sRGB"><feGaussianBlur stdDeviation="8.85"/></filter><filter id="bo" x="-.013111" y="-.1416" width="1.0262" height="1.2832" color-interpolation-filters="sRGB"><feGaussianBlur stdDeviation="1.18"/></filter><filter id="bn" color-interpolation-filters="sRGB"><feGaussianBlur stdDeviation="1.8432583"/></filter><filter id="bm" x="-.17614" y="-.087863" width="1.3523" height="1.1757" color-interpolation-filters="sRGB"><feGaussianBlur stdDeviation="0.28829903"/></filter><clipPath id="dz"><rect x="460" y="346" width="152" height="16" enable-background="new" fill="#666"/></clipPath><filter id="dl" x="-.068571" y="-.48" width="1.1371" height="1.96" color-interpolation-filters="sRGB"><feGaussianBlur stdDeviation="3.2"/></filter><clipPath id="eb"><path d="m79.682 472s-6.0568 40.036-2.6818 57.286h118c3.25-17.25-2.6818-57.286-2.6818-57.286z" enable-background="new" fill="#999"/></clipPath><filter id="dw" color-interpolation-filters="sRGB"><feGaussianBlur stdDeviation="2.2340656"/></filter><clipPath id="ea"><path d="m79.682 472s-6.0568 40.036-2.6818 57.286h118c3.25-17.25-2.6818-57.286-2.6818-57.286z" enable-background="new" fill="#999"/></clipPath><clipPath id="dy"><rect x="460" y="346" width="152" height="16" enable-background="new" fill="#666"/></clipPath><filter id="dk" x="-.068571" y="-.48" width="1.1371" height="1.96" color-interpolation-filters="sRGB"><feGaussianBlur stdDeviation="3.2"/></filter><linearGradient id="v" x1="134.23" x2="114.72" y1="175.55" y2="250.05" gradientUnits="userSpaceOnUse"><stop offset="0"/><stop stop-opacity="0" offset="1"/></linearGradient><linearGradient id="u" x1="139.5" x2="139.5" y1="181.31" y2="229.29" gradientTransform="translate(0,170)" gradientUnits="userSpaceOnUse" xlink:href="#j"/><linearGradient id="t" x1="121.62" x2="121.62" y1="311.31" y2="295.98" gradientUnits="userSpaceOnUse"><stop stop-color="#fff" offset="0"/><stop stop-color="#fff" stop-opacity="0" offset="1"/></linearGradient><linearGradient id="cz" x1="130.33" x2="130.33" y1="341.99" y2="346" gradientTransform="translate(-8.4473e-8 130)" gradientUnits="userSpaceOnUse"><stop offset="0"/><stop stop-opacity="0" offset="1"/></linearGradient><linearGradient id="cy" x1="139.5" x2="139.5" y1="181.31" y2="229.29" gradientTransform="translate(-8.4472e-8 300)" gradientUnits="userSpaceOnUse" xlink:href="#j"/><clipPath id="ed"><path d="m162.18 449.09c17.28 0 30.061 13.213 29.85 30.082-3.3576 16.869-18.934 30.082-36.215 30.082-17.28 0-30.061-13.213-29.849-30.082 3.3575-16.869 18.934-30.082 36.215-30.082z" color="#000000" enable-background="new" fill="#888a85"/></clipPath><filter id="dr" x="-.21127" y="-.42254" width="1.4225" height="1.8451" color-interpolation-filters="sRGB"><feGaussianBlur stdDeviation="3.5211268"/></filter><filter id="do" x="-.32535" y="-.6507" width="1.6507" height="2.3014" color-interpolation-filters="sRGB"><feGaussianBlur stdDeviation="5.4225352"/></filter><filter id="dp" x="-.36582" y="-.73163" width="1.7316" height="2.4633" color-interpolation-filters="sRGB"><feGaussianBlur stdDeviation="6.0969372"/></filter><filter id="dq" x="-.64875" y="-1.2975" width="2.2975" height="3.595" color-interpolation-filters="sRGB"><feGaussianBlur stdDeviation="10.812478"/></filter><linearGradient id="dd"><stop stop-color="#ece9e4" offset="0"/><stop stop-color="#ece9e4" stop-opacity="0" offset="1"/></linearGradient><filter id="du" color-interpolation-filters="sRGB"><feGaussianBlur stdDeviation="2.0322581"/></filter><filter id="dt" color-interpolation-filters="sRGB"><feGaussianBlur stdDeviation="1.6733871"/></filter><clipPath id="ec"><path d="m-572 146-119 118c-14 16 4 34 20 24l135-107z" color="#000000" enable-background="accumulate" fill="none" stroke="#0e0d0b" stroke-width="4.1717"/></clipPath><filter id="dm" color-interpolation-filters="sRGB"><feGaussianBlur stdDeviation="1.5245587"/></filter><filter id="dv" color-interpolation-filters="sRGB"><feGaussianBlur stdDeviation="2.1612349"/></filter><filter id="ds" color-interpolation-filters="sRGB"><feGaussianBlur stdDeviation="1.2789445"/></filter><radialGradient id="ck" cx="253.66" cy="265.8" r="33.527" gradientTransform="matrix(1 0 0 .62505 0 98.238)" gradientUnits="userSpaceOnUse"><stop offset="0"/><stop stop-opacity="0" offset="1"/></radialGradient><radialGradient id="cj" cx="260.79" cy="264.24" r="32.312" gradientTransform="matrix(.74743 0 0 .39587 65.868 158.58)" gradientUnits="userSpaceOnUse" xlink:href="#c"/><radialGradient id="ci" cx="272.9" cy="259.74" r="32.312" fx="252.1" fy="261.25" gradientTransform="matrix(.9761 0 0 .8851 4.5939 29.307)" gradientUnits="userSpaceOnUse" xlink:href="#c"/><linearGradient id="cx" x1="-579.91" x2="-601" y1="198.92" y2="174.92" gradientUnits="userSpaceOnUse"><stop stop-color="#302c26" offset="0"/><stop stop-color="#897862" offset="1"/></linearGradient><radialGradient id="k" cx="-474" cy="233.42" r="64" gradientTransform="matrix(-.72785 -.68574 1.7812 -1.8906 -1234.8 351.27)" gradientUnits="userSpaceOnUse" xlink:href="#dd"/><radialGradient id="ch" cx="-353" cy="130.67" r="44" gradientTransform="matrix(1.8746 0 0 1.6616 122.73 -34.113)" gradientUnits="userSpaceOnUse"><stop stop-color="#729fcf" offset="0"/><stop stop-color="#729fcf" stop-opacity="0" offset="1"/></radialGradient><radialGradient id="cg" cx="-411.31" cy="300.55" r="5.0563" gradientTransform="matrix(1 0 0 2.5958 0 -478.54)" gradientUnits="userSpaceOnUse"><stop stop-color="#fff" offset="0"/><stop stop-color="#fff" stop-opacity="0" offset="1"/></radialGradient><linearGradient id="cw" x1="-612.6" x2="-633.69" y1="221.22" y2="194.45" gradientUnits="userSpaceOnUse"><stop stop-color="#0e0d0b" offset="0"/><stop stop-color="#0e0d0b" stop-opacity="0" offset="1"/></linearGradient><radialGradient id="cf" cx="-422.93" cy="144.41" r="100.5" gradientTransform="matrix(2.187 0 0 2.187 571.31 -319.43)" gradientUnits="userSpaceOnUse"><stop stop-color="#6161d1" offset="0"/><stop stop-color="#090b27" offset="1"/></radialGradient><radialGradient id="ce" cx="-229.5" cy="101.5" r="88.5" gradientTransform="matrix(1.0354 -.02041 -.02041 1.0118 7.565 -4.3677)" gradientUnits="userSpaceOnUse"><stop stop-color="#6969ed" offset="0"/><stop stop-color="#6969ed" stop-opacity="0" offset="1"/></radialGradient><radialGradient id="cd" cx="-349.5" cy="-29.5" r="91.5" gradientTransform="matrix(1.9345 -.0093148 -.0093148 1.9238 327.22 25.51)" gradientUnits="userSpaceOnUse"><stop stop-color="#090b27" offset="0"/><stop stop-color="#090b27" stop-opacity="0" offset="1"/></radialGradient><radialGradient id="cc" cx="-184.35" cy="104.53" r="108.28" gradientUnits="userSpaceOnUse"><stop stop-color="#cdcdf5" offset="0"/><stop stop-color="#6262de" offset="1"/></radialGradient><radialGradient id="cb" cx="-184.35" cy="104.53" r="108.28" gradientTransform="matrix(1.5494 0 0 1.5494 101.29 -57.433)" gradientUnits="userSpaceOnUse"><stop stop-color="#cdcdf5" offset="0"/><stop stop-color="#6262de" stop-opacity=".12429" offset="1"/></radialGradient><radialGradient id="ca" cx="-194" cy="128.91" r="83" gradientUnits="userSpaceOnUse"><stop stop-color="#ece9e4" stop-opacity="0" offset="0"/><stop stop-color="#d3d0cc" stop-opacity=".18824" offset=".55556"/><stop stop-color="#363636" stop-opacity=".9435" offset="1"/></radialGradient><radialGradient id="bz" cx="-627" cy="71" r="29" gradientTransform="matrix(1 0 0 .58621 0 29.379)" gradientUnits="userSpaceOnUse"><stop stop-color="#fff" offset="0"/><stop stop-color="#fff" stop-opacity="0" offset="1"/></radialGradient><filter id="dn" color-interpolation-filters="sRGB"><feGaussianBlur stdDeviation="5.3607855"/></filter><linearGradient id="bh" x1="235.5" x2="235.5" y1="442.38" y2="422.55" gradientUnits="userSpaceOnUse" xlink:href="#cm"/><linearGradient id="bg" x1="148" x2="148" y1="91.991" y2="200.01" gradientUnits="userSpaceOnUse" xlink:href="#cu"/><radialGradient id="r" cx="148" cy="146" r="114.5" gradientTransform="matrix(2.3677 4.5415e-8 0 .39389 -202.42 88.493)" gradientUnits="userSpaceOnUse" xlink:href="#b"/><linearGradient id="bf" x1="173.5" x2="173.5" y1="91.831" y2="200.17" gradientUnits="userSpaceOnUse" xlink:href="#cr"/><radialGradient id="q" cx="148" cy="128.61" r="100" gradientTransform="matrix(2.5791 0 0 .52549 -233.71 59.932)" gradientUnits="userSpaceOnUse" xlink:href="#b"/><linearGradient id="be" x1="214.25" x2="214.25" y1="116.74" y2="118.89" gradientTransform="matrix(.94364 0 0 1 8.3371 0)" gradientUnits="userSpaceOnUse" xlink:href="#cv"/><linearGradient id="bd" x1="131" x2="135" y1="133.05" y2="55.407" gradientTransform="matrix(.94364 0 0 1 9.0448 0)" gradientUnits="userSpaceOnUse" xlink:href="#cp"/><linearGradient id="bc" x1="132.76" x2="132.76" y1="115.21" y2="112" gradientTransform="matrix(.94364 0 0 .74992 8.3371 28.009)" gradientUnits="userSpaceOnUse" xlink:href="#a"/><linearGradient id="bb" x1="201.51" x2="201.51" y1="104.12" y2="111.9" gradientUnits="userSpaceOnUse" xlink:href="#ct"/><linearGradient id="ba" x1="205.12" x2="205.12" y1="101.92" y2="111.78" gradientUnits="userSpaceOnUse" xlink:href="#cs"/><linearGradient id="az" x1="162.9" x2="162.9" y1="115.29" y2="111.87" gradientTransform="matrix(.94364 0 0 .74992 8.3371 28.009)" gradientUnits="userSpaceOnUse" xlink:href="#a"/><linearGradient id="ay" x1="146" x2="146" y1="115.09" y2="110.15" gradientTransform="matrix(.94364 0 0 .74992 8.3371 28.009)" gradientUnits="userSpaceOnUse" xlink:href="#a"/><linearGradient id="ax" x1="133.64" x2="133.64" y1="107.07" y2="103.99" gradientTransform="matrix(.94364 0 0 .56239 8.3371 48.263)" gradientUnits="userSpaceOnUse" xlink:href="#a"/><linearGradient id="aw" x1="162.28" x2="162.28" y1="107.17" y2="103.97" gradientTransform="matrix(.94364 0 0 .74992 8.3371 28.009)" gradientUnits="userSpaceOnUse" xlink:href="#a"/><linearGradient id="av" x1="97.279" x2="101.04" y1="106.75" y2="106" gradientTransform="matrix(.94364 0 0 .74992 8.3371 28.009)" gradientUnits="userSpaceOnUse" xlink:href="#a"/><linearGradient id="au" x1="95.982" x2="99.852" y1="114.67" y2="114" gradientTransform="matrix(.94364 0 0 .74992 8.3371 28.009)" gradientUnits="userSpaceOnUse" xlink:href="#a"/><linearGradient id="at" x1="81.122" x2="81.122" y1="115" y2="112" gradientTransform="matrix(.94364 0 0 .74992 8.3371 28.009)" gradientUnits="userSpaceOnUse" xlink:href="#a"/><linearGradient id="as" x1="82.778" x2="86.58" y1="106.58" y2="106" gradientTransform="matrix(.94364 0 0 .74992 8.3371 28.009)" gradientUnits="userSpaceOnUse" xlink:href="#a"/><linearGradient id="ar" x1="148.56" x2="148.56" y1="118.04" y2="120.63" gradientUnits="userSpaceOnUse" xlink:href="#i"/><linearGradient id="aq" x1="148.56" x2="148.56" y1="118.04" y2="120.41" gradientUnits="userSpaceOnUse" xlink:href="#i"/><linearGradient id="ap" x1="148.56" x2="148.56" y1="118.11" y2="120.42" gradientUnits="userSpaceOnUse" xlink:href="#i"/><linearGradient id="ao" x1="148.12" x2="148.12" y1="112.28" y2="110.93" gradientTransform="matrix(1.3867 0 0 1 -57.231 1)" gradientUnits="userSpaceOnUse" xlink:href="#c"/><linearGradient id="an" x1="147.75" x2="147.75" y1="-111.59" y2="-110.09" gradientTransform="matrix(1.6862 0 0 1 -101.56 -1.221)" gradientUnits="userSpaceOnUse" xlink:href="#b"/><linearGradient id="am" x1="62.742" x2="62.742" y1="232.96" y2="184" gradientUnits="userSpaceOnUse" xlink:href="#cn"/><linearGradient id="al" x1="66.25" x2="69" y1="218.38" y2="223.12" gradientTransform="translate(0,-2)" gradientUnits="userSpaceOnUse" xlink:href="#b"/><linearGradient id="ak" x1="66" x2="66" y1="216.37" y2="225.89" gradientTransform="translate(0,2)" gradientUnits="userSpaceOnUse" xlink:href="#c"/><linearGradient id="aj" x1="48" x2="65.5" y1="202.5" y2="244" gradientUnits="userSpaceOnUse" xlink:href="#s"/><linearGradient id="d" x1="72.005" x2="72.005" y1="179.79" y2="162.84" gradientUnits="userSpaceOnUse" xlink:href="#c"/><linearGradient id="ai" x1="62.742" x2="62.742" y1="237.92" y2="184" gradientUnits="userSpaceOnUse" xlink:href="#df"/><linearGradient id="ah" x1="66.25" x2="69" y1="218.38" y2="223.12" gradientTransform="matrix(-1 0 0 1 271.28 -2)" gradientUnits="userSpaceOnUse" xlink:href="#b"/><linearGradient id="ag" x1="68" x2="48" y1="194.93" y2="241.43" gradientUnits="userSpaceOnUse" xlink:href="#s"/><linearGradient id="af" x1="66" x2="66" y1="216.37" y2="225.89" gradientTransform="translate(.75 2)" gradientUnits="userSpaceOnUse" xlink:href="#c"/><radialGradient id="p" cx="208.88" cy="205.42" r="6.453" gradientTransform="matrix(4.2176 -1.1301 1.0917 4.0742 -894.94 -384.09)" gradientUnits="userSpaceOnUse" xlink:href="#co"/><linearGradient id="ae" x1="110.75" x2="110.75" y1="179" y2="210.63" gradientTransform="matrix(.98438 0 0 1 2.125 0)" gradientUnits="userSpaceOnUse" xlink:href="#cl"/><radialGradient id="o" cx="53.875" cy="204.12" r="4.25" gradientTransform="matrix(.98837 .15206 -.64706 4.2059 132.71 -662.59)" gradientUnits="userSpaceOnUse" xlink:href="#b"/><radialGradient id="n" cx="53.875" cy="204.12" r="4.25" gradientTransform="matrix(-.98837 .15206 .64706 4.2059 139.04 -662.59)" gradientUnits="userSpaceOnUse" xlink:href="#b"/><radialGradient id="m" cx="69.25" cy="204.94" r="2.5" gradientTransform="matrix(1 0 0 8.325 0 -1501.2)" gradientUnits="userSpaceOnUse" xlink:href="#b"/><linearGradient id="ad" x1="210.62" x2="216.73" y1="189.5" y2="212.62" gradientUnits="userSpaceOnUse" xlink:href="#c"/><radialGradient id="l" cx="69.25" cy="204.94" r="2.5" gradientTransform="matrix(-1 0 0 8.325 271.5 -1501.2)" gradientUnits="userSpaceOnUse" xlink:href="#b"/><linearGradient id="ac" x1="136" x2="136" y1="243.8" y2="231.5" gradientTransform="matrix(1 0 0 1.6667 0 -31.333)" gradientUnits="userSpaceOnUse" xlink:href="#di"/><linearGradient id="ab" x1="202" x2="202" y1="232.75" y2="242" gradientTransform="translate(0,130)" gradientUnits="userSpaceOnUse" xlink:href="#dj"/><linearGradient id="aa" x1="136" x2="136" y1="235.9" y2="216.4" gradientTransform="matrix(1 0 0 1.6667 0 -67.333)" gradientUnits="userSpaceOnUse" xlink:href="#dg"/><linearGradient id="z" x1="202" x2="202" y1="240" y2="242.88" gradientTransform="translate(0,94)" gradientUnits="userSpaceOnUse" xlink:href="#dh"/><linearGradient id="y" x1="184" x2="184" y1="230.87" y2="232.26" gradientUnits="userSpaceOnUse" xlink:href="#de"/><linearGradient id="x" x1="206.5" x2="207.25" y1="188.5" y2="212.38" gradientUnits="userSpaceOnUse" xlink:href="#cq"/><linearGradient id="w" x1="211" x2="211" y1="202.69" y2="209.13" gradientTransform="matrix(1.3626 0 0 1.3626 -76.479 -76.266)" gradientUnits="userSpaceOnUse" xlink:href="#da"/><linearGradient id="dc" x1="130.33" x2="130.33" y1="341.99" y2="346" gradientTransform="translate(0,130)" gradientUnits="userSpaceOnUse"><stop offset="0"/><stop stop-opacity="0" offset="1"/></linearGradient><linearGradient id="db" x1="139.5" x2="139.5" y1="181.31" y2="229.29" gradientTransform="translate(0,300)" gradientUnits="userSpaceOnUse" xlink:href="#j"/></defs><g transform="translate(-820,-36)"><g><g transform="translate(800,-300)" enable-background="new"><g transform="translate(0,300)"><rect x="40" y="185" width="216" height="20" enable-background="new" filter="url(#bp)" opacity=".5"/><rect x="40" y="185" width="216" height="20" rx="2.2981" ry="2.2981" enable-background="new" filter="url(#bo)" opacity=".7"/><g transform="translate(0,-240)" clip-path="url(#bt)" enable-background="new"><rect x="40" y="392.75" width="216" height="51.25" rx="5.125" ry="2.125" enable-background="new" fill="url(#bh)"/><rect x="40" y="392.75" width="216" height="51.25" rx="5.125" ry="2.125" enable-background="new" fill="none" filter="url(#bi)" stroke="#000" stroke-linejoin="round" stroke-width="2"/></g><g clip-path="url(#bv)" enable-background="new"><path d="m46.446 96.014s-14.446 39.2-14.446 51.986v50c0 1.108 3.345 2 7.5 2h217c4.155 0 7.5-0.892 7.5-2v-50c0-15.95-14.316-52.046-14.316-52.046-1.7166-3.8976-3.6887-3.9544-5.6837-3.9544h-192c-2.0511 0-3.9741-8e-3 -5.5541 4.0143z" fill="url(#bg)"/><path d="m48.197 95.089s-14.197 39.926-14.197 52.948v50.926c0 1.1285 3.2873 2.037 7.3707 2.037h213.26c4.0834 0 7.3707-0.90852 7.3707-2.037v-50.926c0-16.245-14.069-53.009-14.069-53.009-1.687-3.9698-3.6251-4.0276-5.5857-4.0276h-188.69c-2.0157 0-3.9055-0.0082-5.4583 4.0886z" enable-background="new" fill="none" opacity=".3" stroke="url(#r)" stroke-linejoin="round"/><path transform="matrix(-1,0,0,1,272,0)" d="m66.25 143.03-8.5312 41.094h14.844l4.7188-41.094z" enable-background="new" fill="#0c0e0e" filter="url(#g)" opacity=".4" stroke="#000" stroke-linejoin="round"/><path d="m62.926 92c-1.5509 0.05345-2.9918 0.4805-4.2075 4-2e-6 -1e-6 -12.718 39.214-12.718 52v32h204v-32c0-15.95-12.591-52.031-12.591-52.031-1.5094-3.8976-3.2501-3.9688-5.0044-3.9688h-168.81c-0.22544 0-0.44782-0.0076-0.66937 0z" enable-background="new" fill="#fff" opacity=".05"/><path d="m66.25 143.03-8.5312 41.094h14.844l4.7188-41.094z" enable-background="new" fill="#0c0e0e" filter="url(#g)" opacity=".4" stroke="#000" stroke-linejoin="round"/><path d="m63.76 92c-1.5357 0.05345-2.9625 0.4805-4.1663 4-2e-6 -1e-6 -12.593 39.214-12.593 52v32h202v-32c0-15.95-12.467-52.031-12.467-52.031-1.4946-3.8976-3.2183-3.9688-4.9553-3.9688h-167.16c-0.22323 0-0.44343-0.0076-0.66281 0z" enable-background="new" opacity=".49"/><path d="m64.594 92c-1.5205 0.05345-2.9332 0.4805-4.125 4-2e-6 -1e-6 -12.469 39.214-12.469 52v32h200v-32c0-15.95-12.344-52.031-12.344-52.031-1.4798-3.8976-3.1864-3.9688-4.9062-3.9688h-165.5c-0.22102 0-0.43904-0.0076-0.65625 0z" enable-background="new" fill="url(#bf)"/><path d="m32 178v1c0 1.108 3.345 2 7.5 2h217c4.155 0 7.5-0.892 7.5-2v-1c0 1.108-3.345 2-7.5 2h-217c-4.155 0-7.5-0.892-7.5-2z" enable-background="new" opacity=".49"/><path d="m32 179v1c0 1.108 3.345 2 7.5 2h32.5v17.312h128v-17.312h56.5c4.155 0 7.5-0.892 7.5-2v-1c0 1.108-3.345 2-7.5 2h-217c-4.155 0-7.5-0.892-7.5-2z" enable-background="new" fill="#fff" opacity=".05"/><path d="m46.446 96.014s-14.446 39.2-14.446 51.986v50c0 1.108 3.345 2 7.5 2h217c4.155 0 7.5-0.892 7.5-2v-50c0-15.95-14.316-52.046-14.316-52.046-1.7166-3.8976-3.6887-3.9544-5.6837-3.9544h-192c-2.0511 0-3.9741-8e-3 -5.5541 4.0143z" enable-background="new" fill="none" filter="url(#bl)" stroke="#000" stroke-linejoin="round"/><path d="m247.5 180v-32c0-15.95-12.282-52.031-12.282-52.031-1.4724-3.8976-3.1705-3.9688-4.8817-3.9688m-164.67 0c-0.21992 0-0.43685-0.0076-0.65297 0-1.5128 0.05345-2.9185 0.4805-4.1044 4-2e-6 -1e-6 -12.406 39.214-12.406 52v32" enable-background="new" fill="none" stroke="url(#q)" stroke-linejoin="round"/></g><rect x="57" y="183" width="16.028" height="20" rx="1.6292" ry="2.0329" enable-background="new" filter="url(#e)"/><path d="m72.569 100c-2.1608 0-4.1894 1.8518-4.6825 4.125l-3.579 16.5c-0.49308 2.2732 0.941 4.125 3.1018 4.125h95.768c4.0149 0 15.318-8.25 19.356-8.25h45.99c2.0933 0 3.5272-1.8038 3.0123-3.9961l-1.9983-8.5078c-0.51492-2.1923-2.4699-3.9961-4.5632-3.9961z" enable-background="new"/><path d="m182.47 112c0.32249 2.5522 0.64973 5.2022 0.97313 8h44.941c-0.63704-2.8114-1.2813-5.4359-1.9168-8z" enable-background="new" fill="url(#be)"/><path d="m73.419 100c-2.1364 0-4.1422 1.7957-4.6297 4l-3.5386 16c-0.48752 2.2043 0.93039 4 3.0668 4h94.688c3.9696 0 15.145-8 19.138-8h45.472c2.0697 0 3.4875-1.7491 2.9784-3.875l-1.9757-8.25c-0.50913-2.1259-2.4421-3.875-4.5118-3.875z" enable-background="new" fill="url(#bd)"/><path d="m84.094 106c-0.48672 0.0397-0.90779 0.32943-1.0321 0.78125-0.14222 0.49517-0.27184 1.0044-0.41284 1.5-0.08801 0.31214 0.0038 0.64297 0.23591 0.875 0.23464 0.23459 0.5749 0.34182 0.91415 0.34375h4.9246c0.5283-6e-3 1.0291-0.27767 1.1501-0.78125 0.13264-0.52302 0.25895-1.0176 0.38335-1.5 0.07768-0.32347-0.03533-0.65088-0.2654-0.875-0.22463-0.21883-0.54882-0.34011-0.88466-0.34375h-4.8951c-0.03518-1e-3 -0.05329-1e-3 -0.08847 0-0.0098-6.3e-4 -0.01967-6.3e-4 -0.02949 0zm13.624 0c-0.49997 0.0433-0.92374 0.34639-1.0321 0.8125-0.11322 0.497-0.21227 1.0036-0.32438 1.5-0.07631 0.31775 0.04614 0.63016 0.2654 0.84375 0.22463 0.21883 0.54882 0.34011 0.88466 0.34375h4.9246c0.55529 5e-3 1.074-0.2825 1.1796-0.8125 0.10203-0.52285 0.19923-1.0187 0.29489-1.5 0.0614-0.30863-0.0487-0.64882-0.29489-0.875-0.24328-0.22353-0.55807-0.31566-0.88466-0.3125h-4.8951c-0.03518-1e-3 -0.05329-1e-3 -0.08847 0-0.0098-6.3e-4 -0.01967-6.3e-4 -0.02949 0zm30.255 0c-0.53857 0.0422-0.99058 0.38485-1.0321 0.90625-0.0355 0.51708-0.053 1.0088-0.0885 1.5312-0.0218 0.28559 0.0883 0.5815 0.32437 0.78125 0.23279 0.19695 0.52963 0.2808 0.82568 0.28125h8.7876c0.29205-7.2e-4 0.55471-0.092 0.76672-0.25 0.212-0.15804 0.37043-0.40133 0.38335-0.6875 0.0267-0.54651 0.0641-1.0775 0.0885-1.5625 0.0106-0.29566-0.13287-0.5687-0.35386-0.75-0.22097-0.18126-0.50165-0.24923-0.7962-0.25h-8.7876c-0.0353-1e-3 -0.0531-1e-3 -0.0885 0-0.01-6.3e-4 -0.0197-6.3e-4 -0.0295 0zm31.052 0c-0.28759 0.0229-0.54391 0.13691-0.73722 0.3125-0.1933 0.17559-0.30667 0.40697-0.29488 0.6875 0.0257 0.51562 0.0628 1.037 0.0885 1.5625 0.0129 0.28617 0.17135 0.52946 0.38336 0.6875s0.47467 0.24928 0.76671 0.25h8.8171c0.29606-4.5e-4 0.59289-0.0843 0.82569-0.28125 0.23615-0.19976 0.34618-0.49567 0.32438-0.78125-0.0418-0.53437-0.078-1.0282-0.11796-1.5312-0.0478-0.55778-0.57145-0.9056-1.1501-0.90625h-8.7876c-0.0353-1e-3 -0.0531-1e-3 -0.0885 0-0.01-6.3e-4 -0.0197-6.3e-4 -0.0295 0zm-17.044 4c-0.55369 0.0441-1.0113 0.4337-1.0321 0.96875-0.0162 0.52364-0.0456 0.76731-0.059 0.90625s-0.0116 0.14898-0.0295 0.25c-0.0358 0.20203-0.0677 0.59035-0.11795 2.375-0.0106 0.29565 0.13286 0.56869 0.35387 0.75 0.22097 0.18126 0.50164 0.24923 0.79619 0.25h12.238c0.29455-7.7e-4 0.57522-0.0687 0.7962-0.25s0.36444-0.45434 0.35386-0.75c-0.0537-1.8373-0.0715-2.2068-0.11795-2.4062-0.0232-0.0997-0.0438-0.0906-0.059-0.21875-0.0152-0.12811-0.0409-0.37414-0.059-0.90625-0.0258-0.57169-0.5563-0.96729-1.1501-0.96875h-11.796c-0.0353-1e-3 -0.0531-1e-3 -0.0885 0-0.01-6.3e-4 -0.0197-6.3e-4 -0.0295 0zm-59.538 2c-0.48672 0.0397-0.90779 0.32943-1.0321 0.78125-0.12775 0.47669-0.27577 0.97935-0.41284 1.5-0.08801 0.31214 0.0038 0.64297 0.23591 0.875 0.23464 0.23459 0.5749 0.34182 0.91415 0.34375h5.131c0.5283-6e-3 1.0291-0.27767 1.1501-0.78125 0.11839-0.50593 0.23688-1.0053 0.35386-1.5 0.07768-0.32347-0.03533-0.65088-0.2654-0.875-0.22463-0.21883-0.54882-0.34011-0.88466-0.34375h-5.0721c-0.03518-1e-3 -0.05329-1e-3 -0.08847 0-0.0098-6.3e-4 -0.01967-6.3e-4 -0.02949 0zm13.978 0c-0.51555 0.0337-0.96529 0.31804-1.0616 0.8125-0.10802 0.49511-0.21601 0.99853-0.32438 1.5-0.06142 0.30863 0.04875 0.64882 0.29489 0.875 0.24328 0.22354 0.55808 0.31566 0.88466 0.3125h5.131c0.56933 4e-3 1.0932-0.33083 1.1796-0.875 0.0885-0.50459 0.17779-0.97286 0.2654-1.4688 5.9e-4 -0.0104 5.9e-4 -0.0208 0-0.0313 0.0499-0.31514-0.0915-0.60429-0.32438-0.8125-0.23285-0.20818-0.53157-0.31449-0.85517-0.3125h-5.0721c-0.03518-1e-3 -0.05329-1e-3 -0.08847 0-0.0098-6.3e-4 -0.01967-6.3e-4 -0.02949 0zm34.885 0c-0.53856 0.0422-0.99058 0.38485-1.0321 0.90625-0.0362 0.52223-0.0547 1.0336-0.0885 1.5312-0.0218 0.28559 0.0882 0.58149 0.32437 0.78125 0.2328 0.19695 0.52965 0.28079 0.82568 0.28125h5.19c0.29205-7.2e-4 0.55471-0.092 0.76672-0.25 0.212-0.15804 0.37043-0.40133 0.38335-0.6875 0.0247-0.50549 0.064-1.0879 0.0885-1.5625 0.0106-0.29565-0.13286-0.56869-0.35386-0.75-0.22097-0.18126-0.50165-0.24923-0.7962-0.25h-5.19c-0.0353-1e-3 -0.0531-1e-3 -0.0885 0-0.01-6.3e-4 -0.0197-6.3e-4 -0.0295 0zm27.985 0c-0.28759 0.0229-0.54391 0.13691-0.73722 0.3125-0.1933 0.17559-0.30667 0.40697-0.29488 0.6875 0.0258 0.50834 0.0635 1.0524 0.0885 1.5625 0.0129 0.28617 0.17135 0.52946 0.38335 0.6875 0.21201 0.15804 0.47467 0.24928 0.76672 0.25h5.2195c0.29606-4.5e-4 0.5929-0.0843 0.82569-0.28125 0.23614-0.19976 0.34618-0.49567 0.32438-0.78125-0.04-0.50827-0.0772-1.0226-0.11796-1.5312-0.0478-0.55778-0.57145-0.9056-1.1501-0.90625h-5.19c-0.0353-1e-3 -0.0531-1e-3 -0.0885 0-0.01-6.3e-4 -0.0197-6.3e-4 -0.0295 0z" enable-background="new" opacity=".7"/><g transform="matrix(1.3337 0 0 1.3337 -19.626 -51.672)" enable-background="new" font-family="'Trebuchet MS'"><text x="52.156456" y="160.68073" enable-background="new" fill="#ffffff" style="line-height:0%" xml:space="preserve"><tspan x="52.156456" y="160.68073" fill="#ffffff" font-size="4.4505px" style="line-height:1.25">Havoc-Pennington</tspan></text><text x="52.156456" y="160.30573" fill="#2e3436" style="line-height:0%" xml:space="preserve"><tspan x="52.156456" y="160.30573" fill="#2e3436" font-size="4.4505px" style="line-height:1.25">Havoc-Pennington</tspan></text></g><path d="m131.33 112c-0.44763 0.0351-0.79727 0.32286-0.82568 0.67962-0.0358 0.51627-0.0542 1.0433-0.0885 1.5467-0.0153 0.20045 0.0741 0.39705 0.24713 0.54342 0.17302 0.14637 0.41433 0.22955 0.66702 0.22994h5.19c0.49286-1e-3 0.89649-0.31163 0.91415-0.70306 0.0249-0.50935 0.0642-1.0757 0.0885-1.5467 7e-3 -0.19649-0.0861-0.38691-0.25815-0.5281-0.17211-0.14118-0.40865-0.22117-0.656-0.22182h-5.19c-0.0295-1e-3 -0.059-1e-3 -0.0885 0z" enable-background="new" fill="url(#bc)"/><path d="m178.4 100c0.40409 3.5652 0.96147 8.9982 1.6809 16.438 0.33463-0.11255 0.64727-0.21137 0.94363-0.28125-0.70339-7.267-1.2761-12.584-1.6809-16.156z" enable-background="new" opacity=".8"/><path d="m179.34 100c0.40409 3.5652 0.96147 8.9982 1.6809 16.438 0.33465-0.11255 0.64728-0.21137 0.94364-0.28125-0.7034-7.267-1.2761-12.584-1.6808-16.156z" enable-background="new" fill="#fff" opacity=".05"/><path transform="matrix(.96182 0 0 1.0806 4.4864 -9.0222)" d="m185.82 104.12c0.25302 2.1997 0.52884 4.7056 0.85351 7.75h44.535l-1.7734-6.9844c-0.0598-0.23584-0.78297-0.76562-0.7832-0.76562z" enable-background="new" fill="url(#bb)"/><path transform="matrix(.94364 0 0 1 8.3371 0)" d="m185.82 104.12c0.25302 2.1997 0.52884 4.7056 0.85351 7.75h44.535l-1.7734-6.9844c-0.0598-0.23584-0.78297-0.76562-0.7832-0.76562z" enable-background="new" fill="url(#ba)"/><path d="m159.32 112c-0.48074 0.0382-0.84181 0.36618-0.82568 0.74992 0.0256 0.50474 0.0633 1.0327 0.0885 1.5467 0.0177 0.39143 0.42129 0.70185 0.91415 0.70306h5.2195c0.2527-3.9e-4 0.49402-0.0836 0.66704-0.22994 0.17302-0.14637 0.26242-0.34297 0.24711-0.54342-0.0401-0.50946-0.0773-1.0396-0.11795-1.5467-0.0328-0.3822-0.43212-0.67908-0.91415-0.67962h-5.19c-0.0295-1e-3 -0.059-1e-3 -0.0885 0z" enable-background="new" fill="url(#az)"/><path d="m142.01 110c-0.45825 0.0365-0.81147 0.33724-0.82569 0.70306-0.065 2.1038-0.10597-0.018-0.20643 3.5461-7e-3 0.1965 0.0861 0.38692 0.25817 0.52811 0.1721 0.14118 0.40864 0.22116 0.65599 0.22182h12.238c0.24735-6.6e-4 0.48389-0.0806 0.65599-0.22182 0.1721-0.14119 0.26519-0.33161 0.25817-0.52811-0.10726-3.6686-0.16341-1.4063-0.23592-3.5461-0.0177-0.39144-0.42129-0.70185-0.91415-0.70306h-11.796c-0.0295-1e-3 -0.059-1e-3 -0.0885 0z" enable-background="new" fill="url(#ay)"/><path d="m128 106c-0.44762 0.0351-0.79726 0.32286-0.82568 0.67962-0.0351 0.5113-0.0526 1.0188-0.0885 1.5467-0.0153 0.20045 0.0741 0.39705 0.24713 0.54342 0.17302 0.14637 0.41433 0.22956 0.66702 0.22994h8.7876c0.49286-1e-3 0.89648-0.31163 0.91415-0.70306 0.0269-0.55028 0.0643-1.0658 0.0885-1.5467 7e-3 -0.19649-0.0861-0.38691-0.25815-0.5281-0.17211-0.14118-0.40865-0.22117-0.656-0.22182h-8.7876c-0.0295-1e-3 -0.059-1e-3 -0.0885 0z" enable-background="new" fill="url(#ax)"/><path d="m159.05 106c-0.48074 0.0382-0.84182 0.36618-0.82569 0.74992 0.0256 0.51174 0.0626 1.0172 0.0885 1.5467 0.0177 0.39143 0.42129 0.70185 0.91415 0.70306h8.8171c0.2527-3.8e-4 0.49402-0.0836 0.66704-0.22994 0.17302-0.14637 0.26242-0.34297 0.24711-0.54342-0.0419-0.53518-0.0781-1.0447-0.11795-1.5467-0.0328-0.3822-0.43212-0.67908-0.91415-0.67962h-8.7876c-0.0295-1e-3 -0.059-1e-3 -0.0885 0z" enable-background="new" fill="url(#aw)"/><g transform="matrix(.94364 0 0 1 8.3371 0)" enable-background="new" fill="#fff" opacity=".5"><path d="m137.12 106.53c-0.0167 0.25749-0.017 0.50644-0.0313 0.78125-0.0187 0.39143-0.44646 0.68629-0.96875 0.6875h-9.3125c-0.26779-3.8e-4 -0.53541-0.0724-0.71875-0.21875-0.11989-0.0957-0.18088-0.21806-0.21875-0.34375-0.0143 0.2616-0.0119 0.51227-0.0313 0.78125-0.0162 0.20046 0.0666 0.41613 0.25 0.5625 0.18334 0.14637 0.45096 0.21837 0.71875 0.21875h9.3125c0.52229-1e-3 0.95002-0.29607 0.96875-0.6875 0.0285-0.55029 0.0681-1.0815 0.0937-1.5625 3e-3 -0.0774-0.0338-0.14584-0.0625-0.21875z" enable-background="new"/><path d="m136.84 112.53c-0.0169 0.26383-0.0181 0.52688-0.0313 0.78125-0.0187 0.39143-0.44646 0.68629-0.96875 0.6875h-5.5c-0.26779-3.9e-4 -0.53541-0.0724-0.71875-0.21875-0.11813-0.0943-0.14891-0.22016-0.1875-0.34375-0.0145 0.26488-0.044 0.52409-0.0625 0.78125-0.0162 0.20045 0.0666 0.41613 0.25 0.5625 0.18334 0.14637 0.45096 0.21836 0.71875 0.21875h5.5c0.52229-1e-3 0.95002-0.29607 0.96875-0.6875 0.0264-0.50935 0.068-1.0915 0.0937-1.5625 3e-3 -0.0774-0.0338-0.14584-0.0625-0.21875z" enable-background="new"/><path d="m140.59 113.38c-0.0115 0.28719-0.0179 0.42948-0.0313 0.875-7e-3 0.19649 0.0989 0.39006 0.28125 0.53125 0.18239 0.14118 0.42538 0.2181 0.6875 0.21875h12.969c0.26212-6.5e-4 0.50512-0.0776 0.6875-0.21875 0.18237-0.14119 0.2887-0.33475 0.28125-0.53125-0.0137-0.44278-0.019-0.58685-0.0313-0.875-0.0302 0.14879-0.10839 0.29662-0.25 0.40625-0.18238 0.14118-0.42538 0.21809-0.6875 0.21875h-12.969c-0.26212-6.6e-4 -0.50511-0.0776-0.6875-0.21875-0.14161-0.10963-0.21982-0.25746-0.25-0.40625z" enable-background="new"/><path d="m159.19 112.53c-0.0256 0.0695-0.0659 0.14313-0.0625 0.21875 0.0272 0.50474 0.0671 1.0485 0.0937 1.5625 0.0187 0.39143 0.44646 0.68629 0.96875 0.6875h5.5312c0.26779-3.9e-4 0.5354-0.0724 0.71875-0.21875 0.18337-0.14637 0.26622-0.36205 0.25-0.5625-0.0191-0.22891-0.044-0.45421-0.0625-0.6875-0.0446 0.0925-0.0958 0.17681-0.1875 0.25-0.18335 0.14637-0.45096 0.21836-0.71875 0.21875h-5.5312c-0.52229-1e-3 -0.95002-0.29607-0.96875-0.6875-0.0133-0.25671-0.0146-0.52222-0.0313-0.78125z" enable-background="new"/><path d="m158.91 106.53c-0.0256 0.0695-0.0659 0.14313-0.0625 0.21875 0.0271 0.51173 0.0663 1.033 0.0937 1.5625 0.0187 0.39143 0.44646 0.68629 0.96875 0.6875h9.3438c0.26779-3.8e-4 0.5354-0.0724 0.71875-0.21875 0.18337-0.14637 0.26622-0.36205 0.25-0.5625-0.0199-0.24046-0.0441-0.45574-0.0625-0.6875-0.0446 0.0925-0.0958 0.17682-0.1875 0.25-0.18335 0.14637-0.45096 0.21837-0.71875 0.21875h-9.3438c-0.52229-1e-3 -0.95002-0.29607-0.96875-0.6875-0.0137-0.26443-0.0146-0.52503-0.0313-0.78125z" enable-background="new"/></g><path d="m97.747 106c-0.41434 0.0359-0.74996 0.28359-0.82568 0.60931-0.11195 0.49143-0.21111 0.99836-0.32438 1.4998-0.05231 0.21783 0.01935 0.44288 0.19574 0.6147 0.17638 0.17183 0.43941 0.27282 0.71842 0.27584h4.9246c0.4686 5e-3 0.87041-0.26489 0.94364-0.63275 0.10205-0.52301 0.19913-1.018 0.29489-1.4998 0.0434-0.21826-0.0365-0.44063-0.21834-0.60777-0.18189-0.16713-0.44727-0.26202-0.7253-0.25933h-4.8951c-0.02947-1e-3 -0.05899-1e-3 -0.08847 0z" enable-background="new" fill="url(#av)"/><path d="m96.449 112c-0.43483 0.0285-0.78844 0.29009-0.85517 0.63275-0.10789 0.49447-0.21595 0.99811-0.32438 1.4998-0.04343 0.21825 0.03646 0.44063 0.21834 0.60776 0.18189 0.16714 0.44726 0.26203 0.7253 0.25934h5.131c0.47834 3e-3 0.88382-0.27901 0.94364-0.65619 0.0886-0.50514 0.17787-1.0043 0.2654-1.4998 0.034-0.21456-0.0502-0.43033-0.231-0.59196-0.18078-0.16163-0.44054-0.25337-0.71264-0.2517h-5.0721c-0.02947-1e-3 -0.05899-1e-3 -0.08847 0z" enable-background="new" fill="url(#au)"/><path d="m82.472 112c-0.40558 0.0331-0.7386 0.26935-0.82568 0.58588-0.12895 0.48117-0.27707 0.98414-0.41284 1.4998-0.0624 0.22129 0.0046 0.45314 0.18212 0.63067 0.17756 0.17753 0.44667 0.28168 0.73203 0.2833h5.131c0.44811-5e-3 0.83013-0.25949 0.91415-0.60932 0.11852-0.50647 0.23692-1.0052 0.35386-1.4998 0.05231-0.21782-0.01935-0.44287-0.19574-0.6147s-0.43941-0.27281-0.71842-0.27583h-5.0721c-0.02947-1e-3 -0.05899-1e-3 -0.08847 0z" enable-background="new" fill="url(#at)"/><path d="m84.123 106c-0.40558 0.0331-0.73859 0.26935-0.82568 0.58588-0.14067 0.48975-0.27045 0.99941-0.41284 1.4998-0.0624 0.22129 0.0046 0.45314 0.18212 0.63067 0.17756 0.17753 0.44667 0.28168 0.73203 0.2833h4.9246c0.44811-5e-3 0.83013-0.25948 0.91415-0.60932 0.13271-0.52329 0.25884-1.017 0.38335-1.4998 0.05231-0.21783-0.01935-0.44288-0.19573-0.6147-0.17638-0.17183-0.43941-0.27282-0.71842-0.27584h-4.8951c-0.02947-1e-3 -0.05899-1e-3 -0.08847 0z" enable-background="new" fill="url(#as)"/><path d="m96.98 106.47c-0.02412 0.0469-0.04705 0.10494-0.05898 0.15625-0.11195 0.49143-0.21111 0.9985-0.32438 1.5-0.05231 0.21782 0.03004 0.42192 0.20642 0.59375 0.17638 0.17183 0.42872 0.27823 0.70773 0.28125h4.9246c0.4686 5e-3 0.87041-0.25714 0.94364-0.625 0.051-0.2615 0.0984-0.50064 0.14745-0.75-0.16587 0.23075-0.50373 0.3784-0.85518 0.375h-4.9246c-0.27901-3e-3 -0.53134-0.10942-0.70773-0.28125-0.17638-0.17183-0.25873-0.37593-0.20642-0.59375 0.04965-0.21983 0.10095-0.4361 0.14744-0.65625zm-6.9593 0.375c-0.04826 0.18922-0.09759 0.36592-0.14744 0.5625-0.08402 0.34984-0.46604 0.5889-0.91415 0.59375h-4.9246c-0.28536-2e-3 -0.53016-0.10372-0.70773-0.28125-0.13317-0.13315-0.20559-0.30186-0.20642-0.46875-0.07639 0.28249-0.15571 0.5619-0.23591 0.84375-0.0624 0.22129-6.34e-4 0.44747 0.17693 0.625 0.17756 0.17753 0.45186 0.27963 0.73722 0.28125h4.9246c0.44811-5e-3 0.83013-0.24391 0.91415-0.59375 0.13271-0.52329 0.25884-1.0172 0.38335-1.5 0.0048-0.0198-0.0027-0.0426 0-0.0625zm5.6029 5.6875c-0.01282 0.0335-0.02258 0.0583-0.02949 0.0937-0.10789 0.49448-0.21595 0.99826-0.32438 1.5-0.04343 0.21826 0.02453 0.45786 0.20642 0.625 0.18189 0.16714 0.45919 0.25269 0.73722 0.25h5.131c0.47834 3e-3 0.88382-0.27907 0.94364-0.65625 0.0424-0.24145 0.0756-0.47977 0.11795-0.71875-0.1679 0.21949-0.48401 0.3771-0.82569 0.375h-5.131c-0.27803 3e-3 -0.52584-0.0829-0.70773-0.25-0.18189-0.16714-0.27935-0.40674-0.23591-0.625 0.04274-0.1978 0.07531-0.39604 0.11796-0.59375zm-14.155 0.71875c-0.07867 0.28075-0.15944 0.5533-0.23591 0.84375-0.0624 0.22129-6.34e-4 0.44747 0.17693 0.625 0.17756 0.17753 0.45186 0.27963 0.73722 0.28125h5.131c0.44811-5e-3 0.83013-0.24391 0.91415-0.59375 0.07901-0.33765 0.1574-0.66815 0.23591-1-0.08402 0.34984-0.46604 0.5889-0.91415 0.59375h-5.131c-0.28536-2e-3 -0.53016-0.10372-0.70773-0.28125-0.13317-0.13315-0.20559-0.30186-0.20642-0.46875z" enable-background="new" fill="#fff" opacity=".5"/><g transform="matrix(.94364 0 0 1 8.3371 0)" enable-background="new" fill="#ffffff" font-family="Arial" opacity=".4"><text transform="skewX(-17.947)" x="114.6119" y="105.1562" enable-background="new" style="line-height:0%" xml:space="preserve"><tspan x="114.6119" y="105.1562" font-size="1.9072px" style="line-height:1.25">antani</tspan></text><text transform="skewX(-17.947)" x="115.55531" y="111.1562" enable-background="new" style="line-height:0%" xml:space="preserve"><tspan x="115.55531" y="111.1562" font-size="1.9072px" style="line-height:1.25">slasti</tspan></text><text transform="skewX(-13.16)" x="120.19939" y="105.1562" enable-background="new" style="line-height:0%" xml:space="preserve"><tspan x="120.19939" y="105.1562" font-size="1.9072px" style="line-height:1.25">super</tspan></text><text transform="skewX(-13.16)" x="119.6023" y="111.1562" enable-background="new" style="line-height:0%" xml:space="preserve"><tspan x="119.6023" y="111.1562" font-size="1.9072px" style="line-height:1.25">cazzola</tspan></text></g><ellipse transform="matrix(.91821 0 0 1.0153 11.591 -1.9973)" cx="148.56" cy="119.91" rx="2.5412" ry="1.7236" enable-background="new"/><ellipse transform="matrix(.78704 0 0 .87029 31.078 15.145)" cx="148.56" cy="119.91" rx="2.5412" ry="1.7236" enable-background="new" fill="url(#ar)"/><ellipse transform="matrix(.91821 0 0 1.0153 1.5914 -1.9973)" cx="148.56" cy="119.91" rx="2.5412" ry="1.7236" enable-background="new"/><ellipse transform="matrix(.78704 0 0 .87029 21.078 15.145)" cx="148.56" cy="119.91" rx="2.5412" ry="1.7236" enable-background="new" fill="url(#aq)"/><ellipse transform="matrix(.91821 0 0 1.0153 21.591 -1.9973)" cx="148.56" cy="119.91" rx="2.5412" ry="1.7236" enable-background="new"/><ellipse transform="matrix(.78704 0 0 .87029 41.078 15.145)" cx="148.56" cy="119.91" rx="2.5412" ry="1.7236" enable-background="new" fill="url(#ap)"/><path d="m146.12 119c-0.0727 0.15537-0.125 0.32608-0.125 0.5 0 0.828 0.89601 1.5 2 1.5 1.104 0 2-0.672 2-1.5 0-0.17392-0.0523-0.34463-0.125-0.5-0.27336 0.58432-1.0029 1-1.875 1s-1.6016-0.41568-1.875-1z" enable-background="new" fill="#fff" opacity=".6"/><path d="m136.12 119c-0.0727 0.15537-0.125 0.32608-0.125 0.5 0 0.828 0.89601 1.5 2 1.5 1.104 0 2-0.672 2-1.5 0-0.17392-0.0523-0.34463-0.125-0.5-0.27336 0.58432-1.0029 1-1.875 1s-1.6016-0.41568-1.875-1z" enable-background="new" fill="#fff" opacity=".6"/><path d="m156.12 119c-0.0727 0.15537-0.125 0.32608-0.125 0.5 0 0.828 0.89601 1.5 2 1.5 1.104 0 2-0.672 2-1.5 0-0.17392-0.0523-0.34463-0.125-0.5-0.27336 0.58432-1.0029 1-1.875 1s-1.6016-0.41568-1.875-1z" enable-background="new" fill="#fff" opacity=".6"/><rect x="144.48" y="110.73" width="7.1095" height="2.8598" rx="1.4095" ry="1.0165" enable-background="new" fill="none" opacity=".4" stroke="url(#ao)" stroke-linejoin="round" stroke-width=".828"/><rect transform="scale(1,-1)" x="145.33" y="-112.81" width="5.3488" height="2.2036" enable-background="new" fill="none" opacity=".6" stroke="url(#an)" stroke-linejoin="round" stroke-width=".828"/><text transform="matrix(.97141 0 -.079588 1.0294 0 0)" x="144.14587" y="107.97839" enable-background="new" fill="#ffffff" font-family="Arial" opacity=".4" style="line-height:0%" xml:space="preserve"><tspan x="144.14587" y="107.97839" font-size="1.8527px" style="line-height:1.25">tapioco</tspan></text><text transform="matrix(.97141 0 .14173 1.0294 0 0)" x="147.96324" y="107.97839" enable-background="new" fill="#ffffff" font-family="Arial" opacity=".4" style="line-height:0%" xml:space="preserve"><tspan x="147.96324" y="107.97839" font-size="1.8527px" style="line-height:1.25">tarapia</tspan></text><text transform="matrix(.97141 0 -.22713 1.0294 0 0)" x="157.05214" y="102.14989" enable-background="new" fill="#ffffff" font-family="Arial" opacity=".4" style="line-height:0%" xml:space="preserve"><tspan x="157.05214" y="102.14989" font-size="1.8527px" style="line-height:1.25">tarapia</tspan></text><text transform="matrix(.97141 0 .14173 1.0294 0 0)" x="149.84302" y="102.14989" enable-background="new" fill="#ffffff" font-family="Arial" opacity=".4" style="line-height:0%" xml:space="preserve"><tspan x="149.84302" y="102.14989" font-size="1.8527px" style="line-height:1.25">tapioco</tspan></text><text transform="matrix(1.1362 0 -.093087 .88015 0 0)" x="131.50484" y="133.4001" enable-background="new" fill="#ffffff" font-family="Arial" opacity=".4" style="line-height:0%" xml:space="preserve"><tspan x="131.50484" y="133.4001" font-size="1.584px" style="line-height:1.25">01</tspan></text><text transform="matrix(1.1362 0 .014871 .88015 0 0)" x="127.68393" y="133.4001" enable-background="new" fill="#ffffff" font-family="Arial" opacity=".4" style="line-height:0%" xml:space="preserve"><tspan x="127.68393" y="133.4001" font-size="1.584px" style="line-height:1.25">10</tspan></text><text transform="matrix(1.1362 0 .12283 .88015 0 0)" x="123.86304" y="133.4001" enable-background="new" fill="#ffffff" font-family="Arial" opacity=".4" style="line-height:0%" xml:space="preserve"><tspan x="123.86304" y="133.4001" font-size="1.584px" style="line-height:1.25">11</tspan></text><rect x="199" y="183" width="16.028" height="20" rx="1.6292" ry="2.0329" enable-background="new" filter="url(#e)"/><g transform="translate(0,-10)" enable-background="new" filter="url(#bn)"><path d="m201.62 215c-0.90256 0-1.625 0.90501-1.625 2.0312l3.2341 37.969h20.534l-7.7365-37.969c0-1.1262-0.72244-2.0312-1.625-2.0312z" enable-background="new"/><path d="m75 185-5 66.667v3.3333h132v-3.3333l-5-66.667z" enable-background="new"/><path d="m70.143 215c0.90256 0 1.625 0.90501 1.625 2.0312l-3.2341 37.969h-20.534l7.7365-37.969c0-1.1262 0.72244-2.0312 1.625-2.0312z" enable-background="new"/></g><g clip-path="url(#bw)" enable-background="new"><path d="m57.625 184c-0.90256 0-1.625 0.90501-1.625 2.0312l-8 40v15.938c0 1.1262 0.905 2.0312 2.0312 2.0312h15.938c1.1262 0 2.0312-0.90501 2.0312-2.0312l4.0312-40v-15.938c0-1.1262-0.72244-2.0312-1.625-2.0312z" enable-background="new" fill="url(#am)"/><path d="m51.031 216c-0.74425 0-1.3958 0.4064-1.75 1h17.688c0.57224 0 1.0312 0.45901 1.0312 1.0312v17.688c0.5936-0.3542 1-1.0058 1-1.75v-15.938c0-1.1262-0.90501-2.0312-2.0312-2.0312z" enable-background="new" fill="url(#al)" opacity=".02"/><path d="m51.031 217c-0.74425 0-1.3958 0.4064-1.75 1h17.688c0.57224 0 1.0312 0.45901 1.0312 1.0312v17.688c0.5936-0.3542 1-1.0058 1-1.75v-15.938c0-1.1262-0.90501-2.0312-2.0312-2.0312z" enable-background="new" fill="url(#ak)" opacity=".2"/><rect x="48" y="224" width="20" height="20" rx="2.0329" ry="2.0329" enable-background="new" fill="url(#aj)"/><path d="m57.625 184c-0.90256 0-1.625 0.90501-1.625 2.0312l-7.8438 39.219c-0.1026 0.24338-0.15625 0.49969-0.15625 0.78125v15.938c0 1.1262 0.905 2.0312 2.0312 2.0312h15.938c1.1262 0 2.0312-0.90501 2.0312-2.0312l4.0312-40v-15.938c0-1.1262-0.72244-2.0312-1.625-2.0312z" enable-background="new" fill="none" filter="url(#bj)" stroke="#000" stroke-linejoin="round"/></g><path d="m65.25 143.03-17.25 83 18.781-0.3125 9.5-82.688z" clip-path="url(#h)" enable-background="new" fill="url(#d)" filter="url(#f)" opacity=".2"/><path transform="matrix(-1 0 0 1 272.28 0)" d="m65.25 143.03-17.25 83 18.781-0.3125 9.5-82.688z" clip-path="url(#h)" enable-background="new" fill="url(#d)" filter="url(#f)" opacity=".2"/><g transform="matrix(-1 0 0 1 272.03 0)" clip-path="url(#bu)" enable-background="new"><path d="m57.625 184c-0.90256 0-1.625 0.90501-1.625 2.0312l-8 40v15.938c0 1.1262 0.905 2.0312 2.0312 2.0312h15.938c1.1262 0 2.0312-0.90501 2.0312-2.0312l4.0312-40v-15.938c0-1.1262-0.72244-2.0312-1.625-2.0312z" enable-background="new" fill="url(#ai)"/><path transform="matrix(-1 0 0 1 272.03 0)" d="m220.25 216c0.74425 0 1.3958 0.4064 1.75 1h-17.688c-0.57224 0-1.0312 0.45901-1.0312 1.0312v17.688c-0.5936-0.3542-1-1.0058-1-1.75v-15.938c0-1.1262 0.90501-2.0312 2.0312-2.0312z" enable-background="new" fill="url(#ah)" opacity=".03"/><rect x="48" y="224" width="20" height="20" rx="2.0329" ry="2.0329" enable-background="new" fill="url(#ag)"/><path transform="matrix(-1 0 0 1 310.03 -100)" d="m252.41 284c0.90256 0 1.625 0.90501 1.625 2.0312 0 0 7.5433 37.717 7.8438 39.219 0.1026 0.24338 0.15625 0.49969 0.15625 0.78125v15.938c0 1.1262-0.90501 2.0312-2.0312 2.0312h-15.938c-1.1262 0-2.0312-0.90501-2.0312-2.0312l-4.0312-40v-15.938c0-1.1262 0.72244-2.0312 1.625-2.0312z" enable-background="new" fill="none" filter="url(#bq)" stroke="#000" stroke-linejoin="round"/><path d="m51.781 217c-0.74425 0-1.3958 0.4064-1.75 1h17.688c0.57224 0 1.0312 0.45901 1.0312 1.0312v17.688c0.5936-0.3542 1-1.0058 1-1.75v-15.938c0-1.1262-0.90501-2.0312-2.0312-2.0312z" enable-background="new" fill="url(#af)" opacity=".2"/></g><path d="m205.72 188.12a1.8752 1.8752 0 0 0-1.8594 2.1113l2.5312 20a1.8752 1.8752 0 0 0 1.8594 1.6387h6.5938a1.8752 1.8752 0 0 0 1.8301-2.2871l-4.5-20a1.8752 1.8752 0 0 0-1.8301-1.4629z" enable-background="new" fill="url(#p)" opacity=".5"/><path d="m72 171v9h128v-9z" enable-background="new" opacity=".2"/><rect x="73" y="172" width="126" height="28" enable-background="new" fill="url(#ae)"/><path d="m57.625 185.25-7.5 37.75" enable-background="new" fill="none" opacity=".1" stroke="url(#o)" stroke-linecap="round" stroke-width="1px"/><path d="m214.12 185.25 7.5 37.75" enable-background="new" fill="none" opacity=".02" stroke="url(#n)" stroke-linecap="round" stroke-width="1px"/><path d="m71.25 184.62-4 40.625" enable-background="new" fill="none" opacity=".1" stroke="url(#m)" stroke-linecap="round" stroke-width="1px"/><path d="m205.53 188.12c-0.51052 0.0464-0.99371 0.28605-1.3125 0.6875-0.10123 0.12747-0.15451 0.29108-0.21875 0.4375 0.16853-0.068 0.3468-0.10822 0.53125-0.125 0.0625-3e-3 0.12504-3e-3 0.1875 0h4.625c0.88395-6e-3 1.6522 0.60579 1.8438 1.4688l4.5 20c0.0852 0.38424 0.0248 0.77022-0.125 1.125 0.2866-0.11833 0.5502-0.28405 0.75-0.53125 0.35889-0.44404 0.49865-1.0364 0.375-1.5938l-4.5-20c-0.19157-0.86296-0.9598-1.4749-1.8438-1.4688h-4.625c-0.0625-3e-3 -0.12504-3e-3 -0.1875 0z" enable-background="new" fill="url(#ad)"/><path d="m200.25 184.62 4 40.625" enable-background="new" fill="none" opacity=".1" stroke="url(#l)" stroke-linecap="round" stroke-width="1px"/><g transform="translate(0,-130)" clip-path="url(#by)" enable-background="new"><path d="m75 302-5 66.667v3.3333h132v-3.3333l-5-66.667z" enable-background="new" fill="url(#ac)"/><rect x="70" y="370" width="132" height="4" rx="1.2374" ry="1.2374" enable-background="new" fill="url(#ab)"/><path d="m75 302-5 66.656v4.0938c0 0.68554 0.56446 1.25 1.25 1.25h129.5c0.68554 0 1.25-0.56447 1.25-1.25v-4.0938l-5-66.656z" enable-background="new" fill="none" filter="url(#br)" stroke="#000" stroke-linejoin="round"/></g><g transform="translate(0,-110)" clip-path="url(#bx)" enable-background="new"><path d="m73.812 282-3.8125 50.656v3.3438h132v-3.3438l-3.8125-50.656z" enable-background="new" fill="url(#aa)"/><rect x="70" y="334" width="132" height="4" rx="1.2374" ry="1.2374" enable-background="new" fill="url(#z)"/><path d="m73.812 282-3.8125 50.656v4.0938c0 0.68554 0.56446 1.25 1.25 1.25h129.5c0.68554 0 1.25-0.56447 1.25-1.25v-4.0938l-3.8125-50.656z" enable-background="new" fill="none" filter="url(#bs)" stroke="#000" stroke-linejoin="round"/></g><path d="m179.88 230c-2.1468 0-3.875 1.9443-3.875 4.3594v4.6406h16v-4.6406c0-2.4151-1.7282-4.3594-3.875-4.3594z" enable-background="new" fill="url(#y)"/><path d="m179.88 232c-2.1468 0-3.875 1.5122-3.875 3.3906v3.6094h16v-3.6094c0-1.8784-1.7282-3.3906-3.875-3.3906z" enable-background="new" fill="#7fa9d5"/><rect x="175" y="240" width="1" height="4" enable-background="new" fill="#2e3436"/><rect x="192" y="240" width="1" height="4" enable-background="new" fill="#2e3436"/><path d="m179.88 233c-2.1468 0-3.875 1.2962-3.875 2.9062v3.0938h16v-3.0938c0-1.6101-1.7282-2.9062-3.875-2.9062z" enable-background="new" fill="#729fcf"/><path d="m205.72 188.12a1.8752 1.8752 0 0 0-1.8594 2.1113l2.5312 20a1.8752 1.8752 0 0 0 1.8594 1.6387h6.5938a1.8752 1.8752 0 0 0 1.8301-2.2871l-4.5-20a1.8752 1.8752 0 0 0-1.8301-1.4629z" enable-background="new" fill="none" filter="url(#bk)" stroke="url(#x)" stroke-linecap="round" stroke-linejoin="round"/><path d="m207.88 191.25 3.25 19.25" enable-background="new" fill="none" stroke="#000" stroke-linecap="round" stroke-width="1px"/><path d="m208.88 191.25 3.25 19.25" enable-background="new" fill="none" opacity=".05" stroke="#fff" stroke-linecap="round" stroke-width="1px"/><rect transform="matrix(1.1724 0 .095238 1.0159 -55.901 -2.965)" x="208.88" y="203.5" width="3.625" height="7.875" rx="2.2981" ry="2.2981" enable-background="new" filter="url(#bm)"/><path d="m210.01 199.92c-0.42462 0-0.76647 0.34186-0.76647 0.76647v5.4505l0.59614 4.684c0 0.33027 0.26588 0.59615 0.59615 0.59615h1.533c0.33027 0 0.59614-0.26589 0.59614-0.59615v-5.7911l-0.15703-1.144-0.43911-3.1993c0-0.42461-0.34186-0.76647-0.76648-0.76647z" enable-background="new" fill="url(#w)"/><path d="m209.28 200.47c-0.0191 0.0672-0.0313 0.14526-0.0313 0.21875v5.4375l0.59375 4.6875v-6l-0.5625-4.3438z" enable-background="new" fill="#204a87"/></g><g transform="translate(0,130)" enable-background="new"><path transform="matrix(1 0 0 .95636 0 178.76)" d="m79.682 172s-6.0568 40.036-2.6818 57.286h118c3.25-17.25-2.6818-57.286-2.6818-57.286z" enable-background="new" fill="url(#v)" filter="url(#dx)"/><path d="m79.682 342s-6.0568 40.036-2.6818 57.286h118c3.25-17.25-2.6818-57.286-2.6818-57.286z" enable-background="new" fill="#eeeeec"/><path d="m79.682 342s-6.0568 40.036-2.6818 57.286h118c3.25-17.25-2.6818-57.286-2.6818-57.286z" enable-background="new" fill="url(#u)"/><path transform="translate(0,-130)" d="m98.375 424.03c-2.7815-1e-5 -4.9681 0.66526-6.5938 2-1.6257 1.3411-2.4375 3.1466-2.4375 5.4375 2e-6 2.3165 0.81328 4.1404 2.4688 5.4688 1.6555 1.3283 3.9341 2 6.8125 2 1.1111 1e-5 2.1733-0.1016 3.1875-0.28125 1.0216-0.17966 1.9727-0.4283 2.875-0.78125l-1.1562-2.5c-0.50726 0.20229-1.0866 0.39106-1.625 0.53125-0.91723 0.22459-1.8253 0.34375-2.75 0.34375-1.7151 0-3.0366-0.4222-3.9688-1.25-0.9247-0.82139-1.4062-1.9976-1.4062-3.5312 0-1.5209 0.44887-2.7034 1.3438-3.5312 0.89482-0.82779 2.2379-1.2188 3.8125-1.2188 1.5997 1e-5 2.5966 0.2842 3.125 0.59375v2.5h-3.4688v2.4688h6.7188v-6.9062c-2.228-1.3632-5.5565-1.3438-6.9375-1.3438zm35.812 0c-2.6771 0-4.7526 0.64686-6.2812 1.9688-1.5212 1.3219-2.3125 3.1458-2.3125 5.4688 0 2.3294 0.79125 4.1468 2.3125 5.4688 1.469 1.2702 3.4393 1.9503 5.9688 2 0.10282 2e-3 0.20793 0 0.3125 0 2.6845 0 4.7912-0.67816 6.3125-2 1.5212-1.3219 2.2812-3.1394 2.2812-5.4688 1e-5 -2.3229-0.76003-4.1468-2.2812-5.4688-1.5212-1.3219-3.628-1.9687-6.3125-1.9688zm19.344 0.21875-3.8438 9.3438-1.25-9.2812h-4.0938l2.0938 14.375h4.6562l3.8125-9 3.8125 9h4.625l2.0938-14.375h-4.0625l-1.25 8.9688-3.8438-9.0312zm-45.281 0.0625v14.375h2.7188l8.5938-8.6562v8.6562h3.6562v-14.375h-2.7188l-8.5938 8.625v-8.625zm60.125 0v14.375h11.625v-2.8125h-7.3125v-2.9688h5.625v-2.5h-5.625v-3.3125h7.5625v-2.7812zm-34.188 2.4062c1.3199 0 2.3392 0.41579 3.0625 1.25 0.7233 0.83422 1.0938 1.992 1.0938 3.5-1e-5 1.5144-0.37042 2.697-1.0938 3.5312-0.72338 0.83422-1.7426 1.25-3.0625 1.25-0.041 0-0.0846 8e-4 -0.125 0-1.2536-0.0253-2.2056-0.44186-2.9062-1.25-0.72332-0.83422-1.0938-2.0168-1.0938-3.5312 1e-5 -1.508 0.3704-2.6658 1.0938-3.5 0.72335-0.83422 1.7188-1.25 3.0312-1.25zm51.156 8.375v3.4688h-1.9062v0.46875h4.5312v-0.46875h-1.9062v-3.4688zm3.4062 0v3.9375h1.0625l1.375-2.6875 1.375 2.6875h1.0938v-3.9375h-0.71875v3.4375l-1.375-2.6875h-0.71875l-1.4062 2.6875v-3.4375zm-50.219 11.375c-20.62 0-40.362 17.439-36.5 30.031 5.7061 18.618 55.814 22.305 58.562 10.406 3.3112-14.335-46.915-19.57-28-30.062 5.9418-3.2961 11.981-0.76912 11.062 4.3438-0.767 4.2656 20.578 6.8527 18.906 0.40625-2.189-8.4537-13.888-15.125-24.031-15.125zm-35.5 42.062c-4.7008 0.37642-12.201 8.0953-5.5 11.469 7.3978 3.7219 11.194-9.9485 6.8438-11.344-0.40786-0.13075-0.85746-0.16394-1.3438-0.125zm13.094 7.25c-5.1555-0.0255-12.23 10.81-3.2812 13.5 9.2356 2.7766 8.9602-12.699 3.7812-13.469-0.16171-0.0241-0.33369-0.0304-0.5-0.0313zm37.406 1c-11.488 0-7.6407 21.188 12.781 21.188 20.423 0-1.2944-21.188-12.781-21.188zm-21.125 2.625c-6.1194 0.27215-10.18 14.851 1.3125 15.938 11.497 1.0868 4.8044-16.21-1.3125-15.938z" clip-path="url(#eb)" enable-background="new" fill="#4e9a06" opacity=".5"/></g><g transform="translate(-400,110)" clip-path="url(#dz)" enable-background="new" filter="url(#dl)"><rect transform="translate(400,50)" x="80" y="296" width="112" height="16" clip-path="none" enable-background="new" fill="url(#t)" opacity=".9"/></g><rect x="73" y="472" width="126" height="8" enable-background="new" fill="url(#dc)"/><path d="m101.62 472c-0.14465 1.5402-0.0373 3.0539 0.40625 4.5 5.7061 18.618 55.814 22.305 58.562 10.406 1.4643-6.339-7.5405-10.885-16.406-14.906zm1.4062 16.531c-4.7008 0.37642-12.201 8.0953-5.5 11.469 7.3978 3.7219 11.194-9.9485 6.8438-11.344-0.40786-0.13075-0.85746-0.16394-1.3438-0.125zm13.094 7.25c-5.1555-0.0255-12.23 10.81-3.2812 13.5 9.2356 2.7766 8.9602-12.699 3.7812-13.469-0.16171-0.0241-0.33369-0.0304-0.5-0.0313zm37.406 1c-11.488 0-7.6407 21.188 12.781 21.188 20.423 0-1.2944-21.188-12.781-21.188zm-21.125 2.625c-6.1194 0.27215-10.18 14.851 1.3125 15.938 11.497 1.0868 4.8044-16.21-1.3125-15.938z" enable-background="new" fill="url(#db)" opacity=".6"/></g><circle transform="matrix(.35507 .20633 -.205 .35738 1045.1 136.74)" cx="-126" cy="184.5" r="107.2" color="#000000" enable-background="accumulate" fill="none" filter="url(#dn)" stroke="#000" stroke-width="12.156"/><g transform="matrix(1.3585 0 .14373 1.3585 677.04 -474.76)" clip-path="url(#ed)"><g transform="translate(5.4893 286.38)"><rect x="40" y="185" width="216" height="20" enable-background="new" filter="url(#bp)" opacity=".5"/><rect x="40" y="185" width="216" height="20" rx="2.2981" ry="2.2981" enable-background="new" filter="url(#bo)" opacity=".7"/><g transform="translate(0,-240)" clip-path="url(#bt)" enable-background="new"><rect x="40" y="392.75" width="216" height="51.25" rx="5.125" ry="2.125" enable-background="new" fill="url(#bh)"/><rect x="40" y="392.75" width="216" height="51.25" rx="5.125" ry="2.125" enable-background="new" fill="none" filter="url(#bi)" stroke="#000" stroke-linejoin="round" stroke-width="2"/></g><g clip-path="url(#bv)" enable-background="new"><path d="m46.446 96.014s-14.446 39.2-14.446 51.986v50c0 1.108 3.345 2 7.5 2h217c4.155 0 7.5-0.892 7.5-2v-50c0-15.95-14.316-52.046-14.316-52.046-1.7166-3.8976-3.6887-3.9544-5.6837-3.9544h-192c-2.0511 0-3.9741-8e-3 -5.5541 4.0143z" fill="url(#bg)"/><path d="m48.197 95.089s-14.197 39.926-14.197 52.948v50.926c0 1.1285 3.2873 2.037 7.3707 2.037h213.26c4.0834 0 7.3707-0.90852 7.3707-2.037v-50.926c0-16.245-14.069-53.009-14.069-53.009-1.687-3.9698-3.6251-4.0276-5.5857-4.0276h-188.69c-2.0157 0-3.9055-0.0082-5.4583 4.0886z" enable-background="new" fill="none" opacity=".3" stroke="url(#r)" stroke-linejoin="round"/><path transform="matrix(-1,0,0,1,272,0)" d="m66.25 143.03-8.5312 41.094h14.844l4.7188-41.094z" enable-background="new" fill="#0c0e0e" filter="url(#g)" opacity=".4" stroke="#000" stroke-linejoin="round"/><path d="m62.926 92c-1.5509 0.05345-2.9918 0.4805-4.2075 4-2e-6 -1e-6 -12.718 39.214-12.718 52v32h204v-32c0-15.95-12.591-52.031-12.591-52.031-1.5094-3.8976-3.2501-3.9688-5.0044-3.9688h-168.81c-0.22544 0-0.44782-0.0076-0.66937 0z" enable-background="new" fill="#fff" opacity=".05"/><path d="m66.25 143.03-8.5312 41.094h14.844l4.7188-41.094z" enable-background="new" fill="#0c0e0e" filter="url(#g)" opacity=".4" stroke="#000" stroke-linejoin="round"/><path d="m63.76 92c-1.5357 0.05345-2.9625 0.4805-4.1663 4-2e-6 -1e-6 -12.593 39.214-12.593 52v32h202v-32c0-15.95-12.467-52.031-12.467-52.031-1.4946-3.8976-3.2183-3.9688-4.9553-3.9688h-167.16c-0.22323 0-0.44343-0.0076-0.66281 0z" enable-background="new" opacity=".49"/><path d="m64.594 92c-1.5205 0.05345-2.9332 0.4805-4.125 4-2e-6 -1e-6 -12.469 39.214-12.469 52v32h200v-32c0-15.95-12.344-52.031-12.344-52.031-1.4798-3.8976-3.1864-3.9688-4.9062-3.9688h-165.5c-0.22102 0-0.43904-0.0076-0.65625 0z" enable-background="new" fill="url(#bf)"/><path d="m32 178v1c0 1.108 3.345 2 7.5 2h217c4.155 0 7.5-0.892 7.5-2v-1c0 1.108-3.345 2-7.5 2h-217c-4.155 0-7.5-0.892-7.5-2z" enable-background="new" opacity=".49"/><path d="m32 179v1c0 1.108 3.345 2 7.5 2h32.5v17.312h128v-17.312h56.5c4.155 0 7.5-0.892 7.5-2v-1c0 1.108-3.345 2-7.5 2h-217c-4.155 0-7.5-0.892-7.5-2z" enable-background="new" fill="#fff" opacity=".05"/><path d="m46.446 96.014s-14.446 39.2-14.446 51.986v50c0 1.108 3.345 2 7.5 2h217c4.155 0 7.5-0.892 7.5-2v-50c0-15.95-14.316-52.046-14.316-52.046-1.7166-3.8976-3.6887-3.9544-5.6837-3.9544h-192c-2.0511 0-3.9741-8e-3 -5.5541 4.0143z" enable-background="new" fill="none" filter="url(#bl)" stroke="#000" stroke-linejoin="round"/><path d="m247.5 180v-32c0-15.95-12.282-52.031-12.282-52.031-1.4724-3.8976-3.1705-3.9688-4.8817-3.9688m-164.67 0c-0.21992 0-0.43685-0.0076-0.65297 0-1.5128 0.05345-2.9185 0.4805-4.1044 4-2e-6 -1e-6 -12.406 39.214-12.406 52v32" enable-background="new" fill="none" stroke="url(#q)" stroke-linejoin="round"/></g><rect x="57" y="183" width="16.028" height="20" rx="1.6292" ry="2.0329" enable-background="new" filter="url(#e)"/><path d="m72.569 100c-2.1608 0-4.1894 1.8518-4.6825 4.125l-3.579 16.5c-0.49308 2.2732 0.941 4.125 3.1018 4.125h95.768c4.0149 0 15.318-8.25 19.356-8.25h45.99c2.0933 0 3.5272-1.8038 3.0123-3.9961l-1.9983-8.5078c-0.51492-2.1923-2.4699-3.9961-4.5632-3.9961z" enable-background="new"/><path d="m182.47 112c0.32249 2.5522 0.64973 5.2022 0.97313 8h44.941c-0.63704-2.8114-1.2813-5.4359-1.9168-8z" enable-background="new" fill="url(#be)"/><path d="m73.419 100c-2.1364 0-4.1422 1.7957-4.6297 4l-3.5386 16c-0.48752 2.2043 0.93039 4 3.0668 4h94.688c3.9696 0 15.145-8 19.138-8h45.472c2.0697 0 3.4875-1.7491 2.9784-3.875l-1.9757-8.25c-0.50913-2.1259-2.4421-3.875-4.5118-3.875z" enable-background="new" fill="url(#bd)"/><path d="m84.094 106c-0.48672 0.0397-0.90779 0.32943-1.0321 0.78125-0.14222 0.49517-0.27184 1.0044-0.41284 1.5-0.08801 0.31214 0.0038 0.64297 0.23591 0.875 0.23464 0.23459 0.5749 0.34182 0.91415 0.34375h4.9246c0.5283-6e-3 1.0291-0.27767 1.1501-0.78125 0.13264-0.52302 0.25895-1.0176 0.38335-1.5 0.07768-0.32347-0.03533-0.65088-0.2654-0.875-0.22463-0.21883-0.54882-0.34011-0.88466-0.34375h-4.8951c-0.03518-1e-3 -0.05329-1e-3 -0.08847 0-0.0098-6.3e-4 -0.01967-6.3e-4 -0.02949 0zm13.624 0c-0.49997 0.0433-0.92374 0.34639-1.0321 0.8125-0.11322 0.497-0.21227 1.0036-0.32438 1.5-0.07631 0.31775 0.04614 0.63016 0.2654 0.84375 0.22463 0.21883 0.54882 0.34011 0.88466 0.34375h4.9246c0.55529 5e-3 1.074-0.2825 1.1796-0.8125 0.10203-0.52285 0.19923-1.0187 0.29489-1.5 0.0614-0.30863-0.0487-0.64882-0.29489-0.875-0.24328-0.22353-0.55807-0.31566-0.88466-0.3125h-4.8951c-0.03518-1e-3 -0.05329-1e-3 -0.08847 0-0.0098-6.3e-4 -0.01967-6.3e-4 -0.02949 0zm30.255 0c-0.53857 0.0422-0.99058 0.38485-1.0321 0.90625-0.0355 0.51708-0.053 1.0088-0.0885 1.5312-0.0218 0.28559 0.0883 0.5815 0.32437 0.78125 0.23279 0.19695 0.52963 0.2808 0.82568 0.28125h8.7876c0.29205-7.2e-4 0.55471-0.092 0.76672-0.25 0.212-0.15804 0.37043-0.40133 0.38335-0.6875 0.0267-0.54651 0.0641-1.0775 0.0885-1.5625 0.0106-0.29566-0.13287-0.5687-0.35386-0.75-0.22097-0.18126-0.50165-0.24923-0.7962-0.25h-8.7876c-0.0353-1e-3 -0.0531-1e-3 -0.0885 0-0.01-6.3e-4 -0.0197-6.3e-4 -0.0295 0zm31.052 0c-0.28759 0.0229-0.54391 0.13691-0.73722 0.3125-0.1933 0.17559-0.30667 0.40697-0.29488 0.6875 0.0257 0.51562 0.0628 1.037 0.0885 1.5625 0.0129 0.28617 0.17135 0.52946 0.38336 0.6875s0.47467 0.24928 0.76671 0.25h8.8171c0.29606-4.5e-4 0.59289-0.0843 0.82569-0.28125 0.23615-0.19976 0.34618-0.49567 0.32438-0.78125-0.0418-0.53437-0.078-1.0282-0.11796-1.5312-0.0478-0.55778-0.57145-0.9056-1.1501-0.90625h-8.7876c-0.0353-1e-3 -0.0531-1e-3 -0.0885 0-0.01-6.3e-4 -0.0197-6.3e-4 -0.0295 0zm-17.044 4c-0.55369 0.0441-1.0113 0.4337-1.0321 0.96875-0.0162 0.52364-0.0456 0.76731-0.059 0.90625s-0.0116 0.14898-0.0295 0.25c-0.0358 0.20203-0.0677 0.59035-0.11795 2.375-0.0106 0.29565 0.13286 0.56869 0.35387 0.75 0.22097 0.18126 0.50164 0.24923 0.79619 0.25h12.238c0.29455-7.7e-4 0.57522-0.0687 0.7962-0.25s0.36444-0.45434 0.35386-0.75c-0.0537-1.8373-0.0715-2.2068-0.11795-2.4062-0.0232-0.0997-0.0438-0.0906-0.059-0.21875-0.0152-0.12811-0.0409-0.37414-0.059-0.90625-0.0258-0.57169-0.5563-0.96729-1.1501-0.96875h-11.796c-0.0353-1e-3 -0.0531-1e-3 -0.0885 0-0.01-6.3e-4 -0.0197-6.3e-4 -0.0295 0zm-59.538 2c-0.48672 0.0397-0.90779 0.32943-1.0321 0.78125-0.12775 0.47669-0.27577 0.97935-0.41284 1.5-0.08801 0.31214 0.0038 0.64297 0.23591 0.875 0.23464 0.23459 0.5749 0.34182 0.91415 0.34375h5.131c0.5283-6e-3 1.0291-0.27767 1.1501-0.78125 0.11839-0.50593 0.23688-1.0053 0.35386-1.5 0.07768-0.32347-0.03533-0.65088-0.2654-0.875-0.22463-0.21883-0.54882-0.34011-0.88466-0.34375h-5.0721c-0.03518-1e-3 -0.05329-1e-3 -0.08847 0-0.0098-6.3e-4 -0.01967-6.3e-4 -0.02949 0zm13.978 0c-0.51555 0.0337-0.96529 0.31804-1.0616 0.8125-0.10802 0.49511-0.21601 0.99853-0.32438 1.5-0.06142 0.30863 0.04875 0.64882 0.29489 0.875 0.24328 0.22354 0.55808 0.31566 0.88466 0.3125h5.131c0.56933 4e-3 1.0932-0.33083 1.1796-0.875 0.0885-0.50459 0.17779-0.97286 0.2654-1.4688 5.9e-4 -0.0104 5.9e-4 -0.0208 0-0.0313 0.0499-0.31514-0.0915-0.60429-0.32438-0.8125-0.23285-0.20818-0.53157-0.31449-0.85517-0.3125h-5.0721c-0.03518-1e-3 -0.05329-1e-3 -0.08847 0-0.0098-6.3e-4 -0.01967-6.3e-4 -0.02949 0zm34.885 0c-0.53856 0.0422-0.99058 0.38485-1.0321 0.90625-0.0362 0.52223-0.0547 1.0336-0.0885 1.5312-0.0218 0.28559 0.0882 0.58149 0.32437 0.78125 0.2328 0.19695 0.52965 0.28079 0.82568 0.28125h5.19c0.29205-7.2e-4 0.55471-0.092 0.76672-0.25 0.212-0.15804 0.37043-0.40133 0.38335-0.6875 0.0247-0.50549 0.064-1.0879 0.0885-1.5625 0.0106-0.29565-0.13286-0.56869-0.35386-0.75-0.22097-0.18126-0.50165-0.24923-0.7962-0.25h-5.19c-0.0353-1e-3 -0.0531-1e-3 -0.0885 0-0.01-6.3e-4 -0.0197-6.3e-4 -0.0295 0zm27.985 0c-0.28759 0.0229-0.54391 0.13691-0.73722 0.3125-0.1933 0.17559-0.30667 0.40697-0.29488 0.6875 0.0258 0.50834 0.0635 1.0524 0.0885 1.5625 0.0129 0.28617 0.17135 0.52946 0.38335 0.6875 0.21201 0.15804 0.47467 0.24928 0.76672 0.25h5.2195c0.29606-4.5e-4 0.5929-0.0843 0.82569-0.28125 0.23614-0.19976 0.34618-0.49567 0.32438-0.78125-0.04-0.50827-0.0772-1.0226-0.11796-1.5312-0.0478-0.55778-0.57145-0.9056-1.1501-0.90625h-5.19c-0.0353-1e-3 -0.0531-1e-3 -0.0885 0-0.01-6.3e-4 -0.0197-6.3e-4 -0.0295 0z" enable-background="new" opacity=".7"/><g transform="matrix(1.3337 0 0 1.3337 -19.626 -51.672)" enable-background="new" font-family="'Trebuchet MS'"><text x="52.156456" y="160.68073" enable-background="new" fill="#ffffff" style="line-height:0%" xml:space="preserve"><tspan x="52.156456" y="160.68073" fill="#ffffff" font-size="4.4505px" style="line-height:1.25">Havoc-Pennington</tspan></text><text x="52.156456" y="160.30573" fill="#2e3436" style="line-height:0%" xml:space="preserve"><tspan x="52.156456" y="160.30573" fill="#2e3436" font-size="4.4505px" style="line-height:1.25">Havoc-Pennington</tspan></text></g><path d="m131.33 112c-0.44763 0.0351-0.79727 0.32286-0.82568 0.67962-0.0358 0.51627-0.0542 1.0433-0.0885 1.5467-0.0153 0.20045 0.0741 0.39705 0.24713 0.54342 0.17302 0.14637 0.41433 0.22955 0.66702 0.22994h5.19c0.49286-1e-3 0.89649-0.31163 0.91415-0.70306 0.0249-0.50935 0.0642-1.0757 0.0885-1.5467 7e-3 -0.19649-0.0861-0.38691-0.25815-0.5281-0.17211-0.14118-0.40865-0.22117-0.656-0.22182h-5.19c-0.0295-1e-3 -0.059-1e-3 -0.0885 0z" enable-background="new" fill="url(#bc)"/><path d="m178.4 100c0.40409 3.5652 0.96147 8.9982 1.6809 16.438 0.33463-0.11255 0.64727-0.21137 0.94363-0.28125-0.70339-7.267-1.2761-12.584-1.6809-16.156z" enable-background="new" opacity=".8"/><path d="m179.34 100c0.40409 3.5652 0.96147 8.9982 1.6809 16.438 0.33465-0.11255 0.64728-0.21137 0.94364-0.28125-0.7034-7.267-1.2761-12.584-1.6808-16.156z" enable-background="new" fill="#fff" opacity=".05"/><path transform="matrix(.96182 0 0 1.0806 4.4864 -9.0222)" d="m185.82 104.12c0.25302 2.1997 0.52884 4.7056 0.85351 7.75h44.535l-1.7734-6.9844c-0.0598-0.23584-0.78297-0.76562-0.7832-0.76562z" enable-background="new" fill="url(#bb)"/><path transform="matrix(.94364 0 0 1 8.3371 0)" d="m185.82 104.12c0.25302 2.1997 0.52884 4.7056 0.85351 7.75h44.535l-1.7734-6.9844c-0.0598-0.23584-0.78297-0.76562-0.7832-0.76562z" enable-background="new" fill="url(#ba)"/><path d="m159.32 112c-0.48074 0.0382-0.84181 0.36618-0.82568 0.74992 0.0256 0.50474 0.0633 1.0327 0.0885 1.5467 0.0177 0.39143 0.42129 0.70185 0.91415 0.70306h5.2195c0.2527-3.9e-4 0.49402-0.0836 0.66704-0.22994 0.17302-0.14637 0.26242-0.34297 0.24711-0.54342-0.0401-0.50946-0.0773-1.0396-0.11795-1.5467-0.0328-0.3822-0.43212-0.67908-0.91415-0.67962h-5.19c-0.0295-1e-3 -0.059-1e-3 -0.0885 0z" enable-background="new" fill="url(#az)"/><path d="m142.01 110c-0.45825 0.0365-0.81147 0.33724-0.82569 0.70306-0.065 2.1038-0.10597-0.018-0.20643 3.5461-7e-3 0.1965 0.0861 0.38692 0.25817 0.52811 0.1721 0.14118 0.40864 0.22116 0.65599 0.22182h12.238c0.24735-6.6e-4 0.48389-0.0806 0.65599-0.22182 0.1721-0.14119 0.26519-0.33161 0.25817-0.52811-0.10726-3.6686-0.16341-1.4063-0.23592-3.5461-0.0177-0.39144-0.42129-0.70185-0.91415-0.70306h-11.796c-0.0295-1e-3 -0.059-1e-3 -0.0885 0z" enable-background="new" fill="url(#ay)"/><path d="m128 106c-0.44762 0.0351-0.79726 0.32286-0.82568 0.67962-0.0351 0.5113-0.0526 1.0188-0.0885 1.5467-0.0153 0.20045 0.0741 0.39705 0.24713 0.54342 0.17302 0.14637 0.41433 0.22956 0.66702 0.22994h8.7876c0.49286-1e-3 0.89648-0.31163 0.91415-0.70306 0.0269-0.55028 0.0643-1.0658 0.0885-1.5467 7e-3 -0.19649-0.0861-0.38691-0.25815-0.5281-0.17211-0.14118-0.40865-0.22117-0.656-0.22182h-8.7876c-0.0295-1e-3 -0.059-1e-3 -0.0885 0z" enable-background="new" fill="url(#ax)"/><path d="m159.05 106c-0.48074 0.0382-0.84182 0.36618-0.82569 0.74992 0.0256 0.51174 0.0626 1.0172 0.0885 1.5467 0.0177 0.39143 0.42129 0.70185 0.91415 0.70306h8.8171c0.2527-3.8e-4 0.49402-0.0836 0.66704-0.22994 0.17302-0.14637 0.26242-0.34297 0.24711-0.54342-0.0419-0.53518-0.0781-1.0447-0.11795-1.5467-0.0328-0.3822-0.43212-0.67908-0.91415-0.67962h-8.7876c-0.0295-1e-3 -0.059-1e-3 -0.0885 0z" enable-background="new" fill="url(#aw)"/><g transform="matrix(.94364 0 0 1 8.3371 0)" enable-background="new" fill="#fff" opacity=".5"><path d="m137.12 106.53c-0.0167 0.25749-0.017 0.50644-0.0313 0.78125-0.0187 0.39143-0.44646 0.68629-0.96875 0.6875h-9.3125c-0.26779-3.8e-4 -0.53541-0.0724-0.71875-0.21875-0.11989-0.0957-0.18088-0.21806-0.21875-0.34375-0.0143 0.2616-0.0119 0.51227-0.0313 0.78125-0.0162 0.20046 0.0666 0.41613 0.25 0.5625 0.18334 0.14637 0.45096 0.21837 0.71875 0.21875h9.3125c0.52229-1e-3 0.95002-0.29607 0.96875-0.6875 0.0285-0.55029 0.0681-1.0815 0.0937-1.5625 3e-3 -0.0774-0.0338-0.14584-0.0625-0.21875z" enable-background="new"/><path d="m136.84 112.53c-0.0169 0.26383-0.0181 0.52688-0.0313 0.78125-0.0187 0.39143-0.44646 0.68629-0.96875 0.6875h-5.5c-0.26779-3.9e-4 -0.53541-0.0724-0.71875-0.21875-0.11813-0.0943-0.14891-0.22016-0.1875-0.34375-0.0145 0.26488-0.044 0.52409-0.0625 0.78125-0.0162 0.20045 0.0666 0.41613 0.25 0.5625 0.18334 0.14637 0.45096 0.21836 0.71875 0.21875h5.5c0.52229-1e-3 0.95002-0.29607 0.96875-0.6875 0.0264-0.50935 0.068-1.0915 0.0937-1.5625 3e-3 -0.0774-0.0338-0.14584-0.0625-0.21875z" enable-background="new"/><path d="m140.59 113.38c-0.0115 0.28719-0.0179 0.42948-0.0313 0.875-7e-3 0.19649 0.0989 0.39006 0.28125 0.53125 0.18239 0.14118 0.42538 0.2181 0.6875 0.21875h12.969c0.26212-6.5e-4 0.50512-0.0776 0.6875-0.21875 0.18237-0.14119 0.2887-0.33475 0.28125-0.53125-0.0137-0.44278-0.019-0.58685-0.0313-0.875-0.0302 0.14879-0.10839 0.29662-0.25 0.40625-0.18238 0.14118-0.42538 0.21809-0.6875 0.21875h-12.969c-0.26212-6.6e-4 -0.50511-0.0776-0.6875-0.21875-0.14161-0.10963-0.21982-0.25746-0.25-0.40625z" enable-background="new"/><path d="m159.19 112.53c-0.0256 0.0695-0.0659 0.14313-0.0625 0.21875 0.0272 0.50474 0.0671 1.0485 0.0937 1.5625 0.0187 0.39143 0.44646 0.68629 0.96875 0.6875h5.5312c0.26779-3.9e-4 0.5354-0.0724 0.71875-0.21875 0.18337-0.14637 0.26622-0.36205 0.25-0.5625-0.0191-0.22891-0.044-0.45421-0.0625-0.6875-0.0446 0.0925-0.0958 0.17681-0.1875 0.25-0.18335 0.14637-0.45096 0.21836-0.71875 0.21875h-5.5312c-0.52229-1e-3 -0.95002-0.29607-0.96875-0.6875-0.0133-0.25671-0.0146-0.52222-0.0313-0.78125z" enable-background="new"/><path d="m158.91 106.53c-0.0256 0.0695-0.0659 0.14313-0.0625 0.21875 0.0271 0.51173 0.0663 1.033 0.0937 1.5625 0.0187 0.39143 0.44646 0.68629 0.96875 0.6875h9.3438c0.26779-3.8e-4 0.5354-0.0724 0.71875-0.21875 0.18337-0.14637 0.26622-0.36205 0.25-0.5625-0.0199-0.24046-0.0441-0.45574-0.0625-0.6875-0.0446 0.0925-0.0958 0.17682-0.1875 0.25-0.18335 0.14637-0.45096 0.21837-0.71875 0.21875h-9.3438c-0.52229-1e-3 -0.95002-0.29607-0.96875-0.6875-0.0137-0.26443-0.0146-0.52503-0.0313-0.78125z" enable-background="new"/></g><path d="m97.747 106c-0.41434 0.0359-0.74996 0.28359-0.82568 0.60931-0.11195 0.49143-0.21111 0.99836-0.32438 1.4998-0.05231 0.21783 0.01935 0.44288 0.19574 0.6147 0.17638 0.17183 0.43941 0.27282 0.71842 0.27584h4.9246c0.4686 5e-3 0.87041-0.26489 0.94364-0.63275 0.10205-0.52301 0.19913-1.018 0.29489-1.4998 0.0434-0.21826-0.0365-0.44063-0.21834-0.60777-0.18189-0.16713-0.44727-0.26202-0.7253-0.25933h-4.8951c-0.02947-1e-3 -0.05899-1e-3 -0.08847 0z" enable-background="new" fill="url(#av)"/><path d="m96.449 112c-0.43483 0.0285-0.78844 0.29009-0.85517 0.63275-0.10789 0.49447-0.21595 0.99811-0.32438 1.4998-0.04343 0.21825 0.03646 0.44063 0.21834 0.60776 0.18189 0.16714 0.44726 0.26203 0.7253 0.25934h5.131c0.47834 3e-3 0.88382-0.27901 0.94364-0.65619 0.0886-0.50514 0.17787-1.0043 0.2654-1.4998 0.034-0.21456-0.0502-0.43033-0.231-0.59196-0.18078-0.16163-0.44054-0.25337-0.71264-0.2517h-5.0721c-0.02947-1e-3 -0.05899-1e-3 -0.08847 0z" enable-background="new" fill="url(#au)"/><path d="m82.472 112c-0.40558 0.0331-0.7386 0.26935-0.82568 0.58588-0.12895 0.48117-0.27707 0.98414-0.41284 1.4998-0.0624 0.22129 0.0046 0.45314 0.18212 0.63067 0.17756 0.17753 0.44667 0.28168 0.73203 0.2833h5.131c0.44811-5e-3 0.83013-0.25949 0.91415-0.60932 0.11852-0.50647 0.23692-1.0052 0.35386-1.4998 0.05231-0.21782-0.01935-0.44287-0.19574-0.6147s-0.43941-0.27281-0.71842-0.27583h-5.0721c-0.02947-1e-3 -0.05899-1e-3 -0.08847 0z" enable-background="new" fill="url(#at)"/><path d="m84.123 106c-0.40558 0.0331-0.73859 0.26935-0.82568 0.58588-0.14067 0.48975-0.27045 0.99941-0.41284 1.4998-0.0624 0.22129 0.0046 0.45314 0.18212 0.63067 0.17756 0.17753 0.44667 0.28168 0.73203 0.2833h4.9246c0.44811-5e-3 0.83013-0.25948 0.91415-0.60932 0.13271-0.52329 0.25884-1.017 0.38335-1.4998 0.05231-0.21783-0.01935-0.44288-0.19573-0.6147-0.17638-0.17183-0.43941-0.27282-0.71842-0.27584h-4.8951c-0.02947-1e-3 -0.05899-1e-3 -0.08847 0z" enable-background="new" fill="url(#as)"/><path d="m96.98 106.47c-0.02412 0.0469-0.04705 0.10494-0.05898 0.15625-0.11195 0.49143-0.21111 0.9985-0.32438 1.5-0.05231 0.21782 0.03004 0.42192 0.20642 0.59375 0.17638 0.17183 0.42872 0.27823 0.70773 0.28125h4.9246c0.4686 5e-3 0.87041-0.25714 0.94364-0.625 0.051-0.2615 0.0984-0.50064 0.14745-0.75-0.16587 0.23075-0.50373 0.3784-0.85518 0.375h-4.9246c-0.27901-3e-3 -0.53134-0.10942-0.70773-0.28125-0.17638-0.17183-0.25873-0.37593-0.20642-0.59375 0.04965-0.21983 0.10095-0.4361 0.14744-0.65625zm-6.9593 0.375c-0.04826 0.18922-0.09759 0.36592-0.14744 0.5625-0.08402 0.34984-0.46604 0.5889-0.91415 0.59375h-4.9246c-0.28536-2e-3 -0.53016-0.10372-0.70773-0.28125-0.13317-0.13315-0.20559-0.30186-0.20642-0.46875-0.07639 0.28249-0.15571 0.5619-0.23591 0.84375-0.0624 0.22129-6.34e-4 0.44747 0.17693 0.625 0.17756 0.17753 0.45186 0.27963 0.73722 0.28125h4.9246c0.44811-5e-3 0.83013-0.24391 0.91415-0.59375 0.13271-0.52329 0.25884-1.0172 0.38335-1.5 0.0048-0.0198-0.0027-0.0426 0-0.0625zm5.6029 5.6875c-0.01282 0.0335-0.02258 0.0583-0.02949 0.0937-0.10789 0.49448-0.21595 0.99826-0.32438 1.5-0.04343 0.21826 0.02453 0.45786 0.20642 0.625 0.18189 0.16714 0.45919 0.25269 0.73722 0.25h5.131c0.47834 3e-3 0.88382-0.27907 0.94364-0.65625 0.0424-0.24145 0.0756-0.47977 0.11795-0.71875-0.1679 0.21949-0.48401 0.3771-0.82569 0.375h-5.131c-0.27803 3e-3 -0.52584-0.0829-0.70773-0.25-0.18189-0.16714-0.27935-0.40674-0.23591-0.625 0.04274-0.1978 0.07531-0.39604 0.11796-0.59375zm-14.155 0.71875c-0.07867 0.28075-0.15944 0.5533-0.23591 0.84375-0.0624 0.22129-6.34e-4 0.44747 0.17693 0.625 0.17756 0.17753 0.45186 0.27963 0.73722 0.28125h5.131c0.44811-5e-3 0.83013-0.24391 0.91415-0.59375 0.07901-0.33765 0.1574-0.66815 0.23591-1-0.08402 0.34984-0.46604 0.5889-0.91415 0.59375h-5.131c-0.28536-2e-3 -0.53016-0.10372-0.70773-0.28125-0.13317-0.13315-0.20559-0.30186-0.20642-0.46875z" enable-background="new" fill="#fff" opacity=".5"/><g transform="matrix(.94364 0 0 1 8.3371 0)" enable-background="new" fill="#ffffff" font-family="Arial" opacity=".4"><text transform="skewX(-17.947)" x="114.6119" y="105.1562" enable-background="new" style="line-height:0%" xml:space="preserve"><tspan x="114.6119" y="105.1562" font-size="1.9072px" style="line-height:1.25">antani</tspan></text><text transform="skewX(-17.947)" x="115.55531" y="111.1562" enable-background="new" style="line-height:0%" xml:space="preserve"><tspan x="115.55531" y="111.1562" font-size="1.9072px" style="line-height:1.25">slasti</tspan></text><text transform="skewX(-13.16)" x="120.19939" y="105.1562" enable-background="new" style="line-height:0%" xml:space="preserve"><tspan x="120.19939" y="105.1562" font-size="1.9072px" style="line-height:1.25">super</tspan></text><text transform="skewX(-13.16)" x="119.6023" y="111.1562" enable-background="new" style="line-height:0%" xml:space="preserve"><tspan x="119.6023" y="111.1562" font-size="1.9072px" style="line-height:1.25">cazzola</tspan></text></g><ellipse transform="matrix(.91821 0 0 1.0153 11.591 -1.9973)" cx="148.56" cy="119.91" rx="2.5412" ry="1.7236" enable-background="new"/><ellipse transform="matrix(.78704 0 0 .87029 31.078 15.145)" cx="148.56" cy="119.91" rx="2.5412" ry="1.7236" enable-background="new" fill="url(#ar)"/><ellipse transform="matrix(.91821 0 0 1.0153 1.5914 -1.9973)" cx="148.56" cy="119.91" rx="2.5412" ry="1.7236" enable-background="new"/><ellipse transform="matrix(.78704 0 0 .87029 21.078 15.145)" cx="148.56" cy="119.91" rx="2.5412" ry="1.7236" enable-background="new" fill="url(#aq)"/><ellipse transform="matrix(.91821 0 0 1.0153 21.591 -1.9973)" cx="148.56" cy="119.91" rx="2.5412" ry="1.7236" enable-background="new"/><ellipse transform="matrix(.78704 0 0 .87029 41.078 15.145)" cx="148.56" cy="119.91" rx="2.5412" ry="1.7236" enable-background="new" fill="url(#ap)"/><path d="m146.12 119c-0.0727 0.15537-0.125 0.32608-0.125 0.5 0 0.828 0.89601 1.5 2 1.5 1.104 0 2-0.672 2-1.5 0-0.17392-0.0523-0.34463-0.125-0.5-0.27336 0.58432-1.0029 1-1.875 1s-1.6016-0.41568-1.875-1z" enable-background="new" fill="#fff" opacity=".6"/><path d="m136.12 119c-0.0727 0.15537-0.125 0.32608-0.125 0.5 0 0.828 0.89601 1.5 2 1.5 1.104 0 2-0.672 2-1.5 0-0.17392-0.0523-0.34463-0.125-0.5-0.27336 0.58432-1.0029 1-1.875 1s-1.6016-0.41568-1.875-1z" enable-background="new" fill="#fff" opacity=".6"/><path d="m156.12 119c-0.0727 0.15537-0.125 0.32608-0.125 0.5 0 0.828 0.89601 1.5 2 1.5 1.104 0 2-0.672 2-1.5 0-0.17392-0.0523-0.34463-0.125-0.5-0.27336 0.58432-1.0029 1-1.875 1s-1.6016-0.41568-1.875-1z" enable-background="new" fill="#fff" opacity=".6"/><rect x="144.48" y="110.73" width="7.1095" height="2.8598" rx="1.4095" ry="1.0165" enable-background="new" fill="none" opacity=".4" stroke="url(#ao)" stroke-linejoin="round" stroke-width=".828"/><rect transform="scale(1,-1)" x="145.33" y="-112.81" width="5.3488" height="2.2036" enable-background="new" fill="none" opacity=".6" stroke="url(#an)" stroke-linejoin="round" stroke-width=".828"/><text transform="matrix(.97141 0 -.079588 1.0294 0 0)" x="144.14587" y="107.97839" enable-background="new" fill="#ffffff" font-family="Arial" opacity=".4" style="line-height:0%" xml:space="preserve"><tspan x="144.14587" y="107.97839" font-size="1.8527px" style="line-height:1.25">tapioco</tspan></text><text transform="matrix(.97141 0 .14173 1.0294 0 0)" x="147.96324" y="107.97839" enable-background="new" fill="#ffffff" font-family="Arial" opacity=".4" style="line-height:0%" xml:space="preserve"><tspan x="147.96324" y="107.97839" font-size="1.8527px" style="line-height:1.25">tarapia</tspan></text><text transform="matrix(.97141 0 -.22713 1.0294 0 0)" x="157.05214" y="102.14989" enable-background="new" fill="#ffffff" font-family="Arial" opacity=".4" style="line-height:0%" xml:space="preserve"><tspan x="157.05214" y="102.14989" font-size="1.8527px" style="line-height:1.25">tarapia</tspan></text><text transform="matrix(.97141 0 .14173 1.0294 0 0)" x="149.84302" y="102.14989" enable-background="new" fill="#ffffff" font-family="Arial" opacity=".4" style="line-height:0%" xml:space="preserve"><tspan x="149.84302" y="102.14989" font-size="1.8527px" style="line-height:1.25">tapioco</tspan></text><text transform="matrix(1.1362 0 -.093087 .88015 0 0)" x="131.50484" y="133.4001" enable-background="new" fill="#ffffff" font-family="Arial" opacity=".4" style="line-height:0%" xml:space="preserve"><tspan x="131.50484" y="133.4001" font-size="1.584px" style="line-height:1.25">01</tspan></text><text transform="matrix(1.1362 0 .014871 .88015 0 0)" x="127.68393" y="133.4001" enable-background="new" fill="#ffffff" font-family="Arial" opacity=".4" style="line-height:0%" xml:space="preserve"><tspan x="127.68393" y="133.4001" font-size="1.584px" style="line-height:1.25">10</tspan></text><text transform="matrix(1.1362 0 .12283 .88015 0 0)" x="123.86304" y="133.4001" enable-background="new" fill="#ffffff" font-family="Arial" opacity=".4" style="line-height:0%" xml:space="preserve"><tspan x="123.86304" y="133.4001" font-size="1.584px" style="line-height:1.25">11</tspan></text><rect x="199" y="183" width="16.028" height="20" rx="1.6292" ry="2.0329" enable-background="new" filter="url(#e)"/><g transform="translate(0,-10)" enable-background="new" filter="url(#bn)"><path d="m201.62 215c-0.90256 0-1.625 0.90501-1.625 2.0312l3.2341 37.969h20.534l-7.7365-37.969c0-1.1262-0.72244-2.0312-1.625-2.0312z" enable-background="new"/><path d="m75 185-5 66.667v3.3333h132v-3.3333l-5-66.667z" enable-background="new"/><path d="m70.143 215c0.90256 0 1.625 0.90501 1.625 2.0312l-3.2341 37.969h-20.534l7.7365-37.969c0-1.1262 0.72244-2.0312 1.625-2.0312z" enable-background="new"/></g><g clip-path="url(#bw)" enable-background="new"><path d="m57.625 184c-0.90256 0-1.625 0.90501-1.625 2.0312l-8 40v15.938c0 1.1262 0.905 2.0312 2.0312 2.0312h15.938c1.1262 0 2.0312-0.90501 2.0312-2.0312l4.0312-40v-15.938c0-1.1262-0.72244-2.0312-1.625-2.0312z" enable-background="new" fill="url(#am)"/><path d="m51.031 216c-0.74425 0-1.3958 0.4064-1.75 1h17.688c0.57224 0 1.0312 0.45901 1.0312 1.0312v17.688c0.5936-0.3542 1-1.0058 1-1.75v-15.938c0-1.1262-0.90501-2.0312-2.0312-2.0312z" enable-background="new" fill="url(#al)" opacity=".02"/><path d="m51.031 217c-0.74425 0-1.3958 0.4064-1.75 1h17.688c0.57224 0 1.0312 0.45901 1.0312 1.0312v17.688c0.5936-0.3542 1-1.0058 1-1.75v-15.938c0-1.1262-0.90501-2.0312-2.0312-2.0312z" enable-background="new" fill="url(#ak)" opacity=".2"/><rect x="48" y="224" width="20" height="20" rx="2.0329" ry="2.0329" enable-background="new" fill="url(#aj)"/><path d="m57.625 184c-0.90256 0-1.625 0.90501-1.625 2.0312l-7.8438 39.219c-0.1026 0.24338-0.15625 0.49969-0.15625 0.78125v15.938c0 1.1262 0.905 2.0312 2.0312 2.0312h15.938c1.1262 0 2.0312-0.90501 2.0312-2.0312l4.0312-40v-15.938c0-1.1262-0.72244-2.0312-1.625-2.0312z" enable-background="new" fill="none" filter="url(#bj)" stroke="#000" stroke-linejoin="round"/></g><path d="m65.25 143.03-17.25 83 18.781-0.3125 9.5-82.688z" clip-path="url(#h)" enable-background="new" fill="url(#d)" filter="url(#f)" opacity=".2"/><path transform="matrix(-1 0 0 1 272.28 0)" d="m65.25 143.03-17.25 83 18.781-0.3125 9.5-82.688z" clip-path="url(#h)" enable-background="new" fill="url(#d)" filter="url(#f)" opacity=".2"/><g transform="matrix(-1 0 0 1 272.03 0)" clip-path="url(#bu)" enable-background="new"><path d="m57.625 184c-0.90256 0-1.625 0.90501-1.625 2.0312l-8 40v15.938c0 1.1262 0.905 2.0312 2.0312 2.0312h15.938c1.1262 0 2.0312-0.90501 2.0312-2.0312l4.0312-40v-15.938c0-1.1262-0.72244-2.0312-1.625-2.0312z" enable-background="new" fill="url(#ai)"/><path transform="matrix(-1 0 0 1 272.03 0)" d="m220.25 216c0.74425 0 1.3958 0.4064 1.75 1h-17.688c-0.57224 0-1.0312 0.45901-1.0312 1.0312v17.688c-0.5936-0.3542-1-1.0058-1-1.75v-15.938c0-1.1262 0.90501-2.0312 2.0312-2.0312z" enable-background="new" fill="url(#ah)" opacity=".03"/><rect x="48" y="224" width="20" height="20" rx="2.0329" ry="2.0329" enable-background="new" fill="url(#ag)"/><path transform="matrix(-1 0 0 1 310.03 -100)" d="m252.41 284c0.90256 0 1.625 0.90501 1.625 2.0312 0 0 7.5433 37.717 7.8438 39.219 0.1026 0.24338 0.15625 0.49969 0.15625 0.78125v15.938c0 1.1262-0.90501 2.0312-2.0312 2.0312h-15.938c-1.1262 0-2.0312-0.90501-2.0312-2.0312l-4.0312-40v-15.938c0-1.1262 0.72244-2.0312 1.625-2.0312z" enable-background="new" fill="none" filter="url(#bq)" stroke="#000" stroke-linejoin="round"/><path d="m51.781 217c-0.74425 0-1.3958 0.4064-1.75 1h17.688c0.57224 0 1.0312 0.45901 1.0312 1.0312v17.688c0.5936-0.3542 1-1.0058 1-1.75v-15.938c0-1.1262-0.90501-2.0312-2.0312-2.0312z" enable-background="new" fill="url(#af)" opacity=".2"/></g><path d="m205.72 188.12a1.8752 1.8752 0 0 0-1.8594 2.1113l2.5312 20a1.8752 1.8752 0 0 0 1.8594 1.6387h6.5938a1.8752 1.8752 0 0 0 1.8301-2.2871l-4.5-20a1.8752 1.8752 0 0 0-1.8301-1.4629z" enable-background="new" fill="url(#p)" opacity=".5"/><path d="m72 171v9h128v-9z" enable-background="new" opacity=".2"/><rect x="73" y="172" width="126" height="28" enable-background="new" fill="url(#ae)"/><path d="m57.625 185.25-7.5 37.75" enable-background="new" fill="none" opacity=".1" stroke="url(#o)" stroke-linecap="round" stroke-width="1px"/><path d="m214.12 185.25 7.5 37.75" enable-background="new" fill="none" opacity=".02" stroke="url(#n)" stroke-linecap="round" stroke-width="1px"/><path d="m71.25 184.62-4 40.625" enable-background="new" fill="none" opacity=".1" stroke="url(#m)" stroke-linecap="round" stroke-width="1px"/><path d="m205.53 188.12c-0.51052 0.0464-0.99371 0.28605-1.3125 0.6875-0.10123 0.12747-0.15451 0.29108-0.21875 0.4375 0.16853-0.068 0.3468-0.10822 0.53125-0.125 0.0625-3e-3 0.12504-3e-3 0.1875 0h4.625c0.88395-6e-3 1.6522 0.60579 1.8438 1.4688l4.5 20c0.0852 0.38424 0.0248 0.77022-0.125 1.125 0.2866-0.11833 0.5502-0.28405 0.75-0.53125 0.35889-0.44404 0.49865-1.0364 0.375-1.5938l-4.5-20c-0.19157-0.86296-0.9598-1.4749-1.8438-1.4688h-4.625c-0.0625-3e-3 -0.12504-3e-3 -0.1875 0z" enable-background="new" fill="url(#ad)"/><path d="m200.25 184.62 4 40.625" enable-background="new" fill="none" opacity=".1" stroke="url(#l)" stroke-linecap="round" stroke-width="1px"/><g transform="translate(0,-130)" clip-path="url(#by)" enable-background="new"><path d="m75 302-5 66.667v3.3333h132v-3.3333l-5-66.667z" enable-background="new" fill="url(#ac)"/><rect x="70" y="370" width="132" height="4" rx="1.2374" ry="1.2374" enable-background="new" fill="url(#ab)"/><path d="m75 302-5 66.656v4.0938c0 0.68554 0.56446 1.25 1.25 1.25h129.5c0.68554 0 1.25-0.56447 1.25-1.25v-4.0938l-5-66.656z" enable-background="new" fill="none" filter="url(#br)" stroke="#000" stroke-linejoin="round"/></g><g transform="translate(0,-110)" clip-path="url(#bx)" enable-background="new"><path d="m73.812 282-3.8125 50.656v3.3438h132v-3.3438l-3.8125-50.656z" enable-background="new" fill="url(#aa)"/><rect x="70" y="334" width="132" height="4" rx="1.2374" ry="1.2374" enable-background="new" fill="url(#z)"/><path d="m73.812 282-3.8125 50.656v4.0938c0 0.68554 0.56446 1.25 1.25 1.25h129.5c0.68554 0 1.25-0.56447 1.25-1.25v-4.0938l-3.8125-50.656z" enable-background="new" fill="none" filter="url(#bs)" stroke="#000" stroke-linejoin="round"/></g><path d="m179.88 230c-2.1468 0-3.875 1.9443-3.875 4.3594v4.6406h16v-4.6406c0-2.4151-1.7282-4.3594-3.875-4.3594z" enable-background="new" fill="url(#y)"/><path d="m179.88 232c-2.1468 0-3.875 1.5122-3.875 3.3906v3.6094h16v-3.6094c0-1.8784-1.7282-3.3906-3.875-3.3906z" enable-background="new" fill="#7fa9d5"/><rect x="175" y="240" width="1" height="4" enable-background="new" fill="#2e3436"/><rect x="192" y="240" width="1" height="4" enable-background="new" fill="#2e3436"/><path d="m179.88 233c-2.1468 0-3.875 1.2962-3.875 2.9062v3.0938h16v-3.0938c0-1.6101-1.7282-2.9062-3.875-2.9062z" enable-background="new" fill="#729fcf"/><path d="m205.72 188.12a1.8752 1.8752 0 0 0-1.8594 2.1113l2.5312 20a1.8752 1.8752 0 0 0 1.8594 1.6387h6.5938a1.8752 1.8752 0 0 0 1.8301-2.2871l-4.5-20a1.8752 1.8752 0 0 0-1.8301-1.4629z" enable-background="new" fill="none" filter="url(#bk)" stroke="url(#x)" stroke-linecap="round" stroke-linejoin="round"/><path d="m207.88 191.25 3.25 19.25" enable-background="new" fill="none" stroke="#000" stroke-linecap="round" stroke-width="1px"/><path d="m208.88 191.25 3.25 19.25" enable-background="new" fill="none" opacity=".05" stroke="#fff" stroke-linecap="round" stroke-width="1px"/><rect transform="matrix(1.1724 0 .095238 1.0159 -55.901 -2.965)" x="208.88" y="203.5" width="3.625" height="7.875" rx="2.2981" ry="2.2981" enable-background="new" filter="url(#bm)"/><path d="m210.01 199.92c-0.42462 0-0.76647 0.34186-0.76647 0.76647v5.4505l0.59614 4.684c0 0.33027 0.26588 0.59615 0.59615 0.59615h1.533c0.33027 0 0.59614-0.26589 0.59614-0.59615v-5.7911l-0.15703-1.144-0.43911-3.1993c0-0.42461-0.34186-0.76647-0.76648-0.76647z" enable-background="new" fill="url(#w)"/><path d="m209.28 200.47c-0.0191 0.0672-0.0313 0.14526-0.0313 0.21875v5.4375l0.59375 4.6875v-6l-0.5625-4.3438z" enable-background="new" fill="#204a87"/></g><g transform="translate(-8.4473e-8 130)" enable-background="new"><path transform="matrix(1 0 0 .95636 0 178.76)" d="m79.682 172s-6.0568 40.036-2.6818 57.286h118c3.25-17.25-2.6818-57.286-2.6818-57.286z" enable-background="new" fill="url(#v)" filter="url(#dw)"/><path d="m79.682 342s-6.0568 40.036-2.6818 57.286h118c3.25-17.25-2.6818-57.286-2.6818-57.286z" enable-background="new" fill="#eeeeec"/><path d="m79.682 342s-6.0568 40.036-2.6818 57.286h118c3.25-17.25-2.6818-57.286-2.6818-57.286z" enable-background="new" fill="url(#u)"/><path transform="translate(0,-130)" d="m98.375 424.03c-2.7815-1e-5 -4.9681 0.66526-6.5938 2-1.6257 1.3411-2.4375 3.1466-2.4375 5.4375 2e-6 2.3165 0.81328 4.1404 2.4688 5.4688 1.6555 1.3283 3.9341 2 6.8125 2 1.1111 1e-5 2.1733-0.1016 3.1875-0.28125 1.0216-0.17966 1.9727-0.4283 2.875-0.78125l-1.1562-2.5c-0.50726 0.20229-1.0866 0.39106-1.625 0.53125-0.91723 0.22459-1.8253 0.34375-2.75 0.34375-1.7151 0-3.0366-0.4222-3.9688-1.25-0.9247-0.82139-1.4062-1.9976-1.4062-3.5312 0-1.5209 0.44887-2.7034 1.3438-3.5312 0.89482-0.82779 2.2379-1.2188 3.8125-1.2188 1.5997 1e-5 2.5966 0.2842 3.125 0.59375v2.5h-3.4688v2.4688h6.7188v-6.9062c-2.228-1.3632-5.5565-1.3438-6.9375-1.3438zm35.812 0c-2.6771 0-4.7526 0.64686-6.2812 1.9688-1.5212 1.3219-2.3125 3.1458-2.3125 5.4688 0 2.3294 0.79125 4.1468 2.3125 5.4688 1.469 1.2702 3.4393 1.9503 5.9688 2 0.10282 2e-3 0.20793 0 0.3125 0 2.6845 0 4.7912-0.67816 6.3125-2 1.5212-1.3219 2.2812-3.1394 2.2812-5.4688 1e-5 -2.3229-0.76003-4.1468-2.2812-5.4688-1.5212-1.3219-3.628-1.9687-6.3125-1.9688zm19.344 0.21875-3.8438 9.3438-1.25-9.2812h-4.0938l2.0938 14.375h4.6562l3.8125-9 3.8125 9h4.625l2.0938-14.375h-4.0625l-1.25 8.9688-3.8438-9.0312zm-45.281 0.0625v14.375h2.7188l8.5938-8.6562v8.6562h3.6562v-14.375h-2.7188l-8.5938 8.625v-8.625zm60.125 0v14.375h11.625v-2.8125h-7.3125v-2.9688h5.625v-2.5h-5.625v-3.3125h7.5625v-2.7812zm-34.188 2.4062c1.3199 0 2.3392 0.41579 3.0625 1.25 0.7233 0.83422 1.0938 1.992 1.0938 3.5-1e-5 1.5144-0.37042 2.697-1.0938 3.5312-0.72338 0.83422-1.7426 1.25-3.0625 1.25-0.041 0-0.0846 8e-4 -0.125 0-1.2536-0.0253-2.2056-0.44186-2.9062-1.25-0.72332-0.83422-1.0938-2.0168-1.0938-3.5312 1e-5 -1.508 0.3704-2.6658 1.0938-3.5 0.72335-0.83422 1.7188-1.25 3.0312-1.25zm51.156 8.375v3.4688h-1.9062v0.46875h4.5312v-0.46875h-1.9062v-3.4688zm3.4062 0v3.9375h1.0625l1.375-2.6875 1.375 2.6875h1.0938v-3.9375h-0.71875v3.4375l-1.375-2.6875h-0.71875l-1.4062 2.6875v-3.4375zm-50.219 11.375c-20.62 0-40.362 17.439-36.5 30.031 5.7061 18.618 55.814 22.305 58.562 10.406 3.3112-14.335-46.915-19.57-28-30.062 5.9418-3.2961 11.981-0.76912 11.062 4.3438-0.767 4.2656 20.578 6.8527 18.906 0.40625-2.189-8.4537-13.888-15.125-24.031-15.125zm-35.5 42.062c-4.7008 0.37642-12.201 8.0953-5.5 11.469 7.3978 3.7219 11.194-9.9485 6.8438-11.344-0.40786-0.13075-0.85746-0.16394-1.3438-0.125zm13.094 7.25c-5.1555-0.0255-12.23 10.81-3.2812 13.5 9.2356 2.7766 8.9602-12.699 3.7812-13.469-0.16171-0.0241-0.33369-0.0304-0.5-0.0313zm37.406 1c-11.488 0-7.6407 21.188 12.781 21.188 20.423 0-1.2944-21.188-12.781-21.188zm-21.125 2.625c-6.1194 0.27215-10.18 14.851 1.3125 15.938 11.497 1.0868 4.8044-16.21-1.3125-15.938z" clip-path="url(#ea)" enable-background="new" fill="#4e9a06" opacity=".5"/></g><g transform="translate(-400,110)" clip-path="url(#dy)" enable-background="new" filter="url(#dk)"><rect transform="translate(400,50)" x="80" y="296" width="112" height="16" clip-path="none" enable-background="new" fill="url(#t)" opacity=".9"/></g><rect x="73" y="472" width="126" height="8" enable-background="new" fill="url(#cz)"/><path d="m101.62 472c-0.14465 1.5402-0.0373 3.0539 0.40625 4.5 5.7061 18.618 55.814 22.305 58.562 10.406 1.4643-6.339-7.5405-10.885-16.406-14.906zm1.4062 16.531c-4.7008 0.37642-12.201 8.0953-5.5 11.469 7.3978 3.7219 11.194-9.9485 6.8438-11.344-0.40786-0.13075-0.85746-0.16394-1.3438-0.125zm13.094 7.25c-5.1555-0.0255-12.23 10.81-3.2812 13.5 9.2356 2.7766 8.9602-12.699 3.7812-13.469-0.16171-0.0241-0.33369-0.0304-0.5-0.0313zm37.406 1c-11.488 0-7.6407 21.188 12.781 21.188 20.423 0-1.2944-21.188-12.781-21.188zm-21.125 2.625c-6.1194 0.27215-10.18 14.851 1.3125 15.938 11.497 1.0868 4.8044-16.21-1.3125-15.938z" enable-background="new" fill="url(#cy)" opacity=".6"/></g><g transform="matrix(-.599 0 0 .599 1060.6 119.76)" enable-background="new"><g transform="matrix(.9828 0 0 1 3.7214 0)" fill-rule="evenodd"><ellipse transform="matrix(-.51664 0 0 .51664 145.08 101.72)" cx="245" cy="262" rx="20" ry="10" color="#000000" enable-background="accumulate" filter="url(#dr)" opacity=".60766"/><ellipse transform="matrix(-.96511 0 0 .84183 263.02 15.522)" cx="245" cy="262" rx="20" ry="10" color="#000000" enable-background="accumulate" fill="url(#ck)" filter="url(#do)" opacity=".90141"/><ellipse transform="matrix(-2.4506 0 0 1.0044 659.91 -25.078)" cx="245" cy="262" rx="20" ry="10" color="#000000" enable-background="accumulate" fill="url(#cj)" filter="url(#dp)" opacity=".59809"/><ellipse transform="matrix(-2.4986 0 0 1.0044 688.25 -26.078)" cx="245" cy="262" rx="20" ry="17.965" color="#000000" enable-background="accumulate" fill="url(#ci)" filter="url(#dq)" opacity=".50718"/></g><g transform="matrix(.71914 0 0 .71914 377.43 66.478)" enable-background="new"><g transform="translate(184,-48)"><path d="m-572 146-119 118c-14 16 4 34 20 24l135-107z" color="#000000" enable-background="accumulate" fill="url(#cx)"/><path transform="translate(-97,-72)" d="m-475 222-117 116-2 8 120-119 8 5z" color="#000000" enable-background="accumulate" fill="url(#k)" filter="url(#du)" opacity=".27049"/><path transform="translate(-97,-72)" d="m-475 222-117 115.29c-3.5355 2.8284-2 8.7071-2 8.7071l5.7757-10.214 111.85-110.22 10.373 6.432z" color="#000000" enable-background="accumulate" fill="url(#k)" opacity=".41584"/><path transform="matrix(1.5424 0 0 1.5424 288.81 -96.378)" d="m-549.75 171.3 10.746 9.7046-88 67z" color="#000000" enable-background="accumulate" fill="url(#ch)" filter="url(#dt)" opacity=".30738"/><path transform="translate(-281,-24)" d="m-405.25 287.75c-8.1502 8.3845-9.3967 16.531 1.75 24.25" color="#000000" enable-background="accumulate" fill="none" stroke="url(#cg)" stroke-opacity=".12429" stroke-width="2.3043"/><path d="m-572 146-119 118c-14 16 4 34 20 24l135-107z" clip-path="url(#ec)" color="#000000" enable-background="accumulate" fill="none" filter="url(#dm)" stroke="url(#cw)" stroke-width="6.9644"/></g><g transform="matrix(-.86603 .5 .5 .86603 -575.39 154.91)"><path d="m-297.5-70c-59.892 0-108.5 48.608-108.5 108.5s48.608 108.5 108.5 108.5 108.5-48.608 108.5-108.5-48.608-108.5-108.5-108.5zm0 26.433c45.301 0 82.067 36.766 82.067 82.067s-36.766 82.067-82.067 82.067-82.067-36.766-82.067-82.067 36.766-82.067 82.067-82.067z" color="#000000" enable-background="accumulate" fill="url(#cf)"/><path d="m-295.92 136.13c50.579-0.99708 92.438-41.921 93.435-91.349 0.99708-49.428-39.243-88.734-89.822-87.737-1.1857 0.02337-2.3605 0.09878-3.5362 0.16558 44.726 1.0684 79.735 36.472 78.842 80.697-0.91731 45.473-39.427 83.124-85.96 84.041-45.255 0.89212-81.499-33.303-82.613-77.01-0.0679 1.1489-0.14435 2.297-0.16772 3.4557-0.99707 49.428 39.243 88.734 89.822 87.737z" color="#000000" enable-background="accumulate" fill="url(#ce)"/><path d="m-298.47-58.151c-50.368 0.24252-95.587 41.78-95.829 91.868-0.24252 50.088 40.439 90.542 90.807 90.3 1.1807-6e-3 2.3499-0.0643 3.52-0.11413-44.569-1.7623-79.98-38.181-79.763-82.997 0.22312-46.081 38.012-83.661 84.351-83.884 45.066-0.21699 81.69 34.996 83.463 79.317 0.0502-1.1636 0.10903-2.3262 0.11471-3.5004 0.24253-50.088-24.878-88.172-86.663-90.989z" color="#000000" enable-background="accumulate" fill="url(#cd)"/><circle transform="matrix(.91261 .0073658 .0073658 .92112 -183.71 -128.47)" cx="-126" cy="184.5" r="107.2" color="#000000" enable-background="accumulate" fill="none" filter="url(#dv)" stroke="url(#cc)" stroke-width="2.5134"/><circle transform="matrix(.92089 .0025878 .0025878 .92388 -180.48 -130.92)" cx="-126" cy="184.5" r="107.2" color="#000000" enable-background="accumulate" fill="none" stroke="url(#cb)" stroke-width="2.4983"/><circle transform="matrix(1.0843 0 0 1.0843 -87.639 -85.783)" cx="-194" cy="116" r="83" color="#000000" enable-background="accumulate" fill="url(#ca)" opacity=".5"/><ellipse transform="matrix(1.2708 -.38426 .38426 1.2708 454.54 -338.16)" cx="-627" cy="71" rx="29" ry="17" color="#000000" enable-background="accumulate" fill="url(#bz)"/><ellipse transform="matrix(.62582 -.18923 .18923 .62582 63.953 -170.08)" cx="-627" cy="71" rx="29" ry="17" color="#000000" enable-background="accumulate" fill="#fff" filter="url(#ds)"/></g></g></g></g></g></svg>
