<?xml version="1.0" encoding="UTF-8"?>
<svg enable-background="new" version="1.0" viewBox="0 0 256 256" xmlns="http://www.w3.org/2000/svg" xmlns:xlink="http://www.w3.org/1999/xlink"><defs><linearGradient id="m"><stop stop-color="#4e9a06" offset="0"/><stop stop-color="#2d5903" offset="1"/></linearGradient><filter id="ch" x="-.034675" y="-.2225" width="1.0694" height="1.445" color-interpolation-filters="sRGB"><feGaussianBlur stdDeviation="2.225"/></filter><clipPath id="cp"><path d="m92 56-20 24v180h144v-180l-20-24z" color="#000000" enable-background="accumulate"/></clipPath><filter id="ck" color-interpolation-filters="sRGB"><feGaussianBlur stdDeviation="0.87"/></filter><filter id="cj" color-interpolation-filters="sRGB"><feGaussianBlur stdDeviation="0.96"/></filter><clipPath id="ad"><rect x="84" y="92" width="120" height="72" color="#000000" enable-background="accumulate"/></clipPath><linearGradient id="bl"><stop stop-color="#fff" stop-opacity=".302" offset="0"/><stop stop-color="#fff" stop-opacity="0" offset="1"/></linearGradient><linearGradient id="q"><stop stop-color="#fff" offset="0"/><stop stop-color="#fff" stop-opacity="0" offset="1"/></linearGradient><linearGradient id="bk"><stop stop-color="#fff" offset="0"/><stop stop-color="#d3d7cf" offset="1"/></linearGradient><linearGradient id="bm"><stop stop-color="#2e3436" offset="0"/><stop stop-color="#888a85" offset="1"/></linearGradient><filter id="s" color-interpolation-filters="sRGB"><feGaussianBlur stdDeviation="0.48"/></filter><mask id="i" maskUnits="userSpaceOnUse"><rect transform="scale(1,-1)" x="120" y="-127.04" width="48" height="25.042" color="#000000" enable-background="accumulate" fill="url(#bj)"/></mask><linearGradient id="bj" x1="143.1" x2="143.1" y1="112.1" y2="117.5" gradientTransform="matrix(1.1685 0 0 1.6741 -24.797 -307.85)" gradientUnits="userSpaceOnUse"><stop offset="0"/><stop stop-color="#fff" offset="1"/></linearGradient><filter id="v" x="-.080582" y="-.23491" width="1.1612" height="1.4698" color-interpolation-filters="sRGB"><feGaussianBlur stdDeviation="1.2786157"/></filter><filter id="w" color-interpolation-filters="sRGB"><feGaussianBlur stdDeviation="0.25054962"/></filter><filter id="y" x="-.0675" y="-.54" width="1.135" height="2.08" color-interpolation-filters="sRGB"><feGaussianBlur stdDeviation="0.9"/></filter><filter id="x" color-interpolation-filters="sRGB"><feGaussianBlur stdDeviation="0.12786157"/></filter><linearGradient id="bi"><stop offset="0"/><stop stop-opacity="0" offset="1"/></linearGradient><filter id="u" x="-.1275" y="-.306" width="1.255" height="1.612" color-interpolation-filters="sRGB"><feGaussianBlur stdDeviation="1.9125"/></filter><clipPath id="ac"><path d="m129.12 127.94a4.0004 4.0004 0 0 0-4 3.0938l-1 4a4.0004 4.0004 0 0 0 3.875 4.9688h32a4.0004 4.0004 0 0 0 3.875-4.9688l-1-4a4.0004 4.0004 0 0 0-7.875 0.96875h-22a4.0004 4.0004 0 0 0-3.875-4.0625z" color="#000000" enable-background="new" fill="#eeeeec" style="text-decoration-line:none;text-indent:0;text-transform:none"/></clipPath><filter id="z" x="-.0675" y="-.54" width="1.135" height="2.08" color-interpolation-filters="sRGB"><feGaussianBlur stdDeviation="0.9"/></filter><filter id="ab" color-interpolation-filters="sRGB"><feGaussianBlur stdDeviation="0.38262056"/></filter><filter id="aa" color-interpolation-filters="sRGB"><feGaussianBlur stdDeviation="0.39038834"/></filter><filter id="t" color-interpolation-filters="sRGB"><feGaussianBlur stdDeviation="0.1625"/></filter><filter id="bw"><feGaussianBlur stdDeviation="0.62888199"/></filter><filter id="bv"><feGaussianBlur stdDeviation="0.3975"/></filter><filter id="bu" x="-.05169" y="-.33168" width="1.1034" height="1.6634"><feGaussianBlur stdDeviation="2.9712734"/></filter><clipPath id="cl"><path d="m472 172v8 80h15.75v-80h112.25v80h15.75v-80h0.25v-8h-0.25-15.75-112.25z" color="#000000" enable-background="accumulate" opacity=".40881"/></clipPath><linearGradient id="n"><stop stop-color="#8ae234" offset="0"/><stop stop-color="#69c014" offset=".42161"/><stop stop-color="#80df23" offset="1"/></linearGradient><filter id="bt" x="-.19081" y="-.31801" width="1.3816" height="1.636"><feGaussianBlur stdDeviation="9.5403727"/></filter><filter id="bs"><feGaussianBlur stdDeviation="1.4101682"/></filter><filter id="bp" color-interpolation-filters="sRGB"><feGaussianBlur stdDeviation="3.5751766"/></filter><filter id="cg" x="-.096104" y="-.24396" width="1.1922" height="1.4879" color-interpolation-filters="sRGB"><feGaussianBlur stdDeviation="4.3359375"/></filter><filter id="cd"><feGaussianBlur stdDeviation="0.67205343"/></filter><filter id="bo" color-interpolation-filters="sRGB"><feGaussianBlur stdDeviation="3.5751766"/></filter><filter id="cf" x="-.096104" y="-.24396" width="1.1922" height="1.4879" color-interpolation-filters="sRGB"><feGaussianBlur stdDeviation="4.3359375"/></filter><filter id="br" color-interpolation-filters="sRGB"><feGaussianBlur stdDeviation="1.4101682"/></filter><filter id="cc" color-interpolation-filters="sRGB"><feGaussianBlur stdDeviation="0.67205343"/></filter><filter id="ca"><feGaussianBlur stdDeviation="1.5327915"/></filter><filter id="bn" color-interpolation-filters="sRGB"><feGaussianBlur stdDeviation="3.5751766"/></filter><filter id="ce" x="-.096104" y="-.24396" width="1.1922" height="1.4879" color-interpolation-filters="sRGB"><feGaussianBlur stdDeviation="4.3359375"/></filter><filter id="bq" color-interpolation-filters="sRGB"><feGaussianBlur stdDeviation="1.4101682"/></filter><filter id="cb" color-interpolation-filters="sRGB"><feGaussianBlur stdDeviation="0.67205343"/></filter><clipPath id="cm"><path d="m484-65v72h120v-72z" color="#000000" enable-background="accumulate" fill="#1a1a1a" opacity=".48428"/></clipPath><filter id="bx"><feGaussianBlur stdDeviation="1.5327915"/></filter><linearGradient id="au" x1="394" x2="394" y1="65.988" y2="82.61" gradientTransform="translate(159,-155)" gradientUnits="userSpaceOnUse"><stop stop-color="#1a1a1a" offset="0"/><stop stop-color="#fff" offset="1"/></linearGradient><mask id="ap" maskUnits="userSpaceOnUse"><rect x="471" y="-99" width="144" height="124" color="#000000" enable-background="accumulate" fill="url(#au)"/></mask><clipPath id="co"><path d="m328 44c-4.432 0-8 3.568-8 8v16c0 4.432 3.568 8 8 8h64v86.031l-31.719-25.219c-2.4498-2.0333-5.7395-3.015-8.9062-2.6875-3.1668 0.32756-6.1745 1.9458-8.1562 4.4375s-2.8936 5.8095-2.5 8.9688c0.39357 3.1592 2.0925 6.1332 4.625 8.0625l58.594 46.562 59.625-46.5c2.5379-1.9122 4.2732-4.8808 4.6875-8.0312 0.41435-3.1505-0.51159-6.4342-2.4688-8.9375-1.9572-2.5033-4.9364-4.1732-8.0938-4.5312-3.1574-0.35805-6.4382 0.59222-8.9062 2.5938l-32.781 25.562v-86.312h64c4.432 0 8-3.568 8-8v-16c0-4.432-3.568-8-8-8z" color="#000000" enable-background="new" fill="#999" style="text-decoration-line:none;text-indent:0;text-transform:none"/></clipPath><filter id="bz"><feGaussianBlur stdDeviation="0.4775"/></filter><clipPath id="cn"><rect x="864" y="-32" width="160" height="24" rx="4" ry="4" color="#000000" enable-background="new" fill="#b3b3b3"/></clipPath><filter id="by"><feGaussianBlur stdDeviation="0.92"/></filter><filter id="r"><feGaussianBlur stdDeviation="1.92"/></filter><filter id="ci" x="-.072438" y="-.46481" width="1.1449" height="1.9296"><feGaussianBlur stdDeviation="4.6481118"/></filter><linearGradient id="l" x1="404.5" x2="404.5" y1="100.98" y2="190.78" gradientTransform="translate(140,-160)" gradientUnits="userSpaceOnUse" xlink:href="#n"/><linearGradient id="k" x1="542.21" x2="542.21" y1="190.38" y2="170.53" gradientTransform="translate(0,-160)" gradientUnits="userSpaceOnUse"><stop stop-color="#d3d7cf" offset="0"/><stop stop-color="#d3d7cf" stop-opacity="0" offset="1"/></linearGradient><linearGradient id="j" x1="404.48" x2="404.48" y1="95.308" y2="174.6" gradientTransform="translate(140,-160)" gradientUnits="userSpaceOnUse" xlink:href="#m"/><radialGradient id="b" cx="640.84" cy="149.42" r="61.676" gradientTransform="matrix(-.39394 .68232 -.30074 -.17363 737.55 -262.46)" gradientUnits="userSpaceOnUse"><stop stop-color="#b3ec7c" offset="0"/><stop stop-color="#fff" stop-opacity="0" offset="1"/></radialGradient><radialGradient id="c" cx="518.84" cy="76.238" r="61.676" gradientTransform="matrix(.71483 1.2381 -.53286 .30765 56.241 -584.23)" gradientUnits="userSpaceOnUse"><stop stop-color="#b3ec7c" offset="0"/><stop stop-color="#fff" stop-opacity="0" offset="1"/></radialGradient><radialGradient id="a" cx="547.78" cy="191.12" r="61.676" gradientTransform="matrix(.58284 1.0095 -.31263 .1805 99.98 -450.13)" gradientUnits="userSpaceOnUse"><stop stop-color="#b3ec7c" offset="0"/><stop stop-color="#fff" stop-opacity="0" offset="1"/></radialGradient><linearGradient id="at" x1="404.5" x2="404.5" y1="100.98" y2="190.78" gradientTransform="translate(380 -2.047e-6)" gradientUnits="userSpaceOnUse" xlink:href="#n"/><linearGradient id="as" x1="542.21" x2="542.21" y1="190.38" y2="170.53" gradientTransform="translate(-140)" gradientUnits="userSpaceOnUse"><stop stop-color="#d3d7cf" offset="0"/><stop stop-color="#d3d7cf" stop-opacity="0" offset="1"/></linearGradient><linearGradient id="ar" x1="404.48" x2="404.48" y1="95.308" y2="174.6" gradientTransform="translate(380 -2.047e-6)" gradientUnits="userSpaceOnUse" xlink:href="#m"/><radialGradient id="ag" cx="518.84" cy="76.238" r="61.676" gradientTransform="matrix(.71483 1.2381 -.53286 .30765 436.24 -584.23)" gradientUnits="userSpaceOnUse"><stop stop-color="#b3ec7c" offset="0"/><stop stop-color="#fff" stop-opacity="0" offset="1"/></radialGradient><radialGradient id="af" cx="871.31" cy="-22.25" r="82.25" gradientTransform="matrix(3.8413 0 0 .29361 -2470.5 52.283)" gradientUnits="userSpaceOnUse"><stop stop-color="#fff" offset="0"/><stop stop-color="#fff" stop-opacity="0" offset="1"/></radialGradient><linearGradient id="aq" x1="944" x2="944" y1="37.116" y2="65.207" gradientTransform="translate(0,-80)" gradientUnits="userSpaceOnUse"><stop stop-color="#eeeeec" offset="0"/><stop stop-color="#fff" offset="1"/></linearGradient><radialGradient id="ae" cx="537" cy="107.66" r="4.969" gradientTransform="matrix(-1.2846 7.0156e-7 -1.2584e-5 -23.043 1626.8 2538)" gradientUnits="userSpaceOnUse"><stop stop-color="#fff" offset="0"/><stop stop-color="#fff" stop-opacity="0" offset="1"/></radialGradient><linearGradient id="bh" x1="306.5" x2="333.5" y1="64.365" y2="85.346" gradientTransform="matrix(5.3333 0 0 5.3333 -1562.7 -228)" gradientUnits="userSpaceOnUse"><stop stop-color="#e2e3e0" offset="0"/><stop stop-color="#fff" offset=".16058"/><stop stop-color="#eeeeec" offset=".37341"/><stop stop-color="#c5c6c4" offset=".58624"/><stop stop-color="#eeeeec" offset=".71557"/><stop stop-color="#888a85" offset="1"/></linearGradient><linearGradient id="bg" x1="73.479" x2="252.02" y1="85.42" y2="37.58" gradientUnits="userSpaceOnUse"><stop stop-color="#babdb6" offset="0"/><stop stop-color="#fff" offset=".16058"/><stop stop-color="#eeeeec" offset=".37341"/><stop stop-color="#babdb6" offset=".58624"/><stop stop-color="#eeeeec" offset=".71557"/><stop stop-color="#888a85" offset="1"/></linearGradient><radialGradient id="ao" cx="144" cy="144.2" r="72" gradientTransform="matrix(2.2628 0 0 .27812 -181.84 41.394)" gradientUnits="userSpaceOnUse"><stop stop-color="#fff" offset="0"/><stop stop-color="#fff" stop-opacity="0" offset="1"/></radialGradient><radialGradient id="an" cx="119.84" cy="81.462" r="70" gradientTransform="matrix(2.5253 -.125 .0091814 .18549 -209.26 70.37)" gradientUnits="userSpaceOnUse"><stop stop-color="#fff" offset="0"/><stop stop-color="#fff" stop-opacity="0" offset="1"/></radialGradient><linearGradient id="bf" x1="136" x2="136" y1="270.01" y2="188.12" gradientUnits="userSpaceOnUse"><stop stop-color="#fff" offset="0"/><stop stop-color="#fff" stop-opacity="0" offset="1"/></linearGradient><radialGradient id="am" cx="136.57" cy="79.66" r="73" gradientTransform="matrix(2.9009 0 0 1.2263 -262.43 -18.042)" gradientUnits="userSpaceOnUse"><stop stop-color="#fff" offset="0"/><stop stop-color="#d3d7cf" offset="1"/></radialGradient><linearGradient id="be" x1="148.62" x2="134" y1="161.58" y2="50.5" gradientUnits="userSpaceOnUse"><stop stop-color="#2e3436" offset="0"/><stop stop-color="#babdb6" offset="1"/></linearGradient><radialGradient id="al" cx="144" cy="267.24" r="73" gradientTransform="matrix(1 0 0 1.1246 0 -32.028)" gradientUnits="userSpaceOnUse"><stop stop-color="#fff" offset="0"/><stop stop-color="#fff" stop-opacity="0" offset="1"/></radialGradient><radialGradient id="ak" cx="140.56" cy="180.14" r="70" gradientTransform="matrix(3.5136 .94147 -.33646 1.2557 -304.76 -179.04)" gradientUnits="userSpaceOnUse"><stop stop-color="#fff" offset="0"/><stop stop-color="#fff" stop-opacity="0" offset="1"/></radialGradient><radialGradient id="h" cx="86.125" cy="94.25" r=".625" gradientUnits="userSpaceOnUse"><stop stop-color="#fff" offset="0"/><stop stop-color="#fff" stop-opacity="0" offset="1"/></radialGradient><linearGradient id="bd" x1="304.51" x2="336" y1="35.121" y2="54.82" gradientTransform="matrix(5.3333 0 0 5.3333 -762.67 -82)" gradientUnits="userSpaceOnUse"><stop stop-color="#888a85" offset="0"/><stop stop-color="#babdb6" offset=".16058"/><stop stop-color="#888a85" offset=".37341"/><stop stop-color="#555753" offset=".58624"/><stop stop-color="#888a85" offset=".71557"/><stop offset="1"/></linearGradient><linearGradient id="bc" x1="306.57" x2="335.06" y1="59.683" y2="81.257" gradientTransform="matrix(5.3333 0 0 5.3333 -1562.7 -228)" gradientUnits="userSpaceOnUse"><stop stop-color="#babdb6" offset="0"/><stop stop-color="#fff" offset=".16058"/><stop stop-color="#eeeeec" offset=".37341"/><stop stop-color="#dadcd8" offset=".58624"/><stop stop-color="#eeeeec" offset=".71557"/><stop stop-color="#888a85" offset="1"/></linearGradient><radialGradient id="g" cx="85" cy="128.16" r="1" gradientTransform="matrix(41.251 0 0 36.508 -3303.3 -4546.7)" gradientUnits="userSpaceOnUse" xlink:href="#bl"/><radialGradient id="f" cx="85" cy="128" r="1" gradientTransform="matrix(41.251 0 0 37 -3421.3 -4608)" gradientUnits="userSpaceOnUse" xlink:href="#q"/><radialGradient id="e" cx="144" cy="166" r="61.5" gradientTransform="matrix(2.1755 0 0 .55285 -169.27 1.2276)" gradientUnits="userSpaceOnUse" xlink:href="#bk"/><radialGradient id="d" cx="144" cy="267.24" r="73" gradientTransform="matrix(.76712 0 0 1.1246 33.534 -127.03)" gradientUnits="userSpaceOnUse" xlink:href="#q"/><linearGradient id="p" x1="171" x2="154.5" y1="147.75" y2="114.48" gradientUnits="userSpaceOnUse" xlink:href="#bm"/><linearGradient id="o" x1="130.75" x2="130.75" y1="140.3" y2="153.94" gradientUnits="userSpaceOnUse" xlink:href="#bi"/><linearGradient id="bb" x1="495" x2="488" y1="189.5" y2="189.5" gradientTransform="translate(-1488 -2.047e-6)" gradientUnits="userSpaceOnUse"><stop stop-color="#fff" offset="0"/><stop stop-color="#555753" stop-opacity="0" offset="1"/></linearGradient><linearGradient id="ba" x1="495" x2="481.66" y1="189.5" y2="189.5" gradientTransform="translate(400 -2.047e-6)" gradientUnits="userSpaceOnUse"><stop stop-color="#555753" offset="0"/><stop stop-color="#555753" stop-opacity="0" offset="1"/></linearGradient><linearGradient id="az" x1="517.59" x2="517.59" y1="175" y2="204.3" gradientTransform="translate(400 -2.047e-6)" gradientUnits="userSpaceOnUse"><stop offset="0"/><stop stop-opacity="0" offset="1"/></linearGradient><linearGradient id="ay" x1="306.57" x2="335.06" y1="59.683" y2="81.257" gradientTransform="matrix(5.3333 0 0 5.3333 -1162.7 -82)" gradientUnits="userSpaceOnUse"><stop stop-color="#babdb6" offset="0"/><stop stop-color="#fff" offset=".16058"/><stop stop-color="#eeeeec" offset=".37341"/><stop stop-color="#dadcd8" offset=".58624"/><stop stop-color="#eeeeec" offset=".71557"/><stop stop-color="#888a85" offset="1"/></linearGradient><linearGradient id="ax" x1="136" x2="136" y1="270.01" y2="188.12" gradientTransform="matrix(.83333 0 0 .72 424 206.8)" gradientUnits="userSpaceOnUse"><stop stop-color="#fff" offset="0"/><stop stop-color="#fff" stop-opacity="0" offset="1"/></linearGradient><radialGradient id="aj" cx="500.04" cy="132.71" r="22.9" gradientTransform="matrix(1.6223 1.3044 -.17501 .21765 115.11 -535.91)" gradientUnits="userSpaceOnUse"><stop stop-color="#fff" offset="0"/><stop stop-color="#fff" stop-opacity="0" offset="1"/></radialGradient><radialGradient id="ai" cx="582.82" cy="137.84" r="24.299" gradientTransform="matrix(1.4986 -1.0413 .20211 .29087 80.623 712.04)" gradientUnits="userSpaceOnUse"><stop stop-color="#fff" offset="0"/><stop stop-color="#fff" stop-opacity="0" offset="1"/></radialGradient><linearGradient id="aw" x1="542.68" x2="542.68" y1="47.436" y2="59.543" gradientTransform="matrix(.87373 0 0 .67144 417.66 107.23)" gradientUnits="userSpaceOnUse"><stop stop-color="#fff" offset="0"/><stop stop-color="#fff" stop-opacity="0" offset="1"/></linearGradient><linearGradient id="av" x1="542.68" x2="542.68" y1="47.436" y2="59.543" gradientTransform="matrix(.87373 0 0 .67144 521.66 107.23)" gradientUnits="userSpaceOnUse"><stop stop-color="#fff" offset="0"/><stop stop-color="#fff" stop-opacity="0" offset="1"/></linearGradient><radialGradient id="ah" cx="537" cy="107.66" r="4.969" gradientTransform="matrix(1.2846 7.0156e-7 1.2584e-5 -23.043 261.16 2538)" gradientUnits="userSpaceOnUse"><stop stop-color="#fff" offset="0"/><stop stop-color="#fff" stop-opacity="0" offset="1"/></radialGradient></defs><g transform="translate(-816,-28)"><g><g transform="matrix(1.0322 0 0 1.0322 -30.383 -15.932)"><path d="m894.18 253.5-19.161 21.5h137.96l-19.161-21.5z" color="#000000" enable-background="accumulate" filter="url(#bu)" opacity=".2673"/><g transform="matrix(1.0527 0 0 1.0293 792.41 -3.2306)"><g opacity=".76923"><path transform="matrix(1 0 0 1.056 0 -12.98)" d="m88.389 237-21.389 24h154l-21.389-24z" color="#000000" enable-background="accumulate" filter="url(#ch)" opacity=".4"/><path transform="matrix(1 0 0 1.0791 7.626e-6 -17.92)" d="m88.389 239-21.389 24h154l-21.389-24z" color="#000000" enable-background="accumulate" filter="url(#ci)" opacity=".2"/></g><g clip-path="url(#cp)" enable-background="new"><path d="m92 56-20 24v180h144v-180l-20-24z" color="#000000" enable-background="accumulate" fill="url(#bh)"/><path d="m92 56-20 24h144l-20-24z" color="#000000" enable-background="accumulate" fill="url(#bg)"/><path d="m92 56-20 24h144l-20-24z" color="#000000" enable-background="accumulate" fill="url(#ao)"/><path d="m213 80-20-24m-98 0-20 24" color="#000000" enable-background="accumulate" fill="none" opacity=".5" stroke="url(#an)" stroke-linecap="round" stroke-width="1.9214"/><path d="m72 160v100h144v-100z" color="#000000" enable-background="accumulate" fill="url(#bf)"/><path d="m72 80v180h144v-180z" color="#000000" enable-background="accumulate" fill="#555753" opacity=".2"/><path d="m72 80h144" enable-background="new" fill="none" stroke="url(#am)" stroke-width="1.9214"/><path d="m92 56-20 24v180h144v-180l-20-24z" color="#000000" enable-background="accumulate" fill="none" filter="url(#ck)" stroke="url(#be)" stroke-width="1.9214"/><path d="m72 257h144" enable-background="new" fill="none" stroke="url(#al)" stroke-width="1.9214"/></g><path d="m213 256v-176m-138 0v176" color="#000000" enable-background="accumulate" fill="#888a85" stroke="url(#ak)" stroke-width="1.9214"/><g transform="matrix(1.0667 0 0 1.0667 -17.131 -20.437)" enable-background="new"><circle transform="matrix(2.4 0 0 2.4 -120.58 -131.95)" cx="86.125" cy="94.25" r=".625" color="#000000" enable-background="accumulate" fill="#fff"/><circle transform="matrix(6 0 0 6 -430.62 -471.25)" cx="86.125" cy="94.25" r=".625" color="#000000" enable-background="accumulate" fill="url(#h)"/></g></g><g transform="translate(401,155)" enable-background="new" fill="none" filter="url(#bx)" mask="url(#ap)" opacity=".18553"><path d="m544 21.655v-7.6552l-2e-5 -114m-51.172 86.207 51.172 40.69 52.172-40.69" enable-background="new" stroke="url(#l)" stroke-linecap="round" stroke-width="24"/><path d="m540 16.655v-7.6552l-2e-5 -114m-51.172 86.207 51.172 40.69 52.172-40.69" enable-background="new" filter="url(#bn)" stroke="#73d216" stroke-linecap="round" stroke-width="6.8"/><path d="m490.34-10.656 53.625 42.656 54.656-42.625" color="#000000" enable-background="new" filter="url(#ce)" opacity=".31868" stroke="url(#k)" stroke-linecap="round" stroke-width="6" style="text-decoration-line:none;text-indent:0;text-transform:none"/><path d="m543.81-112.16c-3.1363 0.049-6.2333 1.3866-8.4193 3.6362s-3.4341 5.3836-3.3932 8.5201v102.03l-31.719-25.219c-2.4498-2.0333-5.7328-3.0304-8.8995-2.7028-3.1668 0.32756-6.1762 1.9755-8.1579 4.4671s-2.91 5.7948-2.5165 8.954c0.39357 3.1592 2.1039 6.1336 4.6364 8.0629l58.594 46.562 59.625-46.5c2.5379-1.9122 4.2625-4.8697 4.6769-8.0202 0.41435-3.1505-0.48694-6.4534-2.4441-8.9567-1.9572-2.5033-4.945-4.1749-8.1024-4.533-3.1574-0.35805-6.4436 0.60206-8.9116 2.6036l-32.781 25.562v-102.31c0.0417-3.1989-1.2599-6.3942-3.525-8.6535s-5.4637-3.5526-8.6626-3.5027z" color="#000000" enable-background="new" filter="url(#bq)" stroke="url(#j)" stroke-width="3" style="text-decoration-line:none;text-indent:0;text-transform:none"/><g transform="translate(140,-160)" enable-background="new" filter="url(#cb)" stroke-width="2"><path d="m403.88 50.875c-2.3562 0.03273-4.6844 1.0352-6.3273 2.7244-1.6429 1.6892-2.5804 4.0444-2.5477 6.4006v108.25l-36.562-29.094c-1.8449-1.4685-4.2829-2.1686-6.6258-1.9024-2.3429 0.26611-4.5619 1.4951-6.0304 3.3399s-2.1686 4.2829-1.9024 6.6258c0.2661 2.3429 1.4951 4.5619 3.3399 6.0304l56.719 45.094 57.781-45.031c1.8574-1.4521 3.1055-3.6599 3.3919-6 0.28647-2.3402-0.39223-4.7838-1.8445-6.6411-1.4522-1.8572-3.6602-3.1052-6.0003-3.3914-2.3402-0.28628-4.7838 0.39263-6.6409 1.845l-37.625 29.344v-108.47c0.0333-2.3979-0.93973-4.7939-2.6354-6.4896-1.6957-1.6957-4.0917-2.6687-6.4896-2.6354z" color="#000000" enable-background="new" stroke="url(#b)" style="text-decoration-line:none;text-indent:0;text-transform:none"/><path d="m403.88 50.875c-2.3562 0.03273-4.6844 1.0352-6.3273 2.7244-1.6429 1.6892-2.5804 4.0444-2.5477 6.4006v108.25l-36.562-29.094c-1.8449-1.4685-4.2829-2.1686-6.6258-1.9024-2.3429 0.26611-4.5619 1.4951-6.0304 3.3399s-2.1686 4.2829-1.9024 6.6258c0.2661 2.3429 1.4951 4.5619 3.3399 6.0304l56.719 45.094 57.781-45.031c1.8574-1.4521 3.1055-3.6599 3.3919-6 0.28647-2.3402-0.39223-4.7838-1.8445-6.6411-1.4522-1.8572-3.6602-3.1052-6.0003-3.3914-2.3402-0.28628-4.7838 0.39263-6.6409 1.845l-37.625 29.344v-108.47c0.0333-2.3979-0.93973-4.7939-2.6354-6.4896-1.6957-1.6957-4.0917-2.6687-6.4896-2.6354z" color="#000000" enable-background="new" stroke="url(#c)" style="text-decoration-line:none;text-indent:0;text-transform:none"/><path d="m403.88 50.875c-2.3562 0.03273-4.6844 1.0352-6.3273 2.7244-1.6429 1.6892-2.5804 4.0444-2.5477 6.4006v108.25l-36.562-29.094c-1.8449-1.4685-4.2829-2.1686-6.6258-1.9024-2.3429 0.26611-4.5619 1.4951-6.0304 3.3399s-2.1686 4.2829-1.9024 6.6258c0.2661 2.3429 1.4951 4.5619 3.3399 6.0304l56.719 45.094 57.781-45.031c1.8574-1.4521 3.1055-3.6599 3.3919-6 0.28647-2.3402-0.39223-4.7838-1.8445-6.6411-1.4522-1.8572-3.6602-3.1052-6.0003-3.3914-2.3402-0.28628-4.7838 0.39263-6.6409 1.845l-37.625 29.344v-108.47c0.0333-2.3979-0.93973-4.7939-2.6354-6.4896-1.6957-1.6957-4.0917-2.6687-6.4896-2.6354z" color="#000000" enable-background="new" stroke="url(#a)" style="text-decoration-line:none;text-indent:0;text-transform:none"/></g></g><rect x="888" y="180" width="112" height="71.75" color="#000000" enable-background="accumulate" fill="url(#bd)"/><g transform="matrix(1.0271 0 0 1.0271 796.1 -3.4821)"><rect x="84" y="93" width="120" height="72" color="#000000" enable-background="accumulate" filter="url(#cj)" opacity=".5"/><path d="m84 92v72h120v-72z" color="#000000" enable-background="accumulate" fill="url(#bc)"/><g clip-path="url(#ad)" enable-background="new" fill="none"><path d="m203 92v72" color="#000000" enable-background="accumulate" stroke="url(#g)" stroke-width="1.9471"/><path d="m85 92v72" color="#000000" enable-background="accumulate" stroke="url(#f)" stroke-width="1.9471"/><path d="m84 93h120" enable-background="new" stroke="url(#e)" stroke-width="1.9471"/><path d="m85 93h120v72h-120z" color="#000000" enable-background="accumulate" filter="url(#r)" opacity=".66578" stroke="#fff" stroke-width="5.8414"/><path d="m88.767 162h110.47" enable-background="new" opacity=".3" stroke="url(#d)" stroke-width="1.9471"/><path d="m84 92h120v72h-120z" color="#000000" enable-background="accumulate" filter="url(#s)" stroke="url(#p)" stroke-width="1.9471"/></g><g transform="matrix(1.1227 0 0 1.1227 -17.92 -16.65)" enable-background="new"><g fill="none"><g transform="matrix(1,0,0,-1,0,240)" filter="url(#v)" mask="url(#i)" opacity=".7"><path d="m155.12 111.03-0.25 1.9688h-21.594l-0.34375-2.7812m-7.875 1.5625 1 4c0.35895 1.8017 2.1004 3.2253 3.9375 3.2188h28c1.7662-3e-3 3.4471-1.3176 3.875-3.0312l1-3" color="#000000" enable-background="new" filter="url(#w)" stroke="#d3d7cf" stroke-width=".86714" style="text-decoration-line:none;text-indent:0;text-transform:none"/><path d="m129 113 1 4h28l1-4" enable-background="new" filter="url(#y)" stroke="#fff" stroke-linecap="round" stroke-linejoin="round" stroke-width="3.4685"/><path d="m128.94 106.94a4.0004 4.0004 0 0 0-3.875 4.8438l1 5a4.0004 4.0004 0 0 0 3.9375 3.2188h28a4.0004 4.0004 0 0 0 3.875-3.0312l1-4a4.0004 4.0004 0 1 0-7.75-1.9375l-0.25 0.96875h-21.594l-0.34375-1.7812a4.0004 4.0004 0 0 0-4-3.2812z" color="#000000" enable-background="new" filter="url(#x)" stroke="#2e3436" stroke-width=".43357" style="text-decoration-line:none;text-indent:0;text-transform:none"/></g><path d="m129 133 4 14h30l-4-14" enable-background="new" filter="url(#u)" opacity=".2" stroke="url(#o)" stroke-linecap="round" stroke-linejoin="round" stroke-width="6.9371"/><g clip-path="url(#ac)"><path d="m129 131-1 5h32l-1-4" stroke="#888a85" stroke-linecap="round" stroke-linejoin="round" stroke-width="6.9371"/><path d="m129 130-1 4h32l-1-4" enable-background="new" filter="url(#z)" stroke="#fff" stroke-linecap="round" stroke-linejoin="round" stroke-width="3.4685"/><path d="m129.12 127.94c-1.824-0.0472-3.5871 1.3164-4 3.0938l-1 3c-0.58543 2.3466 1.4565 4.9649 3.875 4.9688h32c2.4185-4e-3 4.4604-2.6222 3.875-4.9688l-1-3c-0.4782-1.8622-2.4549-3.2102-4.3631-2.9755-1.9082 0.23475-3.4993 3.0216-3.5119 4.9442h-22c0.0332-2.074-1.8017-4.9977-3.875-5.0625z" color="#000000" enable-background="new" filter="url(#ab)" stroke="#d3d7cf" stroke-width=".86714" style="text-decoration-line:none;text-indent:0;text-transform:none"/><path d="m129.12 127.94a4.0004 4.0004 0 0 0-4 3.0938l-1 4a4.0004 4.0004 0 0 0 3.875 4.9688h32a4.0004 4.0004 0 0 0 3.875-4.9688l-1-4a4.0004 4.0004 0 0 0-7.875 0.96875h-22a4.0004 4.0004 0 0 0-3.875-4.0625z" color="#000000" enable-background="new" filter="url(#aa)" stroke="#2e3436" stroke-width=".52028" style="text-decoration-line:none;text-indent:0;text-transform:none"/></g></g><circle transform="matrix(.85027 0 0 .85027 20.409 20.857)" cx="127.12" cy="132.62" r="3.25" color="#000000" enable-background="accumulate" fill="#fff" filter="url(#t)"/></g><g transform="matrix(1.5333 0 0 1.5333 -44.947 -49.546)"><circle transform="matrix(2.4 0 0 2.4 -120.58 -131.95)" cx="86.125" cy="94.25" r=".625" color="#000000" enable-background="accumulate" fill="#fff"/><circle transform="matrix(6 0 0 6 -430.62 -471.25)" cx="86.125" cy="94.25" r=".625" color="#000000" enable-background="accumulate" fill="url(#h)"/></g></g><rect x="887" y="178" width="116" height="46" color="#000000" enable-background="accumulate" fill="#eeeeec" filter="url(#bw)" opacity=".73585"/><g transform="translate(400,157)" clip-path="url(#cm)" fill="none" filter="url(#ca)" opacity=".31761"><path d="m544 21.655v-7.6552l-2e-5 -114m-51.172 86.207 51.172 40.69 52.172-40.69" enable-background="new" stroke="url(#l)" stroke-linecap="round" stroke-width="24"/><path d="m540 16.655v-7.6552l-2e-5 -114m-51.172 86.207 51.172 40.69 52.172-40.69" enable-background="new" filter="url(#bo)" stroke="#73d216" stroke-linecap="round" stroke-width="6.8"/><path d="m490.34-10.656 53.625 42.656 54.656-42.625" color="#000000" enable-background="new" filter="url(#cf)" opacity=".26374" stroke="url(#k)" stroke-linecap="round" stroke-width="6" style="text-decoration-line:none;text-indent:0;text-transform:none"/><path d="m543.81-112.16c-3.1363 0.049-6.2333 1.3866-8.4193 3.6362s-3.4341 5.3836-3.3932 8.5201v102.03l-31.719-25.219c-2.4498-2.0333-5.7328-3.0304-8.8995-2.7028-3.1668 0.32756-6.1762 1.9755-8.1579 4.4671s-2.91 5.7948-2.5165 8.954c0.39357 3.1592 2.1039 6.1336 4.6364 8.0629l58.594 46.562 59.625-46.5c2.5379-1.9122 4.2625-4.8697 4.6769-8.0202 0.41435-3.1505-0.48694-6.4534-2.4441-8.9567-1.9572-2.5033-4.945-4.1749-8.1024-4.533-3.1574-0.35805-6.4436 0.60206-8.9116 2.6036l-32.781 25.562v-102.31c0.0417-3.1989-1.2599-6.3942-3.525-8.6535s-5.4637-3.5526-8.6626-3.5027z" color="#000000" enable-background="new" filter="url(#br)" stroke="url(#j)" stroke-width="3" style="text-decoration-line:none;text-indent:0;text-transform:none"/><g transform="translate(140,-160)" enable-background="new" filter="url(#cc)" stroke-width="2"><path d="m403.88 50.875c-2.3562 0.03273-4.6844 1.0352-6.3273 2.7244-1.6429 1.6892-2.5804 4.0444-2.5477 6.4006v108.25l-36.562-29.094c-1.8449-1.4685-4.2829-2.1686-6.6258-1.9024-2.3429 0.26611-4.5619 1.4951-6.0304 3.3399s-2.1686 4.2829-1.9024 6.6258c0.2661 2.3429 1.4951 4.5619 3.3399 6.0304l56.719 45.094 57.781-45.031c1.8574-1.4521 3.1055-3.6599 3.3919-6 0.28647-2.3402-0.39223-4.7838-1.8445-6.6411-1.4522-1.8572-3.6602-3.1052-6.0003-3.3914-2.3402-0.28628-4.7838 0.39263-6.6409 1.845l-37.625 29.344v-108.47c0.0333-2.3979-0.93973-4.7939-2.6354-6.4896-1.6957-1.6957-4.0917-2.6687-6.4896-2.6354z" color="#000000" enable-background="new" stroke="url(#b)" style="text-decoration-line:none;text-indent:0;text-transform:none"/><path d="m403.88 50.875c-2.3562 0.03273-4.6844 1.0352-6.3273 2.7244-1.6429 1.6892-2.5804 4.0444-2.5477 6.4006v108.25l-36.562-29.094c-1.8449-1.4685-4.2829-2.1686-6.6258-1.9024-2.3429 0.26611-4.5619 1.4951-6.0304 3.3399s-2.1686 4.2829-1.9024 6.6258c0.2661 2.3429 1.4951 4.5619 3.3399 6.0304l56.719 45.094 57.781-45.031c1.8574-1.4521 3.1055-3.6599 3.3919-6 0.28647-2.3402-0.39223-4.7838-1.8445-6.6411-1.4522-1.8572-3.6602-3.1052-6.0003-3.3914-2.3402-0.28628-4.7838 0.39263-6.6409 1.845l-37.625 29.344v-108.47c0.0333-2.3979-0.93973-4.7939-2.6354-6.4896-1.6957-1.6957-4.0917-2.6687-6.4896-2.6354z" color="#000000" enable-background="new" stroke="url(#c)" style="text-decoration-line:none;text-indent:0;text-transform:none"/><path d="m403.88 50.875c-2.3562 0.03273-4.6844 1.0352-6.3273 2.7244-1.6429 1.6892-2.5804 4.0444-2.5477 6.4006v108.25l-36.562-29.094c-1.8449-1.4685-4.2829-2.1686-6.6258-1.9024-2.3429 0.26611-4.5619 1.4951-6.0304 3.3399s-2.1686 4.2829-1.9024 6.6258c0.2661 2.3429 1.4951 4.5619 3.3399 6.0304l56.719 45.094 57.781-45.031c1.8574-1.4521 3.1055-3.6599 3.3919-6 0.28647-2.3402-0.39223-4.7838-1.8445-6.6411-1.4522-1.8572-3.6602-3.1052-6.0003-3.3914-2.3402-0.28628-4.7838 0.39263-6.6409 1.845l-37.625 29.344v-108.47c0.0333-2.3979-0.93973-4.7939-2.6354-6.4896-1.6957-1.6957-4.0917-2.6687-6.4896-2.6354z" color="#000000" enable-background="new" stroke="url(#a)" style="text-decoration-line:none;text-indent:0;text-transform:none"/></g></g><rect x="887" y="179" width="114" height="45" color="#000000" enable-background="accumulate" fill="#888a85" filter="url(#bv)"/><rect transform="scale(-1,1)" x="-1e3" y="180" width="8" height="71.75" color="#000000" enable-background="accumulate" fill="url(#bb)" opacity=".2"/><rect x="888" y="180" width="8" height="71.75" color="#000000" enable-background="accumulate" fill="url(#ba)"/><rect x="888" y="180" width="112" height="71.75" color="#000000" enable-background="accumulate" fill="url(#az)"/><path transform="translate(400 -2.047e-6)" d="m486 189v72h120v-72z" clip-path="url(#cl)" color="#000000" enable-background="accumulate" filter="url(#bt)" opacity=".60063"/><g transform="translate(540 -2.047e-6)" clip-path="url(#co)"><path transform="translate(-380 2.047e-6)" d="m708 44c-4.432 0-8 3.568-8 8v16c0 4.432 3.568 8 8 8h64v86.031l-31.719-25.219a12.001 12.001 0 1 0-14.938 18.781l51.188 40.688 7.4062 5.875 7.4375-5.8125 52.188-40.688a12.001 12.001 0 1 0-14.781-18.906l-32.781 25.562v-86.312h64c4.432 0 8-3.568 8-8v-16c0-4.432-3.568-8-8-8z" color="#000000" enable-background="new" fill="url(#at)" style="text-decoration-line:none;text-indent:0;text-transform:none"/><path d="m400 176.66v-7.6552l-2e-5 -114m-51.172 86.207 51.172 40.69 52.172-40.69" enable-background="new" fill="none" filter="url(#bp)" stroke="#73d216" stroke-linecap="round" stroke-width="6.8"/><path d="m350.34 149.34 53.625 42.656 54.656-42.625" color="#000000" enable-background="new" fill="none" filter="url(#cg)" stroke="url(#as)" stroke-linecap="round" stroke-width="6" style="text-decoration-line:none;text-indent:0;text-transform:none"/><path transform="translate(-380 2.047e-6)" d="m708 44c-4.432 0-8 3.568-8 8v16c0 4.432 3.568 8 8 8h64v86.031l-31.719-25.219c-2.4498-2.0333-5.7395-3.015-8.9062-2.6875-3.1668 0.32756-6.1745 1.9458-8.1562 4.4375s-2.8936 5.8095-2.5 8.9688c0.39357 3.1592 2.0925 6.1332 4.625 8.0625l58.594 46.562 59.625-46.5c2.5379-1.9122 4.2732-4.8808 4.6875-8.0312 0.41435-3.1505-0.51159-6.4342-2.4688-8.9375-1.9572-2.5033-4.9364-4.1732-8.0938-4.5312-3.1574-0.35805-6.4382 0.59222-8.9062 2.5938l-32.781 25.562v-86.312h64c4.432 0 8-3.568 8-8v-16c0-4.432-3.568-8-8-8z" color="#000000" enable-background="new" fill="none" filter="url(#bs)" stroke="url(#ar)" stroke-width="3" style="text-decoration-line:none;text-indent:0;text-transform:none"/><g enable-background="new" fill="none" filter="url(#cd)" stroke-width="2"><path d="m403.88 50.875c-2.3562 0.03273-4.6844 1.0352-6.3273 2.7244-1.6429 1.6892-2.5804 4.0444-2.5477 6.4006v108.25l-36.562-29.094c-1.8449-1.4685-4.2829-2.1686-6.6258-1.9024-2.3429 0.26611-4.5619 1.4951-6.0304 3.3399s-2.1686 4.2829-1.9024 6.6258c0.2661 2.3429 1.4951 4.5619 3.3399 6.0304l56.719 45.094 57.781-45.031c1.8574-1.4521 3.1055-3.6599 3.3919-6 0.28647-2.3402-0.39223-4.7838-1.8445-6.6411-1.4522-1.8572-3.6602-3.1052-6.0003-3.3914-2.3402-0.28628-4.7838 0.39263-6.6409 1.845l-37.625 29.344v-108.47c0.0333-2.3979-0.93973-4.7939-2.6354-6.4896-1.6957-1.6957-4.0917-2.6687-6.4896-2.6354z" color="#000000" enable-background="new" stroke="url(#b)" style="text-decoration-line:none;text-indent:0;text-transform:none"/><path transform="translate(-380 2.047e-6)" d="m710.72 47c-4.2737 0-7.7188 2.899-7.7188 6.5v13c0 3.601 3.445 6.5 7.7188 6.5h64.281v95.25l-36.562-29.094c-1.8449-1.4685-4.2821-2.1724-6.625-1.9062-2.3429 0.26611-4.5627 1.4989-6.0312 3.3438s-2.1724 4.2821-1.9062 6.625c0.2661 2.3429 1.4989 4.5627 3.3438 6.0312l56.719 45.094 57.781-45.031c1.8574-1.4521 3.1198-3.6599 3.4062-6 0.28647-2.3402-0.39151-4.799-1.8438-6.6562-1.4522-1.8572-3.6598-3.0887-6-3.375-2.3402-0.28628-4.7991 0.39135-6.6562 1.8438l-37.625 29.344v-95.469h64.281c4.2737 0 7.7188-2.899 7.7188-6.5v-13c0-3.601-3.445-6.5-7.7188-6.5z" color="#000000" enable-background="new" stroke="url(#ag)" style="text-decoration-line:none;text-indent:0;text-transform:none"/><path d="m330.72 47c-4.2737 0-7.7188 2.899-7.7188 6.5v13c0 3.601 3.445 6.5 7.7188 6.5h64.281v95.25l-36.562-29.094c-1.8449-1.4685-4.2821-2.1724-6.625-1.9062-2.3429 0.26611-4.5627 1.4989-6.0312 3.3438s-2.1724 4.2821-1.9062 6.625c0.2661 2.3429 1.4989 4.5627 3.3438 6.0312l56.719 45.094 57.781-45.031c1.8574-1.4521 3.1198-3.6599 3.4062-6 0.28647-2.3402-0.39151-4.799-1.8438-6.6562-1.4522-1.8572-3.6598-3.0887-6-3.375-2.3402-0.28628-4.7991 0.39135-6.6562 1.8438l-37.625 29.344v-95.469h64.281c4.2737 0 7.7188-2.899 7.7188-6.5v-13c0-3.601-3.445-6.5-7.7188-6.5z" color="#000000" enable-background="new" stroke="url(#a)" style="text-decoration-line:none;text-indent:0;text-transform:none"/></g><path transform="translate(-540 2.047e-6)" d="m868 46.25c-3.1552 0-5.75 2.5948-5.75 5.75v16c0 3.1552 2.5948 5.75 5.75 5.75h152c3.1552 0 5.75-2.5948 5.75-5.75v-16c0-3.1552-2.5948-5.75-5.75-5.75z" color="#000000" enable-background="new" fill="none" filter="url(#bz)" stroke="url(#af)"/></g><g transform="translate(0,80)" clip-path="url(#cn)"><rect x="864" y="-32" width="160" height="24" rx="4" ry="4" color="#000000" enable-background="new" fill="url(#aq)"/><path d="m868-32h154c2.216 0 4 1.784 4 4v18c0 2.216-1.784 4-4 4h-154c-2.216 0-4-1.784-4-4v-18c0-2.216 1.784-4 4-4z" color="#000000" enable-background="new" fill="none" filter="url(#by)" opacity=".2" stroke="#2e3436" stroke-width="2"/></g><g transform="matrix(1.0991 0 0 1.0991 346.1 -159.07)"><path d="m484 322v72h120v-72z" color="#000000" enable-background="accumulate" fill="url(#ay)"/><path d="m484 322v72h120v-72z" color="#000000" enable-background="accumulate" fill="url(#ax)"/><g transform="matrix(1.1227 0 0 1.1227 382.08 213.35)" enable-background="new"><g fill="none"><g transform="matrix(1,0,0,-1,0,240)" filter="url(#v)" mask="url(#i)" opacity=".7"><path d="m155.12 111.03-0.25 1.9688h-21.594l-0.34375-2.7812m-7.875 1.5625 1 4c0.35895 1.8017 2.1004 3.2253 3.9375 3.2188h28c1.7662-3e-3 3.4471-1.3176 3.875-3.0312l1-3" color="#000000" enable-background="new" filter="url(#w)" stroke="#d3d7cf" stroke-width=".86714" style="text-decoration-line:none;text-indent:0;text-transform:none"/><path d="m129 113 1 4h28l1-4" enable-background="new" filter="url(#y)" stroke="#fff" stroke-linecap="round" stroke-linejoin="round" stroke-width="3.4685"/><path d="m128.94 106.94a4.0004 4.0004 0 0 0-3.875 4.8438l1 5a4.0004 4.0004 0 0 0 3.9375 3.2188h28a4.0004 4.0004 0 0 0 3.875-3.0312l1-4a4.0004 4.0004 0 1 0-7.75-1.9375l-0.25 0.96875h-21.594l-0.34375-1.7812a4.0004 4.0004 0 0 0-4-3.2812z" color="#000000" enable-background="new" filter="url(#x)" stroke="#2e3436" stroke-width=".43357" style="text-decoration-line:none;text-indent:0;text-transform:none"/></g><path d="m129 133 4 14h30l-4-14" enable-background="new" filter="url(#u)" opacity=".2" stroke="url(#o)" stroke-linecap="round" stroke-linejoin="round" stroke-width="6.9371"/><g clip-path="url(#ac)"><path d="m129 131-1 5h32l-1-4" stroke="#888a85" stroke-linecap="round" stroke-linejoin="round" stroke-width="6.9371"/><path d="m129 130-1 4h32l-1-4" enable-background="new" filter="url(#z)" stroke="#fff" stroke-linecap="round" stroke-linejoin="round" stroke-width="3.4685"/><path d="m129.12 127.94c-1.824-0.0472-3.5871 1.3164-4 3.0938l-1 3c-0.58543 2.3466 1.4565 4.9649 3.875 4.9688h32c2.4185-4e-3 4.4604-2.6222 3.875-4.9688l-1-3c-0.4782-1.8622-2.4549-3.2102-4.3631-2.9755-1.9082 0.23475-3.4993 3.0216-3.5119 4.9442h-22c0.0332-2.074-1.8017-4.9977-3.875-5.0625z" color="#000000" enable-background="new" filter="url(#ab)" stroke="#d3d7cf" stroke-width=".86714" style="text-decoration-line:none;text-indent:0;text-transform:none"/><path d="m129.12 127.94a4.0004 4.0004 0 0 0-4 3.0938l-1 4a4.0004 4.0004 0 0 0 3.875 4.9688h32a4.0004 4.0004 0 0 0 3.875-4.9688l-1-4a4.0004 4.0004 0 0 0-7.875 0.96875h-22a4.0004 4.0004 0 0 0-3.875-4.0625z" color="#000000" enable-background="new" filter="url(#aa)" stroke="#2e3436" stroke-width=".52028" style="text-decoration-line:none;text-indent:0;text-transform:none"/></g></g><circle transform="matrix(.85027 0 0 .85027 20.409 20.857)" cx="127.12" cy="132.62" r="3.25" color="#000000" enable-background="accumulate" fill="#fff" filter="url(#t)"/></g><g transform="translate(400,230)" clip-path="url(#ad)" enable-background="new" fill="none"><path d="m203 92v72" color="#000000" enable-background="accumulate" stroke="url(#g)" stroke-width="1.9471"/><path d="m85 92v72" color="#000000" enable-background="accumulate" stroke="url(#f)" stroke-width="1.9471"/><path d="m84 93h120" enable-background="new" stroke="url(#e)" stroke-width="1.9471"/><path d="m85 93h120v72h-120z" color="#000000" enable-background="accumulate" filter="url(#r)" opacity=".66578" stroke="#fff" stroke-width="5.8414"/><path d="m88.767 162h110.47" enable-background="new" opacity=".3" stroke="url(#d)" stroke-width="1.9471"/><path d="m84 92h120v72h-120z" color="#000000" enable-background="accumulate" filter="url(#s)" stroke="url(#p)" stroke-width="1.9471"/></g></g><path d="m929.49 170.26-34.175-27.197" color="#000000" enable-background="new" fill="none" opacity=".84277" stroke="url(#aj)" stroke-linecap="round" stroke-width="6" style="text-decoration-line:none;text-indent:0;text-transform:none"/><path d="m937 73.125v95.5a3.0003 3.0003 0 1 0 6 0v-95.5z" color="#000000" enable-background="new" fill="url(#ae)" opacity=".84277" style="text-decoration-line:none;text-indent:0;text-transform:none"/><path d="m993.72 143.06-36.864 28.751" color="#000000" enable-background="new" fill="none" opacity=".84277" stroke="url(#ai)" stroke-linecap="round" stroke-width="6" style="text-decoration-line:none;text-indent:0;text-transform:none"/><ellipse cx="892.75" cy="143.83" rx="6.1161" ry="4.7001" color="#000000" enable-background="accumulate" fill="url(#aw)" opacity=".84277"/><ellipse cx="996.75" cy="143.83" rx="6.1161" ry="4.7001" color="#000000" enable-background="accumulate" fill="url(#av)" opacity=".84277"/><path d="m948 60v108.63" color="#000000" enable-background="new" fill="none" opacity=".15409" stroke="url(#ah)" stroke-linecap="round" stroke-width="6" style="text-decoration-line:none;text-indent:0;text-transform:none"/><rect x="873.91" y="56.354" width="67.616" height="9" rx="4.4419" ry="4.5" color="#000000" enable-background="new" fill="#555753" opacity=".1"/><g transform="translate(4,1)" fill="#babdb6"><path d="m879.57 57.165v9.8438c-2.2842-1.7625-1.6466-12.101-5.6993-6.9747 0.21209 3.4512-1.6243 7.3522-2.4651 1.8307-1.2062-4.759 2.768-10.816 4.1363-4.5348 1.3385 0.24275 2.6985 0.01365 4.0282-0.16492zm-1.626-3.8145c3.2259-0.19303-1.5506 2.883 0 0z"/><path d="m882.98 53.333c3.793 2.0153 1.4066 15.696-0.21247 8.6193-0.0978-2.8777 0.58484-5.7444 0.21247-8.6193z"/><path d="m896.39 61.682c-5.7192 0.03411-7.208 3.2715-2.5438 5.4096-9.6236 3.042-7.7228-14.375 0.85148-9.3514 1.2559 0.86878 1.7584 2.474 1.6923 3.9418zm-1.6172-0.47461c0.85985-6.3689-9.5716 1.6641 0-7e-5"/><path d="m907.22 61.067c1.694 3.2014-2.4031 6.6591-1.3426 1.1381-2.1278-7.0308-5.9826 0.43486-6.6871 2.0487-3.8231-5.8907 6.3076-11.117 8.1084-4.1157l-0.0788 0.92891z"/><path d="m914.94 62.06c-6.0409-0.46362 2.5452 7.874 1.5364 0.84791-0.13971-0.62672-0.87545-1.2593-1.5364-0.84791zm3.2256-0.66797c4.4862 7.9764-13.305 6.5388-6.5449 0.78646 5.109-1.3662-0.86919-7.8507 5.3346-4.4838 1.1299 0.83095 1.545 2.3684 1.2103 3.6974z"/><path d="m929.17 59.054c3.7712-6.9754 10.77 6.5262 5.5563 4.6854 0.45945-5.9976-6.4284-6.5671-5.436-0.30024-0.6815 4.4202-1.412-8.1992-5.5947-2.9554-0.57059 2.7091-1.6277 6.4732-2.8152 1.9004-0.0406-4.554 5.3042-8.231 8.2897-3.3301z"/></g><rect x="944" y="52" width="4" height="16" rx="0" ry="0" color="#000000" enable-background="new" fill="#555753"/></g></g></g></svg>
