<?xml version="1.0" encoding="UTF-8"?>
<svg version="1.0" viewBox="0 0 256 256" xmlns="http://www.w3.org/2000/svg" xmlns:xlink="http://www.w3.org/1999/xlink"><defs><filter id="ak" x="-.16294" y="-2.3897" width="1.3259" height="5.7795" color-interpolation-filters="sRGB"><feGaussianBlur stdDeviation="11.948684"/></filter><filter id="aj" x="-.093476" y="-1.094" width="1.187" height="3.188" color-interpolation-filters="sRGB"><feGaussianBlur stdDeviation="8.257079"/></filter><filter id="w" color-interpolation-filters="sRGB"><feGaussianBlur stdDeviation="2.43"/></filter><clipPath id="an"><path d="m36 19c-0.56266 0-1 0.43734-1 1v217c0 0.56266 0.43734 1 1 1h184c0.56266 0 1-0.43734 1-1v-171c0-13.558-10.858-25.296-16.281-30.719-5.4231-5.4231-17.161-16.281-30.719-16.281z" fill="url(#linearGradient6013) #000000" fill-rule="evenodd"/></clipPath><filter id="ac" color-interpolation-filters="sRGB"><feGaussianBlur stdDeviation="2.025"/></filter><linearGradient id="a"><stop stop-color="#fff" offset="0"/><stop stop-color="#fff" stop-opacity="0" offset="1"/></linearGradient><filter id="ad" x="-.10594" y="-.11513" width="1.2119" height="1.2303" color-interpolation-filters="sRGB"><feGaussianBlur stdDeviation="3.0222701"/></filter><mask id="o" maskUnits="userSpaceOnUse"><path d="m36-31c-0.56266 0-1 0.43734-1 1v217c0 0.56266 0.43734 1 1 1h184c0.56266 0 1-0.43734 1-1v-171c0-13.558-12.858-23.296-18.281-28.719-5.4231-5.4231-15.161-18.281-28.719-18.281z" fill="#fff" fill-rule="evenodd"/></mask><filter id="ab" x="-.24138" y="-.24138" width="1.4828" height="1.4828" color-interpolation-filters="sRGB"><feGaussianBlur stdDeviation="4.7270115"/></filter><filter id="aa" color-interpolation-filters="sRGB"><feGaussianBlur stdDeviation="0.27169794"/></filter><filter id="z" x="-.13103" y="-.13103" width="1.2621" height="1.2621" color-interpolation-filters="sRGB"><feGaussianBlur stdDeviation="2.566092"/></filter><filter id="y" color-interpolation-filters="sRGB"><feGaussianBlur stdDeviation="0.30732727"/></filter><filter id="x" x="-.031646" y="-.10174" width="1.0633" height="1.2035" color-interpolation-filters="sRGB"><feGaussianBlur stdDeviation="0.35931052"/></filter><radialGradient id="b" cx="1827.6" cy="706.07" r="7.375" gradientTransform="matrix(1.283 -.34377 1.2382 4.6211 -1388.6 -1922)" gradientUnits="userSpaceOnUse"><stop offset="0"/><stop stop-opacity="0" offset="1"/></radialGradient><filter id="ai"><feGaussianBlur stdDeviation="1.7342909"/></filter><filter id="ah" color-interpolation-filters="sRGB"><feGaussianBlur stdDeviation="1.7342909"/></filter><linearGradient id="v" x1="1808.2" x2="1848.3" y1="716" y2="787" gradientTransform="translate(-1,1)" gradientUnits="userSpaceOnUse"><stop stop-color="#edd400" offset="0"/><stop stop-color="#edd400" stop-opacity="0" offset="1"/></linearGradient><filter id="af" color-interpolation-filters="sRGB"><feGaussianBlur stdDeviation="1.38"/></filter><filter id="ag" color-interpolation-filters="sRGB"><feGaussianBlur stdDeviation="1.38"/></filter><linearGradient id="u" x1="1784" x2="1784" y1="718.5" y2="854.03" gradientUnits="userSpaceOnUse"><stop stop-color="#fce94f" offset="0"/><stop stop-color="#fff" offset=".36719"/><stop stop-color="#fce94f" offset=".62825"/><stop stop-color="#edd400" offset=".78461"/><stop stop-color="#fce94f" offset="1"/></linearGradient><clipPath id="am"><path d="m1832 712.19v32.188c9.2532 1.7954 16 9.7604 16 19.625 0 11.235-8.7647 20-20 20h-85.375l16.688-16.688a16.002 16.002 0 1 0-22.625-22.625l-44 44-11.312 11.312 11.312 11.312 44 44a16.002 16.002 0 1 0 22.625-22.625l-16.688-16.688h85.375c28.529 0 52-23.471 52-52 0-27.181-21.314-49.738-48-51.812z" color="#000000" enable-background="accumulate" style="text-decoration-line:none;text-indent:0;text-transform:none"/></clipPath><linearGradient id="t" x1="1756.1" x2="1756.1" y1="790.2" y2="858.51" gradientUnits="userSpaceOnUse"><stop stop-color="#745f00" offset="0"/><stop stop-color="#604e00" offset="1"/></linearGradient><linearGradient id="s" x1="1824" x2="1844" y1="734" y2="734" gradientTransform="matrix(.8 0 0 1 372.8 0)" gradientUnits="userSpaceOnUse"><stop offset="0"/><stop stop-opacity=".32298" offset=".26562"/><stop stop-opacity="0" offset="1"/></linearGradient><clipPath id="al"><path d="m1649 651.96c-0.5567 0-0.9893 0.44748-0.9893 1.0232v222.03c0 0.5757 0.4326 1.0232 0.9893 1.0232h182.02c0.5566 0 0.9892-0.44747 0.9892-1.0232v-174.96c0-13.872-10.741-25.882-16.106-31.43s-16.977-16.658-30.389-16.658z" fill="#333"/></clipPath><filter id="ae" x="-.0558" y="-.10145" width="1.1116" height="1.2029"><feGaussianBlur stdDeviation="3.72"/></filter><linearGradient id="r" x1="84" x2="-104.07" y1="200.5" y2="-127.99" gradientUnits="userSpaceOnUse"><stop offset="0"/><stop stop-opacity="0" offset="1"/></linearGradient><radialGradient id="n" cx="-80.661" cy="88.983" r="18" gradientTransform="matrix(25.306 2.1794e-6 -1.0731e-6 12.46 2199.2 -911.49)" gradientUnits="userSpaceOnUse"><stop stop-color="#fff" offset="0"/><stop stop-color="#d3d7cf" offset="1"/></radialGradient><radialGradient id="m" cx="128.59" cy="116.47" r="92.902" gradientTransform="matrix(3.5967 -.28529 .17691 2.2303 -355.12 -121.58)" gradientUnits="userSpaceOnUse"><stop stop-color="#fff" offset="0"/><stop stop-color="#fff" stop-opacity="0" offset="1"/></radialGradient><radialGradient id="l" cx="36" cy="45.297" r="84.203" gradientTransform="matrix(0 2.7411 -1.8799 0 120.78 -78.804)" gradientUnits="userSpaceOnUse"><stop stop-color="#fff" offset="0"/><stop stop-color="#fff" stop-opacity="0" offset="1"/></radialGradient><radialGradient id="k" cx="127.75" cy="261.27" r="92.25" gradientTransform="matrix(1.663 0 0 .34037 -84.702 148.57)" gradientUnits="userSpaceOnUse" xlink:href="#a"/><radialGradient id="j" cx="20.48" cy="31.231" r="93" gradientTransform="matrix(0 1.0485 -3.8781 0 165.49 13.855)" gradientUnits="userSpaceOnUse"><stop stop-color="#fff" offset="0"/><stop stop-color="#fff" stop-opacity="0" offset="1"/></radialGradient><radialGradient id="i" cx="127.75" cy="236.25" r="92.25" gradientTransform="matrix(1.5709 0 0 1.1159 -53.057 .95481)" gradientUnits="userSpaceOnUse" xlink:href="#a"/><radialGradient id="h" cx="210.96" cy="38.58" r="34.234" gradientTransform="matrix(1.0442 0 0 .96082 -12.745 6.3495)" gradientUnits="userSpaceOnUse"><stop offset="0"/><stop stop-opacity="0" offset="1"/></radialGradient><radialGradient id="g" cx="196.36" cy="44.213" r="23.763" gradientTransform="matrix(1 0 0 .98931 0 .47264)" gradientUnits="userSpaceOnUse"><stop offset="0"/><stop stop-opacity="0" offset="1"/></radialGradient><linearGradient id="q" x1="190.98" x2="196.45" y1="52.973" y2="39.564" gradientTransform="translate(-1.5 2.5214)" gradientUnits="userSpaceOnUse"><stop offset="0"/><stop stop-opacity="0" offset="1"/></linearGradient><radialGradient id="f" cx="190.88" cy="49.25" r="23.5" gradientTransform="matrix(1.4473 0 0 1.4473 -85.751 -21.529)" gradientUnits="userSpaceOnUse"><stop stop-color="#fff" offset="0"/><stop stop-color="#fff" stop-opacity="0" offset="1"/></radialGradient><radialGradient id="e" cx="192.25" cy="45.75" r="23.5" gradientTransform="matrix(.5972 -.4509 1.7045 2.2575 -.54025 29.158)" gradientUnits="userSpaceOnUse"><stop stop-color="#fff" offset="0"/><stop stop-color="#e6e6e6" offset=".44761"/><stop stop-color="#cbcbcb" offset=".81268"/><stop stop-color="#dbdbdb" offset="1"/></radialGradient><radialGradient id="d" cx="186.77" cy="27.786" r="8.9714" gradientTransform="matrix(2.1152 0 0 2.9279 -207.44 -53.617)" gradientUnits="userSpaceOnUse"><stop stop-color="#fff" offset="0"/><stop stop-color="#fff" stop-opacity="0" offset="1"/></radialGradient><radialGradient id="c" cx="208.68" cy="39.762" r="13.625" gradientTransform="matrix(.99733 .072992 -.11677 1.5955 5.1997 -29.524)" gradientUnits="userSpaceOnUse"><stop stop-color="#fff" offset="0"/><stop stop-color="#fff" stop-opacity="0" offset="1"/></radialGradient><linearGradient id="p" x1="189.25" x2="189.25" y1="23.662" y2="43.888" gradientUnits="userSpaceOnUse"><stop stop-color="#fff" offset="0"/><stop stop-color="#fff" stop-opacity="0" offset="1"/></linearGradient></defs><g transform="translate(-1624 -636)"><g><g transform="translate(1192 604)"><rect transform="matrix(1.1875 0 0 .625 372.25 116)" x="60" y="244" width="176" height="12" rx="30.842" ry="6" filter="url(#ak)" opacity=".3"/><rect transform="matrix(.88797 0 0 .18573 434.71 228.96)" x="22.995" y="223.44" width="211" height="18.114" rx="4.9924" ry="9.0572" fill-rule="evenodd" filter="url(#aj)" opacity=".8"/><path transform="matrix(.98925 0 0 1.0129 401.72 .5305)" d="m55.872 47.328c-0.56266 0-1 0.43734-1 1l-1.0109 217c0 0.56266 0.43734 1 1 1h186.02c0.56266 0 1-0.43734 1-1l-1.0109-171c0-13.558-10.858-25.296-16.281-30.719-5.4231-5.4231-17.161-16.281-30.719-16.281z" fill="url(#r)" fill-rule="evenodd" filter="url(#w)" opacity=".7"/><g transform="matrix(.98925 0 0 1.0232 401.72 .044255)"><g transform="translate(19.872 27.828)"><path d="m36 19c-0.56266 0-1 0.43734-1 1v217c0 0.56266 0.43734 1 1 1h184c0.56266 0 1-0.43734 1-1v-171c0-13.558-10.858-25.296-16.281-30.719-5.4231-5.4231-17.161-16.281-30.719-16.281z" fill="url(#n)"/><path d="m36.591 19.704c-0.55904 0-0.99357 0.43453-0.99357 0.99357v215.61c0 0.55904 0.43453 0.99357 0.99357 0.99357h182.82c0.55904 0 0.99357-0.43453 0.99357-0.99357v-169.9c0-13.471-10.788-25.133-16.177-30.521-5.3882-5.3882-17.051-16.177-30.521-16.177z" fill="none" stroke="url(#m)" stroke-dashoffset=".7" stroke-linecap="round" stroke-width=".99397"/><path d="m36 19c-0.56266 0-1 0.43734-1 1v217c0 0.56266 0.43734 1 1 1h184c0.56266 0 1-0.43734 1-1v-171c0-13.558-10.858-25.296-16.281-30.719-5.4231-5.4231-17.161-16.281-30.719-16.281z" clip-path="url(#an)" fill="none" filter="url(#ac)" opacity=".072289" stroke="#000" stroke-dashoffset=".7" stroke-linecap="round" stroke-width=".99397"/><path d="m36.625 19.875c-0.56266 0-1 0.43734-1 1v217c0 0.56266 0.43734 1 1 1v-217c0-0.56266 0.43734-1 1-1h138c11.863 0 22.341 8.3199 28.406 14.031-5.8462-5.6773-16.801-15.031-29.406-15.031z" fill="url(#l)" fill-rule="evenodd"/><rect x="35.5" y="186.25" width="184.5" height="51.25" rx="1.0156" ry="1.0156" fill="url(#k)" fill-rule="evenodd" opacity=".56024"/></g><path d="m55.875 46.812c-0.56266-1e-6 -1 0.43734-1 1v88.188h186v-42.188c-1e-5 -13.558-10.858-25.296-16.281-30.719-5.4231-5.4231-17.161-16.281-30.719-16.281z" fill="url(#j)"/><rect x="55.372" y="263.83" width="184.5" height="1.5" rx="1.0156" ry="1.0156" fill="url(#i)" fill-rule="evenodd"/></g></g><g transform="translate(1592 607.93)" fill-rule="evenodd"><g transform="matrix(.98925 0 0 1.0232 21.376 24.59)"><path transform="matrix(.76048 0 0 .87302 56.123 8.4826)" d="m162 24c-2.7302 0-5.4062 0.18108-8.0312 0.5625-3.1702 5.9491-4.9688 12.73-4.9688 19.938 0 23.46 19.04 42.5 42.5 42.5 9.7773 0 18.785-3.3191 25.969-8.875-0.73575-29.997-25.296-54.125-55.469-54.125z" fill="url(#h)" filter="url(#ad)" opacity=".16868"/><path transform="translate(0,50)" d="m174-31c13.558 0 22.308 11.846 27.731 17.269s19.269 16.173 19.269 29.731c0-13.558-20.111-8.6028-26.192-8.6028-0.6357 0-1.2268-0.51769-1.1502-1.1502 2.5084-20.705-6.1006-37.247-19.658-37.247z" filter="url(#ab)" mask="url(#o)" opacity=".37952"/><path d="m172.59 20.722c24.827-0.87083 48.543 30.546 47.5 47 0-13.558-7.491-16.365-29.984-16.365-0.6357 0-1.1502-0.51307-1.1502-1.1502 0-22.493-2.8077-29.484-16.365-29.484z" fill="url(#g)" filter="url(#aa)" opacity=".42771"/><path d="m171.45 22.448c13.558 0 25.308 10.846 30.731 16.269s16.269 17.173 16.269 30.731c0-13.558-6.991-16.365-29.484-16.365-0.6357 0-1.1502-0.51307-1.1502-1.1502 0-22.493-2.8077-29.484-16.365-29.484z" fill="url(#q)" filter="url(#z)" opacity=".27711"/><path d="m173.12 19.75c13.558 0 25.308 10.846 30.731 16.269s16.269 17.173 16.269 30.731c0-13.558-6.991-16.365-29.484-16.365-0.6357 0-1.1502-0.51307-1.1502-1.1502 0-22.493-2.8077-29.484-16.365-29.484z" fill="url(#f)"/><path d="m174 19c13.558 0 25.308 10.846 30.731 16.269s16.269 17.173 16.269 30.731c0-13.558-6.991-16.365-29.484-16.365-0.6357 0-1.1502-0.51307-1.1502-1.1502 0-22.493-2.8077-29.484-16.365-29.484z" fill="url(#e)"/><path d="m174.13 19.031c15.481 1.0337 16.019 13.643 16.263 26.517-0.74413-7.7303 1.374-15.978-4.2426-22.627 4.5078 1.5017 9.8111 5.7816 14.938 9.1924-5.4964-4.8666-14.015-13.001-26.958-13.081z" fill="url(#d)" filter="url(#y)"/><path d="m219.38 57.625c-3.971-8.9-17.43-7.2964-27.25-8 9.9276-0.23867 24.598-2.9842 27.25 8z" fill="url(#c)" filter="url(#x)"/></g><path transform="matrix(.98925 0 0 1.0232 21.376 24.59)" d="m174 19c13.558 0 25.308 10.846 30.731 16.269s16.269 17.173 16.269 30.731c0-13.558-6.991-16.365-29.484-16.365-0.6357 0-1.1502-0.51307-1.1502-1.1502 0-22.493-2.8077-29.484-16.365-29.484z" fill="url(#p)"/></g><path d="m1823 664.33s9.2407 15.98 9.2407 28.267l0.3891 69.867s16.536-19.926 16.536-56.897l-7.5706-33.599z" color="#000000" enable-background="accumulate" fill="url(#b)" opacity=".3139"/><path d="m1750 751-44 44 44 44m116-80c0 19.882-16.118 36-36 36h-104" clip-path="url(#al)" fill="none" filter="url(#ae)" opacity=".3354" stroke="#000" stroke-linecap="round" stroke-width="32"/><g transform="translate(0,-8)" clip-path="url(#am)"><path d="m1748 756-44 44 44 44m80-116c19.882 0 36 16.118 36 36 0 19.882-16.118 36-36 36h-104" fill="none" stroke="#fce94f" stroke-linecap="round" stroke-width="32"/><path d="m1831 715c-4.2265-0.0598-8.4509 1.6378-11.461 4.6054-3.01 2.9677-4.7671 7.1676-4.7671 11.395s1.7571 8.4269 4.7671 11.395c3.0099 2.9677 7.2343 4.6652 11.461 4.6054 11.235 0 20 8.7648 20 20s-8.7647 20-20 20h-85.375l16.688-16.688c3.061-2.9389 4.8752-7.1367 4.9184-11.38 0.043-4.2432-1.6854-8.477-4.686-11.478-3.0005-3.0006-7.2343-4.7291-11.478-4.6859-4.2432 0.0431-8.441 1.8574-11.38 4.9184l-44 44-11.312 11.312 11.312 11.312 44 44c2.9389 3.061 7.1367 4.8752 11.38 4.9184 4.2432 0.0431 8.477-1.6854 11.478-4.6859 3.0006-3.0006 4.7291-7.2343 4.686-11.478-0.043-4.2432-1.8574-8.441-4.9184-11.38l-16.688-16.688h85.375c28.529 0 52-23.471 52-52s-23.471-52-52-52z" color="#000000" enable-background="accumulate" fill="none" filter="url(#ah)" stroke="#fff" stroke-width="4" style="text-decoration-line:none;text-indent:0;text-transform:none"/><path d="m1827 710c-4.2265-0.0598-8.4509 1.6378-11.461 4.6054-3.01 2.9677-4.7671 7.1676-4.7671 11.395s1.7571 8.4269 4.7671 11.395c3.0099 2.9677 7.2343 4.6652 11.461 4.6054 11.235 0 20 8.7648 20 20s-8.7647 20-20 20h-85.375l16.688-16.688c3.061-2.9389 4.8752-7.1367 4.9184-11.38 0.043-4.2432-1.6854-8.477-4.686-11.478-3.0005-3.0006-7.2343-4.7291-11.478-4.6859-4.2432 0.0431-8.441 1.8574-11.38 4.9184l-44 44-11.312 11.312 11.312 11.312 44 44c2.9389 3.061 7.1367 4.8752 11.38 4.9184 4.2432 0.0431 8.477-1.6854 11.478-4.6859 3.0006-3.0006 4.7291-7.2343 4.686-11.478-0.043-4.2432-1.8574-8.441-4.9184-11.38l-16.688-16.688h85.375c28.529 0 52-23.471 52-52s-23.471-52-52-52z" color="#000000" enable-background="accumulate" fill="none" filter="url(#ai)" stroke="url(#t)" stroke-width="3" style="text-decoration-line:none;text-indent:0;text-transform:none"/><path d="m1748 756-44 44 44 44m80-116c19.882 0 36 16.118 36 36 0 19.882-16.118 36-36 36h-104" fill="none" filter="url(#ag)" stroke="url(#u)" stroke-linecap="round" stroke-width="22"/><path d="m1827 729c19.882 0 36 16.118 36 36 0 19.882-16.118 36-36 36" fill="none" filter="url(#af)" stroke="url(#v)" stroke-linecap="round" stroke-width="18"/><rect x="1832" y="708" width="16" height="52" color="#000000" enable-background="new" fill="url(#s)" opacity=".50932"/></g></g></g></svg>
