<?xml version="1.0" encoding="UTF-8"?>
<svg enable-background="new" version="1.0" viewBox="0 0 256 256" xmlns="http://www.w3.org/2000/svg" xmlns:xlink="http://www.w3.org/1999/xlink"><defs><radialGradient id="a" cx="626" cy="522.12" r="28.5" gradientUnits="userSpaceOnUse" xlink:href="#g"/><linearGradient id="g"><stop offset="0"/><stop stop-opacity="0" offset="1"/></linearGradient><clipPath id="k"><circle transform="matrix(1.2632 0 0 1.2632 -158.74 -139.53)" cx="626" cy="522.12" r="28.5" enable-background="new" fill="#999"/></clipPath><radialGradient id="f" cx="624.91" cy="511.29" r="28.5" gradientTransform="matrix(2.5967 4.8095e-7 -3.0609e-7 1.6526 -996.7 -337.02)" gradientUnits="userSpaceOnUse"><stop stop-color="#ef2929" offset="0"/><stop stop-color="#c00" offset="1"/></radialGradient><filter id="h" x="-.11421" y="-.42455" width="1.2284" height="1.8491" color-interpolation-filters="sRGB"><feGaussianBlur stdDeviation="2.6976563"/></filter><radialGradient id="e" cx="606.09" cy="493.23" r="29.292" gradientTransform="matrix(1.7842 0 0 1.0999 -476.66 -49.61)" gradientUnits="userSpaceOnUse"><stop stop-color="#a40000" offset="0"/><stop stop-color="#7c0000" offset="1"/></radialGradient><filter id="j" color-interpolation-filters="sRGB"><feGaussianBlur stdDeviation="0.58583333"/></filter><radialGradient id="d" cx="632" cy="465.28" r="28.344" gradientTransform="matrix(-1.2867 -6.2181e-7 2.6045e-7 -.53892 1445.2 736.75)" gradientUnits="userSpaceOnUse"><stop stop-color="#fff" offset="0"/><stop stop-color="#fcaf3e" stop-opacity="0" offset="1"/></radialGradient><filter id="i" color-interpolation-filters="sRGB"><feGaussianBlur stdDeviation="0.3596875"/></filter><radialGradient id="c" cx="626" cy="508.97" r="28.5" gradientTransform="matrix(5.1701 0 0 3.6828 -3094.5 -1757.4)" gradientUnits="userSpaceOnUse"><stop stop-color="#fff" offset="0"/><stop stop-color="#eeeeec" offset="1"/></radialGradient><radialGradient id="b" cx="626" cy="508.97" r="28.5" gradientTransform="matrix(5.1701 0 0 3.6828 -3094.5 -1757.4)" gradientUnits="userSpaceOnUse"><stop stop-color="#888a85" offset="0"/><stop stop-color="#2e3436" offset="1"/></radialGradient></defs><g transform="translate(-20,-29)"><g><g transform="matrix(.48487 0 0 .48487 62.088 -179.1)" enable-background="new"></g><g transform="matrix(2.7013 0 0 2.7013 -1565.4 -1260.8)" enable-background="new"><circle transform="matrix(1.4016 0 0 .39281 -245.34 352.35)" cx="626" cy="522.12" r="28.5" enable-background="new" fill="url(#a)" opacity=".5"/><circle transform="matrix(1.0111 0 0 .28337 -.87365 410.44)" cx="626" cy="522.12" r="28.5" enable-background="new" fill="url(#a)"/><g transform="matrix(1.1096 0 0 1.1096 -69.205 -53.041)" clip-path="url(#k)"><circle transform="matrix(1.2632 0 0 1.2632 -158.74 -139.53)" cx="626" cy="522.12" r="28.5" enable-background="new" fill="url(#f)"/><path d="m603.66 537.75c6.0897 9.1826 16.508 15.25 28.344 15.25 11.836 0 22.254-6.0674 28.344-15.25-6.3615 8.0255-16.682 13.25-28.344 13.25-11.662 0-21.982-5.2245-28.344-13.25z" enable-background="new" fill="#ffffe2" filter="url(#h)" opacity=".73134"/><circle transform="matrix(1.2632 0 0 1.2632 -158.74 -139.53)" cx="626" cy="522.12" r="28.5" enable-background="new" fill="none" filter="url(#j)" stroke="url(#e)" stroke-linecap="round" stroke-linejoin="round" stroke-width=".79237"/><path d="m632 486c-11.836 0-22.254 6.0674-28.344 15.25 6.3615-8.0255 16.682-13.25 28.344-13.25 11.662 1e-5 21.982 5.2245 28.344 13.25-6.0898-9.1826-16.508-15.25-28.344-15.25z" enable-background="new" fill="url(#d)" filter="url(#i)" opacity=".8"/></g></g><path d="m141.97 74.156c-44.965 0-81.438 36.473-81.438 81.438s36.473 81.406 81.438 81.406c44.965 0 81.406-36.442 81.406-81.406s-36.442-81.438-81.406-81.438z" enable-background="new" opacity=".2"/><path d="m141.97 73.156c-44.965 0-81.438 36.473-81.438 81.438s36.473 81.406 81.438 81.406c44.965 0 81.406-36.442 81.406-81.406s-36.442-81.438-81.406-81.438z" enable-background="new" fill="url(#c)"/><path d="m-231 117 77 77" color="#000000" enable-background="accumulate" fill="none" stroke="#fff" stroke-linecap="round" stroke-width="15"/><path d="m-154 117-77 77" color="#000000" enable-background="accumulate" fill="none" stroke="#fff" stroke-linecap="round" stroke-width="15"/><path d="m103.91 109.44c2.0052-0.0133 4.0026 0.81799 5.4062 2.25l33.188 33.188 33.188-33.188c1.3449-1.3734 3.2347-2.198 5.1562-2.25 3.0017-0.0962 5.9699 1.8003 7.144 4.5645 1.1741 2.7642 0.47806 6.2171-1.6753 8.3105l-33.188 33.188 33.188 33.188c1.3911 1.3908 2.201 3.3456 2.2011 5.3127 1.1e-4 1.967-0.8096 3.922-2.2005 5.3129s-3.3459 2.2006-5.3129 2.2005c-1.967-1.1e-4 -3.9219-0.81005-5.3127-2.2011l-33.188-33.188-33.188 33.188c-1.3908 1.3911-3.3456 2.201-5.3127 2.2011-1.967 1.1e-4 -3.922-0.8096-5.3129-2.2005-1.3909-1.3909-2.2006-3.3459-2.2005-5.3129 1.12e-4 -1.967 0.81005-3.9219 2.2011-5.3127l33.188-33.188-33.188-33.188c-2.1208-2.0648-2.8309-5.4488-1.7189-8.1919s3.9777-4.6776 6.9377-4.6831z" color="#000000" enable-background="new" fill="url(#b)"/></g></g></svg>
