<?xml version="1.0" encoding="UTF-8"?>
<svg version="1.1" viewBox="0 0 256 256" xmlns="http://www.w3.org/2000/svg" xmlns:xlink="http://www.w3.org/1999/xlink"><defs><filter id="v" x="-.21127" y="-.42254" width="1.4225" height="1.8451" color-interpolation-filters="sRGB"><feGaussianBlur stdDeviation="3.5211268"/></filter><filter id="s" x="-.32535" y="-.6507" width="1.6507" height="2.3014" color-interpolation-filters="sRGB"><feGaussianBlur stdDeviation="5.4225352"/></filter><linearGradient id="b"><stop offset="0"/><stop stop-opacity="0" offset="1"/></linearGradient><filter id="t" x="-.36582" y="-.73163" width="1.7316" height="2.4633" color-interpolation-filters="sRGB"><feGaussianBlur stdDeviation="6.0969372"/></filter><filter id="u" x="-.64875" y="-1.2975" width="2.2975" height="3.595" color-interpolation-filters="sRGB"><feGaussianBlur stdDeviation="10.812478"/></filter><linearGradient id="q"><stop stop-color="#ece9e4" offset="0"/><stop stop-color="#ece9e4" stop-opacity="0" offset="1"/></linearGradient><filter id="y" color-interpolation-filters="sRGB"><feGaussianBlur stdDeviation="2.0322581"/></filter><filter id="x" color-interpolation-filters="sRGB"><feGaussianBlur stdDeviation="1.6733871"/></filter><clipPath id="aa"><path d="m-572 146-119 118c-14 16 4 34 20 24l135-107z" color="#000000" enable-background="accumulate" fill="none" stroke="#0e0d0b" stroke-width="4.1717"/></clipPath><filter id="r" color-interpolation-filters="sRGB"><feGaussianBlur stdDeviation="1.5245587"/></filter><filter id="z" color-interpolation-filters="sRGB"><feGaussianBlur stdDeviation="2.1612349"/></filter><filter id="w" color-interpolation-filters="sRGB"><feGaussianBlur stdDeviation="1.2789445"/></filter><radialGradient id="n" cx="253.66" cy="265.8" r="33.527" gradientTransform="matrix(1 0 0 .62505 0 98.238)" gradientUnits="userSpaceOnUse"><stop offset="0"/><stop stop-opacity="0" offset="1"/></radialGradient><radialGradient id="m" cx="260.79" cy="264.24" r="32.312" gradientTransform="matrix(.74743 0 0 .39587 65.868 158.58)" gradientUnits="userSpaceOnUse" xlink:href="#b"/><radialGradient id="l" cx="272.9" cy="259.74" r="32.312" fx="252.1" fy="261.25" gradientTransform="matrix(.9761 0 0 .8851 4.5939 29.307)" gradientUnits="userSpaceOnUse" xlink:href="#b"/><linearGradient id="p" x1="-579.91" x2="-601" y1="198.92" y2="174.92" gradientUnits="userSpaceOnUse"><stop stop-color="#302c26" offset="0"/><stop stop-color="#897862" offset="1"/></linearGradient><radialGradient id="a" cx="-474" cy="233.42" r="64" gradientTransform="matrix(-.72785 -.68574 1.7812 -1.8906 -1234.8 351.27)" gradientUnits="userSpaceOnUse" xlink:href="#q"/><radialGradient id="k" cx="-353" cy="130.67" r="44" gradientTransform="matrix(1.8746 0 0 1.6616 122.73 -34.113)" gradientUnits="userSpaceOnUse"><stop stop-color="#729fcf" offset="0"/><stop stop-color="#729fcf" stop-opacity="0" offset="1"/></radialGradient><radialGradient id="j" cx="-411.31" cy="300.55" r="5.0563" gradientTransform="matrix(1 0 0 2.5958 0 -478.54)" gradientUnits="userSpaceOnUse"><stop stop-color="#fff" offset="0"/><stop stop-color="#fff" stop-opacity="0" offset="1"/></radialGradient><linearGradient id="o" x1="-612.6" x2="-633.69" y1="221.22" y2="194.45" gradientUnits="userSpaceOnUse"><stop stop-color="#0e0d0b" offset="0"/><stop stop-color="#0e0d0b" stop-opacity="0" offset="1"/></linearGradient><radialGradient id="i" cx="-422.93" cy="144.41" r="100.5" gradientTransform="matrix(2.187 0 0 2.187 571.31 -319.43)" gradientUnits="userSpaceOnUse"><stop stop-color="#6161d1" offset="0"/><stop stop-color="#090b27" offset="1"/></radialGradient><radialGradient id="h" cx="-229.5" cy="101.5" r="88.5" gradientTransform="matrix(1.0354 -.02041 -.02041 1.0118 7.565 -4.3677)" gradientUnits="userSpaceOnUse"><stop stop-color="#6969ed" offset="0"/><stop stop-color="#6969ed" stop-opacity="0" offset="1"/></radialGradient><radialGradient id="g" cx="-349.5" cy="-29.5" r="91.5" gradientTransform="matrix(1.9345 -.0093148 -.0093148 1.9238 327.22 25.51)" gradientUnits="userSpaceOnUse"><stop stop-color="#090b27" offset="0"/><stop stop-color="#090b27" stop-opacity="0" offset="1"/></radialGradient><radialGradient id="f" cx="-184.35" cy="104.53" r="108.28" gradientUnits="userSpaceOnUse"><stop stop-color="#cdcdf5" offset="0"/><stop stop-color="#6262de" offset="1"/></radialGradient><radialGradient id="e" cx="-184.35" cy="104.53" r="108.28" gradientTransform="matrix(1.5494 0 0 1.5494 101.29 -57.433)" gradientUnits="userSpaceOnUse"><stop stop-color="#cdcdf5" offset="0"/><stop stop-color="#6262de" stop-opacity=".12429" offset="1"/></radialGradient><radialGradient id="d" cx="-194" cy="128.91" r="83" gradientUnits="userSpaceOnUse"><stop stop-color="#ece9e4" stop-opacity="0" offset="0"/><stop stop-color="#d3d0cc" stop-opacity=".18824" offset=".55556"/><stop stop-color="#363636" stop-opacity=".9435" offset="1"/></radialGradient><radialGradient id="c" cx="-627" cy="71" r="29" gradientTransform="matrix(1 0 0 .58621 0 29.379)" gradientUnits="userSpaceOnUse"><stop stop-color="#fff" offset="0"/><stop stop-color="#fff" stop-opacity="0" offset="1"/></radialGradient></defs><g transform="translate(-20,-30)"><g transform="matrix(-1 0 0 1 272 24)" enable-background="new"><g transform="matrix(.70408 0 0 .71331 5.9301 67.968)" fill-rule="evenodd"><ellipse transform="matrix(-.51664 0 0 .51664 145.08 101.72)" cx="245" cy="262" rx="20" ry="10" color="#000000" enable-background="accumulate" filter="url(#v)" opacity=".60766"/><ellipse transform="matrix(-.96511 0 0 .84183 263.02 15.522)" cx="245" cy="262" rx="20" ry="10" color="#000000" enable-background="accumulate" fill="url(#n)" filter="url(#s)" opacity=".90141"/><ellipse transform="matrix(-2.4506 0 0 1.0044 659.91 -25.078)" cx="245" cy="262" rx="20" ry="10" color="#000000" enable-background="accumulate" fill="url(#m)" filter="url(#t)" opacity=".59809"/><ellipse transform="matrix(-3.395 0 0 1.0044 949.06 -26.078)" cx="245" cy="262" rx="20" ry="17.965" color="#000000" enable-background="accumulate" fill="url(#l)" filter="url(#u)" opacity=".50718"/></g><g transform="matrix(.71914 0 0 .71914 377.43 66.478)" enable-background="new"><g transform="translate(184,-48)"><path d="m-572 146-119 118c-14 16 4 34 20 24l135-107z" color="#000000" enable-background="accumulate" fill="url(#p)"/><path transform="translate(-97,-72)" d="m-475 222-117 116-2 8 120-119 8 5z" color="#000000" enable-background="accumulate" fill="url(#a)" filter="url(#y)" opacity=".27049"/><path transform="translate(-97,-72)" d="m-475 222-117 115.29c-3.5355 2.8284-2 8.7071-2 8.7071l5.7757-10.214 111.85-110.22 10.373 6.432z" color="#000000" enable-background="accumulate" fill="url(#a)" opacity=".41584"/><path transform="matrix(1.5424 0 0 1.5424 288.81 -96.378)" d="m-549.75 171.3 10.746 9.7046-88 67z" color="#000000" enable-background="accumulate" fill="url(#k)" filter="url(#x)" opacity=".30738"/><path transform="translate(-281,-24)" d="m-405.25 287.75c-8.1502 8.3845-9.3967 16.531 1.75 24.25" color="#000000" enable-background="accumulate" fill="none" stroke="url(#j)" stroke-opacity=".12429" stroke-width="1.3803"/><path d="m-572 146-119 118c-14 16 4 34 20 24l135-107z" clip-path="url(#aa)" color="#000000" enable-background="accumulate" fill="none" filter="url(#r)" stroke="url(#o)" stroke-width="4.1717"/></g><g transform="matrix(-.86603 .5 .5 .86603 -575.39 154.91)"><path d="m-297.5-70c-59.892 0-108.5 48.608-108.5 108.5s48.608 108.5 108.5 108.5 108.5-48.608 108.5-108.5-48.608-108.5-108.5-108.5zm0 26.433c45.301 0 82.067 36.766 82.067 82.067s-36.766 82.067-82.067 82.067-82.067-36.766-82.067-82.067 36.766-82.067 82.067-82.067z" color="#000000" enable-background="accumulate" fill="url(#i)"/><path d="m-295.92 136.13c50.579-0.99708 92.438-41.921 93.435-91.349 0.99708-49.428-39.243-88.734-89.822-87.737-1.1857 0.02337-2.3605 0.09878-3.5362 0.16558 44.726 1.0684 79.735 36.472 78.842 80.697-0.91731 45.473-39.427 83.124-85.96 84.041-45.255 0.89212-81.499-33.303-82.613-77.01-0.0679 1.1489-0.14435 2.297-0.16772 3.4557-0.99707 49.428 39.243 88.734 89.822 87.737z" color="#000000" enable-background="accumulate" fill="url(#h)"/><path d="m-298.47-58.151c-50.368 0.24252-95.587 41.78-95.829 91.868-0.24252 50.088 40.439 90.542 90.807 90.3 1.1807-6e-3 2.3499-0.0643 3.52-0.11413-44.569-1.7623-79.98-38.181-79.763-82.997 0.22312-46.081 38.012-83.661 84.351-83.884 45.066-0.21699 81.69 34.996 83.463 79.317 0.0502-1.1636 0.10903-2.3262 0.11471-3.5004 0.24253-50.088-24.878-88.172-86.663-90.989z" color="#000000" enable-background="accumulate" fill="url(#g)"/><circle transform="matrix(.91261 .0073658 .0073658 .92112 -183.71 -128.47)" cx="-126" cy="184.5" r="107.2" color="#000000" enable-background="accumulate" fill="none" filter="url(#z)" stroke="url(#f)" stroke-width="1.5055"/><circle transform="matrix(.92089 .0025878 .0025878 .92388 -180.48 -130.92)" cx="-126" cy="184.5" r="107.2" color="#000000" enable-background="accumulate" fill="none" stroke="url(#e)" stroke-width="1.4964"/><circle transform="matrix(1.0843 0 0 1.0843 -87.639 -85.783)" cx="-194" cy="116" r="83" color="#000000" enable-background="accumulate" fill="url(#d)" opacity=".5"/><ellipse transform="matrix(1.2708 -.38426 .38426 1.2708 454.54 -338.16)" cx="-627" cy="71" rx="29" ry="17" color="#000000" enable-background="accumulate" fill="url(#c)"/><ellipse transform="matrix(.62582 -.18923 .18923 .62582 63.953 -170.08)" cx="-627" cy="71" rx="29" ry="17" color="#000000" enable-background="accumulate" fill="#fff" filter="url(#w)"/></g></g></g></g></svg>
