<?xml version="1.0" encoding="UTF-8"?>
<svg version="1.0" viewBox="0 0 256 256" xmlns="http://www.w3.org/2000/svg" xmlns:xlink="http://www.w3.org/1999/xlink"><defs><filter id="ai" x="-.16294" y="-2.3897" width="1.3259" height="5.7795" color-interpolation-filters="sRGB"><feGaussianBlur stdDeviation="11.948684"/></filter><filter id="ah" x="-.093476" y="-1.094" width="1.187" height="3.188" color-interpolation-filters="sRGB"><feGaussianBlur stdDeviation="8.257079"/></filter><filter id="v" color-interpolation-filters="sRGB"><feGaussianBlur stdDeviation="2.43"/></filter><clipPath id="al"><path d="m36 19c-0.56266 0-1 0.43734-1 1v217c0 0.56266 0.43734 1 1 1h184c0.56266 0 1-0.43734 1-1v-171c0-13.558-10.858-25.296-16.281-30.719-5.4231-5.4231-17.161-16.281-30.719-16.281z" fill="url(#linearGradient6013) #000000" fill-rule="evenodd"/></clipPath><filter id="af" color-interpolation-filters="sRGB"><feGaussianBlur stdDeviation="2.025"/></filter><linearGradient id="a"><stop stop-color="#fff" offset="0"/><stop stop-color="#fff" stop-opacity="0" offset="1"/></linearGradient><filter id="ag" x="-.10594" y="-.11513" width="1.2119" height="1.2303" color-interpolation-filters="sRGB"><feGaussianBlur stdDeviation="3.0222701"/></filter><mask id="o" maskUnits="userSpaceOnUse"><path d="m36-31c-0.56266 0-1 0.43734-1 1v217c0 0.56266 0.43734 1 1 1h184c0.56266 0 1-0.43734 1-1v-171c0-13.558-12.858-23.296-18.281-28.719-5.4231-5.4231-15.161-18.281-28.719-18.281z" fill="#fff" fill-rule="evenodd"/></mask><filter id="ae" x="-.24138" y="-.24138" width="1.4828" height="1.4828" color-interpolation-filters="sRGB"><feGaussianBlur stdDeviation="4.7270115"/></filter><filter id="z" color-interpolation-filters="sRGB"><feGaussianBlur stdDeviation="0.27169794"/></filter><filter id="y" x="-.13103" y="-.13103" width="1.2621" height="1.2621" color-interpolation-filters="sRGB"><feGaussianBlur stdDeviation="2.566092"/></filter><filter id="x" color-interpolation-filters="sRGB"><feGaussianBlur stdDeviation="0.30732727"/></filter><filter id="w" x="-.031646" y="-.10174" width="1.0633" height="1.2035" color-interpolation-filters="sRGB"><feGaussianBlur stdDeviation="0.35931052"/></filter><clipPath id="aj"><rect x="84" y="428" width="92" height="56"/></clipPath><filter id="aa" x="-.30265" y="-.30265" width="1.6053" height="1.6053" color-interpolation-filters="sRGB"><feGaussianBlur stdDeviation="3.5333828"/></filter><filter id="ac" color-interpolation-filters="sRGB"><feGaussianBlur stdDeviation="0.84057318"/></filter><filter id="ab" x="-.11115" y="-.20272" width="1.2223" height="1.4054" color-interpolation-filters="sRGB"><feGaussianBlur stdDeviation="0.83939158"/></filter><clipPath id="ak"><path d="m79.406 432.78c4.9521 3.1562 10.098 2.36 13.812 6.2812 0.20853 0.22012 0.41543 0.41335 0.625 0.625-0.91227 0.0132-3.3617-0.64471-5.8125-0.21875-2.04 0.35455-4.026-0.55433-6.4375 1.0312 2.8086-1.177 5.0587-0.41657 7.3125-0.71875 1.757-0.23558 4.8595 0.60574 6.8438 1.75 3.1991 2.92 6.0681 5.0034 6.6562 7.0312 0.75156 2.5912 0.93062 10.177 0.96875 13.312-0.33977-0.27402-0.66062-0.5645-0.96875-0.875-0.68906-0.71321-1.3477-1.4778-2.1562-2.0625-0.77698-0.56343-1.5827-1.081-2.2188-1.8125-0.66486-0.8969-1.4471-1.6971-2.1875-2.5312-0.70592-0.72238-1.4565-1.3967-2.125-2.1562-0.61554-0.75741-1.3361-1.4232-2.1875-1.9062-0.77581-0.47272-1.5828-1.0033-2.5312-0.96875-0.47451-0.0791-0.95887-0.19127-1.3125-0.53125-0.59769-0.44175-1.3243-0.71337-2.0625-0.78125l0.125 0.0625c0.9109 0.24481 1.6818 0.8215 2.4062 1.4062 0.82464 0.41098 1.8702 0.34115 2.5312 1.0625 0.70456 0.74408 1.7606 1.1436 2.2812 2.0625 0.20942 0.35023 0.44974 0.66458 0.71875 0.96875-0.70331 0.27896-1.3791 1.262-1.875 1.5938-1.2981 0.86836-4.6092-2.7475-7.5-2.4062 2.0854-0.0469 5.7552 2.5084 6.4688 2.7188 0.55836 0.16459-1.6664 2.1036-3.375 3.0312 1.5174-0.43138 3.9773-2.5172 4.4375-2.625 0.57771-0.13527 1.1621-1.9473 2.4375-1.6875 0.26687 0.28232 0.53984 0.57255 0.78125 0.875 0.69303 0.78032 1.3858 1.5403 1.9688 2.4062 0.85162 1.0618 1.9547 1.8779 2.875 2.875 0.7471 0.7803 1.3951 1.6458 2.0938 2.4688 0.93323 1.1249 1.8793 2.2501 2.8125 3.375 0.42144 0.87267 1.0317 1.6104 1.6562 2.3438 0.66563 0.75999 1.3096 1.5578 1.8125 2.4375 0.59909 0.89138 1.1135 1.8414 1.5 2.8438 0.30827 0.94828 0.48395 1.9214 0.625 2.9062 0.19051 1.037 0.34872 2.0991 0.25 3.1562-0.14578 1.5715-0.30651 3.1462-0.4375 4.7188-0.0217 0.7843-0.12135 1.6214 0.25 2.3438 0.88575 0.56065 1.944 0.69175 2.9688 0.75 0.86591-0.0236 1.7265-0.22461 2.4688-0.6875 0.31904-0.16231 0.63392-0.49478 0.46875-0.875-0.18667-1.0174-0.40295-2.0314-0.5-3.0625-0.1344-1.1527-0.25974-2.311-0.34375-3.4688-0.099-1.0951-0.14847-2.1826-0.1875-3.2812 0.0322-1.002 0.0767-2.0359 0.375-3 0.32471-0.94223 0.65194-2.1835 1.25-2.9688 0.85084-1.0428 2.1162-1.5162 3.0938-2.4375 0.82415-0.71738 1.6886-1.3898 2.4688-2.1562 0.75889-0.71303 1.6336-2.171 2.3125-2.9688 0.7624-0.80646 1.4899-0.89854 2.2188-1.625 0.18969-0.12973 0.38766-0.25786 0.59375-0.375 0.52915-0.26792 1.0411-0.57592 1.7188-0.625 0.70029 0.0397 1.394-0.19008 2.0938-0.0937 0.70007 0.0559 1.0293 0.72896 1.7812 0.65625 0.66535-0.12321 1.3522-0.12021 2.0312-0.0625-0.21541-0.0835-0.44604-0.15445-0.6875-0.1875-0.48981-0.0904-0.98368 0.0758-1.4688 0.0313-0.63207-0.054-0.8309-0.55639-1.375-0.71875-0.66242-0.11588-1.3594 0.10128-2.0312 0.0625-0.5382-0.0737-1.0553 0.0455-1.5938 0.0313 0.76409-1.1233 1.4432-2.4472 2.25-3.375 1.3398-1.2447 2.987-2.4822 4.0312-2.9688 1.3919-0.64849 2.3846 0.15819 4.2188-0.75-2.0398 0.86066-3.2805-0.27726-5.6875 1.125-1.3263 0.76242-2.2125 1.1866-2.9688 1.7188-1.5881-1.3451-0.70451-6.0617-2.0938-8.7812 0.0827-0.0958 0.125-0.20732 0.125-0.34375 1.5442-0.65828 3.8554-0.62579 5.3438-0.34375 1.8094 0.34285 1.1428 0.69721 2.0625 0.75 0.8083 0.0464 2.2134 0.8335 3.3438 1.2812 1.2226 0.48428 1.5383-0.0211 3.8438 1.2188-1.6552-1.1205-3.3491-1.1322-3.5938-1.4062 0.7457-2.4294 3.7961-2.8874 5.0625-5.1875-1.7644 2.5927-4.053 2.3398-5.2812 5.0938-1.2265-0.34407-2.4426-0.89298-3.0625-1.2812 1.4979-1.8748-1.6865-7.1896-1.7812-9-0.11059 2.4131 2.8308 5.847 1.25 8.8125-3.1678-1.2587-5.7502-0.78886-7.4375-0.40625-0.0628-0.0425-0.14103-0.0804-0.21875-0.0937-1.3849-2.0411-0.95284-3.5457-2.5-5.7812 0.85981 2.0352 1.0308 4.2145 1.875 5.9688 0.0201 0.0419 0.0431 0.0827 0.0625 0.125-0.0386 0.0749-0.0625 0.16002-0.0625 0.25 0 0.22641 0.14749 0.41694 0.34375 0.5 0.92516 2.7208 0.58242 6.1324 0.8125 8.6562-2.3395-3.8392-5.1562-3.9023-6.7812-10.25 1.3491 7.7694 7.4282 8.4637 5.875 13.344-1.1892 1.2392-3.1172 3.336-4.0312 4.25-0.76285 0.67868-1.5958 1.2684-2.4375 1.8438-0.87643 0.65389-0.79689 1.1332-1.7188 1.7188-0.68733 0.46263-2.2481 0.96188-2.8438 1.4375-0.77914 0.62211-1.2104 1.4697-1.875 2.3125-0.35417 0.47917-1.2396 0.61458-1.5625 1.25-0.32894-1.3324-1.2862-3.8088-3.0938-4.8438-0.89341-0.51154-1.8948-1.4387-2.625-2.2188-0.16244-0.16986-0.32136-0.31728-0.5-0.46875-1.2415-3.0007-1.3751-6.7091-1.6562-10.062 0.097-0.0922 0.17429-0.19076 0.28125-0.28125 0.53668-0.40499 1.0314-0.85932 1.9375-1.125 1.0036-0.19673 1.6425 0.33535 2.6875 0.1875 1.0153-0.18272 1.852-1.0645 2.8438-1.375 0.83379-0.32538 2.075-0.13823 3.0625-0.3125-1.1481 0.056-2.2651-0.14799-3.375 0.1875-0.91936 0.16193-1.4661 1.1166-2.3438 1.1562-1.0076 0.1187-1.6305-0.40688-2.5938-0.21875-0.80343 0.11401-1.4592 0.39725-2.2188 0.5625-0.096-0.0611-0.4129 0.0496-0.40625-0.0625-0.0616-0.56577-0.12813-1.1274-0.21875-1.6562-0.06-3.8967 4.2735-2.5702 5.1562-3.25 0.58133-0.44768 3.8545-3.0494 6.75-3.6562-3.4352 0.61964-6.8993 3.236-6.5625 2.4062 0.43039-1.0604 0.76035-7.918 2.8438-10.375-3.2326 3.1378-1.9374 10.598-4.2812 11.312-1.1493 0.35058-3.9482-0.0106-4.4375 1.375-0.10489-0.29885-0.21204-0.57258-0.34375-0.84375-0.84843-1.7468-3.2081-3.669-5.7188-5.8438-0.24719-1.2233 1.7086-1.6135 1.9062-2.125 0.15296-0.39577 2.4216-2.3888 3-3.6875-1.0818 1.4262-3.1791 3.223-3.2812 2.7188-0.13053-0.6444-2.2318-4.077-1.9688-5.9062-0.63373 2.5132 2.5124 5.711 1.5312 6.7812-0.40432 0.441-1.5683 1.0007-1.8125 1.6562-1.2132-1.0658-2.4193-2.1804-3.5312-3.4062-3.251-3.584-5.7455-2.0317-14.312-5.6562z" fill-rule="evenodd"/></clipPath><filter id="ad" color-interpolation-filters="sRGB"><feGaussianBlur stdDeviation="0.5940625"/></filter><radialGradient id="b" cx="130" cy="536.62" r="46" gradientTransform="matrix(3.2093 0 0 .19025 904.79 656.02)" gradientUnits="userSpaceOnUse"><stop offset="0"/><stop stop-opacity="0" offset="1"/></radialGradient><linearGradient id="r" x1="145" x2="149.75" y1="481.12" y2="492.88" gradientTransform="translate(1192 272.99)" gradientUnits="userSpaceOnUse"><stop offset="0"/><stop stop-opacity="0" offset="1"/></linearGradient><linearGradient id="q" x1="25.355" x2="25.355" y1="33.357" y2="31.763" gradientTransform="matrix(2.7059 0 0 3.5 1257.1 634.49)" gradientUnits="userSpaceOnUse"><stop stop-color="#2e3436" offset="0"/><stop stop-color="#2e3436" stop-opacity="0" offset="1"/></linearGradient><linearGradient id="p" x1="-11.986" x2="-11.986" y1="11.5" y2="28.977" gradientTransform="matrix(2.6265 0 0 2.6667 1353.5 662.32)" gradientUnits="userSpaceOnUse"><stop stop-color="#204a87" offset="0"/><stop stop-color="#729fcf" offset="1"/></linearGradient><linearGradient id="u" x1="84" x2="-104.07" y1="200.5" y2="-127.99" gradientUnits="userSpaceOnUse"><stop offset="0"/><stop stop-opacity="0" offset="1"/></linearGradient><radialGradient id="n" cx="-80.661" cy="88.983" r="18" gradientTransform="matrix(25.306 2.1794e-6 -1.0731e-6 12.46 2199.2 -911.49)" gradientUnits="userSpaceOnUse"><stop stop-color="#fff" offset="0"/><stop stop-color="#d3d7cf" offset="1"/></radialGradient><radialGradient id="m" cx="128.59" cy="116.47" r="92.902" gradientTransform="matrix(3.5967 -.28529 .17691 2.2303 -355.12 -121.58)" gradientUnits="userSpaceOnUse"><stop stop-color="#fff" offset="0"/><stop stop-color="#fff" stop-opacity="0" offset="1"/></radialGradient><radialGradient id="l" cx="36" cy="45.297" r="84.203" gradientTransform="matrix(0 2.7411 -1.8799 0 120.78 -78.804)" gradientUnits="userSpaceOnUse"><stop stop-color="#fff" offset="0"/><stop stop-color="#fff" stop-opacity="0" offset="1"/></radialGradient><radialGradient id="k" cx="127.75" cy="261.27" r="92.25" gradientTransform="matrix(1.663 0 0 .34037 -84.702 148.57)" gradientUnits="userSpaceOnUse" xlink:href="#a"/><radialGradient id="j" cx="20.48" cy="31.231" r="93" gradientTransform="matrix(0 1.0485 -3.8781 0 165.49 13.855)" gradientUnits="userSpaceOnUse"><stop stop-color="#fff" offset="0"/><stop stop-color="#fff" stop-opacity="0" offset="1"/></radialGradient><radialGradient id="i" cx="127.75" cy="236.25" r="92.25" gradientTransform="matrix(1.5709 0 0 1.1159 -53.057 .95481)" gradientUnits="userSpaceOnUse" xlink:href="#a"/><radialGradient id="h" cx="210.96" cy="38.58" r="34.234" gradientTransform="matrix(1.0442 0 0 .96082 -12.745 6.3495)" gradientUnits="userSpaceOnUse"><stop offset="0"/><stop stop-opacity="0" offset="1"/></radialGradient><radialGradient id="g" cx="196.36" cy="44.213" r="23.763" gradientTransform="matrix(1 0 0 .98931 0 .47264)" gradientUnits="userSpaceOnUse"><stop offset="0"/><stop stop-opacity="0" offset="1"/></radialGradient><linearGradient id="t" x1="190.98" x2="196.45" y1="52.973" y2="39.564" gradientTransform="translate(-1.5 2.5214)" gradientUnits="userSpaceOnUse"><stop offset="0"/><stop stop-opacity="0" offset="1"/></linearGradient><radialGradient id="f" cx="190.88" cy="49.25" r="23.5" gradientTransform="matrix(1.4473 0 0 1.4473 -85.751 -21.529)" gradientUnits="userSpaceOnUse"><stop stop-color="#fff" offset="0"/><stop stop-color="#fff" stop-opacity="0" offset="1"/></radialGradient><radialGradient id="e" cx="192.25" cy="45.75" r="23.5" gradientTransform="matrix(.5972 -.4509 1.7045 2.2575 -.54025 29.158)" gradientUnits="userSpaceOnUse"><stop stop-color="#fff" offset="0"/><stop stop-color="#e6e6e6" offset=".44761"/><stop stop-color="#cbcbcb" offset=".81268"/><stop stop-color="#dbdbdb" offset="1"/></radialGradient><radialGradient id="d" cx="186.77" cy="27.786" r="8.9714" gradientTransform="matrix(2.1152 0 0 2.9279 -207.44 -53.617)" gradientUnits="userSpaceOnUse"><stop stop-color="#fff" offset="0"/><stop stop-color="#fff" stop-opacity="0" offset="1"/></radialGradient><radialGradient id="c" cx="208.68" cy="39.762" r="13.625" gradientTransform="matrix(.99733 .072992 -.11677 1.5955 5.1997 -29.524)" gradientUnits="userSpaceOnUse"><stop stop-color="#fff" offset="0"/><stop stop-color="#fff" stop-opacity="0" offset="1"/></radialGradient><linearGradient id="s" x1="189.25" x2="189.25" y1="23.662" y2="43.888" gradientUnits="userSpaceOnUse"><stop stop-color="#fff" offset="0"/><stop stop-color="#fff" stop-opacity="0" offset="1"/></linearGradient></defs><g transform="translate(-1224 -636)"><g><g transform="translate(800 604)"><rect transform="matrix(1.1875 0 0 .625 372.25 116)" x="60" y="244" width="176" height="12" rx="30.842" ry="6" filter="url(#ai)" opacity=".3"/><rect transform="matrix(.88797 0 0 .18573 434.71 228.96)" x="22.995" y="223.44" width="211" height="18.114" rx="4.9924" ry="9.0572" fill-rule="evenodd" filter="url(#ah)" opacity=".8"/><path transform="matrix(.98925 0 0 1.0129 401.72 .5305)" d="m55.872 47.328c-0.56266 0-1 0.43734-1 1l-1.0109 217c0 0.56266 0.43734 1 1 1h186.02c0.56266 0 1-0.43734 1-1l-1.0109-171c0-13.558-10.858-25.296-16.281-30.719-5.4231-5.4231-17.161-16.281-30.719-16.281z" fill="url(#u)" fill-rule="evenodd" filter="url(#v)" opacity=".7"/><g transform="matrix(.98925 0 0 1.0232 401.72 .044255)"><g transform="translate(19.872 27.828)"><path d="m36 19c-0.56266 0-1 0.43734-1 1v217c0 0.56266 0.43734 1 1 1h184c0.56266 0 1-0.43734 1-1v-171c0-13.558-10.858-25.296-16.281-30.719-5.4231-5.4231-17.161-16.281-30.719-16.281z" fill="url(#n)"/><path d="m36.591 19.704c-0.55904 0-0.99357 0.43453-0.99357 0.99357v215.61c0 0.55904 0.43453 0.99357 0.99357 0.99357h182.82c0.55904 0 0.99357-0.43453 0.99357-0.99357v-169.9c0-13.471-10.788-25.133-16.177-30.521-5.3882-5.3882-17.051-16.177-30.521-16.177z" fill="none" stroke="url(#m)" stroke-dashoffset=".7" stroke-linecap="round" stroke-width=".99397"/><path d="m36 19c-0.56266 0-1 0.43734-1 1v217c0 0.56266 0.43734 1 1 1h184c0.56266 0 1-0.43734 1-1v-171c0-13.558-10.858-25.296-16.281-30.719-5.4231-5.4231-17.161-16.281-30.719-16.281z" clip-path="url(#al)" fill="none" filter="url(#af)" opacity=".072289" stroke="#000" stroke-dashoffset=".7" stroke-linecap="round" stroke-width=".99397"/><path d="m36.625 19.875c-0.56266 0-1 0.43734-1 1v217c0 0.56266 0.43734 1 1 1v-217c0-0.56266 0.43734-1 1-1h138c11.863 0 22.341 8.3199 28.406 14.031-5.8462-5.6773-16.801-15.031-29.406-15.031z" fill="url(#l)" fill-rule="evenodd"/><rect x="35.5" y="186.25" width="184.5" height="51.25" rx="1.0156" ry="1.0156" fill="url(#k)" fill-rule="evenodd" opacity=".56024"/></g><path d="m55.875 46.812c-0.56266-1e-6 -1 0.43734-1 1v88.188h186v-42.188c-1e-5 -13.558-10.858-25.296-16.281-30.719-5.4231-5.4231-17.161-16.281-30.719-16.281z" fill="url(#j)"/><rect x="55.372" y="263.83" width="184.5" height="1.5" rx="1.0156" ry="1.0156" fill="url(#i)" fill-rule="evenodd"/></g></g><rect x="1275" y="691.99" width="94" height="66" rx="1.375" ry="1.375" fill="#babdb6"/><path d="m1278.7 807.99c-1.4634 0-2.6563 0.892-2.6563 2s1.1929 2 2.6563 2h122.69c1.4634 0 2.625-0.892 2.625-2s-1.1616-2-2.625-2zm0 12c-1.4773 0-2.6563 0.892-2.6563 2s1.179 2 2.6563 2h132.84c1.4774 0 2.6563-0.892 2.6563-2s-1.1789-2-2.6563-2zm-0.1875 12c-1.3626 0-2.4688 0.892-2.4688 2s1.1062 2 2.4688 2h115.06c1.3626 0 2.4688-0.892 2.4687-2 0-1.108-1.1061-2-2.4687-2zm99.875-140c-1.2984 0-2.3438 0.892-2.3438 2s1.0454 2 2.3438 2h35.312c1.2984 0 2.3437-0.892 2.3437-2s-1.0453-2-2.3437-2zm0 12c-1.2984 0-2.3438 0.892-2.3438 2s1.0454 2 2.3438 2h35.312c1.2984 0 2.3437-0.892 2.3437-2s-1.0453-2-2.3437-2zm0 12c-1.2984 0-2.3438 0.892-2.3438 2s1.0454 2 2.3438 2h35.312c1.2984 0 2.3437-0.892 2.3437-2s-1.0453-2-2.3437-2zm0 12c-1.2984 0-2.3438 0.892-2.3438 2s1.0454 2 2.3438 2h35.312c1.2984 0 2.3437-0.892 2.3437-2s-1.0453-2-2.3437-2zm0 12c-1.2984 0-2.3438 0.892-2.3438 2s1.0454 2 2.3438 2h22.406c1.2985 0 2.3438-0.892 2.3438-2s-1.0453-2-2.3438-2zm0.031 12c-1.3219 0-2.375 0.892-2.375 2s1.0531 2 2.375 2h23.562c1.3219 0 2.375-0.892 2.375-2s-1.0531-2-2.375-2zm-99.938 16c-1.3465 0-2.4375 0.892-2.4375 2s1.091 2 2.4375 2h135.12c1.3466 0 2.4375-0.892 2.4375-2s-1.0909-2-2.4375-2zm0 12c-1.3465 0-2.4375 0.892-2.4375 2s1.091 2 2.4375 2h135.12c1.3466 0 2.4375-0.892 2.4375-2s-1.0909-2-2.4375-2zm0 12c-1.3503 0-2.4375 0.892-2.4375 2s1.0872 2 2.4375 2h35.375c1.3504 0 2.4375-0.892 2.4375-2s-1.0871-2-2.4375-2z" fill="#3465a4" fill-rule="evenodd" opacity=".07"/><rect x="1276" y="692.99" width="92" height="64" rx="0" ry="0" fill="url(#p)"/><g transform="translate(1192 265.99)" clip-path="url(#aj)"><circle transform="matrix(1.7131 0 0 1.3785 -77.804 -183.18)" cx="110.79" cy="483.03" r="14.01" fill="#b6cee7" filter="url(#aa)"/><circle transform="matrix(1.1421 0 0 1.1421 -14.536 -68.656)" cx="110.79" cy="483.03" r="14.01" fill="#b6cee7"/><circle transform="matrix(.99486 0 0 .99486 1.775 2.4562)" cx="110.79" cy="483.03" r="14.01" fill="#e0eaf5" filter="url(#ac)"/></g><path d="m1304 739.93c-5.0025 0-9.0625 4.06-9.0625 9.0625 0 0.2919 0 0.5902 0.031 0.875h18.062c0.027-0.2848 0.031-0.5831 0.031-0.875 0-5.0025-4.06-9.0625-9.0625-9.0625h-1e-4z" fill="#fff" filter="url(#ab)"/><path d="m1276 750.11c22.498-3.4115 40.875-0.1666 60.875-0.125l31.125-1.75v8.75h-92z" fill="url(#q)"/><path d="m1301.4 697.77c4.9521 3.1562 10.098 2.36 13.812 6.2812 0.2085 0.2202 0.4154 0.4134 0.625 0.625-0.9123 0.0132-3.3617-0.6447-5.8125-0.2187-2.04 0.3545-4.0261-0.5543-6.4375 1.0312 2.8086-1.1769 5.0587-0.4165 7.3125-0.7187 1.757-0.2356 4.8595 0.6057 6.8437 1.75 3.1992 2.92 6.0682 5.0034 6.6563 7.0312 0.7516 2.5913 0.9306 10.177 0.9687 13.312-0.3397-0.274-0.6606-0.5645-0.9687-0.875-0.6891-0.7132-1.3477-1.4777-2.1563-2.0625-0.7769-0.5634-1.5826-1.081-2.2187-1.8125-0.6649-0.8969-1.4471-1.697-2.1875-2.5312-0.7059-0.7224-1.4565-1.3967-2.125-2.1563-0.6155-0.7574-1.3361-1.4232-2.1875-1.9062-0.7758-0.4727-1.5828-1.0033-2.5313-0.9688-0.4745-0.0791-0.9588-0.1912-1.3125-0.5312-0.5976-0.4418-1.3243-0.7134-2.0625-0.7813l0.125 0.0625c0.9109 0.2449 1.6818 0.8215 2.4063 1.4063 0.8246 0.411 1.8702 0.3411 2.5312 1.0625 0.7046 0.7441 1.7607 1.1436 2.2813 2.0625 0.2094 0.3502 0.4497 0.6646 0.7187 0.9687-0.7033 0.279-1.379 1.262-1.875 1.5938-1.298 0.8683-4.6091-2.7475-7.5-2.4063 2.0855-0.0469 5.7552 2.5085 6.4688 2.7188 0.5584 0.1646-1.6664 2.1036-3.375 3.0312 1.5174-0.4313 3.9773-2.5172 4.4375-2.625 0.5777-0.1352 1.1621-1.9472 2.4375-1.6875 0.2669 0.2824 0.5398 0.5726 0.7812 0.875 0.6931 0.7804 1.3858 1.5403 1.9688 2.4063 0.8516 1.0618 1.9547 1.8779 2.875 2.875 0.7471 0.7803 1.3951 1.6457 2.0937 2.4687 0.9333 1.1249 1.8793 2.2502 2.8125 3.375 0.4215 0.8727 1.0318 1.6104 1.6563 2.3438 0.6656 0.76 1.3096 1.5578 1.8125 2.4375 0.5991 0.8914 1.1135 1.8414 1.5 2.8437 0.3083 0.9483 0.4839 1.9215 0.625 2.9063 0.1905 1.037 0.3487 2.0991 0.25 3.1562-0.1458 1.5715-0.3065 3.1462-0.4375 4.7188-0.022 0.7843-0.1214 1.6213 0.25 2.3437 0.8857 0.5607 1.944 0.6918 2.9687 0.75 0.866-0.0236 1.7265-0.2246 2.4688-0.6875 0.319-0.1623 0.6339-0.4947 0.4687-0.875-0.1866-1.0174-0.4029-2.0314-0.5-3.0625-0.1344-1.1527-0.2597-2.311-0.3437-3.4687-0.099-1.0951-0.1485-2.1826-0.1875-3.2813 0.032-1.0019 0.077-2.0359 0.375-3 0.3247-0.9422 0.6519-2.1834 1.25-2.9687 0.8508-1.0428 2.1162-1.5162 3.0937-2.4375 0.8242-0.7174 1.6887-1.3898 2.4688-2.1563 0.7589-0.713 1.6336-2.171 2.3125-2.9687 0.7624-0.8065 1.4899-0.8985 2.2187-1.625 0.1897-0.1297 0.3877-0.2579 0.5938-0.375 0.5291-0.2679 1.0411-0.5759 1.7187-0.625 0.7003 0.0397 1.394-0.1901 2.0938-0.0937 0.7001 0.0559 1.0293 0.7289 1.7812 0.6562 0.6654-0.1232 1.3522-0.1202 2.0313-0.0625-0.2154-0.0835-0.446-0.1544-0.6875-0.1875-0.4898-0.0904-0.9837 0.0758-1.4688 0.0313-0.632-0.054-0.8309-0.5564-1.375-0.7187-0.6624-0.1159-1.3594 0.1013-2.0312 0.0625-0.5382-0.0737-1.0553 0.0455-1.5938 0.0313 0.7641-1.1233 1.4433-2.4472 2.25-3.375 1.3398-1.2447 2.987-2.4822 4.0313-2.9688 1.3919-0.6485 2.3846 0.1582 4.2187-0.75-2.0397 0.8607-3.2805-0.2772-5.6875 1.125-1.3263 0.7625-2.2124 1.1866-2.9687 1.7188-1.5881-1.3451-0.7045-6.0617-2.0938-8.7813 0.083-0.0958 0.125-0.2073 0.125-0.3437 1.5442-0.6583 3.8554-0.6258 5.3438-0.3438 1.8094 0.3429 1.1428 0.6973 2.0625 0.75 0.8083 0.0464 2.2134 0.8335 3.3437 1.2813 1.2227 0.4843 1.5384-0.0211 3.8438 1.2187-1.6552-1.1205-3.3491-1.1322-3.5938-1.4062 0.7457-2.4295 3.7961-2.8874 5.0625-5.1875-1.7643 2.5927-4.0529 2.3398-5.2812 5.0937-1.2265-0.344-2.4426-0.8929-3.0625-1.2812 1.4979-1.8748-1.6865-7.1897-1.7813-9-0.1105 2.4131 2.8308 5.847 1.25 8.8125-3.1678-1.2587-5.7502-0.7889-7.4375-0.4063-0.063-0.0425-0.141-0.0804-0.2187-0.0937-1.3849-2.0411-0.9528-3.5456-2.5-5.7812 0.8598 2.0352 1.0307 4.2145 1.875 5.9687 0.02 0.0419 0.043 0.0827 0.063 0.125-0.038 0.0749-0.063 0.1601-0.063 0.25 0 0.2265 0.1475 0.417 0.3437 0.5 0.9252 2.7208 0.5825 6.1324 0.8125 8.6563-2.3394-3.8392-5.1561-3.9023-6.7812-10.25 1.3491 7.7694 7.4282 8.4637 5.875 13.344-1.1892 1.2393-3.1172 3.336-4.0313 4.25-0.7628 0.6787-1.5958 1.2684-2.4375 1.8438-0.8764 0.6539-0.7968 1.1332-1.7187 1.7187-0.6873 0.4627-2.2481 0.9619-2.8438 1.4375-0.7791 0.6221-1.2103 1.4698-1.875 2.3125-0.3541 0.4792-1.2395 0.6146-1.5625 1.25-0.3289-1.3323-1.2862-3.8088-3.0937-4.8437-0.8934-0.5116-1.8949-1.4387-2.625-2.2188-0.1624-0.1698-0.3214-0.3172-0.5-0.4687-1.2415-3.0007-1.3751-6.7091-1.6563-10.062 0.097-0.0922 0.1743-0.1908 0.2813-0.2813 0.5367-0.405 1.0314-0.8593 1.9375-1.125 1.0036-0.1967 1.6425 0.3354 2.6875 0.1875 1.0153-0.1827 1.852-1.0645 2.8437-1.375 0.8338-0.3253 2.075-0.1382 3.0625-0.3125-1.148 0.056-2.265-0.148-3.375 0.1875-0.9193 0.162-1.4661 1.1166-2.3437 1.1563-1.0076 0.1187-1.6305-0.4069-2.5938-0.2188-0.8034 0.1141-1.4591 0.3973-2.2187 0.5625-0.096-0.0611-0.4129 0.0496-0.4063-0.0625-0.062-0.5657-0.1281-1.1274-0.2187-1.6562-0.06-3.8967 4.2735-2.5702 5.1562-3.25 0.5814-0.4477 3.8546-3.0495 6.75-3.6563-3.4351 0.6197-6.8992 3.2361-6.5625 2.4063 0.4304-1.0604 0.7604-7.918 2.8438-10.375-3.2326 3.1378-1.9374 10.598-4.2813 11.312-1.1493 0.3506-3.9481-0.0106-4.4375 1.375-0.1048-0.2989-0.212-0.5726-0.3437-0.8438-0.8484-1.7467-3.2081-3.6689-5.7188-5.8437-0.2471-1.2233 1.7086-1.6135 1.9063-2.125 0.153-0.3958 2.4216-2.3888 3-3.6875-1.0818 1.4262-3.1791 3.223-3.2813 2.7187-0.1305-0.6444-2.2318-4.0769-1.9687-5.9062-0.6337 2.5132 2.5124 5.711 1.5312 6.7812-0.4043 0.441-1.5682 1.0007-1.8125 1.6563-1.2131-1.0658-2.4192-2.1804-3.5312-3.4063-3.2511-3.584-5.7455-2.0317-14.312-5.6562z" fill-rule="evenodd"/><path d="m1334.9 750.86c-0.993 0.048-1.9825 0.163-2.5625 0.625 0.023 0.5954 0.5818 1.2912 1.0312 1.9375 0.908 1.1903 1.8268 2.3727 2.75 3.5625h4.9688c-0.4272-0.7657-0.8221-1.5501-1.2188-2.3125-0.4653-0.8498-0.8192-1.6926-1.1875-2.5312-0.042-0.3134-0.5299-0.585-0.9375-0.7188-0.9947-0.3815-1.9649-0.543-2.8437-0.5625z" fill="url(#r)" fill-rule="evenodd" opacity=".7973"/><path d="m1291.5 807.58c-0.3618 1.8262 1.5604-0.2493 0 0zm10.375 0 0.063 1.1562c-0.7347 5.8583 1.7923 1.4446-0.063-1.1562zm1.6562 0c-0.3618 1.8262 1.5604-0.2493 0 0zm46.156 0 0.063 1.1562c-0.7347 5.8583 1.7923 1.4446-0.063-1.1562zm8.6562 0c-0.3618 1.8262 1.5604-0.2493 0 0zm5.4688 0c-0.3618 1.8262 1.5604-0.2493 0 0zm8.9062 0-1.2187 0.2812-0.5313 0.625c0.3167 6.0811 0.5135 1.1504 1.75-0.9062zm11.75 0c-0.3618 1.8262 1.5604-0.2493 0 0zm11.531 0 0.063 1.1562c-0.7347 5.8583 1.7923 1.4446-0.063-1.1562zm-119.62 0.1875c-0.3426 3.1023 0.7046 6.6315 0.5937 1.375 0.403 1.1917 2.0776 3.2281 2.875-0.2188-0.8582 6.2841 2.0403 0.0704-0.094-1-1.8235 4.5008-1.0937 0.6727-3.375-0.1562zm59.906 0.1562-0.4375 0.7188c0.3086 5.5817 2.0265 2.0889 0.7188-0.7188zm53.812 0-0.4375 0.7188c0.3086 5.5817 2.0265 2.0889 0.7188-0.7188zm-72.469 0.5938c-2.054-0.0851-1.3036 7.3107-0.125 1.0937 2.3688 1.1221 0.307 3.7517 2.5312-0.125 1.4471 5.9442 1.979-2.9017-0.9687 0-0.5895-0.6614-1.0571-0.953-1.4375-0.9687zm38.875 0.1875c-1.2199-0.0317-2.0761 1.3813-1.5 2.625 4.5074 3.1583-1.8322-1.8093 2.4062-2.3438-0.3035-0.1797-0.6247-0.2739-0.9062-0.2812zm4.8125 0c-1.1481-0.0927-2.2132 1.6683-1.0625 3.3437 0.3672-6.923 2.7448 2.9104 2.4687-1.9062-0.364-0.9744-0.8843-1.3954-1.4062-1.4375zm-79.062 0.0313c-0.8707-0.0185-1.2984 0.3929 0.9375 1-1.5096 0.2021-1.792 0.7925-1.5625 1.3437 0.1601-0.1662 0.5853-0.372 1.4062-0.5937 1.5769 1.046-0.3514 1.2563-1.1562 1 0.7807 0.8489 2.6356 1.2044 2.2187-1.2188 0.3466-1.0715-0.973-1.5128-1.8437-1.5312zm-0.375 2.75c-0.1143-0.1243-0.1925-0.2681-0.25-0.4063-0.1773 0.1842-0.026 0.3182 0.25 0.4063zm11.844-2.7501c-2.3035 0.0776 3.3721 3.7732-0.6875 2.9688 4.9092 1.3552-1.4884-2.372 2.2188-2.75-0.7053-0.1607-1.2022-0.2298-1.5313-0.2188zm5.1875 0c-0.8706-0.0185-1.2671 0.393 0.9688 1-1.5038 0.2013-1.8183 0.7943-1.5938 1.3438 0.1601-0.1662 0.5853-0.372 1.4063-0.5938 1.5951 1.0582-0.3691 1.239-1.1563 0.9688 0.7702 0.8626 2.67 1.2537 2.25-1.1875 0.3466-1.0715-1.0043-1.5128-1.875-1.5313zm-0.375 2.7188c-0.1079-0.1209-0.1955-0.2417-0.25-0.375-0.1713 0.1779-0.01 0.2863 0.25 0.375zm8.5-2.7188c-1.2853-0.0252-3.1322 3.72-0.4062 3.125-0.2597 0.0334-0.6245-0.31-1.0938-1.375 1.5518-3.4184 1.9599 0.8204 1.2188 1.3438 0.19-0.0474 0.3922-0.0981 0.625-0.1875-0.2454 3.3018 1.0403 0.6972 0.5937-1.0313-0.08-1.3641-0.4748-1.8659-0.9375-1.875zm6.5 0c-0.8706-0.0185-1.2671 0.393 0.9688 1-1.5038 0.2013-1.8183 0.7943-1.5938 1.3438 0.1601-0.1662 0.5853-0.372 1.4063-0.5938 1.5951 1.0582-0.3691 1.239-1.1563 0.9688 0.7702 0.8626 2.67 1.2537 2.25-1.1875 0.3466-1.0715-1.0043-1.5128-1.875-1.5313zm-0.375 2.7188c-0.1079-0.1209-0.1955-0.2417-0.25-0.375-0.1713 0.1779-0.01 0.2863 0.25 0.375zm19.875-2.7188c-0.8706-0.0185-1.2671 0.393 0.9688 1-1.5134 0.2026-1.7953 0.7914-1.5625 1.3438 0.1601-0.1662 0.554-0.372 1.375-0.5938 1.574 1.0442-0.3175 1.2542-1.125 1 0.7824 0.8466 2.6351 1.2014 2.2187-1.2187 0.3466-1.0715-1.0043-1.5128-1.875-1.5313zm-0.3437 2.75c-0.1145-0.1239-0.1919-0.2683-0.25-0.4062-0.1783 0.1851-0.029 0.3183 0.25 0.4062zm19.375-2.75c-0.8707-0.0185-1.2671 0.393 0.9687 1-1.5037 0.2013-1.8182 0.7943-1.5937 1.3438 0.1601-0.1662 0.5853-0.372 1.4062-0.5938 1.5951 1.0582-0.369 1.239-1.1562 0.9688 0.7701 0.8626 2.6387 1.2537 2.2187-1.1875 0.3466-1.0715-0.9731-1.5128-1.8437-1.5313zm-0.375 2.7188c-0.1079-0.1209-0.1955-0.2417-0.25-0.375-0.1714 0.1779-0.01 0.2863 0.25 0.375zm14.5-2.7188c-0.8707-0.0185-1.2672 0.393 0.9687 1-1.5095 0.2021-1.8232 0.7926-1.5937 1.3438 0.1601-0.1662 0.5853-0.372 1.4062-0.5938 1.5769 1.0461-0.3514 1.2564-1.1562 1 0.7807 0.849 2.6356 1.2044 2.2187-1.2187 0.3466-1.0715-0.973-1.5128-1.8437-1.5313zm-0.375 2.75c-0.1143-0.1243-0.1925-0.268-0.25-0.4062-0.1773 0.1841-0.026 0.3182 0.25 0.4062zm21.031-2.75c-0.8706-0.0185-1.2671 0.393 0.9688 1-1.5134 0.2026-1.7953 0.7914-1.5625 1.3438 0.1601-0.1662 0.554-0.372 1.375-0.5938 1.574 1.0442-0.3175 1.2542-1.125 1 0.7824 0.8466 2.6351 1.2014 2.2187-1.2187 0.3466-1.0715-1.0043-1.5128-1.875-1.5313zm-0.3437 2.75c-0.1145-0.1239-0.1919-0.2683-0.25-0.4062-0.1783 0.1851-0.029 0.3183 0.25 0.4062zm16.125-2.7187c-6.0571 4.4188 5.8513 3.7139 0 0zm-112.84 0.0313c-0.4406 0.0706-0.8424 0.3784-0.9062 0.875 0.6357 4.7486-0.1122-0.4083 2.0625-0.3125-0.2164-0.4486-0.7156-0.6331-1.1563-0.5625zm37.781 0c-1.257 0.0933-2.6891 1.4889-1.2813 2.6875 5.6554 1.6646-2.8837-1.0104 2.6875-1.125 0.016-1.2061-0.652-1.6185-1.4062-1.5625zm3.0625 0c-0.4406 0.0706-0.8424 0.3784-0.9063 0.875 0.6357 4.7486-0.1434-0.4083 2.0313-0.3125-0.2164-0.4486-0.6844-0.6331-1.125-0.5625zm11.031 0c-1.257 0.0934-2.6891 1.4889-1.2812 2.6875 5.6553 1.6646-2.8525-1.0104 2.7187-1.125 0.016-1.2061-0.6833-1.6185-1.4375-1.5625zm32.906 0c-1.257 0.0934-2.6891 1.4889-1.2813 2.6875 5.6554 1.6646-2.8837-1.0104 2.6875-1.125 0.016-1.2061-0.652-1.6185-1.4062-1.5625zm24.469 0c-1.257 0.0933-2.6578 1.4889-1.25 2.6875 5.6554 1.6646-2.8837-1.0104 2.6875-1.125 0.016-1.2061-0.6833-1.6185-1.4375-1.5625zm-16.688 0.0313c-1.6637 0.2257-3.9216 3.0551 0.2813 3.0937-2.5918 1.0557-0.3034 2.3673 0.75-0.1875 0.5352-2.0689 0.035-2.8363-0.7188-2.9062-0.1036-0.01-0.2015-0.015-0.3125 0zm-90.844 0.0313c-0.8851 4.44 1.804 2.6515 0 0zm12.031 0c-0.8851 4.44 1.8041 2.6515 0 0zm54.812 0c-0.8851 4.44 1.8041 2.6515 0 0zm5.4688 0c-0.8851 4.44 1.804 2.6515 0 0zm20.656 0c-0.8851 4.44 1.8041 2.6515 0 0zm-96.844 0.0937c-0.3647 6.9363-2.7458-2.9521-2.4688 1.875 1.1678 3.1202 4.1373 0.556 2.4688-1.875zm23.812 0c-0.3647 6.9363-2.7458-2.9521-2.4688 1.875 1.1678 3.1202 4.1373 0.556 2.4688-1.875zm34.969 0c-0.3647 6.9363-2.777-2.9521-2.5 1.875 1.1678 3.1202 4.1685 0.556 2.5-1.875zm32.875 0c-0.3647 6.9363-2.7458-2.9521-2.4687 1.875 1.1678 3.1202 4.1372 0.556 2.4687-1.875zm2.375 0.1562c0.2633-0.1339 0.6623 0.181 1.1875 1.3438-1.5817 3.3789-1.9772-0.9419-1.1875-1.3438zm-54.031 0.125c0.2903 0.0295 0.5957 0.3062 0.8125 0.9688-2.3966 0.9093-1.6834-1.0573-0.8125-0.9688zm14.094 0c0.2903 0.0295 0.627 0.3062 0.8438 0.9688-2.3966 0.9093-1.7146-1.0573-0.8438-0.9688zm32.906 0c0.2903 0.0295 0.5957 0.3062 0.8125 0.9688-2.3966 0.9093-1.6834-1.0573-0.8125-0.9688zm24.5 0c0.2903 0.0295 0.5957 0.3062 0.8125 0.9688-2.3966 0.9093-1.6834-1.0573-0.8125-0.9688zm3.5 0c3.7109 2.974-3.8144 2.7536 0 0zm-80.125 2.1563c-1.389 2.6591 1.8876 0.4035 0 0zm69.812 0c-1.389 2.6591 1.8876 0.4035 0 0zm-112.16 8.1875c-0.3618 1.8262 1.5604-0.2492 0 0zm4.8125 0 0.031 1.1562c-0.7347 5.8583 1.8236 1.4446-0.031-1.1562zm28.156 0c-0.3618 1.8262 1.5604-0.2492 0 0zm52.656 0c-0.3618 1.8262 1.5604-0.2492 0 0zm6.375 0c-0.3618 1.8262 1.5604-0.2492 0 0zm9.1875 0c-0.3618 1.8262 1.5604-0.2492 0 0zm-70.312 0.3437-0.4687 0.7188c0.3086 5.5817 2.0264 2.0889 0.7187-0.7188zm56.688 0-0.4687 0.7188c0.3086 5.5817 2.0265 2.0889 0.7187-0.7188zm2.3438 0-0.4375 0.7188c0.3086 5.5817 2.0265 2.0889 0.7187-0.7188zm26.031 0.5938c-2.054-0.0851-1.3036 7.3107-0.125 1.0937 2.3689 1.1221 0.307 3.7517 2.5313-0.125 1.447 5.9442 1.9789-2.9017-0.9688 0-0.5894-0.6614-1.0571-0.953-1.4375-0.9687zm-118.44 0.1875c-1.1481-0.0927-2.2131 1.6683-1.0625 3.3437 0.3673-6.923 2.7761 2.9104 2.5-1.9062-0.364-0.9744-0.9156-1.3954-1.4375-1.4375zm19.406 0c-1.1481-0.0927-2.1819 1.6683-1.0313 3.3437 0.3672-6.923 2.7449 2.9104 2.4688-1.9062-0.364-0.9744-0.9156-1.3954-1.4375-1.4375zm7.5 0c-1.1481-0.0927-2.1819 1.6683-1.0313 3.3437 0.3672-6.923 2.7449 2.9104 2.4688-1.9062-0.364-0.9744-0.9156-1.3954-1.4375-1.4375zm16.562 0c-1.1481-0.0927-2.2132 1.6683-1.0625 3.3437 0.3672-6.923 2.7761 2.9104 2.5-1.9062-0.364-0.9744-0.9156-1.3954-1.4375-1.4375zm22.625 0c-1.1481-0.0927-2.2132 1.6683-1.0625 3.3437 0.3672-6.923 2.7761 2.9104 2.5-1.9062-0.364-0.9744-0.9156-1.3954-1.4375-1.4375zm7.6875 0c-1.2199-0.0317-2.1073 1.3813-1.5313 2.625 4.5074 3.1583-1.8322-1.8093 2.4063-2.3438-0.3035-0.1797-0.5935-0.2739-0.875-0.2812zm-69.031 0.0312c-2.3035 0.0776 3.3408 3.7731-0.7187 2.9687 4.9091 1.3553-1.4885-2.3719 2.2187-2.75-0.7053-0.1606-1.1709-0.2298-1.5-0.2187zm25.375 0c-0.8706-0.0185-1.2671 0.3929 0.9688 1-1.5038 0.2013-1.8183 0.7942-1.5938 1.3437 0.1601-0.1662 0.5853-0.372 1.4063-0.5937 1.574 1.0441-0.3175 1.2542-1.125 1 0.7824 0.8466 2.6351 1.2013 2.2187-1.2188 0.3466-1.0715-1.0043-1.5127-1.875-1.5312zm-0.3437 2.75c-0.1175-0.1271-0.2234-0.2647-0.2813-0.4063-0.1782 0.1852 0 0.3184 0.2813 0.4063zm7.9062-2.75c-2.3035 0.0776 3.3408 3.7731-0.7187 2.9687 4.9091 1.3553-1.4572-2.3719 2.25-2.75-0.7053-0.1606-1.2022-0.2298-1.5313-0.2187zm13.781 0c-1.2858-0.0252-3.1053 3.7233-0.375 3.125-0.2613 0.0669-0.6057-0.2675-1.0938-1.375 1.5536-3.4224 1.9322 0.8284 1.1875 1.3437 0.1952-0.0476 0.3841-0.0949 0.625-0.1875-0.2454 3.3019 1.0403 0.6972 0.5938-1.0312-0.08-1.3642-0.4748-1.8659-0.9375-1.875zm26.594 0c-2.3035 0.0776 3.3721 3.7731-0.6875 2.9687 4.9092 1.3553-1.4884-2.3719 2.2188-2.75-0.7053-0.1606-1.2022-0.2298-1.5313-0.2187zm3.2813 0c-0.8707-0.0185-1.2671 0.3929 0.9687 1-1.5037 0.2013-1.8182 0.7942-1.5937 1.3437 0.1601-0.1662 0.5853-0.372 1.4062-0.5937 1.5951 1.0581-0.369 1.239-1.1562 0.9687 0.7701 0.8626 2.6387 1.2538 2.2187-1.1875 0.3466-1.0715-0.9731-1.5127-1.8437-1.5312zm-0.375 2.7187c-0.1079-0.1208-0.1955-0.2416-0.25-0.375-0.1714 0.178-0.01 0.2864 0.25 0.375zm15.75-2.7187c-2.3036 0.0776 3.372 3.7731-0.6875 2.9687 4.9091 1.3553-1.4885-2.3719 2.2187-2.75-0.7053-0.1606-1.2021-0.2298-1.5312-0.2187zm9.1875 0c-2.3036 0.0776 3.3408 3.7731-0.7188 2.9687 4.9092 1.3553-1.4572-2.3719 2.25-2.75-0.7053-0.1606-1.2021-0.2298-1.5312-0.2187zm6.9375 0c-2.3036 0.0776 3.3408 3.7731-0.7188 2.9687 4.9092 1.3553-1.4572-2.3719 2.25-2.75-0.7053-0.1606-1.2021-0.2298-1.5312-0.2187zm11.031 0c-0.8706-0.0185-1.2671 0.3929 0.9688 1-1.5096 0.2021-1.8233 0.7925-1.5938 1.3437 0.1601-0.1662 0.5853-0.372 1.4063-0.5937 1.5769 1.046-0.3514 1.2563-1.1563 1 0.7808 0.8489 2.6357 1.2044 2.2188-1.2188 0.3466-1.0715-0.9731-1.5127-1.8438-1.5312zm-0.375 2.75c-0.1143-0.1243-0.1924-0.2681-0.25-0.4063-0.1773 0.1842-0.026 0.3182 0.25 0.4063zm3.9063-2.75c-2.3036 0.0776 3.3408 3.7731-0.7188 2.9687 4.9092 1.3553-1.4572-2.3719 2.25-2.75-0.7053-0.1606-1.2021-0.2298-1.5312-0.2187zm3.125 0c-2.3036 0.0776 3.372 3.7731-0.6875 2.9687 4.9091 1.3553-1.4885-2.3719 2.2187-2.75-0.7053-0.1606-1.2021-0.2298-1.5312-0.2187zm3.2812 0c-0.8706-0.0185-1.2671 0.3929 0.9688 1-1.5096 0.2021-1.8233 0.7925-1.5938 1.3437 0.1601-0.1662 0.5853-0.372 1.4063-0.5937 1.5769 1.046-0.3514 1.2563-1.1563 1 0.7808 0.8489 2.6357 1.2044 2.2188-1.2188 0.3466-1.0715-0.9731-1.5127-1.8438-1.5312zm-0.375 2.75c-0.1143-0.1243-0.1924-0.2681-0.25-0.4063-0.1773 0.1842-0.026 0.3182 0.25 0.4063zm-117.62-2.6876c-1.257 0.0934-2.689 1.489-1.2812 2.6875 5.6553 1.6647-2.8837-1.0104 2.6875-1.125 0.017-1.206-0.6521-1.6185-1.4063-1.5625zm7.5 0c-1.257 0.0934-2.689 1.489-1.2812 2.6875 5.6553 1.6647-2.8837-1.0104 2.6875-1.125 0.017-1.206-0.6521-1.6185-1.4063-1.5625zm24.031 0c-1.257 0.0933-2.6891 1.489-1.2813 2.6875 5.6554 1.6647-2.8524-1.0104 2.7188-1.125 0.017-1.206-0.6833-1.6185-1.4375-1.5625zm11.312 0c-1.257 0.0933-2.6891 1.489-1.2813 2.6875 5.6554 1.6647-2.8524-1.0104 2.7188-1.125 0.017-1.206-0.6833-1.6185-1.4375-1.5625zm11.312 0c-1.257 0.0934-2.6891 1.489-1.2813 2.6875 5.6554 1.6647-2.8524-1.0104 2.7188-1.125 0.017-1.206-0.6833-1.6185-1.4375-1.5625zm32 0c-0.4406 0.0706-0.8424 0.3785-0.9063 0.875 0.6357 4.7487-0.1434-0.4082 2.0313-0.3125-0.2164-0.4485-0.6844-0.6331-1.125-0.5625zm-16 0.0313c-1.6603 0.2258-3.8904 3.0552 0.3125 3.0938-2.5918 1.0557-0.3347 2.3672 0.7187-0.1875 0.5353-2.069 0.035-2.8364-0.7187-2.9063-0.1036-0.01-0.2018-0.015-0.3125 0zm-83.469 0.0312c-0.8851 4.4401 1.8041 2.6515 0 0zm8 0c0.968 3.3877 2.0493 5.013 2.9063 0.375-1.3051 2.0481-1.1736 1.9921-2.9063-0.375zm24.969 0c-0.8851 4.4401 1.804 2.6515 0 0zm52.656 0c-0.8851 4.4401 1.8041 2.6515 0 0zm6.375 0c-0.8851 4.4401 1.8041 2.6515 0 0zm9.1875 0c-0.8851 4.4401 1.8041 2.6515 0 0zm-47.781 0.0937c-0.3647 6.9363-2.7771-2.9521-2.5 1.875 1.1678 3.1203 4.1685 0.556 2.5-1.875zm55 0c-0.3647 6.9363-2.7771-2.9521-2.5 1.875 1.1678 3.1203 4.1684 0.556 2.5-1.875zm-25.625 0.1563c0.2632-0.134 0.6623 0.181 1.1875 1.3437-1.5818 3.379-1.9772-0.9419-1.1875-1.3437zm-69.406 0.125c0.2903 0.0295 0.5957 0.3061 0.8125 0.9687-2.3965 0.9093-1.6833-1.0573-0.8125-0.9687zm7.5 0c0.2903 0.0295 0.5957 0.3061 0.8125 0.9687-2.3965 0.9093-1.6833-1.0573-0.8125-0.9687zm24.062 0c0.2903 0.0295 0.5957 0.3061 0.8125 0.9687-2.3965 0.9093-1.6833-1.0573-0.8125-0.9687zm11.281 0c0.2903 0.0295 0.6269 0.3061 0.8437 0.9687-2.3965 0.9093-1.7146-1.0573-0.8437-0.9687zm11.344 0c0.2903 0.0295 0.5957 0.3061 0.8125 0.9687-2.3965 0.9093-1.6833-1.0573-0.8125-0.9687zm-8.9375 2.1562c-1.389 2.6592 1.8876 0.4036 0 0zm-55.188 8.1875 0.063 1.1563c-0.7347 5.8582 1.7923 1.4445-0.063-1.1563zm3.5625 0c-0.3618 1.8262 1.5604-0.2492 0 0zm61.656 0c-0.3618 1.8262 1.5604-0.2492 0 0zm15.438 0 0.031 1.1563c-0.7347 5.8582 1.8235 1.4445-0.031-1.1563zm10.844 0c-0.3618 1.8262 1.5604-0.2492 0 0zm-65.812 0.1875c-0.4733 2.6833 0.8285 6.5633 0.5313 1.2188 1.5119 3.9291 4.0453 3.3285 2.4375-1.1563-0.3006 5.634-0.3313 1.4216-2.9688-0.0625zm41.469 0.1563-0.4688 0.7187c0.3086 5.5818 2.0265 2.089 0.7188-0.7187zm22.25 0-0.4688 0.7187c0.3086 5.5818 2.0265 2.089 0.7188-0.7187zm-47.594 0.0937c-0.4203 0.0341-0.4055 2.9634 0.031 4.0312 0.3673-6.923 2.7449 2.9104 2.4688-1.9062 0.4103-1.4379-1.0372-1.5005-1.9375-1.0313-0.2299-0.8021-0.4224-1.1051-0.5625-1.0937h-1e-4zm13.594 0.125c-0.1015-0.0336-0.2154 0.2976-0.3438 1.2187-1.1128-1.5837-3.0482 0.2993-2.25 1.75 2.9599 4.1758 3.0337-2.823 2.5938-2.9687zm-38.312 0.375c-2.054-0.0851-1.2724 7.3107-0.094 1.0937 2.3688 1.1221 0.2757 3.7517 2.5-0.125 1.447 5.9442 1.9789-2.9017-0.9688 0-0.5894-0.6614-1.0571-0.953-1.4375-0.9687zm17.844 0c-2.054-0.0851-1.3036 7.3107-0.125 1.0937 2.3689 1.1221 0.307 3.7517 2.5313-0.125 1.447 5.9442 1.9789-2.9017-0.9688 0-0.5894-0.6614-1.0571-0.953-1.4375-0.9687zm37.312 0c-2.054-0.0851-1.3036 7.3107-0.125 1.0937 2.3689 1.1221 0.307 3.7517 2.5313-0.125 1.447 5.9442 1.9789-2.9017-0.9688 0-0.5894-0.6614-1.0571-0.953-1.4375-0.9687zm-65.844 0.0313c-1.7566 4e-3 -1.2329 7.0231-0.6563 3.0937 1.0981 1.5853 3.0438-0.3062 2.25-1.75-0.6782-0.9686-1.1883-1.3446-1.5937-1.3437zm43.969 0.1563c-1.1481-0.0927-2.1819 1.6683-1.0312 3.3437 0.3672-6.923 2.7448 2.9104 2.4687-1.9062-0.364-0.9744-0.9156-1.3954-1.4375-1.4375zm55.844 0c-1.1481-0.0927-2.1819 1.6683-1.0313 3.3437 0.3672-6.923 2.7449 2.9104 2.4688-1.9062-0.364-0.9744-0.9156-1.3954-1.4375-1.4375zm-96.594 0.0313c-2.3035 0.0776 3.3408 3.7731-0.7187 2.9687 4.9091 1.3553-1.4572-2.3719 2.25-2.75-0.7053-0.1606-1.2022-0.2298-1.5313-0.2187zm21.219 0c-0.8707-0.0185-1.2671 0.3929 0.9687 1-1.5037 0.2013-1.8182 0.7942-1.5937 1.3437 0.1601-0.1662 0.5853-0.372 1.4062-0.5937 1.574 1.0441-0.3175 1.2542-1.125 1 0.7825 0.8466 2.6351 1.2013 2.2188-1.2188 0.3466-1.0715-1.0043-1.5127-1.875-1.5312zm-0.3438 2.75c-0.1174-0.1271-0.2233-0.2647-0.2812-0.4063-0.1783 0.1852 0 0.3184 0.2812 0.4063zm56.062-2.75c-2.3035 0.0776 3.3721 3.7731-0.6875 2.9687 4.9092 1.3553-1.4884-2.3719 2.2188-2.75-0.7053-0.1606-1.2022-0.2298-1.5313-0.2187zm22.875 0c-0.8706-0.0185-1.2671 0.3929 0.9688 1-1.5134 0.2026-1.7953 0.7914-1.5625 1.3437 0.1601-0.1662 0.554-0.372 1.375-0.5937 1.574 1.0441-0.3175 1.2542-1.125 1 0.7824 0.8466 2.6351 1.2013 2.2187-1.2188 0.3466-1.0715-1.0043-1.5127-1.875-1.5312zm-0.3437 2.75c-0.1145-0.1239-0.1919-0.2684-0.25-0.4063-0.1783 0.1852-0.029 0.3184 0.25 0.4063zm-30.844-2.7188c-6.057 4.4188 5.8513 3.7139 0 0zm-80.562 0.0313c-1.257 0.0933-2.689 1.4889-1.2812 2.6875 5.6553 1.6646-2.8525-1.0104 2.7187-1.125 0.016-1.2061-0.6833-1.6185-1.4375-1.5625zm49.094 0c-1.257 0.0933-2.6891 1.4889-1.2813 2.6875 5.6554 1.6646-2.8837-1.0104 2.6875-1.125 0.016-1.2061-0.652-1.6185-1.4062-1.5625zm10.688 0c-0.4406 0.0706-0.8424 0.3784-0.9063 0.875 0.6357 4.7486-0.1434-0.4083 2.0313-0.3125-0.2164-0.4486-0.6844-0.6331-1.125-0.5625zm2.9375 0c-1.257 0.0933-2.6578 1.4889-1.25 2.6875 5.6553 1.6646-2.8837-1.0104 2.6875-1.125 0.017-1.2061-0.6833-1.6185-1.4375-1.5625zm3.0937 0c-0.4406 0.0706-0.8424 0.3784-0.9062 0.875 0.6357 4.7486-0.1434-0.4083 2.0312-0.3125-0.2163-0.4486-0.6843-0.6331-1.125-0.5625zm20.188 0c-1.257 0.0933-2.689 1.4889-1.2812 2.6875 5.6553 1.6646-2.8525-1.0104 2.7187-1.125 0.016-1.2061-0.6833-1.6185-1.4375-1.5625zm10.844 0c-1.257 0.0933-2.6891 1.4889-1.2813 2.6875 5.6554 1.6646-2.8524-1.0104 2.7188-1.125 0.017-1.2061-0.6833-1.6185-1.4375-1.5625zm8.8125 0c-0.4406 0.0706-0.8424 0.3784-0.9063 0.875 0.6357 4.7486-0.1434-0.4083 2.0313-0.3125-0.2164-0.4486-0.6844-0.6331-1.125-0.5625zm-110.97 0.0624c0.968 3.3877 2.0493 5.013 2.9063 0.375-1.3051 2.0481-1.1736 1.9921-2.9063-0.375zm11.188 0c-0.8851 4.4401 1.8041 2.6515 0 0zm61.656 0c-0.8851 4.4401 1.804 2.6515 0 0zm26.281 0c-0.8851 4.4401 1.8041 2.6515 0 0zm-76.906 0.0937c-0.3647 6.9363-2.7458-2.9521-2.4688 1.875 1.1678 3.1203 4.1373 0.556 2.4688-1.875zm86.594 0c-0.3647 6.9363-2.777-2.9521-2.5 1.875 1.1678 3.1203 4.1685 0.556 2.5-1.875zm-94.75 0.1563c0.056-0.0194 0.1209-0.0227 0.1875 0 0.2462 0.0837 0.5743 0.4817 0.9688 1.375-1.5964 3.5247-1.9923-1.0836-1.1563-1.375zm47.75 0.0625c1.0671-0.2917 0.7394 5.189-0.9687 1.3125 0.3938-0.8677 0.7225-1.2452 0.9687-1.3125zm-56.438 0.0625c0.2903 0.0295 0.627 0.3061 0.8438 0.9687-2.3966 0.9093-1.7146-1.0573-0.8438-0.9687zm49.094 0c0.2903 0.0295 0.5957 0.3061 0.8125 0.9687-2.3966 0.9093-1.6834-1.0573-0.8125-0.9687zm13.656 0c0.2903 0.0295 0.5957 0.3061 0.8125 0.9687-2.3965 0.9093-1.6833-1.0573-0.8125-0.9687zm17.75 0c3.711 2.974-3.8144 2.7536 0 0zm5.5313 0c0.2903 0.0295 0.5957 0.3061 0.8125 0.9687-2.3966 0.9093-1.6834-1.0573-0.8125-0.9687zm10.812 0c0.2903 0.0295 0.6269 0.3061 0.8437 0.9687-2.3965 0.9093-1.7146-1.0573-0.8437-0.9687zm-72.688 2.1562c-0.4684 1.787 1.7027-0.2481 0 0zm90.594 0c-0.4683 1.787 1.7028-0.2481 0 0zm11.844-144.41c-0.4342 1.7286 1.5473-0.2129 0 0zm-30.25 0.1875c-0.3226 1.4022-1.3145 2.6171-1.4688 4.0625 0.2365-0.1213 2.4007-1.6036 3.4063-0.0313 0.2704 0.4214-0.4058-3.783-1.9375-4.0313zm0.3437 0.5937c0.1581 0.3992 0.2593 0.8097 0.4688 1.1875 0.4594 2.3176-2.4298-0.3261-0.4688-1.1875zm27.531 0.2813c-0.2795 0.0377-0.5952 0.2654-0.9375 0.8437-0.8877-1.548-3.075-0.6559-2.625 1.1875 0.2485 2.0219 0.2119 1.022 0.7812-0.3125 1.8703-2.6585 1.0726 3.8457 2.125 0.4063 0.4367-2.4413 1.6189-0.7956 1.5313 0.7812 0.9001 0.8147 0.3363-3.0694-0.875-2.9062zm-23.719 0.0937c-0.089-3e-3 -0.1935 0.0121-0.2812 0.0313-0.5458 0.1193-1.033 0.6881-1.1875 1.6875-0.9557 2.0113 3.0219 2.0727 2.4062 1.4687-2.1808-0.1342-1.1929-1.9953 0.5625-1.5625-0.2525-1.0481-0.8745-1.6062-1.5-1.625zm3.7188 0c-1.0371-1e-3 -2.1369 1.1752-1.3125 2.75 0.7293 0.5542 1.0344-4.0078 2.0937-0.9688 0.3761 1.9137 0.5933 1.2286 0.5938-0.3437-0.1627-1.007-0.7527-1.4369-1.375-1.4375zm3.7812 0c-0.089-3e-3 -0.1935 0.0121-0.2812 0.0313-0.5458 0.1193-1.033 0.6881-1.1875 1.6875-0.9557 2.0113 3.0219 2.0727 2.4062 1.4687-2.1808-0.1342-1.1929-1.9953 0.5625-1.5625-0.2525-1.0481-0.8745-1.6062-1.5-1.625zm7.4063 0c-1.0371-1e-3 -2.1369 1.1752-1.3125 2.75 0.7293 0.5542 1.0031-4.0078 2.0625-0.9688 0.376 1.9137 0.6245 1.2286 0.625-0.3437-0.1627-1.007-0.7527-1.4369-1.375-1.4375zm-4.1563 0.0625c-0.3017 0.0181-0.6004 0.0835-0.8437 0.2187 1.6435 0.2929 2.2813 1.5097 0.125 1.3438-1.3213 2.4801 3.8782 2.4114 2.4062-0.0937 0.1807-1.0645-0.7822-1.5232-1.6875-1.4688zm15.344 0.0625v1.5625c-0.3049 3.7058 1.6842-0.9577 0-1.5625zm5.9062 0.0625c-2.0592 0.1412 1.8105 2.4334 0.6875 2.6875-3.4307-0.0942 2.2967 1.5267 0.9063-1-1.843-0.1349-1.4939-1.3846 0.063-1.6563-0.387-0.0296-0.7679-0.0359-1.1563-0.0313-0.1932-0.0111-0.3627-9e-3 -0.5 0v1e-4zm-31.844 0.375c0.3627-0.0159 0.7319 0.1993 0.8125 0.9062l-0.3438 0.0625-0.3125 0.0313c-1.8209 0.2225-0.9541-0.9649-0.1562-1zm7.5 0c0.3627-0.0159 0.7319 0.1993 0.8125 0.9062l-0.3438 0.0625-0.3125 0.0313c-1.8209 0.2225-0.9541-0.9649-0.1562-1zm22.688 0.0313c-0.566 0.2295-1.0145 3.9622-2.0313 1.1562-0.3765-1.9182-0.6246-1.195-0.625 0.375v0.3438c1.095 2.3005 4.0926 0.2369 2.6563-1.875zm-18.969 1.1563c0.2092 0.1855 0.5942 0.4018 0.5625 0.75-1.3449 1.2078-2.8017-0.5278-0.5625-0.75zm1.1875 9.4375c-1.3687 0.5235-0.8255 4.3937 0.8438 4.1562-1.7289-1.3863 0.4834-2.8204-0.8438-4.1562zm20.688 0.0313c-0.1867 0.0776-0.3429 0.6764-0.2187 1.4062-0.8941-1.4565-3.2309 0.4257-2.1875 1.7188 1.7385 2.5848 3.5684 0.1603 2.7812-2.0313-0.029-0.72-0.1537-1.0394-0.2812-1.0937-0.027-0.0113-0.067-0.0111-0.094 0h-1e-4zm-34.562 0.1562c-0.4776 0.1073-0.1706 2.5492-0.1562 3.375 0.7293 0.5543 1.0031-4.0078 2.0625-0.9687 0.376 1.9136 0.6245 1.2286 0.625-0.3438 0.1993-0.9452-0.9227-1.785-1.75-1.25-0.3727-0.6236-0.622-0.8482-0.7813-0.8125zm-3.2187 0.625c-0.064-1e-4 -0.1303 0.015-0.1875 0.0313-1.6008 0.4563-0.094 6.7777-0.063 2.875 1.9645 1.6472 3.4539-1.8308 0.9375-2.6562-0.2766-0.166-0.4957-0.2495-0.6875-0.25v-1e-4zm14.156 0c-0.089-3e-3 -0.1935 0.0121-0.2812 0.0313-0.5458 0.1193-1.033 0.6882-1.1875 1.6875-0.9557 2.0113 3.0532 2.0727 2.4375 1.4688-2.1809-0.1342-1.2242-1.9953 0.5312-1.5625-0.2525-1.0482-0.8745-1.6063-1.5-1.625zm18.875 0c-0.089-3e-3 -0.1935 0.0121-0.2812 0.0313-0.5458 0.1193-1.033 0.6882-1.1875 1.6875-0.9557 2.0113 3.0532 2.0727 2.4375 1.4688-2.1809-0.1342-1.2242-1.9953 0.5312-1.5625-0.2525-1.0482-0.8745-1.6063-1.5-1.625zm-25.312 0.0625c-0.3017 0.0181-0.6004 0.0835-0.8437 0.2188 1.6435 0.2929 2.2813 1.5096 0.125 1.3437-1.3213 2.4801 3.8782 2.4114 2.4062-0.0937 0.1807-1.0644-0.7822-1.5231-1.6875-1.4687zm3.8438 0c-0.1039-6e-3 -0.2086 7e-3 -0.3125 0.0313-0.6925 0.1617-1.2662 0.9818-0.75 1.8125 0.45 3.3543 0.026-1.8596 1.9062-1.2812-0.2298-0.374-0.5319-0.5436-0.8437-0.5625zm8.375 0c-0.1069-6e-3 -0.2086 7e-3 -0.3125 0.0313-0.6925 0.1617-1.2662 0.9818-0.75 1.8125 0.45 3.3543 0.058-1.8596 1.9375-1.2812-0.2298-0.374-0.5544-0.5436-0.875-0.5625zm2.3125 0c-0.3017 0.0181-0.6005 0.0835-0.8438 0.2188 1.6436 0.2929 2.2814 1.5096 0.125 1.3437-1.3212 2.4801 3.8783 2.4114 2.4063-0.0937 0.1807-1.0644-0.7823-1.5231-1.6875-1.4687zm6.7812 0.125c-2.0592 0.1412 1.8105 2.4335 0.6875 2.6875-3.4307-0.0942 2.2967 1.5267 0.9063-1-1.843-0.1349-1.4939-1.3846 0.063-1.6562-0.387-0.0296-0.7679-0.0359-1.1563-0.0313-0.1932-0.0111-0.3627-9e-3 -0.5 0zm-28.281 0.375c0.044-0.0133 0.08-7e-3 0.125 0 0.2418 0.0347 0.4857 0.3849 0.6875 1.2188-0.1708 0.3727-0.3445 0.7562-0.625 1.0625-1.3042 0.204-0.8464-2.0819-0.1875-2.2813zm13.594 0c0.3627-0.0159 0.7007 0.1994 0.7813 0.9063l-0.3438 0.0625-0.2812 0.0313c-1.821 0.2225-0.9542-0.965-0.1563-1zm18.844 0c0.3627-0.0159 0.7319 0.1994 0.8125 0.9063l-0.3438 0.0625-0.2812 0.0313c-1.821 0.2225-0.9854-0.965-0.1875-1zm3.5 0.125c1.4038 0.2531-0.1057 4.2668-0.9375 1.0938 0.1743-0.3791 0.3366-0.7532 0.625-1.0625 0.1208-0.0196 0.2189-0.0481 0.3125-0.0313zm-28.344 1.0625c0.2092 0.1856 0.5942 0.4019 0.5625 0.75-1.3448 1.2078-2.8017-0.5278-0.5625-0.75zm14.531 0c0.2092 0.1856 0.5942 0.4019 0.5625 0.75-1.3449 1.2078-2.8018-0.5278-0.5625-0.75zm-14.125 9.0937c0.087 0.9127-0.051 1.8369-0.063 2.75 0 4.0493 1.6156-1.7459 0.063-2.75zm1.6562 0c0.087 0.9127-0.02 1.8369-0.031 2.75 0 4.0493 1.5844-1.7459 0.031-2.75zm1.6563 0c-0.4342 1.7286 1.5473-0.2128 0 0zm10.156 0c-0.4341 1.7286 1.5473-0.2128 0 0zm13.438 0c-0.4341 1.7286 1.5473-0.2128 0 0zm-32.938 1.0625c-0.2795 0.0377-0.5952 0.2655-0.9375 0.8438-0.8876-1.5481-3.0749-0.6559-2.625 1.1875 0.2485 2.0219 0.1807 1.022 0.75-0.3125 1.8703-2.6586 1.0726 3.8456 2.125 0.4062 0.4367-2.4413 1.6189-0.7955 1.5313 0.7813 0.9001 0.8146 0.3675-3.0695-0.8438-2.9063zm30.562 0c-0.2795 0.0377-0.5951 0.2655-0.9375 0.8438-0.8876-1.5481-3.0749-0.656-2.625 1.1875 0.2485 2.0219 0.212 1.022 0.7813-0.3125 1.8702-2.6586 1.0725 3.8456 2.125 0.4062 0.4366-2.4413 1.5876-0.7955 1.5 0.7813 0.9001 0.8146 0.3675-3.0695-0.8438-2.9063zm-8.0937 0.0937c-0.089-3e-3 -0.1935 0.0121-0.2813 0.0313-0.5458 0.1193-1.0329 0.6882-1.1875 1.6875-0.9556 2.0113 3.0532 2.0727 2.4375 1.4688-2.1808-0.1342-1.2242-1.9953 0.5313-1.5625-0.2526-1.0481-0.8746-1.6063-1.5-1.625zm-18.844 0.0625c-1.1142 0.6701-2.83 2.7897-0.5 3.1875 2.7429 0.7005 2.5765-2.474 0.5-3.1875zm5.7188 0.0625v1.5625c-0.3049 3.7058 1.6842-0.9576 0-1.5625zm10.156 0v1.5625c-0.3048 3.7058 1.6842-0.9576 0-1.5625zm13.438 0v1.5625c-0.3048 3.7058 1.6842-0.9576 0-1.5625zm-21.5 0.0625c-2.0592 0.1412 1.8105 2.4335 0.6875 2.6875-3.4307-0.0942 2.2967 1.5267 0.9063-1-1.843-0.1349-1.4939-1.3846 0.063-1.6562-0.387-0.0296-0.7679-0.0359-1.1563-0.0313-0.1932-0.0111-0.3627-9e-3 -0.5 0zm5.375 0c-2.0592 0.1412 1.8105 2.4335 0.6875 2.6875-3.4307-0.0942 2.2967 1.5267 0.9063-1-1.843-0.1349-1.4939-1.3846 0.063-1.6562-0.387-0.0296-0.7992-0.0359-1.1875-0.0313-0.1932-0.0111-0.3315-9e-3 -0.4688 0zm-13.188 0.3125c0.4776 0.4738 1.1532 1.0943 1 1.8438-1.3685 1.791-3.2037-1.0303-1-1.8438zm19 0.0625c0.3627-0.0159 0.732 0.1994 0.8125 0.9063l-0.3437 0.0625-0.2813 0.0313c-1.8209 0.2225-0.9854-0.965-0.1875-1zm12.344 2.0625c-0.081 1e-3 -0.202 0.0117-0.3125 0.0313-0.4674 1.7968 1.522-0.0515 0.3125-0.0313zm-22.031 8.2188c-0.4341 1.7286 1.5473-0.2129 0 0zm-15.031 0.125c-0.137 8e-3 -0.2429 0.0434-0.375 0.0937-3.4979 0.7058 2.5191 3.105 0.5 3.7188-4.0315-0.2403 2.3745 1.7978 1.1875-1.0938-1.641-0.4344-2.7648-2.342-0.063-2.5-0.392-0.0971-0.8391-0.2414-1.25-0.2187zm17.219 0.2188c-1.3686 0.5235-0.8255 4.3937 0.8438 4.1562-1.7289-1.3863 0.4834-2.8204-0.8438-4.1562zm17.562 0c-1.3687 0.5235-0.8255 4.3937 0.8438 4.1562-1.7289-1.3863 0.4834-2.8205-0.8438-4.1562zm-26.312 0.0313c-0.1867 0.0776-0.3429 0.6764-0.2187 1.4062-0.8941-1.4565-3.2309 0.4257-2.1875 1.7188 1.7385 2.5848 3.5684 0.1603 2.7812-2.0313-0.029-0.72-0.1537-1.0394-0.2812-1.0937-0.027-0.0113-0.067-0.0111-0.094 0h-1e-4zm19.75 0.6875c-0.2795 0.0377-0.5951 0.2654-0.9375 0.8437-0.8876-1.548-3.1062-0.6559-2.6562 1.1875 0.2485 2.0219 0.2119 1.022 0.7812-0.3125 1.8703-2.6585 1.0726 3.8456 2.125 0.4063 0.4367-2.4413 1.6189-0.7956 1.5313 0.7812 0.9001 0.8147 0.3675-3.0694-0.8438-2.9062zm-24.5 0.0937c-0.089-3e-3 -0.1935 0.0121-0.2812 0.0313-0.5458 0.1193-1.033 0.6881-1.1875 1.6875-0.9557 2.0113 3.0219 2.0727 2.4062 1.4687-2.1808-0.1342-1.1929-1.9953 0.5625-1.5625-0.2525-1.0481-0.8745-1.6062-1.5-1.625zm28.156 0c-0.089-3e-3 -0.1935 0.0121-0.2813 0.0313-0.5458 0.1193-1.0329 0.6881-1.1875 1.6875-0.9556 2.0112 3.0219 2.0727 2.4063 1.4687-2.1809-0.1342-1.193-1.9953 0.5625-1.5625-0.2526-1.0481-0.8746-1.6062-1.5-1.625zm-9.9688 0.0625c-0.3017 0.0181-0.6004 0.0835-0.8437 0.2187 1.6435 0.2929 2.2813 1.5097 0.125 1.3438-1.3213 2.4801 3.8782 2.4113 2.4062-0.0937 0.1807-1.0645-0.7822-1.5232-1.6875-1.4688zm-6.875 0.0625v1.5625c-0.3048 3.7058 1.6843-0.9577 0-1.5625zm-2.6875 0.0625c-2.0592 0.1412 1.7792 2.4334 0.6563 2.6875-3.4307-0.0942 2.2966 1.5267 0.9062-1-1.843-0.1349-1.4626-1.3846 0.094-1.6563-0.387-0.0296-0.7991-0.0359-1.1875-0.0313-0.1932-0.0111-0.3314-9e-3 -0.4687 0v1e-4zm-8.4687 0.375c0.3627-0.0159 0.7319 0.1993 0.8125 0.9062l-0.3438 0.0625-0.3125 0.0313c-1.8209 0.2225-0.9541-0.9649-0.1562-1zm28.156 0c0.3627-0.0159 0.7007 0.1993 0.7813 0.9062l-0.3125 0.0625-0.3125 0.0313c-1.821 0.2225-0.9542-0.9649-0.1563-1zm-24.656 0.125c1.4038 0.2531-0.1369 4.2667-0.9688 1.0937 0.1744-0.379 0.3679-0.7531 0.6563-1.0625 0.1208-0.0196 0.2189-0.0481 0.3125-0.0313zm15.156 1.0625c0.2092 0.1855 0.5942 0.4018 0.5625 0.75-1.3449 1.2077-2.8017-0.5278-0.5625-0.75zm-22.719 9.0937c-2.0423 0.1562-1.2861 2.5703-0.9375 4 0.7164 0.5435 0.2684-3.2885 1.375-4-0.1619-0.0106-0.3014-0.0104-0.4375 0zm11.688 0c-0.4342 1.7286 1.5473-0.2128 0 0zm2.125 0.0937c-0.8068 0.2739-0.6225 3.0629-0.2813 4.2188 2.8584 2.4149 3.5541-4.925 0.3438-2.5313-0.1623-0.5583 0.1967-1.1528-0.063-1.6875zm-4.0938 1.0313c-2.0818 0.0266-2.1161 4.1676 0.5625 3.4688-0.8528-0.0691-2.1699-3.3833 0.4688-3.1875-0.3883-0.199-0.7279-0.2851-1.0313-0.2813zm-7.9375 0.0937c-0.3017 0.0181-0.6004 0.0835-0.8437 0.2188 1.6435 0.2929 2.2813 1.5096 0.125 1.3437-1.3213 2.4801 3.8782 2.4114 2.4062-0.0937 0.1807-1.0644-0.7822-1.5231-1.6875-1.4687zm9.9063 0.0625v1.5625c-0.3049 3.7058 1.6842-0.9576 0-1.5625zm9.7187 0.0625c-2.0592 0.1412 1.8105 2.4335 0.6875 2.6875-3.4307-0.0942 2.2967 1.5267 0.9063-1-1.843-0.1349-1.4939-1.3846 0.063-1.6562-0.387-0.0296-0.7679-0.0359-1.1563-0.0313-0.1932-0.0111-0.3627-9e-3 -0.5 0zm-6.5312 0.375c0.044-0.0133 0.08-7e-3 0.125 0 0.2418 0.0347 0.5169 0.3848 0.7187 1.2188-0.1708 0.3727-0.3757 0.7562-0.6562 1.0625-1.3042 0.204-0.8464-2.0819-0.1875-2.2813zm-7.7188 0.0313c-0.566 0.2296-1.0145 3.9623-2.0312 1.1563-0.3765-1.9183-0.5934-1.1951-0.5938 0.375v0.3437c1.095 2.3005 4.0614 0.237 2.625-1.875zm12.594 0c-0.566 0.2296-1.0145 3.9623-2.0313 1.1563-0.3765-1.9183-0.6246-1.1951-0.625 0.375v0.3437c1.095 2.3005 4.0926 0.237 2.6563-1.875zm-17.375 1.1563c0.2092 0.1855 0.6254 0.4018 0.5937 0.75-1.3448 1.2078-2.833-0.5278-0.5937-0.75zm14.406 9.0937c0.087 0.9127-0.02 1.8369-0.031 2.75 0 4.0493 1.5844-1.7459 0.031-2.75zm1.6875 0c0.087 0.9127-0.02 1.8369-0.031 2.75 0 4.0493 1.5844-1.7459 0.031-2.75zm1.6563 0c-0.4342 1.7286 1.5473-0.2128 0 0zm-20.031 1.125c-2.0738 0.0265-2.0849 4.1278 0.5625 3.4688-0.8528-0.0691-2.1387-3.3833 0.5-3.1875-0.3882-0.199-0.7591-0.2851-1.0625-0.2813zm7 0.0313c-1.0371-1e-3 -2.1369 1.1752-1.3125 2.75 0.7293 0.5543 1.0344-4.0077 2.0938-0.9687 0.376 1.9136 0.5933 1.2286 0.5937-0.3438-0.1626-1.0069-0.7527-1.4368-1.375-1.4375zm-3.7187 0.0625c-1.1142 0.6701-2.83 2.7897-0.5 3.1875 2.7429 0.7005 2.5764-2.474 0.5-3.1875zm10.625 0c-0.3017 0.0181-0.6005 0.0835-0.8438 0.2188 1.6436 0.2929 2.2814 1.5096 0.125 1.3437-1.3212 2.4801 3.8782 2.4114 2.4063-0.0937 0.1807-1.0644-0.7823-1.5231-1.6875-1.4687zm-4.8125 0.0625c0.313 0.6961 0.5082 1.4449 0.7812 2.1563 1.0198 3.9906 3.1561-4.2845 1.4688-1.0625-0.5543 2.8818-1.1201-0.6896-2.25-1.0938zm10.938 0v1.5625c-0.3049 3.7058 1.6842-0.9576 0-1.5625zm2.0937 0.0624c-2.0592 0.1412 1.8105 2.4334 0.6875 2.6875-3.4307-0.0942 2.2967 1.5267 0.9063-1-1.843-0.1349-1.4939-1.3846 0.063-1.6562-0.387-0.0296-0.7679-0.0359-1.1563-0.0313-0.1932-0.0111-0.3627-9e-3 -0.5 0zm-18.844 0.3125c0.4776 0.4738 1.1531 1.0943 1 1.8438-1.3686 1.791-3.2038-1.0303-1-1.8438zm11.219 1.25c0.2092 0.1856 0.6255 0.4019 0.5938 0.75-1.3449 1.2078-2.833-0.5278-0.5938-0.75zm10.688 0.875c-0.081 1e-3 -0.1707 0.0117-0.2812 0.0313-0.4674 1.7968 1.4908-0.0515 0.2812-0.0313zm-116.97 12.219c-0.4215 1.7197 1.4877-0.2194 0 0zm8.8125 0c0.064 0.5995 0.027 1.2124 0 1.8125-0.48 4.7603 1.7425 0.2573 0-1.8125zm26.188 0c0.064 0.5995 0.027 1.2124 0 1.8125-0.48 4.7603 1.7425 0.2573 0-1.8125zm1.6562 0c-0.4214 1.7197 1.4877-0.2194 0 0zm18.812 0c0.064 0.5995 0.027 1.2124 0 1.8125-0.4799 4.7603 1.7426 0.2573 0-1.8125zm70.219 0c-0.4215 1.7197 1.4877-0.2194 0 0zm-134.5 0.125c-0.2047 0.0106-0.4363 0.0191-0.6875 0.0625 0.05 0.5048-0.4237 5.239 0.5312 3.8125 1.2309-0.717 3.2262-4.0333 0.1563-3.875zm47.688 0.2188c-1.2647 0.4428-0.8885 4.315 0.75 4.1562-1.9106-1.444 0.8607-2.7567-0.75-4.1562zm55.125 0c-1.2647 0.4428-0.8572 4.315 0.7812 4.1562-1.9105-1.444 0.8295-2.7567-0.7812-4.1562zm29.844 0c-1.2647 0.4428-0.8572 4.315 0.7813 4.1562-1.9106-1.444 0.8294-2.7567-0.7813-4.1562zm-49.969 0.1875c-0.1057-9e-3 -0.2325 0.3467-0.2813 1.25-1.2428-1.8086-3.3469 0.918-1.9375 2.125 3.219 3.3548 2.677-3.3356 2.2188-3.375zm-82.781 0.1562c3.9127-0.3032-1.049 3.7515 0 0zm11.844 0.25c-1.5856-0.0513-1.757 4.9657-0.6563 2.1875 0.6874-4.1292 2.3613 4.0921 2.125-0.5312l-0.1562-0.6563c-0.5199-0.7078-0.9466-0.9881-1.3125-1zm106.66 0c-1.5855-0.0513-1.7257 4.9657-0.625 2.1875 0.6874-4.1292 2.3301 4.0921 2.0938-0.5312l-0.125-0.6563c-0.5199-0.7078-0.9779-0.9881-1.3438-1zm7.5 0c-1.5855-0.0513-1.7257 4.9657-0.625 2.1875 0.6874-4.1292 2.3301 4.0921 2.0938-0.5312l-0.125-0.6563c-0.5199-0.7078-0.9779-0.9881-1.3438-1zm-101.62 0.1875c-1.398 0.1111-2.153 2.2467-0.875 3.2813 4.0153 1.7966-2.5517-2.665 1.9375-3-0.3737-0.2268-0.7398-0.3069-1.0625-0.2813zm34.094 0c-0.2818 0.0156-0.6402 0.2215-1.0625 0.7813-0.5237-1.4306-3.4218-0.6055-2.6563 1.0937 0.6055 3.9638 0.1011-2.347 1.9063-0.5 0.8677 4.5683 0.4108-1.6487 2.25-0.125 0.7071 4.8969 1.0841-1.3344-0.4375-1.25zm-17 0.0625c-1.6852 0.0246-3.1419 3.9901 1.2187 3.1875-2.5223-0.2122-2.1147-1.6547 0.3438-1.5937-0.405-1.1967-1.0008-1.602-1.5625-1.5938zm25.812 0c-1.6852 0.0246-3.1419 3.9901 1.2187 3.1875-2.5223-0.2122-2.1146-1.6547 0.3438-1.5937-0.405-1.1967-1.0008-1.602-1.5625-1.5938zm25.156 0c-1.6851 0.0246-3.1418 3.9901 1.2188 3.1875-2.5224-0.2122-2.1147-1.6547 0.3437-1.5937-0.4049-1.1967-1.0007-1.602-1.5625-1.5938zm3.8125 0c-1.5741 0.1608-3.3343 2.585 0.7188 3.4688-3.6841 0.6633 0.5067 2.0567 0.625-0.5 0.4908-2.3482-0.3993-3.0652-1.3438-2.9688zm3.6875 0c-1.6851 0.0246-3.1418 3.9901 1.2188 3.1875-2.5224-0.2122-2.1147-1.6547 0.3437-1.5937-0.4049-1.1967-1.0007-1.602-1.5625-1.5938zm14.875 0c-1.6851 0.0246-3.1418 3.9901 1.2188 3.1875-2.5224-0.2122-2.1459-1.6547 0.3125-1.5937-0.405-1.1967-0.9695-1.602-1.5313-1.5938zm7.5 0c-1.6851 0.0246-3.1418 3.9901 1.2188 3.1875-2.5224-0.2122-2.1459-1.6547 0.3125-1.5937-0.405-1.1967-0.9695-1.602-1.5313-1.5938zm-118.44 0.0313c-0.6383 0.0124-1.3193 0.5021-1.1875 1.2188 0.7196 4.2755-0.017-0.8101 2.0938-0.6563-0.1598-0.4161-0.5232-0.5699-0.9063-0.5625zm2.2813 0c-0.342 0.0702-0.6401 0.2783-0.8438 0.5625-1.0552 2.4963 0.4104 2.7368 1.5625 2.1563-1.0518 0.2331-2.65-0.5735-0.375-2.2813 0.9579 0.7899 1.1931 1.3691 1.0625 1.75 0.6523-0.6755 0.739-1.6071-1.0625-2.1875-0.117-8e-3 -0.2297-0.0234-0.3437 0zm14.094 0.0313c-0.6474 0.0759-0.8741 0.5767 0.9375 1.0938-4.8003 0.5037 1.7557 4.4904 0.7813 0.3437 0.021-1.1723-1.0713-1.5134-1.7188-1.4375zm41.281 0c-0.6475 0.0759-0.8429 0.5767 0.9687 1.0938-4.8003 0.5037 1.7558 4.4904 0.7813 0.3437 0.021-1.1723-1.1025-1.5134-1.75-1.4375zm16 0c-0.6475 0.0759-0.8742 0.5767 0.9375 1.0938-4.8003 0.5037 1.7557 4.4904 0.7812 0.3437 0.021-1.1722-1.0712-1.5134-1.7187-1.4375zm7.4687 0c-0.6474 0.0759-0.8429 0.5767 0.9688 1.0938-4.8003 0.5037 1.7244 4.4904 0.75 0.3437 0.021-1.1722-1.0713-1.5134-1.7188-1.4375zm44.406 0c-0.6475 0.0759-0.8742 0.5767 0.9375 1.0938-4.8003 0.5037 1.7557 4.4904 0.7812 0.3437 0.021-1.1723-1.0712-1.5134-1.7187-1.4375zm-120.5 0.0313v0.5938c-0.6191 4.0596 1.7514 1.2984 0-0.5938zm27.375 0 0.4062 0.9375c0.1589 4.4441 3.3428 0.5835 2.1875-0.5937-0.8957 3.6623-1.1079 0.8808-2.5937-0.3438zm9.2812 0v0.5938c-0.6191 4.0596 1.7514 1.2984 0-0.5938zm64.062 0 0.375 0.9375c0.1589 4.4441 3.374 0.5835 2.2188-0.5937-0.8957 3.6623-1.108 0.8808-2.5938-0.3438zm24.969 0v0.5938c-0.6191 4.0596 1.7514 1.2984 0-0.5938zm-103.25 0.0313c-1.0528 8e-4 -2.1532 0.2601-0.75 1.375 2.9627 1.6169-1.5674 1.1366 0.125 1.8125 4.2514-0.0108-2.3304-2.5949 1.5625-3.125-0.2486-0.0313-0.5866-0.0627-0.9375-0.0625zm39.531 0c-1.0527 8e-4 -2.1532 0.2601-0.75 1.375 2.9627 1.6169-1.5673 1.1366 0.125 1.8125 4.2515-0.0108-2.3303-2.5949 1.5625-3.125-0.2486-0.0313-0.5865-0.0627-0.9375-0.0625zm66.531 0c-1.0528 8e-4 -2.1532 0.2601-0.75 1.375 2.9627 1.6169-1.5674 1.1366 0.125 1.8125 4.2514-0.0108-2.3304-2.5949 1.5625-3.125-0.2487-0.0313-0.5866-0.0627-0.9375-0.0625zm-41.562 0.2188c0.2536-0.1237 0.6294 0.1782 1.1875 1.3437-1.4305 3.2855-1.9485-0.9726-1.1875-1.3437zm-14.281 0.125c1.0377-0.2524 0.9446 5.1762-0.875 1.2812 0.3553-0.8453 0.6356-1.223 0.875-1.2812zm-39.906 0.0313c0.2932 0.0303 0.5814 0.2822 0.8125 0.9375-2.3986 0.889-1.692-1.0283-0.8125-0.9375zm25.812 0c0.2932 0.0303 0.6127 0.2822 0.8437 0.9375-2.3985 0.889-1.7232-1.0283-0.8437-0.9375zm25.156 0c0.2932 0.0303 0.6127 0.2822 0.8438 0.9375-2.3986 0.889-1.7233-1.0283-0.8438-0.9375zm7.5 0c0.2932 0.0303 0.6127 0.2822 0.8438 0.9375-2.3986 0.889-1.7233-1.0283-0.8438-0.9375zm14.844 0c0.2932 0.0303 0.6127 0.2822 0.8437 0.9375-2.3985 0.889-1.7233-1.0283-0.8437-0.9375zm7.5 0c0.2932 0.0303 0.6127 0.2822 0.8437 0.9375-2.3985 0.889-1.7233-1.0283-0.8437-0.9375zm-96.031 0.125c-0.1316-0.0558-0.1838 0.3107-0.125 1.4687l0.125 0.625c2.7766 3.7711 3.3146-4.5936 1.9688-1.1562-0.5201 3.0945-1.5737-0.77-1.9688-0.9375zm46.5 0c-0.1316-0.0558-0.1838 0.3107-0.125 1.4687l0.125 0.625c2.7766 3.7711 3.3146-4.5936 1.9688-1.1562-0.5201 3.0945-1.5737-0.77-1.9688-0.9375zm-52.062 1.0937c2.1359 1.8706-3.8027 0.8053 0 0zm41.312 0c2.1359 1.8706-3.8027 0.8053 0 0zm15.969 0c2.1359 1.8706-3.8027 0.8054 0 0zm7.5 0c2.1359 1.8706-3.8027 0.8054 0 0zm44.375 0c2.1359 1.8706-3.8027 0.8053 0 0zm-122.5 0.5625c-0.1731 0.1692-0.3703 0.318-0.5938 0.4375 0.2692-0.0723 0.4905-0.2229 0.5938-0.4375zm42.188 0.3438c-1.274 2.2256 1.7056 0.5625 0 0zm55.156 0c-1.2739 2.2256 1.7056 0.5625 0 0zm-86.75 8.1872c-0.4214 1.7197 1.4877-0.2194 0 0zm9.2813 0c-0.4215 1.7197 1.4877-0.2194 0 0zm7.9375 0c-0.4215 1.7197 1.4877-0.2194 0 0zm27.875 0c-0.4215 1.7197 1.4876-0.2194 0 0zm44.406 0c-0.4214 1.7197 1.4878-0.2194 0 0zm4.8125 0c0.064 0.5995 0.027 1.2124 0 1.8125-0.4799 4.7603 1.7426 0.2573 0-1.8125zm9.5 0c-0.4214 1.7197 1.4877-0.2194 0 0zm-45.469 0.1563c-1.304 0.0685-2.5323 0.8676-0.6563 2.0312 4.1952 1.7256-3.1829 2.2127 0.5313 2.1563 5.1222-0.5799-4.1348-3.4256 1.3437-4-0.3398-0.1526-0.784-0.2104-1.2187-0.1875zm-26.875 0.1875c-1.2647 0.4428-0.8885 4.315 0.75 4.1562-1.9106-1.444 0.8607-2.7567-0.75-4.1562zm-40.969 0.1875c-0.1057-9e-3 -0.2325 0.3467-0.2812 1.25-1.2429-1.8086-3.347 0.9181-1.9375 2.125 3.2189 3.3548 2.6769-3.3356 2.2187-3.375zm8.0938 0c-0.1057-9e-3 -0.2013 0.3467-0.25 1.25-1.2429-1.8086-3.347 0.9181-1.9375 2.125 3.2189 3.3548 2.6457-3.3356 2.1875-3.375zm68.25 0c-0.1057-9e-3 -0.2325 0.3467-0.2813 1.25-1.2428-1.8086-3.3469 0.9181-1.9375 2.125 3.219 3.3548 2.677-3.3356 2.2188-3.375zm-60.094 0.4062c-1.5855-0.0513-1.7569 4.9657-0.6562 2.1875 0.6874-4.1292 2.33 4.0921 2.0937-0.5312l-0.125-0.6563c-0.5198-0.7078-0.9466-0.9881-1.3125-1zm35.812 0c-1.5855-0.0513-1.757 4.9657-0.6562 2.1875 0.6874-4.1292 2.33 4.0921 2.0937-0.5312l-0.125-0.6563c-0.5198-0.7078-0.9466-0.9881-1.3125-1zm44.406 0c-1.5856-0.0513-1.7258 4.9657-0.625 2.1875 0.6874-4.1292 2.33 4.0921 2.0937-0.5312l-0.125-0.6563c-0.5198-0.7078-0.9778-0.9881-1.3437-1zm-64.5 0.1875c-0.2818 0.0156-0.6089 0.2215-1.0313 0.7813-0.5236-1.4306-3.4218-0.6055-2.6562 1.0937 0.6055 3.9637 0.07-2.347 1.875-0.5 0.8677 4.5684 0.4108-1.6487 2.25-0.125 0.7071 4.8969 1.0841-1.3344-0.4375-1.25zm27.906 0c-0.2817 0.0156-0.6401 0.2215-1.0625 0.7813-0.5236-1.4306-3.4218-0.6055-2.6562 1.0937 0.6055 3.9638 0.101-2.347 1.9062-0.5 0.8678 4.5683 0.4108-1.6487 2.25-0.125 0.7071 4.8969 1.0841-1.3344-0.4375-1.25zm30.688 0c-0.2817 0.0156-0.6401 0.2215-1.0625 0.7813-0.5236-1.4306-3.4217-0.6055-2.6562 1.0937 0.6055 3.9638 0.101-2.347 1.9062-0.5 0.8678 4.5683 0.4108-1.6487 2.25-0.125 0.7071 4.8969 1.0841-1.3344-0.4375-1.25zm-95.438 0.0625c-1.6851 0.0246-3.1418 3.9901 1.2188 3.1875-2.5224-0.2122-2.1147-1.6547 0.3437-1.5937-0.4049-1.1967-1.0007-1.602-1.5625-1.5938zm17.406 0c-1.5741 0.1608-3.3343 2.585 0.7187 3.4688-3.6841 0.6633 0.5067 2.0567 0.625-0.5 0.4908-2.3482-0.3992-3.0652-1.3437-2.9688zm35.812 0c-1.6852 0.0246-3.1419 3.9901 1.2187 3.1875-2.5223-0.2122-2.1146-1.6547 0.3438-1.5937-0.405-1.1967-1.0008-1.602-1.5625-1.5938zm23.125 0c-1.6852 0.0246-3.1419 3.9901 1.2187 3.1875-2.5223-0.2122-2.1146-1.6547 0.3438-1.5937-0.405-1.1967-1.0008-1.602-1.5625-1.5938zm13.031 0c-1.6851 0.0246-3.1418 3.9901 1.2188 3.1875-2.5224-0.2122-2.1147-1.6547 0.3437-1.5937-0.4049-1.1967-1.0007-1.602-1.5625-1.5938zm35.281 0c-1.6852 0.0246-3.1419 3.9901 1.2187 3.1875-2.5223-0.2122-2.1146-1.6547 0.3438-1.5937-0.405-1.1967-1.0008-1.602-1.5625-1.5938zm3.4375 0.0313c-0.6384 0.0124-1.3193 0.5021-1.1875 1.2188 0.7195 4.2755-0.017-0.8101 2.0937-0.6563-0.1597-0.4161-0.5232-0.5699-0.9062-0.5625zm2.375 0c-0.6384 0.0124-1.3193 0.5021-1.1875 1.2188 0.7195 4.2755-0.017-0.8101 2.0937-0.6563-0.1598-0.4161-0.5232-0.5699-0.9062-0.5625zm2.3125 0.0313c-0.6475 0.0759-0.8429 0.5766 0.9687 1.0938-4.8003 0.5037 1.7245 4.4904 0.75 0.3437 0.021-1.1723-1.0712-1.5134-1.7187-1.4375zm-118.41 0.0313v0.5938c-0.6191 4.0596 1.7515 1.2984 0-0.5938zm9.2813 0v0.5938c-0.6191 4.0596 1.7514 1.2984 0-0.5938zm7.9375 0v0.5938c-0.6191 4.0596 1.7514 1.2984 0-0.5938zm27.875 0v0.5938c-0.6191 4.0596 1.7514 1.2984 0-0.5938zm44.406 0v0.5938c-0.6191 4.0596 1.7515 1.2984 0-0.5938zm10.375 0 0.4063 0.9375c0.1588 4.4441 3.374 0.5836 2.2187-0.5937-0.8957 3.6623-1.1392 0.8808-2.625-0.3438zm3.9375 0v0.5938c-0.6191 4.0596 1.7515 1.2984 0-0.5938zm1.2813 0 0.4062 0.9375c0.1589 4.4441 3.374 0.5836 2.2188-0.5937-0.8957 3.6623-1.1392 0.8808-2.625-0.3438zm-122.69 0.0313c-1.0528 8e-4 -2.1532 0.2601-0.75 1.375 2.9627 1.6169-1.5674 1.1366 0.125 1.8125 4.2514-0.0108-2.3304-2.5949 1.5625-3.125-0.2486-0.0313-0.5866-0.0627-0.9375-0.0625zm29.688 0c-1.0528 8e-4 -2.1532 0.2601-0.75 1.375 2.9627 1.6169-1.5674 1.1366 0.125 1.8125 4.2514-0.0108-2.3304-2.5949 1.5625-3.125-0.2486-0.0313-0.5866-0.0627-0.9375-0.0625zm3.125 0c-1.0528 8e-4 -2.1532 0.2601-0.75 1.375 2.9627 1.6169-1.5674 1.1366 0.125 1.8125 4.2514-0.0108-2.3304-2.5949 1.5625-3.125-0.2486-0.0313-0.5866-0.0627-0.9375-0.0625zm56.562 0c-1.0528 8e-4 -2.1532 0.2601-0.75 1.375 2.9627 1.6169-1.5674 1.1366 0.125 1.8125 4.2514-0.0108-2.3304-2.5949 1.5625-3.125-0.2487-0.0313-0.5866-0.0627-0.9375-0.0625zm20.531 0c-1.0527 8e-4 -2.1532 0.2601-0.75 1.375 2.9627 1.6169-1.5673 1.1366 0.125 1.8125 4.2515-0.0108-2.3303-2.5949 1.5625-3.125-0.2486-0.0313-0.5865-0.0627-0.9375-0.0625zm-89.688 0.2188c0.2537-0.1237 0.6295 0.1782 1.1875 1.3437-1.4304 3.2855-1.9484-0.9726-1.1875-1.3437zm-13.344 0.125c1.0376-0.2524 0.9446 5.1762-0.875 1.2812 0.3552-0.8453 0.6355-1.223 0.875-1.2812zm8.125 0c1.0376-0.2524 0.9446 5.1762-0.875 1.2812 0.3552-0.8453 0.6355-1.223 0.875-1.2812zm68.219 0c1.0377-0.2524 0.9446 5.1762-0.875 1.2812 0.3553-0.8453 0.6356-1.223 0.875-1.2812zm-79.812 0.0313c0.2932 0.0303 0.6127 0.2822 0.8438 0.9375-2.3986 0.889-1.7233-1.0283-0.8438-0.9375zm53.219 0c0.2932 0.0303 0.6127 0.2822 0.8437 0.9375-2.3985 0.889-1.7232-1.0283-0.8437-0.9375zm23.125 0c0.2932 0.0303 0.6127 0.2822 0.8437 0.9375-2.3985 0.889-1.7232-1.0283-0.8437-0.9375zm13.031 0c0.2932 0.0303 0.6127 0.2822 0.8438 0.9375-2.3986 0.889-1.7233-1.0283-0.8438-0.9375zm35.281 0c0.2932 0.0303 0.6127 0.2822 0.8437 0.9375-2.3985 0.889-1.7232-1.0283-0.8437-0.9375zm-83.281 0.1247c-0.1316-0.0558-0.1838 0.3107-0.125 1.4688l0.125 0.625c2.7766 3.771 3.3146-4.5936 1.9688-1.1563-0.5201 3.0945-1.5737-0.77-1.9688-0.9375zm91.875 1.0938c2.1359 1.8705-3.8027 0.8053 0 0zm-127.03 0.9062c-1.274 2.2257 1.7055 0.5626 0 0zm41.375 0c-1.274 2.2257 1.7055 0.5626 0 0zm19.281 0c-0.4788 1.8905 1.7428-0.2942 0 0zm43.406 0c-1.274 2.2256 1.7055 0.5626 0 0zm-81.875 8.1875c0.064 0.5995 0.027 1.2124 0 1.8125-0.48 4.7603 1.7425 0.2573 0-1.8125zm1.6875 0c-0.4215 1.7197 1.4877-0.2194 0 0zm2.1875 0.3438c-1.2647 0.4428-0.8885 4.315 0.75 4.1562-1.9106-1.444 0.8607-2.7567-0.75-4.1562zm-14.406 0.1875c-0.1057-9e-3 -0.2012 0.3467-0.25 1.25-1.2428-1.8086-3.3782 0.9181-1.9687 2.125 3.2189 3.3548 2.6769-3.3356 2.2187-3.375zm-21.156 0.4062c-1.5856-0.0513-1.757 4.9657-0.6563 2.1875 0.6874-4.1292 2.3301 4.0921 2.0938-0.5312l-0.125-0.6563c-0.5199-0.7078-0.9466-0.9881-1.3125-1zm7.4687 0c-1.5855-0.0513-1.7257 4.9657-0.625 2.1875 0.6874-4.1292 2.3301 4.0921 2.0938-0.5312l-0.125-0.6563c-0.5199-0.7078-0.9779-0.9881-1.3438-1zm8.8438 0.25c-1.6852 0.0246-3.1419 3.9901 1.2187 3.1875-2.5223-0.2122-2.1459-1.6547 0.3125-1.5937-0.4049-1.1967-0.9695-1.602-1.5312-1.5938zm12.938 0c-1.6852 0.0246-3.1419 3.9901 1.2187 3.1875-2.5223-0.2122-2.1146-1.6547 0.3438-1.5937-0.405-1.1967-1.0008-1.602-1.5625-1.5938zm-25.781 0.0313c-0.3419 0.0702-0.6713 0.2784-0.875 0.5625-1.0472 2.4774 0.3832 2.7202 1.5313 2.1563-1.0505 0.1918-2.5456-0.605-0.3125-2.2813 0.9579 0.7899 1.193 1.3691 1.0625 1.75 0.6506-0.6754 0.7373-1.6077-1.0625-2.1875-0.1171-8e-3 -0.2298-0.0234-0.3438 0zm20.594 0.0625 0.4062 0.9375c0.1588 4.4441 3.3428 0.5835 2.1875-0.5937-0.8957 3.6623-1.1079 0.8808-2.5937-0.3438zm9.3125 0v0.5938c-0.6191 4.0596 1.7514 1.2984 0-0.5938zm-20.312 0.0313c-1.0528 8e-4 -2.1532 0.2601-0.75 1.375 2.9627 1.6169-1.5674 1.1366 0.125 1.8125 4.2514-0.0108-2.3304-2.5949 1.5625-3.125-0.2486-0.0313-0.5866-0.0628-0.9375-0.0625zm6.9062 0.3438c1.0377-0.2524 0.9134 5.1762-0.9062 1.2812 0.3552-0.8453 0.6668-1.223 0.9062-1.2812zm-3.5 0.0313c0.2932 0.0303 0.6127 0.2822 0.8438 0.9375-2.3986 0.889-1.7233-1.0283-0.8438-0.9375zm12.969 0c0.2932 0.0303 0.6127 0.2822 0.8437 0.9375-2.3985 0.889-1.7232-1.0283-0.8437-0.9375zm-24.594 1.7812c-0.1802 0.1771-0.4217 0.3149-0.6562 0.4375 0.2933-0.0679 0.5476-0.2069 0.6562-0.4375zm32.625 0.3438c-0.4788 1.8905 1.7428-0.2943 0 0z" fill="#204a87"/><path transform="translate(1222 264.99)" d="m80.406 432.78c4.9521 3.1562 10.098 2.36 13.812 6.2812 0.16682 0.1761 0.33306 0.33512 0.5 0.5 0.47081 0.0642 0.86634 0.12875 1.125 0.125-0.20957-0.21165-0.41647-0.40488-0.625-0.625-3.0182-3.186-6.9951-3.2672-11.031-4.875-0.03474-0.0138-0.059-0.0484-0.09375-0.0625-1.1018-0.36006-2.2936-0.75403-3.6875-1.3438zm18.125 0.625c-0.63373 2.5132 2.5124 5.711 1.5312 6.7812-0.28982 0.31612-0.95433 0.69532-1.4062 1.125 0.12002 0.10757 0.25465 0.20603 0.375 0.3125 0.45504-0.64981 1.6018-0.96015 1.75-1.3438 0.0395-0.1023 0.21224-0.3176 0.46875-0.59375 7e-3 -0.15893-0.013-0.33834-0.0625-0.53125-0.36749 0.24581-0.65336 0.32478-0.6875 0.15625-0.13053-0.6444-2.2318-4.077-1.9688-5.9062zm15.125 3c-3.2326 3.1378-1.9374 10.598-4.2812 11.312-0.87305 0.26631-2.6774 0.13373-3.7188 0.65625 0.10564 0.23081 0.1924 0.46561 0.28125 0.71875 0.48934-1.3856 3.2882-1.0244 4.4375-1.375 0.40212-0.12266 0.70836-0.4424 0.9375-0.90625-0.37324 0.16279-0.58924 0.18863-0.5-0.0313 0.43039-1.0604 0.76035-7.918 2.8438-10.375zm-9.875 0.1875c-0.65633 0.8653-1.6747 1.8648-2.4062 2.4062 0.035 0.0884 0.11425 0.25945 0.125 0.3125 6e-3 0.0315 0.01 0.0483 0.0313 0.0625 0.76016-0.80336 1.8677-1.9229 2.25-2.7812zm31.156 1.2812c-0.10681 2.3307 2.612 5.6066 1.375 8.5 0.1879 0.0583 0.37002 0.14826 0.5625 0.21875 1.0309-2.0776-1.8472-6.9922-1.9375-8.7188zm-44.094 1.4375c-0.58853-2e-3 -1.1998 0.0498-1.8125 0.15625-0.24454 0.0425-0.47494 0.0811-0.71875 0.0937 0.57324 0.0163 1.1476 6e-3 1.7188-0.0937 0.3802-0.0661 0.75059-0.10454 1.125-0.125-0.10937-3e-3 -0.20125-0.031-0.3125-0.0313zm-4.9062 0.21875c-1.0529 0.0153-2.138 0.17596-3.3438 0.96875 0.73581-0.30835 1.4245-0.46615 2.0938-0.5625 0.66231-0.25997 1.291-0.37458 1.9062-0.40625-0.21749-6e-3 -0.43522-3e-3 -0.65625 0zm5.6875 0.21875c-0.16769-2e-3 -0.31622 0.0195-0.46875 0.0313 1.7515 0.14017 4.0198 0.84237 5.5938 1.75 3.1991 2.92 6.0681 5.0034 6.6562 7.0312 0.69343 2.3908 0.87982 8.899 0.9375 12.375 0.0202 0.021 0.0422 0.0415 0.0625 0.0625 0.30813 0.3105 0.62898 0.60098 0.96875 0.875-0.0381-3.1355-0.21719-10.721-0.96875-13.312-0.58814-2.0278-3.4571-4.1112-6.6562-7.0312-1.7362-1.0012-4.327-1.7624-6.125-1.7812zm-4.5 0.0625c0.65921 0.0186 1.3013 0.0547 1.9375 0.0313-0.6308-0.0149-1.2724-0.0416-1.9375-0.0313zm38.906 0.59375c0.85981 2.0352 1.0308 4.2145 1.875 5.9688 0.0201 0.0419 0.0431 0.0827 0.0625 0.125-0.0386 0.0749-0.0625 0.16002-0.0625 0.25 0 0.22641 0.14749 0.41694 0.34375 0.5 0.75795 2.229 0.68188 4.8991 0.75 7.1875 0.35884 0.43277 0.71896 0.90498 1.0625 1.4688-0.081-0.88874-0.10567-1.8975-0.125-2.9375-0.22118-1.9088-0.22993-4.2452-1.0625-5.875 0.0353-0.0409 0.0733-0.0777 0.0937-0.125-4e-3 -8e-3 4e-3 -0.0227 0-0.0313-0.0255-0.0612-0.0625-0.11723-0.0625-0.1875 0-0.09 0.024-0.17511 0.0625-0.25-0.0194-0.0423-0.0424-0.0831-0.0625-0.125-0.0198-0.0411-0.0434-0.0834-0.0625-0.125-0.0287 6e-3 -0.0655 0.0249-0.0937 0.0313-0.0628-0.0425-0.14103-0.0804-0.21875-0.0937-1.3849-2.0411-0.95284-3.5457-2.5-5.7812zm19.031 2.6562c-1.6976 2.4946-3.8682 2.3737-5.125 4.8125 0.0526 0.0186 0.10315 0.0444 0.15625 0.0625 0.89869-2.1647 3.7578-2.6757 4.9688-4.875zm-27.688 1.3125c-2.1947 0.39587-4.2804 1.5497-5.5 2.1562-0.0203 0.0759-0.0419 0.19937-0.0625 0.25-0.0928 0.22874 0.15792 0.18098 0.5625 0 1.3537-0.92023 3.2081-2.0307 5-2.4062zm4.9062 1.2812c1.3491 7.7694 7.4282 8.4637 5.875 13.344-1.1892 1.2392-3.1172 3.336-4.0312 4.25-0.76285 0.67868-1.5958 1.2684-2.4375 1.8438-0.87643 0.65389-0.79689 1.1332-1.7188 1.7188-0.68733 0.46263-2.2481 0.96188-2.8438 1.4375-0.77914 0.62211-1.2104 1.4697-1.875 2.3125-0.17709 0.23959-0.47526 0.38932-0.78125 0.5625 0.0747 0.23312 0.17111 0.49452 0.21875 0.6875 0.32292-0.63542 1.2083-0.77083 1.5625-1.25 0.66464-0.84278 1.0959-1.6904 1.875-2.3125 0.59567-0.47562 2.1564-0.97487 2.8438-1.4375 0.92186-0.58556 0.84232-1.0649 1.7188-1.7188 0.84169-0.5754 1.6746-1.1651 2.4375-1.8438 0.91403-0.91403 2.842-3.0108 4.0312-4.25 0.39409-1.2382 0.2929-2.2106-0.0937-3.0938-5e-3 -8e-3 5e-3 -0.0235 0-0.0313-2.3367-3.8163-5.1595-3.8839-6.7812-10.219zm9.625 0.21875c-0.92497 6e-3 -1.6987 0.11176-2.4062 0.25 0.0135 0.0204 0.0173 0.042 0.0313 0.0625 0.0777 0.0133 0.1559 0.0513 0.21875 0.0937 0.73442-0.16654 1.6394-0.32515 2.6875-0.375-0.17873-7e-3 -0.35939-0.0323-0.53125-0.0313zm0.78125 0.34375c-0.0732 3e-3 -0.1456 0.0269-0.21875 0.0313 0.67709 0.016 1.3376 0.0544 1.875 0.15625 1.8094 0.34285 1.1428 0.69721 2.0625 0.75 0.8083 0.0464 2.2134 0.8335 3.3438 1.2812 1.2226 0.48428 1.5383-0.0211 3.8438 1.2188-1.6552-1.1205-3.3491-1.1322-3.5938-1.4062 0.0129-0.0419 0.017-0.0842 0.0313-0.125-0.0649-0.0291-0.12217-0.0641-0.1875-0.0937-0.0207 0.0437-0.0423 0.0797-0.0625 0.125-1.0067-0.2824-1.9875-0.7062-2.6562-1.0625-0.18654-0.0477-0.28433-0.1223-0.40625-0.21875-0.0974-0.077-0.24506-0.15717-0.5-0.25-0.0108 0.0211-0.02 0.0415-0.0313 0.0625-0.24588-0.0977-0.48007-0.17228-0.71875-0.25-0.0468-0.01-0.0744-0.0217-0.125-0.0313-0.74419-0.14102-1.6994-0.22641-2.6562-0.1875zm-46.062 2.0312 0.125 0.0625c0.9109 0.24481 1.6818 0.8215 2.4062 1.4062 0.82464 0.41098 1.8702 0.34115 2.5312 1.0625 0.70456 0.74408 1.7606 1.1436 2.2812 2.0625 0.20942 0.35023 0.44974 0.66458 0.71875 0.96875-0.70331 0.27896-1.3791 1.262-1.875 1.5938-0.0184 0.0123-0.0433 0.0207-0.0625 0.0313 0.26674 0.0829 0.5096 0.12431 0.71875 0.0937 0.35283-0.4495 0.78212-0.98745 1.375-1.0938 0.27247-0.26266 0.5507-0.50877 0.84375-0.625-0.26901-0.30417-0.50933-0.61852-0.71875-0.96875-0.5206-0.91893-1.5767-1.3184-2.2812-2.0625-0.66103-0.72135-1.7066-0.65152-2.5312-1.0625-0.06827-0.0551-0.14958-0.10156-0.21875-0.15625-0.45456-0.0788-0.91165-0.20596-1.25-0.53125-0.59769-0.44175-1.3243-0.71337-2.0625-0.78125zm28.312 3.0625c-0.5615-2e-3 -1.1325 0.0198-1.6875 0.1875-0.8619 0.15181-1.4009 0.98682-2.1875 1.125 0.15712 0.0284 0.29573 0.0585 0.46875 0.0625 8e-3 -4e-3 0.0232 4e-3 0.0313 0 0.66399-0.34171 1.299-0.84303 2-1.0625 0.29196-0.11393 0.63652-0.16173 1-0.1875 0.45253-0.0986 0.91776-0.12668 1.375-0.125-0.33672-5e-3 -0.66726 1e-3 -1 0zm-6.2812 1.0938c-0.11119 4e-3 -0.22334 8e-3 -0.34375 0.0313-0.58666 0.0833-1.0979 0.25436-1.625 0.40625 3e-3 0.0315-3e-3 0.0623 0 0.0937-7e-3 0.11209 0.31024 1e-3 0.40625 0.0625 0.72887-0.15857 1.3651-0.40917 2.125-0.53125-0.18386-0.0329-0.36151-0.0695-0.5625-0.0625zm0.75 0.375c-0.11556 5e-3 -0.24955 7e-3 -0.375 0.0313 0.5303 0.0941 1.0274 0.28089 1.6875 0.1875 0.0423-8e-3 0.0833-0.0213 0.125-0.0313-0.48738-0.0785-0.91748-0.20805-1.4375-0.1875zm-23.562 0.1875c-0.18337-8e-3 -0.35057 0.01-0.53125 0.0313 2.0854-0.0469 5.7552 2.5084 6.4688 2.7188 0.55836 0.16459-1.6664 2.1036-3.375 3.0312 1.3278-0.37746 3.3876-2.0227 4.1875-2.5 0.01714-0.0102 0.01528-0.0221 0.03125-0.0313 0.21446-0.26888 0.31472-0.45329 0.15625-0.5-0.0892-0.0263-0.23354-0.0976-0.40625-0.1875-1.4003 0.064-4.066-2.4613-6.5312-2.5625zm53.781 0.0625c-0.88641 0.37401-1.6291 0.38336-2.375 0.375 0.46305-0.0347 0.90399-0.0303 1.3438-0.0313 0.31369-0.0695 0.65846-0.15916 1.0312-0.34375zm-2.375 0.375c-0.97055-0.0109-1.9515-0.0429-3.3125 0.75-0.98526 0.56636-1.6858 0.93652-2.3125 1.3125 0.1001 0.15403 0.21261 0.29518 0.34375 0.40625 0.43285-0.30459 0.95516-0.58877 1.5312-0.90625 0.0447-0.0331 0.0806-0.0614 0.125-0.0937 0.66035-0.48117 1.292-0.8658 1.7812-1.0938 0.34797-0.16212 0.68254-0.22024 1-0.25 0.018-4e-3 0.0446 4e-3 0.0625 0 0.27556-0.0643 0.52793-0.10604 0.78125-0.125zm-41.406 1.0312c-0.15346 0.0275-0.30526 0.0776-0.4375 0.15625 0.22223 0.23657 0.45596 0.46782 0.65625 0.71875 0.69303 0.78032 1.3858 1.5403 1.9688 2.4062 0.85162 1.0618 1.9547 1.8779 2.875 2.875 0.7471 0.7803 1.3951 1.6458 2.0938 2.4688 0.93323 1.1249 1.8793 2.2501 2.8125 3.375 0.42144 0.87267 1.0317 1.6104 1.6562 2.3438 0.66563 0.75999 1.3096 1.5578 1.8125 2.4375 0.59909 0.89138 1.1135 1.8414 1.5 2.8438 0.30827 0.94828 0.48395 1.9214 0.625 2.9062 0.19051 1.037 0.34872 2.0991 0.25 3.1562-0.14578 1.5715-0.30651 3.1462-0.4375 4.7188-0.0217 0.7843-0.12135 1.6214 0.25 2.3438 0.88575 0.56065 1.944 0.69175 2.9688 0.75 0.15421-4e-3 0.31552-0.0153 0.46875-0.0313-0.85535-0.0774-1.7021-0.25325-2.4375-0.71875-0.37135-0.7224-0.27171-1.5594-0.25-2.3438 0.13099-1.5726 0.29172-3.1472 0.4375-4.7188 0.0987-1.0572-0.0595-2.1192-0.25-3.1562-0.14105-0.9848-0.31673-1.958-0.625-2.9062-0.3865-1.0023-0.90091-1.9524-1.5-2.8438-0.50293-0.87969-1.1469-1.6775-1.8125-2.4375-0.62451-0.73339-1.2348-1.4711-1.6562-2.3438-0.93322-1.1249-1.8793-2.2501-2.8125-3.375-0.69869-0.823-1.3466-1.6884-2.0938-2.4688-0.92026-0.99713-2.0234-1.8132-2.875-2.875-0.58298-0.86596-1.2757-1.6259-1.9688-2.4062-0.24141-0.30245-0.51438-0.59268-0.78125-0.875-0.15942-0.0325-0.29833-0.0249-0.4375 0zm36.406 5.5625c-0.27801 6e-3 -0.56326 0.0349-0.84375 0.0625 0.10242 2e-3 0.20882 0.017 0.3125 0.0313 0.3359 0.0194 0.69022-0.0275 1.0312-0.0625-0.1656-0.029-0.331-0.0347-0.5-0.0313zm-2.0938 0.0625c-0.0128 0.019-0.0184 0.0436-0.0313 0.0625 0.19686 5e-3 0.40053-0.0167 0.59375-0.0313-0.19023-0.0261-0.37567-0.039-0.5625-0.0313zm2.7812 0.21875c-0.14219 6e-3 -0.2642 0.0468-0.40625 0.0625 0.65402 0.0921 0.99171 0.6953 1.7188 0.625 0.16682-0.0309 0.33094-0.0464 0.5-0.0625-0.11167-0.0407-0.21151-0.0958-0.3125-0.15625-0.10595 5e-3 -0.20725 0.01-0.3125 0-0.40936-0.035-0.64885-0.24056-0.90625-0.4375-0.0927-4e-3 -0.18865-0.0352-0.28125-0.0313zm2.2812 0.40625c-0.072 1e-3 -0.14679 0.0254-0.21875 0.0313 0.0432 9e-3 0.0772 0.0272 0.125 0.0313 0.15833 0.0145 0.30899-0.0171 0.46875-0.0313-0.12245-0.0226-0.25224-0.0334-0.375-0.0313zm0.96875 0.1875c-0.0641 2e-3 -0.12357 0.0276-0.1875 0.0313 0.0927 6e-3 0.18873-8e-3 0.28125 0-0.0298-0.0116-0.0634-0.0202-0.0937-0.0313z" clip-path="url(#ak)" fill="#729fcf" fill-rule="evenodd" filter="url(#ad)" opacity=".49153"/><path d="m1276 750.11c22.498-3.4115 40.875-0.1666 60.875-0.125l31.125-1.75v8.75h-92z" fill="url(#b)"/><g transform="translate(1200 607.93)" fill-rule="evenodd"><g transform="matrix(.98925 0 0 1.0232 21.376 24.59)"><path transform="matrix(.76048 0 0 .87302 56.123 8.4826)" d="m162 24c-2.7302 0-5.4062 0.18108-8.0312 0.5625-3.1702 5.9491-4.9688 12.73-4.9688 19.938 0 23.46 19.04 42.5 42.5 42.5 9.7773 0 18.785-3.3191 25.969-8.875-0.73575-29.997-25.296-54.125-55.469-54.125z" fill="url(#h)" filter="url(#ag)" opacity=".16868"/><path transform="translate(0,50)" d="m174-31c13.558 0 22.308 11.846 27.731 17.269s19.269 16.173 19.269 29.731c0-13.558-20.111-8.6028-26.192-8.6028-0.6357 0-1.2268-0.51769-1.1502-1.1502 2.5084-20.705-6.1006-37.247-19.658-37.247z" filter="url(#ae)" mask="url(#o)" opacity=".37952"/><path d="m172.59 20.722c24.827-0.87083 48.543 30.546 47.5 47 0-13.558-7.491-16.365-29.984-16.365-0.6357 0-1.1502-0.51307-1.1502-1.1502 0-22.493-2.8077-29.484-16.365-29.484z" fill="url(#g)" filter="url(#z)" opacity=".42771"/><path d="m171.45 22.448c13.558 0 25.308 10.846 30.731 16.269s16.269 17.173 16.269 30.731c0-13.558-6.991-16.365-29.484-16.365-0.6357 0-1.1502-0.51307-1.1502-1.1502 0-22.493-2.8077-29.484-16.365-29.484z" fill="url(#t)" filter="url(#y)" opacity=".27711"/><path d="m173.12 19.75c13.558 0 25.308 10.846 30.731 16.269s16.269 17.173 16.269 30.731c0-13.558-6.991-16.365-29.484-16.365-0.6357 0-1.1502-0.51307-1.1502-1.1502 0-22.493-2.8077-29.484-16.365-29.484z" fill="url(#f)"/><path d="m174 19c13.558 0 25.308 10.846 30.731 16.269s16.269 17.173 16.269 30.731c0-13.558-6.991-16.365-29.484-16.365-0.6357 0-1.1502-0.51307-1.1502-1.1502 0-22.493-2.8077-29.484-16.365-29.484z" fill="url(#e)"/><path d="m174.13 19.031c15.481 1.0337 16.019 13.643 16.263 26.517-0.74413-7.7303 1.374-15.978-4.2426-22.627 4.5078 1.5017 9.8111 5.7816 14.938 9.1924-5.4964-4.8666-14.015-13.001-26.958-13.081z" fill="url(#d)" filter="url(#x)"/><path d="m219.38 57.625c-3.971-8.9-17.43-7.2964-27.25-8 9.9276-0.23867 24.598-2.9842 27.25 8z" fill="url(#c)" filter="url(#w)"/></g><path transform="matrix(.98925 0 0 1.0232 21.376 24.59)" d="m174 19c13.558 0 25.308 10.846 30.731 16.269s16.269 17.173 16.269 30.731c0-13.558-6.991-16.365-29.484-16.365-0.6357 0-1.1502-0.51307-1.1502-1.1502 0-22.493-2.8077-29.484-16.365-29.484z" fill="url(#s)"/></g><path d="m1272.1 690v70.031h98.938v-70.031zm100.94 0v8h47.031v-8zm-97 3h92v64h-92zm97 9v8h47.031v-8zm0 12v8h47.031v-8zm0 12v8h47.031v-8zm0 12v8h34.062v-8zm0 12v8h35.062v-8z" fill="#729fcf" fill-rule="evenodd" opacity=".5"/><path d="m1272 766.11v7.9459h147.53v-7.9459zm0 11.919v7.946h147.53v-7.946zm0 11.919v7.9459h46.861v-7.9459z" fill="#729fcf" fill-rule="evenodd" opacity=".5"/><path d="m1272 806v8h135.5v-8zm0 12v8h147.03v-8zm0 12v8h128.05v-8z" fill="#729fcf" fill-rule="evenodd" opacity=".5"/><path d="m1395.5 823.5v5h4v11h-4v5h13v-5h-4v-11h4v-5z" fill-rule="evenodd" stroke="#fff" stroke-dashoffset=".3612" stroke-linecap="round"/><rect x="1276" y="693" width="92" height="64" fill="#729fcf" fill-rule="evenodd" opacity=".5"/></g></g></svg>
