<?xml version="1.0" encoding="UTF-8"?>
<svg version="1.1" viewBox="0 0 256 256" xmlns="http://www.w3.org/2000/svg" xmlns:xlink="http://www.w3.org/1999/xlink"><defs><filter id="ar" x="-.21127" y="-.42254" width="1.4225" height="1.8451" color-interpolation-filters="sRGB"><feGaussianBlur stdDeviation="3.5211268"/></filter><filter id="am" x="-.32535" y="-.6507" width="1.6507" height="2.3014" color-interpolation-filters="sRGB"><feGaussianBlur stdDeviation="5.4225352"/></filter><linearGradient id="d"><stop offset="0"/><stop stop-opacity="0" offset="1"/></linearGradient><filter id="ao" x="-.36582" y="-.73163" width="1.7316" height="2.4633" color-interpolation-filters="sRGB"><feGaussianBlur stdDeviation="6.0969372"/></filter><filter id="aq" x="-.64875" y="-1.2975" width="2.2975" height="3.595" color-interpolation-filters="sRGB"><feGaussianBlur stdDeviation="10.812478"/></filter><linearGradient id="aj"><stop stop-color="#ece9e4" offset="0"/><stop stop-color="#ece9e4" stop-opacity="0" offset="1"/></linearGradient><filter id="ay" color-interpolation-filters="sRGB"><feGaussianBlur stdDeviation="2.0322581"/></filter><filter id="ax" color-interpolation-filters="sRGB"><feGaussianBlur stdDeviation="1.6733871"/></filter><clipPath id="ba"><path d="m-572 146-119 118c-14 16 4 34 20 24l135-107z" color="#000000" enable-background="accumulate" fill="none" stroke="#0e0d0b" stroke-width="4.1717"/></clipPath><filter id="ak" color-interpolation-filters="sRGB"><feGaussianBlur stdDeviation="1.5245587"/></filter><filter id="az" color-interpolation-filters="sRGB"><feGaussianBlur stdDeviation="2.1612349"/></filter><filter id="aw" color-interpolation-filters="sRGB"><feGaussianBlur stdDeviation="1.2789445"/></filter><radialGradient id="i" cx="248.9" cy="224.74" r="22.228" gradientTransform="matrix(.24437 -.13615 1.1091 1.9908 -80.466 -198.36)" gradientUnits="userSpaceOnUse"><stop stop-color="#f5f2e9" offset="0"/><stop stop-color="#d1c59a" offset="1"/></radialGradient><linearGradient id="z" x1="241" x2="252.29" y1="247.37" y2="242.42" gradientTransform="rotate(3.2623 235.68 209.81)" gradientUnits="userSpaceOnUse"><stop offset="0"/><stop stop-color="#555" offset=".52711"/><stop stop-color="#8d8d8d" offset=".68191"/><stop offset="1"/></linearGradient><linearGradient id="y" x1="336.84" x2="321.5" y1="97.874" y2="63" gradientUnits="userSpaceOnUse"><stop offset="0"/><stop stop-opacity="0" offset="1"/></linearGradient><clipPath id="bc"><path d="m415 266.5-11.164-45.626-70.516-142.6-8.5978-2.2448-7.2358 3.3602-4.108 8.9634 69.895 143.19z" color="#000000" enable-background="accumulate" fill="none" stroke="#000"/></clipPath><filter id="av" color-interpolation-filters="sRGB"><feGaussianBlur stdDeviation="1.09875"/></filter><pattern id="x" width="60.000004" height="47.05036" patternTransform="matrix(-.53889 -1.0875 -1.0875 .53889 338.56 221.4)" patternUnits="userSpaceOnUse"><image x="1.9334e-7" y="-5.1105e-15" width="60" height="47.05" xlink:href="file:///home/jimmac/Desktop/wood.png"/></pattern><linearGradient id="ae" x1="146.17" x2="167.06" y1="75.434" y2="66" gradientTransform="matrix(.94197 0 0 .94197 10.825 7.5622)" gradientUnits="userSpaceOnUse"><stop stop-color="#ab5f5f" offset="0"/><stop stop-color="#f9a9a9" offset="1"/></linearGradient><filter id="at" x="-.1541" y="-.77603" width="1.3082" height="2.5521" color-interpolation-filters="sRGB"><feGaussianBlur stdDeviation="0.75526875"/></filter><filter id="au" x="-.20538" y="-.15573" width="1.4108" height="1.3115" color-interpolation-filters="sRGB"><feGaussianBlur stdDeviation="0.77922653"/></filter><linearGradient id="ac" x1="-146.31" x2="-146.81" y1="116.47" y2="120.59" gradientTransform="matrix(-.56958 -1.1495 1.1495 -.56958 -69.399 -24.077)" gradientUnits="userSpaceOnUse"><stop offset="0"/><stop stop-opacity="0" offset="1"/></linearGradient><linearGradient id="ab" x1="-146.25" x2="-145.88" y1="117.09" y2="119.53" gradientTransform="matrix(-.56958 -1.1495 -1.1495 .56958 218.54 -166.94)" gradientUnits="userSpaceOnUse"><stop stop-color="#9e5a5a" offset="0"/><stop stop-color="#e3a4a4" offset="1"/></linearGradient><linearGradient id="af" x1="-158.75" x2="-158.75" y1="115.94" y2="134.25" gradientUnits="userSpaceOnUse"><stop stop-color="#ddd" offset="0"/><stop stop-color="#fff" offset=".34468"/><stop stop-color="#737373" offset=".72695"/><stop stop-color="#bbb" offset="1"/></linearGradient><linearGradient id="ad" x1="-152" x2="-159.02" y1="132" y2="115.75" gradientUnits="userSpaceOnUse"><stop offset="0"/><stop stop-opacity="0" offset="1"/></linearGradient><clipPath id="bb"><path d="m-164.25 115.75c6.5136 3.7207 6.2315 15.446 0 19.25h12.25c6.2103-2.2229 6.0582-16.864 0-19.5z" color="#000000" enable-background="new" fill="none" stroke="#000"/></clipPath><filter id="as" color-interpolation-filters="sRGB"><feGaussianBlur stdDeviation="0.38947335"/></filter><linearGradient id="aa" x1="172.34" x2="169.41" y1="75.391" y2="76.84" gradientUnits="userSpaceOnUse"><stop stop-color="#767676" offset="0"/><stop stop-color="#767676" stop-opacity="0" offset="1"/></linearGradient><radialGradient id="l" cx="173.93" cy="145.18" r="30.125" gradientTransform="matrix(-.046822 -.54507 -3.0463 .26169 205.14 198)" gradientUnits="userSpaceOnUse"><stop stop-color="#fff" offset="0"/><stop stop-color="#fff" stop-opacity="0" offset="1"/></radialGradient><radialGradient id="k" cx="-139.49" cy="124.53" r="2.8607" gradientTransform="matrix(3.7531 0 0 2.8521 384.25 -233.11)" gradientUnits="userSpaceOnUse"><stop stop-color="#eeeeec" offset="0"/><stop stop-color="#eeeeec" stop-opacity="0" offset="1"/></radialGradient><filter id="al" color-interpolation-filters="sRGB"><feGaussianBlur stdDeviation="0.13003822"/></filter><radialGradient id="j" cx="-140.38" cy="122.88" r="1.5" gradientUnits="userSpaceOnUse"><stop stop-color="#eeeeec" offset="0"/><stop stop-color="#eeeeec" stop-opacity="0" offset="1"/></radialGradient><radialGradient id="c" cx="354.57" cy="37.125" r="5.4005" gradientTransform="matrix(1.3666 0 0 4.8342 -129.97 -142.34)" gradientUnits="userSpaceOnUse" xlink:href="#d"/><filter id="a" x="-.2162" y="-.043192" width="1.4324" height="1.0864" color-interpolation-filters="sRGB"><feGaussianBlur stdDeviation="0.6163846"/></filter><radialGradient id="b" cx="354.57" cy="37.125" r="5.4005" gradientTransform="matrix(1.1115 0 0 3.9321 -39.549 -108.85)" gradientUnits="userSpaceOnUse" xlink:href="#ai"/><linearGradient id="ai"><stop stop-color="#fff" offset="0"/><stop stop-color="#fff" stop-opacity="0" offset="1"/></linearGradient><radialGradient id="w" cx="345.87" cy="37.281" r="4.6222" gradientTransform="matrix(.64877 0 0 2.601 -382.92 28.344)" gradientUnits="userSpaceOnUse"><stop stop-color="#fff" offset="0"/><stop stop-color="#fff" stop-opacity="0" offset="1"/></radialGradient><filter id="an" x="-.36582" y="-.73163" width="1.7316" height="2.4633" color-interpolation-filters="sRGB"><feGaussianBlur stdDeviation="6.0969372"/></filter><filter id="ap" x="-.64875" y="-1.2975" width="2.2975" height="3.595" color-interpolation-filters="sRGB"><feGaussianBlur stdDeviation="10.812478"/></filter><radialGradient id="g" cx="260.79" cy="264.24" r="32.312" gradientTransform="matrix(.74743 0 0 .39587 65.868 158.58)" gradientUnits="userSpaceOnUse" xlink:href="#d"/><radialGradient id="f" cx="272.9" cy="259.74" r="32.312" fx="252.1" fy="261.25" gradientTransform="matrix(.9761 0 0 .8851 4.5939 29.307)" gradientUnits="userSpaceOnUse" xlink:href="#d"/><radialGradient id="v" cx="253.66" cy="265.8" r="33.527" gradientTransform="matrix(1 0 0 .62505 0 98.238)" gradientUnits="userSpaceOnUse"><stop offset="0"/><stop stop-opacity="0" offset="1"/></radialGradient><linearGradient id="ah" x1="-579.91" x2="-601" y1="198.92" y2="174.92" gradientUnits="userSpaceOnUse"><stop stop-color="#302c26" offset="0"/><stop stop-color="#897862" offset="1"/></linearGradient><radialGradient id="e" cx="-474" cy="233.42" r="64" gradientTransform="matrix(-.72785 -.68574 1.7812 -1.8906 -1234.8 351.27)" gradientUnits="userSpaceOnUse" xlink:href="#aj"/><radialGradient id="u" cx="-353" cy="130.67" r="44" gradientTransform="matrix(1.8746 0 0 1.6616 122.73 -34.113)" gradientUnits="userSpaceOnUse"><stop stop-color="#729fcf" offset="0"/><stop stop-color="#729fcf" stop-opacity="0" offset="1"/></radialGradient><radialGradient id="t" cx="-411.31" cy="300.55" r="5.0563" gradientTransform="matrix(1 0 0 2.5958 0 -478.54)" gradientUnits="userSpaceOnUse"><stop stop-color="#fff" offset="0"/><stop stop-color="#fff" stop-opacity="0" offset="1"/></radialGradient><linearGradient id="ag" x1="-612.6" x2="-633.69" y1="221.22" y2="194.45" gradientUnits="userSpaceOnUse"><stop stop-color="#0e0d0b" offset="0"/><stop stop-color="#0e0d0b" stop-opacity="0" offset="1"/></linearGradient><radialGradient id="s" cx="-422.93" cy="144.41" r="100.5" gradientTransform="matrix(2.187 0 0 2.187 571.31 -319.43)" gradientUnits="userSpaceOnUse"><stop stop-color="#6161d1" offset="0"/><stop stop-color="#090b27" offset="1"/></radialGradient><radialGradient id="r" cx="-229.5" cy="101.5" r="88.5" gradientTransform="matrix(1.0354 -.02041 -.02041 1.0118 7.565 -4.3677)" gradientUnits="userSpaceOnUse"><stop stop-color="#6969ed" offset="0"/><stop stop-color="#6969ed" stop-opacity="0" offset="1"/></radialGradient><radialGradient id="q" cx="-349.5" cy="-29.5" r="91.5" gradientTransform="matrix(1.9345 -.0093148 -.0093148 1.9238 327.22 25.51)" gradientUnits="userSpaceOnUse"><stop stop-color="#090b27" offset="0"/><stop stop-color="#090b27" stop-opacity="0" offset="1"/></radialGradient><radialGradient id="p" cx="-184.35" cy="104.53" r="108.28" gradientUnits="userSpaceOnUse"><stop stop-color="#cdcdf5" offset="0"/><stop stop-color="#6262de" offset="1"/></radialGradient><radialGradient id="o" cx="-184.35" cy="104.53" r="108.28" gradientTransform="matrix(1.5494 0 0 1.5494 101.29 -57.433)" gradientUnits="userSpaceOnUse"><stop stop-color="#cdcdf5" offset="0"/><stop stop-color="#6262de" stop-opacity=".12429" offset="1"/></radialGradient><radialGradient id="n" cx="-194" cy="128.91" r="83" gradientUnits="userSpaceOnUse"><stop stop-color="#ece9e4" stop-opacity="0" offset="0"/><stop stop-color="#d3d0cc" stop-opacity=".18824" offset=".55556"/><stop stop-color="#363636" stop-opacity=".9435" offset="1"/></radialGradient><radialGradient id="m" cx="-627" cy="71" r="29" gradientTransform="matrix(1 0 0 .58621 0 29.379)" gradientUnits="userSpaceOnUse"><stop stop-color="#fff" offset="0"/><stop stop-color="#fff" stop-opacity="0" offset="1"/></radialGradient></defs><g transform="translate(-420,-30)"><g transform="matrix(-1 0 0 1 670 24)" enable-background="new"><g transform="matrix(.70408 0 0 .71331 5.9301 67.968)" fill-rule="evenodd"><ellipse transform="matrix(-.51664 0 0 .51664 145.08 101.72)" cx="245" cy="262" rx="20" ry="10" color="#000000" enable-background="accumulate" filter="url(#ar)" opacity=".60766"/><ellipse transform="matrix(-.96511 0 0 .84183 263.02 15.522)" cx="245" cy="262" rx="20" ry="10" color="#000000" enable-background="accumulate" fill="url(#v)" filter="url(#am)" opacity=".90141"/><ellipse transform="matrix(-2.4506 0 0 1.0044 659.91 -25.078)" cx="245" cy="262" rx="20" ry="10" color="#000000" enable-background="accumulate" fill="url(#g)" filter="url(#ao)" opacity=".59809"/><ellipse transform="matrix(-3.395 0 0 1.0044 949.06 -26.078)" cx="245" cy="262" rx="20" ry="17.965" color="#000000" enable-background="accumulate" fill="url(#f)" filter="url(#aq)" opacity=".50718"/></g><g transform="matrix(.71914 0 0 .71914 377.43 66.478)" enable-background="new"><g transform="translate(184,-48)"><path d="m-572 146-119 118c-14 16 4 34 20 24l135-107z" color="#000000" enable-background="accumulate" fill="url(#ah)"/><path transform="translate(-97,-72)" d="m-475 222-117 116-2 8 120-119 8 5z" color="#000000" enable-background="accumulate" fill="url(#e)" filter="url(#ay)" opacity=".27049"/><path transform="translate(-97,-72)" d="m-475 222-117 115.29c-3.5355 2.8284-2 8.7071-2 8.7071l5.7757-10.214 111.85-110.22 10.373 6.432z" color="#000000" enable-background="accumulate" fill="url(#e)" opacity=".41584"/><path transform="matrix(1.5424 0 0 1.5424 288.81 -96.378)" d="m-549.75 171.3 10.746 9.7046-88 67z" color="#000000" enable-background="accumulate" fill="url(#u)" filter="url(#ax)" opacity=".30738"/><path transform="translate(-281,-24)" d="m-405.25 287.75c-8.1502 8.3845-9.3967 16.531 1.75 24.25" color="#000000" enable-background="accumulate" fill="none" stroke="url(#t)" stroke-opacity=".12429" stroke-width="1.3803"/><path d="m-572 146-119 118c-14 16 4 34 20 24l135-107z" clip-path="url(#ba)" color="#000000" enable-background="accumulate" fill="none" filter="url(#ak)" stroke="url(#ag)" stroke-width="4.1717"/></g><g transform="matrix(-.86603 .5 .5 .86603 -575.39 154.91)"><path d="m-297.5-70c-59.892 0-108.5 48.608-108.5 108.5s48.608 108.5 108.5 108.5 108.5-48.608 108.5-108.5-48.608-108.5-108.5-108.5zm0 26.433c45.301 0 82.067 36.766 82.067 82.067s-36.766 82.067-82.067 82.067-82.067-36.766-82.067-82.067 36.766-82.067 82.067-82.067z" color="#000000" enable-background="accumulate" fill="url(#s)"/><path d="m-295.92 136.13c50.579-0.99708 92.438-41.921 93.435-91.349 0.99708-49.428-39.243-88.734-89.822-87.737-1.1857 0.02337-2.3605 0.09878-3.5362 0.16558 44.726 1.0684 79.735 36.472 78.842 80.697-0.91731 45.473-39.427 83.124-85.96 84.041-45.255 0.89212-81.499-33.303-82.613-77.01-0.0679 1.1489-0.14435 2.297-0.16772 3.4557-0.99707 49.428 39.243 88.734 89.822 87.737z" color="#000000" enable-background="accumulate" fill="url(#r)"/><path d="m-298.47-58.151c-50.368 0.24252-95.587 41.78-95.829 91.868-0.24252 50.088 40.439 90.542 90.807 90.3 1.1807-6e-3 2.3499-0.0643 3.52-0.11413-44.569-1.7623-79.98-38.181-79.763-82.997 0.22312-46.081 38.012-83.661 84.351-83.884 45.066-0.21699 81.69 34.996 83.463 79.317 0.0502-1.1636 0.10903-2.3262 0.11471-3.5004 0.24253-50.088-24.878-88.172-86.663-90.989z" color="#000000" enable-background="accumulate" fill="url(#q)"/><circle transform="matrix(.91261 .0073658 .0073658 .92112 -183.71 -128.47)" cx="-126" cy="184.5" r="107.2" color="#000000" enable-background="accumulate" fill="none" filter="url(#az)" stroke="url(#p)" stroke-width="1.5055"/><circle transform="matrix(.92089 .0025878 .0025878 .92388 -180.48 -130.92)" cx="-126" cy="184.5" r="107.2" color="#000000" enable-background="accumulate" fill="none" stroke="url(#o)" stroke-width="1.4964"/><circle transform="matrix(1.0843 0 0 1.0843 -87.639 -85.783)" cx="-194" cy="116" r="83" color="#000000" enable-background="accumulate" fill="url(#n)" opacity=".5"/><ellipse transform="matrix(1.2708 -.38426 .38426 1.2708 454.54 -338.16)" cx="-627" cy="71" rx="29" ry="17" color="#000000" enable-background="accumulate" fill="url(#m)"/><ellipse transform="matrix(.62582 -.18923 .18923 .62582 63.953 -170.08)" cx="-627" cy="71" rx="29" ry="17" color="#000000" enable-background="accumulate" fill="#fff" filter="url(#aw)"/></g></g></g><g transform="matrix(1.0006 -1.0006 1.0006 1.0006 633.43 -185.47)" enable-background="new"><g transform="matrix(0 -.48105 -.48105 0 -244.56 -1.7473)" fill-rule="evenodd"><ellipse transform="matrix(.86223 .86223 -.35803 .35803 -397.25 -152.92)" cx="245" cy="262" rx="20" ry="10" color="#000000" enable-background="accumulate" fill="url(#g)" filter="url(#an)" opacity=".59809"/><ellipse transform="matrix(1.1945 1.1945 -.35803 .35803 -498.63 -255.01)" cx="245" cy="262" rx="20" ry="17.965" color="#000000" enable-background="accumulate" fill="url(#f)" filter="url(#ap)" opacity=".50718"/></g><g transform="matrix(-.36582 -.73825 -.73825 .36582 -36.079 215.27)"><path d="m256.12 268.25-11.216-46.482c-8.046-15.152-34.895-18.497-21.489 10.823z" enable-background="accumulate" fill="url(#i)"/><path d="m156.43 78.373-4.178 8.8769 71.117 145.22c-0.0242-5.0792 2.1878-7.9812 6.4198-6.0048-0.33803-0.34046-73.359-148.09-73.359-148.09z" enable-background="accumulate" fill="#d9700f"/><path d="m172.72 76.653-8.6566-2.6372 76.097 153c1.7263-2.9698-0.31574-10.609 4.6238-5.1064z" enable-background="accumulate" fill="#fcaf3e"/><path d="m156.38 78.442 7.8156-4.1542 75.829 152.25c-3.5281-3.7191-9.8321-6.3698-10.531-0.35012z" enable-background="accumulate" fill="#f09a2e"/><path d="m256 267.5-4.6918-18.434c-4.3191-1.1174-7.9109 0.46279-8.976 3.7937z" enable-background="accumulate" fill="url(#z)"/><path transform="matrix(1.0268 -.0053388 -.0053388 1.0186 -169.02 -1.1495)" d="m415 266.5-10.083-44.657-70.961-143.85-9.087-1.412-6.8332 2.8274-3.9754 9.231 69.558 144.43z" clip-path="url(#bc)" enable-background="accumulate" fill="none" filter="url(#av)" stroke="url(#y)" stroke-width="1.715"/><rect x="338.56" y="221.4" width="0" height="0" fill="url(#x)"/><path transform="matrix(-.53889 -1.0875 -1.0875 .53889 214.67 -155.24)" d="m-291.33 120.93c4.9658 1.2812 8.5449 5.47 4.1542 7.6898 4.0511-3.3676-2.1569-6.8553-4.1542-7.6898z" color="#000000" enable-background="new" fill="#fdd498"/><path d="m223.36 232.15c-0.31131-2.8472 1.6133-8.2256 6.1937-5.7755-3.4852-0.24705-5.914 2.8044-6.1937 5.7755z" color="#000000" enable-background="new" fill="#fdd498"/><path transform="matrix(-.53889 -1.0875 -1.0875 .53889 214.67 -155.24)" d="m-290.25 121.5 3.75 2.75-40.75 0.375z" color="#000000" enable-background="new" fill="#fff" opacity=".21845"/><path transform="matrix(-.53889 -1.0875 -1.0875 .53889 214.67 -155.24)" d="m-291.5 120.5 1.875 1.125h138.5v-0.5l-0.75-0.75z" color="#000000" enable-background="new" fill="#fff" opacity=".46602"/><path d="m172.64 77.841c-7.118-4.784-18.987 1.4573-19.72 9.7717l-6.2184-12.549c-1.0022-12.081 11.198-17.216 19.976-9.8986z" color="#000000" enable-background="new" fill="url(#ae)"/><path transform="matrix(-.56958 -1.1495 -1.1495 .56958 217.58 -165.13)" d="m-152.25 119.38h9.875l1.8876 2.3358-2.8876-0.58579-8.375 0.125z" color="#000000" enable-background="new" fill="#fff" filter="url(#at)" opacity=".35437"/><path transform="matrix(-.53889 -1.0875 -1.0875 .53889 214.67 -155.24)" d="m-144.5 120.62c-1.125 2.625-3.625 2.125-3.625 2.125s-4.375 2.25-2.25 4.875 4.75 5.125 4.125 5 2.625-2.75 4-3.75-1.25-1.25-1.25-3.5-1-4.875-1-4.75z" color="#000000" enable-background="new" fill="#ab5f5f" filter="url(#au)" opacity=".35437"/><path d="m150.56 82.67-3.4534-6.4275c-1.2413-2.3104 0.35444-8.0629 1.2052-9.0603l5.6118 11.003z" color="#000000" enable-background="new" fill="url(#ac)" opacity=".25243"/><path d="m170.24 72.737-3.4512-7.5065c-1.5565-1.0331-2.8662-2.2762-5.0458-2.7791l5.2686 10.633z" color="#000000" enable-background="new" fill="url(#ab)" opacity=".60194"/><path transform="matrix(-.53889 -1.0875 -1.0875 .53889 214.67 -155.24)" d="m-164.25 115.75c6.5136 3.7207 6.2315 15.446 0 19.25h12.25c6.2103-2.2229 6.0582-16.864 0-19.5z" color="#000000" enable-background="new" fill="url(#af)"/><path transform="matrix(-.53889 -1.0875 -1.0875 .53889 214.67 -155.24)" d="m-164.25 115.75c6.5136 3.7207 6.2315 15.446 0 19.25h12.25c6.2103-2.2229 6.0582-16.864 0-19.5z" clip-path="url(#bb)" color="#000000" enable-background="new" fill="none" filter="url(#as)" opacity=".50485" stroke="url(#ad)" stroke-width="1.413"/><path d="m177.41 85.627-6.7034-13.528c-1.4726-0.97746-2.3424-1.0663-4.4046-1.5421l7.0423 13.528c1.1478 0.50056 2.6494 0.95062 4.0657 1.5417z" color="#000000" enable-background="new" fill="url(#aa)" opacity=".60194"/></g><path d="m-153.5 131.39-2.6819 2.9381-133.01 0.88339 1.8723-1.1773 0.83467-1.563z" enable-background="accumulate" fill="url(#l)" opacity=".2602"/><path d="m-190.61 123.8v3.2788h0.44458v-2.6953h9e-3l1.8246 2.6953h0.56499v-3.2788h-0.44458v2.6953h-9e-3l-1.8061-2.6953h-0.58351" color="#000000" fill="#fdd498" style="text-decoration-line:none;text-indent:0;text-transform:none"/><path d="m-186.07 127.14c0.66687 0 1.167-0.52331 1.167-1.1531 0-0.62519-0.50478-1.1531-1.167-1.1531-0.66687 0-1.167 0.52793-1.167 1.1531 0 0.6715 0.5372 1.1531 1.167 1.1531m0-1.9172c0.43068 0 0.72244 0.31028 0.72244 0.76412 0 0.45847-0.29176 0.76412-0.72244 0.76412-0.43532 0-0.72244-0.30565-0.72244-0.76412 0-0.45384 0.28712-0.76412 0.72244-0.76412" color="#000000" fill="#fdd498" style="text-decoration-line:none;text-indent:0;text-transform:none"/><path d="m-182.04 123.72c-0.60204 0-1.0049 0.30565-1.0837 0.85211l0.48162 0.0417c0.0509-0.30102 0.25934-0.50479 0.59741-0.50479 0.29175 0 0.56498 0.18988 0.56498 0.52331 0 0.0926-0.0139 0.34733-0.36122 0.6715l-1.3152 1.306v0.47237h2.1488v-0.38901h-1.6486l1.079-1.042c0.23618-0.22692 0.56962-0.56499 0.56962-1.0235 0-0.6113-0.48626-0.90768-1.0327-0.90768" color="#000000" fill="#fdd498" style="text-decoration-line:none;text-indent:0;text-transform:none"/><path d="m-177.94 124.48v-0.68076h-0.33344v0.68076l-0.65297-0.22229-0.0973 0.30102 0.6576 0.22229-0.41216 0.54183 0.25471 0.18987 0.41216-0.55573 0.42142 0.56499 0.25471-0.18987-0.40753-0.55109 0.64371-0.2084-0.0973-0.31028-0.64371 0.21766" color="#000000" fill="#fdd498" style="text-decoration-line:none;text-indent:0;text-transform:none"/><path d="m-175.06 123.8v3.2788h0.44458v-1.5005h1.6996v1.5005h0.44458v-3.2788h-0.44458v1.3615h-1.6996v-1.3615h-0.44458" color="#000000" fill="#fdd498" style="text-decoration-line:none;text-indent:0;text-transform:none"/><path d="m-169.94 126.14c0 0.44458-0.40753 0.55572-0.70855 0.55572h-0.65297v-1.1392h0.65761c0.32417 0 0.70391 0.1204 0.70391 0.58351m-0.14356-1.4634c0 0.35659-0.27323 0.49089-0.6113 0.49089h-0.60666v-0.97252h0.69928c0.43532 0 0.51868 0.31491 0.51868 0.48163m0.61593 1.4958c0-0.47699-0.35659-0.7919-0.70855-0.81506v-9e-3c0.26397-0.088 0.56499-0.28712 0.56499-0.72244 0-0.57425-0.46311-0.81969-0.99568-0.81969h-1.1392v3.2788h1.1253c0.64371 0 1.1531-0.32881 1.1531-0.91232" color="#000000" fill="#fdd498" style="text-decoration-line:none;text-indent:0;text-transform:none"/><path d="m-190.61 123.55v3.2788h0.44458v-2.6953h9e-3l1.8246 2.6953h0.56499v-3.2788h-0.44458v2.6953h-9e-3l-1.8061-2.6953h-0.58351" color="#000000" fill="#7f4109" style="text-decoration-line:none;text-indent:0;text-transform:none"/><path d="m-186.07 126.89c0.66687 0 1.167-0.52331 1.167-1.1531 0-0.62519-0.50478-1.1531-1.167-1.1531-0.66687 0-1.167 0.52793-1.167 1.1531 0 0.6715 0.5372 1.1531 1.167 1.1531m0-1.9172c0.43068 0 0.72244 0.31028 0.72244 0.76412 0 0.45847-0.29176 0.76412-0.72244 0.76412-0.43532 0-0.72244-0.30565-0.72244-0.76412 0-0.45384 0.28712-0.76412 0.72244-0.76412" color="#000000" fill="#7f4109" style="text-decoration-line:none;text-indent:0;text-transform:none"/><path d="m-182.04 123.47c-0.60204 0-1.0049 0.30565-1.0837 0.85211l0.48162 0.0417c0.0509-0.30102 0.25934-0.50479 0.59741-0.50479 0.29175 0 0.56498 0.18988 0.56498 0.52331 0 0.0926-0.0139 0.34733-0.36122 0.6715l-1.3152 1.306v0.47237h2.1488v-0.38901h-1.6486l1.079-1.042c0.23618-0.22692 0.56962-0.56499 0.56962-1.0235 0-0.6113-0.48626-0.90768-1.0327-0.90768" color="#000000" fill="#7f4109" style="text-decoration-line:none;text-indent:0;text-transform:none"/><path d="m-177.94 124.23v-0.68076h-0.33344v0.68076l-0.65297-0.22229-0.0973 0.30102 0.6576 0.22229-0.41216 0.54183 0.25471 0.18987 0.41216-0.55573 0.42142 0.56499 0.25471-0.18987-0.40753-0.55109 0.64371-0.2084-0.0973-0.31028-0.64371 0.21766" color="#000000" fill="#7f4109" style="text-decoration-line:none;text-indent:0;text-transform:none"/><path d="m-175.06 123.55v3.2788h0.44458v-1.5005h1.6996v1.5005h0.44458v-3.2788h-0.44458v1.3615h-1.6996v-1.3615h-0.44458" color="#000000" fill="#7f4109" style="text-decoration-line:none;text-indent:0;text-transform:none"/><path d="m-169.94 125.89c0 0.44458-0.40753 0.55572-0.70855 0.55572h-0.65297v-1.1392h0.65761c0.32417 0 0.70391 0.1204 0.70391 0.58351m-0.14356-1.4634c0 0.35659-0.27323 0.49089-0.6113 0.49089h-0.60666v-0.97252h0.69928c0.43532 0 0.51868 0.31491 0.51868 0.48163m0.61593 1.4958c0-0.47699-0.35659-0.7919-0.70855-0.81506v-9e-3c0.26397-0.088 0.56499-0.28712 0.56499-0.72244 0-0.57425-0.46311-0.81969-0.99568-0.81969h-1.1392v3.2788h1.1253c0.64371 0 1.1531-0.32881 1.1531-0.91232" color="#000000" fill="#7f4109" style="text-decoration-line:none;text-indent:0;text-transform:none"/><path transform="matrix(1.1358 0 0 1.057 18.6 -7.1355)" d="m-143.62 117.25c5.9116 4.375 4.8678 12.5-0.5 16.125 6.4383-2.4728 8.5369-11.85 0.5-16.125z" color="#000000" enable-background="new" fill="url(#k)" filter="url(#al)" opacity=".23786"/><circle transform="matrix(1.9723 0 0 1.9723 135.31 -121.18)" cx="-140.38" cy="122.88" r="1.5" color="#000000" enable-background="new" fill="url(#j)" opacity=".45146"/><path transform="translate(0 .23318)" d="m-251.38 123.54c-0.47049 0-0.8466 0.1575-1.1289 0.47266-0.28081 0.31366-0.42188 0.73492-0.42188 1.2637s0.14107 0.95001 0.42188 1.2637c0.2823 0.31367 0.65841 0.47071 1.1289 0.47071 0.46901 0 0.8442-0.15704 1.125-0.47071 0.28081-0.31516 0.42188-0.73641 0.42188-1.2637 0-0.52875-0.14107-0.95001-0.42188-1.2637-0.2808-0.31516-0.65599-0.47266-1.125-0.47266zm20.299 0c-0.47049 0-0.84661 0.1575-1.1289 0.47266-0.28081 0.31366-0.42188 0.73492-0.42188 1.2637s0.14107 0.95001 0.42188 1.2637c0.28229 0.31367 0.65841 0.47071 1.1289 0.47071 0.469 0 0.8442-0.15704 1.125-0.47071 0.28081-0.31516 0.41992-0.73641 0.41992-1.2637 0-0.52875-0.13911-0.95001-0.41992-1.2637-0.2808-0.31516-0.656-0.47266-1.125-0.47266zm9.707 0c-0.50634 0-0.90405 0.15612-1.1953 0.4668-0.29126 0.30918-0.4375 0.73182-0.4375 1.2695 0 0.53622 0.14624 0.95885 0.4375 1.2695 0.29126 0.30919 0.68897 0.46485 1.1953 0.46485 0.19716 0 0.3843-0.0263 0.56055-0.0801 0.17774-0.0538 0.34558-0.13465 0.50391-0.24219v-0.47266c-0.15235 0.1419-0.31502 0.24816-0.48829 0.31836-0.17176 0.0702-0.35465 0.10547-0.54882 0.10547-0.38237 0-0.67382-0.1166-0.87696-0.34961-0.20313-0.2345-0.30468-0.57305-0.30468-1.0137 0-0.44212 0.10155-0.77871 0.30468-1.0117 0.20314-0.2345 0.49459-0.35351 0.87696-0.35351 0.19417 0 0.37706 0.0353 0.54882 0.10546 0.17327 0.0702 0.33594 0.17647 0.48829 0.31836v-0.47656c-0.15534-0.10605-0.32226-0.186-0.5-0.23828-0.17625-0.0538-0.36431-0.0801-0.56446-0.0801zm3.127 0c-0.4705 0-0.84661 0.1575-1.1289 0.47266-0.2808 0.31366-0.42188 0.73492-0.42188 1.2637 1e-5 0.52875 0.14108 0.95001 0.42188 1.2637 0.2823 0.31367 0.65841 0.47071 1.1289 0.47071 0.469 0 0.84419-0.15704 1.125-0.47071 0.2808-0.31516 0.41992-0.73641 0.41992-1.2637 0-0.52875-0.13912-0.95001-0.41992-1.2637-0.28081-0.31516-0.656-0.47266-1.125-0.47266zm6.7109 0c-0.36594 0-0.65221 0.0856-0.86132 0.25586-0.20762 0.17028-0.3125 0.40348-0.3125 0.69922 0 0.25541 0.0757 0.45427 0.22656 0.59766s0.39486 0.24919 0.73242 0.3164l0.27539 0.0527c0.23002 0.0463 0.39602 0.11638 0.49609 0.20898 0.10157 0.0926 0.15235 0.22047 0.15235 0.38477 0 0.1882-0.0705 0.33398-0.21094 0.43554-0.1404 0.10157-0.33926 0.15235-0.59766 0.15235-0.17027 0-0.34328-0.0258-0.51953-0.0781s-0.35729-0.13131-0.54101-0.23437v0.4668c0.19118 0.0702 0.37694 0.12235 0.55469 0.1582 0.17923 0.0359 0.34753 0.0547 0.50585 0.0547 0.41972 0 0.73655-0.0847 0.95313-0.25196 0.21807-0.16729 0.32812-0.41221 0.32812-0.73633 0-0.27184-0.0809-0.48907-0.24218-0.65039-0.15982-0.1628-0.40853-0.27561-0.7461-0.33984l-0.27343-0.0566c-0.24795-0.0463-0.41625-0.10696-0.50586-0.18164-0.0881-0.0762-0.13282-0.18807-0.13282-0.33594 0-0.17625 0.0663-0.31066 0.19922-0.40625 0.13443-0.0956 0.32582-0.14453 0.57227-0.14453 0.14189 0 0.28905 0.0202 0.4414 0.0606 0.15236 0.0403 0.31456 0.10144 0.48633 0.18359v-0.44141c-0.17027-0.0567-0.33719-0.0986-0.5-0.12695-0.1628-0.0284-0.32363-0.043-0.48047-0.043zm-44.633 0.0605v3.3457h0.4375v-2.7988l1.4844 2.7988h0.60937v-3.3457h-0.43945v2.7988l-1.4824-2.7988zm7.9414 0v0.38086h1.1875v2.9648h0.45508v-2.9648h1.1875v-0.38086zm3.2695 0v3.3457h0.45117v-3.3457zm1.3535 0v3.3457h0.4375v-2.9375l0.86329 2.293h0.45507l0.86328-2.293v2.9375h0.44141v-3.3457h-0.67578l-0.85742 2.2773-0.85352-2.2773zm3.9609 0v3.3457h2.1543v-0.38086h-1.7031v-1.2129h1.5938v-0.38086h-1.5938v-0.99023h1.6641v-0.38086zm4.5606 0v3.3457h0.45312v-1.5976h1.3262v-0.38086h-1.3262v-0.98633h1.4688v-0.38086zm6.2559 0v3.3457h0.45312v-1.4141h0.49219c0.17924 0 0.32077 0.0362 0.42383 0.10937 0.10455 0.0732 0.21174 0.22127 0.32226 0.44532l0.42774 0.85937h0.48633l-0.45899-0.91406c-0.0926-0.1882-0.18474-0.33582-0.27734-0.44336-0.0911-0.10754-0.18612-0.17808-0.2832-0.21094 0.1867-0.0538 0.32869-0.15015 0.42578-0.28906 0.0986-0.13891 0.14843-0.31479 0.14843-0.52539 0-0.32263-0.095-0.56284-0.2832-0.72266s-0.4731-0.24023-0.85547-0.24023zm4.6602 0v3.3457h0.45313v-3.3457zm8.1738 0v3.3457h0.4375v-2.7988l1.4844 2.7988h0.60937v-3.3457h-0.43945v2.7988l-1.4824-2.7988zm-35.387 0.30664c0.3286 0 0.58811 0.12223 0.7793 0.36719 0.19268 0.24495 0.28906 0.57925 0.28906 1.002 0 0.42121-0.0964 0.75504-0.28906 1-0.19119 0.24496-0.4507 0.36719-0.7793 0.36719s-0.58903-0.12223-0.7832-0.36719c-0.19268-0.24496-0.28906-0.57879-0.28906-1 0-0.4227 0.0964-0.757 0.28906-1.002 0.19417-0.24496 0.4546-0.36719 0.7832-0.36719zm20.299 0c0.3286 0 0.58811 0.12223 0.7793 0.36719 0.19268 0.24495 0.28906 0.57925 0.28906 1.002 0 0.42121-0.0964 0.75504-0.28906 1-0.19119 0.24496-0.4507 0.36719-0.7793 0.36719s-0.59098-0.12223-0.78515-0.36719c-0.19268-0.24496-0.28711-0.57879-0.28711-1 0-0.4227 0.0944-0.757 0.28711-1.002 0.19417-0.24496 0.45655-0.36719 0.78515-0.36719zm12.834 0c0.3286 0 0.58811 0.12223 0.77929 0.36719 0.19268 0.24495 0.28907 0.57925 0.28907 1.002 0 0.42121-0.0964 0.75504-0.28907 1-0.19118 0.24496-0.45069 0.36719-0.77929 0.36719s-0.59099-0.12223-0.78516-0.36719c-0.19268-0.24496-0.28906-0.57879-0.28906-1 0-0.4227 0.0964-0.757 0.28906-1.002 0.19417-0.24496 0.45656-0.36719 0.78516-0.36719zm-10.127 0.0644h0.56836c0.21807 0 0.38166 0.0503 0.49219 0.15039 0.11202 0.0986 0.16797 0.24574 0.16797 0.44141s-0.0559 0.3457-0.16797 0.44727c-0.11053 0.10007-0.27412 0.14843-0.49219 0.14843h-0.56836zm-20.854 1.5332v0.36718h1.209v-0.36718zm12.262 0v0.36718h1.207v-0.36718zm10.914 0v0.36718h1.209v-0.36718z" color="#000000" enable-background="new" fill="#fff" opacity=".47573" style="text-decoration-line:none;text-indent:0;text-transform:none" xlink:href="#h"/><text id="h" x="-256.61911" y="126.94469" color="#000000" enable-background="new" fill="#7f4109" font-family="RaveIn" style="line-height:0%;text-decoration-line:none;text-indent:0;text-transform:none" xml:space="preserve"><tspan x="-256.61911" y="126.94469" font-size="4.5885px" style="line-height:1.25">NO-TIME-FOR-ICONS</tspan></text><g fill="none" stroke-width="1.413"><path transform="matrix(.50014 0 0 .50014 -331.77 106.67)" d="m345.75 20c9.1272 8.6667 9.119 24.833 0 34.25" color="#000000" enable-background="new" filter="url(#a)" opacity=".3" stroke="url(#c)"/><path transform="matrix(.50014 0 0 .50014 -331.01 106.67)" d="m345.75 20c9.1272 8.6667 9.119 24.833 0 34.25" color="#000000" enable-background="new" filter="url(#a)" stroke="url(#b)"/></g><g transform="translate(1.5004)" fill="none" stroke-width="1.413"><path transform="matrix(.50014 0 0 .50014 -331.77 106.67)" d="m345.75 20c9.1272 8.6667 9.119 24.833 0 34.25" color="#000000" enable-background="new" filter="url(#a)" opacity=".3" stroke="url(#c)"/><path transform="matrix(.50014 0 0 .50014 -331.01 106.67)" d="m345.75 20c9.1272 8.6667 9.119 24.833 0 34.25" color="#000000" enable-background="new" filter="url(#a)" stroke="url(#b)"/></g><g transform="translate(2.9383)" fill="none" stroke-width="1.413"><path transform="matrix(.50014 0 0 .50014 -331.77 106.67)" d="m345.75 20c9.1272 8.6667 9.119 24.833 0 34.25" color="#000000" enable-background="new" filter="url(#a)" opacity=".3" stroke="url(#c)"/><path transform="matrix(.50014 0 0 .50014 -331.01 106.67)" d="m345.75 20c9.1272 8.6667 9.119 24.833 0 34.25" color="#000000" enable-background="new" filter="url(#a)" stroke="url(#b)"/></g><g transform="translate(4.5638)" fill="none" stroke-width="1.413"><path transform="matrix(.50014 0 0 .50014 -331.77 106.67)" d="m345.75 20c9.1272 8.6667 9.119 24.833 0 34.25" color="#000000" enable-background="new" filter="url(#a)" opacity=".3" stroke="url(#c)"/><path transform="matrix(.50014 0 0 .50014 -331.01 106.67)" d="m345.75 20c9.1272 8.6667 9.119 24.833 0 34.25" color="#000000" enable-background="new" filter="url(#a)" stroke="url(#b)"/></g><path d="m-163.16 116.05c6.5533 5.3933 4.5479 14.841 0.0938 18.536 7.4374-5.7109 5.5953-15.157-0.0938-18.536z" color="#000000" enable-background="new" fill="url(#w)"/></g></g></svg>
