<?xml version="1.0" encoding="UTF-8"?>
<svg enable-background="new" version="1.0" viewBox="0 0 256 256" xmlns="http://www.w3.org/2000/svg" xmlns:xlink="http://www.w3.org/1999/xlink"><defs><linearGradient id="g" x1="-74.52" x2="-74.52" y1="234.4" y2="254.96" gradientTransform="matrix(5.3333 0 0 5.4279 564 -613.74)" gradientUnits="userSpaceOnUse"><stop stop-color="#eeeeec" offset="0"/><stop stop-color="#fff" offset=".16228"/><stop stop-color="#f2f2f2" offset=".27494"/><stop stop-color="#eeeeec" offset=".38707"/><stop stop-color="#d9dad8" offset=".66529"/><stop stop-color="#dfe0dd" offset=".76746"/><stop stop-color="#f0f0f0" offset="1"/></linearGradient><clipPath id="i"><path d="m111.78 675.81c-7.901 2e-3 -15.558 5.1594-18.529 12.48-2.9711 7.3211-1.0737 16.356 4.5914 21.863l62.156 62.125 62.156-62.125c3.7071-3.7059 5.8656-8.9152 5.866-14.157 4.2e-4 -5.2418-2.1572-10.451-5.8637-14.158-3.7065-3.7065-8.9161-5.8641-14.158-5.8637-5.2417 4.2e-4 -10.451 2.1589-14.157 5.866l-33.844 33.844-33.844-33.844c-3.7282-3.8199-9.0373-6.0474-14.375-6.0312z" color="#000000" enable-background="new" fill="none" stroke="#000" stroke-width="2" style="text-decoration-line:none;text-indent:0;text-transform:none"/></clipPath><linearGradient id="f" x1="171.11" x2="171.11" y1="776.36" y2="622.64" gradientTransform="translate(2)" gradientUnits="userSpaceOnUse"><stop stop-color="#2e3436" offset="0"/><stop stop-color="#555753" offset=".47043"/><stop stop-color="#888a85" offset="1"/></linearGradient><filter id="h" color-interpolation-filters="sRGB"><feGaussianBlur stdDeviation="1.8022805"/></filter><radialGradient id="d" cx="-33.412" cy="185.74" r="2.3555" gradientTransform="matrix(.9224 0 0 .9224 -8.2977 14.555)" gradientUnits="userSpaceOnUse"><stop stop-color="#fff" offset="0"/><stop stop-color="#eeeeec" offset=".31808"/><stop stop-color="#c8c9c6" offset=".74691"/><stop stop-color="#d3d7cf" offset="1"/></radialGradient><radialGradient id="c" cx="-38.808" cy="186.24" r="2.0938" gradientTransform="matrix(1.2354 0 0 1.2354 9.21 -43.802)" gradientUnits="userSpaceOnUse"><stop stop-color="#fff" stop-opacity="0" offset="0"/><stop stop-color="#555753" stop-opacity="0" offset=".71734"/><stop stop-color="#2e3436" offset="1"/></radialGradient><radialGradient id="b" cx="-39.22" cy="183.99" r="2.0938" gradientTransform="matrix(-4.8585e-7 1.5944 -2.6771 -1.9128e-6 452.55 247.77)" gradientUnits="userSpaceOnUse"><stop stop-color="#fff" offset="0"/><stop stop-color="#fff" stop-opacity="0" offset="1"/></radialGradient><radialGradient id="a" cx="-40.004" cy="183.99" r="2.0938" gradientTransform="matrix(2.1634 0 0 2.1634 46.539 -214.04)" gradientUnits="userSpaceOnUse"><stop stop-color="#fff" offset="0"/><stop stop-color="#fff" stop-opacity="0" offset="1"/></radialGradient><radialGradient id="e" cx="428" cy="496" r="16" gradientTransform="matrix(1 0 0 .25 0 372)" gradientUnits="userSpaceOnUse"><stop offset="0"/><stop stop-opacity="0" offset="1"/></radialGradient></defs><g transform="translate(-16 -552)"><g><g transform="matrix(1.1111 0 0 1.1111 -571.11 217.33)" enable-background="new"><circle transform="matrix(8.597 0 0 8.597 989.79 -1200.5)" cx="-38.594" cy="186.41" r="2.0938" color="#000000" enable-background="new" fill="url(#d)"/><circle transform="matrix(8.597 0 0 8.597 989.79 -1200.5)" cx="-38.594" cy="186.41" r="2.0938" color="#000000" enable-background="new" fill="url(#c)"/><circle transform="matrix(5.8507 0 0 3.8209 883.8 -317.98)" cx="-38.594" cy="186.41" r="2.0938" color="#000000" enable-background="new" fill="url(#b)"/><circle transform="matrix(4.4795 0 0 -2.9253 830.88 957.43)" cx="-38.594" cy="186.41" r="2.0938" color="#000000" enable-background="new" fill="url(#a)" opacity=".65744"/></g><g transform="matrix(1.1111 0 0 1.1111 -595.11 161.33)" enable-background="new"><circle transform="matrix(8.597 0 0 8.597 989.79 -1200.5)" cx="-38.594" cy="186.41" r="2.0938" color="#000000" enable-background="new" fill="url(#d)"/><circle transform="matrix(8.597 0 0 8.597 989.79 -1200.5)" cx="-38.594" cy="186.41" r="2.0938" color="#000000" enable-background="new" fill="url(#c)"/><circle transform="matrix(5.8507 0 0 3.8209 883.8 -317.98)" cx="-38.594" cy="186.41" r="2.0938" color="#000000" enable-background="new" fill="url(#b)"/><circle transform="matrix(4.4795 0 0 -2.9253 830.88 957.43)" cx="-38.594" cy="186.41" r="2.0938" color="#000000" enable-background="new" fill="url(#a)" opacity=".65744"/></g><g transform="matrix(1.1111 0 0 1.1111 -651.11 177.33)" enable-background="new"><circle transform="matrix(8.597 0 0 8.597 989.79 -1200.5)" cx="-38.594" cy="186.41" r="2.0938" color="#000000" enable-background="new" fill="url(#d)"/><circle transform="matrix(8.597 0 0 8.597 989.79 -1200.5)" cx="-38.594" cy="186.41" r="2.0938" color="#000000" enable-background="new" fill="url(#c)"/><circle transform="matrix(5.8507 0 0 3.8209 883.8 -317.98)" cx="-38.594" cy="186.41" r="2.0938" color="#000000" enable-background="new" fill="url(#b)"/><circle transform="matrix(4.4795 0 0 -2.9253 830.88 957.43)" cx="-38.594" cy="186.41" r="2.0938" color="#000000" enable-background="new" fill="url(#a)" opacity=".65744"/></g><g transform="translate(-9.5139e-7 4)" clip-path="url(#i)" enable-background="new"><path d="m111.78 675.81c-7.901 2e-3 -15.558 5.1594-18.529 12.48-2.9711 7.3211-1.0737 16.356 4.5914 21.863l62.156 62.125 62.156-62.125c3.7071-3.7059 5.8656-8.9152 5.866-14.157 4.2e-4 -5.2418-2.1572-10.451-5.8637-14.158-3.7065-3.7065-8.9161-5.8641-14.158-5.8637-5.2417 4.2e-4 -10.451 2.1589-14.157 5.866l-33.844 33.844-33.844-33.844c-3.7282-3.8199-9.0373-6.0474-14.375-6.0312z" color="#000000" enable-background="new" fill="#fff" style="text-decoration-line:none;text-indent:0;text-transform:none"/><path d="m110.78 673.81c-7.901 2e-3 -15.558 5.1594-18.529 12.48-2.9711 7.3211-1.0737 16.356 4.5914 21.863l62.156 62.125 62.156-62.125c3.7071-3.7059 5.8656-8.9152 5.866-14.157 4.2e-4 -5.2418-2.1572-10.451-5.8637-14.158-3.7065-3.7065-8.9161-5.8641-14.158-5.8637-5.2417 4.2e-4 -10.451 2.1589-14.157 5.866l-33.844 33.844-33.844-33.844c-3.7282-3.8199-9.0373-6.0474-14.375-6.0312z" color="#000000" enable-background="new" fill="none" filter="url(#h)" stroke="url(#f)" stroke-width="3" style="text-decoration-line:none;text-indent:0;text-transform:none"/></g><path d="m112 700 48 48 48-48" color="#000000" enable-background="new" fill="none" stroke="url(#g)" stroke-linecap="round" stroke-width="30"/><g transform="translate(90,280)" enable-background="new" fill="url(#e)" fill-rule="evenodd"><ellipse transform="matrix(3.6125 0 0 2.25 -1476.2 -623)" cx="428" cy="496" rx="16" ry="4" color="#000000" display="block" enable-background="new" opacity=".15"/><ellipse transform="matrix(.76251 0 0 .87501 -256.35 61.497)" cx="428" cy="496" rx="16" ry="4" color="#000000" display="block" enable-background="new" opacity=".3"/></g></g></g></svg>
