<?xml version="1.0" encoding="UTF-8"?>
<svg enable-background="new" version="1.0" viewBox="0 0 256 256" xmlns="http://www.w3.org/2000/svg" xmlns:xlink="http://www.w3.org/1999/xlink"><defs><filter id="j" x="-.13139" y="-1.3577" width="1.2628" height="3.7155" color-interpolation-filters="sRGB"><feGaussianBlur stdDeviation="6.7886885"/></filter><clipPath id="l"><path d="m635.59 303.81c-5.1284 0.14678-10.169 2.3576-13.75 6.0312l-90.125 90.156 90.125 90.156c3.7059 3.7071 8.9145 5.8746 14.156 5.875 5.2418 4.2e-4 10.45-2.1685 14.156-5.875 3.7065-3.7065 5.8754-8.9145 5.875-14.156-4.2e-4 -5.2417-2.1679-10.45-5.875-14.156l-61.844-61.844 61.844-61.844c2.8734-2.7894 4.8935-6.4499 5.6875-10.375s0.34456-8.0944-1.2188-11.781c-3.1266-7.3737-11.026-12.44-19.031-12.188zm-133.59 0.1875c-7.756 0-14 6.244-14 14v164c0 7.756 6.244 14 14 14s14-6.244 14-14v-164c0-7.756-6.244-14-14-14z" color="#000000" enable-background="new" fill="none" stroke="#2e3436" stroke-width="2" style="text-decoration-line:none;text-indent:0;text-transform:none"/></clipPath><filter id="k" color-interpolation-filters="sRGB"><feGaussianBlur stdDeviation="1.8022805"/></filter><linearGradient id="i" x1="-74.52" x2="-74.52" y1="169.06" y2="204.27" gradientTransform="matrix(-5.3333 0 0 5.4279 1180 -617.74)" gradientUnits="userSpaceOnUse"><stop stop-color="#eeeeec" offset="0"/><stop stop-color="#fff" offset=".16228"/><stop stop-color="#f2f2f2" offset=".27494"/><stop stop-color="#eeeeec" offset=".38707"/><stop stop-color="#d9dad8" offset=".66529"/><stop stop-color="#dfe0dd" offset=".76746"/><stop stop-color="#f0f0f0" offset="1"/></linearGradient><radialGradient id="f" cx="220.5" cy="458" r="49.5" gradientTransform="matrix(1 0 0 .60606 0 180.42)" gradientUnits="userSpaceOnUse"><stop offset="0"/><stop stop-opacity="0" offset="1"/></radialGradient><linearGradient id="h" x1="415.32" x2="323.54" y1="490" y2="490" gradientTransform="translate(0,2)" gradientUnits="userSpaceOnUse"><stop offset="0"/><stop stop-opacity="0" offset="1"/></linearGradient><radialGradient id="e" cx="428" cy="496" r="16" gradientTransform="matrix(1 0 0 .25 0 372)" gradientUnits="userSpaceOnUse"><stop offset="0"/><stop stop-opacity="0" offset="1"/></radialGradient><radialGradient id="d" cx="-33.412" cy="185.74" r="2.3555" gradientTransform="matrix(.9224 0 0 .9224 -8.2977 14.555)" gradientUnits="userSpaceOnUse"><stop stop-color="#fff" offset="0"/><stop stop-color="#eeeeec" offset=".31808"/><stop stop-color="#c8c9c6" offset=".74691"/><stop stop-color="#d3d7cf" offset="1"/></radialGradient><radialGradient id="c" cx="-38.808" cy="186.24" r="2.0938" gradientTransform="matrix(1.2354 0 0 1.2354 9.21 -43.802)" gradientUnits="userSpaceOnUse"><stop stop-color="#fff" stop-opacity="0" offset="0"/><stop stop-color="#555753" stop-opacity="0" offset=".71734"/><stop stop-color="#2e3436" offset="1"/></radialGradient><radialGradient id="b" cx="-39.22" cy="183.99" r="2.0938" gradientTransform="matrix(-4.8585e-7 1.5944 -2.6771 -1.9128e-6 452.55 247.77)" gradientUnits="userSpaceOnUse"><stop stop-color="#fff" offset="0"/><stop stop-color="#fff" stop-opacity="0" offset="1"/></radialGradient><radialGradient id="a" cx="-40.004" cy="183.99" r="2.0938" gradientTransform="matrix(2.1634 0 0 2.1634 46.539 -214.04)" gradientUnits="userSpaceOnUse"><stop stop-color="#fff" offset="0"/><stop stop-color="#fff" stop-opacity="0" offset="1"/></radialGradient><linearGradient id="g" x1="571.11" x2="571.11" y1="500.36" y2="297.48" gradientTransform="translate(2)" gradientUnits="userSpaceOnUse"><stop stop-color="#2e3436" offset="0"/><stop stop-color="#555753" offset=".47043"/><stop stop-color="#888a85" offset="1"/></linearGradient></defs><g transform="translate(-1416,-272)"><g><g transform="matrix(1.1111 0 0 1.1111 792.89 -46.667)" enable-background="new"><circle transform="matrix(8.597 0 0 8.597 989.79 -1200.5)" cx="-38.594" cy="186.41" r="2.0938" color="#000000" enable-background="new" fill="url(#d)"/><circle transform="matrix(8.597 0 0 8.597 989.79 -1200.5)" cx="-38.594" cy="186.41" r="2.0938" color="#000000" enable-background="new" fill="url(#c)"/><circle transform="matrix(5.8507 0 0 3.8209 883.8 -317.98)" cx="-38.594" cy="186.41" r="2.0938" color="#000000" enable-background="new" fill="url(#b)"/><circle transform="matrix(4.4795 0 0 -2.9253 830.88 957.43)" cx="-38.594" cy="186.41" r="2.0938" color="#000000" enable-background="new" fill="url(#a)" opacity=".65744"/></g><g transform="matrix(-1,0,0,1,2176,0)" clip-path="url(#l)" enable-background="new"><path d="m636 324-76 76 76 76" enable-background="new" fill="#fff" stroke="#fff" stroke-linecap="round" stroke-width="40"/><path d="m636.59 302.81c-5.1284 0.14678-10.169 2.3576-13.75 6.0312l-90.125 90.156 90.125 90.156c3.7059 3.7071 8.9145 5.8746 14.156 5.875 5.2418 4.2e-4 10.45-2.1685 14.156-5.875 3.7065-3.7065 5.8754-8.9145 5.875-14.156-4.2e-4 -5.2417-2.1679-10.45-5.875-14.156l-61.844-61.844 61.844-61.844c2.8734-2.7894 4.8935-6.4499 5.6875-10.375s0.34456-8.0944-1.2188-11.781c-3.1266-7.3737-11.026-12.44-19.031-12.188z" color="#000000" enable-background="new" fill="none" filter="url(#k)" stroke="url(#g)" stroke-width="3" style="text-decoration-line:none;text-indent:0;text-transform:none"/></g><g transform="matrix(1.1111 0 0 1.1111 736.89 -46.667)" enable-background="new"><circle transform="matrix(8.597 0 0 8.597 989.79 -1200.5)" cx="-38.594" cy="186.41" r="2.0938" color="#000000" enable-background="new" fill="url(#d)"/><circle transform="matrix(8.597 0 0 8.597 989.79 -1200.5)" cx="-38.594" cy="186.41" r="2.0938" color="#000000" enable-background="new" fill="url(#c)"/><circle transform="matrix(5.8507 0 0 3.8209 883.8 -317.98)" cx="-38.594" cy="186.41" r="2.0938" color="#000000" enable-background="new" fill="url(#b)"/><circle transform="matrix(4.4795 0 0 -2.9253 830.88 957.43)" cx="-38.594" cy="186.41" r="2.0938" color="#000000" enable-background="new" fill="url(#a)" opacity=".65744"/></g><g transform="matrix(-1 0 0 1 1967.2 0)" enable-background="new" fill-rule="evenodd"><rect transform="matrix(.94517 0 0 .628 32.165 184.02)" x="324" y="486" width="124" height="12" rx="40.447" ry="6" color="#000000" display="block" enable-background="new" fill="url(#h)" filter="url(#j)" opacity=".2"/><ellipse transform="matrix(1.1375 0 0 .87501 -58.853 61.497)" cx="428" cy="496" rx="16" ry="4" color="#000000" display="block" enable-background="new" fill="url(#e)" opacity=".3"/></g><g transform="translate(840)" enable-background="new" fill="url(#f)" fill-rule="evenodd"><ellipse transform="matrix(.89899 0 0 .31667 485.77 347.47)" cx="220.5" cy="458" rx="49.5" ry="30" color="#000000" display="block" enable-background="new" opacity=".02"/><ellipse transform="matrix(.89899 0 0 .31667 429.77 347.47)" cx="220.5" cy="458" rx="49.5" ry="30" color="#000000" display="block" enable-background="new" opacity=".02"/></g><path d="m1540 324 76 76-76 76" enable-background="new" fill="none" stroke="url(#i)" stroke-linecap="round" stroke-width="30"/></g></g></svg>
