<?xml version="1.0" encoding="UTF-8"?>
<svg enable-background="new" version="1.0" viewBox="0 0 256 256" xmlns="http://www.w3.org/2000/svg" xmlns:xlink="http://www.w3.org/1999/xlink"><defs><radialGradient id="a" cx="119.84" cy="177.19" r="13.435" gradientTransform="matrix(2.2089 .78473 -1.3469 3.7914 83.789 -580.41)" gradientUnits="userSpaceOnUse"><stop stop-color="#ef2929" offset="0"/><stop stop-color="#c00" offset=".67518"/><stop stop-color="#ef2929" offset="1"/></radialGradient><filter id="f" color-interpolation-filters="sRGB"><feGaussianBlur stdDeviation="0.12435899"/></filter><linearGradient id="c" x1="114.69" x2="140.18" y1="174" y2="183.05" gradientUnits="userSpaceOnUse"><stop stop-color="#eeeeec" offset="0"/><stop stop-color="#fff" offset=".1727"/><stop stop-color="#f2f2f2" offset=".27494"/><stop stop-color="#eeeeec" offset=".38707"/><stop stop-color="#d9dad8" offset=".66529"/><stop stop-color="#dfe0dd" offset=".76746"/><stop stop-color="#f0f0f0" offset="1"/></linearGradient><filter id="e" x="-.04894" y="-2.1534" width="1.0979" height="5.3067" color-interpolation-filters="sRGB"><feGaussianBlur stdDeviation="1.7944785"/></filter><clipPath id="i"><path transform="matrix(2.5842 7.2742 -7.2742 2.5842 1699.7 -714.15)" d="m137 191-9.2929 4.435-9.7071-3.435-4.435-9.2929 3.435-9.7071 9.2929-4.435 9.7071 3.435 4.435 9.2929z" color="#000000" enable-background="new" fill="none" stroke="#808080" stroke-width=".69152"/></clipPath><linearGradient id="d" x1="137.48" x2="115.59" y1="183.08" y2="176.7" gradientUnits="userSpaceOnUse"><stop stop-color="#2e3436" offset="0"/><stop stop-color="#555753" offset=".4971"/><stop stop-color="#888a85" offset="1"/></linearGradient><filter id="g" color-interpolation-filters="sRGB"><feGaussianBlur stdDeviation="0.26702852"/></filter><radialGradient id="b" cx="428" cy="496" r="16" gradientTransform="matrix(1 0 0 .25 0 372)" gradientUnits="userSpaceOnUse"><stop offset="0"/><stop stop-opacity="0" offset="1"/></radialGradient><filter id="h" x="-.039202" y="-.15681" width="1.0784" height="1.3136" color-interpolation-filters="sRGB"><feGaussianBlur stdDeviation="0.52269865"/></filter></defs><g transform="translate(-576,-552)"><g><g transform="matrix(1.0598 0 0 1 -46.315 1)" enable-background="new"><ellipse transform="matrix(4.8125 0 0 2.25 -1351.7 -343)" cx="428" cy="496" rx="16" ry="4" color="#000000" display="block" enable-background="new" fill="url(#b)" fill-rule="evenodd" filter="url(#h)" opacity=".21"/></g><g clip-path="url(#i)" enable-background="new"><path transform="matrix(2.5842 7.2742 -7.2742 2.5842 1699.7 -714.15)" d="m137 191-9.2929 4.435-9.7071-3.435-4.435-9.2929 3.435-9.7071 9.2929-4.435 9.7071 3.435 4.435 9.2929z" color="#000000" enable-background="new" fill="#fff"/><path transform="matrix(2.5842 7.2742 -7.2742 2.5842 1699.7 -714.15)" d="m136.71 191.04-9.2929 4.435-9.7071-3.435-4.435-9.2929 3.435-9.7071 9.2929-4.435 9.7071 3.435 4.435 9.2929z" color="#000000" enable-background="new" fill="none" filter="url(#g)" stroke="url(#d)" stroke-width=".38862"/></g><rect transform="matrix(1.1449 0 0 1 -102.01 0)" x="660" y="775" width="88" height="2" rx="17.768" ry="1" color="#000000" enable-background="new" filter="url(#e)" opacity=".62112"/><path transform="matrix(2.4496 6.8953 -6.8953 2.4496 1647.8 -641.54)" d="m137 191-9.2929 4.435-9.7071-3.435-4.435-9.2929 3.435-9.7071 9.2929-4.435 9.7071 3.435 4.435 9.2929z" color="#000000" enable-background="new" fill="url(#c)"/><path transform="matrix(1.9382 5.4556 -5.4556 1.9382 1450.8 -364.61)" d="m137 191-9.2929 4.435-9.7071-3.435-4.435-9.2929 3.435-9.7071 9.2929-4.435 9.7071 3.435 4.435 9.2929z" color="#000000" enable-background="new" filter="url(#f)" opacity=".5"/><path transform="matrix(1.9382 5.4556 -5.4556 1.9382 1450.8 -365.61)" d="m137 191-9.2929 4.435-9.7071-3.435-4.435-9.2929 3.435-9.7071 9.2929-4.435 9.7071 3.435 4.435 9.2929z" color="#000000" enable-background="new" fill="url(#a)"/></g></g></svg>
