<?xml version="1.0" encoding="UTF-8"?>
<svg enable-background="new" version="1.0" viewBox="0 0 256 256" xmlns="http://www.w3.org/2000/svg" xmlns:xlink="http://www.w3.org/1999/xlink"><defs><linearGradient id="c"><stop stop-color="#fff" offset="0"/><stop stop-color="#959595" offset="1"/></linearGradient><linearGradient id="g"><stop stop-color="#fff" offset="0"/><stop stop-color="#fff" stop-opacity="0" offset="1"/></linearGradient><clipPath id="al"><path d="m191.31 110.19c-2.8978 4.8323-3 7.8438-3 7.8438l-0.125 7.4688c-3.5212-0.0545-7.0355 0.24302-10.5 0.875l-1.3438-7.375s-0.59802-2.9279-4.25-7.2188c-2.5661 0.57901-5.0788 1.2896-7.5625 2.1562-0.82794 5.5734 0.21875 8.4062 0.21875 8.4062l2.75 6.9375c-3.274 1.2972-6.4161 2.9028-9.375 4.8125l-4.0625-6.2812s-1.6715-2.4646-6.6875-5.0312c-2.1492 1.5169-4.1933 3.1551-6.1562 4.9062 1.3679 5.466 3.4062 7.6562 3.4062 7.6562l5.1875 5.3438c-2.5284 2.4514-4.8096 5.1659-6.8125 8.0625l-6.125-4.25s-2.5086-1.6732-8.125-2.125c-1.405 2.2239-2.7004 4.5372-3.8438 6.9062 3.3556 4.5264 6.0938 5.75 6.0938 5.75l6.875 2.9688c-1.3978 3.2323-2.4768 6.6199-3.2188 10.062l-7.3125-1.5938s-2.9507-0.5757-8.3125 1.1562c-0.44705 2.5923-0.75649 5.2174-0.90625 7.8438 4.8323 2.8978 7.8438 3 7.8438 3l7.4688 0.125c-0.0545 3.5212 0.24302 7.0355 0.875 10.5l-7.3438 1.3438s-2.9591 0.59802-7.25 4.25c0.57901 2.5661 1.3208 5.0788 2.1875 7.5625 5.5734 0.82794 8.375-0.21875 8.375-0.21875l6.9375-2.75c1.2972 3.274 2.9341 6.4161 4.8438 9.375l-6.2812 4.0625s-2.4958 1.6715-5.0625 6.6875c1.5169 2.1492 3.1551 4.1933 4.9062 6.1562 5.466-1.3679 7.6562-3.4062 7.6562-3.4062l5.375-5.1875c2.4514 2.5284 5.1346 4.8096 8.0312 6.8125l-4.25 6.125s-1.6732 2.5086-2.125 8.125c2.2239 1.405 4.5372 2.7004 6.9062 3.8438 4.5264-3.3556 5.7812-6.0938 5.7812-6.0938l2.9688-6.875c3.2323 1.3978 6.5886 2.4768 10.031 3.2188l-1.5625 7.3125s-0.60695 2.9507 1.125 8.3125c2.5923 0.44705 5.2174 0.72524 7.8438 0.875 2.8978-4.8323 3-7.8125 3-7.8125l0.125-7.4688c3.5212 0.0545 7.0355-0.24302 10.5-0.875l1.3438 7.3438s0.59802 2.9591 4.25 7.25c2.5661-0.57901 5.11-1.3208 7.5938-2.1875 0.82794-5.5734-0.25-8.375-0.25-8.375l-2.75-6.9375c3.274-1.2972 6.4161-2.9341 9.375-4.8438l4.0625 6.2812s1.6715 2.4958 6.6875 5.0625c2.1492-1.5169 4.2245-3.1551 6.1875-4.9062-1.3679-5.466-3.4375-7.6562-3.4375-7.6562l-5.1875-5.375c2.5284-2.4514 4.8096-5.1346 6.8125-8.0312l6.1562 4.25s2.4773 1.642 8.0938 2.0938c1.405-2.2239 2.7004-4.5059 3.8438-6.875-3.3556-4.5264-6.0938-5.7812-6.0938-5.7812l-6.8438-2.9688c1.3978-3.2323 2.4768-6.5886 3.2188-10.031l7.2812 1.5625s2.9507 0.5757 8.3125-1.1562c0.44705-2.5923 0.75649-5.1862 0.90625-7.8125-4.8323-2.8978-7.8438-3-7.8438-3l-7.4688-0.125c0.0545-3.5212-0.24302-7.0355-0.875-10.5l7.3438-1.3438s2.9591-0.59802 7.25-4.25c-0.57901-2.5661-1.3208-5.11-2.1875-7.5938-5.5734-0.82794-8.375 0.25-8.375 0.25l-6.9375 2.75c-1.2972-3.274-2.9028-6.4474-4.8125-9.4062l6.25-4.0312s2.4958-1.6715 5.0625-6.6875c-1.5169-2.1492-3.1551-4.2245-4.9062-6.1875-5.466 1.3679-7.6562 3.4375-7.6562 3.4375l-5.3438 5.1875c-2.4514-2.5284-5.1659-4.8096-8.0625-6.8125l4.25-6.1562s1.6732-2.4773 2.125-8.0938c-2.2239-1.405-4.5372-2.7004-6.9062-3.8438-4.5264 3.3556-5.7812 6.0938-5.7812 6.0938l-2.9375 6.8438c-3.2323-1.3978-6.6199-2.4768-10.062-3.2188l1.5625-7.2812s0.60695-2.9507-1.125-8.3125c-2.5923-0.44705-5.2174-0.75649-7.8438-0.90625zm-3.9375 51.219c9.9411 0 18 8.0589 18 18s-8.0589 18-18 18-18-8.0589-18-18 8.0589-18 18-18z" color="#000000" enable-background="accumulate" fill="none" stroke="#000" stroke-width="2" xlink:href="#b"/></clipPath><filter id="aj"><feGaussianBlur stdDeviation="1.3845312"/></filter><filter id="ai"><feGaussianBlur stdDeviation="1.1586036"/></filter><filter id="ah"><feGaussianBlur stdDeviation="5.213716"/></filter><clipPath id="ak"><path d="m106.91 197.97c-2.2392-0.0193-4.4789 0.16172-6.6875 0.53125-2.729 5.2066-2 8.4375-2 8.4375l2.0625 7.3125c-2.9083 0.82104-5.6577 2.2233-8.0312 4.0938l-4.6875-5.9688s-2.1836-2.4917-8-3.3438c-1.597 1.5697-3.0746 3.2708-4.375 5.0938 1.7519 5.6114 4.5938 7.375 4.5938 7.375l6.625 3.7188c-1.4759 2.637-2.4255 5.5615-2.7812 8.5625l-7.5625-0.90625s-3.3159-0.22906-8.0312 3.2812c-0.0193 2.2392 0.16173 4.4789 0.53125 6.6875 5.2066 2.729 8.4688 2 8.4688 2l7.2812-2.0625c0.82104 2.9083 2.2233 5.6577 4.0938 8.0312l-5.9688 4.6875s-2.4917 2.1836-3.3438 8c1.5697 1.597 3.2708 3.0433 5.0938 4.3438 5.6114-1.7519 7.375-4.5625 7.375-4.5625l3.7188-6.625c2.637 1.4759 5.5615 2.4255 8.5625 2.7812l-0.90625 7.5312s-0.22906 3.3472 3.2812 8.0625c2.2392 0.0193 4.4789-0.16172 6.6875-0.53125 2.729-5.2066 2-8.4688 2-8.4688l-2.0625-7.2812c2.9083-0.82104 5.6577-2.2233 8.0312-4.0938l4.6875 5.9375s2.1836 2.5229 8 3.375c1.597-1.5697 3.0433-3.2708 4.3438-5.0938-1.7519-5.6114-4.5625-7.375-4.5625-7.375l-6.625-3.7188c1.4759-2.637 2.4255-5.5615 2.7812-8.5625l7.5625 0.90625s3.3159 0.22906 8.0312-3.2812c0.0193-2.2392-0.16172-4.5102-0.53125-6.7188-5.2066-2.729-8.4688-1.9688-8.4688-1.9688l-7.2812 2.0625c-0.82104-2.9083-2.2233-5.6577-4.0938-8.0312l5.9688-4.6875s2.4917-2.1836 3.3438-8c-1.5697-1.597-3.2708-3.0746-5.0938-4.375-5.6114 1.7519-7.375 4.5938-7.375 4.5938l-3.7188 6.625c-2.637-1.4759-5.5615-2.4568-8.5625-2.8125l0.90625-7.5312s0.22906-3.3159-3.2812-8.0312zm-0.34375 31.031c4.1421 0 7.5 3.3579 7.5 7.5s-3.3579 7.5-7.5 7.5-7.5-3.3579-7.5-7.5 3.3579-7.5 7.5-7.5z" color="#000000" enable-background="accumulate" fill="none" stroke="#000" stroke-width="2" xlink:href="#a"/></clipPath><filter id="ag"><feGaussianBlur stdDeviation="1.1559794"/></filter><radialGradient id="r" cx="102.56" cy="260.5" r="38.533" gradientTransform="matrix(1.5306 .41013 -.41013 1.5306 52.417 -180.29)" gradientUnits="userSpaceOnUse"><stop offset="0"/><stop stop-opacity="0" offset="1"/></radialGradient><filter id="af"><feGaussianBlur stdDeviation="3.21"/></filter><filter id="ae" x="-.14572" y="-.50272" width="1.2914" height="2.0054"><feGaussianBlur stdDeviation="4.1893305"/></filter><filter id="ad" x="-.5861" y="-2.0221" width="2.1722" height="5.0441"><feGaussianBlur stdDeviation="16.850418"/></filter><radialGradient id="f" cx="184.5" cy="144.5" r="53.5" gradientTransform="matrix(.84196 0 0 .84196 -50.076 100.44)" gradientUnits="userSpaceOnUse" xlink:href="#c"/><radialGradient id="q" cx="187.47" cy="180.72" r="53.5" gradientTransform="matrix(.84196 0 0 .84196 -50.076 100.44)" gradientUnits="userSpaceOnUse" xlink:href="#c"/><filter id="ac"><feGaussianBlur stdDeviation="0.82845188"/></filter><filter id="ab" x="-.39065" y="-1.3477" width="1.7813" height="3.6955"><feGaussianBlur stdDeviation="11.231127"/></filter><radialGradient id="p" cx="80.591" cy="204.55" r="38.533" gradientTransform="matrix(.33035 1.2329 -1.3601 .36445 354.34 35.846)" gradientUnits="userSpaceOnUse"><stop stop-color="#e9ebe7" offset="0"/><stop stop-color="#90928e" offset="1"/></radialGradient><filter id="aa"><feGaussianBlur stdDeviation="1.2897957"/></filter><filter id="z" x="-.24603" y="-.24603" width="1.4921" height="1.4921"><feGaussianBlur stdDeviation="7.8999985"/></filter><linearGradient id="x" x1="123.12" x2="134.38" y1="251.06" y2="260.06" gradientUnits="userSpaceOnUse"><stop offset="0"/><stop stop-color="#959595" offset="1"/></linearGradient><linearGradient id="d"><stop offset="0"/><stop stop-color="#959595" offset="1"/></linearGradient><linearGradient id="w" x1="123.12" x2="134.38" y1="251.06" y2="260.06" gradientTransform="rotate(46.3 106.45 236.61)" gradientUnits="userSpaceOnUse" xlink:href="#d"/><linearGradient id="v" x1="123.12" x2="134.38" y1="251.06" y2="260.06" gradientTransform="rotate(94.248 106.6 237.65)" gradientUnits="userSpaceOnUse" xlink:href="#d"/><linearGradient id="u" x1="123.12" x2="134.38" y1="251.06" y2="260.06" gradientTransform="rotate(140.26 106.49 238)" gradientUnits="userSpaceOnUse" xlink:href="#d"/><radialGradient id="o" cx="112.35" cy="250.78" r="8.5608" gradientTransform="matrix(1.7359 0 0 1.7359 -82.683 -184.56)" gradientUnits="userSpaceOnUse"><stop stop-color="#fff" offset="0"/><stop stop-color="#fff" stop-opacity="0" offset="1"/></radialGradient><linearGradient id="t" x1="130.2" x2="135.5" y1="165.32" y2="315.84" gradientTransform="matrix(.90911 -.24359 .24359 .90911 15.677 -3.5829)" gradientUnits="userSpaceOnUse"><stop stop-color="#e9ebe7" offset="0"/><stop stop-color="#868885" offset="1"/></linearGradient><linearGradient id="s" x1="171.12" x2="171.12" y1="233.52" y2="86.391" gradientUnits="userSpaceOnUse"><stop offset="0"/><stop stop-opacity="0" offset="1"/></linearGradient><radialGradient id="n" cx="186.5" cy="214.5" r="53.5" gradientUnits="userSpaceOnUse" xlink:href="#c"/><radialGradient id="m" cx="194.94" cy="141.88" r="55.059" gradientTransform="matrix(2.0585 0 0 2.0585 -206.35 -150.18)" gradientUnits="userSpaceOnUse" xlink:href="#g"/><radialGradient id="l" cx="198.69" cy="195.65" r="55.059" gradientTransform="matrix(2.0585 0 0 2.0585 -206.35 -150.18)" gradientUnits="userSpaceOnUse" xlink:href="#g"/><radialGradient id="e" cx="184.5" cy="144.5" r="53.5" gradientTransform="matrix(2.0475 0 0 2.0475 -193.26 -151.36)" gradientUnits="userSpaceOnUse" xlink:href="#c"/><radialGradient id="k" cx="206.31" cy="244.31" r="3.0625" gradientTransform="matrix(1 0 0 .59184 0 99.719)" gradientUnits="userSpaceOnUse"><stop stop-color="#fff" offset="0"/><stop stop-color="#fff" stop-opacity="0" offset="1"/></radialGradient><radialGradient id="j" cx="179.81" cy="246.75" r="3.8125" gradientTransform="matrix(1 0 0 .2623 0 182.03)" gradientUnits="userSpaceOnUse"><stop stop-color="#fff" offset="0"/><stop stop-color="#fff" stop-opacity="0" offset="1"/></radialGradient><radialGradient id="i" cx="154.25" cy="238.62" r="2.875" gradientTransform="matrix(1 0 0 .78261 0 51.875)" gradientUnits="userSpaceOnUse"><stop stop-color="#fff" offset="0"/><stop stop-color="#fff" stop-opacity="0" offset="1"/></radialGradient><radialGradient id="h" cx="191.5" cy="224.5" r="44.5" gradientUnits="userSpaceOnUse"><stop stop-color="#fff" offset="0"/><stop stop-color="#fff" stop-opacity="0" offset="1"/></radialGradient></defs><g transform="translate(-8,-36)"><path transform="matrix(.9913 0 0 .9913 .42675 6.0568)" d="m106.91 197.97c-2.2392-0.0193-4.4789 0.16172-6.6875 0.53125-2.729 5.2066-2 8.4375-2 8.4375l2.0625 7.3125c-2.9083 0.82104-5.6577 2.2233-8.0312 4.0938l-4.6875-5.9688s-2.1836-2.4917-8-3.3438c-1.597 1.5697-3.0746 3.2708-4.375 5.0938 1.7519 5.6114 4.5938 7.375 4.5938 7.375l6.625 3.7188c-1.4759 2.637-2.4255 5.5615-2.7812 8.5625l-7.5625-0.90625s-3.3159-0.22906-8.0312 3.2812c-0.0193 2.2392 0.16173 4.4789 0.53125 6.6875 5.2066 2.729 8.4688 2 8.4688 2l7.2812-2.0625c0.82104 2.9083 2.2233 5.6577 4.0938 8.0312l-5.9688 4.6875s-2.4917 2.1836-3.3438 8c1.5697 1.597 3.2708 3.0433 5.0938 4.3438 5.6114-1.7519 7.375-4.5625 7.375-4.5625l3.7188-6.625c2.637 1.4759 5.5615 2.4255 8.5625 2.7812l-0.90625 7.5312s-0.22906 3.3472 3.2812 8.0625c2.2392 0.0193 4.4789-0.16172 6.6875-0.53125 2.729-5.2066 2-8.4688 2-8.4688l-2.0625-7.2812c2.9083-0.82104 5.6577-2.2233 8.0312-4.0938l4.6875 5.9375s2.1836 2.5229 8 3.375c1.597-1.5697 3.0433-3.2708 4.3438-5.0938-1.7519-5.6114-4.5625-7.375-4.5625-7.375l-6.625-3.7188c1.4759-2.637 2.4255-5.5615 2.7812-8.5625l7.5625 0.90625s3.3159 0.22906 8.0312-3.2812c0.0193-2.2392-0.16172-4.5102-0.53125-6.7188-5.2066-2.729-8.4688-1.9688-8.4688-1.9688l-7.2812 2.0625c-0.82104-2.9083-2.2233-5.6577-4.0938-8.0312l5.9688-4.6875s2.4917-2.1836 3.3438-8c-1.5697-1.597-3.2708-3.0746-5.0938-4.375-5.6114 1.7519-7.375 4.5938-7.375 4.5938l-3.7188 6.625c-2.637-1.4759-5.5615-2.4568-8.5625-2.8125l0.90625-7.5312s0.22906-3.3159-3.2812-8.0312zm-0.34375 31.031c4.1421 0 7.5 3.3579 7.5 7.5s-3.3579 7.5-7.5 7.5-7.5-3.3579-7.5-7.5 3.3579-7.5 7.5-7.5z" color="#000000" enable-background="accumulate" filter="url(#z)" opacity=".17021" xlink:href="#a"/><ellipse transform="matrix(1.111 0 0 .77599 -102.31 71.277)" cx="187.5" cy="243" rx="34.5" ry="10" color="#000000" enable-background="accumulate" filter="url(#ab)" opacity=".55319"/><path transform="translate(0,1.5)" d="m106.91 197.97c-2.2392-0.0193-4.4789 0.16172-6.6875 0.53125-2.729 5.2066-2 8.4375-2 8.4375l2.0625 7.3125c-2.9083 0.82104-5.6577 2.2233-8.0312 4.0938l-4.6875-5.9688s-2.1836-2.4917-8-3.3438c-1.597 1.5697-3.0746 3.2708-4.375 5.0938 1.7519 5.6114 4.5938 7.375 4.5938 7.375l6.625 3.7188c-1.4759 2.637-2.4255 5.5615-2.7812 8.5625l-7.5625-0.90625s-3.3159-0.22906-8.0312 3.2812c-0.0193 2.2392 0.16173 4.4789 0.53125 6.6875 5.2066 2.729 8.4688 2 8.4688 2l7.2812-2.0625c0.82104 2.9083 2.2233 5.6577 4.0938 8.0312l-5.9688 4.6875s-2.4917 2.1836-3.3438 8c1.5697 1.597 3.2708 3.0433 5.0938 4.3438 5.6114-1.7519 7.375-4.5625 7.375-4.5625l3.7188-6.625c2.637 1.4759 5.5615 2.4255 8.5625 2.7812l-0.90625 7.5312s-0.22906 3.3472 3.2812 8.0625c2.2392 0.0193 4.4789-0.16172 6.6875-0.53125 2.729-5.2066 2-8.4688 2-8.4688l-2.0625-7.2812c2.9083-0.82104 5.6577-2.2233 8.0312-4.0938l4.6875 5.9375s2.1836 2.5229 8 3.375c1.597-1.5697 3.0433-3.2708 4.3438-5.0938-1.7519-5.6114-4.5625-7.375-4.5625-7.375l-6.625-3.7188c1.4759-2.637 2.4255-5.5615 2.7812-8.5625l7.5625 0.90625s3.3159 0.22906 8.0312-3.2812c0.0193-2.2392-0.16172-4.5102-0.53125-6.7188-5.2066-2.729-8.4688-1.9688-8.4688-1.9688l-7.2812 2.0625c-0.82104-2.9083-2.2233-5.6577-4.0938-8.0312l5.9688-4.6875s2.4917-2.1836 3.3438-8c-1.5697-1.597-3.2708-3.0746-5.0938-4.375-5.6114 1.7519-7.375 4.5938-7.375 4.5938l-3.7188 6.625c-2.637-1.4759-5.5615-2.4568-8.5625-2.8125l0.90625-7.5312s0.22906-3.3159-3.2812-8.0312zm-0.34375 31.031c4.1421 0 7.5 3.3579 7.5 7.5s-3.3579 7.5-7.5 7.5-7.5-3.3579-7.5-7.5 3.3579-7.5 7.5-7.5z" color="#000000" enable-background="accumulate" filter="url(#aa)" opacity=".4766" xlink:href="#a"/><path id="a" d="m106.91 197.97c-2.2392-0.0193-4.4789 0.16172-6.6875 0.53125-2.729 5.2066-2 8.4375-2 8.4375l2.0625 7.3125c-2.9083 0.82104-5.6577 2.2233-8.0312 4.0938l-4.6875-5.9688s-2.1836-2.4917-8-3.3438c-1.597 1.5697-3.0746 3.2708-4.375 5.0938 1.7519 5.6114 4.5938 7.375 4.5938 7.375l6.625 3.7188c-1.4759 2.637-2.4255 5.5615-2.7812 8.5625l-7.5625-0.90625s-3.3159-0.22906-8.0312 3.2812c-0.0193 2.2392 0.16173 4.4789 0.53125 6.6875 5.2066 2.729 8.4688 2 8.4688 2l7.2812-2.0625c0.82104 2.9083 2.2233 5.6577 4.0938 8.0312l-5.9688 4.6875s-2.4917 2.1836-3.3438 8c1.5697 1.597 3.2708 3.0433 5.0938 4.3438 5.6114-1.7519 7.375-4.5625 7.375-4.5625l3.7188-6.625c2.637 1.4759 5.5615 2.4255 8.5625 2.7812l-0.90625 7.5312s-0.22906 3.3472 3.2812 8.0625c2.2392 0.0193 4.4789-0.16172 6.6875-0.53125 2.729-5.2066 2-8.4688 2-8.4688l-2.0625-7.2812c2.9083-0.82104 5.6577-2.2233 8.0312-4.0938l4.6875 5.9375s2.1836 2.5229 8 3.375c1.597-1.5697 3.0433-3.2708 4.3438-5.0938-1.7519-5.6114-4.5625-7.375-4.5625-7.375l-6.625-3.7188c1.4759-2.637 2.4255-5.5615 2.7812-8.5625l7.5625 0.90625s3.3159 0.22906 8.0312-3.2812c0.0193-2.2392-0.16172-4.5102-0.53125-6.7188-5.2066-2.729-8.4688-1.9688-8.4688-1.9688l-7.2812 2.0625c-0.82104-2.9083-2.2233-5.6577-4.0938-8.0312l5.9688-4.6875s2.4917-2.1836 3.3438-8c-1.5697-1.597-3.2708-3.0746-5.0938-4.375-5.6114 1.7519-7.375 4.5938-7.375 4.5938l-3.7188 6.625c-2.637-1.4759-5.5615-2.4568-8.5625-2.8125l0.90625-7.5312s0.22906-3.3159-3.2812-8.0312zm-0.34375 31.031c4.1421 0 7.5 3.3579 7.5 7.5s-3.3579 7.5-7.5 7.5-7.5-3.3579-7.5-7.5 3.3579-7.5 7.5-7.5z" color="#000000" enable-background="accumulate" fill="url(#p)"/><path d="m106.5 214.5c-12.15 0-22 9.8497-22 22s9.8497 22 22 22c12.15 0 22-9.8497 22-22s-9.8497-22-22-22zm0 13.818c4.5189 0 8.1822 3.6633 8.1822 8.1822s-3.6633 8.1822-8.1822 8.1822c-4.5189 0-8.1822-3.6633-8.1822-8.1822s3.6633-8.1822 8.1822-8.1822z" color="#000000" enable-background="accumulate" fill="url(#q)"/><g id="y"><ellipse transform="matrix(1.2268 0 0 .72245 -41.533 59.445)" cx="187.5" cy="243" rx="34.5" ry="10" color="#000000" enable-background="accumulate" filter="url(#ad)" opacity=".55319"/><ellipse transform="translate(1,-8)" cx="187.5" cy="243" rx="34.5" ry="10" color="#000000" enable-background="accumulate" filter="url(#ae)" opacity=".37021"/><path transform="matrix(.99653 0 0 .99653 .4005 1.8729)" d="m191.31 110.19c-2.8978 4.8323-3 7.8438-3 7.8438l-0.125 7.4688c-3.5212-0.0545-7.0355 0.24302-10.5 0.875l-1.3438-7.375s-0.59802-2.9279-4.25-7.2188c-2.5661 0.57901-5.0788 1.2896-7.5625 2.1562-0.82794 5.5734 0.21875 8.4062 0.21875 8.4062l2.75 6.9375c-3.274 1.2972-6.4161 2.9028-9.375 4.8125l-4.0625-6.2812s-1.6715-2.4646-6.6875-5.0312c-2.1492 1.5169-4.1933 3.1551-6.1562 4.9062 1.3679 5.466 3.4062 7.6562 3.4062 7.6562l5.1875 5.3438c-2.5284 2.4514-4.8096 5.1659-6.8125 8.0625l-6.125-4.25s-2.5086-1.6732-8.125-2.125c-1.405 2.2239-2.7004 4.5372-3.8438 6.9062 3.3556 4.5264 6.0938 5.75 6.0938 5.75l6.875 2.9688c-1.3978 3.2323-2.4768 6.6199-3.2188 10.062l-7.3125-1.5938s-2.9507-0.5757-8.3125 1.1562c-0.44705 2.5923-0.75649 5.2174-0.90625 7.8438 4.8323 2.8978 7.8438 3 7.8438 3l7.4688 0.125c-0.0545 3.5212 0.24302 7.0355 0.875 10.5l-7.3438 1.3438s-2.9591 0.59802-7.25 4.25c0.57901 2.5661 1.3208 5.0788 2.1875 7.5625 5.5734 0.82794 8.375-0.21875 8.375-0.21875l6.9375-2.75c1.2972 3.274 2.9341 6.4161 4.8438 9.375l-6.2812 4.0625s-2.4958 1.6715-5.0625 6.6875c1.5169 2.1492 3.1551 4.1933 4.9062 6.1562 5.466-1.3679 7.6562-3.4062 7.6562-3.4062l5.375-5.1875c2.4514 2.5284 5.1346 4.8096 8.0312 6.8125l-4.25 6.125s-1.6732 2.5086-2.125 8.125c2.2239 1.405 4.5372 2.7004 6.9062 3.8438 4.5264-3.3556 5.7812-6.0938 5.7812-6.0938l2.9688-6.875c3.2323 1.3978 6.5886 2.4768 10.031 3.2188l-1.5625 7.3125s-0.60695 2.9507 1.125 8.3125c2.5923 0.44705 5.2174 0.72524 7.8438 0.875 2.8978-4.8323 3-7.8125 3-7.8125l0.125-7.4688c3.5212 0.0545 7.0355-0.24302 10.5-0.875l1.3438 7.3438s0.59802 2.9591 4.25 7.25c2.5661-0.57901 5.11-1.3208 7.5938-2.1875 0.82794-5.5734-0.25-8.375-0.25-8.375l-2.75-6.9375c3.274-1.2972 6.4161-2.9341 9.375-4.8438l4.0625 6.2812s1.6715 2.4958 6.6875 5.0625c2.1492-1.5169 4.2245-3.1551 6.1875-4.9062-1.3679-5.466-3.4375-7.6562-3.4375-7.6562l-5.1875-5.375c2.5284-2.4514 4.8096-5.1346 6.8125-8.0312l6.1562 4.25s2.4773 1.642 8.0938 2.0938c1.405-2.2239 2.7004-4.5059 3.8438-6.875-3.3556-4.5264-6.0938-5.7812-6.0938-5.7812l-6.8438-2.9688c1.3978-3.2323 2.4768-6.5886 3.2188-10.031l7.2812 1.5625s2.9507 0.5757 8.3125-1.1562c0.44705-2.5923 0.75649-5.1862 0.90625-7.8125-4.8323-2.8978-7.8438-3-7.8438-3l-7.4688-0.125c0.0545-3.5212-0.24302-7.0355-0.875-10.5l7.3438-1.3438s2.9591-0.59802 7.25-4.25c-0.57901-2.5661-1.3208-5.11-2.1875-7.5938-5.5734-0.82794-8.375 0.25-8.375 0.25l-6.9375 2.75c-1.2972-3.274-2.9028-6.4474-4.8125-9.4062l6.25-4.0312s2.4958-1.6715 5.0625-6.6875c-1.5169-2.1492-3.1551-4.2245-4.9062-6.1875-5.466 1.3679-7.6562 3.4375-7.6562 3.4375l-5.3438 5.1875c-2.4514-2.5284-5.1659-4.8096-8.0625-6.8125l4.25-6.1562s1.6732-2.4773 2.125-8.0938c-2.2239-1.405-4.5372-2.7004-6.9062-3.8438-4.5264 3.3556-5.7812 6.0938-5.7812 6.0938l-2.9375 6.8438c-3.2323-1.3978-6.6199-2.4768-10.062-3.2188l1.5625-7.2812s0.60695-2.9507-1.125-8.3125c-2.5923-0.44705-5.2174-0.75649-7.8438-0.90625zm-3.9375 51.219c9.9411 0 18 8.0589 18 18s-8.0589 18-18 18-18-8.0589-18-18 8.0589-18 18-18z" color="#000000" enable-background="accumulate" filter="url(#ah)" opacity=".44255" xlink:href="#b"/><path transform="matrix(.99653 0 0 .99653 .4005 1.8729)" d="m191.31 110.19c-2.8978 4.8323-3 7.8438-3 7.8438l-0.125 7.4688c-3.5212-0.0545-7.0355 0.24302-10.5 0.875l-1.3438-7.375s-0.59802-2.9279-4.25-7.2188c-2.5661 0.57901-5.0788 1.2896-7.5625 2.1562-0.82794 5.5734 0.21875 8.4062 0.21875 8.4062l2.75 6.9375c-3.274 1.2972-6.4161 2.9028-9.375 4.8125l-4.0625-6.2812s-1.6715-2.4646-6.6875-5.0312c-2.1492 1.5169-4.1933 3.1551-6.1562 4.9062 1.3679 5.466 3.4062 7.6562 3.4062 7.6562l5.1875 5.3438c-2.5284 2.4514-4.8096 5.1659-6.8125 8.0625l-6.125-4.25s-2.5086-1.6732-8.125-2.125c-1.405 2.2239-2.7004 4.5372-3.8438 6.9062 3.3556 4.5264 6.0938 5.75 6.0938 5.75l6.875 2.9688c-1.3978 3.2323-2.4768 6.6199-3.2188 10.062l-7.3125-1.5938s-2.9507-0.5757-8.3125 1.1562c-0.44705 2.5923-0.75649 5.2174-0.90625 7.8438 4.8323 2.8978 7.8438 3 7.8438 3l7.4688 0.125c-0.0545 3.5212 0.24302 7.0355 0.875 10.5l-7.3438 1.3438s-2.9591 0.59802-7.25 4.25c0.57901 2.5661 1.3208 5.0788 2.1875 7.5625 5.5734 0.82794 8.375-0.21875 8.375-0.21875l6.9375-2.75c1.2972 3.274 2.9341 6.4161 4.8438 9.375l-6.2812 4.0625s-2.4958 1.6715-5.0625 6.6875c1.5169 2.1492 3.1551 4.1933 4.9062 6.1562 5.466-1.3679 7.6562-3.4062 7.6562-3.4062l5.375-5.1875c2.4514 2.5284 5.1346 4.8096 8.0312 6.8125l-4.25 6.125s-1.6732 2.5086-2.125 8.125c2.2239 1.405 4.5372 2.7004 6.9062 3.8438 4.5264-3.3556 5.7812-6.0938 5.7812-6.0938l2.9688-6.875c3.2323 1.3978 6.5886 2.4768 10.031 3.2188l-1.5625 7.3125s-0.60695 2.9507 1.125 8.3125c2.5923 0.44705 5.2174 0.72524 7.8438 0.875 2.8978-4.8323 3-7.8125 3-7.8125l0.125-7.4688c3.5212 0.0545 7.0355-0.24302 10.5-0.875l1.3438 7.3438s0.59802 2.9591 4.25 7.25c2.5661-0.57901 5.11-1.3208 7.5938-2.1875 0.82794-5.5734-0.25-8.375-0.25-8.375l-2.75-6.9375c3.274-1.2972 6.4161-2.9341 9.375-4.8438l4.0625 6.2812s1.6715 2.4958 6.6875 5.0625c2.1492-1.5169 4.2245-3.1551 6.1875-4.9062-1.3679-5.466-3.4375-7.6562-3.4375-7.6562l-5.1875-5.375c2.5284-2.4514 4.8096-5.1346 6.8125-8.0312l6.1562 4.25s2.4773 1.642 8.0938 2.0938c1.405-2.2239 2.7004-4.5059 3.8438-6.875-3.3556-4.5264-6.0938-5.7812-6.0938-5.7812l-6.8438-2.9688c1.3978-3.2323 2.4768-6.5886 3.2188-10.031l7.2812 1.5625s2.9507 0.5757 8.3125-1.1562c0.44705-2.5923 0.75649-5.1862 0.90625-7.8125-4.8323-2.8978-7.8438-3-7.8438-3l-7.4688-0.125c0.0545-3.5212-0.24302-7.0355-0.875-10.5l7.3438-1.3438s2.9591-0.59802 7.25-4.25c-0.57901-2.5661-1.3208-5.11-2.1875-7.5938-5.5734-0.82794-8.375 0.25-8.375 0.25l-6.9375 2.75c-1.2972-3.274-2.9028-6.4474-4.8125-9.4062l6.25-4.0312s2.4958-1.6715 5.0625-6.6875c-1.5169-2.1492-3.1551-4.2245-4.9062-6.1875-5.466 1.3679-7.6562 3.4375-7.6562 3.4375l-5.3438 5.1875c-2.4514-2.5284-5.1659-4.8096-8.0625-6.8125l4.25-6.1562s1.6732-2.4773 2.125-8.0938c-2.2239-1.405-4.5372-2.7004-6.9062-3.8438-4.5264 3.3556-5.7812 6.0938-5.7812 6.0938l-2.9375 6.8438c-3.2323-1.3978-6.6199-2.4768-10.062-3.2188l1.5625-7.2812s0.60695-2.9507-1.125-8.3125c-2.5923-0.44705-5.2174-0.75649-7.8438-0.90625zm-3.9375 51.219c9.9411 0 18 8.0589 18 18s-8.0589 18-18 18-18-8.0589-18-18 8.0589-18 18-18z" color="#000000" enable-background="accumulate" filter="url(#ai)" opacity=".60426" xlink:href="#b"/><path id="b" d="m191.31 110.19c-2.8978 4.8323-3 7.8438-3 7.8438l-0.125 7.4688c-3.5212-0.0545-7.0355 0.24302-10.5 0.875l-1.3438-7.375s-0.59802-2.9279-4.25-7.2188c-2.5661 0.57901-5.0788 1.2896-7.5625 2.1562-0.82794 5.5734 0.21875 8.4062 0.21875 8.4062l2.75 6.9375c-3.274 1.2972-6.4161 2.9028-9.375 4.8125l-4.0625-6.2812s-1.6715-2.4646-6.6875-5.0312c-2.1492 1.5169-4.1933 3.1551-6.1562 4.9062 1.3679 5.466 3.4062 7.6562 3.4062 7.6562l5.1875 5.3438c-2.5284 2.4514-4.8096 5.1659-6.8125 8.0625l-6.125-4.25s-2.5086-1.6732-8.125-2.125c-1.405 2.2239-2.7004 4.5372-3.8438 6.9062 3.3556 4.5264 6.0938 5.75 6.0938 5.75l6.875 2.9688c-1.3978 3.2323-2.4768 6.6199-3.2188 10.062l-7.3125-1.5938s-2.9507-0.5757-8.3125 1.1562c-0.44705 2.5923-0.75649 5.2174-0.90625 7.8438 4.8323 2.8978 7.8438 3 7.8438 3l7.4688 0.125c-0.0545 3.5212 0.24302 7.0355 0.875 10.5l-7.3438 1.3438s-2.9591 0.59802-7.25 4.25c0.57901 2.5661 1.3208 5.0788 2.1875 7.5625 5.5734 0.82794 8.375-0.21875 8.375-0.21875l6.9375-2.75c1.2972 3.274 2.9341 6.4161 4.8438 9.375l-6.2812 4.0625s-2.4958 1.6715-5.0625 6.6875c1.5169 2.1492 3.1551 4.1933 4.9062 6.1562 5.466-1.3679 7.6562-3.4062 7.6562-3.4062l5.375-5.1875c2.4514 2.5284 5.1346 4.8096 8.0312 6.8125l-4.25 6.125s-1.6732 2.5086-2.125 8.125c2.2239 1.405 4.5372 2.7004 6.9062 3.8438 4.5264-3.3556 5.7812-6.0938 5.7812-6.0938l2.9688-6.875c3.2323 1.3978 6.5886 2.4768 10.031 3.2188l-1.5625 7.3125s-0.60695 2.9507 1.125 8.3125c2.5923 0.44705 5.2174 0.72524 7.8438 0.875 2.8978-4.8323 3-7.8125 3-7.8125l0.125-7.4688c3.5212 0.0545 7.0355-0.24302 10.5-0.875l1.3438 7.3438s0.59802 2.9591 4.25 7.25c2.5661-0.57901 5.11-1.3208 7.5938-2.1875 0.82794-5.5734-0.25-8.375-0.25-8.375l-2.75-6.9375c3.274-1.2972 6.4161-2.9341 9.375-4.8438l4.0625 6.2812s1.6715 2.4958 6.6875 5.0625c2.1492-1.5169 4.2245-3.1551 6.1875-4.9062-1.3679-5.466-3.4375-7.6562-3.4375-7.6562l-5.1875-5.375c2.5284-2.4514 4.8096-5.1346 6.8125-8.0312l6.1562 4.25s2.4773 1.642 8.0938 2.0938c1.405-2.2239 2.7004-4.5059 3.8438-6.875-3.3556-4.5264-6.0938-5.7812-6.0938-5.7812l-6.8438-2.9688c1.3978-3.2323 2.4768-6.5886 3.2188-10.031l7.2812 1.5625s2.9507 0.5757 8.3125-1.1562c0.44705-2.5923 0.75649-5.1862 0.90625-7.8125-4.8323-2.8978-7.8438-3-7.8438-3l-7.4688-0.125c0.0545-3.5212-0.24302-7.0355-0.875-10.5l7.3438-1.3438s2.9591-0.59802 7.25-4.25c-0.57901-2.5661-1.3208-5.11-2.1875-7.5938-5.5734-0.82794-8.375 0.25-8.375 0.25l-6.9375 2.75c-1.2972-3.274-2.9028-6.4474-4.8125-9.4062l6.25-4.0312s2.4958-1.6715 5.0625-6.6875c-1.5169-2.1492-3.1551-4.2245-4.9062-6.1875-5.466 1.3679-7.6562 3.4375-7.6562 3.4375l-5.3438 5.1875c-2.4514-2.5284-5.1659-4.8096-8.0625-6.8125l4.25-6.1562s1.6732-2.4773 2.125-8.0938c-2.2239-1.405-4.5372-2.7004-6.9062-3.8438-4.5264 3.3556-5.7812 6.0938-5.7812 6.0938l-2.9375 6.8438c-3.2323-1.3978-6.6199-2.4768-10.062-3.2188l1.5625-7.2812s0.60695-2.9507-1.125-8.3125c-2.5923-0.44705-5.2174-0.75649-7.8438-0.90625zm-3.9375 51.219c9.9411 0 18 8.0589 18 18s-8.0589 18-18 18-18-8.0589-18-18 8.0589-18 18-18z" color="#000000" enable-background="accumulate" fill="url(#t)"/><path d="m191.31 110.19c-2.8978 4.8323-3 7.8438-3 7.8438l-0.125 7.4688c-3.5212-0.0545-7.0355 0.24302-10.5 0.875l-1.3438-7.375s-0.59802-2.9279-4.25-7.2188c-2.5661 0.57901-5.0788 1.2896-7.5625 2.1562-0.82794 5.5734 0.21875 8.4062 0.21875 8.4062l2.75 6.9375c-3.274 1.2972-6.4161 2.9028-9.375 4.8125l-4.0625-6.2812s-1.6715-2.4646-6.6875-5.0312c-2.1492 1.5169-4.1933 3.1551-6.1562 4.9062 1.3679 5.466 3.4062 7.6562 3.4062 7.6562l5.1875 5.3438c-2.5284 2.4514-4.8096 5.1659-6.8125 8.0625l-6.125-4.25s-2.5086-1.6732-8.125-2.125c-1.405 2.2239-2.7004 4.5372-3.8438 6.9062 3.3556 4.5264 6.0938 5.75 6.0938 5.75l6.875 2.9688c-1.3978 3.2323-2.4768 6.6199-3.2188 10.062l-7.3125-1.5938s-2.9507-0.5757-8.3125 1.1562c-0.44705 2.5923-0.75649 5.2174-0.90625 7.8438 4.8323 2.8978 7.8438 3 7.8438 3l7.4688 0.125c-0.0545 3.5212 0.24302 7.0355 0.875 10.5l-7.3438 1.3438s-2.9591 0.59802-7.25 4.25c0.57901 2.5661 1.3208 5.0788 2.1875 7.5625 5.5734 0.82794 8.375-0.21875 8.375-0.21875l6.9375-2.75c1.2972 3.274 2.9341 6.4161 4.8438 9.375l-6.2812 4.0625s-2.4958 1.6715-5.0625 6.6875c1.5169 2.1492 3.1551 4.1933 4.9062 6.1562 5.466-1.3679 7.6562-3.4062 7.6562-3.4062l5.375-5.1875c2.4514 2.5284 5.1346 4.8096 8.0312 6.8125l-4.25 6.125s-1.6732 2.5086-2.125 8.125c2.2239 1.405 4.5372 2.7004 6.9062 3.8438 4.5264-3.3556 5.7812-6.0938 5.7812-6.0938l2.9688-6.875c3.2323 1.3978 6.5886 2.4768 10.031 3.2188l-1.5625 7.3125s-0.60695 2.9507 1.125 8.3125c2.5923 0.44705 5.2174 0.72524 7.8438 0.875 2.8978-4.8323 3-7.8125 3-7.8125l0.125-7.4688c3.5212 0.0545 7.0355-0.24302 10.5-0.875l1.3438 7.3438s0.59802 2.9591 4.25 7.25c2.5661-0.57901 5.11-1.3208 7.5938-2.1875 0.82794-5.5734-0.25-8.375-0.25-8.375l-2.75-6.9375c3.274-1.2972 6.4161-2.9341 9.375-4.8438l4.0625 6.2812s1.6715 2.4958 6.6875 5.0625c2.1492-1.5169 4.2245-3.1551 6.1875-4.9062-1.3679-5.466-3.4375-7.6562-3.4375-7.6562l-5.1875-5.375c2.5284-2.4514 4.8096-5.1346 6.8125-8.0312l6.1562 4.25s2.4773 1.642 8.0938 2.0938c1.405-2.2239 2.7004-4.5059 3.8438-6.875-3.3556-4.5264-6.0938-5.7812-6.0938-5.7812l-6.8438-2.9688c1.3978-3.2323 2.4768-6.5886 3.2188-10.031l7.2812 1.5625s2.9507 0.5757 8.3125-1.1562c0.44705-2.5923 0.75649-5.1862 0.90625-7.8125-4.8323-2.8978-7.8438-3-7.8438-3l-7.4688-0.125c0.0545-3.5212-0.24302-7.0355-0.875-10.5l7.3438-1.3438s2.9591-0.59802 7.25-4.25c-0.57901-2.5661-1.3208-5.11-2.1875-7.5938-5.5734-0.82794-8.375 0.25-8.375 0.25l-6.9375 2.75c-1.2972-3.274-2.9028-6.4474-4.8125-9.4062l6.25-4.0312s2.4958-1.6715 5.0625-6.6875c-1.5169-2.1492-3.1551-4.2245-4.9062-6.1875-5.466 1.3679-7.6562 3.4375-7.6562 3.4375l-5.3438 5.1875c-2.4514-2.5284-5.1659-4.8096-8.0625-6.8125l4.25-6.1562s1.6732-2.4773 2.125-8.0938c-2.2239-1.405-4.5372-2.7004-6.9062-3.8438-4.5264 3.3556-5.7812 6.0938-5.7812 6.0938l-2.9375 6.8438c-3.2323-1.3978-6.6199-2.4768-10.062-3.2188l1.5625-7.2812s0.60695-2.9507-1.125-8.3125c-2.5923-0.44705-5.2174-0.75649-7.8438-0.90625zm-3.9375 51.219c9.9411 0 18 8.0589 18 18s-8.0589 18-18 18-18-8.0589-18-18 8.0589-18 18-18z" clip-path="url(#al)" color="#000000" enable-background="accumulate" fill="none" filter="url(#aj)" stroke="url(#s)" stroke-width="2" xlink:href="#b"/><path d="m187.5 126c-29.547 0-53.5 23.953-53.5 53.5s23.953 53.5 53.5 53.5 53.5-23.953 53.5-53.5-23.953-53.5-53.5-53.5zm0 34c10.77 0 19.5 8.7304 19.5 19.5s-8.7304 19.5-19.5 19.5-19.5-8.7304-19.5-19.5 8.7304-19.5 19.5-19.5z" color="#000000" enable-background="accumulate" fill="url(#n)" opacity=".7234"/><circle transform="matrix(.96261 0 0 .96261 -1.6709 5.7308)" cx="196" cy="180" r="54" color="#000000" enable-background="accumulate" fill="none" stroke="url(#m)" stroke-width="2.0777"/><circle transform="matrix(.3885 0 0 .3885 111.85 109.07)" cx="196" cy="180" r="54" color="#000000" enable-background="accumulate" fill="none" stroke="url(#l)" stroke-width="5.148"/><path d="m168.5 130-4-8.5v-7.75l6.75-2.25 3.375 5.875 2.3161 9.2984-3.2366-9.2114-2.7045-3.212-5 1.75v5l4 8.5z" color="#000000" enable-background="accumulate" fill="#fff"/><path d="m188.25 126.5v-9.25l3.5-7.25 7.25 0.5 0.5 8.375-1.5-6.125-5.5-0.75-2.75 6 0.25 8.75z" color="#000000" enable-background="accumulate" fill="#fff"/><path d="m187.5 126c-29.547 0-53.5 23.953-53.5 53.5s23.953 53.5 53.5 53.5 53.5-23.953 53.5-53.5-23.953-53.5-53.5-53.5zm0 10.5c23.748 0 43 19.252 43 43s-19.252 43-43 43-43-19.252-43-43 19.252-43 43-43z" color="#000000" enable-background="accumulate" fill="url(#e)" filter="url(#af)" opacity=".7234"/><path d="m209.38 131c0.375-0.5 3.625-8.25 3.625-8.25l4.625-4.375 5.375 2.75-0.25 3.875-1.125-3-3.75-2-3.75 3.5-3.375 8.375z" color="#000000" enable-background="accumulate" fill="#fff"/><path d="m226.38 143.25 6.375-6.375 6.125-2.625 4 5.5-4.125-3.75-5 2.125-6.25 6.25z" color="#000000" enable-background="accumulate" fill="#fff"/><path d="m237.38 160.12 8.125-2.625 6.375-0.25 0.875 3-1.75-1.5-5.5-0.125-8 3z" color="#000000" enable-background="accumulate" fill="#fff"/><path d="m241 181.25 8.25 0.25 6.25 2.625-6.375-1.25-9-0.125z" color="#000000" enable-background="accumulate" fill="#fff"/><path d="m236.5 201.75 7 3 5.25 5.375-5.875-4.375-7.375-2.875z" color="#000000" enable-background="accumulate" fill="#fff" opacity=".77872"/><path d="m224.25 219 5.375 5.25 2.5 5.625-3.25-5.125-5.75-5.375z" color="#000000" enable-background="accumulate" fill="#fff" opacity=".47234"/><path d="m203.25 246.12 6-2 0.125-1.625z" color="#000000" enable-background="accumulate" fill="url(#k)" opacity=".47234"/><path d="m176.12 246.75 6.375 1 1.125-1.125-7.625-0.875z" color="#000000" enable-background="accumulate" fill="url(#j)" opacity=".47234"/><path d="m151.5 236.38-0.125 1 5.75 3.5z" color="#000000" enable-background="accumulate" fill="url(#i)" opacity=".47234"/><path d="m131.88 219.5 3.875 4.875-3.125-5.625 3.375-4.125 7.5-4.75-0.75-1-7.375 5.375z" color="#000000" enable-background="accumulate" fill="#fff" opacity=".47234"/><path d="m135 190-8.125 1.625-6 3.625 1.5 5.875-0.625-5.375 6.375-3.25 7.125-1.25z" color="#000000" enable-background="accumulate" fill="#fff"/><path d="m118.88 174.88 1.25-6.625 6.25-0.875 8.5 1.75-0.625 1.75-8-2.625-5.625 0.75z" color="#000000" enable-background="accumulate" fill="#fff"/><path d="m125.88 149.25 3.5-5.75 6.75 1.375 6.625 5.25-0.875 1-6.625-5.375-5.5-1.5z" color="#000000" enable-background="accumulate" fill="#fff"/><path d="m142.5 128 5.25-4.125 5.125 3.625 4.875 7.375-1.375 0.75-4.75-7.625-4.125-3.125z" color="#000000" enable-background="accumulate" fill="#fff"/><path d="m187.5 126c-29.547 0-53.5 23.953-53.5 53.5s23.953 53.5 53.5 53.5 53.5-23.953 53.5-53.5-23.953-53.5-53.5-53.5zm0 10.5c23.748 0 43 19.252 43 43s-19.252 43-43 43-43-19.252-43-43 19.252-43 43-43z" color="#000000" enable-background="accumulate" fill="url(#e)" opacity=".37021"/><circle transform="translate(-2,-5)" cx="189.5" cy="184.5" r="43.5" color="#000000" enable-background="accumulate" fill="none" opacity=".55319" stroke="url(#h)" stroke-width="2"/><path d="m224.75 219.25-8 5.25 1.75 2z" color="#000000" enable-background="accumulate" opacity=".55319"/><path d="m197 232.25c1-0.25 9.5-2.75 9.5-2.75l0.5 1.75-9.75 2.75z" color="#000000" enable-background="accumulate" opacity=".55319"/><path d="m176.5 232 10 1.25-0.75 2.25-9.75-1.75z" color="#000000" enable-background="accumulate" opacity=".55319"/><path d="m157 224 9 4.75-1.25 1.5z" color="#000000" enable-background="accumulate" opacity=".55319"/><path d="m148.25 216.25-6.25-7.25 5.75 9z" color="#000000" enable-background="accumulate" opacity=".55319"/><path d="m236.5 201.75-5.25 8.25 1.5 0.75z" color="#000000" enable-background="accumulate" opacity=".55319"/></g><use transform="matrix(.97545 0 0 .97545 -102.41 -68.565)" width="400" height="300" xlink:href="#y"/><path d="m106.5 214.5c-12.15 0-22 9.8497-22 22s9.8497 22 22 22c12.15 0 22-9.8497 22-22s-9.8497-22-22-22zm0 4.3178c9.7656 0 17.682 7.9166 17.682 17.682s-7.9166 17.682-17.682 17.682c-9.7656 0-17.682-7.9166-17.682-17.682s7.9166-17.682 17.682-17.682z" color="#000000" enable-background="accumulate" fill="url(#f)" filter="url(#ac)"/><path d="m106.91 197.97c-2.2392-0.0193-4.4789 0.16172-6.6875 0.53125-2.729 5.2066-2 8.4375-2 8.4375l2.0625 7.3125c-2.9083 0.82104-5.6577 2.2233-8.0312 4.0938l-4.6875-5.9688s-2.1836-2.4917-8-3.3438c-1.597 1.5697-3.0746 3.2708-4.375 5.0938 1.7519 5.6114 4.5938 7.375 4.5938 7.375l6.625 3.7188c-1.4759 2.637-2.4255 5.5615-2.7812 8.5625l-7.5625-0.90625s-3.3159-0.22906-8.0312 3.2812c-0.0193 2.2392 0.16173 4.4789 0.53125 6.6875 5.2066 2.729 8.4688 2 8.4688 2l7.2812-2.0625c0.82104 2.9083 2.2233 5.6577 4.0938 8.0312l-5.9688 4.6875s-2.4917 2.1836-3.3438 8c1.5697 1.597 3.2708 3.0433 5.0938 4.3438 5.6114-1.7519 7.375-4.5625 7.375-4.5625l3.7188-6.625c2.637 1.4759 5.5615 2.4255 8.5625 2.7812l-0.90625 7.5312s-0.22906 3.3472 3.2812 8.0625c2.2392 0.0193 4.4789-0.16172 6.6875-0.53125 2.729-5.2066 2-8.4688 2-8.4688l-2.0625-7.2812c2.9083-0.82104 5.6577-2.2233 8.0312-4.0938l4.6875 5.9375s2.1836 2.5229 8 3.375c1.597-1.5697 3.0433-3.2708 4.3438-5.0938-1.7519-5.6114-4.5625-7.375-4.5625-7.375l-6.625-3.7188c1.4759-2.637 2.4255-5.5615 2.7812-8.5625l7.5625 0.90625s3.3159 0.22906 8.0312-3.2812c0.0193-2.2392-0.16172-4.5102-0.53125-6.7188-5.2066-2.729-8.4688-1.9688-8.4688-1.9688l-7.2812 2.0625c-0.82104-2.9083-2.2233-5.6577-4.0938-8.0312l5.9688-4.6875s2.4917-2.1836 3.3438-8c-1.5697-1.597-3.2708-3.0746-5.0938-4.375-5.6114 1.7519-7.375 4.5938-7.375 4.5938l-3.7188 6.625c-2.637-1.4759-5.5615-2.4568-8.5625-2.8125l0.90625-7.5312s0.22906-3.3159-3.2812-8.0312zm-0.34375 31.031c4.1421 0 7.5 3.3579 7.5 7.5s-3.3579 7.5-7.5 7.5-7.5-3.3579-7.5-7.5 3.3579-7.5 7.5-7.5z" clip-path="url(#ak)" color="#000000" enable-background="accumulate" fill="none" filter="url(#ag)" stroke="url(#r)" stroke-width="2" xlink:href="#a"/><path d="m90 251.5-6.875 5.375-2.375 6 3.625 3.25s-3.25-3-3-3.5l2.75-5.5 6.625-5z" color="#000000" enable-background="accumulate" fill="#fff" opacity=".19149"/><path d="m104.38 267.38 1.25-8.875 0.875 0.125z" color="#000000" enable-background="accumulate" fill="#fff" opacity=".32766"/><path d="m125.38 248.75 7.25 4.125 3.375 5.875-3.875-5.375-7.375-4.25z" color="#000000" enable-background="accumulate" fill="#fff" opacity=".34043"/><path d="m128 232.25 9.375-2.375s6.375 1 6.375 1.5 0.125 5 0.125 5l-1.125-4.25-5.5-1.25-9.25 2.5z" color="#000000" enable-background="accumulate" fill="#fff" opacity=".39574"/><path d="m118.38 217.25 4.5-7.75 6-3 4.125 3-1.75 5.5 0.875-5-3.375-2.25-4.75 2.25-4.75 8.25z" color="#000000" enable-background="accumulate" fill="#fff"/><path d="m100.88 214.12-2.125-8.125 2.125-6.875 5.75-0.375 3 6.5-3.875-4.875-3.875 0.375-1.625 4.75 2.125 8.625z" color="#000000" enable-background="accumulate" fill="#fff"/><path d="m106.5 214.5c-12.15 0-22 9.8497-22 22s9.8497 22 22 22c12.15 0 22-9.8497 22-22s-9.8497-22-22-22zm0 4.3178c9.7656 0 17.682 7.9166 17.682 17.682s-7.9166 17.682-17.682 17.682c-9.7656 0-17.682-7.9166-17.682-17.682s7.9166-17.682 17.682-17.682z" color="#000000" enable-background="accumulate" fill="url(#f)" opacity=".66383"/><path d="m125.5 248.25-3.25 3.75 5.5 6.625 6.25 2.75 2.125-2.375-3.375-6.125z" color="#000000" enable-background="accumulate" fill="url(#x)" opacity=".22553"/><path d="m111.2 258.43-4.9565 0.24115-0.98982 8.5534 2.3298 6.4185 3.1852-0.10453 2.0965-6.6717z" color="#000000" enable-background="accumulate" fill="url(#w)" opacity=".25106"/><path d="m94.627 255.71-3.499-3.5188-7.0142 4.9942-3.2054 6.0291 2.2111 2.2951 6.3582-2.9121z" color="#000000" enable-background="accumulate" fill="url(#v)" opacity=".25106"/><path d="m85.321 242.27-0.77305-2.8363-7.9646 1.5464-6.8141-1.2443 0.13416 1.9348 6.8858 1.6775z" color="#000000" enable-background="accumulate" fill="url(#u)" opacity=".25106"/><path d="m77 214.38 3-3.75 6.5 2.375 5.5 6.75-1.375 1.25-4.625-6.875-5.75-2.25z" color="#000000" enable-background="accumulate" fill="#fff" opacity=".6766"/><path d="m84.125 235.12-9.125-0.75-6 2.5 6.25-1.875 8.75 0.75z" color="#000000" enable-background="accumulate" fill="#fff" opacity=".25106"/><circle transform="matrix(1.1706 0 0 1.1706 -24.951 -46.498)" cx="112.56" cy="241.81" r="8.0608" color="#000000" enable-background="accumulate" fill="none" stroke="url(#o)" stroke-width="1.7086"/><path d="m89.384 250.6 5.8104 4.9371-0.61872 2.0329z" color="#000000" enable-background="accumulate" opacity=".48085"/><path d="m104.48 258.72 7.513-0.70711 0.7071 1.591-8.3969-0.0884z" color="#000000" enable-background="accumulate" opacity=".48085"/><path d="m120.92 253.51 4.773-5.5685 0.53033 0.44194-4.773 6.364z" color="#000000" enable-background="accumulate" opacity=".48085"/></g></svg>
