<?xml version="1.0" encoding="UTF-8"?>
<svg enable-background="new" version="1.0" viewBox="0 0 256 256" xmlns="http://www.w3.org/2000/svg" xmlns:xlink="http://www.w3.org/1999/xlink"><defs><linearGradient id="a"><stop stop-color="#fff" offset="0"/><stop stop-color="#fff" stop-opacity="0" offset="1"/></linearGradient><filter id="p" x="-.15294" y="-1.2777" width="1.3059" height="3.5554" color-interpolation-filters="sRGB"><feGaussianBlur stdDeviation="12.776994"/></filter><clipPath id="t"><rect x="56" y="60" width="184" height="184" rx="25.053" ry="25.053" enable-background="new" fill="url(#radialGradient4319)" fill-rule="evenodd"/></clipPath><radialGradient id="e" cx="17.321" cy="6.8679" r="20.531" gradientTransform="matrix(13.339 1.2973e-6 -3.2848e-7 3.3774 -169.04 33.206)" gradientUnits="userSpaceOnUse"><stop stop-color="#fff" offset="0"/><stop stop-color="#dcdcdc" offset="1"/></radialGradient><radialGradient id="d" cx="176.67" cy="214.94" r="92" gradientTransform="matrix(1.5656 0 0 .95658 -83.703 9.3322)" gradientUnits="userSpaceOnUse"><stop stop-color="#eeeeec" offset="0"/><stop stop-color="#eeeeec" stop-opacity="0" offset="1"/></radialGradient><linearGradient id="l" x1="131.5" x2="131.5" y1="234.5" y2="206.98" gradientTransform="translate(0,1)" gradientUnits="userSpaceOnUse"><stop stop-color="#fff" offset="0"/><stop stop-color="#fff" stop-opacity="0" offset="1"/></linearGradient><filter id="r" x="-.036813" y="-.1621" width="1.0736" height="1.3242"><feGaussianBlur stdDeviation="2.6382812"/></filter><linearGradient id="k" x1="195.48" x2="100.52" y1="234.24" y2="69.761" gradientUnits="userSpaceOnUse"><stop stop-color="#2e3436" offset="0"/><stop stop-color="#888a85" offset="1"/></linearGradient><filter id="q"><feGaussianBlur stdDeviation="0.91999947"/></filter><linearGradient id="j" x1="22.586" x2="22.586" y1="34.15" y2="11.043" gradientTransform="matrix(3.2755 0 0 3.1279 72.546 74.943)" gradientUnits="userSpaceOnUse"><stop stop-color="#e3e3e3" offset="0"/><stop stop-color="#ccc" offset=".46023"/><stop stop-color="#dadada" stop-opacity=".67059" offset=".61971"/><stop stop-color="#d1d1d1" stop-opacity=".34286" offset="1"/></linearGradient><linearGradient id="i" x1="25.279" x2="28.284" y1="28.555" y2="38.454" gradientTransform="matrix(3.0923 0 0 3.7191 76.362 62.462)" gradientUnits="userSpaceOnUse"><stop offset="0"/><stop stop-opacity="0" offset="1"/></linearGradient><radialGradient id="c" cx="24.399" cy="29.1" r="6.027" gradientTransform="matrix(7.3641 0 0 6.9536 -28.066 -15.95)" gradientUnits="userSpaceOnUse"><stop stop-color="#525252" offset="0"/><stop offset="1"/></radialGradient><linearGradient id="h" x1="31.597" x2="24.446" y1="33.448" y2="21.067" gradientTransform="matrix(1.4568 0 0 2.3454 116 95.076)" gradientUnits="userSpaceOnUse" xlink:href="#b"/><linearGradient id="b"><stop stop-color="#fff" offset="0"/><stop stop-color="#d1d1d1" offset="1"/></linearGradient><linearGradient id="o" x1="24.446" x2="24.446" y1=".49847" y2="39.447" gradientTransform="matrix(3.1369 0 0 3.4855 73.894 68.135)" gradientUnits="userSpaceOnUse"><stop stop-color="#fbfbfb" offset="0"/><stop stop-color="#dcdcdc" offset="1"/></linearGradient><linearGradient id="n" x1="20.092" x2="31.799" y1="8.9472" y2="38.947" gradientTransform="matrix(3.3313 0 0 3.4855 69.142 68.135)" gradientUnits="userSpaceOnUse" xlink:href="#b"/><linearGradient id="m" x1="138.57" x2="166.01" y1="182.99" y2="182.99" gradientUnits="userSpaceOnUse"><stop stop-color="#8a8a8a" offset="0"/><stop stop-color="#717171" offset=".77653"/><stop stop-color="#b6b6b6" offset="1"/></linearGradient><radialGradient id="g" cx="60.073" cy="148.57" r=".88586" gradientTransform="matrix(14.333 -1 5.0807 72.823 -1555.8 -10611)" gradientUnits="userSpaceOnUse" xlink:href="#a"/><radialGradient id="f" cx="60.073" cy="148.57" r=".88586" gradientTransform="matrix(14.333 -1 5.0807 72.823 -1379.8 -10611)" gradientUnits="userSpaceOnUse" xlink:href="#a"/><filter id="s" x="-.034412" y="-.28749" width="1.0688" height="1.575"><feGaussianBlur stdDeviation="2.8748619"/></filter></defs><g transform="translate(-24 -34.03)"><g transform="matrix(1.1973 0 0 1.1973 -24.905 -20.37)" enable-background="new"><rect transform="matrix(.94656 0 0 .68863 7.8959 80.837)" x="47.5" y="222" width="200.5" height="24" rx="25.041" ry="12" color="#000000" enable-background="accumulate" filter="url(#p)" opacity=".117"/><rect transform="matrix(.85262 0 0 .68863 21.775 76.837)" x="47.5" y="222" width="200.5" height="24" rx="25.041" ry="12" color="#000000" enable-background="accumulate" filter="url(#s)" opacity=".59"/><g clip-path="url(#t)"><rect x="56" y="60" width="184" height="184" rx="25.053" ry="25.053" fill="url(#e)" fill-rule="evenodd"/><rect x="56" y="60" width="184" height="184" rx="25.053" ry="25.053" enable-background="new" fill="url(#d)" fill-rule="evenodd"/><path d="m62 189.94v30c0 10.657 8.4058 19.062 19.062 19.062h133.88c10.657 0 19.062-8.4058 19.062-19.062v-30c0 10.657-8.4058 19.062-19.062 19.062h-133.88c-10.657 0-19.062-8.4058-19.062-19.062z" enable-background="new" fill="url(#l)" fill-rule="evenodd" filter="url(#r)"/><rect x="56" y="60" width="184" height="184" rx="25.053" ry="25.053" enable-background="new" fill="none" filter="url(#q)" stroke="url(#k)" stroke-width="2"/></g><rect x="111.92" y="90.355" width="77.309" height="119.01" rx="7.3238" ry="8.3622" enable-background="new" fill="url(#o)" fill-rule="evenodd" stroke="url(#n)" stroke-linejoin="bevel" stroke-miterlimit="10" stroke-width="1.6704"/><rect x="133.63" y="112.67" width="37.051" height="78.101" rx="4.8658" ry="5.9445" enable-background="new" fill="url(#c)" fill-rule="evenodd" stroke="url(#h)" stroke-linejoin="bevel" stroke-miterlimit="10" stroke-width="1.6704"/><path d="m138.13 189.04 8.1998 9.8617 34.439-0.65748-8.7465-34.845-2.1866-34.845-2.1866 59.17z" enable-background="new" fill="url(#i)" fill-rule="evenodd" opacity=".31551"/><rect x="138.27" y="171.13" width="27.743" height="16.05" rx="3.2799" ry="3.9447" enable-background="new" fill="url(#m)" fill-rule="evenodd"/><rect x="138.36" y="118.41" width="27.56" height="61.205" rx="2.7333" ry="3.4212" enable-background="new" fill="url(#j)" fill-rule="evenodd"/><path transform="matrix(.8352 0 0 .8352 20.8 17.013)" d="m140.75 188.12v2.4688c0 2.2694 1.4682 4.0938 3.2812 4.0938h26.469c1.813 0 3.25-1.8244 3.25-4.0938v-2.4688c0 2.2694-1.437 4.0938-3.25 4.0938h-26.469c-1.813 0-3.2812-1.8244-3.2812-4.0938z" enable-background="new" fill="#fff" fill-opacity=".47642" fill-rule="evenodd"/><rect x="59.187" y="83.904" width="1.7717" height="129.34" rx="0" ry="0" color="#000000" enable-background="accumulate" fill="url(#g)"/><rect x="235.18" y="83.904" width="1.7717" height="129.34" rx="0" ry="0" color="#000000" enable-background="accumulate" fill="url(#f)"/></g></g></svg>
