<?xml version="1.0" encoding="UTF-8"?>
<svg enable-background="new" version="1.0" viewBox="0 0 256 256" xmlns="http://www.w3.org/2000/svg" xmlns:xlink="http://www.w3.org/1999/xlink"><defs><filter id="v" x="-.21127" y="-.42254" width="1.4225" height="1.8451" color-interpolation-filters="sRGB"><feGaussianBlur stdDeviation="3.5211268"/></filter><filter id="s" x="-.32535" y="-.6507" width="1.6507" height="2.3014" color-interpolation-filters="sRGB"><feGaussianBlur stdDeviation="5.4225352"/></filter><linearGradient id="b"><stop offset="0"/><stop stop-opacity="0" offset="1"/></linearGradient><filter id="t" x="-.36582" y="-.73163" width="1.7316" height="2.4633" color-interpolation-filters="sRGB"><feGaussianBlur stdDeviation="6.0969372"/></filter><filter id="u" x="-.64875" y="-1.2975" width="2.2975" height="3.595" color-interpolation-filters="sRGB"><feGaussianBlur stdDeviation="10.812478"/></filter><linearGradient id="q"><stop stop-color="#ece9e4" offset="0"/><stop stop-color="#ece9e4" stop-opacity="0" offset="1"/></linearGradient><filter id="y" color-interpolation-filters="sRGB"><feGaussianBlur stdDeviation="2.0322581"/></filter><filter id="x" color-interpolation-filters="sRGB"><feGaussianBlur stdDeviation="1.6733871"/></filter><clipPath id="aa"><path d="m-572 146-119 118c-14 16 4 34 20 24l135-107z" color="#000000" enable-background="accumulate" fill="none" stroke="#0e0d0b" stroke-width="4.1717"/></clipPath><filter id="r" color-interpolation-filters="sRGB"><feGaussianBlur stdDeviation="1.5245587"/></filter><filter id="z" color-interpolation-filters="sRGB"><feGaussianBlur stdDeviation="2.1612349"/></filter><filter id="w" color-interpolation-filters="sRGB"><feGaussianBlur stdDeviation="1.2789445"/></filter><linearGradient id="p" x1="-579.91" x2="-601" y1="198.92" y2="174.92" gradientUnits="userSpaceOnUse"><stop stop-color="#302c26" offset="0"/><stop stop-color="#897862" offset="1"/></linearGradient><radialGradient id="a" cx="-474" cy="233.42" r="64" gradientTransform="matrix(-.72785 -.68574 1.7812 -1.8906 -1234.8 351.27)" gradientUnits="userSpaceOnUse" xlink:href="#q"/><radialGradient id="n" cx="-353" cy="130.67" r="44" gradientTransform="matrix(1.8746 0 0 1.6616 122.73 -34.113)" gradientUnits="userSpaceOnUse"><stop stop-color="#fcaf3e" offset="0"/><stop stop-color="#fcaf3e" stop-opacity="0" offset="1"/></radialGradient><radialGradient id="m" cx="-411.31" cy="300.55" r="5.0563" gradientTransform="matrix(1 0 0 2.5958 0 -478.54)" gradientUnits="userSpaceOnUse"><stop stop-color="#fff" offset="0"/><stop stop-color="#fff" stop-opacity="0" offset="1"/></radialGradient><linearGradient id="o" x1="-612.6" x2="-633.69" y1="221.22" y2="194.45" gradientUnits="userSpaceOnUse"><stop stop-color="#0e0d0b" offset="0"/><stop stop-color="#0e0d0b" stop-opacity="0" offset="1"/></linearGradient><radialGradient id="l" cx="253.66" cy="265.8" r="33.527" gradientTransform="matrix(1 0 0 .62505 0 98.238)" gradientUnits="userSpaceOnUse"><stop offset="0"/><stop stop-opacity="0" offset="1"/></radialGradient><radialGradient id="k" cx="260.79" cy="264.24" r="32.312" gradientTransform="matrix(.74743 0 0 .39587 65.868 158.58)" gradientUnits="userSpaceOnUse" xlink:href="#b"/><radialGradient id="j" cx="272.9" cy="259.74" r="32.312" fx="252.1" fy="261.25" gradientTransform="matrix(.9761 0 0 .8851 4.5939 29.307)" gradientUnits="userSpaceOnUse" xlink:href="#b"/><radialGradient id="i" cx="-349.5" cy="-29.5" r="91.5" gradientTransform="matrix(1.2082 .6898 -.69754 1.1948 502.98 335.42)" gradientUnits="userSpaceOnUse"><stop stop-color="#321700" offset="0"/><stop stop-color="#502400" stop-opacity="0" offset="1"/></radialGradient><radialGradient id="h" cx="-229.5" cy="101.5" r="88.5" gradientTransform="matrix(.65215 .35957 -.37652 .62279 314.64 201.88)" gradientUnits="userSpaceOnUse"><stop stop-color="#fcba58" offset="0"/><stop stop-color="#fcba58" stop-opacity="0" offset="1"/></radialGradient><radialGradient id="g" cx="-422.93" cy="144.41" r="100.5" gradientTransform="matrix(1.3621 .78638 -.78638 1.3621 779.02 208.36)" gradientUnits="userSpaceOnUse"><stop stop-color="#fcaf3e" offset="0"/><stop stop-color="#321600" offset="1"/></radialGradient><radialGradient id="f" cx="-627" cy="71" r="29" gradientTransform="matrix(1 0 0 .58621 0 29.379)" gradientUnits="userSpaceOnUse"><stop stop-color="#fff" offset="0"/><stop stop-color="#fff" stop-opacity="0" offset="1"/></radialGradient><radialGradient id="e" cx="-194" cy="128.91" r="83" gradientUnits="userSpaceOnUse"><stop stop-color="#ece9e4" stop-opacity="0" offset="0"/><stop stop-color="#d3d0cc" stop-opacity=".18824" offset=".55556"/><stop stop-color="#363636" stop-opacity=".9435" offset="1"/></radialGradient><radialGradient id="d" cx="-184.35" cy="104.53" r="108.28" gradientTransform="matrix(1.5494 0 0 1.5494 101.29 -57.433)" gradientUnits="userSpaceOnUse"><stop stop-color="#fee6c4" offset="0"/><stop stop-color="#fcaf3e" stop-opacity="0" offset="1"/></radialGradient><radialGradient id="c" cx="-184.35" cy="104.53" r="108.28" gradientUnits="userSpaceOnUse"><stop stop-color="#fee7c4" offset="0"/><stop stop-color="#fcaf3e" stop-opacity="0" offset="1"/></radialGradient></defs><g transform="translate(-20,-30)"><ellipse transform="matrix(.36376 0 0 .36853 163.92 164.53)" cx="245" cy="262" rx="20" ry="10" color="#000000" enable-background="accumulate" fill-rule="evenodd" filter="url(#v)" opacity=".60766"/><ellipse transform="matrix(.67952 0 0 .60049 80.881 103.04)" cx="245" cy="262" rx="20" ry="10" color="#000000" enable-background="accumulate" fill="url(#l)" fill-rule="evenodd" filter="url(#s)" opacity=".90141"/><ellipse transform="matrix(1.7254 0 0 .71647 -198.56 74.08)" cx="245" cy="262" rx="20" ry="10" color="#000000" enable-background="accumulate" fill="url(#k)" fill-rule="evenodd" filter="url(#t)" opacity=".59809"/><ellipse transform="matrix(2.3903 0 0 .71647 -402.14 73.366)" cx="245" cy="262" rx="20" ry="17.965" color="#000000" enable-background="accumulate" fill="url(#j)" fill-rule="evenodd" filter="url(#u)" opacity=".50718"/><g transform="matrix(-.71914 0 0 .71914 -237.75 55.96)"><path d="m-572 146-119 118c-14 16 4 34 20 24l135-107z" color="#000000" enable-background="accumulate" fill="url(#p)"/><path transform="translate(-97,-72)" d="m-475 222-117 116-2 8 120-119 8 5z" color="#000000" enable-background="accumulate" fill="url(#a)" filter="url(#y)" opacity=".27049"/><path transform="translate(-97,-72)" d="m-475 222-117 115.29c-3.5355 2.8284-2 8.7071-2 8.7071l5.7757-10.214 111.85-110.22 10.373 6.432z" color="#000000" enable-background="accumulate" fill="url(#a)" opacity=".41584"/><path transform="matrix(1.5424 0 0 1.5424 288.81 -96.378)" d="m-549.75 171.3 10.746 9.7046-88 67z" color="#000000" enable-background="accumulate" fill="url(#n)" filter="url(#x)" opacity=".30738"/><path transform="translate(-281,-24)" d="m-405.25 287.75c-8.1502 8.3845-9.3967 16.531 1.75 24.25" color="#000000" enable-background="accumulate" fill="none" stroke="url(#m)" stroke-opacity=".12429" stroke-width="1.3803"/><path d="m-572 146-119 118c-14 16 4 34 20 24l135-107z" clip-path="url(#aa)" color="#000000" enable-background="accumulate" fill="none" filter="url(#r)" stroke="url(#o)" stroke-width="4.1717"/></g><path d="m148.25 51.311c-37.3-21.535-85.051-8.7406-106.59 28.56-21.535 37.3-8.7406 85.051 28.56 106.59 37.3 21.535 85.051 8.7406 106.59-28.56s8.7406-85.051-28.56-106.59zm-9.5044 16.462c28.213 16.289 37.891 52.406 21.602 80.62s-52.406 37.891-80.62 21.602c-28.213-16.289-37.891-52.406-21.602-80.62 16.289-28.213 52.406-37.891 80.62-21.602z" color="#000000" enable-background="accumulate" fill="url(#g)"/><path d="m75.114 180.25c31.859 17.566 72.643 7.1294 91.037-23.295 18.394-30.425 7.4654-69.373-24.393-86.939-0.74683-0.41178-1.5056-0.78725-2.2618-1.1684 27.471 16.747 36.544 51.385 20.086 78.606-16.922 27.991-54.444 37.592-83.754 21.432-28.505-15.717-38.782-50.046-23.76-77.666-0.45541 0.69113-0.91584 1.3787-1.347 2.0919-18.394 30.425-7.4654 69.373 24.393 86.939z" color="#000000" enable-background="accumulate" fill="url(#h)"/><path d="m143.38 58.342c-31.456-17.96-74.553-8.35-92.714 22.757-18.161 31.107-7.3711 70.929 24.085 88.889 0.73751 0.42082 1.4866 0.8049 2.2332 1.1946-27.123-17.123-36.082-52.537-19.832-80.37 16.708-28.619 53.756-38.435 82.695-21.912 28.145 16.069 38.292 51.168 23.46 79.409 0.44966-0.70663 0.90435-1.4096 1.3301-2.1388 18.161-31.107 16.21-63.858-21.256-87.829z" color="#000000" enable-background="accumulate" fill="url(#i)"/><circle transform="matrix(.56572 .33273 -.32662 .57631 240.14 55.808)" cx="-126" cy="184.5" r="107.2" color="#000000" enable-background="accumulate" fill="none" filter="url(#z)" stroke="url(#c)" stroke-width="1.5055"/><circle transform="matrix(.57259 .33273 -.33059 .57631 243.03 55.448)" cx="-126" cy="184.5" r="107.2" color="#000000" enable-background="accumulate" fill="none" stroke="url(#d)" stroke-width="1.4964"/><circle transform="matrix(.67532 .38989 -.38989 .67532 284.62 116.94)" cx="-194" cy="116" r="83" color="#000000" enable-background="accumulate" fill="url(#e)" opacity=".5"/><ellipse transform="matrix(.92964 .21764 -.21764 .92964 713.03 154.71)" cx="-627" cy="71" rx="29" ry="17" color="#000000" enable-background="accumulate" fill="url(#f)"/><ellipse transform="matrix(.45779 .10718 -.10718 .45779 409.34 118.95)" cx="-627" cy="71" rx="29" ry="17" color="#000000" enable-background="accumulate" fill="#fff" filter="url(#w)"/></g></svg>
