<?xml version="1.0" encoding="UTF-8"?>
<svg enable-background="new" version="1.0" viewBox="0 0 256 256" xmlns="http://www.w3.org/2000/svg" xmlns:xlink="http://www.w3.org/1999/xlink"><defs><linearGradient id="i"><stop stop-color="#fff" offset="0"/><stop stop-color="#fff" stop-opacity="0" offset="1"/></linearGradient><clipPath id="o"><rect x="36" y="364" width="224" height="224" rx="5.9375" ry="5.9375" enable-background="new" fill="#999" fill-rule="evenodd"/></clipPath><filter id="n"><feGaussianBlur stdDeviation="2.26"/></filter><radialGradient id="d" cx="148" cy="543.26" r="112" gradientTransform="matrix(1.5909 0 0 1.3409 -87.452 -145.45)" gradientUnits="userSpaceOnUse"><stop stop-color="#68bf14" offset="0"/><stop stop-color="#4e9a06" offset="1"/></radialGradient><filter id="b" x="-.012341" y="-.43384" width="1.0247" height="1.8677"><feGaussianBlur stdDeviation="1.1107227"/></filter><radialGradient id="a" cx="148" cy="53" r="108" gradientTransform="matrix(1.6687 0 0 .2364 -98.975 356.54)" gradientUnits="userSpaceOnUse" xlink:href="#i"/><filter id="m" x="-.086475" y="-.19598" width="1.1729" height="1.392"><feGaussianBlur stdDeviation="7.81875"/></filter><linearGradient id="h" x1="61.5" x2="61.5" y1="280.03" y2="198.13" gradientTransform="translate(0,322)" gradientUnits="userSpaceOnUse"><stop stop-color="#fff" offset="0"/><stop stop-color="#fff" stop-opacity="0" offset="1"/></linearGradient><radialGradient id="c" cx="148" cy="476" r="109" gradientTransform="matrix(2.4379 .1422 -.053523 .91761 -187.34 18.174)" gradientUnits="userSpaceOnUse"><stop stop-color="#fff" offset="0"/><stop stop-color="#fff" stop-opacity="0" offset="1"/></radialGradient><filter id="l"><feGaussianBlur stdDeviation="1.11"/></filter><linearGradient id="g" x1="137" x2="137" y1="542.4" y2="-87.094" gradientUnits="userSpaceOnUse"><stop stop-color="#274d03" offset="0"/><stop stop-color="#274d03" stop-opacity="0" offset="1"/></linearGradient><filter id="k" x="-.031316" y="-.714" width="1.0626" height="2.428"><feGaussianBlur stdDeviation="2.975"/></filter><filter id="j" x="-.062632" y="-1.428" width="1.1253" height="3.856"><feGaussianBlur stdDeviation="5.95"/></filter><radialGradient id="f" cx="69.01" cy="41.97" r="108.5" gradientTransform="matrix(2.1338 -.13825 .061209 .9447 -60.357 119.85)" gradientUnits="userSpaceOnUse"><stop stop-color="#fff" offset="0"/><stop stop-color="#fff" stop-opacity="0" offset="1"/></radialGradient><radialGradient id="e" cx="36" cy="351" r="112" gradientTransform="matrix(2.7881 -1.5982e-7 7.4212e-8 1.2946 -64.373 -103.42)" gradientUnits="userSpaceOnUse"><stop stop-color="#73d216" offset="0"/><stop stop-color="#73d216" stop-opacity="0" offset="1"/></radialGradient></defs><g transform="translate(-20 -32)"><g><rect transform="matrix(.99123 0 0 .78787 1.2982 55.276)" x="34" y="260" width="228" height="10" rx="6.0531" ry="5" enable-background="new" fill-rule="evenodd" filter="url(#j)" opacity=".7"/><rect transform="matrix(.99123 0 0 .78787 1.2982 55.276)" x="34" y="260" width="228" height="10" rx="6.0531" ry="5" enable-background="new" fill-rule="evenodd" filter="url(#k)" opacity=".7"/><g transform="translate(0,-322)" clip-path="url(#o)"><rect x="36" y="364" width="224" height="224" rx="5.9375" ry="5.9375" enable-background="new" fill="url(#d)" fill-rule="evenodd"/><rect x="36" y="364" width="224" height="224" rx="5.9375" ry="5.9375" enable-background="new" fill="url(#e)" fill-rule="evenodd" opacity=".5"/><rect transform="matrix(1.0093 0 0 1 -1.3704 0)" x="40" y="364" width="216" height="224" rx="5.7254" ry="5.9375" enable-background="new" fill="none" filter="url(#l)" opacity=".4" stroke="url(#c)" stroke-linecap="round" stroke-linejoin="round" stroke-width="1.9908"/><path d="m39.5 490.75v90c0 3.1866 2.5634 5.75 5.75 5.75h205.5c3.1866 0 5.75-2.5634 5.75-5.75v-90c0 3.1866-2.5634 5.75-5.75 5.75h-205.5c-3.1866 0-5.75-2.5634-5.75-5.75z" enable-background="new" fill="url(#h)" fill-rule="evenodd" filter="url(#m)" opacity=".3"/><path transform="matrix(1 0 0 .75588 0 92.348)" d="m45.725 366c-3.1719 0-5.7254 1.1407-5.7254 2.5614v3.5831c0-1.4207 2.5535-2.5614 5.7254-2.5614h204.55c3.1719 0 5.7254 1.1407 5.7254 2.5614v-3.5831c0-1.4207-2.5535-2.5614-5.7254-2.5614z" enable-background="new" fill="url(#a)" fill-rule="evenodd" filter="url(#b)" opacity=".5"/><rect x="36" y="364" width="224" height="224" rx="5.9375" ry="5.9375" enable-background="new" fill="none" filter="url(#n)" stroke="url(#g)" stroke-linecap="round" stroke-linejoin="round" stroke-width="2"/><path transform="matrix(1 0 0 -1 0 952.14)" d="m45.725 366c-3.1719 0-5.7254 1.1407-5.7254 2.5614v3.5831c0-1.4207 2.5535-2.5614 5.7254-2.5614h204.55c3.1719 0 5.7254 1.1407 5.7254 2.5614v-3.5831c0-1.4207-2.5535-2.5614-5.7254-2.5614z" enable-background="new" fill="url(#a)" fill-rule="evenodd" filter="url(#b)" opacity=".7"/></g><path d="m80 58v136.25c-11.902 1.532-21 9.7982-21 19.75 0 1.3697 0.17162 2.7075 0.5 4h20.5v28l-12 16h98l12-16h18l-12 16h20l12-16v-92h-26c-1.7537 2e-3 -3.4207-0.76265-4.5625-2.0938l-14.812-17.281-13.688 27.375 39.062 80h-18l-38-68-4.0312 32.656c-0.3418 4.148-3.8067 7.3411-7.9688 7.3438h-64c0-8.832 8.96-16 20-16h36.656l3.375-40.656c0.084-1.0115 0.35977-1.9978 0.8125-2.9062l14.219-28.438h-19.688l-14.25 23.156c-1.7432 2.8305-5.4508 3.7119-8.2812 1.9688s-3.7119-5.4508-1.9688-8.2812l16-26c1.0977-1.7745 3.0384-2.8514 5.125-2.8438h50c1.7537-2e-3 3.4207 0.76265 4.5625 2.0938l22.219 25.906h23.219v-84zm88 20c8.832 0 16 7.168 16 16s-7.168 16-16 16-16-7.168-16-16 7.168-16 16-16z" enable-background="new" fill="#fff" fill-rule="evenodd"/><path d="m42.741 46c-1.4002 0-2.419 1.0188-2.419 2.419v118.58l215.36-19.697v-98.884c0-1.4002-1.0188-2.419-2.419-2.419z" enable-background="new" fill="url(#f)" fill-rule="evenodd" opacity=".3"/></g></g></svg>
