<?xml version="1.0" encoding="UTF-8"?>
<svg enable-background="new" version="1.0" viewBox="0 0 256 256" xmlns="http://www.w3.org/2000/svg" xmlns:xlink="http://www.w3.org/1999/xlink"><defs><clipPath id="h"><path d="m717.78 575.81a14.001 14.001 0 0 0-13.781 14.188v15.062c-1.6256-1.3053-3.2859-2.5844-5-3.7812-16.227-11.33-34.867-16.924-53.375-17.188-30.846-0.43963-61.462 13.859-80.344 40.906l-0.15625 0.34375c-29.92 43.251-19.283 103.24 23.875 133.38 43.271 30.214 103.48 19.557 133.69-23.719a20.001 20.004 0 1 0-32.75-22.969c-17.836 25.55-52.422 31.776-77.969 13.938-25.547-17.838-31.774-52.45-13.938-78 17.836-25.55 52.422-31.776 77.969-13.938 0.89302 0.62355 1.7719 1.2969 2.625 1.9688h-20.625a14.001 14.001 0 1 0 0 28h60 14v-14-60a14.001 14.001 0 0 0-14.219-14.188z" color="#000000" enable-background="new" fill="none" stroke="#000" stroke-width="6.9089" style="text-decoration-line:none;text-indent:0;text-transform:none"/></clipPath><linearGradient id="e" x1="575.11" x2="575.11" y1="723.37" y2="557.44" gradientTransform="translate(2)" gradientUnits="userSpaceOnUse"><stop stop-color="#2e3436" offset="0"/><stop stop-color="#555753" offset=".4971"/><stop stop-color="#888a85" offset="1"/></linearGradient><filter id="g" color-interpolation-filters="sRGB"><feGaussianBlur stdDeviation="1.8022805"/></filter><radialGradient id="a" cx="428" cy="496" r="16" gradientTransform="matrix(1 0 0 .25 0 372)" gradientUnits="userSpaceOnUse"><stop offset="0"/><stop stop-opacity="0" offset="1"/></radialGradient><filter id="f" x="-.039202" y="-.15681" width="1.0784" height="1.3136" color-interpolation-filters="sRGB"><feGaussianBlur stdDeviation="0.52269865"/></filter><linearGradient id="c" x1="-74.52" x2="-74.52" y1="168.89" y2="204.27" gradientTransform="matrix(5.3333 0 0 5.4279 788 -337.74)" gradientUnits="userSpaceOnUse" xlink:href="#b"/><linearGradient id="b"><stop stop-color="#eeeeec" offset="0"/><stop stop-color="#fff" offset=".1727"/><stop stop-color="#f2f2f2" offset=".27494"/><stop stop-color="#eeeeec" offset=".38707"/><stop stop-color="#d9dad8" offset=".66529"/><stop stop-color="#dfe0dd" offset=".76746"/><stop stop-color="#f0f0f0" offset="1"/></linearGradient><linearGradient id="d" x1="37.646" x2="37.646" y1="53.66" y2="86.757" gradientUnits="userSpaceOnUse" xlink:href="#b"/></defs><g transform="translate(-296,-552)"><g><g transform="translate(-216)" clip-path="url(#h)" enable-background="new" fill="none"><g stroke="#fff" stroke-linecap="round"><path transform="matrix(5.7893 0 0 5.79 437.75 268.19)" d="m46.387 78.638a13.125 13.125 0 0 1-14.816 4.9696 13.125 13.125 0 0 1-9.0683-12.727 13.125 13.125 0 0 1 9.5352-12.381 13.125 13.125 0 0 1 14.621 5.517" color="#000000" enable-background="new" stroke-width="6.9089"/><path d="m718 590v60h-60" color="#000000" enable-background="new" stroke-width="28"/></g><path d="m716.78 573.81c-3.6599 0.0572-7.2739 1.6184-9.8243 4.244-2.5504 2.6256-4.006 6.2834-3.9569 9.9435v15.062c-1.6256-1.3053-3.2859-2.5844-5-3.7812-16.227-11.33-34.867-16.924-53.375-17.188-30.846-0.43963-61.462 13.859-80.344 40.906l-0.15625 0.34375c-29.92 43.251-19.283 103.24 23.875 133.38 43.271 30.214 103.48 19.557 133.69-23.719 3.0748-4.2842 4.3534-9.8168 3.47-15.016-0.88339-5.1991-3.9175-9.9988-8.2348-13.027s-9.863-4.2456-15.051-3.3049c-5.1884 0.94067-9.9539 4.0278-12.934 8.3786-17.836 25.55-52.422 31.776-77.969 13.938-25.547-17.838-31.774-52.45-13.938-78 17.836-25.55 52.422-31.776 77.969-13.938 0.89302 0.62355 1.7719 1.2969 2.625 1.9688h-20.625c-3.6982-0.0523-7.3945 1.433-10.028 4.0298s-4.1712 6.2717-4.1712 9.9702 1.5375 7.3735 4.1712 9.9702 6.33 4.0821 10.028 4.0298h60 14v-14-60c0.0501-3.733-1.4678-7.4622-4.1106-10.099-2.6427-2.6369-6.3754-4.1466-10.108-4.0883z" color="#000000" enable-background="new" filter="url(#g)" stroke="url(#e)" stroke-width="3" style="text-decoration-line:none;text-indent:0;text-transform:none"/></g><ellipse transform="matrix(4.8125 0 0 2.25 -1631.7 -343)" cx="428" cy="496" rx="16" ry="4" color="#000000" display="block" enable-background="new" fill="url(#a)" fill-rule="evenodd" filter="url(#f)" opacity=".21"/><ellipse transform="matrix(2 0 0 .87501 -428 341.5)" cx="428" cy="496" rx="16" ry="4" color="#000000" display="block" enable-background="new" fill="url(#a)" fill-rule="evenodd" opacity=".3"/><g transform="translate(-216)" color="#000000" enable-background="new" fill="none" stroke-linecap="round"><path transform="matrix(5.7893 0 0 5.79 437.75 268.19)" d="m46.387 78.638a13.125 13.125 0 0 1-14.816 4.9696 13.125 13.125 0 0 1-9.0683-12.727 13.125 13.125 0 0 1 9.5352-12.381 13.125 13.125 0 0 1 14.621 5.517" color="#000000" enable-background="new" stroke="url(#d)" stroke-width="5.1817"/><path d="m718 590v60h-60" color="#000000" enable-background="new" stroke="url(#c)" stroke-width="18"/></g></g></g></svg>
