<?xml version="1.0" encoding="UTF-8" standalone="no"?>
<svg
   xmlns:dc="http://purl.org/dc/elements/1.1/"
   xmlns:cc="http://creativecommons.org/ns#"
   xmlns:rdf="http://www.w3.org/1999/02/22-rdf-syntax-ns#"
   xmlns:svg="http://www.w3.org/2000/svg"
   xmlns="http://www.w3.org/2000/svg"
   xmlns:xlink="http://www.w3.org/1999/xlink"
   style="display:inline;enable-background:new"
   version="1.0"
   id="svg11300"
   height="256"
   width="256">
  <title
     id="title3004">Yaru Icon Theme Template</title>
  <defs
     id="defs3">
    <clipPath
       id="clipPath9430"
       clipPathUnits="userSpaceOnUse">
      <path
         style="color:#000000;display:inline;overflow:visible;visibility:visible;fill:#ffffff;fill-opacity:1;fill-rule:nonzero;stroke:none;stroke-width:1;marker:none;enable-background:new"
         d="m 166.0625,-196 h 179.875 C 491.2348,-196 512,-175.28677 512,-30.125 v 148.25 C 512,263.28618 491.2348,284 345.9375,284 H 166.0625 C 20.7652,284 0,263.28618 0,118.125 V -30.125 C 0,-175.28677 20.7652,-196 166.0625,-196 Z"
         id="path9432" />
    </clipPath>
    <clipPath
       id="clipPath1082"
       clipPathUnits="userSpaceOnUse">
      <path
         style="display:inline;opacity:1;fill:#8c59d9;fill-opacity:1;stroke:none;stroke-width:2;stroke-linecap:round;stroke-linejoin:round;stroke-miterlimit:4;stroke-dasharray:none;stroke-dashoffset:0;stroke-opacity:1;enable-background:new"
         d="M 361.9375,-212 C 507.2348,-212 528,-191.28677 528,-46.125 V 70.125 C 528,215.28618 507.2348,236 361.9375,236 H 214.0625 C 68.7652,236 48,215.28618 48,70.125 V -46.125 C 48,-191.28677 68.7652,-212 214.0625,-212 Z"
         id="path1084" />
    </clipPath>
    <linearGradient
       id="linearGradient927">
      <stop
         id="stop923"
         offset="0"
         style="stop-color:#ffffff;stop-opacity:1;" />
      <stop
         style="stop-color:#ffffff;stop-opacity:0.09803922"
         offset="0.125"
         id="stop933" />
      <stop
         style="stop-color:#ffffff;stop-opacity:0.09803922"
         offset="0.92500001"
         id="stop931" />
      <stop
         id="stop925"
         offset="1"
         style="stop-color:#ffffff;stop-opacity:0.49803922" />
    </linearGradient>
    <clipPath
       id="clipPath994"
       clipPathUnits="userSpaceOnUse">
      <path
         id="path996"
         d="m 335.73108,62 c -8.82418,0 -9.77365,0.90635 -9.7304,9.74838 V 84 96.25162 c -0.0433,8.84203 0.90622,9.74838 9.7304,9.74838 h 16.53919 c 8.82418,0 9.7304,-0.90625 9.7304,-9.74838 V 84 71.74838 C 362.00067,62.90625 361.09445,62 352.27027,62 Z"
         style="color:#000000;display:inline;overflow:visible;visibility:visible;fill:#cdcdcd;fill-opacity:1;fill-rule:nonzero;stroke:none;stroke-width:2;stroke-miterlimit:4;stroke-dasharray:none;stroke-opacity:1;marker:none;enable-background:accumulate" />
    </clipPath>
    <clipPath
       id="clipPath959"
       clipPathUnits="userSpaceOnUse">
      <path
         id="path961"
         d="m 330.1929,133.99999 c -5.61538,0 -6.21958,0.57678 -6.19206,6.20352 v 7.79648 7.79648 c -0.0276,5.62673 0.57668,6.20351 6.19206,6.20351 h 11.615 c 5.6154,0 6.19208,-0.5767 6.19208,-6.20351 v -7.79648 -7.79648 c 0,-5.6268 -0.5767,-6.20352 -6.19208,-6.20352 z"
         style="color:#000000;display:inline;overflow:visible;visibility:visible;opacity:1;fill:#46a926;fill-opacity:1;fill-rule:nonzero;stroke:none;stroke-width:2;stroke-miterlimit:4;stroke-dasharray:none;stroke-opacity:1;marker:none;enable-background:accumulate" />
    </clipPath>
    <clipPath
       id="clipPath971"
       clipPathUnits="userSpaceOnUse">
      <path
         id="path973"
         d="m 327.8652,189 c -4.41209,0 -4.88682,0.45318 -4.8652,4.87419 V 200 206.12581 C 322.9783,210.54682 323.45311,211 327.8652,211 h 8.2696 C 340.54689,211 341,210.54688 341,206.12581 V 200 193.87419 C 341,189.45313 340.54688,189 336.13479,189 Z"
         style="color:#000000;display:inline;overflow:visible;visibility:visible;opacity:1;fill:#46a926;fill-opacity:1;fill-rule:nonzero;stroke:none;stroke-width:2;stroke-miterlimit:4;stroke-dasharray:none;stroke-opacity:1;marker:none;enable-background:accumulate" />
    </clipPath>
    <clipPath
       id="clipPath983"
       clipPathUnits="userSpaceOnUse">
      <path
         style="color:#000000;display:inline;overflow:visible;visibility:visible;opacity:1;fill:#46a926;fill-opacity:1;fill-rule:nonzero;stroke:none;stroke-width:2;stroke-miterlimit:4;stroke-dasharray:none;stroke-opacity:1;marker:none;enable-background:accumulate"
         d="m 325.09646,237 c -2.80769,0 -3.10979,0.28839 -3.09603,3.10176 V 244 v 3.89824 c -0.0138,2.81337 0.28834,3.10176 3.09603,3.10176 h 5.8075 C 333.71166,251 334,250.71165 334,247.89824 V 244 240.10176 C 334,237.28836 333.71165,237 330.90396,237 Z"
         id="path985" />
    </clipPath>
    <linearGradient
       id="linearGradient4336-3">
      <stop
         id="stop4338-8"
         offset="0"
         style="stop-color:#5884f4;stop-opacity:1" />
      <stop
         style="stop-color:#5884f4;stop-opacity:1"
         offset="0.27800092"
         id="stop4344-3" />
      <stop
         id="stop4346-3"
         offset="0.27800092"
         style="stop-color:#2f5fdd;stop-opacity:1" />
      <stop
         style="stop-color:#2f5fdd;stop-opacity:1"
         offset="0.70735365"
         id="stop4350-1" />
      <stop
         style="stop-color:#234db8;stop-opacity:1"
         offset="0.70936078"
         id="stop4348-6" />
      <stop
         id="stop4340-0"
         offset="1"
         style="stop-color:#234db8;stop-opacity:1" />
    </linearGradient>
    <clipPath
       id="clipPath994-1"
       clipPathUnits="userSpaceOnUse">
      <path
         id="path996-8"
         d="m 335.73108,62 c -8.82418,0 -9.77365,0.90635 -9.7304,9.74838 V 84 96.25162 c -0.0433,8.84203 0.90622,9.74838 9.7304,9.74838 h 16.53919 c 8.82418,0 9.7304,-0.90625 9.7304,-9.74838 V 84 71.74838 C 362.00067,62.90625 361.09445,62 352.27027,62 Z"
         style="color:#000000;display:inline;overflow:visible;visibility:visible;fill:#cdcdcd;fill-opacity:1;fill-rule:nonzero;stroke:none;stroke-width:2;stroke-miterlimit:4;stroke-dasharray:none;stroke-opacity:1;marker:none;enable-background:accumulate" />
    </clipPath>
    <linearGradient
       gradientTransform="translate(-304,-311.99998)"
       gradientUnits="userSpaceOnUse"
       y2="268"
       x2="200"
       y1="44"
       x1="104"
       id="linearGradient11065"
       xlink:href="#linearGradient7537" />
    <linearGradient
       y2="188"
       x2="96"
       y1="4.0000062"
       x1="96"
       gradientTransform="matrix(0.23913043,0,0,0.23913032,321.04348,61.043494)"
       gradientUnits="userSpaceOnUse"
       id="linearGradient8590"
       xlink:href="#linearGradient927" />
    <linearGradient
       y2="292.76666"
       x2="38.099998"
       y1="249.69423"
       x1="13.735326"
       gradientTransform="matrix(0.94488193,0,0,0.94488229,-367.49999,-341.12993)"
       gradientUnits="userSpaceOnUse"
       id="linearGradient8588"
       xlink:href="#linearGradient7537" />
    <linearGradient
       y2="188"
       x2="96"
       y1="4.0000062"
       x1="96"
       gradientTransform="matrix(0.15217394,0,0,0.15217387,321.3913,133.39129)"
       gradientUnits="userSpaceOnUse"
       id="linearGradient8590-3"
       xlink:href="#linearGradient927" />
    <linearGradient
       y2="292.76666"
       x2="38.099998"
       y1="249.69423"
       x1="13.735326"
       gradientTransform="matrix(0.60892393,0,0,0.60892417,-351.14444,-313.70596)"
       gradientUnits="userSpaceOnUse"
       id="linearGradient8588-0"
       xlink:href="#linearGradient7537" />
    <linearGradient
       y2="188.00014"
       x2="95.999878"
       y1="3.9999957"
       x1="95.999878"
       gradientTransform="matrix(0.11956515,0,0,0.11956513,320.52176,188.52174)"
       gradientUnits="userSpaceOnUse"
       id="linearGradient8590-3-3"
       xlink:href="#linearGradient927" />
    <linearGradient
       y2="292.76666"
       x2="38.099998"
       y1="249.69423"
       x1="13.735326"
       gradientTransform="matrix(0.48293959,0,0,0.48293984,-344.01112,-331.42197)"
       gradientUnits="userSpaceOnUse"
       id="linearGradient8588-0-1"
       xlink:href="#linearGradient7537" />
    <linearGradient
       y2="188"
       x2="96"
       y1="4.0000062"
       x1="96"
       gradientTransform="matrix(0.0760869,0,0,0.07608688,320.69566,236.69567)"
       gradientUnits="userSpaceOnUse"
       id="linearGradient8590-3-3-4"
       xlink:href="#linearGradient927" />
    <linearGradient
       y2="292.76666"
       x2="38.099998"
       y1="249.69423"
       x1="13.735326"
       gradientTransform="matrix(0.31496064,0,0,0.31496077,-335.83331,-329.70993)"
       gradientUnits="userSpaceOnUse"
       id="linearGradient8588-0-1-5"
       xlink:href="#linearGradient7537" />
    <clipPath
       id="clipPath1348"
       clipPathUnits="userSpaceOnUse">
      <path
         style="display:inline;opacity:0.1;fill:#da1636;fill-opacity:1;stroke:none;stroke-width:2;stroke-linecap:round;stroke-linejoin:round;stroke-miterlimit:4;stroke-dasharray:none;stroke-dashoffset:0;stroke-opacity:1;enable-background:new"
         d="m 339.76513,135.56122 c 8.62214,1e-5 9.85437,1.23067 9.85437,9.85549 v 6.90662 c 0,8.62479 -1.23223,9.85549 -9.85437,9.85549 h -9.40807 c -8.62214,0 -9.85437,-1.2307 -9.85437,-9.85549 v -6.90663 c 0,-8.62482 1.23223,-9.85551 9.85437,-9.8555 z"
         id="path1350" />
    </clipPath>
    <clipPath
       id="clipPath1278"
       clipPathUnits="userSpaceOnUse">
      <path
         id="path1280"
         d="m 339.98751,134.06477 c 8.56743,0 9.79185,1.21924 9.79185,9.76386 v 7.47067 c 0,8.54459 -1.22442,9.76386 -9.79185,9.76386 h -9.97735 c -8.56744,0 -9.79186,-1.21927 -9.79186,-9.76386 v -7.47067 c 0,-8.54462 1.22442,-9.76386 9.79186,-9.76386 z"
         style="display:inline;opacity:0.1;fill:#da1636;fill-opacity:1;stroke:none;stroke-width:2;stroke-linecap:round;stroke-linejoin:round;stroke-miterlimit:4;stroke-dasharray:none;stroke-dashoffset:0;stroke-opacity:1;enable-background:new" />
    </clipPath>
    <clipPath
       id="clipPath1361"
       clipPathUnits="userSpaceOnUse">
      <path
         id="path1363"
         d="m 341.12109,133.5 c 9.08109,0 10.37891,1.29458 10.37891,10.36719 v 8.26562 c 0,9.07258 -1.29782,10.36719 -10.37891,10.36719 H 330.87891 C 321.79783,162.5 320.5,161.20539 320.5,152.13281 v -8.26562 c 0,-9.07261 1.29783,-10.36719 10.37891,-10.36719 z"
         style="display:inline;opacity:0.1;fill:#da1636;fill-opacity:1;stroke:none;stroke-width:2;stroke-linecap:round;stroke-linejoin:round;stroke-miterlimit:4;stroke-dasharray:none;stroke-dashoffset:0;stroke-opacity:1;enable-background:new" />
    </clipPath>
    <clipPath
       id="clipPath1221"
       clipPathUnits="userSpaceOnUse">
      <path
         style="display:inline;opacity:0.1;fill:#da1636;fill-opacity:1;stroke:none;stroke-width:2;stroke-linecap:round;stroke-linejoin:round;stroke-miterlimit:4;stroke-dasharray:none;stroke-dashoffset:0;stroke-opacity:1;enable-background:new"
         d="M 188.96875,44 C 261.6174,44 272,54.356615 272,126.9375 v 58.125 C 272,257.64309 261.6174,268 188.96875,268 h -73.9375 C 42.3826,268 32,257.64309 32,185.0625 v -58.125 C 32,54.356615 42.3826,44 115.03125,44 Z"
         id="path1223" />
    </clipPath>
    <clipPath
       id="clipPath1322"
       clipPathUnits="userSpaceOnUse">
      <path
         style="display:inline;opacity:0.1;fill:#da1636;fill-opacity:1;stroke:none;stroke-width:2;stroke-linecap:round;stroke-linejoin:round;stroke-miterlimit:4;stroke-dasharray:none;stroke-dashoffset:0;stroke-opacity:1;enable-background:new"
         d="m 339.2585,134.52626 c 8.67761,0 9.91777,1.24234 9.91777,9.94882 v 6.97244 c 0,8.70646 -1.24016,9.94882 -9.91777,9.94882 h -8.83154 c -8.67758,0 -9.91775,-1.24236 -9.91775,-9.94882 v -6.97244 c 0,-8.70648 1.24017,-9.94882 9.91777,-9.94882 z"
         id="path1324" />
    </clipPath>
    <clipPath
       id="clipPath1237"
       clipPathUnits="userSpaceOnUse">
      <path
         id="path1239"
         d="M 351.93164,62.5 C 365.55326,62.5 367.5,64.44187 367.5,78.05078 V 89.94922 C 367.5,103.55808 365.55326,105.5 351.93164,105.5 H 336.06836 C 322.44674,105.5 320.5,103.55808 320.5,89.94922 V 78.05078 C 320.5,64.44187 322.44674,62.5 336.06836,62.5 Z"
         style="opacity:1;fill:url(#linearGradient1241);fill-opacity:1;stroke:none;stroke-width:2;stroke-linecap:round;stroke-linejoin:round;stroke-miterlimit:4;stroke-dasharray:none;stroke-dashoffset:0;stroke-opacity:1" />
    </clipPath>
    <clipPath
       id="clipPath1205"
       clipPathUnits="userSpaceOnUse">
      <path
         id="path1207"
         d="m 341.12109,133.5 c 9.08109,0 10.37891,1.29458 10.37891,10.36719 v 8.26562 c 0,9.07258 -1.29782,10.36719 -10.37891,10.36719 H 330.87891 C 321.79783,162.5 320.5,161.20539 320.5,152.13281 v -8.26562 c 0,-9.07261 1.29783,-10.36719 10.37891,-10.36719 z"
         style="opacity:1;fill:#325fd1;fill-opacity:1;stroke:none;stroke-width:2;stroke-linecap:round;stroke-linejoin:round;stroke-miterlimit:4;stroke-dasharray:none;stroke-dashoffset:0;stroke-opacity:1" />
    </clipPath>
    <clipPath
       id="clipPath1231"
       clipPathUnits="userSpaceOnUse">
      <path
         style="opacity:1;fill:#325fd1;fill-opacity:1;stroke:none;stroke-width:2;stroke-linecap:round;stroke-linejoin:round;stroke-miterlimit:4;stroke-dasharray:none;stroke-dashoffset:0;stroke-opacity:1"
         d="m 335.71582,189.50031 c 6.81081,10e-6 7.78418,0.97093 7.78418,7.77539 v 5.44891 c 0,6.80444 -0.97337,7.77539 -7.78418,7.77539 h -7.43164 c -6.81081,0 -7.78418,-0.97095 -7.78418,-7.77539 v -5.44892 c 0,-6.80446 0.97337,-7.7754 7.78418,-7.77539 z"
         id="path1233" />
    </clipPath>
    <clipPath
       id="clipPath1225"
       clipPathUnits="userSpaceOnUse">
      <path
         style="opacity:1;fill:#325fd1;fill-opacity:1;stroke:none;stroke-width:2;stroke-linecap:round;stroke-linejoin:round;stroke-miterlimit:4;stroke-dasharray:none;stroke-dashoffset:0;stroke-opacity:1"
         d="m 330.31054,236.5 c 4.54055,0 5.18946,0.64729 5.18946,5.18359 v 3.63282 c 0,4.53629 -0.64891,5.18359 -5.18946,5.18359 h -4.62109 c -4.54053,0 -5.18945,-0.6473 -5.18945,-5.18359 v -3.63282 c 0,-4.5363 0.64892,-5.18359 5.18946,-5.18359 z"
         id="path1227" />
    </clipPath>
    <filter
       height="1.096"
       y="-0.048"
       width="1.096"
       x="-0.048"
       id="filter48952"
       style="color-interpolation-filters:sRGB">
      <feGaussianBlur
         id="feGaussianBlur48954"
         stdDeviation="4.48" />
    </filter>
    <filter
       height="1.024"
       y="-0.012"
       width="1.024"
       x="-0.012"
       id="filter48967"
       style="color-interpolation-filters:sRGB">
      <feGaussianBlur
         id="feGaussianBlur48969"
         stdDeviation="1.12" />
    </filter>
    <linearGradient
       id="linearGradient7537">
      <stop
         id="stop7539"
         offset="0"
         style="stop-color:#f37e40;stop-opacity:1" />
      <stop
         id="stop7541"
         offset="1"
         style="stop-color:#f34f17;stop-opacity:1" />
    </linearGradient>
    <filter
       height="1.0255001"
       y="-0.012749982"
       width="1.0226667"
       x="-0.011333348"
       id="filter5380"
       style="color-interpolation-filters:sRGB">
      <feGaussianBlur
         id="feGaussianBlur5382"
         stdDeviation="0.67999903" />
    </filter>
    <filter
       height="1.2549996"
       y="-0.12749982"
       width="1.226667"
       x="-0.11333348"
       id="filter5358"
       style="color-interpolation-filters:sRGB">
      <feGaussianBlur
         id="feGaussianBlur5360"
         stdDeviation="6.7999903" />
    </filter>
  </defs>
  <metadata
     id="metadata4">
    <rdf:RDF>
      <cc:Work
         rdf:about="">
        <dc:format>image/svg+xml</dc:format>
        <dc:type
           rdf:resource="http://purl.org/dc/dcmitype/StillImage" />
        <dc:creator>
          <cc:Agent>
            <dc:title>Yaru Team, based on the Suru template by Sam Hewitt and original Suru designs by Matthieu James</dc:title>
          </cc:Agent>
        </dc:creator>
        <dc:source />
        <cc:license
           rdf:resource="http://creativecommons.org/licenses/by-sa/4.0/" />
        <dc:title>Yaru Icon Theme Template</dc:title>
        <dc:subject>
          <rdf:Bag />
        </dc:subject>
        <dc:date />
        <dc:rights>
          <cc:Agent>
            <dc:title />
          </cc:Agent>
        </dc:rights>
        <dc:publisher>
          <cc:Agent>
            <dc:title />
          </cc:Agent>
        </dc:publisher>
        <dc:identifier />
        <dc:relation />
        <dc:language />
        <dc:coverage />
        <dc:description />
        <dc:contributor>
          <cc:Agent>
            <dc:title />
          </cc:Agent>
        </dc:contributor>
      </cc:Work>
      <cc:Work
         rdf:about="">
        <dc:format>image/svg+xml</dc:format>
        <dc:type
           rdf:resource="http://purl.org/dc/dcmitype/StillImage" />
      </cc:Work>
      <cc:License
         rdf:about="http://creativecommons.org/licenses/by-sa/4.0/">
        <cc:permits
           rdf:resource="http://creativecommons.org/ns#Reproduction" />
        <cc:permits
           rdf:resource="http://creativecommons.org/ns#Distribution" />
        <cc:requires
           rdf:resource="http://creativecommons.org/ns#Notice" />
        <cc:requires
           rdf:resource="http://creativecommons.org/ns#Attribution" />
        <cc:permits
           rdf:resource="http://creativecommons.org/ns#DerivativeWorks" />
        <cc:requires
           rdf:resource="http://creativecommons.org/ns#ShareAlike" />
      </cc:License>
    </rdf:RDF>
  </metadata>
  <g
     transform="translate(-24,-28)"
     id="layer1"
     style="display:inline">
    <g
       id="layer7"
       style="display:none">
      <text
         id="context"
         style="font-style:normal;font-variant:normal;font-weight:normal;font-stretch:normal;line-height:0%;font-family:'DejaVu Sans';-inkscape-font-specification:'DejaVu Sans';display:inline;fill:#000000;fill-opacity:1;stroke:none;enable-background:new"
         x="19.006836"
         xml:space="preserve"
         y="-8.2548828"><tspan
           id="tspan3933"
           x="19.006836"
           y="-8.2548828"
           style="font-style:normal;font-variant:normal;font-weight:normal;font-stretch:normal;font-size:18px;line-height:1.25;font-family:'DejaVu Sans';-inkscape-font-specification:'DejaVu Sans'">apps</tspan></text>
      <text
         id="icon-name"
         style="font-style:normal;font-variant:normal;font-weight:bold;font-stretch:normal;line-height:0%;font-family:'DejaVu Sans';-inkscape-font-specification:'DejaVu Sans Bold';text-align:start;writing-mode:lr-tb;text-anchor:start;display:inline;fill:#000000;fill-opacity:1;stroke:none;enable-background:new"
         x="146.48828"
         xml:space="preserve"
         y="-8.2548828"><tspan
           id="tspan3937"
           x="146.48828"
           y="-8.2548828"
           style="font-style:normal;font-variant:normal;font-weight:bold;font-stretch:normal;font-size:18px;line-height:1.25;font-family:'DejaVu Sans';-inkscape-font-specification:'DejaVu Sans Bold'">livepatch</tspan></text>
      <rect
         y="236"
         x="320"
         height="16"
         width="16"
         id="rect16x16"
         style="display:inline;overflow:visible;visibility:visible;fill:#cdcdcd;fill-opacity:1;fill-rule:nonzero;stroke:none;stroke-width:2;marker:none;enable-background:accumulate" />
      <rect
         y="188"
         x="320"
         height="24"
         width="24"
         id="rect24x24"
         style="display:inline;overflow:visible;visibility:visible;fill:#cdcdcd;fill-opacity:1;fill-rule:nonzero;stroke:none;stroke-width:2;marker:none;enable-background:accumulate" />
      <rect
         y="132"
         x="320"
         height="32"
         width="32"
         id="rect32x32"
         style="display:inline;overflow:visible;visibility:visible;fill:#cdcdcd;fill-opacity:1;fill-rule:nonzero;stroke:none;stroke-width:2;marker:none;enable-background:accumulate" />
      <rect
         style="display:inline;overflow:visible;visibility:visible;fill:#cdcdcd;fill-opacity:1;fill-rule:nonzero;stroke:none;stroke-width:2;marker:none;enable-background:accumulate"
         id="rect48x48"
         width="48"
         height="48"
         x="320"
         y="60" />
      <rect
         y="28"
         x="24"
         height="256"
         width="256"
         id="rect3951"
         style="display:inline;overflow:visible;visibility:visible;fill:#cdcdcd;fill-opacity:1;fill-rule:nonzero;stroke:none;stroke-width:2;marker:none;enable-background:accumulate" />
    </g>
    <g
       style="display:inline"
       id="layer8">
      <circle
         cx="152"
         cy="157"
         r="112"
         id="path11042-4"
         style="display:inline;opacity:0.1;fill:#000000;fill-opacity:1;stroke:none;stroke-width:1;stroke-linecap:round;stroke-linejoin:round;stroke-miterlimit:4;stroke-dasharray:none;stroke-opacity:1;filter:url(#filter48967);enable-background:new" />
      <circle
         cx="152"
         cy="157"
         r="112"
         id="path11042-9"
         style="display:inline;opacity:0.2;fill:#000000;fill-opacity:1;stroke:none;stroke-width:1;stroke-linecap:round;stroke-linejoin:round;stroke-miterlimit:4;stroke-dasharray:none;stroke-opacity:1;filter:url(#filter48952);enable-background:new" />
      <circle
         transform="scale(-1)"
         cx="-152"
         cy="-155.99998"
         r="112"
         id="path11042"
         style="display:inline;opacity:1;fill:url(#linearGradient11065);fill-opacity:1;stroke:none;stroke-width:1;stroke-linecap:round;stroke-linejoin:round;stroke-miterlimit:4;stroke-dasharray:none;stroke-opacity:1;enable-background:new" />
      <path
         d=""
         cx="152"
         cy="156"
         r="112"
         id="path11042-5"
         style="display:inline;opacity:1;fill:#ffffff;fill-opacity:1;stroke:none;stroke-width:1;stroke-linecap:round;stroke-linejoin:round;stroke-miterlimit:4;stroke-dasharray:none;stroke-opacity:1;enable-background:new" />
      <circle
         r="23"
         transform="scale(-1)"
         cy="-85.000015"
         cx="-344"
         id="path9498-0-0"
         style="display:inline;opacity:0.1;fill:#000000;fill-opacity:1;stroke:none;stroke-width:1.95437694;stroke-linecap:round;stroke-linejoin:round;stroke-miterlimit:4;stroke-dasharray:none;stroke-opacity:1;enable-background:new" />
      <circle
         transform="scale(-1)"
         r="22.5"
         cy="-84"
         cx="-344"
         id="path9498-6"
         style="display:inline;opacity:1;fill:url(#linearGradient8588);fill-opacity:1;stroke:none;stroke-width:1.86940372;stroke-linecap:round;stroke-linejoin:round;stroke-miterlimit:4;stroke-dasharray:none;stroke-opacity:1;enable-background:new" />
      <circle
         r="14.999996"
         transform="scale(-1)"
         cy="-149"
         cx="-336"
         id="path9498-0-0-2"
         style="display:inline;opacity:0.1;fill:#000000;fill-opacity:1;stroke:none;stroke-width:1.95437694;stroke-linecap:round;stroke-linejoin:round;stroke-miterlimit:4;stroke-dasharray:none;stroke-opacity:1;enable-background:new" />
      <circle
         transform="scale(-1)"
         r="14.5"
         cy="-148"
         cx="-336"
         id="path9498-6-5"
         style="display:inline;opacity:1;fill:url(#linearGradient8588-0);fill-opacity:1;stroke:none;stroke-width:1.86940372;stroke-linecap:round;stroke-linejoin:round;stroke-miterlimit:4;stroke-dasharray:none;stroke-opacity:1;enable-background:new" />
      <ellipse
         ry="11.476745"
         rx="11.999997"
         transform="scale(-1)"
         cy="-200.52327"
         cx="-332"
         id="path9498-0-0-2-3"
         style="display:inline;opacity:0.1;fill:#000000;fill-opacity:1;stroke:none;stroke-width:1.95437694;stroke-linecap:round;stroke-linejoin:round;stroke-miterlimit:4;stroke-dasharray:none;stroke-opacity:1;enable-background:new" />
      <ellipse
         transform="scale(-1)"
         ry="11.5"
         rx="11.499999"
         cy="-200"
         cx="-332"
         id="path9498-6-5-6"
         style="display:inline;opacity:1;fill:url(#linearGradient8588-0-1);fill-opacity:1;stroke:none;stroke-width:1.8694036;stroke-linecap:round;stroke-linejoin:round;stroke-miterlimit:4;stroke-dasharray:none;stroke-opacity:1;enable-background:new" />
      <ellipse
         ry="6.5"
         rx="6.9999981"
         transform="scale(-1)"
         cy="-244.5"
         cx="-328"
         id="path9498-0-0-2-3-3"
         style="display:inline;opacity:0.1;fill:#000000;fill-opacity:1;stroke:none;stroke-width:1.95437706;stroke-linecap:round;stroke-linejoin:round;stroke-miterlimit:4;stroke-dasharray:none;stroke-opacity:1;enable-background:new" />
      <circle
         transform="scale(-1)"
         r="7.5"
         cy="-244"
         cx="-328"
         id="path9498-6-5-6-8"
         style="display:inline;opacity:1;fill:url(#linearGradient8588-0-1-5);fill-opacity:1;stroke:none;stroke-width:1.86940384;stroke-linecap:round;stroke-linejoin:round;stroke-miterlimit:4;stroke-dasharray:none;stroke-opacity:1;enable-background:new" />
    </g>
    <g
       style="display:inline"
       id="layer6">
      <path
         id="path5281-3"
         d="m 148,96.000005 c -6.62742,0 -12,5.372585 -12,12.000005 0,6.62742 5.37258,12 12,12 0.45055,-0.005 0.90048,-0.0346 1.34765,-0.0898 0.78676,0.0585 1.66621,0.0898 2.65235,0.0898 a 40,40 0 0 1 40,40 40,40 0 0 1 -40,40 40,40 0 0 1 -39.14844,-32 h 13.7461 c 4.15216,-8.9e-4 6.74675,-2.69417 4.67187,-4.84961 l -24.59765,-25.5332 c -0.91856,-0.95362 -2.58271,-1.5614 -4.41797,-1.61328 -2.01601,-0.0565 -3.91674,0.56578 -4.925785,1.61328 l -24.597656,25.5332 c -2.07488,2.15544 0.519711,4.84873 4.671875,4.84961 h 11.113281 c 3.939742,31.56727 30.849735,56 63.484375,56 35.34621,0 64,-28.65378 64,-64 0,-35.34622 -28.65379,-64.000049 -64,-64.000005 -0.90189,10e-7 -1.68057,0.0461 -2.37306,0.125 -0.53885,-0.07853 -1.08242,-0.120296 -1.62694,-0.125 z"
         style="display:inline;opacity:0.1;fill:#000000;fill-opacity:1;stroke-width:0.80000001;filter:url(#filter5358);enable-background:new" />
      <path
         id="path5281-5"
         d="m 148,94.000005 c -6.62742,0 -12,5.372583 -12,12.000005 0,6.62742 5.37258,12 12,12 0.45055,-0.005 0.90048,-0.0346 1.34765,-0.0898 0.78676,0.0585 1.66621,0.0898 2.65235,0.0898 a 40,40 0 0 1 40,40 40,40 0 0 1 -40,40 40,40 0 0 1 -39.14844,-32 h 13.7461 c 4.15216,-8.9e-4 6.74675,-2.69417 4.67187,-4.84961 l -24.59765,-25.5332 c -0.91856,-0.95362 -2.58271,-1.5614 -4.41797,-1.61328 -2.01601,-0.0565 -3.91674,0.56578 -4.925785,1.61328 l -24.597656,25.5332 c -2.07488,2.15544 0.519711,4.84873 4.671875,4.84961 h 11.113281 c 3.939742,31.56727 30.849735,56 63.484375,56 35.34621,0 64,-28.65378 64,-64 0,-35.34622 -28.65379,-64.000049 -64,-64.000005 -0.90189,10e-7 -1.68057,0.0461 -2.37306,0.125 -0.53885,-0.07853 -1.08242,-0.120296 -1.62694,-0.125 z"
         style="display:inline;opacity:0.1;fill:#000000;fill-opacity:1;stroke-width:0.80000001;filter:url(#filter5380);enable-background:new" />
      <path
         id="path5281"
         d="m 148,92.000005 c -6.62742,0 -12,5.372583 -12,12.000005 0,6.62742 5.37258,12 12,12 0.45055,-0.005 0.90048,-0.0346 1.34765,-0.0898 0.78676,0.0585 1.66621,0.0898 2.65235,0.0898 a 40,40 0 0 1 40,40 40,40 0 0 1 -40,40 40,40 0 0 1 -39.14844,-32 h 13.7461 c 4.15216,-8.9e-4 6.74675,-2.69417 4.67187,-4.84961 l -24.59765,-25.5332 c -0.91856,-0.95362 -2.58271,-1.5614 -4.41797,-1.61328 -2.01601,-0.0565 -3.91674,0.56578 -4.925785,1.61328 l -24.597656,25.5332 c -2.07488,2.15544 0.519711,4.84873 4.671875,4.84961 h 11.113281 c 3.939742,31.56727 30.849735,56 63.484375,56 35.34621,0 64,-28.65378 64,-64 0,-35.34622 -28.65379,-64.000049 -64,-64.000005 -0.90189,10e-7 -1.68057,0.0461 -2.37306,0.125 -0.53885,-0.07853 -1.08242,-0.120296 -1.62694,-0.125 z"
         style="display:inline;fill:#faf8f6;fill-opacity:1;stroke-width:0.80000001;enable-background:new" />
      <path
         id="path5281-6-2"
         d="m 343.12491,71.000005 c -1.44976,0 -2.625,1.175252 -2.625,2.624996 0,1.449754 1.17525,2.625006 2.625,2.625006 0.0986,-9.84e-4 0.19698,-0.0079 0.2948,-0.01969 0.1721,0.0128 0.36448,0.01969 0.5802,0.01969 a 8.7500005,8.7500005 0 0 1 8.75,8.749998 8.7500005,8.7500005 0 0 1 -8.75,8.749998 8.7500005,8.7500005 0 0 1 -8.56373,-7 h 3.00696 c 0.90828,-1.97e-4 1.47585,-0.589344 1.02198,-1.060849 l -5.38074,-5.585388 c -0.20094,-0.208608 -0.56497,-0.341557 -0.96643,-0.352907 -0.441,-0.0124 -0.85679,0.123765 -1.07752,0.352907 l -5.38074,5.585388 c -0.45387,0.471505 0.11369,1.060662 1.02198,1.060849 h 2.43103 c 0.86181,6.905342 6.74838,12.250002 13.88721,12.250002 7.73199,0 14,-6.268011 14,-14 0,-7.731989 -6.26801,-14.00001 -14,-14 -0.19729,0 -0.36763,0.01004 -0.51911,0.02737 -0.11787,-0.01723 -0.23678,-0.02628 -0.35589,-0.02737 z"
         style="display:inline;opacity:0.15;fill:#000000;fill-opacity:1;stroke-width:0.17500001;enable-background:new" />
      <path
         id="path5281-6"
         d="m 343.12491,70.000005 c -1.44976,0 -2.625,1.175252 -2.625,2.624996 0,1.449754 1.17525,2.625006 2.625,2.625006 0.0986,-9.84e-4 0.19698,-0.0079 0.2948,-0.01969 0.1721,0.0128 0.36448,0.01969 0.5802,0.01969 a 8.7500005,8.7500005 0 0 1 8.75,8.749998 8.7500005,8.7500005 0 0 1 -8.75,8.749998 8.7500005,8.7500005 0 0 1 -8.56373,-7 h 3.00696 c 0.90828,-1.97e-4 1.47585,-0.589344 1.02198,-1.060849 l -5.38074,-5.585388 c -0.20094,-0.208608 -0.56497,-0.341557 -0.96643,-0.352907 -0.441,-0.0124 -0.85679,0.123765 -1.07752,0.352907 l -5.38074,5.585388 c -0.45387,0.471505 0.11369,1.060662 1.02198,1.060849 h 2.43103 c 0.86181,6.905342 6.74838,12.250002 13.88721,12.250002 7.73199,0 14,-6.268011 14,-14 0,-7.731989 -6.26801,-14.00001 -14,-14 -0.19729,0 -0.36763,0.01004 -0.51911,0.02737 -0.11787,-0.01723 -0.23678,-0.02628 -0.35589,-0.02737 z"
         style="display:inline;fill:#faf8f6;fill-opacity:1;stroke-width:0.17500001;enable-background:new" />
      <path
         id="path5281-6-1-7"
         d="m 335.49995,141.00001 c -0.82843,0 -1.5,0.67158 -1.5,1.5 0,0.82842 0.67157,1.5 1.5,1.5 0.0563,-5.6e-4 0.11257,-0.005 0.16845,-0.0113 0.0983,0.007 0.20828,0.0113 0.33155,0.0113 a 5.0000018,5.0000018 0 0 1 5,4.99999 5.0000018,5.0000018 0 0 1 -5,5.00001 A 5.0000018,5.0000018 0 0 1 331.10638,150 h 1.71826 c 0.51902,-1.1e-4 0.84336,-0.33676 0.584,-0.6062 l -3.07472,-3.19165 c -0.11482,-0.1192 -0.32284,-0.19517 -0.55224,-0.20166 -0.252,-0.006 -0.4896,0.0707 -0.61572,0.20166 l -3.07472,3.19165 c -0.25936,0.26944 0.065,0.60609 0.584,0.6062 h 1.38916 c 0.49247,3.94591 3.85621,7.00001 7.93555,7.00001 4.41829,0 8.00001,-3.58172 8.00001,-8.00001 0,-4.41828 -3.58172,-8 -8.00001,-7.99999 -0.11275,0 -0.21006,0.006 -0.29664,0.0156 -0.0674,-0.01 -0.13531,-0.015 -0.20336,-0.0156 z"
         style="display:inline;opacity:0.15;fill:#000000;fill-opacity:1;stroke-width:0.10000005;enable-background:new" />
      <path
         id="path5281-6-1"
         d="m 335.49995,140.00001 c -0.82843,0 -1.5,0.67158 -1.5,1.5 0,0.82842 0.67157,1.5 1.5,1.5 0.0563,-5.6e-4 0.11257,-0.005 0.16845,-0.0113 0.0983,0.007 0.20828,0.0113 0.33155,0.0113 a 5.0000018,5.0000018 0 0 1 5,4.99999 5.0000018,5.0000018 0 0 1 -5,5.00001 A 5.0000018,5.0000018 0 0 1 331.10639,149 h 1.71826 c 0.51901,-1.1e-4 0.84335,-0.33676 0.58399,-0.6062 l -3.07471,-3.19165 c -0.11482,-0.1192 -0.32285,-0.19517 -0.55223,-0.20166 -0.25201,-0.006 -0.4896,0.0707 -0.61573,0.20166 l -3.07472,3.19165 c -0.25937,0.26944 0.065,0.60609 0.584,0.6062 h 1.38915 c 0.49247,3.94591 3.85621,7.00001 7.93555,7.00001 4.41828,0 8,-3.58172 8,-8.00001 0,-4.41828 -3.58172,-8 -8,-7.99999 -0.11275,0 -0.21006,0.006 -0.29664,0.0156 -0.0674,-0.01 -0.13531,-0.015 -0.20336,-0.0156 z"
         style="display:inline;fill:#faf8f6;fill-opacity:1;stroke-width:0.10000005;enable-background:new" />
      <path
         id="path5281-6-1-9-6"
         d="m 331.62496,195.00001 c -0.62131,0 -1.125,0.50369 -1.125,1.125 0,0.62132 0.50369,1.125 1.125,1.125 0.0422,-4.2e-4 0.0844,-0.004 0.12635,-0.008 0.0737,0.005 0.15621,0.008 0.24865,0.008 a 3.7500013,3.7500013 0 0 1 3.75001,3.74999 3.7500013,3.7500013 0 0 1 -3.75001,3.75001 3.7500013,3.7500013 0 0 1 -3.67017,-3.00001 h 1.28871 c 0.38925,-8e-5 0.63252,-0.25257 0.438,-0.45465 l -2.30605,-2.39373 c -0.0861,-0.0894 -0.24212,-0.14638 -0.41418,-0.15125 -0.18899,-0.005 -0.3672,0.053 -0.46178,0.15125 l -2.30605,2.39373 c -0.19452,0.20208 0.0487,0.45457 0.438,0.45465 h 1.04187 c 0.36935,2.95944 2.89216,5.25001 5.95165,5.25001 3.31374,0 6.00003,-2.68629 6.00003,-6.00001 0,-3.31371 -2.68629,-6 -6.00003,-5.99999 -0.0845,0 -0.15753,0.005 -0.22246,0.0117 -0.0505,-0.007 -0.10149,-0.0112 -0.15254,-0.0117 z"
         style="display:inline;opacity:0.15;fill:#000000;fill-opacity:1;stroke-width:0.07500004;enable-background:new" />
      <path
         id="path5281-6-1-9"
         d="m 331.62496,194.00001 c -0.62131,0 -1.125,0.50369 -1.125,1.125 0,0.62132 0.50369,1.125 1.125,1.125 0.0422,-4.2e-4 0.0844,-0.004 0.12635,-0.008 0.0737,0.005 0.15621,0.008 0.24865,0.008 a 3.7500013,3.7500013 0 0 1 3.75001,3.74999 3.7500013,3.7500013 0 0 1 -3.75001,3.75001 3.7500013,3.7500013 0 0 1 -3.67017,-3.00001 h 1.28871 c 0.38925,-8e-5 0.63252,-0.25257 0.438,-0.45465 l -2.30605,-2.39373 c -0.0861,-0.0894 -0.24212,-0.14638 -0.41418,-0.15125 -0.18899,-0.005 -0.3672,0.053 -0.46178,0.15125 l -2.30605,2.39373 c -0.19452,0.20208 0.0487,0.45457 0.438,0.45465 h 1.04187 c 0.36935,2.95944 2.89216,5.25001 5.95165,5.25001 3.31374,0 6.00003,-2.68629 6.00003,-6.00001 0,-3.31371 -2.68629,-6 -6.00003,-5.99999 -0.0845,0 -0.15753,0.005 -0.22246,0.0117 -0.0505,-0.007 -0.10149,-0.0112 -0.15254,-0.0117 z"
         style="display:inline;fill:#faf8f6;fill-opacity:1;stroke-width:0.07500004;enable-background:new" />
      <path
         id="path5281-6-1-9-0"
         d="m 327.74997,240.00002 c -0.41421,0 -0.75,0.33579 -0.75,0.75 0,0.41421 0.33579,0.75 0.75,0.75 0.0281,-2.8e-4 0.0563,-0.003 0.0842,-0.005 0.0491,0.003 0.10413,0.005 0.16577,0.005 a 2.5000009,2.5000009 0 0 1 2.50005,2.49999 2.5000009,2.5000009 0 0 1 -2.50003,2.50001 2.5000009,2.5000009 0 0 1 -2.44677,-2.00001 h 0.85914 c 0.2595,-5e-5 0.42167,-0.16838 0.29199,-0.3031 l -1.53736,-1.59582 c -0.0574,-0.0596 -0.16142,-0.0976 -0.27611,-0.10083 -0.126,-0.003 -0.24481,0.0353 -0.30786,0.10083 l -1.53737,1.59582 c -0.12968,0.13472 0.0325,0.30305 0.29199,0.3031 h 0.69458 c 0.24623,1.97296 1.9281,3.50001 3.96777,3.50001 2.20915,0 4.00001,-1.79086 4.00001,-4.00001 0,-2.20914 -1.79086,-4 -4.00001,-3.99999 -0.0563,0 -0.10503,0.003 -0.14831,0.008 -0.0337,-0.005 -0.0677,-0.007 -0.10169,-0.008 z"
         style="display:inline;fill:#faf8f6;fill-opacity:1;stroke-width:0.05000003;enable-background:new" />
      <path
         id="rect12119"
         d="M 40,165.69591 A 112.5345,112.53445 0 0 0 151.97753,268 112.5345,112.53445 0 0 0 264,165.69591 Z"
         style="display:inline;opacity:0.1;fill:#ffffff;fill-opacity:1;stroke:none;stroke-width:10.66666603;stroke-linecap:round;stroke-linejoin:round;stroke-miterlimit:4;stroke-dasharray:none;stroke-opacity:1;enable-background:new" />
      <path
         id="rect12119-7"
         d="M 322.10848,86.000037 A 21.999999,21.99999 0 0 0 343.9996,106.00003 21.999999,21.99999 0 0 0 365.8995,86.000037 Z"
         style="display:inline;opacity:0.1;fill:#ffffff;fill-opacity:1;stroke:none;stroke-width:1.99999988;stroke-linecap:round;stroke-linejoin:round;stroke-miterlimit:4;stroke-dasharray:none;stroke-opacity:1;enable-background:new" />
      <path
         id="rect12119-0"
         d="m 321.40552,149.33338 a 14.666667,14.666661 0 0 0 14.59408,13.33334 14.666667,14.666661 0 0 0 14.59995,-13.33334 z"
         style="display:inline;opacity:0.1;fill:#ffffff;fill-opacity:1;stroke:none;stroke-width:1.33333325;stroke-linecap:round;stroke-linejoin:round;stroke-miterlimit:4;stroke-dasharray:none;stroke-opacity:1;enable-background:new" />
      <path
         id="rect12119-01"
         d="m 321.05404,201.00005 a 11,10.999995 0 0 0 10.94556,10 11,10.999995 0 0 0 10.94996,-10 z"
         style="display:inline;opacity:0.1;fill:#ffffff;fill-opacity:1;stroke:none;stroke-width:0.99999994;stroke-linecap:round;stroke-linejoin:round;stroke-miterlimit:4;stroke-dasharray:none;stroke-opacity:1;enable-background:new" />
      <path
         id="rect12119-6"
         d="m 320.70256,244.6667 a 7.3333329,7.3333299 0 0 0 7.29704,6.66666 7.3333329,7.3333299 0 0 0 7.29996,-6.66666 z"
         style="display:inline;opacity:0.1;fill:#ffffff;fill-opacity:1;stroke:none;stroke-width:0.66666663;stroke-linecap:round;stroke-linejoin:round;stroke-miterlimit:4;stroke-dasharray:none;stroke-opacity:1;enable-background:new" />
    </g>
    <g
       style="display:inline"
       id="layer2">
      <circle
         r="7.5000005"
         cy="244.00002"
         cx="328.00003"
         id="path1377"
         style="display:inline;opacity:0.4;vector-effect:none;fill:none;fill-opacity:1;stroke:#000000;stroke-width:1;stroke-linecap:butt;stroke-linejoin:round;stroke-miterlimit:4;stroke-dasharray:none;stroke-dashoffset:6.5999999;stroke-opacity:1;enable-background:new" />
      <ellipse
         ry="11.476745"
         rx="11.454546"
         cy="199.97676"
         cx="332"
         id="path1384"
         style="display:inline;opacity:0.4;vector-effect:none;fill:none;fill-opacity:1;stroke:#000000;stroke-width:1;stroke-linecap:butt;stroke-linejoin:round;stroke-miterlimit:4;stroke-dasharray:none;stroke-dashoffset:6.5999999;stroke-opacity:1;enable-background:new" />
      <circle
         r="14.5"
         cy="148"
         cx="336"
         id="path1389"
         style="display:inline;opacity:0.4;vector-effect:none;fill:none;fill-opacity:1;stroke:#000000;stroke-width:1;stroke-linecap:butt;stroke-linejoin:round;stroke-miterlimit:4;stroke-dasharray:none;stroke-dashoffset:6.5999999;stroke-opacity:1;enable-background:new" />
      <circle
         r="22.5"
         cy="84"
         cx="344"
         id="path1389-3"
         style="display:inline;opacity:0.4;vector-effect:none;fill:none;fill-opacity:1;stroke:#000000;stroke-width:1;stroke-linecap:butt;stroke-linejoin:round;stroke-miterlimit:4;stroke-dasharray:none;stroke-dashoffset:6.5999999;stroke-opacity:1;enable-background:new" />
      <path
         id="path11042-1-7"
         d="m 152,267.99999 a 112,112 0 0 1 -112,-112 112,112 0 0 1 0.04102,-1.16992 A 112,112 0 0 0 152,265.99999 112,112 0 0 0 263.95898,155.16991 a 112,112 0 0 1 0.041,0.83008 112,112 0 0 1 -112,112 z"
         style="display:inline;opacity:0.2;fill:#000000;fill-opacity:1;stroke:none;stroke-width:1;stroke-linecap:round;stroke-linejoin:round;stroke-miterlimit:4;stroke-dasharray:none;stroke-opacity:1;enable-background:new" />
      <path
         id="path11042-1"
         d="M 152,43.999994 A 112,112 0 0 0 40,155.99999 112,112 0 0 0 40.04102,157.16991 112,112 0 0 1 152,45.999994 112,112 0 0 1 263.95898,156.83007 a 112,112 0 0 0 0.041,-0.83008 112,112 0 0 0 -112,-111.999996 z"
         style="display:inline;opacity:0.3;fill:#ffffff;fill-opacity:1;stroke:none;stroke-width:1;stroke-linecap:round;stroke-linejoin:round;stroke-miterlimit:4;stroke-dasharray:none;stroke-opacity:1;enable-background:new" />
    </g>
    <g
       style="display:inline;opacity:0.8"
       id="layer5">
      <path
         id="path9498-1-6"
         d="M 344,62.000016 A 22,21.99999 0 0 0 322,84.000013 22,21.99999 0 0 0 344,106 22,21.99999 0 0 0 366,84.000013 22,21.99999 0 0 0 344,62.000016 Z m 0,0.956532 A 21.043478,21.043469 0 0 1 365.04348,84.000013 21.043478,21.043469 0 0 1 344,105.04348 21.043478,21.043469 0 0 1 322.95652,84.000013 21.043478,21.043469 0 0 1 344,62.956548 Z"
         style="display:inline;opacity:1;fill:url(#linearGradient8590);fill-opacity:1;stroke:none;stroke-width:1.8694036;stroke-linecap:round;stroke-linejoin:round;stroke-miterlimit:4;stroke-dasharray:none;stroke-opacity:1;enable-background:new" />
      <path
         id="path9498-1-6-7"
         d="m 336,134 c -7.73199,0 -14,6.26802 -14,14 0,7.73198 6.26801,14 14,14 7.73199,0 14,-6.26802 14,-14 0,-7.73198 -6.26801,-14 -14,-14 z m 0,1 a 13,13 0 0 1 13,13 13,13 0 0 1 -13,13 13,13 0 0 1 -13,-13 13,13 0 0 1 13,-13 z"
         style="display:inline;opacity:1;fill:url(#linearGradient8590-3);fill-opacity:1;stroke:none;stroke-width:1.8694036;stroke-linecap:round;stroke-linejoin:round;stroke-miterlimit:4;stroke-dasharray:none;stroke-opacity:1;enable-background:new" />
      <path
         id="path9498-1-6-7-2"
         d="m 332,189 c -6.07513,0 -11,4.92488 -11,11 0,6.07513 4.92487,11 11,11 6.07513,0 11,-4.92487 11,-11 0,-6.07512 -4.92487,-11 -11,-11 z m 0,1 a 10,10 0 0 1 10,10 10,10 0 0 1 -10,10 10,10 0 0 1 -10,-10 10,10 0 0 1 10,-10 z"
         style="display:inline;opacity:1;fill:url(#linearGradient8590-3-3);fill-opacity:1;stroke:none;stroke-width:1.8694036;stroke-linecap:round;stroke-linejoin:round;stroke-miterlimit:4;stroke-dasharray:none;stroke-opacity:1;enable-background:new" />
      <path
         id="path9498-1-6-7-2-0"
         d="m 328,237 c -3.86599,0 -7,3.13402 -7,7 0,3.86599 3.13401,7 7,7 3.866,0 7,-3.13401 7,-7 0,-3.86598 -3.134,-7 -7,-7 z m 0,1 a 6,6 0 0 1 6,6 6,6 0 0 1 -6,6 6,6 0 0 1 -6,-6 6,6 0 0 1 6,-6 z"
         style="display:inline;opacity:1;fill:url(#linearGradient8590-3-3-4);fill-opacity:1;stroke:none;stroke-width:1.86940372;stroke-linecap:round;stroke-linejoin:round;stroke-miterlimit:4;stroke-dasharray:none;stroke-opacity:1;enable-background:new" />
    </g>
  </g>
</svg>
