<?xml version="1.0" encoding="UTF-8" standalone="no"?>
<svg
   xmlns:dc="http://purl.org/dc/elements/1.1/"
   xmlns:cc="http://creativecommons.org/ns#"
   xmlns:rdf="http://www.w3.org/1999/02/22-rdf-syntax-ns#"
   xmlns:svg="http://www.w3.org/2000/svg"
   xmlns="http://www.w3.org/2000/svg"
   xmlns:xlink="http://www.w3.org/1999/xlink"
   style="display:inline;enable-background:new"
   version="1.0"
   id="svg11300"
   height="256"
   width="256">
  <title
     id="title3004">Suru Icon Theme Template</title>
  <defs
     id="defs3">
    <clipPath
       id="clipPath9430"
       clipPathUnits="userSpaceOnUse">
      <path
         style="color:#000000;display:inline;overflow:visible;visibility:visible;fill:#ffffff;fill-opacity:1;fill-rule:nonzero;stroke:none;stroke-width:1;marker:none;enable-background:new"
         d="m 166.0625,-196 h 179.875 C 491.2348,-196 512,-175.28677 512,-30.125 v 148.25 C 512,263.28618 491.2348,284 345.9375,284 H 166.0625 C 20.7652,284 0,263.28618 0,118.125 V -30.125 C 0,-175.28677 20.7652,-196 166.0625,-196 Z"
         id="path9432" />
    </clipPath>
    <clipPath
       id="clipPath1082"
       clipPathUnits="userSpaceOnUse">
      <path
         style="display:inline;opacity:1;fill:#8c59d9;fill-opacity:1;stroke:none;stroke-width:2;stroke-linecap:round;stroke-linejoin:round;stroke-miterlimit:4;stroke-dasharray:none;stroke-dashoffset:0;stroke-opacity:1;enable-background:new"
         d="M 361.9375,-212 C 507.2348,-212 528,-191.28677 528,-46.125 V 70.125 C 528,215.28618 507.2348,236 361.9375,236 H 214.0625 C 68.7652,236 48,215.28618 48,70.125 V -46.125 C 48,-191.28677 68.7652,-212 214.0625,-212 Z"
         id="path1084" />
    </clipPath>
    <filter
       height="1.0219313"
       y="-0.010965657"
       width="1.0264996"
       x="-0.013249796"
       id="filter4346"
       style="color-interpolation-filters:sRGB">
      <feGaussianBlur
         id="feGaussianBlur4348"
         stdDeviation="2.120027" />
    </filter>
    <linearGradient
       gradientTransform="rotate(-90,287.9946,298)"
       gradientUnits="userSpaceOnUse"
       y2="488"
       x2="488"
       y1="88"
       x1="88"
       id="linearGradient4358"
       xlink:href="#linearGradient4360" />
    <linearGradient
       id="linearGradient4360">
      <stop
         style="stop-color:#000000;stop-opacity:0.58823532"
         offset="0"
         id="stop4362" />
      <stop
         id="stop4364"
         offset="0.88"
         style="stop-color:#000000;stop-opacity:0" />
      <stop
         style="stop-color:#000000;stop-opacity:1"
         offset="1"
         id="stop4366" />
    </linearGradient>
    <filter
       height="1.0877253"
       y="-0.043862626"
       width="1.1059984"
       x="-0.052999184"
       id="filter4380"
       style="color-interpolation-filters:sRGB">
      <feGaussianBlur
         id="feGaussianBlur4382"
         stdDeviation="8.4801079" />
    </filter>
    <linearGradient
       id="linearGradient927">
      <stop
         id="stop923"
         offset="0"
         style="stop-color:#ffffff;stop-opacity:1;" />
      <stop
         style="stop-color:#ffffff;stop-opacity:0.09803922"
         offset="0.125"
         id="stop933" />
      <stop
         style="stop-color:#ffffff;stop-opacity:0.09803922"
         offset="0.92500001"
         id="stop931" />
      <stop
         id="stop925"
         offset="1"
         style="stop-color:#ffffff;stop-opacity:0.49803922" />
    </linearGradient>
    <clipPath
       id="clipPath994"
       clipPathUnits="userSpaceOnUse">
      <path
         id="path996"
         d="m 335.73108,62 c -8.82418,0 -9.77365,0.90635 -9.7304,9.74838 V 84 96.25162 c -0.0433,8.84203 0.90622,9.74838 9.7304,9.74838 h 16.53919 c 8.82418,0 9.7304,-0.90625 9.7304,-9.74838 V 84 71.74838 C 362.00067,62.90625 361.09445,62 352.27027,62 Z"
         style="color:#000000;display:inline;overflow:visible;visibility:visible;fill:#cdcdcd;fill-opacity:1;fill-rule:nonzero;stroke:none;stroke-width:2;stroke-miterlimit:4;stroke-dasharray:none;stroke-opacity:1;marker:none;enable-background:accumulate" />
    </clipPath>
    <linearGradient
       gradientTransform="rotate(-90,344,84)"
       gradientUnits="userSpaceOnUse"
       y2="102.00067"
       x2="344"
       y1="66.000679"
       x1="344"
       id="linearGradient1004"
       xlink:href="#linearGradient927" />
    <clipPath
       id="clipPath959"
       clipPathUnits="userSpaceOnUse">
      <path
         id="path961"
         d="m 330.1929,133.99999 c -5.61538,0 -6.21958,0.57678 -6.19206,6.20352 v 7.79648 7.79648 c -0.0276,5.62673 0.57668,6.20351 6.19206,6.20351 h 11.615 c 5.6154,0 6.19208,-0.5767 6.19208,-6.20351 v -7.79648 -7.79648 c 0,-5.6268 -0.5767,-6.20352 -6.19208,-6.20352 z"
         style="color:#000000;display:inline;overflow:visible;visibility:visible;opacity:1;fill:#46a926;fill-opacity:1;fill-rule:nonzero;stroke:none;stroke-width:2;stroke-miterlimit:4;stroke-dasharray:none;stroke-opacity:1;marker:none;enable-background:accumulate" />
    </clipPath>
    <clipPath
       id="clipPath971"
       clipPathUnits="userSpaceOnUse">
      <path
         id="path973"
         d="m 327.8652,189 c -4.41209,0 -4.88682,0.45318 -4.8652,4.87419 V 200 206.12581 C 322.9783,210.54682 323.45311,211 327.8652,211 h 8.2696 C 340.54689,211 341,210.54688 341,206.12581 V 200 193.87419 C 341,189.45313 340.54688,189 336.13479,189 Z"
         style="color:#000000;display:inline;overflow:visible;visibility:visible;opacity:1;fill:#46a926;fill-opacity:1;fill-rule:nonzero;stroke:none;stroke-width:2;stroke-miterlimit:4;stroke-dasharray:none;stroke-opacity:1;marker:none;enable-background:accumulate" />
    </clipPath>
    <linearGradient
       gradientTransform="rotate(-90,331.99966,200)"
       gradientUnits="userSpaceOnUse"
       y2="209.00034"
       x2="331.99966"
       y1="191.00034"
       x1="331.99966"
       id="linearGradient981"
       xlink:href="#linearGradient927" />
    <clipPath
       id="clipPath983"
       clipPathUnits="userSpaceOnUse">
      <path
         style="color:#000000;display:inline;overflow:visible;visibility:visible;opacity:1;fill:#46a926;fill-opacity:1;fill-rule:nonzero;stroke:none;stroke-width:2;stroke-miterlimit:4;stroke-dasharray:none;stroke-opacity:1;marker:none;enable-background:accumulate"
         d="m 325.09646,237 c -2.80769,0 -3.10979,0.28839 -3.09603,3.10176 V 244 v 3.89824 c -0.0138,2.81337 0.28834,3.10176 3.09603,3.10176 h 5.8075 C 333.71166,251 334,250.71165 334,247.89824 V 244 240.10176 C 334,237.28836 333.71165,237 330.90396,237 Z"
         id="path985" />
    </clipPath>
    <linearGradient
       gradientTransform="rotate(-90,328,244)"
       gradientUnits="userSpaceOnUse"
       y2="250"
       x2="328"
       y1="238.00043"
       x1="328"
       id="linearGradient993"
       xlink:href="#linearGradient927" />
    <linearGradient
       id="linearGradient4336-3">
      <stop
         id="stop4338-8"
         offset="0"
         style="stop-color:#5884f4;stop-opacity:1" />
      <stop
         style="stop-color:#5884f4;stop-opacity:1"
         offset="0.27800092"
         id="stop4344-3" />
      <stop
         id="stop4346-3"
         offset="0.27800092"
         style="stop-color:#2f5fdd;stop-opacity:1" />
      <stop
         style="stop-color:#2f5fdd;stop-opacity:1"
         offset="0.70735365"
         id="stop4350-1" />
      <stop
         style="stop-color:#234db8;stop-opacity:1"
         offset="0.70936078"
         id="stop4348-6" />
      <stop
         id="stop4340-0"
         offset="1"
         style="stop-color:#234db8;stop-opacity:1" />
    </linearGradient>
    <linearGradient
       gradientTransform="matrix(0,-1.04758,0.95458104,0,263.81519,444.36752)"
       gradientUnits="userSpaceOnUse"
       y2="102.85715"
       x2="344"
       y1="65.144272"
       x1="344"
       id="linearGradient1004-8"
       xlink:href="#linearGradient927" />
    <clipPath
       id="clipPath994-1"
       clipPathUnits="userSpaceOnUse">
      <path
         id="path996-8"
         d="m 335.73108,62 c -8.82418,0 -9.77365,0.90635 -9.7304,9.74838 V 84 96.25162 c -0.0433,8.84203 0.90622,9.74838 9.7304,9.74838 h 16.53919 c 8.82418,0 9.7304,-0.90625 9.7304,-9.74838 V 84 71.74838 C 362.00067,62.90625 361.09445,62 352.27027,62 Z"
         style="color:#000000;display:inline;overflow:visible;visibility:visible;fill:#cdcdcd;fill-opacity:1;fill-rule:nonzero;stroke:none;stroke-width:2;stroke-miterlimit:4;stroke-dasharray:none;stroke-opacity:1;marker:none;enable-background:accumulate" />
    </clipPath>
    <linearGradient
       gradientUnits="userSpaceOnUse"
       y2="211"
       x2="340"
       y1="202"
       x1="340"
       id="linearGradient4641"
       xlink:href="#linearGradient1092" />
    <linearGradient
       id="linearGradient1092">
      <stop
         id="stop1088"
         offset="0"
         style="stop-color:#a2bcfe;stop-opacity:1" />
      <stop
         id="stop1090"
         offset="1"
         style="stop-color:#ffffff;stop-opacity:1" />
    </linearGradient>
    <linearGradient
       gradientUnits="userSpaceOnUse"
       y2="106"
       x2="360"
       y1="89"
       x1="360"
       id="linearGradient4619"
       xlink:href="#linearGradient1092" />
    <linearGradient
       gradientUnits="userSpaceOnUse"
       y2="251"
       x2="333"
       y1="245"
       x1="333"
       id="linearGradient908"
       xlink:href="#linearGradient1092" />
    <linearGradient
       gradientUnits="userSpaceOnUse"
       y2="163"
       x2="345"
       y1="151"
       x1="345"
       id="linearGradient4630"
       xlink:href="#linearGradient1092" />
    <linearGradient
       gradientUnits="userSpaceOnUse"
       y2="236"
       x2="208"
       y1="176"
       x1="208"
       id="linearGradient1094"
       xlink:href="#linearGradient1092" />
    <clipPath
       id="clipPath1082-3-7"
       clipPathUnits="userSpaceOnUse">
      <path
         style="display:inline;opacity:1;fill:#8c59d9;fill-opacity:1;stroke:none;stroke-width:2;stroke-linecap:round;stroke-linejoin:round;stroke-miterlimit:4;stroke-dasharray:none;stroke-dashoffset:0;stroke-opacity:1;enable-background:new"
         d="M 361.9375,-212 C 507.2348,-212 528,-191.28677 528,-46.125 V 70.125 C 528,215.28618 507.2348,236 361.9375,236 H 214.0625 C 68.7652,236 48,215.28618 48,70.125 V -46.125 C 48,-191.28677 68.7652,-212 214.0625,-212 Z"
         id="path1084-6-5" />
    </clipPath>
  </defs>
  <metadata
     id="metadata4">
    <rdf:RDF>
      <cc:Work
         rdf:about="">
        <dc:format>image/svg+xml</dc:format>
        <dc:type
           rdf:resource="http://purl.org/dc/dcmitype/StillImage" />
        <dc:creator>
          <cc:Agent>
            <dc:title>Sam Hewitt</dc:title>
          </cc:Agent>
        </dc:creator>
        <dc:source />
        <cc:license
           rdf:resource="http://creativecommons.org/licenses/by-sa/4.0/" />
        <dc:title>Suru Icon Theme Template</dc:title>
        <dc:subject>
          <rdf:Bag />
        </dc:subject>
        <dc:date />
        <dc:rights>
          <cc:Agent>
            <dc:title />
          </cc:Agent>
        </dc:rights>
        <dc:publisher>
          <cc:Agent>
            <dc:title />
          </cc:Agent>
        </dc:publisher>
        <dc:identifier />
        <dc:relation />
        <dc:language />
        <dc:coverage />
        <dc:description />
        <dc:contributor>
          <cc:Agent>
            <dc:title />
          </cc:Agent>
        </dc:contributor>
      </cc:Work>
      <cc:Work
         rdf:about="">
        <dc:format>image/svg+xml</dc:format>
        <dc:type
           rdf:resource="http://purl.org/dc/dcmitype/StillImage" />
      </cc:Work>
      <cc:License
         rdf:about="http://creativecommons.org/licenses/by-sa/4.0/">
        <cc:permits
           rdf:resource="http://creativecommons.org/ns#Reproduction" />
        <cc:permits
           rdf:resource="http://creativecommons.org/ns#Distribution" />
        <cc:requires
           rdf:resource="http://creativecommons.org/ns#Notice" />
        <cc:requires
           rdf:resource="http://creativecommons.org/ns#Attribution" />
        <cc:permits
           rdf:resource="http://creativecommons.org/ns#DerivativeWorks" />
        <cc:requires
           rdf:resource="http://creativecommons.org/ns#ShareAlike" />
      </cc:License>
    </rdf:RDF>
  </metadata>
  <g
     transform="translate(-24,-28)"
     id="layer1"
     style="display:inline">
    <g
       id="layer7"
       style="display:none">
      <text
         id="context"
         style="font-style:normal;font-variant:normal;font-weight:normal;font-stretch:normal;line-height:0%;font-family:'DejaVu Sans';-inkscape-font-specification:'DejaVu Sans';display:inline;fill:#000000;fill-opacity:1;stroke:none;enable-background:new"
         x="19.006836"
         xml:space="preserve"
         y="-8.2548828"><tspan
           id="tspan3933"
           x="19.006836"
           y="-8.2548828"
           style="font-style:normal;font-variant:normal;font-weight:normal;font-stretch:normal;font-size:18px;line-height:1.25;font-family:'DejaVu Sans';-inkscape-font-specification:'DejaVu Sans'">apps</tspan></text>
      <text
         id="icon-name"
         style="font-style:normal;font-variant:normal;font-weight:bold;font-stretch:normal;line-height:0%;font-family:'DejaVu Sans';-inkscape-font-specification:'DejaVu Sans Bold';text-align:start;writing-mode:lr-tb;text-anchor:start;display:inline;fill:#000000;fill-opacity:1;stroke:none;enable-background:new"
         x="146.48828"
         xml:space="preserve"
         y="-8.2548828"><tspan
           id="tspan3937"
           x="146.48828"
           y="-8.2548828"
           style="font-style:normal;font-variant:normal;font-weight:bold;font-stretch:normal;font-size:18px;line-height:1.25;font-family:'DejaVu Sans';-inkscape-font-specification:'DejaVu Sans Bold'">system-monitor-app</tspan></text>
      <rect
         y="236"
         x="320"
         height="16"
         width="16"
         id="rect16x16"
         style="display:inline;overflow:visible;visibility:visible;fill:#cdcdcd;fill-opacity:1;fill-rule:nonzero;stroke:none;stroke-width:2;marker:none;enable-background:accumulate" />
      <rect
         y="188"
         x="320"
         height="24"
         width="24"
         id="rect24x24"
         style="display:inline;overflow:visible;visibility:visible;fill:#cdcdcd;fill-opacity:1;fill-rule:nonzero;stroke:none;stroke-width:2;marker:none;enable-background:accumulate" />
      <rect
         y="132"
         x="320"
         height="32"
         width="32"
         id="rect32x32"
         style="display:inline;overflow:visible;visibility:visible;fill:#cdcdcd;fill-opacity:1;fill-rule:nonzero;stroke:none;stroke-width:2;marker:none;enable-background:accumulate" />
      <rect
         style="display:inline;overflow:visible;visibility:visible;fill:#cdcdcd;fill-opacity:1;fill-rule:nonzero;stroke:none;stroke-width:2;marker:none;enable-background:accumulate"
         id="rect48x48"
         width="48"
         height="48"
         x="320"
         y="60" />
      <rect
         y="28"
         x="24"
         height="256"
         width="256"
         id="rect3951"
         style="display:inline;overflow:visible;visibility:visible;fill:#cdcdcd;fill-opacity:1;fill-rule:nonzero;stroke:none;stroke-width:2;marker:none;enable-background:accumulate" />
    </g>
    <g
       style="display:inline"
       id="layer8">
      <path
         id="path995"
         d="m 343.99961,196.86562 c 0,-1.12014 -0.0241,-2.01524 -0.1543,-2.79101 -0.13022,-0.77577 -0.38763,-1.48014 -0.91601,-2.00977 -0.52838,-0.52962 -1.23687,-0.79079 -2.01367,-0.91992 -0.77681,-0.12912 -1.67169,-0.15002 -2.79493,-0.14453 h -6.12109 -6.125 c -1.12104,-0.005 -2.01529,0.0156 -2.79102,0.14453 -0.77681,0.12912 -1.48529,0.39029 -2.01367,0.91992 -0.52838,0.52964 -0.78579,1.234 -0.91601,2.00977 -0.13022,0.77577 -0.1543,1.67087 -0.1543,2.79101 v 8.26954 c 0,1.12013 0.024,2.01264 0.1543,2.78711 0.13033,0.77446 0.38927,1.48001 0.91797,2.00781 0.52869,0.5278 1.23438,0.78594 2.00976,0.91601 0.77539,0.13007 1.67062,0.1543 2.79297,0.1543 h 6.125 6.125 c 1.12235,0 2.01758,-0.0242 2.79297,-0.1543 0.77538,-0.13007 1.48107,-0.38821 2.00976,-0.91601 0.5287,-0.5278 0.78764,-1.23334 0.91797,-2.00781 0.13033,-0.77448 0.1543,-1.66697 0.1543,-2.78711 z"
         style="color:#000000;font-style:normal;font-variant:normal;font-weight:normal;font-stretch:normal;font-size:medium;line-height:normal;font-family:sans-serif;font-variant-ligatures:normal;font-variant-position:normal;font-variant-caps:normal;font-variant-numeric:normal;font-variant-alternates:normal;font-feature-settings:normal;text-indent:0;text-align:start;text-decoration:none;text-decoration-line:none;text-decoration-style:solid;text-decoration-color:#000000;letter-spacing:normal;word-spacing:normal;text-transform:none;writing-mode:lr-tb;direction:ltr;text-orientation:mixed;dominant-baseline:auto;baseline-shift:baseline;text-anchor:start;white-space:normal;shape-padding:0;clip-rule:nonzero;display:inline;overflow:visible;visibility:visible;opacity:0.1;isolation:auto;mix-blend-mode:normal;color-interpolation:sRGB;color-interpolation-filters:linearRGB;solid-color:#000000;solid-opacity:1;vector-effect:none;fill:#000000;fill-opacity:1;fill-rule:nonzero;stroke:none;stroke-width:2;stroke-linecap:butt;stroke-linejoin:miter;stroke-miterlimit:4;stroke-dasharray:none;stroke-dashoffset:0;stroke-opacity:1;marker:none;color-rendering:auto;image-rendering:auto;shape-rendering:auto;text-rendering:auto;enable-background:accumulate" />
      <path
         id="path997"
         d="m 335.49972,241.59598 c 0,-0.71904 -0.0139,-1.30185 -0.10352,-1.83593 -0.0897,-0.53409 -0.27628,-1.0683 -0.68359,-1.47657 -0.4073,-0.40826 -0.94323,-0.59657 -1.47851,-0.68554 -0.53529,-0.089 -1.12048,-0.10119 -1.8418,-0.0977 h -2.89258 -3.89844 c -0.71816,-0.003 -1.30235,0.009 -1.83594,0.0977 -0.53528,0.089 -1.07121,0.27727 -1.47851,0.68554 -0.40731,0.40827 -0.59394,0.94248 -0.68359,1.47657 -0.0897,0.53408 -0.10352,1.11689 -0.10352,1.83593 v 5.8086 c 0,0.71904 0.0137,1.30058 0.10352,1.83398 0.0898,0.53341 0.27792,1.06768 0.68554,1.47461 0.40762,0.40693 0.94271,0.59404 1.47656,0.68359 0.53386,0.0896 1.11551,0.10352 1.83594,0.10352 h 3.89844 2.89844 c 0.72043,0 1.30208,-0.014 1.83594,-0.10352 0.53385,-0.0895 1.06894,-0.27666 1.47656,-0.68359 0.40762,-0.40693 0.59578,-0.9412 0.68554,-1.47461 0.0898,-0.5334 0.10352,-1.11494 0.10352,-1.83398 z"
         style="color:#000000;font-style:normal;font-variant:normal;font-weight:normal;font-stretch:normal;font-size:medium;line-height:normal;font-family:sans-serif;font-variant-ligatures:normal;font-variant-position:normal;font-variant-caps:normal;font-variant-numeric:normal;font-variant-alternates:normal;font-feature-settings:normal;text-indent:0;text-align:start;text-decoration:none;text-decoration-line:none;text-decoration-style:solid;text-decoration-color:#000000;letter-spacing:normal;word-spacing:normal;text-transform:none;writing-mode:lr-tb;direction:ltr;text-orientation:mixed;dominant-baseline:auto;baseline-shift:baseline;text-anchor:start;white-space:normal;shape-padding:0;clip-rule:nonzero;display:inline;overflow:visible;visibility:visible;opacity:0.1;isolation:auto;mix-blend-mode:normal;color-interpolation:sRGB;color-interpolation-filters:linearRGB;solid-color:#000000;solid-opacity:1;vector-effect:none;fill:#000000;fill-opacity:1;fill-rule:nonzero;stroke:none;stroke-width:2;stroke-linecap:butt;stroke-linejoin:miter;stroke-miterlimit:4;stroke-dasharray:none;stroke-dashoffset:0;stroke-opacity:1;marker:none;color-rendering:auto;image-rendering:auto;shape-rendering:auto;text-rendering:auto;enable-background:accumulate" />
      <path
         id="path999"
         d="m 350.99951,143.19385 c 0,-1.42096 -0.0308,-2.54883 -0.19141,-3.50586 -0.16064,-0.95703 -0.4726,-1.79146 -1.09179,-2.41211 -0.61919,-0.62065 -1.45612,-0.93647 -2.41407,-1.0957 -0.95795,-0.15924 -2.08705,-0.18666 -3.51171,-0.17969 h -7.79102 -7.79688 c -1.42131,-0.007 -2.5495,0.0207 -3.50585,0.17969 -0.95796,0.15923 -1.79488,0.47505 -2.41407,1.0957 -0.61919,0.62065 -0.93115,1.45508 -1.09179,2.41211 -0.16065,0.95703 -0.19141,2.0849 -0.19141,3.50586 v 11.61523 c 0,1.42097 0.0307,2.54669 0.19141,3.50196 0.16075,0.95527 0.47425,1.78779 1.09375,2.40625 0.6195,0.61845 1.45363,0.93134 2.41015,1.09179 0.95653,0.16046 2.08403,0.19141 3.50781,0.19141 h 7.79688 7.79688 c 1.42378,0 2.55128,-0.031 3.50781,-0.19141 0.95653,-0.16045 1.79065,-0.47334 2.41015,-1.09179 0.61951,-0.61846 0.933,-1.45098 1.09375,-2.40625 0.16076,-0.95527 0.19141,-2.08099 0.19141,-3.50196 z"
         style="color:#000000;font-style:normal;font-variant:normal;font-weight:normal;font-stretch:normal;font-size:medium;line-height:normal;font-family:sans-serif;font-variant-ligatures:normal;font-variant-position:normal;font-variant-caps:normal;font-variant-numeric:normal;font-variant-alternates:normal;font-feature-settings:normal;text-indent:0;text-align:start;text-decoration:none;text-decoration-line:none;text-decoration-style:solid;text-decoration-color:#000000;letter-spacing:normal;word-spacing:normal;text-transform:none;writing-mode:lr-tb;direction:ltr;text-orientation:mixed;dominant-baseline:auto;baseline-shift:baseline;text-anchor:start;white-space:normal;shape-padding:0;clip-rule:nonzero;display:inline;overflow:visible;visibility:visible;opacity:0.1;isolation:auto;mix-blend-mode:normal;color-interpolation:sRGB;color-interpolation-filters:linearRGB;solid-color:#000000;solid-opacity:1;vector-effect:none;fill:#000000;fill-opacity:1;fill-rule:nonzero;stroke:none;stroke-width:2;stroke-linecap:butt;stroke-linejoin:miter;stroke-miterlimit:4;stroke-dasharray:none;stroke-dashoffset:0;stroke-opacity:1;marker:none;color-rendering:auto;image-rendering:auto;shape-rendering:auto;text-rendering:auto;enable-background:accumulate" />
      <path
         id="path1020"
         d="m 367.49969,76.231427 c 0,-2.22316 -0.0512,-3.97368 -0.29297,-5.41406 -0.24178,-1.44039 -0.69529,-2.61905 -1.55664,-3.48243 -0.86134,-0.86337 -2.03947,-1.31906 -3.48046,-1.55859 -1.441,-0.23953 -3.19535,-0.28629 -5.42383,-0.27539 H 343.99974 331.2476 c -2.22507,-0.0108 -3.97852,0.0361 -5.41797,0.27539 -1.441,0.23953 -2.61913,0.69522 -3.48047,1.55859 -0.86134,0.86338 -1.31486,2.04204 -1.55664,3.48243 -0.24179,1.44039 -0.29297,3.1909 -0.29297,5.41406 v 17.53883 c 0,2.22317 0.0511,3.97276 0.29297,5.41017 0.24189,1.437403 0.69694,2.612463 1.55859,3.472653 0.86165,0.8602 2.03894,1.31319 3.47852,1.55468 1.43957,0.24149 3.19035,0.29297 5.41797,0.29297 h 12.75214 12.75191 c 2.22761,0 3.97839,-0.0515 5.41797,-0.29297 1.43957,-0.24149 2.61686,-0.69449 3.47851,-1.55469 0.86165,-0.86019 1.31671,-2.03525 1.55859,-3.472653 0.24189,-1.4374 0.29297,-3.187 0.29297,-5.41016 z"
         style="color:#000000;font-style:normal;font-variant:normal;font-weight:normal;font-stretch:normal;font-size:medium;line-height:normal;font-family:sans-serif;font-variant-ligatures:normal;font-variant-position:normal;font-variant-caps:normal;font-variant-numeric:normal;font-variant-alternates:normal;font-feature-settings:normal;text-indent:0;text-align:start;text-decoration:none;text-decoration-line:none;text-decoration-style:solid;text-decoration-color:#000000;letter-spacing:normal;word-spacing:normal;text-transform:none;writing-mode:lr-tb;direction:ltr;text-orientation:mixed;dominant-baseline:auto;baseline-shift:baseline;text-anchor:start;white-space:normal;shape-padding:0;clip-rule:nonzero;display:inline;overflow:visible;visibility:visible;opacity:0.1;isolation:auto;mix-blend-mode:normal;color-interpolation:sRGB;color-interpolation-filters:linearRGB;solid-color:#000000;solid-opacity:1;vector-effect:none;fill:#000000;fill-opacity:1;fill-rule:nonzero;stroke:none;stroke-width:2;stroke-linecap:butt;stroke-linejoin:miter;stroke-miterlimit:4;stroke-dasharray:none;stroke-dashoffset:0;stroke-opacity:1;marker:none;color-rendering:auto;image-rendering:auto;shape-rendering:auto;text-rendering:auto;enable-background:accumulate" />
      <path
         transform="matrix(0,0.5,-0.5,0,300.9973,13.002698)"
         id="rect4158-9"
         d="M 189.84323,74 C 119.24979,74 111.65402,81.250835 112,151.98706 V 298 444.01294 C 111.65402,514.74917 119.24979,522 189.84323,522 H 386.15677 C 456.75021,522 462.16345,514.72616 464,444.01294 V 298 151.98706 C 464,81.249993 456.75021,74 386.15677,74 Z"
         style="color:#000000;display:inline;overflow:visible;visibility:visible;opacity:0.1;fill:#000000;fill-opacity:1;fill-rule:nonzero;stroke:none;stroke-width:2;marker:none;filter:url(#filter4346);enable-background:accumulate" />
      <path
         transform="matrix(0,0.5,-0.5,0,300.9973,13.002698)"
         style="color:#000000;display:inline;overflow:visible;visibility:visible;opacity:0.3;fill:url(#linearGradient4358);fill-opacity:1;fill-rule:nonzero;stroke:none;stroke-width:2;marker:none;filter:url(#filter4380);enable-background:accumulate"
         d="M 189.84323,74 C 119.24979,74 111.65402,81.250835 112,151.98706 V 298 444.01294 C 111.65402,514.74917 119.24979,522 189.84323,522 H 386.15677 C 456.75021,522 464,514.75001 464,444.01294 V 298 151.98706 C 464,81.249993 456.75021,74 386.15677,74 Z"
         id="path4350" />
      <path
         id="rect4158-7"
         d="m 266.0025,105.8091 c 0,-36.098811 -3.69016,-39.983003 -39.68984,-39.806081 H 152.0025 77.69234 C 41.69265,65.826097 38.0025,69.710289 38.0025,105.8091 v 100.38732 c 0,36.09881 3.68973,39.80608 39.68984,39.80608 h 74.31016 74.31016 c 36.00011,0 39.68984,-3.70727 39.68984,-39.80608 z"
         style="color:#000000;display:inline;overflow:visible;visibility:visible;opacity:0.1;fill:#000000;fill-opacity:1;fill-rule:nonzero;stroke:none;stroke-width:1.02028775;marker:none;enable-background:accumulate" />
      <path
         id="path964"
         d="m 366.50065,75.231076 c 0,-8.23154 -0.90635,-9.77365 -9.74838,-9.7304 H 344.0007 331.24889 c -8.84203,-0.0433 -9.74838,1.49886 -9.74838,9.7304 v 17.53897 c 0,8.229494 0.90625,9.730394 9.74838,9.730394 h 12.75181 12.75157 c 8.84213,0 9.74838,-1.5009 9.74838,-9.730404 z"
         style="color:#000000;display:inline;overflow:visible;visibility:visible;fill:#4a4a4a;fill-opacity:1;fill-rule:nonzero;stroke:none;stroke-width:1;marker:none;enable-background:accumulate" />
      <path
         id="rect4158"
         d="m 263.9973,205.07568 c 0,35.29673 -3.62542,39.09461 -38.99353,38.92162 H 151.9973 78.99083 C 43.62271,244.17029 39.9973,240.37241 39.9973,205.07568 v -98.15676 c 0,-35.296716 3.625,-38.921616 38.99353,-38.921616 h 73.00647 73.00647 c 35.36853,0 38.99353,3.6249 38.99353,38.921616 z"
         style="color:#000000;display:inline;overflow:visible;visibility:visible;fill:#3b3b3b;fill-opacity:1;fill-rule:nonzero;stroke:none;stroke-width:1;marker:none;enable-background:accumulate" />
      <path
         style="color:#000000;display:inline;overflow:visible;visibility:visible;fill:#3b3b3b;fill-opacity:1;fill-rule:nonzero;stroke:none;stroke-width:1;marker:none;enable-background:accumulate"
         d="m 343.49998,195.636 c 0,-4.65703 -0.47377,-5.15811 -5.09574,-5.13529 h -6.40426 -6.40425 c -4.62197,-0.0229 -5.09574,0.47826 -5.09574,5.13529 v 8.7287 c 0,4.65703 0.47371,5.13529 5.09574,5.13529 h 6.40425 6.40426 c 4.62202,0 5.09574,-0.47827 5.09574,-5.1353 z"
         id="path914" />
      <path
         id="path918"
         d="m 335.50001,240.8545 c 0,-3.04166 -0.30899,-3.36894 -3.32331,-3.35403 h -4.17669 -4.17669 c -3.01432,-0.0149 -3.32331,0.31237 -3.32331,3.35403 v 6.29146 c 0,3.04167 0.30895,3.35404 3.32331,3.35404 h 4.17669 4.17669 c 3.01435,0 3.32331,-0.31238 3.32331,-3.35404 z"
         style="color:#000000;display:inline;overflow:visible;visibility:visible;fill:#3b3b3b;fill-opacity:1;fill-rule:nonzero;stroke:none;stroke-width:1;marker:none;enable-background:accumulate" />
      <path
         id="path964-7"
         d="m 350.50001,142.07508 c 0,-5.56175 -0.58409,-6.6037 -6.28227,-6.57447 h -8.21765 -8.21781 c -5.69818,-0.0293 -6.28227,1.01272 -6.28227,6.57447 v 11.85044 c 0,5.56037 0.58403,6.57447 6.28227,6.57447 h 8.21781 8.21765 c 5.69824,0 6.28227,-1.0141 6.28227,-6.57447 z"
         style="color:#000000;display:inline;overflow:visible;visibility:visible;fill:#3b3b3b;fill-opacity:1;fill-rule:nonzero;stroke:none;stroke-width:1;marker:none;enable-background:accumulate" />
      <path
         id="path964-4"
         d="m 366.50065,75.231074 c 0,-8.23154 -0.90635,-9.77365 -9.74838,-9.7304 H 344.0007 331.24889 c -8.84203,-0.0433 -9.74838,1.49886 -9.74838,9.7304 v 17.53897 c 0,8.229496 0.90625,9.730396 9.74838,9.730396 h 12.75181 12.75157 c 8.84213,0 9.74838,-1.5009 9.74838,-9.730406 z"
         style="color:#000000;display:inline;overflow:visible;visibility:visible;fill:#3b3b3b;fill-opacity:1;fill-rule:nonzero;stroke:none;stroke-width:1;marker:none;enable-background:accumulate" />
    </g>
    <g
       style="display:inline"
       id="layer6">
      <path
         id="path925"
         d="m 42,174 h 38 l 24,-64 32,100 20,-60 8,24 8,22 8,-22 h 82"
         style="display:inline;fill:none;fill-rule:evenodd;stroke:#a2bcfe;stroke-width:4;stroke-linecap:square;stroke-linejoin:miter;stroke-miterlimit:4;stroke-dasharray:none;stroke-opacity:1;enable-background:new" />
      <path
         id="path1081"
         d="M 104,110 80,174 H 39.998047 v 31.07617 c 0,35.29673 3.624067,39.09487 38.992187,38.92188 h 73.007816 73.00586 c 35.36811,0.17299 38.99414,-3.62515 38.99414,-38.92188 V 174 H 180 l -8,22 -16,-46 -20,60 z"
         style="display:inline;opacity:0.07999998;fill:url(#linearGradient1094);fill-opacity:1;stroke:none;stroke-width:2;stroke-linecap:round;stroke-linejoin:round;stroke-miterlimit:4;stroke-dasharray:none;stroke-dashoffset:0;stroke-opacity:1;enable-background:new" />
      <path
         id="path4610"
         d="M 334,75.699219 329.19922,88.5 H 321.5 v 4.269531 c 0,8.229499 0.90592,9.730469 9.74805,9.730469 H 344 356.75195 c 8.84213,0 9.74805,-1.50096 9.74805,-9.730469 V 88.5 H 349.19922 L 347.59961,92.900391 346,88.5 l -1.59961,-4.800781 -4,12 z"
         style="display:inline;opacity:0.1;fill:url(#linearGradient4619);fill-opacity:1;stroke:none;stroke-width:2;stroke-linecap:round;stroke-linejoin:round;stroke-miterlimit:4;stroke-dasharray:none;stroke-dashoffset:0;stroke-opacity:1;enable-background:new" />
      <path
         style="display:inline;fill:none;fill-rule:evenodd;stroke:#a2bcfe;stroke-width:1;stroke-linecap:square;stroke-linejoin:miter;stroke-miterlimit:4;stroke-dasharray:none;stroke-opacity:1;enable-background:new"
         d="m 322.5,88.499764 h 6.7 l 4.8,-12.799997 6.4,19.999997 4,-11.999997 1.6,4.799997 1.6,4.4 1.6,-4.4 h 16.3"
         id="path4577" />
      <path
         id="path4579"
         d="m 322.5,150.50045 h 3.84782 l 3.13044,-7.75975 4.17391,12.1246 2.60869,-7.27476 1.04348,2.90991 1.04348,2.6674 1.04348,-2.6674 H 349.5"
         style="display:inline;fill:none;fill-rule:evenodd;stroke:#a2bcfe;stroke-width:1;stroke-linecap:square;stroke-linejoin:miter;stroke-miterlimit:4;stroke-dasharray:none;stroke-opacity:1;enable-background:new" />
      <path
         id="path4621"
         d="M 329.47852,142.74023 326.34766,150.5 H 321.5 v 3.42578 c 0,5.56037 0.58496,6.57422 6.2832,6.57422 H 336 h 8.2168 c 5.69824,0 6.2832,-1.01385 6.2832,-6.57422 V 150.5 h -11.10938 l -1.04296,2.66797 -1.04297,-2.66797 -1.04297,-2.91016 -2.60938,7.27539 z"
         style="display:inline;opacity:0.1;fill:url(#linearGradient4630);fill-opacity:1;stroke:none;stroke-width:2;stroke-linecap:round;stroke-linejoin:round;stroke-miterlimit:4;stroke-dasharray:none;stroke-dashoffset:0;stroke-opacity:1;enable-background:new" />
      <path
         style="display:inline;fill:none;fill-rule:evenodd;stroke:#a2bcfe;stroke-width:1;stroke-linecap:square;stroke-linejoin:miter;stroke-miterlimit:4;stroke-dasharray:none;stroke-opacity:1;enable-background:new"
         d="m 321.5,201.50031 h 3.42174 l 2.29565,-5.27224 3.06087,8.23786 1.91304,-4.94272 0.76522,1.97709 0.76522,1.81232 0.76522,-1.81232 H 342.5"
         id="path4581" />
      <path
         id="path4632"
         d="M 327.2168,196.22852 324.92188,201.5 H 321 l -0.5,0.0234 v 1.20117 c 0,3.19613 0.22439,5.09474 1.1582,6.2207 0.74665,0.46457 1.96054,0.55469 3.9375,0.55469 H 332 h 6.4043 c 1.97695,0 3.19085,-0.0901 3.9375,-0.55469 0.93381,-1.12596 1.1582,-3.02457 1.1582,-6.2207 v -0.85938 C 343.36835,201.76963 343,201.5 343,201.5 h -8.51367 l -0.76367,1.8125 -0.76563,-1.8125 -0.76562,-1.97656 -1.91407,4.94336 z"
         style="display:inline;opacity:0.1;fill:url(#linearGradient4641);fill-opacity:1;stroke:none;stroke-width:2;stroke-linecap:round;stroke-linejoin:round;stroke-miterlimit:4;stroke-dasharray:none;stroke-dashoffset:0;stroke-opacity:1;enable-background:new" />
      <path
         id="path4583"
         d="m 321.5,244.50041 h 1.99565 l 1.46087,-2.82699 1.94783,4.41716 1.21738,-2.6503 0.48696,1.06012 0.48696,0.97177 0.48696,-0.97177 H 334.5"
         style="display:inline;fill:none;fill-rule:evenodd;stroke:#a2bcfe;stroke-width:1;stroke-linecap:square;stroke-linejoin:miter;stroke-miterlimit:4;stroke-dasharray:none;stroke-opacity:1;enable-background:new" />
      <path
         id="path899"
         d="M 324.95703,241.67383 323.49609,244.5 H 321 l -0.5,-0.17773 v 0.99414 c 0,4.53629 0.64892,5.18359 5.18945,5.18359 h 4.6211 c 4.54055,0 5.18945,-0.6473 5.18945,-5.18359 v -0.84766 l -0.5,0.0312 h -5.41797 l -0.48633,0.97266 -0.48632,-0.97266 -0.48829,-1.06055 -1.21679,2.65039 z"
         style="display:inline;opacity:0.1;fill:url(#linearGradient908);fill-opacity:1;stroke:none;stroke-width:2;stroke-linecap:round;stroke-linejoin:round;stroke-miterlimit:4;stroke-dasharray:none;stroke-dashoffset:0;stroke-opacity:1;enable-background:new" />
    </g>
    <g
       style="display:inline"
       id="layer2">
      <path
         id="rect4158-78"
         d="m 78.990234,67.998047 c -35.36853,0 -38.992187,3.623202 -38.992187,38.919923 v 98.1582 c 0,0.0882 0.0019,0.16224 0.002,0.25 V 108.91602 C 40,73.6193 43.625611,69.994141 78.994141,69.994141 H 152 225.00586 c 35.28016,0 38.97394,3.621035 38.99219,38.671879 v -1.74805 c 0,-35.296721 -3.62561,-38.919923 -38.99414,-38.919923 h -73.00586 z"
         style="color:#000000;display:inline;overflow:visible;visibility:visible;opacity:0.3;fill:#ffffff;fill-opacity:1;fill-rule:nonzero;stroke:none;stroke-width:1;marker:none;enable-background:accumulate" />
      <path
         id="rect4158-6"
         d="m 39.998047,203.07617 v 2 c 0,35.29673 3.624067,39.09487 38.992187,38.92188 h 73.007816 73.00586 c 35.36811,0.17299 38.99414,-3.62515 38.99414,-38.92188 v -2 c 0,35.29673 -3.62603,39.09487 -38.99414,38.92188 H 151.99805 78.990234 c -35.36812,0.17299 -38.992187,-3.62515 -38.992187,-38.92188 z"
         style="color:#000000;display:inline;overflow:visible;visibility:visible;opacity:0.2;fill:#000000;fill-opacity:1;fill-rule:nonzero;stroke:none;stroke-width:1;marker:none;enable-background:accumulate" />
      <path
         transform="rotate(90,328,244)"
         clip-path="url(#clipPath983)"
         id="path937"
         d="m 325.09646,237 c -2.80769,0 -3.10979,0.28839 -3.09603,3.10176 V 244 v 3.89824 c -0.0138,2.81337 0.28834,3.10176 3.09603,3.10176 h 5.8075 C 333.71166,251 334,250.71165 334,247.89824 V 244 240.10176 C 334,237.28836 333.71165,237 330.90396,237 Z"
         style="color:#000000;display:inline;overflow:visible;visibility:visible;opacity:0.3;fill:none;fill-opacity:1;fill-rule:nonzero;stroke:url(#linearGradient993);stroke-width:2;stroke-miterlimit:4;stroke-dasharray:none;stroke-opacity:1;marker:none;enable-background:accumulate" />
      <path
         id="path958-6-0"
         d="m 335.51173,240.91355 c 0,-2.89732 -0.30259,-3.44011 -3.25454,-3.42488 h -4.25716 -4.25724 c -2.95195,-0.0152 -3.25453,0.52756 -3.25453,3.42488 v 6.17331 c 0,2.8966 0.30255,3.42488 3.25453,3.42488 h 4.25724 4.25716 c 2.95199,0 3.25454,-0.52828 3.25454,-3.42488 z"
         style="color:#000000;display:inline;overflow:visible;visibility:visible;opacity:0.4;fill:none;fill-opacity:1;fill-rule:nonzero;stroke:#000000;stroke-width:0.97652888;stroke-miterlimit:4;stroke-dasharray:none;stroke-opacity:1;marker:none;enable-background:accumulate" />
      <path
         id="path958-6"
         d="m 343.51172,195.49156 c 0,-4.23214 -0.46371,-5.02499 -4.98757,-5.00275 h -6.5241 -6.52423 c -4.52386,-0.0222 -4.98757,0.77061 -4.98757,5.00275 v 9.01743 c 0,4.23108 0.46366,5.00275 4.98757,5.00275 h 6.52423 6.5241 c 4.52391,0 4.98757,-0.77167 4.98757,-5.00275 z"
         style="color:#000000;display:inline;overflow:visible;visibility:visible;opacity:0.4;fill:none;fill-opacity:1;fill-rule:nonzero;stroke:#000000;stroke-width:0.97652888;stroke-miterlimit:4;stroke-dasharray:none;stroke-opacity:1;marker:none;enable-background:accumulate" />
      <path
         transform="rotate(90,331.99966,200)"
         clip-path="url(#clipPath971)"
         style="color:#000000;display:inline;overflow:visible;visibility:visible;opacity:0.3;fill:none;fill-opacity:1;fill-rule:nonzero;stroke:url(#linearGradient981);stroke-width:2;stroke-miterlimit:4;stroke-dasharray:none;stroke-opacity:1;marker:none;enable-background:accumulate"
         d="m 327.8652,189 c -4.41209,0 -4.88682,0.45318 -4.8652,4.87419 V 200 206.12581 C 322.9783,210.54682 323.45311,211 327.8652,211 h 8.2696 C 340.54689,211 341,210.54688 341,206.12581 V 200 193.87419 C 341,189.45313 340.54688,189 336.13479,189 Z"
         id="path935" />
      <path
         id="path958-1"
         d="m 350.50001,142.07508 c 0,-5.56175 -0.58409,-6.6037 -6.28227,-6.57447 h -8.21765 -8.21781 c -5.69818,-0.0293 -6.28227,1.01272 -6.28227,6.57447 v 11.85044 c 0,5.56037 0.58403,6.57447 6.28227,6.57447 h 8.21781 8.21765 c 5.69824,0 6.28227,-1.0141 6.28227,-6.57447 z"
         style="color:#000000;display:inline;overflow:visible;visibility:visible;opacity:0.4;fill:none;fill-opacity:1;fill-rule:nonzero;stroke:#000000;stroke-width:1;stroke-miterlimit:4;stroke-dasharray:none;stroke-opacity:1;marker:none;enable-background:accumulate" />
      <path
         clip-path="url(#clipPath994-1)"
         style="color:#000000;display:inline;overflow:visible;visibility:visible;opacity:0.3;fill:none;fill-opacity:1;fill-rule:nonzero;stroke:url(#linearGradient1004-8);stroke-width:3.07065511;stroke-miterlimit:4;stroke-dasharray:none;stroke-opacity:1;marker:none;enable-background:accumulate"
         d="m 335.73108,62 c -8.82418,0 -9.77365,0.90635 -9.7304,9.74838 V 84 96.25162 c -0.0433,8.84203 0.90622,9.74838 9.7304,9.74838 h 16.53919 c 8.82418,0 9.7304,-0.90625 9.7304,-9.74838 V 84 71.74838 C 362.00067,62.90625 361.09445,62 352.27027,62 Z"
         id="path990-8"
         transform="matrix(0,0.66664182,-0.63636364,0,389.45455,-81.324786)" />
      <path
         id="path958"
         d="m 366.50065,75.231076 c 0,-8.23154 -0.90635,-9.77365 -9.74838,-9.7304 H 344.0007 331.24889 c -8.84203,-0.0433 -9.74838,1.49886 -9.74838,9.7304 v 17.53897 c 0,8.229494 0.90625,9.730394 9.74838,9.730394 h 12.75181 12.75157 c 8.84213,0 9.74838,-1.5009 9.74838,-9.730404 z"
         style="color:#000000;display:inline;overflow:visible;visibility:visible;opacity:0.4;fill:none;fill-opacity:1;fill-rule:nonzero;stroke:#000000;stroke-width:1;stroke-miterlimit:4;stroke-dasharray:none;stroke-opacity:1;marker:none;enable-background:accumulate" />
      <path
         transform="rotate(90,344,84)"
         clip-path="url(#clipPath994)"
         style="color:#000000;display:inline;overflow:visible;visibility:visible;opacity:0.3;fill:none;fill-opacity:1;fill-rule:nonzero;stroke:url(#linearGradient1004);stroke-width:2;stroke-miterlimit:4;stroke-dasharray:none;stroke-opacity:1;marker:none;enable-background:accumulate"
         d="m 335.73108,62 c -8.82418,0 -9.77365,0.90635 -9.7304,9.74838 V 84 96.25162 c -0.0433,8.84203 0.90622,9.74838 9.7304,9.74838 h 16.53919 c 8.82418,0 9.7304,-0.90625 9.7304,-9.74838 V 84 71.74838 C 362.00067,62.90625 361.09445,62 352.27027,62 Z"
         id="path990" />
    </g>
  </g>
</svg>
