<?xml version="1.0" encoding="UTF-8"?>
<svg enable-background="new" version="1.0" viewBox="0 0 256 256" xmlns="http://www.w3.org/2000/svg" xmlns:xlink="http://www.w3.org/1999/xlink"><defs><linearGradient id="a"><stop stop-color="#babdb6" offset="0"/><stop stop-color="#babdb6" stop-opacity="0" offset="1"/></linearGradient><clipPath id="s"><rect x="-202" y="56" width="84" height="88" rx="10" ry="10" color="#000000" display="block" enable-background="new" fill="none" stroke="#000"/></clipPath><filter id="q"><feGaussianBlur stdDeviation="0.43000004"/></filter><filter id="o" x="-.12" y="-.12" width="1.24" height="1.24"><feGaussianBlur stdDeviation="1.5594418"/></filter><filter id="n" x="-.12" y="-.12" width="1.24" height="1.24"><feGaussianBlur stdDeviation="1.5594418"/></filter><filter id="k" x="-.15775" y="-.043022" width="1.3155" height="1.086" color-interpolation-filters="sRGB"><feGaussianBlur stdDeviation="1.5774648"/></filter><filter id="l" x="-.1316" y="-.077035" width="1.2632" height="1.1541" color-interpolation-filters="sRGB"><feGaussianBlur stdDeviation="1.3160211"/></filter><filter id="m" x="-.1316" y="-.077035" width="1.2632" height="1.1541" color-interpolation-filters="sRGB"><feGaussianBlur stdDeviation="1.3160211"/></filter><filter id="r"><feGaussianBlur stdDeviation="3.4381177"/></filter><linearGradient id="j" x1="-160" x2="-160" y1="48.998" y2="146.47" gradientUnits="userSpaceOnUse"><stop stop-color="#eeeeec" offset="0"/><stop stop-color="#babdb6" offset=".41413"/><stop stop-color="#888a85" offset=".79592"/><stop stop-color="#babdb6" offset="1"/></linearGradient><linearGradient id="i" x1="-160.16" x2="-160.16" y1="68.002" y2="61.702" gradientTransform="translate(-3.4509e-8 -4.0345e-6)" gradientUnits="userSpaceOnUse"><stop stop-color="#eeeeec" offset="0"/><stop stop-color="#eeeeec" stop-opacity="0" offset="1"/></linearGradient><linearGradient id="h" x1="-184.89" x2="-199.11" y1="94.939" y2="94.939" gradientTransform="translate(-3.4509e-8 -4.0345e-6)" gradientUnits="userSpaceOnUse"><stop stop-color="#eeeeec" offset="0"/><stop stop-color="#eeeeec" stop-opacity="0" offset="1"/></linearGradient><linearGradient id="g" x1="-160" x2="-160" y1="118.98" y2="145.52" gradientUnits="userSpaceOnUse" xlink:href="#a"/><linearGradient id="f" x1="-184" x2="-201.75" y1="120.48" y2="146.02" gradientUnits="userSpaceOnUse" xlink:href="#a"/><radialGradient id="b" cx="21.547" cy="31.046" r="15.095" gradientTransform="matrix(4.3178 0 0 3.5901 54.213 5.1651)" gradientUnits="userSpaceOnUse"><stop stop-color="#d3d7cf" offset="0"/><stop stop-color="#babdb6" offset="1"/></radialGradient><linearGradient id="e" x1="152.86" x2="169" y1="129.14" y2="71.5" gradientTransform="matrix(.98216 0 0 .98214 2.8538 1.7143)" gradientUnits="userSpaceOnUse"><stop stop-color="#eeeeec" offset="0"/><stop stop-color="#babdb6" offset="1"/></linearGradient><linearGradient id="d" x1="-165.14" x2="-165.14" y1="141.02" y2="53.925" gradientUnits="userSpaceOnUse"><stop offset="0"/><stop stop-opacity=".41743" offset="1"/></linearGradient><linearGradient id="c" x1="55" x2="211" y1="243" y2="243" gradientTransform="translate(2,4)" gradientUnits="userSpaceOnUse"><stop offset="0"/><stop stop-opacity="0" offset="1"/></linearGradient><filter id="p" x="-.083077" y="-.29455" width="1.1662" height="1.5891"><feGaussianBlur stdDeviation="5.4"/></filter></defs><g transform="translate(-16,-36)"><g><g transform="matrix(1.2805 0 0 1.2805 -46.613 -51.846)"><rect transform="matrix(.99186 0 0 1 .46337 0)" x="65.188" y="79" width="167.81" height="176" rx="19.978" ry="20" color="#000000" display="block" enable-background="new" filter="url(#r)" opacity=".79"/><g transform="matrix(2 0 0 2 -55.812 -68)"><g transform="translate(262,16)"><g clip-path="url(#s)"><rect x="-202" y="56" width="84" height="88" rx="10" ry="10" color="#000000" display="block" enable-background="new" fill="url(#j)"/><path transform="matrix(-1 0 0 1 -320.33 4.5198e-6)" d="m-203.07 47.457c-9.6825 0-7.4774-2.2051-7.4774 7.4774l30.973 22.234c0-4.8412-6.1025 1.2613-1.2613 1.2613z" color="#000000" display="block" enable-background="new" fill="#fff" filter="url(#n)"/><path d="m-203.07 47.457c-9.6825 0-7.4774-2.2051-7.4774 7.4774l30.973 22.234c0-4.8412-6.1025 1.2613-1.2613 1.2613z" color="#000000" display="block" enable-background="new" fill="#fff" filter="url(#o)"/><path d="m-202 56 24 24h36l24-24z" color="#000000" display="block" enable-background="new" fill="url(#i)" opacity=".70357"/><path d="m-202 56v88l24-40v-24z" color="#000000" display="block" enable-background="new" fill="url(#h)" filter="url(#k)" opacity=".70357"/><path d="m-179.5 104-22.5 37 5 4z" color="#000000" display="block" enable-background="new" fill="url(#g)" filter="url(#l)"/><path transform="matrix(-1 0 0 1 -320 6.0349e-7)" d="m-180 104-22 37 5 4z" color="#000000" display="block" enable-background="new" fill="url(#f)" filter="url(#m)" opacity=".68345" stroke="#888a85" stroke-width=".5"/><rect x="-202" y="56" width="84" height="88" rx="10" ry="10" color="#000000" display="block" enable-background="new" fill="none" filter="url(#q)" stroke="url(#d)" stroke-width=".39047"/></g><rect transform="scale(-1,1)" x="130.54" y="68.5" width="58.93" height="55" rx="4.9108" ry="4.9107" color="#000000" display="block" enable-background="new" fill="url(#b)" stroke="url(#e)"/></g></g><text x="150.41797" y="190.98047" enable-background="new" fill="#2e3436" font-family="'Bitstream Vera Sans'" stroke="#d3d7cf" stroke-width="2" style="line-height:0%" xml:space="preserve"><tspan x="150.41797" y="190.98047" fill="#2e3436" font-family="'DejaVu Sans'" font-size="72px" stroke="#d3d7cf" stroke-width="2" style="line-height:1.25">à</tspan></text><text x="150.41797" y="190.98047" fill="#2e3436" font-family="'Bitstream Vera Sans'" style="line-height:0%" xml:space="preserve"><tspan x="150.41797" y="190.98047" fill="#2e3436" font-family="'DejaVu Sans'" font-size="72px" style="line-height:1.25">à</tspan></text></g><path d="m79 225-22 44h156l-24.12-41.776z" fill="url(#c)" filter="url(#p)" opacity=".24797"/></g></g></svg>
