<?xml version="1.0" encoding="UTF-8"?>
<svg enable-background="new" version="1.0" viewBox="0 0 256 256" xmlns="http://www.w3.org/2000/svg" xmlns:xlink="http://www.w3.org/1999/xlink"><defs><radialGradient id="g" cx="56.375" cy="121" r="4.625" gradientTransform="matrix(1 0 0 .43243 0 68.676)" gradientUnits="userSpaceOnUse" xlink:href="#a"/><radialGradient id="p" cx="56" cy="124.69" r="8.5" gradientTransform="matrix(1 0 0 .74265 136 32.214)" gradientUnits="userSpaceOnUse" xlink:href="#a"/><radialGradient id="ai" cx="55.875" cy="112.89" r="9.25" gradientTransform="matrix(2.1373 .027027 -.040321 1.3003 82.778 -5.7461)" gradientUnits="userSpaceOnUse" xlink:href="#a"/><radialGradient id="l" cx="9.5" cy="21.5" r="2" gradientTransform="matrix(1 0 0 1 0 3.5882e-5)" gradientUnits="userSpaceOnUse" xlink:href="#ae"/><linearGradient id="b" x1="9.5" x2="9.5" y1="23.077" y2="20.908" gradientUnits="userSpaceOnUse" xlink:href="#a"/><radialGradient id="aj" cx="55.875" cy="112.89" r="9.25" gradientTransform="matrix(2.1373 .027027 -.040321 1.3003 82.778 -35.246)" gradientUnits="userSpaceOnUse" xlink:href="#a"/><linearGradient id="cl"><stop stop-color="#71726f" offset="0"/><stop stop-color="#565854" offset="1"/></linearGradient><radialGradient id="q" cx="9.5" cy="22.634" r="2" gradientTransform="matrix(2.0949 -.012324 .012282 2.0949 -10.68 -24.666)" gradientUnits="userSpaceOnUse" xlink:href="#cl"/><radialGradient id="ak" cx="88.625" cy="103.28" r="12" gradientTransform="matrix(2.3542 -.11458 .051921 1.0667 -53.376 99.543)" gradientUnits="userSpaceOnUse" xlink:href="#a"/><radialGradient id="h" cx="56" cy="124.69" r="8.5" gradientTransform="matrix(1 0 0 .74265 30 32.214)" gradientUnits="userSpaceOnUse" xlink:href="#a"/><radialGradient id="al" cx="55.875" cy="112.89" r="9.25" gradientTransform="matrix(1.7343 .027027 -.032718 1.3003 67.426 55.754)" gradientUnits="userSpaceOnUse" xlink:href="#a"/><linearGradient id="d" x1="9.9189" x2="9.5" y1="20.317" y2="24.507" gradientUnits="userSpaceOnUse" xlink:href="#ad"/><radialGradient id="am" cx="9.5" cy="20.316" r="2" gradientTransform="matrix(1 0 0 1 0 3.5882e-5)" gradientUnits="userSpaceOnUse" xlink:href="#a"/><radialGradient id="i" cx="9.5" cy="22.387" r="2" gradientTransform="matrix(1 0 0 1 0 3.5882e-5)" gradientUnits="userSpaceOnUse" xlink:href="#a"/><radialGradient id="an" cx="88.625" cy="103.28" r="12" gradientTransform="matrix(2.3542 -.11458 .051921 1.0667 -89.376 99.543)" gradientUnits="userSpaceOnUse" xlink:href="#a"/><linearGradient id="cm" x1="86.085" x2="86.085" y1="113.13" y2="129.13" gradientTransform="translate(38,91)" gradientUnits="userSpaceOnUse" xlink:href="#j"/><radialGradient id="ao" cx="55.875" cy="112.89" r="9.25" gradientTransform="matrix(1.7343 .027027 -.032718 1.3003 31.426 55.754)" gradientUnits="userSpaceOnUse" xlink:href="#a"/><radialGradient id="m" cx="9.5" cy="20.499" r="2" gradientTransform="matrix(1 0 0 1 0 3.5882e-5)" gradientUnits="userSpaceOnUse" xlink:href="#a"/><radialGradient id="aq" cx="88.625" cy="103.28" r="12" gradientTransform="matrix(2.3542 -.11458 .051921 1.0667 -125.38 99.543)" gradientUnits="userSpaceOnUse" xlink:href="#a"/><linearGradient id="t" x1="86.085" x2="86.085" y1="113.13" y2="129.13" gradientTransform="translate(-.5 92)" gradientUnits="userSpaceOnUse" xlink:href="#j"/><radialGradient id="ar" cx="55.875" cy="112.89" r="9.25" gradientTransform="matrix(1.7343 .027027 -.032718 1.3003 -4.5742 55.754)" gradientUnits="userSpaceOnUse" xlink:href="#a"/><radialGradient id="as" cx="88.625" cy="103.28" r="12" gradientTransform="matrix(2.3542 -.11458 .051921 1.0667 -53.376 68.543)" gradientUnits="userSpaceOnUse" xlink:href="#a"/><linearGradient id="u" x1="86.085" x2="86.085" y1="113.13" y2="129.13" gradientTransform="translate(71.5,61)" gradientUnits="userSpaceOnUse" xlink:href="#j"/><radialGradient id="at" cx="55.875" cy="112.89" r="9.25" gradientTransform="matrix(1.7343 .027027 -.032718 1.3003 67.426 24.754)" gradientUnits="userSpaceOnUse" xlink:href="#a"/><radialGradient id="au" cx="9.5" cy="20.377" r="2" gradientTransform="matrix(1 0 0 1 0 3.5882e-5)" gradientUnits="userSpaceOnUse" xlink:href="#a"/><radialGradient id="av" cx="88.625" cy="103.28" r="12" gradientTransform="matrix(2.3542 -.11458 .051921 1.0667 -89.376 68.543)" gradientUnits="userSpaceOnUse" xlink:href="#a"/><linearGradient id="v" x1="86.085" x2="86.085" y1="113.13" y2="129.13" gradientTransform="translate(35.5,61)" gradientUnits="userSpaceOnUse" xlink:href="#j"/><radialGradient id="aw" cx="55.875" cy="112.89" r="9.25" gradientTransform="matrix(1.7343 .027027 -.032718 1.3003 31.426 24.754)" gradientUnits="userSpaceOnUse" xlink:href="#a"/><linearGradient id="o" x1="9.9189" x2="9.5" y1="20.317" y2="24.507" gradientTransform="translate(0 -43)" gradientUnits="userSpaceOnUse" xlink:href="#ad"/><radialGradient id="ax" cx="9.5" cy="20.377" r="2" gradientTransform="matrix(1 0 0 1 0 -43)" gradientUnits="userSpaceOnUse" xlink:href="#a"/><radialGradient id="ay" cx="88.625" cy="103.28" r="12" gradientTransform="matrix(2.3542 -.11458 .051921 1.0667 -125.38 68.543)" gradientUnits="userSpaceOnUse" xlink:href="#a"/><linearGradient id="w" x1="86.085" x2="86.085" y1="113.13" y2="129.13" gradientTransform="translate(-.5 61)" gradientUnits="userSpaceOnUse" xlink:href="#j"/><radialGradient id="az" cx="55.875" cy="112.89" r="9.25" gradientTransform="matrix(1.7343 .027027 -.032718 1.3003 -4.5742 24.754)" gradientUnits="userSpaceOnUse" xlink:href="#a"/><radialGradient id="r" cx="9.5" cy="20.499" r="2" gradientTransform="matrix(1 0 0 1 0 -43)" gradientUnits="userSpaceOnUse" xlink:href="#a"/><radialGradient id="ba" cx="88.625" cy="103.28" r="12" gradientTransform="matrix(2.3542 -.11458 .051921 1.0667 -53.376 38.543)" gradientUnits="userSpaceOnUse" xlink:href="#a"/><linearGradient id="x" x1="86.085" x2="86.085" y1="113.13" y2="129.13" gradientTransform="translate(71.5,31)" gradientUnits="userSpaceOnUse" xlink:href="#j"/><radialGradient id="bb" cx="55.875" cy="112.89" r="9.25" gradientTransform="matrix(1.7343 .027027 -.032718 1.3003 67.426 -5.2461)" gradientUnits="userSpaceOnUse" xlink:href="#a"/><radialGradient id="bc" cx="9.5" cy="20.255" r="2" gradientTransform="matrix(1 0 0 1 0 3.5882e-5)" gradientUnits="userSpaceOnUse" xlink:href="#a"/><radialGradient id="bd" cx="88.625" cy="103.28" r="12" gradientTransform="matrix(2.3542 -.11458 .051921 1.0667 -89.376 38.543)" gradientUnits="userSpaceOnUse" xlink:href="#a"/><linearGradient id="y" x1="86.085" x2="86.085" y1="113.13" y2="129.13" gradientTransform="translate(35.5,31)" gradientUnits="userSpaceOnUse" xlink:href="#j"/><radialGradient id="be" cx="55.875" cy="112.89" r="9.25" gradientTransform="matrix(1.7343 .027027 -.032718 1.3003 31.426 -5.2461)" gradientUnits="userSpaceOnUse" xlink:href="#a"/><radialGradient id="s" cx="9.5" cy="20.438" r="2" gradientTransform="matrix(1 0 0 1 0 3.5882e-5)" gradientUnits="userSpaceOnUse" xlink:href="#a"/><radialGradient id="bf" cx="88.625" cy="103.28" r="12" gradientTransform="matrix(2.3542 -.11458 .051921 1.0667 -125.38 38.543)" gradientUnits="userSpaceOnUse" xlink:href="#a"/><linearGradient id="z" x1="86.085" x2="86.085" y1="113.13" y2="129.13" gradientTransform="translate(-.5 31)" gradientUnits="userSpaceOnUse" xlink:href="#j"/><radialGradient id="bg" cx="55.875" cy="112.89" r="9.25" gradientTransform="matrix(1.7343 .027027 -.032718 1.3003 -4.5742 -5.2461)" gradientUnits="userSpaceOnUse" xlink:href="#a"/><radialGradient id="bh" cx="88.625" cy="103.28" r="12" gradientTransform="matrix(2.3542 -.11458 .051921 1.0667 -53.376 8.5429)" gradientUnits="userSpaceOnUse" xlink:href="#a"/><linearGradient id="aa" x1="86.085" x2="86.085" y1="113.13" y2="129.13" gradientTransform="translate(71.5,1)" gradientUnits="userSpaceOnUse" xlink:href="#j"/><radialGradient id="bi" cx="55.875" cy="112.89" r="9.25" gradientTransform="matrix(1.7343 .027027 -.032718 1.3003 67.426 -35.246)" gradientUnits="userSpaceOnUse" xlink:href="#a"/><radialGradient id="bj" cx="88.625" cy="103.28" r="12" gradientTransform="matrix(2.3542 -.11458 .051921 1.0667 -89.376 8.5429)" gradientUnits="userSpaceOnUse" xlink:href="#a"/><linearGradient id="ab" x1="86.085" x2="86.085" y1="113.13" y2="129.13" gradientTransform="translate(35.5,1)" gradientUnits="userSpaceOnUse" xlink:href="#j"/><radialGradient id="bk" cx="55.875" cy="112.89" r="9.25" gradientTransform="matrix(1.7343 .027027 -.032718 1.3003 31.426 -35.246)" gradientUnits="userSpaceOnUse" xlink:href="#a"/><linearGradient id="a"><stop stop-color="#fff" offset="0"/><stop stop-color="#fff" stop-opacity="0" offset="1"/></linearGradient><radialGradient id="bl" cx="88.625" cy="103.28" r="12" gradientTransform="matrix(2.3542 -.11458 .051921 1.0667 -125.38 8.5429)" gradientUnits="userSpaceOnUse" xlink:href="#a"/><linearGradient id="j"><stop stop-color="#2e3436" offset="0"/><stop stop-color="#2e3436" stop-opacity="0" offset="1"/></linearGradient><linearGradient id="ac" x1="86.085" x2="86.085" y1="113.13" y2="129.13" gradientTransform="translate(-.5 1)" gradientUnits="userSpaceOnUse" xlink:href="#j"/><radialGradient id="bm" cx="55.875" cy="112.89" r="9.25" gradientTransform="matrix(1.7343 .027027 -.032718 1.3003 -4.5742 -35.246)" gradientUnits="userSpaceOnUse" xlink:href="#a"/><filter id="k"><feGaussianBlur stdDeviation="0.094969588"/></filter><linearGradient id="ad"><stop stop-color="#555753" offset="0"/><stop stop-color="#555753" stop-opacity="0" offset="1"/></linearGradient><filter id="cx" x="-.32676" y="-.30753" width="1.6535" height="1.6151"><feGaussianBlur stdDeviation="0.38508518"/></filter><radialGradient id="bn" cx="221.5" cy="231.52" r="1.4142" gradientTransform="matrix(1 0 0 1.0625 0 -14.47)" gradientUnits="userSpaceOnUse"><stop stop-color="#fff" offset="0"/><stop stop-color="#fff" stop-opacity="0" offset="1"/></radialGradient><filter id="cy"><feGaussianBlur stdDeviation="0.56039415"/></filter><radialGradient id="bo" cx="37.435" cy="228.37" r="4.4194" gradientTransform="matrix(4.2103 .070711 -.059954 3.5698 -106.13 -586.5)" gradientUnits="userSpaceOnUse" xlink:href="#a"/><radialGradient id="bp" cx="56.375" cy="124.27" r="4.625" gradientTransform="matrix(1 0 0 .80511 0 22.364)" gradientUnits="userSpaceOnUse" xlink:href="#a"/><radialGradient id="bq" cx="56" cy="124.69" r="8.5" gradientTransform="matrix(1 0 0 .74265 142.25 124.21)" gradientUnits="userSpaceOnUse" xlink:href="#a"/><filter id="e" x="-.22211" y="-.51362" width="1.4442" height="2.0272"><feGaussianBlur stdDeviation="0.85603933"/></filter><radialGradient id="br" cx="56" cy="124.69" r="8.5" gradientTransform="matrix(1 0 0 .74265 0 124.21)" gradientUnits="userSpaceOnUse" xlink:href="#a"/><radialGradient id="bs" cx="55.875" cy="112.89" r="9.25" gradientTransform="matrix(1.3649 .027027 -.025749 1.3003 -17.48 56.754)" gradientUnits="userSpaceOnUse" xlink:href="#a"/><radialGradient id="n" cx="9.5" cy="22.634" r="2" gradientTransform="matrix(2.0949 -.012324 .012282 2.0949 -10.68 -24.666)" gradientUnits="userSpaceOnUse" xlink:href="#ae"/><radialGradient id="bt" cx="56" cy="124.69" r="8.5" gradientTransform="matrix(1 0 0 .74265 0 92.214)" gradientUnits="userSpaceOnUse" xlink:href="#a"/><radialGradient id="bu" cx="55.875" cy="112.89" r="9.25" gradientTransform="matrix(1.3649 .027027 -.025749 1.3003 -17.48 24.754)" gradientUnits="userSpaceOnUse" xlink:href="#a"/><radialGradient id="bv" cx="56" cy="124.69" r="8.5" gradientTransform="matrix(1 0 0 .74265 0 62.214)" gradientUnits="userSpaceOnUse" xlink:href="#a"/><radialGradient id="bw" cx="55.875" cy="112.89" r="9.25" gradientTransform="matrix(1.3649 .027027 -.025749 1.3003 -17.48 -5.2461)" gradientUnits="userSpaceOnUse" xlink:href="#a"/><filter id="cz"><feGaussianBlur stdDeviation="0.38483146"/></filter><radialGradient id="bx" cx="133.5" cy="-6.6154" r="90.5" gradientTransform="matrix(1.7459 -.01105 .0055554 .87775 -99.535 35.282)" gradientUnits="userSpaceOnUse"><stop stop-color="#fff" offset="0"/><stop stop-color="#fff" stop-opacity="0" offset="1"/></radialGradient><linearGradient id="ct" x1="10.375" x2="10.25" y1="11.062" y2="5.6207" gradientTransform="matrix(5.8094 0 0 6.1456 -9.9245 -21.203)" gradientUnits="userSpaceOnUse" xlink:href="#a"/><filter id="f" x="-.051702" y="-.54088" width="1.1034" height="2.0818"><feGaussianBlur stdDeviation="0.36622191"/></filter><radialGradient id="by" cx="56" cy="124.69" r="8.5" gradientTransform="matrix(1 0 0 .74265 0 32.214)" gradientUnits="userSpaceOnUse" xlink:href="#a"/><radialGradient id="bz" cx="55.875" cy="112.89" r="9.25" gradientTransform="matrix(1.3649 .027027 -.025749 1.3003 -17.48 -35.346)" gradientUnits="userSpaceOnUse" xlink:href="#a"/><radialGradient id="ca" cx="129.5" cy="-5.3824" r="92.95" gradientTransform="matrix(1.0188 0 -8.4344e-8 .10787 -2.4381 16.252)" gradientUnits="userSpaceOnUse" xlink:href="#a"/><radialGradient id="cb" cx="39" cy="77.25" r="1.5" gradientTransform="matrix(25.681 -.38046 .33334 22.5 -988.29 -1628.5)" gradientUnits="userSpaceOnUse"><stop stop-color="#fff" offset="0"/><stop stop-color="#fff" stop-opacity="0" offset="1"/></radialGradient><filter id="dd"><feGaussianBlur stdDeviation="0.439375"/></filter><linearGradient id="cs" x1="142" x2="98" y1="231" y2="127" gradientUnits="userSpaceOnUse"><stop stop-color="#fff" offset="0"/><stop stop-color="#fff" stop-opacity="0" offset="1"/></linearGradient><filter id="dc"><feBlend in2="BackgroundImage" mode="screen"/></filter><linearGradient id="cq" x1="35.517" x2="223.48" y1="54.804" y2="54.804" gradientUnits="userSpaceOnUse"><stop stop-color="#fff" stop-opacity="0" offset="0"/><stop stop-color="#fff" stop-opacity=".49804" offset=".18079"/><stop stop-color="#fff" stop-opacity=".36875" offset=".5372"/><stop stop-color="#fff" stop-opacity="0" offset=".96285"/><stop stop-color="#fff" stop-opacity=".60625" offset="1"/></linearGradient><radialGradient id="cc" cx="197.99" cy="179.83" r="14.496" gradientTransform="matrix(6.9252 -.023396 .0081946 2.4256 -1174.6 -261.87)" gradientUnits="userSpaceOnUse"><stop stop-color="#fff" offset="0"/><stop stop-color="#fff" stop-opacity="0" offset="1"/></radialGradient><filter id="ag"><feGaussianBlur stdDeviation="0.092082125"/></filter><linearGradient id="cn"><stop stop-color="#fff" stop-opacity=".43125" offset="0"/><stop stop-color="#fff" stop-opacity="0" offset="1"/></linearGradient><radialGradient id="ap" cx="15.489" cy="23.992" r="3" gradientTransform="matrix(2.7399 -.13943 .13685 2.6985 -30.223 -34.25)" gradientUnits="userSpaceOnUse"><stop stop-color="#6b6e69" offset="0"/><stop stop-color="#555753" offset="1"/></radialGradient><radialGradient id="ah" cx="185.38" cy="33.25" r="20.321" gradientTransform="matrix(1.5167 .024605 -.017644 1.0876 -95.203 -7.4743)" gradientUnits="userSpaceOnUse"><stop stop-color="#fcaf3e" offset="0"/><stop stop-color="#fcaf3e" stop-opacity="0" offset="1"/></radialGradient><linearGradient id="ae"><stop stop-color="#555753" offset="0"/><stop stop-color="#3c3e3b" offset="1"/></linearGradient><filter id="c"><feGaussianBlur stdDeviation="0.0943149"/><feBlend in2="BackgroundImage" mode="screen"/></filter><linearGradient id="cp" x1="129.5" x2="129.5" y1="78.894" y2="34.715" gradientUnits="userSpaceOnUse"><stop stop-color="#fff" offset="0"/><stop stop-color="#c2e59f" offset="1"/></linearGradient><linearGradient id="cr" x1="139.22" x2="138.5" y1="93.715" y2="61.215" gradientUnits="userSpaceOnUse"><stop stop-color="#8ae234" offset="0"/><stop stop-color="#63af19" offset="1"/></linearGradient><linearGradient id="cv" x1="8.125" x2="8.125" y1="18.625" y2="1.5624" gradientTransform="matrix(5.0802 0 0 5.0715 7.5764 7.8928)" gradientUnits="userSpaceOnUse"><stop stop-color="#2e3436" offset="0"/><stop stop-color="#555753" offset="1"/></linearGradient><filter id="de"><feGaussianBlur stdDeviation="2.3907457"/></filter><clipPath id="dn"><rect x="35.517" y="48.671" width="187.97" height="184.9" rx="2.875" ry="2.875" fill="none" stroke="#000" stroke-dashoffset="1.4" stroke-linecap="round" stroke-miterlimit="6" stroke-width="2"/></clipPath><linearGradient id="cu" x1="26.638" x2="26.713" y1="17.505" y2="44.5" gradientTransform="matrix(5.0802 0 0 5.0715 7.5764 7.8928)" gradientUnits="userSpaceOnUse"><stop stop-color="#a2a39f" offset="0"/><stop stop-color="#8d8f88" offset=".90325"/><stop stop-color="#babdb6" offset="1"/></linearGradient><filter id="db" x="-.040433" y="-.447" width="1.0809" height="1.894"><feGaussianBlur stdDeviation="3.3525281"/></filter><filter id="da" x="-.10659" y="-1.1785" width="1.2132" height="3.3569"><feGaussianBlur stdDeviation="8.8384831"/></filter><linearGradient id="co" x1="11.667" x2="11.667" y1="22.625" y2="19.5" gradientUnits="userSpaceOnUse"><stop stop-color="#2e3436" offset="0"/><stop stop-color="#555753" offset="1"/></linearGradient><radialGradient id="ck" cx="15.902" cy="21.732" r="3" gradientTransform="matrix(1.9597 0 0 1.6579 -14.976 -13.841)" gradientUnits="userSpaceOnUse"><stop stop-color="#babdb6" offset="0"/><stop stop-color="#888a85" offset="1"/></radialGradient><linearGradient id="cw" x1="86.085" x2="86.085" y1="113.13" y2="129.13" gradientTransform="matrix(.78258 0 0 .78258 85.806 116.79)" gradientUnits="userSpaceOnUse" xlink:href="#j"/><clipPath id="do"><rect x="73.618" y="53.536" width="111.76" height="22.857" fill="none" stroke="#000"/></clipPath><filter id="dm" x="-.028982" y="-.12774" width="1.058" height="1.2555"><feGaussianBlur stdDeviation="1.349614"/></filter><linearGradient id="af" x1="13.779" x2="13.776" y1="29.599" y2="24.5" gradientUnits="userSpaceOnUse" xlink:href="#cn"/><filter id="dl"><feGaussianBlur stdDeviation="0.096338348"/></filter><filter id="dk"><feGaussianBlur stdDeviation="0.049221138"/></filter><filter id="dj"><feGaussianBlur stdDeviation="0.049221138"/></filter><filter id="di"><feGaussianBlur stdDeviation="0.12128867"/></filter><filter id="dh"><feGaussianBlur stdDeviation="0.12128867"/></filter><filter id="dg"><feGaussianBlur stdDeviation="0.12128867"/></filter><filter id="df"><feGaussianBlur stdDeviation="0.048000006"/></filter><radialGradient id="cj" cx="88.625" cy="103.28" r="12" gradientTransform="matrix(1.8024 -.11458 .039752 1.0667 -108.03 8.4429)" gradientUnits="userSpaceOnUse" xlink:href="#a"/><radialGradient id="ci" cx="88.625" cy="103.28" r="12" gradientTransform="matrix(1.8024 -.11458 .039752 1.0667 -108.03 38.543)" gradientUnits="userSpaceOnUse" xlink:href="#a"/><radialGradient id="ch" cx="88.625" cy="103.28" r="12" gradientTransform="matrix(1.8024 -.11458 .039752 1.0667 -108.03 68.543)" gradientUnits="userSpaceOnUse" xlink:href="#a"/><radialGradient id="cg" cx="88.625" cy="103.28" r="12" gradientTransform="matrix(1.8024 -.11458 .039752 1.0667 -108.03 100.54)" gradientUnits="userSpaceOnUse" xlink:href="#a"/><radialGradient id="cf" cx="88.625" cy="103.28" r="12" gradientTransform="matrix(2.8157 -.11458 .062099 1.0667 -58.307 38.043)" gradientUnits="userSpaceOnUse" xlink:href="#a"/><radialGradient id="ce" cx="88.625" cy="103.28" r="12" gradientTransform="matrix(2.8157 -.11458 .062099 1.0667 -58.307 8.7929)" gradientUnits="userSpaceOnUse" xlink:href="#a"/><radialGradient id="cd" cx="88.625" cy="103.28" r="12" gradientTransform="matrix(2.7465 -.25893 .060574 2.4106 -51.667 -56.195)" gradientUnits="userSpaceOnUse" xlink:href="#a"/></defs><g transform="translate(-24,-36)"><g transform="matrix(1.0643 0 0 1.0643 14.307 23.275)"><rect transform="matrix(1.1206 0 0 1.1206 -15.739 -27.739)" x="31" y="221" width="199" height="18" rx="8.0314" ry="8.0314" enable-background="accumulate" filter="url(#da)" opacity=".37356"/><rect transform="matrix(.96985 0 0 .96985 2.9347 5.9347)" x="31" y="221" width="199" height="18" rx="9.2798" ry="9.2798" enable-background="accumulate" filter="url(#db)" opacity=".61494"/><rect x="35.517" y="48.671" width="187.97" height="184.9" rx="2.875" ry="2.875" fill="url(#cu)"/><rect transform="matrix(5.0802 0 0 5.2215 119.34 64.679)" x="12.5" y="19.5" width="6" height="10" rx=".4036" ry=".39201" fill="none" filter="url(#ag)" stroke="url(#af)" stroke-dashoffset="1.4" stroke-linecap="square" stroke-miterlimit="6" stroke-width=".19416"/><rect transform="translate(.5)" x="35.517" y="48.671" width="187.97" height="184.9" rx="2.875" ry="2.875" clip-path="url(#dn)" fill="none" filter="url(#de)" stroke="#000" stroke-dashoffset="1.4" stroke-linecap="round" stroke-miterlimit="6" stroke-width="2"/><path d="m35.517 94.108s0.73281-2.5 8.9828-2.5h169.5c6.875 0.125 9.4828 2.5 9.4828 2.5v-64.028c0-8.0776-6.514-14.581-14.605-14.581h-158.75c-8.0914 0-14.605 6.5029-14.605 14.581z" fill="url(#cv)" stroke="#2e3436" stroke-dashoffset="1.4" stroke-linecap="round" stroke-miterlimit="6"/><rect x="48.218" y="43.393" width="162.56" height="45.643" rx="1.1762" ry="1.1762" fill="url(#cr)"/><rect x="73.618" y="53.536" width="111.76" height="25.357" fill="url(#cp)" opacity=".6"/><g transform="matrix(5.0802 0 0 5.0715 7.5764 7.9928)" fill="none" filter="url(#c)" opacity=".45402" stroke="url(#b)" stroke-width=".19701"><rect x="7.5" y="19.5" width="4" height="4" rx=".20009" ry=".20043" fill="none" stroke="url(#b)" stroke-dashoffset="1.4" stroke-linecap="square" stroke-width=".19701"/></g><g transform="matrix(5.0802 0 0 5.0715 7.5764 7.8928)" fill="url(#l)" filter="url(#df)"><rect x="7.5" y="19.5" width="4" height="4" rx=".20009" ry=".20043" fill="url(#n)"/></g><rect x="165.06" y="28.179" width="40.641" height="10.143" fill="url(#ah)" opacity=".3"/><rect transform="matrix(5.0802 0 0 5.2215 119.34 64.679)" x="12.5" y="19.5" width="6" height="10" rx=".4036" ry=".39201" fill="url(#ap)" filter="url(#dl)"/><path d="m184.09 213.78 0.0848-45.657c0.13118-0.7043 0.44086-0.74703 0.77159-0.7267l26.196 0.14048c0.66471 0.0486 1.1278 0.31561 1.1168 1.0962l-0.35972 45.825-1.5262-44.767h-24.249l-2.0348 44.088z" enable-background="accumulate" fill="url(#cc)" opacity=".1506"/><path d="m35.517 94.108s1.1078-2.375 8.9828-2h171c6.25-0.25 7.9828 2 7.9828 2v-64.028c0-8.0776-6.514-14.581-14.605-14.581h-158.75c-8.0914 0-14.605 6.5029-14.605 14.581z" fill="url(#cq)" filter="url(#dc)" opacity=".71839"/><rect transform="matrix(1.0111 0 0 1.0111 -1.4432 -2.6673)" x="40.5" y="60" width="179.5" height="170" rx="2.8435" ry="2.8435" enable-background="accumulate" fill="none" filter="url(#dd)" opacity=".51562" stroke="url(#cs)" stroke-miterlimit="6" stroke-width=".98904"/><rect x="37.5" y="47" width="3" height="95.5" rx="2.875" ry="2.875" enable-background="accumulate" fill="url(#cb)" opacity=".51562"/><path d="m55.449 15.671c-8.4739 0.74573-10.448 3.8515-13.899 6.4211h175.4c-2.8923-2.8707-11.663-6.1984-15.399-6.4211z" fill="url(#ca)" opacity=".85632"/><g transform="scale(.986 1.0142)" enable-background="accumulate" fill="#fff" opacity=".51562" style="text-decoration-line:none;text-indent:0;text-transform:none"><path d="m193.92 187.32v-3.1742h13.926v3.1742h-13.926m0 5.6902v-3.2034h13.926v3.2034h-13.926"/></g><path d="m46.625 124.9v-16.25l0.75-1.125h17.25l0.5 0.75v16.875l-0.875-16.5h-16.625z" enable-background="accumulate" fill="url(#bz)" opacity=".45402"/><rect x="47.5" y="124" width="17" height="1.625" rx=".8125" ry=".8125" enable-background="accumulate" fill="url(#by)" filter="url(#f)" opacity=".25862"/><path d="m43.449 15.671c-3.7856 0-6.8986 3.2932-6.8986 7.2979v40.648s0.30742-4.56 4.4553-5.1022c64.174-8.3883 129.61-13.965 177.84-6.7467 4.319 0.64638 3.6031 6.915 3.6031 6.915v-35.714c0-4.0047-3.113-7.2979-6.8986-7.2979z" fill="url(#ct)" opacity=".072"/><rect transform="matrix(1.0111 0 0 1 -1.4389 -1)" x="39.5" y="18" width="180" height="90" rx="12.857" ry="13" enable-background="accumulate" fill="none" filter="url(#cz)" opacity=".37356" stroke="url(#bx)" stroke-width="1.989"/><g enable-background="accumulate" fill="#fff" stroke-width="2" style="text-decoration-line:none;text-indent:0;text-transform:none"><path d="m54.7 117.85h-2.7874v-1.6633h2.7874v-2.8026h1.6633v2.8026h2.7798v1.6633h-2.7798v2.7646h-1.6633v-2.7646"/></g><g transform="matrix(5.0802 0 0 5.0715 7.5764 37.993)" fill="none" filter="url(#c)" opacity=".45402" stroke="url(#b)" stroke-width=".19701"><rect x="7.5" y="19.5" width="4" height="4" rx=".20009" ry=".20043" fill="none" stroke="url(#b)" stroke-dashoffset="1.4" stroke-linecap="square" stroke-width=".19701"/></g><g transform="matrix(5.0802 0 0 5.0715 7.5764 37.893)" fill="url(#l)" filter="url(#di)"><rect x="7.5" y="19.5" width="4" height="4" rx=".20009" ry=".20043" fill="url(#n)"/></g><path d="m46.625 155v-16.25l0.75-1.125h17.25l0.5 0.75v16.875l-0.875-16.5h-16.625z" enable-background="accumulate" fill="url(#bw)" opacity=".45402"/><rect x="47.5" y="154" width="17" height="1.625" rx=".8125" ry=".8125" enable-background="accumulate" fill="url(#bv)" filter="url(#f)" opacity=".25862"/><path d="m51.467 146.32v1.5923h8.8805v-1.5923h-8.8805" enable-background="accumulate" fill="#fff" style="text-decoration-line:none;text-indent:0;text-transform:none"/><g transform="matrix(5.0802 0 0 5.0715 7.5764 67.993)" fill="none" filter="url(#c)" opacity=".45402" stroke="url(#b)" stroke-width=".19701"><rect x="7.5" y="19.5" width="4" height="4" rx=".20009" ry=".20043" fill="none" stroke="url(#b)" stroke-dashoffset="1.4" stroke-linecap="square" stroke-width=".19701"/></g><g transform="matrix(5.0802 0 0 5.0715 7.5764 67.893)" fill="url(#l)" filter="url(#dh)"><rect x="7.5" y="19.5" width="4" height="4" rx=".20009" ry=".20043" fill="url(#n)"/></g><path d="m46.625 185v-16.25l0.75-1.125h17.25l0.5 0.75v16.875l-0.875-16.5h-16.625z" enable-background="accumulate" fill="url(#bu)" opacity=".45402"/><rect x="47.5" y="184" width="17" height="1.625" rx=".8125" ry=".8125" enable-background="accumulate" fill="url(#bt)" filter="url(#f)" opacity=".25862"/><path d="m58.112 173.79-2.4302 2.4302-2.3299-2.3298-1.0367 1.0367 2.3299 2.3298-2.4636 2.4636 1.0925 1.0925 2.4636-2.4636 2.3299 2.3298 1.0367-1.0367-2.3299-2.3298 2.4302-2.4302-1.0925-1.0925" enable-background="accumulate" fill="#fff" style="text-decoration-line:none;text-indent:0;text-transform:none"/><g transform="matrix(5.0802 0 0 5.0715 7.5764 99.993)" fill="none" filter="url(#c)" opacity=".45402" stroke="url(#b)" stroke-width=".19701"><rect x="7.5" y="19.5" width="4" height="4" rx=".20009" ry=".20043" fill="none" stroke="url(#b)" stroke-dashoffset="1.4" stroke-linecap="square" stroke-width=".19701"/></g><g transform="matrix(5.0802 0 0 5.0715 7.5764 99.893)" fill="url(#l)" filter="url(#dg)"><rect x="7.5" y="19.5" width="4" height="4" rx=".20009" ry=".20043" fill="url(#n)"/></g><path d="m46.625 217v-16.25l0.75-1.125h17.25l0.5 0.75v16.875l-0.875-16.5h-16.625z" enable-background="accumulate" fill="url(#bs)" opacity=".45402"/><rect x="47.5" y="216" width="17" height="1.625" rx=".8125" ry=".8125" enable-background="accumulate" fill="url(#br)" filter="url(#f)" opacity=".25862"/><g transform="translate(-.25 .75)" fill="#fff"><path d="m51.717 207.57v1.5923h8.8805v-1.5923h-8.8805" enable-background="accumulate" style="text-decoration-line:none;text-indent:0;text-transform:none"/><rect x="55.25" y="203.75" width="1.875" height="1.875" enable-background="accumulate"/><rect x="55.25" y="211.38" width="1.875" height="1.875" enable-background="accumulate"/></g><ellipse transform="matrix(1.2162 0 0 1.2162 -12.689 -26.912)" cx="56.375" cy="121" rx="4.625" ry="2" enable-background="accumulate" fill="url(#g)" filter="url(#e)" opacity=".31034"/><ellipse transform="matrix(1.2162 0 0 1.2162 -12.689 3.0878)" cx="56.375" cy="121" rx="4.625" ry="2" enable-background="accumulate" fill="url(#g)" filter="url(#e)" opacity=".31034"/><ellipse transform="matrix(1.2162 0 0 1.2162 -12.689 33.088)" cx="56.375" cy="121" rx="4.625" ry="2" enable-background="accumulate" fill="url(#g)" filter="url(#e)" opacity=".31034"/><ellipse transform="matrix(1.2162 0 0 1.2162 -12.689 65.088)" cx="56.375" cy="121" rx="4.625" ry="2" enable-background="accumulate" fill="url(#g)" filter="url(#e)" opacity=".31034"/><rect transform="matrix(1.5882 0 0 1 -116.62 -.75)" x="189.75" y="216" width="17" height="1.625" rx=".51157" ry=".8125" enable-background="accumulate" fill="url(#bq)" filter="url(#f)" opacity=".25862"/><ellipse transform="matrix(2.31 0 0 4.8412 68.574 -379.79)" cx="56.375" cy="121" rx="4.625" ry="2" enable-background="accumulate" fill="url(#bp)" filter="url(#e)" opacity=".17241"/><path d="m36.681 215.52v14.584c0.11829 1.0237 0.50416 1.947 1.9445 2.4749h17.269l-16.916-0.97227c-1.0006-0.34011-1.6759-1.0598-1.6794-2.5633z" enable-background="accumulate" fill="url(#bo)" filter="url(#cy)" opacity=".48851"/><ellipse transform="matrix(1.2353 0 0 1.2353 -52.471 -55.358)" cx="221.5" cy="231.52" rx="1.4142" ry="1.5026" enable-background="accumulate" fill="url(#bn)" filter="url(#cx)" opacity=".66667"/><g transform="matrix(6.4552 0 0 5.0715 27.264 8.7928)" fill="none" filter="url(#c)" opacity=".45402" stroke="url(#b)" stroke-width=".17477"><rect x="7.5" y="19.5" width="4" height="4" rx=".15747" ry=".20043" fill="none" stroke="url(#b)" stroke-dashoffset="1.4" stroke-linecap="square" stroke-width=".17477"/></g><g transform="matrix(6.4552 0 0 -5.0715 27.264 225.97)" fill="url(#i)" filter="url(#k)" stroke="url(#d)"><rect x="7.5" y="19.5" width="4" height="4" rx=".15747" ry=".20043" fill="url(#m)" stroke="url(#d)" stroke-dashoffset="1.4" stroke-linecap="square" stroke-miterlimit="6" stroke-width=".19701"/></g><path d="m76.881 125v-16.25l0.953-1.125h21.919l0.63533 0.75v16.875l-1.1118-16.5h-21.125z" enable-background="accumulate" fill="url(#bm)" opacity=".45402"/><rect transform="matrix(1.2707 0 0 1 -20.483 0)" x="77.5" y="124" width="17" height="1.625" rx=".63943" ry=".8125" enable-background="accumulate" fill="url(#h)" filter="url(#f)" opacity=".25862"/><ellipse transform="matrix(1.5454 0 0 1.2162 1.5132 -26.912)" cx="56.375" cy="121" rx="4.625" ry="2" enable-background="accumulate" fill="url(#ck)" filter="url(#e)" opacity=".31034"/><g enable-background="accumulate" fill="url(#ac)" stroke-width="2" style="text-decoration-line:none;text-indent:0;text-transform:none"><path d="m85.817 123 3.9494-9.1141h-5.1039v-1.9747h7.6558v1.4734l-4.0482 9.6154h-2.4532" fill="url(#ac)"/></g><path d="m76.625 117 0.125-8.25 0.875-1.125 22.125-0.125 0.875 1.25v9.625z" enable-background="accumulate" fill="url(#bl)" opacity=".66667"/><g transform="matrix(6.4552 0 0 5.0715 63.264 8.7928)" fill="none" filter="url(#c)" opacity=".45402" stroke="url(#b)" stroke-width=".17477"><rect x="7.5" y="19.5" width="4" height="4" rx=".15747" ry=".20043" fill="none" stroke="url(#b)" stroke-dashoffset="1.4" stroke-linecap="square" stroke-width=".17477"/></g><g transform="matrix(6.4552 0 0 5.0715 63.264 7.8928)" fill="url(#i)" filter="url(#k)" stroke="url(#d)"><rect transform="scale(1,-1)" x="7.5" y="-23.5" width="4" height="4" rx=".15747" ry=".20043" fill="url(#r)" stroke="url(#o)" stroke-dashoffset="1.4" stroke-linecap="square" stroke-miterlimit="6" stroke-width=".19701"/></g><path d="m112.88 125v-16.25l0.953-1.125h21.919l0.63533 0.75v16.875l-1.1118-16.5h-21.125z" enable-background="accumulate" fill="url(#bk)" opacity=".45402"/><rect transform="matrix(1.2707 0 0 1 15.517 0)" x="77.5" y="124" width="17" height="1.625" rx=".63943" ry=".8125" enable-background="accumulate" fill="url(#h)" filter="url(#f)" opacity=".25862"/><ellipse transform="matrix(1.5454 0 0 1.2162 37.513 -26.912)" cx="56.375" cy="121" rx="4.625" ry="2" enable-background="accumulate" fill="url(#g)" filter="url(#e)" opacity=".31034"/><g enable-background="accumulate" fill="url(#ab)" stroke-width="2" style="text-decoration-line:none;text-indent:0;text-transform:none"><path d="m124.54 111.75c0.46076 1e-5 0.89621 0.0557 1.3064 0.16709 0.41013 0.11141 0.76963 0.2785 1.0785 0.50128 0.30886 0.2228 0.55443 0.50128 0.73672 0.83546 0.18227 0.33419 0.27342 0.7266 0.27342 1.1772 0 0.3342-0.0506 0.638-0.1519 0.91141-0.10127 0.26837-0.24052 0.51395-0.41773 0.73673-0.17722 0.21773-0.38735 0.41267-0.63039 0.58482-0.24305 0.17216-0.50635 0.32913-0.78989 0.47089 0.29367 0.15697 0.57975 0.33166 0.85825 0.52406 0.28354 0.19242 0.53418 0.41014 0.75191 0.65318 0.21772 0.23799 0.3924 0.50635 0.52406 0.80508 0.13164 0.29874 0.19746 0.63293 0.19747 1.0026-1e-5 0.46077-0.0911 0.8785-0.27342 1.2532-0.18229 0.37469-0.43799 0.69369-0.7671 0.95698-0.32913 0.2633-0.72408 0.46583-1.1848 0.60761-0.45571 0.14177-0.95952 0.21266-1.5114 0.21266-0.59748 0-1.1291-0.0683-1.595-0.20507-0.46583-0.13671-0.85824-0.33165-1.1772-0.58482-0.31899-0.25317-0.56203-0.56456-0.72912-0.93419-0.16203-0.36963-0.24305-0.78483-0.24305-1.2456 0-0.37975 0.0557-0.72153 0.16709-1.0253 0.1114-0.3038 0.2633-0.57723 0.45571-0.82027s0.41773-0.45823 0.67596-0.64558c0.25823-0.18734 0.53419-0.3519 0.82787-0.49369-0.24811-0.15695-0.48103-0.32658-0.69875-0.50887-0.21773-0.18734-0.40761-0.3924-0.56963-0.6152-0.15697-0.22784-0.28355-0.47848-0.37976-0.75191-0.0911-0.27342-0.13671-0.57469-0.13671-0.90382 0-0.4405 0.0911-0.82532 0.27342-1.1544 0.18735-0.33417 0.43799-0.61266 0.75192-0.83546 0.31393-0.22784 0.67596-0.39746 1.0861-0.50887 0.41013-0.11138 0.84051-0.16708 1.2912-0.16709m-1.5722 8.2938c-1e-5 0.20254 0.0329 0.38989 0.0987 0.56204 0.0658 0.16709 0.16203 0.3114 0.28862 0.43292 0.13164 0.12152 0.29367 0.21773 0.48608 0.28861 0.19241 0.0658 0.4152 0.0987 0.66837 0.0987 0.53165 0 0.92913-0.12405 1.1924-0.37216 0.26329-0.25317 0.39494-0.58482 0.39494-0.99496 0-0.21266-0.0456-0.40253-0.13671-0.56963-0.0861-0.17215-0.20001-0.32912-0.34178-0.47089-0.13671-0.14684-0.29368-0.28102-0.47089-0.40254-0.17723-0.12152-0.35445-0.23798-0.53166-0.34938l-0.16709-0.10633c-0.22279 0.1114-0.42533 0.23292-0.60761 0.36456-0.18228 0.12659-0.33925 0.26837-0.47089 0.42533-0.12659 0.15191-0.22533 0.319-0.29621 0.50128-0.0709 0.18228-0.10634 0.37975-0.10633 0.59241m1.557-6.5773c-0.1671 1e-5 -0.32406 0.0253-0.4709 0.076-0.14177 0.0506-0.26583 0.12406-0.37216 0.22026-0.10127 0.0962-0.18228 0.2152-0.24304 0.35697-0.0608 0.14178-0.0911 0.30128-0.0911 0.47849 0 0.21267 0.0304 0.39748 0.0911 0.55444 0.0658 0.15191 0.1519 0.28862 0.25824 0.41013 0.11139 0.11647 0.23797 0.2228 0.37975 0.31899 0.14683 0.0911 0.30127 0.18229 0.4633 0.27343 0.15696-0.081 0.30633-0.16962 0.44811-0.26583 0.14177-0.0962 0.26582-0.20506 0.37216-0.32659 0.11139-0.12658 0.2-0.26835 0.26583-0.42532 0.0658-0.15696 0.0987-0.33671 0.0987-0.53925 0-0.17721-0.0304-0.33671-0.0911-0.47849-0.0608-0.14177-0.14431-0.26076-0.25064-0.35697-0.10633-0.0962-0.23292-0.16962-0.37975-0.22026-0.14684-0.0506-0.30634-0.0759-0.47849-0.076" fill="url(#ab)"/></g><path d="m112.62 117 0.125-8.25 0.875-1.125 22.125-0.125 0.875 1.25v9.625z" enable-background="accumulate" fill="url(#bj)" opacity=".66667"/><g transform="matrix(6.4552 0 0 5.0715 99.264 8.7928)" fill="none" filter="url(#c)" opacity=".45402" stroke="url(#co)" stroke-width=".17477"><rect x="7.5" y="19.5" width="4" height="4" rx=".15747" ry=".20043" fill="none" stroke="url(#b)" stroke-dashoffset="1.4" stroke-linecap="square" stroke-width=".17477"/></g><g transform="matrix(6.4552 0 0 -5.0715 99.264 225.97)" fill="url(#i)" filter="url(#k)" stroke="url(#d)"><rect x="7.5" y="19.5" width="4" height="4" rx=".15747" ry=".20043" fill="url(#s)" stroke="url(#d)" stroke-dashoffset="1.4" stroke-linecap="square" stroke-miterlimit="6" stroke-width=".19701"/></g><path d="m148.88 125v-16.25l0.953-1.125h21.919l0.63533 0.75v16.875l-1.1118-16.5h-21.125z" enable-background="accumulate" fill="url(#bi)" opacity=".45402"/><rect transform="matrix(1.2707 0 0 1 51.517 0)" x="77.5" y="124" width="17" height="1.625" rx=".63943" ry=".8125" enable-background="accumulate" fill="url(#h)" filter="url(#f)" opacity=".25862"/><ellipse transform="matrix(1.5454 0 0 1.2162 73.513 -26.912)" cx="56.375" cy="121" rx="4.625" ry="2" enable-background="accumulate" fill="url(#g)" filter="url(#e)" opacity=".31034"/><g enable-background="accumulate" fill="url(#aa)" stroke-width="2" style="text-decoration-line:none;text-indent:0;text-transform:none"><path d="m164.26 116.64c-1e-5 0.53166-0.0304 1.0633-0.0911 1.595-0.0557 0.52659-0.1595 1.0304-0.3114 1.5114-0.14684 0.48102-0.34938 0.93166-0.6076 1.3519-0.25318 0.4152-0.57724 0.7747-0.97218 1.0785-0.38988 0.3038-0.86078 0.54431-1.4127 0.72153-0.54685 0.17215-1.1899 0.25823-1.9292 0.25823-0.10634 0-0.2228-3e-3 -0.34938-8e-3s-0.2557-0.0127-0.38735-0.0228c-0.12658-5e-3 -0.25064-0.0152-0.37216-0.0304-0.12152-0.0101-0.22785-0.0253-0.31899-0.0456v-1.8836c0.18734 0.0506 0.38735 0.0911 0.60001 0.12152 0.21773 0.0253 0.43798 0.038 0.66077 0.038 0.68356 0 1.2456-0.0836 1.6861-0.25064 0.44051-0.17215 0.78989-0.41013 1.0481-0.71394 0.25822-0.30886 0.4405-0.67596 0.54684-1.1013 0.11139-0.42532 0.17975-0.89368 0.20507-1.4051h-0.0987c-0.10127 0.18229-0.22279 0.35191-0.36456 0.50887-0.14178 0.15697-0.30887 0.29368-0.50128 0.41014s-0.41014 0.2076-0.65317 0.27342c-0.24305 0.0658-0.51394 0.0987-0.81268 0.0987-0.48102 0-0.91394-0.0785-1.2988-0.23545-0.38482-0.15696-0.71141-0.38481-0.97976-0.68356-0.2633-0.29873-0.46584-0.66583-0.60761-1.1013-0.14178-0.43544-0.21266-0.93418-0.21266-1.4962 0-0.60253 0.0835-1.1418 0.25063-1.6178 0.17216-0.47595 0.4152-0.87849 0.72913-1.2076 0.31393-0.33417 0.69369-0.58987 1.1393-0.7671 0.45063-0.17721 0.95444-0.26582 1.5114-0.26583 0.54684 1e-5 1.0582 0.0988 1.5342 0.29621 0.47596 0.19242 0.88862 0.48862 1.238 0.88862 0.34937 0.40002 0.62533 0.90636 0.82787 1.519 0.20253 0.61268 0.30379 1.3342 0.3038 2.1646m-3.8583-2.9849c-0.2076 1e-5 -0.39748 0.038-0.56963 0.11393-0.17216 0.076-0.32153 0.19495-0.44811 0.35697-0.12153 0.15697-0.21773 0.3595-0.28862 0.6076-0.0658 0.24305-0.0987 0.53167-0.0987 0.86584-1e-5 0.53673 0.11392 0.96205 0.34178 1.276 0.22785 0.31393 0.57216 0.4709 1.0329 0.47089 0.23291 1e-5 0.44557-0.0456 0.63798-0.13671 0.19241-0.0911 0.35697-0.21012 0.49369-0.35697 0.1367-0.14683 0.2405-0.31139 0.31139-0.49368 0.076-0.18228 0.11392-0.36709 0.11393-0.55444-1e-5 -0.25823-0.0329-0.51393-0.0987-0.7671-0.0608-0.25823-0.15697-0.48861-0.28861-0.69116-0.12659-0.20759-0.28609-0.37468-0.47849-0.50127-0.18735-0.12658-0.40761-0.18987-0.66077-0.18988" fill="url(#aa)"/></g><path d="m148.62 117 0.125-8.25 0.875-1.125 22.125-0.125 0.875 1.25v9.625z" enable-background="accumulate" fill="url(#bh)" opacity=".66667"/><g transform="matrix(6.4552 0 0 5.0715 27.264 38.793)" fill="none" filter="url(#c)" opacity=".45402" stroke="url(#b)" stroke-width=".17477"><rect x="7.5" y="19.5" width="4" height="4" rx=".15747" ry=".20043" fill="none" stroke="url(#b)" stroke-dashoffset="1.4" stroke-linecap="square" stroke-width=".17477"/></g><g transform="matrix(6.4552 0 0 -5.0715 27.264 255.97)" fill="url(#i)" filter="url(#k)" stroke="url(#d)"><rect x="7.5" y="19.5" width="4" height="4" rx=".15747" ry=".20043" fill="url(#m)" stroke="url(#d)" stroke-dashoffset="1.4" stroke-linecap="square" stroke-miterlimit="6" stroke-width=".19701"/></g><path d="m76.881 155v-16.25l0.953-1.125h21.919l0.63533 0.75v16.875l-1.1118-16.5h-21.125z" enable-background="accumulate" fill="url(#bg)" opacity=".45402"/><rect transform="matrix(1.2707 0 0 1 -20.483 30)" x="77.5" y="124" width="17" height="1.625" rx=".63943" ry=".8125" enable-background="accumulate" fill="url(#h)" filter="url(#f)" opacity=".25862"/><ellipse transform="matrix(1.5454 0 0 1.2162 1.5132 3.0878)" cx="56.375" cy="121" rx="4.625" ry="2" enable-background="accumulate" fill="url(#g)" filter="url(#e)" opacity=".31034"/><g enable-background="accumulate" fill="url(#z)" stroke-width="2" style="text-decoration-line:none;text-indent:0;text-transform:none"><path d="m92.485 150.7h-1.3367v2.3013h-2.2861v-2.3013h-4.5874v-1.6329l4.7165-7.1698h2.157v6.9799h1.3367v1.8228m-3.6229-1.8228v-1.8836c-4e-6 -0.0658-4e-6 -0.15949 0-0.28102 0.0051-0.12658 0.01012-0.26835 0.01519-0.42533 0.0051-0.15695 0.01012-0.31898 0.01519-0.48608 0.01012-0.16709 0.01772-0.32658 0.02278-0.47849 0.01012-0.1519 0.01772-0.28354 0.02278-0.39495 0.01012-0.11645 0.01772-0.19999 0.02278-0.25063h-0.06835c-0.09115 0.21267-0.19494 0.43799-0.3114 0.67596-0.1114 0.23799-0.24052 0.47596-0.38735 0.71394l-1.8532 2.8102h2.5216" fill="url(#z)"/></g><path d="m76.625 147 0.125-8.25 0.875-1.125 22.125-0.125 0.875 1.25v9.625z" enable-background="accumulate" fill="url(#bf)" opacity=".66667"/><g transform="matrix(6.4552 0 0 5.0715 63.264 38.793)" fill="none" filter="url(#c)" opacity=".45402" stroke="url(#b)" stroke-width=".17477"><rect x="7.5" y="19.5" width="4" height="4" rx=".15747" ry=".20043" fill="none" stroke="url(#b)" stroke-dashoffset="1.4" stroke-linecap="square" stroke-width=".17477"/></g><g transform="matrix(6.4552 0 0 -5.0715 63.264 255.97)" fill="url(#i)" filter="url(#k)" stroke="url(#d)"><rect x="7.5" y="19.5" width="4" height="4" rx=".15747" ry=".20043" fill="url(#s)" stroke="url(#d)" stroke-dashoffset="1.4" stroke-linecap="square" stroke-miterlimit="6" stroke-width=".19701"/></g><path d="m112.88 155v-16.25l0.953-1.125h21.919l0.63533 0.75v16.875l-1.1118-16.5h-21.125z" enable-background="accumulate" fill="url(#be)" opacity=".45402"/><rect transform="matrix(1.2707 0 0 1 15.517 30)" x="77.5" y="124" width="17" height="1.625" rx=".63943" ry=".8125" enable-background="accumulate" fill="url(#h)" filter="url(#f)" opacity=".25862"/><ellipse transform="matrix(1.5454 0 0 1.2162 37.513 3.0878)" cx="56.375" cy="121" rx="4.625" ry="2" enable-background="accumulate" fill="url(#g)" filter="url(#e)" opacity=".31034"/><g enable-background="accumulate" fill="url(#y)" stroke-width="2" style="text-decoration-line:none;text-indent:0;text-transform:none"><path d="m124.79 145.91c0.47595 1e-5 0.919 0.0734 1.3291 0.22026 0.41013 0.14684 0.76709 0.36204 1.0709 0.64558 0.3038 0.28356 0.54178 0.63799 0.71394 1.0633 0.17215 0.42027 0.25823 0.90382 0.25824 1.4507-1e-5 0.60255-0.0937 1.1443-0.28102 1.6254-0.18736 0.47596-0.46331 0.88103-0.82787 1.2152-0.36457 0.32912-0.81774 0.58229-1.3595 0.7595-0.53672 0.17722-1.1544 0.26583-1.8532 0.26583-0.27849 0-0.55444-0.0127-0.82786-0.038-0.27343-0.0253-0.53672-0.0633-0.78989-0.11393-0.24811-0.0456-0.48609-0.10633-0.71394-0.18228-0.22279-0.076-0.42533-0.16456-0.60761-0.26583v-2.0279c0.17722 0.10127 0.38229 0.19748 0.61521 0.28862 0.23291 0.0861 0.47342 0.16203 0.72153 0.22785 0.25317 0.0608 0.50634 0.11139 0.75951 0.1519 0.25316 0.0354 0.49367 0.0532 0.72153 0.0532 0.67849 0 1.195-0.13925 1.5494-0.41773 0.35443-0.28355 0.53165-0.73166 0.53165-1.3443 0-0.54685-0.17469-0.96204-0.52406-1.2456-0.34431-0.28861-0.8785-0.43291-1.6026-0.43292-0.13165 1e-5 -0.27343 8e-3 -0.42532 0.0228-0.14685 0.0152-0.29368 0.0354-0.44052 0.0608-0.14178 0.0253-0.27849 0.0532-0.41013 0.0835-0.13165 0.0253-0.24558 0.0532-0.34178 0.0836l-0.9342-0.50128 0.41773-5.6583h5.8634v1.9899h-3.8279l-0.18228 2.1798c0.16203-0.0354 0.34937-0.0709 0.56204-0.10633 0.21772-0.0354 0.49621-0.0532 0.83546-0.0532" fill="url(#y)"/></g><path d="m112.62 147 0.125-8.25 0.875-1.125 22.125-0.125 0.875 1.25v9.625z" enable-background="accumulate" fill="url(#bd)" opacity=".66667"/><g transform="matrix(6.4552 0 0 5.0715 99.264 38.793)" fill="none" filter="url(#c)" opacity=".45402" stroke="url(#b)" stroke-width=".17477"><rect x="7.5" y="19.5" width="4" height="4" rx=".15747" ry=".20043" fill="none" stroke="url(#b)" stroke-dashoffset="1.4" stroke-linecap="square" stroke-width=".17477"/></g><g transform="matrix(6.4552 0 0 -5.0715 99.264 255.97)" fill="url(#i)" filter="url(#k)" stroke="url(#d)"><rect x="7.5" y="19.5" width="4" height="4" rx=".15747" ry=".20043" fill="url(#bc)" stroke="url(#d)" stroke-dashoffset="1.4" stroke-linecap="square" stroke-miterlimit="6" stroke-width=".19701"/></g><path d="m148.88 155v-16.25l0.953-1.125h21.919l0.63533 0.75v16.875l-1.1118-16.5h-21.125z" enable-background="accumulate" fill="url(#bb)" opacity=".45402"/><rect transform="matrix(1.2707 0 0 1 51.517 30)" x="77.5" y="124" width="17" height="1.625" rx=".63943" ry=".8125" enable-background="accumulate" fill="url(#h)" filter="url(#f)" opacity=".25862"/><ellipse transform="matrix(1.5454 0 0 1.2162 73.513 3.0878)" cx="56.375" cy="121" rx="4.625" ry="2" enable-background="accumulate" fill="url(#g)" filter="url(#e)" opacity=".31034"/><g enable-background="accumulate" fill="url(#x)" stroke-width="2" style="text-decoration-line:none;text-indent:0;text-transform:none"><path d="m156.82 148.28c0-0.53165 0.0279-1.0608 0.0836-1.5874 0.0608-0.52659 0.16456-1.0304 0.3114-1.5114 0.1519-0.48608 0.35443-0.93672 0.6076-1.3519 0.25824-0.41519 0.58229-0.77469 0.97218-1.0785 0.39494-0.30886 0.86583-0.54937 1.4127-0.72153 0.55191-0.17721 1.195-0.26582 1.9292-0.26583 0.10633 1e-5 0.22279 3e-3 0.34938 8e-3 0.12658 5e-3 0.25316 0.0127 0.37975 0.0228 0.13164 5e-3 0.25823 0.0152 0.37976 0.0304 0.12151 0.0152 0.23037 0.0329 0.32658 0.0532v1.876c-0.19241-0.0456-0.39748-0.081-0.6152-0.10633-0.21267-0.0304-0.42786-0.0456-0.64558-0.0456-0.68356 1e-5 -1.2456 0.0861-1.6861 0.25823-0.44052 0.1671-0.78989 0.40255-1.0481 0.70635-0.25824 0.30381-0.44305 0.66837-0.55444 1.0937-0.10634 0.42533-0.17216 0.89622-0.19747 1.4127h0.0911c0.10126-0.18227 0.22278-0.3519 0.36456-0.50887 0.14684-0.16202 0.31646-0.29873 0.50887-0.41013 0.19241-0.11645 0.4076-0.20759 0.64558-0.27343 0.24304-0.0658 0.51393-0.0987 0.81268-0.0987 0.48101 1e-5 0.91393 0.0785 1.2988 0.23545 0.38481 0.15697 0.70886 0.38482 0.97217 0.68355 0.26835 0.29875 0.47342 0.66585 0.6152 1.1013 0.14177 0.43546 0.21265 0.9342 0.21266 1.4962-1e-5 0.60255-0.0861 1.1418-0.25823 1.6178-0.1671 0.47596-0.40761 0.88103-0.72153 1.2152-0.31394 0.32912-0.69369 0.58229-1.1393 0.75951-0.44558 0.17215-0.94686 0.25823-1.5038 0.25823-0.54685 0-1.0583-0.0962-1.5342-0.28861-0.47596-0.19747-0.89116-0.49621-1.2456-0.89622-0.34938-0.40001-0.62533-0.90381-0.82787-1.5114-0.19747-0.61267-0.29621-1.3367-0.29621-2.1722m3.8583 2.9925c0.20759 0 0.39494-0.038 0.56203-0.11393 0.17215-0.081 0.31899-0.2 0.44052-0.35697 0.12658-0.16203 0.22278-0.36456 0.28861-0.60761 0.0709-0.24304 0.10633-0.53165 0.10633-0.86584 0-0.54177-0.11393-0.9671-0.34178-1.276-0.22279-0.31393-0.56457-0.47089-1.0253-0.4709-0.23292 1e-5 -0.44559 0.0456-0.63799 0.13672-0.19241 0.0911-0.35697 0.21013-0.49368 0.35696-0.13672 0.14685-0.24305 0.31141-0.31899 0.49369-0.0709 0.18228-0.10634 0.36709-0.10634 0.55444 0 0.25823 0.0304 0.51647 0.0911 0.7747 0.0658 0.25317 0.16202 0.48355 0.28861 0.69115 0.13164 0.20254 0.29114 0.3671 0.47849 0.49368 0.1924 0.12658 0.41519 0.18988 0.66837 0.18988" fill="url(#x)"/></g><path d="m148.62 147 0.125-8.25 0.875-1.125 22.125-0.125 0.875 1.25v9.625z" enable-background="accumulate" fill="url(#ba)" opacity=".66667"/><g transform="matrix(6.4552 0 0 5.0715 27.264 68.793)" fill="none" filter="url(#c)" opacity=".45402" stroke="url(#b)" stroke-width=".17477"><rect x="7.5" y="19.5" width="4" height="4" rx=".15747" ry=".20043" fill="none" stroke="url(#b)" stroke-dashoffset="1.4" stroke-linecap="square" stroke-width=".17477"/></g><g transform="matrix(6.4552 0 0 5.0715 27.264 67.893)" fill="url(#i)" filter="url(#k)" stroke="url(#d)"><rect transform="scale(1,-1)" x="7.5" y="-23.5" width="4" height="4" rx=".15747" ry=".20043" fill="url(#r)" stroke="url(#o)" stroke-dashoffset="1.4" stroke-linecap="square" stroke-miterlimit="6" stroke-width=".19701"/></g><path d="m76.881 185v-16.25l0.953-1.125h21.919l0.63533 0.75v16.875l-1.1118-16.5h-21.125z" enable-background="accumulate" fill="url(#az)" opacity=".45402"/><rect transform="matrix(1.2707 0 0 1 -20.483 60)" x="77.5" y="124" width="17" height="1.625" rx=".63943" ry=".8125" enable-background="accumulate" fill="url(#h)" filter="url(#f)" opacity=".25862"/><ellipse transform="matrix(1.5454 0 0 1.2162 1.5132 33.088)" cx="56.375" cy="121" rx="4.625" ry="2" enable-background="accumulate" fill="url(#g)" filter="url(#e)" opacity=".31034"/><g enable-background="accumulate" fill="url(#w)" stroke-width="2" style="text-decoration-line:none;text-indent:0;text-transform:none"><path d="m90.45 183h-2.3469v-6.4254c-4e-6 -0.13164-4e-6 -0.28861 0-0.4709 0.0051-0.18734 0.01012-0.37974 0.01519-0.57722 0.01012-0.20253 0.01772-0.40507 0.02278-0.60761 0.01012-0.20253 0.01772-0.38734 0.02278-0.55444-0.02532 0.0304-0.06836 0.076-0.12912 0.13671-0.06076 0.0608-0.12912 0.12912-0.20507 0.20507-0.07596 0.0709-0.15444 0.14431-0.23545 0.22025-0.08102 0.076-0.1595 0.14432-0.23545 0.20507l-1.276 1.0253-1.1393-1.4127 3.5773-2.8482h1.9292v11.104" fill="url(#w)"/></g><path d="m76.625 177 0.125-8.25 0.875-1.125 22.125-0.125 0.875 1.25v9.625z" enable-background="accumulate" fill="url(#ay)" opacity=".66667"/><g transform="matrix(6.4552 0 0 5.0715 63.264 68.793)" fill="none" filter="url(#c)" opacity=".45402" stroke="url(#b)" stroke-width=".17477"><rect x="7.5" y="19.5" width="4" height="4" rx=".15747" ry=".20043" fill="none" stroke="url(#b)" stroke-dashoffset="1.4" stroke-linecap="square" stroke-width=".17477"/></g><g transform="matrix(6.4552 0 0 5.0715 63.264 67.893)" fill="url(#i)" filter="url(#k)" stroke="url(#d)"><rect transform="scale(1,-1)" x="7.5" y="-23.5" width="4" height="4" rx=".15747" ry=".20043" fill="url(#ax)" stroke="url(#o)" stroke-dashoffset="1.4" stroke-linecap="square" stroke-miterlimit="6" stroke-width=".19701"/></g><path d="m112.88 185v-16.25l0.953-1.125h21.919l0.63533 0.75v16.875l-1.1118-16.5h-21.125z" enable-background="accumulate" fill="url(#aw)" opacity=".45402"/><rect transform="matrix(1.2707 0 0 1 15.517 60)" x="77.5" y="124" width="17" height="1.625" rx=".63943" ry=".8125" enable-background="accumulate" fill="url(#h)" filter="url(#f)" opacity=".25862"/><ellipse transform="matrix(1.5454 0 0 1.2162 37.513 33.088)" cx="56.375" cy="121" rx="4.625" ry="2" enable-background="accumulate" fill="url(#g)" filter="url(#e)" opacity=".31034"/><g enable-background="accumulate" fill="url(#v)" stroke-width="2" style="text-decoration-line:none;text-indent:0;text-transform:none"><path d="m128.32 183h-7.4508v-1.6329l2.6127-2.8178c0.32912-0.35443 0.62786-0.68102 0.89622-0.97977 0.26836-0.29873 0.49874-0.58988 0.69116-0.87343 0.1924-0.28354 0.34177-0.57216 0.44811-0.86584 0.10632-0.29367 0.15949-0.61013 0.15949-0.94939 0-0.37468-0.11393-0.66582-0.34178-0.87343-0.22279-0.20759-0.52406-0.31139-0.90381-0.3114-0.40001 1e-5 -0.78483 0.0987-1.1544 0.29621-0.36963 0.19748-0.75698 0.4785-1.162 0.84305l-1.276-1.5114c0.22785-0.20759 0.46583-0.40506 0.71394-0.59242 0.24811-0.19239 0.52153-0.36202 0.82027-0.50887 0.29874-0.14682 0.62786-0.26328 0.98736-0.34937 0.3595-0.0911 0.76204-0.1367 1.2076-0.13671 0.53165 1e-5 1.0076 0.0734 1.4279 0.22026 0.42531 0.14684 0.78735 0.35698 1.0861 0.63039 0.29874 0.26837 0.52659 0.59496 0.68356 0.97976 0.16202 0.38483 0.24304 0.81775 0.24304 1.2988 0 0.43546-0.076 0.85319-0.22785 1.2532-0.15191 0.39495-0.35951 0.78483-0.6228 1.1696-0.2633 0.37976-0.56963 0.75951-0.919 1.1393-0.34432 0.37469-0.71394 0.75698-1.1089 1.1469l-1.3367 1.3443v0.10633h4.5267v1.9747" fill="url(#v)"/></g><path d="m112.62 177 0.125-8.25 0.875-1.125 22.125-0.125 0.875 1.25v9.625z" enable-background="accumulate" fill="url(#av)" opacity=".66667"/><g transform="matrix(6.4552 0 0 5.0715 99.264 68.793)" fill="none" filter="url(#c)" opacity=".45402" stroke="url(#b)" stroke-width=".17477"><rect x="7.5" y="19.5" width="4" height="4" rx=".15747" ry=".20043" fill="none" stroke="url(#b)" stroke-dashoffset="1.4" stroke-linecap="square" stroke-width=".17477"/></g><g transform="matrix(6.4552 0 0 -5.0715 99.264 285.97)" fill="url(#i)" filter="url(#k)" stroke="url(#d)"><rect x="7.5" y="19.5" width="4" height="4" rx=".15747" ry=".20043" fill="url(#au)" stroke="url(#d)" stroke-dashoffset="1.4" stroke-linecap="square" stroke-miterlimit="6" stroke-width=".19701"/></g><path d="m148.88 185v-16.25l0.953-1.125h21.919l0.63533 0.75v16.875l-1.1118-16.5h-21.125z" enable-background="accumulate" fill="url(#at)" opacity=".45402"/><rect transform="matrix(1.2707 0 0 1 51.517 60)" x="77.5" y="124" width="17" height="1.625" rx=".63943" ry=".8125" enable-background="accumulate" fill="url(#h)" filter="url(#f)" opacity=".25862"/><ellipse transform="matrix(1.5454 0 0 1.2162 73.513 33.088)" cx="56.375" cy="121" rx="4.625" ry="2" enable-background="accumulate" fill="url(#g)" filter="url(#e)" opacity=".31034"/><g enable-background="accumulate" fill="url(#u)" stroke-width="2" style="text-decoration-line:none;text-indent:0;text-transform:none"><path d="m163.89 174.38c-1e-5 0.38482-0.0633 0.73167-0.18987 1.0405-0.12153 0.30382-0.29116 0.57217-0.50888 0.80508-0.21266 0.22786-0.46583 0.42027-0.7595 0.57723-0.28862 0.15191-0.60255 0.26837-0.94179 0.34937v0.0456c0.89621 0.1114 1.5747 0.38483 2.0355 0.82027 0.46076 0.4304 0.69114 1.0127 0.69115 1.7469-1e-5 0.48609-0.0886 0.93673-0.26583 1.3519-0.17216 0.41013-0.44052 0.7671-0.80508 1.0709-0.3595 0.3038-0.81521 0.54178-1.3671 0.71393-0.54685 0.1671-1.1924 0.25064-1.9368 0.25064-0.59748 0-1.1595-0.0506-1.6861-0.1519-0.52659-0.0962-1.0177-0.24557-1.4734-0.44811v-1.9975c0.22785 0.12153 0.46836 0.22786 0.72153 0.319 0.25317 0.0911 0.50634 0.16962 0.75951 0.23544 0.25317 0.0608 0.50127 0.10634 0.74432 0.13672 0.2481 0.0304 0.48102 0.0456 0.69874 0.0456 0.43545 0 0.79748-0.0405 1.0861-0.12153 0.28861-0.081 0.51899-0.19493 0.69115-0.34177 0.17215-0.14684 0.29368-0.32153 0.36457-0.52407 0.0759-0.20759 0.11392-0.43291 0.11392-0.67596 0-0.22785-0.0481-0.43291-0.1443-0.6152-0.0911-0.18734-0.24305-0.34431-0.45571-0.4709-0.2076-0.13164-0.48102-0.23291-0.82027-0.3038-0.33925-0.0709-0.75698-0.10632-1.2532-0.10633h-0.78988v-1.6481h0.77469c0.46583 0 0.85318-0.0405 1.162-0.12152 0.30886-0.0861 0.55444-0.2 0.73673-0.34178 0.18734-0.14683 0.31898-0.31646 0.39494-0.50887 0.076-0.19241 0.11392-0.39747 0.11393-0.61521-1e-5 -0.39493-0.12406-0.7038-0.37216-0.9266-0.24305-0.22278-0.6304-0.33417-1.162-0.33418-0.24305 1e-5 -0.4709 0.0253-0.68356 0.076-0.2076 0.0456-0.40254 0.10634-0.58482 0.18228-0.17722 0.0709-0.34178 0.15191-0.49368 0.24305-0.14684 0.0861-0.28102 0.17216-0.40254 0.25823l-1.1848-1.5646c0.21266-0.15695 0.44304-0.30126 0.69115-0.43292 0.25317-0.13164 0.52659-0.24556 0.82027-0.34178 0.29367-0.10126 0.61013-0.17974 0.94938-0.23545 0.33925-0.0557 0.70128-0.0835 1.0861-0.0835 0.54684 1e-5 1.043 0.0608 1.4886 0.18228 0.45063 0.11647 0.83545 0.28862 1.1544 0.51647 0.31899 0.2228 0.56456 0.49875 0.73672 0.82786 0.17722 0.32407 0.26582 0.69623 0.26583 1.1165" fill="url(#u)"/></g><path d="m148.62 177 0.125-8.25 0.875-1.125 22.125-0.125 0.875 1.25v9.625z" enable-background="accumulate" fill="url(#as)" opacity=".66667"/><g transform="matrix(6.4552 0 0 5.0715 27.264 99.793)" fill="none" filter="url(#c)" opacity=".45402" stroke="url(#b)" stroke-width=".17477"><rect x="7.5" y="19.5" width="4" height="4" rx=".15747" ry=".20043" fill="none" stroke="url(#b)" stroke-dashoffset="1.4" stroke-linecap="square" stroke-width=".17477"/></g><g transform="matrix(6.4552 0 0 -5.0715 27.264 316.97)" fill="url(#i)" filter="url(#k)" stroke="url(#d)"><rect x="7.5" y="19.5" width="4" height="4" rx=".15747" ry=".20043" fill="url(#m)" stroke="url(#d)" stroke-dashoffset="1.4" stroke-linecap="square" stroke-miterlimit="6" stroke-width=".19701"/></g><path d="m76.881 216v-16.25l0.953-1.125h21.919l0.63533 0.75v16.875l-1.1118-16.5h-21.125z" enable-background="accumulate" fill="url(#ar)" opacity=".45402"/><rect transform="matrix(1.2707 0 0 1 -20.483 91)" x="77.5" y="124" width="17" height="1.625" rx=".63943" ry=".8125" enable-background="accumulate" fill="url(#h)" filter="url(#f)" opacity=".25862"/><ellipse transform="matrix(1.5454 0 0 1.2162 1.5132 64.088)" cx="56.375" cy="121" rx="4.625" ry="2" enable-background="accumulate" fill="url(#g)" filter="url(#e)" opacity=".31034"/><g enable-background="accumulate" fill="url(#t)" stroke-width="2" style="text-decoration-line:none;text-indent:0;text-transform:none"><path d="m88.611 214.17c2.5855 0 3.8625-2.1914 3.8625-5.3444 0-2.8062-1.0878-5.2498-3.8152-5.2498-2.6485 0-3.894 2.3332-3.894 5.3128 0.01577 2.9008 1.1824 5.2813 3.8309 5.2813h0.01577m0-1.813c-0.91438 0-1.4819-1.1351-1.4662-3.4999 0-2.3175 0.56754-3.4683 1.4662-3.4683 0.96167 0 1.4504 1.1982 1.4504 3.4683 0 2.3332-0.50448 3.4999-1.4346 3.4999h-0.01577" fill="url(#t)"/></g><path d="m76.625 208 0.125-8.25 0.875-1.125 22.125-0.125 0.875 1.25v9.625z" enable-background="accumulate" fill="url(#aq)" opacity=".66667"/><path transform="scale(.88932 1.1245)" d="m64.957 33.151c-0.44756 0.19459-0.99241 0.31134-1.6929 0.31134-1.44 0-2.6075-0.93403-2.6075-2.6853-0.01946-1.5567 0.99241-2.6659 2.5491-2.6659 0.77836 0 1.3037 0.13621 1.654 0.29188l0.46701-2.1989c-0.62268-0.23351-1.4789-0.36972-2.2572-0.36972-3.5415 0-5.4485 2.2767-5.4485 5.0593 0 2.9967 1.9654 4.8842 5.0399 4.8842 1.1286 0 2.121-0.19459 2.6464-0.44756l-0.35026-2.1794m9.9079-3.2107c0-2.2378-0.99241-4.1058-4.1642-4.1058-1.7318 0-3.0356 0.48647-3.6972 0.85619l0.54485 1.8875c0.62268-0.36972 1.654-0.70052 2.627-0.70052 1.4594 0 1.7318 0.71998 1.7318 1.2259v0.11675c-3.3664 0-5.5847 1.1675-5.5847 3.6388 0 1.5178 1.1481 2.9188 3.0745 2.9188 1.1286 0 2.1016-0.40864 2.7243-1.1675h0.05838l0.17513 0.95349h2.6659c-0.11675-0.52539-0.15567-1.401-0.15567-2.2962v-3.3275m-2.8605 2.1599c0 0.17513-0.01946 0.35026-0.05838 0.50593-0.19459 0.60323-0.81728 1.0897-1.5373 1.0897-0.6616 0-1.1675-0.36972-1.1675-1.1286 0-1.1286 1.2065-1.4983 2.7632-1.4983v1.0313m11.993 1.0508c-0.44756 0.19459-0.99241 0.31134-1.6929 0.31134-1.44 0-2.6075-0.93403-2.6075-2.6853-0.01946-1.5567 0.99241-2.6659 2.5491-2.6659 0.77836 0 1.3037 0.13621 1.654 0.29188l0.46702-2.1989c-0.62269-0.23351-1.4789-0.36972-2.2572-0.36972-3.5415 0-5.4485 2.2767-5.4485 5.0593 0 2.9967 1.9654 4.8842 5.0399 4.8842 1.1286 0 2.121-0.19459 2.6464-0.44756l-0.35026-2.1794m9.9079-3.2107c0-2.2378-0.99241-4.1058-4.1642-4.1058-1.7318 0-3.0356 0.48647-3.6972 0.85619l0.54485 1.8875c0.62268-0.36972 1.654-0.70052 2.627-0.70052 1.4594 0 1.7318 0.71998 1.7318 1.2259v0.11675c-3.3664 0-5.5847 1.1675-5.5847 3.6388 0 1.5178 1.1481 2.9188 3.0745 2.9188 1.1286 0 2.1016-0.40864 2.7243-1.1675h0.05838l0.17513 0.95349h2.6659c-0.11675-0.52539-0.15567-1.401-0.15567-2.2962v-3.3275m-2.8605 2.1599c0 0.17513-0.01946 0.35026-0.05838 0.50593-0.19459 0.60323-0.81728 1.0897-1.5373 1.0897-0.6616 0-1.1675-0.36972-1.1675-1.1286 0-1.1286 1.2065-1.4983 2.7632-1.4983v1.0313m9.5999 3.6777c2.5297 0 5.0009-1.5956 5.0009-5.0593 0-2.8799-1.9459-4.8842-4.8453-4.8842-3.0745 0-5.0982 1.9654-5.0982 5.0399 0 3.0745 2.1405 4.9037 4.9231 4.9037h0.0195m0.0195-2.121c-1.2454 0-1.9264-1.2259-1.9264-2.841 0-1.4205 0.54485-2.8605 1.9459-2.8605 1.3427 0 1.8875 1.44 1.8875 2.841 0 1.7124-0.71998 2.8605-1.8875 2.8605h-0.0195" enable-background="accumulate" fill="#fff" opacity=".66667" style="text-decoration-line:none;text-indent:0;text-transform:none"/><g transform="matrix(6.4552 0 0 5.0715 63.264 99.793)" fill="none" filter="url(#c)" opacity=".45402" stroke="url(#b)" stroke-width=".17477"><rect x="7.5" y="19.5" width="4" height="4" rx=".15747" ry=".20043" fill="none" stroke="url(#b)" stroke-dashoffset="1.4" stroke-linecap="square" stroke-width=".17477"/></g><g transform="matrix(6.4552 0 0 -5.0715 63.264 316.97)" fill="url(#i)" filter="url(#k)" stroke="url(#d)"><rect x="7.5" y="19.5" width="4" height="4" rx=".15747" ry=".20043" fill="url(#m)" stroke="url(#d)" stroke-dashoffset="1.4" stroke-linecap="square" stroke-miterlimit="6" stroke-width=".19701"/></g><path d="m112.88 216v-16.25l0.953-1.125h21.919l0.63533 0.75v16.875l-1.1118-16.5h-21.125z" enable-background="accumulate" fill="url(#ao)" opacity=".45402"/><rect transform="matrix(1.2707 0 0 1 15.517 91)" x="77.5" y="124" width="17" height="1.625" rx=".63943" ry=".8125" enable-background="accumulate" fill="url(#h)" filter="url(#f)" opacity=".25862"/><ellipse transform="matrix(1.5454 0 0 1.2162 37.513 64.088)" cx="56.375" cy="121" rx="4.625" ry="2" enable-background="accumulate" fill="url(#g)" filter="url(#e)" opacity=".31034"/><path d="m124.94 213.17c0.85131 0 1.4189-0.61484 1.4189-1.4504-0.0158-0.88285-0.58331-1.4662-1.4031-1.4662-0.83555 0-1.4189 0.59908-1.4189 1.4662 0 0.83555 0.58331 1.4504 1.3873 1.4504h0.0158" enable-background="accumulate" fill="url(#cm)" style="text-decoration-line:none;text-indent:0;text-transform:none"/><path d="m112.62 208 0.125-8.25 0.875-1.125 22.125-0.125 0.875 1.25v9.625z" enable-background="accumulate" fill="url(#an)" opacity=".66667"/><g transform="matrix(6.4552 0 0 5.0715 99.264 99.793)" fill="none" filter="url(#c)" opacity=".45402" stroke="url(#b)" stroke-width=".17477"><rect x="7.5" y="19.5" width="4" height="4" rx=".15747" ry=".20043" fill="none" stroke="url(#b)" stroke-dashoffset="1.4" stroke-linecap="square" stroke-width=".17477"/></g><g transform="matrix(6.4552 0 0 -5.0715 99.264 316.97)" fill="url(#i)" filter="url(#k)" stroke="url(#d)"><rect x="7.5" y="19.5" width="4" height="4" rx=".15747" ry=".20043" fill="url(#am)" stroke="url(#d)" stroke-dashoffset="1.4" stroke-linecap="square" stroke-miterlimit="6" stroke-width=".19701"/></g><path d="m148.88 216v-16.25l0.953-1.125h21.919l0.63533 0.75v16.875l-1.1118-16.5h-21.125z" enable-background="accumulate" fill="url(#al)" opacity=".45402"/><rect transform="matrix(1.2707 0 0 1 51.517 91)" x="77.5" y="124" width="17" height="1.625" rx=".63943" ry=".8125" enable-background="accumulate" fill="url(#h)" filter="url(#f)" opacity=".25862"/><ellipse transform="matrix(1.5454 0 0 1.2162 73.513 64.088)" cx="56.375" cy="121" rx="4.625" ry="2" enable-background="accumulate" fill="url(#g)" filter="url(#e)" opacity=".31034"/><g transform="matrix(.79057 0 0 .79057 33.491 43.8)" enable-background="accumulate" fill="url(#cw)" stroke-width="2" style="text-decoration-line:none;text-indent:0;text-transform:none"><path d="m152.75 208c0-0.63292 0.0456-1.2557 0.13671-1.8684 0.0911-0.61772 0.23038-1.2152 0.41773-1.7924 0.18734-0.58228 0.42279-1.1392 0.70634-1.6709 0.28861-0.53671 0.63039-1.0405 1.0253-1.5114h1.8988c-0.71394 0.97725-1.2532 2.0507-1.6178 3.2203-0.36456 1.1696-0.54684 2.3722-0.54684 3.6077 0 0.60254 0.0456 1.2026 0.13671 1.8 0.0911 0.59748 0.22785 1.1823 0.41013 1.7545 0.18228 0.57216 0.4076 1.1266 0.67597 1.6633 0.26835 0.53672 0.57722 1.0431 0.9266 1.519h-1.8836c-0.39495-0.45571-0.73673-0.94433-1.0253-1.4658-0.28355-0.52153-0.519-1.0658-0.70634-1.633-0.18735-0.57216-0.32659-1.162-0.41773-1.7696-0.0911-0.60761-0.13671-1.2253-0.13671-1.8532"/><path d="m157.88 209.04v-1.8988h4.0786v1.8988h-4.0786"/><path d="m167.07 208c-1e-5 0.62786-0.0456 1.2456-0.13671 1.8532-0.0911 0.60761-0.23039 1.1975-0.41773 1.7696-0.18735 0.5671-0.42533 1.1114-0.71394 1.633-0.28356 0.52152-0.6228 1.0101-1.0177 1.4658h-1.8836c0.34937-0.47596 0.65823-0.9823 0.9266-1.519 0.26835-0.53672 0.49367-1.0912 0.67596-1.6633 0.18228-0.57217 0.31899-1.157 0.41013-1.7545 0.0911-0.59748 0.13671-1.1975 0.13671-1.8 0-1.2355-0.18228-2.438-0.54684-3.6077-0.36457-1.1696-0.90382-2.2431-1.6178-3.2203h1.8988c0.39494 0.47091 0.73418 0.97472 1.0177 1.5114 0.28861 0.53166 0.52659 1.0886 0.71394 1.6709 0.18734 0.57724 0.32658 1.1747 0.41773 1.7924 0.0911 0.61268 0.1367 1.2355 0.13671 1.8684"/></g><path d="m148.62 208 0.125-8.25 0.875-1.125 22.125-0.125 0.875 1.25v9.625z" enable-background="accumulate" fill="url(#ak)" opacity=".66667"/><g transform="matrix(7.9551 0 0 5.0715 122.01 8.1928)" fill="none" filter="url(#c)" opacity=".45402" stroke="url(#b)" stroke-width=".15744"><rect x="7.5" y="19.5" width="4" height="4" rx=".12777" ry=".20043" fill="none" stroke="url(#b)" stroke-dashoffset="1.4" stroke-linecap="square" stroke-width=".15744"/></g><g transform="matrix(7.9551 0 0 5.0715 122.01 7.8928)" fill="url(#l)" filter="url(#dj)"><rect x="7.5" y="19.5" width="4" height="4" rx=".12777" ry=".20043" fill="url(#q)"/></g><path d="m183.16 125v-16.25l1.1744-1.125h27.012l0.78297 0.75v16.875l-1.3702-16.5h-26.034z" enable-background="accumulate" fill="url(#aj)" opacity=".45402"/><rect transform="matrix(1.5659 0 0 1 -102.82 0)" x="183.5" y="124" width="17" height="1.625" rx=".51886" ry=".8125" enable-background="accumulate" fill="url(#p)" filter="url(#f)" opacity=".25862"/><ellipse transform="matrix(1.9045 0 0 1.2162 90.279 -26.912)" cx="56.375" cy="121" rx="4.625" ry="2" enable-background="accumulate" fill="url(#g)" filter="url(#e)" opacity=".31034"/><g transform="matrix(7.9551 0 0 5.0715 122.01 37.693)" fill="none" filter="url(#c)" opacity=".45402" stroke="url(#b)" stroke-width=".15744"><rect x="7.5" y="19.5" width="4" height="4" rx=".12777" ry=".20043" fill="none" stroke="url(#b)" stroke-dashoffset="1.4" stroke-linecap="square" stroke-width=".15744"/></g><g transform="matrix(7.9551 0 0 5.0715 122.01 37.393)" fill="url(#l)" filter="url(#dk)"><rect x="7.5" y="19.5" width="4" height="4" rx=".12777" ry=".20043" enable-background="accumulate" fill="url(#q)"/></g><path d="m183.16 154.5v-16.25l1.1744-1.125h27.012l0.78297 0.75v16.875l-1.3702-16.5h-26.034z" enable-background="accumulate" fill="url(#ai)" opacity=".45402"/><rect transform="matrix(1.5659 0 0 1 -102.82 29.5)" x="183.5" y="124" width="17" height="1.625" rx=".51886" ry=".8125" enable-background="accumulate" fill="url(#p)" filter="url(#f)" opacity=".25862"/><ellipse transform="matrix(1.9045 0 0 1.2162 90.279 2.5878)" cx="56.375" cy="121" rx="4.625" ry="2" enable-background="accumulate" fill="url(#g)" filter="url(#e)" opacity=".31034"/><g enable-background="accumulate" fill="#fff" opacity=".51562" style="text-decoration-line:none;text-indent:0;text-transform:none"><path d="m197.96 114.14c-0.3717 0-0.70162 0.0731-0.98978 0.21925-0.28399 0.142-0.52413 0.34873-0.72041 0.62018-0.19211 0.26729-0.33828 0.59512-0.43851 0.98351-0.10023 0.38422-0.15035 0.81647-0.15034 1.2967-1e-5 0.48863 0.0438 0.92297 0.13155 1.303 0.0919 0.38005 0.22969 0.70162 0.41345 0.96472 0.18793 0.25893 0.42598 0.45731 0.71414 0.59512 0.29234 0.13364 0.63897 0.20046 1.0399 0.20046 0.37168 0 0.74337-0.0418 1.1151-0.12529 0.37586-0.0835 0.78305-0.20254 1.2216-0.35707v1.6288c-0.20047 0.0835-0.39884 0.15452-0.59512 0.21299-0.19629 0.0585-0.39675 0.1065-0.60138 0.14408-0.20464 0.0376-0.41555 0.0647-0.63271 0.0814-0.21299 0.0209-0.44269 0.0313-0.68908 0.0313-0.7058 0-1.3176-0.11276-1.8355-0.33828-0.51787-0.22552-0.94593-0.54291-1.2842-0.95219-0.33828-0.40927-0.58886-0.90207-0.75173-1.4784-0.16287-0.57632-0.24431-1.2174-0.24431-1.9232 0-0.69326 0.094-1.328 0.2819-1.9044 0.18793-0.58049 0.46356-1.0796 0.8269-1.4972 0.36333-0.41762 0.81228-0.74128 1.3468-0.97098 0.53456-0.23387 1.1485-0.3508 1.8417-0.35081 0.4552 1e-5 0.91042 0.0585 1.3656 0.1754 0.45938 0.11277 0.89789 0.26938 1.3155 0.46983l-0.62645 1.5786c-0.34246-0.16286-0.687-0.30486-1.0336-0.42598-0.34664-0.1211-0.68701-0.18166-1.0211-0.18166" enable-background="accumulate" fill="#fff"/></g><g enable-background="accumulate" fill="#fff" opacity=".51562" style="text-decoration-line:none;text-indent:0;text-transform:none"><path d="m192.33 151.03-1.9984-7.1409h-0.056c0.0249 0.38185 0.0456 0.75124 0.0623 1.1082 8e-3 0.15357 0.0145 0.31129 0.0187 0.47315 8e-3 0.16187 0.0145 0.32166 0.0187 0.47938 8e-3 0.15772 0.0125 0.30921 0.0125 0.45447 4e-3 0.14527 6e-3 0.27601 6e-3 0.39222v4.2335h-1.7245v-9.102h2.6272l1.9673 6.9603h0.0374l2.0918-6.9603h2.6272v9.102h-1.7992v-4.3082c-1e-5 -0.10791-1e-5 -0.23034 0-0.36731 4e-3 -0.13696 8e-3 -0.28223 0.0125-0.4358 4e-3 -0.15356 8e-3 -0.30921 0.0125-0.46693 8e-3 -0.15771 0.0145-0.31128 0.0187-0.4607 0.0166-0.34863 0.0311-0.7118 0.0436-1.0895h-0.0498l-2.1541 7.1284h-1.7743" enable-background="accumulate"/><path d="m204.19 143.41c-0.36939 1e-5 -0.69728 0.0726-0.98366 0.2179-0.28223 0.14112-0.52088 0.34657-0.71595 0.61634-0.19093 0.26564-0.33619 0.59145-0.4358 0.97743-0.0996 0.38185-0.14942 0.81142-0.14942 1.2887 0 0.48561 0.0436 0.91726 0.13074 1.295 0.0913 0.37769 0.22828 0.69728 0.4109 0.95875 0.18677 0.25733 0.42334 0.45448 0.70973 0.59144 0.29053 0.13282 0.63501 0.19923 1.0335 0.19923 0.36939 0 0.73878-0.0415 1.1082-0.12452 0.37353-0.083 0.7782-0.20129 1.214-0.35486v1.6187c-0.19923 0.083-0.39638 0.15356-0.59145 0.21167-0.19507 0.0581-0.3943 0.10584-0.59766 0.14319-0.20338 0.0374-0.41298 0.0643-0.6288 0.0809-0.21168 0.0207-0.43995 0.0311-0.68482 0.0311-0.70143 0-1.3095-0.11206-1.8241-0.33618-0.51466-0.22413-0.94008-0.53956-1.2763-0.94631-0.33619-0.40674-0.58521-0.8965-0.74708-1.4693s-0.2428-1.2099-0.2428-1.9113c0-0.68897 0.0934-1.3198 0.28015-1.8926 0.18677-0.57691 0.4607-1.0729 0.8218-1.4879 0.36108-0.41504 0.80726-0.7367 1.3385-0.96498 0.53125-0.23242 1.1414-0.34863 1.8304-0.34864 0.4524 1e-5 0.9048 0.0581 1.3572 0.17432 0.45655 0.11207 0.89235 0.26771 1.3074 0.46693l-0.62257 1.5689c-0.34035-0.16186-0.68276-0.30298-1.0272-0.42335-0.34449-0.12035-0.68276-0.18053-1.0148-0.18054" enable-background="accumulate"/></g><path d="m169.64 32.363 0.5306 2.6356h0.5306l0.18181-0.92703c0.0445-0.24254 0.0816-0.49046 0.11502-0.81924h7e-3c0.0371 0.32877 0.0705 0.56592 0.11873 0.82463l0.17068 0.92164h0.52689l0.55656-2.6356h-0.55285l-0.15213 1.0456c-0.0445 0.30182-0.0816 0.60365-0.10761 0.90008h-7e-3c-0.0334-0.30182-0.0816-0.59287-0.13357-0.89469l-0.18182-1.051h-0.44525l-0.19294 1.0887c-0.0408 0.25871-0.0965 0.56053-0.12987 0.85697h-0.0111c-0.0297-0.30182-0.0668-0.59287-0.10018-0.86236l-0.14842-1.0833h-0.57512m3.0046 2.6356h0.56399v-1.563c0-0.05929 4e-3 -0.12935 0.0186-0.17786 0.0408-0.15091 0.13358-0.29104 0.282-0.29104 0.21149 0 0.29312 0.23715 0.29312 0.58209v1.4498h0.56399v-1.5361c0-0.79768-0.27458-1.1588-0.63449-1.1588-0.10389 0-0.20779 0.03773-0.29312 0.1024-0.0891 0.06468-0.16327 0.1563-0.22263 0.27488h-7e-3v-1.5091h-0.56399v3.8267m1.97-2.6356 0.66788 2.4092c0.0186 0.06468 0.0223 0.10779 0.0223 0.13474 0 0.03773-0.0111 0.07546-0.0297 0.11857-0.052 0.12935-0.14842 0.2641-0.23377 0.32877-0.0853 0.07007-0.17439 0.11857-0.24489 0.14013l0.11874 0.68988c0.1447-0.02156 0.35249-0.11318 0.54543-0.36111 0.20408-0.2641 0.37847-0.67911 0.63821-1.7247l0.42299-1.7355h-0.60481l-0.22262 1.2935c-0.026 0.15091-0.0557 0.35033-0.0816 0.49046h-0.0111c-0.0223-0.14013-0.0594-0.33416-0.089-0.49046l-0.27086-1.2935h-0.62707m4.4029 1.0779c0-0.61982-0.18924-1.1372-0.79404-1.1372-0.33023 0-0.57883 0.13474-0.70499 0.23715l0.10389 0.5228c0.11874-0.1024 0.31539-0.19403 0.50092-0.19403 0.27828 0 0.33023 0.19942 0.33023 0.33955v0.03234c-0.64192 0-1.0649 0.32338-1.0649 1.0079 0 0.4204 0.21893 0.80846 0.58626 0.80846 0.2152 0 0.40073-0.11318 0.51946-0.32338h0.0111l0.0334 0.2641h0.50833c-0.0223-0.14552-0.0297-0.38806-0.0297-0.63599v-0.92164m-0.54544 0.59826c0 0.04851-4e-3 0.09702-0.0111 0.14013-0.0371 0.16708-0.15583 0.30182-0.29312 0.30182-0.12616 0-0.22263-0.1024-0.22263-0.3126 0-0.3126 0.23005-0.41501 0.52689-0.41501v0.28566m0.99197 0.95937h0.56399v-3.8267h-0.56399v3.8267m1.0146 0h0.56398v-3.8267h-0.56398v3.8267m1.8389-3.1314v0.49585h-0.24119v0.60365h0.24119v1.0833c0 0.37189 0.0519 0.62521 0.15583 0.78151 0.0928 0.13474 0.2449 0.22637 0.4267 0.22637 0.15585 0 0.29313-0.03234 0.36364-0.07007l-4e-3 -0.61982c-0.0519 0.01617-0.089 0.02156-0.16697 0.02156-0.16697 0-0.22263-0.14552-0.22263-0.46352v-0.95937h0.40444v-0.60365h-0.40444v-0.71683l-0.55285 0.22098m1.2845 3.1314h0.56399v-1.563c0-0.05929 4e-3 -0.12935 0.0186-0.17786 0.0408-0.15091 0.13358-0.29104 0.282-0.29104 0.21149 0 0.29312 0.23715 0.29312 0.58209v1.4498h0.564v-1.5361c0-0.79768-0.27458-1.1588-0.6345-1.1588-0.10389 0-0.20778 0.03773-0.29312 0.1024-0.0891 0.06468-0.16327 0.1563-0.22263 0.27488h-7e-3v-1.5091h-0.56399v3.8267m2.7381 0v-2.6356h-0.56399v2.6356h0.56399m-0.282-2.9805c0.19666 0 0.3191-0.19403 0.3191-0.43657-4e-3 -0.24793-0.12244-0.43657-0.31538-0.43657-0.19295 0-0.31911 0.18864-0.31911 0.43657 0 0.24254 0.12245 0.43657 0.31168 0.43657h4e-3m0.62869 2.8512c0.13729 0.10779 0.34878 0.18864 0.58626 0.18864 0.51946 0 0.7829-0.36111 0.7829-0.85697-4e-3 -0.38267-0.14471-0.64138-0.48978-0.80846-0.22263-0.11318-0.29312-0.17786-0.29312-0.30721 0-0.12935 0.0779-0.2102 0.2152-0.2102 0.15213 0 0.31168 0.08624 0.39331 0.14552l0.0965-0.56053c-0.11131-0.08085-0.29684-0.1563-0.50833-0.1563-0.44897 0-0.73838 0.37189-0.73838 0.86774-4e-3 0.30721 0.141 0.60904 0.51947 0.7869 0.20777 0.1024 0.26343 0.16708 0.26343 0.30721 0 0.13474-0.0705 0.21559-0.24117 0.21559-0.16698 0-0.38218-0.1024-0.48608-0.19403l-0.10018 0.58209m3.6539-3.6973v1.4283h-7e-3c-0.0816-0.17786-0.25232-0.29643-0.47865-0.29643-0.43413 0-0.8163 0.51741-0.81259 1.4013 0 0.81924 0.34507 1.3528 0.77548 1.3528 0.23376 0 0.45639-0.15091 0.5677-0.44196h0.0111l0.0223 0.38267h0.50092c-7e-3 -0.17786-0.0148-0.48508-0.0148-0.7869v-3.0398h-0.564m0 2.6571c0 0.06468-4e-3 0.12935-0.0111 0.18325-0.0334 0.23176-0.16698 0.39345-0.33024 0.39345-0.23376 0-0.38588-0.28027-0.38588-0.72222 0-0.41501 0.12986-0.74917 0.38959-0.74917 0.1744 0 0.29684 0.17786 0.33024 0.39884 7e-3 0.04851 7e-3 0.10241 7e-3 0.15091v0.34494m2.6185 0.11318c7e-3 -0.06468 0.0186-0.18864 0.0186-0.32877 0-0.65216-0.22263-1.3151-0.80888-1.3151-0.62706 0-0.91649 0.73839-0.91649 1.4067 0 0.83002 0.3525 1.3474 0.96843 1.3474 0.2449 0 0.47123-0.0539 0.65676-0.16708l-0.0742-0.55514c-0.15213 0.07546-0.30797 0.11318-0.50091 0.11318-0.26344 0-0.49349-0.16169-0.51204-0.50663l1.1688 0.0054m-1.1725-0.56592c0.0148-0.21559 0.1113-0.53358 0.35249-0.53358 0.25601 0 0.31539 0.33955 0.31539 0.53358h-0.66788m1.6042-1.5091v0.49585h-0.24118v0.60365h0.24118v1.0833c0 0.37189 0.0519 0.62521 0.15584 0.78151 0.0928 0.13474 0.24489 0.22637 0.4267 0.22637 0.15584 0 0.29313-0.03234 0.36362-0.07007l-4e-3 -0.61982c-0.0519 0.01617-0.089 0.02156-0.16697 0.02156-0.16696 0-0.22262-0.14552-0.22262-0.46352v-0.95937h0.40444v-0.60365h-0.40444v-0.71683l-0.55286 0.22098m2.7947 1.5738c0-0.61982-0.18924-1.1372-0.79404-1.1372-0.33023 0-0.57883 0.13474-0.70499 0.23715l0.1039 0.5228c0.11873-0.1024 0.31539-0.19403 0.50091-0.19403 0.27828 0 0.33023 0.19942 0.33023 0.33955v0.03234c-0.64191 0-1.0649 0.32338-1.0649 1.0079 0 0.4204 0.21891 0.80846 0.58625 0.80846 0.21521 0 0.40073-0.11318 0.51947-0.32338h0.0111l0.0334 0.2641h0.50833c-0.0223-0.14552-0.0297-0.38806-0.0297-0.63599v-0.92164m-0.54543 0.59826c0 0.04851-4e-3 0.09702-0.0111 0.14013-0.0371 0.16708-0.15584 0.30182-0.29312 0.30182-0.12616 0-0.22263-0.1024-0.22263-0.3126 0-0.3126 0.23005-0.41501 0.52689-0.41501v0.28566m1.556 0.95937v-2.6356h-0.56399v2.6356h0.56399m-0.282-2.9805c0.19665 0 0.3191-0.19403 0.3191-0.43657-4e-3 -0.24793-0.12245-0.43657-0.31539-0.43657s-0.3191 0.18864-0.3191 0.43657c0 0.24254 0.12245 0.43657 0.31168 0.43657h4e-3m0.73259 2.9805h0.56399v-3.8267h-0.56399v3.8267m1.7938-1.1803v-0.09701c-4e-3 -0.24254 0.0557-0.45274 0.18924-0.66833 0.14099-0.23176 0.3191-0.49586 0.3191-0.91086 0-0.44196-0.22634-0.83541-0.71241-0.83541-0.26716 0-0.48607 0.1078-0.61965 0.22098l0.12244 0.58209c0.10019-0.09701 0.2449-0.1563 0.37105-0.1563 0.18181 0.0054 0.26716 0.13474 0.26716 0.31799s-0.0965 0.36111-0.21521 0.56592c-0.16697 0.28566-0.22634 0.56592-0.21892 0.8408l7e-3 0.14013h0.48978m-0.25602 1.2396c0.20037 0 0.33023-0.2102 0.33023-0.49046-4e-3 -0.29104-0.13357-0.49046-0.33394-0.49046-0.19294 0-0.33023 0.19942-0.33023 0.49046 0 0.28026 0.13358 0.49046 0.33023 0.49046h4e-3" enable-background="accumulate" fill="#fff" opacity=".51562" style="text-decoration-line:none;text-indent:0;text-transform:none"/><rect transform="matrix(1 0 0 1.1133 0 -6.236)" x="73.618" y="53.536" width="111.76" height="25.357" clip-path="url(#do)" fill="none" filter="url(#dm)" opacity=".324" stroke="#000" stroke-width="2.8432"/><g transform="matrix(.57839 0 .072028 .57839 73.644 33.898)" opacity=".592"><path d="m119.17 44.56c0.23998 2.7e-5 0.53332-0.15997 0.88-0.48l3.84-3.44c0.13331-0.10664 0.17331-0.22664 0.12-0.36-0.0533-0.1333-0.18669-0.19997-0.4-0.2h-15.12c-0.24 3.2e-5 -0.38667 0.05336-0.44 0.16-0.0533 0.08003-0.08 0.1467-0.08 0.2 0 0.05336 0.0267 0.1067 0.08 0.16 0.37333 0.4267 1.4133 1.5867 3.12 3.48 0.29333 0.32003 0.54666 0.48003 0.76 0.48h7.24m0.08 10.32c-0.0267 0.16002-2e-5 0.26668 0.08 0.32 0.10665 0.05335 0.22665 0.04002 0.36-0.04l3.64-1.96c0.45331-0.23998 0.70665-0.54665 0.76-0.92l1.16-10.28c0.0266-0.2133-0.0134-0.34664-0.12-0.4-0.08-0.0533-0.13335-0.07997-0.16-0.08-0.08 3e-5 -0.14669 0.0267-0.2 0.08-0.0267 0.0267-1.3467 1.2-3.96 3.52-0.34668 0.29336-0.53335 0.57336-0.56 0.84l-1 8.92m-8.24 0.56 3.04-1.64c0.34666-0.18665 0.65332-0.18665 0.92 0 0.90665 0.58668 1.8133 1.1467 2.72 1.68 0.42665 0.24002 0.62665 0.44002 0.6 0.6-0.0267 0.21335-0.29335 0.45335-0.8 0.72-1.7867 0.93335-2.8133 1.48-3.08 1.64-0.32001 0.18668-0.62668 0.18668-0.92 0-0.61334-0.39999-1.52-0.97332-2.72-1.72-0.34667-0.21332-0.50667-0.43998-0.48-0.68 0.0267-0.15998 0.26666-0.35998 0.72-0.6m7.24-3.36c0.0266-0.21331-0.04-0.33331-0.2-0.36-0.08 2e-5 -0.56001 0.21335-1.44 0.64-0.45335 0.24002-0.50668 0.46669-0.16 0.68 0.23999 0.13335 0.62665 0.36002 1.16 0.68 0.26665 0.16002 0.45332-0.02665 0.56-0.56 0.0267-0.34665 0.0533-0.70665 0.08-1.08m-1.72 15.48c0.23999 4e-6 0.50665 0.16 0.8 0.48l3.04 3.44c0.10665 0.13333 0.11998 0.26667 0.04 0.4-0.08 0.10667-0.24002 0.16-0.48 0.16h-15.08c-0.24 0-0.38667-0.05333-0.44-0.16-0.08-0.18667 0.50667-0.82667 1.76-1.92 0.77333-0.64 1.5333-1.28 2.28-1.92 0.37333-0.32 0.66666-0.48 0.88-0.48h7.2m2.44-10.32c0.0533-0.37332 0.22665-0.46665 0.52-0.28l3.2 1.96c0.39998 0.24001 0.57331 0.56001 0.52 0.96l-1.16 10.24c-0.0267 0.32-0.16002 0.48-0.4 0.48-0.08 1e-6 -0.13335-0.02666-0.16-0.08-0.29335-0.32-1.3467-1.4933-3.16-3.52-0.26668-0.29333-0.38668-0.57333-0.36-0.84l1-8.92m-8.8 2.8c-0.0267 0.21334 0.04 0.33334 0.2 0.36 0.13333 1.2e-5 0.62666-0.21332 1.48-0.64 0.26666-0.13332 0.39999-0.26665 0.4-0.4-1e-5 -0.10665-0.08-0.19999-0.24-0.28-0.29334-0.15999-0.69334-0.38665-1.2-0.68-0.24001-0.13332-0.41334 0.06668-0.52 0.6-0.0267 0.34668-0.0667 0.69335-0.12 1.04"/><path d="m125.95 68.28c0.18667-0.16 0.34667-0.16 0.48 0l1.36 1.36c0.18667 0.18667 0.28 0.34667 0.28 0.48-0.0267 0.16-0.17333 0.34667-0.44 0.56l-1.64 1.32c-0.16 0.13333-0.30666 0.13333-0.44 0-0.45333-0.48-0.90666-0.93333-1.36-1.36-0.16-0.16-0.22666-0.34666-0.2-0.56 1e-5 -0.10666 0.65334-0.70666 1.96-1.8"/><path d="m147.51 56.08c-2e-5 0.16002 0.42665 0.48002 1.28 0.96 0.23998 0.18668 0.37331 0.10668 0.4-0.24l0.16-1.64c0.0266-0.07998-0.0134-0.13332-0.12-0.16-0.10669 1.7e-5 -0.20002 0.02668-0.28 0.08-0.45335 0.21335-0.93335 0.54668-1.44 1m-2.64-1.2c-0.0267 0.16002-2e-5 0.26668 0.08 0.32 0.10665 0.05335 0.22665 0.04002 0.36-0.04l3.64-1.96c0.45331-0.23998 0.70665-0.54665 0.76-0.92l1.16-10.28c0.0266-0.2133-0.0134-0.34664-0.12-0.4-0.08-0.0533-0.13335-0.07997-0.16-0.08-0.08 3e-5 -0.14669 0.0267-0.2 0.08-0.0267 0.0267-1.3467 1.2-3.96 3.52-0.34668 0.29336-0.53335 0.57336-0.56 0.84l-1 8.92m-0.28 2.36c0.0533-0.37332 0.22665-0.46665 0.52-0.28l3.2 1.96c0.39998 0.24001 0.57331 0.56001 0.52 0.96l-1.16 10.24c-0.0267 0.32-0.16002 0.48-0.4 0.48-0.08 1e-6 -0.13335-0.02666-0.16-0.08-0.29335-0.32-1.3467-1.4933-3.16-3.52-0.26668-0.29333-0.38668-0.57333-0.36-0.84l1-8.92"/><path d="m173.14 56.08c-2e-5 0.16002 0.42665 0.48002 1.28 0.96 0.23998 0.18668 0.37331 0.10668 0.4-0.24l0.16-1.64c0.0266-0.07998-0.0134-0.13332-0.12-0.16-0.10669 1.7e-5 -0.20002 0.02668-0.28 0.08-0.45335 0.21335-0.93335 0.54668-1.44 1m-2.64-1.2c-0.0267 0.16002-2e-5 0.26668 0.08 0.32 0.10665 0.05335 0.22665 0.04002 0.36-0.04l3.64-1.96c0.45331-0.23998 0.70665-0.54665 0.76-0.92l1.16-10.28c0.0266-0.2133-0.0134-0.34664-0.12-0.4-0.08-0.0533-0.13335-0.07997-0.16-0.08-0.08 3e-5 -0.14669 0.0267-0.2 0.08-0.0267 0.0267-1.3467 1.2-3.96 3.52-0.34668 0.29336-0.53335 0.57336-0.56 0.84l-1 8.92m-8.24 0.56 3.04-1.64c0.34666-0.18665 0.65332-0.18665 0.92 0 0.90665 0.58668 1.8133 1.1467 2.72 1.68 0.42665 0.24002 0.62665 0.44002 0.6 0.6-0.0267 0.21335-0.29335 0.45335-0.8 0.72-1.7867 0.93335-2.8133 1.48-3.08 1.64-0.32001 0.18668-0.62668 0.18668-0.92 0-0.61334-0.39999-1.52-0.97332-2.72-1.72-0.34667-0.21332-0.50667-0.43998-0.48-0.68 0.0267-0.15998 0.26666-0.35998 0.72-0.6m7.96 1.8c0.0533-0.37332 0.22665-0.46665 0.52-0.28l3.2 1.96c0.39998 0.24001 0.57331 0.56001 0.52 0.96l-1.16 10.24c-0.0267 0.32-0.16002 0.48-0.4 0.48-0.08 1e-6 -0.13335-0.02666-0.16-0.08-0.29335-0.32-1.3467-1.4933-3.16-3.52-0.26668-0.29333-0.38668-0.57333-0.36-0.84l1-8.92m-1.48 1.64c-0.0267 0.21335-0.08 0.60001-0.16 1.16-0.0533 0.42668-0.26668 0.50668-0.64 0.24-0.21335-0.10666-0.52001-0.27999-0.92-0.52-0.21335-0.13332-0.32001-0.25332-0.32-0.36-1e-5 -0.10665 0.0933-0.21332 0.28-0.32 0.42665-0.18665 0.87999-0.41332 1.36-0.68 0.26665-0.15999 0.39999 1.4e-5 0.4 0.48m-8.04-4c-0.0533 0.34668-0.21334 0.44002-0.48 0.28l-3.2-1.96c-0.42667-0.26665-0.61334-0.57331-0.56-0.92l1.16-10.28c0.0267-0.2133 0.10666-0.35997 0.24-0.44 0.18666-0.10664 0.77333 0.40003 1.76 1.52 0.58666 0.69336 1.16 1.3734 1.72 2.04 0.29333 0.32003 0.42666 0.60003 0.4 0.84l-1.04 8.92m1.52-1.64c0.0267-0.21331 0.0667-0.59998 0.12-1.16 0.0533-0.42665 0.27999-0.50665 0.68-0.24 0.29332 0.18669 0.59999 0.36002 0.92 0.52 0.37332 0.26669 0.37332 0.49335 0 0.68-0.26668 0.13335-0.72001 0.36002-1.36 0.68-0.16001 0.08002-0.26667 0.06668-0.32-0.04-0.0533-0.13332-0.0667-0.27998-0.04-0.44"/></g><path d="m46.625 116.9 0.0957-8.25 0.66992-1.125 16.939-0.125 0.66992 1.25v9.625z" enable-background="accumulate" fill="url(#cj)" opacity=".42"/><path d="m46.625 147 0.0957-8.25 0.66992-1.125 16.939-0.125 0.66992 1.25v9.625z" enable-background="accumulate" fill="url(#ci)" opacity=".42"/><path d="m46.625 177 0.0957-8.25 0.66992-1.125 16.939-0.125 0.66992 1.25v9.625z" enable-background="accumulate" fill="url(#ch)" opacity=".42"/><path d="m46.625 209 0.0957-8.25 0.66992-1.125 16.939-0.125 0.66992 1.25v9.625z" enable-background="accumulate" fill="url(#cg)" opacity=".42"/><path d="m183.29 146.5 0.1495-8.25 1.0465-1.125 26.462-0.125 1.0465 1.25v9.625z" enable-background="accumulate" fill="url(#cf)" opacity=".42"/><path d="m183.29 117.25 0.1495-8.25 1.0465-1.125 26.462-0.125 1.0465 1.25v9.625z" enable-background="accumulate" fill="url(#ce)" opacity=".42"/><path d="m184 190.89 0.14583-20.643 1.0208-2.5422 25.813-0.28247 1.0208 2.8247v21.75z" enable-background="accumulate" fill="url(#cd)" opacity=".42"/><rect transform="matrix(5.0802 0 0 -5.2215 119.34 320.53)" x="12.5" y="19.5" width="6" height="10" rx=".4036" ry=".39201" fill="none" filter="url(#ag)" opacity=".6" stroke="url(#af)" stroke-dashoffset="1.4" stroke-linecap="square" stroke-miterlimit="6" stroke-width=".19416"/><g transform="matrix(7.9551 0 0 -5.0715 122.01 255.77)" fill="none" filter="url(#c)" opacity=".42" stroke="url(#b)" stroke-width=".15744"><rect x="7.5" y="19.5" width="4" height="4" rx=".12777" ry=".20043" fill="none" stroke="url(#b)" stroke-dashoffset="1.4" stroke-linecap="square" stroke-width=".15744"/></g><g transform="matrix(7.9551 0 0 -5.0715 122.01 226.27)" fill="none" filter="url(#c)" opacity=".42" stroke="url(#b)" stroke-width=".15744"><rect x="7.5" y="19.5" width="4" height="4" rx=".12777" ry=".20043" fill="none" stroke="url(#b)" stroke-dashoffset="1.4" stroke-linecap="square" stroke-width=".15744"/></g><g transform="matrix(5.0802 0 0 -5.0715 7.5764 226.07)" fill="none" filter="url(#c)" opacity=".42" stroke="url(#b)" stroke-width=".19701"><rect x="7.5" y="19.5" width="4" height="4" rx=".20009" ry=".20043" fill="none" stroke="url(#b)" stroke-dashoffset="1.4" stroke-linecap="square" stroke-width=".19701"/></g><g transform="matrix(5.0802 0 0 -5.0715 7.5764 256.07)" fill="none" filter="url(#c)" opacity=".42" stroke="url(#b)" stroke-width=".19701"><rect x="7.5" y="19.5" width="4" height="4" rx=".20009" ry=".20043" fill="none" stroke="url(#b)" stroke-dashoffset="1.4" stroke-linecap="square" stroke-width=".19701"/></g><g transform="matrix(5.0802 0 0 -5.0715 7.5764 286.07)" fill="none" filter="url(#c)" opacity=".42" stroke="url(#b)" stroke-width=".19701"><rect x="7.5" y="19.5" width="4" height="4" rx=".20009" ry=".20043" fill="none" stroke="url(#b)" stroke-dashoffset="1.4" stroke-linecap="square" stroke-width=".19701"/></g><g transform="matrix(5.0802 0 0 -5.0715 7.5764 318.07)" fill="none" filter="url(#c)" opacity=".42" stroke="url(#b)" stroke-width=".19701"><rect x="7.5" y="19.5" width="4" height="4" rx=".20009" ry=".20043" fill="none" stroke="url(#b)" stroke-dashoffset="1.4" stroke-linecap="square" stroke-width=".19701"/></g></g></g></svg>
