<?xml version="1.0" encoding="UTF-8"?>
<svg enable-background="new" version="1.0" viewBox="0 0 256 256" xmlns="http://www.w3.org/2000/svg" xmlns:xlink="http://www.w3.org/1999/xlink"><defs><linearGradient id="bm"><stop stop-color="#1b1b1b" offset="0"/><stop stop-color="#9f9f9f" offset="1"/></linearGradient><linearGradient id="bn"><stop stop-color="#2e3436" offset="0"/><stop stop-color="#babdb6" offset="1"/></linearGradient><linearGradient id="bj"><stop stop-color="#fff" offset="0"/><stop stop-opacity=".49804" offset=".25595"/><stop stop-opacity="0" offset="1"/></linearGradient><linearGradient id="bk"><stop stop-color="#cdcdcd" offset="0"/><stop stop-color="#f9f9f9" offset=".15303"/><stop stop-color="#656565" offset=".73782"/><stop stop-color="#fff" offset=".89015"/><stop stop-color="#fff" offset=".91738"/><stop stop-color="#cacaca" offset="1"/></linearGradient><linearGradient id="e"><stop offset="0"/><stop stop-opacity="0" offset="1"/></linearGradient><linearGradient id="i"><stop stop-color="#fff" offset="0"/><stop stop-color="#fff" stop-opacity="0" offset="1"/></linearGradient><linearGradient id="bl"><stop stop-color="#3e3e3e" offset="0"/><stop stop-color="#8e8f8b" offset="1"/></linearGradient><linearGradient id="s"><stop offset="0"/><stop stop-color="#5b676b" offset="1"/></linearGradient><pattern id="ap" xlink:href="#aq" patternTransform="matrix(-.444 -.89603 -.89603 .444 97.606 310.3)"/><pattern id="aq" xlink:href="#ar" patternTransform="matrix(-.444 -.89603 -.89603 .444 98.5 309.86)"/><pattern id="ar" xlink:href="#as" patternTransform="matrix(-.444 -.89603 -.89603 .444 99.395 309.42)"/><pattern id="as" xlink:href="#at" patternTransform="matrix(-.444 -.89603 -.89603 .444 99.838 310.31)"/><pattern id="at" xlink:href="#ao" patternTransform="matrix(-.444 -.89603 -.89603 .444 100.28 311.21)"/><linearGradient id="n"><stop stop-opacity=".2" offset="0"/><stop stop-opacity=".4" offset=".46707"/><stop offset="1"/></linearGradient><linearGradient id="o"><stop stop-color="#babdb6" offset="0"/><stop stop-color="#eeeeec" offset="1"/></linearGradient><clipPath id="ce"><rect x="48" y="230" width="176" height="4" enable-background="new"/></clipPath><filter id="bq" x="-.0061695" y="-.2184" width="1.0123" height="1.4368"><feGaussianBlur stdDeviation="0.455"/></filter><clipPath id="cd"><path d="m60 60-12 144v20h176v-20l-12-144z" enable-background="new"/></clipPath><filter id="bp"><feGaussianBlur stdDeviation="0.845"/></filter><filter id="bw" x="-.20294" y="-.59662" width="1.4059" height="2.1932"><feGaussianBlur stdDeviation="4.10182"/></filter><filter id="bv" x="-.036452" y="-.13215" width="1.0729" height="1.2643"><feGaussianBlur stdDeviation="0.89926392"/></filter><filter id="bu" x="-.12758" y="-.46254" width="1.2552" height="1.9251"><feGaussianBlur stdDeviation="3.1474237"/></filter><clipPath id="cg"><path d="m415 266.5-11.164-45.626-70.516-142.6-8.5978-2.2448-7.2358 3.3602-4.108 8.9634 69.895 143.19z" color="#000000" enable-background="accumulate" fill="none" stroke="#000"/></clipPath><filter id="cb" color-interpolation-filters="sRGB"><feGaussianBlur stdDeviation="1.09875"/></filter><pattern id="ao" patternTransform="matrix(-.444 -.89603 -.89603 .444 102.07 310.32)" xlink:href="#pattern2972-8"/><filter id="by" x="-.1541" y="-.77603" width="1.3082" height="2.5521" color-interpolation-filters="sRGB"><feGaussianBlur stdDeviation="0.75526875"/></filter><filter id="bz" x="-.20538" y="-.15573" width="1.4108" height="1.3115" color-interpolation-filters="sRGB"><feGaussianBlur stdDeviation="0.77922653"/></filter><clipPath id="cf"><path d="m-164.25 115.75c6.5136 3.7207 6.2315 15.446 0 19.25h12.25c6.2103-2.2229 6.0582-16.864 0-19.5z" color="#000000" enable-background="new" fill="none" stroke="#000"/></clipPath><filter id="bx" color-interpolation-filters="sRGB"><feGaussianBlur stdDeviation="0.38947335"/></filter><filter id="bt" color-interpolation-filters="sRGB"><feGaussianBlur stdDeviation="0.13003822"/></filter><filter id="c" x="-.2162" y="-.043192" width="1.4324" height="1.0864" color-interpolation-filters="sRGB"><feGaussianBlur stdDeviation="0.6163846"/></filter><filter id="v" x="-.15128" y="-.06691" width="1.3026" height="1.1338"><feGaussianBlur stdDeviation="0.59657274"/></filter><filter id="ca"><feGaussianBlur stdDeviation="0.36"/></filter><clipPath id="x"><path d="m123.56 38.206c-1.8938 0.17625-3.6813 1.9099-4.4736 3.4756-3.2913 6.5043-5.5204 17.854-6.2308 25.462-0.13645 2.7639 1.1649 3.8851 3.4122 4.0422 2.9232 0.20439 3.8562-0.92109 4.4356-3.06 0.38474-5.03 1.3813-10.649 3.1291-15.791 0.63566 1.6189 1.1498 3.3012 1.4616 5.2133h7.3125c-0.74382-6.022-1.5227-11.657-4.7189-17.113-0.25166-0.41914-0.58615-0.7169-0.94502-0.94445-0.0265-0.02527-0.0595-0.05072-0.0869-0.07556-0.60394-0.54845-1.4116-1.002-2.4868-1.1711-0.27266-0.04289-0.53851-0.06296-0.80905-0.03778z" enable-background="new"/></clipPath><filter id="w"><feGaussianBlur stdDeviation="0.50184999"/></filter><clipPath id="ch"><path d="m123.38 53.779c-1.463 4.734-2.333 9.7696-2.682 14.332-0.57939 2.1389-1.5064 3.2694-4.4295 3.065-2.2473-0.15713-3.5314-1.2678-3.3949-4.0317 0.39858-4.2685 1.2703-9.7136 2.54-14.82 1.1492-5.8372 10.1-3.2323 7.9664 1.4548z" enable-background="new"/></clipPath><filter id="cc"><feGaussianBlur stdDeviation="0.33733261"/></filter><linearGradient id="bb" x1="128.25" x2="128.25" y1="197.82" y2="218" gradientUnits="userSpaceOnUse" xlink:href="#o"/><radialGradient id="ah" cx="183.58" cy="198" r="88" gradientTransform="matrix(2.0606 -6.72e-8 2.379e-8 .72949 -202.32 41.561)" gradientUnits="userSpaceOnUse"><stop stop-color="#fff" offset="0"/><stop stop-color="#eeeeec" offset="1"/></radialGradient><radialGradient id="ag" cx="55" cy="36.667" r="88" gradientTransform="matrix(1.8296 1.9619e-8 0 .57955 -45.627 32.75)" gradientUnits="userSpaceOnUse"><stop stop-color="#fff" offset="0"/><stop stop-color="#fff" stop-opacity="0" offset="1"/></radialGradient><linearGradient id="ba" x1="128.25" x2="128.25" y1="182.32" y2="218" gradientUnits="userSpaceOnUse" xlink:href="#o"/><linearGradient id="az" x1="123" x2="123" y1="208.5" y2="29.72" gradientUnits="userSpaceOnUse"><stop stop-color="#555753" offset="0"/><stop stop-color="#babdb6" offset="1"/></linearGradient><linearGradient id="ay" x1="136" x2="125.87" y1="159.31" y2="-29.852" gradientUnits="userSpaceOnUse"><stop stop-color="#fff" offset="0"/><stop stop-color="#fff" stop-opacity="0" offset="1"/></linearGradient><radialGradient id="b" cx="136" cy="214.25" r="88" gradientTransform="matrix(.76638 -.20535 .32087 1.1975 -36.973 -12.6)" gradientUnits="userSpaceOnUse" xlink:href="#n"/><linearGradient id="ax" x1="118.95" x2="120.17" y1="167.55" y2="74.833" gradientUnits="userSpaceOnUse" xlink:href="#bm"/><radialGradient id="j" cx="120.75" cy="202.94" r="27.784" gradientTransform="matrix(1.9096 2.9053e-7 -1.7198e-7 1.1303 -114.34 -37.142)" gradientUnits="userSpaceOnUse" xlink:href="#e"/><radialGradient id="af" cx="120.75" cy="202.94" r="27.784" gradientTransform="matrix(2.2784 0 0 .96592 -154.37 -3.2737)" gradientUnits="userSpaceOnUse" xlink:href="#e"/><filter id="bs"><feGaussianBlur stdDeviation="1.2975959"/></filter><filter id="br" x="-.088486" y="-.1051" width="1.177" height="1.2102"><feGaussianBlur stdDeviation="6.4889793"/></filter><radialGradient id="ae" cx="136" cy="214.25" r="88" gradientTransform="matrix(.76638 -.20535 .32087 1.1975 -36.973 -14.464)" gradientUnits="userSpaceOnUse" xlink:href="#n"/><linearGradient id="d" x1="136.25" x2="136.75" y1="69.125" y2="56.125" gradientTransform="translate(-5.4256)" gradientUnits="userSpaceOnUse" xlink:href="#e"/><linearGradient id="p" x1="136.25" x2="136.75" y1="69.125" y2="56.125" gradientTransform="translate(-45.278)" gradientUnits="userSpaceOnUse" xlink:href="#e"/><linearGradient id="aw" x1="136.25" x2="136.75" y1="69.125" y2="56.125" gradientTransform="translate(-65.877)" gradientUnits="userSpaceOnUse" xlink:href="#e"/><linearGradient id="ci" x1="136.25" x2="136.75" y1="69.125" y2="56.125" gradientUnits="userSpaceOnUse" xlink:href="#e"/><radialGradient id="a" cx="79.25" cy="73.946" r="4.25" gradientTransform="matrix(4.9834 0 0 2.9314 -315.68 -144.44)" gradientUnits="userSpaceOnUse" xlink:href="#s"/><radialGradient id="ad" cx="79.25" cy="73.946" r="4.25" gradientTransform="matrix(2.0343 0 0 1.1967 -81.97 -16.167)" gradientUnits="userSpaceOnUse" xlink:href="#s"/><radialGradient id="ac" cx="135.32" cy="20.938" r="4.5488" gradientTransform="matrix(4.9536 .095587 -.17929 9.2915 -518.13 -185.26)" gradientUnits="userSpaceOnUse"><stop stop-color="#cdcdcd" offset="0"/><stop stop-color="#f9f9f9" offset=".15303"/><stop stop-color="#656565" offset=".73782"/><stop stop-color="#f4f4f4" offset=".92627"/><stop stop-color="#cacaca" offset="1"/></radialGradient><radialGradient id="h" cx="120.62" cy="48.25" r="3" gradientUnits="userSpaceOnUse" xlink:href="#i"/><linearGradient id="av" x1="115.88" x2="116.13" y1="71.736" y2="61.993" gradientTransform="matrix(1 0 -.091294 1 6.488 0)" gradientUnits="userSpaceOnUse"><stop stop-color="#fff" offset="0"/><stop stop-opacity=".76471" offset=".4038"/><stop stop-opacity="0" offset="1"/></linearGradient><linearGradient id="au" x1="197.26" x2="197.26" y1="66.081" y2="48.463" gradientUnits="userSpaceOnUse"><stop stop-color="#555753" offset="0"/><stop stop-color="#d3d7cf" offset="1"/></linearGradient><radialGradient id="an" cx="248.9" cy="224.74" r="22.228" gradientTransform="matrix(.011115 -.23021 -1.8754 -.090545 141.79 206.11)" gradientUnits="userSpaceOnUse"><stop stop-color="#f5f2e9" offset="0"/><stop stop-color="#d1c59a" offset="1"/></radialGradient><linearGradient id="bi" x1="241" x2="252.29" y1="247.37" y2="242.42" gradientTransform="matrix(-.40723 -.71623 -.71623 .40723 -28.94 205.39)" gradientUnits="userSpaceOnUse"><stop offset="0"/><stop stop-color="#555" offset=".52711"/><stop stop-color="#8d8d8d" offset=".68191"/><stop offset="1"/></linearGradient><linearGradient id="bh" x1="336.84" x2="321.5" y1="97.874" y2="63" gradientUnits="userSpaceOnUse"><stop offset="0"/><stop stop-opacity="0" offset="1"/></linearGradient><radialGradient id="am" cx="-138.84" cy="128" r="9.1267" gradientTransform="matrix(1.684 0 0 1.6946 94.967 -88.921)" gradientUnits="userSpaceOnUse"><stop stop-color="#f9a9a9" offset="0"/><stop stop-color="#ab5f5f" offset="1"/></radialGradient><linearGradient id="bg" x1="-146.31" x2="-146.81" y1="116.47" y2="120.59" gradientTransform="matrix(1.057 1.5316e-8 1.5316e-8 -1.057 9.0797 261.69)" gradientUnits="userSpaceOnUse"><stop offset="0"/><stop stop-opacity="0" offset="1"/></linearGradient><linearGradient id="bf" x1="-146.25" x2="-145.88" y1="117.09" y2="119.53" gradientTransform="matrix(1.057 1.5316e-8 -1.5316e-8 1.057 9.2118 -3.143)" gradientUnits="userSpaceOnUse"><stop stop-color="#9e5a5a" offset="0"/><stop stop-color="#e3a4a4" offset="1"/></linearGradient><linearGradient id="be" x1="-158.75" x2="-158.75" y1="115.94" y2="134.25" gradientTransform="translate(1.9962 3.9925)" gradientUnits="userSpaceOnUse"><stop stop-color="#ddd" offset="0"/><stop stop-color="#fff" offset=".34468"/><stop stop-color="#737373" offset=".72695"/><stop stop-color="#bbb" offset="1"/></linearGradient><linearGradient id="bd" x1="-152" x2="-159.02" y1="132" y2="115.75" gradientUnits="userSpaceOnUse"><stop offset="0"/><stop stop-opacity="0" offset="1"/></linearGradient><linearGradient id="bc" x1="172.34" x2="169.41" y1="75.391" y2="76.84" gradientTransform="matrix(-.36582 -.73825 -.73825 .36582 -34.082 219.26)" gradientUnits="userSpaceOnUse"><stop stop-color="#767676" offset="0"/><stop stop-color="#767676" stop-opacity="0" offset="1"/></linearGradient><radialGradient id="al" cx="173.93" cy="145.18" r="30.125" gradientTransform="matrix(-.046822 -.54507 -3.0463 .26169 207.14 201.99)" gradientUnits="userSpaceOnUse"><stop stop-color="#fff" offset="0"/><stop stop-color="#fff" stop-opacity="0" offset="1"/></radialGradient><radialGradient id="ak" cx="-139.49" cy="124.53" r="2.8607" gradientTransform="matrix(3.7531 0 0 2.8521 384.25 -233.11)" gradientUnits="userSpaceOnUse"><stop stop-color="#eeeeec" offset="0"/><stop stop-color="#eeeeec" stop-opacity="0" offset="1"/></radialGradient><radialGradient id="aj" cx="-140.38" cy="122.88" r="1.5" gradientUnits="userSpaceOnUse"><stop stop-color="#eeeeec" offset="0"/><stop stop-color="#eeeeec" stop-opacity="0" offset="1"/></radialGradient><radialGradient id="g" cx="354.57" cy="37.125" r="5.4005" gradientTransform="matrix(1.3666 0 0 4.8342 -129.97 -142.34)" gradientUnits="userSpaceOnUse" xlink:href="#e"/><radialGradient id="f" cx="354.57" cy="37.125" r="5.4005" gradientTransform="matrix(1.1115 0 0 3.9321 -39.549 -108.85)" gradientUnits="userSpaceOnUse" xlink:href="#i"/><radialGradient id="ai" cx="345.87" cy="37.281" r="4.6222" gradientTransform="matrix(.64877 0 0 2.601 -380.92 32.336)" gradientUnits="userSpaceOnUse"><stop stop-color="#fff" offset="0"/><stop stop-color="#fff" stop-opacity="0" offset="1"/></radialGradient><radialGradient id="m" cx="-110.03" cy="85.706" r="4.9695" gradientTransform="matrix(-.57879 -1.9482 -3.0875 .73391 322.99 -226.48)" gradientUnits="userSpaceOnUse" xlink:href="#bl"/><radialGradient id="l" cx="129.76" cy="56.971" r="6.1638" gradientTransform="matrix(1 0 0 1.9681 0 -52.325)" gradientUnits="userSpaceOnUse" xlink:href="#i"/><radialGradient id="k" cx="135.32" cy="20.938" r="4.5488" gradientTransform="matrix(4.9652 -.031635 .063537 9.5673 -524.78 -173.82)" gradientUnits="userSpaceOnUse" xlink:href="#bk"/><linearGradient id="r" x1="115.88" x2="117.9" y1="71.118" y2="50.894" gradientTransform="matrix(1 0 -.091294 1 6.488 0)" gradientUnits="userSpaceOnUse" xlink:href="#bj"/><linearGradient id="q" x1="121.5" x2="116.38" y1="37.646" y2="23.491" gradientUnits="userSpaceOnUse" xlink:href="#bn"/></defs><g transform="translate(-20,-20)"><g><g id="bo" transform="matrix(1.0766 0 0 1.0766 24.986 -10.438)"><g transform="matrix(1.0019 0 0 1.0019 .16174 -3.5109)" enable-background="new"><path d="m-325.81 128.31 38.418-8.724c14.129 0.39698 26.421 18.995-0.1289 19.823z" enable-background="accumulate" fill="url(#an)"/><path d="m-149.16 132.45-5.025 6.3317-133.23 0.62273c3.7586-1.8402 5.0918-4.5348 2.0846-6.936 0.375 0.125 136.17-0.0184 136.17-0.0184z" enable-background="accumulate" fill="#d9700f"/><path d="m-153.85 119.8 5.1136 5.426-140.79-0.20776c1.561-2.3608 7.9478-3.6479 2.0783-5.2815l133.6 0.0633z" enable-background="accumulate" fill="#fcaf3e"/><path d="m-149.2 132.51 0.20772-7.2895-140.14-0.28463c4.0362 1.2441 8.2992 4.9283 4.1107 7.6461z" enable-background="accumulate" fill="#f09a2e"/><path d="m-325.21 128.13 15.325-3.2797c2.4049 2.7798 2.5523 6.0095 0.48282 8.0143z" enable-background="accumulate" fill="url(#bi)"/><path transform="matrix(-.37166 -.75996 -.75005 .37657 28.595 343.62)" d="m415 266.5-10.083-44.657-70.961-143.85-9.087-1.412-6.8332 2.8274-3.9754 9.231 69.558 144.43z" clip-path="url(#cg)" enable-background="accumulate" fill="none" filter="url(#cb)" stroke="url(#bh)" stroke-width="1.2137"/><rect transform="matrix(-.444 -.89603 -.89603 .444 0 0)" x="97.606" y="310.3" width="0" height="0" fill="url(#ap)"/><path d="m-289.33 124.92c4.9658 1.2812 8.5449 5.47 4.1542 7.6898 4.0511-3.3676-2.1569-6.8553-4.1542-7.6898z" color="#000000" enable-background="new" fill="#fdd498"/><path d="m-287.18 139.29c2.2158-0.81171 5.4824-4.2 1.998-6.6852 1.4573 2.4826 0.0931 5.3919-1.998 6.6852z" color="#000000" enable-background="new" fill="#fdd498"/><path d="m-288.25 125.49 3.75 2.75-40.75 0.375z" color="#000000" enable-background="new" fill="#fff" opacity=".21845"/><path d="m-289.5 124.49 1.875 1.125h138.5v-0.5l-0.75-0.75z" color="#000000" enable-background="new" fill="#fff" opacity=".46602"/><path d="m-154.7 120.29c6.1356 3.5048 5.8699 14.55 0 18.133h11.539c9.285-3.6794 8.6133-14.564 0-18.368z" color="#000000" enable-background="new" fill="url(#am)"/><path transform="matrix(1.057 1.5316e-8 -1.5316e-8 1.057 8.2322 -1.7671)" d="m-152.25 119.38h9.875l1.8876 2.3358-2.8876-0.58579-8.375 0.125z" color="#000000" enable-background="new" fill="#fff" filter="url(#by)" opacity=".35437"/><path d="m-142.5 124.62c-1.125 2.625-3.625 2.125-3.625 2.125s-4.375 2.25-2.25 4.875 4.75 5.125 4.125 5 2.625-2.75 4-3.75-1.25-1.25-1.25-3.5-1-4.875-1-4.75z" color="#000000" enable-background="new" fill="#ab5f5f" filter="url(#bz)" opacity=".35437"/><path d="m-150.19 138.36 6.0084 0.19818c2.1597 0.0712 5.8228-3.2112 6.2479-4.2041l-10.176-0.11794z" color="#000000" enable-background="new" fill="url(#bg)" opacity=".25243"/><path d="m-150.06 120.19 6.8042-0.19817c1.3321 0.77113 2.7289 1.2833 3.8975 2.7084h-9.7768z" color="#000000" enable-background="new" fill="url(#bf)" opacity=".60194"/><path d="m-162.25 119.74c6.5136 3.7207 6.2315 15.446 0 19.25h12.25c6.2103-2.2229 6.0582-16.864 0-19.5z" color="#000000" enable-background="new" fill="url(#be)"/><path transform="translate(1.9962 3.9925)" d="m-164.25 115.75c6.5136 3.7207 6.2315 15.446 0 19.25h12.25c6.2103-2.2229 6.0582-16.864 0-19.5z" clip-path="url(#cf)" color="#000000" enable-background="new" fill="none" filter="url(#bx)" opacity=".50485" stroke="url(#bd)"/><path d="m-162.2 119.62 12.439 5e-5c1.2603 0.72958 1.6441 1.3392 2.7497 2.6875l-12.563-0.25007c-0.7894-0.66422-1.671-1.6082-2.6255-2.4375z" color="#000000" enable-background="new" fill="url(#bc)" opacity=".60194"/><path d="m-151.51 135.39-2.6819 2.9381-133.01 0.88339 1.8723-1.1773 0.83467-1.563z" enable-background="accumulate" fill="url(#al)" opacity=".2602"/><path d="m-188.61 127.8v3.2788h0.44458v-2.6953h9e-3l1.8246 2.6953h0.56499v-3.2788h-0.44458v2.6953h-9e-3l-1.8061-2.6953h-0.58351" color="#000000" fill="#fdd498" style="text-decoration-line:none;text-indent:0;text-transform:none"/><path d="m-184.08 131.13c0.66687 0 1.167-0.52331 1.167-1.1531 0-0.62519-0.50478-1.1531-1.167-1.1531-0.66687 0-1.167 0.52793-1.167 1.1531 0 0.6715 0.5372 1.1531 1.167 1.1531m0-1.9172c0.43068 0 0.72244 0.31028 0.72244 0.76412 0 0.45847-0.29176 0.76412-0.72244 0.76412-0.43532 0-0.72244-0.30565-0.72244-0.76412 0-0.45384 0.28712-0.76412 0.72244-0.76412" color="#000000" fill="#fdd498" style="text-decoration-line:none;text-indent:0;text-transform:none"/><path d="m-180.04 127.71c-0.60204 0-1.0049 0.30565-1.0837 0.85211l0.48162 0.0417c0.0509-0.30102 0.25934-0.50479 0.59741-0.50479 0.29175 0 0.56498 0.18988 0.56498 0.52331 0 0.0926-0.0139 0.34733-0.36122 0.6715l-1.3152 1.306v0.47237h2.1488v-0.38901h-1.6486l1.079-1.042c0.23618-0.22692 0.56962-0.56499 0.56962-1.0235 0-0.6113-0.48626-0.90768-1.0327-0.90768" color="#000000" fill="#fdd498" style="text-decoration-line:none;text-indent:0;text-transform:none"/><path d="m-175.94 128.48v-0.68076h-0.33344v0.68076l-0.65297-0.22229-0.0973 0.30102 0.6576 0.22229-0.41216 0.54183 0.25471 0.18987 0.41216-0.55573 0.42142 0.56499 0.25471-0.18987-0.40753-0.55109 0.64371-0.2084-0.0973-0.31028-0.64371 0.21766" color="#000000" fill="#fdd498" style="text-decoration-line:none;text-indent:0;text-transform:none"/><path d="m-173.06 127.8v3.2788h0.44458v-1.5005h1.6996v1.5005h0.44458v-3.2788h-0.44458v1.3615h-1.6996v-1.3615h-0.44458" color="#000000" fill="#fdd498" style="text-decoration-line:none;text-indent:0;text-transform:none"/><path d="m-167.95 130.13c0 0.44458-0.40753 0.55572-0.70855 0.55572h-0.65297v-1.1392h0.65761c0.32417 0 0.70391 0.1204 0.70391 0.58351m-0.14356-1.4634c0 0.35659-0.27323 0.49089-0.6113 0.49089h-0.60666v-0.97252h0.69928c0.43532 0 0.51868 0.31491 0.51868 0.48163m0.61593 1.4958c0-0.47699-0.35659-0.7919-0.70855-0.81506v-9e-3c0.26397-0.088 0.56499-0.28712 0.56499-0.72244 0-0.57425-0.46311-0.81969-0.99568-0.81969h-1.1392v3.2788h1.1253c0.64371 0 1.1531-0.32881 1.1531-0.91232" color="#000000" fill="#fdd498" style="text-decoration-line:none;text-indent:0;text-transform:none"/><path d="m-188.61 127.55v3.2788h0.44458v-2.6953h9e-3l1.8246 2.6953h0.56499v-3.2788h-0.44458v2.6953h-9e-3l-1.8061-2.6953h-0.58351" color="#000000" fill="#7f4109" style="text-decoration-line:none;text-indent:0;text-transform:none"/><path d="m-184.08 130.88c0.66687 0 1.167-0.52331 1.167-1.1531 0-0.62519-0.50478-1.1531-1.167-1.1531-0.66687 0-1.167 0.52793-1.167 1.1531 0 0.6715 0.5372 1.1531 1.167 1.1531m0-1.9172c0.43068 0 0.72244 0.31028 0.72244 0.76412 0 0.45847-0.29176 0.76412-0.72244 0.76412-0.43532 0-0.72244-0.30565-0.72244-0.76412 0-0.45384 0.28712-0.76412 0.72244-0.76412" color="#000000" fill="#7f4109" style="text-decoration-line:none;text-indent:0;text-transform:none"/><path d="m-180.04 127.46c-0.60204 0-1.0049 0.30565-1.0837 0.85211l0.48162 0.0417c0.0509-0.30102 0.25934-0.50479 0.59741-0.50479 0.29175 0 0.56498 0.18988 0.56498 0.52331 0 0.0926-0.0139 0.34733-0.36122 0.6715l-1.3152 1.306v0.47237h2.1488v-0.38901h-1.6486l1.079-1.042c0.23618-0.22692 0.56962-0.56499 0.56962-1.0235 0-0.6113-0.48626-0.90768-1.0327-0.90768" color="#000000" fill="#7f4109" style="text-decoration-line:none;text-indent:0;text-transform:none"/><path d="m-175.94 128.23v-0.68076h-0.33344v0.68076l-0.65297-0.22229-0.0973 0.30102 0.6576 0.22229-0.41216 0.54183 0.25471 0.18987 0.41216-0.55573 0.42142 0.56499 0.25471-0.18987-0.40753-0.55109 0.64371-0.2084-0.0973-0.31028-0.64371 0.21766" color="#000000" fill="#7f4109" style="text-decoration-line:none;text-indent:0;text-transform:none"/><path d="m-173.06 127.55v3.2788h0.44458v-1.5005h1.6996v1.5005h0.44458v-3.2788h-0.44458v1.3615h-1.6996v-1.3615h-0.44458" color="#000000" fill="#7f4109" style="text-decoration-line:none;text-indent:0;text-transform:none"/><path d="m-167.95 129.88c0 0.44458-0.40753 0.55572-0.70855 0.55572h-0.65297v-1.1392h0.65761c0.32417 0 0.70391 0.1204 0.70391 0.58351m-0.14356-1.4634c0 0.35659-0.27323 0.49089-0.6113 0.49089h-0.60666v-0.97252h0.69928c0.43532 0 0.51868 0.31491 0.51868 0.48163m0.61593 1.4958c0-0.47699-0.35659-0.7919-0.70855-0.81506v-9e-3c0.26397-0.088 0.56499-0.28712 0.56499-0.72244 0-0.57425-0.46311-0.81969-0.99568-0.81969h-1.1392v3.2788h1.1253c0.64371 0 1.1531-0.32881 1.1531-0.91232" color="#000000" fill="#7f4109" style="text-decoration-line:none;text-indent:0;text-transform:none"/><path transform="matrix(1.1358 0 0 1.057 20.596 -3.143)" d="m-143.62 117.25c5.9116 4.375 4.8678 12.5-0.5 16.125 6.4383-2.4728 8.5369-11.85 0.5-16.125z" color="#000000" enable-background="new" fill="url(#ak)" filter="url(#bt)" opacity=".23786"/><circle transform="matrix(1.9723 0 0 1.9723 137.31 -117.19)" cx="-140.38" cy="122.88" r="1.5" color="#000000" enable-background="new" fill="url(#aj)" opacity=".45146"/><path transform="translate(0 .23318)" d="m-253.15 127.53c-0.36595 0-0.65418 0.0856-0.86329 0.25586-0.20761 0.17027-0.31054 0.40348-0.31054 0.69922 0 0.25541 0.0757 0.45427 0.22656 0.59765 0.15086 0.14339 0.39486 0.2492 0.73242 0.31641l0.27539 0.0527c0.23002 0.0463 0.39602 0.11638 0.4961 0.20899 0.10156 0.0926 0.15234 0.22046 0.15234 0.38477 0 0.18819-0.0705 0.33397-0.21094 0.43554-0.1404 0.10157-0.34121 0.15235-0.59961 0.15235-0.17027 0-0.34328-0.0258-0.51953-0.0781s-0.35534-0.12936-0.53906-0.23242v0.46484c0.19119 0.0702 0.37499 0.12431 0.55273 0.16016 0.17924 0.0359 0.34754 0.0527 0.50586 0.0527 0.41972 0 0.7385-0.0827 0.95508-0.25 0.21807-0.16728 0.32813-0.41416 0.32813-0.73828 0-0.27184-0.0809-0.48712-0.24219-0.64844-0.15982-0.1628-0.40853-0.27757-0.74609-0.34179l-0.27344-0.0547c-0.24795-0.0463-0.4182-0.10696-0.50782-0.18164-0.0881-0.0762-0.13085-0.18807-0.13085-0.33594 0-0.17625 0.0663-0.31261 0.19921-0.4082 0.13443-0.0956 0.32387-0.14453 0.57032-0.14453 0.14189 0 0.28905 0.0202 0.4414 0.0605s0.31456 0.10145 0.48633 0.1836v-0.44141c-0.17027-0.0568-0.33524-0.0986-0.49805-0.12695-0.1628-0.0284-0.32363-0.043-0.48046-0.043zm6.0488 0c-0.47049 0-0.8466 0.1575-1.1289 0.47266-0.28081 0.31366-0.42188 0.73492-0.42188 1.2637s0.14107 0.95001 0.42188 1.2637c0.2823 0.31366 0.65841 0.4707 1.1289 0.4707 0.46901 0 0.8442-0.15704 1.125-0.4707 0.28081-0.31516 0.42188-0.73642 0.42188-1.2637 0-0.52875-0.14107-0.95001-0.42188-1.2637-0.2808-0.31516-0.65599-0.47266-1.125-0.47266zm17.924 0c-0.36594 0-0.65222 0.0856-0.86133 0.25586-0.20761 0.17027-0.3125 0.40348-0.3125 0.69922 0 0.25541 0.0757 0.45427 0.22657 0.59765 0.15085 0.14339 0.39486 0.2492 0.73242 0.31641l0.27539 0.0527c0.23002 0.0463 0.39602 0.11638 0.49609 0.20899 0.10157 0.0926 0.15235 0.22046 0.15235 0.38477 0 0.18819-0.0705 0.33397-0.21094 0.43554-0.1404 0.10157-0.33926 0.15235-0.59766 0.15235-0.17027 0-0.34523-0.0258-0.52148-0.0781s-0.35535-0.12936-0.53906-0.23242v0.46484c0.19118 0.0702 0.37499 0.12431 0.55273 0.16016 0.17924 0.0359 0.34949 0.0527 0.50781 0.0527 0.41972 0 0.73655-0.0827 0.95313-0.25 0.21807-0.16728 0.32812-0.41416 0.32812-0.73828 0-0.27184-0.0809-0.48712-0.24219-0.64844-0.15981-0.1628-0.40853-0.27757-0.74609-0.34179l-0.27344-0.0547c-0.24794-0.0463-0.41624-0.10696-0.50586-0.18164-0.0881-0.0762-0.13281-0.18807-0.13281-0.33594 0-0.17625 0.0663-0.31261 0.19922-0.4082 0.13443-0.0956 0.32582-0.14453 0.57227-0.14453 0.14189 0 0.28905 0.0202 0.4414 0.0605s0.31261 0.10145 0.48438 0.1836v-0.44141c-0.17028-0.0568-0.33524-0.0986-0.49805-0.12695-0.16281-0.0284-0.32364-0.043-0.48047-0.043zm21.564 0c-0.52277 0-0.93082 0.15279-1.2266 0.45898-0.29424 0.30471-0.4414 0.73068-0.4414 1.2774 0 0.54518 0.14716 0.97115 0.4414 1.2773 0.29574 0.3047 0.70379 0.45703 1.2266 0.45703 0.23899 0 0.46323-0.031 0.67383-0.0937 0.21061-0.0642 0.40337-0.15923 0.57813-0.2832v-1.4356h-1.1875v0.37305h0.74023v0.89844c-0.10007 0.0583-0.21242 0.10052-0.33789 0.1289-0.12546 0.0269-0.26791 0.041-0.42773 0.041-0.40926 0-0.71771-0.11522-0.92383-0.34375-0.20463-0.22853-0.30664-0.56845-0.30664-1.0195 0-0.45257 0.10201-0.79296 0.30664-1.0215 0.20612-0.22852 0.51457-0.34179 0.92383-0.34179 0.20761 0 0.40555 0.0357 0.59375 0.10742 0.1882 0.0717 0.36591 0.17842 0.5332 0.32031v-0.48242c-0.16579-0.10456-0.34776-0.18256-0.54492-0.23633-0.19567-0.0538-0.40302-0.082-0.6211-0.082zm-44.115 0.0606v0.38086h1.1875v2.9648h0.45508v-2.9648h1.1875v-0.38086zm6.8809 0v3.3457h0.45313v-1.3438h0.56835c0.37491 0 0.65843-0.0851 0.84961-0.25391 0.19268-0.16878 0.28907-0.41795 0.28907-0.74804 0-0.32711-0.0964-0.57536-0.28907-0.74414-0.19118-0.17028-0.4747-0.25586-0.84961-0.25586zm4.2305 0v3.3457h1.2012c0.3749 0 0.66405-0.0813 0.86719-0.24414 0.20313-0.16281 0.30469-0.39463 0.30469-0.69336 0-0.22703-0.0616-0.41555-0.18555-0.56641-0.12248-0.15235-0.29503-0.25298-0.51758-0.30078 0.18521-0.0299 0.32433-0.10362 0.41992-0.22461 0.0956-0.12098 0.14453-0.2856 0.14453-0.49023 0-0.26438-0.0945-0.46794-0.28125-0.61133-0.1867-0.14339-0.45184-0.21484-0.79687-0.21484zm3.1465 0v3.3457h0.45118v-3.3457zm1.3516 0v3.3457h0.45312v-1.6113l1.6074 1.6113h0.59571l-1.7793-1.7852 1.6602-1.5605h-0.58204l-1.502 1.4141v-1.4141zm3.0117 0v3.3457h2.1562v-0.38086h-1.7031v-1.2129h1.5918v-0.38086h-1.5918v-0.99023h1.6621v-0.38086zm5.8164 0v3.3457h0.45313v-1.5938h1.6445v1.5938h0.45117v-3.3457h-0.45117v1.3711h-1.6445v-1.3711zm3.4512 0v3.3457h2.1543v-0.38086h-1.7031v-1.2129h1.5938v-0.38086h-1.5938v-0.99023h1.6621v-0.38086zm2.9024 0v3.3457h0.92968c0.64526 0 1.1211-0.1359 1.4258-0.40625 0.3047-0.27035 0.45703-0.69299 0.45703-1.2695 0-0.57356-0.15187-0.99482-0.45508-1.2637-0.30321-0.27035-0.7795-0.40625-1.4277-0.40625zm3.5312 0v3.3457h0.92968c0.64526 0 1.1211-0.1359 1.4258-0.40625 0.30471-0.27035 0.45704-0.69299 0.45704-1.2695 0-0.57356-0.15187-0.99482-0.45508-1.2637-0.30321-0.27035-0.7795-0.40625-1.4277-0.40625zm3.5312 0v3.3457h0.45312v-3.3457zm1.3535 0v3.3457h0.43946v-2.7988l1.4824 2.7988h0.60937v-3.3457h-0.43945v2.7988l-1.4824-2.7988zm-34.58 0.30664c0.3286 0 0.58811 0.12223 0.7793 0.36718 0.19268 0.24496 0.28906 0.57926 0.28906 1.002 0 0.4212-0.0964 0.75504-0.28906 1-0.19119 0.24495-0.4507 0.36719-0.7793 0.36719s-0.58903-0.12224-0.7832-0.36719c-0.19268-0.24496-0.28906-0.5788-0.28906-1 0-0.4227 0.0964-0.757 0.28906-1.002 0.19417-0.24495 0.4546-0.36718 0.7832-0.36718zm2.707 0.0664h0.56835c0.21061 0 0.37328 0.0531 0.48829 0.16211 0.11501 0.10904 0.17382 0.2647 0.17382 0.46485 0 0.20164-0.0588 0.3558-0.17382 0.46484-0.11501 0.10904-0.27768 0.16406-0.48829 0.16406h-0.56835zm4.2305 0h0.66993c0.22105 0 0.38464 0.0414 0.49218 0.125 0.10904 0.0836 0.16407 0.21013 0.16407 0.37891 0 0.17027-0.055 0.29722-0.16407 0.38086-0.10754 0.0821-0.27113 0.12305-0.49218 0.12305h-0.66993zm19.68 0h0.54688c0.46153 0 0.79812 0.10339 1.0117 0.3125 0.21509 0.20762 0.32422 0.53629 0.32422 0.98438 0 0.45108-0.10913 0.78112-0.32422 0.99023-0.21359 0.20911-0.55018 0.3125-1.0117 0.3125h-0.54688zm3.5312 0h0.54688c0.46153 0 0.79812 0.10339 1.0117 0.3125 0.21508 0.20762 0.32226 0.53629 0.32226 0.98438 0 0.45108-0.10718 0.78112-0.32226 0.99023-0.2136 0.20911-0.55019 0.3125-1.0117 0.3125h-0.54688zm-23.211 1.375h0.72461c0.24347 0 0.42451 0.0503 0.54102 0.15039 0.118 0.0986 0.17578 0.25183 0.17578 0.46094 0 0.20762-0.0578 0.36328-0.17578 0.46485-0.11651 0.10007-0.29755 0.14843-0.54102 0.14843h-0.72461z" color="#000000" enable-background="new" fill="#fff" opacity=".47573" style="text-decoration-line:none;text-indent:0;text-transform:none" xlink:href="#ab"/><text id="ab" x="-254.62286" y="130.93718" color="#000000" enable-background="new" fill="#7f4109" font-family="RaveIn" style="line-height:0%;text-decoration-line:none;text-indent:0;text-transform:none" xml:space="preserve"><tspan x="-254.62286" y="130.93718" font-size="4.5885px" style="line-height:1.25">STOP BIKESHEDDING</tspan></text><path transform="matrix(.50014 0 0 .50014 -329.87 110.66)" d="m345.75 20c9.1272 8.6667 9.119 24.833 0 34.25" color="#000000" enable-background="new" fill="none" filter="url(#c)" opacity=".3" stroke="url(#g)"/><path transform="matrix(.50014 0 0 .50014 -329.02 110.66)" d="m345.75 20c9.1272 8.6667 9.119 24.833 0 34.25" color="#000000" enable-background="new" fill="none" filter="url(#c)" stroke="url(#f)"/><path transform="matrix(.50014 0 0 .50014 -328.27 110.66)" d="m345.75 20c9.1272 8.6667 9.119 24.833 0 34.25" color="#000000" enable-background="new" fill="none" filter="url(#c)" opacity=".3" stroke="url(#g)"/><path transform="matrix(.50014 0 0 .50014 -327.52 110.66)" d="m345.75 20c9.1272 8.6667 9.119 24.833 0 34.25" color="#000000" enable-background="new" fill="none" filter="url(#c)" stroke="url(#f)"/><path transform="matrix(.50014 0 0 .50014 -326.83 110.66)" d="m345.75 20c9.1272 8.6667 9.119 24.833 0 34.25" color="#000000" enable-background="new" fill="none" filter="url(#c)" opacity=".3" stroke="url(#g)"/><path transform="matrix(.50014 0 0 .50014 -326.08 110.66)" d="m345.75 20c9.1272 8.6667 9.119 24.833 0 34.25" color="#000000" enable-background="new" fill="none" filter="url(#c)" stroke="url(#f)"/><path transform="matrix(.50014 0 0 .50014 -325.15 110.66)" d="m345.75 20c9.1272 8.6667 9.119 24.833 0 34.25" color="#000000" enable-background="new" fill="none" filter="url(#c)" opacity=".3" stroke="url(#g)"/><path transform="matrix(.50014 0 0 .50014 -324.29 110.66)" d="m345.75 20c9.1272 8.6667 9.119 24.833 0 34.25" color="#000000" enable-background="new" fill="none" filter="url(#c)" stroke="url(#f)"/><path d="m-161.16 120.04c6.5533 5.3933 4.5479 14.841 0.0938 18.536 7.4374-5.7109 5.5953-15.157-0.0938-18.536z" color="#000000" enable-background="new" fill="url(#ai)"/></g></g><g transform="matrix(1.073 0 0 1.073 -13.579 17.393)"><path transform="matrix(1.0919 0 0 1.1411 -6.2234 -30.248)" d="m64.683 76.818h141.72l17.593 148.18h-176z" enable-background="new" filter="url(#br)" opacity=".44082"/><path transform="matrix(1.0919 0 0 1.1411 -6.2234 -30.248)" d="m64.683 76.818h141.72l17.593 148.18h-176z" enable-background="new" filter="url(#bs)" opacity=".57959"/><g transform="matrix(1.0722 0 0 1 -2.787 -10)" clip-path="url(#ce)"><rect x="48" y="230" width="176" height="4" fill="#555753"/><rect x="48" y="230" width="176" height="4" enable-background="new" fill="none" filter="url(#bq)" stroke="#2e3436" stroke-linejoin="round" stroke-width=".96572"/></g><g transform="matrix(1.0662 0 0 1.1193 -1.9669 -26.732)" clip-path="url(#cd)"><rect x="48" y="204" width="176" height="16" enable-background="new" fill="url(#bb)"/><path d="m60 60h152l12 144h-176z" enable-background="new" fill="url(#ah)"/><path d="m60 60-4.8438 58h161.69l-4.8438-58z" enable-background="new" fill="url(#ag)" opacity=".5"/><rect x="48" y="204" width="176" height="16" enable-background="new" fill="url(#ba)"/><path d="m60 60-12 144v26h176v-26l-12-144z" enable-background="new" fill="none" filter="url(#bp)" stroke="url(#az)" stroke-linejoin="round" stroke-width=".91537"/><text x="474" y="-8" color="#000000" enable-background="new" fill="#729fcf" font-family="RaveIn" opacity=".33495" stroke="#ef2929" stroke-linecap="round" stroke-width=".91537" style="line-height:0%;text-decoration-line:none;text-indent:0;text-transform:none" xml:space="preserve"><tspan x="474" y="-8" font-size="105.26px" stroke-width=".91537" style="line-height:1.25">This </tspan></text><text x="434" y="36" color="#000000" enable-background="new" fill="#2e3436" font-family="RaveIn" opacity=".33495" stroke="#ef2929" stroke-linecap="round" stroke-width=".91537" style="line-height:0%;text-decoration-line:none;text-indent:0;text-transform:none" xml:space="preserve"><tspan x="434" y="36" fill="#950000" font-size="12px" stroke="none" style="line-height:1.25"> </tspan></text></g><path transform="matrix(1.0662 0 0 1.126 -1.9669 -27.323)" d="m61.379 61.5-11.75 141h172.74l-11.752-141z" enable-background="new" fill="none" stroke="url(#ay)" stroke-linejoin="round" stroke-width=".91265"/><g transform="matrix(1.0662 0 0 1 -1.9669 0)" opacity=".1"><rect x="48" y="203.98" width="176" height="1.1049" fill="url(#b)"/><rect x="48" y="205.98" width="176" height="1.1049" enable-background="new" fill="url(#b)"/><rect x="48" y="207.98" width="176" height="1.1049" enable-background="new" fill="url(#b)"/><rect x="48" y="209.98" width="176" height="1.1049" enable-background="new" fill="url(#b)"/><rect x="48" y="211.98" width="176" height="1.1049" enable-background="new" fill="url(#b)"/><rect x="48" y="213.98" width="176" height="1.1049" enable-background="new" fill="url(#b)"/><rect x="48" y="215.98" width="176" height="1.1049" enable-background="new" fill="url(#b)"/><rect x="48" y="217.98" width="176" height="1.1049" enable-background="new" fill="url(#b)"/><rect x="48" y="202.12" width="176" height="1.1049" fill="url(#ae)"/></g><g transform="matrix(1.1553 0 0 1.3009 -13.78 -52.128)"><rect x="76.5" y="95.5" width="111.25" height="4.5" rx="2.1103" ry="1.982" enable-background="new" fill="#babdb6" fill-opacity=".25581"/><rect x="73.25" y="125.5" width="123" height="4.1764" rx="2.1103" ry="1.835" enable-background="new" fill="#babdb6" fill-opacity=".25581"/><rect x="72" y="133.5" width="123" height="4.1764" rx="2.1103" ry="1.835" enable-background="new" fill="#babdb6" fill-opacity=".25581"/><rect x="76.5" y="88.25" width="75" height="4.5" rx="2.1103" ry="1.982" enable-background="new" fill="#babdb6" fill-opacity=".25581"/><rect x="74.75" y="103" width="105" height="4.1764" rx="2.1103" ry="1.835" enable-background="new" fill="#babdb6" fill-opacity=".25581"/><rect x="74" y="110.5" width="98.75" height="4.1764" rx="2.1103" ry="1.835" enable-background="new" fill="#babdb6" fill-opacity=".25581"/><rect x="72" y="141.25" width="123" height="4.1764" rx="2.1103" ry="1.835" enable-background="new" fill="#babdb6" fill-opacity=".25581"/><rect x="71" y="148.75" width="115" height="4.1764" rx="2.1103" ry="1.835" enable-background="new" fill="#babdb6" fill-opacity=".25581"/><rect x="69.5" y="155.5" width="125.75" height="4.1764" rx="2.1103" ry="1.835" enable-background="new" fill="#babdb6" fill-opacity=".25581"/><rect x="69.5" y="170.75" width="104.25" height="4.1764" rx="2.1103" ry="1.835" enable-background="new" fill="#babdb6" fill-opacity=".25581"/><rect x="69" y="178.5" width="54.5" height="4.1764" rx="2.1103" ry="1.835" enable-background="new" fill="#b9b9b9" fill-opacity=".25581"/><g transform="translate(1,15)" enable-background="new" fill="url(#ax)" style="text-decoration-line:none;text-indent:0;text-transform:none"><path d="m75.492 73.04c-1.8372 2.5306 2.524 5.7338 1.3858 3.6722-2.6712-0.28469 0.6149-3.4644-1.3858-3.6722z"/><path d="m80.009 77.36c6.0586-3.8442-5.8818-3.4658 0 0zm0-2.484c3.7996 2.5834-3.6208 2.1044 0 0z"/><path d="m83.655 74.45c-2.7902-0.88114-1.4035 5.1342-0.39939 0.49294z"/><path d="m86.302 75.632c-2.7998 1.0647-1.2429-2.2302 0 0zm-0.81-1.236c-4.2781 0.59245 2.1707 4.7413 0.14384 2.207-2.3125-0.09938 3.9879-1.2146-0.14384-2.207z"/><path d="m88.022 74.888c-1.3766 0.14182 0.14155 4.2619 0.53234 0.331 1.6714 2.0323 0.858 1.6503 2.069-0.15595 2.1757 4.9028 1.3109-3.3438-2.6013-0.17506z"/><path d="m95.128 73.616c-1.0211-1.7285-0.9605 1.6871 0 0zm-0.666 0.828c-0.75024 5.4985 2.0604 0.50277 0 0z"/><path d="m96.402 75.5c3.7896-2.7673 0.55034 4.5616 0 0zm0 3.48c-1.0121-2.2409 5.3739-2.999 0.71723-4.7016-1.8085-0.35308-1.7395 4.7091-0.71723 4.7016z"/><path d="m99.339 75.248c2.9766 1.4836-1.7261 2.204 1.7212 1.8417-1.0241-2.1452-0.0395-1.7386-0.0866-2.5305-0.59831-0.3408-1.6289-0.18586-1.6346 0.68885z"/><path d="m104.02 76.844c1.4616-0.10148-0.16117-4.3357-0.4737-0.24104-1.3176-1.1239-1.7984-3.048-1.3442 0.30721 0.42598 0.574 1.4592 0.62914 1.8179-0.06617z"/><path d="m105.82 74.888c-1.3767 0.14179 0.14147 4.2619 0.53234 0.331 1.6714 2.0323 0.858 1.6502 2.069-0.15595 2.1757 4.9028 1.3109-3.3438-2.6013-0.17506z"/><path d="m114.54 75.518c-3.5325-2.7555-0.60015 4.2503 0 0zm0.06 1.77c-5.1656 0.70016 1.6218-7.4434 0.54811-2.1609-0.34455 0.40539 0.55445 2.6139-0.54811 2.1609z"/><path d="m117.08 77.36c6.0586-3.8442-5.8818-3.4658 0 0zm0-2.484c3.7996 2.5834-3.6208 2.1044 0 0z"/><path d="m119.12 72.752c-0.40429 2.474 0.79306 6.4133 0.5854 1.7443 0.0119-0.37744 0.24441-1.7224-0.5854-1.7443z"/><path d="m121.92 77.36c6.0586-3.8442-5.8818-3.4658 0 0zm0-2.484c3.7996 2.5834-3.6208 2.1044 0 0z"/><path d="m125.56 74.45c-2.7902-0.88114-1.4034 5.1342-0.39939 0.49294z"/><path d="m127.9 75.248c2.9766 1.4836-1.7261 2.204 1.7212 1.8417-1.0241-2.1452-0.0395-1.7386-0.0866-2.5305-0.59831-0.3408-1.6289-0.18586-1.6346 0.68885z"/><path d="m131.3 73.616c-1.0211-1.7285-0.96049 1.6871 0 0zm-0.666 0.828c-0.75024 5.4985 2.0604 0.50278 0 0z"/><path d="m133.58 77.264c-0.89906-0.94731-0.71409-5.5159-1.5218-1.726-0.0527 0.83712 0.28771 2.3417 1.5218 1.726z"/><path d="m137.14 76.928c-2.0688-1.5981 2.8275-0.75946 0 0zm0.846 0.15c2.614-1.451-3.6573-3.8545-0.21574-1.8728-1.4888 0.85825-2.8327 2.5642 0.21574 1.8728z"/><path d="m139.58 74.888c-1.3767 0.14179 0.14147 4.2619 0.53234 0.331 1.6714 2.0323 0.858 1.6502 2.069-0.15595 2.1757 4.9028 1.3109-3.3438-2.6013-0.17506z"/><path d="m146.17 75.632c-2.7998 1.0647-1.2429-2.2302 0 0zm-0.81-1.236c-4.278 0.59245 2.1707 4.7413 0.14384 2.207-2.3125-0.09938 3.9879-1.2146-0.14384-2.207z"/><path d="m148.93 77.264c-0.89906-0.94731-0.71409-5.5159-1.5218-1.726-0.0527 0.83712 0.28771 2.3417 1.5218 1.726z"/><path d="m149.93 78.08c1.7719-2.3177-1.2487-1.3232 0 0z"/><path d="m74.639 83.378c0.92705 2.317 3.4227 0.92179 0.62424-0.03936 3.339-1.4634-0.18869-2.3571-0.62424 0.03936z"/><path d="m79.081 84.86c6.0586-3.8442-5.8818-3.4658 0 0zm0-2.484c3.7996 2.5834-3.6208 2.1044 0 0z"/><path d="m81.61 82.382c-1.4614 0.10093 0.1607 4.3357 0.47382 0.24189 1.3171 1.1244 1.7994 3.0456 1.3432-0.30742-0.42542-0.57363-1.4589-0.63086-1.817 0.06553z"/><path d="m84.231 82.748c2.9765 1.4836-1.7261 2.204 1.7212 1.8417-1.0241-2.1452-0.03947-1.7386-0.08658-2.5305-0.59831-0.3408-1.6289-0.18586-1.6346 0.68885z"/><path d="m89.041 83.132c-2.7998 1.0647-1.2429-2.2302 0 0zm-0.81-1.236c-4.2781 0.59245 2.1707 4.7413 0.14384 2.207-2.3125-0.09938 3.9879-1.2146-0.14384-2.207z"/><path d="m90.12 83.378c0.92705 2.317 3.4227 0.92179 0.62424-0.03936 3.339-1.4634-0.18869-2.3571-0.62424 0.03936z"/><path d="m94.729 84.764c-0.89905-0.94732-0.71409-5.5159-1.5218-1.726-0.05271 0.83712 0.28771 2.3417 1.5218 1.726z"/><path d="m97.467 83.132c-2.7998 1.0647-1.2429-2.2302 0 0zm-0.81-1.236c-4.2781 0.59245 2.1707 4.7413 0.14384 2.207-2.3125-0.09938 3.9879-1.2146-0.14384-2.207z"/><path d="m100.23 84.764c-0.89906-0.94731-0.71409-5.5159-1.5218-1.726-0.05271 0.83712 0.28771 2.3417 1.5218 1.726z"/><path d="m102.83 84.344c1.4616-0.10148-0.16117-4.3357-0.4737-0.24104-1.3176-1.1239-1.7984-3.048-1.3442 0.30721 0.42598 0.574 1.4592 0.62914 1.8179-0.06617z"/><path d="m106.24 83.132c-2.7998 1.0647-1.2429-2.2302 0 0zm-0.81-1.236c-4.278 0.59245 2.1707 4.7413 0.14384 2.207-2.3125-0.09938 3.9879-1.2146-0.14384-2.207z"/><path d="m109.12 81.95c-2.7902-0.88114-1.4034 5.1342-0.39939 0.49294z"/><path d="m112.59 84.428c-2.0688-1.5981 2.8275-0.75946 0 0zm0.846 0.15c2.614-1.451-3.6573-3.8545-0.21574-1.8728-1.4888 0.85825-2.8327 2.5642 0.21574 1.8728z"/><path d="m116.84 83.018c-3.5325-2.7555-0.60015 4.2503 0 0zm0.06 1.77c-5.1656 0.70017 1.6218-7.4434 0.54811-2.1609-0.34455 0.40539 0.55445 2.6139-0.54811 2.1609z"/><path d="m118.72 81.116c-1.0211-1.7285-0.96049 1.6871 0 0zm-0.666 0.828c-0.75024 5.4985 2.0604 0.50278 0 0z"/><path d="m119.99 83c3.7896-2.7673 0.55034 4.5616 0 0zm0 3.48c-1.0121-2.2409 5.3739-2.999 0.71723-4.7016-1.8085-0.35309-1.7395 4.7091-0.71723 4.7016z"/><path d="m123.75 81.116c-1.0211-1.7285-0.96049 1.6871 0 0zm-0.666 0.828c-0.75024 5.4985 2.0604 0.50278 0 0z"/><path d="m124.37 82.748c2.9766 1.4836-1.7261 2.204 1.7212 1.8417-1.0241-2.1452-0.0395-1.7386-0.0866-2.5305-0.59831-0.3408-1.6289-0.18586-1.6346 0.68885z"/><path d="m126.93 83.378c0.92705 2.317 3.4227 0.92179 0.62424-0.03936 3.3392-1.4635-0.18893-2.357-0.62424 0.03936z"/><path d="m130.7 81.116c-1.0211-1.7285-0.96049 1.6871 0 0zm-0.666 0.828c-0.75024 5.4985 2.0604 0.50278 0 0z"/><path d="m131.98 82.382c-1.4614 0.10093 0.16069 4.3357 0.47382 0.24189 1.3171 1.1245 1.7994 3.0456 1.3432-0.30742-0.42541-0.57363-1.4589-0.63086-1.817 0.06553z"/><path d="m135.87 82.292c2.6498 1.3961-2.5563 1.3658 0 0zm0 2.502c3.0383 0.85596-2.836 1.4262 0 0zm1.008-2.544c-2.5707-2.7901-3.165 7.786 0.3554 2.4858-4.8807-1.0897 1.467-0.19438-0.3554-2.4858z"/><path d="m141.99 83.132c-2.7998 1.0647-1.2429-2.2302 0 0zm-0.81-1.236c-4.278 0.59245 2.1707 4.7413 0.14384 2.207-2.3125-0.09938 3.9879-1.2146-0.14384-2.207z"/><path d="m143.26 80.252c-0.40429 2.474 0.79306 6.4133 0.5854 1.7443 0.0119-0.37744 0.24441-1.7224-0.5854-1.7443z"/><path d="m145.39 81.116c-1.0211-1.7285-0.96049 1.6871 0 0zm-0.666 0.828c-0.75024 5.4985 2.0604 0.50278 0 0z"/><path d="m147.66 84.764c-0.89906-0.94731-0.71409-5.5159-1.5218-1.726-0.0527 0.83712 0.28771 2.3417 1.5218 1.726z"/><path d="m149.11 84.428c-1.0211-1.7285-0.96049 1.6871 0 0z"/><path d="m154.26 81.728c-2.3001 3.1712-2.2852-3.1022 0 0zm0.612 0c-3.0787-5.0698-4.0022 6.2592-1.6292 0.95255 0.67838-0.71258 1.6478 0.43773 1.6292-0.95255z"/><path d="m157.57 83.132c-2.7998 1.0647-1.2429-2.2302 0 0zm-0.81-1.236c-4.278 0.59245 2.1707 4.7413 0.14384 2.207-2.3125-0.09938 3.9879-1.2146-0.14384-2.207z"/><path d="m158.84 80.252c-0.40429 2.474 0.79306 6.4133 0.5854 1.7443 0.0119-0.37744 0.24441-1.7224-0.5854-1.7443z"/><path d="m160.32 80.252c-0.40429 2.474 0.79306 6.4133 0.5854 1.7443 0.0119-0.37744 0.24441-1.7224-0.5854-1.7443z"/><path d="m163.85 83.132c-2.7998 1.0647-1.2429-2.2302 0 0zm-0.81-1.236c-4.278 0.59245 2.1707 4.7413 0.14384 2.207-2.3125-0.09938 3.9879-1.2146-0.14384-2.207z"/><path d="m165.61 82.382c-1.4614 0.10093 0.16069 4.3357 0.47382 0.24189 1.3171 1.1245 1.7994 3.0456 1.3432-0.30742-0.42541-0.57363-1.4589-0.63086-1.817 0.06553z"/><path d="m169.89 84.764c-0.89906-0.94731-0.71409-5.5159-1.5218-1.726-0.0527 0.83712 0.28771 2.3417 1.5218 1.726z"/><path d="m172.63 83.132c-2.7998 1.0647-1.2429-2.2302 0 0zm-0.81-1.236c-4.278 0.59245 2.1707 4.7413 0.14384 2.207-2.3125-0.09938 3.9879-1.2146-0.14384-2.207z"/><path d="m173.73 82.748c2.9766 1.4836-1.7261 2.204 1.7212 1.8417-1.0241-2.1452-0.0395-1.7386-0.0866-2.5305-0.59831-0.3408-1.6289-0.18586-1.6346 0.68885z"/><path d="m178.73 82.952c-3.784-2.4388-0.21063 4.2452 0 0zm0 3.192c0.47459-1.9635-5.2242-2.7853-0.71899-4.3656 1.6764-0.42133 1.8857 4.5017 0.71899 4.3656z"/><path d="m182 84.344c1.4616-0.10148-0.16117-4.3357-0.4737-0.24104-1.3176-1.1239-1.7984-3.048-1.3442 0.30721 0.42598 0.574 1.4592 0.62914 1.8179-0.06617z"/><path d="m185.42 83.132c-2.7998 1.0647-1.2429-2.2302 0 0zm-0.81-1.236c-4.278 0.59245 2.1707 4.7413 0.14384 2.207-2.3125-0.09938 3.9879-1.2146-0.14384-2.207z"/><path d="m73.858 89.444c-0.14931 2.9504 3.3643 3.0445 2.4014 0.23448-1.8912 4.1018-0.40504-0.30672-2.4014-0.23448z"/><path d="m77.791 88.616c-1.0211-1.7285-0.9605 1.6871 0 0zm-0.666 0.828c-0.75024 5.4985 2.0604 0.50277 0 0z"/><path d="m78.182 89.444c-0.14931 2.9504 3.3643 3.0445 2.4014 0.23448-1.8912 4.1018-0.40504-0.30672-2.4014-0.23448z"/><path d="m83.519 90.632c-2.7998 1.0647-1.2429-2.2302 0 0zm-0.81-1.236c-4.2781 0.59245 2.1707 4.7413 0.14384 2.207-2.3125-0.09938 3.9879-1.2146-0.14384-2.207z"/><path d="m86.391 89.45c-2.7902-0.88114-1.4035 5.1342-0.39939 0.49294z"/><path d="m88.583 89.45c-2.7902-0.88114-1.4035 5.1342-0.39939 0.49294z"/><path d="m90.132 91.928c-2.0688-1.5981 2.8275-0.75946 0 0zm0.846 0.15c2.614-1.451-3.6573-3.8545-0.21574-1.8728-1.4889 0.85825-2.8327 2.5642 0.21574 1.8728z"/><path d="m96.309 90.518c-3.5325-2.7555-0.60015 4.2503 0 0zm0.06 1.77c-5.1656 0.70016 1.6218-7.4434 0.54812-2.1609-0.34457 0.4054 0.55447 2.6139-0.54812 2.1609z"/><path d="m98.848 92.36c6.0586-3.8442-5.8818-3.4658 0 0zm0-2.484c3.7996 2.5834-3.6208 2.1044 0 0z"/><path d="m100.89 87.752c-0.40429 2.474 0.79306 6.4133 0.5854 1.7443 0.0119-0.37744 0.24441-1.7224-0.5854-1.7443z"/><path d="m103.69 92.36c6.0586-3.8442-5.8818-3.4658 0 0zm0-2.484c3.7996 2.5834-3.6208 2.1044 0 0z"/><path d="m107.33 89.45c-2.7902-0.88114-1.4034 5.1342-0.39939 0.49294z"/><path d="m110.33 89.882c-1.4614 0.10093 0.16069 4.3357 0.47382 0.24189 1.3171 1.1245 1.7994 3.0456 1.3432-0.30742-0.42541-0.57363-1.4589-0.63086-1.817 0.06553z"/><path d="m114.45 92.36c6.0586-3.8442-5.8818-3.4658 0 0zm0-2.484c3.7996 2.5834-3.6208 2.1044 0 0z"/><path d="m116.97 89.882c-1.4614 0.10093 0.16069 4.3357 0.47382 0.24189 1.3171 1.1245 1.7994 3.0456 1.3432-0.30742-0.42541-0.57363-1.4589-0.63086-1.817 0.06553z"/><path d="m122.18 89.882c-1.4614 0.10093 0.16069 4.3357 0.47382 0.24189 1.3171 1.1245 1.7994 3.0456 1.3432-0.30742-0.42541-0.57363-1.4589-0.63086-1.817 0.06553z"/><path d="m126.9 91.844c1.4616-0.10148-0.16117-4.3357-0.4737-0.24104-1.3176-1.1239-1.7984-3.048-1.3442 0.30721 0.42598 0.574 1.4592 0.62914 1.8179-0.06617z"/><path d="m128.74 89.882c-1.4614 0.10093 0.16069 4.3357 0.47382 0.24189 1.3171 1.1245 1.7994 3.0456 1.3432-0.30742-0.42541-0.57363-1.4589-0.63086-1.817 0.06553z"/><path d="m131.34 90.878c0.92705 2.317 3.4227 0.92179 0.62424-0.03936 3.3392-1.4635-0.18893-2.357-0.62424 0.03936z"/><path d="m135.23 91.928c-1.0211-1.7285-0.96049 1.6871 0 0z"/><path d="m138.09 88.04c-0.35587 3.0968 0.15913 5.4155 0.75019 1.3181 0.9519 4.639 2.4194 1.1846 3.1346 0.0738-0.2116 4.7159 1.8104 0.41285 0.11749-1.2655-1.745 2.4455-1.9822 3.7778-3.1362 0.03067l-0.3921-0.27691-0.474 0.11986z"/><path d="m144.46 91.928c-2.0688-1.5981 2.8275-0.75946 0 0zm0.846 0.15c2.614-1.451-3.6573-3.8545-0.21574-1.8728-1.4888 0.85825-2.8327 2.5642 0.21574 1.8728z"/><path d="m148.38 91.844c1.4616-0.10148-0.16117-4.3357-0.4737-0.24104-1.3176-1.1239-1.7984-3.048-1.3442 0.30721 0.42598 0.574 1.4592 0.62914 1.8179-0.06617z"/><path d="m151.34 89.45c-2.7902-0.88114-1.4034 5.1342-0.39939 0.49294z"/><path d="m152.58 88.616c-1.0211-1.7285-0.9605 1.6871 0 0zm-0.666 0.828c-0.75024 5.4985 2.0604 0.50278 0 0z"/><path d="m153.19 90.248c2.9766 1.4836-1.7261 2.204 1.7212 1.8417-1.0241-2.1452-0.0395-1.7386-0.0866-2.5305-0.59831-0.3408-1.6289-0.18586-1.6346 0.68885z"/><path d="m159.93 90.632c-2.7998 1.0647-1.2429-2.2302 0 0zm-0.81-1.236c-4.278 0.59245 2.1707 4.7413 0.14384 2.207-2.3125-0.09938 3.9879-1.2146-0.14384-2.207z"/><path d="m162.68 92.264c-0.89906-0.94731-0.71409-5.5159-1.5218-1.726-0.0527 0.83712 0.28771 2.3417 1.5218 1.726z"/><path d="m165.77 90.5c3.7896-2.7673 0.55034 4.5616 0 0zm0 3.48c-1.0121-2.2409 5.3739-2.999 0.71723-4.7016-1.8085-0.35309-1.7395 4.7091-0.71723 4.7016z"/><path d="m170.94 90.632c-2.7998 1.0647-1.2429-2.2302 0 0zm-0.81-1.236c-4.278 0.59245 2.1707 4.7413 0.14384 2.207-2.3125-0.09938 3.9879-1.2146-0.14384-2.207z"/><path d="m174.47 90.518c-3.5325-2.7555-0.60015 4.2503 0 0zm0.06 1.77c-5.1656 0.70017 1.6218-7.4434 0.54811-2.1609-0.34455 0.40539 0.55445 2.6139-0.54811 2.1609z"/><path d="m177.75 90.632c-2.7998 1.0647-1.2429-2.2302 0 0zm-0.81-1.236c-4.278 0.59245 2.1707 4.7413 0.14384 2.207-2.3125-0.09938 3.9879-1.2146-0.14384-2.207z"/><path d="m179.79 91.928c-1.0211-1.7285-0.9605 1.6871 0 0z"/><path d="m76.005 96.728c-2.3001 3.1712-2.2852-3.1022 0 0zm0.612 0c-3.0787-5.0698-4.0022 6.2592-1.6292 0.95255 0.67837-0.71258 1.6479 0.43772 1.6292-0.95255z"/><path d="m79.321 98.132c-2.7998 1.0647-1.2429-2.2302 0 0zm-0.81-1.236c-4.2781 0.59246 2.1707 4.7413 0.14384 2.207-2.3125-0.09938 3.9879-1.2146-0.14384-2.207z"/><path d="m80.591 95.252c-0.40428 2.474 0.79306 6.4133 0.5854 1.7443 0.01187-0.37744 0.2444-1.7224-0.5854-1.7443z"/><path d="m82.068 95.252c-0.40428 2.474 0.79306 6.4133 0.5854 1.7443 0.01187-0.37744 0.2444-1.7224-0.5854-1.7443z"/><path d="m85.602 98.132c-2.7998 1.0647-1.2429-2.2302 0 0zm-0.81-1.236c-4.2781 0.59246 2.1707 4.7413 0.14384 2.207-2.3125-0.09938 3.9879-1.2146-0.14384-2.207z"/><path d="m87.359 97.382c-1.4614 0.10094 0.1607 4.3357 0.47382 0.24189 1.3171 1.1245 1.7994 3.0456 1.3432-0.30742-0.42542-0.57363-1.4589-0.63086-1.817 0.06553z"/><path d="m91.642 99.764c-0.89905-0.94732-0.71409-5.5159-1.5218-1.726-0.05271 0.83712 0.28771 2.3417 1.5218 1.726z"/><path d="m94.38 98.132c-2.7998 1.0647-1.2429-2.2302 0 0zm-0.81-1.236c-4.2781 0.59246 2.1707 4.7413 0.14384 2.207-2.3125-0.09938 3.9879-1.2146-0.14384-2.207z"/><path d="m95.476 97.748c2.9765 1.4836-1.7261 2.204 1.7212 1.8417-1.0241-2.1452-0.03947-1.7386-0.08658-2.5305-0.59831-0.3408-1.6289-0.18586-1.6346 0.68885z"/><path d="m100.48 97.952c-3.784-2.4388-0.21062 4.2452 0 0zm0 3.192c0.47459-1.9635-5.2242-2.7853-0.71899-4.3656 1.6764-0.42133 1.8857 4.5018 0.71899 4.3656z"/><path d="m103.75 99.344c1.4616-0.10148-0.16117-4.3357-0.4737-0.24104-1.3176-1.1239-1.7984-3.048-1.3442 0.30721 0.42598 0.574 1.4592 0.62915 1.8179-0.06617z"/><path d="m107.16 98.132c-2.7998 1.0647-1.2429-2.2302 0 0zm-0.81-1.236c-4.278 0.59246 2.1707 4.7413 0.14384 2.207-2.3125-0.09938 3.9879-1.2146-0.14384-2.207z"/><path d="m109.96 96.944c-0.14932 2.9504 3.3643 3.0445 2.4014 0.23448-1.8913 4.102-0.40497-0.30705-2.4014-0.23448z"/><path d="m113.89 96.116c-1.0211-1.7285-0.96049 1.6871 0 0zm-0.666 0.828c-0.75024 5.4985 2.0604 0.50278 0 0z"/><path d="m114.29 96.944c-0.14932 2.9504 3.3643 3.0445 2.4014 0.23448-1.8913 4.102-0.40497-0.30705-2.4014-0.23448z"/><path d="m119.62 98.132c-2.7998 1.0647-1.2429-2.2302 0 0zm-0.81-1.236c-4.278 0.59246 2.1707 4.7413 0.14384 2.207-2.3125-0.09938 3.9879-1.2146-0.14384-2.207z"/><path d="m122.49 96.95c-2.7902-0.88114-1.4034 5.1342-0.39939 0.49294z"/><path d="m124.69 96.95c-2.7902-0.88114-1.4034 5.1342-0.39939 0.49294z"/><path d="m126.23 99.428c-2.0688-1.5981 2.8275-0.75946 0 0zm0.846 0.15c2.614-1.451-3.6573-3.8545-0.21574-1.8728-1.4888 0.85825-2.8327 2.5642 0.21574 1.8728z"/><path d="m132.41 98.018c-3.5325-2.7555-0.60015 4.2503 0 0zm0.06 1.77c-5.1656 0.70017 1.6218-7.4434 0.54811-2.1609-0.34455 0.40539 0.55445 2.6139-0.54811 2.1609z"/><path d="m134.95 99.86c6.0586-3.8442-5.8818-3.4658 0 0zm0-2.484c3.7996 2.5834-3.6208 2.1044 0 0z"/><path d="m136.99 95.252c-0.40429 2.474 0.79306 6.4133 0.5854 1.7443 0.0119-0.37744 0.24441-1.7224-0.5854-1.7443z"/><path d="m139.79 99.86c6.0586-3.8442-5.8818-3.4658 0 0zm0-2.484c3.7996 2.5834-3.6208 2.1044 0 0z"/><path d="m143.44 96.95c-2.7902-0.88114-1.4034 5.1342-0.39939 0.49294z"/><path d="m146.43 97.382c-1.4614 0.10094 0.16069 4.3357 0.47382 0.24189 1.3171 1.1245 1.7994 3.0456 1.3432-0.30742-0.42541-0.57363-1.4589-0.63086-1.817 0.06553z"/><path d="m150.55 99.86c6.0586-3.8442-5.8818-3.4658 0 0zm0-2.484c3.7996 2.5834-3.6208 2.1044 0 0z"/><path d="m153.08 97.382c-1.4614 0.10093 0.16069 4.3357 0.47382 0.24189 1.3171 1.1245 1.7994 3.0456 1.3432-0.30742-0.42541-0.57363-1.4589-0.63086-1.817 0.06553z"/><path d="m158.28 97.382c-1.4614 0.10094 0.16069 4.3357 0.47382 0.24189 1.3171 1.1245 1.7994 3.0456 1.3432-0.30742-0.42541-0.57363-1.4589-0.63086-1.817 0.06553z"/><path d="m163 99.344c1.4616-0.10148-0.16117-4.3357-0.4737-0.24104-1.3176-1.1239-1.7984-3.048-1.3442 0.30721 0.42598 0.574 1.4592 0.62915 1.8179-0.06617z"/><path d="m164.84 97.382c-1.4614 0.10094 0.16069 4.3357 0.47382 0.24189 1.3171 1.1245 1.7994 3.0456 1.3432-0.30742-0.42541-0.57363-1.4589-0.63086-1.817 0.06553z"/><path d="m167.45 98.378c0.92704 2.317 3.4227 0.92179 0.62424-0.03936 3.3392-1.4635-0.18893-2.357-0.62424 0.03936z"/><path d="m171.34 99.428c-1.0211-1.7285-0.96049 1.6871 0 0z"/><path d="m74.851 111.73c-2.3001 3.1712-2.2852-3.1022 0 0zm0.612 0c-3.0787-5.0698-4.0022 6.2592-1.6292 0.95255 0.67837-0.71258 1.6479 0.43773 1.6292-0.95255z"/><path d="m78.167 113.13c-2.7998 1.0647-1.2429-2.2302 0 0zm-0.81-1.236c-4.2781 0.59245 2.1707 4.7413 0.14384 2.207-2.3125-0.0994 3.9879-1.2146-0.14384-2.207z"/><path d="m79.437 110.25c-0.40428 2.474 0.79306 6.4133 0.5854 1.7443 0.01187-0.37745 0.2444-1.7224-0.5854-1.7443z"/><path d="m80.914 110.25c-0.40428 2.474 0.79306 6.4133 0.5854 1.7443 0.01187-0.37745 0.2444-1.7224-0.5854-1.7443z"/><path d="m84.449 113.13c-2.7998 1.0647-1.2429-2.2302 0 0zm-0.81-1.236c-4.2781 0.59245 2.1707 4.7413 0.14384 2.207-2.3125-0.0994 3.9879-1.2146-0.14384-2.207z"/><path d="m86.205 112.38c-1.4614 0.10093 0.1607 4.3357 0.47382 0.24189 1.3171 1.1244 1.7994 3.0456 1.3432-0.30743-0.42542-0.57363-1.4589-0.63085-1.817 0.0655z"/><path d="m90.488 114.76c-0.89905-0.94731-0.71409-5.5159-1.5218-1.726-0.05271 0.83712 0.28771 2.3417 1.5218 1.726z"/><path d="m93.226 113.13c-2.7997 1.0647-1.2429-2.2302 0 0zm-0.81-1.236c-4.2781 0.59245 2.1707 4.7413 0.14384 2.207-2.3125-0.0994 3.9879-1.2146-0.14384-2.207z"/><path d="m94.322 112.75c2.9765 1.4836-1.7261 2.204 1.7212 1.8417-1.0241-2.1452-0.03947-1.7386-0.08658-2.5305-0.59831-0.3408-1.6289-0.18586-1.6346 0.68884z"/><path d="m99.324 112.95c-3.784-2.4388-0.21063 4.2452 0 0zm0 3.192c0.47458-1.9635-5.2242-2.7853-0.71899-4.3656 1.6764-0.42133 1.8857 4.5018 0.71899 4.3656z"/><path d="m102.6 114.34c1.4616-0.10147-0.16117-4.3357-0.4737-0.24104-1.3176-1.1239-1.7984-3.048-1.3442 0.30721 0.42598 0.574 1.4592 0.62914 1.8179-0.0662z"/><path d="m106.01 113.13c-2.7998 1.0647-1.2429-2.2302 0 0zm-0.81-1.236c-4.278 0.59245 2.1707 4.7413 0.14384 2.207-2.3125-0.0994 3.9879-1.2146-0.14384-2.207z"/><path d="m109.03 112.75c2.9766 1.4836-1.7261 2.204 1.7212 1.8417-1.0241-2.1452-0.0395-1.7386-0.0866-2.5305-0.59831-0.3408-1.6289-0.18586-1.6346 0.68884z"/><path d="m113.71 114.34c1.4616-0.10147-0.16117-4.3357-0.4737-0.24104-1.3176-1.1239-1.7984-3.048-1.3442 0.30721 0.42598 0.574 1.4592 0.62914 1.8179-0.0662z"/><path d="m114.89 112.75c2.9766 1.4836-1.7261 2.204 1.7212 1.8417-1.0241-2.1452-0.0395-1.7386-0.0866-2.5305-0.59831-0.3408-1.6289-0.18586-1.6346 0.68884z"/><path d="m117.45 113.38c0.92705 2.317 3.4227 0.92179 0.62424-0.0394 3.3392-1.4635-0.18893-2.357-0.62424 0.0394z"/><path d="m121.22 111.12c-1.0211-1.7285-0.96049 1.6871 0 0zm-0.666 0.828c-0.75024 5.4985 2.0604 0.50278 0 0z"/><path d="m122.5 113c3.7896-2.7673 0.55034 4.5616 0 0zm0 3.48c-1.0121-2.2409 5.3739-2.999 0.71723-4.7016-1.8085-0.35309-1.7395 4.7092-0.71723 4.7016z"/><path d="m126.26 111.12c-1.0211-1.7285-0.96049 1.6871 0 0zm-0.666 0.828c-0.75024 5.4985 2.0604 0.50278 0 0z"/><path d="m128.54 114.76c-0.89906-0.94731-0.71409-5.5159-1.5218-1.726-0.0527 0.83712 0.28771 2.3417 1.5218 1.726z"/><path d="m132.1 114.43c-2.0688-1.5981 2.8275-0.75946 0 0zm0.846 0.15c2.614-1.4511-3.6573-3.8545-0.21574-1.8728-1.4888 0.85825-2.8327 2.5642 0.21574 1.8728z"/><path d="m133.9 113.38c0.92705 2.317 3.4227 0.92179 0.62424-0.0394 3.3392-1.4635-0.18893-2.357-0.62424 0.0394z"/><path d="m136.83 113.38c0.92705 2.317 3.4227 0.92179 0.62424-0.0394 3.3392-1.4635-0.18893-2.357-0.62424 0.0394z"/><path d="m141.88 114.34c1.4616-0.10147-0.16117-4.3357-0.4737-0.24104-1.3176-1.1239-1.7984-3.048-1.3442 0.30721 0.42598 0.574 1.4592 0.62914 1.8179-0.0662z"/><path d="m143.68 112.39c-1.3767 0.14179 0.14147 4.2619 0.53234 0.331 1.6714 2.0323 0.858 1.6502 2.069-0.15594 2.1757 4.9028 1.3109-3.3438-2.6013-0.17506z"/><path d="m148.04 112.75c2.9766 1.4836-1.7261 2.204 1.7212 1.8417-1.0241-2.1452-0.0395-1.7386-0.0866-2.5305-0.59831-0.3408-1.6289-0.18586-1.6346 0.68884z"/><path d="m151.75 114.43c-2.0688-1.5981 2.8275-0.75945 0 0zm0.846 0.15c2.614-1.4511-3.6573-3.8545-0.21574-1.8728-1.4888 0.85825-2.8327 2.5642 0.21574 1.8728z"/><path d="m154.23 112.38c-1.4614 0.10092 0.16069 4.3357 0.47382 0.24189 1.3171 1.1244 1.7994 3.0456 1.3432-0.30743-0.42541-0.57363-1.4589-0.63085-1.817 0.0655z"/><path d="m159.4 112.39c-1.3767 0.14179 0.14147 4.2619 0.53234 0.331 1.6714 2.0323 0.858 1.6502 2.069-0.15594 2.1757 4.9028 1.3109-3.3438-2.6013-0.17506z"/><path d="m164.89 114.43c-2.0688-1.5981 2.8275-0.75946 0 0zm0.846 0.15c2.614-1.4511-3.6573-3.8545-0.21574-1.8728-1.4888 0.85825-2.8327 2.5642 0.21574 1.8728z"/><path d="m166.71 112.75c2.9766 1.4836-1.7261 2.204 1.7212 1.8417-1.0241-2.1452-0.0395-1.7386-0.0866-2.5305-0.59831-0.3408-1.6289-0.18586-1.6346 0.68884z"/><path d="m169.29 112.75c2.9766 1.4836-1.7261 2.204 1.7212 1.8417-1.0241-2.1452-0.0395-1.7386-0.0866-2.5305-0.59831-0.3408-1.6289-0.18586-1.6346 0.68884z"/><path d="m173 114.43c-2.0688-1.5981 2.8275-0.75946 0 0zm0.846 0.15c2.614-1.4511-3.6573-3.8545-0.21574-1.8728-1.4888 0.85825-2.8327 2.5642 0.21574 1.8728z"/><path d="m175.76 114.43c-1.0211-1.7285-0.96049 1.6871 0 0z"/><path d="m181.67 112.66c-2.0523 5.2814-4.1577-4.3515-0.13863-0.6974zm0.612 0c-5.3079-8.1791-5.0293 8.3737 0 0z"/><path d="m184.19 114.86c6.0586-3.8442-5.8818-3.4658 0 0zm0-2.484c3.7996 2.5834-3.6208 2.1044 0 0z"/><path d="m186.72 112.38c-1.4614 0.10093 0.16069 4.3357 0.47382 0.24189 1.3171 1.1244 1.7994 3.0456 1.3432-0.30743-0.42541-0.57363-1.4589-0.63084-1.817 0.0655z"/><path d="m191.57 113.13c-2.7998 1.0647-1.2428-2.2302 0 0zm-0.81-1.236c-4.278 0.59245 2.1707 4.7413 0.14384 2.207-2.3125-0.0994 3.9879-1.2146-0.14384-2.207z"/><path d="m192.65 113.38c0.92705 2.317 3.4227 0.92179 0.62424-0.0394 3.3392-1.4635-0.18893-2.357-0.62424 0.0394z"/><path d="m73.872 121.84c1.4616-0.10147-0.16118-4.3357-0.4737-0.24104-1.3176-1.1239-1.7984-3.048-1.3442 0.30721 0.42598 0.57401 1.4592 0.62914 1.8179-0.0662z"/><path d="m76.716 122.26c-0.89905-0.94731-0.71409-5.5159-1.5218-1.726-0.05271 0.83712 0.28771 2.3417 1.5218 1.726z"/><path d="m79.804 120.5c3.7896-2.7673 0.55034 4.5616 0 0zm0 3.48c-1.0121-2.2409 5.3739-2.999 0.71723-4.7016-1.8085-0.35308-1.7395 4.7091-0.71723 4.7016z"/><path d="m84.841 121.84c1.4616-0.10147-0.16118-4.3357-0.4737-0.24104-1.3176-1.1239-1.7984-3.048-1.3442 0.30721 0.42598 0.57401 1.4592 0.62914 1.8179-0.0662z"/><path d="m87.798 119.45c-2.7902-0.88114-1.4035 5.1342-0.39939 0.49294z"/><path d="m90.314 121.84c1.4616-0.10147-0.16118-4.3357-0.4737-0.24104-1.3176-1.1239-1.7984-3.048-1.3442 0.30721 0.42598 0.57401 1.4592 0.62914 1.8179-0.0662z"/><path d="m91.495 120.25c2.9765 1.4836-1.7261 2.204 1.7212 1.8417-1.0241-2.1452-0.03947-1.7386-0.08658-2.5305-0.59831-0.3408-1.6289-0.18586-1.6346 0.68884z"/><path d="m95.015 121.93c-1.0211-1.7285-0.9605 1.6871 0 0z"/><path d="m100.92 120.16c-2.0523 5.2814-4.1577-4.3515-0.13864-0.6974zm0.612 0c-5.3079-8.1791-5.0293 8.3737 0 0z"/><path d="m103.44 122.36c6.0586-3.8442-5.8818-3.4658 0 0zm0-2.484c3.7996 2.5834-3.6208 2.1044 0 0z"/><path d="m105.97 119.88c-1.4614 0.10092 0.16069 4.3357 0.47382 0.24189 1.3171 1.1244 1.7994 3.0456 1.3432-0.30743-0.42541-0.57363-1.4589-0.63085-1.817 0.0655z"/><path d="m110.82 120.63c-2.7998 1.0647-1.2429-2.2302 0 0zm-0.81-1.236c-4.278 0.59245 2.1707 4.7413 0.14384 2.207-2.3125-0.0994 3.9879-1.2146-0.14384-2.207z"/><path d="m111.9 120.88c0.92705 2.317 3.4227 0.92179 0.62424-0.0394 3.3392-1.4635-0.18893-2.357-0.62424 0.0394z"/><path d="m119.21 120.52c-3.5325-2.7555-0.60015 4.2503 0 0zm0.06 1.77c-5.1656 0.70016 1.6218-7.4434 0.54811-2.1609-0.36487 0.44847 0.58576 2.5564-0.54811 2.1609z"/><path d="m121.08 118.62c-1.0211-1.7285-0.96049 1.6871 0 0zm-0.666 0.828c-0.75024 5.4985 2.0604 0.50278 0 0z"/><path d="m122.83 121.93c-2.0688-1.5981 2.8275-0.75946 0 0zm0.846 0.15c2.614-1.4511-3.6573-3.8545-0.21574-1.8728-1.4888 0.85825-2.8327 2.5642 0.21574 1.8728z"/><path d="m125.27 119.89c-1.3767 0.14179 0.14147 4.2619 0.53234 0.331 1.6714 2.0323 0.858 1.6502 2.069-0.15594 2.1757 4.9028 1.3109-3.3438-2.6013-0.17506z"/><path d="m133.78 120.63c-2.7998 1.0647-1.2429-2.2302 0 0zm-0.81-1.236c-4.278 0.59245 2.1707 4.7413 0.14384 2.207-2.3125-0.0994 3.9879-1.2146-0.14384-2.207z"/><path d="m136.65 119.45c-2.7902-0.88114-1.4034 5.1342-0.39939 0.49294z"/><path d="m138.56 122.36c6.0586-3.8442-5.8818-3.4658 0 0zm0-2.484c3.7996 2.5834-3.6208 2.1044 0 0z"/><path d="m140.43 120.25c2.9766 1.4836-1.7261 2.204 1.7212 1.8417-1.0241-2.1452-0.0395-1.7386-0.0866-2.5305-0.59831-0.3408-1.6289-0.18586-1.6346 0.68884z"/><path d="m143.5 123.08c1.7719-2.3177-1.2487-1.3232 0 0z"/><path d="m148.15 122.26c-0.89906-0.94731-0.71409-5.5159-1.5218-1.726-0.0527 0.83712 0.28771 2.3417 1.5218 1.726z"/><path d="m150.44 119.45c-2.7902-0.88114-1.4034 5.1342-0.39939 0.49294z"/><path d="m151.68 118.62c-1.0211-1.7285-0.96049 1.6871 0 0zm-0.666 0.828c-0.75024 5.4985 2.0604 0.50278 0 0z"/><path d="m152.29 120.25c2.9766 1.4836-1.7261 2.204 1.7212 1.8417-1.0241-2.1452-0.0395-1.7386-0.0866-2.5305-0.59831-0.3408-1.6289-0.18586-1.6346 0.68884z"/><path d="m156.53 122.26c-0.89906-0.94731-0.71409-5.5159-1.5218-1.726-0.0527 0.83712 0.28771 2.3417 1.5218 1.726z"/><path d="m157.87 118.62c-1.0211-1.7285-0.96049 1.6871 0 0zm-0.666 0.828c-0.75024 5.4985 2.0604 0.50278 0 0z"/><path d="m160.9 120.45c-3.784-2.4388-0.21063 4.2452 0 0zm0 3.192c0.47459-1.9635-5.2242-2.7853-0.71899-4.3656 1.6764-0.42133 1.8857 4.5018 0.71899 4.3656z"/><path d="m164.18 121.84c1.4616-0.10147-0.16117-4.3357-0.4737-0.24104-1.3176-1.1239-1.7984-3.048-1.3442 0.30721 0.42598 0.574 1.4592 0.62914 1.8179-0.0662z"/><path d="m167.59 120.63c-2.7998 1.0647-1.2429-2.2302 0 0zm-0.81-1.236c-4.278 0.59245 2.1707 4.7413 0.14384 2.207-2.3125-0.0994 3.9879-1.2146-0.14384-2.207z"/><path d="m170.61 120.25c2.9766 1.4836-1.7261 2.204 1.7212 1.8417-1.0241-2.1452-0.0395-1.7386-0.0866-2.5305-0.59831-0.3408-1.6289-0.18586-1.6346 0.68884z"/><path d="m174.01 118.62c-1.0211-1.7285-0.96049 1.6871 0 0zm-0.666 0.828c-0.75024 5.4985 2.0604 0.50278 0 0z"/><path d="m176.29 122.26c-0.89906-0.94731-0.71409-5.5159-1.5218-1.726-0.0527 0.83712 0.28771 2.3417 1.5218 1.726z"/><path d="m179.85 121.93c-2.0688-1.5981 2.8275-0.75946 0 0zm0.846 0.15c2.614-1.4511-3.6573-3.8545-0.21574-1.8728-1.4888 0.85825-2.8327 2.5642 0.21574 1.8728z"/><path d="m182.29 119.89c-1.3767 0.14179 0.14147 4.2619 0.53234 0.331 1.6714 2.0323 0.858 1.6502 2.069-0.15594 2.1757 4.9028 1.3109-3.3438-2.6013-0.17506z"/><path d="m188.88 120.63c-2.7998 1.0647-1.2429-2.2302 0 0zm-0.81-1.236c-4.278 0.59245 2.1707 4.7413 0.14384 2.207-2.3125-0.0994 3.9879-1.2146-0.14384-2.207z"/><path d="m191.64 122.26c-0.89906-0.94731-0.71409-5.5159-1.5218-1.726-0.0527 0.83712 0.28771 2.3417 1.5218 1.726z"/><path d="m192.64 123.08c1.7719-2.3177-1.2487-1.3232 0 0z"/><path d="m71.856 128c3.7896-2.7673 0.55034 4.5616 0 0zm0 3.48c-1.0121-2.2409 5.3739-2.999 0.71723-4.7016-1.8085-0.35308-1.7395 4.7091-0.71723 4.7016z"/><path d="m76.569 126.95c-2.7902-0.88114-1.4035 5.1342-0.39939 0.49294z"/><path d="m79.217 128.13c-2.7998 1.0647-1.2429-2.2302 0 0zm-0.81-1.236c-4.2781 0.59245 2.1707 4.7413 0.14384 2.207-2.3125-0.0994 3.9879-1.2146-0.14384-2.207z"/><path d="m81.975 129.76c-0.89905-0.94731-0.71409-5.5159-1.5218-1.726-0.05271 0.83712 0.28771 2.3417 1.5218 1.726z"/><path d="m83.309 126.12c-1.0211-1.7285-0.9605 1.6871 0 0zm-0.666 0.828c-0.75024 5.4985 2.0604 0.50278 0 0z"/><path d="m86.022 129.34c1.4616-0.10147-0.16118-4.3357-0.4737-0.24104-1.3176-1.1239-1.7984-3.048-1.3442 0.30721 0.42598 0.57401 1.4592 0.62914 1.8179-0.0662z"/><path d="m87.827 127.39c-1.3766 0.14182 0.14155 4.2619 0.53234 0.331 1.6714 2.0323 0.858 1.6503 2.069-0.15594 2.3994 4.8212 0.91978-3.3818-2.6013-0.17506z"/><path d="m93.884 126.94c-0.14931 2.9504 3.3643 3.0445 2.4014 0.23448-1.8912 4.1018-0.40504-0.30671-2.4014-0.23448z"/><path d="m99.221 128.13c-2.7997 1.0647-1.2429-2.2302 0 0zm-0.81-1.236c-4.2781 0.59245 2.1707 4.7413 0.14384 2.207-2.3125-0.0994 3.9879-1.2146-0.14384-2.207z"/><path d="m100.49 125.25c-0.40429 2.474 0.79306 6.4133 0.5854 1.7443 0.0119-0.37745 0.24441-1.7224-0.5854-1.7443z"/><path d="m102.29 130.58c1.7719-2.3177-1.2487-1.3232 0 0z"/><path d="m105.93 128c3.7896-2.7673 0.55034 4.5616 0 0zm0 3.48c-1.0121-2.2409 5.3739-2.999 0.71723-4.7016-1.8085-0.35309-1.7395 4.7092-0.71723 4.7016z"/><path d="m111.1 128.13c-2.7998 1.0647-1.2429-2.2302 0 0zm-0.81-1.236c-4.278 0.59245 2.1707 4.7413 0.14384 2.207-2.3125-0.0994 3.9879-1.2146-0.14384-2.207z"/><path d="m112.37 125.25c-0.40429 2.474 0.79306 6.4133 0.5854 1.7443 0.0119-0.37745 0.24441-1.7224-0.5854-1.7443z"/><path d="m113.85 125.25c-0.40429 2.474 0.79306 6.4133 0.5854 1.7443 0.0119-0.37745 0.24441-1.7224-0.5854-1.7443z"/><path d="m117.38 128.13c-2.7998 1.0647-1.2429-2.2302 0 0zm-0.81-1.236c-4.278 0.59245 2.1707 4.7413 0.14384 2.207-2.3125-0.0994 3.9879-1.2146-0.14384-2.207z"/><path d="m119.14 127.38c-1.4614 0.10092 0.16069 4.3357 0.47382 0.24189 1.3171 1.1244 1.7994 3.0456 1.3432-0.30743-0.42541-0.57363-1.4589-0.63085-1.817 0.0655z"/><path d="m123.42 129.76c-0.89906-0.94731-0.71409-5.5159-1.5218-1.726-0.0527 0.83712 0.28771 2.3417 1.5218 1.726z"/><path d="m126.16 128.13c-2.7998 1.0647-1.2429-2.2302 0 0zm-0.81-1.236c-4.278 0.59245 2.1707 4.7413 0.14384 2.207-2.3125-0.0994 3.9879-1.2146-0.14384-2.207z"/><path d="m127.26 127.75c2.9766 1.4836-1.7261 2.204 1.7212 1.8417-1.0241-2.1452-0.0395-1.7386-0.0866-2.5305-0.59831-0.3408-1.6289-0.18586-1.6346 0.68884z"/><path d="m132.26 127.95c-3.784-2.4388-0.21063 4.2452 0 0zm0 3.192c0.47459-1.9635-5.2242-2.7853-0.71899-4.3656 1.6764-0.42133 1.8857 4.5018 0.71899 4.3656z"/><path d="m135.53 129.34c1.4616-0.10147-0.16117-4.3357-0.4737-0.24104-1.3176-1.1239-1.7984-3.048-1.3442 0.30721 0.42598 0.574 1.4592 0.62914 1.8179-0.0662z"/><path d="m138.95 128.13c-2.7998 1.0647-1.2429-2.2302 0 0zm-0.81-1.236c-4.278 0.59245 2.1707 4.7413 0.14384 2.207-2.3125-0.0994 3.9879-1.2146-0.14384-2.207z"/><path d="m144.07 129.34c1.4616-0.10147-0.16117-4.3357-0.4737-0.24104-1.3176-1.1239-1.7984-3.048-1.3442 0.30721 0.42598 0.574 1.4592 0.62914 1.8179-0.0662z"/><path d="m146.91 129.76c-0.89906-0.94731-0.71409-5.5159-1.5218-1.726-0.0527 0.83712 0.28771 2.3417 1.5218 1.726z"/><path d="m147.91 130.58c1.7719-2.3177-1.2487-1.3232 0 0z"/><path d="m151.55 127.38c-1.4614 0.10092 0.16069 4.3357 0.47382 0.24189 1.3171 1.1244 1.7994 3.0456 1.3432-0.30743-0.42541-0.57363-1.4589-0.63085-1.817 0.0655z"/><path d="m156.41 128.13c-2.7998 1.0647-1.2429-2.2302 0 0zm-0.81-1.236c-4.278 0.59245 2.1707 4.7413 0.14384 2.207-2.3125-0.0994 3.9879-1.2146-0.14384-2.207z"/><path d="m159.93 127.95c-3.784-2.4388-0.21063 4.2452 0 0zm0 3.192c0.47459-1.9635-5.2242-2.7853-0.71899-4.3656 1.6764-0.42133 1.8857 4.5018 0.71899 4.3656z"/><path d="m163.2 129.34c1.4616-0.10147-0.16117-4.3357-0.4737-0.24104-1.3176-1.1239-1.7984-3.048-1.3442 0.30721 0.42598 0.574 1.4592 0.62914 1.8179-0.0662z"/><path d="m166.62 128.13c-2.7998 1.0647-1.2429-2.2302 0 0zm-0.81-1.236c-4.278 0.59245 2.1707 4.7413 0.14384 2.207-2.3125-0.0994 3.9879-1.2146-0.14384-2.207z"/><path d="m168.65 129.43c-1.0211-1.7285-0.96049 1.6871 0 0z"/><path d="m170.97 125.54c0.24142 5.2174 4.0336 3.6105 3.2597 0.36215-1.5514 5.2526-1.1799 0.68254-3.2597-0.36215z"/><path d="m175.76 126.12c-1.0211-1.7285-0.96049 1.6871 0 0zm-0.666 0.828c-0.75024 5.4985 2.0604 0.50278 0 0z"/><path d="m176.15 126.94c-0.14932 2.9504 3.3643 3.0445 2.4014 0.23448-1.8913 4.102-0.40496-0.30705-2.4014-0.23448z"/><path d="m180.39 129.43c-2.0688-1.5981 2.8275-0.75946 0 0zm0.846 0.15c2.614-1.4511-3.6573-3.8545-0.21574-1.8728-1.4888 0.85825-2.8327 2.5642 0.21574 1.8728z"/><path d="m182.83 127.39c-1.3767 0.14179 0.14147 4.2619 0.53234 0.331 1.6714 2.0323 0.858 1.6502 2.069-0.15594 2.3994 4.8212 0.91978-3.3818-2.6013-0.17506z"/><path d="m189.29 129.34c1.4616-0.10147-0.16117-4.3357-0.4737-0.24104-1.3176-1.1239-1.7984-3.048-1.3442 0.30721 0.42598 0.574 1.4592 0.62914 1.8179-0.0662z"/><path d="m190.47 127.75c2.9766 1.4836-1.7261 2.204 1.7212 1.8417-1.0241-2.1452-0.0395-1.7386-0.0866-2.5305-0.59831-0.3408-1.6289-0.18586-1.6346 0.68884z"/><path d="m71.279 135.5c3.7896-2.7673 0.55034 4.5616 0 0zm0 3.48c-1.0121-2.2409 5.3739-2.999 0.71723-4.7016-1.8085-0.35308-1.7395 4.7091-0.71723 4.7016z"/><path d="m75.71 137.36c6.0586-3.8442-5.8818-3.4658 0 0zm0-2.484c3.7996 2.5834-3.6208 2.1044 0 0z"/><path d="m77.58 135.25c2.9765 1.4836-1.7261 2.204 1.7212 1.8417-1.0241-2.1452-0.03947-1.7386-0.08658-2.5305-0.59831-0.3408-1.6289-0.18586-1.6346 0.68884z"/><path d="m82.258 136.84c1.4616-0.10147-0.16118-4.3357-0.4737-0.24104-1.3176-1.1239-1.7984-3.048-1.3442 0.30721 0.42598 0.57401 1.4592 0.62914 1.8179-0.0662z"/><path d="m85.671 135.63c-2.7998 1.0647-1.2429-2.2302 0 0zm-0.81-1.236c-4.2781 0.59245 2.1707 4.7413 0.14384 2.207-2.3125-0.0994 3.9879-1.2146-0.14384-2.207z"/><path d="m88.543 134.45c-2.7902-0.88114-1.4035 5.1342-0.39939 0.49294z"/><path d="m91.19 135.63c-2.7997 1.0647-1.2429-2.2302 0 0zm-0.81-1.236c-4.2781 0.59245 2.1707 4.7413 0.14384 2.207-2.3125-0.0994 3.9879-1.2146-0.14384-2.207z"/><path d="m92.779 138.08c1.7719-2.3177-1.2487-1.3232 0 0z"/><path d="m96.901 136.93c-2.0688-1.5981 2.8275-0.75946 0 0zm0.846 0.15c2.614-1.4511-3.6573-3.8545-0.21574-1.8728-1.4889 0.85825-2.8327 2.5642 0.21574 1.8728z"/><path d="m99.38 134.88c-1.4614 0.10093 0.1607 4.3357 0.47382 0.24189 1.3171 1.1244 1.7994 3.0456 1.3432-0.30742-0.42541-0.57364-1.4589-0.63086-1.817 0.0655z"/><path d="m103.66 137.26c-0.89906-0.94731-0.71409-5.5159-1.5218-1.726-0.0527 0.83712 0.28771 2.3417 1.5218 1.726z"/><path d="m106.4 135.63c-2.7998 1.0647-1.2429-2.2302 0 0zm-0.81-1.236c-4.278 0.59245 2.1707 4.7413 0.14384 2.207-2.3125-0.0994 3.9879-1.2146-0.14384-2.207z"/><path d="m111.65 135.63c-2.7998 1.0647-1.2429-2.2302 0 0zm-0.81-1.236c-4.278 0.59245 2.1707 4.7413 0.14384 2.207-2.3125-0.0994 3.9879-1.2146-0.14384-2.207z"/><path d="m114.85 136.84c1.4616-0.10147-0.16117-4.3357-0.4737-0.24104-1.3176-1.1239-1.7984-3.048-1.3442 0.30721 0.42598 0.574 1.4592 0.62914 1.8179-0.0662z"/><path d="m119.61 137.26c-0.89906-0.94731-0.71409-5.5159-1.5218-1.726-0.0527 0.83712 0.28771 2.3417 1.5218 1.726z"/><path d="m122.35 135.63c-2.7998 1.0647-1.2429-2.2302 0 0zm-0.81-1.236c-4.278 0.59245 2.1707 4.7413 0.14384 2.207-2.3125-0.0994 3.9879-1.2146-0.14384-2.207z"/><path d="m124.07 134.89c-1.3767 0.14179 0.14147 4.2619 0.53234 0.331 1.6714 2.0323 0.858 1.6502 2.069-0.15594 2.1757 4.9028 1.3109-3.3438-2.6013-0.17506z"/><path d="m129.09 135.5c3.7896-2.7673 0.55034 4.5616 0 0zm0 3.48c-1.0121-2.2409 5.3739-2.999 0.71723-4.7016-1.8085-0.35309-1.7395 4.7092-0.71723 4.7016z"/><path d="m133.52 137.36c6.0586-3.8442-5.8818-3.4658 0 0zm0-2.484c3.7996 2.5834-3.6208 2.1044 0 0z"/><path d="m137.16 134.45c-2.7902-0.88114-1.4034 5.1342-0.39939 0.49294z"/><path d="m141.94 135.52c-3.5325-2.7555-0.60015 4.2503 0 0zm0.06 1.77c-5.1656 0.70016 1.6218-7.4434 0.54811-2.1609-0.36487 0.44847 0.58576 2.5564-0.54811 2.1609z"/><path d="m143.81 133.62c-1.0211-1.7285-0.96049 1.6871 0 0zm-0.666 0.828c-0.75024 5.4985 2.0604 0.50278 0 0z"/><path d="m144.41 135.88c0.92705 2.317 3.4227 0.92179 0.62424-0.0394 3.3392-1.4635-0.18893-2.357-0.62424 0.0394z"/><path d="m149.01 137.26c-0.89906-0.94731-0.71409-5.5159-1.5218-1.726-0.0527 0.83712 0.28771 2.3417 1.5218 1.726z"/><path d="m151.62 136.84c1.4616-0.10147-0.16117-4.3357-0.4737-0.24104-1.3176-1.1239-1.7984-3.048-1.3442 0.30721 0.42598 0.574 1.4592 0.62914 1.8179-0.0662z"/><path d="m153.43 134.89c-1.3767 0.14179 0.14147 4.2619 0.53234 0.331 1.6714 2.0323 0.858 1.6502 2.069-0.15594 2.1757 4.9028 1.3109-3.3438-2.6013-0.17506z"/><path d="m158.27 138.08c1.7719-2.3177-1.2487-1.3232 0 0z"/><path d="m162.97 132.72c-3.4581 0.58021-0.43167 7.4739-0.5598 1.7187-1.4063-0.10483 0.59575-1.3622 0.5598-1.7187z"/><path d="m165.31 135.63c-2.7998 1.0647-1.2429-2.2302 0 0zm-0.81-1.236c-4.278 0.59245 2.1707 4.7413 0.14384 2.207-2.3125-0.0994 3.9879-1.2146-0.14384-2.207z"/><path d="m166.58 132.75c-0.40429 2.474 0.79306 6.4133 0.5854 1.7443 0.0119-0.37745 0.24441-1.7224-0.5854-1.7443z"/><path d="m168.71 133.62c-1.0211-1.7285-0.96049 1.6871 0 0zm-0.666 0.828c-0.75024 5.4985 2.0604 0.50278 0 0z"/><path d="m169.33 135.25c2.9766 1.4836-1.7261 2.204 1.7212 1.8417-1.0241-2.1452-0.0395-1.7386-0.0866-2.5305-0.59831-0.3408-1.6289-0.18586-1.6346 0.68884z"/><path d="m174.49 134.88c-1.4614 0.10092 0.16069 4.3357 0.47382 0.24189 1.3171 1.1244 1.7994 3.0456 1.3432-0.30743-0.42541-0.57363-1.4589-0.63085-1.817 0.0655z"/><path d="m177.93 133.62c-1.0211-1.7285-0.96049 1.6871 0 0zm-0.666 0.828c-0.75024 5.4985 2.0604 0.50278 0 0z"/><path d="m179.21 135.52c3.5315-2.7549 0.59731 4.251 0 0zm-0.06 1.77c5.1628 0.69901-1.6218-7.4431-0.54811-2.1609 0.36487 0.44847-0.58576 2.5564 0.54811 2.1609z"/><path d="m183.48 134.88c0.87097 4.1358 2.3616-0.3781-0.63721-0.43158-0.67107-5.8118-1.6582 7.204 0.63721 0.43158z"/><path d="m71.746 140.22c-3.4581 0.58021-0.43167 7.4739-0.5598 1.7187-1.4063-0.10483 0.59575-1.3622 0.5598-1.7187z"/><path d="m72.992 144.43c-2.0688-1.5981 2.8275-0.75946 0 0zm0.846 0.15c2.614-1.4511-3.6573-3.8545-0.21574-1.8728-1.4889 0.85825-2.8327 2.5642 0.21574 1.8728z"/><path d="m74.793 143.38c0.92705 2.317 3.4227 0.92179 0.62424-0.0394 3.339-1.4634-0.18868-2.3571-0.62424 0.0394z"/><path d="m78.569 141.12c-1.0211-1.7285-0.9605 1.6871 0 0zm-0.666 0.828c-0.75024 5.4985 2.0604 0.50278 0 0z"/><path d="m79.356 140.25c-0.40428 2.474 0.79306 6.4133 0.5854 1.7443 0.01187-0.37745 0.2444-1.7224-0.5854-1.7443z"/><path d="m81.487 141.12c-1.0211-1.7285-0.9605 1.6871 0 0zm-0.666 0.828c-0.75024 5.4985 2.0604 0.50278 0 0z"/><path d="m82.1 142.75c2.9765 1.4836-1.7261 2.204 1.7212 1.8417-1.0241-2.1452-0.03947-1.7386-0.08658-2.5305-0.59831-0.3408-1.6289-0.18586-1.6346 0.68884z"/><path d="m85.506 141.12c-1.0211-1.7285-0.9605 1.6871 0 0zm-0.666 0.828c-0.75024 5.4985 2.0604 0.50278 0 0z"/><path d="m86.12 142.75c2.9765 1.4836-1.7261 2.204 1.7212 1.8417-1.0241-2.1452-0.03947-1.7386-0.08658-2.5305-0.59831-0.3408-1.6289-0.18586-1.6346 0.68884z"/><path d="m90.62 142.75c2.9765 1.4836-1.7261 2.204 1.7212 1.8417-1.0241-2.1452-0.03947-1.7386-0.08658-2.5305-0.59831-0.3408-1.6289-0.18586-1.6346 0.68884z"/><path d="m95.43 143.13c-2.7998 1.0647-1.2429-2.2302 0 0zm-0.81-1.236c-4.2781 0.59245 2.1707 4.7413 0.14384 2.207-2.3125-0.0994 3.9879-1.2146-0.14384-2.207z"/><path d="m97.15 142.39c-1.3766 0.14182 0.14155 4.2619 0.53234 0.331 1.6714 2.0323 0.858 1.6503 2.069-0.15594 2.1757 4.9028 1.3109-3.3438-2.6013-0.17506z"/><path d="m102 145.58c1.7719-2.3177-1.2487-1.3232 0 0z"/><path d="m107.22 143.13c-2.7998 1.0647-1.2429-2.2302 0 0zm-0.81-1.236c-4.278 0.59245 2.1707 4.7413 0.14384 2.207-2.3125-0.0994 3.9879-1.2146-0.14384-2.207z"/><path d="m110.42 144.34c1.4616-0.10147-0.16117-4.3357-0.4737-0.24104-1.3176-1.1239-1.7984-3.048-1.3442 0.30721 0.42598 0.574 1.4592 0.62914 1.8179-0.0662z"/><path d="m114.65 144.43c-2.0688-1.5981 2.8275-0.75946 0 0zm0.846 0.15c2.614-1.4511-3.6573-3.8545-0.21574-1.8728-1.4888 0.85825-2.8327 2.5642 0.21574 1.8728z"/><path d="m118.57 144.34c1.4616-0.10147-0.16117-4.3357-0.4737-0.24104-1.3176-1.1239-1.7984-3.048-1.3442 0.30721 0.42598 0.574 1.4592 0.62914 1.8179-0.0662z"/><path d="m119.73 143.38c0.92705 2.317 3.4227 0.92179 0.62424-0.0394 3.3392-1.4635-0.18893-2.357-0.62424 0.0394z"/><path d="m124.34 144.76c-0.89906-0.94731-0.71409-5.5159-1.5218-1.726-0.0527 0.83712 0.28771 2.3417 1.5218 1.726z"/><path d="m126.34 144.86c6.0586-3.8442-5.8818-3.4658 0 0zm0-2.484c3.7996 2.5834-3.6208 2.1044 0 0z"/><path d="m129.99 141.95c-2.7902-0.88114-1.4034 5.1342-0.39939 0.49294z"/><path d="m132.95 142.39c-1.3767 0.14179 0.14147 4.2619 0.53234 0.331 1.6714 2.0323 0.858 1.6502 2.069-0.15594 2.1757 4.9028 1.3109-3.3438-2.6013-0.17506z"/><path d="m139.54 143.13c-2.7998 1.0647-1.2429-2.2302 0 0zm-0.81-1.236c-4.278 0.59245 2.1707 4.7413 0.14384 2.207-2.3125-0.0994 3.9879-1.2146-0.14384-2.207z"/><path d="m142.3 144.76c-0.89906-0.94731-0.71409-5.5159-1.5218-1.726-0.0527 0.83712 0.28771 2.3417 1.5218 1.726z"/><path d="m144.9 144.34c1.4616-0.10147-0.16117-4.3357-0.4737-0.24104-1.3176-1.1239-1.7984-3.048-1.3442 0.30721 0.42598 0.574 1.4592 0.62914 1.8179-0.0662z"/><path d="m146.08 142.75c2.9766 1.4836-1.7261 2.204 1.7212 1.8417-1.0241-2.1452-0.0395-1.7386-0.0866-2.5305-0.59831-0.3408-1.6289-0.18586-1.6346 0.68884z"/><path d="m151.24 142.38c-1.4614 0.10092 0.16069 4.3357 0.47382 0.24189 1.3171 1.1244 1.7994 3.0456 1.3432-0.30743-0.42541-0.57363-1.4589-0.63085-1.817 0.0655z"/><path d="m155.97 144.34c1.4616-0.10147-0.16117-4.3357-0.4737-0.24104-1.3176-1.1239-1.7984-3.048-1.3442 0.30721 0.42598 0.574 1.4592 0.62914 1.8179-0.0662z"/><path d="m157.32 140.25c-0.40429 2.474 0.79306 6.4133 0.5854 1.7443 0.0119-0.37745 0.24441-1.7224-0.5854-1.7443z"/><path d="m158.8 140.25c-0.40429 2.474 0.79306 6.4133 0.5854 1.7443 0.0119-0.37745 0.24441-1.7224-0.5854-1.7443z"/><path d="m161.23 144.43c-2.0688-1.5981 2.8275-0.75946 0 0zm0.846 0.15c2.614-1.4511-3.6573-3.8545-0.21574-1.8728-1.4888 0.85825-2.8327 2.5642 0.21574 1.8728z"/><path d="m165.64 142.38c-1.4614 0.10092 0.16069 4.3357 0.47382 0.24189 1.3171 1.1244 1.7994 3.0456 1.3432-0.30743-0.42541-0.57363-1.4589-0.63085-1.817 0.0655z"/><path d="m169.75 144.86c6.0586-3.8442-5.8818-3.4658 0 0zm0-2.484c3.7996 2.5834-3.6208 2.1044 0 0z"/><path d="m172.28 142.38c-1.4614 0.10092 0.16069 4.3357 0.47382 0.24189 1.3171 1.1244 1.7994 3.0456 1.3432-0.30742-0.42541-0.57363-1.4589-0.63086-1.817 0.0655z"/><path d="m177 140.25c-0.40429 2.474 0.79306 6.4133 0.5854 1.7443 0.0119-0.37745 0.24441-1.7224-0.5854-1.7443z"/><path d="m179.79 144.86c6.0586-3.8442-5.8818-3.4658 0 0zm0-2.484c3.7996 2.5834-3.6208 2.1044 0 0z"/><path d="m183.44 141.95c-2.7902-0.88114-1.4034 5.1342-0.39939 0.49294z"/><path d="m186.09 143.13c-2.7998 1.0647-1.2429-2.2302 0 0zm-0.81-1.236c-4.278 0.59245 2.1707 4.7413 0.14384 2.207-2.3125-0.0994 3.9879-1.2146-0.14384-2.207z"/><path d="m187.81 142.39c-1.3767 0.14179 0.14147 4.2619 0.53234 0.331 1.6714 2.0323 0.858 1.6502 2.069-0.15594 2.1757 4.9028 1.3109-3.3438-2.6013-0.17506z"/><path d="m193.1 144.43c-1.0211-1.7285-0.96049 1.6871 0 0z"/><path d="m71.51 158.23c-2.8749 1.3843-0.51812-4.4088 0 0zm-1.032-2.694c-0.83665 2.1429-2.8487 5.1781 0.32844 3.1308 3.5542 3.2872 0.80212-2.7052-0.32844-3.1308z"/><path d="m73.199 155.25c-0.40428 2.474 0.79306 6.4133 0.5854 1.7443 0.01187-0.37745 0.2444-1.7224-0.5854-1.7443z"/><path d="m75.329 156.12c-1.0211-1.7285-0.9605 1.6871 0 0zm-0.666 0.828c-0.75024 5.4985 2.0604 0.50278 0 0z"/><path d="m78.367 157.95c-3.784-2.4388-0.21063 4.2452 0 0zm0 3.192c0.47458-1.9635-5.2242-2.7853-0.71899-4.3656 1.6764-0.42133 1.8857 4.5018 0.71899 4.3656z"/><path d="m81.64 159.34c1.4616-0.10147-0.16118-4.3357-0.4737-0.24104-1.3176-1.1239-1.7984-3.048-1.3442 0.30721 0.42598 0.57401 1.4592 0.62914 1.8179-0.0662z"/><path d="m83.955 159.43c-2.0688-1.5981 2.8275-0.75946 0 0zm0.846 0.15c2.614-1.4511-3.6573-3.8545-0.21574-1.8728-1.4889 0.85825-2.8327 2.5642 0.21574 1.8728z"/><path d="m86.399 157.39c-1.3766 0.14182 0.14155 4.2619 0.53234 0.331 1.6714 2.0323 0.858 1.6503 2.069-0.15594 2.1757 4.9028 1.3109-3.3438-2.6013-0.17506z"/><path d="m92.455 156.94c-0.14931 2.9504 3.3643 3.0445 2.4014 0.23448-1.8912 4.1018-0.40504-0.30671-2.4014-0.23448z"/><path d="m97.792 158.13c-2.7997 1.0647-1.2429-2.2302 0 0zm-0.81-1.236c-4.2781 0.59245 2.1707 4.7413 0.14384 2.207-2.3125-0.0994 3.9879-1.2146-0.14384-2.207z"/><path d="m99.062 155.25c-0.40428 2.474 0.79306 6.4133 0.5854 1.7443 0.01187-0.37744 0.2444-1.7224-0.5854-1.7443z"/><path d="m102.95 157.38c-1.4614 0.10092 0.16069 4.3357 0.47382 0.24189 1.3171 1.1244 1.7994 3.0456 1.3432-0.30743-0.42541-0.57363-1.4589-0.63085-1.817 0.0655z"/><path d="m106.4 156.12c-1.0211-1.7285-0.96049 1.6871 0 0zm-0.666 0.828c-0.75024 5.4985 2.0604 0.50278 0 0z"/><path d="m107.67 158.02c3.5315-2.7549 0.59731 4.251 0 0zm-0.06 1.77c5.1628 0.69901-1.6218-7.4431-0.54811-2.1609 0.36487 0.44847-0.58576 2.5564 0.54811 2.1609z"/><path d="m111.94 157.38c0.87097 4.1358 2.3616-0.3781-0.63721-0.43158-0.67107-5.8118-1.6582 7.204 0.63721 0.43158z"/><path d="m114.79 159.43c-1.0211-1.7285-0.96049 1.6871 0 0z"/><path d="m117.43 157.7c-0.65158 3.3943 6.1099 0.99199 1.5232 1.5213-3.4884-2.3279 5.0468-4.3783-0.77748-3.2773-0.49405 0.4367-0.76295 1.1009-0.74577 1.756z"/><path d="m123.72 159.34c1.4616-0.10147-0.16117-4.3357-0.4737-0.24104-1.3176-1.1239-1.7984-3.048-1.3442 0.30721 0.42598 0.574 1.4592 0.62914 1.8179-0.0662z"/><path d="m126.68 156.95c-2.7902-0.88114-1.4034 5.1342-0.39939 0.49294z"/><path d="m128.23 159.43c-2.0688-1.5981 2.8275-0.75946 0 0zm0.846 0.15c2.614-1.4511-3.6573-3.8545-0.21574-1.8728-1.4888 0.85825-2.8327 2.5642 0.21574 1.8728z"/><path d="m130.71 158.02c3.5315-2.7549 0.59731 4.251 0 0zm-0.06 1.77c5.1628 0.69901-1.6218-7.4431-0.54811-2.1609 0.36487 0.44847-0.58576 2.5564 0.54811 2.1609z"/><path d="m134.36 156.12c-1.0211-1.7285-0.96049 1.6871 0 0zm-0.666 0.828c-0.75024 5.4985 2.0604 0.50278 0 0z"/><path d="m136.63 159.76c-0.89906-0.94731-0.71409-5.5159-1.5218-1.726-0.0527 0.83712 0.28771 2.3417 1.5218 1.726z"/><path d="m139.24 159.34c1.4616-0.10147-0.16117-4.3357-0.4737-0.24104-1.3176-1.1239-1.7984-3.048-1.3442 0.30721 0.42598 0.574 1.4592 0.62914 1.8179-0.0662z"/><path d="m142.2 156.95c-2.7902-0.88114-1.4034 5.1342-0.39939 0.49294z"/><path d="m145.19 157.38c-1.4614 0.10093 0.16069 4.3357 0.47382 0.24189 1.3171 1.1244 1.7994 3.0456 1.3432-0.30743-0.42541-0.57363-1.4589-0.63084-1.817 0.0655z"/><path d="m149.91 159.34c1.4616-0.10147-0.16117-4.3357-0.4737-0.24104-1.3176-1.1239-1.7984-3.048-1.3442 0.30721 0.42598 0.574 1.4592 0.62914 1.8179-0.0662z"/><path d="m151.75 157.38c-1.4614 0.10093 0.16069 4.3357 0.47382 0.24189 1.3171 1.1244 1.7994 3.0456 1.3432-0.30743-0.42541-0.57363-1.4589-0.63084-1.817 0.0655z"/><path d="m154.36 158.38c0.92704 2.317 3.4227 0.92179 0.62423-0.0394 3.339-1.4635-0.18856-2.357-0.62423 0.0394z"/><path d="m160.36 159.43c-2.0688-1.5981 2.8275-0.75946 0 0zm0.846 0.15c2.614-1.4511-3.6573-3.8545-0.21574-1.8728-1.4888 0.85825-2.8327 2.5642 0.21574 1.8728z"/><path d="m162.84 157.38c-1.4614 0.10092 0.16069 4.3357 0.47382 0.24189 1.3171 1.1244 1.7994 3.0456 1.3432-0.30743-0.42541-0.57363-1.4589-0.63085-1.817 0.0655z"/><path d="m167.12 159.76c-0.89906-0.94731-0.71409-5.5159-1.5218-1.726-0.0527 0.83712 0.28771 2.3417 1.5218 1.726z"/><path d="m169.86 158.13c-2.7998 1.0647-1.2429-2.2302 0 0zm-0.81-1.236c-4.278 0.59245 2.1707 4.7413 0.14384 2.207-2.3125-0.0994 3.9879-1.2146-0.14384-2.207z"/><path d="m171.45 160.58c1.7719-2.3177-1.2487-1.3232 0 0z"/><path d="m70.411 166.84c1.4616-0.10147-0.16118-4.3357-0.4737-0.24104-1.3176-1.1239-1.7984-3.048-1.3442 0.30721 0.42598 0.57401 1.4592 0.62914 1.8179-0.0662z"/><path d="m71.766 162.75c-0.40428 2.474 0.79306 6.4133 0.5854 1.7443 0.01187-0.37745 0.2444-1.7224-0.5854-1.7443z"/><path d="m73.243 162.75c-0.40428 2.474 0.79306 6.4133 0.5854 1.7443 0.01187-0.37745 0.2444-1.7224-0.5854-1.7443z"/><path d="m75.679 166.93c-2.0688-1.5981 2.8275-0.75946 0 0zm0.846 0.15c2.614-1.4511-3.6573-3.8545-0.21574-1.8728-1.4889 0.85825-2.8327 2.5642 0.21574 1.8728z"/><path d="m78.122 164.89c-1.3766 0.14182 0.14155 4.2619 0.53234 0.331 1.6714 2.0323 0.858 1.6503 2.069-0.15594 2.1757 4.9028 1.3109-3.3438-2.6013-0.17506z"/><path d="m82.461 165.88c0.92705 2.317 3.4227 0.92179 0.62424-0.0394 3.339-1.4634-0.18868-2.3571-0.62424 0.0394z"/><path d="m86.903 167.36c6.0586-3.8442-5.8818-3.4658 0 0zm0-2.484c3.7996 2.5834-3.6208 2.1044 0 0z"/><path d="m90.548 164.45c-2.7902-0.88114-1.4035 5.1342-0.39939 0.49294z"/><path d="m91.623 165.5c3.7896-2.7673 0.55034 4.5616 0 0zm0 3.48c-1.0121-2.2409 5.3739-2.999 0.71723-4.7016-1.8085-0.35308-1.7395 4.7091-0.71723 4.7016z"/><path d="m96.793 165.63c-2.7998 1.0647-1.2429-2.2302 0 0zm-0.81-1.236c-4.2781 0.59245 2.1707 4.7413 0.14384 2.207-2.3125-0.0994 3.9879-1.2146-0.14384-2.207z"/><path d="m99.665 164.45c-2.7902-0.88114-1.4035 5.1342-0.39939 0.49294z"/><path d="m101.78 164.44c-0.14932 2.9504 3.3643 3.0445 2.4014 0.23448-1.8913 4.102-0.40496-0.30705-2.4014-0.23448z"/><path d="m107.12 165.63c-2.7998 1.0647-1.2429-2.2302 0 0zm-0.81-1.236c-4.278 0.59245 2.1707 4.7413 0.14384 2.207-2.3125-0.0994 3.9879-1.2146-0.14384-2.207z"/><path d="m108.39 162.75c-0.40429 2.474 0.79306 6.4133 0.5854 1.7443 0.0119-0.37745 0.24441-1.7224-0.5854-1.7443z"/><path d="m110.18 168.08c1.7719-2.3177-1.2487-1.3232 0 0z"/><path d="m114.3 166.93c-2.0688-1.5981 2.8275-0.75946 0 0zm0.846 0.15c2.614-1.4511-3.6573-3.8545-0.21574-1.8728-1.4888 0.85825-2.8327 2.5642 0.21574 1.8728z"/></g></g><use transform="rotate(-45 -29.823 -384.36)" width="400" height="300" xlink:href="#bo"/><g transform="matrix(1.0662 0 0 1 -9.3874 -8.029)"><path d="m114.5 193 52.632-6.7071c11.194-0.17973 6.8058-12.286-3.5251-9.0858z" color="#000000" enable-background="new" fill="url(#j)" filter="url(#bu)" opacity=".51942"/><path transform="matrix(2.0612 0 0 2.0612 -126.54 -208.09)" d="m119 193.5 44.5-6c7.6588-7.9579 3.6238-10.519-6-10.5z" color="#000000" enable-background="new" fill="url(#af)" filter="url(#bw)" opacity=".56311"/><path transform="matrix(.58898 0 0 .58898 43.23 81.16)" d="m128.93 190.45 38.2-4.1603c11.194-0.17973 6.8058-12.286-3.5251-9.0858z" color="#000000" enable-background="new" fill="url(#j)" filter="url(#bv)" opacity=".51942"/></g><path d="m77.999 88-9.5959 117h147.14l-9.5959-116z" color="#000000" enable-background="new" fill="none" opacity=".33495"/><g transform="translate(5.5919)"><g transform="matrix(.73725 0 0 .73725 62.388 -2.788)" filter="url(#ca)"><path d="m114.82 70.5 6-10.75-8.5 0.25-5 8.75z" enable-background="new" fill="url(#d)" opacity=".38421"/><path d="m134.82 70.5 6-10.75-8.5 0.25-5 8.75z" enable-background="new" fill="url(#d)" opacity=".38421"/><path d="m154.82 70.5 6-10.75-8.5 0.25-5 8.75z" enable-background="new" fill="url(#d)" opacity=".38421"/><path d="m174.82 70.5 6-10.75-8.5 0.25-5 8.75z" enable-background="new" fill="url(#d)" opacity=".38421"/><path d="m94.824 70.5 6-10.75-8.5 0.25-5 8.75z" enable-background="new" fill="url(#d)" opacity=".38421"/><path d="m74.824 70.5 6-10.75-8.5 0.25-5 8.75z" enable-background="new" fill="url(#d)" opacity=".38421"/><path d="m194.82 70.5c0.94917-1.4329 2.174-3.0037 5.75-5.75-0.59506-3.8932-3.2583-3.65-6.5-2.25l-6.75 6.25z" enable-background="new" fill="url(#d)" opacity=".38421"/><path d="m54.972 70.5 6-10.75-8.5 0.25-5 8.75z" enable-background="new" fill="url(#p)" opacity=".38421"/><path d="m34.972 70.5 6-10.75-8.5 0.25-5 8.75z" enable-background="new" fill="url(#p)" opacity=".38421"/><path d="m14.373 70.5 6-10.75-8.5 0.25-5 8.75z" enable-background="new" fill="url(#aw)" opacity=".38421"/></g><g transform="matrix(.73725 0 0 .73725 58.388 -2.788)" opacity=".9"><ellipse transform="matrix(1 0 0 1.4 -2.8284 -27.062)" cx="79.25" cy="70" rx="4.25" ry="2.5" enable-background="new" fill="#fff"/><ellipse transform="matrix(1 0 0 1.4 -2.8284 -29)" cx="79.25" cy="70" rx="4.25" ry="2.5" enable-background="new" fill="url(#a)"/><g transform="translate(20)"><ellipse transform="matrix(1 0 0 1.4 -2.8284 -27.062)" cx="79.25" cy="70" rx="4.25" ry="2.5" enable-background="new" fill="#fff"/><ellipse transform="matrix(1 0 0 1.4 -2.8284 -29)" cx="79.25" cy="70" rx="4.25" ry="2.5" enable-background="new" fill="url(#a)"/></g><g transform="translate(40)"><ellipse transform="matrix(1 0 0 1.4 -2.8284 -27.062)" cx="79.25" cy="70" rx="4.25" ry="2.5" enable-background="new" fill="#fff"/><ellipse transform="matrix(1 0 0 1.4 -2.8284 -29)" cx="79.25" cy="70" rx="4.25" ry="2.5" enable-background="new" fill="url(#ad)"/></g><g transform="translate(60)"><ellipse transform="matrix(1 0 0 1.4 -2.8284 -27.062)" cx="79.25" cy="70" rx="4.25" ry="2.5" enable-background="new" fill="#fff"/><ellipse transform="matrix(1 0 0 1.4 -2.8284 -29)" cx="79.25" cy="70" rx="4.25" ry="2.5" enable-background="new" fill="url(#a)"/></g><g transform="translate(80)"><ellipse transform="matrix(1 0 0 1.4 -2.8284 -27.062)" cx="79.25" cy="70" rx="4.25" ry="2.5" enable-background="new" fill="#fff"/><ellipse transform="matrix(1 0 0 1.4 -2.8284 -29)" cx="79.25" cy="70" rx="4.25" ry="2.5" enable-background="new" fill="url(#a)"/></g><g transform="translate(100)"><ellipse transform="matrix(1 0 0 1.4 -2.8284 -27.062)" cx="79.25" cy="70" rx="4.25" ry="2.5" enable-background="new" fill="#fff"/><ellipse transform="matrix(1 0 0 1.4 -2.8284 -29)" cx="79.25" cy="70" rx="4.25" ry="2.5" enable-background="new" fill="url(#a)"/></g><g transform="translate(120)"><ellipse transform="matrix(1 0 0 1.4 -2.8284 -27.062)" cx="79.25" cy="70" rx="4.25" ry="2.5" enable-background="new" fill="#fff"/><ellipse transform="matrix(1 0 0 1.4 -2.8284 -29)" cx="79.25" cy="70" rx="4.25" ry="2.5" enable-background="new" fill="url(#a)"/></g><g transform="translate(-39.733)"><ellipse transform="matrix(1 0 0 1.4 -2.8284 -27.062)" cx="79.25" cy="70" rx="4.25" ry="2.5" enable-background="new" fill="#fff"/><ellipse transform="matrix(1 0 0 1.4 -2.8284 -29)" cx="79.25" cy="70" rx="4.25" ry="2.5" enable-background="new" fill="url(#a)"/></g><g transform="translate(-19.733)"><ellipse transform="matrix(1 0 0 1.4 -2.8284 -27.062)" cx="79.25" cy="70" rx="4.25" ry="2.5" enable-background="new" fill="#fff"/><ellipse transform="matrix(1 0 0 1.4 -2.8284 -29)" cx="79.25" cy="70" rx="4.25" ry="2.5" enable-background="new" fill="url(#a)"/></g><g transform="translate(-60.461)"><ellipse transform="matrix(1 0 0 1.4 -2.8284 -27.062)" cx="79.25" cy="70" rx="4.25" ry="2.5" enable-background="new" fill="#fff"/><ellipse transform="matrix(1 0 0 1.4 -2.8284 -29)" cx="79.25" cy="70" rx="4.25" ry="2.5" enable-background="new" fill="url(#a)"/></g></g><g id="u" transform="matrix(.60542 0 .055271 .60985 69.291 6.3506)" clip-path="url(#x)"><path d="m122.4 39.3c-2.134 0.52539-3.3709 2.5098-2.7733 4.4494 2.5104 4.9508 4.8138 8.5487 5.6697 13.8l7.3043-0.0016c-0.74381-6.022-1.5113-11.674-4.7075-17.13-1.0965-1.8262-3.3592-1.6424-5.4932-1.117z" enable-background="new" fill="url(#m)"/><path transform="matrix(1 0 .010089 .88949 -.43735 4.7906)" d="m123.39 43.691c-1.4541 0.39389-1.5576 0.88161-1.1637 2.3357 2.423 5.3689 4.7993 10.038 4.1752 16.713 0.39388 1.4541 1.8816 2.3076 3.3357 1.9137 1.4541-0.39388 0.43262-1.2566 0.0387-2.7107-0.54366-6.0443-2.0357-12.232-4.8402-17.598-0.7338-1.3691-0.0916-1.0478-1.5457-0.65386z" enable-background="new" fill="url(#l)" filter="url(#v)" opacity=".31053"/><path transform="rotate(15.157)" d="m130.04 4.3983c3.6194-0.39433 5.2041 2.8824 5.0532 3.5852-2.6536 7.7337-2.3582 17.963-0.78928 26.202 0 2.216-0.59915 3.5495-3.4741 4.1165-2.2102 0.43591-3.74-0.30037-4.3309-3.0038-1.3035-7.5293-2.1336-19.06-0.65746-26.198 0.40609-1.9638 2.0034-4.4621 4.1985-4.7013z" enable-background="new" fill="url(#k)"/><circle transform="matrix(1.2924 0 0 1.2924 -34.732 -18.732)" cx="120.62" cy="48.25" r="3" enable-background="new" fill="url(#h)"/><path transform="matrix(.45833 0 0 .45833 66.328 22.135)" d="m123.62 48.25a3 3 0 0 1-2.9139 2.9988 3 3 0 0 1-3.0811-2.8267 3 3 0 0 1 2.7371-3.161 3 3 0 0 1 3.2382 2.6453l-2.9803 0.34356z" enable-background="new" fill="#fff"/><path d="m115.6 52.052-3.0232 16.823c-0.32939 3.873 7.9685 3.7133 8.1136 0.125 0.2445-4.4577 1.4269-10.502 2.7732-16.823-2.2319-2.3513-4.7915-2.656-7.8636-0.125z" enable-background="new" fill="url(#r)" opacity=".50526"/><path transform="matrix(1 0 -.11036 1.2089 5.6488 9.1929)" d="m120.56 24c-1.8777 0.14579-3.507 1.5799-4.1562 2.875-2.6975 5.3804-3.8904 14.769-3.9062 21.062 0.11588 2.2863 1.5196 3.2138 3.7812 3.3438 2.9418 0.16907 3.7721-0.76193 4.1562-2.5312-0.0745-4.1609 0.40913-8.809 1.6875-13.062 0.78346 1.3391 5.4512 12.731 5.9375 14.312h6.3125c-1.2936-4.9815-5.5869-19.642-9.2812-24.156-0.28993-0.34672-0.6516-0.59302-1.0312-0.78125-0.0288-0.02091-0.0641-0.04196-0.0937-0.0625-0.65402-0.45368-1.5031-0.82885-2.5938-0.96875-0.27658-0.03548-0.54426-0.05208-0.8125-0.03125z" enable-background="new" fill="none" filter="url(#w)" stroke="url(#q)" stroke-width="1.1035"/></g><use id="aa" transform="translate(14.745)" width="400" height="300" xlink:href="#u"/><use id="z" transform="translate(14.745)" width="400" height="300" xlink:href="#aa"/><use transform="translate(14.745)" width="400" height="300" xlink:href="#z"/><use id="y" transform="translate(-14.745)" width="400" height="300" xlink:href="#u"/><use transform="translate(-14.745)" width="400" height="300" xlink:href="#y"/><g transform="matrix(.6208 0 .056676 .73725 126.44 -2.788)" clip-path="url(#ch)"><path transform="rotate(15.157)" d="m133.14 19.65c-0.17439 4.9519 0.30252 10.04 1.1586 14.535 0 2.216-0.59915 3.5495-3.4741 4.1165-2.2102 0.43591-3.74-0.30037-4.3309-3.0038-0.73131-4.2242-1.3136-9.7079-1.4233-14.969-0.417-5.9347 8.9035-5.7606 8.0697-0.67873z" enable-background="new" fill="url(#ac)"/><circle transform="matrix(1.4583 0 0 1.4583 -57.457 -19.677)" cx="120.62" cy="48.25" r="3" enable-background="new" fill="url(#h)"/><circle transform="matrix(.45833 0 0 .45833 63.671 28.426)" cx="120.62" cy="48.25" r="3" enable-background="new" fill="#fff"/><path d="m114.16 58.375-1.5836 10.5c-0.32939 3.873 7.9685 3.7133 8.1136 0.125l1.1173-9.5c-2.9132 0.67165-6.2114 0.24193-7.6473-1.125z" enable-background="new" fill="url(#av)" opacity=".38421"/><path transform="matrix(1 0 -.091294 1 -73.512 0)" d="m201.8 53.779c-1.0308 4.734-1.4411 9.7696-1.3735 14.332-0.38412 2.1389-1.2079 3.2694-4.1497 3.065-2.2616-0.15713-3.6471-1.2678-3.763-4.0317 9e-3 -4.2685 0.38346-9.7136 1.187-14.82 0.61625-5.8372 9.8049-3.2323 8.0992 1.4548z" enable-background="new" fill="none" filter="url(#cc)" stroke="url(#au)" stroke-width="1.0898"/></g><g id="t" transform="matrix(.60542 0 .055271 .60985 25.291 6.3506)" clip-path="url(#x)"><path d="m122.4 39.3c-2.134 0.52539-3.3709 2.5098-2.7733 4.4494 2.5104 4.9508 4.8138 8.5487 5.6697 13.8l7.3043-0.0016c-0.74381-6.022-1.5113-11.674-4.7075-17.13-1.0965-1.8262-3.3592-1.6424-5.4932-1.117z" enable-background="new" fill="url(#m)"/><path transform="matrix(1 0 .010089 .88949 -.43735 4.7906)" d="m123.39 43.691c-1.4541 0.39389-1.5576 0.88161-1.1637 2.3357 2.423 5.3689 4.7993 10.038 4.1752 16.713 0.39388 1.4541 1.8816 2.3076 3.3357 1.9137 1.4541-0.39388 0.43262-1.2566 0.0387-2.7107-0.54366-6.0443-2.0357-12.232-4.8402-17.598-0.7338-1.3691-0.0916-1.0478-1.5457-0.65386z" enable-background="new" fill="url(#l)" filter="url(#v)" opacity=".31053"/><path transform="rotate(15.157)" d="m130.04 4.3983c3.6194-0.39433 5.2041 2.8824 5.0532 3.5852-2.6536 7.7337-2.3582 17.963-0.78928 26.202 0 2.216-0.59915 3.5495-3.4741 4.1165-2.2102 0.43591-3.74-0.30037-4.3309-3.0038-1.3035-7.5293-2.1336-19.06-0.65746-26.198 0.40609-1.9638 2.0034-4.4621 4.1985-4.7013z" enable-background="new" fill="url(#k)"/><circle transform="matrix(1.2924 0 0 1.2924 -34.732 -18.732)" cx="120.62" cy="48.25" r="3" enable-background="new" fill="url(#h)"/><path transform="matrix(.45833 0 0 .45833 66.328 22.135)" d="m123.62 48.25a3 3 0 0 1-2.9139 2.9988 3 3 0 0 1-3.0811-2.8267 3 3 0 0 1 2.7371-3.161 3 3 0 0 1 3.2382 2.6453l-2.9803 0.34356z" enable-background="new" fill="#fff"/><path d="m115.6 52.052-3.0232 16.823c-0.32939 3.873 7.9685 3.7133 8.1136 0.125 0.2445-4.4577 1.4269-10.502 2.7732-16.823-2.2319-2.3513-4.7915-2.656-7.8636-0.125z" enable-background="new" fill="url(#r)" opacity=".50526"/><path transform="matrix(1 0 -.11036 1.2089 5.6488 9.1929)" d="m120.56 24c-1.8777 0.14579-3.507 1.5799-4.1562 2.875-2.6975 5.3804-3.8904 14.769-3.9062 21.062 0.11588 2.2863 1.5196 3.2138 3.7812 3.3438 2.9418 0.16907 3.7721-0.76193 4.1562-2.5312-0.0745-4.1609 0.40913-8.809 1.6875-13.062 0.78346 1.3391 5.4512 12.731 5.9375 14.312h6.3125c-1.2936-4.9815-5.5869-19.642-9.2812-24.156-0.28993-0.34672-0.6516-0.59302-1.0312-0.78125-0.0288-0.02091-0.0641-0.04196-0.0937-0.0625-0.65402-0.45368-1.5031-0.82885-2.5938-0.96875-0.27658-0.03548-0.54426-0.05208-0.8125-0.03125z" enable-background="new" fill="none" filter="url(#w)" stroke="url(#q)" stroke-width="1.1035"/></g><use transform="translate(-14.745)" width="400" height="300" xlink:href="#t"/><use transform="translate(-29.745)" width="400" height="300" xlink:href="#t"/></g></g></g></g></svg>
