<?xml version="1.0" encoding="UTF-8"?>
<svg enable-background="new" version="1.0" viewBox="0 0 256 256" xmlns="http://www.w3.org/2000/svg" xmlns:xlink="http://www.w3.org/1999/xlink"><defs><filter id="am" x="-.1638" y="-1.3576" width="1.3276" height="3.7152" color-interpolation-filters="sRGB"><feGaussianBlur stdDeviation="6.5052645"/></filter><filter id="an" x="-.045228" y="-.37485" width="1.0905" height="1.7497" color-interpolation-filters="sRGB"><feGaussianBlur stdDeviation="1.7961743"/></filter><filter id="aq" color-interpolation-filters="sRGB"><feGaussianBlur stdDeviation="0.37"/></filter><linearGradient id="c"><stop offset="0"/><stop stop-opacity=".47895" offset="1"/></linearGradient><clipPath id="au"><path d="m119 314 1 20.558c0.65135 13.39-8 16.93-18 21.767-1.0288 0.49763-2 1.0787-2 2.4186v3.6279c0 3.6279 8 3.6279 15 3.6279h66c7 0 15 0 15-3.6279v-3.6279c0-1.3399-0.97125-1.921-2-2.4186-10-4.8372-18.651-8.3769-18-21.767l1-20.558z" enable-background="new" fill-rule="evenodd"/></clipPath><filter id="ao" color-interpolation-filters="sRGB"><feGaussianBlur stdDeviation="0.745"/></filter><clipPath id="av"><rect x="36" y="-270" width="224" height="148" rx="2.125" ry="2.125" enable-background="new" fill-rule="evenodd"/></clipPath><filter id="al" color-interpolation-filters="sRGB"><feGaussianBlur stdDeviation="0.92999989"/></filter><linearGradient id="a"><stop stop-color="#fff" offset="0"/><stop stop-color="#fff" stop-opacity="0" offset="1"/></linearGradient><linearGradient id="b"><stop stop-color="#888a85" offset="0"/><stop stop-color="#fff" offset=".031264"/><stop stop-color="#d3d7cf" offset=".19533"/><stop stop-color="#babdb6" offset=".82031"/><stop stop-color="#fff" offset=".95833"/><stop stop-color="#888a85" offset="1"/></linearGradient><filter id="d" x="-.864" y="-.006042" width="2.728" height="1.0121" color-interpolation-filters="sRGB"><feGaussianBlur stdDeviation="0.36"/></filter><clipPath id="ax"><path d="m240 211c-1.6616 0-3 1.3384-3 3v4h10v-4c0-1.6616-1.3384-3-3-3z" enable-background="new"/></clipPath><filter id="ar" color-interpolation-filters="sRGB"><feGaussianBlur stdDeviation="0.2548"/></filter><clipPath id="aw"><rect x="44" y="362" width="208" height="124" enable-background="new" fill-rule="evenodd"/></clipPath><filter id="ap" color-interpolation-filters="sRGB"><feGaussianBlur stdDeviation="1.6762502"/></filter><linearGradient id="w" x1="88" x2="178" y1="44.5" y2="202.5" gradientUnits="userSpaceOnUse"><stop stop-color="#fff" offset="0"/><stop stop-color="#fff" stop-opacity="0" offset="1"/></linearGradient><radialGradient id="e" cx="943" cy="174.71" r="104" gradientTransform="matrix(3.0225 0 0 1.242 -1907.2 -105.53)" gradientUnits="userSpaceOnUse"><stop stop-color="#babdb6" offset="0"/><stop stop-color="#555753" offset="1"/></radialGradient><clipPath id="at"><path d="m1122 58.018s-1.1676 1.4821-1.1677 3.4509v18.408h-18c-2 0-3.4312 1.4934-3.4312 1.4934z" color="#000000" enable-background="accumulate" fill="url(#u)" stroke="url(#t)" stroke-linecap="round" stroke-linejoin="round" stroke-width=".56497"/></clipPath><linearGradient id="u" x1="1110.9" x2="1121.8" y1="70.275" y2="81.214" gradientUnits="userSpaceOnUse"><stop stop-color="#d3d7cf" offset="0"/><stop stop-color="#fff" offset=".086097"/><stop stop-color="#f1d19f" offset=".27058"/><stop stop-color="#eeeeec" offset="1"/></linearGradient><linearGradient id="t" x1="1119.7" x2="1120.5" y1="60.745" y2="61.61" gradientUnits="userSpaceOnUse"><stop stop-color="#888a85" offset="0"/><stop stop-color="#babdb6" offset="1"/></linearGradient><filter id="ak" color-interpolation-filters="sRGB"><feGaussianBlur stdDeviation="0.33757045"/></filter><linearGradient id="s" x1="1110.5" x2="1126.9" y1="70.042" y2="85.89" gradientUnits="userSpaceOnUse"><stop stop-color="#babdb6" offset="0"/><stop stop-color="#fff" offset=".014688"/><stop stop-color="#f8e8cf" offset=".042944"/><stop stop-color="#f1d19f" offset=".067219"/><stop stop-color="#f8e8cf" offset=".31054"/><stop stop-color="#fff" offset=".59113"/><stop stop-color="#fff" offset="1"/></linearGradient><linearGradient id="v" x1="1111.6" x2="1110.1" y1="70.402" y2="68.896" gradientUnits="userSpaceOnUse"><stop offset="0"/><stop stop-opacity="0" offset="1"/></linearGradient><radialGradient id="r" cx="112.47" cy="37.365" r="19" gradientTransform="matrix(19.609 -5.0581e-8 1.4485e-8 5.6155 -1256.4 -14.511)" gradientUnits="userSpaceOnUse"><stop stop-color="#264e02" offset="0"/><stop stop-color="#4e9a06" offset="1"/></radialGradient><filter id="aj" x="-.1076" y="-1.6069" width="1.2152" height="4.2137"><feGaussianBlur stdDeviation="10.042965"/></filter><clipPath id="as"><path d="m964 72-120 124h208v-124z" color="#000000" enable-background="new" fill="none" stroke="#000"/></clipPath><linearGradient id="ai" x1="141.5" x2="141.5" y1="250.75" y2="201.4" gradientTransform="translate(0,2)" gradientUnits="userSpaceOnUse"><stop stop-color="#d3d7cf" offset="0"/><stop stop-color="#979894" offset=".11059"/><stop stop-color="#d3d7cf" offset=".21475"/><stop stop-color="#fff" offset=".35913"/><stop stop-color="#555753" offset="1"/></linearGradient><radialGradient id="q" cx="111.15" cy="242.44" r="48" gradientTransform="matrix(2.4969 2.147e-7 0 .69156 -172.03 81.838)" gradientUnits="userSpaceOnUse"><stop stop-color="#fff" offset="0"/><stop stop-color="#fff" stop-opacity="0" offset="1"/></radialGradient><linearGradient id="ah" x1="142.25" x2="142.25" y1="203.96" y2="224.5" gradientTransform="translate(0,2)" gradientUnits="userSpaceOnUse"><stop offset="0"/><stop stop-opacity=".31507" offset=".59851"/><stop stop-opacity="0" offset="1"/></linearGradient><linearGradient id="ag" x1="176.42" x2="176.42" y1="357.42" y2="373.22" gradientUnits="userSpaceOnUse" xlink:href="#c"/><radialGradient id="p" cx="160.53" cy="145.73" r="112" gradientTransform="matrix(1.6172 -.5392 1.2857 3.9546 -266.96 -316.17)" gradientUnits="userSpaceOnUse"><stop stop-color="#fff" offset="0"/><stop stop-color="#959595" offset="1"/></radialGradient><linearGradient id="af" x1="44" x2="125.5" y1="71.25" y2="207.5" gradientUnits="userSpaceOnUse"><stop offset="0"/><stop stop-opacity="0" offset="1"/></linearGradient><linearGradient id="ae" x1="77.5" x2="70.5" y1="-121.5" y2="-453.5" gradientUnits="userSpaceOnUse" xlink:href="#c"/><radialGradient id="o" cx="131.58" cy="71.691" r="111.81" gradientTransform="matrix(2.5458 1.0381 -.60658 1.5009 -170.84 -182.76)" gradientUnits="userSpaceOnUse"><stop stop-color="#fff" offset="0"/><stop stop-color="#fff" stop-opacity="0" offset="1"/></radialGradient><radialGradient id="n" cx="158.95" cy="-282.64" r="105" gradientTransform="matrix(1.8205 -1.8205 .4646 .4646 -42.803 223.08)" gradientUnits="userSpaceOnUse" xlink:href="#a"/><radialGradient id="m" cx="-253.64" cy="134.03" r=".49998" gradientTransform="matrix(92.4 -92.4 282.89 282.89 -14732 -61203)" gradientUnits="userSpaceOnUse"><stop stop-color="#fff" offset="0"/><stop stop-color="#fff" stop-opacity="0" offset="1"/></radialGradient><linearGradient id="ad" x1="99.999" x2="196" y1="251.5" y2="251.5" gradientTransform="translate(0,2)" gradientUnits="userSpaceOnUse" xlink:href="#b"/><linearGradient id="ac" x1="99.999" x2="196" y1="251.5" y2="251.5" gradientTransform="matrix(1 0 0 .62353 0 95.376)" gradientUnits="userSpaceOnUse" xlink:href="#b"/><radialGradient id="l" cx="130.45" cy="244.43" r="48" gradientTransform="matrix(3.0284 .89944 -.17992 .6058 -215.38 -17.893)" gradientUnits="userSpaceOnUse"><stop stop-color="#fff" offset="0"/><stop stop-color="#fff" stop-opacity="0" offset="1"/></radialGradient><radialGradient id="k" cx="103.88" cy="250" r="1.5" gradientUnits="userSpaceOnUse"><stop stop-color="#fff" offset="0"/><stop stop-color="#fff" offset=".52789"/><stop stop-color="#fff" stop-opacity="0" offset="1"/></radialGradient><radialGradient id="j" cx="36.778" cy="134.52" r="1" gradientTransform="matrix(24.674 184.17 -78.655 42.151 9708.6 -12332)" gradientUnits="userSpaceOnUse" xlink:href="#a"/><radialGradient id="i" cx="36.807" cy="134.6" r="1" gradientTransform="matrix(24.674 184.17 -78.655 42.151 9927.6 -12332)" gradientUnits="userSpaceOnUse" xlink:href="#a"/><radialGradient id="h" cx="103.88" cy="250" r="1.5" gradientUnits="userSpaceOnUse"><stop stop-color="#fff" offset="0"/><stop stop-color="#fff" offset=".59524"/><stop stop-color="#fff" stop-opacity="0" offset="1"/></radialGradient><linearGradient id="ab" x1="148" x2="148" y1="284.6" y2="224.4" gradientUnits="userSpaceOnUse"><stop stop-opacity="0" offset="0"/><stop offset=".5"/><stop stop-opacity="0" offset="1"/></linearGradient><radialGradient id="g" cx="176.82" cy="-212.64" r="105" gradientTransform="matrix(1.9032 -1.8205 .48572 .4646 -51.477 215.19)" gradientUnits="userSpaceOnUse" xlink:href="#a"/><linearGradient id="aa" x1="241.39" x2="242" y1="204" y2="206.97" gradientUnits="userSpaceOnUse"><stop offset="0"/><stop stop-opacity="0" offset="1"/></linearGradient><linearGradient id="z" x1="242.01" x2="242.01" y1="206.02" y2="207.75" gradientUnits="userSpaceOnUse"><stop stop-color="#888a85" offset="0"/><stop stop-color="#2e3436" offset=".56766"/><stop stop-color="#555753" offset="1"/></linearGradient><radialGradient id="f" cx="238.94" cy="200.75" r="5" gradientTransform="matrix(1.6127 0 0 .95 -146.4 11.162)" gradientUnits="userSpaceOnUse"><stop stop-color="#fff" offset="0"/><stop stop-color="#fff" stop-opacity="0" offset="1"/></radialGradient><linearGradient id="y" x1="241.48" x2="241.48" y1="205" y2="207" gradientUnits="userSpaceOnUse"><stop stop-color="#888a85" offset="0"/><stop stop-color="#888a85" stop-opacity="0" offset="1"/></linearGradient><linearGradient id="x" x1="236.6" x2="237.52" y1="212.53" y2="220.51" gradientUnits="userSpaceOnUse"><stop offset="0"/><stop stop-opacity="0" offset="1"/></linearGradient></defs><g transform="translate(-820,-28)"><g><g transform="translate(800 -.00023)" enable-background="new"><path transform="matrix(1.0577 0 0 1.1304 -8.5403 -31.522)" d="m115.16 245.5c-3.3412 3.2448-8.0762 5.3552-13.156 7.8125-0.65659 0.31761-1.2841 0.68883-1.6562 1.25 1.627 2.4304 8.5312 2.4375 14.656 2.4375h66c6.125 0 13.029-7e-3 14.656-2.4375-0.37218-0.56117-0.99967-0.93239-1.6562-1.25-5.0801-2.4573-9.8151-4.5677-13.156-7.8125z" enable-background="new" fill-rule="evenodd" filter="url(#am)" opacity=".3"/><path transform="matrix(1.0577 0 0 1.1304 -8.5403 -31.522)" d="m115.16 245.5c-3.3412 3.2448-8.0762 5.3552-13.156 7.8125-0.65659 0.31761-1.2841 0.68883-1.6562 1.25 1.627 2.4304 8.5312 2.4375 14.656 2.4375h66c6.125 0 13.029-7e-3 14.656-2.4375-0.37218-0.56117-0.99967-0.93239-1.6562-1.25-5.0801-2.4573-9.8151-4.5677-13.156-7.8125z" enable-background="new" fill-rule="evenodd" filter="url(#an)"/><path d="m119 206 1 20.558c0.65135 13.39-8 16.93-18 21.767-1.0288 0.49763-2 1.0787-2 2.4186v3.6279c0 3.6279 8 3.6279 15 3.6279h66c7 0 15 0 15-3.6279v-3.6279c0-1.3399-0.97125-1.921-2-2.4186-10-4.8372-18.651-8.3769-18-21.767l1-20.558z" enable-background="new" fill="url(#ai)" fill-rule="evenodd"/><path transform="translate(0,2)" d="m119.48 204.46 0.97656 20.08c0.33058 6.7961-1.7368 11.202-5.1504 14.439-3.4136 3.237-8.1168 5.3311-13.109 7.7461-0.5002 0.24196-0.95339 0.49935-1.2578 0.81055s-0.48242 0.65432-0.48242 1.2129v3.625c0 0.73754 0.36065 1.243 1.1328 1.7012 0.77216 0.45816 1.9465 0.79404 3.3535 1.0156 2.8141 0.44316 6.5527 0.44726 10.053 0.44726h66c3.5001 0 7.2387-4e-3 10.053-0.44726 1.407-0.22159 2.5814-0.55747 3.3535-1.0156 0.77216-0.45815 1.1328-0.96363 1.1328-1.7012v-3.625c0-0.55857-0.178-0.90169-0.48242-1.2129s-0.75762-0.56859-1.2578-0.81055c-4.9926-2.415-9.6958-4.5091-13.109-7.7461-3.4136-3.237-5.481-7.6433-5.1504-14.439l0.97656-20.08-176.52-204.46z" enable-background="new" fill="url(#q)" fill-rule="evenodd" filter="url(#aq)" opacity=".507"/><path d="m119 206 1 20.5h56l1-20.5z" enable-background="new" fill="url(#ah)" fill-rule="evenodd" opacity=".35"/><path transform="translate(0,-108)" d="m119 314 1 20.558c0.65135 13.39-8 16.93-18 21.767-1.0288 0.49763-2 1.0787-2 2.4186v3.6279c0 3.6279 8 3.6279 15 3.6279h66c7 0 15 0 15-3.6279v-3.6279c0-1.3399-0.97125-1.921-2-2.4186-10-4.8372-18.651-8.3769-18-21.767l1-20.558z" clip-path="url(#au)" enable-background="new" fill="none" filter="url(#ao)" stroke="url(#ag)" stroke-dashoffset=".7" stroke-linecap="round" stroke-linejoin="round"/><rect x="36" y="58.121" width="224" height="149.88" rx="2.125" ry="2.152" enable-background="new" fill="url(#p)" fill-rule="evenodd"/><rect x="43" y="71" width="210" height="126" enable-background="new" fill="url(#af)" fill-rule="evenodd" opacity=".3"/><path transform="matrix(1 0 0 1.0128 0 331.58)" d="m38.125-270h219.75c1.1772 0 2.125 0.94775 2.125 2.125v143.75c0 1.1772-0.94775 2.125-2.125 2.125h-219.75c-1.1772 0-2.125-0.94775-2.125-2.125v-143.75c0-1.1772 0.94775-2.125 2.125-2.125z" clip-path="url(#av)" enable-background="new" fill="none" filter="url(#al)" opacity=".7" stroke="url(#ae)" stroke-width="1.9873"/><path d="m37.108 60.781c-0.15331 0.16441-0.30919 0.32395-0.40443 0.53125 0.25059 0.46766 0.73275 0.78125 1.3066 0.78125h220.01c0.57388 0 1.056-0.31359 1.3066-0.78125-0.0952-0.2073-0.25112-0.36684-0.40443-0.53125-0.2479 0.19308-0.55526 0.3125-0.9022 0.3125h-220.01c-0.34694 0-0.6543-0.11942-0.9022-0.3125z" enable-background="new" fill="url(#o)" fill-rule="evenodd"/><rect transform="scale(1,-1)" x="43" y="-198.11" width="210" height="1" enable-background="new" fill="url(#n)" fill-rule="evenodd"/><rect transform="scale(-1,1)" x="-254" y="71" width=".99995" height="126" enable-background="new" fill="url(#m)" fill-rule="evenodd"/><path d="m100.09 250.03c-0.07084 0.21323-0.09375 0.44986-0.09375 0.71875v3.625c-3e-6 3.6279 8 3.625 15 3.625h66c7 0 15 3e-3 15-3.625v-3.625c0-0.26889-0.0229-0.50552-0.0937-0.71875-0.94203 2.9616-8.3641 2.9688-14.906 2.9688h-66c-6.5422 0-13.964-7e-3 -14.906-2.9688z" enable-background="new" fill="url(#ad)" fill-rule="evenodd"/><path d="m100.09 250.03c-0.0708 0.13296-0.0937 0.2805-0.0937 0.44816v2.2603c0 2.2621 8 2.2603 15 2.2603h66c7 0 15 2e-3 15-2.2603v-2.2603c0-0.16766-0.0229-0.3152-0.0937-0.44816-0.94198 1.8467-8.364 1.8511-14.906 1.8511h-66c-6.5422 0-13.964-4e-3 -14.906-1.8511z" enable-background="new" fill="url(#ac)" fill-rule="evenodd"/><path d="m100.09 250.03c0.94198 2.9616 8.364 2.9688 14.906 2.9688h66c6.5422 0 13.964-7e-3 14.906-2.9688-0.94198 1.8467-8.364 1.8438-14.906 1.8438h-66c-6.5422 0-13.964 3e-3 -14.906-1.8438zm0 0c-0.0553 0.10371-0.0537 0.21967-0.0625 0.34375 0.0146-0.11942 0.0271-0.23713 0.0625-0.34375zm-0.0625 0.34375c-2e-3 0.035-0.0313 0.0569-0.0313 0.0937v0.28125c0-0.13445 0.0167-0.25558 0.0313-0.375zm95.875-0.34375c0.0354 0.10662 0.0479 0.22433 0.0625 0.34375-9e-3 -0.12407-7e-3 -0.24004-0.0625-0.34375zm0.0625 0.34375c0.0146 0.11942 0.0313 0.24055 0.0313 0.375v-0.28125c0-0.0369-0.0288-0.0588-0.0313-0.0937z" enable-background="new" fill="url(#l)" fill-rule="evenodd" opacity=".75"/><path d="m100 253.84v0.53125c-3e-6 3.6279 8 3.625 15 3.625h66c7 0 15 3e-3 15-3.625v-0.53125c0 3.1726-8 3.1562-15 3.1562h-66c-7 0-15 0.0164-15-3.1562z" enable-background="new" fill-rule="evenodd" opacity=".19178"/><circle transform="matrix(1.75 0 0 1.75 -77.906 -185.5)" cx="103.88" cy="250" r="1.5" enable-background="new" fill="url(#k)"/><rect transform="matrix(1 0 0 1.0074 0 -.99761)" x="38" y="63" width="1" height="143" rx=".5" ry="1" enable-background="new" fill="url(#j)" filter="url(#d)"/><rect transform="matrix(1 0 0 -1.0074 1 270)" x="257" y="63" width="1" height="143" rx=".5" ry="1" enable-background="new" fill="url(#i)" filter="url(#d)" opacity=".38356"/><circle transform="matrix(1.0429 0 0 1.0429 83.428 -8.9001)" cx="103.88" cy="250" r="1.5" enable-background="new" fill="url(#h)"/><rect transform="matrix(.93622 0 0 .70422 9.4392 83.777)" x="36" y="247" width="224" height="15" rx="0" ry="0" enable-background="new" fill="url(#ab)" fill-rule="evenodd" filter="url(#aj)" opacity=".081618"/><rect transform="scale(1,-1)" x="38.227" y="-206" width="219.55" height="1" enable-background="new" fill="url(#g)" fill-rule="evenodd" opacity=".3653"/><path d="m240 200c-2.1996 0-4 1.8004-4 4v4h12v-4c0-2.1996-1.8004-4-4-4z" enable-background="new" fill="url(#aa)" opacity=".18265"/><path d="m240 201c-1.6616 0-3 1.3384-3 3v4h10v-4c0-1.6616-1.3384-3-3-3z" enable-background="new" fill="url(#z)"/><path d="m240 201c-1.6616 0-3 1.3384-3 3v4h10v-4c0-1.6616-1.3384-3-3-3z" enable-background="new" fill="url(#f)" opacity=".55708"/><path transform="matrix(1 0 0 .75 0 51.75)" d="m240 203c-0.58774 0-1 0.41226-1 1v3h6v-3c0-0.58774-0.41226-1-1-1z" enable-background="new" fill="url(#y)"/><path transform="translate(0,-10)" d="m240 211.32c-1.6616 0-3 1.3384-3 3v6.6768h10v-6.6768c0-1.6616-1.3384-3-3-3z" clip-path="url(#ax)" enable-background="new" fill="none" filter="url(#ar)" opacity=".65" stroke="url(#x)" stroke-linecap="round" stroke-width=".8"/></g><rect x="844" y="72" width="208" height="124" color="#000000" enable-background="new" fill="url(#r)" fill-rule="evenodd"/><g clip-path="url(#as)" fill="#fff" opacity=".15"><path d="m971 72.5s-2.5 2.7441-2.5 6.9999c0 2.7903 0.88624 4.919 1.2969 7.4999h2.4218c0.4106-2.5809 1.2812-4.7097 1.2812-7.4999 0-4.2559-2.5-6.9999-2.5-6.9999zm-8.3905 7.5468c-0.96559 0-2.6289 0.95312-2.6094 2.9531 0.0195 2 2 3 2 3-0.9013-3.6051 3.4705-1.9283 4.3437 0.99999h1.9687c-0.39295-3.1874-1.8178-6.9531-5.7031-6.9531zm16.797 0c-3.8854 0-5.3257 3.7656-5.7187 6.9531h1.9844c0.87315-2.9283 5.2294-4.6051 4.3281-0.99999 0 0 1.9805-0.99999 2-3 0.0195-2-1.6282-2.9531-2.5937-2.9531zm-13.906 7.9531v3h11.016v-3zm0.95309 4c-0.0891 1.2628-0.32565 2.3874-0.95309 3.5 1.0222-0.6815 1.9976-1.8151 2.5312-3.5zm3.6563 0c0.25674 3.412 0.89059 6.9999 0.89059 6.9999h0.0155s0.63389-3.588 0.89064-6.9999zm3.875 0c0.53349 1.6849 1.509 2.8185 2.5312 3.5-0.6273-1.1126-0.86405-2.2372-0.95309-3.5z" color="#bebebe" enable-background="accumulate"/><path d="m971 110.5s-2.5 2.7441-2.5 7c0 2.7903 0.88624 4.919 1.2969 7.4999h2.4218c0.4106-2.5809 1.2812-4.7097 1.2812-7.4999 0-4.2559-2.5-7-2.5-7zm-8.3905 7.5468c-0.96559 0-2.6289 0.95312-2.6094 2.9531 0.0195 2 2 3 2 3-0.9013-3.6051 3.4705-1.9283 4.3437 0.99999h1.9687c-0.39295-3.1874-1.8178-6.9531-5.7031-6.9531zm16.797 0c-3.8854 0-5.3257 3.7656-5.7187 6.9531h1.9844c0.87315-2.9283 5.2294-4.6051 4.3281-0.99999 0 0 1.9805-0.99999 2-3 0.0195-2-1.6282-2.9531-2.5937-2.9531zm-13.906 7.9531v3h11.016v-3zm0.95309 4c-0.0891 1.2628-0.32565 2.3874-0.95309 3.5 1.0222-0.68151 1.9976-1.8151 2.5312-3.5zm3.6563 0c0.25674 3.412 0.89059 6.9999 0.89059 6.9999h0.0155s0.63389-3.588 0.89064-6.9999zm3.875 0c0.53349 1.6849 1.509 2.8185 2.5312 3.5-0.6273-1.1126-0.86405-2.2372-0.95309-3.5z" color="#bebebe" enable-background="accumulate"/><path d="m971 148.5s-2.5 2.7441-2.5 7c0 2.7903 0.88624 4.919 1.2969 7.4999h2.4218c0.4106-2.5809 1.2812-4.7097 1.2812-7.4999 0-4.2559-2.5-7-2.5-7zm-8.3905 7.5468c-0.96559 0-2.6289 0.95312-2.6094 2.9531 0.0195 2 2 3 2 3-0.9013-3.6051 3.4705-1.9283 4.3437 0.99999h1.9687c-0.39295-3.1874-1.8178-6.9531-5.7031-6.9531zm16.797 0c-3.8854 0-5.3257 3.7656-5.7187 6.9531h1.9844c0.87315-2.9283 5.2294-4.6051 4.3281-0.99999 0 0 1.9805-0.99999 2-3 0.0195-2-1.6282-2.9531-2.5937-2.9531zm-13.906 7.9531v3h11.016v-3zm0.95309 4c-0.0891 1.2628-0.32565 2.3874-0.95309 3.5 1.0222-0.6815 1.9976-1.8151 2.5312-3.5zm3.6563 0c0.25674 3.412 0.89059 6.9999 0.89059 6.9999h0.0155s0.63389-3.588 0.89064-6.9999zm3.875 0c0.53349 1.6849 1.509 2.8185 2.5312 3.5-0.6273-1.1126-0.86405-2.2372-0.95309-3.5z" color="#bebebe" enable-background="accumulate"/><path d="m971 186.5s-2.5 2.7441-2.5 7c0 2.7903 0.88624 4.919 1.2969 7.4999h2.4218c0.4106-2.5809 1.2812-4.7097 1.2812-7.4999 0-4.2559-2.5-7-2.5-7zm-8.3905 7.5468c-0.96559 0-2.6289 0.95312-2.6094 2.9531 0.0195 2 2 3 2 3-0.9013-3.6051 3.4705-1.9283 4.3437 0.99999h1.9687c-0.39295-3.1874-1.8178-6.9531-5.7031-6.9531zm16.797 0c-3.8854 0-5.3257 3.7656-5.7187 6.9531h1.9844c0.87315-2.9283 5.2294-4.6051 4.3281-0.99999 0 0 1.9805-0.99999 2-3 0.0195-2-1.6282-2.9531-2.5937-2.9531zm-13.906 7.9531v3h11.016v-3zm0.95309 4c-0.0891 1.2628-0.32565 2.3874-0.95309 3.5 1.0222-0.6815 1.9976-1.8151 2.5312-3.5zm3.6563 0c0.25674 3.412 0.89059 6.9999 0.89059 6.9999h0.0155s0.63389-3.588 0.89064-6.9999zm3.875 0c0.53349 1.6849 1.509 2.8185 2.5312 3.5-0.6273-1.1126-0.86405-2.2372-0.95309-3.5z" color="#bebebe" enable-background="accumulate"/><path d="m994 92.5s-2.5 2.7441-2.5 6.9999c0 2.7903 0.88624 4.919 1.2969 7.4999h2.4218c0.4106-2.5809 1.2812-4.7097 1.2812-7.4999 0-4.2559-2.5-6.9999-2.5-6.9999zm-8.3905 7.5468c-0.96559 0-2.6289 0.95312-2.6094 2.9531 0.0195 2 2 3 2 3-0.9013-3.6051 3.4705-1.9283 4.3437 0.99999h1.9687c-0.39295-3.1874-1.8178-6.9531-5.7031-6.9531zm16.797 0c-3.8854 0-5.3257 3.7656-5.7187 6.9531h1.9844c0.87315-2.9283 5.2294-4.6051 4.328-0.99999 0 0 1.9805-0.99999 2-3 0.019-2-1.6282-2.9531-2.5937-2.9531zm-13.906 7.9531v3h11.016v-3zm0.95309 4c-0.0891 1.2628-0.32565 2.3874-0.95309 3.5 1.0222-0.6815 1.9976-1.8151 2.5312-3.5zm3.6563 0c0.25674 3.412 0.89059 6.9999 0.89059 6.9999h0.0155s0.63389-3.588 0.89064-6.9999zm3.875 0c0.53349 1.6849 1.509 2.8185 2.5312 3.5-0.6273-1.1126-0.86405-2.2372-0.95309-3.5z" color="#bebebe" enable-background="accumulate"/><path d="m994 130.5s-2.5 2.7441-2.5 7c0 2.7903 0.88624 4.919 1.2969 7.4999h2.4218c0.4106-2.5809 1.2812-4.7097 1.2812-7.4999 0-4.2559-2.5-7-2.5-7zm-8.3905 7.5468c-0.96559 0-2.6289 0.95312-2.6094 2.9531 0.0195 2 2 3 2 3-0.9013-3.6051 3.4705-1.9283 4.3437 0.99999h1.9687c-0.39295-3.1874-1.8178-6.9531-5.7031-6.9531zm16.797 0c-3.8854 0-5.3257 3.7656-5.7187 6.9531h1.9844c0.87315-2.9283 5.2294-4.6051 4.328-0.99999 0 0 1.9805-0.99999 2-3 0.019-2-1.6282-2.9531-2.5937-2.9531zm-13.906 7.9531v3h11.016v-3zm0.95309 4c-0.0891 1.2628-0.32565 2.3874-0.95309 3.5 1.0222-0.68151 1.9976-1.8151 2.5312-3.5zm3.6563 0c0.25674 3.412 0.89059 6.9999 0.89059 6.9999h0.0155s0.63389-3.588 0.89064-6.9999zm3.875 0c0.53349 1.6849 1.509 2.8185 2.5312 3.5-0.6273-1.1126-0.86405-2.2372-0.95309-3.5z" color="#bebebe" enable-background="accumulate"/><path d="m994 168.5s-2.5 2.7441-2.5 7c0 2.7903 0.88624 4.919 1.2969 7.4999h2.4218c0.4106-2.5809 1.2812-4.7097 1.2812-7.4999 0-4.2559-2.5-7-2.5-7zm-8.3905 7.5468c-0.96559 0-2.6289 0.95312-2.6094 2.9531 0.0195 2 2 3 2 3-0.9013-3.6051 3.4705-1.9283 4.3437 0.99999h1.9687c-0.39295-3.1874-1.8178-6.9531-5.7031-6.9531zm16.797 0c-3.8854 0-5.3257 3.7656-5.7187 6.9531h1.9844c0.87315-2.9283 5.2294-4.6051 4.328-0.99999 0 0 1.9805-0.99999 2-3 0.019-2-1.6282-2.9531-2.5937-2.9531zm-13.906 7.9531v3h11.016v-3zm0.95309 4c-0.0891 1.2628-0.32565 2.3874-0.95309 3.5 1.0222-0.6815 1.9976-1.8151 2.5312-3.5zm3.6563 0c0.25674 3.412 0.89059 6.9999 0.89059 6.9999h0.0155s0.63389-3.588 0.89064-6.9999zm3.875 0c0.53349 1.6849 1.509 2.8185 2.5312 3.5-0.6273-1.1126-0.86405-2.2372-0.95309-3.5z" color="#bebebe" enable-background="accumulate"/><path d="m994 206.5s-2.5 2.7441-2.5 7c0 2.7903 0.88624 4.919 1.2969 7.4999h2.4218c0.4106-2.5809 1.2812-4.7097 1.2812-7.4999 0-4.2559-2.5-7-2.5-7zm-8.3905 7.5468c-0.96559 0-2.6289 0.95312-2.6094 2.9531 0.0195 2 2 3 2 3-0.9013-3.6051 3.4705-1.9283 4.3437 0.99999h1.9687c-0.39295-3.1874-1.8178-6.9531-5.7031-6.9531zm16.797 0c-3.8854 0-5.3257 3.7656-5.7187 6.9531h1.9844c0.87315-2.9283 5.2294-4.6051 4.328-0.99999 0 0 1.9805-0.99999 2-3 0.019-2-1.6282-2.9531-2.5937-2.9531zm-13.906 7.9531v3h11.016v-3zm0.95309 4c-0.0891 1.2628-0.32565 2.3874-0.95309 3.5 1.0222-0.6815 1.9976-1.8151 2.5312-3.5zm3.6563 0c0.25674 3.412 0.89059 6.9999 0.89059 6.9999h0.0155s0.63389-3.588 0.89064-6.9999zm3.875 0c0.53349 1.6849 1.509 2.8185 2.5312 3.5-0.6273-1.1126-0.86405-2.2372-0.95309-3.5z" color="#bebebe" enable-background="accumulate"/><path d="m1017 72.5s-2.5 2.7441-2.5 6.9999c0 2.7903 0.8862 4.919 1.2969 7.4999h2.4218c0.4106-2.5809 1.2813-4.7097 1.2813-7.4999 0-4.2559-2.5-6.9999-2.5-6.9999zm-8.3905 7.5468c-0.9656 0-2.6289 0.95312-2.6094 2.9531 0.019 2 2 3 2 3-0.9013-3.6051 3.4704-1.9283 4.3437 0.99999h1.9687c-0.3929-3.1874-1.8178-6.9531-5.703-6.9531zm16.797 0c-3.8854 0-5.3257 3.7656-5.7187 6.9531h1.9844c0.8731-2.9283 5.2293-4.6051 4.328-0.99999 0 0 1.9805-0.99999 2-3 0.02-2-1.6282-2.9531-2.5937-2.9531zm-13.906 7.9531v3h11.016v-3zm0.9531 4c-0.089 1.2628-0.3256 2.3874-0.9531 3.5 1.0223-0.6815 1.9977-1.8151 2.5313-3.5zm3.6563 0c0.2567 3.412 0.8906 6.9999 0.8906 6.9999h0.015s0.6339-3.588 0.8906-6.9999zm3.875 0c0.5335 1.6849 1.509 2.8185 2.5311 3.5-0.6273-1.1126-0.864-2.2372-0.953-3.5z" color="#bebebe" enable-background="accumulate"/><path d="m1017 110.5s-2.5 2.7441-2.5 7c0 2.7903 0.8862 4.919 1.2969 7.4999h2.4218c0.4106-2.5809 1.2813-4.7097 1.2813-7.4999 0-4.2559-2.5-7-2.5-7zm-8.3905 7.5468c-0.9656 0-2.6289 0.95312-2.6094 2.9531 0.019 2 2 3 2 3-0.9013-3.6051 3.4704-1.9283 4.3437 0.99999h1.9687c-0.3929-3.1874-1.8178-6.9531-5.703-6.9531zm16.797 0c-3.8854 0-5.3257 3.7656-5.7187 6.9531h1.9844c0.8731-2.9283 5.2293-4.6051 4.328-0.99999 0 0 1.9805-0.99999 2-3 0.02-2-1.6282-2.9531-2.5937-2.9531zm-13.906 7.9531v3h11.016v-3zm0.9531 4c-0.089 1.2628-0.3256 2.3874-0.9531 3.5 1.0223-0.68151 1.9977-1.8151 2.5313-3.5zm3.6563 0c0.2567 3.412 0.8906 6.9999 0.8906 6.9999h0.015s0.6339-3.588 0.8906-6.9999zm3.875 0c0.5335 1.6849 1.509 2.8185 2.5311 3.5-0.6273-1.1126-0.864-2.2372-0.953-3.5z" color="#bebebe" enable-background="accumulate"/><path d="m1017 148.5s-2.5 2.7441-2.5 7c0 2.7903 0.8862 4.919 1.2969 7.4999h2.4218c0.4106-2.5809 1.2813-4.7097 1.2813-7.4999 0-4.2559-2.5-7-2.5-7zm-8.3905 7.5468c-0.9656 0-2.6289 0.95312-2.6094 2.9531 0.019 2 2 3 2 3-0.9013-3.6051 3.4704-1.9283 4.3437 0.99999h1.9687c-0.3929-3.1874-1.8178-6.9531-5.703-6.9531zm16.797 0c-3.8854 0-5.3257 3.7656-5.7187 6.9531h1.9844c0.8731-2.9283 5.2293-4.6051 4.328-0.99999 0 0 1.9805-0.99999 2-3 0.02-2-1.6282-2.9531-2.5937-2.9531zm-13.906 7.9531v3h11.016v-3zm0.9531 4c-0.089 1.2628-0.3256 2.3874-0.9531 3.5 1.0223-0.6815 1.9977-1.8151 2.5313-3.5zm3.6563 0c0.2567 3.412 0.8906 6.9999 0.8906 6.9999h0.015s0.6339-3.588 0.8906-6.9999zm3.875 0c0.5335 1.6849 1.509 2.8185 2.5311 3.5-0.6273-1.1126-0.864-2.2372-0.953-3.5z" color="#bebebe" enable-background="accumulate"/><path d="m1017 186.5s-2.5 2.7441-2.5 7c0 2.7903 0.8862 4.919 1.2969 7.4999h2.4218c0.4106-2.5809 1.2813-4.7097 1.2813-7.4999 0-4.2559-2.5-7-2.5-7zm-8.3905 7.5468c-0.9656 0-2.6289 0.95312-2.6094 2.9531 0.019 2 2 3 2 3-0.9013-3.6051 3.4704-1.9283 4.3437 0.99999h1.9687c-0.3929-3.1874-1.8178-6.9531-5.703-6.9531zm16.797 0c-3.8854 0-5.3257 3.7656-5.7187 6.9531h1.9844c0.8731-2.9283 5.2293-4.6051 4.328-0.99999 0 0 1.9805-0.99999 2-3 0.02-2-1.6282-2.9531-2.5937-2.9531zm-13.906 7.9531v3h11.016v-3zm0.9531 4c-0.089 1.2628-0.3256 2.3874-0.9531 3.5 1.0223-0.6815 1.9977-1.8151 2.5313-3.5zm3.6563 0c0.2567 3.412 0.8906 6.9999 0.8906 6.9999h0.015s0.6339-3.588 0.8906-6.9999zm3.875 0c0.5335 1.6849 1.509 2.8185 2.5311 3.5-0.6273-1.1126-0.864-2.2372-0.953-3.5z" color="#bebebe" enable-background="accumulate"/><path d="m1040 92.5s-2.5 2.7441-2.5 6.9999c0 2.7903 0.8863 4.919 1.2969 7.4999h2.4218c0.4106-2.5809 1.2813-4.7097 1.2813-7.4999 0-4.2559-2.5-6.9999-2.5-6.9999zm-8.3905 7.5468c-0.9656 0-2.6289 0.95312-2.6094 2.9531 0.02 2 2 3 2 3-0.9013-3.6051 3.4704-1.9283 4.3437 0.99999h1.9687c-0.3929-3.1874-1.8178-6.9531-5.703-6.9531zm16.797 0c-3.8854 0-5.3257 3.7656-5.7187 6.9531h1.9844c0.8731-2.9283 5.2293-4.6051 4.328-0.99999 0 0 1.9805-0.99999 2-3 0.02-2-1.6282-2.9531-2.5937-2.9531zm-13.906 7.9531v3h11.016v-3zm0.9531 4c-0.089 1.2628-0.3256 2.3874-0.9531 3.5 1.0223-0.6815 1.9977-1.8151 2.5313-3.5zm3.6563 0c0.2567 3.412 0.8906 6.9999 0.8906 6.9999h0.015s0.6339-3.588 0.8906-6.9999zm3.875 0c0.5335 1.6849 1.509 2.8185 2.5311 3.5-0.6272-1.1126-0.864-2.2372-0.953-3.5z" color="#bebebe" enable-background="accumulate"/><path d="m1040 130.5s-2.5 2.7441-2.5 7c0 2.7903 0.8863 4.919 1.2969 7.4999h2.4218c0.4106-2.5809 1.2813-4.7097 1.2813-7.4999 0-4.2559-2.5-7-2.5-7zm-8.3905 7.5468c-0.9656 0-2.6289 0.95312-2.6094 2.9531 0.02 2 2 3 2 3-0.9013-3.6051 3.4704-1.9283 4.3437 0.99999h1.9687c-0.3929-3.1874-1.8178-6.9531-5.703-6.9531zm16.797 0c-3.8854 0-5.3257 3.7656-5.7187 6.9531h1.9844c0.8731-2.9283 5.2293-4.6051 4.328-0.99999 0 0 1.9805-0.99999 2-3 0.02-2-1.6282-2.9531-2.5937-2.9531zm-13.906 7.9531v3h11.016v-3zm0.9531 4c-0.089 1.2628-0.3256 2.3874-0.9531 3.5 1.0223-0.68151 1.9977-1.8151 2.5313-3.5zm3.6563 0c0.2567 3.412 0.8906 6.9999 0.8906 6.9999h0.015s0.6339-3.588 0.8906-6.9999zm3.875 0c0.5335 1.6849 1.509 2.8185 2.5311 3.5-0.6272-1.1126-0.864-2.2372-0.953-3.5z" color="#bebebe" enable-background="accumulate"/><path d="m1040 168.5s-2.5 2.7441-2.5 7c0 2.7903 0.8863 4.919 1.2969 7.4999h2.4218c0.4106-2.5809 1.2813-4.7097 1.2813-7.4999 0-4.2559-2.5-7-2.5-7zm-8.3905 7.5468c-0.9656 0-2.6289 0.95312-2.6094 2.9531 0.02 2 2 3 2 3-0.9013-3.6051 3.4704-1.9283 4.3437 0.99999h1.9687c-0.3929-3.1874-1.8178-6.9531-5.703-6.9531zm16.797 0c-3.8854 0-5.3257 3.7656-5.7187 6.9531h1.9844c0.8731-2.9283 5.2293-4.6051 4.328-0.99999 0 0 1.9805-0.99999 2-3 0.02-2-1.6282-2.9531-2.5937-2.9531zm-13.906 7.9531v3h11.016v-3zm0.9531 4c-0.089 1.2628-0.3256 2.3874-0.9531 3.5 1.0223-0.6815 1.9977-1.8151 2.5313-3.5zm3.6563 0c0.2567 3.412 0.8906 6.9999 0.8906 6.9999h0.015s0.6339-3.588 0.8906-6.9999zm3.875 0c0.5335 1.6849 1.509 2.8185 2.5311 3.5-0.6272-1.1126-0.864-2.2372-0.953-3.5z" color="#bebebe" enable-background="accumulate"/><path d="m1040 206.5s-2.5 2.7441-2.5 7c0 2.7903 0.8863 4.919 1.2969 7.4999h2.4218c0.4106-2.5809 1.2813-4.7097 1.2813-7.4999 0-4.2559-2.5-7-2.5-7zm-8.3905 7.5468c-0.9656 0-2.6289 0.95312-2.6094 2.9531 0.02 2 2 3 2 3-0.9013-3.6051 3.4704-1.9283 4.3437 0.99999h1.9687c-0.3929-3.1874-1.8178-6.9531-5.703-6.9531zm16.797 0c-3.8854 0-5.3257 3.7656-5.7187 6.9531h1.9844c0.8731-2.9283 5.2293-4.6051 4.328-0.99999 0 0 1.9805-0.99999 2-3 0.02-2-1.6282-2.9531-2.5937-2.9531zm-13.906 7.9531v3h11.016v-3zm0.9531 4c-0.089 1.2628-0.3256 2.3874-0.9531 3.5 1.0223-0.6815 1.9977-1.8151 2.5313-3.5zm3.6563 0c0.2567 3.412 0.8906 6.9999 0.8906 6.9999h0.015s0.6339-3.588 0.8906-6.9999zm3.875 0c0.5335 1.6849 1.509 2.8185 2.5311 3.5-0.6272-1.1126-0.864-2.2372-0.953-3.5z" color="#bebebe" enable-background="accumulate"/><path d="m878 72.5s-2.5 2.7441-2.5 6.9999c0 2.7903 0.88624 4.919 1.2969 7.4999h2.4218c0.4106-2.5809 1.2812-4.7097 1.2812-7.4999 0-4.2559-2.5-6.9999-2.5-6.9999zm-8.3905 7.5468c-0.96559 0-2.6289 0.95312-2.6094 2.9531 0.0195 2 2 3 2 3-0.9013-3.6051 3.4705-1.9283 4.3437 0.99999h1.9687c-0.39295-3.1874-1.8178-6.9531-5.7031-6.9531zm16.797 0c-3.8854 0-5.3257 3.7656-5.7187 6.9531h1.9844c0.87315-2.9283 5.2294-4.6051 4.3281-0.99999 0 0 1.9805-0.99999 2-3 0.0195-2-1.6282-2.9531-2.5937-2.9531zm-13.906 7.9531v3h11.016v-3zm0.95309 4c-0.0891 1.2628-0.32565 2.3874-0.95309 3.5 1.0222-0.6815 1.9976-1.8151 2.5312-3.5zm3.6563 0c0.25674 3.412 0.89059 6.9999 0.89059 6.9999h0.0155s0.63389-3.588 0.89064-6.9999zm3.875 0c0.53349 1.6849 1.509 2.8185 2.5312 3.5-0.6273-1.1126-0.86405-2.2372-0.95309-3.5z" color="#bebebe" enable-background="accumulate"/><path d="m878 110.5s-2.5 2.7441-2.5 7c0 2.7903 0.88624 4.919 1.2969 7.4999h2.4218c0.4106-2.5809 1.2812-4.7097 1.2812-7.4999 0-4.2559-2.5-7-2.5-7zm-8.3905 7.5468c-0.96559 0-2.6289 0.95312-2.6094 2.9531 0.0195 2 2 3 2 3-0.9013-3.6051 3.4705-1.9283 4.3437 0.99999h1.9687c-0.39295-3.1874-1.8178-6.9531-5.7031-6.9531zm16.797 0c-3.8854 0-5.3257 3.7656-5.7187 6.9531h1.9844c0.87315-2.9283 5.2294-4.6051 4.3281-0.99999 0 0 1.9805-0.99999 2-3 0.0195-2-1.6282-2.9531-2.5937-2.9531zm-13.906 7.9531v3h11.016v-3zm0.95309 4c-0.0891 1.2628-0.32565 2.3874-0.95309 3.5 1.0222-0.68151 1.9976-1.8151 2.5312-3.5zm3.6563 0c0.25674 3.412 0.89059 6.9999 0.89059 6.9999h0.0155s0.63389-3.588 0.89064-6.9999zm3.875 0c0.53349 1.6849 1.509 2.8185 2.5312 3.5-0.6273-1.1126-0.86405-2.2372-0.95309-3.5z" color="#bebebe" enable-background="accumulate"/><path d="m878 148.5s-2.5 2.7441-2.5 7c0 2.7903 0.88624 4.919 1.2969 7.4999h2.4218c0.4106-2.5809 1.2812-4.7097 1.2812-7.4999 0-4.2559-2.5-7-2.5-7zm-8.3905 7.5468c-0.96559 0-2.6289 0.95312-2.6094 2.9531 0.0195 2 2 3 2 3-0.9013-3.6051 3.4705-1.9283 4.3437 0.99999h1.9687c-0.39295-3.1874-1.8178-6.9531-5.7031-6.9531zm16.797 0c-3.8854 0-5.3257 3.7656-5.7187 6.9531h1.9844c0.87315-2.9283 5.2294-4.6051 4.3281-0.99999 0 0 1.9805-0.99999 2-3 0.0195-2-1.6282-2.9531-2.5937-2.9531zm-13.906 7.9531v3h11.016v-3zm0.95309 4c-0.0891 1.2628-0.32565 2.3874-0.95309 3.5 1.0222-0.6815 1.9976-1.8151 2.5312-3.5zm3.6563 0c0.25674 3.412 0.89059 6.9999 0.89059 6.9999h0.0155s0.63389-3.588 0.89064-6.9999zm3.875 0c0.53349 1.6849 1.509 2.8185 2.5312 3.5-0.6273-1.1126-0.86405-2.2372-0.95309-3.5z" color="#bebebe" enable-background="accumulate"/><path d="m878 186.5s-2.5 2.7441-2.5 7c0 2.7903 0.88624 4.919 1.2969 7.4999h2.4218c0.4106-2.5809 1.2812-4.7097 1.2812-7.4999 0-4.2559-2.5-7-2.5-7zm-8.3905 7.5468c-0.96559 0-2.6289 0.95312-2.6094 2.9531 0.0195 2 2 3 2 3-0.9013-3.6051 3.4705-1.9283 4.3437 0.99999h1.9687c-0.39295-3.1874-1.8178-6.9531-5.7031-6.9531zm16.797 0c-3.8854 0-5.3257 3.7656-5.7187 6.9531h1.9844c0.87315-2.9283 5.2294-4.6051 4.3281-0.99999 0 0 1.9805-0.99999 2-3 0.0195-2-1.6282-2.9531-2.5937-2.9531zm-13.906 7.9531v3h11.016v-3zm0.95309 4c-0.0891 1.2628-0.32565 2.3874-0.95309 3.5 1.0222-0.6815 1.9976-1.8151 2.5312-3.5zm3.6563 0c0.25674 3.412 0.89059 6.9999 0.89059 6.9999h0.0155s0.63389-3.588 0.89064-6.9999zm3.875 0c0.53349 1.6849 1.509 2.8185 2.5312 3.5-0.6273-1.1126-0.86405-2.2372-0.95309-3.5z" color="#bebebe" enable-background="accumulate"/><path d="m901 92.5s-2.5 2.7441-2.5 6.9999c0 2.7903 0.88624 4.919 1.2969 7.4999h2.4218c0.4106-2.5809 1.2812-4.7097 1.2812-7.4999 0-4.2559-2.5-6.9999-2.5-6.9999zm-8.3905 7.5468c-0.96559 0-2.6289 0.95312-2.6094 2.9531 0.0195 2 2 3 2 3-0.9013-3.6051 3.4705-1.9283 4.3437 0.99999h1.9687c-0.39295-3.1874-1.8178-6.9531-5.7031-6.9531zm16.797 0c-3.8854 0-5.3257 3.7656-5.7187 6.9531h1.9844c0.87315-2.9283 5.2294-4.6051 4.3281-0.99999 0 0 1.9805-0.99999 2-3 0.0195-2-1.6282-2.9531-2.5937-2.9531zm-13.906 7.9531v3h11.016v-3zm0.95309 4c-0.0891 1.2628-0.32565 2.3874-0.95309 3.5 1.0222-0.6815 1.9976-1.8151 2.5312-3.5zm3.6563 0c0.25674 3.412 0.89059 6.9999 0.89059 6.9999h0.0155s0.63389-3.588 0.89064-6.9999zm3.875 0c0.53349 1.6849 1.509 2.8185 2.5312 3.5-0.6273-1.1126-0.86405-2.2372-0.95309-3.5z" color="#bebebe" enable-background="accumulate"/><path d="m901 130.5s-2.5 2.7441-2.5 7c0 2.7903 0.88624 4.919 1.2969 7.4999h2.4218c0.4106-2.5809 1.2812-4.7097 1.2812-7.4999 0-4.2559-2.5-7-2.5-7zm-8.3905 7.5468c-0.96559 0-2.6289 0.95312-2.6094 2.9531 0.0195 2 2 3 2 3-0.9013-3.6051 3.4705-1.9283 4.3437 0.99999h1.9687c-0.39295-3.1874-1.8178-6.9531-5.7031-6.9531zm16.797 0c-3.8854 0-5.3257 3.7656-5.7187 6.9531h1.9844c0.87315-2.9283 5.2294-4.6051 4.3281-0.99999 0 0 1.9805-0.99999 2-3 0.0195-2-1.6282-2.9531-2.5937-2.9531zm-13.906 7.9531v3h11.016v-3zm0.95309 4c-0.0891 1.2628-0.32565 2.3874-0.95309 3.5 1.0222-0.68151 1.9976-1.8151 2.5312-3.5zm3.6563 0c0.25674 3.412 0.89059 6.9999 0.89059 6.9999h0.0155s0.63389-3.588 0.89064-6.9999zm3.875 0c0.53349 1.6849 1.509 2.8185 2.5312 3.5-0.6273-1.1126-0.86405-2.2372-0.95309-3.5z" color="#bebebe" enable-background="accumulate"/><path d="m901 168.5s-2.5 2.7441-2.5 7c0 2.7903 0.88624 4.919 1.2969 7.4999h2.4218c0.4106-2.5809 1.2812-4.7097 1.2812-7.4999 0-4.2559-2.5-7-2.5-7zm-8.3905 7.5468c-0.96559 0-2.6289 0.95312-2.6094 2.9531 0.0195 2 2 3 2 3-0.9013-3.6051 3.4705-1.9283 4.3437 0.99999h1.9687c-0.39295-3.1874-1.8178-6.9531-5.7031-6.9531zm16.797 0c-3.8854 0-5.3257 3.7656-5.7187 6.9531h1.9844c0.87315-2.9283 5.2294-4.6051 4.3281-0.99999 0 0 1.9805-0.99999 2-3 0.0195-2-1.6282-2.9531-2.5937-2.9531zm-13.906 7.9531v3h11.016v-3zm0.95309 4c-0.0891 1.2628-0.32565 2.3874-0.95309 3.5 1.0222-0.6815 1.9976-1.8151 2.5312-3.5zm3.6563 0c0.25674 3.412 0.89059 6.9999 0.89059 6.9999h0.0155s0.63389-3.588 0.89064-6.9999zm3.875 0c0.53349 1.6849 1.509 2.8185 2.5312 3.5-0.6273-1.1126-0.86405-2.2372-0.95309-3.5z" color="#bebebe" enable-background="accumulate"/><path d="m901 206.5s-2.5 2.7441-2.5 7c0 2.7903 0.88624 4.919 1.2969 7.4999h2.4218c0.4106-2.5809 1.2812-4.7097 1.2812-7.4999 0-4.2559-2.5-7-2.5-7zm-8.3905 7.5468c-0.96559 0-2.6289 0.95312-2.6094 2.9531 0.0195 2 2 3 2 3-0.9013-3.6051 3.4705-1.9283 4.3437 0.99999h1.9687c-0.39295-3.1874-1.8178-6.9531-5.7031-6.9531zm16.797 0c-3.8854 0-5.3257 3.7656-5.7187 6.9531h1.9844c0.87315-2.9283 5.2294-4.6051 4.3281-0.99999 0 0 1.9805-0.99999 2-3 0.0195-2-1.6282-2.9531-2.5937-2.9531zm-13.906 7.9531v3h11.016v-3zm0.95309 4c-0.0891 1.2628-0.32565 2.3874-0.95309 3.5 1.0222-0.6815 1.9976-1.8151 2.5312-3.5zm3.6563 0c0.25674 3.412 0.89059 6.9999 0.89059 6.9999h0.0155s0.63389-3.588 0.89064-6.9999zm3.875 0c0.53349 1.6849 1.509 2.8185 2.5312 3.5-0.6273-1.1126-0.86405-2.2372-0.95309-3.5z" color="#bebebe" enable-background="accumulate"/><path d="m924 72.5s-2.5 2.7441-2.5 6.9999c0 2.7903 0.88624 4.919 1.2969 7.4999h2.4218c0.4106-2.5809 1.2812-4.7097 1.2812-7.4999 0-4.2559-2.5-6.9999-2.5-6.9999zm-8.3905 7.5468c-0.96559 0-2.6289 0.95312-2.6094 2.9531 0.0195 2 2 3 2 3-0.9013-3.6051 3.4705-1.9283 4.3437 0.99999h1.9687c-0.39295-3.1874-1.8178-6.9531-5.7031-6.9531zm16.797 0c-3.8854 0-5.3257 3.7656-5.7187 6.9531h1.9844c0.87315-2.9283 5.2294-4.6051 4.3281-0.99999 0 0 1.9805-0.99999 2-3 0.0195-2-1.6282-2.9531-2.5937-2.9531zm-13.906 7.9531v3h11.016v-3zm0.95309 4c-0.0891 1.2628-0.32565 2.3874-0.95309 3.5 1.0222-0.6815 1.9976-1.8151 2.5312-3.5zm3.6563 0c0.25674 3.412 0.89059 6.9999 0.89059 6.9999h0.0155s0.63389-3.588 0.89064-6.9999zm3.875 0c0.53349 1.6849 1.509 2.8185 2.5312 3.5-0.6273-1.1126-0.86405-2.2372-0.95309-3.5z" color="#bebebe" enable-background="accumulate"/><path d="m924 110.5s-2.5 2.7441-2.5 7c0 2.7903 0.88624 4.919 1.2969 7.4999h2.4218c0.4106-2.5809 1.2812-4.7097 1.2812-7.4999 0-4.2559-2.5-7-2.5-7zm-8.3905 7.5468c-0.96559 0-2.6289 0.95312-2.6094 2.9531 0.0195 2 2 3 2 3-0.9013-3.6051 3.4705-1.9283 4.3437 0.99999h1.9687c-0.39295-3.1874-1.8178-6.9531-5.7031-6.9531zm16.797 0c-3.8854 0-5.3257 3.7656-5.7187 6.9531h1.9844c0.87315-2.9283 5.2294-4.6051 4.3281-0.99999 0 0 1.9805-0.99999 2-3 0.0195-2-1.6282-2.9531-2.5937-2.9531zm-13.906 7.9531v3h11.016v-3zm0.95309 4c-0.0891 1.2628-0.32565 2.3874-0.95309 3.5 1.0222-0.68151 1.9976-1.8151 2.5312-3.5zm3.6563 0c0.25674 3.412 0.89059 6.9999 0.89059 6.9999h0.0155s0.63389-3.588 0.89064-6.9999zm3.875 0c0.53349 1.6849 1.509 2.8185 2.5312 3.5-0.6273-1.1126-0.86405-2.2372-0.95309-3.5z" color="#bebebe" enable-background="accumulate"/><path d="m924 148.5s-2.5 2.7441-2.5 7c0 2.7903 0.88624 4.919 1.2969 7.4999h2.4218c0.4106-2.5809 1.2812-4.7097 1.2812-7.4999 0-4.2559-2.5-7-2.5-7zm-8.3905 7.5468c-0.96559 0-2.6289 0.95312-2.6094 2.9531 0.0195 2 2 3 2 3-0.9013-3.6051 3.4705-1.9283 4.3437 0.99999h1.9687c-0.39295-3.1874-1.8178-6.9531-5.7031-6.9531zm16.797 0c-3.8854 0-5.3257 3.7656-5.7187 6.9531h1.9844c0.87315-2.9283 5.2294-4.6051 4.3281-0.99999 0 0 1.9805-0.99999 2-3 0.0195-2-1.6282-2.9531-2.5937-2.9531zm-13.906 7.9531v3h11.016v-3zm0.95309 4c-0.0891 1.2628-0.32565 2.3874-0.95309 3.5 1.0222-0.6815 1.9976-1.8151 2.5312-3.5zm3.6563 0c0.25674 3.412 0.89059 6.9999 0.89059 6.9999h0.0155s0.63389-3.588 0.89064-6.9999zm3.875 0c0.53349 1.6849 1.509 2.8185 2.5312 3.5-0.6273-1.1126-0.86405-2.2372-0.95309-3.5z" color="#bebebe" enable-background="accumulate"/><path d="m924 186.5s-2.5 2.7441-2.5 7c0 2.7903 0.88624 4.919 1.2969 7.4999h2.4218c0.4106-2.5809 1.2812-4.7097 1.2812-7.4999 0-4.2559-2.5-7-2.5-7zm-8.3905 7.5468c-0.96559 0-2.6289 0.95312-2.6094 2.9531 0.0195 2 2 3 2 3-0.9013-3.6051 3.4705-1.9283 4.3437 0.99999h1.9687c-0.39295-3.1874-1.8178-6.9531-5.7031-6.9531zm16.797 0c-3.8854 0-5.3257 3.7656-5.7187 6.9531h1.9844c0.87315-2.9283 5.2294-4.6051 4.3281-0.99999 0 0 1.9805-0.99999 2-3 0.0195-2-1.6282-2.9531-2.5937-2.9531zm-13.906 7.9531v3h11.016v-3zm0.95309 4c-0.0891 1.2628-0.32565 2.3874-0.95309 3.5 1.0222-0.6815 1.9976-1.8151 2.5312-3.5zm3.6563 0c0.25674 3.412 0.89059 6.9999 0.89059 6.9999h0.0155s0.63389-3.588 0.89064-6.9999zm3.875 0c0.53349 1.6849 1.509 2.8185 2.5312 3.5-0.6273-1.1126-0.86405-2.2372-0.95309-3.5z" color="#bebebe" enable-background="accumulate"/><path d="m947 92.5s-2.5 2.7441-2.5 6.9999c0 2.7903 0.88624 4.919 1.2969 7.4999h2.4218c0.4106-2.5809 1.2812-4.7097 1.2812-7.4999 0-4.2559-2.5-6.9999-2.5-6.9999zm-8.3905 7.5468c-0.96559 0-2.6289 0.95312-2.6094 2.9531 0.0195 2 2 3 2 3-0.9013-3.6051 3.4705-1.9283 4.3437 0.99999h1.9687c-0.39295-3.1874-1.8178-6.9531-5.7031-6.9531zm16.797 0c-3.8854 0-5.3257 3.7656-5.7187 6.9531h1.9844c0.87315-2.9283 5.2294-4.6051 4.3281-0.99999 0 0 1.9805-0.99999 2-3 0.0195-2-1.6282-2.9531-2.5937-2.9531zm-13.906 7.9531v3h11.016v-3zm0.95309 4c-0.0891 1.2628-0.32565 2.3874-0.95309 3.5 1.0222-0.6815 1.9976-1.8151 2.5312-3.5zm3.6563 0c0.25674 3.412 0.89059 6.9999 0.89059 6.9999h0.0155s0.63389-3.588 0.89064-6.9999zm3.875 0c0.53349 1.6849 1.509 2.8185 2.5312 3.5-0.6273-1.1126-0.86405-2.2372-0.95309-3.5z" color="#bebebe" enable-background="accumulate"/><path d="m947 130.5s-2.5 2.7441-2.5 7c0 2.7903 0.88624 4.919 1.2969 7.4999h2.4218c0.4106-2.5809 1.2812-4.7097 1.2812-7.4999 0-4.2559-2.5-7-2.5-7zm-8.3905 7.5468c-0.96559 0-2.6289 0.95312-2.6094 2.9531 0.0195 2 2 3 2 3-0.9013-3.6051 3.4705-1.9283 4.3437 0.99999h1.9687c-0.39295-3.1874-1.8178-6.9531-5.7031-6.9531zm16.797 0c-3.8854 0-5.3257 3.7656-5.7187 6.9531h1.9844c0.87315-2.9283 5.2294-4.6051 4.3281-0.99999 0 0 1.9805-0.99999 2-3 0.0195-2-1.6282-2.9531-2.5937-2.9531zm-13.906 7.9531v3h11.016v-3zm0.95309 4c-0.0891 1.2628-0.32565 2.3874-0.95309 3.5 1.0222-0.68151 1.9976-1.8151 2.5312-3.5zm3.6563 0c0.25674 3.412 0.89059 6.9999 0.89059 6.9999h0.0155s0.63389-3.588 0.89064-6.9999zm3.875 0c0.53349 1.6849 1.509 2.8185 2.5312 3.5-0.6273-1.1126-0.86405-2.2372-0.95309-3.5z" color="#bebebe" enable-background="accumulate"/><path d="m947 168.5s-2.5 2.7441-2.5 7c0 2.7903 0.88624 4.919 1.2969 7.4999h2.4218c0.4106-2.5809 1.2812-4.7097 1.2812-7.4999 0-4.2559-2.5-7-2.5-7zm-8.3905 7.5468c-0.96559 0-2.6289 0.95312-2.6094 2.9531 0.0195 2 2 3 2 3-0.9013-3.6051 3.4705-1.9283 4.3437 0.99999h1.9687c-0.39295-3.1874-1.8178-6.9531-5.7031-6.9531zm16.797 0c-3.8854 0-5.3257 3.7656-5.7187 6.9531h1.9844c0.87315-2.9283 5.2294-4.6051 4.3281-0.99999 0 0 1.9805-0.99999 2-3 0.0195-2-1.6282-2.9531-2.5937-2.9531zm-13.906 7.9531v3h11.016v-3zm0.95309 4c-0.0891 1.2628-0.32565 2.3874-0.95309 3.5 1.0222-0.6815 1.9976-1.8151 2.5312-3.5zm3.6563 0c0.25674 3.412 0.89059 6.9999 0.89059 6.9999h0.0155s0.63389-3.588 0.89064-6.9999zm3.875 0c0.53349 1.6849 1.509 2.8185 2.5312 3.5-0.6273-1.1126-0.86405-2.2372-0.95309-3.5z" color="#bebebe" enable-background="accumulate"/><path d="m947 206.5s-2.5 2.7441-2.5 7c0 2.7903 0.88624 4.919 1.2969 7.4999h2.4218c0.4106-2.5809 1.2812-4.7097 1.2812-7.4999 0-4.2559-2.5-7-2.5-7zm-8.3905 7.5468c-0.96559 0-2.6289 0.95312-2.6094 2.9531 0.0195 2 2 3 2 3-0.9013-3.6051 3.4705-1.9283 4.3437 0.99999h1.9687c-0.39295-3.1874-1.8178-6.9531-5.7031-6.9531zm16.797 0c-3.8854 0-5.3257 3.7656-5.7187 6.9531h1.9844c0.87315-2.9283 5.2294-4.6051 4.3281-0.99999 0 0 1.9805-0.99999 2-3 0.0195-2-1.6282-2.9531-2.5937-2.9531zm-13.906 7.9531v3h11.016v-3zm0.95309 4c-0.0891 1.2628-0.32565 2.3874-0.95309 3.5 1.0222-0.6815 1.9976-1.8151 2.5312-3.5zm3.6563 0c0.25674 3.412 0.89059 6.9999 0.89059 6.9999h0.0155s0.63389-3.588 0.89064-6.9999zm3.875 0c0.53349 1.6849 1.509 2.8185 2.5312 3.5-0.6273-1.1126-0.86405-2.2372-0.95309-3.5z" color="#bebebe" enable-background="accumulate"/><path d="m855 168.5s-2.5 2.7441-2.5 7c0 2.7903 0.88624 4.919 1.2969 7.4999h2.4218c0.4106-2.5809 1.2812-4.7097 1.2812-7.4999 0-4.2559-2.5-7-2.5-7zm-8.3905 7.5468c-0.96559 0-2.6289 0.95312-2.6094 2.9531 0.0195 2 2 3 2 3-0.9013-3.6051 3.4705-1.9283 4.3437 0.99999h1.9687c-0.39295-3.1874-1.8178-6.9531-5.7031-6.9531zm16.797 0c-3.8854 0-5.3257 3.7656-5.7187 6.9531h1.9844c0.87315-2.9283 5.2294-4.6051 4.3281-0.99999 0 0 1.9805-0.99999 2-3 0.0195-2-1.6282-2.9531-2.5937-2.9531zm-13.906 7.9531v3h11.016v-3zm0.95309 4c-0.0891 1.2628-0.32565 2.3874-0.95309 3.5 1.0222-0.6815 1.9976-1.8151 2.5312-3.5zm3.6563 0c0.25674 3.412 0.89059 6.9999 0.89059 6.9999h0.0155s0.63389-3.588 0.89064-6.9999zm3.875 0c0.53349 1.6849 1.509 2.8185 2.5312 3.5-0.6273-1.1126-0.86405-2.2372-0.95309-3.5z" color="#bebebe" enable-background="accumulate"/></g><path d="m844 72h120l-120 124z" enable-background="new" fill="url(#e)" fill-rule="evenodd"/><g transform="translate(1030 3e-5)" enable-background="new"><rect transform="translate(-230,-290)" x="44" y="362" width="208.75" height="125" clip-path="url(#aw)" enable-background="new" fill="none" filter="url(#ap)" opacity=".6" stroke="#000"/><g transform="translate(-230)"><rect x="44" y="72" width="208" height="124" enable-background="new" fill="url(#w)" fill-rule="evenodd" opacity=".19178"/></g></g><g transform="matrix(5.31 0 0 5.31 -4994.1 -236.08)" enable-background="new"><path d="m1121.9 58.206s-0.9793 1.3409-0.9793 3.2625v18.408h-18c-2 0-3.2429 1.1168-3.2429 1.1168" color="#000000" enable-background="accumulate" fill="none" filter="url(#ak)" stroke="url(#v)" stroke-linejoin="round" stroke-width=".56497"/><path d="m1121.9 58.206s-0.9792 1.2938-0.9793 3.2625v18.408h-18c-2 0-3.2429 1.1168-3.2429 1.1168z" clip-path="url(#at)" color="#000000" enable-background="accumulate" fill="url(#s)"/></g></g></g></svg>
