<?xml version="1.0" encoding="UTF-8"?>
<svg enable-background="new" version="1.0" viewBox="0 0 256 256" xmlns="http://www.w3.org/2000/svg" xmlns:xlink="http://www.w3.org/1999/xlink"><defs><filter id="l" x="-.15294" y="-1.2777" width="1.3059" height="3.5554" color-interpolation-filters="sRGB"><feGaussianBlur stdDeviation="12.776994"/></filter><filter id="m" x="-.076471" y="-.63885" width="1.1529" height="2.2777" color-interpolation-filters="sRGB"><feGaussianBlur stdDeviation="6.388497"/></filter><clipPath id="r"><rect x="56" y="60" width="184" height="184" rx="25.053" ry="25.053" enable-background="new" fill="url(#radialGradient4319)" fill-rule="evenodd"/></clipPath><linearGradient id="i" x1="131.5" x2="131.5" y1="234.5" y2="206.98" gradientTransform="translate(0,1)" gradientUnits="userSpaceOnUse"><stop stop-color="#fff" offset="0"/><stop stop-color="#fff" stop-opacity="0" offset="1"/></linearGradient><filter id="q" x="-.036813" y="-.1621" width="1.0736" height="1.3242" color-interpolation-filters="sRGB"><feGaussianBlur stdDeviation="2.6382812"/></filter><radialGradient id="d" cx="132" cy="272.15" r="92.332" gradientTransform="matrix(2.0831 0 0 .22596 -158.48 172.97)" gradientUnits="userSpaceOnUse"><stop stop-color="#fff" offset="0"/><stop stop-color="#fff" stop-opacity="0" offset="1"/></radialGradient><filter id="p" color-interpolation-filters="sRGB"><feGaussianBlur stdDeviation="0.98531245"/></filter><radialGradient id="c" cx="148" cy="152" r="90" gradientTransform="matrix(4.0735 .53629 -.11022 .83722 -438.13 -54.628)" gradientUnits="userSpaceOnUse"><stop stop-color="#fff" offset="0"/><stop stop-color="#fff" stop-opacity="0" offset="1"/></radialGradient><filter id="o" color-interpolation-filters="sRGB"><feGaussianBlur stdDeviation="0.83"/></filter><linearGradient id="h" x1="195.48" x2="100.52" y1="234.24" y2="69.761" gradientUnits="userSpaceOnUse"><stop stop-color="#2e3436" offset="0"/><stop stop-color="#888a85" offset="1"/></linearGradient><filter id="n" color-interpolation-filters="sRGB"><feGaussianBlur stdDeviation="0.91999947"/></filter><radialGradient id="b" cx="17.321" cy="6.8679" r="20.531" gradientTransform="matrix(13.339 1.2973e-6 -3.2848e-7 3.3774 -169.04 33.206)" gradientUnits="userSpaceOnUse"><stop stop-color="#fff" offset="0"/><stop stop-color="#d4d4d4" offset="1"/></radialGradient><clipPath id="a"><rect x="356.91" y="40.098" width="310" height="33.446" rx="16.84" ry="16.546" fill="#202626"/></clipPath><linearGradient id="g" x1="150.33" x2="150.33" y1="662.28" y2="649.31" gradientUnits="userSpaceOnUse"><stop stop-color="#adafab" offset="0"/><stop stop-color="#676965" offset="1"/></linearGradient><filter id="k" x="-.020415" y="-.3296" width="1.0408" height="1.6592"><feGaussianBlur stdDeviation="2.6844556"/></filter><filter id="j"><feGaussianBlur stdDeviation="0.69716526"/></filter><linearGradient id="f" x1="869.93" x2="869.93" y1="69.418" y2="45" gradientTransform="matrix(1.1182 0 0 1.6141 -58.113 -36.137)" gradientUnits="userSpaceOnUse"><stop stop-color="#f4f4f4" offset="0"/><stop stop-color="#889d9d" offset="1"/></linearGradient><linearGradient id="e" x1="1117.4" x2="1117.4" y1="78.206" y2="43.398" gradientUnits="userSpaceOnUse"><stop stop-color="#b3b9b2" offset="0"/><stop stop-color="#cdd0cc" offset="1"/></linearGradient></defs><g transform="translate(-20 -28)"><g transform="matrix(1.1951 0 0 1.1951 -28.827 -27.422)" enable-background="new"><rect transform="matrix(.97878 0 0 .71207 3.1357 75.352)" x="47.5" y="222" width="200.5" height="24" rx="24.216" ry="11.605" color="#000000" enable-background="accumulate" filter="url(#l)" opacity=".28862"/><rect transform="matrix(.8303 0 0 .45081 24.074 135.99)" x="47.5" y="222" width="200.5" height="24" rx="28.547" ry="18.33" color="#000000" enable-background="accumulate" filter="url(#m)" opacity=".81707"/><g clip-path="url(#r)"><rect x="56" y="60" width="184" height="184" rx="25.053" ry="25.053" fill="url(#b)" fill-rule="evenodd"/><path d="m62 189.94v30c0 10.657 8.4058 19.062 19.062 19.062h133.88c10.657 0 19.062-8.4058 19.062-19.062v-30c0 10.657-8.4058 19.062-19.062 19.062h-133.88c-10.657 0-19.062-8.4058-19.062-19.062z" enable-background="new" fill="url(#i)" fill-rule="evenodd" filter="url(#q)"/><path transform="matrix(1 0 0 -1 0 300.94)" d="m62 212.94v6c0 10.657 8.4058 19.062 19.062 19.062h133.87c10.657 0 19.062-8.4058 19.062-19.062v-6c0 10.657-8.4058 19.062-19.062 19.062h-133.87c-10.657 0-19.062-8.4058-19.062-19.062z" enable-background="new" fill="url(#d)" fill-rule="evenodd" filter="url(#p)"/><path d="m60 76c-1.108 0-2 0.892-2 2v148c0 1.108 0.892 2 2 2s2-0.892 2-2v-148c0-1.108-0.892-2-2-2zm176 0c-1.108 0-2 0.892-2 2v148c0 1.108 0.892 2 2 2s2-0.892 2-2v-148c0-1.108-0.892-2-2-2z" color="#000000" enable-background="accumulate" fill="url(#c)" filter="url(#o)"/><g transform="matrix(3.8538 0 0 3.8538 -3034.4 -72.899)" enable-background="new"><rect x="807" y="41.16" width="314" height="33.68" rx="16.84" ry="16.84" color="#000000" enable-background="accumulate" fill="url(#f)" stroke="url(#e)" stroke-linecap="round" stroke-width="2.0759"/><path transform="matrix(1.0087 0 0 1.0059 447.65 1.6528)" d="m370.44 39.453c-21.947 0-15.442 8.2174-15.442 17.547 0 0.67974 0.0475 1.3418 0.125 2 0.9867-8.3759 6.6672-14.844 15.317-14.844h283.29c8.6496 0 14.155 6.4679 15.142 14.844 0.0775-0.65823 0.125-1.3203 0.125-2 0-9.3294 5.629-17.547-15.267-17.547z" clip-path="url(#a)" filter="url(#k)" opacity=".15854"/><path transform="matrix(1.0087 0 0 1.0059 447.65 1.6528)" d="m606.07 39.453c-21.947 0-15.442 8.2174-15.442 17.547 0 0.67974 0.0475 1.3418 0.125 2 0.9867-8.3759 6.6672-17.124 15.317-17.124h46.481c8.6496 0 15.337 8.748 16.324 17.124 0.0775-0.65823 0.125-1.3203 0.125-2 0-9.3294 5.629-17.547-15.267-17.547z" clip-path="url(#a)" filter="url(#j)" opacity=".15854"/></g><g transform="matrix(5.331 0 0 5.331 -633.6 -3333.6)" fill="none" stroke="#eeeeec" stroke-linecap="round" stroke-linejoin="round"><circle transform="matrix(1.2872 0 0 1.2857 -249.3 155.57)" cx="307.5" cy="386.5" r="3.5" color="#000000" enable-background="new" stroke-width="1.5547"/><path d="m150.01 656 4.0046 4" color="#000000" enable-background="new" stroke-width="2"/></g><rect x="56" y="60" width="184" height="184" rx="25.053" ry="25.053" enable-background="new" fill="none" filter="url(#n)" stroke="url(#h)" stroke-width="2"/><g transform="matrix(5.331 0 0 5.331 -633.6 -3334.6)"><path d="m149.81 655a1.0001 1.0001 0 0 0-0.5 1.7188l4 4a1.0055 1.0055 0 1 0 1.4062-1.4375l-4-4a1.0001 1.0001 0 0 0-0.90625-0.28125zm-3.3049-8.0045c-3.0289 0-5.5107 2.479-5.5107 5.5045 0 3.0254 2.4819 5.5045 5.5107 5.5045 3.0288 0 5.5107-2.479 5.5107-5.5045 0-3.0254-2.4819-5.5045-5.5107-5.5045zm0 2.0089c1.9474 0 3.4995 1.5504 3.4995 3.4955 0 1.9451-1.5522 3.4955-3.4995 3.4955-1.9474 0-3.4995-1.5504-3.4995-3.4955 0-1.9452 1.5522-3.4955 3.4995-3.4955z" color="#000000" enable-background="new" fill="url(#g)" style="text-decoration-line:none;text-indent:0;text-transform:none"/><rect x="140" y="646" width="16" height="16" color="#000000" enable-background="accumulate" fill="none" opacity=".70638"/></g></g></g></g></svg>
