<?xml version="1.0" encoding="UTF-8"?>
<svg enable-background="new" version="1.0" viewBox="0 0 256 256" xmlns="http://www.w3.org/2000/svg" xmlns:xlink="http://www.w3.org/1999/xlink"><defs><clipPath id="ah"><path d="m82 200c-12.188 0-22 9.812-22 22s9.812 22 22 22h178c2.216 0 4-1.784 4-4v-36c0-2.216-1.784-4-4-4z" color="#000000" enable-background="accumulate" fill="#808080"/></clipPath><radialGradient id="a" cx="224.25" cy="156.73" r="102" gradientTransform="matrix(-3.293 0 0 -.42267 988.24 276.25)" gradientUnits="userSpaceOnUse"><stop stop-color="#fff" offset="0"/><stop stop-color="#eeeeec" offset="1"/></radialGradient><radialGradient id="b" cx="212.91" cy="378.44" r="102" gradientTransform="matrix(-3.3738 0 0 -.45218 990.81 380.62)" gradientUnits="userSpaceOnUse"><stop stop-color="#fff" offset="0"/><stop stop-color="#fff" stop-opacity="0" offset="1"/></radialGradient><filter id="aa" color-interpolation-filters="sRGB"><feGaussianBlur stdDeviation="0.31"/></filter><clipPath id="ag"><path d="m82 200c-12.188 0-22 9.812-22 22s9.812 22 22 22h178c2.216 0 4-1.784 4-4v-36c0-2.216-1.784-4-4-4z" color="#000000" enable-background="accumulate" fill="#808080"/></clipPath><filter id="z" color-interpolation-filters="sRGB"><feGaussianBlur stdDeviation="0.31"/></filter><clipPath id="af"><path d="m82 200c-12.188 0-22 9.812-22 22s9.812 22 22 22h178c2.216 0 4-1.784 4-4v-36c0-2.216-1.784-4-4-4z" color="#000000" enable-background="accumulate" fill="#808080"/></clipPath><radialGradient id="i" cx="224.25" cy="156.73" r="102" gradientTransform="matrix(-3.293 0 0 -.42267 988.24 276.25)" gradientUnits="userSpaceOnUse"><stop stop-color="#fff" offset="0"/><stop stop-color="#eeeeec" offset="1"/></radialGradient><filter id="ab" color-interpolation-filters="sRGB"><feGaussianBlur stdDeviation="0.31"/></filter><clipPath id="ai"><path d="m82 200c-12.188 0-22 9.812-22 22s9.812 22 22 22h178c2.216 0 4-1.784 4-4v-36c0-2.216-1.784-4-4-4z" color="#000000" enable-background="accumulate" fill="#808080"/></clipPath><filter id="y" color-interpolation-filters="sRGB"><feGaussianBlur stdDeviation="0.31"/></filter><linearGradient id="c" x1="178.25" x2="178.25" y1="242.25" y2="171.64" gradientUnits="userSpaceOnUse"><stop stop-color="#fff" offset="0"/><stop stop-color="#fff" stop-opacity="0" offset="1"/></linearGradient><clipPath id="aj"><path d="m82 200c-12.188 0-22 9.812-22 22s9.812 22 22 22h178c2.216 0 4-1.784 4-4v-36c0-2.216-1.784-4-4-4z" color="#000000" enable-background="accumulate" fill="#808080"/></clipPath><filter id="w" color-interpolation-filters="sRGB"><feGaussianBlur stdDeviation="0.31"/></filter><clipPath id="ak"><path d="m82 200c-12.188 0-22 9.812-22 22s9.812 22 22 22h178c2.216 0 4-1.784 4-4v-36c0-2.216-1.784-4-4-4z" color="#000000" enable-background="accumulate" fill="#808080"/></clipPath><filter id="x" color-interpolation-filters="sRGB"><feGaussianBlur stdDeviation="0.31"/></filter><radialGradient id="h" cx="62.739" cy="248.13" r="22" gradientTransform="matrix(.47496 0 0 7.4831 36.638 -1601.6)" gradientUnits="userSpaceOnUse"><stop stop-color="#fff" offset="0"/><stop stop-color="#fff" stop-opacity="0" offset="1"/></radialGradient><radialGradient id="g" cx="179.66" cy="273.36" r="101" gradientTransform="matrix(.73211 -1.268 .81582 .47102 -174.15 321.06)" gradientUnits="userSpaceOnUse"><stop stop-color="#fff" offset="0"/><stop stop-color="#fff" stop-opacity="0" offset="1"/></radialGradient><radialGradient id="f" cx="171.53" cy="202.89" r="101" gradientTransform="matrix(1.101 -.67813 .31115 .50518 -83.637 240.24)" gradientUnits="userSpaceOnUse"><stop stop-color="#fff" offset="0"/><stop stop-color="#fff" stop-opacity="0" offset="1"/></radialGradient><radialGradient id="e" cx="143.53" cy="160.73" r="101" gradientTransform="matrix(-.48826 1.2281 -1.3177 -.52386 414.86 125.02)" gradientUnits="userSpaceOnUse"><stop stop-color="#fff" offset="0"/><stop stop-color="#fff" stop-opacity="0" offset="1"/></radialGradient><filter id="v"><feGaussianBlur stdDeviation="0.565"/></filter><linearGradient id="p" x1="102.04" x2="85.28" y1="244.5" y2="244.5" gradientUnits="userSpaceOnUse"><stop stop-color="#fff" offset="0"/><stop stop-color="#fff" stop-opacity="0" offset="1"/></linearGradient><filter id="u" x="-.036471" y="-.16909" width="1.0729" height="1.3382"><feGaussianBlur stdDeviation="3.1"/></filter><linearGradient id="o" x1="162" x2="162" y1="248.55" y2="205.45" gradientUnits="userSpaceOnUse"><stop offset="0"/><stop stop-opacity="0" offset="1"/></linearGradient><clipPath id="ae"><path d="m62.947 207c-6.094 10.555-2.5026 23.959 8.0526 30.053 10.555 6.094 23.959 2.5026 30.053-8.0526l89-154.15c1.108-1.9191 0.45501-4.3561-1.4641-5.4641l-31.177-18c-1.9191-1.108-4.3561-0.45501-5.4641 1.4641z" color="#000000" enable-background="accumulate"/></clipPath><filter id="t" x="-.16909" y="-.036471" width="1.3382" height="1.0729"><feGaussianBlur stdDeviation="3.1"/></filter><linearGradient id="n" x1="85.71" x2="85.71" y1="182.43" y2="230.55" gradientUnits="userSpaceOnUse"><stop offset="0"/><stop stop-opacity="0" offset="1"/></linearGradient><linearGradient id="m" x1="90.51" x2="90.51" y1="197.47" y2="227.2" gradientUnits="userSpaceOnUse"><stop offset="0"/><stop stop-opacity="0" offset="1"/></linearGradient><clipPath id="ad"><path d="m71 200.95c-10.555 6.094-14.147 19.497-8.0526 30.053 6.094 10.555 19.497 14.147 30.053 8.0526l154.15-89c1.9191-1.108 2.5721-3.545 1.4641-5.4641l-18-31.177c-1.108-1.9191-3.545-2.5721-5.4641-1.4641z" color="#000000" enable-background="accumulate" opacity=".5"/></clipPath><filter id="s"><feGaussianBlur stdDeviation="3.9973295"/></filter><linearGradient id="l" x1="103.76" x2="97.989" y1="211.46" y2="233.01" gradientUnits="userSpaceOnUse"><stop offset="0"/><stop stop-opacity="0" offset="1"/></linearGradient><clipPath id="ac"><path d="m82 200c-12.188 0-22 9.812-22 22s9.812 22 22 22h178c2.216 0 4-1.784 4-4v-36c0-2.216-1.784-4-4-4z" color="#000000" enable-background="accumulate" opacity=".5"/></clipPath><filter id="r"><feGaussianBlur stdDeviation="3.9973294"/></filter><radialGradient id="d" cx="77.298" cy="210.27" r="6.4005" gradientTransform="matrix(1.3025 0 0 1.3025 -23.347 -63.508)" gradientUnits="userSpaceOnUse"><stop stop-color="#fff" offset="0"/><stop stop-color="#eeeeec" offset=".38678"/><stop stop-color="#babdb6" offset=".54735"/><stop stop-color="#666" offset=".82243"/><stop stop-color="#eeeeec" offset="1"/></radialGradient><linearGradient id="k" x1="79.467" x2="78.4" y1="213.7" y2="203.76" gradientUnits="userSpaceOnUse"><stop offset="0"/><stop stop-opacity="0" offset="1"/></linearGradient><filter id="q" x="-.12" y="-.12" width="1.24" height="1.24"><feGaussianBlur stdDeviation="0.64004645"/></filter><radialGradient id="j" cx="80.875" cy="263.12" r="101.88" gradientTransform="matrix(.11656 0 -4.7507e-8 .85153 71.448 23.94)" gradientUnits="userSpaceOnUse"><stop stop-opacity="0" offset="0"/><stop offset="1"/></radialGradient></defs><g transform="translate(-20,-28)"><g transform="matrix(1.0719 0 0 1.0719 -25.653 2.5544)"><path d="m82 205c-12.188 0-22 9.812-22 22s9.812 22 22 22h178c2.216 0 4-1.784 4-4v-36c0-2.216-1.784-4-4-4z" color="#000000" enable-background="accumulate" fill="url(#o)" filter="url(#u)" opacity=".7"/><g transform="translate(-7.8098e-7 4)" clip-path="url(#ak)" enable-background="new"><path d="m82 200c-12.188 0-22 9.812-22 22s9.812 22 22 22h178c2.216 0 4-1.784 4-4v-36c0-2.216-1.784-4-4-4z" color="#000000" enable-background="accumulate" fill="url(#a)"/><g enable-background="new"><rect x="231" y="200" width="24" height="44" color="#000000" enable-background="accumulate" fill="#d3d7cf"/><rect x="199" y="200" width="24" height="44" color="#000000" enable-background="accumulate" fill="#babdb6"/><rect x="167" y="200" width="24" height="44" color="#000000" enable-background="accumulate" fill="#888a85"/><rect x="135" y="200" width="24" height="44" color="#000000" enable-background="accumulate" fill="#555753"/><rect x="103" y="200" width="24" height="44" color="#000000" enable-background="accumulate" fill="#2e3436"/></g><path d="m82 200c-12.188 0-22 9.812-22 22s9.812 22 22 22h178c2.216 0 4-1.784 4-4v-36c0-2.216-1.784-4-4-4z" color="#000000" enable-background="accumulate" fill="none" filter="url(#x)" stroke="#555753" stroke-linejoin="round" stroke-width=".5"/><path d="m82 201.5c-11.382 0-20.498 9.1165-20.498 20.498s9.1165 20.498 20.498 20.498h178c1.4096 0 2.498-1.0885 2.498-2.498v-36c0-1.4096-1.0885-2.498-2.498-2.498z" color="#000000" enable-background="accumulate" fill="none" opacity=".8" stroke="url(#c)"/></g><g transform="translate(-7.8098e-7 2)" clip-path="url(#aj)" enable-background="new"><path d="m82 200c-12.188 0-22 9.812-22 22s9.812 22 22 22h178c2.216 0 4-1.784 4-4v-36c0-2.216-1.784-4-4-4z" color="#000000" enable-background="accumulate" fill="url(#a)"/><g enable-background="new"><rect x="231" y="200" width="24" height="44" color="#000000" enable-background="accumulate" fill="#d3d7cf"/><rect x="199" y="200" width="24" height="44" color="#000000" enable-background="accumulate" fill="#babdb6"/><rect x="167" y="200" width="24" height="44" color="#000000" enable-background="accumulate" fill="#888a85"/><rect x="135" y="200" width="24" height="44" color="#000000" enable-background="accumulate" fill="#555753"/><rect x="103" y="200" width="24" height="44" color="#000000" enable-background="accumulate" fill="#2e3436"/></g><path d="m82 200c-12.188 0-22 9.812-22 22s9.812 22 22 22h178c2.216 0 4-1.784 4-4v-36c0-2.216-1.784-4-4-4z" color="#000000" enable-background="accumulate" fill="none" filter="url(#w)" stroke="#555753" stroke-linejoin="round" stroke-width=".5"/><path d="m82 201.5c-11.382 0-20.498 9.1165-20.498 20.498s9.1165 20.498 20.498 20.498h178c1.4096 0 2.498-1.0885 2.498-2.498v-36c0-1.4096-1.0885-2.498-2.498-2.498z" color="#000000" enable-background="accumulate" fill="none" opacity=".8" stroke="url(#c)"/></g><g clip-path="url(#ai)" enable-background="new"><path d="m82 200c-12.188 0-22 9.812-22 22s9.812 22 22 22h178c2.216 0 4-1.784 4-4v-36c0-2.216-1.784-4-4-4z" color="#000000" enable-background="accumulate" fill="url(#a)"/><g transform="translate(-4.375e-6)" enable-background="new" opacity=".3"><g transform="rotate(90)"><path d="m208.3-257.86c-3.6926 1.149 0.95061 0.36005-2.0538-1.6634 4.6015-0.22077-2.3543-0.33756 2.0537 1.6634"/><path d="m210.08-257.1c-2.0861 0.0488-1.4826-4.1276-0.46931-1.4014 0.87359-2.1759-0.1742 1.2542 0.46931 1.4014z"/><path d="m211.67-257.1c-1.0628 2.0624-1.3182-4.4992 0.0781-0.71202 0.56529-2.506 0.83344-0.71542-0.0781 0.71217"/><path d="m216.06-257.88c-4.0694 3.155-0.95491-5.6542-3e-5 1e-4m-0.53516-1.2637c-1.8137-1.9142-1.5174 1.9766-5e-5 6e-5m0.15821 1.2344c-1.8538-2.2726-1.8448 2.279 0 5e-5"/><path d="m216.54-257.1c-0.55446-4.54 1.3279-1.9587 0 0z"/><path d="m217.78-259.21c-0.15167 4.2489 2.2513-2.6851 1.1229 2.0401-0.72894 0.86701-2.4853-1.0657-1.1232-2.0402"/><path d="m219.93-258.08c1.9801 2.9655-1.9691-2.6398 1.3612-0.22372l-0.35215 0.21818-1.009 6e-3m1.1445-0.26954c-0.5038-1.6485-1.9456 0.72867-5e-5 -1e-5"/><path d="m224.79-258.48c-2.9635 5.8513-1.6506-5.5078-5e-5 0m-0.35742 0c-1.6302-4.0608-1.1061 3.8081 0 0z"/></g><g transform="rotate(90)" enable-background="new"><path d="m208.3-225.86c-3.6926 1.149 0.9506 0.36004-2.0538-1.6634 4.6015-0.22075-2.3544-0.33776 2.0537 1.6634"/><path d="m210.08-225.1c-2.0863 0.0485-1.4824-4.1277-0.46928-1.4013 0.87339-2.1761-0.17424 1.2539 0.46928 1.4013z"/><path d="m211.67-225.1c-1.0629 2.0619-1.3182-4.4989 0.0781-0.71212 0.56527-2.5058 0.83333-0.71504-0.0781 0.71227"/><path d="m216.06-225.88c-4.0697 3.1546-0.95486-5.6541-3e-5 1e-4m-0.53516-1.2637c-1.8137-1.9143-1.5174 1.9767-5e-5 6e-5m0.15821 1.2344c-1.8539-2.2727-1.8448 2.2791 0 5e-5"/><path d="m216.54-225.1c-0.55463-4.5407 1.328-1.9578 0 0z"/><path d="m217.78-227.21c-0.15169 4.2488 2.2513-2.6854 1.1229 2.0401-0.72908 0.8674-2.4853-1.066-1.1232-2.0401"/><path d="m219.93-226.08c1.9801 2.9655-1.9692-2.6398 1.3613-0.22373l-0.35215 0.21818-1.0091 6e-3m1.1445-0.26954c-0.50375-1.6485-1.9457 0.72867-5e-5 -1e-5"/><path d="m223.03-225.1c0.44189-4.4873 1.9052-0.70338 0.92661 0h-0.92661z"/></g><g transform="rotate(90)" enable-background="new"><path d="m208.3-193.86c-3.6926 1.149 0.9506 0.36004-2.0538-1.6634 4.6015-0.22075-2.3544-0.33776 2.0537 1.6634"/><path d="m210.08-193.1c-2.0863 0.0485-1.4824-4.1277-0.46928-1.4013 0.87339-2.1761-0.17424 1.2539 0.46928 1.4013z"/><path d="m211.67-193.1c-1.0629 2.0619-1.3182-4.4989 0.0781-0.71212 0.56527-2.5058 0.83333-0.71504-0.0781 0.71227"/><path d="m216.06-193.88c-4.0697 3.1546-0.95486-5.6541-3e-5 1e-4m-0.53516-1.2637c-1.8137-1.9143-1.5174 1.9767-5e-5 6e-5m0.15821 1.2344c-1.8539-2.2727-1.8448 2.2791 0 5e-5"/><path d="m216.54-193.1c-0.55463-4.5407 1.328-1.9578 0 0z"/><path d="m217.78-195.21c-0.15169 4.2488 2.2513-2.6854 1.1229 2.0401-0.72908 0.8674-2.4853-1.066-1.1232-2.0401"/><path d="m219.93-194.08c1.9801 2.9655-1.9692-2.6398 1.3613-0.22373l-0.35215 0.21818-1.0091 6e-3m1.1445-0.26954c-0.50375-1.6485-1.9457 0.72867-5e-5 -1e-5"/><path d="m222.93-193.1c2.5192-1.8435-0.74949-3.5546 1.4671-2.0998-2.1203 2.6144 2.309 1.7465-1.4672 2.1"/></g><g transform="rotate(90)" enable-background="new"><path d="m208.3-161.86c-3.6926 1.149 0.9506 0.36004-2.0538-1.6634 4.6015-0.22075-2.3544-0.33776 2.0537 1.6634"/><path d="m210.08-161.1c-2.0863 0.0485-1.4824-4.1277-0.46928-1.4013 0.87339-2.1761-0.17424 1.2539 0.46928 1.4013z"/><path d="m211.67-161.1c-1.0629 2.0619-1.3182-4.4989 0.0781-0.71212 0.56527-2.5058 0.83333-0.71504-0.0781 0.71227"/><path d="m216.06-161.88c-4.0697 3.1546-0.95486-5.6541-3e-5 1e-4m-0.53516-1.2637c-1.8137-1.9143-1.5174 1.9767-5e-5 6e-5m0.15821 1.2344c-1.8539-2.2727-1.8448 2.2791 0 5e-5"/><path d="m216.54-161.1c-0.55463-4.5407 1.328-1.9578 0 0z"/><path d="m217.78-163.21c-0.15169 4.2488 2.2513-2.6854 1.1229 2.0401-0.72908 0.8674-2.4853-1.066-1.1232-2.0401"/><path d="m219.93-162.08c1.9801 2.9655-1.9692-2.6398 1.3613-0.22373l-0.35215 0.21818-1.0091 6e-3m1.1445-0.26954c-0.50375-1.6485-1.9457 0.72867-5e-5 -1e-5"/><path d="m224.77-161.86c-3.4958 1.9946 1.4028-1.6325-1.7381-1.5597 3.171-0.81323 0.22789 0.74433 1.738 1.56"/></g><g transform="rotate(90)" enable-background="new"><path d="m208.3-129.86c-3.6926 1.149 0.9506 0.36004-2.0538-1.6634 4.6015-0.22075-2.3544-0.33776 2.0537 1.6634"/><path d="m210.08-129.1c-2.0863 0.0485-1.4824-4.1277-0.46928-1.4013 0.87339-2.1761-0.17424 1.2539 0.46928 1.4013z"/><path d="m211.67-129.1c-1.0629 2.0619-1.3182-4.4989 0.0781-0.71212 0.56527-2.5058 0.83333-0.71504-0.0781 0.71227"/><path d="m216.06-129.88c-4.0697 3.1546-0.95486-5.6541-3e-5 1e-4m-0.53516-1.2637c-1.8137-1.9143-1.5174 1.9767-5e-5 6e-5m0.15821 1.2344c-1.8539-2.2727-1.8448 2.2791 0 5e-5"/><path d="m216.54-129.1c-0.55463-4.5407 1.328-1.9578 0 0z"/><path d="m217.78-131.21c-0.15169 4.2488 2.2513-2.6854 1.1229 2.0401-0.72908 0.8674-2.4853-1.066-1.1232-2.0401"/><path d="m219.93-130.08c1.9801 2.9655-1.9692-2.6398 1.3613-0.22373l-0.35215 0.21818-1.0091 6e-3m1.1445-0.26954c-0.50375-1.6485-1.9457 0.72867-5e-5 -1e-5"/><path d="m224.45-129.72c-4.0497 1.3788 1.2882-4.8219 0 0zm-0.33203-1.7324c-1.9519 1.7019 0.41027 2.1491-2e-5 8e-5"/></g></g><g enable-background="new"><rect x="231" y="200" width="24" height="44" color="#000000" enable-background="accumulate" fill="#adc7e3"/><rect x="199" y="200" width="24" height="44" color="#000000" enable-background="accumulate" fill="#729fcf"/><rect x="167" y="200" width="24" height="44" color="#000000" enable-background="accumulate" fill="#3465a4"/><rect x="135" y="200" width="24" height="44" color="#000000" enable-background="accumulate" fill="#204a87"/><rect x="103" y="200" width="24" height="44" color="#000000" enable-background="accumulate" fill="#183866"/></g><path d="m82 200c-12.188 0-22 9.812-22 22s9.812 22 22 22h178c2.216 0 4-1.784 4-4v-36c0-2.216-1.784-4-4-4z" color="#000000" enable-background="accumulate" fill="url(#b)" opacity=".5"/><path d="m82 200c-12.188 0-22 9.812-22 22s9.812 22 22 22h178c2.216 0 4-1.784 4-4v-36c0-2.216-1.784-4-4-4z" color="#000000" enable-background="accumulate" fill="none" filter="url(#y)" stroke="#555753" stroke-linejoin="round" stroke-width=".5"/><path d="m82 201.5c-11.382 0-20.498 9.1165-20.498 20.498s9.1165 20.498 20.498 20.498h178c1.4096 0 2.498-1.0885 2.498-2.498v-36c0-1.4096-1.0885-2.498-2.498-2.498z" color="#000000" enable-background="accumulate" fill="none" opacity=".8" stroke="url(#c)"/></g><path d="m71 200.95c-10.555 6.094-14.147 19.497-8.0526 30.053s19.497 14.147 30.053 8.0526l154.15-89c1.9191-1.108 2.5721-3.545 1.4641-5.4641l-18-31.177c-1.108-1.9191-3.545-2.5721-5.4641-1.4641z" clip-path="url(#ac)" color="#000000" enable-background="accumulate" fill="url(#l)" filter="url(#r)" opacity=".7"/><g transform="rotate(-30 78.268 221)" clip-path="url(#af)" enable-background="new"><path d="m82 200c-12.188 0-22 9.812-22 22s9.812 22 22 22h178c2.216 0 4-1.784 4-4v-36c0-2.216-1.784-4-4-4z" color="#000000" enable-background="accumulate" fill="url(#i)"/><g transform="translate(-4.3568e-6)" enable-background="new" opacity=".3"><g transform="rotate(90)"><path d="m208.28-259.03c-1.6 3.1447-3.4962 0.18828-1.3694-0.90364 0.52214 5e-3 1.3093 0.26933 1.3694 0.90359m-0.375 4e-3c-1.8842-2.4052-1.8632 2.3921 0 0z"/><path d="m208.76-257.1c-0.64198-4.2428 1.2798-2.4072 0 0z"/><path d="m209.99-259.21c-0.44543 4.0509 2.0754-1.9866 1.3476 1.5066-0.58955 1.7699-2.8716-0.20828-1.3478-1.5067"/><path d="m213.11-257.1c0.42194-4.01-1.9067 1.9929-1.2356-1.5057 1.4211-2.8846 4.622 3.424 2.0915-0.072-1.0112-0.34293 0.0803 1.9609-0.85542 1.5777"/><path d="m218.12-258.48c-2.7058 5.606-1.808-5.3042-5e-5 0m-0.35742 0c-1.4436-4.0698-1.1804 3.8052-1e-5 0"/></g><g transform="rotate(90)" enable-background="new"><path d="m208.28-227.03c-1.5998 3.1434-3.4958 0.19051-1.3699-0.90357 0.52273 4e-3 1.3093 0.2694 1.3699 0.90362m-0.375 4e-3c-1.8839-2.4051-1.8632 2.392 0 0z"/><path d="m208.76-225.1c-0.64217-4.24 1.28-2.4098 0 0z"/><path d="m209.99-227.21c-0.44525 4.0508 2.075-1.9866 1.3477 1.5064-0.58975 1.8106-2.9032-0.26692-1.3479-1.5064"/><path d="m213.11-225.1c0.42179-4.01-1.9063 1.9927-1.2356-1.5055 1.431-2.9102 4.5362 3.414 2.1502-0.0551-0.95812-0.73364-0.0819 1.9157-0.91406 1.5606"/><path d="m216.36-225.1c1.0599-1.6246 0.37507-4.2805 1.2712-0.31887 0.72465 0.57301-0.98154 0.22078-1.2712 0.31887z"/></g><g transform="rotate(90)" enable-background="new"><path d="m208.28-195.03c-1.5998 3.1434-3.4958 0.19051-1.3699-0.90357 0.52273 4e-3 1.3093 0.2694 1.3699 0.90362m-0.375 4e-3c-1.8839-2.4051-1.8632 2.392 0 0z"/><path d="m208.76-193.1c-0.64217-4.24 1.28-2.4098 0 0z"/><path d="m209.99-195.21c-0.44525 4.0508 2.075-1.9866 1.3477 1.5064-0.58975 1.8106-2.9032-0.26692-1.3479-1.5064"/><path d="m213.11-193.1c0.42179-4.01-1.9063 1.9927-1.2356-1.5055 1.431-2.9102 4.5362 3.414 2.1502-0.0551-0.95812-0.73364-0.0819 1.9157-0.91406 1.5606"/><path d="m216.25-193.1c1.7065-0.92026 0.24078-4.2292 1.5575-1.9812-2.5921 1.9524 2.053 2.0268-1.0929 1.9527l-0.46469 0.0286"/></g><g transform="rotate(90)" enable-background="new"><path d="m208.28-163.03c-1.5998 3.1434-3.4958 0.19051-1.3699-0.90357 0.52273 4e-3 1.3093 0.2694 1.3699 0.90362m-0.375 4e-3c-1.8839-2.4051-1.8632 2.392 0 0z"/><path d="m208.76-161.1c-0.64217-4.24 1.28-2.4098 0 0z"/><path d="m209.99-163.21c-0.44525 4.0508 2.075-1.9866 1.3477 1.5064-0.58975 1.8106-2.9032-0.26692-1.3479-1.5064"/><path d="m213.11-161.1c0.42179-4.01-1.9063 1.9927-1.2356-1.5055 1.431-2.9102 4.5362 3.414 2.1502-0.0551-0.95812-0.73364-0.0819 1.9157-0.91406 1.5606"/><path d="m218.1-161.86c-0.45083 1.742-2.8908-0.49062-0.5176 0.37688-1.085-2.8454 0.25158-2.7485 0.51755-0.37663"/></g><g transform="rotate(90)" enable-background="new"><path d="m208.28-131.03c-1.5998 3.1434-3.4958 0.19051-1.3699-0.90357 0.52273 4e-3 1.3093 0.2694 1.3699 0.90362m-0.375 4e-3c-1.8839-2.4051-1.8632 2.392 0 0z"/><path d="m208.76-129.1c-0.64217-4.24 1.28-2.4098 0 0z"/><path d="m209.99-131.21c-0.44525 4.0508 2.075-1.9866 1.3477 1.5064-0.58975 1.8106-2.9032-0.26692-1.3479-1.5064"/><path d="m213.11-129.1c0.42179-4.01-1.9063 1.9927-1.2356-1.5055 1.431-2.9102 4.5362 3.414 2.1502-0.0551-0.95812-0.73364-0.0819 1.9157-0.91406 1.5606"/><path d="m217.77-129.72c-3.9513 1.0529 1.3636-4.6983 0 0zm-0.33203-1.7324c-1.9109 1.5645 0.33482 2.3235 8e-5 8e-5"/></g></g><g enable-background="new"><path d="m231 200h24v44h-24v-44z" color="#000000" enable-background="accumulate" fill="#ccb0c9"/><path d="m199 200h24v44h-24v-44z" color="#000000" enable-background="accumulate" fill="#ad7fa8"/><path d="m167 200h24v44h-24v-44z" color="#000000" enable-background="accumulate" fill="#75507b"/><path d="m135 200h24v44h-24v-44z" color="#000000" enable-background="accumulate" fill="#5c3566"/><path d="m103 200h24v44h-24v-44z" color="#000000" enable-background="accumulate" fill="#45284c"/></g><path d="m82 200c-12.188 0-22 9.812-22 22s9.812 22 22 22h178c2.216 0 4-1.784 4-4v-36c0-2.216-1.784-4-4-4z" color="#000000" enable-background="accumulate" fill="url(#b)" opacity=".5"/><path d="m82 200c-12.188 0-22 9.812-22 22s9.812 22 22 22h178c2.216 0 4-1.784 4-4v-36c0-2.216-1.784-4-4-4z" color="#000000" enable-background="accumulate" fill="none" filter="url(#ab)" stroke="#555753" stroke-linejoin="round" stroke-width=".5"/><path d="m82 201.5c-11.382 0-20.498 9.1165-20.498 20.498s9.1165 20.498 20.498 20.498h178c1.4096 0 2.498-1.0885 2.498-2.498v-36c0-1.4096-1.0885-2.498-2.498-2.498z" color="#000000" enable-background="accumulate" fill="none" opacity=".8" stroke="url(#e)"/></g><path d="m62.947 207c-6.094 10.555-2.5026 23.959 8.0526 30.053 10.555 6.094 23.959 2.5026 30.053-8.0526l89-154.15c1.108-1.9191 0.45501-4.3561-1.4641-5.4641l-31.177-18c-1.9191-1.108-4.3561-0.45501-5.4641 1.4641z" clip-path="url(#ad)" color="#000000" enable-background="accumulate" fill="url(#m)" filter="url(#s)" opacity=".7"/><g transform="rotate(-60 78.536 220)" clip-path="url(#ag)" enable-background="new"><path d="m82 200c-12.188 0-22 9.812-22 22s9.812 22 22 22h178c2.216 0 4-1.784 4-4v-36c0-2.216-1.784-4-4-4z" color="#000000" enable-background="accumulate" fill="url(#a)"/><g transform="translate(-4.375e-6)" enable-background="new" opacity=".3"><g transform="rotate(90)"><path d="m208.74-258.49c-3.5803 5.8823-3.18-5.629 0 0zm-0.38086 0c-2.7516-4.5241-2.1328 4.4098 1e-5 -5e-5"/><path d="m209.21-257.1c-0.67982-2.4669 2.2683-3.3041 3.2e-4 -1e-5"/><path d="m211.07-257.06c-1.6952-0.63771 2.2894-2.4608-0.54494-1.6214 1.3473-1.7352 2.9902 1.9209 0.54484 1.6208m0.0801-0.26367c2.0594-0.60058-1.1295-1.1725-3e-5 1e-4"/><path d="m214.1-257.1c0.37186-3.956-2.3532 2.1524-1.1895-2.011 1.2596-0.85019 2.3156 1.0822 1.1898 2.011"/><path d="m215.79-256.27c-1.0328-0.72245 1.3245-0.53841-0.94366-1.7108 1.4634-3.579 3.0663 1.1665 0.94394 1.7108m0.53516-1.8867c-1.5001-3.2176-1.1296 3.0228 0 0z"/><path d="m217.48-258.08c2.8812 2.3736-2.5613-1.0793 0.82584-0.81812 1.2845 0.47361-0.13432 1.252-0.82578 0.8181m1.1445-0.26954c-0.56184-1.7018-1.9547 0.69546 5e-5 -1e-5"/><path d="m222.35-258.48c-2.7058 5.606-1.808-5.3042-4e-5 0m-0.35743 0c-0.68007-3.3374-1.8305 1.3976-0.43313 0.97302z"/></g><g transform="rotate(90)" enable-background="new"><path d="m208.74-226.49c-3.5803 5.8823-3.18-5.629 0 0zm-0.38086 0c-2.7516-4.5241-2.1328 4.4098 1e-5 -5e-5"/><path d="m209.21-225.1c-0.68-2.4665 2.2686-3.3047 3.2e-4 -1e-5"/><path d="m211.07-225.06c-1.6952-0.63771 2.2894-2.4608-0.54494-1.6214 1.3473-1.7352 2.9902 1.9209 0.54484 1.6208m0.0801-0.26367c2.0594-0.60058-1.1295-1.1725-3e-5 1e-4"/><path d="m214.1-225.1c0.37184-3.956-2.3531 2.1524-1.1895-2.011 1.2596-0.85016 2.3156 1.0821 1.1898 2.011"/><path d="m215.79-224.27c-1.0329-0.72245 1.3246-0.5384-0.94366-1.7108 1.4634-3.579 3.0663 1.1665 0.94394 1.7108m0.53516-1.8867c-1.5001-3.2176-1.1296 3.0228 0 0z"/><path d="m217.48-226.08c2.8812 2.3736-2.5613-1.0793 0.82584-0.81812 1.2845 0.47362-0.13432 1.252-0.82578 0.8181m1.1445-0.26954c-0.56186-1.7018-1.9547 0.69546 5e-5 -1e-5"/><path d="m220.58-225.1c1.0639-1.6279 0.37642-4.2794 1.2715-0.31299 0.69556 0.57313-0.97397 0.21148-1.2715 0.31299z"/></g><g transform="rotate(90)" enable-background="new"><path d="m208.74-194.49c-3.5803 5.8823-3.18-5.629 0 0zm-0.38086 0c-2.7516-4.5241-2.1328 4.4098 1e-5 -5e-5"/><path d="m209.21-193.1c-0.68-2.4665 2.2686-3.3047 3.2e-4 -1e-5"/><path d="m211.07-193.06c-1.6952-0.63771 2.2894-2.4608-0.54494-1.6214 1.3473-1.7352 2.9902 1.9209 0.54484 1.6208m0.0801-0.26367c2.0594-0.60058-1.1295-1.1725-3e-5 1e-4"/><path d="m214.1-193.1c0.37184-3.956-2.3531 2.1524-1.1895-2.011 1.2596-0.85016 2.3156 1.0821 1.1898 2.011"/><path d="m215.79-192.27c-1.0329-0.72245 1.3246-0.5384-0.94366-1.7108 1.4634-3.579 3.0663 1.1665 0.94394 1.7108m0.53516-1.8867c-1.5001-3.2176-1.1296 3.0228 0 0z"/><path d="m217.48-194.08c2.8812 2.3736-2.5613-1.0793 0.82584-0.81812 1.2845 0.47362-0.13432 1.252-0.82578 0.8181m1.1445-0.26954c-0.56186-1.7018-1.9547 0.69546 5e-5 -1e-5"/><path d="m220.48-193.1c1.7018-0.92283 0.24944-4.2309 1.5538-1.9728-2.5637 1.9464 2.014 2.0318-1.0745 1.9379l-0.47938 0.0351"/></g><g transform="rotate(90)" enable-background="new"><path d="m208.74-162.49c-3.5803 5.8823-3.18-5.629 0 0zm-0.38086 0c-2.7516-4.5241-2.1328 4.4098 1e-5 -5e-5"/><path d="m209.21-161.1c-0.68-2.4665 2.2686-3.3047 3.2e-4 -1e-5"/><path d="m211.07-161.06c-1.6952-0.63771 2.2894-2.4608-0.54494-1.6214 1.3473-1.7352 2.9902 1.9209 0.54484 1.6208m0.0801-0.26367c2.0594-0.60058-1.1295-1.1725-3e-5 1e-4"/><path d="m214.1-161.1c0.37184-3.956-2.3531 2.1524-1.1895-2.011 1.2596-0.85016 2.3156 1.0821 1.1898 2.011"/><path d="m215.79-160.27c-1.0329-0.72245 1.3246-0.5384-0.94366-1.7108 1.4634-3.579 3.0663 1.1665 0.94394 1.7108m0.53516-1.8867c-1.5001-3.2176-1.1296 3.0228 0 0z"/><path d="m217.48-162.08c2.8812 2.3736-2.5613-1.0793 0.82584-0.81812 1.2845 0.47362-0.13432 1.252-0.82578 0.8181m1.1445-0.26954c-0.56186-1.7018-1.9547 0.69546 5e-5 -1e-5"/><path d="m222.33-161.86c-3.167 1.5682 0.77907-0.52864-1.5545-1.7471 1.9031-0.2032 1.0753 0.85274 1.5545 1.7474"/></g><g transform="rotate(90)" enable-background="new"><path d="m208.74-130.49c-3.5803 5.8823-3.18-5.629 0 0zm-0.38086 0c-2.7516-4.5241-2.1328 4.4098 1e-5 -5e-5"/><path d="m209.21-129.1c-0.68-2.4665 2.2686-3.3047 3.2e-4 -1e-5"/><path d="m211.07-129.06c-1.6952-0.63771 2.2894-2.4608-0.54494-1.6214 1.3473-1.7352 2.9902 1.9209 0.54484 1.6208m0.0801-0.26367c2.0594-0.60058-1.1295-1.1725-3e-5 1e-4"/><path d="m214.1-129.1c0.37184-3.956-2.3531 2.1524-1.1895-2.011 1.2596-0.85016 2.3156 1.0821 1.1898 2.011"/><path d="m215.79-128.27c-1.0329-0.72245 1.3246-0.5384-0.94366-1.7108 1.4634-3.579 3.0663 1.1665 0.94394 1.7108m0.53516-1.8867c-1.5001-3.2176-1.1296 3.0228 0 0z"/><path d="m217.48-130.08c2.8812 2.3736-2.5613-1.0793 0.82584-0.81812 1.2845 0.47362-0.13432 1.252-0.82578 0.8181m1.1445-0.26954c-0.56186-1.7018-1.9547 0.69546 5e-5 -1e-5"/><path d="m222-129.72c-3.9626 1.0262 1.3652-4.6735 0 0zm-0.33203-1.7324c-1.911 1.5346 0.33053 2.3523-2e-5 8e-5"/></g></g><g enable-background="new"><rect x="231" y="200" width="24" height="44" color="#000000" enable-background="accumulate" fill="#fdd293"/><rect x="199" y="200" width="24" height="44" color="#000000" enable-background="accumulate" fill="#fcaf3e"/><rect x="167" y="200" width="24" height="44" color="#000000" enable-background="accumulate" fill="#f57900"/><rect x="135" y="200" width="24" height="44" color="#000000" enable-background="accumulate" fill="#ce5c00"/><rect x="103" y="200" width="24" height="44" color="#000000" enable-background="accumulate" fill="#a04700"/></g><path d="m82 200c-12.188 0-22 9.812-22 22s9.812 22 22 22h178c2.216 0 4-1.784 4-4v-36c0-2.216-1.784-4-4-4z" color="#000000" enable-background="accumulate" fill="url(#b)" opacity=".5"/><path d="m82 200c-12.188 0-22 9.812-22 22s9.812 22 22 22h178c2.216 0 4-1.784 4-4v-36c0-2.216-1.784-4-4-4z" color="#000000" enable-background="accumulate" fill="none" filter="url(#z)" stroke="#555753" stroke-linejoin="round" stroke-width=".5"/><path d="m82 201.5c-11.382 0-20.498 9.1165-20.498 20.498s9.1165 20.498 20.498 20.498h178c1.4096 0 2.498-1.0885 2.498-2.498v-36c0-1.4096-1.0885-2.498-2.498-2.498z" color="#000000" enable-background="accumulate" fill="none" opacity=".8" stroke="url(#f)"/></g><path d="m60 216c0 12.188 9.812 22 22 22s22-9.812 22-22v-178c0-2.216-1.784-4-4-4h-36c-2.216 0-4 1.784-4 4z" clip-path="url(#ae)" color="#000000" enable-background="accumulate" fill="url(#n)" filter="url(#t)" opacity=".7"/><g transform="rotate(-90,79,219)" clip-path="url(#ah)" enable-background="new"><path d="m82 200c-12.188 0-22 9.812-22 22s9.812 22 22 22h178c2.216 0 4-1.784 4-4v-36c0-2.216-1.784-4-4-4z" color="#000000" enable-background="accumulate" fill="url(#a)"/><g transform="translate(-4.375e-6)" enable-background="new" opacity=".3"><g transform="rotate(90)"><path d="m208.28-257.88c-4.291 3.5106-1.4468-6.458-3e-5 1e-4m-0.53516-1.2637c-1.8112-1.9124-1.5167 1.9743-5e-5 6e-5m0.15821 1.2344c-1.852-2.2712-1.8445 2.2779 0 5e-5"/><path d="m209.1-259.21c-0.70567 2.4745 1.659 1.3679 1.2172 0.062 1.5232 2.8335-3.1104 2.6863-1.2174-0.0622"/><path d="m211.8-257.12c-2.1308-1.1669 0.36507-3.9715-0.35966-0.46693l0.35968 0.46684"/><path d="m212.91-257.12c-2.1308-1.1668 0.36509-3.9715-0.35969-0.46699l0.35961 0.4669"/><path d="m213.47-258.08c2.8964 2.3467-2.654-0.96838 0.82279-0.81637 1.2697 0.47558-0.1311 1.2523-0.82273 0.81635m1.1445-0.26954c-0.57829-1.7068-1.9238 0.69651 5e-5 -1e-5"/><path d="m215.44-257.1c-0.75418-2.3728 2.1631-3.2461 2.3e-4 -1e-5"/><path d="m219.68-258.48c-2.7058 5.606-1.808-5.3042-5e-5 0m-0.35742 0c-0.90727-3.5458-1.6398 2.4557-0.2292 0.61031l0.22919-0.61031"/></g><g transform="rotate(90)" enable-background="new"><path d="m208.28-225.88c-4.291 3.5106-1.4468-6.458-3e-5 1e-4m-0.53516-1.2637c-1.8112-1.9124-1.5167 1.9743-5e-5 6e-5m0.15821 1.2344c-1.852-2.2712-1.8445 2.2779 0 5e-5"/><path d="m209.1-227.21c-0.70567 2.4746 1.659 1.3677 1.2172 0.0619 1.5232 2.8336-3.1104 2.6867-1.2174-0.062"/><path d="m211.8-225.12c-2.1308-1.1668 0.36506-3.9715-0.35967-0.46697l0.35969 0.46678"/><path d="m212.91-225.12c-2.1308-1.1668 0.36507-3.9715-0.35969-0.46703l0.35961 0.46684"/><path d="m213.47-226.08c2.8964 2.3467-2.654-0.96838 0.82279-0.81637 1.2697 0.47558-0.1311 1.2523-0.82273 0.81635m1.1445-0.26954c-0.57829-1.7068-1.9238 0.69651 5e-5 -1e-5"/><path d="m215.44-225.1c-0.75418-2.3728 2.1631-3.2461 2.3e-4 -1e-5"/><path d="m219.02-225.1c0.95645-1.3162 0.3207-4.3522 1.0649-1.0805 0.18155 1.7746 1.6564 0.84352-1.0649 1.0805z"/></g><g transform="rotate(90)" enable-background="new"><path d="m208.28-193.88c-4.291 3.5106-1.4468-6.458-3e-5 1e-4m-0.53516-1.2637c-1.8112-1.9124-1.5167 1.9742-5e-5 6e-5m0.15821 1.2344c-1.852-2.2712-1.8445 2.2779 0 5e-5"/><path d="m209.1-195.21c-0.70566 2.4746 1.659 1.3677 1.2172 0.0619 1.5232 2.8336-3.1104 2.6867-1.2174-0.062"/><path d="m211.8-193.12c-2.1308-1.1668 0.36506-3.9715-0.35967-0.46697l0.35969 0.46678"/><path d="m212.91-193.12c-2.1308-1.1668 0.36507-3.9715-0.35969-0.46703l0.35961 0.46684"/><path d="m213.47-194.08c2.8965 2.3467-2.654-0.96838 0.82279-0.81637 1.2697 0.47558-0.1311 1.2523-0.82273 0.81635m1.1445-0.26954c-0.57829-1.7068-1.9238 0.69651 5e-5 -1e-5"/><path d="m215.44-193.1c-0.75418-2.3728 2.1631-3.2461 2.3e-4 -1e-5"/><path d="m218.92-193.1c0.8694-0.56206 1.9684-3.2947 0.0155-2.0722 2.8556-2.2243-0.16019 2.8595 1.6803 1.9869l-0.7323 0.11888-0.96369-0.0335"/></g><g transform="rotate(90)" enable-background="new"><path d="m208.28-161.88c-4.291 3.5106-1.4468-6.458-3e-5 1e-4m-0.53516-1.2637c-1.8112-1.9124-1.5167 1.9742-5e-5 6e-5m0.15821 1.2344c-1.852-2.2712-1.8445 2.2779 0 5e-5"/><path d="m209.1-163.21c-0.70566 2.4746 1.659 1.3677 1.2172 0.0619 1.5232 2.8336-3.1104 2.6867-1.2174-0.062"/><path d="m211.8-161.12c-2.1308-1.1668 0.36506-3.9715-0.35967-0.46697l0.35969 0.46678"/><path d="m212.91-161.12c-2.1308-1.1668 0.36507-3.9715-0.35969-0.46703l0.35961 0.46684"/><path d="m213.47-162.08c2.8965 2.3467-2.654-0.96838 0.82279-0.81637 1.2697 0.47558-0.1311 1.2523-0.82273 0.81635m1.1445-0.26954c-0.57829-1.7068-1.9238 0.69651 5e-5 -1e-5"/><path d="m215.44-161.1c-0.75418-2.3728 2.1631-3.2461 2.3e-4 -1e-5"/><path d="m219.66-161.86c-0.45164 1.7416-2.8948-0.49214-0.51761 0.37688 0.0558-1.6282-1.3974-2.0622-0.59882-2.1214 2.1915-0.0326-0.30656 1.031 1.1163 1.7447"/></g><g transform="rotate(90)" enable-background="new"><path d="m208.28-129.88c-4.2907 3.511-1.4466-6.4573-3e-5 1e-4m-0.53516-1.2637c-1.811-1.9123-1.5167 1.9741-5e-5 6e-5m0.15821 1.2344c-1.8519-2.2711-1.8445 2.2778 0 5e-5"/><path d="m209.1-131.21c-0.70549 2.4745 1.6589 1.3676 1.2172 0.062 1.5232 2.8334-3.1102 2.6868-1.2174-0.062"/><path d="m211.8-129.12c-2.1308-1.1664 0.36496-3.9716-0.35969-0.46708l0.35971 0.46689"/><path d="m212.91-129.12c-2.1308-1.1663 0.36497-3.9716-0.35971-0.46714l0.35963 0.46695"/><path d="m213.47-130.08c2.8964 2.3467-2.6538-0.96837 0.82277-0.81636 1.2696 0.47559-0.13107 1.2523-0.82271 0.81634m1.1445-0.26954c-0.57842-1.7068-1.9236 0.69651 5e-5 -1e-5"/><path d="m215.44-129.1c-0.75402-2.3733 2.163-3.2456 2e-4 -1e-5"/><path d="m219.33-129.72c-2.9408 1.7012 0.19758-4.7324 0.18586-0.26683 0.53788 0.3882 0.0117 0.24555-0.18586 0.26683zm-0.33203-1.7324c-1.917 1.65 0.34955 2.2444-2e-5 8e-5"/></g></g><g enable-background="new"><rect x="231" y="200" width="24" height="44" color="#000000" enable-background="accumulate" fill="#fdf39f"/><rect x="198" y="200" width="24" height="44" color="#000000" enable-background="accumulate" fill="#fce94f"/><rect x="166" y="200" width="24" height="44" color="#000000" enable-background="accumulate" fill="#edd400"/><rect x="134" y="200" width="24" height="44" color="#000000" enable-background="accumulate" fill="#c4a000"/><rect x="102" y="200" width="24" height="44" color="#000000" enable-background="accumulate" fill="#9c7f00"/></g><path d="m82 200c-12.188 0-22 9.812-22 22s9.812 22 22 22h178c2.216 0 4-1.784 4-4v-36c0-2.216-1.784-4-4-4z" color="#000000" enable-background="accumulate" fill="url(#b)" opacity=".5"/><path d="m82 200c-12.188 0-22 9.812-22 22s9.812 22 22 22h178c2.216 0 4-1.784 4-4v-36c0-2.216-1.784-4-4-4z" color="#000000" enable-background="accumulate" fill="none" filter="url(#aa)" stroke="#555753" stroke-linejoin="round" stroke-width=".5"/><path d="m82 201.5c-11.382 0-20.498 9.1165-20.498 20.498s9.1165 20.498 20.498 20.498h178c1.4096 0 2.498-1.0885 2.498-2.498v-36c0-1.4096-1.0885-2.498-2.498-2.498z" color="#000000" enable-background="accumulate" fill="none" opacity=".7" stroke="url(#g)"/></g><circle transform="matrix(.93743 0 0 .93743 8.505 17.546)" cx="78.4" cy="211.7" r="6.4005" color="#000000" enable-background="accumulate" fill="url(#k)" filter="url(#q)"/><path d="m60 215v10c0 12.188 9.812 22 22 22s22-9.812 22-22v-10c0 12.188-9.812 22-22 22s-22-9.812-22-22z" color="#000000" enable-background="accumulate" fill="url(#h)"/><path d="m83 247h176c2.216 0 4-1.784 4-4v-4c0 2.216-1.784 4-4 4h-176z" color="#000000" enable-background="accumulate" fill="url(#p)" filter="url(#v)" opacity=".5"/><circle transform="matrix(.93743 0 0 .93743 8.505 17.546)" cx="78.4" cy="211.7" r="6.4005" color="#000000" enable-background="accumulate" fill="url(#d)"/><path d="m60 218.5 0.25 10.625c-0.5 9.5 9 18.125 19.75 18.875h179.93c2.2985 0 3.7803-1.9406 3.8245-3.3107v-4.4393c-0.39775 1.6352-1.5873 2.5192-2.9255 2.5126l-179.07-0.88756c5.0625 0 10-2 13.062-4.125l152.94-88.25 1.5-4-3 3.75-151.25 86.75s4.4549-4.2941 6.4878-7.918l88.512-153.58-87.5 148.25c-4.5962 19.445-37.95 21.35-42.5-4.25z" color="#000000" enable-background="accumulate" fill="url(#j)" opacity=".46025"/></g></g></svg>
