<?xml version="1.0" encoding="UTF-8"?>
<svg enable-background="new" version="1.0" viewBox="0 0 256 256" xmlns="http://www.w3.org/2000/svg" xmlns:xlink="http://www.w3.org/1999/xlink"><defs><linearGradient id="o"><stop stop-color="#191919" offset="0"/><stop stop-color="#282828" stop-opacity=".56604" offset="1"/></linearGradient><linearGradient id="p"><stop stop-color="#9e9e9e" offset="0"/><stop stop-color="#333" stop-opacity="0" offset="1"/></linearGradient><linearGradient id="f"><stop offset="0"/><stop stop-opacity="0" offset="1"/></linearGradient><filter id="am"><feGaussianBlur stdDeviation="0.571875"/></filter><clipPath id="ap"><path d="m55.715 115.5 49.412-3.3536s-7.8995 19.213-9.6673 19.213c-1.7678 0-34.648-1.7678-34.648-1.7678z" color="#000000" enable-background="accumulate" fill="#696969"/></clipPath><filter id="aj"><feGaussianBlur stdDeviation="0.68672917"/></filter><clipPath id="ao"><path d="m93.639 160.72-31.171-1.3103-0.09772 18.083 30.194-0.65516z" color="#000000" enable-background="accumulate" fill="#b3b3b3" opacity=".53"/></clipPath><filter id="al" color-interpolation-filters="sRGB"><feGaussianBlur stdDeviation="0.571875"/></filter><filter id="ah"><feGaussianBlur stdDeviation="0.55917403"/></filter><filter id="ag" x="-.10412" y="-.11936" width="1.2082" height="1.2387"><feGaussianBlur stdDeviation="1.019551"/></filter><filter id="af" x="-.10412" y="-.11936" width="1.2082" height="1.2387" color-interpolation-filters="sRGB"><feGaussianBlur stdDeviation="1.019551"/></filter><filter id="h" x="-.10412" y="-.11936" width="1.2082" height="1.2387" color-interpolation-filters="sRGB"><feGaussianBlur stdDeviation="1.019551"/></filter><filter id="ae" x="-.10412" y="-.11936" width="1.2082" height="1.2387" color-interpolation-filters="sRGB"><feGaussianBlur stdDeviation="1.019551"/></filter><filter id="g" x="-.71804" y="-.086751" width="2.4361" height="1.1735"><feGaussianBlur stdDeviation="5.3858039"/></filter><clipPath id="b"><rect x="463.22" y="337" width="48.405" height="211" color="#000000" enable-background="accumulate" fill="#282828" fill-opacity=".56604"/></clipPath><filter id="ac" x="-1.7699" y="-.21383" width="4.5398" height="1.4277"><feGaussianBlur stdDeviation="13.275417"/></filter><filter id="ad" x="-.10412" y="-.11936" width="1.2082" height="1.2387" color-interpolation-filters="sRGB"><feGaussianBlur stdDeviation="1.019551"/></filter><filter id="ai" color-interpolation-filters="sRGB"><feGaussianBlur stdDeviation="0.68672917"/></filter><filter id="ak" color-interpolation-filters="sRGB"><feGaussianBlur stdDeviation="0.571875"/></filter><clipPath id="an"><path d="m145.66 57.203-34.118 1.5884 0.17678 15.487 34.383 0.59567z" color="#000000" enable-background="accumulate" fill="#b3b3b3" opacity=".505"/></clipPath><radialGradient id="n" cx="78.986" cy="167.55" r="11.266" gradientTransform="matrix(.9996 .028438 -.062767 2.2063 10.297 -199.52)" gradientUnits="userSpaceOnUse"><stop stop-color="#fff" offset="0"/><stop stop-color="#fff" stop-opacity="0" offset="1"/></radialGradient><radialGradient id="e" cx="79.139" cy="213.89" r="7.0023" gradientTransform="matrix(.88839 -.011129 .038291 5.002 .60398 -853.86)" gradientUnits="userSpaceOnUse"><stop stop-color="#fff" offset="0"/><stop stop-color="#fff" stop-opacity="0" offset="1"/></radialGradient><radialGradient id="d" cx="80.721" cy="209.74" r="14.197" gradientTransform="matrix(6.0716 .15309 -.017472 1.1932 -406.2 -52.508)" gradientUnits="userSpaceOnUse"><stop stop-color="#585858" offset="0"/><stop stop-color="#333" stop-opacity="0" offset="1"/></radialGradient><radialGradient id="c" cx="80.605" cy="169.47" r="14.197" gradientTransform="matrix(6.0716 .15309 -.017472 1.1932 -406.2 -52.508)" gradientUnits="userSpaceOnUse" xlink:href="#p"/><radialGradient id="m" cx="80.629" cy="211.16" r="14.197" gradientTransform="matrix(6.0716 .15309 -.017472 1.1932 -406.2 -52.508)" gradientUnits="userSpaceOnUse"><stop stop-color="#9e9e9e" offset="0"/><stop stop-color="#333" stop-opacity="0" offset="1"/></radialGradient><linearGradient id="a" x1="114.19" x2="114.19" y1="83.25" y2="247.75" gradientUnits="userSpaceOnUse"><stop stop-color="#4e4e4e" offset="0"/><stop stop-color="#373737" offset=".054972"/><stop stop-color="#393939" offset=".9486"/><stop stop-color="#f1f1f1" stop-opacity=".43868" offset="1"/></linearGradient><radialGradient id="l" cx="107" cy="165.62" r="10.875" gradientTransform="matrix(2.6551 0 0 8.4858 173.9 -967.9)" gradientUnits="userSpaceOnUse" xlink:href="#o"/><radialGradient id="k" cx="77.33" cy="147.41" r="11.266" gradientTransform="matrix(.9996 .028438 -.062767 2.2063 10.297 -199.52)" gradientUnits="userSpaceOnUse"><stop stop-color="#fff" offset="0"/><stop stop-color="#fff" stop-opacity="0" offset="1"/></radialGradient><radialGradient id="j" cx="80.237" cy="128.6" r="14.197" gradientTransform="matrix(6.0716 .15309 -.017472 1.1932 -406.2 -52.508)" gradientUnits="userSpaceOnUse"><stop stop-color="#9e9e9e" offset="0"/><stop stop-color="#333" stop-opacity="0" offset="1"/></radialGradient><linearGradient id="aa" x1="77" x2="78" y1="243.5" y2="78.5" gradientTransform="matrix(1 0 0 .88349 0 23.005)" gradientUnits="userSpaceOnUse"><stop stop-color="#bababa" offset="0"/><stop stop-color="#989898" offset=".20299"/><stop stop-color="#fff" offset="1"/></linearGradient><linearGradient id="z" x1="83" x2="83" y1="187.5" y2="140" gradientTransform="matrix(1 0 0 .8362 0 -22.774)" gradientUnits="userSpaceOnUse"><stop stop-color="#737373" offset="0"/><stop stop-color="#fff" offset="1"/></linearGradient><linearGradient id="y" x1="83" x2="83.707" y1="187.5" y2="148.39" gradientTransform="matrix(1 0 0 1.1803 0 -29.576)" gradientUnits="userSpaceOnUse"><stop stop-color="#383838" offset="0"/><stop stop-color="#fff" offset="1"/></linearGradient><linearGradient id="x" x1="79.5" x2="79.5" y1="183.5" y2="145" gradientTransform="matrix(1.1254 0 0 1 -9.9986 0)" gradientUnits="userSpaceOnUse"><stop stop-color="#808080" offset="0"/><stop stop-color="#dbdbdb" offset="1"/></linearGradient><linearGradient id="w" x1="79.5" x2="79.5" y1="183.5" y2="145" gradientTransform="matrix(1.1254 0 0 .76786 -9.9986 -13.316)" gradientUnits="userSpaceOnUse"><stop stop-color="#fff" offset="0"/><stop stop-color="#ededed" offset=".57796"/><stop stop-color="#a7a7a7" offset=".66252"/><stop stop-color="#ababab" offset="1"/></linearGradient><linearGradient id="v" x1="83" x2="83" y1="187.5" y2="140" gradientTransform="matrix(1.0149 0 0 .10482 -1.5594 72.422)" gradientUnits="userSpaceOnUse"><stop stop-color="#737373" offset="0"/><stop stop-color="#3c3c3c" offset="1"/></linearGradient><linearGradient id="u" x1="76.75" x2="76.75" y1="87.363" y2="104.86" gradientUnits="userSpaceOnUse" xlink:href="#f"/><linearGradient id="t" x1="83" x2="83" y1="187.5" y2="140" gradientTransform="matrix(1 0 0 .83285 0 77.32)" gradientUnits="userSpaceOnUse"><stop stop-color="#535353" offset="0"/><stop stop-color="#fff" offset="1"/></linearGradient><linearGradient id="s" x1="79.5" x2="78.174" y1="183.5" y2="137.63" gradientTransform="matrix(1.1254 0 0 .72825 -9.9986 94.66)" gradientUnits="userSpaceOnUse"><stop stop-color="#6b6b6b" offset="0"/><stop stop-color="#d1d1d1" offset=".48212"/><stop stop-color="#ababab" offset="1"/></linearGradient><linearGradient id="r" x1="76.75" x2="76.75" y1="87.363" y2="104.86" gradientTransform="matrix(1 0 0 2.308 0 -442.51)" gradientUnits="userSpaceOnUse" xlink:href="#f"/><linearGradient id="q" x1="56" x2="56" y1="-241.74" y2="-244.49" gradientUnits="userSpaceOnUse"><stop stop-color="#2f2f2f" offset="0"/><stop stop-color="#2f2f2f" stop-opacity="0" offset="1"/></linearGradient></defs><g transform="translate(-20 -28)"><g transform="matrix(1.0846 0 0 1.2206 -3.3149 -39.457)"><g id="ab" transform="translate(-10,-7)"><path transform="matrix(1 0 0 1.0047 0 -.38774)" d="m54.688 83c-3.0124 0-5.5 2.4876-5.5 5.5v156.5c0 3.0124 2.4876 5.5 5.5 5.5h49.625c3.0124 0 5.5-2.4876 5.5-5.5v-156.5c0-3.0124-2.4876-5.5-5.5-5.5z" color="#000000" enable-background="accumulate" fill="url(#a)"/><rect x="51.196" y="85" width="56.609" height="162.4" rx="3.5" ry="3.5" color="#000000" enable-background="accumulate"/><rect x="54" y="87.5" width="51" height="152.84" color="#000000" enable-background="accumulate" fill="url(#aa)"/><rect x="54.5" y="93.497" width="50.5" height="41.731" color="#000000" enable-background="accumulate" fill="url(#z)"/><rect x="54.5" y="134.55" width="50.5" height="58.906" color="#000000" enable-background="accumulate" fill="url(#y)"/><rect x="55.836" y="143" width="47.828" height="42" color="#000000" enable-background="accumulate" fill="url(#x)"/><rect x="55.836" y="96.488" width="47.828" height="32.25" color="#000000" enable-background="accumulate" fill="url(#w)"/><path d="m54.315 135.6 1.5468-7.0584v-31.763l-1.7678-6.787z" color="#000000" enable-background="accumulate" fill="#fff"/><path d="m54.315 193.93 1.5468-9.1924v-41.366l-1.7678-8.8388z" color="#000000" enable-background="accumulate" fill="#fff"/><rect x="53.75" y="86.997" width="51.25" height="5.2313" color="#000000" enable-background="accumulate" fill="url(#v)"/><rect x="53.75" y="86.997" width="51.25" height="18.731" color="#000000" enable-background="accumulate" fill="url(#u)"/><rect x="54.5" y="193.13" width="50.5" height="41.564" color="#000000" enable-background="accumulate" fill="url(#t)"/><rect x="55.836" y="198.8" width="47.828" height="30.586" color="#000000" enable-background="accumulate" fill="url(#s)"/><path d="m54.315 236.27 1.5468-7.1625v-32.231l-1.7678-6.887z" color="#000000" enable-background="accumulate" fill="#d0d0d0"/><rect x="53.75" y="234.31" width="51.25" height="6.368" color="#000000" enable-background="accumulate" fill="#676767"/><rect transform="scale(1,-1)" x="53.75" y="-241.73" width="51.25" height="43.231" color="#000000" enable-background="accumulate" fill="url(#r)" opacity=".53"/><rect transform="scale(1,-1)" x="53.75" y="-243.81" width="51.25" height="3.132" color="#000000" enable-background="accumulate" fill="url(#q)"/></g><use id="i" transform="translate(70)" width="400" height="300" color="#000000" enable-background="accumulate" fill="url(#a)" xlink:href="#ab"/><g transform="translate(10,-7)"><path transform="matrix(1.2792 0 0 1.1842 29.839 -29.029)" d="m77.125 153.19c-0.4127 0-0.80916 0.0141-1.2285 0.0332-0.42553 0.0193-0.84911 0.0572-1.252 0.0937-0.42171 0.0201-0.83599 0.0581-1.2305 0.0957a0.90227 0.90227 0 0 0-0.02344 4e-3c-1.2095 0.14871-2.2113 0.40047-3.0273 0.80664-0.81519 0.40572-1.4625 0.99879-1.7871 1.7676-3.55e-4 8.4e-4 -0.0016 1e-3 -2e-3 2e-3 -0.49227 1.1509-0.72776 2.6842-0.83594 4.5644-0.0695 0.20851-0.07813 0.32859-0.07813 0.50391v0.125a0.90227 0.90227 0 0 0 0.88867 0.90234l2.1875 0.0312a0.90227 0.90227 0 0 0 0.91602-0.90234v-0.21879c0-0.0134-5.13e-4 -0.0136 0.0039-0.0312a0.90227 0.90227 0 0 0 0.027405-0.2188v-0.5c0-1.533 0.35211-2.2881 0.59375-2.4785a0.90227 0.90227 0 0 0 0.01367-0.01c0.37954-0.31053 1.2045-0.60432 2.5078-0.67383a0.90227 0.90227 0 0 0 0.0078 0c0.28662-0.0179 0.57483-0.0293 0.84961-0.0293a0.90227 0.90227 0 0 0 0.06445-2e-3l0.8418-0.0605h0.875a0.90227 0.90227 0 0 0 0.05664-2e-3c0.28662-0.0179 0.57483-0.0293 0.84961-0.0293 0.75863 0 1.5276 0.0126 2.291 0.0312 0.7625 0.0182 1.4893 0.0672 2.2344 0.12305a0.90227 0.90227 0 0 0 0.0098 0c1.3238 0.0871 2.1588 0.40914 2.4551 0.67578 0.26136 0.23522 0.54492 0.89817 0.54492 2.1426 0 1.0663-0.1896 1.7628-0.38086 2.0586-0.11054 0.1599-0.65343 0.50363-1.7598 0.67383a0.90227 0.90227 0 0 0-2e-3 2e-3c-0.57648 0.0901-1.1516 0.15599-1.7559 0.21093a0.90227 0.90227 0 0 0-2e-3 0c-0.57266 0.0537-1.1896 0.0852-1.8145 0.12305a0.90227 0.90227 0 0 0-0.04492 4e-3l-0.55078 0.0605-0.01172 2e-3c-0.1659 3e-3 -0.33093 0.0117-0.49414 0.0254-0.12743 0-0.23759 0.0169-0.34961 0.0312-0.04213-1.6e-4 -0.06005-3e-3 -0.1582-0.0195a0.90227 0.90227 0 0 0-0.20898-0.01l-4.1875 0.28125c-1.457 0.0984-2.6653 0.34364-3.6445 0.79102-0.97926 0.44737-1.7437 1.1368-2.125 2.0391-0.63939 1.5132-0.91602 3.5019-0.91602 6.0078v0.7817a0.90227 0.90227 0 0 0 0.90242 0.90234h20.719a0.90227 0.90227 0 0 0 0.90234-0.90234v-1.9375a0.90227 0.90227 0 0 0-0.90234-0.90234h-17.447c0.10099-0.90685 0.20513-1.9043 0.35352-2.168 0.0449-0.0721 0.22323-0.24909 0.67188-0.41016 0.45318-0.1627 1.1387-0.30016 2.0234-0.37109l3.9629-0.31055 4.7949-0.3125c2.2354-0.11869 3.9443-0.62315 5.0352-1.7383a0.90227 0.90227 0 0 0 0.0078-8e-3c1.0767-1.1245 1.5-2.7946 1.5-4.9043 0-1.5386-0.21066-2.8193-0.7168-3.8516-0.50587-1.0317-1.3639-1.7955-2.4297-2.1074h-2e-3c-1.7619-0.52034-3.8532-0.76793-6.3086-0.78711a0.90227 0.90227 0 0 0-0.0078 0h-2.1875z" fill="url(#n)"/><path transform="matrix(1.2792 0 0 1.1842 29.839 -30.213)" d="m77.125 153.19c-0.4127 0-0.80916 0.0141-1.2285 0.0332-0.42553 0.0193-0.84911 0.0572-1.252 0.0937-0.42171 0.0201-0.83599 0.0581-1.2305 0.0957a0.90227 0.90227 0 0 0-0.02344 4e-3c-1.2095 0.14871-2.2113 0.40047-3.0273 0.80664-0.81519 0.40572-1.4625 0.99879-1.7871 1.7676-3.55e-4 8.4e-4 -0.0016 1e-3 -2e-3 2e-3 -0.49227 1.1509-0.72776 2.6842-0.83594 4.5644-0.0695 0.20851-0.07813 0.32859-0.07813 0.50391v0.125a0.90227 0.90227 0 0 0 0.88867 0.90234l2.1875 0.0312a0.90227 0.90227 0 0 0 0.91602-0.90234v-0.21879c0-0.0134-5.13e-4 -0.0136 0.0039-0.0312a0.90227 0.90227 0 0 0 0.027405-0.2188v-0.5c0-1.533 0.35211-2.2881 0.59375-2.4785a0.90227 0.90227 0 0 0 0.01367-0.01c0.37954-0.31053 1.2045-0.60432 2.5078-0.67383a0.90227 0.90227 0 0 0 0.0078 0c0.28662-0.0179 0.57483-0.0293 0.84961-0.0293a0.90227 0.90227 0 0 0 0.06445-2e-3l0.8418-0.0605h0.875a0.90227 0.90227 0 0 0 0.05664-2e-3c0.28662-0.0179 0.57483-0.0293 0.84961-0.0293 0.75863 0 1.5276 0.0126 2.291 0.0312 0.7625 0.0182 1.4893 0.0672 2.2344 0.12305a0.90227 0.90227 0 0 0 0.0098 0c1.3238 0.0871 2.1588 0.40914 2.4551 0.67578 0.26136 0.23522 0.54492 0.89817 0.54492 2.1426 0 1.0663-0.1896 1.7628-0.38086 2.0586-0.11054 0.1599-0.65343 0.50363-1.7598 0.67383a0.90227 0.90227 0 0 0-2e-3 2e-3c-0.57648 0.0901-1.1516 0.15599-1.7559 0.21093a0.90227 0.90227 0 0 0-2e-3 0c-0.57266 0.0537-1.1896 0.0852-1.8145 0.12305a0.90227 0.90227 0 0 0-0.04492 4e-3l-0.55078 0.0605-0.01172 2e-3c-0.1659 3e-3 -0.33093 0.0117-0.49414 0.0254-0.12743 0-0.23759 0.0169-0.34961 0.0312-0.04213-1.6e-4 -0.06005-3e-3 -0.1582-0.0195a0.90227 0.90227 0 0 0-0.20898-0.01l-4.1875 0.28125c-1.457 0.0984-2.6653 0.34364-3.6445 0.79102-0.97926 0.44737-1.7437 1.1368-2.125 2.0391-0.63939 1.5132-0.91602 3.5019-0.91602 6.0078v0.7817a0.90227 0.90227 0 0 0 0.90242 0.90234h20.719a0.90227 0.90227 0 0 0 0.90234-0.90234v-1.9375a0.90227 0.90227 0 0 0-0.90234-0.90234h-17.447c0.10099-0.90685 0.20513-1.9043 0.35352-2.168 0.0449-0.0721 0.22323-0.24909 0.67188-0.41016 0.45318-0.1627 1.1387-0.30016 2.0234-0.37109l3.9629-0.31055 4.7949-0.3125c2.2354-0.11869 3.9443-0.62315 5.0352-1.7383a0.90227 0.90227 0 0 0 0.0078-8e-3c1.0767-1.1245 1.5-2.7946 1.5-4.9043 0-1.5386-0.21066-2.8193-0.7168-3.8516-0.50587-1.0317-1.3639-1.7955-2.4297-2.1074h-2e-3c-1.7619-0.52034-3.8532-0.76793-6.3086-0.78711a0.90227 0.90227 0 0 0-0.0078 0h-2.1875z"/><path transform="matrix(1.2792 0 0 1 29.839 -5.3033)" d="m76.75 105.69c-0.35038 0-0.71632 0.0134-1.0703 0.0312-0.35156 0-1.1094 1e-3 -1.1367 2e-3 -0.70138 0.0413-1.3651 0.13498-2.002 0.22852-0.68606 0.0812-1.3906 0.2057-2.0879 0.42969-1.5284 0.47422-2.7902 1.4444-3.207 2.8438-0.30158 1.0124-0.48624 2.1643-0.52734 3.418l0.07227-0.39843c-0.04843 0.1453-0.10352 0.40143-0.10352 0.63281v0.125a1.4064 1.4064 0 0 0 1.4062 1.4062h2.2187a1.4064 1.4064 0 0 0 1.4062-1.4062v-0.3125c0-0.31227 0.0208-0.62528 0.05469-0.94727 0.02124-0.20179 0.06513-0.35741 0.1543-0.54687a1.4064 1.4064 0 0 0 0.01563-0.0332c0.06575-0.14943 0.08556-0.16365 0.25-0.23243 0.3575-0.14155 0.72608-0.23909 1.0879-0.27929a1.4064 1.4064 0 0 0 0.07422-0.0117c0.18736-0.0312 0.30517-0.043 0.42578-0.043a1.4064 1.4064 0 0 0 0.10742-4e-3c0.24848-0.0191 0.46848-0.0414 0.65234-0.0586 1.2298-0.0208 3.9108-0.0625 4.0215-0.0625-0.04378 0 0.15335 0.0506 0.57422-0.0195l-0.23047 0.0195h0.65625c0.37375 0 0.64341-0.0144 0.85547-2e-3a1.4064 1.4064 0 0 0 0.08203 2e-3c0.2818 0 0.60278 0.0116 0.92188 0.0293a1.4064 1.4064 0 0 0 0.078118 0.00206h0.29297c0.23122 0.0171 0.48258 0.04 0.72461 0.0586a1.4064 1.4064 0 0 0 0.10742 4e-3h0.74219c0.64758 0.0259 1.1212 0.11096 1.3555 0.18945 0.2366 0.0793 0.15911 0.11276 0.06836-0.0566a1.4064 1.4064 0 0 0 0.01172 0.0195c0.05653 0.10175 0.25977 0.81227 0.25977 1.9102 0 0.82046-0.18128 1.0876-0.29102 1.1816a1.4064 1.4064 0 0 0-0.01758 0.0176c-0.09692 0.0862-0.54145 0.28518-1.4492 0.26953a1.4064 1.4064 0 0 0-0.02344 0h-7.4375a1.4064 1.4064 0 0 0-1.4062 1.4061v1.9688a1.4064 1.4064 0 0 0 1.4062 1.4062h7.7812c1.0594 0 1.6102 0.27153 1.5723 0.24023-0.09424-0.0778 0.14648 0.17945 0.14648 1.0723 0 1.1957-0.18008 1.9767-0.34375 2.2949a1.4064 1.4064 0 0 0-0.01563 0.0273c0.02612-0.0538 0.06121-0.0227-0.17188 0.0683-0.23309 0.0911-0.6955 0.18703-1.3477 0.20313a1.4064 1.4064 0 0 0-0.0293 2e-3c-0.33635 0.0153-0.75824 0.0115-1.2168 0.0293-0.41667 0-1.293 1e-3 -1.3145 2e-3 -0.39879 0.0181-0.78169 0.0293-1.1855 0.0293h-1.25c-0.90558 0-1.8086-0.0126-2.7207-0.0312-0.88563-0.0185-1.7428-0.0499-2.5977-0.12109h-2e-3c-0.9982-0.0923-1.2047-0.34476-1.2168-0.36719-0.1609-0.36354-0.30659-1.0785-0.30659-2.0743a1.4064 1.4064 0 0 0-1.4258-1.4062l-2.2188 0.0312a1.4064 1.4064 0 0 0-1.3867 1.4062c0 1.9914 0.23737 3.5876 1.0293 4.8438a1.4064 1.4064 0 0 0 0.01172 0.0176c0.93664 1.4362 2.6357 2.0161 4.752 2.2832 0.45877 0.0641 0.87069 0.0851 1.2578 0.10352l1.1875 0.0625a1.4064 1.4064 0 0 0 0.07422 2e-3h6.5937c0.1633 0 0.29908-0.0173 0.4375-0.0312h0.0078 0.46875c2.1522-0.0587 3.9103-0.29868 5.3359-0.8418a1.4064 1.4064 0 0 0 0.01172-4e-3c1.0042-0.39226 1.7491-1.2708 2.1523-2.2871 0.40321-1.0163 0.55469-2.2043 0.55469-3.6172 0-1.428-0.16366-2.6265-0.68359-3.6504-0.17917-0.37034-0.52605-0.57091-0.8125-0.83399 0.29828-0.32957 0.68137-0.58834 0.81055-1.0156 0.29879-0.98832 0.43555-2.1354 0.43555-3.4375 0-2.0567-0.54501-3.8234-1.9766-4.7676-1.1698-0.77154-2.6369-1.1483-4.4102-1.291a1.4064 1.4064 0 0 0-2e-3 0c-0.47493-0.038-0.96255-0.0625-1.4609-0.0645l-0.056583-0.00188c-0.43633-0.018-0.8732-0.0421-1.3164-0.0606a1.4064 1.4064 0 0 0-0.05859-2e-3h-1.4062c-0.50604 0-0.95592 0.0177-1.3496 2e-3a1.4064 1.4064 0 0 0-0.05664-2e-3z" fill="#fff" filter="url(#aj)"/><path transform="matrix(1.2792 0 0 1 29.839 -5.3033)" d="m76.75 106.2c-0.35958 0-0.74169 0.0119-1.1094 0.0312h-1.0156a0.89918 0.89918 0 0 0-0.05273 0c-0.67559 0.0397-1.3247 0.13147-1.959 0.22461-0.0039 4.6e-4 -0.0078 1e-3 -0.01172 2e-3 -0.66813 0.0791-1.3427 0.19913-1.998 0.41016-0.0012 3.7e-4 -0.0027-3.7e-4 -0.0039 0-1.4339 0.44542-2.5065 1.2949-2.8672 2.5059-0.28744 0.96498-0.46606 2.0752-0.50586 3.2891l0.04492-0.25586c-0.03772 0.11319-0.07617 0.29769-0.07617 0.47266v0.125a0.89918 0.89918 0 0 0 0.89844 0.89844h2.2187a0.89918 0.89918 0 0 0 0.89844-0.89844v-0.3125c0-0.33484 0.0234-0.66571 0.05859-1 0.0271-0.25744 0.09009-0.4749 0.20117-0.71094a0.89918 0.89918 0 0 0 0.0078-0.0215c0.11662-0.26505 0.25135-0.38499 0.52148-0.49805 1e-3 -4.3e-4 9.15e-4 -2e-3 2e-3 -2e-3 0.39707-0.15774 0.80955-0.26464 1.2227-0.31055a0.89918 0.89918 0 0 0 0.04883-8e-3c0.2009-0.0335 0.34959-0.0508 0.50781-0.0508a0.89918 0.89918 0 0 0 0.06836-2e-3c0.24629-0.0189 0.47346-0.0429 0.66406-0.0605l3.7129-0.0625h0.3359c0.01256 0 0.18255 0.0399 0.49219-0.0117l-0.14844 0.0117h0.65625c0.35387 0 0.63428-0.0147 0.88477 0a0.89918 0.89918 0 0 0 0.05273 0c0.29508 0 0.62354 0.0132 0.94922 0.0312a0.89918 0.89918 0 0 0 0.05078 0h0.30273c0.24398 0.0177 0.5085 0.0417 0.75391 0.0605a0.89918 0.89918 0 0 0 0.06836 2e-3h0.74805c0.68755 0.0261 1.2012 0.1134 1.5098 0.21679 0.30852 0.1034 0.3628 0.19727 0.35547 0.1836a0.89918 0.89918 0 0 0 0.0078 0.0137c0.13753 0.24755 0.32422 1.015 0.32422 2.1562 0 0.90308-0.20934 1.344-0.46875 1.5664a0.89918 0.89918 0 0 0-0.01172 0.0117c-0.24447 0.21731-0.82055 0.41521-1.793 0.39844a0.89918 0.89918 0 0 0-0.01563 0h-7.4375a0.89918 0.89918 0 0 0-0.89841 0.89875v1.9688a0.89918 0.89918 0 0 0 0.89844 0.89844h7.7812c1.1167 0 1.7652 0.249 1.8965 0.35742 0.09521 0.0786 0.33008 0.50003 0.33008 1.4629 0 1.2376-0.17408 2.0853-0.40039 2.5254a0.89918 0.89918 0 0 0-0.0098 0.0195c-0.04075 0.0839-0.12919 0.19559-0.44336 0.31836s-0.82882 0.22123-1.5195 0.23828a0.89918 0.89918 0 0 0-0.01953 0c-0.37445 0.017-0.8132 0.011-1.2793 0.0312h-1.2109a0.89918 0.89918 0 0 0-0.04102 0c-0.40367 0.0183-0.79531 0.0312-1.209 0.0312h-1.25c-0.90954 0-1.8168-0.0126-2.7305-0.0312h-2e-3c-0.88843-0.0185-1.7562-0.0508-2.625-0.12304-1.0975-0.0983-1.5139-0.39886-1.6387-0.64649-0.21075-0.4667-0.35547-1.2558-0.35547-2.3008a0.89918 0.89918 0 0 0-0.91016-0.89844l-2.2188 0.0312a0.89918 0.89918 0 0 0-0.88672 0.89844c0 1.9423 0.24883 3.4582 0.95117 4.5723a0.89918 0.89918 0 0 0 0.0059 0.0117c0.80072 1.2278 2.339 1.7976 4.3848 2.0566 0.0023 2.9e-4 0.0036 2e-3 0.0059 2e-3 0.43652 0.0615 0.83282 0.081 1.2227 0.0996l1.1875 0.0625a0.89918 0.89918 0 0 0 0.04687 0h6.5937c0.16864 0 0.31753-0.0148 0.46289-0.0312h0.41211a0.89918 0.89918 0 0 0 0.02539 0c2.1195-0.0578 3.8326-0.29913 5.1699-0.8086a0.89918 0.89918 0 0 0 0.0059-2e-3c0.85832-0.33528 1.4981-1.0765 1.8652-2.002 0.36714-0.92541 0.51953-2.0566 0.51953-3.4297 0-1.3865-0.16714-2.522-0.62891-3.4277-0.21297-0.44214-0.59561-0.74082-1.002-1.0176 0.41402-0.32855 0.81646-0.69745 0.96875-1.2012 0.2789-0.92253 0.41211-2.0259 0.41211-3.291 0-1.9706-0.5151-3.5305-1.748-4.3438-1.0656-0.70282-2.4501-1.0704-4.1719-1.209-0.4844-0.0388-0.97796-0.0645-1.4785-0.0645h0.03516c-0.45993-0.0184-0.91527-0.0434-1.373-0.0625a0.89918 0.89918 0 0 0-0.03711 0h-1.4062c-0.49252 0-0.95041 0.0168-1.3711 0a0.89918 0.89918 0 0 0-0.03516 0z"/><path transform="matrix(1.2792 0 0 1 29.839 -5.3033)" d="m78.105 107.59 0.01953 2e-3h-1.375c-0.32506 0-0.68742 0.0109-1.0371 0.0293a0.4974 0.4974 0 0 1-0.02539 2e-3h-1.0508c-0.60549 0.0365-1.2172 0.12045-1.8457 0.21289a0.4974 0.4974 0 0 1-0.01367 2e-3c-0.61734 0.0726-1.2129 0.18025-1.75 0.35352a0.4974 0.4974 0 0 1-0.0059 2e-3c-1.1832 0.36541-1.7437 0.87765-1.9512 1.5742-0.23149 0.77714-0.36621 1.7196-0.41602 2.7344h1.1719c0.0069-0.32836 0.02221-0.65237 0.05469-0.96093 0.04316-0.41004 0.1552-0.79247 0.32617-1.1562 2.68e-4 -5.7e-4 -2.68e-4 -1e-3 0-2e-3 0.25639-0.57492 0.7132-0.98987 1.2578-1.2168a0.4974 0.4974 0 0 1 0.0059-2e-3c0.50364-0.20146 1.0395-0.34406 1.5918-0.40625 0.23188-0.0381 0.46389-0.0684 0.71875-0.0684l-0.03906 2e-3c0.23456-0.018 0.47006-0.0433 0.68164-0.0625a0.4974 0.4974 0 0 1 0.03711-2e-3l3.75-0.0625a0.4974 0.4974 0 0 1 0.0078 0h0.34375c0.16771 0 0.25834 8e-3 0.26172 8e-3a0.4974 0.4974 0 0 1 0.08203-8e-3h0.65625c0.29911 0 0.6105-0.019 0.9668 2e-3 0.32328 7.1e-4 0.66405 0.0127 0.99805 0.0312l-0.02734-0.00202h0.34375a0.4974 0.4974 0 0 1 0.03516 2e-3c0.26041 0.0186 0.5267 0.0424 0.75977 0.0605h0.76758a0.4974 0.4974 0 0 1 0.01953 2e-3c0.76949 0.0292 1.3938 0.11734 1.9004 0.28711 0.50657 0.16976 0.9202 0.43451 1.1426 0.84961 0.35799 0.64869 0.49805 1.5714 0.49805 2.8281 0 1.1287-0.28393 2.0472-0.95312 2.623-0.649 0.57477-1.5878 0.7687-2.7324 0.75h-6.9395v0.97265h7.2832c1.2744 0 2.1882 0.18463 2.7852 0.67774 0.61685 0.50957 0.83789 1.3833 0.83789 2.5391 0 1.351-0.15724 2.3851-0.55469 3.1602-0.22572 0.45973-0.65253 0.79485-1.1875 1.0039-0.53427 0.20878-1.1919 0.31149-1.9824 0.33203-0.43327 0.0197-0.87152 0.0134-1.2832 0.0312a0.4974 0.4974 0 0 1-0.02148 2e-3h-1.25l0.02344-2e-3c-0.41711 0.019-0.83275 0.0332-1.2734 0.0332h-1.25c-0.92287 0-1.8392-0.0125-2.7598-0.0312-0.90432-0.0188-1.8035-0.0507-2.7188-0.12696a0.4974 0.4974 0 0 1-0.0039 0c-1.3382-0.11983-2.3493-0.55432-2.7773-1.4355a0.4974 0.4974 0 0 1-0.0059-0.01c-0.29314-0.64124-0.40988-1.4618-0.44727-2.3906l-1.2168 0.0176c0.05182 1.5173 0.28492 2.6872 0.69141 3.334 0.43071 0.65826 1.5316 1.1965 3.3945 1.4316a0.4974 0.4974 0 0 1 0.0078 2e-3c0.36583 0.0523 0.71681 0.0711 1.1094 0.0898a0.4974 0.4974 0 0 1 2e-3 0l1.1758 0.0605h6.5801c0.12227 0 0.2352-0.01 0.375-0.0273a0.4974 0.4974 0 0 1 0.0625-4e-3h0.42383c2.0275-0.0553 3.613-0.29881 4.707-0.71484l0.0039-2e-3c0.45475-0.17895 0.80523-0.54175 1.0723-1.2148 0.26782-0.67506 0.41992-1.6505 0.41992-2.9141 0-1.2677-0.18124-2.2296-0.47656-2.8047a0.4974 0.4974 0 0 1-0.0059-0.0137c-0.23307-0.49203-0.89608-0.90111-2.1875-1.0957a0.4974 0.4974 0 0 1 2e-3 -0.98438c0.66081-0.0969 1.1556-0.26024 1.4844-0.45898 0.32873-0.19874 0.49491-0.41164 0.58008-0.69336 0.22414-0.74139 0.35352-1.7236 0.35352-2.8867 0-1.7336-0.43303-2.7252-1.1191-3.1777-0.7787-0.51361-1.9356-0.8553-3.5156-0.98243-0.45978-0.0368-0.91634-0.0605-1.3672-0.0605a0.4974 0.4974 0 0 1-0.01953-2e-3c-0.46592-0.0186-0.91667-0.0421-1.3555-0.0605h-1.4062c-0.45529 0-0.93076 0.0178-1.4258-2e-3z" clip-path="url(#ap)" fill="#b3b3b3" filter="url(#am)"/><path transform="matrix(1.2792 0 0 .87514 29.371 30.716)" d="m79 202.61a1.6455 1.6455 0 0 0-1.0117 0.3457l-7.7812 6.0625a1.6455 1.6455 0 0 0-0.22852 2.3809l1.2812 1.4688a1.6455 1.6455 0 0 0 2.2637 0.20508l4.5195-3.5957v13.527a1.6455 1.6455 0 0 0 1.6445 1.6445h2.2188a1.6455 1.6455 0 0 0 1.6445-1.6445v-18.75a1.6455 1.6455 0 0 0-1.6445-1.6445z" fill="url(#e)" filter="url(#ah)" opacity=".353"/><path transform="matrix(1.2792 0 0 1.0755 29.371 -10.727)" d="m79 203.17a1.0754 1.0754 0 0 0-0.66016 0.22851l-7.7812 6.0625a1.0754 1.0754 0 0 0-0.15039 1.5547l1.2812 1.4688a1.0754 1.0754 0 0 0 1.4805 0.13477l5.4414-4.3301v14.707a1.0754 1.0754 0 0 0 1.0762 1.0762h2.2188a1.0754 1.0754 0 0 0 1.0762-1.0762v-18.75a1.0754 1.0754 0 0 0-1.0762-1.0762z"/><path transform="matrix(1.2792 0 0 1.0755 29.371 -10.727)" d="m78.994 204.23a0.02201 0.02201 0 0 0-2e-3 2e-3 0.02201 0.02201 0 0 0-2e-3 0 0.02201 0.02201 0 0 0-2e-3 2e-3 0.02201 0.02201 0 0 0-2e-3 0l-7.7812 6.0625a0.02201 0.02201 0 0 0-2e-3 2e-3 0.02201 0.02201 0 0 0-2e-3 2e-3 0.02201 0.02201 0 0 0 0 2e-3 0.02201 0.02201 0 0 0-2e-3 2e-3 0.02201 0.02201 0 0 0 0 2e-3 0.02201 0.02201 0 0 0-2e-3 2e-3 0.02201 0.02201 0 0 0 0 2e-3 0.02201 0.02201 0 0 0 0 2e-3 0.02201 0.02201 0 0 0 0 2e-3 0.02201 0.02201 0 0 0 0 2e-3 0.02201 0.02201 0 0 0 0 2e-3 0.02201 0.02201 0 0 0 0 2e-3 0.02201 0.02201 0 0 0 2e-3 2e-3 0.02201 0.02201 0 0 0 0 2e-3 0.02201 0.02201 0 0 0 2e-3 2e-3 0.02201 0.02201 0 0 0 0 2e-3 0.02201 0.02201 0 0 0 2e-3 0l1.2812 1.4688a0.02201 0.02201 0 0 0 0 2e-3 0.02201 0.02201 0 0 0 2e-3 2e-3 0.02201 0.02201 0 0 0 2e-3 2e-3 0.02201 0.02201 0 0 0 2e-3 0 0.02201 0.02201 0 0 0 2e-3 2e-3 0.02201 0.02201 0 0 0 2e-3 0 0.02201 0.02201 0 0 0 2e-3 0 0.02201 0.02201 0 0 0 2e-3 0 0.02201 0.02201 0 0 0 0.0059 0 0.02201 0.02201 0 0 0 2e-3 0 0.02201 0.02201 0 0 0 2e-3 0 0.02201 0.02201 0 0 0 2e-3 -2e-3 0.02201 0.02201 0 0 0 2e-3 0 0.02201 0.02201 0 0 0 2e-3 -2e-3l7.1523-5.6914v16.895 4e-3a0.02201 0.02201 0 0 0 2e-3 2e-3 0.02201 0.02201 0 0 0 0 2e-3 0.02201 0.02201 0 0 0 2e-3 2e-3 0.02201 0.02201 0 0 0 0 2e-3 0.02201 0.02201 0 0 0 2e-3 2e-3 0.02201 0.02201 0 0 0 2e-3 2e-3 0.02201 0.02201 0 0 0 2e-3 0 0.02201 0.02201 0 0 0 2e-3 2e-3 0.02201 0.02201 0 0 0 2e-3 2e-3 0.02201 0.02201 0 0 0 2e-3 0 0.02201 0.02201 0 0 0 2e-3 0 0.02201 0.02201 0 0 0 2e-3 0 0.02201 0.02201 0 0 0 2e-3 0h2.2188a0.02201 0.02201 0 0 0 2e-3 0 0.02201 0.02201 0 0 0 2e-3 0 0.02201 0.02201 0 0 0 2e-3 0 0.02201 0.02201 0 0 0 2e-3 -2e-3 0.02201 0.02201 0 0 0 2e-3 0 0.02201 0.02201 0 0 0 2e-3 -2e-3 0.02201 0.02201 0 0 0 2e-3 0 0.02201 0.02201 0 0 0 2e-3 -2e-3 0.02201 0.02201 0 0 0 2e-3 -2e-3 0.02201 0.02201 0 0 0 0-2e-3 0.02201 0.02201 0 0 0 2e-3 -2e-3 0.02201 0.02201 0 0 0 2e-3 -2e-3 0.02201 0.02201 0 0 0 0-2e-3 0.02201 0.02201 0 0 0 0-2e-3 0.02201 0.02201 0 0 0 0-2e-3 0.02201 0.02201 0 0 0 0-2e-3v-18.75a0.02201 0.02201 0 0 0 0-2e-3 0.02201 0.02201 0 0 0 0-2e-3 0.02201 0.02201 0 0 0 0-2e-3 0.02201 0.02201 0 0 0-2e-3 -2e-3 0.02201 0.02201 0 0 0 0-2e-3 0.02201 0.02201 0 0 0-2e-3 -2e-3 0.02201 0.02201 0 0 0 0-2e-3 0.02201 0.02201 0 0 0-2e-3 -2e-3 0.02201 0.02201 0 0 0-2e-3 -2e-3 0.02201 0.02201 0 0 0-2e-3 0 0.02201 0.02201 0 0 0-2e-3 -2e-3 0.02201 0.02201 0 0 0-2e-3 -2e-3 0.02201 0.02201 0 0 0-2e-3 0 0.02201 0.02201 0 0 0-2e-3 0 0.02201 0.02201 0 0 0-2e-3 0 0.02201 0.02201 0 0 0-2e-3 0h-2.9071a0.02201 0.02201 0 0 0-2e-3 0 0.02201 0.02201 0 0 0-2e-3 0 0.02201 0.02201 0 0 0-2e-3 0z" color="#000000" enable-background="accumulate" fill="url(#d)" filter="url(#af)"/><path transform="matrix(1.2792 0 0 1.1842 29.839 -30.213)" d="m77.125 154.68c-0.38115 0-0.7524 0.0127-1.1602 0.0312-0.39512 0.018-0.81335 0.0544-1.2246 0.0918a0.58664 0.58664 0 0 1-0.02539 2e-3c-0.36959 0.0176-0.7556 0.053-1.1426 0.0898-0.0016 2e-4 -0.0023-1.9e-4 -0.0039 0-1.0979 0.13536-1.95 0.36894-2.543 0.66406-0.59383 0.29555-0.9178 0.63289-1.0781 1.0137a0.58664 0.58664 0 0 1-2e-3 2e-3c-0.38336 0.8945-0.63382 2.2564-0.73828 4.0352l0.98828 0.0156v-0.0937-0.28125c0-1.7213 0.29689-2.9613 1.1562-3.6426 0.77261-0.63042 1.8943-0.92692 3.3613-1.0059 0.30848-0.0193 0.62717-0.0312 0.94336-0.0312h-0.04102l0.875-0.0625a0.58664 0.58664 0 0 1 0.04102 0h0.86914c0.30848-0.0193 0.62717-0.0312 0.94336-0.0312 0.77479 0 1.5545 0.0124 2.3262 0.0312 0.8032 0.0191 1.5579 0.0705 2.3105 0.12696l-0.0039-2e-3c1.4898 0.098 2.6183 0.39497 3.3535 1.0566 0.7579 0.68211 1.0371 1.7994 1.0371 3.248 0 1.2209-0.16428 2.1786-0.62695 2.8848a0.58664 0.58664 0 0 1-0.0039 8e-3c-0.51739 0.76246-1.4829 1.1142-2.7715 1.3125-0.61486 0.0961-1.2219 0.16559-1.8496 0.22265-0.61673 0.0578-1.2476 0.0898-1.8613 0.12696l-0.5332 0.0586a0.58664 0.58664 0 0 1-0.06445 4e-3c-0.16132 0-0.34551 0.0115-0.54102 0.0293a0.58664 0.58664 0 0 1-0.05273 2e-3c-0.06895 0-0.15994 9e-3 -0.24805 0.0234a0.58664 0.58664 0 0 1-0.0957 8e-3c-0.11641 0-0.2098-0.0156-0.30469-0.0293l-4.1562 0.2793c-1.3413 0.0906-2.3871 0.32305-3.125 0.66015-0.73789 0.33711-1.157 0.7524-1.373 1.2637-0.51211 1.212-0.79883 3.0365-0.79883 5.4277v0.19531h19.547v-0.76562h-17.914a0.58664 0.58664 0 0 1-0.58594-0.59961c0.04102-1.7432 0.22583-2.9767 0.70117-3.8086a0.58664 0.58664 0 0 1 0.0059-0.0117c0.29724-0.4954 0.8106-0.81816 1.4531-1.0488s1.4398-0.37354 2.4102-0.45117l3.9688-0.3125a0.58664 0.58664 0 0 1 0.0098-2e-3l4.8125-0.3125a0.58664 0.58664 0 0 1 0.0059 0c2.0398-0.10831 3.3639-0.59424 4.0469-1.291 0.6907-0.7227 1.0859-1.9679 1.0859-3.873 0-1.3965-0.20624-2.4648-0.56445-3.1953-0.35821-0.73054-0.83085-1.1365-1.5137-1.3359a0.58664 0.58664 0 0 1-2e-3 0c-1.5749-0.46531-3.5366-0.70786-5.8965-0.72656h-2.1875z" color="#000000" enable-background="accumulate" fill="url(#c)" filter="url(#h)"/></g><g transform="translate(-10,-7)"><path transform="matrix(1.2792 0 0 .95396 -20.161 -44.447)" d="m77.125 152.79c-0.42116 0-0.82363 0.0121-1.2461 0.0312-0.4505 0.0205-0.89391 0.06-1.3086 0.0977-0.41394 0.0213-0.81578 0.0597-1.1934 0.0957a1.3016 1.3016 0 0 0-0.03516 4e-3c-1.2388 0.15231-2.2825 0.40987-3.1582 0.84571-0.87349 0.43474-1.6036 1.0937-1.9727 1.9648-0.55061 1.2848-0.82011 2.8942-0.91797 4.9492l0.06641-0.34961c-0.09196 0.2759-0.09766 0.41113-0.09766 0.63086v0.125a1.3016 1.3016 0 0 0 1.2812 1.3008l2.1875 0.0312a1.3016 1.3016 0 0 0 1.3203-1.3008v-0.19141a1.3016 1.3016 0 0 0 0.031254-0.27738v-0.5c0-1.4815 0.36655-2.107 0.44141-2.166a1.3016 1.3016 0 0 0 0.01953-0.0137c0.27378-0.224 1.0174-0.51689 2.2754-0.58398a1.3016 1.3016 0 0 0 0.01367 0c0.28076-0.0175 0.56054-0.0293 0.82422-0.0293a1.3016 1.3016 0 0 0 0.0918-2e-3l0.83008-0.0606h0.85938a1.3016 1.3016 0 0 0 0.08203-2e-3c0.28076-0.0175 0.56054-0.0293 0.82422-0.0293 0.7543 0 1.5201 0.0127 2.2812 0.0312 0.75158 0.0179 1.4718 0.0654 2.2148 0.12109a1.3016 1.3016 0 0 0 0.01172 2e-3c1.2792 0.0842 2.0363 0.41353 2.2148 0.57422 0.12818 0.11536 0.41406 0.65605 0.41406 1.8457 0 1.0236-0.19651 1.6481-0.31641 1.8359-4e-3 2e-3 -0.43135 0.33965-1.4863 0.50195a1.3016 1.3016 0 0 0-0.0039 2e-3c-0.56619 0.0885-1.1305 0.15267-1.7285 0.20704a1.3016 1.3016 0 0 0-0.0039 2e-3c-0.56068 0.0526-1.1731 0.083-1.8008 0.12109a1.3016 1.3016 0 0 0-0.06641 6e-3l-0.55078 0.0606-0.01172 2e-3c-0.19264 5e-3 -0.38334 0.0107-0.56641 0.0273l0.11719-4e-3c-0.13082 0-0.23706 0.0182-0.34961 0.0312-0.0121 2.2e-4 -5.13e-4 2e-3 -0.0918-0.0137a1.3016 1.3016 0 0 0-0.30274-0.0156l-4.1875 0.28125c-1.488 0.10054-2.7392 0.34923-3.7832 0.82617-1.044 0.47695-1.9026 1.2409-2.3281 2.248-0.67353 1.594-0.94531 3.6254-0.94531 6.1621v0.78129a1.3016 1.3016 0 0 0 1.3008 1.3008h20.719a1.3016 1.3016 0 0 0 1.3008-1.3008v-1.9375a1.3016 1.3016 0 0 0-1.3008-1.3008h-16.992c0.09505-0.56567 0.16918-1.4281 0.24609-1.5664-0.01865 0.0323 0.06728-0.0977 0.45898-0.23828 0.40254-0.14451 1.0578-0.27853 1.9199-0.34765l3.9609-0.31055 4.7871-0.3125c2.2875-0.12146 4.0984-0.63032 5.2988-1.8574a1.3016 1.3016 0 0 0 0.0098-0.01c1.1799-1.2324 1.6113-3.0174 1.6113-5.1816 0-1.5767-0.21004-2.9142-0.75586-4.0273-0.54515-1.1118-1.5082-1.972-2.6758-2.3145-1.8122-0.53543-3.9404-0.78335-6.4219-0.80273a1.3016 1.3016 0 0 0-0.0098 0h-2.1875z" enable-background="new" fill="#fff"/><path transform="matrix(1.2792 0 0 .95396 -20.161 -44.447)" d="m77.125 153.19c-0.4127 0-0.80916 0.0141-1.2285 0.0332-0.42553 0.0193-0.84911 0.0572-1.252 0.0937-0.42171 0.0201-0.83599 0.0581-1.2305 0.0957a0.90227 0.90227 0 0 0-0.02344 4e-3c-1.2095 0.14871-2.2113 0.40047-3.0273 0.80664-0.81519 0.40572-1.4625 0.99879-1.7871 1.7676-3.55e-4 8.4e-4 -0.0016 1e-3 -2e-3 2e-3 -0.49227 1.1509-0.72776 2.6842-0.83594 4.5644-0.0695 0.20851-0.07813 0.32859-0.07813 0.50391v0.125a0.90227 0.90227 0 0 0 0.88867 0.90234l2.1875 0.0312a0.90227 0.90227 0 0 0 0.91602-0.90234v-0.21879c0-0.0134-5.13e-4 -0.0136 0.0039-0.0312a0.90227 0.90227 0 0 0 0.027405-0.2188v-0.5c0-1.533 0.35211-2.2881 0.59375-2.4785a0.90227 0.90227 0 0 0 0.01367-0.01c0.37954-0.31053 1.2045-0.60432 2.5078-0.67383a0.90227 0.90227 0 0 0 0.0078 0c0.28662-0.0179 0.57483-0.0293 0.84961-0.0293a0.90227 0.90227 0 0 0 0.06445-2e-3l0.8418-0.0605h0.875a0.90227 0.90227 0 0 0 0.05664-2e-3c0.28662-0.0179 0.57483-0.0293 0.84961-0.0293 0.75863 0 1.5276 0.0126 2.291 0.0312 0.7625 0.0182 1.4893 0.0672 2.2344 0.12305a0.90227 0.90227 0 0 0 0.0098 0c1.3238 0.0871 2.1588 0.40914 2.4551 0.67578 0.26136 0.23522 0.54492 0.89817 0.54492 2.1426 0 1.0663-0.1896 1.7628-0.38086 2.0586-0.11054 0.1599-0.65343 0.50363-1.7598 0.67383a0.90227 0.90227 0 0 0-2e-3 2e-3c-0.57648 0.0901-1.1516 0.15599-1.7559 0.21093a0.90227 0.90227 0 0 0-2e-3 0c-0.57266 0.0537-1.1896 0.0852-1.8145 0.12305a0.90227 0.90227 0 0 0-0.04492 4e-3l-0.55078 0.0605-0.01172 2e-3c-0.1659 3e-3 -0.33093 0.0117-0.49414 0.0254-0.12743 0-0.23759 0.0169-0.34961 0.0312-0.04213-1.6e-4 -0.06005-3e-3 -0.1582-0.0195a0.90227 0.90227 0 0 0-0.20898-0.01l-4.1875 0.28125c-1.457 0.0984-2.6653 0.34364-3.6445 0.79102-0.97926 0.44737-1.7437 1.1368-2.125 2.0391-0.63939 1.5132-0.91602 3.5019-0.91602 6.0078v0.7817a0.90227 0.90227 0 0 0 0.90242 0.90234h20.719a0.90227 0.90227 0 0 0 0.90234-0.90234v-1.9375a0.90227 0.90227 0 0 0-0.90234-0.90234h-17.447c0.10099-0.90685 0.20513-1.9043 0.35352-2.168 0.0449-0.0721 0.22323-0.24909 0.67188-0.41016 0.45318-0.1627 1.1387-0.30016 2.0234-0.37109l3.9629-0.31055 4.7949-0.3125c2.2354-0.11869 3.9443-0.62315 5.0352-1.7383a0.90227 0.90227 0 0 0 0.0078-8e-3c1.0767-1.1245 1.5-2.7946 1.5-4.9043 0-1.5386-0.21066-2.8193-0.7168-3.8516-0.50587-1.0317-1.3639-1.7955-2.4297-2.1074h-2e-3c-1.7619-0.52034-3.8532-0.76793-6.3086-0.78711a0.90227 0.90227 0 0 0-0.0078 0h-2.1875z" enable-background="new"/><path transform="matrix(1.2792 0 0 1.0755 -20.629 -65.727)" d="m79 202.59a1.6564 1.6564 0 0 0-1.0176 0.34961l-7.7812 6.0625a1.6564 1.6564 0 0 0-0.23047 2.3945l1.2812 1.4688a1.6564 1.6564 0 0 0 2.2793 0.20898l4.5-3.5801v13.502a1.6564 1.6564 0 0 0 1.6562 1.6562h2.2188a1.6564 1.6564 0 0 0 1.6562-1.6562v-18.75a1.6564 1.6564 0 0 0-1.6562-1.6562z" enable-background="new" fill="url(#e)"/><path transform="matrix(1.2792 0 0 1.0755 -20.629 -66.727)" d="m79 203.17a1.0754 1.0754 0 0 0-0.66016 0.22851l-7.7812 6.0625a1.0754 1.0754 0 0 0-0.15039 1.5547l1.2812 1.4688a1.0754 1.0754 0 0 0 1.4805 0.13477l5.4414-4.3301v14.707a1.0754 1.0754 0 0 0 1.0762 1.0762h2.2188a1.0754 1.0754 0 0 0 1.0762-1.0762v-18.75a1.0754 1.0754 0 0 0-1.0762-1.0762z" enable-background="new"/><path transform="matrix(1.2792 0 0 .95396 -20.161 -44.447)" d="m77.125 154.58c-0.3832 0-0.75751 0.0127-1.166 0.0312-0.39794 0.0181-0.81513 0.0544-1.2266 0.0918a0.4902 0.4902 0 0 1-0.02148 2e-3c-0.37384 0.0178-0.76194 0.0529-1.1504 0.0899-0.0018 2.2e-4 -0.0021 2e-3 -0.0039 2e-3 -1.1047 0.13624-1.967 0.36965-2.5742 0.67188-0.60822 0.30271-0.95406 0.65455-1.125 1.0605a0.4902 0.4902 0 0 1 0 4e-3c-0.39865 0.93019-0.6557 2.3259-0.75586 4.168l1.1895 0.0176v-0.19162-0.28125c0-1.7095 0.30113-2.9189 1.1211-3.5684 0.74709-0.60954 1.8508-0.90404 3.3066-0.98242 0.29555-0.0185 0.60042-0.0303 0.90234-0.0312l0.03516-2e-3 0.83984-0.0606a0.4902 0.4902 0 0 1 0.03516-2e-3h0.90625c0.2974-0.0181 0.60321-0.0312 0.90625-0.0312 0.77374 0 1.5531 0.0124 2.3242 0.0312 0.79854 0.019 1.5505 0.0707 2.3008 0.12695 1.4791 0.0973 2.5901 0.39321 3.2969 1.0293 0.72574 0.65316 1.0059 1.7423 1.0059 3.1777 0 1.2113-0.16618 2.1526-0.61133 2.832a0.4902 0.4902 0 0 1-0.0039 6e-3c-0.49087 0.72339-1.43 1.075-2.707 1.2715-0.61172 0.0955-1.2163 0.16578-1.8418 0.22265-0.60606 0.0568-1.227 0.0864-1.834 0.12305h-0.0059c-0.0065 3.9e-4 -0.01306 2e-3 -0.01953 2e-3l-0.53711 0.0606a0.4902 0.4902 0 0 1-0.05469 4e-3c-0.16561 0-0.35157 0.0114-0.54883 0.0293a0.4902 0.4902 0 0 1-0.04492 2e-3c-0.0761 0-0.17157 0.0101-0.26367 0.0254a0.4902 0.4902 0 0 1-0.08008 6e-3c-0.12218 0-0.22249-0.0159-0.32227-0.0312l-4.1445 0.2793c-1.3488 0.0911-2.4047 0.32568-3.1582 0.66992-0.75352 0.34425-1.1971 0.77785-1.4238 1.3145-0.52035 1.2315-0.80469 3.0661-0.80469 5.4648v0.29102h19.738v-0.95704h-18.01a0.4902 0.4902 0 0 1-0.49023-0.50195c0.04085-1.7362 0.23116-2.9616 0.68945-3.7637a0.4902 0.4902 0 0 1 0.0059-8e-3c0.28072-0.46788 0.77206-0.78154 1.4023-1.0078 0.63029-0.22627 1.4199-0.37007 2.3848-0.44726l3.9688-0.3125a0.4902 0.4902 0 0 1 0.0078 0l4.8125-0.3125a0.4902 0.4902 0 0 1 0.0059-2e-3c2.0515-0.10893 3.3998-0.59515 4.1094-1.3184 0.71664-0.74849 1.1133-2.0216 1.1133-3.9414 0-1.4057-0.20643-2.4882-0.57422-3.2383-0.36779-0.75008-0.86459-1.178-1.5723-1.3848a0.4902 0.4902 0 0 1-2e-3 0c-1.587-0.46888-3.5578-0.71171-5.9238-0.73047h-2.1875z" clip-path="url(#ao)" color="#000000" enable-background="accumulate" fill="#b3b3b3" filter="url(#al)"/><path transform="matrix(1.2418 0 0 .94632 -19.536 16.44)" d="m80.938 201.81c-0.95899 0-1.9189 0.0109-2.8965 0.0312-0.95936 3.3e-4 -1.9085 0.0218-2.8652 0.0625a1.0001 1.0001 0 0 0-0.0059 2e-3c-1.752 0.0865-3.2225 0.46689-4.3887 1.2168-1.2856 0.80532-2.0733 2.2798-2.4492 4.1816a1.0001 1.0001 0 0 0-0.0039 0.0215c-0.0911 0.52382-0.13838 1.0463-0.19727 1.5566a1.0001 1.0001 0 0 0-2e-3 0.0351c-0.0412 0.51499-0.07674 1.0285-0.09766 1.5723-0.020656 0.49846-0.031164 1.0076-0.031164 1.5078v2.5625a1.0001 1.0001 0 0 0 2e-3 0.0508l0.0625 1.2188c0.02136 0.60802 0.06678 1.2401 0.12891 1.8613a1.0001 1.0001 0 0 0 0 4e-3c0.06135 0.593 0.13226 1.2018 0.26367 1.8398 0.34758 1.8214 1.3542 3.2603 2.8887 3.9394a1.0001 1.0001 0 0 0 0.01172 6e-3c1.3588 0.57918 2.8146 0.87068 4.3477 0.89258a1.0001 1.0001 0 0 0 0.01367 0h0.11914l4.7734 0.0625a1.0001 1.0001 0 0 0 0.01367 0h2.2812a1.0001 1.0001 0 0 0 0.05469-2e-3c0.34743-0.0193 0.69489-0.0293 1.0391-0.0293h1.1562c1.9287 0 3.4998-0.21215 4.7598-0.7168 1.2585-0.50404 2.2287-1.3732 2.6484-2.5332 0.70885-1.9078 1.0605-4.3861 1.0605-7.4375 0-1.0066-0.02149-1.9943-0.0625-2.9785-0.04185-1.0043-0.13366-1.997-0.25781-2.9902a1.0001 1.0001 0 0 0 0-6e-3c-0.20338-1.5366-0.78044-2.8812-1.709-3.9316-0.95533-1.1042-2.3584-1.726-3.9902-1.8418h-0.0039c-0.56617-0.0418-1.1233-0.0644-1.6953-0.0644h0.03711l-1.6562-0.0625a1.0001 1.0001 0 0 0-2e-3 0c-0.57656-0.0206-1.1315-0.0312-1.6914-0.0312zm-3.9277 4.082-0.42578 0.10547 4.3398-0.0937 4.4473 0.15625a1.0001 1.0001 0 0 0 0.01367 0c0.84238 0.0183 1.6382 0.14692 2.3594 0.36328a1.0001 1.0001 0 0 0 0.02734 0.01c0.47847 0.12837 0.72511 0.35954 0.95117 1.1992 0.08321 0.31758 0.15147 0.71365 0.1875 1.1641a1.0001 1.0001 0 0 0 0.0039 0.0391c0.05827 0.48557 0.09816 0.95634 0.11719 1.4512a1.0001 1.0001 0 0 0 0 2e-3c0.01969 0.47247 0.03125 0.95708 0.03125 1.4277a1.0001 1.0001 0 0 0 0 0.043c0.01979 0.45515 0.03125 0.86286 0.03125 1.207 0 0.85345-0.02069 1.69-0.06055 2.5469a1.0001 1.0001 0 0 0-2e-3 0.0234c-0.01927 0.80951-0.08263 1.6479-0.17969 2.4863-0.17937 1.2415-0.52481 1.6865-0.87891 1.8281a1.0001 1.0001 0 0 0-0.0078 2e-3c-0.5849 0.23996-1.5439 0.38231-2.7617 0.36328a1.0001 1.0001 0 0 0-0.03711 0l-4.4551 0.0937-4.2715-0.0312c-1.1466-0.0376-2.0729-0.21484-2.791-0.51367-0.45428-0.20402-0.7981-0.68056-0.90234-1.9141a1.0001 1.0001 0 0 0-2e-3 -0.0234l-0.12109-1.1289-0.0625-1.1309c-0.019302-0.34962-0.041188-0.70841-0.06045-1.0708v-2.3752c0.01947-0.40583 0.04099-0.80804 0.06055-1.1992l0.0625-1.1953 0.12305-1.2578-2e-3 2e-3c0.07234-0.72337 0.22784-1.2428 0.39258-1.5469 0.16403-0.30277 0.29217-0.38931 0.45898-0.44531 7.21e-4 -2.4e-4 0.0012-2e-3 2e-3 -2e-3 0.76473-0.24838 1.6975-0.41149 2.8105-0.44922h0.0293c0.2218 0 0.40204-0.0516 0.57227-0.13672z"/><path transform="matrix(1.2418 0 0 .94632 -19.536 16.44)" d="m80.938 202.87c-0.95083 0-1.9019 0.011-2.873 0.0312a0.057734 0.057734 0 0 1-2e-3 0c-0.95039 0-1.8912 0.022-2.8418 0.0625-1.6326 0.0806-2.9168 0.43261-3.877 1.0527-0.95326 0.59579-1.6324 1.7629-1.9746 3.4941-0.08018 0.46166-0.12676 0.96768-0.1875 1.4941-0.04037 0.50482-0.07162 1.0028-0.0918 1.5273-0.02021 0.485-0.03125 0.98191-0.03125 1.4668v2.5606l0.0625 1.2168a0.057734 0.057734 0 0 1 0 2e-3c0.02019 0.58547 0.06244 1.2025 0.12305 1.8086 0.06067 0.58643 0.12921 1.1603 0.25 1.7441 0.30113 1.5859 1.0621 2.639 2.2793 3.1777 1.2275 0.52318 2.5352 0.78649 3.9453 0.80664h0.125l4.7812 0.0625h2.2773c0.36529-0.0203 0.73217-0.0312 1.0977-0.0312h1.1562c1.8475 0 3.3021-0.21208 4.3672-0.63868 1.0651-0.42659 1.7392-1.0625 2.0469-1.916 0.64407-1.7309 0.99609-4.1035 0.99609-7.0742 0-0.99091-0.02205-1.9648-0.0625-2.9356-0.0404-0.96962-0.12676-1.9301-0.24805-2.9004-0.18091-1.3669-0.67395-2.4937-1.4551-3.375a0.057734 0.057734 0 0 1 0-2e-3c-0.75832-0.87806-1.8478-1.3801-3.2734-1.4805-0.54526-0.0404-1.0762-0.0605-1.6211-0.0605a0.057734 0.057734 0 0 1-2e-3 0l-1.6562-0.0625c-0.56615-0.0202-1.1086-0.0312-1.6543-0.0312zm-2e-3 1.9766c0.0013 0 2.9831 0.10416 4.4727 0.15625 0.93616 0.0204 1.824 0.16574 2.6387 0.41015v-2e-3c0.85012 0.22808 1.4106 0.8825 1.6973 1.9473 0.1022 0.38837 0.17802 0.84639 0.21875 1.3555 0.06062 0.50586 0.1067 1.0065 0.12695 1.5332 0.02027 0.48652 0.03125 0.98407 0.03125 1.4707 0.02021 0.46525 0.03125 0.88509 0.03125 1.25 0 0.87129-0.02198 1.7246-0.0625 2.5957-0.02029 0.85213-0.08808 1.7258-0.18945 2.5977a0.057734 0.057734 0 0 1 0 2e-3c-0.20376 1.4263-0.69934 2.3356-1.5352 2.6699-0.80116 0.32869-1.8779 0.46367-3.1777 0.44336l-4.4668 0.0937a0.057734 0.057734 0 0 1-2e-3 0l-4.3125-0.0312a0.057734 0.057734 0 0 1-2e-3 0c-1.2394-0.0406-2.2967-0.23164-3.1758-0.59961a0.057734 0.057734 0 0 1-2e-3 0c-0.89372-0.3949-1.4105-1.3496-1.5332-2.7969v-2e-3l-0.125-1.1543a0.057734 0.057734 0 0 1-2e-3 -2e-3l-0.0625-1.1562c-0.02023-0.36421-0.04225-0.74022-0.0625-1.125a0.057734 0.057734 0 0 1 0-4e-3v-2.375a0.057734 0.057734 0 0 1 0-2e-3c0.02025-0.42522 0.04227-0.8453 0.0625-1.25a0.057734 0.057734 0 0 1 0-2e-3l0.0625-1.2188a0.057734 0.057734 0 0 1 2e-3 -2e-3l0.125-1.2812c0.08146-0.81457 0.25207-1.4624 0.51367-1.9453 0.2616-0.48288 0.61676-0.80064 1.0566-0.94727 0.87636-0.28533 1.9107-0.46327 3.1094-0.5039a0.057734 0.057734 0 0 1 2e-3 0h0.0625c0.03001 0 0.06662-7e-3 0.09961-0.0234a0.057734 0.057734 0 0 1 0.02344-8e-3z" fill="url(#d)" filter="url(#ag)"/><path transform="matrix(1.2792 0 0 1.0755 -20.629 -66.727)" d="m79 204.34-7.6562 5.9688 1.1562 1.3438 7.125-5.6562a0.09796 0.09796 0 0 1 0.03125-0.0312 0.09796 0.09796 0 0 1 0.03125 0 0.09796 0.09796 0 0 1 0.03125 0 0.09796 0.09796 0 0 1 0.03125 0 0.09796 0.09796 0 0 1 0 0.0312 0.09796 0.09796 0 0 1 0.03125 0 0.09796 0.09796 0 0 1 0 0.0312 0.09796 0.09796 0 0 1 0 0.0312v16.844h2.0312v-18.562h-2.7812z" color="#000000" enable-background="accumulate" fill="url(#m)" filter="url(#ae)"/></g><use transform="translate(70)" width="400" height="300" color="#000000" enable-background="accumulate" fill="url(#a)" xlink:href="#i"/><g transform="translate(-10,-7)" fill="url(#l)" opacity=".369"><path transform="matrix(1.5701 0 0 1 -620.3 -269)" d="m459 362v149s18.202-50.642 18-77c-0.1897-24.738-18-72-18-72z" clip-path="url(#b)" color="#000000" enable-background="accumulate" filter="url(#g)" opacity=".615"/><path transform="matrix(1.5701 0 0 1 -551.3 -269)" d="m459 362v149s18.202-50.642 18-77c-0.1897-24.738-18-72-18-72z" clip-path="url(#b)" color="#000000" enable-background="accumulate" filter="url(#g)"/><path transform="matrix(1.0833 0 0 1 -253.79 -269)" d="m459 362v149s18.202-50.642 18-77c-0.1897-24.738-18-72-18-72z" clip-path="url(#b)" color="#000000" enable-background="accumulate" filter="url(#ac)"/></g><g transform="translate(80,45)"><path transform="matrix(1.2792 0 0 1.1842 29.839 -25.213)" d="m77.125 153.19c-0.4127 0-0.80916 0.0141-1.2285 0.0332-0.42553 0.0193-0.84911 0.0572-1.252 0.0937-0.42171 0.0201-0.83599 0.0581-1.2305 0.0957a0.90227 0.90227 0 0 0-0.02344 4e-3c-1.2095 0.14871-2.2113 0.40047-3.0273 0.80664-0.81519 0.40572-1.4625 0.99879-1.7871 1.7676-3.55e-4 8.4e-4 -0.0016 1e-3 -2e-3 2e-3 -0.49227 1.1509-0.72776 2.6842-0.83594 4.5644-0.0695 0.20851-0.07813 0.32859-0.07813 0.50391v0.125a0.90227 0.90227 0 0 0 0.88867 0.90234l2.1875 0.0312a0.90227 0.90227 0 0 0 0.91602-0.90234v-0.21879c0-0.0134-5.13e-4 -0.0136 0.0039-0.0312a0.90227 0.90227 0 0 0 0.027405-0.2188v-0.5c0-1.533 0.35211-2.2881 0.59375-2.4785a0.90227 0.90227 0 0 0 0.01367-0.01c0.37954-0.31053 1.2045-0.60432 2.5078-0.67383a0.90227 0.90227 0 0 0 0.0078 0c0.28662-0.0179 0.57483-0.0293 0.84961-0.0293a0.90227 0.90227 0 0 0 0.06445-2e-3l0.8418-0.0605h0.875a0.90227 0.90227 0 0 0 0.05664-2e-3c0.28662-0.0179 0.57483-0.0293 0.84961-0.0293 0.75863 0 1.5276 0.0126 2.291 0.0312 0.7625 0.0182 1.4893 0.0672 2.2344 0.12305a0.90227 0.90227 0 0 0 0.0098 0c1.3238 0.0871 2.1588 0.40914 2.4551 0.67578 0.26136 0.23522 0.54492 0.89817 0.54492 2.1426 0 1.0663-0.1896 1.7628-0.38086 2.0586-0.11054 0.1599-0.65343 0.50363-1.7598 0.67383a0.90227 0.90227 0 0 0-2e-3 2e-3c-0.57648 0.0901-1.1516 0.15599-1.7559 0.21093a0.90227 0.90227 0 0 0-2e-3 0c-0.57266 0.0537-1.1896 0.0852-1.8145 0.12305a0.90227 0.90227 0 0 0-0.04492 4e-3l-0.55078 0.0605-0.01172 2e-3c-0.1659 3e-3 -0.33093 0.0117-0.49414 0.0254-0.12743 0-0.23759 0.0169-0.34961 0.0312-0.04213-1.6e-4 -0.06005-3e-3 -0.1582-0.0195a0.90227 0.90227 0 0 0-0.20898-0.01l-4.1875 0.28125c-1.457 0.0984-2.6653 0.34364-3.6445 0.79102-0.97926 0.44737-1.7437 1.1368-2.125 2.0391-0.63939 1.5132-0.91602 3.5019-0.91602 6.0078v0.7817a0.90227 0.90227 0 0 0 0.90242 0.90234h20.719a0.90227 0.90227 0 0 0 0.90234-0.90234v-1.9375a0.90227 0.90227 0 0 0-0.90234-0.90234h-17.447c0.10099-0.90685 0.20513-1.9043 0.35352-2.168 0.0449-0.0721 0.22323-0.24909 0.67188-0.41016 0.45318-0.1627 1.1387-0.30016 2.0234-0.37109l3.9629-0.31055 4.7949-0.3125c2.2354-0.11869 3.9443-0.62315 5.0352-1.7383a0.90227 0.90227 0 0 0 0.0078-8e-3c1.0767-1.1245 1.5-2.7946 1.5-4.9043 0-1.5386-0.21066-2.8193-0.7168-3.8516-0.50587-1.0317-1.3639-1.7955-2.4297-2.1074h-2e-3c-1.7619-0.52034-3.8532-0.76793-6.3086-0.78711a0.90227 0.90227 0 0 0-0.0078 0h-2.1875z"/><path transform="matrix(1.2792 0 0 1.1913 29.839 -26.62)" d="m76.75 106.2c-0.35958 0-0.74169 0.0119-1.1094 0.0312h-1.0156a0.89918 0.89918 0 0 0-0.05273 0c-0.67559 0.0397-1.3247 0.13147-1.959 0.22461-0.0039 4.6e-4 -0.0078 1e-3 -0.01172 2e-3 -0.66813 0.0791-1.3427 0.19913-1.998 0.41016-0.0012 3.7e-4 -0.0027-3.7e-4 -0.0039 0-1.4339 0.44542-2.5065 1.2949-2.8672 2.5059-0.28744 0.96498-0.46606 2.0752-0.50586 3.2891l0.04492-0.25586c-0.03772 0.11319-0.07617 0.29769-0.07617 0.47266v0.125a0.89918 0.89918 0 0 0 0.89844 0.89844h2.2187a0.89918 0.89918 0 0 0 0.89844-0.89844v-0.3125c0-0.33484 0.0234-0.66571 0.05859-1 0.0271-0.25744 0.09009-0.4749 0.20117-0.71094a0.89918 0.89918 0 0 0 0.0078-0.0215c0.11662-0.26505 0.25135-0.38499 0.52148-0.49805 1e-3 -4.3e-4 9.15e-4 -2e-3 2e-3 -2e-3 0.39707-0.15774 0.80955-0.26464 1.2227-0.31055a0.89918 0.89918 0 0 0 0.04883-8e-3c0.2009-0.0335 0.34959-0.0508 0.50781-0.0508a0.89918 0.89918 0 0 0 0.06836-2e-3c0.24629-0.0189 0.47346-0.0429 0.66406-0.0605l3.7129-0.0625h0.3359c0.01256 0 0.18255 0.0399 0.49219-0.0117l-0.14844 0.0117h0.3125 0.34375c0.35387 0 0.63428-0.0147 0.88477 0a0.89918 0.89918 0 0 0 0.05273 0c0.29508 0 0.62354 0.0132 0.94922 0.0312a0.89918 0.89918 0 0 0 0.05078 0h0.15625 0.14648c0.24398 0.0177 0.5085 0.0417 0.75391 0.0605a0.89918 0.89918 0 0 0 0.06836 2e-3h0.74805c0.68755 0.0261 1.2012 0.1134 1.5098 0.21679 0.30852 0.1034 0.3628 0.19727 0.35547 0.1836a0.89918 0.89918 0 0 0 0.0078 0.0137c0.13753 0.24755 0.32422 1.015 0.32422 2.1562 0 0.90308-0.20934 1.344-0.46875 1.5664a0.89918 0.89918 0 0 0-0.01172 0.0117c-0.24447 0.21731-0.82055 0.41521-1.793 0.39844a0.89918 0.89918 0 0 0-0.01563 0h-7.4375a0.89918 0.89918 0 0 0-0.89841 0.89875v1.9688a0.89918 0.89918 0 0 0 0.89844 0.89844h7.5938 0.1875c1.1167 0 1.7652 0.249 1.8965 0.35742 0.09521 0.0786 0.33008 0.50003 0.33008 1.4629 0 1.2376-0.17408 2.0853-0.40039 2.5254a0.89918 0.89918 0 0 0-0.0098 0.0195c-0.04075 0.0839-0.12919 0.19559-0.44336 0.31836s-0.82882 0.22123-1.5195 0.23828a0.89918 0.89918 0 0 0-0.01953 0c-0.37445 0.017-0.8132 0.011-1.2793 0.0312h-1.2109a0.89918 0.89918 0 0 0-0.04102 0c-0.40367 0.0183-0.79531 0.0312-1.209 0.0312h-1.25c-0.90954 0-1.8168-0.0126-2.7305-0.0312h-2e-3c-0.88843-0.0185-1.7562-0.0508-2.625-0.12304-1.0975-0.0983-1.5139-0.39886-1.6387-0.64649-0.21075-0.4667-0.35547-1.2558-0.35547-2.3008a0.89918 0.89918 0 0 0-0.91016-0.89844l-2.2188 0.0312a0.89918 0.89918 0 0 0-0.88672 0.89844c0 1.9423 0.24883 3.4582 0.95117 4.5723a0.89918 0.89918 0 0 0 0.0059 0.0117c0.80072 1.2278 2.339 1.7976 4.3848 2.0566 0.0023 2.9e-4 0.0036 2e-3 0.0059 2e-3 0.43652 0.0615 0.83282 0.081 1.2227 0.0996l1.1875 0.0625a0.89918 0.89918 0 0 0 0.04687 0h0.59373 0.59375 5.4062c0.16864 0 0.31753-0.0148 0.46289-0.0312h0.41211a0.89918 0.89918 0 0 0 0.02539 0c2.1195-0.0578 3.8326-0.29913 5.1699-0.8086a0.89918 0.89918 0 0 0 0.0059-2e-3c0.85832-0.33528 1.4981-1.0765 1.8652-2.002 0.36714-0.92541 0.51953-2.0566 0.51953-3.4297 0-1.3865-0.16714-2.522-0.62891-3.4277-0.21297-0.44214-0.59561-0.74082-1.002-1.0176 0.41402-0.32855 0.81646-0.69745 0.96875-1.2012 0.2789-0.92253 0.41211-2.0259 0.41211-3.291 0-1.9706-0.5151-3.5305-1.748-4.3438-1.0656-0.70282-2.4501-1.0704-4.1719-1.209-0.4844-0.0388-0.97796-0.0645-1.4785-0.0645h0.03516c-0.45993-0.0184-0.91527-0.0434-1.373-0.0625a0.89918 0.89918 0 0 0-0.03711 0h-1.4062c-0.49252 0-0.95041 0.0168-1.3711 0a0.89918 0.89918 0 0 0-0.03516 0z" color="#000000" enable-background="accumulate" fill="url(#k)"/><path transform="matrix(1.2792 0 0 1.1913 29.839 -27.62)" d="m76.75 106.2c-0.35958 0-0.74169 0.0119-1.1094 0.0312h-1.0156a0.89918 0.89918 0 0 0-0.05273 0c-0.67559 0.0397-1.3247 0.13147-1.959 0.22461-0.0039 4.6e-4 -0.0078 1e-3 -0.01172 2e-3 -0.66813 0.0791-1.3427 0.19913-1.998 0.41016-0.0012 3.7e-4 -0.0027-3.7e-4 -0.0039 0-1.4339 0.44542-2.5065 1.2949-2.8672 2.5059-0.28744 0.96498-0.46606 2.0752-0.50586 3.2891l0.04492-0.25586c-0.03772 0.11319-0.07617 0.29769-0.07617 0.47266v0.125a0.89918 0.89918 0 0 0 0.89844 0.89844h2.2187a0.89918 0.89918 0 0 0 0.89844-0.89844v-0.3125c0-0.33484 0.0234-0.66571 0.05859-1 0.0271-0.25744 0.09009-0.4749 0.20117-0.71094a0.89918 0.89918 0 0 0 0.0078-0.0215c0.11662-0.26505 0.25135-0.38499 0.52148-0.49805 1e-3 -4.3e-4 9.15e-4 -2e-3 2e-3 -2e-3 0.39707-0.15774 0.80955-0.26464 1.2227-0.31055a0.89918 0.89918 0 0 0 0.04883-8e-3c0.2009-0.0335 0.34959-0.0508 0.50781-0.0508a0.89918 0.89918 0 0 0 0.06836-2e-3c0.24629-0.0189 0.47346-0.0429 0.66406-0.0605l3.7129-0.0625h0.3359c0.01256 0 0.18255 0.0399 0.49219-0.0117l-0.14844 0.0117h0.65625c0.35387 0 0.63428-0.0147 0.88477 0a0.89918 0.89918 0 0 0 0.05273 0c0.29508 0 0.62354 0.0132 0.94922 0.0312a0.89918 0.89918 0 0 0 0.05078 0h0.30273c0.24398 0.0177 0.5085 0.0417 0.75391 0.0605a0.89918 0.89918 0 0 0 0.06836 2e-3h0.74805c0.68755 0.0261 1.2012 0.1134 1.5098 0.21679 0.30852 0.1034 0.3628 0.19727 0.35547 0.1836a0.89918 0.89918 0 0 0 0.0078 0.0137c0.13753 0.24755 0.32422 1.015 0.32422 2.1562 0 0.90308-0.20934 1.344-0.46875 1.5664a0.89918 0.89918 0 0 0-0.01172 0.0117c-0.24447 0.21731-0.82055 0.41521-1.793 0.39844a0.89918 0.89918 0 0 0-0.01563 0h-7.4375a0.89918 0.89918 0 0 0-0.89841 0.89875v1.9688a0.89918 0.89918 0 0 0 0.89844 0.89844h7.7812c1.1167 0 1.7652 0.249 1.8965 0.35742 0.09521 0.0786 0.33008 0.50003 0.33008 1.4629 0 1.2376-0.17408 2.0853-0.40039 2.5254a0.89918 0.89918 0 0 0-0.0098 0.0195c-0.04075 0.0839-0.12919 0.19559-0.44336 0.31836s-0.82882 0.22123-1.5195 0.23828a0.89918 0.89918 0 0 0-0.01953 0c-0.37445 0.017-0.8132 0.011-1.2793 0.0312h-1.2109a0.89918 0.89918 0 0 0-0.04102 0c-0.40367 0.0183-0.79531 0.0312-1.209 0.0312h-1.25c-0.90954 0-1.8168-0.0126-2.7305-0.0312h-2e-3c-0.88843-0.0185-1.7562-0.0508-2.625-0.12304-1.0975-0.0983-1.5139-0.39886-1.6387-0.64649-0.21075-0.4667-0.35547-1.2558-0.35547-2.3008a0.89918 0.89918 0 0 0-0.91016-0.89844l-2.2188 0.0312a0.89918 0.89918 0 0 0-0.88672 0.89844c0 1.9423 0.24883 3.4582 0.95117 4.5723a0.89918 0.89918 0 0 0 0.0059 0.0117c0.80072 1.2278 2.339 1.7976 4.3848 2.0566 0.0023 2.9e-4 0.0036 2e-3 0.0059 2e-3 0.43652 0.0615 0.83282 0.081 1.2227 0.0996l1.1875 0.0625a0.89918 0.89918 0 0 0 0.04687 0h6.5937c0.16864 0 0.31753-0.0148 0.46289-0.0312h0.41211a0.89918 0.89918 0 0 0 0.02539 0c2.1195-0.0578 3.8326-0.29913 5.1699-0.8086a0.89918 0.89918 0 0 0 0.0059-2e-3c0.85832-0.33528 1.4981-1.0765 1.8652-2.002 0.36714-0.92541 0.51953-2.0566 0.51953-3.4297 0-1.3865-0.16714-2.522-0.62891-3.4277-0.21297-0.44214-0.59561-0.74082-1.002-1.0176 0.41402-0.32855 0.81646-0.69745 0.96875-1.2012 0.2789-0.92253 0.41211-2.0259 0.41211-3.291 0-1.9706-0.5151-3.5305-1.748-4.3438-1.0656-0.70282-2.4501-1.0704-4.1719-1.209-0.4844-0.0388-0.97796-0.0645-1.4785-0.0645h0.03516c-0.45993-0.0184-0.91527-0.0434-1.373-0.0625a0.89918 0.89918 0 0 0-0.03711 0h-1.4062c-0.49252 0-0.95041 0.0168-1.3711 0a0.89918 0.89918 0 0 0-0.03516 0z"/><path transform="matrix(1.2792 0 0 1.1842 29.839 -25.213)" d="m77.125 154.68c-0.38115 0-0.7524 0.0127-1.1602 0.0312-0.39512 0.018-0.81335 0.0544-1.2246 0.0918a0.58664 0.58664 0 0 1-0.02539 2e-3c-0.36959 0.0176-0.7556 0.053-1.1426 0.0898-0.0016 2e-4 -0.0023-1.9e-4 -0.0039 0-1.0979 0.13536-1.95 0.36894-2.543 0.66406-0.59383 0.29555-0.9178 0.63289-1.0781 1.0137a0.58664 0.58664 0 0 1-2e-3 2e-3c-0.38336 0.8945-0.63382 2.2564-0.73828 4.0352l0.98828 0.0156v-0.0937-0.28125c0-1.7213 0.29689-2.9613 1.1562-3.6426 0.77261-0.63042 1.8943-0.92692 3.3613-1.0059 0.30848-0.0193 0.62717-0.0312 0.94336-0.0312h-0.04102l0.875-0.0625a0.58664 0.58664 0 0 1 0.04102 0h0.86914c0.30848-0.0193 0.62717-0.0312 0.94336-0.0312 0.77479 0 1.5545 0.0124 2.3262 0.0312 0.8032 0.0191 1.5579 0.0705 2.3105 0.12696l-0.0039-2e-3c1.4898 0.098 2.6183 0.39497 3.3535 1.0566 0.7579 0.68211 1.0371 1.7994 1.0371 3.248 0 1.2209-0.16428 2.1786-0.62695 2.8848a0.58664 0.58664 0 0 1-0.0039 8e-3c-0.51739 0.76246-1.4829 1.1142-2.7715 1.3125-0.61486 0.0961-1.2219 0.16559-1.8496 0.22265-0.61673 0.0578-1.2476 0.0898-1.8613 0.12696l-0.5332 0.0586a0.58664 0.58664 0 0 1-0.06445 4e-3c-0.16132 0-0.34551 0.0115-0.54102 0.0293a0.58664 0.58664 0 0 1-0.05273 2e-3c-0.06895 0-0.15994 9e-3 -0.24805 0.0234a0.58664 0.58664 0 0 1-0.0957 8e-3c-0.11641 0-0.2098-0.0156-0.30469-0.0293l-4.1562 0.2793c-1.3413 0.0906-2.3871 0.32305-3.125 0.66015-0.73789 0.33711-1.157 0.7524-1.373 1.2637-0.51211 1.212-0.79883 3.0365-0.79883 5.4277v0.19531h19.547v-0.76562h-17.914a0.58664 0.58664 0 0 1-0.58594-0.59961c0.04102-1.7432 0.22583-2.9767 0.70117-3.8086a0.58664 0.58664 0 0 1 0.0059-0.0117c0.29724-0.4954 0.8106-0.81816 1.4531-1.0488s1.4398-0.37354 2.4102-0.45117l3.9688-0.3125a0.58664 0.58664 0 0 1 0.0098-2e-3l4.8125-0.3125a0.58664 0.58664 0 0 1 0.0059 0c2.0398-0.10831 3.3639-0.59424 4.0469-1.291 0.6907-0.7227 1.0859-1.9679 1.0859-3.873 0-1.3965-0.20624-2.4648-0.56445-3.1953-0.35821-0.73054-0.83085-1.1365-1.5137-1.3359a0.58664 0.58664 0 0 1-2e-3 0c-1.5749-0.46531-3.5366-0.70786-5.8965-0.72656h-2.1875z" color="#000000" enable-background="accumulate" fill="url(#c)" filter="url(#h)"/><path transform="matrix(1.2792 0 0 1.1913 29.839 -27.62)" d="m76.75 107.6c-0.32476 0-0.68562 0.0109-1.0352 0.0293a0.50947 0.50947 0 0 1-0.02734 2e-3h-1.0508c-0.60487 0.0365-1.2153 0.12046-1.8438 0.21289a0.50947 0.50947 0 0 1-0.01563 2e-3c-0.61686 0.0726-1.21 0.18059-1.7461 0.35351a0.50947 0.50947 0 0 1-0.0059 2e-3c-1.181 0.36473-1.7372 0.87235-1.9434 1.5644-0.23002 0.77221-0.36348 1.7129-0.41406 2.7207h1.1465c0.0072-0.32452 0.02258-0.64416 0.05469-0.94921 0.04315-0.4099 0.15376-0.79447 0.32422-1.1582 0.25724-0.57979 0.71927-1 1.2676-1.2285a0.50947 0.50947 0 0 1 0.0059-2e-3c0.50455-0.20182 1.0402-0.34393 1.5938-0.40625 0.23224-0.0382 0.46495-0.0684 0.7207-0.0684l-0.03906 2e-3c0.23434-0.018 0.46797-0.0433 0.67969-0.0625a0.50947 0.50947 0 0 1 0.03906-2e-3l3.75-0.0625a0.50947 0.50947 0 0 1 0.0078 0h0.34375c0.16905 0 0.25904 8e-3 0.25977 8e-3a0.50947 0.50947 0 0 1 0.08398-8e-3h0.3125 0.34375c0.29864 0 0.60958-0.019 0.9668 2e-3 0.32358 7.1e-4 0.6639 0.0127 0.99805 0.0312l-0.027328-0.00201h0.15625 0.1875a0.50947 0.50947 0 0 1 0.03711 2e-3c0.26055 0.0186 0.52487 0.0424 0.75781 0.0605h0.78711c0.7702 0.0293 1.396 0.11873 1.9043 0.28907 0.50728 0.17 0.92376 0.43614 1.1484 0.85351 0.3605 0.65223 0.5 1.5772 0.5 2.8359 0 1.1307-0.28428 2.0539-0.95703 2.6328-0.6525 0.57788-1.594 0.77069-2.7402 0.75196h-6.9277v0.94921h7.084 0.1875c1.2758 0 2.192 0.18326 2.793 0.67969 0.62136 0.5133 0.8418 1.3914 0.8418 2.5488 0 1.352-0.15575 2.3881-0.55469 3.166-0.22731 0.463-0.65841 0.79995-1.1953 1.0098-0.53935 0.21077-1.2003 0.31429-1.998 0.33399-0.42988 0.0191-0.86402 0.0135-1.2715 0.0312a0.50947 0.50947 0 0 1-0.02148 0h-1.2266c-0.41723 0.019-0.83252 0.0312-1.2734 0.0312h-1.25c-0.92298 0-1.8391-0.0125-2.7598-0.0312-0.90444-0.0188-1.8051-0.0507-2.7207-0.12696a0.50947 0.50947 0 0 1-2e-3 0c-1.3402-0.12001-2.3584-0.55472-2.7891-1.4414a0.50947 0.50947 0 0 1-0.0039-0.0117c-0.29292-0.64076-0.41112-1.458-0.44922-2.3828l-1.1914 0.0176c0.053 1.5106 0.28742 2.6767 0.69141 3.3184 2.61e-4 4.2e-4 -2.62e-4 2e-3 0 2e-3 0.42922 0.65167 1.525 1.1874 3.3828 1.4219a0.50947 0.50947 0 0 1 0.0078 2e-3c0.36516 0.0522 0.71488 0.0692 1.1074 0.0879a0.50947 0.50947 0 0 1 0.0039 2e-3l1.1738 0.0605h0.58013 0.59375 5.4062c0.1216 0 0.23545-0.01 0.375-0.0273a0.50947 0.50947 0 0 1 0.0625-4e-3h0.42383c2.0267-0.0553 3.6112-0.29961 4.7031-0.71484l0.0039-2e-3c0.45128-0.1776 0.79828-0.53611 1.0645-1.207 0.26696-0.67291 0.41992-1.6476 0.41992-2.9102 0-1.2666-0.18076-2.2266-0.47461-2.7988a0.50947 0.50947 0 0 1-0.007807-0.01366c-0.23054-0.48669-0.88818-0.89553-2.1777-1.0898a0.50947 0.50947 0 0 1 2e-3 -1.0078c0.65979-0.0968 1.1537-0.25949 1.4805-0.45703 0.32674-0.19753 0.48994-0.40677 0.57422-0.68554 0.22367-0.73982 0.35352-1.7225 0.35352-2.8848 0-1.7315-0.43385-2.7185-1.1152-3.168-0.77622-0.51197-1.9309-0.85344-3.5098-0.98047-0.45957-0.0368-0.91482-0.0605-1.3652-0.0605a0.50947 0.50947 0 0 1-0.01953 0c-0.46606-0.0186-0.91675-0.044-1.3555-0.0625h-1.4062c-0.44873 0-0.9179 0.0185-1.4062 0z" color="#000000" enable-background="accumulate" fill="url(#j)" filter="url(#ad)"/><path transform="matrix(1.1871 0 0 .89031 -23.789 5.7283)" d="m133.62 48.312c-0.0141 0-0.11095 0.0305-0.125 0.03125a0.67071 0.67071 0 0 0-0.0312 0c-0.0184 0.0021-0.13803-0.0034-0.15625 0-0.0182 0.0034-0.13832 0.0266-0.15625 0.03125-0.0179 0.0046-0.10744 0.0566-0.125 0.0625-0.0176 0.0059-0.13915 0.02412-0.15625 0.03125-0.0171 0.0071-0.10844 0.05419-0.125 0.0625-0.0166 0.0083-0.14032 0.08429-0.15625 0.09375-0.0159 0.0095-0.10978 0.05194-0.125 0.0625-0.0152 0.01056-0.0793 0.08214-0.0937 0.09375l-15.781 12.312c-0.0118 0.0092-0.0825 0.08389-0.0937 0.09375-0.0113 0.0099-0.0831 0.05201-0.0937 0.0625-0.0107 0.01049-0.0837 0.08267-0.0937 0.09375-0.0101 0.01108-0.0531 0.08211-0.0625 0.09375-9e-3 0.01164-0.085 0.08159-0.0937 0.09375-9e-3 0.01216-0.0545 0.08111-0.0625 0.09375s-0.0552 0.11192-0.0625 0.125c-7e-3 0.01308-0.0559 0.08028-0.0625 0.09375-7e-3 0.01347-0.0255 0.11118-0.0312 0.125-6e-3 0.01382-0.0575 0.07962-0.0625 0.09375s-0.0271 0.11061-0.0312 0.125c-4e-3 0.01439-0.0279 0.1104-0.0312 0.125-3e-3 0.01461-0.0288 0.07898-0.0312 0.09375-2e-3 0.01477 2e-3 0.11011 0 0.125s8e-4 0.11004 0 0.125c-8e-4 0.01496-6e-5 0.11002 0 0.125v3.0625c-1e-4 0.013-5.5e-4 0.08076 0 0.09375s-1e-3 0.11205 0 0.125c1e-3 0.01295-2e-3 0.08088 0 0.09375s0.0288 0.08098 0.0312 0.09375c2e-3 0.01277-3e-3 0.11237 0 0.125s0.0275 0.08129 0.0312 0.09375c4e-3 0.01246 0.0269 0.08149 0.0312 0.09375 4e-3 0.01226 0.0576 0.08172 0.0625 0.09375 5e-3 0.01203 0.0257 0.08198 0.0312 0.09375 6e-3 0.01177 0.0251 0.08226 0.0312 0.09375 6e-3 0.01149 0.0558 0.08258 0.0625 0.09375 7e-3 0.01117 0.0553 0.08292 0.0625 0.09375 7e-3 0.01083 0.0548 0.08329 0.0625 0.09375 8e-3 0.01046 0.0543 0.08369 0.0625 0.09375 8e-3 0.01006 0.0538 0.05286 0.0625 0.0625 9e-3 0.0096 0.0533 0.08455 0.0625 0.09375 9e-3 0.0092 0.0841 0.05377 0.0937 0.0625 0.01 0.0087 0.0524 0.05426 0.0625 0.0625 0.0101 0.0082 0.0833 0.05477 0.0937 0.0625 0.0105 0.0077 0.0829 0.0553 0.0937 0.0625s0.0826 0.05584 0.0937 0.0625c0.0112 0.0067 0.0823 0.0564 0.0937 0.0625 0.0115 0.0061 0.082 0.02573 0.0937 0.03125 0.0118 0.0055 0.0817 0.02632 0.0937 0.03125 0.012 0.0049 0.0815 0.05817 0.0937 0.0625 0.0123 0.0043 0.0813 0.02753 0.0937 0.03125 0.0125 0.0037 0.0811 0.02815 0.0937 0.03125s0.11223-0.0025 0.125 0c0.0128 0.0025 0.0809 0.02942 0.0937 0.03125 0.0129 0.0018 0.0808-0.0012 0.0937 0 0.013 0.0012 0.11201-5.47e-4 0.125 0 0.013 5.47e-4 0.0807 9.7e-5 0.0937 0h14.656v2.125c-1e-4 0.013-5.5e-4 0.08076 0 0.09375s-1e-3 0.11205 0 0.125c1e-3 0.01295-2e-3 0.08088 0 0.09375s0.0288 0.08098 0.0312 0.09375c2e-3 0.01277-3e-3 0.11237 0 0.125s0.0275 0.08129 0.0312 0.09375c4e-3 0.01246 0.0269 0.08149 0.0312 0.09375 4e-3 0.01226 0.0576 0.08172 0.0625 0.09375 5e-3 0.01203 0.0257 0.08198 0.0312 0.09375 6e-3 0.01177 0.0251 0.08226 0.0312 0.09375 6e-3 0.01149 0.0558 0.08258 0.0625 0.09375 7e-3 0.01117 0.0553 0.08292 0.0625 0.09375 7e-3 0.01083 0.0548 0.08329 0.0625 0.09375 8e-3 0.01046 0.0543 0.08369 0.0625 0.09375 8e-3 0.01006 0.0538 0.05286 0.0625 0.0625 9e-3 0.0096 0.0533 0.08455 0.0625 0.09375 9e-3 0.0092 0.0841 0.05377 0.0937 0.0625 0.01 0.0087 0.0524 0.05426 0.0625 0.0625 0.0101 0.0082 0.0833 0.05477 0.0937 0.0625 0.0105 0.0077 0.0829 0.0553 0.0937 0.0625s0.0826 0.05584 0.0937 0.0625c0.0112 0.0067 0.0823 0.0564 0.0937 0.0625 0.0115 0.0061 0.082 0.02573 0.0937 0.03125 0.0118 0.0055 0.0817 0.02632 0.0937 0.03125 0.012 0.0049 0.0815 0.05817 0.0937 0.0625 0.0123 0.0043 0.0813 0.02753 0.0937 0.03125 0.0125 0.0037 0.0811 0.02815 0.0937 0.03125s0.11223-0.0025 0.125 0c0.0128 0.0025 0.0809 0.02942 0.0937 0.03125 0.0129 0.0018 0.0808-0.0012 0.0937 0s0.11201-5.47e-4 0.125 0c0.013 5.47e-4 0.0807 9.7e-5 0.0937 0h2.3125c0.013 9.7e-5 0.0808 5.47e-4 0.0937 0 0.013-5.47e-4 0.11205 0.0012 0.125 0 0.0129-0.0012 0.0809 0.0018 0.0937 0 0.0129-0.0018 0.081-0.02878 0.0937-0.03125 0.0128-0.0025 0.11237 0.0031 0.125 0 0.0126-0.0031 0.0813-0.02753 0.0937-0.03125 0.0125-0.0037 0.0815-0.02692 0.0937-0.03125 0.0123-0.0043 0.0817-0.05757 0.0937-0.0625 0.012-0.0049 0.082-0.02573 0.0937-0.03125 0.0118-0.0055 0.0823-0.02515 0.0937-0.03125 0.0115-0.0061 0.0826-0.05584 0.0937-0.0625 0.0112-0.0067 0.0829-0.0553 0.0937-0.0625s0.0833-0.05477 0.0937-0.0625c0.0105-0.0077 0.0837-0.05426 0.0937-0.0625 0.0101-0.0082 0.0529-0.05377 0.0625-0.0625 0.01-0.0087 0.0846-0.0533 0.0937-0.0625 9e-3 -0.0092 0.0538-0.08411 0.0625-0.09375 9e-3 -0.0096 0.0543-0.05244 0.0625-0.0625 8e-3 -0.01006 0.0548-0.08329 0.0625-0.09375 8e-3 -0.01046 0.0553-0.08292 0.0625-0.09375 7e-3 -0.01083 0.0558-0.08258 0.0625-0.09375 7e-3 -0.01117 0.0564-0.08226 0.0625-0.09375 6e-3 -0.01149 0.0257-0.08198 0.0312-0.09375 6e-3 -0.01177 0.0263-0.08172 0.0312-0.09375 5e-3 -0.01203 0.0582-0.08149 0.0625-0.09375 4e-3 -0.01226 0.0275-0.08129 0.0312-0.09375 4e-3 -0.01246 0.0282-0.08112 0.0312-0.09375s-2e-3 -0.11223 0-0.125c2e-3 -0.01277 0.0294-0.08088 0.0312-0.09375 2e-3 -0.01287-1e-3 -0.0808 0-0.09375s-5.5e-4 -0.11201 0-0.125c5.5e-4 -0.01299 1e-4 -0.08075 0-0.09375v-2.125h1c0.013 9.7e-5 0.0808 5.47e-4 0.0937 0 0.013-5.47e-4 0.11205 0.0012 0.125 0 0.0129-0.0012 0.0809 0.0018 0.0937 0 0.0129-0.0018 0.081-0.02878 0.0937-0.03125 0.0128-0.0025 0.11237 0.0031 0.125 0 0.0126-0.0031 0.0813-0.02753 0.0937-0.03125 0.0125-0.0037 0.0815-0.02692 0.0937-0.03125 0.0123-0.0043 0.0817-0.05757 0.0937-0.0625 0.012-0.0049 0.082-0.02573 0.0937-0.03125 0.0118-0.0055 0.0823-0.02515 0.0937-0.03125 0.0115-0.0061 0.0826-0.05584 0.0937-0.0625 0.0112-0.0067 0.0829-0.0553 0.0937-0.0625s0.0833-0.05477 0.0937-0.0625c0.0105-0.0077 0.0837-0.05426 0.0937-0.0625 0.0101-0.0082 0.0529-0.05377 0.0625-0.0625 0.01-0.0087 0.0846-0.0533 0.0937-0.0625 9e-3 -0.0092 0.0538-0.08411 0.0625-0.09375 9e-3 -0.0096 0.0543-0.05244 0.0625-0.0625 8e-3 -0.01006 0.0548-0.08329 0.0625-0.09375 8e-3 -0.01046 0.0553-0.08292 0.0625-0.09375 7e-3 -0.01083 0.0558-0.08258 0.0625-0.09375 7e-3 -0.01117 0.0564-0.08226 0.0625-0.09375 6e-3 -0.01149 0.0257-0.08198 0.0312-0.09375 6e-3 -0.01177 0.0263-0.08172 0.0312-0.09375 5e-3 -0.01203 0.0582-0.08149 0.0625-0.09375 4e-3 -0.01226 0.0275-0.08129 0.0312-0.09375 4e-3 -0.01246 0.0282-0.08112 0.0312-0.09375s-2e-3 -0.11223 0-0.125c2e-3 -0.01277 0.0294-0.08088 0.0312-0.09375 2e-3 -0.01287-1e-3 -0.0808 0-0.09375s-5.5e-4 -0.11201 0-0.125c5.5e-4 -0.01299 1e-4 -0.08075 0-0.09375v-2c1e-4 -0.013 5.5e-4 -0.08076 0-0.09375s1e-3 -0.11205 0-0.125c-1e-3 -0.01295 2e-3 -0.08087 0-0.09375s-0.0288-0.08098-0.0312-0.09375c-2e-3 -0.01277 3e-3 -0.11237 0-0.125s-0.0275-0.08129-0.0312-0.09375c-4e-3 -0.01246-0.0269-0.08149-0.0312-0.09375-4e-3 -0.01226-0.0576-0.08172-0.0625-0.09375-5e-3 -0.01203-0.0257-0.08198-0.0312-0.09375-6e-3 -0.01177-0.0251-0.08226-0.0312-0.09375-6e-3 -0.01149-0.0558-0.08258-0.0625-0.09375-7e-3 -0.01117-0.0553-0.08292-0.0625-0.09375-7e-3 -0.01083-0.0548-0.08329-0.0625-0.09375-8e-3 -0.01046-0.0543-0.08369-0.0625-0.09375-8e-3 -0.01006-0.0538-0.05286-0.0625-0.0625-9e-3 -0.0096-0.0533-0.08456-0.0625-0.09375-9e-3 -0.0092-0.0841-0.05377-0.0937-0.0625-0.01-0.0087-0.0524-0.05426-0.0625-0.0625-0.0101-0.0082-0.0833-0.05477-0.0937-0.0625-0.0105-0.0077-0.0829-0.0553-0.0937-0.0625s-0.0826-0.05584-0.0937-0.0625c-0.0112-0.0067-0.0823-0.0564-0.0937-0.0625-0.0115-0.0061-0.082-0.02573-0.0937-0.03125-0.0118-0.0055-0.0817-0.02632-0.0937-0.03125-0.012-0.0049-0.0815-0.05817-0.0937-0.0625-0.0123-0.0043-0.0813-0.02753-0.0937-0.03125-0.0125-0.0037-0.0811-0.02815-0.0937-0.03125s-0.11223 0.0025-0.125 0c-0.0128-0.0025-0.0809-0.02942-0.0937-0.03125-0.0129-0.0018-0.0808 0.0012-0.0937 0s-0.11201 5.47e-4 -0.125 0c-0.013-5.47e-4 -0.0807-9.7e-5 -0.0937 0h-1v-11.25c1e-4 -0.013 5.5e-4 -0.08076 0-0.09375s1e-3 -0.11205 0-0.125c-1e-3 -0.01295 2e-3 -0.08087 0-0.09375s-0.0288-0.08098-0.0312-0.09375c-2e-3 -0.01277 3e-3 -0.11237 0-0.125s-0.0275-0.08129-0.0312-0.09375c-4e-3 -0.01246-0.0269-0.08149-0.0312-0.09375-4e-3 -0.01226-0.0576-0.08172-0.0625-0.09375-5e-3 -0.01203-0.0257-0.08198-0.0312-0.09375-6e-3 -0.01177-0.0251-0.08226-0.0312-0.09375-6e-3 -0.01149-0.0558-0.08258-0.0625-0.09375-7e-3 -0.01117-0.0553-0.08292-0.0625-0.09375-7e-3 -0.01083-0.0548-0.08329-0.0625-0.09375-8e-3 -0.01046-0.0543-0.08369-0.0625-0.09375-8e-3 -0.01006-0.0538-0.05286-0.0625-0.0625-9e-3 -0.0096-0.0533-0.08456-0.0625-0.09375-9e-3 -0.0092-0.0841-0.05377-0.0937-0.0625-0.01-0.0087-0.0524-0.05426-0.0625-0.0625-0.0101-0.0082-0.0833-0.05477-0.0937-0.0625-0.0105-0.0077-0.0829-0.0553-0.0937-0.0625s-0.0826-0.05584-0.0937-0.0625c-0.0112-0.0067-0.0823-0.0564-0.0937-0.0625-0.0115-0.0061-0.082-0.02573-0.0937-0.03125-0.0118-0.0055-0.0817-0.02632-0.0937-0.03125-0.012-0.0049-0.0815-0.05817-0.0937-0.0625-0.0123-0.0043-0.0813-0.02753-0.0937-0.03125-0.0125-0.0037-0.0811-0.02815-0.0937-0.03125s-0.11223 0.0025-0.125 0c-0.0128-0.0025-0.0809-0.02942-0.0937-0.03125-0.0129-0.0018-0.0808 0.0012-0.0937 0s-0.11201 5.47e-4 -0.125 0c-0.013-5.47e-4 -0.0807-9.7e-5 -0.0937 0h-3.2812c-4e-3 -2.26e-4 -0.018 4.01e-4 -0.0312 0-0.0297-9.36e-4 -0.0514-0.03125-0.0613-0.03125zm-1.0625 8.4375v4.9688h-6.3438z" color="#000000" enable-background="accumulate" fill="#fff" filter="url(#ai)"/><path transform="matrix(1.1871 0 0 .89031 -23.789 5.7283)" d="m133.53 49a1.4579 1.4579 0 0 0-0.75 0.3125l-15.781 12.312a1.4579 1.4579 0 0 0-0.5625 1.1562v3.0625a1.4579 1.4579 0 0 0 1.4688 1.4688h15.312v2.7812a1.4579 1.4579 0 0 0 1.4688 1.4688h2.3125a1.4579 1.4579 0 0 0 1.4688-1.4688v-2.7812h1.6562a1.4579 1.4579 0 0 0 1.4688-1.4688v-2a1.4579 1.4579 0 0 0-1.4688-1.4688h-1.6562v-11.906a1.4579 1.4579 0 0 0-1.4688-1.4688h-3.3125a1.4579 1.4579 0 0 0-0.15625 0zm-0.3125 6.375v7h-8.9375z"/><path transform="matrix(1.1871 0 0 .89031 -23.789 5.7283)" d="m133.72 50.564-15.717 12.262v2.9219h15.217a1.564 1.564 0 0 1 1.5644 1.5645v2.6855h2.1211v-2.6855a1.564 1.564 0 0 1 1.5644-1.5645h1.5606v-1.8086h-1.5606a1.564 1.564 0 0 1-1.5644-1.5645v-11.811zm-0.44336 3.248a1.564 1.564 0 0 1 1.5078 1.5625v7a1.564 1.564 0 0 1-1.5644 1.5645h-8.9375a1.564 1.564 0 0 1-0.96484-2.7949l8.9375-7a1.564 1.564 0 0 1 1.0215-0.33203z" clip-path="url(#an)" color="#000000" enable-background="accumulate" fill="#5f5f5f" filter="url(#ak)"/></g></g></g></svg>
