<?xml version="1.0" encoding="UTF-8"?>
<svg enable-background="new" version="1.0" viewBox="0 0 256 256" xmlns="http://www.w3.org/2000/svg" xmlns:xlink="http://www.w3.org/1999/xlink"><defs><clipPath id="n"><circle transform="matrix(1.4717 0 0 1.4717 52.472 -2.2076)" cx="-186.5" cy="103.5" r="79.5" enable-background="accumulate"/></clipPath><linearGradient id="a"><stop stop-color="#fff" offset="0"/><stop stop-color="#fff" stop-opacity="0" offset="1"/></linearGradient><filter id="k" color-interpolation-filters="sRGB"><feGaussianBlur stdDeviation="1.4762038"/></filter><linearGradient id="h"><stop stop-color="#fff" offset="0"/><stop stop-color="#e4e4e1" offset="1"/></linearGradient><filter id="j" color-interpolation-filters="sRGB"><feGaussianBlur stdDeviation="1.59"/></filter><radialGradient id="g" cx="-186.5" cy="103.5" r="79.5" gradientTransform="matrix(.96804 0 0 .96804 -5.9597 3.3074)" gradientUnits="userSpaceOnUse"><stop offset="0"/><stop stop-opacity="0" offset="1"/></radialGradient><radialGradient id="f" cx="-186.5" cy="103.5" r="79.5" gradientUnits="userSpaceOnUse"><stop offset="0"/><stop stop-opacity="0" offset="1"/></radialGradient><linearGradient id="i" x1="-183.78" x2="-183.78" y1="165.26" y2="54.467" gradientUnits="userSpaceOnUse"><stop stop-color="#7fa5d7" offset="0"/><stop stop-color="#3a71b7" offset="1"/></linearGradient><radialGradient id="e" cx="-186.5" cy="234.36" r="76.5" gradientTransform="matrix(1.6217 0 0 .83174 80.454 80.675)" gradientUnits="userSpaceOnUse" xlink:href="#a"/><radialGradient id="d" cx="-186.5" cy="234.36" r="76.5" gradientTransform="matrix(1.102 0 0 -.56516 19.014 151.21)" gradientUnits="userSpaceOnUse" xlink:href="#a"/><radialGradient id="c" cx="-170.87" cy="127.75" r="12.5" gradientTransform="matrix(1 0 0 1.1281 0 -15.593)" gradientUnits="userSpaceOnUse" xlink:href="#h"/><radialGradient id="o" cx="-170.87" cy="127.75" r="12.5" gradientTransform="matrix(1 0 0 1.1281 0 -15.593)" gradientUnits="userSpaceOnUse"><stop stop-color="#fff" offset="0"/><stop stop-color="#d2d2cd" offset="1"/></radialGradient><radialGradient id="b" cx="320.48" cy="55.028" r="16.234" gradientTransform="matrix(9.9313 0 0 11.327 -3402 -591.14)" gradientUnits="userSpaceOnUse"><stop stop-color="#fff" offset="0"/><stop stop-color="#fff" stop-opacity="0" offset="1"/></radialGradient><filter id="m" x="-.28579" y="-.28579" width="1.5716" height="1.5716"><feGaussianBlur stdDeviation="18.933778"/></filter><filter id="l" x="-.12113" y="-.12113" width="1.2423" height="1.2423"><feGaussianBlur stdDeviation="8.0246022"/></filter></defs><g transform="translate(-20,-29)"><g><g transform="matrix(.92742 0 0 .92742 10.742 17.399)"><circle transform="matrix(1.0175 0 0 .22723 337.77 236.47)" cx="-186.5" cy="103.5" r="79.5" enable-background="accumulate" fill="url(#g)" filter="url(#m)" opacity=".76016"/><circle transform="matrix(.63816 0 0 .13159 267.02 249.92)" cx="-186.5" cy="103.5" r="79.5" enable-background="accumulate" fill="url(#f)" filter="url(#l)" opacity=".39431"/><g transform="translate(370,-4.4e-6)" clip-path="url(#n)" enable-background="new"><circle transform="matrix(1.4717 0 0 1.4717 52.472 -2.2075)" cx="-186.5" cy="103.5" r="79.5" enable-background="accumulate" fill="url(#i)"/><path d="m-334.54 147.22c-0.0244 0.96519-0.0461 1.9264-0.0461 2.8974 0 62.147 50.438 112.58 112.58 112.58 62.147 0 112.58-50.438 112.58-112.58 0-0.97104-0.0215-1.9322-0.0461-2.8974-1.5899 60.764-51.394 109.6-112.54 109.6-61.145-2e-5 -110.95-48.832-112.54-109.6z" enable-background="accumulate" fill="url(#e)"/><path transform="matrix(1.4717 0 0 1.4717 52.472 -2.2075)" d="m-262.97 106c-0.0166-0.65583-0.0313-1.3089-0.0313-1.9688 0-42.228 34.272-76.5 76.5-76.5 42.228 0 76.5 34.272 76.5 76.5 0 0.65981-0.0146 1.3129-0.0313 1.9688-1.0804-41.288-34.921-74.469-76.469-74.469-41.547 1e-5 -75.388 33.181-76.469 74.469z" enable-background="accumulate" fill="url(#d)" filter="url(#k)" opacity=".9"/><g transform="matrix(1.4717 0 0 1.4717 52.472 -2.2075)"><g transform="matrix(3.8267 0 0 3.8267 468.05 -359.83)" fill="#b8cfe7"><circle transform="matrix(2.4645 0 0 2.4645 -198.07 93.29)" cx="11.098" cy="7.1447" r="1.3103" enable-background="new"/><path d="m-159.43 114.33c-0.14936 0.0242-0.29049 0.0831-0.41145 0.17185l-11.031 1.7201-10.971-1.7438c-0.28361-0.2057-0.68235-0.2673-0.99925-0.11458s-0.52465 0.51468-0.52902 0.85911c-4e-3 0.34448 0.21606 0.64156 0.52902 0.80185l8.5971 2.7272-0.0588 6.2608-3.0336 9.3767c-0.29217 0.42698-0.20312 0.97533 0.23512 1.26 0.43826 0.2847 1.0598 0.19795 1.352-0.22907l4.8956-10.121 4.8032 10.104c0.25972 0.44286 0.83867 0.59671 1.2932 0.34365 0.45449-0.25305 0.61239-0.81716 0.35268-1.26l-2.9773-9.417-0.11754-5.8942 8.7177-3.1842c0.35223-0.24067 0.50525-0.69631 0.35269-1.0882-0.15257-0.39192-0.57185-0.62025-0.99927-0.57277z" enable-background="new" fill-rule="evenodd"/></g><g transform="matrix(3.8267 0 0 3.8267 468.05 -362.55)" fill="#3a73ad"><circle transform="matrix(2.4645 0 0 2.4645 -198.07 93.29)" cx="11.098" cy="7.1447" r="1.3103" enable-background="new"/><path d="m-159.43 114.33c-0.14936 0.0242-0.29049 0.0831-0.41145 0.17185l-11.031 1.7201-10.971-1.7438c-0.28361-0.2057-0.68235-0.2673-0.99925-0.11458s-0.52465 0.51468-0.52902 0.85911c-4e-3 0.34448 0.21606 0.64156 0.52902 0.80185l8.5971 2.7272-0.0588 6.2608-3.0336 9.3767c-0.29217 0.42698-0.20312 0.97533 0.23512 1.26 0.43826 0.2847 1.0598 0.19795 1.352-0.22907l4.8956-10.121 4.8032 10.104c0.25972 0.44286 0.83867 0.59671 1.2932 0.34365 0.45449-0.25305 0.61239-0.81716 0.35268-1.26l-2.9773-9.417-0.11754-5.8942 8.7177-3.1842c0.35223-0.24067 0.50525-0.69631 0.35269-1.0882-0.15257-0.39192-0.57185-0.62025-0.99927-0.57277z" enable-background="new" fill-rule="evenodd"/></g><g transform="matrix(3.8267 0 0 3.8267 468.05 -361.19)" fill="url(#c)"><circle transform="matrix(2.4645 0 0 2.4645 -198.07 93.29)" cx="11.098" cy="7.1447" r="1.3103" enable-background="new"/><path d="m-159.43 114.33c-0.14936 0.0242-0.29049 0.0831-0.41145 0.17185l-11.031 1.7201-10.971-1.7438c-0.28361-0.2057-0.68235-0.2673-0.99925-0.11458s-0.52465 0.51468-0.52902 0.85911c-4e-3 0.34448 0.21606 0.64156 0.52902 0.80185l8.5971 2.7272-0.0588 6.2608-3.0336 9.3767c-0.29217 0.42698-0.20312 0.97533 0.23512 1.26 0.43826 0.2847 1.0598 0.19795 1.352-0.22907l4.8956-10.121 4.8032 10.104c0.25972 0.44286 0.83867 0.59671 1.2932 0.34365 0.45449-0.25305 0.61239-0.81716 0.35268-1.26l-2.9773-9.417-0.11754-5.8942 8.7177-3.1842c0.35223-0.24067 0.50525-0.69631 0.35269-1.0882-0.15257-0.39192-0.57185-0.62025-0.99927-0.57277z" enable-background="new" fill-rule="evenodd"/></g></g><path d="m-221.98 37.156c-62.695 0-113.58 50.883-113.58 113.58 0 44.974 26.306 83.716 64.251 102.11 0 0-24.043-161.31 124.86-186.75-15.935-17.509-46.52-28.94-75.536-28.94z" enable-background="new" fill="url(#b)" opacity=".32692"/><circle transform="matrix(1.4717 0 0 1.4717 52.472 -2.2076)" cx="-186.5" cy="103.5" r="79.5" clip-path="none" enable-background="accumulate" fill="none" filter="url(#j)" stroke="#193a69" stroke-width="2.7179"/></g></g></g></g></svg>
