<?xml version="1.0" encoding="UTF-8"?>
<svg enable-background="new" version="1.0" viewBox="0 0 256 256" xmlns="http://www.w3.org/2000/svg" xmlns:xlink="http://www.w3.org/1999/xlink"><defs><linearGradient id="s" x1="2.0227" x2="14.963" y1="117.83" y2="117.83" gradientTransform="matrix(10.541 0 0 1.1878 7.0392 203.51)" gradientUnits="userSpaceOnUse" xlink:href="#bo"/><linearGradient id="bo"><stop stop-color="#686868" stop-opacity="0" offset="0"/><stop stop-color="#686868" offset=".23762"/><stop stop-color="#686868" offset=".7811"/><stop stop-color="#686868" stop-opacity="0" offset="1"/></linearGradient><linearGradient id="b" x1="1.6422" x2="15.343" y1="117.83" y2="117.83" gradientTransform="matrix(2.7402 0 0 .14768 334.48 109.64)" gradientUnits="userSpaceOnUse" xlink:href="#r"/><linearGradient id="r"><stop stop-color="#fff" stop-opacity="0" offset="0"/><stop stop-color="#fff" stop-opacity=".70659" offset=".10827"/><stop stop-color="#fff" stop-opacity=".70659" offset=".92054"/><stop stop-color="#fff" stop-opacity="0" offset="1"/></linearGradient><filter id="u" x="-.031519" y="-.71154" width="1.063" height="2.4231" color-interpolation-filters="sRGB"><feGaussianBlur stdDeviation="0.47990631"/></filter><linearGradient id="m" x1="1.6422" x2="15.343" y1="117.83" y2="117.83" gradientTransform="matrix(2.7402 0 0 .14768 334.48 110.98)" gradientUnits="userSpaceOnUse" xlink:href="#r"/><filter id="j" x="-.020611" y="-.4653" width="1.0412" height="1.9306" color-interpolation-filters="sRGB"><feGaussianBlur stdDeviation="0.31382599"/></filter><radialGradient id="ag" cx="145" cy="273" r="95.622" gradientTransform="matrix(.9287 0 0 .14083 10.339 234.55)" gradientUnits="userSpaceOnUse"><stop offset="0"/><stop stop-opacity="0" offset="1"/></radialGradient><filter id="br" x="-.17644" y="-1.1636" width="1.3529" height="3.3271" color-interpolation-filters="sRGB"><feGaussianBlur stdDeviation="14.059735"/></filter><radialGradient id="af" cx="145" cy="273" r="95.622" gradientTransform="matrix(1 0 0 .15164 0 231.6)" gradientUnits="userSpaceOnUse"><stop offset="0"/><stop stop-opacity="0" offset="1"/></radialGradient><filter id="bs" x="-.077639" y="-.512" width="1.1553" height="2.024" color-interpolation-filters="sRGB"><feGaussianBlur stdDeviation="6.1866079"/></filter><linearGradient id="bd" x1="2.0227" x2="14.963" y1="117.83" y2="117.83" gradientTransform="matrix(3.666 0 0 .4131 326.62 79.207)" gradientUnits="userSpaceOnUse"><stop stop-color="#686868" stop-opacity="0" offset="0"/><stop stop-color="#686868" offset=".23762"/><stop stop-color="#686868" offset=".7811"/><stop stop-color="#686868" stop-opacity="0" offset="1"/></linearGradient><filter id="ca" x="-.031519" y="-.71154" width="1.063" height="2.4231" color-interpolation-filters="sRGB"><feGaussianBlur stdDeviation="0.47990631"/></filter><filter id="x" x="-.020611" y="-.4653" width="1.0412" height="1.9306" color-interpolation-filters="sRGB"><feGaussianBlur stdDeviation="0.31382599"/></filter><linearGradient id="bc" x1="23.1" x2="23.1" y1="38.297" y2="43.915" gradientTransform="matrix(.98087 0 0 1.0218 334.38 85.926)" gradientUnits="userSpaceOnUse"><stop stop-color="#7a7a7a" offset="0"/><stop stop-color="#c5c5c5" offset=".19802"/><stop stop-color="#5b5b5b" offset=".71496"/><stop stop-color="#595959" offset=".84133"/><stop stop-color="#474747" offset="1"/></linearGradient><linearGradient id="bb" x1="355.48" x2="357.45" y1="123.02" y2="123.02" gradientTransform="translate(.086949 -.086949)" gradientUnits="userSpaceOnUse"><stop stop-color="#fff" offset="0"/><stop stop-color="#fff" stop-opacity="0" offset="1"/></linearGradient><filter id="by" x="-.65435" y="-.43019" width="2.3087" height="1.8604" color-interpolation-filters="sRGB"><feGaussianBlur stdDeviation="0.53773164"/></filter><linearGradient id="ba" x1="28.633" x2="28.784" y1="29.943" y2="31.49" gradientTransform="matrix(.81082 0 0 1.2333 333.91 80.815)" gradientUnits="userSpaceOnUse"><stop stop-opacity=".50299" offset="0"/><stop stop-opacity="0" offset="1"/></linearGradient><filter id="cc" x="-.074217" y="-.21639" width="1.1484" height="1.4328" color-interpolation-filters="sRGB"><feGaussianBlur stdDeviation="0.19582385"/></filter><filter id="cd" x="-.043421" y="-.43421" width="1.0868" height="1.8684" color-interpolation-filters="sRGB"><feGaussianBlur stdDeviation="0.18092105"/></filter><linearGradient id="az" x1="34.075" x2="44.314" y1="1029.1" y2="1029.1" gradientTransform="scale(3.7234 .26857)" gradientUnits="userSpaceOnUse"><stop stop-color="#fff" offset="0"/><stop stop-color="#fff" stop-opacity="0" offset="1"/></linearGradient><filter id="bt" x="-.043367" y="-.60123" width="1.0867" height="2.2025" color-interpolation-filters="sRGB"><feGaussianBlur stdDeviation="0.68890449"/></filter><linearGradient id="ay" x1="155.5" x2="149.12" y1="254.56" y2="254.31" gradientUnits="userSpaceOnUse"><stop offset="0"/><stop stop-opacity="0" offset="1"/></linearGradient><filter id="bw" color-interpolation-filters="sRGB"><feBlend in2="BackgroundImage" mode="multiply"/></filter><linearGradient id="p" x1="164.28" x2="164.28" y1="277.94" y2="260.81" gradientUnits="userSpaceOnUse" xlink:href="#l"/><linearGradient id="l"><stop stop-color="#5f5f5f" offset="0"/><stop stop-color="#fff" offset=".66058"/><stop stop-color="#919191" offset="1"/></linearGradient><filter id="w" x="-.1889" y="-.037918" width="1.3778" height="1.0758" color-interpolation-filters="sRGB"><feGaussianBlur stdDeviation="0.27055921"/></filter><linearGradient id="ax" x1="164.28" x2="164.28" y1="277.94" y2="260.81" gradientTransform="matrix(-1.0511 0 0 1.0511 299.32 -13.201)" gradientUnits="userSpaceOnUse" xlink:href="#l"/><filter id="bu" color-interpolation-filters="sRGB"><feGaussianBlur stdDeviation="0.086639747"/></filter><radialGradient id="ae" cx="165.41" cy="269.17" r="1.7188" gradientTransform="matrix(3.473 0 4.3871e-8 5.5982 -409.05 -1238.5)" gradientUnits="userSpaceOnUse" xlink:href="#o"/><linearGradient id="o"><stop stop-color="#575757" offset="0"/><stop stop-color="#575757" stop-opacity="0" offset="1"/></linearGradient><filter id="v" x="-.1889" y="-.037918" width="1.3778" height="1.0758" color-interpolation-filters="sRGB"><feGaussianBlur stdDeviation="0.27055921"/></filter><linearGradient id="aw" x1="143.44" x2="143.44" y1="278.22" y2="260.12" gradientUnits="userSpaceOnUse"><stop offset="0"/><stop stop-opacity="0" offset="1"/></linearGradient><clipPath id="ch"><rect x="123.94" y="260.12" width="43.125" height="18.938" rx="4.0625" ry="4.0625" enable-background="accumulate"/></clipPath><filter id="cb" color-interpolation-filters="sRGB"><feGaussianBlur stdDeviation="0.3103125"/></filter><filter id="bz" x="-.49763" y="-.14326" width="1.9953" height="1.2865" color-interpolation-filters="sRGB"><feGaussianBlur stdDeviation="0.49245084"/></filter><radialGradient id="ad" cx="146.06" cy="270.31" r="9.3125" gradientTransform="matrix(1 0 0 1.0338 0 -17.688)" gradientUnits="userSpaceOnUse"><stop stop-opacity="0" offset="0"/><stop offset="1"/></radialGradient><filter id="bx" x="-.022401" y="-.2082" width="1.0448" height="1.4164" color-interpolation-filters="sRGB"><feGaussianBlur stdDeviation="0.17383913"/></filter><radialGradient id="ac" cx="146.12" cy="262.8" r="9.3125" gradientTransform="matrix(.74493 0 0 .56752 37.216 113.28)" gradientUnits="userSpaceOnUse"><stop stop-color="#fff" offset="0"/><stop stop-color="#fff" stop-opacity="0" offset="1"/></radialGradient><radialGradient id="ab" cx="152.88" cy="255.94" r="1.25" gradientTransform="matrix(14.8 -.04143 .047104 16.827 -2121.8 -4045.4)" gradientUnits="userSpaceOnUse"><stop stop-color="#fff" offset="0"/><stop stop-color="#fff" stop-opacity="0" offset="1"/></radialGradient><filter id="bv" x="-.39185" y="-.10736" width="1.7837" height="1.2147" color-interpolation-filters="sRGB"><feGaussianBlur stdDeviation="0.40818118"/></filter><linearGradient id="av" x1="164.28" x2="164.28" y1="277.94" y2="260.81" gradientTransform="translate(-3.9375)" gradientUnits="userSpaceOnUse" xlink:href="#l"/><radialGradient id="aa" cx="165.41" cy="269.17" r="1.7188" gradientTransform="matrix(3.473 0 4.3871e-8 5.5982 -414.11 -1238.5)" gradientUnits="userSpaceOnUse" xlink:href="#o"/><linearGradient id="au" x1="133.72" x2="133.72" y1="278.31" y2="277.31" gradientTransform="matrix(1.5 0 0 1.5 -66.484 -138.66)" gradientUnits="userSpaceOnUse" xlink:href="#n"/><linearGradient id="n"><stop offset="0"/><stop stop-opacity="0" offset="1"/></linearGradient><filter id="t" x="-.090092" y="-.18582" width="1.1802" height="1.3716" color-interpolation-filters="sRGB"><feGaussianBlur stdDeviation="0.11613438"/></filter><linearGradient id="at" x1="133.72" x2="133.72" y1="278.31" y2="277.31" gradientTransform="matrix(1.5 0 0 1.5 -65.984 -138.91)" gradientUnits="userSpaceOnUse" xlink:href="#n"/><radialGradient id="z" cx="128.38" cy="262.88" r="2.625" gradientTransform="matrix(1.7625 0 0 1.3009 -98.08 -79.797)" gradientUnits="userSpaceOnUse"><stop stop-color="#fff" offset="0"/><stop stop-color="#fff" stop-opacity="0" offset="1"/></radialGradient><radialGradient id="ah" cx="160.53" cy="145.73" r="112" gradientTransform="matrix(1.6172 -.53953 1.2857 3.957 -266.96 -316.48)" gradientUnits="userSpaceOnUse"><stop stop-color="#fff" offset="0"/><stop stop-color="#959595" offset="1"/></radialGradient><linearGradient id="be" x1="44" x2="125.5" y1="71.25" y2="207.5" gradientUnits="userSpaceOnUse"><stop offset="0"/><stop stop-opacity="0" offset="1"/></linearGradient><linearGradient id="bf" x1="77.5" x2="70.5" y1="-121.5" y2="-453.5" gradientUnits="userSpaceOnUse"><stop offset="0"/><stop stop-opacity="0" offset="1"/></linearGradient><clipPath id="ci"><rect x="36" y="-270" width="224" height="148" rx="2.125" ry="2.125" enable-background="new" fill-rule="evenodd"/></clipPath><filter id="ce" color-interpolation-filters="sRGB"><feGaussianBlur stdDeviation="0.92999989"/></filter><radialGradient id="ai" cx="131.58" cy="71.691" r="111.81" gradientTransform="matrix(2.5458 1.0381 -.60658 1.5009 -170.86 -182.85)" gradientUnits="userSpaceOnUse"><stop stop-color="#fff" offset="0"/><stop stop-color="#fff" stop-opacity="0" offset="1"/></radialGradient><radialGradient id="aj" cx="158.95" cy="-282.64" r="105" gradientTransform="matrix(1.8205 -1.8205 .4646 .4646 -42.803 223.19)" gradientUnits="userSpaceOnUse" xlink:href="#a"/><linearGradient id="a"><stop stop-color="#fff" offset="0"/><stop stop-color="#fff" stop-opacity="0" offset="1"/></linearGradient><radialGradient id="ak" cx="-253.64" cy="134.03" r=".49998" gradientTransform="matrix(92.4 -92.4 282.89 282.89 -14732 -61203)" gradientUnits="userSpaceOnUse"><stop stop-color="#fff" offset="0"/><stop stop-color="#fff" stop-opacity="0" offset="1"/></radialGradient><radialGradient id="al" cx="36.778" cy="134.52" r="1" gradientTransform="matrix(24.674 184.17 -78.655 42.151 9708.6 -12332)" gradientUnits="userSpaceOnUse" xlink:href="#a"/><filter id="y" x="-.864" y="-.006042" width="2.728" height="1.0121" color-interpolation-filters="sRGB"><feGaussianBlur stdDeviation="0.36"/></filter><radialGradient id="am" cx="36.807" cy="134.6" r="1" gradientTransform="matrix(24.674 184.17 -78.655 42.151 9927.6 -12332)" gradientUnits="userSpaceOnUse" xlink:href="#a"/><radialGradient id="an" cx="176.82" cy="-212.64" r="105" gradientTransform="matrix(1.9032 -1.8205 .48572 .4646 -51.477 215.19)" gradientUnits="userSpaceOnUse" xlink:href="#a"/><linearGradient id="bj" x1="241.39" x2="242" y1="204" y2="206.97" gradientUnits="userSpaceOnUse"><stop offset="0"/><stop stop-opacity="0" offset="1"/></linearGradient><linearGradient id="bi" x1="242.01" x2="242.01" y1="206.02" y2="207.75" gradientUnits="userSpaceOnUse"><stop stop-color="#888a85" offset="0"/><stop stop-color="#2e3436" offset=".56766"/><stop stop-color="#555753" offset="1"/></linearGradient><radialGradient id="ao" cx="238.94" cy="200.75" r="5" gradientTransform="matrix(1.6127 0 0 .95 -146.4 11.162)" gradientUnits="userSpaceOnUse"><stop stop-color="#fff" offset="0"/><stop stop-color="#fff" stop-opacity="0" offset="1"/></radialGradient><linearGradient id="bh" x1="241.48" x2="241.48" y1="205" y2="207" gradientUnits="userSpaceOnUse"><stop stop-color="#888a85" offset="0"/><stop stop-color="#888a85" stop-opacity="0" offset="1"/></linearGradient><linearGradient id="bg" x1="236.6" x2="237.52" y1="212.53" y2="220.51" gradientUnits="userSpaceOnUse"><stop offset="0"/><stop stop-opacity="0" offset="1"/></linearGradient><clipPath id="ck"><path d="m240 211c-1.6616 0-3 1.3384-3 3v4h10v-4c0-1.6616-1.3384-3-3-3z" enable-background="new"/></clipPath><filter id="cg" color-interpolation-filters="sRGB"><feGaussianBlur stdDeviation="0.2548"/></filter><radialGradient id="ap" cx="24.006" cy="37.922" r="19" gradientTransform="matrix(14.598 0 0 6.3684 597.57 260.91)" gradientUnits="userSpaceOnUse"><stop stop-color="#729fcf" offset="0"/><stop stop-color="#204a87" offset="1"/></radialGradient><linearGradient id="i" x1="24.866" x2="24.866" y1="30.385" y2="18.848" gradientTransform="matrix(.3089 0 0 .27375 301.94 218.48)" gradientUnits="userSpaceOnUse" xlink:href="#bm"/><linearGradient id="bm"><stop stop-color="#676756" offset="0"/><stop stop-color="#90937c" offset="1"/></linearGradient><linearGradient id="h" x1="315.05" x2="315.29" y1="232.34" y2="221.38" gradientTransform="translate(0,1)" gradientUnits="userSpaceOnUse" xlink:href="#q"/><linearGradient id="q"><stop stop-color="#4a4a3e" offset="0"/><stop stop-color="#737662" offset="1"/></linearGradient><radialGradient id="d" cx="306.1" cy="179.01" r="8.6094" gradientTransform="matrix(2.5489 0 0 .5173 -476.41 129.05)" gradientUnits="userSpaceOnUse" xlink:href="#a"/><linearGradient id="g" x1="25.188" x2="25.188" y1="50.897" y2="-5.8905" gradientTransform="matrix(.28968 0 0 .1769 301.87 224.04)" gradientUnits="userSpaceOnUse" xlink:href="#bq"/><linearGradient id="bq"><stop stop-color="#a1a184" offset="0"/><stop stop-color="#b2b29a" offset=".062833"/><stop stop-color="#c3c4b1" offset=".13"/><stop stop-color="#cfd1c0" offset=".2"/><stop stop-color="#babba4" offset=".7"/><stop stop-color="#c3c3af" offset="1"/></linearGradient><linearGradient id="f" x1="314.49" x2="314.47" y1="233.24" y2="223.68" gradientUnits="userSpaceOnUse" xlink:href="#q"/><linearGradient id="e" x1="312.44" x2="313.19" y1="184.62" y2="192.5" gradientUnits="userSpaceOnUse" xlink:href="#a"/><radialGradient id="c" cx="147.02" cy="525.86" r="103.05" gradientTransform="matrix(1.1246 0 8.1617e-7 .7529 -18.322 85.9)" gradientUnits="userSpaceOnUse" xlink:href="#bn"/><linearGradient id="bn"><stop stop-color="#fff" offset="0"/><stop stop-color="#fff" stop-opacity=".49804" offset=".85002"/><stop stop-color="#fff" stop-opacity="0" offset="1"/></linearGradient><filter id="k" x="-.012418" y="-.35609" width="1.0248" height="1.7122" color-interpolation-filters="sRGB"><feGaussianBlur stdDeviation="1.0664062"/></filter><linearGradient id="bl" x1="285.68" x2="285.68" y1="170.2" y2="182.84" gradientTransform="matrix(.47206 0 0 .39433 727.99 305.9)" gradientUnits="userSpaceOnUse"><stop stop-color="#cfd3d4" offset="0"/><stop stop-color="#e1e1de" offset="1"/></linearGradient><clipPath id="cj"><rect x="44" y="362" width="208" height="124" enable-background="new" fill-rule="evenodd"/></clipPath><filter id="cf" color-interpolation-filters="sRGB"><feGaussianBlur stdDeviation="1.6762502"/></filter><linearGradient id="bk" x1="88" x2="178" y1="44.5" y2="202.5" gradientUnits="userSpaceOnUse"><stop stop-color="#fff" offset="0"/><stop stop-color="#fff" stop-opacity="0" offset="1"/></linearGradient><radialGradient id="ar" cx="326.02" cy="58" r="12.5" gradientTransform="matrix(-10.48 4.6048e-6 -3.2812e-6 -7.4674 3556.5 507.11)" gradientUnits="userSpaceOnUse" xlink:href="#a"/><radialGradient id="aq" cx="326.02" cy="58" r="12.5" gradientTransform="matrix(-10.48 4.6048e-6 -3.2812e-6 -7.4674 3513.5 507.11)" gradientUnits="userSpaceOnUse" xlink:href="#a"/><linearGradient id="bp" x1="470" x2="482" y1="247" y2="247" gradientTransform="matrix(.97748 0 0 1.0006 9.8822 -.14114)" gradientUnits="userSpaceOnUse"><stop stop-color="#729fcf" offset="0"/><stop stop-color="#3f7bbb" offset="1"/></linearGradient><pattern id="cl" width="2" height="1" patternTransform="matrix(8.9053 8.9053 -8.9053 8.9053 407 205.5)" patternUnits="userSpaceOnUse"><rect y="-.5" width="1" height="2"/></pattern><linearGradient id="as" x1="364" x2="364" y1="209" y2="192" gradientTransform="matrix(.37727 0 0 .19164 1002.6 331.72)" gradientUnits="userSpaceOnUse"><stop stop-color="#f8f8f8" offset="0"/><stop stop-color="#dedede" offset="1"/></linearGradient></defs><g transform="translate(-820,-328)"><g><g enable-background="new"><g transform="translate(800 300)" enable-background="new"><g transform="matrix(1.0778 0 0 1 79.485 -106)" enable-background="new"><rect x="26.273" y="336.95" width="140.57" height="13.019" display="block" enable-background="new" fill="url(#s)"/><rect transform="matrix(3.6688 0 0 3.2547 -1216 -72.202)" x="339.48" y="126.23" width="36.543" height="1.6187" display="block" enable-background="new" fill="url(#b)" filter="url(#u)" opacity=".89655"/><rect transform="matrix(3.6278 0 0 1.2882 -1201.3 182.42)" x="339.48" y="127.58" width="36.543" height="1.6187" display="block" enable-background="new" fill="url(#m)" filter="url(#j)" opacity=".37838"/><rect transform="matrix(3.6688 0 0 1.6813 -1216 126.41)" x="339.48" y="126.23" width="36.543" height="1.6187" display="block" enable-background="new" fill="url(#b)" filter="url(#j)"/></g><g transform="matrix(1.0778 0 0 1 8.4852 -106)" enable-background="new"><rect x="26.273" y="336.95" width="140.57" height="13.019" display="block" enable-background="new" fill="url(#s)"/><rect transform="matrix(3.6688 0 0 3.2547 -1216 -72.202)" x="339.48" y="126.23" width="36.543" height="1.6187" display="block" enable-background="new" fill="url(#b)" filter="url(#u)" opacity=".89655"/><rect transform="matrix(3.6278 0 0 1.2882 -1201.3 182.42)" x="339.48" y="127.58" width="36.543" height="1.6187" display="block" enable-background="new" fill="url(#m)" filter="url(#j)" opacity=".37838"/><rect transform="matrix(3.6688 0 0 1.6813 -1216 126.41)" x="339.48" y="126.23" width="36.543" height="1.6187" display="block" enable-background="new" fill="url(#b)" filter="url(#j)"/></g><g transform="translate(2.1841 -32.103)" enable-background="new"><rect transform="matrix(1.244 0 0 .36074 -35.384 178.02)" x="49.378" y="258.5" width="191.24" height="29" rx="11.656" ry="40.195" enable-background="accumulate" fill="url(#ag)" filter="url(#br)" opacity=".51149"/><rect transform="matrix(.4083 0 0 .24751 84.867 208.93)" x="49.378" y="258.5" width="191.24" height="29" rx="35.513" ry="58.584" enable-background="accumulate" fill="url(#af)" filter="url(#bs)"/><g transform="matrix(2.8752 0 0 2.8752 -882.1 -98.123)"><rect x="333.31" y="125.62" width="48.889" height="4.5279" display="block" enable-background="new" fill="url(#bd)"/><rect transform="matrix(1.276 0 0 1.132 -98.743 -16.684)" x="339.48" y="126.23" width="36.543" height="1.6187" display="block" enable-background="new" fill="url(#b)" filter="url(#ca)" opacity=".89655"/><rect transform="matrix(1.2617 0 0 .44804 -93.635 71.874)" x="339.48" y="127.58" width="36.543" height="1.6187" display="block" enable-background="new" fill="url(#m)" filter="url(#x)" opacity=".37838"/><rect transform="matrix(1.276 0 0 .58474 -98.743 52.393)" x="339.48" y="126.23" width="36.543" height="1.6187" display="block" enable-background="new" fill="url(#b)" filter="url(#x)"/><path d="m355.78 115.55c-0.78115 0-1.402 0.62604-1.402 1.4136v7.6336h-3.0534c-0.78115 0-1.4021 0.62604-1.4021 1.4136v3.7383c0 0.78758 0.62091 1.4136 1.4021 1.4136h12.151c0.78113 0 1.402-0.62605 1.402-1.4136v-3.7383c0-0.78759-0.62092-1.4136-1.402-1.4136h-2.586v-7.6336c0-0.78759-0.62092-1.4136-1.402-1.4136z" display="block" enable-background="new" fill="url(#bc)"/><rect transform="matrix(1 0 0 .97102 0 3.7802)" x="355.42" y="120.76" width="2.117" height="3.6662" rx=".10418" ry=".10729" display="block" enable-background="new" fill="url(#bb)" filter="url(#by)"/><path d="m360.7 117.64h-6.2268v2.1719c0.27964-0.91083 3.9013-2.7188 6.3325-0.60155l-0.10562-1.5703z" display="block" enable-background="new" fill="url(#ba)" filter="url(#cc)"/><g transform="matrix(1 0 0 1.132 333.45 80.612)" enable-background="new" fill="#fff" fill-opacity=".72024"><path d="m17.892 39.478h0.40352l0.30432 0.47822c0.24195-0.1761 0.17242-0.50794 0.82602-0.47822h10.596c0.277 0 0.5 0.223 0.5 0.5s-0.223 0.5-0.5 0.5h-12.13c-0.277 0-0.5-0.223-0.5-0.5s0.223-0.5 0.5-0.5z" display="block" filter="url(#cd)"/></g></g><path d="m126.88 275.25 2 2.5 2.625-0.125 1.375-0.875 0.875 0.75h25.25l1.625-1.125 0.375 0.75 2.625 0.625 1.375-2.75-3.125 1.25-1.375-1.125-1.75 0.375h-25.25l-1.625 0.5z" enable-background="accumulate" fill="url(#az)" filter="url(#bt)"/><g><path d="m155.5 238.62v21.5s-4.6229 3.6644-9.75 3.5c-5.1246-0.16432-9-3.5-9-3.5v-21.625z" enable-background="accumulate" fill="url(#ay)" filter="url(#bw)" opacity=".44828"/><path transform="matrix(1 0 0 1.0584 0 -15.23)" d="m163.38 260.81s2.5219 1.0431 2.625 3.6875v10.562c-0.76646 2.8552-2.2129 2.3104-3.4375 2.875 0.81926-0.91688 2.1724-1.1932 2.25-3v-10.562c0.0507-2.2473-1.4375-3.5625-1.4375-3.5625z" enable-background="accumulate" fill="url(#p)" filter="url(#w)" opacity=".68243"/><path d="m127.59 260.94s-2.6508 1.0964-2.7591 3.8759v11.102c0.80562 3.0011 2.326 2.4285 3.6131 3.0219-0.86112-0.96373-2.2834-1.2541-2.365-3.1533v-11.102c-0.0533-2.3622 1.5109-3.7445 1.5109-3.7445z" enable-background="accumulate" fill="url(#ax)" opacity=".68243"/><path transform="matrix(-1 0 0 1.073 297.88 -19.037)" d="m163.38 260.81s2.5219 1.0431 2.625 3.6875v10.562c-0.76646 2.8552-2.2129 2.3104-3.4375 2.875 0.81926-0.91688 2.1724-1.1932 2.25-3v-10.562c0.0507-2.2473-1.4375-3.5625-1.4375-3.5625z" enable-background="accumulate" fill="url(#p)" filter="url(#bu)" opacity=".62644"/><path transform="matrix(-1 0 0 1 296.69 0)" d="m163.38 260.81s2.5219 1.0431 2.625 3.6875v10.562c-0.76646 2.8552-2.2129 2.3104-3.4375 2.875 0.81926-0.91688 2.1724-1.1932 2.25-3v-10.562c0.0507-2.2473-1.4375-3.5625-1.4375-3.5625z" enable-background="accumulate" fill="url(#ae)" filter="url(#v)" opacity=".59459"/><rect x="123.94" y="260.12" width="43.125" height="18.938" rx="4.0625" ry="4.0625" clip-path="url(#ch)" enable-background="accumulate" fill="none" filter="url(#cb)" opacity=".48851" stroke="url(#aw)"/><rect transform="matrix(1 0 0 .97102 0 8.0251)" x="140.82" y="242.92" width="2.5588" height="16.581" rx="1.1556" ry="1.2229" enable-background="accumulate" fill="#fff" filter="url(#bz)" opacity=".43678"/><path d="m155.38 259.75c-6.0456 2.1734-12.246 1.7013-18.625 0.25 0 0 2.4398 1.6455 8.875 1.75 6.5601 0.10655 9.75-2 9.75-2z" enable-background="accumulate" fill="url(#ad)" filter="url(#bx)" opacity=".67816"/><path d="m155.38 260c-5.1706 4.4859-13.059 4.5763-18.625 0.25 5.7561 2.5348 12.947 2.4539 18.625-0.25z" enable-background="accumulate" fill="url(#ac)"/><path d="m154.12 243.75h-2.5v17.125l2.5-1.25z" enable-background="accumulate" fill="url(#ab)" filter="url(#bv)" opacity=".27586"/><path d="m159.44 260.81s2.5219 1.0431 2.625 3.6875v10.562c-0.76646 2.8552-2.2129 2.3104-3.4375 2.875 0.81926-0.91688 2.1724-1.1932 2.25-3v-10.562c0.0507-2.2473-1.4375-3.5625-1.4375-3.5625z" enable-background="accumulate" fill="url(#av)" filter="url(#w)" opacity=".29054"/><path d="m158.31 260.81s2.5219 1.0431 2.625 3.6875v10.562c-0.76646 2.8552-2.2129 2.3104-3.4375 2.875 0.81926-0.91688 2.1724-1.1932 2.25-3v-10.562c0.0507-2.2473-1.4375-3.5625-1.4375-3.5625z" enable-background="accumulate" fill="url(#aa)" filter="url(#v)" opacity=".59459"/><path transform="matrix(1.202 0 0 1 -27.402 0)" d="m133.02 277.31-0.46875 1.5h3.0938z" enable-background="accumulate" fill="url(#au)" filter="url(#t)" opacity=".35632"/><path transform="matrix(-1 0 0 1 294.19 .125)" d="m133.52 277.06-0.46875 1.5h3.0938z" enable-background="accumulate" fill="url(#at)" filter="url(#t)" opacity=".38506"/><path d="m129.88 262.81c0 1.0695-0.9885 2.5-2.4375 2.5s-1.875-1.1805-1.875-2.25 1.7385-2.1875 3.1875-2.1875 1.125 0.868 1.125 1.9375z" enable-background="accumulate" fill="url(#z)" opacity=".85632"/></g></g><rect x="36" y="58.031" width="224" height="149.97" rx="2.125" ry="2.1533" enable-background="new" fill="url(#ah)" fill-rule="evenodd"/><rect x="43" y="71" width="210" height="126" enable-background="new" fill="url(#be)" fill-rule="evenodd" opacity=".3"/><path transform="matrix(1 0 0 1.0137 0 331.68)" d="m38.125-270h219.75c1.1772 0 2.125 0.94775 2.125 2.125v143.75c0 1.1772-0.94775 2.125-2.125 2.125h-219.75c-1.1772 0-2.125-0.94775-2.125-2.125v-143.75c0-1.1772 0.94775-2.125 2.125-2.125z" clip-path="url(#ci)" enable-background="new" fill="none" filter="url(#ce)" opacity=".7" stroke="url(#bf)" stroke-width="1.9864"/><path d="m37.092 60.688c-0.15331 0.16441-0.30919 0.32395-0.40443 0.53125 0.25059 0.46766 0.73275 0.78125 1.3066 0.78125h220.01c0.57388 0 1.056-0.31359 1.3066-0.78125-0.0952-0.2073-0.25112-0.36684-0.40443-0.53125-0.2479 0.19308-0.55526 0.3125-0.9022 0.3125h-220.01c-0.34694 0-0.6543-0.11942-0.9022-0.3125z" enable-background="new" fill="url(#ai)" fill-rule="evenodd"/><rect transform="scale(1,-1)" x="43" y="-198" width="210" height="1" enable-background="new" fill="url(#aj)" fill-rule="evenodd"/><rect transform="scale(-1,1)" x="-254" y="71" width=".99995" height="126" enable-background="new" fill="url(#ak)" fill-rule="evenodd"/><rect transform="matrix(1 0 0 1.0074 0 -.99761)" x="38" y="63" width="1" height="143" rx=".5" ry="1" enable-background="new" fill="url(#al)" filter="url(#y)"/><rect transform="matrix(1 0 0 -1.0074 1 270)" x="257" y="63" width="1" height="143" rx=".5" ry="1" enable-background="new" fill="url(#am)" filter="url(#y)" opacity=".38356"/><rect transform="scale(1,-1)" x="38.227" y="-206" width="219.55" height="1" enable-background="new" fill="url(#an)" fill-rule="evenodd" opacity=".3653"/><path d="m240 200c-2.1996 0-4 1.8004-4 4v4h12v-4c0-2.1996-1.8004-4-4-4z" enable-background="new" fill="url(#bj)" opacity=".18265"/><path d="m240 201c-1.6616 0-3 1.3384-3 3v4h10v-4c0-1.6616-1.3384-3-3-3z" enable-background="new" fill="url(#bi)"/><path d="m240 201c-1.6616 0-3 1.3384-3 3v4h10v-4c0-1.6616-1.3384-3-3-3z" enable-background="new" fill="url(#ao)" opacity=".55708"/><path transform="matrix(1 0 0 .75 0 51.75)" d="m240 203c-0.58774 0-1 0.41226-1 1v3h6v-3c0-0.58774-0.41226-1-1-1z" enable-background="new" fill="url(#bh)"/><path transform="translate(0,-10)" d="m240 211.32c-1.6616 0-3 1.3384-3 3v6.6768h10v-6.6768c0-1.6616-1.3384-3-3-3z" clip-path="url(#ck)" enable-background="new" fill="none" filter="url(#cg)" opacity=".65" stroke="url(#bg)" stroke-linecap="round" stroke-width=".8"/></g><rect x="844" y="372.1" width="208" height="124" enable-background="new" fill="url(#ap)" fill-rule="evenodd"/><rect x="845" y="373" width="206" height="8" color="#000000" enable-background="accumulate" fill="#babdb6"/><rect x="845" y="381" width="30" height="42" rx="0" ry="0" color="#000000" enable-background="accumulate" fill="#babdb6"/><rect x="846" y="384" width="26" height="4" rx="2.0493" ry="2" enable-background="new" opacity=".09"/><g transform="translate(-237.88 33.995)" enable-background="new"><path d="m1124.4 360.61h66.971c0.5621 0 1.0147 0.46407 1.0147 1.0148v51.774c0 0.5507-0.4526 0.99405-1.0147 0.99405h-66.971c-0.5621 0-1.0147-0.44335-1.0147-0.99405v-51.774c0-0.5507 0.4526-1.0148 1.0147-1.0148z" color="#000000" enable-background="accumulate" fill="#d3d7cf" stroke="#888a85"/><path d="m1124.9 362h66v5.0047h-66z" color="#000000" enable-background="accumulate" fill="#555753"/><g transform="translate(840.88 155)" enable-background="new" opacity=".81"><path d="m304.53 220.5c-0.57203 0.064-1.0035 0.54941-1 1.125v10.344c6e-5 0.62129 0.50371 1.1249 1.125 1.125h12.719c0.62129-6e-5 1.1249-0.50371 1.125-1.125v-8.3125c-6e-5 -0.62129-0.50371-1.1249-1.125-1.125h-5.8438c-0.3334 0-0.20853 0.0527-0.40625-0.21875l-0.96875-1.3438c-0.2098-0.29211-0.54661-0.46632-0.90625-0.46875h-4.5938c-0.0416-2e-3 -0.0834-2e-3 -0.125 0z" enable-background="new" fill="url(#i)" fill-rule="evenodd" stroke="url(#h)"/><path d="m304.62 221.44c-0.10325 0.0115-0.15688 0.0836-0.15625 0.1875v10.344c1e-5 0.11468 0.0728 0.18749 0.1875 0.1875h12.719c0.11468-1e-5 0.18749-0.0728 0.1875-0.1875v-8.3125c-1e-5 -0.11468-0.0728-0.18749-0.1875-0.1875h-5.8438c-0.0587 0-0.0805-1e-3 -0.15625 0-0.0757 1e-3 -0.29559 0.0325-0.5625-0.125-0.26691-0.15754-0.34468-0.32772-0.375-0.375-0.0303-0.0473-0.0322-0.0522-0.0625-0.0937l-0.96875-1.3438c-0.0355-0.0494-0.0954-0.0933-0.15625-0.0937h-4.5938c-0.0104 1.7e-4 -0.0208 1.7e-4 -0.0313 0z" enable-background="new" fill="none" opacity=".4" stroke="url(#d)"/><path d="m309.78 222.5c-0.2554 0-0.45965 0.13987-0.59375 0.34375-0.43264 0.54853-1.1235 1.6562-1.6562 1.6562h-2.6875c-0.83807 0-1.3437 0.5428-1.3438 1.4688v6.125c0 1.3376 0.65057 2.4062 1.4688 2.4062h12.062c0.81819 0 1.4688-1.0687 1.4688-2.4062v-8.9062c0-0.37505-0.29595-0.6875-0.65625-0.6875z" enable-background="new" fill="url(#g)" fill-rule="evenodd" stroke="url(#f)" stroke-linejoin="round"/><path transform="translate(-1,40)" d="m310.94 183.5c-0.74659 0.74659-1.6086 2-2.4062 2h-2.6875c-0.20314 0-0.22418 0.0344-0.25 0.0625-0.0258 0.0281-0.0937 0.12531-0.0937 0.40625v7.5312h13v-10h-7.5625z" enable-background="new" fill="none" opacity=".40639" stroke="url(#e)" stroke-linejoin="round"/><path transform="matrix(.065331 0 0 .29412 301.15 90.449)" d="m250.06 476.75c-0.0458 1.3355-0.49131 2.357-1.2188 3.0625s-1.7687 1.125-3.1875 1.125h-197.25c-1.4189 0-2.4805-0.44927-3.2188-1.1562s-1.1869-1.7049-1.2188-3.0312v3c0.03187 1.3263 0.48049 2.3243 1.2188 3.0312s1.7998 1.1562 3.2188 1.1562h197.25c1.4188 0 2.4601-0.41955 3.1875-1.125s1.1729-1.727 1.2188-3.0625z" enable-background="new" fill="url(#c)" fill-rule="evenodd" filter="url(#k)" opacity=".75"/></g><g transform="translate(864.88 155)" enable-background="new" opacity=".81"><path d="m304.53 220.5c-0.57203 0.064-1.0035 0.54941-1 1.125v10.344c6e-5 0.62129 0.50371 1.1249 1.125 1.125h12.719c0.62129-6e-5 1.1249-0.50371 1.125-1.125v-8.3125c-6e-5 -0.62129-0.50371-1.1249-1.125-1.125h-5.8438c-0.3334 0-0.20853 0.0527-0.40625-0.21875l-0.96875-1.3438c-0.2098-0.29211-0.54661-0.46632-0.90625-0.46875h-4.5938c-0.0416-2e-3 -0.0834-2e-3 -0.125 0z" enable-background="new" fill="url(#i)" fill-rule="evenodd" stroke="url(#h)"/><path d="m304.62 221.44c-0.10325 0.0115-0.15688 0.0836-0.15625 0.1875v10.344c1e-5 0.11468 0.0728 0.18749 0.1875 0.1875h12.719c0.11468-1e-5 0.18749-0.0728 0.1875-0.1875v-8.3125c-1e-5 -0.11468-0.0728-0.18749-0.1875-0.1875h-5.8438c-0.0587 0-0.0805-1e-3 -0.15625 0-0.0757 1e-3 -0.29559 0.0325-0.5625-0.125-0.26691-0.15754-0.34468-0.32772-0.375-0.375-0.0303-0.0473-0.0322-0.0522-0.0625-0.0937l-0.96875-1.3438c-0.0355-0.0494-0.0954-0.0933-0.15625-0.0937h-4.5938c-0.0104 1.7e-4 -0.0208 1.7e-4 -0.0313 0z" enable-background="new" fill="none" opacity=".4" stroke="url(#d)"/><path d="m309.78 222.5c-0.2554 0-0.45965 0.13987-0.59375 0.34375-0.43264 0.54853-1.1235 1.6562-1.6562 1.6562h-2.6875c-0.83807 0-1.3437 0.5428-1.3438 1.4688v6.125c0 1.3376 0.65057 2.4062 1.4688 2.4062h12.062c0.81819 0 1.4688-1.0687 1.4688-2.4062v-8.9062c0-0.37505-0.29595-0.6875-0.65625-0.6875z" enable-background="new" fill="url(#g)" fill-rule="evenodd" stroke="url(#f)" stroke-linejoin="round"/><path transform="translate(-1,40)" d="m310.94 183.5c-0.74659 0.74659-1.6086 2-2.4062 2h-2.6875c-0.20314 0-0.22418 0.0344-0.25 0.0625-0.0258 0.0281-0.0937 0.12531-0.0937 0.40625v7.5312h13v-10h-7.5625z" enable-background="new" fill="none" opacity=".40639" stroke="url(#e)" stroke-linejoin="round"/><path transform="matrix(.065331 0 0 .29412 301.15 90.449)" d="m250.06 476.75c-0.0458 1.3355-0.49131 2.357-1.2188 3.0625s-1.7687 1.125-3.1875 1.125h-197.25c-1.4189 0-2.4805-0.44927-3.2188-1.1562s-1.1869-1.7049-1.2188-3.0312v3c0.03187 1.3263 0.48049 2.3243 1.2188 3.0312s1.7998 1.1562 3.2188 1.1562h197.25c1.4188 0 2.4601-0.41955 3.1875-1.125s1.1729-1.727 1.2188-3.0625z" enable-background="new" fill="url(#c)" fill-rule="evenodd" filter="url(#k)" opacity=".75"/></g><g transform="translate(840.88 175)" enable-background="new" opacity=".81"><path d="m304.53 220.5c-0.57203 0.064-1.0035 0.54941-1 1.125v10.344c6e-5 0.62129 0.50371 1.1249 1.125 1.125h12.719c0.62129-6e-5 1.1249-0.50371 1.125-1.125v-8.3125c-6e-5 -0.62129-0.50371-1.1249-1.125-1.125h-5.8438c-0.3334 0-0.20853 0.0527-0.40625-0.21875l-0.96875-1.3438c-0.2098-0.29211-0.54661-0.46632-0.90625-0.46875h-4.5938c-0.0416-2e-3 -0.0834-2e-3 -0.125 0z" enable-background="new" fill="url(#i)" fill-rule="evenodd" stroke="url(#h)"/><path d="m304.62 221.44c-0.10325 0.0115-0.15688 0.0836-0.15625 0.1875v10.344c1e-5 0.11468 0.0728 0.18749 0.1875 0.1875h12.719c0.11468-1e-5 0.18749-0.0728 0.1875-0.1875v-8.3125c-1e-5 -0.11468-0.0728-0.18749-0.1875-0.1875h-5.8438c-0.0587 0-0.0805-1e-3 -0.15625 0-0.0757 1e-3 -0.29559 0.0325-0.5625-0.125-0.26691-0.15754-0.34468-0.32772-0.375-0.375-0.0303-0.0473-0.0322-0.0522-0.0625-0.0937l-0.96875-1.3438c-0.0355-0.0494-0.0954-0.0933-0.15625-0.0937h-4.5938c-0.0104 1.7e-4 -0.0208 1.7e-4 -0.0313 0z" enable-background="new" fill="none" opacity=".4" stroke="url(#d)"/><path d="m309.78 222.5c-0.2554 0-0.45965 0.13987-0.59375 0.34375-0.43264 0.54853-1.1235 1.6562-1.6562 1.6562h-2.6875c-0.83807 0-1.3437 0.5428-1.3438 1.4688v6.125c0 1.3376 0.65057 2.4062 1.4688 2.4062h12.062c0.81819 0 1.4688-1.0687 1.4688-2.4062v-8.9062c0-0.37505-0.29595-0.6875-0.65625-0.6875z" enable-background="new" fill="url(#g)" fill-rule="evenodd" stroke="url(#f)" stroke-linejoin="round"/><path transform="translate(-1,40)" d="m310.94 183.5c-0.74659 0.74659-1.6086 2-2.4062 2h-2.6875c-0.20314 0-0.22418 0.0344-0.25 0.0625-0.0258 0.0281-0.0937 0.12531-0.0937 0.40625v7.5312h13v-10h-7.5625z" enable-background="new" fill="none" opacity=".40639" stroke="url(#e)" stroke-linejoin="round"/><path transform="matrix(.065331 0 0 .29412 301.15 90.449)" d="m250.06 476.75c-0.0458 1.3355-0.49131 2.357-1.2188 3.0625s-1.7687 1.125-3.1875 1.125h-197.25c-1.4189 0-2.4805-0.44927-3.2188-1.1562s-1.1869-1.7049-1.2188-3.0312v3c0.03187 1.3263 0.48049 2.3243 1.2188 3.0312s1.7998 1.1562 3.2188 1.1562h197.25c1.4188 0 2.4601-0.41955 3.1875-1.125s1.1729-1.727 1.2188-3.0625z" enable-background="new" fill="url(#c)" fill-rule="evenodd" filter="url(#k)" opacity=".75"/></g><g transform="translate(864.88 175)" enable-background="new" opacity=".81"><path d="m304.53 220.5c-0.57203 0.064-1.0035 0.54941-1 1.125v10.344c6e-5 0.62129 0.50371 1.1249 1.125 1.125h12.719c0.62129-6e-5 1.1249-0.50371 1.125-1.125v-8.3125c-6e-5 -0.62129-0.50371-1.1249-1.125-1.125h-5.8438c-0.3334 0-0.20853 0.0527-0.40625-0.21875l-0.96875-1.3438c-0.2098-0.29211-0.54661-0.46632-0.90625-0.46875h-4.5938c-0.0416-2e-3 -0.0834-2e-3 -0.125 0z" enable-background="new" fill="url(#i)" fill-rule="evenodd" stroke="url(#h)"/><path d="m304.62 221.44c-0.10325 0.0115-0.15688 0.0836-0.15625 0.1875v10.344c1e-5 0.11468 0.0728 0.18749 0.1875 0.1875h12.719c0.11468-1e-5 0.18749-0.0728 0.1875-0.1875v-8.3125c-1e-5 -0.11468-0.0728-0.18749-0.1875-0.1875h-5.8438c-0.0587 0-0.0805-1e-3 -0.15625 0-0.0757 1e-3 -0.29559 0.0325-0.5625-0.125-0.26691-0.15754-0.34468-0.32772-0.375-0.375-0.0303-0.0473-0.0322-0.0522-0.0625-0.0937l-0.96875-1.3438c-0.0355-0.0494-0.0954-0.0933-0.15625-0.0937h-4.5938c-0.0104 1.7e-4 -0.0208 1.7e-4 -0.0313 0z" enable-background="new" fill="none" opacity=".4" stroke="url(#d)"/><path d="m309.78 222.5c-0.2554 0-0.45965 0.13987-0.59375 0.34375-0.43264 0.54853-1.1235 1.6562-1.6562 1.6562h-2.6875c-0.83807 0-1.3437 0.5428-1.3438 1.4688v6.125c0 1.3376 0.65057 2.4062 1.4688 2.4062h12.062c0.81819 0 1.4688-1.0687 1.4688-2.4062v-8.9062c0-0.37505-0.29595-0.6875-0.65625-0.6875z" enable-background="new" fill="url(#g)" fill-rule="evenodd" stroke="url(#f)" stroke-linejoin="round"/><path transform="translate(-1,40)" d="m310.94 183.5c-0.74659 0.74659-1.6086 2-2.4062 2h-2.6875c-0.20314 0-0.22418 0.0344-0.25 0.0625-0.0258 0.0281-0.0937 0.12531-0.0937 0.40625v7.5312h13v-10h-7.5625z" enable-background="new" fill="none" opacity=".40639" stroke="url(#e)" stroke-linejoin="round"/><path transform="matrix(.065331 0 0 .29412 301.15 90.449)" d="m250.06 476.75c-0.0458 1.3355-0.49131 2.357-1.2188 3.0625s-1.7687 1.125-3.1875 1.125h-197.25c-1.4189 0-2.4805-0.44927-3.2188-1.1562s-1.1869-1.7049-1.2188-3.0312v3c0.03187 1.3263 0.48049 2.3243 1.2188 3.0312s1.7998 1.1562 3.2188 1.1562h197.25c1.4188 0 2.4601-0.41955 3.1875-1.125s1.1729-1.727 1.2188-3.0625z" enable-background="new" fill="url(#c)" fill-rule="evenodd" filter="url(#k)" opacity=".75"/></g><path d="m1134.9 374h1v38h-1z" color="#000000" enable-background="accumulate" fill="#555753" opacity=".24"/><path d="m1187.4 363.5 2 2" fill="none" stroke="#dadada" stroke-linecap="round" stroke-width="1px"/><path d="m1189.4 363.5-2 2" fill="none" stroke="#dadada" stroke-linecap="round" stroke-width="1px"/><path d="m1185.4 363.5v2h-2v-2z" fill="none" stroke="#dadada" stroke-linecap="round" stroke-linejoin="round" stroke-width="1px"/><path d="m1178.9 365.5h2" fill="none" stroke="#dadada" stroke-linecap="round" stroke-width="1px"/></g><rect x="845.3" y="373.13" width="29.482" height="7.8543" rx="2.3603" ry="1.9717" color="#000000" enable-background="accumulate" fill="url(#bl)" fill-rule="evenodd" stroke="#bbbeb7" stroke-linecap="square" stroke-linejoin="round" stroke-width=".43145"/><rect x="846" y="375" width="28" height="4" rx="2" ry="2" enable-background="new" opacity=".15"/><path d="m847 374.5c1.1481 0.25827 0.78035 4.5353 0.0218 4.026-0.0474-1.3411-0.01-2.6841-0.0218-4.026zm3.8379 1.1894c-0.62183 0.62786-3.0486 0.66437-0.55302 1.3684 2.5857 1.33-2.9466 2.6019-1.3017 1.278 3.4244 0.43357-2.7291-2.411 0.65316-2.8176 0.40588-0.0348 0.82432 0.0114 1.2016 0.17116zm1.5586 2.6924c-0.15235 4.3626-1.2324-2.5484-0.175-2.6451 3.6133-1.5303 3.089 5.0603 0.175 2.6451zm1.834-1.1455c-1.0106-3.7521-2.9279 1.547-0.73644 1.185 0.32695-0.33994 0.53711-0.76455 0.73644-1.185zm4.2598-0.1377c-1.1747 0.0743-3.7429 0.7431-1.2684 1.2511 3.1587 0.47817-3.2999 1.2032-1.6491-1.4619 0.40894-1.9008 2.9062-1.8107 2.9175 0.21086zm-0.53906-0.1582c-0.0374-2.1817-3.503 0.30973-0.66659 0.0738zm1.957-2.2793c-0.3736 1.3605 2.1068 0.87487-1e-3 1.726-0.83174 1.4754 2.3145 3.0983-0.12989 2.1201-0.5683-0.85843-1.1372-3.5384 0.131-3.8461zm2.3555 0c-0.3736 1.3605 2.1068 0.87487-1e-3 1.726-0.83175 1.4754 2.3145 3.0983-0.12989 2.1201-0.5683-0.85843-1.1372-3.5384 0.131-3.8461zm3.0938 1.3096c-2.8168 0.75664 1.4761 4.3496 0.89654 0.83113-0.0857-0.41524-0.41602-0.86822-0.89654-0.83113zm0-0.45703c4.0628 0.51743-1.231 5.978-1.5059 1.7227-0.0815-0.84809 0.5872-1.824 1.5059-1.7227zm4.2978 0.58301c-2.0051-1.1563-1.3591 5.09-1.9227 1.5511-0.7447-1.5861 1.133-3.2094 1.9227-1.5511zm3.249 1.002c-1.1747 0.0743-3.7429 0.7431-1.2684 1.2511 3.1587 0.47817-3.2999 1.2032-1.6491-1.4619 0.40894-1.9008 2.9062-1.8107 2.9175 0.21086zm-0.53907-0.1582c-0.0374-2.1817-3.503 0.30973-0.66659 0.0738z" enable-background="new" fill="#5a5c58"/><rect x="846" y="392" width="22" height="4" rx="1.734" ry="2" enable-background="new" opacity=".09"/><rect x="846" y="400" width="24" height="4" rx="1.8916" ry="2" enable-background="new" opacity=".09"/><rect x="846" y="408" width="28" height="4" rx="2.2069" ry="2" enable-background="new" opacity=".09"/><rect x="846" y="416" width="18" height="4" rx="1.4187" ry="2" enable-background="new" opacity=".09"/><path d="m847.76 383.7c-0.3736 1.3605 2.1068 0.87486-1e-3 1.726-0.83175 1.4754 2.3145 3.0983-0.12989 2.1202-0.5683-0.85844-1.1372-3.5384 0.131-3.8461zm3.0938 1.3096c-2.8168 0.75663 1.4761 4.3495 0.89654 0.83112-0.0857-0.41525-0.41602-0.86822-0.89654-0.83112zm0-0.45703c4.0628 0.51743-1.2311 5.978-1.5059 1.7226-0.0814-0.84809 0.5872-1.824 1.5059-1.7226zm4.9512 0.70898c2.5531-3.1507 2.5382 5.1405 1.6517 1.4882 0.58728-2.7365-2.5973-1.5492-1.5432 0.67946-1.0576 1.8082 0.0146-4.2644-2.0809-1.7985 0.29443 1.8888-0.76691 3.054-0.61246 0.50546-0.87017-1.5882 2.0263-2.0653 2.5849-0.87461zm5.6484 1.0137c-1.0106-3.7521-2.9279 1.547-0.73643 1.185 0.32694-0.33993 0.5371-0.76456 0.73643-1.185zm-1.834-1.1455c3.9383-2.2664 1.4689 5.6214-0.60643 2.1802-0.16165-1.3377 0.37258-6.0753 0.60643-2.1802zm4.7783 1.1338c-3.6832 0.77243 2.0403 1.8865 0 0zm1.0752-0.22265c1.2391 2.9472-4.721 2.0855-1.8768-0.14373 2.8402-0.0986-0.46468-0.98842-0.32874-1.0731 0.97672-0.63941 2.3592-0.0671 2.2055 1.2168zm1.1133-2.6865c1.4645 0.40644 0.0656 7.0851 0 2.8823v-2.8823zm4.4707 2.7832c-1.1747 0.0743-3.7429 0.74309-1.2684 1.2511 3.1587 0.47817-3.2999 1.2032-1.6491-1.4619 0.40894-1.9008 2.9062-1.8107 2.9175 0.21086zm-0.53907-0.1582c-0.0374-2.1817-3.503 0.30973-0.66659 0.0738z" enable-background="new" fill="#5a5c58"/><path d="m849.61 408.46c-0.56049 0.63787-3.0908 0.65179-0.55253 1.3686 2.1425 0.72716-1.5644 3.2931-1.7795 1.1393 1.3715 1.3511 2.7075-1.1129 0.53833-0.92724-1.6282-1.0797 0.83062-2.3718 1.7937-1.5806zm3.3984 0.0293c-2.2522 7e-3 -2.9394 2.992-0.0827 2.8076-2.5591 2.1283-3.6291-3.7667-0.37048-3.0037zm2.4346 1.5059c-3.6076 0.55113 2.0511 2.2974 0 0zm1.0752-0.22266c1.2659 3.1076-4.8737 1.9447-1.73-0.25958 2.8284 0.18111-0.74054-0.98015-0.48471-0.95168 0.97776-0.64573 2.3678-0.0796 2.2147 1.2113zm3.0146-0.90527c-1.9954-1.1532-1.3508 5.0528-1.9254 1.5638-0.37881-1.6782 0.23917-2.5138 1.8624-2.0037zm1.0928 2.2852c0.47939 1.7667-0.96821 2.1922-0.54199 0.0873-0.6908-2.3004 0.66726-3.8088 2.6758-2.2579 1.0272 1.3547-0.78373 3.9571-2.1338 2.1706zm1.834-1.1455c-1.144-3.9169-2.7152 3.2424-0.0615 0.53101 0.0205-0.17701 0.041-0.35401 0.0615-0.53101zm2.9443-0.0117c-3.6076 0.55115 2.0512 2.2974 0 0zm1.0752-0.22266c1.2658 3.1076-4.8737 1.9447-1.73-0.25958 2.8284 0.18111-0.74054-0.98014-0.48471-0.95168 0.97776-0.64573 2.3678-0.0797 2.2147 1.2113zm1.1133-2.6865c1.0228 0.61532 0.70181 3.8316 0.13917 4.4496-0.31965-1.4256-0.0502-2.9821-0.13917-4.4496zm1.6641 0c1.0228 0.61531 0.70183 3.8316 0.13917 4.4496-0.31965-1.4256-0.0502-2.9821-0.13917-4.4496zm3.1553 2.9092c-3.6076 0.55113 2.0511 2.2974 0 0zm1.0752-0.22266c1.2659 3.1076-4.8737 1.9447-1.73-0.25958 2.8284 0.18111-0.74054-0.98015-0.48471-0.95168 0.97776-0.64573 2.3678-0.0797 2.2147 1.2113z" enable-background="new" fill="#5a5c58"/><path d="m849.71 392.46c-0.56049 0.63787-3.0908 0.65179-0.55253 1.3686 2.1425 0.72717-1.5644 3.2931-1.7795 1.1393 1.3714 1.3511 2.7075-1.1129 0.53833-0.92724-1.6282-1.0797 0.83061-2.3718 1.7937-1.5806zm3.3984 0.0293c-2.2522 7e-3 -2.9394 2.992-0.0827 2.8076-2.5591 2.1283-3.6291-3.7667-0.37048-3.0037l0.45317 0.19613zm2.4346 1.5059c-3.6076 0.55113 2.0511 2.2974 0 0zm1.0752-0.22266c1.2659 3.1076-4.8737 1.9447-1.73-0.25958 2.8284 0.18111-0.74054-0.98015-0.48471-0.95168 0.97776-0.64573 2.3678-0.0797 2.2147 1.2113zm3.0146-0.90527c-1.9953-1.1532-1.3508 5.0528-1.9254 1.5638-0.37881-1.6782 0.23918-2.5138 1.8624-2.0037zm1.0928 2.2851c0.4794 1.7667-0.96821 2.1922-0.54199 0.0873-0.6908-2.3004 0.66726-3.8088 2.6758-2.2579 1.0272 1.3546-0.78373 3.9571-2.1338 2.1706zm1.834-1.1455c-1.144-3.9169-2.7152 3.2424-0.0615 0.531l0.0615-0.531zm2.9443-0.0117c-3.6076 0.55113 2.0511 2.2974 0 0zm1.0752-0.22266c1.2658 3.1076-4.8737 1.9447-1.73-0.25958 2.8284 0.18111-0.74054-0.98015-0.48471-0.95168 0.97776-0.64573 2.3678-0.0797 2.2147 1.2113z" enable-background="new" fill="#5a5c58"/><path d="m848.56 402c-3.6076 0.55112 2.0511 2.2974 0 0zm1.0752-0.22266c1.2658 3.1076-4.8737 1.9447-1.73-0.25958 2.8284 0.1811-0.74055-0.98015-0.48472-0.95168 0.97777-0.64573 2.3678-0.0797 2.2147 1.2113zm1.1133-2.6865c1.0227 0.61532 0.70181 3.8316 0.13917 4.4496-0.31965-1.4256-0.0502-2.9821-0.13917-4.4496zm1.6641 0c1.0227 0.61532 0.70181 3.8316 0.13917 4.4496-0.31965-1.4256-0.0502-2.9821-0.13917-4.4496zm3.1553 2.9092c-3.6076 0.55112 2.0511 2.2974 0 0zm1.0752-0.22266c1.2659 3.1076-4.8737 1.9447-1.73-0.25958 2.8284 0.1811-0.74054-0.98015-0.48471-0.95168 0.97776-0.64573 2.3678-0.0797 2.2147 1.2113zm3.4746-1.2832c-2.2522 7e-3 -2.9394 2.992-0.0827 2.8076-2.5591 2.1283-3.6291-3.7667-0.37048-3.0037zm3.3047 0c-2.2522 7e-3 -2.9394 2.992-0.0827 2.8076-2.5591 2.1283-3.6291-3.7667-0.37048-3.0037l0.45317 0.19613zm0.94336-0.12598c1.5162 0.37797-0.0881 5.3674-0.0643 1.7349 0.15813-0.56627 0.0123-1.1593 0.0643-1.7349zm0-1.2773c1.5117-0.20242-0.43783 1.6651 0 0zm3.1553 2.9092c-3.6076 0.55112 2.0511 2.2974 0 0zm1.0752-0.22266c1.2659 3.1076-4.8737 1.9447-1.73-0.25958 2.8284 0.1811-0.74054-0.98015-0.48471-0.95168 0.97777-0.64573 2.3678-0.0797 2.2147 1.2113z" enable-background="new" fill="#5a5c58"/><path d="m849.48 416.49c-2.2522 7e-3 -2.9394 2.992-0.0827 2.8076-2.5591 2.1283-3.6291-3.7667-0.37048-3.0037l0.45317 0.19613zm2.4346 1.5059c-3.6076 0.55113 2.0511 2.2974 0 0zm1.0752-0.22266c1.2659 3.1076-4.8737 1.9447-1.73-0.25958 2.8284 0.18111-0.74054-0.98015-0.48471-0.95168 0.97776-0.64573 2.3678-0.0797 2.2147 1.2113zm3.0146-0.90527c-1.9953-1.1532-1.3508 5.0528-1.9254 1.5638-0.37881-1.6782 0.23918-2.5138 1.8624-2.0037zm1.0928 2.2851c0.4794 1.7667-0.96821 2.1922-0.54199 0.0873-0.6908-2.3004 0.66726-3.8088 2.6758-2.2579 1.0272 1.3546-0.78373 3.9571-2.1338 2.1706zm1.834-1.1455c-1.144-3.9169-2.7152 3.2424-0.0615 0.531l0.0615-0.531zm2.9443-0.0117c-3.6076 0.55113 2.0511 2.2974 0 0zm1.0752-0.22266c1.2658 3.1076-4.8737 1.9447-1.73-0.25958 2.8284 0.18111-0.74054-0.98015-0.48471-0.95168 0.97776-0.64573 2.3678-0.0797 2.2147 1.2113z" enable-background="new" fill="#5a5c58"/><rect x="877" y="375" width="20" height="4" rx="1.5764" ry="2" enable-background="new" opacity=".09"/><rect x="899" y="375" width="21" height="4" rx="1.6552" ry="2" enable-background="new" opacity=".09"/><path d="m878.59 375.03c-1.174 3.469 4.1009 0.0546 0 0zm-0.5918-0.48632c2.2178-1.4951 3.787 3.4266 0.79932 2.6162-0.87496 4.4687-0.89007-1.859-0.79932-2.6162zm5.3936 1.5967c-2.055-0.81802-1.3645 4.9603-2.0863 0.96107-0.2255-1.2029 1.4367-2.4757 2.0863-0.96107zm3.249 1.002c-2.4917-0.0311-2.5784 1.2763-0.42565 1.5992-3.2317 1.4964-3.5066-3.768-0.3946-3.0554 0.5549 0.24224 0.83721 0.87787 0.82025 1.4563zm-0.53906-0.15821c-0.28558-2.2315-3.1709 0.71121-0.31103 0.0344l0.17779-0.0197 0.13324-0.0148zm3.9785-0.71777c2.3842-3.2771 2.4095 5.2025 1.7196 1.0204-0.81776-3.1049-2.0051 1.3331-2.0877 1.2823 0.32689-1.4248-1.3099-3.9279-1.5524-1.265-0.76267 3.6897-1.5376-3.9545 1.6134-1.4071zm4.7842 1.002c-4.0169 0.75206 2.1563 1.8828 0 0zm1.0752-0.22265c1.4076 2.8778-4.7301 1.902-1.8768-0.14373 2.976 0.0726-2.0382-1.5073 0.83884-1.3076 0.67514 0.10732 1.1557 0.77502 1.038 1.4513z" enable-background="new" fill="#5a5c58"/><path d="m914.98 374.36c1.1565-0.0824 0.25488 1.8932 0.53906 2.6831 0.33797 0.85658-0.411 2.9633-0.53906 1.16v-3.8431zm3.1553 2.9092c-3.9764 1.2338 2.4134 1.7799 0 0zm1.0752-0.22265c0.24595 1.6788-0.26919 1.9462-0.99902 1.8164-2.79 0.74389-1.6106-2.8258 0.45996-2.0684-0.19675-1.4246-3.7323-0.27233-0.87598-1.2363 0.85069-0.10873 1.521 0.66707 1.415 1.4883zm-16.885-1.3125c0.35311 0.81444-3.2702 0.0782-1.0664 1.2656 3.1772 0.38201-0.89971 3.6008-1.2656 1.2422 2.7858 0.89682 1.6557-0.80416 0.0791-1.3762-0.42338-1.3749 1.3948-1.5109 2.2529-1.1316zm0.98145 1.8896c-0.22387-0.70695 0.17001-3.0426 0.53906-1.4497-0.75449 1.8851 1.7405 3.4924 1.6699 0.78711-0.40061-1.5412 0.92321-1.7164 0.53907-0.0716 0.20118 0.68986-0.1339 3.0612-0.53907 1.5252-0.65596 1.1334-2.4419 0.51967-2.209-0.79101zm4.3857 0.80273c0.40719 1.0527-0.61696 2.7431-0.54199 0.84587v-3.6349c0.85749 0.61655 2.8054-0.88347 2.9356 1.6436 0.22367 1.3284-1.5558 2.4762-2.3936 1.1455zm1.834-1.1455c-2.3268-4.9461-2.2326 4.8338 0 0zm4.2598-0.13769c-0.35263 0.72697-3.9016-0.41912-1.7842 1.3308 1.426-0.30829 2.5714 0.18884 0.44532 0.52954-3.6248-0.0286-0.54896-5.7234 1.2422-2.5159l0.0967 0.65552zm-0.53906-0.15821c-0.32454-2.4447-4.0234 0.61099 0 0z" enable-background="new" fill="#5a5c58"/><rect x="1036" y="375" width="15" height="4" rx="1.1823" ry="2" enable-background="new" opacity=".09"/><path d="m1039.1 374.35c-0.3357 0.56337-1.7319 1.4668-0.1436 1.2773-1.5551 0.21667-0.5518 5.1712-1.5262 2.0872 0.2886-1.4322-0.9946-3.4743 1.6698-3.3645zm1.9394 2.9092c-3.6832 0.77243 2.0403 1.8865 0 0zm1.0752-0.22265c1.2391 2.9472-4.721 2.0855-1.8768-0.14373 2.8402-0.0986-0.4647-0.98842-0.3287-1.0731 0.9767-0.63941 2.3592-0.0671 2.2055 1.2168zm1.6465-2.3408c-0.3736 1.3605 2.1068 0.87486-1e-3 1.726-0.8318 1.4754 2.3145 3.0983-0.1299 2.1202-0.5683-0.85844-1.1372-3.5384 0.131-3.8461zm1.7666 2.918c-0.3948-1.9075 0.8463-2.624 0.4916-0.151 1.4048 2.3869 1.7236-0.77465 1.9807-1.7422 0.6986 0.85201 0.4123 3.7674-0.5561 3.0294-0.8004 0.66412-2.1596-0.0823-1.9162-1.1362zm3.8642-1.9863c1.5483 0.46766-0.1422 5.3948-0.06 1.6583 0.148-0.54172 0.011-1.108 0.06-1.6583zm0-1.2773c1.5216-0.2107-0.4456 1.678 0 0z" enable-background="new" fill="#5a5c58"/><g transform="matrix(.50097 0 0 .31299 1021 373.37)" fill="#606060"><path d="m8.0096 15.01h2.0428v3.0017h-2.0428z"/><path d="m12.002 11.584h1.9961l0.05664 6.4283h-2.0428l-0.0099-6.4283z"/><path d="m15.994 8.3886h1.9961l0.02498 9.6234h-2.0011l-0.01997-9.6234z"/><path d="m22.018 1.9985v16.013h-2.0126l0.02601-16.013z"/></g><path transform="rotate(179.99)" d="m-1019.5-378.85 7.1287 4e-5 -2e-4 1.01 1 0.12044-5e-4 2-1-2.1e-4 -2e-4 0.90965-7.1278-4e-5z" enable-background="accumulate" fill="none" stroke="#606060" stroke-linecap="square"/><rect transform="rotate(179.99)" x="-1018.9" y="-378.22" width="3.9995" height="3.0008" enable-background="accumulate" fill="#878787"/><rect x="1024" y="374" width="9" height="5" rx=".70936" ry="2.5" enable-background="new" opacity=".09"/><rect x="1010" y="374" width="11" height="5" rx=".867" ry="2.5" enable-background="new" opacity=".09"/><g transform="translate(1030 300.1)" enable-background="new"><rect transform="translate(-230,-290)" x="44" y="362" width="208.75" height="125" clip-path="url(#cj)" enable-background="new" fill="none" filter="url(#cf)" opacity=".6" stroke="#000"/><g transform="translate(-230)"><rect x="44" y="72" width="208" height="124" enable-background="new" fill="url(#bk)" fill-rule="evenodd" opacity=".19178"/><path d="m200.55 74h50.455v122h-111z" enable-background="new" fill="url(#ar)" opacity=".24498"/><path d="m139.55 74h34.455l-32 89-17-1z" enable-background="new" fill="url(#aq)" opacity=".24498"/></g></g><g transform="translate(-149.85 71.908)" enable-background="new"><path d="m1124.4 360.61h66.971c0.5621 0 1.0147 0.46407 1.0147 1.0148v51.774c0 0.5507-0.4526 0.99405-1.0147 0.99405h-66.971c-0.5621 0-1.0147-0.44335-1.0147-0.99405v-51.774c0-0.5507 0.4526-1.0148 1.0147-1.0148z" color="#000000" enable-background="accumulate" fill="#d3d7cf" stroke="#888a85"/><path d="m1124.9 362h66v5.0047h-66z" color="#000000" enable-background="accumulate" fill="#555753"/><path d="m1187.4 363.5 2 2" fill="none" stroke="#dadada" stroke-linecap="round" stroke-width="1px"/><path d="m1189.4 363.5-2 2" fill="none" stroke="#dadada" stroke-linecap="round" stroke-width="1px"/><path d="m1185.4 363.5v2h-2v-2z" fill="none" stroke="#dadada" stroke-linecap="round" stroke-linejoin="round" stroke-width="1px"/><path d="m1178.9 365.5h2" fill="none" stroke="#dadada" stroke-linecap="round" stroke-width="1px"/><rect x="1125.4" y="368.62" width="59.986" height="41.97" color="#000000" enable-background="accumulate" fill="url(#as)" fill-rule="evenodd" stroke="#abb3b4" stroke-width="1.0138"/><g transform="matrix(.28004 0 0 .27554 1055.8 316.03)" fill-rule="evenodd"><rect x="469.79" y="212.48" width="10.752" height="69.039" rx="1.913" ry="1.9582" color="#000000" enable-background="accumulate" fill="url(#bp)" stroke="#3465a4" stroke-width="3.5315"/><path d="m472.47 212.88c-0.88029 0-1.5938 0.71346-1.5938 1.5938v65.062c0 0.88029 0.71346 1.5938 1.5938 1.5938h7.0625c0.88029 0 1.5938-0.71346 1.5938-1.5938v-65.062c0-0.88029-0.71346-1.5938-1.5938-1.5938z" color="#000000" enable-background="accumulate" fill="url(#cl)" opacity=".08"/></g><path d="m1188.9 370.09-2 2h3.9844z" color="#000000" enable-background="accumulate" fill-rule="evenodd"/><g transform="matrix(.28004 0 0 .28004 1034 314.91)" opacity=".43564"><path d="m340.5 209.58c-5.4052 1.3326-1.2033 9.0665 2.5498 6.6651-2.5096 6.2035-11.614-3.7746-5.3645-7.593 3.2313-3.3014 9.2626 2.7035 2.8147 0.92796"/><path d="m350.65 215.18c-0.86682 6.8599-11.062-1.1065-2.7754 1.087 2.2197-2.5664-7.462-5.2931-1.3535-8.2578 4.4878-1.2898 4.903 3.1835 0.50586 1.8594-1.2866 2.7102 4.2427 2.3567 3.623 5.3115"/><path d="m357.98 215.18c-0.86684 6.8599-11.062-1.1065-2.7754 1.087 2.2196-2.5664-7.462-5.2931-1.3535-8.2578 4.4878-1.2898 4.903 3.1835 0.50586 1.8594-1.2866 2.7102 4.2427 2.3567 3.623 5.3115"/><path d="m369.22 217.95c-2.4712-0.33614-6.9895 1.3749-5.7559-2.6661 0.55399-2.1849-1.1356-6.6135 0.88869-7.3281 2.4178-0.94047 7.6439 1.1702 3.0898 1.7363-4.3666 0.068-0.28177 3.0654 1.5244 2.6387 0.17528 1.837-6.2278 1.3698-2.4951 3.8691 1.642 0.17819 3.4414-0.81648 2.748 1.75z"/><path d="m377.78 217.95c-4.2714 1.1939-0.35329-5.049-3.1309-6.1182-2.9895 0.51874 0.3331 8.382-3.5 5.6738 0.57611-2.1195-1.1676-6.5589 0.88869-7.1982 1.8606 0.81161 7.1156-0.74617 5.7422 4.881v2.7617"/><path d="m386.25 210.33c-0.37548 2.523-2.4336 4.7763-4.6005 5.831 8.7655-0.91558 0.7925 9.9036-2.6797 3.042 3.669-2.3134-2.3893-8.1974 3.8076-9.0098 1.1446 0.22869 2.3122 0.10774 3.4726 0.1367m-5.4688 8.709c4.9664 3.9999 3.8915-4.0218 4e-5 0m0.75196-6.2207c2.0685 4.4297 2.0196-4.5801 0 0z"/><path d="m387.58 208.34c2.7983-4.1148 2.8462 4.016 0 0zm2.1738 9.6182c-3.7041 0.93546-1.4916-4.0456-2.085-6.2208 0.68335-3.9299 3.2241 0.61241 2.085 3.0217v3.1991z"/><path d="m398.56 217.95c-4.2714 1.1939-0.35329-5.049-3.1309-6.1182-2.9895 0.51874 0.3331 8.382-3.5 5.6738 0.57611-2.1195-1.1676-6.5589 0.88869-7.1982 1.8606 0.81161 7.1156-0.74617 5.7422 4.881v2.7617"/><path d="m403.8 211.65c-5.122 2.4709 5.0248 2.0878-3e-5 0m0.26661 6.4395c-10.819-2.5728 4.3906-13.294 2.5703-3.4385-5.6393-1.1398-3.6665 2.7245 7e-3 1.7295 0.55594 1.7352-1.4058 1.6161-2.5771 1.709"/><path d="m338.92 248.97c-0.68137-1.3534-2.5312-8.8852-2.1095-4.2676 0.66314 3.4358-1.1813 6.0499-0.83984 1.1572-0.91881-2.7057 1.1267-6.2741 2.0734-1.9284 0.85269 4.0861 1.7687 3.9247 2.6273-0.0573 1.3148-4.5476 2.8104-0.19233 2.0571 2.4009 0.35026 4.7069-1.6691 1.6864-0.9082-1.3039 0.45526-5.0426-1.3084 2.1391-2.0243 3.6309 0.0806 0.6478-0.55733 0.28293-0.87586 0.36821"/><path d="m347.58 248.97c-1.0509 0.52963-6.243-1.901-1.1328-3.1983 3.3417-1.3159-5.8156-1.9463 0.69828-2.1582 1.3177 0.19222 1.6965 5.4502 0.43457 5.3564m-1.6309-0.62012c5.3734-2.6304-3.579-2.5858 3e-5 3e-5"/><path d="m352.19 243.51c0.52712 0.29468-2.1569 3.7036-1.875 5.459-0.88702-0.30101-0.67409-7.5766 0.38575-4.3799 0.3342-0.48203 0.78378-1.1162 1.4893-1.0791"/><path d="m354.84 248.97c-0.75288-1.4275-2.5502-7.7748-0.50027-4.0938 0.86068 4.1233 1.3788 3.3538 2.2576-0.39661 2.1794-2.8063-0.18065 3.2214-0.62943 4.4904h-1.1279z"/><path d="m360.76 249.07c-7.6875-2.9007 4.276-8.0212 0.99119-2.6074-5.5193-0.16386 1.0531 1.9854 0.26369 2.4121-0.40016 0.1485-0.83038 0.19813-1.2549 0.1953m-0.21973-4.8193c-4.7999 2.1939 4.5527 2.0478-4e-5 0"/><path d="m364.88 248.97c-1.9727-0.84153-0.36972-5.2586-0.88867-7.5539 1.9455 0.53159 0.38916 4.9425 0.88867 7.0658v0.48815z"/><path d="m373.56 246.28c-5.8092 10.919-5.8029-10.621 0 0zm-3.75 0c3.5055 7.5193 2.8563-7.1739 0 0z"/><path d="m377.3 244.28c-2.4978-1.074-0.30591 7.1379-2.0898 3.8037 0.48123-3.5094-1.3294-3.4385 0.10742-5.8349 4.1189-2.0775 0.3438 0.17932 1.2305 1.3623 0.69029-0.0382 0.90212-0.13191 0.75193 0.66895"/><path d="m382.49 248.34c1.8931 1.6592-3.3564-0.37086-1.5527-3.1742-1.1432-2.0055 0.60401-3.1943 2.2412-1.5576-1.4353 0.51887-2.1494 2.7265-0.68848 4.7314"/><path d="m386.39 249.07c-7.6875-2.9007 4.276-8.0212 0.99119-2.6074-5.5193-0.16386 1.0531 1.9854 0.26369 2.4121-0.40016 0.1485-0.83038 0.19813-1.2549 0.1953m-0.21973-4.8193c-4.7999 2.1939 4.5527 2.0478-4e-5 0"/><path d="m391.67 249.07c-6.4326-0.95464 1.7676-7.9991 0.5957-4.6924-5.2745 0.66955 1.1804 4.7146 0.13672 4.6191l-0.73242 0.0732"/><path d="m397.6 248.97c1.3427-4.6473-3.466-6.0084-2.461-0.55659-1.5959 1.5384-0.63395-4.4362-0.88867-6.1086 1.3942-2.7696-0.28426 4.2862 3.2238 1.3234 1.1991 0.47971 1.7975 5.6349 0.12574 5.3418"/><path d="m403.63 248.97c-1.785 0.46568-0.97745-7.6852 0-4.4726v4.4726zm-0.95703-6.8115c1.2918-2.0512 1.1474 1.9606-5e-5 -3e-5"/><path d="m408.55 247.5c-1.5866 3.1774-5.8497 0.13405-0.93261 0.39072-3.4269-1.3784-1.979-6.4984 0.55669-3.291-5.1966-0.66438-0.274 1.2149 0.37596 2.9004"/><path d="m414.5 249.07c-6.4326-0.95463 1.7676-7.9991 0.59571-4.6924-5.2745 0.66953 1.1804 4.7146 0.13671 4.6191l-0.73242 0.0732"/><path d="m421.45 246.28c-5.8092 10.919-5.8029-10.621 0 0zm-3.75 0c3.5055 7.5193 2.8563-7.1739 0 0z"/><path d="m429.28 248.97c1.3101-4.429-3.235-6.1473-2.3193-0.73725-1.1697 2.9541-1.0419-8.4415-3.2129-2.0411 0.2974 5.0178-1.5878 1.2919-0.88867-1.6651 0.26379-1.9394 3.5685 0.58186 5.5908-1.0155 2.1307-0.57282 2.4778 5.8517 0.83008 5.459"/><path d="m438.25 248.97c1.3102-4.429-3.235-6.1473-2.3194-0.73725-1.1697 2.9541-1.0419-8.4415-3.2129-2.0411 0.2974 5.0178-1.5878 1.2919-0.88867-1.6651 0.26379-1.9394 3.5685 0.58187 5.5908-1.0155 2.1307-0.57282 2.4778 5.8517 0.83008 5.459"/><path d="m441.68 248.97c-1.785 0.46568-0.97745-7.6852 0-4.4726v4.4726zm-0.95703-6.8115c1.2918-2.0512 1.1474 1.9606-5e-5 -3e-5"/><path d="m446.74 248.97c1.3427-4.6473-3.466-6.0084-2.461-0.55659-1.0319 2.1185-1.678-4.9377-0.16601-4.8047 1.8594-0.47119 4.6569 1.6382 3.5156 5.3614h-0.88867"/><path d="m453.42 243.61c-0.26246 1.5841-2.454 3.0306-3.1055 4.3994 7.9278 0.13276-3.4395 6.6466-0.97165 0.70807 0.61906-2.0793-1.8471-6.299 4.0771-5.1074m-3.96 6.2402c4.9428 4.0579 2.8733-4.5223 8e-5 8e-5m0.44922-4.5166c2.5482 4.0882 2.0884-4.0697 0 0z"/><path d="m456.26 243.61c2.1735-0.89543 1.8804 6.746 2.7734 3.374 0.39085-3.4828 2.9939-4.48 0.98981-0.43797 0.7143 2.803-5.045 6.0961-2.689 4.0366 2.2196-1.703-0.80164-4.8514-1.0742-6.9727"/><path d="m466.31 246.28c-5.8092 10.919-5.8029-10.621 0 0zm-3.75 0c3.5055 7.5193 2.8563-7.1739 0 0z"/><path d="m471.2 248.97c-1.8815 0.48252-4.6541-1.6461-3.5205-5.3614 0.98998 0.62467 1.8694 8.2906 3.3496 2.3389 3e-3 -5.0419 1.5135 0.18566 0.88867 2.5489 0.3328 0.72991-0.38103 0.41317-0.71777 0.47353"/><path d="m475.94 243.51c0.52712 0.29468-2.1569 3.7036-1.875 5.459-0.88702-0.30101-0.67409-7.5766 0.38575-4.3799 0.3342-0.48203 0.78378-1.1162 1.4893-1.0791"/><path d="m484.28 248.97c-0.66552-1.8869-1.2053-6.7164-1.8225-2.1327-0.93825 4.8067-2.6309-0.33768-2.8415-2.6025 1.0474-3.054 1.5337 5.5528 1.9199 3.2606 0.0554-2.879 2.3472-5.8633 2.7548-1.318 0.85653 4.8401 0.50862-1.9928 1.9621-2.5688 0.56297 0.16958-0.34135 6.0793-1.9727 5.3613"/><path d="m490.69 248.97c-1.0509 0.52962-6.243-1.901-1.1329-3.1983 3.3417-1.3159-5.8156-1.9463 0.69829-2.1582 1.3177 0.19222 1.6965 5.4501 0.43457 5.3564m-1.6309-0.62012c5.3734-2.6304-3.579-2.5858 3e-5 3e-5"/><path d="m492.18 243.61c2.1735-0.89545 1.8804 6.746 2.7734 3.374 0.39082-3.4828 2.9939-4.48 0.98981-0.43797 0.7143 2.803-5.045 6.0961-2.689 4.0366 2.2196-1.703-0.80165-4.8514-1.0742-6.9727"/><path d="m497.73 248.43c1.5568-2.69 1.5239 2.6306 0 0z"/><path d="m508.6 248.97c-2.4891-0.26666-2.9124-4.1637-4.5606-5.9082 0.39971 1.6022-0.14052 8.8697-0.78614 4.1308 0.0556-1.6508-0.67231-7.7628 1.7214-4.2155 0.98818 1.1622 3.3868 7.1297 2.7753 2.7605-0.62911-4.0692 1.3774-4.8664 0.84961-0.35148v3.5839"/><path d="m514.79 246.28c-5.8092 10.919-5.8029-10.621 0 0zm-3.75 0c3.5055 7.5193 2.8563-7.1739 0 0z"/><path d="m342.27 261.47c1.3101-4.429-3.235-6.1473-2.3193-0.73725-1.1697 2.9541-1.0419-8.4415-3.2129-2.0411 0.2974 5.0178-1.5878 1.2919-0.88867-1.6651 0.26379-1.9394 3.5685 0.58186 5.5908-1.0155 2.1307-0.57282 2.4778 5.8517 0.83008 5.459"/><path d="m349.18 258.78c-5.8092 10.919-5.8029-10.621 0 0zm-3.75 0c3.5055 7.5193 2.8563-7.1739 0 0z"/><path d="m352.92 256.01c0.52718 0.29493-2.1571 3.7036-1.8751 5.459-0.88702-0.30101-0.6741-7.5766 0.38576-4.3799 0.3342-0.48203 0.78379-1.1162 1.4893-1.0791"/><path d="m356.7 261.57c-7.6875-2.9007 4.276-8.0212 0.99119-2.6074-5.5193-0.16386 1.0531 1.9854 0.26369 2.4121-0.40016 0.1485-0.83038 0.19813-1.2549 0.1953m-0.21973-4.8193c-4.7999 2.1939 4.5527 2.0478-4e-5 0"/><path d="m366.6 261.47c-0.66552-1.8869-1.2053-6.7164-1.8225-2.1327-0.93826 4.8067-2.6309-0.33767-2.8415-2.6025 1.0474-3.054 1.5337 5.5528 1.9199 3.2606 0.0554-2.879 2.3472-5.8633 2.7548-1.318 0.85653 4.8401 0.50862-1.9928 1.9621-2.5688 0.56297 0.16958-0.34135 6.0793-1.9727 5.3613"/><path d="m372.31 256.01c0.52713 0.29492-2.1569 3.7036-1.875 5.459-0.88704-0.30099-0.6741-7.5766 0.38575-4.3799 0.3342-0.48203 0.78379-1.1162 1.4893-1.0791"/><path d="m376.09 261.57c-7.6875-2.9007 4.276-8.0212 0.99119-2.6074-5.5193-0.16386 1.0531 1.9854 0.26369 2.4121-0.40016 0.1485-0.83038 0.19813-1.2549 0.1953m-0.21973-4.8193c-4.7999 2.1939 4.5527 2.0478-4e-5 0"/><path d="m382.53 260c-1.5866 3.1774-5.8497 0.13405-0.93262 0.39072-3.4269-1.3784-1.979-6.4984 0.55669-3.291-5.1966-0.66437-0.27399 1.2149 0.37597 2.9004"/><path d="m385.46 260.84c1.8931 1.6592-3.3564-0.37068-1.5527-3.1741-1.1432-2.0055 0.60401-3.1943 2.2412-1.5576-1.4353 0.51887-2.1494 2.7265-0.68848 4.7314"/><path d="m388.12 261.47c-1.9727-0.84153-0.36972-5.2586-0.88867-7.5539 1.9455 0.53159 0.38916 4.9425 0.88867 7.0658v0.48815z"/><path d="m390.72 261.47c-1.785 0.4657-0.97746-7.6852 0-4.4726v4.4726zm-0.95704-6.8115c1.2918-2.0512 1.1475 1.9606-4e-5 -3e-5"/><path d="m395.78 261.47c1.3427-4.6473-3.466-6.0084-2.461-0.55659-1.0319 2.1185-1.678-4.9377-0.16601-4.8047 1.8594-0.4712 4.6569 1.6382 3.5156 5.3614h-0.88867"/><path d="m402.46 256.11c-0.26246 1.5841-2.4541 3.0306-3.1055 4.3994 7.9278 0.13276-3.4395 6.6466-0.97165 0.70807 0.61904-2.0793-1.847-6.2989 4.0771-5.1074m-3.96 6.2402c4.9428 4.0579 2.8733-4.5223 7e-5 8e-5m0.44922-4.5166c2.5482 4.0882 2.0884-4.0697 0 0z"/><path d="m410.18 261.47c-0.6655-1.8869-1.2053-6.7164-1.8225-2.1327-0.93826 4.8067-2.6309-0.33767-2.8415-2.6025 1.0475-3.054 1.5336 5.5528 1.9198 3.2606 0.0554-2.879 2.3472-5.8633 2.7548-1.318 0.85653 4.8401 0.50863-1.9928 1.9621-2.5688 0.56294 0.16961-0.34134 6.0793-1.9727 5.3613"/><path d="m414.45 261.47c-1.785 0.46568-0.97745-7.6852 0-4.4726v4.4726zm-0.95703-6.8115c1.2918-2.0512 1.1475 1.9606-4e-5 -3e-5"/><path d="m417.78 260.84c1.8931 1.6592-3.3564-0.37068-1.5527-3.1741-1.1432-2.0055 0.60401-3.1943 2.2412-1.5576-1.4353 0.51887-2.1494 2.7265-0.68848 4.7314"/><path d="m422.91 261.47c1.3427-4.6473-3.466-6.0084-2.461-0.55659-1.5959 1.5384-0.63395-4.4362-0.88867-6.1086 1.3942-2.7696-0.28426 4.2862 3.2238 1.3234 1.1991 0.47971 1.7975 5.6349 0.12574 5.3418"/><path d="m432.19 256.11c-0.26246 1.5841-2.4541 3.0306-3.1055 4.3994 7.9278 0.13276-3.4395 6.6466-0.97164 0.70807 0.61906-2.0792-1.8471-6.299 4.0771-5.1074m-3.96 6.2402c4.9427 4.0578 2.8734-4.5222-2e-5 8e-5m0.44922-4.5166c2.5482 4.0882 2.0884-4.0697 0 0z"/><path d="m434.85 260.84c1.8931 1.6592-3.3564-0.37069-1.5527-3.1741-1.1432-2.0055 0.60402-3.1943 2.2412-1.5576-1.4353 0.51886-2.1494 2.7266-0.68847 4.7314"/><path d="m437.45 258.7c1.4726-2.8004 4.4412-3.3895 1.1621-0.27344 2.7898 2.8596 1.3183 4.2511-0.57129 0.58105-0.99172 4.2962-1.7391 1.1256-1.4111-1.9825-0.54578-4.6616 1.5918-2.7544 0.85311 0.77573 0.19721 0.10334-0.27228 0.83572-0.0328 0.89918z"/><path d="m443.91 256.01c0.52713 0.29492-2.1569 3.7036-1.875 5.459-0.88702-0.30101-0.67409-7.5766 0.38575-4.3799 0.3342-0.48203 0.78378-1.1162 1.4893-1.0791"/><path d="m447.63 261.57c-6.4326-0.95463 1.7676-7.9991 0.59571-4.6924-5.2745 0.66953 1.1804 4.7146 0.13671 4.6191l-0.73242 0.0732"/><path d="m456.01 260c-1.5866 3.1774-5.8497 0.13405-0.93262 0.39072-3.4269-1.3784-1.979-6.4984 0.5567-3.291-5.1966-0.66438-0.27401 1.2149 0.37596 2.9004"/><path d="m456.51 256.11c2.1735-0.89544 1.8804 6.746 2.7734 3.374 0.39082-3.4828 2.9939-4.48 0.98981-0.43797 0.7143 2.803-5.045 6.0961-2.689 4.0366 2.2196-1.703-0.80165-4.8514-1.0742-6.9727"/><path d="m465.55 261.47c1.3427-4.6473-3.466-6.0084-2.461-0.55659-1.0319 2.1185-1.678-4.9377-0.16602-4.8047 1.8594-0.47119 4.6569 1.6382 3.5156 5.3614h-0.88868"/><path d="m469.72 260.84c1.8931 1.6592-3.3564-0.37068-1.5527-3.1741-1.1432-2.0055 0.60402-3.1943 2.2412-1.5576-1.4353 0.51886-2.1494 2.7266-0.68847 4.7314"/><path d="m474.52 261.47c-1.0509 0.52963-6.243-1.901-1.1328-3.1983 3.3416-1.3159-5.8158-1.9463 0.69819-2.1582 1.3177 0.19221 1.6965 5.4502 0.43457 5.3564m-1.6309-0.62012c5.3734-2.6304-3.579-2.5858 2e-5 3e-5"/><path d="m477.95 258.72c-2.9032-4.322-0.23331-1.0689 0.97047-1.3691 3.4692-3.4162-1.3224 1.4918 1.017 2.8508 1.5784 3.9265-2.3404-3.5753-2.7981 1.2673-2.4105 0.64621 0.74704-2.032 0.81055-2.749z"/><path d="m486.03 260.84c1.8931 1.6592-3.3564-0.37068-1.5527-3.1741-1.1432-2.0055 0.60401-3.1943 2.2412-1.5576-1.4353 0.51887-2.1494 2.7265-0.68848 4.7314"/><path d="m491.15 261.47c1.3427-4.6473-3.466-6.0084-2.461-0.55659-1.5959 1.5384-0.63396-4.4362-0.88868-6.1086 1.3942-2.7696-0.28425 4.2862 3.2238 1.3234 1.1991 0.47972 1.7975 5.6349 0.12573 5.3418"/><path d="m496.72 261.47c-1.0509 0.52963-6.243-1.901-1.1328-3.1983 3.3417-1.3159-5.8156-1.9463 0.69828-2.1582 1.3177 0.19221 1.6965 5.4502 0.43457 5.3564m-1.6309-0.62012c5.3734-2.6304-3.579-2.5858 2e-5 3e-5"/><path d="m500.63 260.84c1.8931 1.6592-3.3564-0.37069-1.5527-3.1741-1.1432-2.0055 0.60402-3.1943 2.2412-1.5576-1.4353 0.51886-2.1494 2.7266-0.68847 4.7314"/><path d="m505.9 261.47c-1.785 0.46568-0.97745-7.6852 0-4.4726v4.4726zm-0.95703-6.8115c1.2918-2.0512 1.1474 1.9606-5e-5 -3e-5"/><path d="m510.82 260c-1.5866 3.1774-5.8497 0.13405-0.93262 0.39072-3.4269-1.3784-1.979-6.4984 0.55669-3.291-5.1966-0.66437-0.27399 1.2149 0.37597 2.9004"/><path d="m515.47 261.47c1.3427-4.6473-3.466-6.0084-2.461-0.55659-1.0319 2.1185-1.678-4.9377-0.16601-4.8047 1.8594-0.4712 4.6569 1.6382 3.5156 5.3614h-0.88867"/><path d="m518.58 254.33c0.58706 4.6165-2.4576 0.70142 0 0z"/><path d="m521.9 260.84c1.8931 1.6592-3.3564-0.37068-1.5527-3.1741-1.1432-2.0055 0.60402-3.1943 2.2412-1.5576-1.4353 0.51886-2.1494 2.7266-0.68847 4.7314"/><path d="m339.32 273.97c-1.8815 0.48252-4.6541-1.6461-3.5205-5.3614 0.98998 0.62467 1.8694 8.2906 3.3496 2.3389 3e-3 -5.0419 1.5135 0.18566 0.88867 2.5489 0.3328 0.72991-0.38103 0.41317-0.71777 0.47353"/><path d="m344.96 272.5c-1.5866 3.1774-5.8497 0.13405-0.93261 0.39072-3.4269-1.3784-1.979-6.4984 0.55669-3.291-5.1966-0.66438-0.274 1.2149 0.37596 2.9004"/><path d="m348.38 274.07c-7.6875-2.9007 4.276-8.0212 0.99119-2.6074-5.5193-0.16386 1.0531 1.9854 0.26369 2.4121-0.40016 0.1485-0.83038 0.19813-1.2549 0.1953m-0.21973-4.8193c-4.7999 2.1939 4.5527 2.0478-4e-5 0"/><path d="m353.94 269.28c-2.4978-1.074-0.30592 7.1379-2.0898 3.8037 0.48124-3.5094-1.3294-3.4385 0.10742-5.8349 4.1188-2.0775 0.34379 0.17932 1.2305 1.3623 0.69028-0.0382 0.90214-0.13192 0.75194 0.66895"/><path d="m358.38 273.97c-1.8815 0.48252-4.6541-1.6461-3.5205-5.3614 0.98998 0.62467 1.8694 8.2906 3.3496 2.3389 3e-3 -5.0419 1.5135 0.18566 0.88867 2.5489 0.3328 0.72991-0.38103 0.41317-0.71777 0.47353"/><path d="m361.7 273.97c-1.9727-0.84153-0.36972-5.2586-0.88867-7.5539 1.9455 0.53159 0.38916 4.9425 0.88867 7.0658v0.48815z"/><path d="m367.63 273.34c1.8931 1.6592-3.3564-0.37068-1.5527-3.1741-1.1432-2.0055 0.60401-3.1943 2.2412-1.5576-1.4353 0.51887-2.1494 2.7265-0.68848 4.7314"/><path d="m373.77 271.28c-5.8092 10.919-5.8029-10.621 0 0zm-3.75 0c3.5055 7.5193 2.8563-7.1739 0 0z"/><path d="m378.67 273.97c-1.9727-0.84153-0.36972-5.2586-0.88867-7.5539 1.9455 0.53159 0.38916 4.9425 0.88867 7.0658v0.48815z"/><path d="m382.5 274.07c-7.6875-2.9007 4.276-8.0212 0.99119-2.6074-5.5193-0.16386 1.0531 1.9854 0.26369 2.4121-0.40016 0.1485-0.83038 0.19813-1.2549 0.1953m-0.21973-4.8193c-4.7999 2.1939 4.5527 2.0478-4e-5 0"/><path d="m388.75 273.97c-1.0509 0.52963-6.243-1.901-1.1328-3.1983 3.3417-1.3159-5.8156-1.9463 0.69828-2.1582 1.3177 0.19221 1.6965 5.4502 0.43457 5.3564m-1.6309-0.62012c5.3734-2.6304-3.579-2.5858 2e-5 3e-5"/><path d="m393.36 268.51c0.52716 0.29494-2.1571 3.7036-1.8751 5.459-0.88702-0.30101-0.6741-7.5766 0.38576-4.3799 0.3342-0.48203 0.78379-1.1162 1.4893-1.0791"/><path d="m398.38 273.97c1.3427-4.6473-3.466-6.0084-2.461-0.55659-1.0319 2.1185-1.678-4.9377-0.16602-4.8047 1.8594-0.47119 4.6569 1.6382 3.5156 5.3614h-0.88867"/><path d="m406.55 273.97c-1.0509 0.52963-6.243-1.901-1.1328-3.1983 3.3416-1.3159-5.8158-1.9463 0.69819-2.1582 1.3177 0.19221 1.6965 5.4502 0.43457 5.3564m-1.6309-0.62012c5.3734-2.6304-3.579-2.5858 2e-5 3e-5"/><path d="m411.26 274.07c-2.7591-3.1065-0.97748 5.4083-2.4217 0.97163 0.27175-1.4913-0.71848-7.7292 0.84961-5.708 3.2252-3.4822 5.494 4.4842 1.5723 4.7363m-0.1709-4.8193c-4.5564 1.9656 3.0612 7.2846 0.97659 0.50293l-0.39795-0.37719-0.57861-0.12574"/><path d="m417.72 273.97c-1.0509 0.52962-6.243-1.901-1.1329-3.1983 3.3417-1.3159-5.8156-1.9463 0.69829-2.1582 1.3177 0.19222 1.6965 5.4501 0.43457 5.3564m-1.6309-0.62012c5.3734-2.6304-3.579-2.5858 3e-5 3e-5"/><path d="m422.33 268.51c0.52713 0.29492-2.1569 3.7036-1.875 5.459-0.88702-0.30101-0.67409-7.5766 0.38575-4.3799 0.3342-0.48203 0.78378-1.1162 1.4893-1.0791"/><path d="m425.62 273.34c1.8931 1.6592-3.3564-0.37068-1.5527-3.1741-1.1432-2.0055 0.60401-3.1943 2.2412-1.5576-1.4353 0.51887-2.1494 2.7265-0.68848 4.7314"/><path d="m432.32 269.28c-2.4978-1.074-0.30592 7.1379-2.0898 3.8037 0.48123-3.5094-1.3294-3.4385 0.10742-5.8349 4.1189-2.0775 0.34379 0.17932 1.2305 1.3623 0.69028-0.0382 0.90214-0.13192 0.75194 0.66895"/><path d="m435.61 268.51c0.52713 0.29492-2.1569 3.7036-1.875 5.459-0.88702-0.30101-0.67409-7.5766 0.38575-4.3799 0.3342-0.48203 0.78378-1.1162 1.4893-1.0791"/><path d="m441.65 271.28c-5.8092 10.919-5.8029-10.621 0 0zm-3.75 0c3.5055 7.5193 2.8563-7.1739 0 0z"/><path d="m449.48 273.97c1.3101-4.429-3.2349-6.1473-2.3193-0.73725-1.1697 2.9541-1.0419-8.4415-3.2129-2.0411 0.2974 5.0178-1.5878 1.2919-0.88867-1.6651 0.26379-1.9394 3.5685 0.58186 5.5908-1.0155 2.1307-0.57282 2.4778 5.8517 0.83008 5.459"/><path d="m456.24 273.34c1.8931 1.6592-3.3564-0.37068-1.5527-3.1741-1.1432-2.0055 0.60401-3.1943 2.2412-1.5576-1.4353 0.51887-2.1494 2.7265-0.68848 4.7314"/><path d="m461.37 273.97c1.3427-4.6473-3.466-6.0084-2.461-0.55659-1.5959 1.5384-0.63395-4.4362-0.88867-6.1086 1.3942-2.7696-0.28427 4.2862 3.2238 1.3234 1.1991 0.47971 1.7975 5.6349 0.12574 5.3418"/><path d="m466.04 274.07c-7.6875-2.9007 4.276-8.0212 0.99119-2.6074-5.5193-0.16386 1.0531 1.9854 0.26369 2.4121-0.40016 0.1485-0.83038 0.19813-1.2549 0.1953m-0.21973-4.8193c-4.7999 2.1939 4.5527 2.0478-4e-5 0"/><path d="m476.24 271.28c-5.8092 10.919-5.8029-10.621 0 0zm-3.75 0c3.5055 7.5193 2.8563-7.1739 0 0z"/><path d="m481 273.97c1.3427-4.6473-3.466-6.0084-2.461-0.55659-1.0319 2.1185-1.678-4.9377-0.16602-4.8047 1.8594-0.4712 4.6569 1.6382 3.5156 5.3614h-0.88868"/><path d="m485.66 274.07c-7.6875-2.9007 4.276-8.0212 0.9912-2.6074-5.5193-0.16386 1.0531 1.9854 0.26369 2.4121-0.40017 0.14849-0.83038 0.19814-1.2549 0.1953m-0.21972-4.8193c-4.7999 2.1939 4.5527 2.0478-4e-5 0"/><path d="m493.12 273.34c1.8931 1.6592-3.3564-0.37068-1.5527-3.1741-1.1432-2.0055 0.60401-3.1943 2.2412-1.5576-1.4353 0.51887-2.1494 2.7265-0.68848 4.7314"/><path d="m495.78 273.97c-1.785 0.46568-0.97745-7.6852 0-4.4726v4.4726zm-0.95703-6.8115c1.2918-2.0512 1.1474 1.9606-5e-5 -3e-5"/><path d="m503.91 273.97c1.3101-4.429-3.2349-6.1473-2.3193-0.73725-1.1698 2.9541-1.0419-8.4415-3.2129-2.0411 0.2974 5.0178-1.5879 1.2919-0.88868-1.6651 0.26379-1.9394 3.5685 0.58186 5.5908-1.0155 2.1307-0.57282 2.4778 5.8517 0.83008 5.459"/><path d="m508.57 274.07c-7.6875-2.9007 4.276-8.0212 0.99119-2.6074-5.5193-0.16386 1.0531 1.9854 0.26369 2.4121-0.40016 0.1485-0.83038 0.19813-1.2549 0.1953m-0.21973-4.8193c-4.7999 2.1939 4.5527 2.0478-4e-5 0"/><path d="m335.05 281.11c2.1735-0.89543 1.8804 6.746 2.7734 3.374 0.39082-3.4828 2.9939-4.48 0.98981-0.43797 0.7143 2.803-5.045 6.0961-2.689 4.0366 2.2196-1.703-0.80164-4.8514-1.0742-6.9727"/><path d="m345.1 283.78c-5.8092 10.919-5.8029-10.621 0 0zm-3.75 0c3.5055 7.5193 2.8563-7.1739 0 0z"/><path d="m349.99 286.47c-1.8815 0.48252-4.6541-1.6461-3.5205-5.3614 0.99 0.62465 1.8694 8.2906 3.3496 2.3389 3e-3 -5.0419 1.5135 0.18566 0.88867 2.5489 0.3328 0.72991-0.38103 0.41317-0.71777 0.47353"/><path d="m358.03 286.47c-1.0509 0.52962-6.243-1.901-1.1329-3.1983 3.3417-1.316-5.8156-1.9462 0.69829-2.1581 1.3177 0.19222 1.6965 5.4501 0.43457 5.3564zm-1.6309-0.62012c5.3734-2.6304-3.579-2.5858 3e-5 3e-5"/><path d="m362.64 281.01c0.52713 0.29492-2.1569 3.7036-1.875 5.459-0.88702-0.30101-0.67409-7.5766 0.38575-4.3799 0.3342-0.48203 0.78378-1.1162 1.4893-1.0791"/><path d="m366.43 286.57c-7.6875-2.9007 4.276-8.0212 0.99119-2.6074-5.5193-0.16386 1.0532 1.9854 0.26369 2.4121-0.40016 0.1485-0.83038 0.19814-1.2549 0.1953m-0.21973-4.8193c-4.7998 2.1939 4.5527 2.0478-4e-5 0"/><path d="m375.57 285.75c-5.0454 3.4599-3.7499-7.3126-0.01-4.2773-0.23991-4.8512 1.5426-0.94678 0.85918 1.8409-0.0518 0.72916 0.3648 5.1472-0.84961 2.4364m-1.4014 0.0781c4.5506-1.9767-3.069-7.2765-0.98148-0.49804l0.40161 0.37353 0.57984 0.12451"/><path d="m380.23 286.57c-7.6875-2.9007 4.276-8.0212 0.9912-2.6074-5.5193-0.16386 1.0531 1.9854 0.26369 2.4121-0.40017 0.1485-0.83038 0.19814-1.2549 0.1953m-0.21972-4.8193c-4.7999 2.1939 4.5527 2.0478-4e-5 0"/><path d="m386.67 285c-1.5866 3.1774-5.8497 0.13405-0.93261 0.39072-3.4269-1.3784-1.979-6.4984 0.55669-3.291-5.1966-0.66438-0.274 1.2149 0.37596 2.9004"/><path d="m388.87 286.47c-1.785 0.46568-0.97745-7.6852 0-4.4726v4.4726zm-0.95703-6.8115c1.2918-2.0512 1.1474 1.9606-5e-5 -3e-5"/><path d="m394.71 281.11c-0.26246 1.5841-2.454 3.0306-3.1055 4.3994 7.9278 0.13275-3.4395 6.6466-0.97164 0.70807 0.61906-2.0792-1.8471-6.299 4.0771-5.1074m-3.96 6.2402c4.9427 4.0578 2.8734-4.5222-2e-5 8e-5m0.44922-4.5166c2.5482 4.0882 2.0884-4.0697 0 0z"/><path d="m399.1 286.47c1.3427-4.6473-3.466-6.0084-2.461-0.55659-1.0319 2.1185-1.678-4.9377-0.16601-4.8047 1.8594-0.47119 4.6569 1.6382 3.5156 5.3614h-0.88867"/><path d="m402.54 286.47c-1.785 0.46568-0.97745-7.6852 0-4.4726v4.4726zm-0.95703-6.8115c1.2918-2.0512 1.1474 1.9606-5e-5 -3e-5"/><path d="m407.6 286.47c1.3427-4.6473-3.466-6.0084-2.461-0.55659-1.0319 2.1185-1.678-4.9377-0.16602-4.8047 1.8594-0.47119 4.6569 1.6382 3.5156 5.3614h-0.88867"/><path d="m414.28 281.11c-0.26246 1.5841-2.4541 3.0306-3.1055 4.3994 7.9278 0.13276-3.4395 6.6466-0.97163 0.70807 0.61903-2.0793-1.8471-6.2989 4.0771-5.1074m-3.96 6.2402c4.9427 4.0578 2.8734-4.5222-3e-5 8e-5m0.44922-4.5166c2.5482 4.0882 2.0884-4.0697 0 0z"/><path d="m420.94 286.47c-1.0509 0.52963-6.243-1.901-1.1328-3.1983 3.3417-1.3159-5.8156-1.9463 0.69828-2.1582 1.3177 0.19221 1.6965 5.4502 0.43457 5.3564m-1.6309-0.62012c5.3735-2.6305-3.5791-2.5855 2e-5 1.3e-4"/><path d="m429.96 281.11c-0.26246 1.5841-2.4541 3.0306-3.1055 4.3994 7.9278 0.13276-3.4395 6.6466-0.97165 0.70807 0.61904-2.0793-1.847-6.2989 4.0771-5.1074m-3.96 6.2402c4.9428 4.0579 2.8733-4.5223 7e-5 8e-5m0.44922-4.5166c2.5482 4.0882 2.0884-4.0697 0 0z"/><path d="m432.63 285.84c1.8931 1.6592-3.3564-0.37068-1.5527-3.1741-1.1432-2.0055 0.60401-3.1943 2.2412-1.5576-1.4353 0.51887-2.1494 2.7265-0.68848 4.7314"/><path d="m435.22 283.7c1.4726-2.8004 4.4412-3.3895 1.1621-0.27344 2.7898 2.8596 1.3183 4.2511-0.57129 0.58105-0.99174 4.2962-1.7391 1.1256-1.4111-1.9825-0.54577-4.6616 1.5918-2.7544 0.8531 0.77573 0.19721 0.10334-0.27228 0.83572-0.0328 0.89918"/><path d="m443.58 285.84c1.8931 1.6592-3.3564-0.37068-1.5527-3.1741-1.1432-2.0055 0.60401-3.1943 2.2412-1.5576-1.4353 0.51887-2.1494 2.7265-0.68848 4.7314"/><path d="m448.71 286.47c1.3427-4.6473-3.466-6.0084-2.461-0.55659-1.5959 1.5384-0.63395-4.4362-0.88867-6.1086 1.3942-2.7696-0.28427 4.2862 3.2238 1.3234 1.1991 0.47971 1.7975 5.6349 0.12574 5.3418"/><path d="m453.38 286.57c-7.6875-2.9007 4.276-8.0212 0.99119-2.6074-5.5193-0.16386 1.0531 1.9854 0.26369 2.4121-0.40016 0.1485-0.83038 0.19813-1.2549 0.1953m-0.21973-4.8193c-4.7999 2.1939 4.5527 2.0478-4e-5 0"/><path d="m463.03 286.47c1.3101-4.429-3.235-6.1473-2.3193-0.73725-1.1697 2.9541-1.0419-8.4415-3.2129-2.0411 0.2974 5.0178-1.5878 1.2919-0.88867-1.6651 0.26379-1.9394 3.5685 0.58186 5.5908-1.0155 2.1307-0.57282 2.4778 5.8517 0.83008 5.459"/><path d="m467.7 286.57c-7.6875-2.9007 4.276-8.0212 0.9912-2.6074-5.5193-0.16386 1.0531 1.9854 0.26369 2.4121-0.40017 0.14849-0.83038 0.19814-1.2549 0.1953m-0.21972-4.8193c-4.7999 2.1939 4.5527 2.0478-4e-5 0"/><path d="m470.8 285.93c1.5568-2.69 1.5239 2.6306 0 0z"/><path d="m339.73 309.56c-1.0094 4.0916-7.3907 0.23127-1.2695 0.92779 0.44259-2.0834-6.4382-6.222 0.32236-6.1475 2.0837 0.79339-5.7194 1.7937-0.0684 3.5303 0.63292 0.29665 1.0642 0.98424 1.0156 1.6894"/><path d="m341.93 311.47c-1.785 0.46568-0.97745-7.6852 0-4.4726v4.4726zm-0.95703-6.8115c1.2918-2.0512 1.1475 1.9606-4e-5 -3e-5"/><path d="m350.06 311.47c1.3101-4.429-3.235-6.1473-2.3193-0.73725-1.1697 2.9541-1.0419-8.4415-3.2129-2.0411 0.2974 5.0178-1.5878 1.2919-0.88867-1.6651 0.26379-1.9394 3.5685 0.58186 5.5908-1.0155 2.1307-0.57282 2.4778 5.8517 0.83008 5.459"/><path d="m355.03 311.57c-2.7591-3.1065-0.97748 5.4083-2.4217 0.97163 0.27175-1.4913-0.71848-7.7292 0.84961-5.708 3.2252-3.4822 5.494 4.4842 1.5723 4.7363m-0.1709-4.8193c-4.5564 1.9656 3.0612 7.2846 0.97659 0.50293l-0.39795-0.37719-0.57861-0.12574"/><path d="m359.36 311.47c-1.9727-0.84153-0.36972-5.2586-0.88867-7.5539 1.9455 0.53159 0.38916 4.9425 0.88867 7.0658v0.48815z"/><path d="m363.18 311.57c-7.6875-2.9007 4.276-8.0212 0.9912-2.6074-5.5193-0.16386 1.0531 1.9854 0.26369 2.4121-0.40017 0.14849-0.83038 0.19814-1.2549 0.1953m-0.21972-4.8193c-4.7999 2.1939 4.5527 2.0478-4e-5 0"/><path d="m372.22 310c-1.5866 3.1774-5.8497 0.13405-0.93262 0.39072-3.4269-1.3784-1.979-6.4984 0.55669-3.291-5.1966-0.66437-0.27399 1.2149 0.37597 2.9004"/><path d="m372.72 306.11c2.1735-0.89544 1.8804 6.746 2.7734 3.374 0.39082-3.4828 2.9939-4.48 0.98981-0.43797 0.7143 2.803-5.045 6.0961-2.689 4.0366 2.2196-1.703-0.80164-4.8514-1.0742-6.9727"/><path d="m380.03 310.84c1.8931 1.6592-3.3564-0.37068-1.5527-3.1741-1.1432-2.0055 0.60402-3.1943 2.2412-1.5576-1.4353 0.51886-2.1494 2.7266-0.68847 4.7314"/><path d="m384.83 311.47c-1.0509 0.52963-6.243-1.901-1.1328-3.1983 3.3416-1.3159-5.8158-1.9463 0.69819-2.1582 1.3177 0.19221 1.6965 5.4502 0.43457 5.3564m-1.6309-0.62012c5.3734-2.6304-3.579-2.5858 2e-5 3e-5"/><path d="m388.26 308.72c-2.9032-4.322-0.23331-1.0689 0.97047-1.3691 3.4692-3.4162-1.3224 1.4918 1.017 2.8508 1.5784 3.9265-2.3404-3.5753-2.7981 1.2673-2.4105 0.64621 0.74704-2.032 0.81055-2.749z"/><path d="m393.92 306.11c2.1735-0.89543 1.8804 6.746 2.7734 3.374 0.39085-3.4828 2.9939-4.48 0.98981-0.43797 0.7143 2.803-5.045 6.0961-2.689 4.0366 2.2196-1.703-0.80164-4.8514-1.0742-6.9727"/><path d="m403.97 308.78c-5.8092 10.919-5.8029-10.621 0 0zm-3.75 0c3.5055 7.5193 2.8563-7.1739 0 0z"/><path d="m408.85 311.47c-1.8815 0.48252-4.6541-1.6461-3.5205-5.3614 0.98998 0.62467 1.8694 8.2906 3.3496 2.3389 3e-3 -5.0419 1.5135 0.18566 0.88867 2.5489 0.3328 0.72991-0.38103 0.41317-0.71777 0.47353"/><path d="m416.9 311.47c-1.0509 0.52963-6.243-1.901-1.1328-3.1983 3.3417-1.3159-5.8156-1.9463 0.69828-2.1582 1.3177 0.19221 1.6965 5.4502 0.43457 5.3564m-1.6309-0.62012c5.3734-2.6304-3.579-2.5858 2e-5 3e-5"/><path d="m421.51 306.01c0.52718 0.29493-2.1571 3.7036-1.8751 5.459-0.88702-0.30101-0.6741-7.5766 0.38576-4.3799 0.3342-0.48203 0.78379-1.1162 1.4893-1.0791"/><path d="m425.29 311.57c-7.6875-2.9007 4.276-8.0212 0.99119-2.6074-5.5193-0.16386 1.0531 1.9854 0.26369 2.4121-0.40016 0.1485-0.83038 0.19813-1.2549 0.1953m-0.21973-4.8193c-4.7999 2.1939 4.5527 2.0478-4e-5 0"/><path d="m433.45 306.78c-2.4978-1.074-0.30592 7.1379-2.0898 3.8037 0.48124-3.5094-1.3294-3.4385 0.10743-5.8349 4.1188-2.0775 0.34379 0.17932 1.2305 1.3623 0.69028-0.0382 0.90214-0.13192 0.75194 0.66895"/><path d="m437.45 311.47c-1.0509 0.52963-6.243-1.901-1.1328-3.1983 3.3417-1.3159-5.8156-1.9463 0.69828-2.1582 1.3177 0.19222 1.6965 5.4502 0.43457 5.3564m-1.6309-0.62012c5.3734-2.6304-3.579-2.5858 3e-5 3e-5"/><path d="m446.16 311.47c1.3101-4.429-3.235-6.1473-2.3193-0.73725-1.1697 2.9541-1.0419-8.4415-3.2129-2.0411 0.2974 5.0178-1.5878 1.2919-0.88867-1.6651 0.26379-1.9394 3.5685 0.58186 5.5908-1.0155 2.1307-0.57282 2.4778 5.8517 0.83008 5.459"/><path d="m449.59 311.47c-1.785 0.46568-0.97745-7.6852 0-4.4726v4.4726zm-0.95703-6.8115c1.2918-2.0512 1.1475 1.9606-4e-5 -3e-5"/><path d="m452.19 311.47c-1.9727-0.84153-0.36972-5.2586-0.88867-7.5539 1.9455 0.53159 0.38916 4.9425 0.88867 7.0658v0.48815z"/><path d="m454.79 311.47c-1.785 0.4657-0.97746-7.6852 0-4.4726v4.4726zm-0.95704-6.8115c1.2918-2.0512 1.1475 1.9606-4e-5 -3e-5"/><path d="m459.52 311.47c-1.0509 0.52963-6.243-1.901-1.1328-3.1983 3.3416-1.3159-5.8158-1.9463 0.69819-2.1582 1.3177 0.19221 1.6965 5.4502 0.43457 5.3564m-1.6309-0.62012c5.3734-2.6304-3.579-2.5858 2e-5 3e-5"/><path d="m464.13 306.01c0.52716 0.29493-2.1571 3.7036-1.8751 5.459-0.88702-0.30101-0.6741-7.5766 0.38576-4.3799 0.3342-0.48203 0.78379-1.1162 1.4893-1.0791"/><path d="m472.46 311.47c-0.66553-1.8868-1.2053-6.7164-1.8225-2.1327-0.93827 4.8067-2.6309-0.33768-2.8415-2.6025 1.0474-3.054 1.5337 5.5528 1.9199 3.2606 0.0554-2.879 2.3472-5.8633 2.7548-1.318 0.85623 4.8401 0.50846-1.9928 1.9619-2.5688 0.56294 0.16961-0.34135 6.0792-1.9727 5.3613"/><path d="m476.74 311.47c-1.785 0.46568-0.97745-7.6852 0-4.4726v4.4726zm-0.95703-6.8115c1.2918-2.0512 1.1474 1.9606-5e-5 -3e-5"/><path d="m480.07 310.84c1.8931 1.6592-3.3564-0.37068-1.5527-3.1741-1.1432-2.0055 0.60402-3.1943 2.2412-1.5576-1.4353 0.51887-2.1494 2.7265-0.68848 4.7314"/><path d="m485.2 311.47c1.3427-4.6473-3.466-6.0084-2.461-0.55659-1.5959 1.5384-0.63395-4.4362-0.88867-6.1086 1.3942-2.7696-0.28426 4.2862 3.2238 1.3234 1.1991 0.47972 1.7975 5.6349 0.12573 5.3418"/><path d="m492.67 306.78c-2.4978-1.074-0.30592 7.1379-2.0898 3.8037 0.48124-3.5094-1.3294-3.4385 0.10743-5.8349 4.1188-2.0775 0.34379 0.17932 1.2305 1.3623 0.69028-0.0382 0.90214-0.13192 0.75194 0.66895"/><path d="m495.96 306.01c0.52719 0.29493-2.1571 3.7036-1.875 5.459-0.88701-0.30101-0.6741-7.5766 0.38576-4.3799 0.3342-0.48203 0.78378-1.1162 1.4893-1.0791"/><path d="m502 308.78c-5.8092 10.919-5.8029-10.621 0 0zm-3.75 0c3.5055 7.5193 2.8563-7.1739 0 0z"/><path d="m509.83 311.47c1.3101-4.429-3.2349-6.1473-2.3193-0.73725-1.1698 2.9541-1.0419-8.4415-3.2129-2.0411 0.2974 5.0178-1.5878 1.2919-0.88867-1.6651 0.26379-1.9394 3.5685 0.58186 5.5908-1.0155 2.1307-0.57282 2.4778 5.8517 0.83008 5.459"/><path d="m339.92 323.97c-0.66552-1.8869-1.2053-6.7164-1.8225-2.1327-0.93826 4.8067-2.6309-0.33768-2.8415-2.6025 1.0474-3.054 1.5337 5.5528 1.9199 3.2606 0.0554-2.879 2.3472-5.8633 2.7548-1.318 0.85653 4.8401 0.50862-1.9928 1.9621-2.5688 0.56294 0.16961-0.34135 6.0792-1.9727 5.3613"/><path d="m345.43 324.07c-7.6875-2.9007 4.276-8.0212 0.99119-2.6074-5.5193-0.16386 1.0531 1.9854 0.26369 2.4121-0.40016 0.1485-0.83038 0.19813-1.2549 0.1953m-0.21973-4.8193c-4.7999 2.1939 4.5527 2.0478-4e-5 0"/><path d="m351.08 318.51c5.8067 2.3463-1.758 7.5869-2.4219 4.5703 0.39352-1.6753-0.91267-7.4917 0.88867-6.2646 0.2063 1.1028-0.65382 3.4541 1.0058 1.7578l0.52734-0.0635m-0.17089 0.7373c-4.6187 2.0763 3.1042 7.212 0.97656 0.50293l-0.39795-0.37719z"/><path d="m360.43 323.25c-5.0454 3.4599-3.7499-7.3126-0.01-4.2773-0.23991-4.8512 1.5426-0.94678 0.85918 1.8409-0.0518 0.72916 0.3648 5.1472-0.84961 2.4364m-1.4014 0.0781c4.5506-1.9767-3.0691-7.2765-0.98149-0.49804l0.40161 0.37353 0.57984 0.12451"/><path d="m365.1 324.07c-7.6875-2.9007 4.276-8.0212 0.99119-2.6074-5.5193-0.16386 1.0531 1.9854 0.26369 2.4121-0.40016 0.1485-0.83038 0.19813-1.2549 0.1953m-0.21973-4.8193c-4.7999 2.1939 4.5527 2.0478-4e-5 0"/><path d="m371.54 322.5c-1.5866 3.1774-5.8497 0.13405-0.93262 0.39072-3.4269-1.3784-1.979-6.4984 0.55669-3.291-5.1966-0.66438-0.274 1.2149 0.37597 2.9004"/><path d="m373.73 323.97c-1.785 0.46568-0.97745-7.6852 0-4.4726v4.4726zm-0.95703-6.8115c1.2917-2.0512 1.1477 1.9606 5e-5 -3e-5"/><path d="m379.57 318.61c-0.26246 1.5841-2.454 3.0306-3.1055 4.3994 7.9278 0.13275-3.4395 6.6466-0.97164 0.70807 0.61905-2.0793-1.847-6.299 4.0771-5.1074m-3.96 6.2402c4.9427 4.0578 2.8734-4.5222-3e-5 8e-5m0.44922-4.5166c2.5482 4.0882 2.0884-4.0697 0 0z"/><path d="m383.96 323.97c1.3427-4.6473-3.466-6.0084-2.461-0.55659-1.0319 2.1185-1.678-4.9377-0.16602-4.8047 1.8594-0.4712 4.6569 1.6382 3.5156 5.3614h-0.88868"/><path d="m387.3 321.95c-1.4452-0.1417-0.84808-7.4939 0.20582-4.2296-0.0686 1.4098-0.13721 2.8197-0.20582 4.2296zm-0.92285 1.4795c1.5568-2.69 1.5239 2.6306 0 0z"/></g><path d="m1188.9 410.1-2.0078-2.0078h4z" color="#000000" enable-background="accumulate" fill-rule="evenodd"/></g></g></g></g></svg>
