<?xml version="1.0" encoding="UTF-8"?>
<svg enable-background="new" version="1.0" viewBox="0 0 256 256" xmlns="http://www.w3.org/2000/svg" xmlns:xlink="http://www.w3.org/1999/xlink"><defs><linearGradient id="a"><stop stop-color="#eeeeec" offset="0"/><stop stop-color="#babdb6" offset=".41413"/><stop stop-color="#888a85" offset=".77028"/><stop stop-color="#babdb6" offset="1"/></linearGradient><linearGradient id="b"><stop stop-color="#babdb6" offset="0"/><stop stop-color="#babdb6" stop-opacity="0" offset="1"/></linearGradient><clipPath id="af"><rect x="-202" y="56" width="84" height="88" rx="10" ry="10" color="#000000" display="block" enable-background="new" fill="none" stroke="#000"/></clipPath><filter id="ac"><feGaussianBlur stdDeviation="0.43000004"/></filter><filter id="aa" x="-.12" y="-.12" width="1.24" height="1.24"><feGaussianBlur stdDeviation="1.5594418"/></filter><filter id="y" x="-.12" y="-.12" width="1.24" height="1.24"><feGaussianBlur stdDeviation="1.5594418"/></filter><filter id="s" x="-.15775" y="-.043022" width="1.3155" height="1.086" color-interpolation-filters="sRGB"><feGaussianBlur stdDeviation="1.5774648"/></filter><filter id="u" x="-.1316" y="-.077035" width="1.2632" height="1.1541" color-interpolation-filters="sRGB"><feGaussianBlur stdDeviation="1.3160211"/></filter><filter id="w" x="-.1316" y="-.077035" width="1.2632" height="1.1541" color-interpolation-filters="sRGB"><feGaussianBlur stdDeviation="1.3160211"/></filter><filter id="x" x="-.12" y="-.12" width="1.24" height="1.24" color-interpolation-filters="sRGB"><feGaussianBlur stdDeviation="1.5594418"/></filter><filter id="z" x="-.12" y="-.12" width="1.24" height="1.24" color-interpolation-filters="sRGB"><feGaussianBlur stdDeviation="1.5594418"/></filter><filter id="r" x="-.15775" y="-.043022" width="1.3155" height="1.086" color-interpolation-filters="sRGB"><feGaussianBlur stdDeviation="1.5774648"/></filter><filter id="t" x="-.1316" y="-.077035" width="1.2632" height="1.1541" color-interpolation-filters="sRGB"><feGaussianBlur stdDeviation="1.3160211"/></filter><filter id="v" x="-.1316" y="-.077035" width="1.2632" height="1.1541" color-interpolation-filters="sRGB"><feGaussianBlur stdDeviation="1.3160211"/></filter><filter id="ab" color-interpolation-filters="sRGB"><feGaussianBlur stdDeviation="0.43000004"/></filter><clipPath id="ae"><path d="m-192 144h124c5.54 0 10-4.46 10-10v-68c0-5.54-4.46-10-10-10h-124c-5.54 0-10 4.46-10 10v68c0 5.54 4.46 10 10 10z" color="#000000" display="block" enable-background="new" fill="#b3b3b3"/></clipPath><filter id="q"><feGaussianBlur stdDeviation="0.88250004"/></filter><filter id="p"><feGaussianBlur stdDeviation="0.88250004"/></filter><filter id="o"><feGaussianBlur stdDeviation="1.9366197"/></filter><filter id="ad"><feGaussianBlur stdDeviation="2.5800002"/></filter><linearGradient id="m" x1="-130" x2="-130" y1="42.498" y2="149" gradientUnits="userSpaceOnUse" xlink:href="#a"/><linearGradient id="g" x1="-160.16" x2="-160.16" y1="68.002" y2="61.702" gradientTransform="translate(-3.4509e-8 -4.0345e-6)" gradientUnits="userSpaceOnUse"><stop stop-color="#eeeeec" offset="0"/><stop stop-color="#eeeeec" stop-opacity="0" offset="1"/></linearGradient><linearGradient id="f" x1="-184.89" x2="-199.11" y1="94.939" y2="94.939" gradientTransform="translate(-3.4509e-8 -4.0345e-6)" gradientUnits="userSpaceOnUse"><stop stop-color="#eeeeec" offset="0"/><stop stop-color="#eeeeec" stop-opacity="0" offset="1"/></linearGradient><linearGradient id="e" x1="-160" x2="-160" y1="118.98" y2="145.52" gradientUnits="userSpaceOnUse" xlink:href="#b"/><linearGradient id="d" x1="-184" x2="-201.75" y1="120.48" y2="146.02" gradientUnits="userSpaceOnUse" xlink:href="#b"/><linearGradient id="c" x1="-146.5" x2="-164.5" y1="145.53" y2="41.439" gradientUnits="userSpaceOnUse"><stop stop-color="#2e3436" offset="0"/><stop stop-color="#d3d7cf" offset="1"/></linearGradient><radialGradient id="i" cx="13.85" cy="29.679" r="15.095" gradientTransform="matrix(-10.599 0 0 3.6554 302.8 111.51)" gradientUnits="userSpaceOnUse"><stop stop-color="#d3d7cf" offset="0"/><stop stop-color="#babdb6" offset="1"/></radialGradient><linearGradient id="l" x1="152.86" x2="162" y1="129.14" y2="72" gradientTransform="matrix(-1,0,0,1,262,108)" gradientUnits="userSpaceOnUse"><stop stop-color="#eeeeec" offset="0"/><stop stop-color="#babdb6" offset="1"/></linearGradient><linearGradient id="k" x1="-160" x2="-160" y1="48.998" y2="150.5" gradientUnits="userSpaceOnUse" xlink:href="#a"/><radialGradient id="h" cx="24.5" cy="31.046" r="15.095" gradientTransform="matrix(5.0704 0 0 3.6554 35.774 3.5135)" gradientUnits="userSpaceOnUse"><stop stop-color="#d3d7cf" offset="0"/><stop stop-color="#babdb6" offset="1"/></radialGradient><linearGradient id="j" x1="152.86" x2="169" y1="129.14" y2="71.5" gradientUnits="userSpaceOnUse"><stop stop-color="#eeeeec" offset="0"/><stop stop-color="#babdb6" offset="1"/></linearGradient></defs><g transform="translate(-16,-36)"><g transform="matrix(1.1936 0 0 1.1936 -30.272 -34.37)"><rect x="60" y="75" width="84" height="88" rx="10" ry="10" color="#000000" display="block" enable-background="new" filter="url(#ad)"/><path d="m70 164h124c5.54 0 10 4.46 10 10v68c0 5.54-4.46 10-10 10h-124c-5.54 0-10-4.46-10-10v-68c0-5.54 4.46-10 10-10z" color="#000000" display="block" enable-background="new" fill="none" filter="url(#p)" stroke="#204a87" stroke-width="12"/><rect x="148" y="72" width="84" height="88" rx="10" ry="10" color="#000000" display="block" enable-background="new" fill="none" filter="url(#q)" stroke="#204a87" stroke-width="12"/><circle transform="matrix(.50113 0 0 .50113 116.82 97.839)" cx="163" cy="142" r="50" color="#000000" display="block" enable-background="new" fill="none" filter="url(#o)" stroke="#204a87" stroke-width="15.964"/><g id="n" transform="translate(262,16)"><g clip-path="url(#af)"><rect x="-202" y="56" width="84" height="88" rx="10" ry="10" color="#000000" display="block" enable-background="new" fill="url(#k)"/><path transform="matrix(-1 0 0 1 -320.33 4.5198e-6)" d="m-203.07 47.457c-9.6825 0-7.4774-2.2051-7.4774 7.4774l30.973 22.234c0-4.8412-6.1025 1.2613-1.2613 1.2613z" color="#000000" display="block" enable-background="new" fill="#fff" filter="url(#y)"/><path d="m-203.07 47.457c-9.6825 0-7.4774-2.2051-7.4774 7.4774l30.973 22.234c0-4.8412-6.1025 1.2613-1.2613 1.2613z" color="#000000" display="block" enable-background="new" fill="#fff" filter="url(#aa)"/><path d="m-202 56 24 24h36l24-24z" color="#000000" display="block" enable-background="new" fill="url(#g)" opacity=".70357"/><path d="m-202 56v88l24-40v-24z" color="#000000" display="block" enable-background="new" fill="url(#f)" filter="url(#s)" opacity=".70357"/><path d="m-178 104-24 37 5 4z" color="#000000" display="block" enable-background="new" fill="url(#e)" filter="url(#u)"/><path transform="matrix(-1 0 0 1 -320 6.0349e-7)" d="m-178 104-24 37 5 4z" color="#000000" display="block" enable-background="new" fill="url(#d)" filter="url(#w)" opacity=".825" stroke="#888a85"/><rect x="-202" y="56" width="84" height="88" rx="10" ry="10" color="#000000" display="block" enable-background="new" fill="none" filter="url(#ac)" stroke="url(#c)"/></g><rect transform="scale(-1,1)" x="130" y="68" width="60" height="56" rx="5" ry="5" color="#000000" display="block" enable-background="new" fill="url(#h)" stroke="url(#j)" stroke-width="2"/></g><g transform="translate(262,108)" clip-path="url(#ae)"><path d="m-192 56h124c5.54 0 10 4.46 10 10v68c0 5.54-4.46 10-10 10h-124c-5.54 0-10-4.46-10-10v-68c0-5.54 4.46-10 10-10z" color="#000000" display="block" enable-background="new" fill="url(#m)"/><path transform="matrix(-1 0 0 1 -260.33 4.5198e-6)" d="m-203.07 47.457c-9.6825 0-7.4774-2.2051-7.4774 7.4774l30.973 22.234c0-4.8412-6.1025 1.2613-1.2613 1.2613z" color="#000000" display="block" enable-background="new" fill="#fff" filter="url(#x)"/><path d="m-203.07 47.457c-9.6825 0-7.4774-2.2051-7.4774 7.4774l30.973 22.234c0-4.8412-6.1025 1.2613-1.2613 1.2613z" color="#000000" display="block" enable-background="new" fill="#fff" filter="url(#z)"/><path d="m-202 56 24 24h96l24-24z" color="#000000" display="block" enable-background="new" fill="url(#g)" opacity=".70357"/><path d="m-202 56v88l24-40v-24z" color="#000000" display="block" enable-background="new" fill="url(#f)" filter="url(#r)" opacity=".70357"/><path d="m-178 104-24 37 5 4z" color="#000000" display="block" enable-background="new" fill="url(#e)" filter="url(#t)"/><path transform="matrix(-1 0 0 1 -260 6.0349e-7)" d="m-178 104-24 37 5 4z" color="#000000" display="block" enable-background="new" fill="url(#d)" filter="url(#v)" opacity=".825" stroke="#888a85"/><path d="m-192 56h124c5.54 0 10 4.46 10 10v68c0 5.54-4.46 10-10 10h-124c-5.54 0-10-4.46-10-10v-68c0-5.54 4.46-10 10-10z" color="#000000" display="block" enable-background="new" fill="none" filter="url(#ab)" stroke="url(#c)"/></g><path d="m187 176h-110c-2.77 0-5 2.23-5 5v46c0 2.77 2.23 5 5 5h110c2.77 0 5-2.23 5-5v-46c0-2.77-2.23-5-5-5z" color="#000000" display="block" enable-background="new" fill="url(#i)" stroke="url(#l)" stroke-width="2"/><text x="120" y="128" enable-background="new" fill="#d3d7cf" font-family="'Bitstream Vera Sans'" stroke="#d3d7cf" stroke-width="3" text-align="end" text-anchor="end" style="line-height:0%" xml:space="preserve"><tspan x="120" y="128" fill="#d3d7cf" font-size="28px" stroke="#d3d7cf" stroke-width="3" text-align="end" text-anchor="end" style="line-height:1.25">y</tspan></text><text x="120" y="128" fill="#2e3436" font-family="'Bitstream Vera Sans'" text-align="end" text-anchor="end" style="line-height:0%" xml:space="preserve"><tspan x="120" y="128" fill="#2e3436" font-size="28px" text-align="end" text-anchor="end" style="line-height:1.25">y</tspan></text><use transform="translate(88)" width="400" height="300" xlink:href="#n"/><text x="208.63672" y="128" enable-background="new" fill="#d3d7cf" font-family="'Bitstream Vera Sans'" stroke="#d3d7cf" stroke-width="3" text-align="end" text-anchor="end" style="line-height:0%" xml:space="preserve"><tspan x="208.63672" y="128" font-size="28px" style="line-height:1.25">x</tspan></text><text x="208.63672" y="128" fill="#2e3436" font-family="'Bitstream Vera Sans'" text-align="end" text-anchor="end" style="line-height:0%" xml:space="preserve"><tspan x="208.63672" y="128" font-size="28px" style="line-height:1.25">x</tspan></text><text x="182.48047" y="219.43359" enable-background="new" fill="#d3d7cf" font-family="'Bitstream Vera Sans'" stroke="#d3d7cf" stroke-width="3" text-align="end" text-anchor="end" style="line-height:0%" xml:space="preserve"><tspan x="182.48047" y="219.43359" font-size="28px" style="line-height:1.25">Ctrl</tspan></text><text x="182.48047" y="219.43359" fill="#2e3436" font-family="'Bitstream Vera Sans'" text-align="end" text-anchor="end" style="line-height:0%" xml:space="preserve"><tspan x="182.48047" y="219.43359" font-size="28px" style="line-height:1.25">Ctrl</tspan></text></g></g></svg>
