<?xml version="1.0" encoding="UTF-8"?>
<svg enable-background="new" version="1.0" viewBox="0 0 256 256" xmlns="http://www.w3.org/2000/svg" xmlns:xlink="http://www.w3.org/1999/xlink"><defs><filter id="di" x="-.037832" y="-.14491" width="1.0757" height="1.2898" color-interpolation-filters="sRGB"><feGaussianBlur stdDeviation="1.1341238"/></filter><filter id="dh" x="-.1135" y="-.43473" width="1.227" height="1.8695" color-interpolation-filters="sRGB"><feGaussianBlur stdDeviation="3.4023712"/></filter><filter id="dj" x="-.11534" y="-.41708" width="1.2307" height="1.8342" color-interpolation-filters="sRGB"><feGaussianBlur stdDeviation="3.4576707"/></filter><filter id="dk" x="-.038296" y="-.13848" width="1.0766" height="1.277" color-interpolation-filters="sRGB"><feGaussianBlur stdDeviation="1.1480391"/></filter><filter id="dc" x="-.12303" y="-.43925" width="1.2461" height="1.8785" color-interpolation-filters="sRGB"><feGaussianBlur stdDeviation="10.48365"/></filter><filter id="w" color-interpolation-filters="sRGB"><feGaussianBlur stdDeviation="1.2808222"/></filter><filter id="dd" x="-.12577" y="-.44903" width="1.2515" height="1.8981" color-interpolation-filters="sRGB"><feGaussianBlur stdDeviation="10.717144"/></filter><clipPath id="dp"><path d="m140.61 70.799 1.2331 20.448h-10.005l0.5307-8.9595-40.333 8.9126-8.3351 24.74 0.54631-0.10926c-0.02716 0.0893-0.05917 0.17267-0.07804 0.26535-8.3e-4 5e-3 8e-4 0.0108 0 0.0156-0.03783 0.19077-0.06244 0.39093-0.06244 0.59314v66.431c0 1.6603 1.3366 2.9969 2.9969 2.9969h93.918c1.6603 0 2.9969-1.3366 2.9969-2.9969v-66.431c0-0.34589-0.0648-0.67472-0.1717-0.98336l0.43705 0.21852-8.3351-24.74-35.338-20.401z" enable-background="new" fill-rule="evenodd"/></clipPath><linearGradient id="a"><stop stop-color="#8f5902" offset="0"/><stop stop-color="#8f5902" stop-opacity="0" offset="1"/></linearGradient><linearGradient id="j"><stop stop-color="#ebd3ad" offset="0"/><stop stop-color="#e9b96e" offset="1"/></linearGradient><linearGradient id="o"><stop stop-color="#8f5902" offset="0"/><stop stop-color="#eeeeec" stop-opacity=".89734" offset="1"/></linearGradient><linearGradient id="d"><stop stop-color="#c17d11" offset="0"/><stop stop-color="#e9b96e" offset="1"/></linearGradient><linearGradient id="l"><stop stop-color="#eeeeec" offset="0"/><stop stop-color="#e9b96e" offset="1"/></linearGradient><mask id="c" maskUnits="userSpaceOnUse"><path d="m33.406 86-2.9375 8.6562c-0.08353 0.18482-0.13407 0.37027-0.1875 0.5625-0.05826 0.18811-0.11642 0.36686-0.15625 0.5625-0.0017 0.0097 0.0016 0.02155 0 0.03125-0.075722 0.38194-0.125 0.78267-0.125 1.1875v9h200.03v-9c0-0.831-0.16594-1.6254-0.46875-2.3438l-2.9062-8.6562z" fill="url(#at)" fill-rule="evenodd"/></mask><linearGradient id="at" x1="90.25" x2="90.25" y1="106" y2="86" gradientUnits="userSpaceOnUse"><stop stop-color="#fff" stop-opacity="0" offset="0"/><stop stop-color="#fff" offset=".63482"/><stop stop-color="#fff" offset=".7367"/><stop stop-color="#fff" stop-opacity="0" offset="1"/></linearGradient><linearGradient id="b"><stop stop-color="#fff" offset="0"/><stop stop-color="#fff" stop-opacity="0" offset="1"/></linearGradient><linearGradient id="e"><stop offset="0"/><stop stop-opacity="0" offset="1"/></linearGradient><filter id="v" x="-.065879" y="-.12716" width="1.1318" height="1.2543" color-interpolation-filters="sRGB"><feGaussianBlur stdDeviation="3.1292748"/></filter><linearGradient id="n"><stop stop-color="#eeeeec" offset="0"/><stop stop-color="#eeeeec" stop-opacity="0" offset="1"/></linearGradient><linearGradient id="i"><stop stop-color="#e9b96e" offset="0"/><stop stop-color="#e9b96e" stop-opacity="0" offset="1"/></linearGradient><filter id="u" color-interpolation-filters="sRGB"><feGaussianBlur stdDeviation="2.4684546"/></filter><linearGradient id="m"><stop stop-color="#fff" offset="0"/><stop stop-color="#e9b96e" stop-opacity="0" offset="1"/></linearGradient><mask id="h" maskUnits="userSpaceOnUse"><path d="m36 91c-3.324 0-6 2.676-6 6v133c0 3.324 2.676 6 6 6h188.03c3.324 0 6-2.676 6-6v-133c0-3.324-2.676-6-6-6z" fill="url(#an)" fill-rule="evenodd"/></mask><pattern id="an" xlink:href="#ap" patternTransform="translate(-110,111)"/><pattern id="ap" width="15" height="15" patternTransform="translate(-110,111)" patternUnits="userSpaceOnUse"><rect width="15" height="15" fill="url(#ao)"/></pattern><pattern id="ao" xlink:href="#aq" patternTransform="scale(.5)"/><pattern id="aq" xlink:href="#ar" patternTransform="matrix(.5 0 0 .5 -110 111)"/><pattern id="ar" width="30" height="30" patternTransform="translate(-110,96)" patternUnits="userSpaceOnUse"><rect width="30" height="30" fill="url(#as)" fill-rule="evenodd"/></pattern><linearGradient id="as" x1="-110" x2="-70" y1="106" y2="106" gradientTransform="matrix(.75 0 0 .75 82.5 -64.5)" gradientUnits="userSpaceOnUse"><stop stop-color="#fff" offset="0"/><stop stop-color="#fff" stop-opacity="0" offset=".125"/><stop stop-color="#fff" offset=".25"/><stop stop-color="#fff" stop-opacity="0" offset=".375"/><stop stop-color="#fff" offset=".5"/><stop stop-color="#fff" stop-opacity="0" offset=".625"/><stop stop-color="#fff" offset=".75"/><stop stop-color="#fff" stop-opacity="0" offset=".875"/><stop stop-color="#fff" offset="1"/></linearGradient><linearGradient id="t"><stop stop-color="#fdedd4" offset="0"/><stop stop-color="#f5c67a" stop-opacity="0" offset="1"/></linearGradient><linearGradient id="s"><stop stop-color="#a3680a" offset="0"/><stop stop-color="#a3680a" stop-opacity="0" offset="1"/></linearGradient><linearGradient id="db"><stop stop-color="#eeeeec" offset="0"/><stop stop-color="#fff" stop-opacity="0" offset="1"/></linearGradient><linearGradient id="k"><stop stop-color="#8f5902" offset="0"/><stop stop-color="#8f5902" stop-opacity="0" offset=".1383"/><stop stop-opacity="0" offset="1"/></linearGradient><filter id="do" color-interpolation-filters="sRGB"><feGaussianBlur stdDeviation="2.1614063"/></filter><filter id="de" x="-.10001" y="-.093908" height="1.1878" color-interpolation-filters="sRGB"><feGaussianBlur stdDeviation="3.6903027"/></filter><filter id="df" x="-.17574" y="-.62607" width="1.3515" height="2.2521" color-interpolation-filters="sRGB"><feGaussianBlur stdDeviation="3.5216158"/></filter><clipPath id="ds"><path d="m203 463.75 3.5312 10.75h-7.375l-0.71875-3.4062-31.344 3.4062h-1.75c-0.39672 0-0.71529 0.10894-0.96875 0.28125l-0.4375 0.0625-0.0312 0.46875c-0.30591 0.50547-0.42413 1.1926-0.46875 1.8438l-1.375 18.75c-0.0598 0.32519 4e-3 0.68134 0.0625 1.0312v58.5c-1e-5 1.4621 1.1942 2.625 2.6562 2.625h82.688c1.4621 2e-5 2.6562-1.1629 2.6562-2.625v-58.5c0-0.86692-0.45206-1.6132-1.0938-2.0938l0.8125 0.1875-12.75-20.188z" enable-background="new" fill-rule="evenodd"/></clipPath><filter id="dn" color-interpolation-filters="sRGB"><feGaussianBlur stdDeviation="0.92199548"/></filter><clipPath id="dq"><path d="m65.031 336c-1.1956 0-1.8069 1.5-2.1562 2.8852l-6.25 14.761c-0.40887 0.2889-0.65625 0.72201-0.65625 1.1742v35.226c0 0.88055 0.96069 1.5768 2.1562 1.5768h67.625c1.1956 0 2.1875-0.69625 2.1875-1.5768v-35.226c0-0.23554-0.095-0.47027-0.21875-0.67097l-0.4375-15.6c-0.3487-1.3855-0.96067-2.5497-2.1562-2.5497z" enable-background="new" fill-rule="evenodd"/></clipPath><filter id="dl" color-interpolation-filters="sRGB"><feGaussianBlur stdDeviation="0.62890625"/></filter><filter id="dg" x="-.28182" y="-.33647" width="1.5636" height="1.6729" color-interpolation-filters="sRGB"><feGaussianBlur stdDeviation="2.7337794"/></filter><clipPath id="dr"><path d="m108.94 216c-1.1956 0-1.8069 1.3973-2.1562 2.6875l-2.375 15.062c-0.12018 0.33045-0.15906 0.67566-0.1875 1.0312h0.0312c-0.0126 0.0628-0.0312 0.12231-0.0312 0.1875v31.688c0 0.79155 0.96069 1.4062 2.1562 1.4062h67.625c1.1956 1e-5 2.1875-0.61469 2.1875-1.4062v-31.688c0-0.0652-0.0186-0.12468-0.0312-0.1875h0.0312l-0.1875-1.0312-3.7812-15.375c-0.3487-1.2906-0.96068-2.375-2.1562-2.375z" enable-background="new" fill-rule="evenodd"/></clipPath><filter id="dm" color-interpolation-filters="sRGB"><feGaussianBlur stdDeviation="0.31507813"/></filter><linearGradient id="da" x1="147.12" x2="147.12" y1="74.5" y2="75.284" gradientTransform="matrix(.49948 0 0 .49948 22.129 434.07)" gradientUnits="userSpaceOnUse" xlink:href="#a"/><linearGradient id="cz" x1="52" x2="52" y1="40.482" y2="76.674" gradientTransform="matrix(.49948 0 0 .49948 29.122 448.26)" gradientUnits="userSpaceOnUse" xlink:href="#j"/><linearGradient id="cy" x1="135.75" x2="135.75" y1="69.875" y2="68" gradientTransform="matrix(.49289 0 0 .49948 29.94 448.26)" gradientUnits="userSpaceOnUse" xlink:href="#o"/><linearGradient id="cx" x1="174.02" x2="30" y1="236" y2="64" gradientTransform="matrix(.49948 0 0 .49948 29.122 448.26)" gradientUnits="userSpaceOnUse" xlink:href="#d"/><radialGradient id="g" cx="136.13" cy="96" r="105.23" gradientTransform="matrix(1.7673 0 0 .02407 -63.863 93.689)" gradientUnits="userSpaceOnUse" xlink:href="#l"/><linearGradient id="cw" x1="29.981" x2="35.523" y1="192" y2="192" gradientTransform="matrix(.49948 0 0 .49948 29.122 448.26)" gradientUnits="userSpaceOnUse" xlink:href="#b"/><linearGradient id="r" x1="48.982" x2="145.58" y1="175.04" y2="174" gradientTransform="matrix(1 0 0 -.96567 19 282.08)" gradientUnits="userSpaceOnUse" xlink:href="#e"/><linearGradient id="cv" x1="50.312" x2="50.312" y1="69.999" y2="72" gradientTransform="matrix(.49948 0 0 .49948 29.122 448.26)" gradientUnits="userSpaceOnUse" xlink:href="#n"/><linearGradient id="cu" x1="97" x2="97" y1="236.06" y2="222.18" gradientTransform="matrix(.49948 0 0 .49948 29.122 448.26)" gradientUnits="userSpaceOnUse" xlink:href="#i"/><linearGradient id="ct" x1="125.75" x2="125.75" y1="235.5" y2="233.38" gradientTransform="matrix(.49948 0 0 .49948 29.122 448.26)" gradientUnits="userSpaceOnUse" xlink:href="#e"/><linearGradient id="cs" x1="230.5" x2="223" y1="172.5" y2="172.5" gradientTransform="matrix(.49948 0 0 .49948 29.122 448.26)" gradientUnits="userSpaceOnUse" xlink:href="#b"/><linearGradient id="q" x1="220.03" x2="165.74" y1="71.516" y2="83.393" gradientTransform="translate(5,-1)" gradientUnits="userSpaceOnUse" xlink:href="#e"/><linearGradient id="cr" x1="-76" x2="243" y1="-48" y2="76" gradientTransform="matrix(.49948 0 0 .49948 29.122 449.75)" gradientUnits="userSpaceOnUse" xlink:href="#d"/><radialGradient id="am" cx="93.237" cy="132.01" r="48.719" gradientTransform="matrix(1.2783 -2.214 1.8248 1.0536 -233.44 178.82)" gradientUnits="userSpaceOnUse" xlink:href="#l"/><linearGradient id="cq" x1="247" x2="157" y1="5.1035" y2="50.285" gradientTransform="matrix(.49948 0 0 .49948 29.122 448.26)" gradientUnits="userSpaceOnUse" xlink:href="#d"/><linearGradient id="cp" x1="37.855" x2="41.375" y1="74.932" y2="75.875" gradientTransform="matrix(.49948 0 0 .49948 29.122 448.26)" gradientUnits="userSpaceOnUse" xlink:href="#m"/><radialGradient id="al" cx="123.91" cy="80.943" r="48.719" gradientTransform="matrix(-.035765 -1.3017 1.1091 -.030475 5.6643 649.49)" gradientUnits="userSpaceOnUse" xlink:href="#b"/><radialGradient id="ak" cx="147.97" cy="36.679" r="43.719" gradientTransform="matrix(1.1189 0 0 1.9702 -62.994 386.87)" gradientUnits="userSpaceOnUse" xlink:href="#b"/><linearGradient id="co" x1="140" x2="140" y1="225.96" y2="101" gradientUnits="userSpaceOnUse" xlink:href="#a"/><radialGradient id="aj" cx="116.44" cy="114.13" r="43.339" gradientTransform="matrix(-.67174 .1383 -.021234 -.10314 163.28 484.68)" gradientUnits="userSpaceOnUse" xlink:href="#t"/><radialGradient id="ai" cx="226.71" cy="134.75" r="39.192" gradientTransform="matrix(-.64752 -.37596 .13005 -.22399 267.66 609.82)" gradientUnits="userSpaceOnUse" xlink:href="#s"/><radialGradient id="f" cx="123.93" cy="96" r="105.23" gradientTransform="matrix(.56641 0 0 .02407 84.965 93.689)" gradientUnits="userSpaceOnUse" xlink:href="#db"/><linearGradient id="cn" x1="44" x2="46" y1="192.14" y2="192.14" gradientTransform="matrix(.49948 0 0 .49948 22.129 434.07)" gradientUnits="userSpaceOnUse" xlink:href="#a"/><linearGradient id="cm" x1="45.968" x2="58.218" y1="96.196" y2="100.2" gradientTransform="matrix(.49948 0 0 .49948 25.142 435.09)" gradientUnits="userSpaceOnUse" xlink:href="#k"/><linearGradient id="cl" x1="44" x2="46" y1="192.14" y2="192.14" gradientTransform="matrix(.49948 0 0 .49948 -165.95 434.07)" gradientUnits="userSpaceOnUse" xlink:href="#a"/><linearGradient id="ck" x1="45.968" x2="58.218" y1="96.196" y2="100.2" gradientTransform="matrix(-.49948 0 0 .49948 162.94 435.09)" gradientUnits="userSpaceOnUse" xlink:href="#k"/><linearGradient id="cj" x1="197.5" x2="79.5" y1="242.5" y2="72.5" gradientUnits="userSpaceOnUse"><stop offset="0"/><stop stop-opacity="0" offset="1"/></linearGradient><linearGradient id="ci" x1="149.25" x2="149.25" y1="74.438" y2="75.285" gradientTransform="matrix(.49948 0 0 .49948 22.129 434.07)" gradientUnits="userSpaceOnUse" xlink:href="#a"/><radialGradient id="ah" cx="150.26" cy="66.984" r="10.203" gradientTransform="matrix(1.0364 0 0 .029899 -58.175 469.68)" gradientUnits="userSpaceOnUse" xlink:href="#b"/><linearGradient id="ch" x1="174.02" x2="30" y1="236" y2="64" gradientTransform="matrix(.43986 0 0 .43986 148.93 454.26)" gradientUnits="userSpaceOnUse" xlink:href="#d"/><linearGradient id="cg" x1="29.981" x2="35.523" y1="192" y2="192" gradientTransform="matrix(.43986 0 0 .43986 148.93 454.26)" gradientUnits="userSpaceOnUse" xlink:href="#b"/><linearGradient id="cf" x1="97" x2="97" y1="236.06" y2="222.18" gradientTransform="matrix(.43986 0 0 .43986 148.93 454.26)" gradientUnits="userSpaceOnUse" xlink:href="#i"/><linearGradient id="ce" x1="125.75" x2="125.75" y1="235.5" y2="233.38" gradientTransform="matrix(.43986 0 0 .43986 148.93 454.26)" gradientUnits="userSpaceOnUse" xlink:href="#e"/><linearGradient id="cd" x1="230.5" x2="223" y1="172.5" y2="172.5" gradientTransform="matrix(.43986 0 0 .43986 148.93 454.26)" gradientUnits="userSpaceOnUse" xlink:href="#b"/><linearGradient id="cc" x1="44" x2="46" y1="192.14" y2="192.14" gradientTransform="matrix(.43986 0 0 .43986 142.77 441.77)" gradientUnits="userSpaceOnUse" xlink:href="#a"/><linearGradient id="cb" x1="44" x2="46" y1="192.14" y2="192.14" gradientTransform="matrix(.43986 0 0 .43986 -269.42 441.77)" gradientUnits="userSpaceOnUse" xlink:href="#a"/><linearGradient id="ca" x1="147.12" x2="147.12" y1="74.5" y2="75.284" gradientTransform="matrix(.43986 0 0 .45537 9.6207 457.35)" gradientUnits="userSpaceOnUse" xlink:href="#a"/><linearGradient id="bz" x1="52" x2="52" y1="40.482" y2="76.674" gradientTransform="matrix(.43986 0 .11786 .43986 137.5 454.26)" gradientUnits="userSpaceOnUse" xlink:href="#j"/><linearGradient id="by" x1="135.75" x2="135.75" y1="69.875" y2="68" gradientTransform="matrix(.43406 0 .11786 .43986 138.22 454.26)" gradientUnits="userSpaceOnUse" xlink:href="#o"/><linearGradient id="bx" x1="50.312" x2="50.312" y1="69.999" y2="72" gradientTransform="matrix(.43986 0 0 .45537 15.779 470.29)" gradientUnits="userSpaceOnUse" xlink:href="#n"/><linearGradient id="bw" x1="-76" x2="243" y1="-48" y2="76" gradientTransform="matrix(.43986 0 0 .43986 158.93 65.584)" gradientUnits="userSpaceOnUse" xlink:href="#d"/><linearGradient id="bv" x1="243.02" x2="175.19" y1="16.732" y2="47.716" gradientTransform="matrix(.43986 0 0 .43986 158.93 64.264)" gradientUnits="userSpaceOnUse" xlink:href="#d"/><radialGradient id="ag" cx="147.97" cy="36.679" r="43.719" gradientTransform="matrix(.98533 0 0 1.735 77.811 10.207)" gradientUnits="userSpaceOnUse" xlink:href="#b"/><radialGradient id="af" cx="226.71" cy="134.75" r="39.192" gradientTransform="matrix(-.57023 -.33108 .11453 -.19725 368.99 206.55)" gradientUnits="userSpaceOnUse" xlink:href="#s"/><linearGradient id="bu" x1="45.968" x2="58.218" y1="96.196" y2="100.2" gradientTransform="matrix(-.43986 0 0 .43986 276.77 52.673)" gradientUnits="userSpaceOnUse" xlink:href="#k"/><linearGradient id="bt" x1="149.25" x2="149.25" y1="74.438" y2="75.285" gradientTransform="matrix(.43986 0 .11786 .43986 127.99 441.77)" gradientUnits="userSpaceOnUse" xlink:href="#a"/><radialGradient id="ae" cx="150.26" cy="66.984" r="10.203" gradientTransform="matrix(.91264 0 .007055 .02633 65.679 473.13)" gradientUnits="userSpaceOnUse" xlink:href="#b"/><linearGradient id="bs" x1="139" x2="140" y1="300" y2="101" gradientUnits="userSpaceOnUse" xlink:href="#a"/><radialGradient id="ad" cx="90.612" cy="122.32" r="48.719" gradientTransform="matrix(1.2783 -2.214 1.8248 1.0536 -233.44 178.82)" gradientUnits="userSpaceOnUse" xlink:href="#l"/><linearGradient id="br" x1="37.855" x2="41.375" y1="74.932" y2="75.875" gradientTransform="matrix(.43986 0 0 .43986 158.93 54.264)" gradientUnits="userSpaceOnUse" xlink:href="#m"/><radialGradient id="ac" cx="123.91" cy="80.943" r="48.719" gradientTransform="matrix(-.031495 -1.1463 .97674 -.026837 138.27 231.47)" gradientUnits="userSpaceOnUse" xlink:href="#b"/><radialGradient id="ab" cx="116.44" cy="114.13" r="43.339" gradientTransform="matrix(-.59155 .12179 -.018699 -.090826 277.07 86.343)" gradientUnits="userSpaceOnUse" xlink:href="#t"/><linearGradient id="bq" x1="45.968" x2="58.218" y1="96.196" y2="100.2" gradientTransform="matrix(.43986 0 0 .43986 155.43 42.673)" gradientUnits="userSpaceOnUse" xlink:href="#k"/><linearGradient id="bp" x1="215.79" x2="179.62" y1="537.16" y2="470.16" gradientUnits="userSpaceOnUse"><stop offset="0"/><stop stop-opacity="0" offset="1"/></linearGradient><linearGradient id="bo" x1="174.02" x2="30" y1="236" y2="64" gradientTransform="matrix(.43986 0 0 .46937 148.93 397.3)" gradientUnits="userSpaceOnUse" xlink:href="#d"/><linearGradient id="bn" x1="29.981" x2="35.523" y1="192" y2="192" gradientTransform="matrix(.43986 0 0 .43986 148.93 404.26)" gradientUnits="userSpaceOnUse" xlink:href="#b"/><linearGradient id="bm" x1="97" x2="97" y1="236.06" y2="222.18" gradientTransform="matrix(.43986 0 0 .43986 148.93 404.26)" gradientUnits="userSpaceOnUse" xlink:href="#i"/><linearGradient id="bl" x1="125.75" x2="125.75" y1="235.5" y2="233.38" gradientTransform="matrix(.43986 0 0 .43986 148.93 404.26)" gradientUnits="userSpaceOnUse" xlink:href="#e"/><linearGradient id="bk" x1="230.5" x2="223" y1="172.5" y2="172.5" gradientTransform="matrix(.43986 0 0 .43986 148.93 404.26)" gradientUnits="userSpaceOnUse" xlink:href="#b"/><linearGradient id="bj" x1="44" x2="46" y1="192.14" y2="192.14" gradientTransform="matrix(.43986 0 0 .46051 142.77 386.36)" gradientUnits="userSpaceOnUse" xlink:href="#a"/><linearGradient id="bi" x1="44" x2="46" y1="192.14" y2="192.14" gradientTransform="matrix(.43986 0 0 .43986 -269.42 391.77)" gradientUnits="userSpaceOnUse" xlink:href="#a"/><linearGradient id="bh" x1="52" x2="52" y1="40.482" y2="76.674" gradientTransform="matrix(.43986 0 0 .43986 148.93 394.26)" gradientUnits="userSpaceOnUse" xlink:href="#j"/><linearGradient id="bg" x1="178.55" x2="184.66" y1="451.33" y2="418.69" gradientTransform="matrix(.81771 0 0 1.0162 -80.597 140.52)" gradientUnits="userSpaceOnUse"><stop stop-color="#fff" offset="0"/><stop stop-color="#fff" stop-opacity="0" offset="1"/></linearGradient><linearGradient id="p" x1="140" x2="140" y1="170.37" y2="101" gradientUnits="userSpaceOnUse" xlink:href="#a"/><linearGradient id="bf" x1="93.188" x2="79.89" y1="612.59" y2="561.32" gradientUnits="userSpaceOnUse"><stop offset="0"/><stop stop-color="#8f5902" stop-opacity="0" offset="1"/></linearGradient><linearGradient id="be" x1="119.86" x2="119.86" y1="391.75" y2="376" gradientUnits="userSpaceOnUse"><stop offset="0"/><stop stop-opacity="0" offset="1"/></linearGradient><linearGradient id="bd" x1="174.02" x2="30" y1="236" y2="64" gradientTransform="matrix(.35968 0 0 .23813 93.435 211.87)" gradientUnits="userSpaceOnUse" xlink:href="#d"/><linearGradient id="bc" x1="97" x2="97" y1="236.06" y2="222.18" gradientTransform="matrix(.35968 0 0 .23124 93.435 213.5)" gradientUnits="userSpaceOnUse" xlink:href="#i"/><linearGradient id="bb" x1="125.75" x2="125.75" y1="235.5" y2="233.38" gradientTransform="matrix(.35968 0 0 .23124 93.435 213.5)" gradientUnits="userSpaceOnUse" xlink:href="#e"/><linearGradient id="ba" x1="29.981" x2="35.523" y1="192" y2="192" gradientTransform="matrix(.35968 0 0 .23124 83.435 213.5)" gradientUnits="userSpaceOnUse" xlink:href="#b"/><linearGradient id="az" x1="44" x2="46" y1="192.14" y2="192.14" gradientTransform="matrix(.35968 0 0 .23124 78.4 206.93)" gradientUnits="userSpaceOnUse" xlink:href="#a"/><linearGradient id="ay" x1="230.5" x2="223" y1="172.5" y2="172.5" gradientTransform="matrix(.35968 0 0 .23124 103.44 213.5)" gradientUnits="userSpaceOnUse" xlink:href="#b"/><linearGradient id="ax" x1="44" x2="46" y1="192.14" y2="192.14" gradientTransform="matrix(.35968 0 0 .23124 -201.96 206.93)" gradientUnits="userSpaceOnUse" xlink:href="#a"/><linearGradient id="aw" x1="52" x2="52" y1="40.482" y2="76.674" gradientTransform="matrix(.35968 0 0 .447 93.435 191.44)" gradientUnits="userSpaceOnUse" xlink:href="#j"/><linearGradient id="av" x1="200.65" x2="206.12" y1="446.69" y2="424.97" gradientTransform="matrix(.81771 0 0 1.0162 -28.347 -209.23)" gradientUnits="userSpaceOnUse"><stop stop-color="#fff" offset="0"/><stop stop-color="#fff" stop-opacity="0" offset="1"/></linearGradient><linearGradient id="au" x1="130.34" x2="120.69" y1="257.78" y2="207.41" gradientUnits="userSpaceOnUse"><stop offset="0"/><stop stop-color="#8f5902" stop-opacity="0" offset="1"/></linearGradient><radialGradient id="aa" cx="144.19" cy="235.13" r="35" gradientTransform="matrix(1.1585 0 0 .32419 -22.85 158.91)" gradientUnits="userSpaceOnUse"><stop offset="0"/><stop stop-opacity="0" offset="1"/></radialGradient><radialGradient id="z" cx="91.5" cy="196.26" r="35" gradientTransform="matrix(1.2072 -1.5329e-7 5.6833e-8 .44757 -18.956 108.42)" gradientUnits="userSpaceOnUse"><stop offset="0"/><stop stop-opacity="0" offset="1"/></radialGradient><radialGradient id="y" cx="122.29" cy="188.06" r=".21339" gradientTransform="matrix(15.403 3.4372 -20.691 178.07 2129.9 -33721)" gradientUnits="userSpaceOnUse"><stop stop-color="#fff" offset="0"/><stop stop-color="#fff" stop-opacity="0" offset="1"/></radialGradient><radialGradient id="x" cx="143.94" cy="225.42" r=".125" gradientTransform="matrix(25.622 0 0 113.26 -3544.1 -25307)" gradientUnits="userSpaceOnUse"><stop stop-color="#fff" offset="0"/><stop stop-color="#fff" stop-opacity="0" offset="1"/></radialGradient></defs><g transform="translate(-20,-30)"><g><g enable-background="new"><g transform="translate(0,-36)" fill-rule="evenodd"><path d="m112.94 285.01c-1.1956 0-1.8087 1.3918-2.1581 2.682l-2.3856 15.054c-0.12018 0.33046-0.14017 0.69208-0.16861 1.0477h71.947l-0.16859-1.0477-3.7695-15.375c-0.3487-1.2906-0.96249-2.3607-2.1581-2.3607z" enable-background="new" filter="url(#di)"/><path d="m112.94 285.01c-1.1956 0-1.8087 1.3918-2.1581 2.682l-2.3856 15.054c-0.12018 0.33046-0.14017 0.69208-0.16861 1.0477h71.947l-0.16859-1.0477-3.7695-15.375c-0.3487-1.2906-0.96249-2.3607-2.1581-2.3607z" enable-background="new" filter="url(#dh)"/></g><path transform="matrix(1.0139 0 0 1 -1.278 -2)" d="m65.029 214.01c-1.1956 0-1.8087 1.4942-2.1581 2.8793l-6.7265 15.892c-0.12017 0.35477-0.14016 0.74299-0.1686 1.1247h71.947l-0.16859-1.1247-0.4588-16.237c-0.34869-1.3855-0.96248-2.5344-2.1581-2.5344z" enable-background="new" fill-rule="evenodd" filter="url(#dj)"/><path transform="matrix(1.0139 0 0 1 -1.278 -2)" d="m65.029 214.01c-1.1956 0-1.8087 1.4942-2.1581 2.8793l-6.7265 15.892c-0.12017 0.35477-0.14016 0.74299-0.1686 1.1247h71.947l-0.16859-1.1247-0.4588-16.237c-0.34869-1.3855-0.96248-2.5344-2.1581-2.5344z" enable-background="new" fill-rule="evenodd" filter="url(#dk)"/><g transform="translate(40,-79.75)" fill-rule="evenodd"><path transform="matrix(.51117 0 0 .41044 27.552 166.93)" d="m51 183.87c-0.7742 0-2.418 0.15685-3.8398 0.94336-1.4218 0.7865-2.041 1.6074-2.4473 2.0879-1.3221 1.5638-1.8979 2.921-2.4199 4.3906a6.3523 6.3523 0 0 0-0.30469 0.72266l-13.906 40.75a6.3523 6.3523 0 0 0 6.0117 8.4023h191.81a6.3523 6.3523 0 0 0 6.0234-8.3691l-13.906-41.5a6.3523 6.3523 0 0 0-2e-3 -4e-3c-0.61375-1.8278-1.2374-3.3085-2.8828-4.9473-0.78166-0.7785-4.3804-2.4766-6.1074-2.4766zm-7.459 5.6719a6.3523 6.3523 0 0 0-0.03906 0.043l0.0059-0.01c0.01007-0.0102 0.02168-0.0219 0.0332-0.0332z" filter="url(#dc)" opacity=".55"/><path transform="matrix(.49897 0 0 .46758 29.138 154.55)" d="m51 185.27c-0.67709 0-2.0082 0.12929-3.1621 0.76758-1.1539 0.63829-1.6782 1.3222-2.0547 1.7676-1.1477 1.3575-1.7017 2.6388-2.1992 4.0332a4.9502 4.9502 0 0 0-0.26758 0.62695l-13.906 40.75a4.9502 4.9502 0 0 0 4.6836 6.5469h191.81a4.9502 4.9502 0 0 0 4.6934-6.5215l-13.906-41.5a4.9502 4.9502 0 0 0-2e-3 -4e-3c-0.56434-1.6806-1.1612-3.0242-2.543-4.4004-0.70868-0.70582-3.5732-2.0664-5.1172-2.0664z" filter="url(#w)" opacity=".9"/></g><g transform="translate(0 .25)" fill-rule="evenodd"><path transform="matrix(.45071 0 0 .33792 147.41 127.55)" d="m51 183.87c-0.7742 0-2.418 0.15685-3.8398 0.94336-1.4218 0.7865-2.041 1.6074-2.4473 2.0879-1.3221 1.5638-1.8979 2.921-2.4199 4.3906a6.3523 6.3523 0 0 0-0.30469 0.72266l-13.906 40.75a6.3523 6.3523 0 0 0 6.0117 8.4023h191.81a6.3523 6.3523 0 0 0 6.0234-8.3691l-13.906-41.5a6.3523 6.3523 0 0 0-2e-3 -4e-3c-0.61375-1.8278-1.2374-3.3085-2.8828-4.9473-0.78166-0.7785-4.3804-2.4766-6.1074-2.4766zm-7.459 5.6719a6.3523 6.3523 0 0 0-0.03906 0.043l0.0059-0.01c0.01007-0.0102 0.02168-0.0219 0.0332-0.0332z" filter="url(#dd)" opacity=".55"/><path transform="matrix(.43995 0 0 .38497 148.81 116.36)" d="m51 185.27c-0.67709 0-2.0082 0.12929-3.1621 0.76758-1.1539 0.63829-1.6782 1.3222-2.0547 1.7676-1.1477 1.3575-1.7017 2.6388-2.1992 4.0332a4.9502 4.9502 0 0 0-0.26758 0.62695l-13.906 40.75a4.9502 4.9502 0 0 0 4.6836 6.5469h191.81a4.9502 4.9502 0 0 0 4.6934-6.5215l-13.906-41.5a4.9502 4.9502 0 0 0-2e-3 -4e-3c-0.56434-1.6806-1.1612-3.0242-2.543-4.4004-0.70868-0.70582-3.5732-2.0664-5.1172-2.0664z" filter="url(#w)" opacity=".9"/></g><g clip-path="url(#dp)"><g transform="translate(40,-370)" clip-path="none"><g transform="translate(0,-10)" clip-path="none"><rect x="90.402" y="471.25" width="12.643" height=".84288" rx="0" ry="0" fill="url(#da)" opacity=".77477"/><path d="m54.595 471.25c-1.6603 0-2.5118 1.5552-2.9969 2.9969l-7.2581 21.29c-0.16688 0.36926-0.19464 0.77332-0.23413 1.1707h99.912l-0.23413-1.1707-7.2581-21.649c-0.48424-1.4421-1.3366-2.6379-2.9969-2.6379z" fill="url(#cz)" fill-rule="evenodd"/><path d="m49.44 482.22-0.33886 0.99896h89.907l-0.32346-0.99896z" fill="url(#cy)" fill-rule="evenodd"/><path d="m47.103 493.71c-1.6603 0-2.9969 1.3366-2.9969 2.9969v66.431c0 1.6603 1.3366 2.9969 2.9969 2.9969h93.918c1.6603 0 2.9969-1.3366 2.9969-2.9969v-66.431c0-1.6603-1.3366-2.9969-2.9969-2.9969z" fill="url(#cx)" fill-rule="evenodd"/><rect transform="matrix(.49948 0 0 .49948 29.122 448.26)" x="25" y="76" width="210.45" height="40" fill="url(#g)" fill-rule="evenodd" mask="url(#c)"/><path d="m47.103 493.71c-1.6603 0-2.9969 1.3366-2.9969 2.9969v66.431c0 1.6603 1.3366 2.9969 2.9969 2.9969h9.0063c1.6603 0 2.9969-1.3366 2.9969-2.9969v-66.431c0-1.6603-1.3366-2.9969-2.9969-2.9969z" fill="url(#cw)" fill-rule="evenodd" opacity=".33208"/><path transform="matrix(.49948 0 0 .49948 22.129 434.07)" d="m70 78.188c-3.324-2e-6 -5.0288 2.9939-6 5.7812l-12.531 34.188c-0.33411 0.71391-0.38968 1.4818-0.46875 2.25l93 4v-49.219z" fill="url(#r)" fill-rule="evenodd" filter="url(#v)" opacity=".74717"/><rect x="51.099" y="483.22" width="86.411" height=".99897" fill="url(#cv)" fill-rule="evenodd" opacity=".52453"/><path d="m47.103 543.66c-1.6603 0-2.9969 1.3366-2.9969 2.9969v16.483c0 1.6603 1.3366 2.9969 2.9969 2.9969h93.918c1.6603 0 2.9969-1.3366 2.9969-2.9969v-16.483c0-1.6603-1.3366-2.9969-2.9969-2.9969z" fill="url(#cu)" fill-rule="evenodd" opacity=".28679"/><path d="m47.103 553.65c-1.6603 0-2.9969 1.3366-2.9969 2.9969v6.4933c0 1.6603 1.3366 2.9969 2.9969 2.9969h93.918c1.6603 0 2.9969-1.3366 2.9969-2.9969v-6.4933c0-1.6603-1.3366-2.9969-2.9969-2.9969z" fill="url(#ct)" fill-rule="evenodd" opacity=".20755"/><path d="m137.01 495.71c-1.6603 0-2.9969 1.3366-2.9969 2.9969v64.433c0 1.6603 1.3366 2.9969 2.9969 2.9969h4.0115c1.6603 0 2.9969-1.3366 2.9969-2.9969v-64.433c0-1.6603-1.3366-2.9969-2.9969-2.9969z" fill="url(#cs)" fill-rule="evenodd" opacity=".1"/><path transform="matrix(.49948 0 0 .48233 29.122 449.9)" d="m149 45.031c-3.324 0-5.0288 3.1136-6 6l-14.531 42.625c-0.33411 0.7393-0.38968 1.5482-0.46875 2.3438h99.031l-0.46875-2.3438-15.531-36.095c-0.96949-2.8871-2.676-5.2812-6-5.2812z" fill="url(#q)" fill-rule="evenodd" filter="url(#u)" opacity=".6566"/><path d="m102.06 476.23 39.065 19.62c0.7663 0.44242 3.1672 0.0923 3.1672 0.0923l-8.3373-23.244-35.337-20.393 1.4416 23.923z" fill="url(#cr)" fill-rule="evenodd"/><g transform="matrix(.49948 0 0 .49948 29.122 448.26)" fill-rule="evenodd"><path d="m123.75 79s-76.631 15.376-82.052 16.829c-5.48 1.4684-12.532-0.0119-12.532-0.0119l16.724-46.886 80.747-17.827z" fill="#e9b96e"/><path d="m123.75 78-85.309 17.563c-2.8869 0.77353-8.8031 0.0284-8.8031 0.0284l16.252-47.661 80.747-17.827z" opacity=".16604"/><path d="m123.75 76-94.552 19.466 16.692-49.535 80.747-17.827z" fill="url(#am)"/></g><path d="m102.06 475.73 39.701 19.94c0.51431 0.29694 2.0939 0.20978 2.0939 0.20978l-7.9002-23.681-35.337-20.393z" fill-rule="evenodd" opacity=".15"/><path d="m102.06 474.73 42.232 21.211-8.3373-24.742-35.337-20.393z" fill="url(#cq)" fill-rule="evenodd"/><path d="m60.964 469.23-8.9283 1.9667-8.3351 24.74 17.263-3.5588z" fill="url(#cp)" fill-rule="evenodd" opacity=".45283"/><path d="m92.369 462.29-3.1016 22.284-45.567 11.368 47.232-9.7243z" fill="url(#al)" fill-rule="evenodd" opacity=".2717"/><path d="m100.61 450.8 1.4516 23.928 42.222 21.212-41.035-21.837z" fill="url(#ak)" fill-rule="evenodd" opacity=".55094"/><rect transform="matrix(.49948 0 0 .49948 29.122 449.25)" x="25" y="91" width="210.5" height="149.5" fill="url(#co)" fill-rule="evenodd" mask="url(#h)" opacity=".15"/><path d="m88.748 486.73c-0.44784 0.0955-0.6103 0.3508-0.74922 0.56192s-0.2514 0.39062-0.7024 0.49948c-0.44888 0.10836-0.70669-0.0115-0.99897-0.14047-0.29227-0.12899-0.6275-0.27215-1.1238-0.1717-0.4941 0.1-0.68648 0.346-0.84288 0.56192-0.1564 0.21591-0.2751 0.40166-0.7024 0.49948-0.42238 0.0967-0.70535-0.0319-1.0458-0.1717-0.34044-0.13977-0.72431-0.29258-1.2799-0.1873-0.55487 0.10513-0.82277 0.38343-1.0458 0.62435-0.22302 0.24092-0.41196 0.4528-0.90531 0.5307-0.49639 0.0784-0.76502-0.0504-1.0926-0.1717-0.3276-0.12128-0.70725-0.23207-1.2955-0.0936-0.5898 0.13878-0.81792 0.41659-1.0146 0.65557-0.19665 0.23899-0.36275 0.44486-0.96775 0.57753-0.60712 0.13314-0.91401 0.0446-1.2487-0.0624-0.3347-0.10699-0.70231-0.22987-1.3111-0.10926-0.60676 0.12021-0.90728 0.35093-1.1707 0.56192-0.26339 0.21099-0.4844 0.38849-1.0302 0.48388-0.54986 0.0961-0.93691 0.0451-1.3424-0.0156-0.40545-0.0607-0.83909-0.11847-1.4048-0.0156-0.56992 0.10362-0.78464 0.32837-0.95214 0.51509s-0.27313 0.33188-0.79605 0.40583c-0.52758 0.0746-0.88464 5e-3 -1.2487-0.0624-0.36407-0.0678-0.74113-0.14013-1.2799-0.0312-0.5453 0.11022-0.73813 0.37505-0.85849 0.57753-0.06018 0.10124-0.1147 0.18454-0.18731 0.24974-0.07261 0.0652-0.17832 0.1204-0.37461 0.15609-0.39526 0.0719-0.64837-0.025-0.95214-0.12488-0.30377-0.0999-0.65386-0.19939-1.1238-0.0937-0.47074 0.10592-0.62823 0.3432-0.76483 0.5307-0.1366 0.1875-0.24785 0.34209-0.76483 0.43705-0.51802 0.0951-0.83403 1.7e-4 -1.1707-0.0937-0.33663-0.0938-0.7007-0.19718-1.2643-0.0937-0.56644 0.10405-0.82033 0.35801-1.0302 0.57753s-0.38243 0.40928-0.92092 0.5307c-0.54028 0.12183-0.91644 0.0486-1.3111-0.0312-0.3947-0.0798-0.80404-0.17173-1.3736-0.0624-0.56369 0.10818-0.80102 0.29139-0.96775 0.46827-0.16672 0.17687-0.25424 0.32752-0.63996 0.46826-0.75076 0.27392-1.8106-0.0936-1.8106-0.0936l-0.09365 0.24974s1.0996 0.40012 1.9823 0.078c0.43103-0.15726 0.59863-0.37094 0.74922-0.5307 0.15059-0.15976 0.29828-0.28869 0.82727-0.39022 0.52314-0.1004 0.88271-0.0178 1.2799 0.0624 0.39722 0.0803 0.8349 0.16324 1.4204 0.0312 0.58729-0.13242 0.83624-0.38953 1.0458-0.60874 0.20956-0.21921 0.37451-0.40486 0.8897-0.49948 0.51802-0.0951 0.81842-1.7e-4 1.1551 0.0936 0.33663 0.0938 0.7007 0.18157 1.2643 0.078 0.56465-0.1037 0.79169-0.3319 0.93653-0.5307 0.14484-0.1988 0.21212-0.34429 0.62436-0.43705 0.41299-0.0929 0.68284-5e-3 0.98336 0.0937 0.30052 0.0988 0.62241 0.20752 1.077 0.12487 0.22864-0.0416 0.38964-0.11989 0.49948-0.21853 0.10985-0.0986 0.17704-0.20051 0.23413-0.29656 0.11419-0.19211 0.1946-0.35318 0.68679-0.45266 0.4987-0.1008 0.82465-0.0362 1.1863 0.0312s0.76166 0.14234 1.3268 0.0624c0.56975-0.0806 0.78301-0.29534 0.95214-0.48387 0.16913-0.18854 0.28891-0.35761 0.81166-0.45266 0.52697-0.0958 0.90536-0.0295 1.3111 0.0312 0.40578 0.0607 0.84905 0.11819 1.436 0.0156 0.59104-0.10329 0.87581-0.33513 1.1394-0.54631s0.49822-0.40352 1.0614-0.51509c0.5611-0.11117 0.84771 1e-3 1.1863 0.10926 0.33856 0.10823 0.72247 0.22083 1.3736 0.078 0.65324-0.14325 0.92316-0.42729 1.1238-0.67118 0.20068-0.24389 0.3381-0.45141 0.8741-0.57753 0.5375-0.12647 0.81862-0.0251 1.1394 0.0937 0.32083 0.11877 0.68097 0.25887 1.2331 0.17169 0.55518-0.0877 0.82181-0.35117 1.0458-0.59313s0.41166-0.45277 0.90531-0.54631c0.49291-0.0934 0.80111 0.0328 1.1394 0.17169 0.33834 0.13892 0.70817 0.28472 1.2019 0.1717 0.48878-0.11189 0.68748-0.363 0.84288-0.57752 0.15539-0.21453 0.26938-0.38064 0.7024-0.46827 0.43078-0.0872 0.67229 0.0257 0.96775 0.15609 0.29546 0.13039 0.64371 0.26391 1.1551 0.14048 0.50923-0.12292 0.70036-0.37657 0.84288-0.59314s0.22881-0.38721 0.60874-0.46826c0.75973-0.16208 1.7482 0.32778 1.7482 0.32778l0.10926-0.21852s-1.0241-0.53451-1.9199-0.3434z" fill="url(#aj)"/><path d="m141.79 495.57s-0.47082-1.003-1.2302-1.3767c-0.75942-0.37373-0.90249 0.34266-1.8001-0.0697-0.8976-0.41238-0.62871-1.128-1.473-1.5545-0.84427-0.42655-1.0202 0.27801-1.8694-0.12438-0.84928-0.40239-0.67256-1.2328-1.619-1.7258s-1.3102 0.21805-2.2362-0.30101c-0.92596-0.51905-0.66021-1.195-1.7084-1.6838-1.0481-0.48886-1.1665 0.3032-2.3255-0.25899s-0.83939-1.1816-1.9017-1.7238c-1.0623-0.5422-1.3737 0.0134-2.3895-0.53433-1.0158-0.5477-1.1412-1.2087-2.1224-1.7291-0.98114-0.52038-1.007 0.19-1.9608-0.36505-0.9538-0.55506-0.97706-1.1496-1.9217-1.6271-0.94461-0.47754-0.94765 0.293-1.7108-0.11174-0.76309-0.40474-0.67652-1.0673-1.493-1.4578-0.81643-0.39056-0.84233 0.31981-1.8148-0.19373s-0.82522-1.1283-1.7977-1.6418c-0.97247-0.51354-1.1675 0.16185-2.2088-0.33568s-1.0724-1.2247-2.0604-1.7364c-0.98797-0.51171-0.99622 0.0158-1.8221-0.25573-0.82591-0.27155-1.4363-1.2445-1.4363-1.2445" fill="none" opacity=".60194" stroke="#fbdfb3" stroke-width=".5"/><path d="m103.17 475.57-0.20291 0.14048s0.60581 1.002 1.4984 1.2955c0.43588 0.14331 0.68815 0.0791 0.90532 0.0468 0.21717-0.0322 0.42702-0.0448 0.90531 0.20292 0.47301 0.24499 0.70548 0.53394 0.96775 0.84288 0.26227 0.30893 0.55106 0.63094 1.0926 0.8897 0.54321 0.25955 0.90161 0.21413 1.2019 0.1717 0.30028-0.0424 0.53577-0.0729 0.99897 0.1717 0.46573 0.24594 0.65218 0.49837 0.85849 0.78044 0.2063 0.28207 0.4298 0.59089 0.93653 0.85849 0.50766 0.26808 0.82458 0.22255 1.0614 0.15609 0.23681-0.0665 0.38367-0.15113 0.76483 0.0312 0.38188 0.18268 0.54316 0.42317 0.71801 0.68679 0.17485 0.26363 0.35664 0.56395 0.76483 0.78045 0.2053 0.10888 0.38337 0.13433 0.5307 0.12487 0.14734-9e-3 0.25471-0.0536 0.35901-0.0937 0.20859-0.0802 0.37914-0.1485 0.82727 0.0781 0.45406 0.22954 0.67862 0.47245 0.92092 0.74922s0.50569 0.58704 0.99897 0.8741c0.49734 0.28942 0.79625 0.24629 1.0458 0.20291 0.24954-0.0434 0.45153-0.0929 0.92092 0.15609 0.47318 0.25097 0.73349 0.54399 1.0146 0.84288 0.28109 0.29888 0.58374 0.60691 1.1082 0.8897 0.52811 0.28476 0.89531 0.28362 1.2331 0.28096 0.33778-3e-3 0.64368-0.0113 1.155 0.24974 0.50949 0.26005 0.65959 0.53269 0.85849 0.82727 0.1989 0.29459 0.44604 0.6144 1.0458 0.90532 0.60171 0.29187 0.97135 0.23901 1.2799 0.17169 0.30858-0.0673 0.54677-0.13909 1.0458 0.0937 0.50042 0.23341 0.66444 0.48856 0.84288 0.78044s0.37089 0.61638 0.85848 0.88971c0.49028 0.27483 0.86058 0.22306 1.1863 0.17169 0.32569-0.0514 0.60019-0.0917 1.0458 0.14048 0.44493 0.23179 0.61632 0.52434 0.79605 0.84288s0.36957 0.65723 0.82727 0.8741c0.45314 0.21469 0.77534 0.13472 1.0302 0.0624 0.25484-0.0723 0.44855-0.13679 0.84287 0.0624 0.39229 0.1982 0.50425 0.44831 0.65558 0.73361 0.15132 0.2853 0.33366 0.60766 0.81166 0.82727 0.47601 0.2187 0.7998 0.12869 1.0458 0.0468 0.24599-0.0819 0.41627-0.15593 0.76483 0.0156 0.69837 0.34368 1.1707 1.3268 1.1707 1.3268l0.21852-0.10926s-0.45943-1.0322-1.2799-1.436c-0.41086-0.20219-0.71235-0.11102-0.95214-0.0312-0.2398 0.0798-0.4369 0.14686-0.85849-0.0468-0.41961-0.19278-0.55271-0.43578-0.7024-0.71801-0.1497-0.28222-0.31285-0.5989-0.76483-0.82727-0.44995-0.22733-0.75808-0.1508-1.0146-0.078-0.25649 0.0727-0.46235 0.14086-0.85849-0.0468-0.39157-0.18553-0.53716-0.45992-0.718-0.78044-0.18085-0.32052-0.38818-0.69088-0.88971-0.95214-0.50086-0.26092-0.8776-0.19163-1.2019-0.14048-0.32428 0.0512-0.59451 0.0881-1.0302-0.15609-0.43838-0.24573-0.58263-0.51361-0.76484-0.81166-0.1822-0.29805-0.40442-0.61863-0.95214-0.87409-0.54911-0.25612-0.89949-0.17522-1.2019-0.10927-0.30239 0.066-0.56657 0.12984-1.1238-0.14048-0.55923-0.27126-0.7399-0.53605-0.93653-0.82727s-0.41493-0.62315-0.96775-0.90531c-0.55093-0.28119-0.92685-0.28362-1.2643-0.28096-0.33747 3e-3 -0.63616 0.0132-1.1238-0.24974-0.49133-0.26492-0.76493-0.54424-1.0458-0.84288-0.28086-0.29864-0.56906-0.62029-1.077-0.8897-0.51175-0.27142-0.81426-0.21466-1.0614-0.1717-0.24714 0.0429-0.43324 0.0783-0.8897-0.18731-0.46054-0.26799-0.6926-0.53301-0.93653-0.81166-0.24394-0.27864-0.5084-0.56366-0.99897-0.81166-0.49649-0.25099-0.79472-0.17817-1.0146-0.0937-0.10993 0.0423-0.19918 0.0718-0.29656 0.078-0.0974 6e-3 -0.21397-0.0158-0.39023-0.10926-0.3549-0.18823-0.51004-0.42031-0.68678-0.68679-0.17675-0.26647-0.3771-0.55695-0.81167-0.76483-0.43526-0.20822-0.71317-0.12513-0.93653-0.0624-0.22335 0.0627-0.40929 0.12059-0.87409-0.12487-0.46574-0.24595-0.65219-0.51398-0.85849-0.79605s-0.4298-0.59089-0.93653-0.85849c-0.50927-0.26893-0.85436-0.2298-1.1551-0.1873-0.30069 0.0425-0.56332 0.0975-1.0614-0.14048-0.49973-0.23877-0.75397-0.52029-1.0146-0.82727-0.26061-0.30698-0.53084-0.6386-1.0458-0.90531-0.50966-0.26398-0.80536-0.26984-1.0458-0.23414s-0.406 0.097-0.79605-0.0312c-0.75917-0.24962-1.3736-1.2019-1.3736-1.2019z" fill="url(#ai)" opacity=".60194"/><rect transform="matrix(.49948 0 0 .49948 29.122 448.26)" x="25" y="76" width="210.45" height="40" enable-background="new" fill="url(#f)" fill-rule="evenodd" mask="url(#c)" opacity=".68468"/><rect x="44.106" y="495.88" width="2.0267" height="69.024" rx="1.003" ry="1.0282" fill="url(#cn)" opacity=".74324"/><path d="m54.47 470.67-2.435 0.53071-8.3351 24.74 10.77-2.2165z" enable-background="new" fill="url(#cm)" fill-rule="evenodd" opacity=".55"/><rect transform="scale(-1,1)" x="-143.97" y="495.88" width="2.0267" height="69.024" rx="1.003" ry="1.0282" enable-background="new" fill="url(#cl)" opacity=".77477"/><path d="m133.61 470.67 2.435 0.53071 8.3351 24.74-10.77-2.2165z" enable-background="new" fill="url(#ck)" fill-rule="evenodd" opacity=".77477"/><path transform="matrix(.49948 0 0 .49948 12.139 434.07)" d="m176.12 32 3.4688 42.438h-20.031l1.8125-18.688-81.5 18.594-16.688 49.531 1.0938-0.21875c-0.05438 0.1788-0.11847 0.3457-0.15625 0.53125-0.0017 0.01 0.0016 0.0216 0 0.0312-0.07572 0.38194-0.125 0.78267-0.125 1.1875v133c0 3.324 2.676 6 6 6h188.03c3.324 0 6-2.676 6-6v-133c0-0.6925-0.1298-1.3508-0.34375-1.9688l0.875 0.4375-16.688-49.531z" clip-path="none" enable-background="new" fill="none" filter="url(#do)" opacity=".5" stroke="url(#cj)" stroke-dashoffset=".7" stroke-linecap="round" stroke-width="4.0041"/><path d="m91.838 471.25-0.09365 1.4048h10.193l-0.0937-1.4048h-10.005z" fill="url(#ci)" opacity=".15"/><path d="m91.838 471.25-0.09365 1.4048h10.193l-0.0937-1.4048h-10.005z" enable-background="new" fill="url(#ah)" opacity=".3"/></g><path d="m150.39 492.75-22.265 6.0938-7.3438 18.938 0.96875-0.0937-0.40625 1.2188c-0.13319 0.31596-0.21875 0.66573-0.21875 1.0312v42.5c-1e-5 1.4621 1.1942 2.625 2.6562 2.625h33.202c1.4621-1e-5 2.6562-1.1629 2.6562-2.625l-7.125-58.594-2.125-11.094z" enable-background="new" fill-rule="evenodd" filter="url(#de)" opacity=".56164"/></g><path d="m79.5 176v13.5h48.094l-0.3125-10.969c-0.34869-1.3855-0.96067-2.5312-2.1562-2.5312z" enable-background="new" fill-rule="evenodd" filter="url(#df)" opacity=".80365"/></g><g transform="translate(0,-350)" clip-path="url(#ds)"><path d="m164.77 494.29c-1.4621 0-2.6391 1.1771-2.6391 2.6392v58.501c0 1.4621 1.1771 2.6391 2.6391 2.6392h82.707c1.4621 0 2.6392-1.1771 2.6392-2.6392v-58.501c0-1.4621-1.177-2.6392-2.6392-2.6392z" enable-background="new" fill="url(#ch)" fill-rule="evenodd"/><rect transform="matrix(.43986 0 0 .43986 148.93 454.26)" x="25" y="76" width="210.45" height="40" enable-background="new" fill="url(#g)" fill-rule="evenodd" mask="url(#c)"/><path d="m164.77 494.29c-1.4621 0-2.6391 1.1771-2.6391 2.6392v58.501c0 1.4621 1.1771 2.6391 2.6391 2.6392h7.9312c1.4621 0 2.6392-1.1771 2.6392-2.6392v-58.501c0-1.4621-1.177-2.6392-2.6392-2.6392z" enable-background="new" fill="url(#cg)" fill-rule="evenodd" opacity=".33208"/><path d="m164.77 538.28c-1.4621 0-2.6391 1.1771-2.6391 2.6391v14.515c0 1.4621 1.1771 2.6391 2.6391 2.6392h82.707c1.4621 0 2.6392-1.1771 2.6392-2.6392v-14.515c0-1.4621-1.177-2.6391-2.6392-2.6391z" enable-background="new" fill="url(#cf)" fill-rule="evenodd" opacity=".28679"/><path d="m164.77 547.07c-1.4621 0-2.6391 1.177-2.6391 2.6391v5.7182c0 1.4621 1.1771 2.6391 2.6391 2.6392h82.707c1.4621 0 2.6392-1.1771 2.6392-2.6392v-5.7182c0-1.4621-1.177-2.6391-2.6392-2.6391z" enable-background="new" fill="url(#ce)" fill-rule="evenodd" opacity=".20755"/><path d="m243.94 496.05c-1.4621 0-2.6392 1.1771-2.6392 2.6391v56.742c0 1.4621 1.1771 2.6391 2.6392 2.6392h3.5326c1.4621 0 2.6392-1.1771 2.6392-2.6392v-56.742c0-1.4621-1.177-2.6391-2.6392-2.6391z" enable-background="new" fill="url(#cd)" fill-rule="evenodd" opacity=".1"/><rect transform="matrix(.43986 0 0 .43986 148.93 454.26)" x="25" y="76" width="210.45" height="40" enable-background="new" fill="url(#f)" fill-rule="evenodd" mask="url(#c)" opacity=".68468"/><rect x="162.13" y="496.2" width="1.7847" height="60.784" rx=".88324" ry=".9055" enable-background="new" fill="url(#cc)" opacity=".74324"/><rect transform="scale(-1,1)" x="-250.07" y="496.2" width="1.7847" height="60.784" rx=".88324" ry=".9055" enable-background="new" fill="url(#cb)" opacity=".77477"/><rect transform="matrix(1 0 .25882 .96593 0 0)" x="69.744" y="491.25" width="11.134" height=".76844" rx="0" ry="0" enable-background="new" fill="url(#ca)" opacity=".77477"/><path d="m165.36 474.51c-1.4621 0-1.845 1.3695-1.932 2.6392l-1.3679 18.749c-0.0598 0.32518 0.0111 0.68101 0.07 1.0309h87.985l-0.48241-1.0309-11.5-19.065c-0.76671-1.2699-1.7995-2.323-3.2616-2.323h-69.511z" enable-background="new" fill="url(#bz)" fill-rule="evenodd"/><path d="m163.41 484.17-0.0627 0.87971h79.174l-0.52057-0.87971h-78.591z" enable-background="new" fill="url(#by)" fill-rule="evenodd"/><path transform="matrix(.43986 0 .11786 .43986 127.99 441.77)" d="m70 78.188c-3.324-2e-6 -5.0288 2.9939-6 5.7812l-12.531 34.188c-0.33411 0.71391-0.38968 1.4818-0.46875 2.25l93 4v-49.219z" enable-background="new" fill="url(#r)" fill-rule="evenodd" filter="url(#v)" opacity=".74717"/><rect transform="matrix(1 0 .25882 .96593 0 0)" x="35.132" y="502.16" width="76.095" height=".91075" enable-background="new" fill="url(#bx)" fill-rule="evenodd" opacity=".52453"/><path transform="matrix(.43986 0 .11381 .42476 137.89 455.71)" d="m149 45.031c-3.324 0-5.0288 3.1136-6 6l-14.531 42.625c-0.33411 0.7393-0.38968 1.5482-0.46875 2.3438h99.031l-0.46875-2.3438-15.531-36.095c-0.96949-2.8871-2.676-5.2812-6-5.2812z" enable-background="new" fill="url(#q)" fill-rule="evenodd" filter="url(#u)" opacity=".6566"/><g transform="matrix(.94101 -.22015 .26795 1 -23.622 446.09)"><path d="m223.16 88.896 34.402 17.278c0.67483 0.38961 2.7891 0.0812 2.7891 0.0812l-7.342-20.469-31.118-17.958 1.2696 21.068z" enable-background="new" fill="url(#bw)" fill-rule="evenodd"/><path d="m223.16 88.456 34.962 17.56c0.45291 0.2615 1.844 0.18474 1.844 0.18474l-6.9572-20.854-31.118-17.958z" enable-background="new" fill-rule="evenodd" opacity=".15"/><path d="m223.16 87.577 37.191 18.679-7.342-21.789-31.118-17.958z" enable-background="new" fill="url(#bv)" fill-rule="evenodd"/><path d="m221.89 66.505 1.2783 21.072 37.182 18.68-36.179-19.371z" enable-background="new" fill="url(#ag)" fill-rule="evenodd" opacity=".55094"/><path d="m258.15 105.93s-0.41462-0.88326-1.0834-1.2124c-0.66877-0.32912-0.79476 0.30176-1.5852-0.0614-0.79045-0.36315-0.55366-0.99331-1.2971-1.369-0.74349-0.37563-0.89839 0.24483-1.6463-0.10953-0.7479-0.35435-0.59227-1.0856-1.4258-1.5198-0.83348-0.43419-1.1538 0.19202-1.9692-0.26507-0.81543-0.45709-0.5814-1.0523-1.5044-1.4828-0.923-0.43051-1.0273 0.267-2.0479-0.22807-1.0206-0.49508-0.73919-1.0406-1.6747-1.518-0.93549-0.47748-1.2097 0.01178-2.1043-0.47055-0.89455-0.48232-1.005-1.0644-1.869-1.5227-0.86401-0.45826-0.88681 0.16731-1.7268-0.32148s-0.86043-1.0123-1.6923-1.4329c-0.83185-0.42054-0.83453 0.25801-1.5066-0.09841-0.672-0.35642-0.59576-0.93988-1.3147-1.2838-0.71897-0.34393-0.74178 0.28164-1.5982-0.1706s-0.72671-0.99358-1.5831-1.4458c-0.85639-0.45224-1.0282 0.14253-1.9452-0.29561-0.91698-0.43814-0.94439-1.0785-1.8144-1.5292-0.87003-0.45063-0.8773 0.01393-1.6046-0.22521-0.72732-0.23913-1.2648-1.096-1.2648-1.096" enable-background="new" fill="none" opacity=".60194" stroke="#fbdfb3" stroke-width=".5"/><path d="m224.14 88.315-0.17869 0.12371s0.53349 0.88243 1.3196 1.1409c0.38384 0.1262 0.606 0.06963 0.79725 0.04123 0.19124-0.0284 0.37604-0.03946 0.79724 0.17869 0.41654 0.21575 0.62126 0.47021 0.85222 0.74226 0.23096 0.27206 0.48528 0.55563 0.96219 0.7835 0.47836 0.22857 0.79398 0.18857 1.0584 0.1512s0.47181-0.0642 0.87972 0.1512c0.41013 0.21659 0.57432 0.43889 0.756 0.68728 0.18168 0.2484 0.3785 0.52036 0.82474 0.75601 0.44705 0.23608 0.72614 0.19599 0.93469 0.13745 0.20854-0.05853 0.33787-0.13308 0.67353 0.02749 0.33629 0.16087 0.47832 0.37266 0.6323 0.60481s0.31407 0.49662 0.67353 0.68728c0.18079 0.09588 0.3376 0.1183 0.46735 0.10996 0.12975-0.0083 0.2243-0.04717 0.31615-0.08247 0.18369-0.07061 0.33388-0.13078 0.72852 0.06873 0.39985 0.20214 0.59761 0.41605 0.81098 0.65978 0.21338 0.24373 0.44533 0.51697 0.87972 0.76975 0.43797 0.25487 0.7012 0.21689 0.92095 0.1787 0.21975-0.0382 0.39763-0.08178 0.81099 0.13745 0.41669 0.22101 0.64593 0.47905 0.89346 0.74226 0.24754 0.26321 0.51406 0.53446 0.97594 0.7835 0.46506 0.25076 0.78843 0.24976 1.0859 0.24742 0.29745-0.0023 0.56684-0.0099 1.0172 0.21993 0.44867 0.229 0.58086 0.46909 0.75601 0.72851 0.17516 0.25942 0.3928 0.54105 0.92095 0.79724 0.52988 0.25704 0.8554 0.21048 1.1271 0.15121 0.27174-0.05928 0.4815-0.1225 0.92095 0.0825 0.44068 0.20554 0.58512 0.43024 0.74226 0.68728 0.15714 0.25703 0.32662 0.5428 0.756 0.7835 0.43176 0.24202 0.75785 0.19643 1.0447 0.15119 0.28681-0.0452 0.52854-0.0807 0.92095 0.12371 0.39182 0.20412 0.54275 0.46175 0.70102 0.74226 0.15828 0.28052 0.32546 0.57878 0.72852 0.76976 0.39904 0.18906 0.68278 0.11864 0.90721 0.055 0.22442-0.0637 0.395-0.12046 0.74225 0.055 0.34546 0.17454 0.44406 0.3948 0.57732 0.64604s0.29383 0.53512 0.71477 0.72851c0.41919 0.1926 0.70433 0.11333 0.92095 0.0412 0.21663-0.0721 0.36658-0.13731 0.67353 0.0138 0.615 0.30265 1.0309 1.1684 1.0309 1.1684l0.19244-0.0962s-0.40459-0.909-1.1271-1.2646c-0.36182-0.17806-0.62732-0.0978-0.83848-0.0275-0.21118 0.0703-0.38475 0.12933-0.75601-0.0412-0.36952-0.16976-0.48673-0.38376-0.61855-0.63229-0.13183-0.24853-0.27551-0.52741-0.67353-0.72852-0.39624-0.20019-0.66759-0.1328-0.89347-0.0687-0.22587 0.0641-0.40715 0.12404-0.756-0.0412-0.34483-0.16339-0.47304-0.40502-0.63229-0.68728-0.15927-0.28226-0.34185-0.60841-0.78351-0.83848-0.44107-0.22977-0.77283-0.16875-1.0584-0.12371-0.28557 0.0451-0.52354 0.0776-0.90721-0.13746-0.38604-0.21639-0.51307-0.4523-0.67353-0.71476-0.16045-0.26247-0.35615-0.54479-0.83848-0.76975-0.48356-0.22554-0.79212-0.15431-1.0584-0.09622-0.26629 0.05808-0.49893 0.11433-0.98968-0.12371-0.49247-0.23889-0.65158-0.47206-0.82473-0.72852-0.17316-0.25645-0.3654-0.54876-0.85223-0.79724-0.48516-0.24763-0.81621-0.24976-1.1134-0.24742-0.29719 0.0023-0.56022 0.01164-0.98969-0.21993-0.43267-0.23329-0.67361-0.47927-0.92095-0.74226s-0.50113-0.54625-0.94845-0.7835c-0.45066-0.23901-0.71706-0.18903-0.93469-0.1512-0.21764 0.03783-0.38153 0.06898-0.7835-0.16494-0.40556-0.23601-0.60992-0.46939-0.82473-0.71477-0.21482-0.24538-0.44771-0.49638-0.87972-0.71477-0.43722-0.22104-0.69985-0.1569-0.89346-0.08248-0.0968 0.03722-0.17541 0.06322-0.26116 0.06873-0.0858 0.0055-0.18843-0.01389-0.34365-0.09622-0.31253-0.16576-0.44915-0.37014-0.60479-0.6048-0.15565-0.23467-0.33209-0.49047-0.71478-0.67353-0.3833-0.18337-0.62804-0.11019-0.82473-0.05499-0.19669 0.05521-0.36044 0.10619-0.76975-0.10996-0.41014-0.21659-0.57434-0.45263-0.75601-0.70102-0.18167-0.2484-0.37849-0.52036-0.82473-0.75601-0.44848-0.23683-0.75237-0.20237-1.0172-0.16495-0.26479 0.03743-0.49607 0.08587-0.93469-0.12371-0.44008-0.21027-0.66397-0.45818-0.89346-0.72851-0.2295-0.27033-0.46747-0.56236-0.92096-0.79724-0.44882-0.23247-0.70922-0.23763-0.92095-0.20619s-0.35753 0.08545-0.70102-0.02749c-0.66854-0.21981-1.2096-1.0584-1.2096-1.0584z" enable-background="new" fill="url(#af)" opacity=".60194"/><path d="m250.94 84.003 2.1443 0.46735 7.3401 21.787-9.4844-1.9519z" enable-background="new" fill="url(#bu)" fill-rule="evenodd" opacity=".77477"/></g><path d="m198.15 474.51 0.24901 1.2371h8.9758l-0.41396-1.2371z" enable-background="new" fill="url(#bt)" opacity=".15"/><path d="m198.15 474.51 0.24901 1.2371h8.9758l-0.41396-1.2371z" enable-background="new" fill="url(#ae)" opacity=".3"/><rect transform="matrix(.49948 0 0 .44932 139.12 453.82)" x="25" y="91" width="210.5" height="149.5" enable-background="new" fill="url(#bs)" fill-rule="evenodd" mask="url(#h)" opacity=".15"/><g transform="matrix(1.0309 .11545 .26795 1 -40.681 379.7)"><g transform="matrix(.43986 0 0 .43986 158.93 54.264)" enable-background="new" fill-rule="evenodd"><path d="m123.75 79s-76.631 15.376-82.052 16.829c-5.48 1.4684-12.532-0.0119-12.532-0.0119l16.724-46.886 80.747-17.827z" fill="#e9b96e"/><path d="m123.75 78-85.309 17.563c-2.8869 0.77353-8.8031 0.0284-8.8031 0.0284l16.252-47.661 80.747-17.827z" opacity=".16604"/><path d="m123.75 76-94.552 19.466 16.692-49.535 80.747-17.827z" fill="url(#ad)"/></g><path d="m186.97 72.738-7.8625 1.7319-7.3401 21.787 15.203-3.134z" enable-background="new" fill="url(#br)" fill-rule="evenodd" opacity=".45283"/><path d="m214.63 66.621-2.2044 20.315-40.654 9.3206 41.594-8.5635z" enable-background="new" fill="url(#ac)" fill-rule="evenodd" opacity=".2717"/><path d="m211.44 88.143c-0.39438 0.08413-0.53744 0.30892-0.65978 0.49484-0.12234 0.18591-0.22139 0.34399-0.61855 0.43986-0.39529 0.09541-0.62234-0.01013-0.87972-0.12371-0.25738-0.11359-0.55259-0.23966-0.98968-0.1512-0.43512 0.08806-0.60452 0.30469-0.74226 0.49484-0.13773 0.19014-0.24226 0.35371-0.61855 0.43985-0.37195 0.08515-0.62114-0.02811-0.92095-0.1512-0.2998-0.12309-0.63785-0.25765-1.1271-0.16494-0.48864 0.09258-0.72457 0.33766-0.92096 0.54982-0.1964 0.21215-0.36279 0.39875-0.79724 0.46735-0.43714 0.06902-0.6737-0.0444-0.96219-0.1512-0.28849-0.10681-0.62282-0.20438-1.1409-0.08248-0.51939 0.12221-0.72029 0.36686-0.89346 0.57732-0.17318 0.21046-0.31945 0.39175-0.85223 0.50858-0.53465 0.11725-0.8049 0.03924-1.0996-0.05499-0.29474-0.09421-0.61847-0.20242-1.1546-0.09621-0.53432 0.10586-0.79897 0.30904-1.0309 0.49484-0.23195 0.1858-0.42658 0.34211-0.90722 0.42612-0.48421 0.08462-0.82506 0.03969-1.1821-0.01375s-0.73893-0.10433-1.2371-0.01375c-0.50188 0.09125-0.69096 0.28917-0.83847 0.4536-0.14751 0.16444-0.24053 0.29227-0.70103 0.35739-0.4646 0.0657-0.77903 0.0048-1.0996-0.05498-0.32061-0.05973-0.65266-0.1234-1.1271-0.02749-0.48022 0.09706-0.65003 0.33028-0.75601 0.50859-0.053 0.08915-0.10101 0.16251-0.16495 0.21992-0.0639 0.05741-0.15703 0.10603-0.32989 0.13746-0.34808 0.06328-0.57097-0.02202-0.83848-0.10997-0.2675-0.08794-0.57581-0.17559-0.98968-0.08247-0.41455 0.09327-0.55323 0.30223-0.67353 0.46735-0.1203 0.16511-0.21827 0.30125-0.67353 0.38487-0.45619 0.08379-0.73448 1.5e-4 -1.0309-0.08247-0.29645-0.08262-0.61706-0.17364-1.1134-0.08248-0.49883 0.09163-0.72241 0.31528-0.90721 0.50859-0.1848 0.19332-0.33678 0.36042-0.81099 0.46735-0.47578 0.10729-0.80705 0.04275-1.1546-0.02749-0.34757-0.07024-0.70806-0.15123-1.2096-0.05498-0.4964 0.09526-0.70541 0.2566-0.85223 0.41237-0.14682 0.15576-0.22389 0.28842-0.56357 0.41236-0.66113 0.24122-1.5945-0.08247-1.5945-0.08247l-0.0825 0.21993s0.96833 0.35235 1.7457 0.06872c0.37958-0.13849 0.52717-0.32666 0.65979-0.46735s0.26267-0.25422 0.72851-0.34363c0.46069-0.08842 0.77734-0.01571 1.1271 0.05498 0.34979 0.07069 0.73523 0.14376 1.2508 0.02749 0.51719-0.11662 0.73642-0.34303 0.92096-0.53608 0.18453-0.19304 0.3298-0.35653 0.78349-0.43985 0.45619-0.08379 0.72072-1.5e-4 1.0172 0.08247 0.29644 0.08262 0.61705 0.1599 1.1134 0.06872 0.49726-0.09132 0.69719-0.29228 0.82473-0.46734 0.12756-0.17507 0.18681-0.30319 0.54983-0.38488 0.36369-0.08183 0.60133-0.0045 0.86597 0.08248 0.26464 0.087 0.54811 0.18275 0.94845 0.10996 0.20133-0.03661 0.34312-0.10558 0.43985-0.19244 0.0967-0.08686 0.15591-0.17658 0.20618-0.26116 0.10056-0.16918 0.17138-0.31102 0.60481-0.39862 0.43917-0.08877 0.72621-0.03185 1.0447 0.02749 0.31845 0.05933 0.67073 0.12535 1.1684 0.05498 0.50173-0.07096 0.68954-0.26009 0.83848-0.42611 0.14894-0.16604 0.25442-0.31492 0.71476-0.39863 0.46407-0.08437 0.79729-0.02598 1.1546 0.0275s0.74769 0.10408 1.2646 0.01374c0.52049-0.09096 0.77127-0.29512 1.0034-0.48109 0.23217-0.18597 0.43876-0.35535 0.93471-0.4536 0.49412-0.0979 0.74651 9e-4 1.0447 0.09621 0.29814 0.09531 0.63623 0.19447 1.2096 0.06873 0.57526-0.12615 0.81295-0.37628 0.98967-0.59106 0.17674-0.21477 0.29775-0.39752 0.76976-0.50858 0.47333-0.11138 0.7209-0.02212 1.0034 0.08247s0.59968 0.22797 1.0859 0.1512c0.4889-0.07719 0.7237-0.30925 0.92095-0.52233 0.19724-0.21308 0.36252-0.39872 0.79724-0.4811 0.43407-0.08224 0.70547 0.02888 1.0034 0.15121 0.29795 0.12232 0.62363 0.25072 1.0584 0.1512 0.43044-0.09854 0.60542-0.31967 0.74226-0.50859s0.23723-0.33519 0.61856-0.41237c0.37935-0.07677 0.59203 0.02264 0.85222 0.13746s0.56687 0.2324 1.0172 0.12371c0.44844-0.10824 0.61675-0.33161 0.74226-0.52233s0.2015-0.34099 0.53608-0.41237c0.66903-0.14273 1.5395 0.28866 1.5395 0.28866l0.0962-0.19244s-0.90181-0.4707-1.6907-0.3024z" enable-background="new" fill="url(#ab)"/><path d="m181.25 74.003-2.1443 0.46735-7.3401 21.787 9.4844-1.9519z" enable-background="new" fill="url(#bq)" fill-rule="evenodd" opacity=".55"/></g><path d="m203 463.75 3.5312 10.75h-7.375l-0.71875-3.4062-31.344 3.4062h-1.75c-0.39672 0-0.71529 0.10894-0.96875 0.28125l-0.4375 0.0625-0.0312 0.46875c-0.30591 0.50547-0.42413 1.1926-0.46875 1.8438l-1.375 18.75c-0.0598 0.32519 4e-3 0.68134 0.0625 1.0312v58.5c-1e-5 1.4621 1.1942 2.625 2.6562 2.625h82.688c1.4621 2e-5 2.6562-1.1629 2.6562-2.625v-58.5c0-0.86692-0.45206-1.6132-1.0938-2.0938l0.8125 0.1875-12.75-20.188z" enable-background="new" fill="none" filter="url(#dn)" stroke="url(#bp)" stroke-dashoffset=".7" stroke-linecap="round"/></g><g transform="translate(0,-160)" clip-path="url(#dq)"><g transform="matrix(1 0 0 1.0736 4 -271.63)" clip-path="none" enable-background="new"><g><g transform="matrix(.81771 0 0 1 -80.597 109.75)"><g transform="matrix(1 0 0 .52571 0 240.97)"><path d="m164.77 440.01c-1.4621 0-2.6391 1.256-2.6391 2.8163v62.427c0 1.5602 1.1771 2.8162 2.6391 2.8162h82.707c1.4621 0 2.6392-1.256 2.6392-2.8162v-62.427c0-1.5602-1.177-2.8163-2.6392-2.8163z" enable-background="new" fill="url(#bo)" fill-rule="evenodd"/><path d="m164.77 444.29c-1.4621 0-2.6391 1.1771-2.6391 2.6392v58.501c0 1.4621 1.1771 2.6391 2.6391 2.6392h7.9312c1.4621 0 2.6392-1.1771 2.6392-2.6392v-58.501c0-1.4621-1.177-2.6392-2.6392-2.6392z" enable-background="new" fill="url(#bn)" fill-rule="evenodd" opacity=".33208"/><path d="m164.77 488.28c-1.4621 0-2.6391 1.1771-2.6391 2.6391v14.515c0 1.4621 1.1771 2.6391 2.6391 2.6392h82.707c1.4621 0 2.6392-1.1771 2.6392-2.6392v-14.515c0-1.4621-1.177-2.6391-2.6392-2.6391z" enable-background="new" fill="url(#bm)" fill-rule="evenodd" opacity=".28679"/><path d="m164.77 497.07c-1.4621 0-2.6391 1.177-2.6391 2.6391v5.7182c0 1.4621 1.1771 2.6391 2.6391 2.6392h82.707c1.4621 0 2.6392-1.1771 2.6392-2.6392v-5.7182c0-1.4621-1.177-2.6391-2.6392-2.6391z" enable-background="new" fill="url(#bl)" fill-rule="evenodd" opacity=".20755"/><path d="m243.94 446.05c-1.4621 0-2.6392 1.1771-2.6392 2.6391v56.742c0 1.4621 1.1771 2.6391 2.6392 2.6392h3.5326c1.4621 0 2.6392-1.1771 2.6392-2.6392v-56.742c0-1.4621-1.177-2.6391-2.6392-2.6391z" enable-background="new" fill="url(#bk)" fill-rule="evenodd" opacity=".1"/><rect x="162.13" y="443.35" width="1.7847" height="63.638" rx=".88324" ry=".948" enable-background="new" fill="url(#bj)" opacity=".74324"/><rect transform="scale(-1,1)" x="-250.07" y="446.2" width="1.7847" height="60.784" rx=".88324" ry=".9055" enable-background="new" fill="url(#bi)" opacity=".77477"/></g><g transform="matrix(1 0 0 1.0162 0 30.766)" fill-rule="evenodd"><path d="m173.2 418.69c-1.4621 0-2.212 1.3695-2.6392 2.6392l-8.2261 14.567c-0.14696 0.32518-0.17141 0.68101-0.20619 1.0309h87.985l-0.20618-1.0309-0.56107-14.883c-0.42643-1.2699-1.177-2.323-2.6392-2.323z" enable-background="new" fill="url(#bh)"/><rect transform="matrix(.43986 0 0 .43986 148.93 394.26)" x="25" y="76" width="210.45" height="40" enable-background="new" fill="url(#g)" mask="url(#c)"/><rect transform="matrix(.43986 0 0 .43986 148.93 394.26)" x="28.823" y="76" width="206.63" height="40" enable-background="new" fill="url(#f)" mask="url(#c)" opacity=".68468"/></g></g><path d="m61.029 566.01c-1.1956 0-1.8087 1.3918-2.1581 2.682l-6.7265 14.804c-0.12017 0.33046-0.14016 0.69208-0.1686 1.0477h71.947l-0.16859-1.0477-0.4588-15.125c-0.34869-1.2906-0.96248-2.3607-2.1581-2.3607z" enable-background="new" fill="url(#bg)" fill-rule="evenodd"/><rect transform="matrix(.49948 0 0 .44932 24.872 543.57)" x="47.523" y="92.669" width="156.44" height="78.281" enable-background="new" fill="url(#p)" fill-rule="evenodd" mask="url(#h)" opacity=".15"/></g><path d="m61.031 566c-1.1956 0-1.8069 1.3973-2.1562 2.6875l-6.25 13.75c-0.40887 0.2691-0.65625 0.67254-0.65625 1.0938v32.812c0 0.82022 0.96069 1.4687 2.1562 1.4688h67.625c1.1956 0 2.1875-0.64854 2.1875-1.4688v-32.812c0-0.21941-0.095-0.43805-0.21875-0.625l-0.4375-14.531c-0.3487-1.2906-0.96067-2.375-2.1562-2.375z" enable-background="new" fill="none" filter="url(#dl)" stroke="url(#bf)" stroke-dashoffset=".7" stroke-linecap="round" stroke-width=".96513"/></g><path d="m112.94 376c-1.1956 0-1.8069 1.3973-2.1562 2.6875l-2.375 15.062c-0.12018 0.33045-0.15906 0.67566-0.1875 1.0312h0.0312c-0.0126 0.0628-0.0312 0.12231-0.0312 0.1875v0.53125h23.281v-19.5z" enable-background="new" fill="url(#be)" fill-rule="evenodd" filter="url(#dg)"/></g><g transform="translate(4)" clip-path="url(#dr)"><g clip-path="none"><g><path d="m106.38 233.54c-1.1956 0-2.1581 0.63725-2.1581 1.4288v31.672c0 0.79156 0.9625 1.4288 2.1581 1.4288h67.631c1.1956 0 2.1581-0.63724 2.1581-1.4288v-31.672c0-0.79156-0.96249-1.4288-2.1581-1.4288z" enable-background="new" fill="url(#bd)" fill-rule="evenodd"/><path d="m106.38 257.66c-1.1956 0-2.1581 0.61879-2.1581 1.3874v7.6308c0 0.76863 0.9625 1.3874 2.1581 1.3874h67.631c1.1956 0 2.1581-0.61879 2.1581-1.3874v-7.6308c0-0.76863-0.96249-1.3874-2.1581-1.3874z" enable-background="new" fill="url(#bc)" fill-rule="evenodd" opacity=".28679"/><path d="m106.38 262.29c-1.1956 0-2.1581 0.61878-2.1581 1.3874v3.0061c0 0.76863 0.9625 1.3874 2.1581 1.3874h67.631c1.1956 0 2.1581-0.61879 2.1581-1.3874v-3.0061c0-0.76864-0.96249-1.3874-2.1581-1.3874z" enable-background="new" fill="url(#bb)" fill-rule="evenodd" opacity=".20755"/><g transform="matrix(1 0 0 1.0336 10 -8.9945)"><path d="m96.384 234.54c-1.1956 0-2.1581 0.61879-2.1581 1.3874v30.755c0 0.76863 0.9625 1.3874 2.1581 1.3874h6.4854c1.1956 0 2.1581-0.61879 2.1581-1.3874v-30.755c0-0.76864-0.96248-1.3874-2.1581-1.3874z" enable-background="new" fill="url(#ba)" fill-rule="evenodd" opacity=".33208"/><rect x="94.226" y="235.55" width="1.4594" height="31.955" rx=".72223" ry=".47603" enable-background="new" fill="url(#az)" opacity=".74324"/></g><g transform="matrix(1 0 0 1.0498 -10 -13.361)"><path d="m181.13 235.47c-1.1956 0-2.1581 0.61879-2.1581 1.3874v29.83c0 0.76863 0.9625 1.3874 2.1581 1.3874h2.8886c1.1956 0 2.1581-0.61879 2.1581-1.3874v-29.83c0-0.76863-0.96249-1.3874-2.1581-1.3874z" enable-background="new" fill="url(#ay)" fill-rule="evenodd" opacity=".1"/><rect transform="scale(-1,1)" x="-186.14" y="235.55" width="1.4594" height="31.955" rx=".72223" ry=".47603" enable-background="new" fill="url(#ax)" opacity=".77477"/></g><path d="m108.94 216.01c-1.1956 0-1.8087 1.3918-2.1581 2.682l-2.3856 15.054c-0.12018 0.33046-0.14017 0.69208-0.16861 1.0477h71.947l-0.16859-1.0477-3.7695-15.375c-0.3487-1.2906-0.96249-2.3607-2.1581-2.3607z" enable-background="new" fill="url(#aw)" fill-rule="evenodd"/><rect transform="matrix(.35968 0 0 .447 93.435 191.44)" x="25" y="76" width="210.45" height="40" enable-background="new" fill="url(#g)" fill-rule="evenodd" mask="url(#c)"/><path d="m108.94 216.01c-1.1956 0-1.8087 1.3918-2.1581 2.682l-2.3856 15.054c-0.12018 0.33046-0.14017 0.69208-0.16861 1.0477h71.947l-0.16859-1.0477-3.7695-15.375c-0.3487-1.2906-0.96249-2.3607-2.1581-2.3607z" enable-background="new" fill="url(#av)" fill-rule="evenodd"/><rect transform="matrix(.35968 0 0 .447 93.435 191.44)" x="25" y="76" width="210.45" height="40" enable-background="new" fill="url(#f)" fill-rule="evenodd" mask="url(#c)" opacity=".68468"/></g><path d="m108.94 216c-1.1956 0-1.8069 1.3973-2.1562 2.6875l-2.375 15.062c-0.12018 0.33045-0.15906 0.67566-0.1875 1.0312h0.0312c-0.0126 0.0628-0.0312 0.12231-0.0312 0.1875v31.688c0 0.79155 0.96069 1.4062 2.1562 1.4062h67.625c1.1956 1e-5 2.1875-0.61469 2.1875-1.4062v-31.688c0-0.0652-0.0186-0.12468-0.0312-0.1875h0.0312l-0.1875-1.0312-3.7812-15.375c-0.3487-1.2906-0.96068-2.375-2.1562-2.375z" enable-background="new" fill="none" filter="url(#dm)" stroke="url(#au)" stroke-dashoffset=".7" stroke-linecap="round"/></g><rect transform="matrix(.49948 0 0 .44932 77.872 193.57)" x="47.523" y="92.669" width="156.44" height="78.281" enable-background="new" fill="url(#p)" fill-rule="evenodd" mask="url(#h)" opacity=".15"/></g><rect x="109.19" y="234.79" width="70" height=".6875" rx="1.4351" ry=".6875" fill="url(#aa)" opacity=".42308"/><rect x="143.62" y="216.03" width=".25" height="18.787" fill-opacity=".96078" opacity=".18803"/><rect x="56.5" y="195.92" width="70" height=".6875" rx="1.4351" ry=".6875" enable-background="new" fill="url(#z)" opacity=".38034"/><rect transform="matrix(1 0 -.14906 .98883 0 0)" x="121.64" y="177.98" width=".42678" height="20.162" enable-background="new" fill-opacity=".96078" opacity=".18803"/><rect transform="matrix(1 0 -.14906 .98883 0 0)" x="122.08" y="177.98" width=".42678" height="20.162" enable-background="new" fill="url(#y)" opacity=".54701"/><rect x="143.81" y="216.03" width=".25" height="18.787" enable-background="new" fill="url(#x)" opacity=".46581"/></g></g></g></svg>
