<?xml version="1.0" encoding="UTF-8"?>
<svg enable-background="new" version="1.0" viewBox="0 0 256 256" xmlns="http://www.w3.org/2000/svg" xmlns:xlink="http://www.w3.org/1999/xlink"><defs><filter id="x" x="-.034675" y="-.2225" width="1.0694" height="1.445" color-interpolation-filters="sRGB"><feGaussianBlur stdDeviation="2.225"/></filter><clipPath id="as"><path d="m92 56-20 24v180h144v-180l-20-24z" color="#000000" enable-background="accumulate"/></clipPath><filter id="an" color-interpolation-filters="sRGB"><feGaussianBlur stdDeviation="0.87"/></filter><filter id="z" color-interpolation-filters="sRGB"><feGaussianBlur stdDeviation="0.96"/></filter><filter id="aa" color-interpolation-filters="sRGB"><feGaussianBlur stdDeviation="0.96"/></filter><linearGradient id="n" x1="136" x2="136" y1="270.01" y2="188.12" gradientTransform="matrix(.83333 0 0 .72 24 60.8)" gradientUnits="userSpaceOnUse"><stop stop-color="#fff" offset="0"/><stop stop-color="#fff" stop-opacity="0" offset="1"/></linearGradient><clipPath id="ar"><rect x="84" y="92" width="120" height="72" color="#000000" enable-background="accumulate"/></clipPath><filter id="ab" color-interpolation-filters="sRGB"><feGaussianBlur stdDeviation="0.48"/></filter><mask id="l" maskUnits="userSpaceOnUse"><rect transform="scale(1,-1)" x="120" y="-127.04" width="48" height="25.042" color="#000000" enable-background="accumulate" fill="url(#m)"/></mask><linearGradient id="m" x1="143.1" x2="143.1" y1="112.1" y2="117.5" gradientTransform="matrix(1.1685 0 0 1.6741 -24.797 -307.85)" gradientUnits="userSpaceOnUse"><stop offset="0"/><stop stop-color="#fff" offset="1"/></linearGradient><filter id="ae" x="-.080582" y="-.23491" width="1.1612" height="1.4698" color-interpolation-filters="sRGB"><feGaussianBlur stdDeviation="1.2786157"/></filter><filter id="af" color-interpolation-filters="sRGB"><feGaussianBlur stdDeviation="0.25054962"/></filter><filter id="ah" x="-.0675" y="-.54" width="1.135" height="2.08" color-interpolation-filters="sRGB"><feGaussianBlur stdDeviation="0.9"/></filter><filter id="ag" color-interpolation-filters="sRGB"><feGaussianBlur stdDeviation="0.12786157"/></filter><filter id="ad" x="-.1275" y="-.306" width="1.255" height="1.612" color-interpolation-filters="sRGB"><feGaussianBlur stdDeviation="1.9125"/></filter><clipPath id="aq"><path d="m129.12 127.94a4.0004 4.0004 0 0 0-4 3.0938l-1 4a4.0004 4.0004 0 0 0 3.875 4.9688h32a4.0004 4.0004 0 0 0 3.875-4.9688l-1-4a4.0004 4.0004 0 0 0-7.875 0.96875h-22a4.0004 4.0004 0 0 0-3.875-4.0625z" color="#000000" enable-background="new" fill="#eeeeec" style="text-decoration-line:none;text-indent:0;text-transform:none"/></clipPath><filter id="ai" x="-.0675" y="-.54" width="1.135" height="2.08" color-interpolation-filters="sRGB"><feGaussianBlur stdDeviation="0.9"/></filter><filter id="ap" color-interpolation-filters="sRGB"><feGaussianBlur stdDeviation="0.38262056"/></filter><filter id="ao" color-interpolation-filters="sRGB"><feGaussianBlur stdDeviation="0.39038834"/></filter><filter id="ac" color-interpolation-filters="sRGB"><feGaussianBlur stdDeviation="0.1625"/></filter><linearGradient id="b" x1="306.57" x2="335.06" y1="59.683" y2="81.257" gradientTransform="matrix(5.3333 0 0 5.3333 -1562.7 -228)" gradientUnits="userSpaceOnUse"><stop stop-color="#babdb6" offset="0"/><stop stop-color="#fff" offset=".16058"/><stop stop-color="#eeeeec" offset=".37341"/><stop stop-color="#dadcd8" offset=".58624"/><stop stop-color="#eeeeec" offset=".71557"/><stop stop-color="#888a85" offset="1"/></linearGradient><filter id="w"><feGaussianBlur stdDeviation="1.92"/></filter><radialGradient id="a" cx="86.125" cy="94.25" r=".625" gradientUnits="userSpaceOnUse"><stop stop-color="#fff" offset="0"/><stop stop-color="#fff" stop-opacity="0" offset="1"/></radialGradient><filter id="y" x="-.072438" y="-.46481" width="1.1449" height="1.9296"><feGaussianBlur stdDeviation="4.6481118"/></filter><filter id="aj" color-interpolation-filters="sRGB"><feGaussianBlur stdDeviation="0.87"/></filter><filter id="ak" color-interpolation-filters="sRGB"><feGaussianBlur stdDeviation="0.87"/></filter><filter id="am" color-interpolation-filters="sRGB"><feGaussianBlur stdDeviation="0.87"/></filter><filter id="al" color-interpolation-filters="sRGB"><feGaussianBlur stdDeviation="0.87"/></filter><linearGradient id="t" x1="306.5" x2="333.5" y1="64.365" y2="85.346" gradientTransform="matrix(5.3333 0 0 5.3333 -1562.7 -228)" gradientUnits="userSpaceOnUse"><stop stop-color="#e2e3e0" offset="0"/><stop stop-color="#fff" offset=".16058"/><stop stop-color="#eeeeec" offset=".37341"/><stop stop-color="#c5c6c4" offset=".58624"/><stop stop-color="#eeeeec" offset=".71557"/><stop stop-color="#888a85" offset="1"/></linearGradient><linearGradient id="s" x1="73.479" x2="252.02" y1="85.42" y2="37.58" gradientUnits="userSpaceOnUse"><stop stop-color="#babdb6" offset="0"/><stop stop-color="#fff" offset=".16058"/><stop stop-color="#eeeeec" offset=".37341"/><stop stop-color="#babdb6" offset=".58624"/><stop stop-color="#eeeeec" offset=".71557"/><stop stop-color="#888a85" offset="1"/></linearGradient><radialGradient id="k" cx="144" cy="144.2" r="72" gradientTransform="matrix(2.2628 0 0 .27812 -181.84 41.394)" gradientUnits="userSpaceOnUse"><stop stop-color="#fff" offset="0"/><stop stop-color="#fff" stop-opacity="0" offset="1"/></radialGradient><radialGradient id="j" cx="119.84" cy="81.462" r="70" gradientTransform="matrix(2.5253 -.125 .0091814 .18549 -209.26 70.37)" gradientUnits="userSpaceOnUse"><stop stop-color="#fff" offset="0"/><stop stop-color="#fff" stop-opacity="0" offset="1"/></radialGradient><linearGradient id="r" x1="136" x2="136" y1="270.01" y2="188.12" gradientUnits="userSpaceOnUse"><stop stop-color="#fff" offset="0"/><stop stop-color="#fff" stop-opacity="0" offset="1"/></linearGradient><radialGradient id="i" cx="136.57" cy="79.66" r="73" gradientTransform="matrix(2.9009 0 0 1.2263 -262.43 -18.042)" gradientUnits="userSpaceOnUse"><stop stop-color="#fff" offset="0"/><stop stop-color="#d3d7cf" offset="1"/></radialGradient><linearGradient id="q" x1="148.62" x2="134" y1="161.58" y2="50.5" gradientUnits="userSpaceOnUse"><stop stop-color="#2e3436" offset="0"/><stop stop-color="#babdb6" offset="1"/></linearGradient><radialGradient id="h" cx="144" cy="267.24" r="73" gradientTransform="matrix(1 0 0 1.1246 0 -32.028)" gradientUnits="userSpaceOnUse"><stop stop-color="#fff" offset="0"/><stop stop-color="#fff" stop-opacity="0" offset="1"/></radialGradient><radialGradient id="g" cx="140.56" cy="180.14" r="70" gradientTransform="matrix(3.5136 .94147 -.33646 1.2557 -304.76 -179.04)" gradientUnits="userSpaceOnUse"><stop stop-color="#fff" offset="0"/><stop stop-color="#fff" stop-opacity="0" offset="1"/></radialGradient><radialGradient id="f" cx="85" cy="128.16" r="1" gradientTransform="matrix(41.251 0 0 36.508 -3303.3 -4546.7)" gradientUnits="userSpaceOnUse"><stop stop-color="#fff" stop-opacity=".302" offset="0"/><stop stop-color="#fff" stop-opacity="0" offset="1"/></radialGradient><radialGradient id="e" cx="85" cy="128" r="1" gradientTransform="matrix(41.251 0 0 37 -3421.3 -4608)" gradientUnits="userSpaceOnUse"><stop stop-color="#fff" offset="0"/><stop stop-color="#fff" stop-opacity="0" offset="1"/></radialGradient><radialGradient id="d" cx="144" cy="166" r="61.5" gradientTransform="matrix(2.1755 0 0 .55285 -169.27 1.2276)" gradientUnits="userSpaceOnUse"><stop stop-color="#fff" offset="0"/><stop stop-color="#d3d7cf" offset="1"/></radialGradient><radialGradient id="c" cx="144" cy="267.24" r="73" gradientTransform="matrix(.76712 0 0 1.1246 33.534 -127.03)" gradientUnits="userSpaceOnUse"><stop stop-color="#fff" offset="0"/><stop stop-color="#fff" stop-opacity="0" offset="1"/></radialGradient><linearGradient id="p" x1="171" x2="154.5" y1="147.75" y2="114.48" gradientUnits="userSpaceOnUse"><stop stop-color="#2e3436" offset="0"/><stop stop-color="#888a85" offset="1"/></linearGradient><linearGradient id="o" x1="130.75" x2="130.75" y1="140.3" y2="153.94" gradientUnits="userSpaceOnUse"><stop offset="0"/><stop stop-opacity="0" offset="1"/></linearGradient></defs><g transform="translate(-16,-28)"><g><g transform="translate(270)" enable-background="new" fill="none"><g transform="translate(-270)"><path d="m89.486 54.25h108.59v186.95h-108.59z" color="#000000" enable-background="accumulate"/><path d="m89.26 239.41-21.054 24.703h151.59l-21.054-24.703z" color="#000000" enable-background="accumulate"/></g><g transform="translate(-90)"><path transform="matrix(.98009 0 0 .9583 -177.06 169.6)" d="m104.14 56-16.939 24h115.5l-16.939-24z" color="#000000" enable-background="accumulate" filter="url(#aj)"/><path d="m-75.014 169.25h80.091v53.955h-80.091z" color="#000000" enable-background="accumulate"/><path d="m-75 169.25-16.594 23v54l16.594-23zm79.981 0v54l16.594 23v-54z" color="#000000" enable-background="accumulate" filter="url(#ak)"/></g><g transform="matrix(.45616 -.83273 .83273 .45616 -127.28 228.43)"><g fill="none"><g transform="matrix(.90733 0 0 .92689 3.1488 4.0249)"><path d="m24.634 27.484c-0.23794 0.67566 0.18248 1.2486 0.86419 1.6183 1.4041 0.76146 2.9261-0.16796 3.3704-1.6524 0.79211-2.6467-0.23794-4.7187-2.4422-5.7976-4.2113-2.0612-8.4598 1.4656-9.9192 5.3944-2.2043 5.9338 2.2166 12.469 8.3645 14.012 9.2139 2.3115 18.113-4.5654 20.152-13.198 2.9304-12.409-6.5571-24.607-18.736-26.843-8.8171-1.6183-19.107 1.1295-25.9 7.0467 1 10 7.752 15.435 15.252 19.435"/><path d="m25.736 28.024c0.5 0.5 1.5124 0.37402 1.9854-0.71728 0.49156-1.134 0.49156-3.4279-1.6173-4.5681-3.397-1.8366-7.7472 1.0452-8.9069 5.626-1.2222 4.8273 2.993 10.591 7.9529 11.669 8.7291 1.8968 16.737-4.1258 18.778-12.479 2.7481-11.247-5.4581-22.737-17.641-25.423-7.1724-1.5817-18.185 0.53944-24.798 6.4732 1.1369 8.8694 7.6218 14.167 14.269 17.807" opacity=".4902"/><path transform="matrix(1.1021 0 0 1.0789 -.16395 -2.1847)" d="m21.938 4.8125c1.8147 4.6345 2.7209 10.189 0.90625 15.75 1.1653 0.60827 2.7295 1.2042 3.1562 1.8125 2.2582-8.3258 1.3751-13.859-4.0625-17.562zm-9.9375 0.6875c3 3.5 7.1077 9.7227 7 15.5 1.3816-0.33772 2.2366-0.98961 3.5-0.5-0.5-7-4-14-10.5-15zm18.094 2.0937c-0.35561 6.1855-1.3567 10.647-3.625 15.281 0.52931 0.9178 1.3123 1.8168 1.0938 2.8438-0.03998 0.17323-0.11461 0.37991-0.21875 0.5625-6e-3 0.01018-0.02503 0.02104-0.03125 0.03125l-0.6875 2.0312c-0.02972 0.01142-0.06608 0.04647-0.09375 0.0625-0.0139 0.0079-0.04809 0.02456-0.0625 0.03125l-1.8125 1.4062c3.6293 0.46345 12.685-2.7824 14.5-8.3438-3.6787 2.8527-6.5794 3.9931-10.438 5.5625 2.722-1.7669 8.6412-6.5117 8.1875-13-2.4996 4.6851-5.7402 8.1513-8.6875 11.156 2.325-3.7365 6.4116-10.21 1.875-17.625z"/><path d="m19.626 1.2043c-6.8934 0.26607-13.531 2.6194-18.626 7.0573 0.19194 1.9194 3.4489 9.409 5.4489 11.909 11.5 3 13.19-21.705 36.69-5.2047-3.5-6.5-7.7346-10.898-15.235-12.898-2.21-0.58933-5.9805-0.95246-8.2783-0.86377z" opacity=".57255"/></g><path d="m19.568 34.474c5.7177 8.0707 24.248 0.43686 22.811-13.505 1.9237 7.7786-1.3559 14.729-6.6476 17.984-5.5611 3.4205-13.054 2.9704-16.163-4.4786z" opacity=".5"/></g></g><g transform="translate(-90,-90)" enable-background="new"><path transform="matrix(.98009 0 0 .9583 -177.06 169.6)" d="m104.14 56-16.939 24h115.5l-16.939-24z" color="#000000" enable-background="accumulate" filter="url(#am)"/><path d="m-75.014 169.25h80.091v53.955h-80.091z" color="#000000" enable-background="accumulate"/><path d="m-75 169.25-16.594 23v54l16.594-23zm79.981 0v54l16.594 23v-54z" color="#000000" enable-background="accumulate" filter="url(#al)"/></g></g><g transform="matrix(1.1226 0 0 1.1226 -17.651 -30.669)"><g transform="matrix(1.0527 0 0 1.0293 -7.5865 -3.2306)"><g opacity=".76923"><path transform="matrix(1 0 0 1.056 0 -12.98)" d="m88.389 237-21.389 24h154l-21.389-24z" color="#000000" enable-background="accumulate" filter="url(#x)" opacity=".4"/><path transform="matrix(1 0 0 1.0791 7.626e-6 -17.92)" d="m88.389 239-21.389 24h154l-21.389-24z" color="#000000" enable-background="accumulate" filter="url(#y)" opacity=".2"/></g><g clip-path="url(#as)" enable-background="new"><path d="m92 56-20 24v180h144v-180l-20-24z" color="#000000" enable-background="accumulate" fill="url(#t)"/><path d="m92 56-20 24h144l-20-24z" color="#000000" enable-background="accumulate" fill="url(#s)"/><path d="m92 56-20 24h144l-20-24z" color="#000000" enable-background="accumulate" fill="url(#k)"/><path d="m213 80-20-24m-98 0-20 24" color="#000000" enable-background="accumulate" fill="none" opacity=".5" stroke="url(#j)" stroke-linecap="round" stroke-width="1.9214"/><path d="m72 160v100h144v-100z" color="#000000" enable-background="accumulate" fill="url(#r)"/><path d="m72 80v180h144v-180z" color="#000000" enable-background="accumulate" fill="#555753" opacity=".2"/><path d="m72 80h144" enable-background="new" fill="none" stroke="url(#i)" stroke-width="1.9214"/><path d="m92 56-20 24v180h144v-180l-20-24z" color="#000000" enable-background="accumulate" fill="none" filter="url(#an)" stroke="url(#q)" stroke-width="1.9214"/><path d="m72 257h144" enable-background="new" fill="none" stroke="url(#h)" stroke-width="1.9214"/></g><path d="m213 256v-176m-138 0v176" color="#000000" enable-background="accumulate" fill="#888a85" stroke="url(#g)" stroke-width="1.9214"/><g transform="matrix(1.0667 0 0 1.0667 -17.131 -20.437)" enable-background="new"><circle transform="matrix(2.4 0 0 2.4 -120.58 -131.95)" cx="86.125" cy="94.25" r=".625" color="#000000" enable-background="accumulate" fill="#fff"/><circle transform="matrix(6 0 0 6 -430.62 -471.25)" cx="86.125" cy="94.25" r=".625" color="#000000" enable-background="accumulate" fill="url(#a)"/></g></g><g transform="matrix(1.0271 0 0 1.0271 -3.9048 -3.4821)"><rect x="84" y="93" width="120" height="72" color="#000000" enable-background="accumulate" filter="url(#z)" opacity=".5"/><path d="m84 92v72h120v-72z" color="#000000" enable-background="accumulate" fill="url(#b)"/><g id="u" clip-path="url(#ar)" enable-background="new"><path d="m203 92v72" color="#000000" enable-background="accumulate" fill="none" stroke="url(#f)" stroke-width="1.9471"/><path d="m85 92v72" color="#000000" enable-background="accumulate" fill="none" stroke="url(#e)" stroke-width="1.9471"/><path d="m84 93h120" enable-background="new" fill="none" stroke="url(#d)" stroke-width="1.9471"/><path d="m85 93h120v72h-120z" color="#000000" enable-background="accumulate" fill="none" filter="url(#w)" opacity=".66578" stroke="#fff" stroke-width="5.8414"/><path d="m88.767 162h110.47" enable-background="new" fill="none" opacity=".3" stroke="url(#c)" stroke-width="1.9471"/><path d="m84 92h120v72h-120z" color="#000000" enable-background="accumulate" fill="none" filter="url(#ab)" stroke="url(#p)" stroke-width="1.9471"/></g><g id="v" transform="matrix(1.1227 0 0 1.1227 -17.92 -16.65)" enable-background="new"><g transform="matrix(1,0,0,-1,0,240)" filter="url(#ae)" mask="url(#l)" opacity=".7"><path d="m155.12 111.03-0.25 1.9688h-21.594l-0.34375-2.7812m-7.875 1.5625 1 4c0.35895 1.8017 2.1004 3.2253 3.9375 3.2188h28c1.7662-3e-3 3.4471-1.3176 3.875-3.0312l1-3" color="#000000" enable-background="new" fill="none" filter="url(#af)" stroke="#d3d7cf" stroke-width=".86714" style="text-decoration-line:none;text-indent:0;text-transform:none"/><path d="m129 113 1 4h28l1-4" enable-background="new" fill="none" filter="url(#ah)" stroke="#fff" stroke-linecap="round" stroke-linejoin="round" stroke-width="3.4685"/><path d="m128.94 106.94a4.0004 4.0004 0 0 0-3.875 4.8438l1 5a4.0004 4.0004 0 0 0 3.9375 3.2188h28a4.0004 4.0004 0 0 0 3.875-3.0312l1-4a4.0004 4.0004 0 1 0-7.75-1.9375l-0.25 0.96875h-21.594l-0.34375-1.7812a4.0004 4.0004 0 0 0-4-3.2812z" color="#000000" enable-background="new" fill="none" filter="url(#ag)" stroke="#2e3436" stroke-width=".43357" style="text-decoration-line:none;text-indent:0;text-transform:none"/></g><path d="m129 133 4 14h30l-4-14" enable-background="new" fill="none" filter="url(#ad)" opacity=".2" stroke="url(#o)" stroke-linecap="round" stroke-linejoin="round" stroke-width="6.9371"/><g clip-path="url(#aq)"><path d="m129 131-1 5h32l-1-4" fill="none" stroke="#888a85" stroke-linecap="round" stroke-linejoin="round" stroke-width="6.9371"/><path d="m129 130-1 4h32l-1-4" enable-background="new" fill="none" filter="url(#ai)" stroke="#fff" stroke-linecap="round" stroke-linejoin="round" stroke-width="3.4685"/><path d="m129.12 127.94c-1.824-0.0472-3.5871 1.3164-4 3.0938l-1 3c-0.58543 2.3466 1.4565 4.9649 3.875 4.9688h32c2.4185-4e-3 4.4604-2.6222 3.875-4.9688l-1-3c-0.4782-1.8622-2.4549-3.2102-4.3631-2.9755-1.9082 0.23475-3.4993 3.0216-3.5119 4.9442h-22c0.0332-2.074-1.8017-4.9977-3.875-5.0625z" color="#000000" enable-background="new" fill="none" filter="url(#ap)" stroke="#d3d7cf" stroke-width=".86714" style="text-decoration-line:none;text-indent:0;text-transform:none"/><path d="m129.12 127.94a4.0004 4.0004 0 0 0-4 3.0938l-1 4a4.0004 4.0004 0 0 0 3.875 4.9688h32a4.0004 4.0004 0 0 0 3.875-4.9688l-1-4a4.0004 4.0004 0 0 0-7.875 0.96875h-22a4.0004 4.0004 0 0 0-3.875-4.0625z" color="#000000" enable-background="new" fill="none" filter="url(#ao)" stroke="#2e3436" stroke-width=".52028" style="text-decoration-line:none;text-indent:0;text-transform:none"/></g><circle transform="matrix(.85027 0 0 .85027 20.409 20.857)" cx="127.12" cy="132.62" r="3.25" color="#000000" enable-background="accumulate" fill="#fff" filter="url(#ac)"/></g><g transform="matrix(1.5333 0 0 1.5333 -44.947 -49.546)"><circle transform="matrix(2.4 0 0 2.4 -120.58 -131.95)" cx="86.125" cy="94.25" r=".625" color="#000000" enable-background="accumulate" fill="#fff"/><circle transform="matrix(6 0 0 6 -430.62 -471.25)" cx="86.125" cy="94.25" r=".625" color="#000000" enable-background="accumulate" fill="url(#a)"/></g></g><g transform="matrix(1.0272 0 0 1.0272 -3.9199 -5.7982)"><rect x="84" y="177" width="120" height="72" color="#000000" enable-background="accumulate" filter="url(#aa)" opacity=".5"/><path d="m84 176v72h120v-72z" color="#000000" enable-background="accumulate" fill="url(#b)"/><path d="m84 176v72h120v-72z" color="#000000" enable-background="accumulate" fill="url(#n)" opacity=".69767"/><use transform="translate(1e-7 84)" width="400" height="300" enable-background="new" xlink:href="#v"/><use transform="translate(1e-7 84)" width="400" height="300" enable-background="new" xlink:href="#u"/></g><g transform="matrix(1.5333 0 0 1.5333 -44.947 34.454)" enable-background="new"><circle transform="matrix(2.4 0 0 2.4 -120.58 -131.95)" cx="86.125" cy="94.25" r=".625" color="#000000" enable-background="accumulate" fill="#fff"/><circle transform="matrix(6 0 0 6 -430.62 -471.25)" cx="86.125" cy="94.25" r=".625" color="#000000" enable-background="accumulate" fill="url(#a)"/></g></g></g></g></svg>
