<?xml version="1.0" encoding="UTF-8"?>
<svg enable-background="new" version="1.0" viewBox="0 0 256 256" xmlns="http://www.w3.org/2000/svg" xmlns:xlink="http://www.w3.org/1999/xlink"><defs><filter id="z" color-interpolation-filters="sRGB"><feGaussianBlur stdDeviation="0.26164063"/></filter><clipPath id="ae"><path d="m68 168 5.9062 79.562 0.28125 3.7812 0.15625 2.4062c16.875 3.8268 41.816 6.25 69.656 6.25s52.781-2.4232 69.656-6.25l0.46875-6.25 5.875-79.5z" enable-background="new"/></clipPath><filter id="v" color-interpolation-filters="sRGB"><feGaussianBlur stdDeviation="1.225"/></filter><filter id="t" color-interpolation-filters="sRGB"><feGaussianBlur stdDeviation="1.53"/></filter><clipPath id="ac"><path d="m144 140c-50.784 0-92 28.672-92 64 0 8.337 0.7611 16.627 3.8125 24 3.7472 9.0539 9.783 15.13 18.094 19.562l0.4375 6.1875c16.875 3.8268 41.816 6.25 69.656 6.25s52.781-2.4232 69.656-6.25l0.46875-6.25c8.2749-4.4293 14.335-10.488 18.062-19.5 3.0502-7.3733 3.8125-15.663 3.8125-24 0-35.328-41.216-64-92-64z" enable-background="new"/></clipPath><filter id="r" x="-.12539" y="-.12539" width="1.2508" height="1.2508" color-interpolation-filters="sRGB"><feGaussianBlur stdDeviation="0.4832633"/></filter><clipPath id="ad"><circle transform="matrix(12.108 0 0 13.405 -791.35 -654.38)" cx="77.25" cy="56.125" r="4.625" enable-background="accumulate" fill-rule="evenodd"/></clipPath><filter id="u" color-interpolation-filters="sRGB"><feGaussianBlur stdDeviation="0.093456904"/></filter><filter id="s" color-interpolation-filters="sRGB"><feGaussianBlur stdDeviation="0.050101745"/></filter><filter id="q" x="-.06837" y="-.236" width="1.1367" height="1.472" color-interpolation-filters="sRGB"><feGaussianBlur stdDeviation="5.15625"/></filter><filter id="aa" x="-.062845" y="-1.3253" width="1.1257" height="3.6506" color-interpolation-filters="sRGB"><feGaussianBlur stdDeviation="3.4041165"/></filter><clipPath id="ag"><circle transform="matrix(3.0769 0 0 3.0769 117.54 132.62)" cx="32" cy="31" r="13" enable-background="accumulate" fill-rule="evenodd"/></clipPath><filter id="y" color-interpolation-filters="sRGB"><feGaussianBlur stdDeviation="0.26321844"/></filter><filter id="x" color-interpolation-filters="sRGB"><feGaussianBlur stdDeviation="0.533"/></filter><clipPath id="af"><path d="m8.6 2.4c-16.505 0-29.9 9.3184-29.9 20.8 0 2.7095 0.24736 5.4038 1.2391 7.8 1.2178 2.9425 3.1795 4.9172 5.8805 6.3578l0.14219 2.0109c5.4844 1.2437 13.59 2.0312 22.638 2.0312 9.048 0 17.154-0.78755 22.638-2.0312l0.15234-2.0312c2.6893-1.4395 4.6587-3.4087 5.8703-6.3375 0.99131-2.3963 1.2391-5.0905 1.2391-7.8 0-11.482-13.395-20.8-29.9-20.8z" enable-background="new"/></clipPath><filter id="w" x="-.19475" y="-.16732" width="1.3895" height="1.3346" color-interpolation-filters="sRGB"><feGaussianBlur stdDeviation="1.6087504"/></filter><filter id="ab" color-interpolation-filters="sRGB"><feGaussianBlur stdDeviation="0.2665"/></filter><radialGradient id="i" cx="32" cy="31" r="13" gradientUnits="userSpaceOnUse"><stop offset="0"/><stop stop-opacity=".49804" offset=".5"/><stop stop-opacity="0" offset="1"/></radialGradient><radialGradient id="h" cx="32" cy="31" r="13" gradientUnits="userSpaceOnUse"><stop offset="0"/><stop stop-opacity=".49804" offset=".6875"/><stop stop-opacity="0" offset="1"/></radialGradient><radialGradient id="g" cx="28.099" cy="23.874" r="13" gradientTransform="matrix(3.6232 0 0 3.6232 -74.763 -65.828)" gradientUnits="userSpaceOnUse"><stop stop-color="#729fcf" offset="0"/><stop stop-color="#3465a4" offset=".31265"/><stop stop-color="#204a87" offset="1"/></radialGradient><radialGradient id="f" cx="27.45" cy="22.875" r="13.325" gradientTransform="matrix(1.4086 0 0 1.4086 -11.216 -9.3465)" gradientUnits="userSpaceOnUse"><stop stop-color="#1c4178" offset="0"/><stop stop-color="#173968" offset="1"/></radialGradient><radialGradient id="e" cx="141" cy="190.5" r="92" gradientTransform="matrix(1 0 0 .5 0 95.25)" gradientUnits="userSpaceOnUse"><stop offset="0"/><stop stop-opacity=".49804" offset=".5"/><stop stop-opacity="0" offset="1"/></radialGradient><radialGradient id="d" cx="141" cy="190.5" r="92" gradientTransform="matrix(1 0 0 .5 0 95.25)" gradientUnits="userSpaceOnUse"><stop offset="0"/><stop stop-opacity=".49804" offset=".79958"/><stop stop-opacity="0" offset="1"/></radialGradient><radialGradient id="c" cx="-10" cy="140.2" r="92" gradientTransform="matrix(1.67 0 0 .43478 160.7 104.04)" gradientUnits="userSpaceOnUse"><stop stop-color="#f0f0ee" offset="0"/><stop stop-color="#a1a196" offset="1"/></radialGradient><linearGradient id="p" x1="94" x2="91.5" y1="253.75" y2="217.75" gradientUnits="userSpaceOnUse"><stop offset="0"/><stop stop-opacity="0" offset="1"/></linearGradient><linearGradient id="o" x1="216" x2="213.5" y1="206.26" y2="233.14" gradientTransform="matrix(1 0 0 1.02 0 -4.942)" gradientUnits="userSpaceOnUse"><stop stop-color="#555753" offset="0"/><stop stop-color="#555753" stop-opacity="0" offset="1"/></linearGradient><radialGradient id="b" cx="144" cy="304.7" r="92" gradientTransform="matrix(2.8184 -5.6306e-8 0 .61413 -261.85 72.875)" gradientUnits="userSpaceOnUse"><stop stop-color="#fff" offset="0"/><stop stop-color="#fff" stop-opacity="0" offset="1"/></radialGradient><linearGradient id="n" x1="151" x2="151" y1="242.51" y2="202.48" gradientUnits="userSpaceOnUse"><stop offset="0"/><stop stop-opacity="0" offset="1"/></linearGradient><linearGradient id="m" x1="148.36" x2="148.36" y1="240.52" y2="210.32" gradientUnits="userSpaceOnUse"><stop offset="0"/><stop stop-color="#888a85" offset="1"/></linearGradient><linearGradient id="l" x1="79.34" x2="79.34" y1="60.75" y2="58.809" gradientUnits="userSpaceOnUse"><stop offset="0"/><stop stop-opacity="0" offset="1"/></linearGradient><radialGradient id="a" cx="77.25" cy="53.774" r="5.0105" gradientTransform="matrix(1.5574 2.2972e-7 -1.9449e-7 1.0757 -43.062 -4.0706)" gradientUnits="userSpaceOnUse"><stop stop-color="#fff" offset="0"/><stop stop-color="#babdb6" offset=".63415"/><stop stop-color="#d9d9d4" offset="1"/></radialGradient><linearGradient id="k" x1="77.115" x2="77.115" y1="54.003" y2="56.3" gradientUnits="userSpaceOnUse"><stop stop-color="#fff" offset="0"/><stop stop-color="#fff" stop-opacity="0" offset="1"/></linearGradient><linearGradient id="j" x1="76.882" x2="74.975" y1="59.818" y2="53.141" gradientUnits="userSpaceOnUse"><stop stop-color="#2e3436" offset="0"/><stop stop-color="#888a85" offset="1"/></linearGradient></defs><g transform="translate(-420,-30)"><g><g transform="translate(400 2.5e-6)"><ellipse transform="matrix(1.1111 0 0 .43478 -12.667 166.17)" cx="141" cy="190.5" rx="92" ry="46" enable-background="new" fill="url(#e)" opacity=".74286"/><ellipse transform="matrix(.89795 0 0 .31522 17.389 188.95)" cx="141" cy="190.5" rx="92" ry="46" enable-background="new" fill="url(#d)"/><g clip-path="url(#ac)" enable-background="new"><g><path d="m144 140c-50.784 0-92 28.672-92 64 0 8.337 0.7611 16.627 3.8125 24 3.7472 9.0539 9.783 15.13 18.094 19.562l0.4375 6.1875c16.875 3.8268 41.816 6.25 69.656 6.25s52.781-2.4232 69.656-6.25l0.46875-6.25c8.2749-4.4293 14.335-10.488 18.062-19.5 3.0502-7.3733 3.8125-15.663 3.8125-24 0-35.328-41.216-64-92-64z" fill="url(#c)"/><path d="m68.188 167.75c-10.205 10.307-16.188 22.798-16.188 36.25 0 8.337 0.7611 16.627 3.8125 24 3.7472 9.0539 9.783 15.13 18.094 19.562l0.4375 6.1875c0.01941 4e-3 0.04306-4e-3 0.0625 0zm151.62 0-6.2188 86c0.0194-4e-3 0.0431 4e-3 0.0625 0l0.46875-6.25c8.2749-4.4293 14.335-10.488 18.062-19.5 3.0502-7.3733 3.8125-15.663 3.8125-24 0-13.452-5.9824-25.943-16.188-36.25z" enable-background="new" fill="url(#p)" opacity=".63061"/><path transform="matrix(1 0 0 1.0245 0 -6.0566)" d="m217.72 197.87-3.5938 49.628c3.3058-1.8048 6.169-3.9232 8.6875-6.3748z" enable-background="new" fill="url(#o)" filter="url(#z)" opacity=".8"/><path d="m144 141c-45.106 0-82.665 22.626-90.5 52.438 13.191-16.564 48.731-23.438 90.5-23.438s77.309 6.8736 90.5 23.438c-7.8348-29.811-45.394-52.438-90.5-52.438z" enable-background="new" fill="#fff" filter="url(#q)"/></g><path d="m52.406 198c-0.26552 1.9795-0.40625 3.9725-0.40625 6 0 8.337 0.7611 16.627 3.8125 24 3.7472 9.0539 9.783 15.13 18.094 19.562l0.4375 6.1875c16.875 3.8268 41.816 6.25 69.656 6.25s52.781-2.4232 69.656-6.25l0.46875-6.25c8.2749-4.4293 14.335-10.488 18.062-19.5 3.0502-7.3733 3.8125-15.663 3.8125-24 0-2.0275-0.14073-4.0205-0.40625-6z" enable-background="new" fill="url(#b)" opacity=".5"/><g clip-path="none" fill="none" stroke-linejoin="round"><path d="m68 168 5.9062 79.562 0.28125 3.7812 0.15625 2.4062c16.875 3.8268 41.816 6.25 69.656 6.25s52.781-2.4232 69.656-6.25l0.46875-6.25 5.875-79.5z" clip-path="url(#ae)" enable-background="new" filter="url(#v)" stroke="url(#n)" stroke-width="2"/><path d="m215.12 247.5c8.2749-4.4293 13.335-10.488 17.062-19.5 3.0502-7.3733 3.8125-15.663 3.8125-24 0-35.328-41.216-64-92-64-50.784 0-92 28.672-92 64 0 8.337 0.7611 16.627 3.8125 24 3.7472 9.0539 8.783 15.13 17.094 19.562" enable-background="new" filter="url(#t)" stroke="url(#m)" stroke-width="3"/></g><circle transform="matrix(12.595 0 0 12.378 -822.68 -587.49)" cx="77.25" cy="56.125" r="4.625" enable-background="accumulate" fill="url(#l)" fill-rule="evenodd" filter="url(#r)"/></g><g transform="translate(0,3)" clip-path="url(#ad)" enable-background="new"><g transform="matrix(4.3349 0 0 4.7763 -1501 -209.98)" fill-rule="evenodd"><circle transform="matrix(2.7932 0 0 2.8067 163.71 -93.044)" cx="77.25" cy="56.125" r="4.625" enable-background="accumulate" fill="url(#a)"/><ellipse transform="matrix(3.3401 0 0 4.3498 122.08 -179.3)" cx="77.062" cy="54.5" rx="2.25" ry="1.1875" enable-background="accumulate" fill="url(#k)" filter="url(#s)" opacity=".9"/></g><circle transform="matrix(12.108 0 0 13.405 -791.35 -654.38)" cx="77.25" cy="56.125" r="4.625" enable-background="accumulate" fill="none" filter="url(#u)" stroke="url(#j)" stroke-linejoin="round" stroke-width=".23547"/></g><path d="m79.5 247s13.311 6.1647 65 6.1647c56.184 0 65-6.1647 65-6.1647s-45.5 3.35-65 3.5-65-3.5-65-3.5z" fill="#fff" fill-rule="evenodd" filter="url(#aa)"/></g><g transform="translate(400,-180)"><circle transform="matrix(3.0769 0 0 .94231 117.54 410.04)" cx="32" cy="31" r="13" enable-background="accumulate" fill="url(#i)" fill-rule="evenodd"/><path transform="matrix(3.0769 0 0 3.0769 117.54 312.62)" d="m45 31.975c0 7.176-8.099 13-15.275 13s-10.725-5.824-10.725-13 5.824-13 13-13 13 5.824 13 13z" clip-path="url(#af)" enable-background="accumulate" fill-rule="evenodd" filter="url(#w)" opacity=".6"/><circle transform="matrix(2.5385 0 0 .7774 134.77 415.15)" cx="32" cy="31" r="13" enable-background="accumulate" fill="url(#h)" fill-rule="evenodd" opacity=".7"/><g transform="translate(0,180)" clip-path="url(#ag)"><circle transform="matrix(3.0769 0 0 3.0769 117.54 132.62)" cx="32" cy="31" r="13" enable-background="accumulate" fill="url(#g)" fill-rule="evenodd"/><circle transform="matrix(3.0769 0 0 3.0769 117.54 134.62)" cx="32" cy="31" r="13" enable-background="accumulate" fill="none" filter="url(#ab)" opacity=".4" stroke="#fff" stroke-linecap="round" stroke-width=".65"/><circle transform="matrix(3.0769 0 0 3.0769 117.54 128.62)" cx="32" cy="31" r="13" enable-background="accumulate" fill="none" filter="url(#x)" opacity=".8" stroke="#729fcf" stroke-linecap="round" stroke-width=".65"/><path d="m209.7 224.4c0.64684-3.2083 1.6171-5.4852 2.9108-6.8306 1.2937-1.3712 3.1178-2.0569 5.4723-2.057 2.3545 4e-5 3.9069 0.6857 4.6573 2.057 0.77614 1.3714 0.85379 3.6482 0.23281 6.8306l-4.7736 23.868c-0.64688 3.2083-1.6301 5.4982-2.9496 6.8694-1.2937 1.3454-3.1307 2.0181-5.5111 2.0181-2.3287 0-3.881-0.67272-4.6572-2.0181-0.75039-1.3713-0.80209-3.6611-0.15526-6.8694l4.7737-23.868m4.4632-19.522c0.33637-1.6817 1.229-3.1048 2.6779-4.2692 1.4489-1.1901 3.0013-1.7852 4.6572-1.7853 1.6818 6e-5 2.9884 0.59515 3.9198 1.7853 0.93145 1.1644 1.229 2.5874 0.89264 4.2692-0.31051 1.656-1.1773 3.079-2.6003 4.2691-1.4231 1.1644-2.9755 1.7465-4.6573 1.7465-1.6818 5e-5 -3.0014-0.58211-3.9586-1.7465-0.93145-1.1901-1.242-2.6132-0.93145-4.2691" fill="#fff"/><circle transform="matrix(3.0769 0 0 3.0769 117.54 131.62)" cx="32" cy="31" r="13" enable-background="accumulate" fill="none" filter="url(#y)" stroke="url(#f)" stroke-linecap="round" stroke-width=".975"/></g></g></g></g></svg>
