<?xml version="1.0" encoding="UTF-8"?>
<svg enable-background="new" version="1.0" viewBox="0 0 256 256" xmlns="http://www.w3.org/2000/svg" xmlns:xlink="http://www.w3.org/1999/xlink"><defs><linearGradient id="a"><stop stop-color="#fff" offset="0"/><stop stop-color="#fff" stop-opacity="0" offset="1"/></linearGradient><filter id="m" color-interpolation-filters="sRGB"><feGaussianBlur stdDeviation="0.94450253"/></filter><clipPath id="q"><rect x="40.94" y="30" width="209.3" height="195.5" rx="3" ry="3" enable-background="accumulate" fill="none" stroke="#000" stroke-linecap="square" stroke-linejoin="round" stroke-width="3"/></clipPath><filter id="o" x="-.097665" y="-2.2693" width="1.1953" height="5.5386" color-interpolation-filters="sRGB"><feGaussianBlur stdDeviation="8.0370408"/></filter><filter id="n" x="-.039577" y="-.91958" width="1.0792" height="2.8392" color-interpolation-filters="sRGB"><feGaussianBlur stdDeviation="3.2568309"/></filter><filter id="p"><feGaussianBlur stdDeviation="3.5125"/></filter><linearGradient id="h" x1="144.82" x2="144.82" y1="211.73" y2="70.266" gradientTransform="translate(-.24078 -.73359)" gradientUnits="userSpaceOnUse"><stop stop-color="#fff" offset="0"/><stop stop-color="#fff" stop-opacity="0" offset="1"/></linearGradient><radialGradient id="d" cx="144.82" cy="216.22" r="94.421" gradientTransform="matrix(2.6563 0 0 1.8749 -239.87 -190.13)" gradientUnits="userSpaceOnUse"><stop stop-color="#4e9a06" offset="0"/><stop offset="1"/></radialGradient><radialGradient id="c" cx="326.02" cy="58" r="12.5" gradientTransform="matrix(-10.48 4.6048e-6 -3.2812e-6 -7.4674 3541.5 510.11)" gradientUnits="userSpaceOnUse" xlink:href="#a"/><radialGradient id="b" cx="326.02" cy="58" r="12.5" gradientTransform="matrix(-10.48 4.6048e-6 -3.2812e-6 -7.4674 3498.5 510.11)" gradientUnits="userSpaceOnUse" xlink:href="#a"/><linearGradient id="l" x1="55.849" x2="245.15" y1="135.75" y2="135.75" gradientTransform="matrix(1.1057 0 0 1 -20.81 7)" gradientUnits="userSpaceOnUse"><stop stop-color="#cecece" offset="0"/><stop stop-color="#aaa" offset="1"/></linearGradient><linearGradient id="k" x1="154.15" x2="154.15" y1="56.089" y2="71.7" gradientTransform="matrix(1.1043 0 0 .48148 -20.612 34.481)" gradientUnits="userSpaceOnUse"><stop stop-color="#cecece" offset="0"/><stop stop-color="#8b8b8b" offset=".32689"/><stop stop-color="#616161" stop-opacity="0" offset="1"/></linearGradient><linearGradient id="j" x1="154.15" x2="154.15" y1="52.982" y2="66.5" gradientTransform="matrix(1.1057 0 0 .33333 -20.81 -241.17)" gradientUnits="userSpaceOnUse"><stop stop-color="#4c4c4c" offset="0"/><stop stop-color="#616161" stop-opacity="0" offset="1"/></linearGradient><linearGradient id="i" x1="144.84" x2="144.84" y1="227" y2="-22.313" gradientUnits="userSpaceOnUse"><stop offset="0"/><stop stop-opacity="0" offset="1"/></linearGradient><radialGradient id="g" cx="145.59" cy="-68" r="104.65" gradientTransform="matrix(1 1.3624e-7 -3.6452e-8 .26756 -2.4787e-6 -48.806)" gradientUnits="userSpaceOnUse"><stop stop-color="#fff" offset="0"/><stop stop-color="#fff" stop-opacity="0" offset="1"/></radialGradient><radialGradient id="f" cx="44.5" cy="139" r="1.5" gradientTransform="matrix(6.0038 1.0673e-5 0 68.351 -223.67 -9361.8)" gradientUnits="userSpaceOnUse" xlink:href="#a"/><radialGradient id="e" cx="44.5" cy="139" r="1.5" gradientTransform="matrix(6.1707 1.097e-5 0 70.252 -27.098 -9627)" gradientUnits="userSpaceOnUse" xlink:href="#a"/></defs><g transform="translate(-420,-30)"><g transform="matrix(1.0523 0 0 1.0523 395.42 27.987)"><g transform="matrix(1.0697 0 0 -.64704 -15.717 366.64)" enable-background="new"><path transform="matrix(1.0603 0 0 1.3636 -9.062 -79.184)" d="m51.5 213.5h197.5v8.5h-197.5z" enable-background="accumulate" filter="url(#o)" opacity=".625"/><path transform="matrix(1.0189 0 0 1 -1.91 0)" d="m51.5 213.5h197.5v8.5h-197.5z" enable-background="accumulate" filter="url(#n)"/></g><path d="m43.94 29.59h203.3c1.662 0 3 1.338 3 3v189.91c0 1.662-1.338 3-3 3h-203.3c-1.662 0-3-1.338-3-3v-189.91c0-1.662 1.338-3 3-3z" enable-background="accumulate" fill="url(#l)"/><path d="m43.94 29.59h203.3c1.5928 0 2.875 1.2822 2.875 2.875v0.75c0 1.5928-1.2822 2.875-2.875 2.875h-203.3c-1.5928 0-2.875-1.2822-2.875-2.875v-0.75c0-1.5928 1.2822-2.875 2.875-2.875z" enable-background="accumulate" fill="url(#k)"/><path transform="scale(1,-1)" d="m42.44-223.5h206.3c0.831 0 1.5 0.669 1.5 1.5v2.375c0 0.831-0.669 1.5-1.5 1.5h-206.3c-0.831 0-1.5-0.669-1.5-1.5v-2.375c0-0.831 0.669-1.5 1.5-1.5z" enable-background="accumulate" fill="url(#j)"/><path d="m43.877 29.59h203.43c1.6274 0 2.9375 1.3101 2.9375 2.9375v190.03c0 1.6274-1.3101 2.9375-2.9375 2.9375h-203.43c-1.6274 0-2.9375-1.3101-2.9375-2.9375v-190.03c0-1.6274 1.3101-2.9375 2.9375-2.9375z" clip-path="url(#q)" enable-background="accumulate" fill="none" filter="url(#m)" opacity=".52105" stroke="url(#i)" stroke-linecap="square" stroke-linejoin="round" stroke-width="3"/><path transform="scale(1,-1)" d="m40.94-38.09h209.3v3h-209.3z" enable-background="accumulate" fill="url(#g)"/><path d="m43.5 34.59c0.277 0 0.5 1.338 0.5 3v172.41c0 1.662-0.223 3-0.5 3s-0.5-1.338-0.5-3v-172.41c0-1.662 0.223-3 0.5-3z" enable-background="accumulate" fill="url(#f)"/><path d="m247.5 33.59c0.277 0 0.5 1.338 0.5 3v172.41c0 1.662-0.223 3-0.5 3s-0.5-1.338-0.5-3v-172.41c0-1.662 0.223-3 0.5-3z" enable-background="accumulate" fill="url(#e)" opacity=".61058"/></g><g transform="translate(0,-6)"><g transform="translate(403 36)" enable-background="new"><path d="m48.158 41.533h192.84v177.47h-192.84z" enable-background="accumulate" fill="url(#h)" opacity=".52105"/><path d="m50.399 47.707h188.84v169.29h-188.84z" enable-background="accumulate" fill="url(#d)"/></g><g transform="translate(2,9)" fill="none" opacity=".2" stroke="#8ae234"><g transform="translate(-6.5,20.5)"><path d="m462 80v4"/><path d="m464 82h-4"/></g><g transform="translate(13.5,20.5)" enable-background="new"><path d="m462 80v4"/><path d="m464 82h-4"/></g><g transform="translate(34.5,20.5)" enable-background="new"><path d="m462 80v4"/><path d="m464 82h-4"/></g><g transform="translate(54.5,20.5)" enable-background="new"><path d="m462 80v4"/><path d="m464 82h-4"/></g><g transform="translate(73.5,20.5)" enable-background="new"><path d="m462 80v4"/><path d="m464 82h-4"/></g><g transform="translate(93.5,20.5)" enable-background="new"><path d="m462 80v4"/><path d="m464 82h-4"/></g><g transform="translate(113.5,20.5)" enable-background="new"><path d="m462 80v4"/><path d="m464 82h-4"/></g><g transform="translate(133.5,20.5)" enable-background="new"><path d="m462 80v4"/><path d="m464 82h-4"/></g><g transform="translate(153.5,20.5)" enable-background="new"><path d="m462 80v4"/><path d="m464 82h-4"/></g><g transform="translate(-6.5,40.5)"><path d="m462 80v4"/><path d="m464 82h-4"/></g><g transform="translate(13.5,40.5)" enable-background="new"><path d="m462 80v4"/><path d="m464 82h-4"/></g><g transform="translate(34.5,40.5)" enable-background="new"><path d="m462 80v4"/><path d="m464 82h-4"/></g><g transform="translate(54.5,40.5)" enable-background="new"><path d="m462 80v4"/><path d="m464 82h-4"/></g><g transform="translate(73.5,40.5)" enable-background="new"><path d="m462 80v4"/><path d="m464 82h-4"/></g><g transform="translate(93.5,40.5)" enable-background="new"><path d="m462 80v4"/><path d="m464 82h-4"/></g><g transform="translate(113.5,40.5)" enable-background="new"><path d="m462 80v4"/><path d="m464 82h-4"/></g><g transform="translate(133.5,40.5)" enable-background="new"><path d="m462 80v4"/><path d="m464 82h-4"/></g><g transform="translate(153.5,40.5)" enable-background="new"><path d="m462 80v4"/><path d="m464 82h-4"/></g><g transform="translate(-6.5,60.5)"><path d="m462 80v4"/><path d="m464 82h-4"/></g><g transform="translate(13.5,60.5)" enable-background="new"><path d="m462 80v4"/><path d="m464 82h-4"/></g><g transform="translate(34.5,60.5)" enable-background="new"><path d="m462 80v4"/><path d="m464 82h-4"/></g><g transform="translate(54.5,60.5)" enable-background="new"><path d="m462 80v4"/><path d="m464 82h-4"/></g><g transform="translate(73.5,60.5)" enable-background="new"><path d="m462 80v4"/><path d="m464 82h-4"/></g><g transform="translate(93.5,60.5)" enable-background="new"><path d="m462 80v4"/><path d="m464 82h-4"/></g><g transform="translate(113.5,60.5)" enable-background="new"><path d="m462 80v4"/><path d="m464 82h-4"/></g><g transform="translate(133.5,60.5)" enable-background="new"><path d="m462 80v4"/><path d="m464 82h-4"/></g><g transform="translate(153.5,60.5)" enable-background="new"><path d="m462 80v4"/><path d="m464 82h-4"/></g><g transform="translate(-6.5,80.5)"><path d="m462 80v4"/><path d="m464 82h-4"/></g><g transform="translate(13.5,80.5)" enable-background="new"><path d="m462 80v4"/><path d="m464 82h-4"/></g><g transform="translate(34.5,80.5)" enable-background="new"><path d="m462 80v4"/><path d="m464 82h-4"/></g><g transform="translate(54.5,80.5)" enable-background="new"><path d="m462 80v4"/><path d="m464 82h-4"/></g><g transform="translate(73.5,80.5)" enable-background="new"><path d="m462 80v4"/><path d="m464 82h-4"/></g><g transform="translate(93.5,80.5)" enable-background="new"><path d="m462 80v4"/><path d="m464 82h-4"/></g><g transform="translate(113.5,80.5)" enable-background="new"><path d="m462 80v4"/><path d="m464 82h-4"/></g><g transform="translate(133.5,80.5)" enable-background="new"><path d="m462 80v4"/><path d="m464 82h-4"/></g><g transform="translate(153.5,80.5)" enable-background="new"><path d="m462 80v4"/><path d="m464 82h-4"/></g><g transform="translate(-6.5,100.5)"><path d="m462 80v4"/><path d="m464 82h-4"/></g><g transform="translate(13.5,100.5)" enable-background="new"><path d="m462 80v4"/><path d="m464 82h-4"/></g><g transform="translate(34.5,100.5)" enable-background="new"><path d="m462 80v4"/><path d="m464 82h-4"/></g><g transform="translate(54.5,100.5)" enable-background="new"><path d="m462 80v4"/><path d="m464 82h-4"/></g><g transform="translate(73.5,100.5)" enable-background="new"><path d="m462 80v4"/><path d="m464 82h-4"/></g><g transform="translate(93.5,100.5)" enable-background="new"><path d="m462 80v4"/><path d="m464 82h-4"/></g><g transform="translate(113.5,100.5)" enable-background="new"><path d="m462 80v4"/><path d="m464 82h-4"/></g><g transform="translate(133.5,100.5)" enable-background="new"><path d="m462 80v4"/><path d="m464 82h-4"/></g><g transform="translate(153.5,100.5)" enable-background="new"><path d="m462 80v4"/><path d="m464 82h-4"/></g><g transform="translate(-6.5,120.5)"><path d="m462 80v4"/><path d="m464 82h-4"/></g><g transform="translate(13.5,120.5)" enable-background="new"><path d="m462 80v4"/><path d="m464 82h-4"/></g><g transform="translate(34.5,120.5)" enable-background="new"><path d="m462 80v4"/><path d="m464 82h-4"/></g><g transform="translate(54.5,120.5)" enable-background="new"><path d="m462 80v4"/><path d="m464 82h-4"/></g><g transform="translate(73.5,120.5)" enable-background="new"><path d="m462 80v4"/><path d="m464 82h-4"/></g><g transform="translate(93.5,120.5)" enable-background="new"><path d="m462 80v4"/><path d="m464 82h-4"/></g><g transform="translate(113.5,120.5)" enable-background="new"><path d="m462 80v4"/><path d="m464 82h-4"/></g><g transform="translate(133.5,120.5)" enable-background="new"><path d="m462 80v4"/><path d="m464 82h-4"/></g><g transform="translate(153.5,120.5)" enable-background="new"><path d="m462 80v4"/><path d="m464 82h-4"/></g><g transform="translate(-6.5 .5)"><path d="m462 80v4"/><path d="m464 82h-4"/></g><g transform="translate(13.5 .5)" enable-background="new"><path d="m462 80v4"/><path d="m464 82h-4"/></g><g transform="translate(34.5 .5)" enable-background="new"><path d="m462 80v4"/><path d="m464 82h-4"/></g><g transform="translate(54.5 .5)" enable-background="new"><path d="m462 80v4"/><path d="m464 82h-4"/></g><g transform="translate(73.5 .5)" enable-background="new"><path d="m462 80v4"/><path d="m464 82h-4"/></g><g transform="translate(93.5 .5)" enable-background="new"><path d="m462 80v4"/><path d="m464 82h-4"/></g><g transform="translate(113.5 .5)" enable-background="new"><path d="m462 80v4"/><path d="m464 82h-4"/></g><g transform="translate(133.5 .5)" enable-background="new"><path d="m462 80v4"/><path d="m464 82h-4"/></g><g transform="translate(153.5 .5)" enable-background="new"><path d="m462 80v4"/><path d="m464 82h-4"/></g><path d="m635.5 200.5v4"/><path d="m637.5 202.5h-4"/><path d="m635.5 180.5v4"/><path d="m637.5 182.5h-4"/><path d="m635.5 160.5v4"/><path d="m637.5 162.5h-4"/><path d="m635.5 140.5v4"/><path d="m637.5 142.5h-4"/><path d="m635.5 120.5v4"/><path d="m637.5 122.5h-4"/><path d="m635.5 100.5v4"/><path d="m637.5 102.5h-4"/><path d="m635.5 80.5v4"/><path d="m637.5 82.5h-4"/><g transform="translate(-6.5,140.5)"><path d="m462 80v4"/><path d="m464 82h-4"/></g><g transform="translate(13.5,140.5)" enable-background="new"><path d="m462 80v4"/><path d="m464 82h-4"/></g><g transform="translate(34.5,140.5)" enable-background="new"><path d="m462 80v4"/><path d="m464 82h-4"/></g><g transform="translate(54.5,140.5)" enable-background="new"><path d="m462 80v4"/><path d="m464 82h-4"/></g><g transform="translate(73.5,140.5)" enable-background="new"><path d="m462 80v4"/><path d="m464 82h-4"/></g><g transform="translate(93.5,140.5)" enable-background="new"><path d="m462 80v4"/><path d="m464 82h-4"/></g><g transform="translate(113.5,140.5)" enable-background="new"><path d="m462 80v4"/><path d="m464 82h-4"/></g><g transform="translate(133.5,140.5)" enable-background="new"><path d="m462 80v4"/><path d="m464 82h-4"/></g><g transform="translate(153.5,140.5)" enable-background="new"><path d="m462 80v4"/><path d="m464 82h-4"/></g><path d="m635.5 220.5v4"/><path d="m637.5 222.5h-4"/><g transform="translate(-6.5,160.5)"><path d="m462 80v4"/><path d="m464 82h-4"/></g><g transform="translate(13.5,160.5)" enable-background="new"><path d="m462 80v4"/><path d="m464 82h-4"/></g><g transform="translate(34.5,160.5)" enable-background="new"><path d="m462 80v4"/><path d="m464 82h-4"/></g><g transform="translate(54.5,160.5)" enable-background="new"><path d="m462 80v4"/><path d="m464 82h-4"/></g><g transform="translate(73.5,160.5)" enable-background="new"><path d="m462 80v4"/><path d="m464 82h-4"/></g><g transform="translate(93.5,160.5)" enable-background="new"><path d="m462 80v4"/><path d="m464 82h-4"/></g><g transform="translate(113.5,160.5)" enable-background="new"><path d="m462 80v4"/><path d="m464 82h-4"/></g><g transform="translate(133.5,160.5)" enable-background="new"><path d="m462 80v4"/><path d="m464 82h-4"/></g><g transform="translate(153.5,160.5)" enable-background="new"><path d="m462 80v4"/><path d="m464 82h-4"/></g><path d="m635.5 240.5v4"/><path d="m637.5 242.5h-4"/></g><g transform="translate(3,7)"><path transform="translate(400 12)" d="m51 154h41.58l22-58.646 15.12 94 15.51-35.354h20.79l16.62-31.23 7.56 62.667 11.02-31.437h36.8" enable-background="new" fill="none" stroke="#8ae234" stroke-miterlimit="10" stroke-width="2"/><path d="m451 166h41.58l22-58.646 15.12 94 15.51-35.354h20.79l16.62-31.23 7.56 62.667 11.02-31.437h36.8" enable-background="new" fill="none" filter="url(#p)" stroke="#8ae234" stroke-miterlimit="10" stroke-width="2"/><g transform="translate(400,2)" enable-background="new"><g enable-background="new" opacity=".3"><path d="m185.55 77h50.455v122h-111z" enable-background="new" fill="url(#c)"/><path d="m124.55 77h34.455l-32 89-17-1z" enable-background="new" fill="url(#b)"/></g></g></g></g></g></svg>
