<?xml version="1.0" encoding="UTF-8"?>
<svg enable-background="new" version="1.0" viewBox="0 0 256 256" xmlns="http://www.w3.org/2000/svg" xmlns:xlink="http://www.w3.org/1999/xlink"><defs><linearGradient id="a"><stop stop-color="#fff" offset="0"/><stop stop-color="#fff" stop-opacity="0" offset="1"/></linearGradient><filter id="m" color-interpolation-filters="sRGB"><feGaussianBlur stdDeviation="0.94450253"/></filter><clipPath id="q"><rect x="40.94" y="30" width="209.3" height="195.5" rx="3" ry="3" enable-background="accumulate" fill="none" stroke="#000" stroke-linecap="square" stroke-linejoin="round" stroke-width="3"/></clipPath><filter id="o" x="-.097665" y="-2.2693" width="1.1953" height="5.5386" color-interpolation-filters="sRGB"><feGaussianBlur stdDeviation="8.0370408"/></filter><filter id="n" x="-.039577" y="-.91958" width="1.0792" height="2.8392" color-interpolation-filters="sRGB"><feGaussianBlur stdDeviation="3.2568309"/></filter><filter id="p" x="-.10506" y="-.13743" width="1.2101" height="1.2749" color-interpolation-filters="sRGB"><feGaussianBlur stdDeviation="1.3792969"/></filter><radialGradient id="g" cx="144.82" cy="193.39" r="94.421" gradientTransform="matrix(2.2962 0 0 1.6208 -187.72 -135.17)" gradientUnits="userSpaceOnUse"><stop stop-color="#3e4945" offset="0"/><stop offset="1"/></radialGradient><radialGradient id="f" cx="326.02" cy="58" r="12.5" gradientTransform="matrix(-10.48 4.6048e-6 -3.2812e-6 -7.4674 3541.5 510.11)" gradientUnits="userSpaceOnUse" xlink:href="#a"/><radialGradient id="e" cx="326.02" cy="58" r="12.5" gradientTransform="matrix(-10.48 4.6048e-6 -3.2812e-6 -7.4674 3498.5 510.11)" gradientUnits="userSpaceOnUse" xlink:href="#a"/><linearGradient id="l" x1="144.82" x2="144.82" y1="211.73" y2="81.929" gradientTransform="translate(-.24078 -.73359)" gradientUnits="userSpaceOnUse"><stop stop-color="#fff" offset="0"/><stop stop-color="#fff" stop-opacity="0" offset="1"/></linearGradient><linearGradient id="k" x1="55.849" x2="245.15" y1="135.75" y2="135.75" gradientTransform="matrix(1.1057 0 0 1 -20.81 7)" gradientUnits="userSpaceOnUse"><stop stop-color="#cecece" offset="0"/><stop stop-color="#aaa" offset="1"/></linearGradient><linearGradient id="j" x1="154.15" x2="154.15" y1="56.089" y2="71.7" gradientTransform="matrix(1.1043 0 0 .48148 -20.612 34.481)" gradientUnits="userSpaceOnUse"><stop stop-color="#cecece" offset="0"/><stop stop-color="#8b8b8b" offset=".32689"/><stop stop-color="#616161" stop-opacity="0" offset="1"/></linearGradient><linearGradient id="i" x1="154.15" x2="154.15" y1="52.982" y2="66.5" gradientTransform="matrix(1.1057 0 0 .33333 -20.81 -241.17)" gradientUnits="userSpaceOnUse"><stop stop-color="#4c4c4c" offset="0"/><stop stop-color="#616161" stop-opacity="0" offset="1"/></linearGradient><linearGradient id="h" x1="144.84" x2="144.84" y1="227" y2="-22.313" gradientUnits="userSpaceOnUse"><stop offset="0"/><stop stop-opacity="0" offset="1"/></linearGradient><radialGradient id="d" cx="145.59" cy="-68" r="104.65" gradientTransform="matrix(1 1.3624e-7 -3.6452e-8 .26756 -2.4787e-6 -48.806)" gradientUnits="userSpaceOnUse"><stop stop-color="#fff" offset="0"/><stop stop-color="#fff" stop-opacity="0" offset="1"/></radialGradient><radialGradient id="c" cx="44.5" cy="139" r="1.5" gradientTransform="matrix(6.0038 1.0673e-5 0 68.351 -223.67 -9361.8)" gradientUnits="userSpaceOnUse" xlink:href="#a"/><radialGradient id="b" cx="44.5" cy="139" r="1.5" gradientTransform="matrix(6.1707 1.097e-5 0 70.252 -27.098 -9627)" gradientUnits="userSpaceOnUse" xlink:href="#a"/></defs><g transform="translate(-20 -30)"><g><g transform="matrix(1.0523 0 0 1.0523 -4.5816 28.987)"><g transform="matrix(1.0697 0 0 -.64704 -15.717 366.64)" enable-background="new"><path transform="matrix(1.0603 0 0 1.3636 -9.062 -79.184)" d="m51.5 213.5h197.5v8.5h-197.5z" enable-background="accumulate" filter="url(#o)" opacity=".625"/><path transform="matrix(1.0189 0 0 1 -1.91 0)" d="m51.5 213.5h197.5v8.5h-197.5z" enable-background="accumulate" filter="url(#n)"/></g><path d="m43.94 29.59h203.3c1.662 0 3 1.338 3 3v189.91c0 1.662-1.338 3-3 3h-203.3c-1.662 0-3-1.338-3-3v-189.91c0-1.662 1.338-3 3-3z" enable-background="accumulate" fill="url(#k)"/><path d="m43.94 29.59h203.3c1.5928 0 2.875 1.2822 2.875 2.875v0.75c0 1.5928-1.2822 2.875-2.875 2.875h-203.3c-1.5928 0-2.875-1.2822-2.875-2.875v-0.75c0-1.5928 1.2822-2.875 2.875-2.875z" enable-background="accumulate" fill="url(#j)"/><path transform="scale(1,-1)" d="m42.44-223.5h206.3c0.831 0 1.5 0.669 1.5 1.5v2.375c0 0.831-0.669 1.5-1.5 1.5h-206.3c-0.831 0-1.5-0.669-1.5-1.5v-2.375c0-0.831 0.669-1.5 1.5-1.5z" enable-background="accumulate" fill="url(#i)"/><path d="m43.877 29.59h203.43c1.6274 0 2.9375 1.3101 2.9375 2.9375v190.03c0 1.6274-1.3101 2.9375-2.9375 2.9375h-203.43c-1.6274 0-2.9375-1.3101-2.9375-2.9375v-190.03c0-1.6274 1.3101-2.9375 2.9375-2.9375z" clip-path="url(#q)" enable-background="accumulate" fill="none" filter="url(#m)" opacity=".52105" stroke="url(#h)" stroke-linecap="square" stroke-linejoin="round" stroke-width="3"/><path transform="scale(1,-1)" d="m40.94-38.09h209.3v3h-209.3z" enable-background="accumulate" fill="url(#d)"/><path d="m43.5 34.59c0.277 0 0.5 1.338 0.5 3v172.41c0 1.662-0.223 3-0.5 3s-0.5-1.338-0.5-3v-172.41c0-1.662 0.223-3 0.5-3z" enable-background="accumulate" fill="url(#c)"/><path d="m247.5 33.59c0.277 0 0.5 1.338 0.5 3v172.41c0 1.662-0.223 3-0.5 3s-0.5-1.338-0.5-3v-172.41c0-1.662 0.223-3 0.5-3z" enable-background="accumulate" fill="url(#b)" opacity=".61058"/></g><g transform="matrix(1 0 0 1.1979 4 -11.762)"><path d="m48.158 69.533h192.84v149.81h-192.84z" enable-background="accumulate" fill="url(#l)" opacity=".52105"/><path d="m50.399 75.707h188.84v141.64h-188.84z" enable-background="accumulate" fill="url(#g)"/><g enable-background="new" opacity=".3"><path d="m185.55 77h50.455v122h-111z" enable-background="new" fill="url(#f)"/><path d="m124.55 77h34.455l-32 89-17-1z" enable-background="new" fill="url(#e)"/></g><g enable-background="new" fill="#fff" fill-rule="evenodd" opacity=".05"><path d="m51 80h188v4h-188z" enable-background="new"/><path d="m51 88h188v4h-188z" enable-background="new"/><path d="m51 96h188v4h-188z" enable-background="new"/><path d="m51 104h188v4h-188z" enable-background="new"/><path d="m51 112h188v4h-188z" enable-background="new"/><path d="m51 120h188v4h-188z" enable-background="new"/><path d="m51 128h188v4h-188z" enable-background="new"/><path d="m51 136h188v4h-188z" enable-background="new"/><path d="m51 144h188v4h-188z" enable-background="new"/><path d="m51 152h188v4h-188z" enable-background="new"/><path d="m51 160h188v4h-188z" enable-background="new"/><path d="m51 168h188v4h-188z" enable-background="new"/><path d="m51 176h188v4h-188z" enable-background="new"/><path d="m51 184h188v4h-188z" enable-background="new"/><path d="m51 192h188v4h-188z" enable-background="new"/><path d="m51 200h188v4h-188z" enable-background="new"/><path d="m51 208.35h188v4h-188z" enable-background="new"/></g></g><text transform="scale(.92038 1.0865)" x="69.825569" y="118.98814" enable-background="new" fill="#ffffff" font-family="'Liberation Mono'" style="line-height:0%" xml:space="preserve"><tspan x="69.825569" y="118.98814" font-family="'Andale Mono'" font-size="42.693px" style="line-height:1.25">&gt;_</tspan></text><text transform="matrix(1.3342 0 0 1.575 -16.155 -22.969)" x="60.27853" y="96.6688" enable-background="new" fill="#ffffff" filter="url(#p)" font-family="'Liberation Mono'" style="line-height:0%" xml:space="preserve"><tspan x="60.27853" y="96.6688" font-family="'Andale Mono'" font-size="29.452px" style="line-height:1.25">&gt;_</tspan></text></g></g></svg>
