<?xml version="1.0" encoding="UTF-8" standalone="no"?>
<svg
   xmlns:dc="http://purl.org/dc/elements/1.1/"
   xmlns:cc="http://creativecommons.org/ns#"
   xmlns:rdf="http://www.w3.org/1999/02/22-rdf-syntax-ns#"
   xmlns:svg="http://www.w3.org/2000/svg"
   xmlns="http://www.w3.org/2000/svg"
   xmlns:xlink="http://www.w3.org/1999/xlink"
   style="display:inline;enable-background:new"
   version="1.0"
   id="svg11300"
   height="256"
   width="256">
  <title
     id="title3004">Suru Icon Theme Template</title>
  <defs
     id="defs3">
    <clipPath
       id="clipPath9430"
       clipPathUnits="userSpaceOnUse">
      <path
         style="color:#000000;display:inline;overflow:visible;visibility:visible;fill:#ffffff;fill-opacity:1;fill-rule:nonzero;stroke:none;stroke-width:1;marker:none;enable-background:new"
         d="m 166.0625,-196 h 179.875 C 491.2348,-196 512,-175.28677 512,-30.125 v 148.25 C 512,263.28618 491.2348,284 345.9375,284 H 166.0625 C 20.7652,284 0,263.28618 0,118.125 V -30.125 C 0,-175.28677 20.7652,-196 166.0625,-196 Z"
         id="path9432" />
    </clipPath>
    <clipPath
       id="clipPath1082"
       clipPathUnits="userSpaceOnUse">
      <path
         style="display:inline;opacity:1;fill:#8c59d9;fill-opacity:1;stroke:none;stroke-width:2;stroke-linecap:round;stroke-linejoin:round;stroke-miterlimit:4;stroke-dasharray:none;stroke-dashoffset:0;stroke-opacity:1;enable-background:new"
         d="M 361.9375,-212 C 507.2348,-212 528,-191.28677 528,-46.125 V 70.125 C 528,215.28618 507.2348,236 361.9375,236 H 214.0625 C 68.7652,236 48,215.28618 48,70.125 V -46.125 C 48,-191.28677 68.7652,-212 214.0625,-212 Z"
         id="path1084" />
    </clipPath>
    <filter
       height="1.0219313"
       y="-0.010965657"
       width="1.0264996"
       x="-0.013249796"
       id="filter4346"
       style="color-interpolation-filters:sRGB">
      <feGaussianBlur
         id="feGaussianBlur4348"
         stdDeviation="2.120027" />
    </filter>
    <linearGradient
       gradientUnits="userSpaceOnUse"
       y2="488"
       x2="488"
       y1="88"
       x1="88"
       id="linearGradient4358"
       xlink:href="#linearGradient4360" />
    <linearGradient
       id="linearGradient4360">
      <stop
         style="stop-color:#000000;stop-opacity:0.58823532"
         offset="0"
         id="stop4362" />
      <stop
         id="stop4364"
         offset="0.88"
         style="stop-color:#000000;stop-opacity:0" />
      <stop
         style="stop-color:#000000;stop-opacity:1"
         offset="1"
         id="stop4366" />
    </linearGradient>
    <filter
       height="1.0877253"
       y="-0.043862626"
       width="1.1059984"
       x="-0.052999184"
       id="filter4380"
       style="color-interpolation-filters:sRGB">
      <feGaussianBlur
         id="feGaussianBlur4382"
         stdDeviation="8.4801079" />
    </filter>
    <linearGradient
       gradientTransform="matrix(0,-0.453125,-0.45311204,0,277.957,268)"
       xlink:href="#linearGradient4338-3-6"
       id="linearGradient4226"
       x1="529.65515"
       y1="401.58368"
       x2="-35.310345"
       y2="119.09284"
       gradientUnits="userSpaceOnUse" />
    <linearGradient
       y2="125.99394"
       x2="-1.0000001e-06"
       y1="397.99393"
       x1="512"
       gradientTransform="matrix(0,-0.11328125,-0.11327801,0,379.48855,112)"
       gradientUnits="userSpaceOnUse"
       id="linearGradient951"
       xlink:href="#linearGradient4338-3-6" />
    <clipPath
       id="clipPath994"
       clipPathUnits="userSpaceOnUse">
      <path
         id="path996"
         d="m 335.73108,62 c -8.82418,0 -9.77365,0.90635 -9.7304,9.74838 V 84 96.25162 c -0.0433,8.84203 0.90622,9.74838 9.7304,9.74838 h 16.53919 c 8.82418,0 9.7304,-0.90625 9.7304,-9.74838 V 84 71.74838 C 362.00067,62.90625 361.09445,62 352.27027,62 Z"
         style="color:#000000;display:inline;overflow:visible;visibility:visible;fill:#cdcdcd;fill-opacity:1;fill-rule:nonzero;stroke:none;stroke-width:2;stroke-miterlimit:4;stroke-dasharray:none;stroke-opacity:1;marker:none;enable-background:accumulate" />
    </clipPath>
    <linearGradient
       y2="207.36522"
       x2="35.310345"
       y1="419.23337"
       x1="459.03448"
       gradientTransform="matrix(0,-0.05664062,0.05663901,0,314.2547,214)"
       gradientUnits="userSpaceOnUse"
       id="linearGradient916"
       xlink:href="#linearGradient4338-3-6" />
    <linearGradient
       y2="207.36522"
       x2="35.310345"
       y1="419.23337"
       x1="459.03448"
       gradientTransform="matrix(0,-0.03604403,-0.03604301,0,339.56432,252.90909)"
       gradientUnits="userSpaceOnUse"
       id="linearGradient920"
       xlink:href="#linearGradient4338-3-6" />
    <linearGradient
       y2="207.36522"
       x2="35.310345"
       y1="419.23337"
       x1="459.03448"
       gradientTransform="matrix(0,-0.07208805,-0.07208601,0,359.12864,165.81816)"
       gradientUnits="userSpaceOnUse"
       id="linearGradient924"
       xlink:href="#linearGradient4338-3-6" />
    <linearGradient
       id="linearGradient927">
      <stop
         id="stop923"
         offset="0"
         style="stop-color:#ffffff;stop-opacity:1;" />
      <stop
         style="stop-color:#ffffff;stop-opacity:0.09803922"
         offset="0.125"
         id="stop933" />
      <stop
         style="stop-color:#ffffff;stop-opacity:0.09803922"
         offset="0.92500001"
         id="stop931" />
      <stop
         id="stop925"
         offset="1"
         style="stop-color:#ffffff;stop-opacity:0.49803922" />
    </linearGradient>
    <clipPath
       id="clipPath994-5"
       clipPathUnits="userSpaceOnUse">
      <path
         id="path996-3"
         d="m 335.73108,62 c -8.82418,0 -9.77365,0.90635 -9.7304,9.74838 V 84 96.25162 c -0.0433,8.84203 0.90622,9.74838 9.7304,9.74838 h 16.53919 c 8.82418,0 9.7304,-0.90625 9.7304,-9.74838 V 84 71.74838 C 362.00067,62.90625 361.09445,62 352.27027,62 Z"
         style="color:#000000;display:inline;overflow:visible;visibility:visible;fill:#cdcdcd;fill-opacity:1;fill-rule:nonzero;stroke:none;stroke-width:2;stroke-miterlimit:4;stroke-dasharray:none;stroke-opacity:1;marker:none;enable-background:accumulate" />
    </clipPath>
    <linearGradient
       gradientUnits="userSpaceOnUse"
       y2="211"
       x2="332"
       y1="189"
       x1="332"
       id="linearGradient981"
       xlink:href="#linearGradient927" />
    <clipPath
       id="clipPath971"
       clipPathUnits="userSpaceOnUse">
      <path
         id="path973"
         d="m 327.8652,189 c -4.41209,0 -4.88682,0.45318 -4.8652,4.87419 V 200 206.12581 C 322.9783,210.54682 323.45311,211 327.8652,211 h 8.2696 C 340.54689,211 341,210.54688 341,206.12581 V 200 193.87419 C 341,189.45313 340.54688,189 336.13479,189 Z"
         style="color:#000000;display:inline;overflow:visible;visibility:visible;opacity:1;fill:#46a926;fill-opacity:1;fill-rule:nonzero;stroke:none;stroke-width:2;stroke-miterlimit:4;stroke-dasharray:none;stroke-opacity:1;marker:none;enable-background:accumulate" />
    </clipPath>
    <linearGradient
       gradientUnits="userSpaceOnUse"
       y2="251"
       x2="328"
       y1="237"
       x1="328"
       id="linearGradient993"
       xlink:href="#linearGradient927" />
    <clipPath
       id="clipPath983"
       clipPathUnits="userSpaceOnUse">
      <path
         style="color:#000000;display:inline;overflow:visible;visibility:visible;opacity:1;fill:#46a926;fill-opacity:1;fill-rule:nonzero;stroke:none;stroke-width:2;stroke-miterlimit:4;stroke-dasharray:none;stroke-opacity:1;marker:none;enable-background:accumulate"
         d="m 325.09646,237 c -2.80769,0 -3.10979,0.28839 -3.09603,3.10176 V 244 v 3.89824 c -0.0138,2.81337 0.28834,3.10176 3.09603,3.10176 h 5.8075 C 333.71166,251 334,250.71165 334,247.89824 V 244 240.10176 C 334,237.28836 333.71165,237 330.90396,237 Z"
         id="path985" />
    </clipPath>
    <linearGradient
       gradientUnits="userSpaceOnUse"
       y2="162"
       x2="336"
       y1="134"
       x1="336"
       id="linearGradient969"
       xlink:href="#linearGradient927" />
    <clipPath
       id="clipPath959"
       clipPathUnits="userSpaceOnUse">
      <path
         id="path961"
         d="m 330.1929,133.99999 c -5.61538,0 -6.21958,0.57678 -6.19206,6.20352 v 7.79648 7.79648 c -0.0276,5.62673 0.57668,6.20351 6.19206,6.20351 h 11.615 c 5.6154,0 6.19208,-0.5767 6.19208,-6.20351 v -7.79648 -7.79648 c 0,-5.6268 -0.5767,-6.20352 -6.19208,-6.20352 z"
         style="color:#000000;display:inline;overflow:visible;visibility:visible;opacity:1;fill:#46a926;fill-opacity:1;fill-rule:nonzero;stroke:none;stroke-width:2;stroke-miterlimit:4;stroke-dasharray:none;stroke-opacity:1;marker:none;enable-background:accumulate" />
    </clipPath>
    <linearGradient
       id="linearGradient4338-3-6">
      <stop
         id="stop4340-0-7"
         offset="0"
         style="stop-color:#b52428;stop-opacity:1" />
      <stop
         id="stop4342-7-5"
         offset="1"
         style="stop-color:#d32429;stop-opacity:1" />
    </linearGradient>
    <linearGradient
       gradientUnits="userSpaceOnUse"
       y2="107"
       x2="344"
       y1="61"
       x1="344"
       id="linearGradient925"
       xlink:href="#linearGradient927-3-6"
       gradientTransform="translate(0.00141966)" />
    <linearGradient
       id="linearGradient927-3-6">
      <stop
         id="stop923-3"
         offset="0"
         style="stop-color:#ffffff;stop-opacity:1;" />
      <stop
         style="stop-color:#ffffff;stop-opacity:0.09803922"
         offset="0.125"
         id="stop933-6" />
      <stop
         style="stop-color:#ffffff;stop-opacity:0.09803922"
         offset="0.92500001"
         id="stop931-7" />
      <stop
         id="stop925-5"
         offset="1"
         style="stop-color:#000000;stop-opacity:0.49803922" />
    </linearGradient>
  </defs>
  <metadata
     id="metadata4">
    <rdf:RDF>
      <cc:Work
         rdf:about="">
        <dc:format>image/svg+xml</dc:format>
        <dc:type
           rdf:resource="http://purl.org/dc/dcmitype/StillImage" />
        <dc:creator>
          <cc:Agent>
            <dc:title>Sam Hewitt</dc:title>
          </cc:Agent>
        </dc:creator>
        <dc:source />
        <cc:license
           rdf:resource="http://creativecommons.org/licenses/by-sa/4.0/" />
        <dc:title>Suru Icon Theme Template</dc:title>
        <dc:subject>
          <rdf:Bag />
        </dc:subject>
        <dc:date />
        <dc:rights>
          <cc:Agent>
            <dc:title />
          </cc:Agent>
        </dc:rights>
        <dc:publisher>
          <cc:Agent>
            <dc:title />
          </cc:Agent>
        </dc:publisher>
        <dc:identifier />
        <dc:relation />
        <dc:language />
        <dc:coverage />
        <dc:description />
        <dc:contributor>
          <cc:Agent>
            <dc:title />
          </cc:Agent>
        </dc:contributor>
      </cc:Work>
      <cc:Work
         rdf:about="">
        <dc:format>image/svg+xml</dc:format>
        <dc:type
           rdf:resource="http://purl.org/dc/dcmitype/StillImage" />
      </cc:Work>
      <cc:License
         rdf:about="http://creativecommons.org/licenses/by-sa/4.0/">
        <cc:permits
           rdf:resource="http://creativecommons.org/ns#Reproduction" />
        <cc:permits
           rdf:resource="http://creativecommons.org/ns#Distribution" />
        <cc:requires
           rdf:resource="http://creativecommons.org/ns#Notice" />
        <cc:requires
           rdf:resource="http://creativecommons.org/ns#Attribution" />
        <cc:permits
           rdf:resource="http://creativecommons.org/ns#DerivativeWorks" />
        <cc:requires
           rdf:resource="http://creativecommons.org/ns#ShareAlike" />
      </cc:License>
    </rdf:RDF>
  </metadata>
  <g
     transform="translate(-24,-28)"
     id="layer1"
     style="display:inline">
    <g
       id="layer7"
       style="display:none">
      <text
         id="context"
         style="font-style:normal;font-variant:normal;font-weight:normal;font-stretch:normal;line-height:0%;font-family:'DejaVu Sans';-inkscape-font-specification:'DejaVu Sans';display:inline;fill:#000000;fill-opacity:1;stroke:none;enable-background:new"
         x="19.006836"
         xml:space="preserve"
         y="-8.2548828"><tspan
           id="tspan3933"
           x="19.006836"
           y="-8.2548828"
           style="font-style:normal;font-variant:normal;font-weight:normal;font-stretch:normal;font-size:18px;line-height:1.25;font-family:'DejaVu Sans';-inkscape-font-specification:'DejaVu Sans'">mimetypes</tspan></text>
      <text
         id="icon-name"
         style="font-style:normal;font-variant:normal;font-weight:bold;font-stretch:normal;line-height:0%;font-family:'DejaVu Sans';-inkscape-font-specification:'DejaVu Sans Bold';text-align:start;writing-mode:lr-tb;text-anchor:start;display:inline;fill:#000000;fill-opacity:1;stroke:none;enable-background:new"
         x="146.48828"
         xml:space="preserve"
         y="-8.2548828"><tspan
           id="tspan3937"
           x="146.48828"
           y="-8.2548828"
           style="font-style:normal;font-variant:normal;font-weight:bold;font-stretch:normal;font-size:18px;line-height:1.25;font-family:'DejaVu Sans';-inkscape-font-specification:'DejaVu Sans Bold'">application-vnd.ms-access</tspan><tspan
           id="tspan924"
           x="146.48828"
           y="1.4365234"
           style="font-style:normal;font-variant:normal;font-weight:bold;font-stretch:normal;font-size:18px;line-height:1.25;font-family:'DejaVu Sans';-inkscape-font-specification:'DejaVu Sans Bold'" /></text>
      <rect
         y="236"
         x="320"
         height="16"
         width="16"
         id="rect16x16"
         style="display:inline;overflow:visible;visibility:visible;fill:#cdcdcd;fill-opacity:1;fill-rule:nonzero;stroke:none;stroke-width:2;marker:none;enable-background:accumulate" />
      <rect
         y="188"
         x="320"
         height="24"
         width="24"
         id="rect24x24"
         style="display:inline;overflow:visible;visibility:visible;fill:#cdcdcd;fill-opacity:1;fill-rule:nonzero;stroke:none;stroke-width:2;marker:none;enable-background:accumulate" />
      <rect
         y="132"
         x="320"
         height="32"
         width="32"
         id="rect32x32"
         style="display:inline;overflow:visible;visibility:visible;fill:#cdcdcd;fill-opacity:1;fill-rule:nonzero;stroke:none;stroke-width:2;marker:none;enable-background:accumulate" />
      <rect
         style="display:inline;overflow:visible;visibility:visible;fill:#cdcdcd;fill-opacity:1;fill-rule:nonzero;stroke:none;stroke-width:2;marker:none;enable-background:accumulate"
         id="rect48x48"
         width="48"
         height="48"
         x="320"
         y="60" />
      <rect
         y="28"
         x="24"
         height="256"
         width="256"
         id="rect3951"
         style="display:inline;overflow:visible;visibility:visible;fill:#cdcdcd;fill-opacity:1;fill-rule:nonzero;stroke:none;stroke-width:2;marker:none;enable-background:accumulate" />
      <path
         id="path995"
         d="m 327.86523,189 c -1.12014,0 -2.01524,0.0241 -2.79101,0.1543 -0.77577,0.13022 -1.48014,0.38763 -2.00977,0.91601 -0.52962,0.52838 -0.79079,1.23687 -0.91992,2.01367 -0.12912,0.77681 -0.15002,1.67169 -0.14453,2.79493 V 201 v 5.125 c -0.005,1.12104 0.0156,2.01529 0.14453,2.79102 0.12912,0.77681 0.39029,1.48529 0.91992,2.01367 0.52964,0.52838 1.234,0.78579 2.00977,0.91601 0.77577,0.13022 1.67087,0.1543 2.79101,0.1543 h 8.26954 c 1.12013,0 2.01264,-0.024 2.78711,-0.1543 0.77446,-0.13033 1.48001,-0.38927 2.00781,-0.91797 0.5278,-0.52869 0.78594,-1.23438 0.91601,-2.00976 C 341.97577,208.14258 342,207.24735 342,206.125 V 201 194.875 c 0,-1.12235 -0.0242,-2.01758 -0.1543,-2.79297 -0.13007,-0.77538 -0.38821,-1.48107 -0.91601,-2.00976 -0.5278,-0.5287 -1.23334,-0.78764 -2.00781,-0.91797 C 338.1474,189.02397 337.25491,189 336.13477,189 Z"
         style="color:#000000;font-style:normal;font-variant:normal;font-weight:normal;font-stretch:normal;font-size:medium;line-height:normal;font-family:sans-serif;font-variant-ligatures:normal;font-variant-position:normal;font-variant-caps:normal;font-variant-numeric:normal;font-variant-alternates:normal;font-feature-settings:normal;text-indent:0;text-align:start;text-decoration:none;text-decoration-line:none;text-decoration-style:solid;text-decoration-color:#000000;letter-spacing:normal;word-spacing:normal;text-transform:none;writing-mode:lr-tb;direction:ltr;text-orientation:mixed;dominant-baseline:auto;baseline-shift:baseline;text-anchor:start;white-space:normal;shape-padding:0;clip-rule:nonzero;display:inline;overflow:visible;visibility:visible;opacity:0.1;isolation:auto;mix-blend-mode:normal;color-interpolation:sRGB;color-interpolation-filters:linearRGB;solid-color:#000000;solid-opacity:1;vector-effect:none;fill:#000000;fill-opacity:1;fill-rule:nonzero;stroke:none;stroke-width:2;stroke-linecap:butt;stroke-linejoin:miter;stroke-miterlimit:4;stroke-dasharray:none;stroke-dashoffset:0;stroke-opacity:1;marker:none;color-rendering:auto;image-rendering:auto;shape-rendering:auto;text-rendering:auto;enable-background:accumulate" />
      <path
         id="path997"
         d="m 325.0957,237 c -0.71904,0 -1.30185,0.0139 -1.83593,0.10352 -0.53409,0.0897 -1.0683,0.27628 -1.47657,0.68359 -0.40826,0.4073 -0.59657,0.94323 -0.68554,1.47851 -0.089,0.53529 -0.10119,1.12048 -0.0977,1.8418 V 244 v 3.89844 c -0.003,0.71816 0.009,1.30235 0.0977,1.83594 0.089,0.53528 0.27727,1.07121 0.68554,1.47851 0.40827,0.40731 0.94248,0.59394 1.47657,0.68359 0.53408,0.0897 1.11689,0.10352 1.83593,0.10352 h 5.8086 c 0.71904,0 1.30058,-0.0137 1.83398,-0.10352 0.53341,-0.0898 1.06768,-0.27792 1.47461,-0.68554 0.40693,-0.40762 0.59404,-0.94271 0.68359,-1.47656 C 334.98604,249.20052 335,248.61887 335,247.89844 V 244 241.10156 c 0,-0.72043 -0.014,-1.30208 -0.10352,-1.83594 -0.0895,-0.53385 -0.27666,-1.06894 -0.68359,-1.47656 -0.40693,-0.40762 -0.9412,-0.59578 -1.47461,-0.68554 C 332.20488,237.01375 331.62334,237 330.9043,237 Z"
         style="color:#000000;font-style:normal;font-variant:normal;font-weight:normal;font-stretch:normal;font-size:medium;line-height:normal;font-family:sans-serif;font-variant-ligatures:normal;font-variant-position:normal;font-variant-caps:normal;font-variant-numeric:normal;font-variant-alternates:normal;font-feature-settings:normal;text-indent:0;text-align:start;text-decoration:none;text-decoration-line:none;text-decoration-style:solid;text-decoration-color:#000000;letter-spacing:normal;word-spacing:normal;text-transform:none;writing-mode:lr-tb;direction:ltr;text-orientation:mixed;dominant-baseline:auto;baseline-shift:baseline;text-anchor:start;white-space:normal;shape-padding:0;clip-rule:nonzero;display:inline;overflow:visible;visibility:visible;opacity:0.1;isolation:auto;mix-blend-mode:normal;color-interpolation:sRGB;color-interpolation-filters:linearRGB;solid-color:#000000;solid-opacity:1;vector-effect:none;fill:#000000;fill-opacity:1;fill-rule:nonzero;stroke:none;stroke-width:2;stroke-linecap:butt;stroke-linejoin:miter;stroke-miterlimit:4;stroke-dasharray:none;stroke-dashoffset:0;stroke-opacity:1;marker:none;color-rendering:auto;image-rendering:auto;shape-rendering:auto;text-rendering:auto;enable-background:accumulate" />
      <path
         id="path999"
         d="m 330.19336,134 c -1.42096,0 -2.54883,0.0308 -3.50586,0.19141 -0.95703,0.16064 -1.79146,0.4726 -2.41211,1.09179 -0.62065,0.61919 -0.93647,1.45612 -1.0957,2.41407 -0.15924,0.95795 -0.18666,2.08705 -0.17969,3.51171 V 149 v 7.79688 c -0.007,1.42131 0.0207,2.5495 0.17969,3.50585 0.15923,0.95796 0.47505,1.79488 1.0957,2.41407 0.62065,0.61919 1.45508,0.93115 2.41211,1.09179 0.95703,0.16065 2.0849,0.19141 3.50586,0.19141 h 11.61523 c 1.42097,0 2.54669,-0.0307 3.50196,-0.19141 0.95527,-0.16075 1.78779,-0.47425 2.40625,-1.09375 0.61845,-0.6195 0.93134,-1.45363 1.09179,-2.41015 C 348.96905,159.34816 349,158.22066 349,156.79688 V 149 141.20312 c 0,-1.42378 -0.031,-2.55128 -0.19141,-3.50781 -0.16045,-0.95653 -0.47334,-1.79065 -1.09179,-2.41015 -0.61846,-0.61951 -1.45098,-0.933 -2.40625,-1.09375 C 344.35528,134.03065 343.22956,134 341.80859,134 Z"
         style="color:#000000;font-style:normal;font-variant:normal;font-weight:normal;font-stretch:normal;font-size:medium;line-height:normal;font-family:sans-serif;font-variant-ligatures:normal;font-variant-position:normal;font-variant-caps:normal;font-variant-numeric:normal;font-variant-alternates:normal;font-feature-settings:normal;text-indent:0;text-align:start;text-decoration:none;text-decoration-line:none;text-decoration-style:solid;text-decoration-color:#000000;letter-spacing:normal;word-spacing:normal;text-transform:none;writing-mode:lr-tb;direction:ltr;text-orientation:mixed;dominant-baseline:auto;baseline-shift:baseline;text-anchor:start;white-space:normal;shape-padding:0;clip-rule:nonzero;display:inline;overflow:visible;visibility:visible;opacity:0.1;isolation:auto;mix-blend-mode:normal;color-interpolation:sRGB;color-interpolation-filters:linearRGB;solid-color:#000000;solid-opacity:1;vector-effect:none;fill:#000000;fill-opacity:1;fill-rule:nonzero;stroke:none;stroke-width:2;stroke-linecap:butt;stroke-linejoin:miter;stroke-miterlimit:4;stroke-dasharray:none;stroke-dashoffset:0;stroke-opacity:1;marker:none;color-rendering:auto;image-rendering:auto;shape-rendering:auto;text-rendering:auto;enable-background:accumulate" />
    </g>
    <g
       style="display:inline"
       id="layer4">
      <path
         id="path1020"
         d="m 335.73047,62 c -2.22316,0 -3.97368,0.05118 -5.41406,0.292969 -1.44039,0.241784 -2.61905,0.695299 -3.48243,1.55664 -0.86337,0.861342 -1.31906,2.039471 -1.55859,3.480469 -0.23953,1.440999 -0.28629,3.195341 -0.27539,5.423828 V 85 97.251953 c -0.0108,2.225063 0.0361,3.978517 0.27539,5.417967 0.23953,1.441 0.69522,2.61913 1.55859,3.48047 0.86338,0.86134 2.04204,1.31486 3.48243,1.55664 1.44039,0.24179 3.1909,0.29297 5.41406,0.29297 h 16.53906 c 2.22316,0 3.97276,-0.0511 5.41016,-0.29297 1.4374,-0.24189 2.61246,-0.69694 3.47265,-1.55859 0.8602,-0.86165 1.3132,-2.03894 1.55469,-3.47852 C 362.94852,101.23035 363,99.479567 363,97.251953 V 85 72.748047 c 0,-2.227614 -0.0515,-3.978392 -0.29297,-5.417969 -0.24149,-1.439576 -0.69449,-2.616863 -1.55469,-3.478516 -0.86019,-0.861652 -2.03525,-1.316704 -3.47265,-1.558593 C 356.24229,62.051079 354.49269,62 352.26953,62 Z"
         style="color:#000000;font-style:normal;font-variant:normal;font-weight:normal;font-stretch:normal;font-size:medium;line-height:normal;font-family:sans-serif;font-variant-ligatures:normal;font-variant-position:normal;font-variant-caps:normal;font-variant-numeric:normal;font-variant-alternates:normal;font-feature-settings:normal;text-indent:0;text-align:start;text-decoration:none;text-decoration-line:none;text-decoration-style:solid;text-decoration-color:#000000;letter-spacing:normal;word-spacing:normal;text-transform:none;writing-mode:lr-tb;direction:ltr;text-orientation:mixed;dominant-baseline:auto;baseline-shift:baseline;text-anchor:start;white-space:normal;shape-padding:0;clip-rule:nonzero;display:inline;overflow:visible;visibility:visible;opacity:0.1;isolation:auto;mix-blend-mode:normal;color-interpolation:sRGB;color-interpolation-filters:linearRGB;solid-color:#000000;solid-opacity:1;vector-effect:none;fill:#000000;fill-opacity:1;fill-rule:nonzero;stroke:none;stroke-width:2;stroke-linecap:butt;stroke-linejoin:miter;stroke-miterlimit:4;stroke-dasharray:none;stroke-dashoffset:0;stroke-opacity:1;marker:none;color-rendering:auto;image-rendering:auto;shape-rendering:auto;text-rendering:auto;enable-background:accumulate" />
      <path
         transform="matrix(0.5,0,0,0.5,8,8)"
         id="rect4158-9"
         d="M 189.84323,74 C 119.24979,74 111.65402,81.250835 112,151.98706 V 298 444.01294 C 111.65402,514.74917 119.24979,522 189.84323,522 H 386.15677 C 456.75021,522 462.16345,514.72616 464,444.01294 V 298 151.98706 C 464,81.249993 456.75021,74 386.15677,74 Z"
         style="color:#000000;display:inline;overflow:visible;visibility:visible;opacity:0.1;fill:#000000;fill-opacity:1;fill-rule:nonzero;stroke:none;stroke-width:2;marker:none;filter:url(#filter4346);enable-background:accumulate" />
      <path
         transform="matrix(0.5,0,0,0.5,8,8)"
         style="color:#000000;display:inline;overflow:visible;visibility:visible;opacity:0.3;fill:url(#linearGradient4358);fill-opacity:1;fill-rule:nonzero;stroke:none;stroke-width:2;marker:none;filter:url(#filter4380);enable-background:accumulate"
         d="M 189.84323,74 C 119.24979,74 111.65402,81.250835 112,151.98706 V 298 444.01294 C 111.65402,514.74917 119.24979,522 189.84323,522 H 386.15677 C 456.75021,522 464,514.75001 464,444.01294 V 298 151.98706 C 464,81.249993 456.75021,74 386.15677,74 Z"
         id="path4350" />
    </g>
    <g
       style="display:inline"
       id="layer2">
      <path
         id="path949"
         d="m 335.73047,61 c -2.22284,0 -3.97472,0.05331 -5.41406,0.294922 -1.44111,0.241906 -2.61868,0.694922 -3.48243,1.55664 -0.8639,0.861875 -1.31896,2.036891 -1.55859,3.478516 -0.23931,1.43968 -0.28629,3.193562 -0.27539,5.421875 V 84 96.251953 c -0.0108,2.226005 0.0362,3.979287 0.27539,5.417967 0.23963,1.44163 0.69468,2.61664 1.55859,3.47852 0.86376,0.86171 2.04131,1.31473 3.48243,1.55664 1.43934,0.24161 3.19122,0.29492 5.41406,0.29492 h 16.53906 c 2.22282,0 3.97185,-0.0532 5.4082,-0.29492 1.43796,-0.24198 2.61359,-0.69415 3.47461,-1.55664 0.86073,-0.86218 1.31309,-2.03824 1.55469,-3.47852 C 362.94841,100.23102 363,98.478986 363,96.251953 V 84 71.748047 c 0,-2.227034 -0.0516,-3.979075 -0.29297,-5.417969 -0.2416,-1.440276 -0.69396,-2.616331 -1.55469,-3.478516 -0.86102,-0.862481 -2.03665,-1.314656 -3.47461,-1.55664 C 356.24138,61.053209 354.49235,61 352.26953,61 Z"
         style="color:#000000;display:inline;overflow:visible;visibility:visible;fill:url(#linearGradient951);fill-opacity:1;fill-rule:nonzero;stroke:none;stroke-width:1;marker:none;enable-background:accumulate" />
      <path
         id="rect4158"
         d="m 201.07298,44 c 35.29673,0 39.09461,3.625418 38.92162,38.99353 V 156 229.00647 C 240.16759,264.37459 236.36971,268 201.07298,268 H 102.91622 C 67.619504,268 63.994604,264.375 63.994604,229.00647 V 156 82.99353 C 63.994604,47.624997 67.619504,44 102.91622,44 Z"
         style="color:#000000;display:inline;overflow:visible;visibility:visible;fill:url(#linearGradient4226);fill-opacity:1;fill-rule:nonzero;stroke:none;stroke-width:1;marker:none;enable-background:accumulate" />
      <path
         id="path918"
         d="m 330.90385,236.5 c 0.71048,0 1.27344,0.0154 1.75195,0.0957 0.47851,0.0803 0.89671,0.23728 1.20703,0.54688 0.31032,0.30959 0.46726,0.7261 0.54688,1.20508 0.0796,0.47897 0.0933,1.04352 0.0898,1.75586 V 244 v 3.89844 c 0.003,0.71121 -0.0103,1.27546 -0.0898,1.7539 -0.0796,0.47898 -0.23655,0.89549 -0.54688,1.20508 -0.31033,0.3096 -0.72851,0.46655 -1.20703,0.54688 -0.47852,0.0803 -1.04147,0.0957 -1.75195,0.0957 h -5.8086 c -0.71048,0 -1.27236,-0.0153 -1.75,-0.0957 -0.47763,-0.0804 -0.89584,-0.23713 -1.20508,-0.54688 -0.30921,-0.30975 -0.46469,-0.72681 -0.54492,-1.20508 -0.0802,-0.47826 -0.0957,-1.04201 -0.0957,-1.7539 V 244 240.10156 c 0,-0.71189 0.0155,-1.27564 0.0957,-1.7539 0.0802,-0.47827 0.2357,-0.89533 0.54492,-1.20508 0.30924,-0.30975 0.72745,-0.4665 1.20508,-0.54688 0.47764,-0.0804 1.03952,-0.0957 1.75,-0.0957 z"
         style="color:#000000;display:inline;overflow:visible;visibility:visible;fill:url(#linearGradient920);fill-opacity:1;fill-rule:nonzero;stroke:none;stroke-width:1;marker:none;enable-background:accumulate" />
      <path
         id="path914"
         d="m 327.86523,188.5 c -1.11158,0 -1.98683,0.0256 -2.70703,0.14648 -0.72019,0.1209 -1.3105,0.34863 -1.74218,0.7793 -0.43169,0.43067 -0.65954,1.01974 -0.7793,1.74024 -0.11977,0.72049 -0.14217,1.59669 -0.13672,2.71093 V 200 v 6.125 c -0.005,1.1131 0.017,1.989 0.13672,2.70898 0.11976,0.72051 0.3476,1.30957 0.7793,1.74024 0.43169,0.43067 1.02199,0.6584 1.74218,0.7793 0.7202,0.12089 1.59545,0.14648 2.70703,0.14648 h 8.26954 c 1.11158,0 1.98637,-0.0255 2.70507,-0.14648 0.7187,-0.12095 1.30623,-0.34848 1.73633,-0.7793 0.4301,-0.43083 0.6566,-1.01849 0.77735,-1.73828 0.12074,-0.71979 0.14648,-1.59713 0.14648,-2.71094 V 200 193.875 c 0,-1.11381 -0.0257,-1.99115 -0.14648,-2.71094 -0.12075,-0.71979 -0.34725,-1.30745 -0.77735,-1.73828 -0.4301,-0.43082 -1.01763,-0.65835 -1.73633,-0.7793 -0.7187,-0.12094 -1.59349,-0.14648 -2.70507,-0.14648 z"
         style="color:#000000;display:inline;overflow:visible;visibility:visible;fill:url(#linearGradient916);fill-opacity:1;fill-rule:nonzero;stroke:none;stroke-width:1;marker:none;enable-background:accumulate" />
      <path
         id="path922"
         d="m 341.80573,133.5 c 1.41241,0 2.52238,0.0342 3.42383,0.18555 0.90145,0.15132 1.61987,0.43164 2.14258,0.95312 0.5227,0.52148 0.80325,1.23898 0.95312,2.14063 0.14988,0.90164 0.18075,2.0101 0.17383,3.42578 V 148 v 7.79688 c 0.007,1.41452 -0.024,2.52269 -0.17383,3.42382 -0.14987,0.90165 -0.43041,1.61915 -0.95312,2.14063 -0.52272,0.52148 -1.24112,0.8018 -2.14258,0.95312 -0.90146,0.15132 -2.01142,0.18555 -3.42383,0.18555 H 330.1905 c -1.41241,0 -2.51847,-0.0342 -3.41797,-0.18555 -0.8995,-0.15137 -1.61597,-0.43149 -2.13672,-0.95312 -0.52075,-0.52163 -0.80004,-1.23774 -0.95117,-2.13867 -0.15113,-0.90094 -0.18555,-2.01055 -0.18555,-3.42578 V 148 140.20312 c 0,-1.41524 0.0344,-2.52484 0.18555,-3.42578 0.15113,-0.90093 0.43042,-1.61703 0.95117,-2.13867 0.52075,-0.52163 1.23722,-0.80175 2.13672,-0.95312 0.8995,-0.15137 2.00556,-0.18555 3.41797,-0.18555 z"
         style="color:#000000;display:inline;overflow:visible;visibility:visible;fill:url(#linearGradient924);fill-opacity:1;fill-rule:nonzero;stroke:none;stroke-width:0.99999994;marker:none;enable-background:accumulate" />
    </g>
    <g
       style="display:inline"
       id="layer6">
      <path
         id="path1309"
         d="m 344.63086,73 -12.63281,1.873047 V 93.132812 L 344.54492,95 h 1.45313 c 0,0 -0.009,-22 0,-22 z m -5.23828,6.583984 c 0.89543,2.993679 1.74416,6.003636 2.6289,9 -0.61744,-0.04012 -1.2336,-0.0864 -1.8457,-0.142578 -0.16305,-0.668234 -0.33726,-1.336394 -0.51367,-2.001953 -0.82059,-0.0031 -1.64107,-0.03019 -2.45899,-0.07031 -0.15771,0.633482 -0.31742,1.265677 -0.48046,1.896484 -0.5239,-0.04012 -1.04519,-0.07854 -1.56641,-0.113281 0.78049,-2.814588 1.59205,-5.619005 2.36719,-8.433594 0.62279,-0.04545 1.24367,-0.0867 1.86914,-0.134766 z m -1.00586,1.59961 c -0.17908,1.269638 -0.57963,2.493205 -0.84961,3.74414 0.58805,0.0052 1.17687,0.0076 1.76758,0.0098 -0.3047,-1.250925 -0.6774,-2.486943 -0.91797,-3.753906 z"
         style="display:inline;fill:#ffffff;stroke-width:1.33333325;enable-background:new" />
      <path
         id="path982"
         d="M 332.31641,194.5 326,195.4375 v 9.12891 L 332.27344,205.5 H 333 c 0,0 -0.005,-11 0,-11 z m -2.43164,3.08203 c 0.49746,1.66316 0.96941,3.33536 1.46093,5 -0.34302,-0.0223 -0.68728,-0.047 -1.02734,-0.0781 -0.0906,-0.37125 -0.18715,-0.74353 -0.28516,-1.11329 -0.45589,-10e-4 -0.91083,-0.0168 -1.36523,-0.0391 -0.0876,0.35193 -0.177,0.70229 -0.26758,1.05274 -0.29105,-0.0223 -0.58153,-0.0432 -0.87109,-0.0625 0.43361,-1.56366 0.88576,-3.11993 1.3164,-4.6836 0.34599,-0.0252 0.69159,-0.0495 1.03907,-0.0762 z m -0.5586,0.88867 c -0.0995,0.70535 -0.32266,1.38512 -0.47265,2.08008 0.32669,0.003 0.65228,0.004 0.98046,0.006 -0.16928,-0.69496 -0.37416,-1.38207 -0.50781,-2.08594 z"
         style="display:inline;fill:#ffffff;stroke-width:1.33333325;enable-background:new" />
      <path
         style="display:inline;fill:#ffffff;stroke-width:1.33333325;enable-background:new"
         d="m 328,240.36523 -4,0.5918 v 6.08789 l 4,0.59375 z"
         id="path988" />
      <path
         style="display:inline;fill:#ffffff;stroke-width:1.33333325;enable-background:new"
         d="m 329,241 v 5.99951 c 0,0 3,4.9e-4 2.99975,-0.59638 v -4.80627 C 332,241 329,241 329,241 Z"
         id="path991" />
      <path
         id="path998"
         d="M 336.07812,140.66797 328,141.91602 v 12.17187 l 8.02148,1.24414 h 0.96875 c 0,0 -0.006,-14.66406 0,-14.66406 z m -3.08984,4.08789 c 0.69644,2.32842 1.35875,4.6695 2.04688,7 -0.48023,-0.0312 -0.96142,-0.0677 -1.4375,-0.11133 -0.12682,-0.51974 -0.26123,-1.03898 -0.39844,-1.55664 -0.63824,-0.002 -1.2779,-0.0235 -1.91406,-0.0547 -0.12267,0.4927 -0.24624,0.98398 -0.37305,1.47461 -0.40747,-0.0312 -0.81336,-0.0608 -1.21875,-0.0879 0.60705,-2.18912 1.23891,-4.36946 1.8418,-6.55859 0.48439,-0.0353 0.96664,-0.0681 1.45312,-0.10547 z M 332.20703,146 c -0.13928,0.9875 -0.45017,1.93721 -0.66015,2.91016 0.45737,0.004 0.91359,0.008 1.37304,0.01 -0.23699,-0.97295 -0.52578,-1.9345 -0.71289,-2.91992 z"
         style="display:inline;fill:#ffffff;stroke-width:1.33333325;enable-background:new" />
      <path
         id="path6"
         d="m 154.53125,100 c -19.5056,3.47359 -39.02175,8.08221 -58.527344,11.49219 0,29.67192 -0.0127,59.35636 0,89.04101 19.403804,3.39725 38.817954,7.92959 58.183594,11.4668 H 160 V 100 Z m 23.00195,15.49805 c -4.53414,0.0445 -9.06819,0.42015 -13.5332,1.03515 v 16.56055 c 12.54667,1.89333 25.62737,1.50773 37.7207,-2.57227 2.56,-1.12 5.7987,-2.52028 6.33203,-5.62695 -0.72,-3.8 -4.9852,-5.2274 -8.17187,-6.41406 -7.23333,-2.20834 -14.79076,-3.05664 -22.34766,-2.98242 z m 30.50782,15.83593 c -4.74667,3.81333 -10.86771,5.0806 -16.73438,5.94727 -9.05333,1.18663 -18.25331,1.19943 -27.30664,0.0527 v 17.2793 c 11.30667,1.45333 22.9194,1.38839 34.05273,-1.23828 3.41334,-0.97333 7.20123,-1.98813 9.58789,-4.82812 0.85333,-5.68001 0.10707,-11.47957 0.4004,-17.2129 z m -76.81446,3.89258 c 4.46666,14.93334 8.70776,29.94787 13.1211,44.89453 -3.08,-0.2 -6.16151,-0.42703 -9.21485,-0.70703 -0.81333,-3.33334 -1.67859,-6.66633 -2.55859,-9.98633 -4.09333,-0.0133 -8.18758,-0.14765 -12.26758,-0.34765 -0.78667,3.16 -1.58706,6.30645 -2.40039,9.45312 -2.61333,-0.2 -5.2125,-0.38526 -7.8125,-0.55859 3.89333,-14.04 7.94583,-28.02641 11.8125,-42.06641 3.10667,-0.22666 6.20031,-0.44164 9.32031,-0.68164 z m -5.01367,7.98828 c -0.89333,6.33333 -2.89357,12.42602 -4.24023,18.66602 2.93333,0.0266 5.86778,0.0394 8.81445,0.0527 -1.52,-6.24 -3.37423,-12.39875 -4.57422,-18.71875 z m 81.82813,9.45313 c -4.72,3.8 -10.80097,5.06692 -16.6543,5.93359 -9.08,1.20004 -18.30672,1.22642 -27.38672,0.0664 v 17.29297 c 11.33333,1.44 22.98648,1.37404 34.14648,-1.2793 3.4,-0.97333 7.1862,-1.9865 9.51954,-4.83984 0.78666,-5.67999 0.10833,-11.45383 0.375,-17.17383 z m 0,21.33203 c -4.74667,3.8 -10.84037,5.08025 -16.70704,5.93359 -9.06666,1.20004 -18.26731,1.22642 -27.33398,0.0664 0,5.74667 0.0406,11.47989 -0.0527,17.22656 9.52,1.37333 19.23943,1.34787 28.74609,-0.10547 5.18667,-1.05333 11.17393,-1.81325 14.94726,-5.91992 0.84001,-5.68 0.1204,-11.48117 0.4004,-17.20117 z"
         style="fill:#ffffff;stroke-width:1.33333325;enable-background:new" />
      <path
         id="path20"
         d="m 326.26769,242.50196 c 0.29848,0.99789 0.58188,2.0012 0.87678,2.99998 -0.2058,-0.0134 -0.41159,-0.0286 -0.61562,-0.0472 -0.0544,-0.22275 -0.1123,-0.44547 -0.17111,-0.66732 -0.27353,-6e-4 -0.54712,-0.01 -0.81976,-0.0232 -0.0526,0.21116 -0.10592,0.42143 -0.16026,0.6317 -0.17463,-0.0134 -0.34845,-0.0259 -0.52219,-0.0374 0.26017,-0.93819 0.5311,-1.8728 0.78948,-2.811 0.20759,-0.0152 0.41419,-0.0294 0.62268,-0.0454 z m -0.33491,0.53367 c -0.0597,0.42321 -0.19335,0.83047 -0.28334,1.24745 0.19601,10e-4 0.39197,0.002 0.58888,0.004 -0.10157,-0.41698 -0.22535,-0.82865 -0.30554,-1.25097 z"
         style="display:inline;fill:#a33639;stroke-width:1.33333337;enable-background:new" />
      <path
         id="path992"
         d="m 349.42578,75.001953 c -0.8117,0.0082 -1.62246,0.07363 -2.42578,0.167969 v 3.724609 c 2.56977,0.326134 5.22264,0.206585 7.6875,-0.625 0.55692,-0.24365 1.26092,-0.548769 1.37695,-1.224609 -0.15664,-0.82668 -1.08409,-1.136381 -1.77734,-1.394531 -1.57359,-0.48042 -3.21735,-0.664578 -4.86133,-0.648438 z m 6.63672,3.443359 c -1.03262,0.829581 -2.36436,1.106382 -3.64062,1.294922 -1.79697,0.235532 -3.62027,0.247776 -5.42188,0.06055 v 3.757813 c 2.29542,0.24999 4.63621,0.213056 6.88867,-0.31836 0.74256,-0.21175 1.56673,-0.430998 2.08594,-1.048828 0.18564,-1.23567 0.0241,-2.498823 0.0879,-3.746094 z m 0,4.642579 c -1.02682,0.82668 -2.34968,1.102475 -3.62305,1.291015 -1.80272,0.238249 -3.63208,0.251695 -5.43945,0.0625 v 3.759766 c 2.30156,0.247753 4.65191,0.212685 6.91016,-0.324219 0.73966,-0.21175 1.5627,-0.431994 2.07031,-1.052734 0.17114,-1.23566 0.024,-2.491958 0.082,-3.736328 z m 0,4.640625 c -1.03262,0.82668 -2.3585,1.105375 -3.63477,1.291015 -1.79985,0.238228 -3.62363,0.251625 -5.42773,0.0625 v 3.75586 c 1.90094,0.22591 3.83053,0.209146 5.72266,-0.08008 1.12834,-0.22915 2.43107,-0.393719 3.25195,-1.287109 0.18274,-1.23567 0.027,-2.497817 0.0879,-3.742187 z"
         style="display:inline;fill:#ffffff;stroke-width:1.33333325;enable-background:new" />
      <path
         style="display:inline;fill:#ffffff;stroke-width:1.33333325;enable-background:new"
         d="m 335.21344,195.50048 c -0.40603,0.004 -0.8116,0.0368 -1.21344,0.084 v 1.86316 c 1.28547,0.16314 2.61251,0.10334 3.84551,-0.31265 0.27858,-0.12188 0.63075,-0.27451 0.68879,-0.61258 -0.0784,-0.41353 -0.5423,-0.56845 -0.88908,-0.69759 -0.78716,-0.24032 -1.60941,-0.33244 -2.43178,-0.32437 z m 3.31988,1.72247 c -0.51654,0.41498 -1.18272,0.55344 -1.82114,0.64775 -0.8989,0.11782 -1.81097,0.12395 -2.71218,0.0303 v 1.87977 c 1.14823,0.12505 2.31916,0.10658 3.44591,-0.15925 0.37145,-0.10592 0.78372,-0.2156 1.04345,-0.52466 0.0929,-0.61811 0.0121,-1.24998 0.044,-1.8739 z m 0,2.32235 c -0.51364,0.41353 -1.17538,0.55149 -1.81235,0.6458 -0.90178,0.11918 -1.81688,0.12591 -2.72097,0.0313 v 1.88075 c 1.1513,0.12393 2.32702,0.10639 3.45666,-0.16219 0.37,-0.10592 0.78171,-0.21609 1.03563,-0.5266 0.0856,-0.61812 0.012,-1.24655 0.041,-1.86902 z m 0,2.32138 c -0.51654,0.41353 -1.17979,0.55294 -1.81822,0.6458 -0.90033,0.11917 -1.81264,0.12587 -2.7151,0.0313 v 1.87879 c 0.9509,0.11301 1.91614,0.10462 2.86264,-0.0401 0.56443,-0.11463 1.21609,-0.19695 1.62672,-0.64385 0.0914,-0.61812 0.0135,-1.24948 0.044,-1.87195 z"
         id="path1012" />
      <path
         style="display:inline;fill:#ffffff;stroke-width:1.33333325;enable-background:new"
         d="m 339.61793,142.00063 c -0.54139,0.005 -1.08214,0.0491 -1.61793,0.11203 v 2.48422 c 1.71396,0.21752 3.48335,0.13778 5.12735,-0.41686 0.37145,-0.16251 0.841,-0.36602 0.91838,-0.81678 -0.10447,-0.55137 -0.72305,-0.75794 -1.18543,-0.93012 -1.04954,-0.32042 -2.14589,-0.44325 -3.24237,-0.43249 z m 4.4265,2.29663 c -0.68873,0.55331 -1.57696,0.73793 -2.42819,0.86368 -1.19853,0.15709 -2.41462,0.16526 -3.61624,0.0404 v 2.50635 c 1.53098,0.16674 3.09222,0.1421 4.59455,-0.21234 0.49527,-0.14123 1.04496,-0.28746 1.39126,-0.69953 0.12382,-0.82416 0.0161,-1.66665 0.0586,-2.49855 z m 0,3.09647 c -0.68486,0.55137 -1.56717,0.73532 -2.41647,0.86107 -1.20236,0.15891 -2.4225,0.16788 -3.62796,0.0417 v 2.50766 c 1.53507,0.16525 3.10269,0.14186 4.60888,-0.21624 0.49333,-0.14124 1.04228,-0.28813 1.38084,-0.70215 0.11415,-0.82415 0.016,-1.66207 0.0547,-2.49203 z m 0,3.09517 c -0.68873,0.55137 -1.57305,0.73725 -2.42429,0.86107 -1.20045,0.15889 -2.41686,0.16783 -3.62014,0.0417 v 2.50505 c 1.26787,0.15068 2.55485,0.1395 3.81685,-0.0534 0.75257,-0.15283 1.62146,-0.2626 2.16896,-0.85846 0.12189,-0.82416 0.018,-1.66598 0.0586,-2.49594 z"
         id="path1029" />
    </g>
    <g
       style="display:inline"
       id="layer3">
      <path
         id="path4231"
         d="m 152,44 v 224 h 49.07812 C 236.37484,268 239.08173,264.36345 240,229.00683 V 156 82.993165 C 240,47.624631 236.37484,44 201.07812,44 Z"
         style="color:#000000;display:inline;overflow:visible;visibility:visible;opacity:0.07999998;fill:#ffffff;fill-opacity:1;fill-rule:nonzero;stroke:none;stroke-width:1;marker:none;enable-background:accumulate" />
      <path
         id="path4255"
         d="m 64,156 v 73.00683 C 63.82701,264.37495 67.625155,268 102.92188,268 h 98.15624 C 236.37484,268 239.08173,264.36345 240,229.00683 V 156 Z"
         style="color:#000000;display:inline;overflow:visible;visibility:visible;opacity:0.07999998;fill:#ffffff;fill-opacity:1;fill-rule:nonzero;stroke:none;stroke-width:1;marker:none;enable-background:accumulate" />
      <path
         id="path4254"
         d="m 180,268 60,-60 v 22.48388 C 239.94765,264.47969 236.19732,268 201.8259,268 Z"
         style="color:#000000;display:inline;overflow:visible;visibility:visible;opacity:0.07999998;fill:#ffffff;fill-opacity:1;fill-rule:nonzero;stroke:none;stroke-width:7.99999952;stroke-linecap:butt;stroke-linejoin:miter;stroke-miterlimit:4;stroke-dasharray:none;stroke-dashoffset:0;stroke-opacity:1;marker:none;enable-background:accumulate" />
      <path
         id="path1006"
         d="M 326,84 V 96.251953 C 325.9567,105.09398 326.90629,106 335.73047,106 h 16.53906 C 361.09371,106 362,105.09408 362,96.251953 V 84 Z"
         style="color:#000000;display:inline;overflow:visible;visibility:visible;opacity:0.07999998;fill:#ffffff;fill-opacity:1;fill-rule:nonzero;stroke:none;stroke-width:1;marker:none;enable-background:accumulate" />
      <path
         id="path1013"
         d="m 344,62 v 44 h 8.26953 C 361.09371,106 362,105.09408 362,96.251953 V 84 71.748047 C 362,62.905917 361.09371,62 352.26953,62 Z"
         style="color:#000000;display:inline;overflow:visible;visibility:visible;opacity:0.07999998;fill:#ffffff;fill-opacity:1;fill-rule:nonzero;stroke:none;stroke-width:1;marker:none;enable-background:accumulate" />
      <path
         id="path1007"
         d="m 323,200 v 6.125 c -0.0217,4.42101 0.45314,4.875 4.86523,4.875 h 8.26954 C 340.54686,211 341,210.54607 341,206.125 V 200 Z"
         style="color:#000000;display:inline;overflow:visible;visibility:visible;opacity:0.07999998;fill:#ffffff;fill-opacity:1;fill-rule:nonzero;stroke:none;stroke-width:1;marker:none;enable-background:accumulate" />
      <path
         id="path1014"
         d="m 332,189 v 22 h 4.13477 C 340.54686,211 341,210.54607 341,206.125 V 200 193.875 C 341,189.45394 340.54686,189 336.13477,189 Z"
         style="color:#000000;display:inline;overflow:visible;visibility:visible;opacity:0.07999998;fill:#ffffff;fill-opacity:1;fill-rule:nonzero;stroke:none;stroke-width:1;marker:none;enable-background:accumulate" />
      <path
         id="path1011"
         d="m 324,148 v 7.79688 C 323.9724,161.42361 324.57798,162 330.19336,162 h 11.61523 C 347.42399,162 348,161.42369 348,155.79688 V 148 Z"
         style="color:#000000;display:inline;overflow:visible;visibility:visible;opacity:0.07999998;fill:#ffffff;fill-opacity:1;fill-rule:nonzero;stroke:none;stroke-width:0.99999994;marker:none;enable-background:accumulate" />
      <path
         id="path1018"
         d="m 336,134 v 28 h 5.80859 C 347.42399,162 348,161.42369 348,155.79688 V 148 140.20312 C 348,134.57632 347.42397,134 341.80859,134 Z"
         style="color:#000000;display:inline;overflow:visible;visibility:visible;opacity:0.07999998;fill:#ffffff;fill-opacity:1;fill-rule:nonzero;stroke:none;stroke-width:0.99999994;marker:none;enable-background:accumulate" />
      <path
         id="path1009"
         d="m 328,237 v 14 h 2.9043 C 333.712,251 334,250.71185 334,247.89844 V 244 240.10156 C 334,237.28816 333.71199,237 330.9043,237 Z"
         style="color:#000000;display:inline;overflow:visible;visibility:visible;opacity:0.07999998;fill:#ffffff;fill-opacity:1;fill-rule:nonzero;stroke:none;stroke-width:1;marker:none;enable-background:accumulate" />
      <path
         id="path1016"
         d="m 322,244 v 3.89844 C 321.9862,250.71181 322.28801,251 325.0957,251 h 5.8086 C 333.712,251 334,250.71185 334,247.89844 V 244 Z"
         style="color:#000000;display:inline;overflow:visible;visibility:visible;opacity:0.07999998;fill:#ffffff;fill-opacity:1;fill-rule:nonzero;stroke:none;stroke-width:1;marker:none;enable-background:accumulate" />
    </g>
    <g
       style="display:inline"
       id="layer9">
      <path
         style="color:#000000;display:inline;overflow:visible;visibility:visible;opacity:0.4;fill:none;fill-opacity:1;fill-rule:nonzero;stroke:#000000;stroke-width:0.99999994;stroke-opacity:1;marker:none;enable-background:accumulate"
         d="m 330.19336,133.5 c -1.41241,0 -2.52238,0.0342 -3.42383,0.18555 -0.90145,0.15132 -1.61987,0.43164 -2.14258,0.95312 -0.5227,0.52148 -0.80325,1.23898 -0.95312,2.14063 -0.14988,0.90164 -0.18075,2.0101 -0.17383,3.42578 V 148 v 7.79688 c -0.007,1.41452 0.024,2.52269 0.17383,3.42382 0.14987,0.90165 0.43041,1.61915 0.95312,2.14063 0.52272,0.52148 1.24112,0.8018 2.14258,0.95312 0.90146,0.15132 2.01142,0.18555 3.42383,0.18555 h 11.61523 c 1.41241,0 2.51847,-0.0342 3.41797,-0.18555 0.8995,-0.15137 1.61597,-0.43149 2.13672,-0.95312 0.52075,-0.52163 0.80004,-1.23774 0.95117,-2.13867 0.15113,-0.90094 0.18555,-2.01055 0.18555,-3.42578 V 148 140.20312 c 0,-1.41524 -0.0344,-2.52484 -0.18555,-3.42578 -0.15113,-0.90093 -0.43042,-1.61703 -0.95117,-2.13867 -0.52075,-0.52163 -1.23722,-0.80175 -2.13672,-0.95312 C 344.32706,133.53418 343.221,133.5 341.80859,133.5 Z"
         id="path1089" />
      <path
         style="color:#000000;display:inline;overflow:visible;visibility:visible;opacity:0.4;fill:none;fill-opacity:1;fill-rule:nonzero;stroke:#000000;stroke-width:1;stroke-opacity:1;marker:none;enable-background:accumulate"
         d="m 327.86523,188.5 c -1.11158,0 -1.98683,0.0256 -2.70703,0.14648 -0.72019,0.1209 -1.3105,0.34863 -1.74218,0.7793 -0.43169,0.43067 -0.65954,1.01974 -0.7793,1.74024 -0.11977,0.72049 -0.14217,1.59669 -0.13672,2.71093 V 200 v 6.125 c -0.005,1.1131 0.017,1.989 0.13672,2.70898 0.11976,0.72051 0.3476,1.30957 0.7793,1.74024 0.43169,0.43067 1.02199,0.6584 1.74218,0.7793 0.7202,0.12089 1.59545,0.14648 2.70703,0.14648 h 8.26954 c 1.11158,0 1.98637,-0.0255 2.70507,-0.14648 0.7187,-0.12095 1.30623,-0.34848 1.73633,-0.7793 0.4301,-0.43083 0.6566,-1.01849 0.77735,-1.73828 0.12074,-0.71979 0.14648,-1.59713 0.14648,-2.71094 V 200 193.875 c 0,-1.11381 -0.0257,-1.99115 -0.14648,-2.71094 -0.12075,-0.71979 -0.34725,-1.30745 -0.77735,-1.73828 -0.4301,-0.43082 -1.01763,-0.65835 -1.73633,-0.7793 -0.7187,-0.12094 -1.59349,-0.14648 -2.70507,-0.14648 z"
         id="path1085" />
      <path
         style="color:#000000;display:inline;overflow:visible;visibility:visible;opacity:0.4;fill:none;fill-opacity:1;fill-rule:nonzero;stroke:#000000;stroke-width:1;stroke-opacity:1;marker:none;enable-background:accumulate"
         d="m 325.0957,236.5 c -0.71048,0 -1.27344,0.0154 -1.75195,0.0957 -0.47851,0.0803 -0.89671,0.23728 -1.20703,0.54688 -0.31032,0.30959 -0.46726,0.7261 -0.54688,1.20508 -0.0796,0.47897 -0.0933,1.04352 -0.0898,1.75586 V 244 v 3.89844 c -0.003,0.71121 0.0103,1.27546 0.0898,1.7539 0.0796,0.47898 0.23655,0.89549 0.54688,1.20508 0.31033,0.3096 0.72851,0.46655 1.20703,0.54688 0.47852,0.0803 1.04147,0.0957 1.75195,0.0957 h 5.8086 c 0.71048,0 1.27236,-0.0153 1.75,-0.0957 0.47763,-0.0804 0.89584,-0.23713 1.20508,-0.54688 0.30921,-0.30975 0.46469,-0.72681 0.54492,-1.20508 0.0802,-0.47826 0.0957,-1.04201 0.0957,-1.7539 V 244 240.10156 c 0,-0.71189 -0.0155,-1.27564 -0.0957,-1.7539 -0.0802,-0.47827 -0.2357,-0.89533 -0.54492,-1.20508 -0.30924,-0.30975 -0.72745,-0.4665 -1.20508,-0.54688 -0.47764,-0.0804 -1.03952,-0.0957 -1.75,-0.0957 z"
         id="path1087" />
    </g>
    <g
       style="display:inline"
       id="layer5">
      <path
         id="path945"
         d="m 64,227.00586 v 2 C 63.82701,264.37398 67.62515,268 102.92188,268 h 98.15624 c 35.29672,0 38.00361,-3.63752 38.92188,-38.99414 v -2 C 239.08173,262.36248 236.37484,266 201.07812,266 H 102.92188 C 67.62515,266 63.82701,262.37398 64,227.00586 Z"
         style="color:#000000;display:inline;overflow:visible;visibility:visible;opacity:0.2;fill:#000000;fill-opacity:1;fill-rule:nonzero;stroke:none;stroke-width:1;marker:none;enable-background:accumulate" />
      <path
         clip-path="url(#clipPath971)"
         style="color:#000000;display:inline;overflow:visible;visibility:visible;opacity:0.4;fill:none;fill-opacity:1;fill-rule:nonzero;stroke:url(#linearGradient981);stroke-width:2;stroke-miterlimit:4;stroke-dasharray:none;stroke-opacity:1;marker:none;enable-background:accumulate"
         d="m 327.8652,189 c -4.41209,0 -4.88682,0.45318 -4.8652,4.87419 V 200 206.12581 C 322.9783,210.54682 323.45311,211 327.8652,211 h 8.2696 C 340.54689,211 341,210.54688 341,206.12581 V 200 193.87419 C 341,189.45313 340.54688,189 336.13479,189 Z"
         id="path935"
         transform="matrix(-1,0,0,1,663.99932,0)" />
      <path
         clip-path="url(#clipPath983)"
         id="path937"
         d="m 325.09646,237 c -2.80769,0 -3.10979,0.28839 -3.09603,3.10176 V 244 v 3.89824 c -0.0138,2.81337 0.28834,3.10176 3.09603,3.10176 h 5.8075 C 333.71166,251 334,250.71165 334,247.89824 V 244 240.10176 C 334,237.28836 333.71165,237 330.90396,237 Z"
         style="color:#000000;display:inline;overflow:visible;visibility:visible;opacity:0.4;fill:none;fill-opacity:1;fill-rule:nonzero;stroke:url(#linearGradient993);stroke-width:2;stroke-miterlimit:4;stroke-dasharray:none;stroke-opacity:1;marker:none;enable-background:accumulate"
         transform="translate(1.5261807e-6)" />
      <path
         clip-path="url(#clipPath959)"
         style="color:#000000;display:inline;overflow:visible;visibility:visible;opacity:0.4;fill:none;fill-opacity:1;fill-rule:nonzero;stroke:url(#linearGradient969);stroke-width:2;stroke-miterlimit:4;stroke-dasharray:none;stroke-opacity:1;marker:none;enable-background:accumulate"
         d="m 330.1929,133.99999 c -5.61538,0 -6.21958,0.57678 -6.19206,6.20352 v 7.79648 7.79648 c -0.0276,5.62673 0.57668,6.20351 6.19206,6.20351 h 11.615 c 5.6154,0 6.19208,-0.5767 6.19208,-6.20351 v -7.79648 -7.79648 c 0,-5.6268 -0.5767,-6.20352 -6.19208,-6.20352 z"
         id="path939"
         transform="translate(1.5261807e-6)" />
      <path
         id="path931"
         d="M 102.92188,44 C 67.625152,44 63.82701,47.626029 64,82.994141 v 2 C 63.82701,49.626029 67.625152,46 102.92188,46 h 98.15624 C 236.37485,46 240,49.625608 240,84.994141 v -2 C 240,47.625608 236.37485,44 201.07812,44 Z"
         style="color:#000000;display:inline;overflow:visible;visibility:visible;opacity:0.4;fill:#ffffff;fill-opacity:1;fill-rule:nonzero;stroke:none;stroke-width:1;marker:none;enable-background:accumulate" />
      <path
         style="color:#000000;display:inline;overflow:visible;visibility:visible;opacity:0.3;fill:none;fill-opacity:1;fill-rule:nonzero;stroke:url(#linearGradient925);stroke-width:1;stroke-opacity:1;marker:none;enable-background:accumulate"
         d="m 335.73189,61.5 c -2.21461,0 -3.94722,0.05465 -5.33203,0.287109 -1.38481,0.232456 -2.44551,0.654338 -3.21094,1.417969 -0.76543,0.763631 -1.1878,1.822342 -1.41797,3.207031 -0.23017,1.38469 -0.28039,3.118394 -0.26953,5.337891 V 84 96.251953 c -0.0108,2.218334 0.0394,3.951757 0.26953,5.335937 0.23017,1.38469 0.65253,2.4434 1.41797,3.20703 0.76544,0.76363 1.82612,1.18551 3.21094,1.41797 1.38481,0.23246 3.11742,0.28711 5.33203,0.28711 h 16.53906 c 2.2146,0 3.94454,-0.0546 5.32617,-0.28711 1.38163,-0.2325 2.44064,-0.65418 3.20313,-1.41797 0.76249,-0.76378 1.18385,-1.82305 1.41601,-3.20703 0.23217,-1.38398 0.28516,-3.116864 0.28516,-5.335937 V 84 71.748047 c 0,-2.219073 -0.053,-3.951957 -0.28516,-5.335938 -0.23216,-1.383981 -0.65352,-2.443248 -1.41601,-3.207031 -0.76249,-0.763783 -1.8215,-1.185464 -3.20313,-1.417969 C 356.21549,61.554605 354.48555,61.5 352.27095,61.5 Z"
         id="path901" />
    </g>
  </g>
</svg>
