<?xml version="1.0" encoding="UTF-8" standalone="no"?>
<svg
   xmlns:dc="http://purl.org/dc/elements/1.1/"
   xmlns:cc="http://creativecommons.org/ns#"
   xmlns:rdf="http://www.w3.org/1999/02/22-rdf-syntax-ns#"
   xmlns:svg="http://www.w3.org/2000/svg"
   xmlns="http://www.w3.org/2000/svg"
   xmlns:xlink="http://www.w3.org/1999/xlink"
   width="24"
   version="1.0"
   style="display:inline;enable-background:new"
   id="svg11300"
   height="24">
  <title
     id="title8836">Optical Drive</title>
  <metadata
     id="metadata154">
    <rdf:RDF>
      <cc:Work
         rdf:about="">
        <dc:format>image/svg+xml</dc:format>
        <dc:type
           rdf:resource="http://purl.org/dc/dcmitype/StillImage" />
        <dc:title />
        <dc:creator>
          <cc:Agent>
            <dc:title />
          </cc:Agent>
        </dc:creator>
        <dc:contributor>
          <cc:Agent>
            <dc:title />
          </cc:Agent>
        </dc:contributor>
        <dc:source />
        <cc:license
           rdf:resource="" />
        <dc:subject>
          <rdf:Bag />
        </dc:subject>
      </cc:Work>
    </rdf:RDF>
  </metadata>
  <defs
     id="defs3">
    <linearGradient
       id="linearGradient4606">
      <stop
         id="stop4608"
         offset="0"
         style="stop-color:#000000;stop-opacity:1;" />
      <stop
         id="stop4610"
         offset="1"
         style="stop-color:#000000;stop-opacity:0;" />
    </linearGradient>
    <linearGradient
       id="linearGradient4598">
      <stop
         id="stop4600"
         offset="0"
         style="stop-color:#ffffff;stop-opacity:1;" />
      <stop
         id="stop4602"
         offset="1"
         style="stop-color:#ffffff;stop-opacity:0;" />
    </linearGradient>
    <linearGradient
       id="linearGradient4374">
      <stop
         id="stop4376"
         offset="0"
         style="stop-color:#ffffff;stop-opacity:1;" />
      <stop
         id="stop4378"
         offset="1"
         style="stop-color:#ffffff;stop-opacity:0;" />
    </linearGradient>
    <linearGradient
       id="linearGradient4206">
      <stop
         id="stop4208"
         offset="0"
         style="stop-color:#ffffff;stop-opacity:1;" />
      <stop
         id="stop4210"
         offset="1"
         style="stop-color:#babdb6;stop-opacity:1" />
    </linearGradient>
    <linearGradient
       id="linearGradient4175">
      <stop
         id="stop4177"
         offset="0"
         style="stop-color:#babdb6;stop-opacity:1" />
      <stop
         id="stop4179"
         offset="1"
         style="stop-color:#ffffff;stop-opacity:1" />
    </linearGradient>
    <linearGradient
       id="linearGradient4097">
      <stop
         id="stop4099"
         offset="0"
         style="stop-color:#000000;stop-opacity:1;" />
      <stop
         id="stop4101"
         offset="1"
         style="stop-color:#000000;stop-opacity:0;" />
    </linearGradient>
    <linearGradient
       id="linearGradient3989">
      <stop
         id="stop3991"
         offset="0"
         style="stop-color:#babdb6;stop-opacity:1;" />
      <stop
         id="stop3993"
         offset="1"
         style="stop-color:#eeeeec;stop-opacity:1" />
    </linearGradient>
    <linearGradient
       id="linearGradient3983">
      <stop
         id="stop3985"
         offset="0"
         style="stop-color:#555753;stop-opacity:1" />
      <stop
         id="stop3987"
         offset="1"
         style="stop-color:#888a85;stop-opacity:1" />
    </linearGradient>
    <linearGradient
       id="linearGradient4321">
      <stop
         id="stop4323"
         offset="0"
         style="stop-color:#d3d7cf;stop-opacity:1;" />
      <stop
         id="stop4325"
         offset="1"
         style="stop-color:#eeeeec;stop-opacity:1" />
    </linearGradient>
    <linearGradient
       id="linearGradient4181">
      <stop
         id="stop4183"
         offset="0"
         style="stop-color:#888a85;stop-opacity:1;" />
      <stop
         id="stop4185"
         offset="1"
         style="stop-color:#babdb6;stop-opacity:1" />
    </linearGradient>
    <linearGradient
       id="linearGradient3301">
      <stop
         id="stop3303"
         offset="0"
         style="stop-color:#eeeeec;stop-opacity:1" />
      <stop
         id="stop3305"
         offset="1"
         style="stop-color:#babdb6;stop-opacity:1" />
    </linearGradient>
    <linearGradient
       id="linearGradient7340">
      <stop
         style="stop-color:#555753;stop-opacity:1"
         offset="0"
         id="stop7342" />
      <stop
         style="stop-color:#888a85;stop-opacity:1"
         offset="1"
         id="stop7344" />
    </linearGradient>
    <linearGradient
       id="linearGradient6991">
      <stop
         style="stop-color:#d3d7cf;stop-opacity:1"
         offset="0"
         id="stop6993" />
      <stop
         style="stop-color:#ffffff;stop-opacity:1"
         offset="1"
         id="stop6995" />
    </linearGradient>
    <linearGradient
       id="linearGradient7019">
      <stop
         style="stop-color:#9ebdde;stop-opacity:1"
         offset="0"
         id="stop7021" />
      <stop
         style="stop-color:#9ebdde;stop-opacity:0"
         offset="1"
         id="stop7023" />
    </linearGradient>
    <linearGradient
       id="linearGradient7011">
      <stop
         style="stop-color:#3465a4;stop-opacity:1;"
         offset="0"
         id="stop7013" />
      <stop
         style="stop-color:#3465a4;stop-opacity:0;"
         offset="1"
         id="stop7015" />
    </linearGradient>
    <linearGradient
       id="linearGradient7113">
      <stop
         style="stop-color:#fce94f;stop-opacity:1;"
         offset="0"
         id="stop7115" />
      <stop
         style="stop-color:#fce94f;stop-opacity:0;"
         offset="1"
         id="stop7117" />
    </linearGradient>
    <linearGradient
       id="linearGradient5940">
      <stop
         style="stop-color:#2e3436;stop-opacity:1;"
         offset="0"
         id="stop5942" />
      <stop
         style="stop-color:#555753;stop-opacity:1"
         offset="1"
         id="stop5944" />
    </linearGradient>
    <linearGradient
       y2="8.4986992"
       y1="10"
       xlink:href="#linearGradient7113"
       x2="-5.46875"
       x1="-5.46875"
       id="linearGradient7119"
       gradientUnits="userSpaceOnUse" />
    <linearGradient
       y2="1.1622472"
       x2="-8.8184729"
       y1="11.652323"
       x1="-6"
       gradientTransform="translate(324,219)"
       gradientUnits="userSpaceOnUse"
       id="linearGradient3103"
       xlink:href="#linearGradient6991" />
    <linearGradient
       y2="9.1624098"
       x2="-6.625"
       y1="7.6762724"
       x1="-6.625"
       gradientTransform="translate(322,178)"
       gradientUnits="userSpaceOnUse"
       id="linearGradient3138"
       xlink:href="#linearGradient5940" />
    <linearGradient
       y2="2.2247472"
       x2="-7.5059724"
       y1="19.709028"
       x1="-2.6422257"
       gradientTransform="translate(322.00002,178)"
       gradientUnits="userSpaceOnUse"
       id="linearGradient3143"
       xlink:href="#linearGradient6991" />
    <linearGradient
       y2="14.261417"
       x2="20.710938"
       y1="7.1974592"
       x1="17.549768"
       gradientTransform="matrix(1.1428571,0,0,1.1374457,299.14286,122.57305)"
       gradientUnits="userSpaceOnUse"
       id="linearGradient3202"
       xlink:href="#linearGradient3983" />
    <linearGradient
       y2="24.536369"
       x2="27.754982"
       y1="16.167397"
       x1="25.053806"
       gradientTransform="matrix(1.0874899,0,0,1.086371,294.41905,40.056653)"
       gradientUnits="userSpaceOnUse"
       id="linearGradient3261"
       xlink:href="#linearGradient7340" />
    <linearGradient
       y2="1.8725791"
       x2="-10.072046"
       y1="25.755867"
       x1="-6.4109392"
       gradientTransform="matrix(1.4999997,0,0,1.4,336.25,52.8)"
       gradientUnits="userSpaceOnUse"
       id="linearGradient3278"
       xlink:href="#linearGradient6991" />
    <linearGradient
       gradientTransform="translate(1)"
       gradientUnits="userSpaceOnUse"
       y2="223.49811"
       x2="309.40015"
       y1="226.12431"
       x1="309.40015"
       id="linearGradient3307"
       xlink:href="#linearGradient3301" />
    <linearGradient
       id="linearGradient7098-5">
      <stop
         style="stop-color:#9ebdde;stop-opacity:1;"
         offset="0"
         id="stop7100-5" />
      <stop
         style="stop-color:#729fcf;stop-opacity:0;"
         offset="1"
         id="stop7102-0" />
    </linearGradient>
    <linearGradient
       id="linearGradient7090-1">
      <stop
         style="stop-color:#3465a4;stop-opacity:1;"
         offset="0"
         id="stop7092-9" />
      <stop
         style="stop-color:#3465a4;stop-opacity:0;"
         offset="1"
         id="stop7094-7" />
    </linearGradient>
    <linearGradient
       xlink:href="#linearGradient7098-5"
       id="linearGradient4104"
       gradientUnits="userSpaceOnUse"
       gradientTransform="translate(364.16,-65.760933)"
       x1="15.618849"
       y1="10.556349"
       x2="17.400099"
       y2="14.525099" />
    <linearGradient
       xlink:href="#linearGradient7090-1"
       id="linearGradient4106"
       gradientUnits="userSpaceOnUse"
       gradientTransform="translate(364.16,-65.760933)"
       x1="14.275099"
       y1="12.650099"
       x2="16.056349"
       y2="16.118849" />
    <linearGradient
       gradientTransform="translate(1)"
       gradientUnits="userSpaceOnUse"
       y2="219"
       x2="307.80762"
       y1="227.87262"
       x1="308.97748"
       id="linearGradient4187"
       xlink:href="#linearGradient4181" />
    <linearGradient
       gradientUnits="userSpaceOnUse"
       y2="185.5025"
       x2="313.57812"
       y1="184.28125"
       x1="313.57812"
       id="linearGradient4327"
       xlink:href="#linearGradient4321" />
    <linearGradient
       id="linearGradient7098-5-4">
      <stop
         style="stop-color:#9ebdde;stop-opacity:1;"
         offset="0"
         id="stop7100-5-6" />
      <stop
         style="stop-color:#729fcf;stop-opacity:0;"
         offset="1"
         id="stop7102-0-9" />
    </linearGradient>
    <linearGradient
       id="linearGradient7090-1-4">
      <stop
         style="stop-color:#3465a4;stop-opacity:1;"
         offset="0"
         id="stop7092-9-0" />
      <stop
         style="stop-color:#3465a4;stop-opacity:0;"
         offset="1"
         id="stop7094-7-5" />
    </linearGradient>
    <linearGradient
       y2="14.525099"
       x2="17.400099"
       y1="10.556349"
       x1="15.618849"
       gradientTransform="rotate(45,-58.743681,455.66758)"
       gradientUnits="userSpaceOnUse"
       id="linearGradient3133"
       xlink:href="#linearGradient7098-5-4" />
    <linearGradient
       y2="16.118849"
       x2="16.056349"
       y1="12.650099"
       x1="14.275099"
       gradientTransform="rotate(45,-58.743681,455.66758)"
       gradientUnits="userSpaceOnUse"
       id="linearGradient3135"
       xlink:href="#linearGradient7090-1-4" />
    <linearGradient
       y2="30.939341"
       x2="21.743534"
       y1="26.166368"
       x1="19.975767"
       gradientTransform="translate(304,124)"
       gradientUnits="userSpaceOnUse"
       id="linearGradient3073"
       xlink:href="#linearGradient7019" />
    <linearGradient
       y2="31.734835"
       x2="24.925514"
       y1="26.166368"
       x1="23.157747"
       gradientTransform="translate(304,124)"
       gradientUnits="userSpaceOnUse"
       id="linearGradient3075"
       xlink:href="#linearGradient7011" />
    <linearGradient
       gradientTransform="matrix(0.83333333,0,0,1,53.166667,0)"
       gradientUnits="userSpaceOnUse"
       y2="137.97552"
       x2="324.65625"
       y1="133.84201"
       x1="324.65625"
       id="linearGradient3995"
       xlink:href="#linearGradient3989" />
    <linearGradient
       y2="0.091126345"
       x2="-11.568472"
       y1="17.404648"
       x1="-9.537569"
       gradientTransform="matrix(2.0000002,0,0,1.9333333,346.5,126.53333)"
       gradientUnits="userSpaceOnUse"
       id="linearGradient3999"
       xlink:href="#linearGradient6991" />
    <filter
       height="1.255"
       y="-0.1275"
       width="1.2266667"
       x="-0.11333333"
       id="filter4039">
      <feGaussianBlur
         id="feGaussianBlur4041"
         stdDeviation="0.85" />
    </filter>
    <radialGradient
       gradientUnits="userSpaceOnUse"
       gradientTransform="matrix(3.121138,-0.57413945,0.17064323,0.92765117,-698.22361,185.85881)"
       r="13.984571"
       fy="157.40149"
       fx="309.94125"
       cy="157.40149"
       cx="309.94125"
       id="radialGradient4105"
       xlink:href="#linearGradient4097" />
    <filter
       id="filter4139">
      <feGaussianBlur
         id="feGaussianBlur4141"
         stdDeviation="0.49683564" />
    </filter>
    <linearGradient
       gradientUnits="userSpaceOnUse"
       y2="60.688549"
       x2="326.50656"
       y1="61.705013"
       x1="326.50656"
       id="linearGradient4182"
       xlink:href="#linearGradient4175" />
    <linearGradient
       gradientTransform="matrix(0.75,0,0,0.83333333,81.625,10.416667)"
       gradientUnits="userSpaceOnUse"
       y2="68.741058"
       x2="328.3783"
       y1="62.625"
       x1="322.3125"
       id="linearGradient4212"
       xlink:href="#linearGradient4206" />
    <linearGradient
       id="linearGradient4206-9">
      <stop
         id="stop4208-2"
         offset="0"
         style="stop-color:#ffffff;stop-opacity:1;" />
      <stop
         id="stop4210-9"
         offset="1"
         style="stop-color:#babdb6;stop-opacity:1" />
    </linearGradient>
    <linearGradient
       gradientTransform="matrix(0.5,0,0,0.5,-489.74999,-97.749995)"
       xlink:href="#linearGradient4206-9"
       id="linearGradient4231"
       gradientUnits="userSpaceOnUse"
       x1="325.375"
       y1="63.27404"
       x2="328.3783"
       y2="68.741058" />
    <linearGradient
       id="linearGradient3983-4">
      <stop
         id="stop3985-7"
         offset="0"
         style="stop-color:#555753;stop-opacity:1" />
      <stop
         id="stop3987-8"
         offset="1"
         style="stop-color:#888a85;stop-opacity:1" />
    </linearGradient>
    <linearGradient
       xlink:href="#linearGradient3983-4"
       id="linearGradient4269"
       gradientUnits="userSpaceOnUse"
       gradientTransform="matrix(1.1428571,0,0,1.1374457,299.14286,122.57305)"
       x1="17.549768"
       y1="7.1974592"
       x2="20.710938"
       y2="14.261417" />
    <linearGradient
       id="linearGradient7340-2">
      <stop
         style="stop-color:#555753;stop-opacity:1"
         offset="0"
         id="stop7342-3" />
      <stop
         style="stop-color:#888a85;stop-opacity:1"
         offset="1"
         id="stop7344-1" />
    </linearGradient>
    <linearGradient
       xlink:href="#linearGradient7340-2"
       id="linearGradient4307"
       gradientUnits="userSpaceOnUse"
       gradientTransform="matrix(1.0874899,0,0,1.086371,294.41905,40.056658)"
       x1="25.053806"
       y1="16.167397"
       x2="27.754982"
       y2="24.536369" />
    <linearGradient
       gradientUnits="userSpaceOnUse"
       y2="87.75"
       x2="330.25"
       y1="60.75"
       x1="320"
       id="linearGradient4380"
       xlink:href="#linearGradient4374" />
    <linearGradient
       id="linearGradient4206-9-5">
      <stop
         id="stop4208-2-4"
         offset="0"
         style="stop-color:#ffffff;stop-opacity:1;" />
      <stop
         id="stop4210-9-5"
         offset="1"
         style="stop-color:#babdb6;stop-opacity:1" />
    </linearGradient>
    <linearGradient
       xlink:href="#linearGradient4206-9-5"
       id="linearGradient4501"
       gradientUnits="userSpaceOnUse"
       gradientTransform="matrix(0.5,0,0,0.5,-489.74999,-97.749995)"
       x1="325.375"
       y1="63.27404"
       x2="328.3783"
       y2="68.741058" />
    <linearGradient
       gradientTransform="translate(386,50)"
       y2="44.16713"
       x2="-46.150127"
       y1="39.38052"
       x1="-47.165291"
       gradientUnits="userSpaceOnUse"
       id="linearGradient3248-0"
       xlink:href="#linearGradient7652-3" />
    <linearGradient
       id="linearGradient7652-3">
      <stop
         style="stop-color:#729fcf;stop-opacity:1;"
         offset="0"
         id="stop7654-5" />
      <stop
         style="stop-color:#729fcf;stop-opacity:0;"
         offset="1"
         id="stop7656-1" />
    </linearGradient>
    <linearGradient
       gradientTransform="translate(386,50)"
       y2="45.6875"
       x2="-46.75"
       y1="40.375"
       x1="-48"
       gradientUnits="userSpaceOnUse"
       id="linearGradient3250-1"
       xlink:href="#linearGradient7576-4" />
    <linearGradient
       id="linearGradient7576-4">
      <stop
         style="stop-color:#3465a4;stop-opacity:1"
         offset="0"
         id="stop7578-7" />
      <stop
         style="stop-color:#3465a4;stop-opacity:0"
         offset="1"
         id="stop7580-4" />
    </linearGradient>
    <linearGradient
       gradientUnits="userSpaceOnUse"
       y2="96"
       x2="336.85226"
       y1="90.5"
       x1="335.77405"
       id="linearGradient4604"
       xlink:href="#linearGradient4598" />
    <radialGradient
       gradientUnits="userSpaceOnUse"
       gradientTransform="matrix(2.2376604,-0.54035734,0.14852311,0.61504532,-392.04956,204.36749)"
       r="21.914116"
       fy="86.378372"
       fx="306.53891"
       cy="86.378372"
       cx="306.53891"
       id="radialGradient4612"
       xlink:href="#linearGradient4606" />
    <filter
       id="filter4618">
      <feGaussianBlur
         id="feGaussianBlur4620"
         stdDeviation="0.89652215" />
    </filter>
    <filter
       id="filter4684">
      <feGaussianBlur
         id="feGaussianBlur4686"
         stdDeviation="0.71917802" />
    </filter>
  </defs>
  <g
     transform="translate(-302,-176)"
     style="display:none"
     id="layer6">
    <rect
       y="50"
       x="296"
       width="48"
       style="display:inline;overflow:visible;visibility:visible;fill:#eeeeec;fill-opacity:1;fill-rule:nonzero;stroke:none;stroke-width:2;marker:none;enable-background:accumulate"
       id="rect6284"
       height="48" />
    <rect
       y="126"
       x="303"
       width="32"
       style="display:inline;overflow:visible;visibility:visible;fill:#eeeeec;fill-opacity:1;fill-rule:nonzero;stroke:none;stroke-width:2;marker:none;enable-background:accumulate"
       id="rect6592"
       height="32" />
    <rect
       y="176"
       x="302"
       width="24"
       style="display:inline;overflow:visible;visibility:visible;fill:#ffffff;fill-opacity:1;fill-rule:nonzero;stroke:none;stroke-width:2;marker:none;enable-background:accumulate"
       id="rect6749-1"
       height="24" />
    <rect
       y="177"
       x="303"
       width="22"
       style="display:inline;overflow:visible;visibility:visible;fill:#eeeeec;fill-opacity:1;fill-rule:nonzero;stroke:none;stroke-width:2;marker:none;enable-background:accumulate"
       id="rect6749"
       height="22" />
    <rect
       y="219"
       x="303"
       width="16"
       style="display:inline;overflow:visible;visibility:visible;fill:#eeeeec;fill-opacity:1;fill-rule:nonzero;stroke:none;stroke-width:2;marker:none;enable-background:accumulate"
       id="rect6833"
       height="16" />
    <text
       y="21.513618"
       xml:space="preserve"
       x="20.970737"
       style="font-style:normal;font-weight:normal;line-height:0%;font-family:'Bitstream Vera Sans';display:inline;fill:#000000;fill-opacity:1;stroke:none;enable-background:new"
       id="context"><tspan
         style="font-size:18.30070686px;line-height:1.25"
         y="21.513618"
         x="20.970737"
         id="tspan2716">devices</tspan></text>
    <text
       y="21.513618"
       xml:space="preserve"
       x="191.97073"
       style="font-style:normal;font-variant:normal;font-weight:bold;font-stretch:normal;line-height:0%;font-family:'Droid Sans';-inkscape-font-specification:'Droid Sans Bold';text-align:start;writing-mode:lr-tb;text-anchor:start;display:inline;fill:#000000;fill-opacity:1;stroke:none;enable-background:new"
       id="icon-name"><tspan
         style="font-size:18.30070686px;line-height:1.25"
         y="21.513618"
         x="191.97073"
         id="tspan3023">network-wired</tspan></text>
  </g>
  <g
     transform="translate(-302,-176)"
     style="display:inline"
     id="layer2">
    <rect
       height="21"
       id="rect5925-9"
       rx="1.5673467"
       ry="1.5673467"
       style="display:inline;opacity:0.1906977;fill:#000000;fill-opacity:1;fill-rule:evenodd;stroke:#000000;stroke-width:1.00000012;stroke-linecap:round;stroke-linejoin:round;stroke-miterlimit:4;stroke-dasharray:none;stroke-dashoffset:0.69999993;stroke-opacity:0.99236642;filter:url(#filter4684);enable-background:new"
       width="23.999996"
       x="315.5"
       y="54.5" />
    <rect
       height="21"
       id="rect5925"
       rx="1.5673467"
       ry="1.5673467"
       style="fill:url(#linearGradient3278);fill-opacity:1;fill-rule:evenodd;stroke:#888a85;stroke-width:1.00000012;stroke-linecap:round;stroke-linejoin:round;stroke-miterlimit:4;stroke-dasharray:none;stroke-dashoffset:0.69999993;stroke-opacity:0.99236642"
       width="23.999996"
       x="314.5"
       y="53.5" />
    <path
       d="m 325.03854,59.06815 c -0.63902,0 -1.15546,0.515912 -1.15546,1.154269 v 0.287788 c 0,0.293222 -0.22931,0.543185 -0.54375,0.543185 h -0.12132 c -0.63902,0 -1.15546,0.703412 -1.15546,1.341769 v 5.44493 c 0,0.638358 0.51644,1.154269 1.15546,1.154269 h 6.56398 c 0.63902,0 1.15546,-0.515912 1.15546,-1.154269 v -5.44493 c 0,-0.638358 -0.51644,-1.341769 -1.15546,-1.341769 h -0.14343 c -0.26177,0.01767 -0.54374,-0.186296 -0.54374,-0.526211 v -0.304762 c 0,-0.638358 -0.51644,-1.154269 -1.15546,-1.154269 z"
       id="rect7327-3"
       style="display:inline;fill:url(#linearGradient4307);fill-opacity:1;fill-rule:evenodd;stroke:#ffffff;stroke-width:2;stroke-miterlimit:4;stroke-dasharray:none;enable-background:new" />
    <path
       d="m 325.03854,59.068145 c -0.63902,0 -1.15546,0.515912 -1.15546,1.154269 v 0.287788 c 0,0.293222 -0.22931,0.543185 -0.54375,0.543185 h -0.12132 c -0.63902,0 -1.15546,0.703412 -1.15546,1.341769 v 5.44493 c 0,0.638358 0.51644,1.154269 1.15546,1.154269 h 6.56398 c 0.63902,0 1.15546,-0.515912 1.15546,-1.154269 v -5.44493 c 0,-0.638358 -0.51644,-1.341769 -1.15546,-1.341769 h -0.14343 c -0.26177,0.01767 -0.54374,-0.186296 -0.54374,-0.526211 v -0.304762 c 0,-0.638358 -0.51644,-1.154269 -1.15546,-1.154269 z"
       id="rect7327"
       style="fill:url(#linearGradient3261);fill-opacity:1;fill-rule:evenodd;stroke:none" />
    <path
       id="rect207-7"
       d="m 314.52629,128.5 h 15.94743 c 0.56856,0 1.02628,0.45772 1.02628,1.02629 v 13.94742 c 0,0.56857 -0.45772,1.02629 -1.02628,1.02629 h -15.94743 c -0.56857,0 -1.02629,-0.45772 -1.02629,-1.02629 v -13.94742 c 0,-0.56857 0.45772,-1.02629 1.02629,-1.02629 z"
       style="display:inline;opacity:0.2;fill:#000000;fill-opacity:1;fill-rule:evenodd;stroke:#000000;stroke-width:1.00000012;stroke-linecap:round;stroke-linejoin:round;stroke-miterlimit:4;stroke-dashoffset:0.69999993;stroke-opacity:0.99236642;filter:url(#filter4039);enable-background:new" />
    <path
       d="m 308,138 h 3 2 -3 z"
       id="path200"
       style="fill:#ffffff;fill-opacity:1;fill-rule:evenodd;stroke:none" />
    <path
       id="rect207"
       d="m 313.52629,127.5 h 15.94743 c 0.56856,0 1.02628,0.45772 1.02628,1.02629 v 13.94742 c 0,0.56857 -0.45772,1.02629 -1.02628,1.02629 h -15.94743 c -0.56857,0 -1.02629,-0.45772 -1.02629,-1.02629 v -13.94742 c 0,-0.56857 0.45772,-1.02629 1.02629,-1.02629 z"
       style="fill:url(#linearGradient3999);fill-opacity:1;fill-rule:evenodd;stroke:#888a85;stroke-width:1.00000012;stroke-linecap:round;stroke-linejoin:round;stroke-miterlimit:4;stroke-dashoffset:0.69999993;stroke-opacity:0.99236642" />
    <path
       id="rect4540"
       d="m 313.5,128.5 h 16.01624 v 14 H 313.5 Z"
       style="fill:none;stroke:#ffffff;stroke-width:1.00000024;stroke-linecap:round;stroke-linejoin:round;stroke-miterlimit:4;stroke-dashoffset:0.69999993;stroke-opacity:0.99236642" />
    <path
       d="m 320.59597,136.56564 c 0,0 -11.49644,11.52132 -13.68972,13.55936 -1.09664,1.01902 -1.92098,1.88333 -2.28125,2.90625 -0.18014,0.51146 -0.16392,1.2412 0.28125,1.75 0.44517,0.5088 1.02219,0.6651 1.65625,0.71875 3.26522,0.27628 7.89308,-0.77797 12.375,-1.84375 4.48192,-1.06578 8.85037,-2.15625 10.84375,-2.15625 0.4568,0 0.51239,0.0378 0.59375,0.0625 -0.15031,0.36549 -0.82179,1.30184 -1.78125,2.21875 -2.00785,1.9188 -8.71875,7.59375 -8.71875,7.59375 L 321,163 c 0,0 6.82221,-5.70005 9,-7.78125 1.08889,-1.0406 2.04311,-2.00758 2.40625,-3.1875 0.18157,-0.58996 0.072,-1.44844 -0.5,-1.9375 -0.57196,-0.48906 -1.27354,-0.59375 -2.125,-0.59375 -2.64075,0 -6.85817,1.15953 -11.3125,2.21875 -4.45433,1.05922 -9.10608,2.00496 -11.75,1.78125 -0.0748,-0.006 -0.0114,0.0102 -0.0625,0 0.17326,-0.3335 0.705,-1.05137 1.625,-1.90625 2.01927,-1.87635 13.43972,-13.40311 13.43972,-13.40311 l 0.69463,-1.59387 -1.81963,-0.0311 z"
       id="path6027-4"
       style="display:inline;opacity:0.27906979;fill:url(#radialGradient4105);fill-opacity:1;fill-rule:evenodd;stroke:none;filter:url(#filter4139);enable-background:new" />
    <path
       d="m 319,132 0.0156,1.02259 c 0,-0.0937 -0.30134,0 -0.30134,0 -0.4375,0 -0.71429,0.27386 -0.71429,0.56873 v 4.83103 c 0,0.29487 0.25189,0.56872 0.71429,0.56872 h 5.57142 c 0.4624,0 0.71429,-0.27386 0.71429,-0.56872 v -4.75291 c 0,-0.29486 -0.26116,-0.6781 -0.71429,-0.64685 L 324,133 v -1 c 0,0 -5,0 -5,0 z"
       id="path3729-7"
       style="display:inline;fill:url(#linearGradient4269);fill-opacity:1;stroke:#ffffff;stroke-width:2;stroke-miterlimit:4;stroke-dasharray:none;enable-background:new" />
    <path
       d="m 319,132 0.0156,1.02259 c 0,-0.0937 -0.30134,0 -0.30134,0 -0.4375,0 -0.71429,0.27386 -0.71429,0.56873 v 4.83103 c 0,0.29487 0.25189,0.56872 0.71429,0.56872 h 5.57142 c 0.4624,0 0.71429,-0.27386 0.71429,-0.56872 v -4.75291 c 0,-0.29486 -0.26116,-0.6781 -0.71429,-0.64685 L 324,133 v -1 c 0,0 -5,0 -5,0 z"
       id="path3729"
       style="fill:url(#linearGradient3202);fill-opacity:1;stroke:none" />
    <rect
       height="13.000001"
       id="rect247-1"
       rx="1.4383113"
       ry="1.4383113"
       style="display:inline;opacity:0.06511625;fill:#000000;fill-opacity:1;fill-rule:evenodd;stroke:#000000;stroke-width:1;stroke-linecap:round;stroke-linejoin:round;stroke-miterlimit:4;stroke-dasharray:none;stroke-dashoffset:0.69999993;stroke-opacity:0.99236642;enable-background:new"
       width="14.999982"
       x="309.50003"
       y="180.5" />
    <rect
       height="13.000001"
       id="rect247"
       rx="1.4383113"
       ry="1.4383113"
       style="fill:url(#linearGradient3143);fill-opacity:1;fill-rule:evenodd;stroke:#888a85;stroke-width:1;stroke-linecap:round;stroke-linejoin:round;stroke-miterlimit:4;stroke-dasharray:none;stroke-dashoffset:0.69999993;stroke-opacity:0.99236642"
       width="14.999982"
       x="308.50003"
       y="179.5" />
    <path
       transform="translate(2,2)"
       d="m 312.5,179.99805 a 1.5027521,1.5027521 0 0 0 -1.43555,1.06445 1.5027521,1.5027521 0 0 0 -1.0664,1.4375 v 4 a 1.5027521,1.5027521 0 0 0 1.50195,1.50195 h 5 A 1.5027521,1.5027521 0 0 0 318.00195,186.5 v -4 a 1.5027521,1.5027521 0 0 0 -1.06445,-1.43555 1.5027521,1.5027521 0 0 0 -1.4375,-1.0664 z"
       id="path4287"
       style="display:inline;fill:#ffffff;fill-opacity:1;fill-rule:evenodd;stroke:none;enable-background:new" />
    <path
       d="m 314.5,183.5 v 1 h -1 v 4 h 5 v -4 h -1 v -1 z"
       id="rect5927"
       style="fill:url(#linearGradient3138);fill-opacity:1;fill-rule:evenodd;stroke:#888a85;stroke-width:1;stroke-linecap:round;stroke-linejoin:round;stroke-miterlimit:4;stroke-dasharray:none;stroke-dashoffset:0.69999993;stroke-opacity:0.99236642" />
    <g
       id="g6922"
       style="fill:#fce94f;fill-opacity:1;stroke:url(#linearGradient7119)"
       transform="translate(323,177)" />
    <rect
       height="11"
       id="rect267"
       rx="1.2585224"
       ry="1.2465365"
       style="fill:url(#linearGradient3103);fill-opacity:1;fill-rule:evenodd;stroke:url(#linearGradient4187);stroke-width:1;stroke-linecap:round;stroke-linejoin:round;stroke-miterlimit:4;stroke-dasharray:none;stroke-dashoffset:0.69999993;stroke-opacity:0.99236642"
       width="11"
       x="306.5"
       y="219.5" />
    <path
       d="m 310.5,222.5 v 1 h -1 v 4 h 5 v -4 h -1 v -1 z"
       id="path269"
       style="fill:#babdb6;fill-opacity:1;fill-rule:evenodd;stroke:#888a85;stroke-width:1;stroke-linecap:round;stroke-linejoin:round;stroke-miterlimit:4;stroke-dasharray:none;stroke-dashoffset:0.69999993;stroke-opacity:0.99236642" />
    <path
       d="m 309,231 h 3 2 -3 z"
       id="path281"
       style="fill:#ffffff;fill-opacity:1;fill-rule:evenodd;stroke:none" />
    <rect
       ry="0"
       rx="0"
       y="224.5"
       x="310.5"
       height="2"
       width="3"
       id="rect3299"
       style="color:#000000;display:inline;overflow:visible;visibility:visible;fill:#888a85;fill-opacity:1;fill-rule:nonzero;stroke:url(#linearGradient3307);stroke-width:1;stroke-linecap:square;stroke-linejoin:round;stroke-miterlimit:4;stroke-dasharray:none;stroke-dashoffset:0;stroke-opacity:1;marker:none;enable-background:accumulate" />
    <rect
       height="9"
       id="rect267-7"
       rx="0.5"
       ry="0.5"
       style="display:inline;fill:none;stroke:#ffffff;stroke-width:1;stroke-linecap:round;stroke-linejoin:round;stroke-miterlimit:4;stroke-dasharray:none;stroke-dashoffset:0.69999993;stroke-opacity:0.99236642;enable-background:new"
       width="9"
       x="307.5"
       y="220.5" />
    <rect
       y="223"
       x="311"
       height="1"
       width="2"
       id="rect3309"
       style="color:#000000;display:inline;overflow:visible;visibility:visible;fill:#eeeeec;fill-opacity:1;fill-rule:nonzero;stroke:none;stroke-width:1;marker:none;enable-background:accumulate" />
    <path
       id="rect298"
       d="m 380.42343,-61.809897 c 0.554,0 1,0.446 1,1 v 13.414214 c 0,0.554 -0.446,1 -1,1 -0.554,0 -1,-0.446 -1,-1 v -13.414214 c 0,-0.554 0.446,-1 1,-1 z"
       style="display:inline;fill:url(#linearGradient4104);fill-opacity:1;fill-rule:evenodd;stroke:url(#linearGradient4106);stroke-width:1;stroke-linecap:round;stroke-linejoin:round;stroke-miterlimit:4;stroke-dashoffset:0.69999993;stroke-opacity:1;enable-background:new"
       transform="rotate(45)" />
    <rect
       height="11.000001"
       id="rect247-2"
       rx="0.5"
       ry="0.5"
       style="display:inline;fill:none;stroke:#ffffff;stroke-width:1;stroke-linecap:round;stroke-linejoin:round;stroke-miterlimit:4;stroke-dasharray:none;stroke-dashoffset:0.69999993;stroke-opacity:0.99236642;enable-background:new"
       width="13.000018"
       x="309.49997"
       y="180.5" />
    <g
       transform="translate(2,2)"
       id="g4335">
      <rect
         style="color:#000000;display:inline;overflow:visible;visibility:visible;fill:url(#linearGradient4327);fill-opacity:1;fill-rule:nonzero;stroke:none;stroke-width:1;marker:none;enable-background:accumulate"
         id="rect4289"
         width="4"
         height="3"
         x="312"
         y="183"
         rx="0"
         ry="0" />
      <rect
         style="color:#000000;display:inline;overflow:visible;visibility:visible;fill:#eeeeec;fill-opacity:1;fill-rule:nonzero;stroke:none;stroke-width:1;marker:none;enable-background:accumulate"
         id="rect4289-3"
         width="2"
         height="1"
         x="313"
         y="182"
         rx="0"
         ry="0" />
      <rect
         style="color:#000000;display:inline;overflow:visible;visibility:visible;fill:#555753;fill-opacity:1;fill-rule:nonzero;stroke:none;stroke-width:1;marker:none;enable-background:accumulate"
         id="rect4333"
         width="2"
         height="1"
         x="313"
         y="184"
         rx="0"
         ry="0" />
    </g>
    <path
       id="rect298-6"
       d="m 316.70613,186.29374 c 0.39174,0.39174 0.39174,1.02248 0,1.41422 l -12.48528,12.48528 c -0.39174,0.39173 -1.02247,0.39173 -1.41421,0 -0.39174,-0.39174 -0.39174,-1.02248 0,-1.41422 l 12.48528,-12.48528 c 0.39174,-0.39173 1.02248,-0.39173 1.41421,0 z"
       style="display:inline;fill:url(#linearGradient3133);fill-opacity:1;fill-rule:evenodd;stroke:url(#linearGradient3135);stroke-width:1;stroke-linecap:round;stroke-linejoin:round;stroke-miterlimit:4;stroke-dashoffset:0.69999993;stroke-opacity:1;enable-background:new" />
    <rect
       y="134"
       x="319"
       height="4.03125"
       width="5"
       id="rect3097"
       style="color:#000000;display:inline;overflow:visible;visibility:visible;fill:url(#linearGradient3995);fill-opacity:1;fill-rule:nonzero;stroke:none;stroke-width:1;marker:none;enable-background:accumulate" />
    <rect
       ry="0.59375"
       rx="0.53125"
       y="135"
       x="320"
       height="2.125"
       width="3"
       id="rect3097-6"
       style="color:#000000;display:inline;overflow:visible;visibility:visible;fill:#555753;fill-opacity:1;fill-rule:nonzero;stroke:none;stroke-width:1;marker:none;enable-background:accumulate" />
    <path
       d="m 320.59597,135.56564 c 0,0 -11.49644,11.52132 -13.68972,13.55936 -1.09664,1.01902 -1.92098,1.88333 -2.28125,2.90625 -0.18014,0.51146 -0.16392,1.2412 0.28125,1.75 0.44517,0.5088 1.02219,0.6651 1.65625,0.71875 3.26522,0.27628 7.89308,-0.77797 12.375,-1.84375 4.48192,-1.06578 8.85037,-2.15625 10.84375,-2.15625 0.4568,0 0.51239,0.0378 0.59375,0.0625 -0.15031,0.36549 -0.82179,1.30184 -1.78125,2.21875 -2.00785,1.9188 -8.71875,7.59375 -8.71875,7.59375 L 321,162 c 0,0 6.82221,-5.70005 9,-7.78125 1.08889,-1.0406 2.04311,-2.00758 2.40625,-3.1875 0.18157,-0.58996 0.072,-1.44844 -0.5,-1.9375 -0.57196,-0.48906 -1.27354,-0.59375 -2.125,-0.59375 -2.64075,0 -6.85817,1.15953 -11.3125,2.21875 -4.45433,1.05922 -9.10608,2.00496 -11.75,1.78125 -0.0748,-0.006 -0.0114,0.0102 -0.0625,0 0.17326,-0.3335 0.705,-1.05137 1.625,-1.90625 2.01927,-1.87635 13.43972,-13.40311 13.43972,-13.40311 l 0.69463,-1.59387 -1.81963,-0.0311 z"
       id="path6027"
       style="fill:url(#linearGradient3073);fill-opacity:1;fill-rule:evenodd;stroke:url(#linearGradient3075);stroke-width:1;stroke-linecap:butt;stroke-linejoin:round;stroke-miterlimit:4;stroke-dasharray:none;stroke-opacity:1" />
    <rect
       transform="scale(1,-1)"
       y="-134"
       x="320"
       height="1"
       width="3"
       id="rect3097-7"
       style="color:#000000;display:inline;overflow:visible;visibility:visible;fill:#ffffff;fill-opacity:1;fill-rule:nonzero;stroke:none;stroke-width:1;marker:none;enable-background:accumulate" />
    <rect
       ry="0.39774758"
       rx="0.39774755"
       y="60"
       x="325"
       height="2"
       width="3"
       id="rect4143-7"
       style="color:#000000;display:inline;overflow:visible;visibility:visible;fill:url(#linearGradient4182);fill-opacity:1;fill-rule:nonzero;stroke:none;stroke-width:1;marker:none;enable-background:accumulate" />
    <path
       d="m 327.73483,103.70711 c 0,0 20,-14 12,-16 -8,-2 -28.06547,7.626656 -38,7 C 291.62421,94.069347 324.22712,84.876669 326.5,67"
       id="path7502-1-6"
       style="display:inline;opacity:0.49441863;fill:none;stroke:url(#radialGradient4612);stroke-width:2;stroke-linecap:butt;stroke-linejoin:miter;stroke-miterlimit:4;stroke-dasharray:none;stroke-opacity:1;filter:url(#filter4618);enable-background:new" />
    <rect
       ry="0.17677671"
       rx="0.17677671"
       y="62.5"
       x="323.5"
       height="5"
       width="6"
       id="rect4143-1"
       style="color:#000000;display:inline;overflow:visible;visibility:visible;fill:#d3d7cf;fill-opacity:1;fill-rule:nonzero;stroke:url(#linearGradient4212);stroke-width:1;marker:none;enable-background:accumulate" />
    <rect
       transform="scale(-1)"
       ry="0.17677668"
       rx="0.17677671"
       y="-66.5"
       x="-328.5"
       height="3"
       width="4"
       id="rect4143-1-1"
       style="color:#000000;display:inline;overflow:visible;visibility:visible;fill:#888a85;fill-opacity:1;fill-rule:nonzero;stroke:url(#linearGradient4231);stroke-width:1;marker:none;enable-background:accumulate" />
    <rect
       height="19"
       id="rect5925-8"
       rx="0.56734669"
       ry="0.56734669"
       style="display:inline;fill:none;fill-opacity:1;stroke:url(#linearGradient4380);stroke-width:1.00000012;stroke-linecap:round;stroke-linejoin:round;stroke-miterlimit:4;stroke-dasharray:none;stroke-dashoffset:0.69999993;stroke-opacity:0.99236642;enable-background:new"
       width="22.000004"
       x="315.5"
       y="54.5" />
    <path
       id="path7502-1"
       d="m 325,63.8125 c -1.02776,8.083507 -9.29138,14.946781 -16.375,19.75 -3.54181,2.401609 -6.67554,4.247084 -8.53125,5.71875 -0.46393,0.367917 -0.85503,0.711268 -1.1875,1.125 -0.33247,0.413732 -0.73206,1.020169 -0.5625,1.90625 0.16956,0.886081 0.91401,1.362314 1.46875,1.5625 0.55474,0.200186 1.10532,0.299142 1.8125,0.34375 5.51222,0.347703 13.00435,-2.019008 20.25,-4.09375 7.24565,-2.074742 14.33564,-3.759841 17.5,-2.96875 0.72893,0.182233 0.74555,0.332074 0.75,0.34375 0.004,0.01168 0.0333,0.30418 -0.25,0.90625 -0.56665,1.20414 -2.21388,3.147783 -4.15625,4.96875 -3.88473,3.641934 -8.84375,7.09375 -8.84375,7.09375 l 1.71875,2.46875 c 0,0 5.04098,-3.516934 9.15625,-7.375 2.05763,-1.929033 3.9104,-3.89164 4.84375,-5.875 0.46667,-0.99168 0.74555,-2.113238 0.3125,-3.25 -0.43305,-1.136762 -1.54143,-1.869733 -2.8125,-2.1875 -4.83564,-1.208909 -11.76053,0.918078 -19.03125,3 -6.8869,1.972017 -13.91596,3.964738 -18.40625,3.9375 1.62422,-1.194952 4.33625,-2.873794 7.65625,-5.125 7.2584,-4.921728 16.44238,-12.081838 17.6875,-21.875 z"
       style="color:#000000;font-style:normal;font-variant:normal;font-weight:normal;font-stretch:normal;font-size:medium;line-height:normal;font-family:'Abandoned Bitplane';-inkscape-font-specification:'Abandoned Bitplane';text-indent:0;text-align:start;text-decoration:none;text-decoration-line:none;letter-spacing:normal;word-spacing:normal;text-transform:none;writing-mode:lr-tb;direction:ltr;text-anchor:start;display:inline;overflow:visible;visibility:visible;fill:url(#linearGradient3248-0);fill-opacity:1;fill-rule:evenodd;stroke:url(#linearGradient3250-1);stroke-width:1;stroke-linecap:butt;stroke-linejoin:round;stroke-miterlimit:4;stroke-dasharray:none;stroke-dashoffset:0;stroke-opacity:1;marker:none;enable-background:accumulate" />
    <path
       id="rect4143-1-1-2"
       d="m -324.5,-63.676777 c 0,0.09793 -0.0788,0.176777 -0.17678,0.176777 h -3.64644 c -0.0979,0 -0.17678,-0.07884 -0.17678,-0.176777 v -2.646446 c 0,-0.09794 0.0788,-0.176777 0.17678,-0.176777"
       style="color:#000000;display:inline;overflow:visible;visibility:visible;fill:none;fill-opacity:1;fill-rule:nonzero;stroke:url(#linearGradient4501);stroke-width:1;marker:none;enable-background:accumulate"
       transform="scale(-1)" />
    <path
       d="m 327.08838,101.35356 c 0,0 20,-14.000003 12,-16.000003 -8,-2 -28.06547,7.626656 -38,7 -10.11062,-0.637763 22.49229,-9.830441 24.76517,-27.70711"
       id="path7502-1-6-3"
       style="display:inline;opacity:0.61395347;fill:none;stroke:url(#linearGradient4604);stroke-width:1;stroke-linecap:butt;stroke-linejoin:miter;stroke-miterlimit:4;stroke-dasharray:none;stroke-opacity:1;enable-background:new" />
  </g>
  <g
     transform="translate(-302,-176)"
     style="display:inline"
     id="layer4" />
</svg>
