<?xml version="1.0" encoding="UTF-8"?>
<svg enable-background="new" version="1.0" viewBox="0 0 256 256" xmlns="http://www.w3.org/2000/svg" xmlns:xlink="http://www.w3.org/1999/xlink"><defs><linearGradient id="a"><stop stop-color="#babdb6" offset="0"/><stop stop-color="#555753" offset="1"/></linearGradient><linearGradient id="w"><stop offset="0"/><stop stop-opacity="0" offset="1"/></linearGradient><filter id="g"><feGaussianBlur stdDeviation="0.89191478"/></filter><filter id="ab"><feGaussianBlur stdDeviation="0.89"/></filter><clipPath id="ae"><circle transform="translate(-8,-8)" cx="556" cy="1068" r="44" fill="#555753"/></clipPath><filter id="f" x="-.21978" y="-.21978" width="1.4396" height="1.4396"><feGaussianBlur stdDeviation="8.05845"/></filter><clipPath id="ad"><rect x="76" y="160" width="68" height="8" rx="4" ry="4" color="#000000" enable-background="accumulate" fill="#808080"/></clipPath><filter id="aa"><feGaussianBlur stdDeviation="0.19"/></filter><clipPath id="ac"><rect x="-126" y="160" width="52" height="8" rx="4" ry="4" color="#000000" enable-background="accumulate" fill="#808080"/></clipPath><filter id="z"><feGaussianBlur stdDeviation="0.15"/></filter><filter id="y"><feGaussianBlur stdDeviation="0.77258479"/></filter><radialGradient id="h" cx="38.659" cy="9.3411" r="8.3417" gradientTransform="matrix(.89326 0 0 .89326 4.1265 .99709)" gradientUnits="userSpaceOnUse"><stop stop-color="#fff" offset="0"/><stop stop-color="#fefede" stop-opacity=".91837" offset=".25"/><stop stop-color="#f5f328" offset=".5"/><stop stop-color="#f5f32d" stop-opacity="0" offset="1"/></radialGradient><filter id="x"><feGaussianBlur stdDeviation="0.49234375"/></filter><linearGradient id="v" x1="582.04" x2="582.04" y1="1102.4" y2="1024" gradientUnits="userSpaceOnUse" xlink:href="#w"/><radialGradient id="o" cx="556" cy="1063.7" r="44" gradientTransform="matrix(1.1388 0 0 1.2005 -77.2 -214.6)" gradientUnits="userSpaceOnUse"><stop stop-color="#babdb6" offset="0"/><stop stop-color="#888a85" offset=".62351"/><stop stop-color="#2e3436" offset=".80543"/><stop stop-color="#fff" offset="1"/></radialGradient><radialGradient id="n" cx="540.88" cy="1031.9" r="44" gradientTransform="matrix(1.8605 0 0 1.8605 -459.48 -891.44)" gradientUnits="userSpaceOnUse"><stop stop-color="#fff" offset="0"/><stop stop-color="#fff" offset=".23621"/><stop stop-color="#fff" stop-opacity="0" offset="1"/></radialGradient><linearGradient id="u" x1="559.2" x2="518.88" y1="1119.5" y2="968.99" gradientUnits="userSpaceOnUse"><stop offset="0"/><stop stop-opacity="0" offset="1"/></linearGradient><radialGradient id="m" cx="562.8" cy="1106.7" r="44.596" gradientTransform="matrix(2.6154 0 0 1.4833 -909.47 -534.89)" gradientUnits="userSpaceOnUse"><stop stop-color="#fff" offset="0"/><stop stop-color="#2e3436" offset="1"/></radialGradient><linearGradient id="t" x1="534.77" x2="576.96" y1="1094" y2="1020.9" gradientUnits="userSpaceOnUse"><stop stop-color="#fff" offset="0"/><stop stop-color="#d3d7cf" offset="1"/></linearGradient><linearGradient id="e" x1="144" x2="144" y1="106.25" y2="91.981" gradientUnits="userSpaceOnUse" xlink:href="#a"/><linearGradient id="d" x1="143.78" x2="143.78" y1="235.92" y2="221.92" gradientUnits="userSpaceOnUse" xlink:href="#a"/><linearGradient id="c" x1="211.03" x2="211.03" y1="170.51" y2="157.49" gradientUnits="userSpaceOnUse" xlink:href="#a"/><linearGradient id="b" x1="77.137" x2="77.137" y1="170.74" y2="157.23" gradientUnits="userSpaceOnUse" xlink:href="#a"/><radialGradient id="l" cx="556" cy="1068" r="44" gradientUnits="userSpaceOnUse"><stop offset="0"/><stop stop-opacity="0" offset="1"/></radialGradient><linearGradient id="s" x1="-106.75" x2="-85.376" y1="174.03" y2="156.63" gradientUnits="userSpaceOnUse"><stop stop-color="#2e3436" offset="0"/><stop stop-color="#888a85" offset="1"/></linearGradient><linearGradient id="r" x1="-100" x2="-100" y1="167.71" y2="157.19" gradientUnits="userSpaceOnUse"><stop offset="0"/><stop stop-color="#888a85" offset="1"/></linearGradient><linearGradient id="q" x1="118.69" x2="77.832" y1="179.42" y2="155.83" gradientUnits="userSpaceOnUse"><stop stop-color="#2e3436" offset="0"/><stop stop-color="#888a85" offset="1"/></linearGradient><linearGradient id="p" x1="110" x2="110" y1="167.8" y2="154.34" gradientUnits="userSpaceOnUse"><stop offset="0"/><stop stop-color="#888a85" offset="1"/></linearGradient><linearGradient id="af" x1="96.625" x2="96.625" y1="166" y2="162.12" gradientUnits="userSpaceOnUse"><stop stop-color="#204a87" offset="0"/><stop stop-color="#729fcf" offset="1"/></linearGradient><radialGradient id="k" cx="549.58" cy="1053.6" r="44" gradientTransform="matrix(1.3773 -1.7912e-7 1.7912e-7 1.3773 -207.84 -395.55)" gradientUnits="userSpaceOnUse"><stop stop-color="#fff" offset="0"/><stop stop-color="#babdb6" offset=".30515"/><stop stop-color="#555753" offset=".63299"/><stop stop-color="#888a85" offset=".85721"/><stop stop-color="#2e3436" offset="1"/></radialGradient><radialGradient id="j" cx="556" cy="1115.4" r="44" gradientTransform="matrix(.99363 0 0 .34956 3.5429 708.68)" gradientUnits="userSpaceOnUse"><stop stop-color="#fff" offset="0"/><stop stop-color="#fff" stop-opacity="0" offset="1"/></radialGradient><radialGradient id="i" cx="543.43" cy="1035" r="44" gradientTransform="matrix(2.7739 0 0 .71408 -965.5 297.44)" gradientUnits="userSpaceOnUse"><stop stop-color="#fff" offset="0"/><stop stop-color="#fff" stop-opacity="0" offset="1"/></radialGradient></defs><g transform="translate(-420,-36)"><g><g fill="url(#v)"><circle transform="matrix(1.7516 0 0 .4744 -829.9 -261)" cx="556" cy="1068" r="44" enable-background="new" filter="url(#f)" opacity=".4"/><circle transform="matrix(1.2481 0 0 .33803 -549.96 -111.36)" cx="556" cy="1068" r="44" enable-background="new" filter="url(#f)" opacity=".8"/></g><g transform="matrix(2.1818 0 0 2.1818 -1051.6 -2148.7)" enable-background="new"><g clip-path="url(#ae)"><circle transform="translate(-8,-8)" cx="556" cy="1068" r="44" fill="url(#o)"/><circle transform="translate(-8 -8)" cx="556" cy="1068" r="44" fill="url(#n)"/><circle transform="translate(-8,-8)" cx="556" cy="1068" r="44" fill="none" filter="url(#ab)" stroke="url(#u)" stroke-linecap="round" stroke-linejoin="round" stroke-width="2.2917"/><circle transform="matrix(.86458 0 0 .86458 67.292 136.63)" cx="556" cy="1068" r="44" fill="none" filter="url(#g)" stroke="url(#m)" stroke-linecap="round" stroke-linejoin="round" stroke-width="1.0602"/></g><circle transform="matrix(.8052 0 0 .8052 100.31 200.04)" cx="556" cy="1068" r="44" fill="none" filter="url(#g)" stroke="#2e3436" stroke-linecap="round" stroke-linejoin="round" stroke-width="1.1384"/></g><g transform="translate(10)"><circle transform="matrix(1.8182 0 0 1.8182 -876.91 -1777.8)" cx="556" cy="1068" r="44" enable-background="new" fill="url(#t)"/><g transform="matrix(1.0457 0 0 1.0457 -16.576 -7.4898)" opacity=".2"><circle transform="matrix(.059049 .034092 -.034092 .059049 180.08 25.689)" cx="556" cy="1068" r="44" enable-background="new"/><circle transform="matrix(.059049 .034092 -.034092 .059049 115.08 138.27)" cx="556" cy="1068" r="44" enable-background="new"/><circle transform="matrix(.034092 .059049 -.059049 .034092 244.4 62.259)" cx="556" cy="1068" r="44" enable-background="new"/><circle transform="matrix(.034092 .059049 -.059049 .034092 131.82 127.26)" cx="556" cy="1068" r="44" enable-background="new"/><circle transform="matrix(-.059049 .034092 .034092 .059049 107.92 25.689)" cx="556" cy="1068" r="44" enable-background="new"/><circle transform="matrix(-.059049 .034092 .034092 .059049 172.92 138.27)" cx="556" cy="1068" r="44" enable-background="new"/><circle transform="matrix(-.034092 .059049 .059049 .034092 43.599 62.259)" cx="556" cy="1068" r="44" enable-background="new"/><circle transform="matrix(-.034092 .059049 .059049 .034092 156.18 127.26)" cx="556" cy="1068" r="44" enable-background="new"/></g><g transform="translate(-10)" font-family="'Liberation Sans'" font-weight="bold" text-anchor="middle"><text x="143.77536" y="106.96484" enable-background="new" fill="#ffffff" stroke="#ffffff" text-align="center" style="line-height:0%" xml:space="preserve"><tspan x="143.77536" y="106.96484" font-size="20px" style="line-height:1.25">12</tspan></text><text x="143.77536" y="105.96484" fill="url(#e)" text-align="center" style="line-height:0%" xml:space="preserve"><tspan x="143.77536" y="105.96484" fill="url(#e)" font-size="20px" style="line-height:1.25">12</tspan></text><text x="143.77536" y="236.80469" enable-background="new" fill="#ffffff" stroke="#ffffff" text-align="center" style="line-height:0%" xml:space="preserve"><tspan x="143.77536" y="236.80469" font-size="20px" style="line-height:1.25">6</tspan></text><text x="143.77536" y="235.80469" enable-background="new" fill="url(#d)" text-align="center" style="line-height:0%" xml:space="preserve"><tspan x="143.77536" y="235.80469" fill="url(#d)" font-size="20px" style="line-height:1.25">6</tspan></text><text x="211.16602" y="171.87004" enable-background="new" fill="#ffffff" stroke="#ffffff" text-align="center" style="line-height:0%" xml:space="preserve"><tspan x="211.16602" y="171.87004" font-size="20px" style="line-height:1.25">3</tspan></text><text x="211.16602" y="170.87004" enable-background="new" fill="url(#c)" text-align="center" style="line-height:0%" xml:space="preserve"><tspan x="211.16602" y="170.87004" fill="url(#c)" font-size="20px" style="line-height:1.25">3</tspan></text><text x="77.166023" y="171.87004" enable-background="new" fill="#ffffff" stroke="#ffffff" text-align="center" style="line-height:0%" xml:space="preserve"><tspan x="77.166023" y="171.87004" font-size="20px" style="line-height:1.25">9</tspan></text><text x="77.166023" y="170.87004" enable-background="new" fill="url(#b)" text-align="center" style="line-height:0%" xml:space="preserve"><tspan x="77.166023" y="170.87004" fill="url(#b)" font-size="20px" style="line-height:1.25">9</tspan></text></g></g><rect transform="rotate(195)" x="-182.54" y="-193.14" width="2" height="72" rx=".14389" ry="1.2136" enable-background="new" fill="#2e3436" fill-rule="evenodd"/><circle transform="matrix(.23863 0 0 .23863 11.32 -89.861)" cx="556" cy="1068" r="44" enable-background="new" fill="url(#l)"/><g transform="translate(0,2)" filter="url(#y)" opacity=".5"><rect x="144" y="160" width="52" height="8" rx="4" ry="4" color="#000000" enable-background="accumulate"/><rect transform="rotate(45)" x="149.79" y="10.142" width="68" height="8" rx="4" ry="4" color="#000000" enable-background="accumulate"/></g><g transform="translate(270)" clip-path="url(#ac)"><rect x="-126" y="160" width="52" height="8" rx="4" ry="4" color="#000000" enable-background="accumulate" fill="url(#s)"/><rect x="-126" y="160" width="52" height="8" rx="4" ry="4" color="#000000" enable-background="accumulate" fill="none" filter="url(#z)" stroke="url(#r)"/></g><g transform="rotate(45 144 164)" clip-path="url(#ad)"><rect x="76" y="160" width="68" height="8" rx="4" ry="4" color="#000000" enable-background="accumulate" fill="url(#q)"/><rect x="76" y="160" width="68" height="8" rx="4" ry="4" color="#000000" enable-background="accumulate" fill="none" filter="url(#aa)" stroke="url(#p)"/></g><circle transform="matrix(.18182 0 0 .18182 42.911 -30.179)" cx="556" cy="1068" r="44" enable-background="new" fill="url(#k)"/><path d="m144 100.06c-15.611 0-30.634 5.7337-42.25 16.031l40.188 40.188c0.65797-0.17506 1.3494-0.28125 2.0625-0.28125z" color="#000000" enable-background="accumulate" fill="#ef2929" opacity=".6"/><path d="m144 100.06c-15.611 0-30.634 5.7337-42.25 16.031l40.188 40.188c0.65797-0.17506 1.3494-0.28125 2.0625-0.28125z" color="#000000" enable-background="accumulate" fill="none" filter="url(#x)" stroke="#ef2929" stroke-width="2"/><g transform="translate(-220)"><g transform="translate(220)" fill="none" stroke="#000"><circle transform="matrix(1.8239 0 0 1.8239 -870.07 -1783.9)" cx="556" cy="1068" r="44" enable-background="new" opacity=".5" stroke-width=".27414"/><circle transform="matrix(1.7713 0 0 1.7713 -840.84 -1727.8)" cx="556" cy="1068" r="44" enable-background="new" opacity=".2" stroke-width=".28228"/></g><g transform="translate(220,20)" enable-background="new"><circle transform="matrix(1.7955 0 0 1.7955 -854.27 -1773.5)" cx="556" cy="1068" r="44" enable-background="new" fill="none" opacity=".4" stroke="#888a85" stroke-linecap="round" stroke-linejoin="round" stroke-width="1.1139"/><g transform="matrix(2.2242 0 0 2.2242 -1074.9 -2213.6)"><circle transform="matrix(.81746 0 0 .81746 93.491 186.95)" cx="556" cy="1068" r="44" fill="url(#j)" opacity=".7"/><circle transform="matrix(.56818 0 0 .36526 232.09 653.4)" cx="556" cy="1068" r="44" fill="url(#i)" opacity=".8"/></g></g></g><g transform="matrix(5.6076 0 0 5.6076 -2022.5 -3614.4)" enable-background="new" fill-rule="evenodd"><circle transform="matrix(1.0002 0 0 1.0002 358.19 654.89)" cx="38.659" cy="9.3411" r="8.3417" fill="url(#h)"/><path transform="matrix(.55697 .24752 -.24752 .55697 379.21 648.93)" d="m44.52 15.503c-0.50717 0.87845-4.5947-0.16082-5.5214 0.25175-0.92665 0.41257-2.8894 4.1456-3.8816 3.9347-0.99218-0.21089-1.2669-4.4195-1.9456-5.1733-0.67873-0.7538-4.8356-1.4669-4.9416-2.4757s3.8117-2.5706 4.3189-3.449-0.09914-5.0522 0.82751-5.4648c0.92665-0.41257 3.6227 2.8308 4.6148 3.0417 0.99218 0.21089 4.7743-1.6555 5.453-0.90171 0.67873 0.7538-1.5728 4.3201-1.4668 5.3289 0.10603 1.0088 3.0498 4.0291 2.5427 4.9075z" fill="#fff"/></g></g></g></svg>
