<?xml version="1.0" encoding="UTF-8"?>
<svg enable-background="new" version="1.0" viewBox="0 0 256 256" xmlns="http://www.w3.org/2000/svg" xmlns:xlink="http://www.w3.org/1999/xlink"><defs><linearGradient id="a"><stop stop-color="#babdb6" offset="0"/><stop stop-color="#555753" offset="1"/></linearGradient><linearGradient id="ab"><stop offset="0"/><stop stop-opacity="0" offset="1"/></linearGradient><filter id="m"><feGaussianBlur stdDeviation="0.89191478"/></filter><filter id="ar"><feGaussianBlur stdDeviation="0.89"/></filter><clipPath id="ay"><circle transform="translate(-8,-8)" cx="556" cy="1068" r="44" fill="#555753"/></clipPath><filter id="l" x="-.21978" y="-.21978" width="1.4396" height="1.4396"><feGaussianBlur stdDeviation="8.05845"/></filter><clipPath id="aw"><rect x="-126" y="160" width="52" height="8" rx="4" ry="4" color="#000000" enable-background="accumulate" fill="#808080"/></clipPath><filter id="ap"><feGaussianBlur stdDeviation="0.15"/></filter><clipPath id="ax"><rect x="76" y="160" width="68" height="8" rx="4" ry="4" color="#000000" enable-background="accumulate" fill="#808080"/></clipPath><filter id="aq" color-interpolation-filters="sRGB"><feGaussianBlur stdDeviation="0.19"/></filter><filter id="ag" color-interpolation-filters="sRGB"><feGaussianBlur stdDeviation="0.77258479"/></filter><filter id="as" x="-.063333" y="-1.14" width="1.1267" height="3.28" color-interpolation-filters="sRGB"><feGaussianBlur stdDeviation="1.9000004"/></filter><filter id="at" x="-.030052" y="-.54094" width="1.0601" height="2.0819" color-interpolation-filters="sRGB"><feGaussianBlur stdDeviation="0.90156115"/></filter><filter id="af"><feGaussianBlur stdDeviation="0.5159375"/></filter><clipPath id="av"><rect x="56" y="60" width="184" height="184" rx="25.053" ry="25.053" enable-background="new" fill="url(#radialGradient4319)" fill-rule="evenodd"/></clipPath><radialGradient id="e" cx="24.02" cy="12.107" r="20.531" gradientTransform="matrix(13.339 1.2973e-6 -3.2848e-7 3.3774 -169.04 33.206)" gradientUnits="userSpaceOnUse"><stop stop-color="#cbcdc9" offset="0"/><stop stop-color="#878a85" offset="1"/></radialGradient><radialGradient id="b" cx="176.67" cy="214.94" r="92" gradientTransform="matrix(1.5656 0 0 .95658 -83.703 9.3322)" gradientUnits="userSpaceOnUse"><stop stop-color="#eeeeec" offset="0"/><stop stop-color="#eeeeec" stop-opacity="0" offset="1"/></radialGradient><linearGradient id="k" x1="131.5" x2="131.5" y1="234.5" y2="206.98" gradientTransform="translate(0,1)" gradientUnits="userSpaceOnUse"><stop stop-color="#fff" offset="0"/><stop stop-color="#fff" stop-opacity="0" offset="1"/></linearGradient><filter id="ao" x="-.036813" y="-.1621" width="1.0736" height="1.3242" color-interpolation-filters="sRGB"><feGaussianBlur stdDeviation="2.6382812"/></filter><radialGradient id="d" cx="132" cy="272.15" r="92.332" gradientTransform="matrix(2.0831 0 0 .22596 -158.48 172.97)" gradientUnits="userSpaceOnUse"><stop stop-color="#fff" offset="0"/><stop stop-color="#fff" stop-opacity="0" offset="1"/></radialGradient><filter id="am" color-interpolation-filters="sRGB"><feGaussianBlur stdDeviation="0.98531245"/></filter><radialGradient id="c" cx="148" cy="152" r="90" gradientTransform="matrix(4.0735 .53629 -.11022 .83722 -438.13 -54.628)" gradientUnits="userSpaceOnUse"><stop stop-color="#fff" offset="0"/><stop stop-color="#fff" stop-opacity="0" offset="1"/></radialGradient><filter id="ak" color-interpolation-filters="sRGB"><feGaussianBlur stdDeviation="0.83"/></filter><linearGradient id="j" x1="195.48" x2="100.52" y1="234.24" y2="69.761" gradientUnits="userSpaceOnUse"><stop stop-color="#2e3436" offset="0"/><stop stop-color="#babdb6" offset="1"/></linearGradient><filter id="ai" color-interpolation-filters="sRGB"><feGaussianBlur stdDeviation="0.91999947"/></filter><linearGradient id="ae" x1="331" x2="331" y1="224.08" y2="234.89" gradientUnits="userSpaceOnUse"><stop stop-color="#2e3436" offset="0"/><stop stop-color="#888a85" offset="1"/></linearGradient><linearGradient id="az" x1="331" x2="331" y1="224.08" y2="234.89" gradientUnits="userSpaceOnUse"><stop stop-color="#888a85" offset="0"/><stop stop-color="#d3d7cf" offset="1"/></linearGradient><clipPath id="au"><rect x="56" y="60" width="184" height="184" rx="25.053" ry="25.053" enable-background="new" fill="url(#radialGradient4319)" fill-rule="evenodd"/></clipPath><filter id="an" x="-.036813" y="-.1621" width="1.0736" height="1.3242" color-interpolation-filters="sRGB"><feGaussianBlur stdDeviation="2.6382812"/></filter><filter id="al" color-interpolation-filters="sRGB"><feGaussianBlur stdDeviation="0.98531245"/></filter><filter id="aj" color-interpolation-filters="sRGB"><feGaussianBlur stdDeviation="0.83"/></filter><filter id="ah" color-interpolation-filters="sRGB"><feGaussianBlur stdDeviation="0.91999947"/></filter><radialGradient id="n" cx="556" cy="1068" r="44" gradientUnits="userSpaceOnUse"><stop stop-color="#fff" offset="0"/><stop stop-color="#fff" offset=".7875"/><stop offset="1"/></radialGradient><mask id="v" maskUnits="userSpaceOnUse"><circle transform="matrix(6.4347 0 .99013 6.4347 -4328.4 -6957.9)" cx="556" cy="1068" r="44" enable-background="new" fill="url(#n)"/></mask><linearGradient id="ad" x1="118.69" x2="77.832" y1="179.42" y2="155.83" gradientUnits="userSpaceOnUse"><stop stop-color="#2e3436" offset="0"/><stop stop-color="#888a85" offset="1"/></linearGradient><linearGradient id="ac" x1="110" x2="110" y1="167.8" y2="154.34" gradientUnits="userSpaceOnUse"><stop offset="0"/><stop stop-color="#888a85" offset="1"/></linearGradient><linearGradient id="ba" x1="96.625" x2="96.625" y1="166" y2="162.12" gradientUnits="userSpaceOnUse"><stop stop-color="#204a87" offset="0"/><stop stop-color="#729fcf" offset="1"/></linearGradient><linearGradient id="aa" x1="582.04" x2="582.04" y1="1102.4" y2="1024" gradientUnits="userSpaceOnUse" xlink:href="#ab"/><radialGradient id="u" cx="556" cy="1063.7" r="44" gradientTransform="matrix(1.1388 0 0 1.2005 -77.2 -214.6)" gradientUnits="userSpaceOnUse"><stop stop-color="#babdb6" offset="0"/><stop stop-color="#888a85" offset=".62351"/><stop stop-color="#2e3436" offset=".80543"/><stop stop-color="#fff" offset="1"/></radialGradient><radialGradient id="t" cx="540.88" cy="1031.9" r="44" gradientTransform="matrix(1.8605 0 0 1.8605 -459.48 -891.44)" gradientUnits="userSpaceOnUse"><stop stop-color="#fff" offset="0"/><stop stop-color="#fff" offset=".23621"/><stop stop-color="#fff" stop-opacity="0" offset="1"/></radialGradient><linearGradient id="z" x1="559.2" x2="518.88" y1="1119.5" y2="968.99" gradientUnits="userSpaceOnUse"><stop offset="0"/><stop stop-opacity="0" offset="1"/></linearGradient><radialGradient id="s" cx="562.8" cy="1106.7" r="44.596" gradientTransform="matrix(2.6154 0 0 1.4833 -909.47 -534.89)" gradientUnits="userSpaceOnUse"><stop stop-color="#fff" offset="0"/><stop stop-color="#2e3436" offset="1"/></radialGradient><linearGradient id="y" x1="534.77" x2="576.96" y1="1094" y2="1020.9" gradientUnits="userSpaceOnUse"><stop stop-color="#fff" offset="0"/><stop stop-color="#d3d7cf" offset="1"/></linearGradient><linearGradient id="i" x1="144" x2="144" y1="106.25" y2="91.981" gradientUnits="userSpaceOnUse" xlink:href="#a"/><linearGradient id="h" x1="143.78" x2="143.78" y1="235.92" y2="221.92" gradientUnits="userSpaceOnUse" xlink:href="#a"/><linearGradient id="g" x1="211.03" x2="211.03" y1="170.51" y2="157.49" gradientUnits="userSpaceOnUse" xlink:href="#a"/><linearGradient id="f" x1="77.137" x2="77.137" y1="170.74" y2="157.23" gradientUnits="userSpaceOnUse" xlink:href="#a"/><radialGradient id="r" cx="556" cy="1068" r="44" gradientTransform="matrix(.23863 0 0 .23863 11.32 210.14)" gradientUnits="userSpaceOnUse"><stop offset="0"/><stop stop-opacity="0" offset="1"/></radialGradient><linearGradient id="x" x1="-106.75" x2="-85.376" y1="174.03" y2="156.63" gradientUnits="userSpaceOnUse"><stop stop-color="#2e3436" offset="0"/><stop stop-color="#888a85" offset="1"/></linearGradient><linearGradient id="w" x1="-100" x2="-100" y1="167.71" y2="157.19" gradientUnits="userSpaceOnUse"><stop offset="0"/><stop stop-color="#888a85" offset="1"/></linearGradient><radialGradient id="q" cx="549.58" cy="1053.6" r="44" gradientTransform="matrix(.25042 -3.2568e-8 3.2568e-8 .25042 5.1228 197.9)" gradientUnits="userSpaceOnUse"><stop stop-color="#fff" offset="0"/><stop stop-color="#babdb6" offset=".30515"/><stop stop-color="#555753" offset=".63299"/><stop stop-color="#888a85" offset=".85721"/><stop stop-color="#2e3436" offset="1"/></radialGradient><radialGradient id="p" cx="556" cy="1115.4" r="44" gradientTransform="matrix(.99363 0 0 .34956 3.5429 708.68)" gradientUnits="userSpaceOnUse"><stop stop-color="#fff" offset="0"/><stop stop-color="#fff" stop-opacity="0" offset="1"/></radialGradient><radialGradient id="o" cx="543.43" cy="1035" r="44" gradientTransform="matrix(2.7739 0 0 .71408 -965.5 297.44)" gradientUnits="userSpaceOnUse"><stop stop-color="#fff" offset="0"/><stop stop-color="#fff" stop-opacity="0" offset="1"/></radialGradient></defs><g transform="translate(-20,-336)"><g><g transform="translate(6.165e-5 300)" fill="url(#aa)"><circle transform="matrix(1.7516 0 0 .4744 -829.9 -261)" cx="556" cy="1068" r="44" enable-background="new" filter="url(#l)" opacity=".4"/><circle transform="matrix(1.2481 0 0 .33803 -549.96 -111.36)" cx="556" cy="1068" r="44" enable-background="new" filter="url(#l)" opacity=".8"/></g><g transform="translate(6.165e-5 300)"><g transform="matrix(2.1818 0 0 2.1818 -1051.6 -2148.7)" enable-background="new"><g clip-path="url(#ay)"><circle transform="translate(-8,-8)" cx="556" cy="1068" r="44" fill="url(#u)"/><circle transform="translate(-8 -8)" cx="556" cy="1068" r="44" fill="url(#t)"/><circle transform="translate(-8,-8)" cx="556" cy="1068" r="44" fill="none" filter="url(#ar)" stroke="url(#z)" stroke-linecap="round" stroke-linejoin="round" stroke-width="2.2917"/><circle transform="matrix(.86458 0 0 .86458 67.292 136.63)" cx="556" cy="1068" r="44" fill="none" filter="url(#m)" stroke="url(#s)" stroke-linecap="round" stroke-linejoin="round" stroke-width="1.0602"/></g><circle transform="matrix(.8052 0 0 .8052 100.31 200.04)" cx="556" cy="1068" r="44" fill="none" filter="url(#m)" stroke="#2e3436" stroke-linecap="round" stroke-linejoin="round" stroke-width="1.1384"/></g><g transform="translate(10)"><circle transform="matrix(1.8182 0 0 1.8182 -876.91 -1777.8)" cx="556" cy="1068" r="44" enable-background="new" fill="url(#y)"/><g transform="matrix(1.0457 0 0 1.0457 -16.576 -7.4898)" opacity=".2"><circle transform="matrix(.059049 .034092 -.034092 .059049 180.08 25.689)" cx="556" cy="1068" r="44" enable-background="new"/><circle transform="matrix(.059049 .034092 -.034092 .059049 115.08 138.27)" cx="556" cy="1068" r="44" enable-background="new"/><circle transform="matrix(.034092 .059049 -.059049 .034092 244.4 62.259)" cx="556" cy="1068" r="44" enable-background="new"/><circle transform="matrix(.034092 .059049 -.059049 .034092 131.82 127.26)" cx="556" cy="1068" r="44" enable-background="new"/><circle transform="matrix(-.059049 .034092 .034092 .059049 107.92 25.689)" cx="556" cy="1068" r="44" enable-background="new"/><circle transform="matrix(-.059049 .034092 .034092 .059049 172.92 138.27)" cx="556" cy="1068" r="44" enable-background="new"/><circle transform="matrix(-.034092 .059049 .059049 .034092 43.599 62.259)" cx="556" cy="1068" r="44" enable-background="new"/><circle transform="matrix(-.034092 .059049 .059049 .034092 156.18 127.26)" cx="556" cy="1068" r="44" enable-background="new"/></g><g transform="translate(-10)" font-family="'Liberation Sans'" font-weight="bold" text-anchor="middle"><text x="143.77536" y="106.96484" enable-background="new" fill="#ffffff" stroke="#ffffff" text-align="center" style="line-height:0%" xml:space="preserve"><tspan x="143.77536" y="106.96484" font-size="20px" style="line-height:1.25">12</tspan></text><text x="143.77536" y="105.96484" fill="url(#i)" text-align="center" style="line-height:0%" xml:space="preserve"><tspan x="143.77536" y="105.96484" fill="url(#i)" font-size="20px" style="line-height:1.25">12</tspan></text><text x="143.77536" y="236.80469" enable-background="new" fill="#ffffff" stroke="#ffffff" text-align="center" style="line-height:0%" xml:space="preserve"><tspan x="143.77536" y="236.80469" font-size="20px" style="line-height:1.25">6</tspan></text><text x="143.77536" y="235.80469" enable-background="new" fill="url(#h)" text-align="center" style="line-height:0%" xml:space="preserve"><tspan x="143.77536" y="235.80469" fill="url(#h)" font-size="20px" style="line-height:1.25">6</tspan></text><text x="211.16602" y="171.87004" enable-background="new" fill="#ffffff" stroke="#ffffff" text-align="center" style="line-height:0%" xml:space="preserve"><tspan x="211.16602" y="171.87004" font-size="20px" style="line-height:1.25">3</tspan></text><text x="211.16602" y="170.87004" enable-background="new" fill="url(#g)" text-align="center" style="line-height:0%" xml:space="preserve"><tspan x="211.16602" y="170.87004" fill="url(#g)" font-size="20px" style="line-height:1.25">3</tspan></text><text x="77.166023" y="171.87004" enable-background="new" fill="#ffffff" stroke="#ffffff" text-align="center" style="line-height:0%" xml:space="preserve"><tspan x="77.166023" y="171.87004" font-size="20px" style="line-height:1.25">9</tspan></text><text x="77.166023" y="170.87004" enable-background="new" fill="url(#f)" text-align="center" style="line-height:0%" xml:space="preserve"><tspan x="77.166023" y="170.87004" fill="url(#f)" font-size="20px" style="line-height:1.25">9</tspan></text></g></g></g><g transform="translate(1.1953e-7 302)" enable-background="new" filter="url(#ag)" opacity=".5"><rect x="144" y="160" width="52" height="8" rx="4" ry="4" color="#000000" enable-background="accumulate"/><rect transform="rotate(112.5)" x="28.951" y="-201.11" width="68" height="8" rx="4" ry="4" color="#000000" enable-background="accumulate"/></g><g transform="matrix(-.38268 .92388 .92388 .38268 47.59 268.2)" clip-path="url(#ax)" enable-background="new"><rect x="76" y="160" width="68" height="8" rx="4" ry="4" color="#000000" enable-background="accumulate" fill="url(#ad)"/><rect x="76" y="160" width="68" height="8" rx="4" ry="4" color="#000000" enable-background="accumulate" fill="none" filter="url(#aq)" stroke="url(#ac)"/></g><rect transform="rotate(195)" x="-260.19" y="-482.92" width="2" height="72" rx=".14389" ry="1.2136" enable-background="new" fill="#2e3436" fill-rule="evenodd"/><circle cx="144" cy="465" r="10.5" enable-background="new" fill="url(#r)"/><g transform="translate(270 300)" clip-path="url(#aw)"><rect x="-126" y="160" width="52" height="8" rx="4" ry="4" color="#000000" enable-background="accumulate" fill="url(#x)"/><rect x="-126" y="160" width="52" height="8" rx="4" ry="4" color="#000000" enable-background="accumulate" fill="none" filter="url(#ap)" stroke="url(#w)"/></g><circle cx="144" cy="464" r="7.9999" enable-background="new" fill="url(#q)"/><path d="m144 400.06c-16.891 0-33.088 6.7125-45.031 18.656l39.5 39.5c1.4367-1.3755 3.3852-2.2188 5.5312-2.2188z" color="#000000" enable-background="accumulate" fill="#ef2929" opacity=".6"/><path d="m144 400.06c-16.891 0-33.088 6.7125-45.031 18.656l39.5 39.5c1.4367-1.3755 3.3852-2.2188 5.5312-2.2188z" color="#000000" enable-background="accumulate" fill="none" filter="url(#af)" stroke="#ef2929" stroke-width="2"/><g transform="translate(-220 300)"><g transform="translate(220)" fill="none" stroke="#000"><circle transform="matrix(1.8239 0 0 1.8239 -870.07 -1783.9)" cx="556" cy="1068" r="44" enable-background="new" opacity=".5" stroke-width=".27414"/><circle transform="matrix(1.7713 0 0 1.7713 -840.84 -1727.8)" cx="556" cy="1068" r="44" enable-background="new" opacity=".2" stroke-width=".28228"/></g><g transform="translate(220,20)" enable-background="new"><circle transform="matrix(1.7955 0 0 1.7955 -854.27 -1773.5)" cx="556" cy="1068" r="44" enable-background="new" fill="none" opacity=".4" stroke="#888a85" stroke-linecap="round" stroke-linejoin="round" stroke-width="1.1139"/><g transform="matrix(2.2242 0 0 2.2242 -1074.9 -2213.6)"><circle transform="matrix(.81746 0 0 .81746 93.491 186.95)" cx="556" cy="1068" r="44" fill="url(#p)" opacity=".7"/><circle transform="matrix(.56818 0 0 .36526 232.09 653.4)" cx="556" cy="1068" r="44" fill="url(#o)" opacity=".8"/></g></g></g><g transform="matrix(.83827 0 0 1.1524 105.03 -234.2)"><rect x="94" y="693" width="72" height="4" rx="16" ry="2" enable-background="new" filter="url(#as)" opacity=".5"/><rect transform="matrix(.88889 0 0 1 -428.22 120)" x="592" y="573" width="72" height="4" rx="16" ry="2" enable-background="new" filter="url(#at)" opacity=".5"/></g><g transform="matrix(.28256 0 0 .28256 59.162 500.19)" enable-background="new"><g transform="translate(400 -4)"><g clip-path="url(#av)"><rect x="56" y="60" width="184" height="184" rx="25.053" ry="25.053" fill="url(#e)" fill-rule="evenodd"/><rect x="56" y="60" width="184" height="184" rx="25.053" ry="25.053" enable-background="new" fill="url(#b)" fill-rule="evenodd" opacity=".35885"/><path d="m62 189.94v30c0 10.657 8.4058 19.062 19.062 19.062h133.88c10.657 0 19.062-8.4058 19.062-19.062v-30c0 10.657-8.4058 19.062-19.062 19.062h-133.88c-10.657 0-19.062-8.4058-19.062-19.062z" enable-background="new" fill="url(#k)" fill-rule="evenodd" filter="url(#ao)" opacity=".39234"/><path transform="matrix(1 0 0 -1 0 300.94)" d="m62 212.94v6c0 10.657 8.4058 19.062 19.062 19.062h133.87c10.657 0 19.062-8.4058 19.062-19.062v-6c0 10.657-8.4058 19.062-19.062 19.062h-133.87c-10.657 0-19.062-8.4058-19.062-19.062z" enable-background="new" fill="url(#d)" fill-rule="evenodd" filter="url(#am)"/><path d="m60 76c-1.108 0-2 0.892-2 2v148c0 1.108 0.892 2 2 2s2-0.892 2-2v-148c0-1.108-0.892-2-2-2zm176 0c-1.108 0-2 0.892-2 2v148c0 1.108 0.892 2 2 2s2-0.892 2-2v-148c0-1.108-0.892-2-2-2z" color="#000000" enable-background="accumulate" fill="url(#c)" filter="url(#ak)"/><rect x="56" y="60" width="184" height="184" rx="25.053" ry="25.053" enable-background="new" fill="none" filter="url(#ai)" stroke="url(#j)" stroke-width="7.0782"/></g></g><g transform="matrix(9.2599 0 0 9.2599 -2517.3 -1952)" enable-background="new" fill="none" stroke="#fff" stroke-width="2.1599"><path d="m325.98 221.98 10.043 10.043"/><path d="m336.02 221.98-10.043 10.043"/></g><g transform="matrix(9.2599 0 0 9.2599 -2517.3 -1955)" enable-background="new" fill="none" stroke="url(#ae)" stroke-width="2.1599"><path d="m325.98 221.98 10.043 10.043"/><path d="m336.02 221.98-10.043 10.043" color="#000000" enable-background="accumulate"/></g></g><g transform="matrix(.28256 0 -.043478 .28256 53.597 488.19)" enable-background="new" mask="url(#v)" opacity=".24542"><g transform="translate(400 -4)"><g clip-path="url(#au)"><rect x="56" y="60" width="184" height="184" rx="25.053" ry="25.053" fill="url(#e)" fill-rule="evenodd"/><rect x="56" y="60" width="184" height="184" rx="25.053" ry="25.053" enable-background="new" fill="url(#b)" fill-rule="evenodd" opacity=".35885"/><path d="m62 189.94v30c0 10.657 8.4058 19.062 19.062 19.062h133.88c10.657 0 19.062-8.4058 19.062-19.062v-30c0 10.657-8.4058 19.062-19.062 19.062h-133.88c-10.657 0-19.062-8.4058-19.062-19.062z" enable-background="new" fill="url(#k)" fill-rule="evenodd" filter="url(#an)" opacity=".39234"/><path transform="matrix(1 0 0 -1 0 300.94)" d="m62 212.94v6c0 10.657 8.4058 19.062 19.062 19.062h133.87c10.657 0 19.062-8.4058 19.062-19.062v-6c0 10.657-8.4058 19.062-19.062 19.062h-133.87c-10.657 0-19.062-8.4058-19.062-19.062z" enable-background="new" fill="url(#d)" fill-rule="evenodd" filter="url(#al)"/><path d="m60 76c-1.108 0-2 0.892-2 2v148c0 1.108 0.892 2 2 2s2-0.892 2-2v-148c0-1.108-0.892-2-2-2zm176 0c-1.108 0-2 0.892-2 2v148c0 1.108 0.892 2 2 2s2-0.892 2-2v-148c0-1.108-0.892-2-2-2z" color="#000000" enable-background="accumulate" fill="url(#c)" filter="url(#aj)"/><rect x="56" y="60" width="184" height="184" rx="25.053" ry="25.053" enable-background="new" fill="none" filter="url(#ah)" stroke="url(#j)" stroke-width="7.0782"/></g></g></g></g></g></svg>
