<?xml version="1.0" encoding="UTF-8"?>
<svg enable-background="new" version="1.0" viewBox="0 0 256 256" xmlns="http://www.w3.org/2000/svg" xmlns:xlink="http://www.w3.org/1999/xlink"><defs><filter id="ao" color-interpolation-filters="sRGB"><feGaussianBlur stdDeviation="1.1267606"/></filter><linearGradient id="x"><stop stop-color="#fff" offset="0"/><stop stop-color="#fff" stop-opacity="0" offset="1"/></linearGradient><filter id="c" x="-.37244" y="-.13935" width="1.7449" height="1.2787" color-interpolation-filters="sRGB"><feGaussianBlur stdDeviation="3.9216669"/></filter><clipPath id="ar"><path d="m580.34 360.28c-1.4901 0-2.9535 0.16909-4.4062 0.5 22.628 5.1543 41.688 49.4 41.688 103.34s-19.06 98.408-41.688 103.56c1.4527 0.33091 2.9161 0.5 4.4062 0.5 24.701 0 44.75-46.53 44.75-103.94s-20.049-103.97-44.75-103.97z" color="#000000" enable-background="new" opacity=".2488"/></clipPath><filter id="am" x="-.11785" y="-.027863" width="1.2357" height="1.0557" color-interpolation-filters="sRGB"><feGaussianBlur stdDeviation="2.4137324"/></filter><clipPath id="aq"><ellipse cx="25.25" cy="27.938" rx="7.75" ry="16.562" enable-background="new" fill="none" stroke="#000" stroke-linecap="round" stroke-width="2"/></clipPath><filter id="al" color-interpolation-filters="sRGB"><feGaussianBlur stdDeviation="0.1210726"/></filter><filter id="an" x="-.21907" y="-.6627" width="1.4381" height="2.3254" color-interpolation-filters="sRGB"><feGaussianBlur stdDeviation="1.9524919"/></filter><filter id="ak" x="-.29616" y="-.31274" width="1.5923" height="1.6255" color-interpolation-filters="sRGB"><feGaussianBlur stdDeviation="2.0360915"/></filter><clipPath id="ap"><rect x="56" y="60" width="184" height="184" rx="25.053" ry="25.053" enable-background="new" fill="url(#radialGradient4319)" fill-rule="evenodd"/></clipPath><radialGradient id="g" cx="24.02" cy="12.107" r="20.531" gradientTransform="matrix(13.339 1.2973e-6 -3.2848e-7 3.3774 -169.04 33.206)" gradientUnits="userSpaceOnUse"><stop stop-color="#cbcdc9" offset="0"/><stop stop-color="#878a85" offset="1"/></radialGradient><radialGradient id="d" cx="176.67" cy="214.94" r="92" gradientTransform="matrix(1.5656 0 0 .95658 -83.703 9.3322)" gradientUnits="userSpaceOnUse"><stop stop-color="#eeeeec" offset="0"/><stop stop-color="#eeeeec" stop-opacity="0" offset="1"/></radialGradient><linearGradient id="w" x1="131.5" x2="131.5" y1="234.5" y2="206.98" gradientTransform="translate(0,1)" gradientUnits="userSpaceOnUse"><stop stop-color="#fff" offset="0"/><stop stop-color="#fff" stop-opacity="0" offset="1"/></linearGradient><filter id="aj" x="-.036813" y="-.1621" width="1.0736" height="1.3242" color-interpolation-filters="sRGB"><feGaussianBlur stdDeviation="2.6382812"/></filter><radialGradient id="f" cx="132" cy="272.15" r="92.332" gradientTransform="matrix(2.0831 0 0 .22596 -158.48 172.97)" gradientUnits="userSpaceOnUse"><stop stop-color="#fff" offset="0"/><stop stop-color="#fff" stop-opacity="0" offset="1"/></radialGradient><filter id="ai" color-interpolation-filters="sRGB"><feGaussianBlur stdDeviation="0.98531245"/></filter><radialGradient id="e" cx="148" cy="152" r="90" gradientTransform="matrix(4.0735 .53629 -.11022 .83722 -438.13 -54.628)" gradientUnits="userSpaceOnUse"><stop stop-color="#fff" offset="0"/><stop stop-color="#fff" stop-opacity="0" offset="1"/></radialGradient><filter id="ah" color-interpolation-filters="sRGB"><feGaussianBlur stdDeviation="0.83"/></filter><linearGradient id="v" x1="195.48" x2="100.52" y1="234.24" y2="69.761" gradientUnits="userSpaceOnUse"><stop stop-color="#2e3436" offset="0"/><stop stop-color="#babdb6" offset="1"/></linearGradient><filter id="ag" color-interpolation-filters="sRGB"><feGaussianBlur stdDeviation="0.91999947"/></filter><linearGradient id="u" x1="331" x2="331" y1="224.08" y2="234.89" gradientUnits="userSpaceOnUse"><stop stop-color="#2e3436" offset="0"/><stop stop-color="#888a85" offset="1"/></linearGradient><linearGradient id="as" x1="331" x2="331" y1="224.08" y2="234.89" gradientUnits="userSpaceOnUse"><stop stop-color="#888a85" offset="0"/><stop stop-color="#d3d7cf" offset="1"/></linearGradient><radialGradient id="b" cx="11.402" cy="36.863" r="10.695" gradientTransform="matrix(1 0 0 .33058 0 24.677)" gradientUnits="userSpaceOnUse"><stop offset="0"/><stop stop-opacity="0" offset="1"/></radialGradient><linearGradient id="af" x1="78.5" x2="78.5" y1="-4.0065" y2="14.001" gradientTransform="matrix(5.5649 0 0 6.1406 38.294 433.8)" gradientUnits="userSpaceOnUse"><stop stop-color="#babdb6" offset="0"/><stop stop-color="#eeeeec" offset=".25301"/><stop stop-color="#555753" offset="1"/></linearGradient><linearGradient id="ae" x1="80.062" x2="80.062" y1="14" y2="-4.0088" gradientTransform="matrix(5.5649 0 0 6.1406 38.294 433.8)" gradientUnits="userSpaceOnUse"><stop stop-color="#555753" offset="0"/><stop stop-color="#babdb6" offset="1"/></linearGradient><radialGradient id="t" cx="475.59" cy="463.9" r="24.658" gradientTransform="matrix(1 0 0 1.9883 -1 -458.98)" gradientUnits="userSpaceOnUse"><stop stop-color="#fff" offset="0"/><stop stop-color="#fff" stop-opacity="0" offset="1"/></radialGradient><linearGradient id="ad" x1="80.205" x2="75.659" y1="22.605" y2="18.234" gradientTransform="matrix(6.1406 0 0 6.1406 13.252 329.41)" gradientUnits="userSpaceOnUse"><stop stop-color="#3a3b38" offset="0"/><stop stop-color="#888a85" offset="1"/></linearGradient><radialGradient id="s" cx="9.3204" cy="18.817" r="12.5" gradientTransform="matrix(4.3798 3.2063 -5.6989 7.2366 581.36 275.93)" gradientUnits="userSpaceOnUse"><stop stop-color="#eeeeec" offset="0"/><stop stop-color="#61635f" offset="1"/></radialGradient><linearGradient id="ac" x1="7.75" x2="4.6432" y1="33.047" y2="12.064" gradientTransform="matrix(5.5969 0 0 5.3963 459.68 345.78)" gradientUnits="userSpaceOnUse"><stop stop-color="#555753" offset="0"/><stop stop-color="#babdb6" offset="1"/></linearGradient><radialGradient id="r" cx="23.987" cy="27.053" r="7.75" gradientTransform="matrix(-.24329 0 0 -1.2543 25.221 61.871)" gradientUnits="userSpaceOnUse"><stop stop-color="#fff" offset="0"/><stop stop-color="#fff" stop-opacity="0" offset="1"/></radialGradient><linearGradient id="ab" x1="20.226" x2="11.438" y1="20.334" y2="21.75" gradientTransform="matrix(4.0937 0 0 6.1406 455.37 310.99)" gradientUnits="userSpaceOnUse"><stop stop-color="#fff" stop-opacity="0" offset="0"/><stop stop-color="#fff" offset=".5"/><stop stop-color="#fff" stop-opacity="0" offset="1"/></linearGradient><radialGradient id="q" cx="24.827" cy="31.573" r="8.189" gradientTransform="matrix(1.5125 -.9004 1.4958 2.7223 -58.794 -27.296)" gradientUnits="userSpaceOnUse"><stop stop-color="#babdb6" offset="0"/><stop stop-color="#555753" offset="1"/></radialGradient><linearGradient id="aa" x1="33.431" x2="33.431" y1="45.052" y2=".31037" gradientUnits="userSpaceOnUse"><stop stop-color="#555753" offset="0"/><stop stop-color="#d3d7cf" offset="1"/></linearGradient><radialGradient id="p" cx="556.5" cy="480.5" r="18.5" gradientTransform="matrix(1 0 0 1.5946 0 -285.7)" gradientUnits="userSpaceOnUse"><stop offset="0"/><stop stop-opacity="0" offset="1"/></radialGradient><radialGradient id="o" cx="558.98" cy="483.08" r="22.349" gradientTransform="matrix(1 0 0 1.5359 -3 -249.46)" gradientUnits="userSpaceOnUse"><stop stop-color="#fff" offset="0"/><stop stop-color="#fff" stop-opacity="0" offset="1"/></radialGradient><radialGradient id="n" cx="546.98" cy="453.78" r="22.985" gradientTransform="matrix(1 0 0 1.5362 -2 -249.62)" gradientUnits="userSpaceOnUse"><stop offset="0"/><stop stop-opacity="0" offset="1"/></radialGradient><radialGradient id="m" cx="20.884" cy="20.434" r="4" gradientTransform="matrix(6.5684 0 0 9.5823 417.31 257.04)" gradientUnits="userSpaceOnUse"><stop stop-color="#babdb6" offset="0"/><stop stop-color="#555753" offset="1"/></radialGradient><radialGradient id="l" cx="29.746" cy="39.836" r="8.2279" gradientTransform="matrix(24.48 .71843 0 -15.536 -199.38 1009.4)" gradientUnits="userSpaceOnUse"><stop stop-color="#eeeeec" offset="0"/><stop stop-color="#babdb6" offset="1"/></radialGradient><linearGradient id="z" x1="17.5" x2="28.555" y1="25.587" y2="25.699" gradientUnits="userSpaceOnUse"><stop stop-color="#fff" offset="0"/><stop stop-color="#fff" stop-opacity="0" offset="1"/></linearGradient><radialGradient id="a" cx="533" cy="450" r="13.5" gradientTransform="matrix(1 0 0 2.6296 0 -733.33)" gradientUnits="userSpaceOnUse" xlink:href="#x"/><radialGradient id="k" cx="618.52" cy="466.01" r="24.578" gradientTransform="matrix(1.7925 1.3715e-7 -8.0464e-7 10.071 -490.19 -4221.3)" gradientUnits="userSpaceOnUse"><stop offset="0"/><stop stop-opacity="0" offset="1"/></radialGradient><linearGradient id="y" x1="479.03" x2="479.03" y1="514.12" y2="507.57" gradientTransform="matrix(1.2576 0 0 1.2576 -123.58 -130.61)" gradientUnits="userSpaceOnUse"><stop stop-color="#fff" offset="0"/><stop stop-color="#fff" stop-opacity="0" offset="1"/></linearGradient><radialGradient id="j" cx="550.12" cy="492.22" r="14.375" gradientTransform="matrix(1.5043 -.88696 .39345 .66732 -471.12 648.86)" gradientUnits="userSpaceOnUse"><stop stop-color="#fff" offset="0"/><stop stop-color="#fff" stop-opacity="0" offset="1"/></radialGradient><radialGradient id="i" cx="23.292" cy="35.369" r="7.75" gradientTransform="matrix(4.0494 .087472 -.090247 4.371 -67.835 -112.81)" gradientUnits="userSpaceOnUse"><stop offset="0"/><stop stop-opacity="0" offset="1"/></radialGradient><radialGradient id="h" cx="87.354" cy="196.55" r="8.25" gradientTransform="matrix(.92595 -.37764 .78788 1.9318 255.64 153.24)" gradientUnits="userSpaceOnUse"><stop stop-color="#fff" offset="0"/><stop stop-color="#fff" stop-opacity="0" offset="1"/></radialGradient></defs><g transform="translate(-421 -335)"><g transform="translate(-20,-2)" enable-background="new"><ellipse transform="matrix(7.8192 0 0 6.6576 424.32 292.26)" cx="11.402" cy="36.863" rx="10.695" ry="3.5355" enable-background="new" fill="url(#b)" filter="url(#an)" opacity=".28708"/><ellipse transform="matrix(9.4356 0 0 14.86 435.89 -29.11)" cx="11.402" cy="36.863" rx="10.695" ry="3.5355" enable-background="new" fill="url(#b)" opacity=".2"/><ellipse transform="matrix(4.6054 0 0 4.8247 452.3 343.88)" cx="4" cy="25" rx="4" ry="7" enable-background="new" fill="#2e3436" stroke="#555753" stroke-linecap="round" stroke-width=".21214"/><path d="m480.7 412.31c-12.287 0-22.26 23.383-22.26 52.195s9.9723 52.195 22.26 52.195h22.26c12.287 0 22.26-23.383 22.26-52.195s-9.9723-52.195-22.26-52.195z" enable-background="new" fill="url(#af)" stroke="url(#ae)" stroke-linecap="round"/><path d="m500.64 415.38c-12.531 0-22.701 21.965-22.701 49.029s10.17 49.029 22.701 49.029h3.9139c12.531 0 22.701-21.965 22.701-49.029s-10.17-49.029-22.701-49.029z" enable-background="new" fill="url(#t)"/><path d="m502.64 415.38c-12.531 0-22.701 21.965-22.701 49.029s10.17 49.029 22.701 49.029h3.9139c12.531 0 22.701-21.965 22.701-49.029s-10.17-49.029-22.701-49.029z" enable-background="new" fill="url(#ad)"/><path d="m496.06 464.5c0 56.661 56.413 89.038 91.341 89.038 24.179 0 42.984-39.889 42.984-89.038 0-49.149-18.806-89.038-42.984-89.038-34.928 0-91.341 32.378-91.341 89.038z" enable-background="new" fill="url(#s)" stroke="url(#ac)" stroke-linecap="round"/><ellipse transform="matrix(8.1214 0 0 6.3028 368.51 288.42)" cx="25.25" cy="27.938" rx="7.75" ry="16.562" enable-background="new" fill="url(#r)"/><path d="m541.34 399.26c-15.863 8.5641-33.517 25.765-49.125 49.892 16.577-6.9148 33.72-12.038 49.125-10.746z" enable-background="new" fill="url(#ab)" fill-rule="evenodd" opacity=".73359"/><ellipse transform="matrix(7.1488 0 0 6.9892 396.68 269.24)" cx="25.25" cy="27.938" rx="7.75" ry="16.562" enable-background="new" fill="url(#q)" stroke="url(#aa)" stroke-linecap="round" stroke-width=".14147"/><ellipse transform="matrix(1.1553 0 0 1.1553 -97.902 -85.102)" cx="556.5" cy="480.5" rx="18.5" ry="29.5" color="#000000" enable-background="new" fill="url(#p)" filter="url(#ao)"/><path d="m569.83 465.5c0 18.672-14.633 33.825-24.97 33.825-10.337 0-18.727-15.154-18.727-33.825s8.3897-33.825 18.727-33.825c10.337 0 24.97 15.154 24.97 33.825z" enable-background="new" fill="none" opacity=".2488" stroke="url(#o)" stroke-linecap="round"/><path d="m570.46 465.5c0 19.216-15.059 34.811-25.697 34.811-10.639 0-19.273-15.595-19.273-34.811s8.6341-34.811 19.273-34.811c10.638 0 25.697 15.595 25.697 34.811z" enable-background="new" fill="none" opacity=".2488" stroke="url(#n)" stroke-linecap="round"/><path d="m567.83 464.5c0 15.253-11.954 27.632-20.399 27.632-8.4448 0-15.299-12.379-15.299-27.633s6.8537-27.633 15.299-27.633c8.4448 0 20.399 12.379 20.399 27.633z" enable-background="new" fill="url(#m)"/><path d="m578.19 347.83c-16.165 0-29.831 13.815-39.53 34.925-9.6989 21.109-15.543 50-15.543 81.746 0 31.746 5.8445 60.637 15.543 81.746 9.6989 21.109 23.365 34.925 39.53 34.925 16.165 0 29.831-13.815 39.53-34.925 6.0618-13.193 10.667-29.544 13.241-47.589 0.0811-0.56905 0.11483-1.1544 0.1922-1.727 0.46914-3.4814 0.83346-6.948 1.1514-10.554 0.31256-3.3553 0.59932-6.7119 0.76757-10.17 6e-3 -0.19012-6e-3 -0.38526 0-0.57568 0.16887-3.6588 0.1922-7.3733 0.1922-11.13 0-3.9568-5e-3 -7.8576-0.1922-11.705-0.15842-3.418-0.47466-6.845-0.76757-10.17-0.31808-3.6061-0.68216-7.0727-1.1514-10.554-0.0829-0.58452-0.10439-1.1467-0.1922-1.727-2.5738-18.046-7.1788-34.396-13.241-47.589-9.6989-21.109-23.365-34.925-39.53-34.925zm3.0703 12.281c11.804 0 23.214 10.842 31.854 29.743 5.4004 11.813 9.683 26.622 12.089 43.176 0.48142 3.3109 0.82038 6.7252 1.1514 10.17 0.29168 3.2263 0.60853 6.4685 0.76757 9.7865 0.19588 3.8102 0.38379 7.5907 0.38379 11.514 0 3.6582-0.21308 7.1851-0.38379 10.746-0.0123 0.25158 0.0123 0.51642 0 0.76757-0.16948 3.2961-0.46054 6.5907-0.76757 9.7866-0.33098 3.4451-0.67012 6.8595-1.1514 10.17-2.4063 16.554-6.6889 31.363-12.089 43.176-8.6406 18.901-20.05 29.743-31.854 29.743-11.804-1e-5 -23.214-10.842-31.854-29.743s-14.392-45.381-14.392-74.646c0-29.266 5.7514-55.745 14.392-74.646 8.6406-18.901 20.05-29.743 31.854-29.743z" enable-background="new" fill="url(#l)"/><ellipse transform="matrix(6.7348 0 0 6.8589 407.13 272.88)" cx="25.25" cy="27.938" rx="7.75" ry="16.562" enable-background="new" fill="none" opacity=".65517" stroke="url(#z)" stroke-linecap="round" stroke-width=".4414"/><g fill="url(#a)"><ellipse transform="rotate(7.125 634.4 395.31)" cx="533" cy="450" rx="12" ry="34" color="#000000" enable-background="new"/><ellipse transform="matrix(1.4624 .1828 -.1828 1.4624 -164.21 -334.51)" cx="533" cy="450" rx="12" ry="34" color="#000000" enable-background="new" filter="url(#c)"/></g><g transform="matrix(.33469 -.041917 .041917 .33469 283.46 337.07)" fill="url(#a)"><ellipse transform="matrix(.68584 .08573 -.08573 .68584 205.01 72.72)" cx="533" cy="450" rx="12" ry="34" color="#000000" enable-background="new"/><ellipse transform="matrix(1.4624 .1828 -.1828 1.4624 -164.21 -334.51)" cx="533" cy="450" rx="12" ry="34" color="#000000" enable-background="new" filter="url(#c)"/></g><path d="m583.13 360.47c-0.23007 0-0.45964 0.0231-0.68889 0.0313 24.001 1.4242 43.257 47.441 43.257 104s-19.256 102.58-43.257 104c0.22925 8e-3 0.45882 0.0313 0.68889 0.0313 24.531 0 44.405-46.574 44.405-104.03s-19.874-104.03-44.405-104.03z" enable-background="new" fill="#fff"/><path d="m580.34 360.28c-1.4901 0-2.9535 0.16909-4.4062 0.5 22.628 5.1543 40.312 49.525 40.312 103.47s-17.685 98.283-40.312 103.44c1.4527 0.33091 2.9161 0.5 4.4062 0.5 24.701 0 44.75-46.53 44.75-103.94s-20.049-103.97-44.75-103.97z" clip-path="url(#ar)" color="#000000" enable-background="new" fill="none" filter="url(#am)" stroke="url(#k)" stroke-width="3"/><path d="m470 508.25c2.318 3.5572 4.262 5.3099 8.1743 7.5455h21.119c-4.2787-0.80625-7.8866-4.3304-9.6891-7.7264z" color="#000000" enable-background="new" fill="url(#y)" opacity=".44498"/><path d="m566.25 468.5c-1.75 8-8.8838 21.093-18.75 22.25-3.9067 0.45822-10-6.5-10-6.5 14.451 1.1441 23.111-7.4447 28.75-15.75z" color="#000000" enable-background="new" fill="url(#j)" opacity=".21053"/><ellipse transform="matrix(7.2171 0 0 7.0746 395.48 266.85)" cx="25.25" cy="27.938" rx="7.75" ry="16.562" clip-path="url(#aq)" enable-background="new" fill="none" filter="url(#al)" stroke="url(#i)" stroke-linecap="round" stroke-width=".28294"/><path d="m486.25 494.62c1.3665 3.3027 7.1344 13.239 11.75 16.125 1.2838-3.7196 2.6897-5.3332 6.75-6.875l-5.75-14.5c-3.7776 0.31494-8.1963 2.5776-12.75 5.25z" color="#000000" enable-background="new" fill="url(#h)" filter="url(#ak)" opacity=".21531"/><path d="m573.13 360.97c-0.22924 0-0.45798 0.023-0.68641 0.0312 23.914 1.4191 43.101 47.27 43.101 103.63s-19.186 102.21-43.101 103.63c0.22843 8e-3 0.45717 0.0312 0.68641 0.0312 24.442 0 44.245-46.407 44.245-103.66s-19.803-103.66-44.245-103.66z" enable-background="new" fill="url(#radialGradient15060)" opacity=".10526"/></g><g transform="matrix(.28256 0 0 .28256 490.75 418.25)" enable-background="new"><g transform="translate(400 -4)"><g clip-path="url(#ap)"><rect x="56" y="60" width="184" height="184" rx="25.053" ry="25.053" fill="url(#g)" fill-rule="evenodd"/><rect x="56" y="60" width="184" height="184" rx="25.053" ry="25.053" enable-background="new" fill="url(#d)" fill-rule="evenodd" opacity=".35885"/><path d="m62 189.94v30c0 10.657 8.4058 19.062 19.062 19.062h133.88c10.657 0 19.062-8.4058 19.062-19.062v-30c0 10.657-8.4058 19.062-19.062 19.062h-133.88c-10.657 0-19.062-8.4058-19.062-19.062z" enable-background="new" fill="url(#w)" fill-rule="evenodd" filter="url(#aj)" opacity=".39234"/><path transform="matrix(1 0 0 -1 0 300.94)" d="m62 212.94v6c0 10.657 8.4058 19.062 19.062 19.062h133.87c10.657 0 19.062-8.4058 19.062-19.062v-6c0 10.657-8.4058 19.062-19.062 19.062h-133.87c-10.657 0-19.062-8.4058-19.062-19.062z" enable-background="new" fill="url(#f)" fill-rule="evenodd" filter="url(#ai)"/><path d="m60 76c-1.108 0-2 0.892-2 2v148c0 1.108 0.892 2 2 2s2-0.892 2-2v-148c0-1.108-0.892-2-2-2zm176 0c-1.108 0-2 0.892-2 2v148c0 1.108 0.892 2 2 2s2-0.892 2-2v-148c0-1.108-0.892-2-2-2z" color="#000000" enable-background="accumulate" fill="url(#e)" filter="url(#ah)"/><rect x="56" y="60" width="184" height="184" rx="25.053" ry="25.053" enable-background="new" fill="none" filter="url(#ag)" stroke="url(#v)" stroke-width="7.0782"/></g></g><g transform="matrix(9.2599 0 0 9.2599 -2517.3 -1952)" enable-background="new" fill="none" stroke="#fff" stroke-width="2.1599"><path d="m325.98 221.98 10.043 10.043"/><path d="m336.02 221.98-10.043 10.043"/></g><g transform="matrix(9.2599 0 0 9.2599 -2517.3 -1955)" enable-background="new" fill="none" stroke="url(#u)" stroke-width="2.1599"><path d="m325.98 221.98 10.043 10.043"/><path d="m336.02 221.98-10.043 10.043" color="#000000" enable-background="accumulate"/></g></g></g></svg>
