<?xml version="1.0" encoding="UTF-8"?>
<svg enable-background="new" version="1.0" viewBox="0 0 256 256" xmlns="http://www.w3.org/2000/svg" xmlns:xlink="http://www.w3.org/1999/xlink"><defs><filter id="s" color-interpolation-filters="sRGB"><feGaussianBlur stdDeviation="0.26164063"/></filter><clipPath id="w"><path d="m68 168 5.9062 79.562 0.28125 3.7812 0.15625 2.4062c16.875 3.8268 41.816 6.25 69.656 6.25s52.781-2.4232 69.656-6.25l0.46875-6.25 5.875-79.5z" enable-background="new"/></clipPath><filter id="r" color-interpolation-filters="sRGB"><feGaussianBlur stdDeviation="1.225"/></filter><filter id="p" color-interpolation-filters="sRGB"><feGaussianBlur stdDeviation="1.53"/></filter><clipPath id="u"><path d="m144 140c-50.784 0-92 28.672-92 64 0 8.337 0.7611 16.627 3.8125 24 3.7472 9.0539 9.783 15.13 18.094 19.562l0.4375 6.1875c16.875 3.8268 41.816 6.25 69.656 6.25s52.781-2.4232 69.656-6.25l0.46875-6.25c8.2749-4.4293 14.335-10.488 18.062-19.5 3.0502-7.3733 3.8125-15.663 3.8125-24 0-35.328-41.216-64-92-64z" enable-background="new"/></clipPath><filter id="n" x="-.12539" y="-.12539" width="1.2508" height="1.2508" color-interpolation-filters="sRGB"><feGaussianBlur stdDeviation="0.4832633"/></filter><clipPath id="v"><circle transform="matrix(12.108 0 0 13.405 -791.35 -654.38)" cx="77.25" cy="56.125" r="4.625" enable-background="accumulate" fill-rule="evenodd"/></clipPath><filter id="q" color-interpolation-filters="sRGB"><feGaussianBlur stdDeviation="0.093456904"/></filter><filter id="o" color-interpolation-filters="sRGB"><feGaussianBlur stdDeviation="0.050101745"/></filter><filter id="m" x="-.06837" y="-.236" width="1.1367" height="1.472" color-interpolation-filters="sRGB"><feGaussianBlur stdDeviation="5.15625"/></filter><filter id="t" x="-.062845" y="-1.3253" width="1.1257" height="3.6506" color-interpolation-filters="sRGB"><feGaussianBlur stdDeviation="3.4041165"/></filter><radialGradient id="e" cx="141" cy="190.5" r="92" gradientTransform="matrix(1 0 0 .5 0 95.25)" gradientUnits="userSpaceOnUse"><stop offset="0"/><stop stop-opacity=".49804" offset=".5"/><stop stop-opacity="0" offset="1"/></radialGradient><radialGradient id="d" cx="141" cy="190.5" r="92" gradientTransform="matrix(1 0 0 .5 0 95.25)" gradientUnits="userSpaceOnUse"><stop offset="0"/><stop stop-opacity=".49804" offset=".79958"/><stop stop-opacity="0" offset="1"/></radialGradient><radialGradient id="c" cx="-10" cy="140.2" r="92" gradientTransform="matrix(1.67 0 0 .43478 160.7 104.04)" gradientUnits="userSpaceOnUse"><stop stop-color="#f0f0ee" offset="0"/><stop stop-color="#a1a196" offset="1"/></radialGradient><linearGradient id="l" x1="94" x2="91.5" y1="253.75" y2="217.75" gradientUnits="userSpaceOnUse"><stop offset="0"/><stop stop-opacity="0" offset="1"/></linearGradient><linearGradient id="k" x1="216" x2="213.5" y1="206.26" y2="233.14" gradientTransform="matrix(1 0 0 1.02 0 -4.942)" gradientUnits="userSpaceOnUse"><stop stop-color="#555753" offset="0"/><stop stop-color="#555753" stop-opacity="0" offset="1"/></linearGradient><radialGradient id="b" cx="144" cy="304.7" r="92" gradientTransform="matrix(2.8184 -5.6306e-8 0 .61413 -261.85 72.875)" gradientUnits="userSpaceOnUse"><stop stop-color="#fff" offset="0"/><stop stop-color="#fff" stop-opacity="0" offset="1"/></radialGradient><linearGradient id="j" x1="151" x2="151" y1="242.51" y2="202.48" gradientUnits="userSpaceOnUse"><stop offset="0"/><stop stop-opacity="0" offset="1"/></linearGradient><linearGradient id="i" x1="148.36" x2="148.36" y1="240.52" y2="210.32" gradientUnits="userSpaceOnUse"><stop offset="0"/><stop stop-color="#888a85" offset="1"/></linearGradient><linearGradient id="h" x1="79.34" x2="79.34" y1="60.75" y2="58.809" gradientUnits="userSpaceOnUse"><stop offset="0"/><stop stop-opacity="0" offset="1"/></linearGradient><radialGradient id="a" cx="77.25" cy="53.774" r="5.0105" gradientTransform="matrix(1.5574 2.2972e-7 -1.9449e-7 1.0757 -43.062 -4.0706)" gradientUnits="userSpaceOnUse"><stop stop-color="#fff" offset="0"/><stop stop-color="#babdb6" offset=".63415"/><stop stop-color="#d9d9d4" offset="1"/></radialGradient><linearGradient id="g" x1="77.115" x2="77.115" y1="54.003" y2="56.3" gradientUnits="userSpaceOnUse"><stop stop-color="#fff" offset="0"/><stop stop-color="#fff" stop-opacity="0" offset="1"/></linearGradient><linearGradient id="f" x1="76.882" x2="74.975" y1="59.818" y2="53.141" gradientUnits="userSpaceOnUse"><stop stop-color="#2e3436" offset="0"/><stop stop-color="#888a85" offset="1"/></linearGradient></defs><g transform="translate(-20,-30)"><g><g transform="translate(4)"><ellipse transform="matrix(1.1111 0 0 .43478 -12.667 166.17)" cx="141" cy="190.5" rx="92" ry="46" enable-background="new" fill="url(#e)" opacity=".74286"/><ellipse transform="matrix(.89795 0 0 .31522 17.389 188.95)" cx="141" cy="190.5" rx="92" ry="46" enable-background="new" fill="url(#d)"/><g clip-path="url(#u)" enable-background="new"><g><path d="m144 140c-50.784 0-92 28.672-92 64 0 8.337 0.7611 16.627 3.8125 24 3.7472 9.0539 9.783 15.13 18.094 19.562l0.4375 6.1875c16.875 3.8268 41.816 6.25 69.656 6.25s52.781-2.4232 69.656-6.25l0.46875-6.25c8.2749-4.4293 14.335-10.488 18.062-19.5 3.0502-7.3733 3.8125-15.663 3.8125-24 0-35.328-41.216-64-92-64z" fill="url(#c)"/><path d="m68.188 167.75c-10.205 10.307-16.188 22.798-16.188 36.25 0 8.337 0.7611 16.627 3.8125 24 3.7472 9.0539 9.783 15.13 18.094 19.562l0.4375 6.1875c0.01941 4e-3 0.04306-4e-3 0.0625 0zm151.62 0-6.2188 86c0.0194-4e-3 0.0431 4e-3 0.0625 0l0.46875-6.25c8.2749-4.4293 14.335-10.488 18.062-19.5 3.0502-7.3733 3.8125-15.663 3.8125-24 0-13.452-5.9824-25.943-16.188-36.25z" enable-background="new" fill="url(#l)" opacity=".63061"/><path transform="matrix(1 0 0 1.0245 0 -6.0566)" d="m217.72 197.87-3.5938 49.628c3.3058-1.8048 6.169-3.9232 8.6875-6.3748z" enable-background="new" fill="url(#k)" filter="url(#s)" opacity=".8"/><path d="m144 141c-45.106 0-82.665 22.626-90.5 52.438 13.191-16.564 48.731-23.438 90.5-23.438s77.309 6.8736 90.5 23.438c-7.8348-29.811-45.394-52.438-90.5-52.438z" enable-background="new" fill="#fff" filter="url(#m)"/></g><path d="m52.406 198c-0.26552 1.9795-0.40625 3.9725-0.40625 6 0 8.337 0.7611 16.627 3.8125 24 3.7472 9.0539 9.783 15.13 18.094 19.562l0.4375 6.1875c16.875 3.8268 41.816 6.25 69.656 6.25s52.781-2.4232 69.656-6.25l0.46875-6.25c8.2749-4.4293 14.335-10.488 18.062-19.5 3.0502-7.3733 3.8125-15.663 3.8125-24 0-2.0275-0.14073-4.0205-0.40625-6z" enable-background="new" fill="url(#b)" opacity=".5"/><g clip-path="none" fill="none" stroke-linejoin="round"><path d="m68 168 5.9062 79.562 0.28125 3.7812 0.15625 2.4062c16.875 3.8268 41.816 6.25 69.656 6.25s52.781-2.4232 69.656-6.25l0.46875-6.25 5.875-79.5z" clip-path="url(#w)" enable-background="new" filter="url(#r)" stroke="url(#j)" stroke-width="2"/><path d="m215.12 247.5c8.2749-4.4293 13.335-10.488 17.062-19.5 3.0502-7.3733 3.8125-15.663 3.8125-24 0-35.328-41.216-64-92-64-50.784 0-92 28.672-92 64 0 8.337 0.7611 16.627 3.8125 24 3.7472 9.0539 8.783 15.13 17.094 19.562" enable-background="new" filter="url(#p)" stroke="url(#i)" stroke-width="3"/></g><circle transform="matrix(12.595 0 0 12.378 -822.68 -587.49)" cx="77.25" cy="56.125" r="4.625" enable-background="accumulate" fill="url(#h)" fill-rule="evenodd" filter="url(#n)"/></g><g transform="translate(0,3)" clip-path="url(#v)" enable-background="new"><g transform="matrix(4.3349 0 0 4.7763 -1501 -209.98)" fill-rule="evenodd"><circle transform="matrix(2.7932 0 0 2.8067 163.71 -93.044)" cx="77.25" cy="56.125" r="4.625" enable-background="accumulate" fill="url(#a)"/><ellipse transform="matrix(3.3401 0 0 4.3498 122.08 -179.3)" cx="77.062" cy="54.5" rx="2.25" ry="1.1875" enable-background="accumulate" fill="url(#g)" filter="url(#o)" opacity=".9"/></g><circle transform="matrix(12.108 0 0 13.405 -791.35 -654.38)" cx="77.25" cy="56.125" r="4.625" enable-background="accumulate" fill="none" filter="url(#q)" stroke="url(#f)" stroke-linejoin="round" stroke-width=".23547"/></g><path d="m79.5 247s13.311 6.1647 65 6.1647c56.184 0 65-6.1647 65-6.1647s-45.5 3.35-65 3.5-65-3.5-65-3.5z" fill="#fff" fill-rule="evenodd" filter="url(#t)"/></g></g></g></svg>
