<?xml version="1.0" encoding="UTF-8"?>
<svg enable-background="new" version="1.0" viewBox="0 0 256 256" xmlns="http://www.w3.org/2000/svg" xmlns:xlink="http://www.w3.org/1999/xlink"><defs><linearGradient id="a"><stop stop-color="#fff" offset="0"/><stop stop-color="#fff" stop-opacity="0" offset="1"/></linearGradient><clipPath id="al"><path d="m148 50c-6.624 0-12 1.792-12 4v7c0 2.208 5.376 4 12 4 6.624 0 12-1.792 12-4v-7c0-2.208-5.376-4-12-4z" enable-background="new"/></clipPath><filter id="aj"><feGaussianBlur stdDeviation="0.205"/></filter><filter id="ai" x="-.0288" y="-.144" width="1.0576" height="1.288"><feGaussianBlur stdDeviation="0.3"/></filter><filter id="af" x="-.085186" y="-.22539" width="1.1704" height="1.4508"><feGaussianBlur stdDeviation="2.2538855"/></filter><filter id="b" x="-.40271" y="-.032415" width="1.8054" height="1.0648"><feGaussianBlur stdDeviation="2.6847656"/></filter><clipPath id="ak"><path d="m548 44c-19.872 0-36 5.376-36 12v196c0 6.624 16.128 12 36 12 19.872 0 36-5.376 36-12v-196c0-6.624-16.128-12-36-12z" enable-background="new"/></clipPath><filter id="ae"><feGaussianBlur stdDeviation="0.74"/></filter><filter id="ad"><feGaussianBlur stdDeviation="0.46955947"/></filter><filter id="ac" x="-.086293" y="-.21704" width="1.1726" height="1.4341"><feGaussianBlur stdDeviation="2.3440408"/></filter><filter id="ab"><feGaussianBlur stdDeviation="0.45204288"/></filter><filter id="aa" x="-.20795" y="-.41962" width="1.4159" height="1.8392"><feGaussianBlur stdDeviation="2.1227855"/></filter><filter id="y"><feGaussianBlur stdDeviation="0.4596875"/></filter><filter id="x"><feGaussianBlur stdDeviation="0.28781414"/></filter><filter id="z"><feGaussianBlur stdDeviation="1.430625"/></filter><filter id="ag"><feGaussianBlur stdDeviation="0.33375"/></filter><filter id="ah" x="-.1007" y="-.20141" width="1.2014" height="1.4028"><feGaussianBlur stdDeviation="2.3497771"/></filter><radialGradient id="m" cx="-135.75" cy="64.5" r="31.75" gradientTransform="matrix(1 0 0 .37795 0 40.122)" gradientUnits="userSpaceOnUse"><stop offset="0"/><stop stop-opacity="0" offset="1"/></radialGradient><linearGradient id="w" x1="392" x2="464" y1="159.39" y2="159.39" gradientUnits="userSpaceOnUse"><stop offset="0"/><stop stop-opacity="0" offset=".11111"/><stop stop-opacity=".4" offset=".65972"/><stop stop-opacity=".4" offset=".8125"/><stop offset="1"/></linearGradient><linearGradient id="v" x1="412" x2="412" y1="76.476" y2="315.1" gradientUnits="userSpaceOnUse" xlink:href="#a"/><radialGradient id="l" cx="540.69" cy="246.31" r="21.688" gradientTransform="matrix(1 0 0 .1585 0 207.27)" gradientUnits="userSpaceOnUse"><stop stop-color="#fff" offset="0"/><stop stop-color="#fff" stop-opacity="0" offset="1"/></radialGradient><linearGradient id="u" x1="-151.13" x2="-129.8" y1="54.575" y2="82.335" gradientUnits="userSpaceOnUse"><stop stop-color="#fff" offset="0"/><stop stop-color="#fff" stop-opacity="0" offset="1"/></linearGradient><radialGradient id="k" cx="-125.83" cy="32.221" r="32.25" gradientTransform="matrix(1 0 0 .3876 0 39.5)" gradientUnits="userSpaceOnUse"><stop stop-color="#fff" offset="0"/><stop stop-color="#fff" stop-opacity="0" offset="1"/></radialGradient><radialGradient id="j" cx="-136.14" cy="80.59" r="31.75" gradientTransform="matrix(1.8347 0 0 .69344 111.89 18.726)" gradientUnits="userSpaceOnUse"><stop stop-color="#fff" offset="0"/><stop stop-opacity=".2" offset="1"/></radialGradient><linearGradient id="t" x1="392" x2="464" y1="159.39" y2="159.39" gradientTransform="translate(120)" gradientUnits="userSpaceOnUse"><stop offset="0"/><stop stop-opacity="0" offset=".11111"/><stop stop-opacity=".4" offset=".65972"/><stop stop-opacity=".4" offset=".8125"/><stop offset="1"/></linearGradient><linearGradient id="s" x1="415.5" x2="415.5" y1="77.954" y2="263.74" gradientTransform="translate(120)" gradientUnits="userSpaceOnUse" xlink:href="#a"/><radialGradient id="i" cx="-150.92" cy="92.946" r="32.689" gradientTransform="matrix(1.7218 0 0 .2359 108.66 52.824)" gradientUnits="userSpaceOnUse"><stop stop-color="#fff" offset="0"/><stop stop-color="#fff" stop-opacity="0" offset="1"/></radialGradient><linearGradient id="r" x1="576.5" x2="500" y1="235.5" y2="-19.5" gradientUnits="userSpaceOnUse"><stop offset="0"/><stop stop-opacity="0" offset="1"/></linearGradient><radialGradient id="h" cx="-137.22" cy="54.818" r="31.75" gradientTransform="matrix(2.3239 2.5867 -1.1912 1.528 242.75 327.45)" gradientUnits="userSpaceOnUse"><stop stop-color="#fff" offset="0"/><stop stop-color="#646662" offset=".48955"/><stop stop-color="#888a85" offset="1"/></radialGradient><radialGradient id="g" cx="-135.75" cy="64.5" r="31.75" gradientTransform="matrix(2.4024 2.9056 -.16835 .20361 201.24 445.81)" gradientUnits="userSpaceOnUse"><stop stop-color="#fff" offset="0"/><stop stop-color="#fff" stop-opacity="0" offset="1"/></radialGradient><radialGradient id="f" cx="145.72" cy="45.234" r="22.5" gradientTransform="matrix(2.3578 0 0 .32947 -200.95 41.472)" gradientUnits="userSpaceOnUse"><stop offset="0"/><stop stop-opacity="0" offset="1"/></radialGradient><linearGradient id="q" x1="136" x2="160" y1="57.5" y2="57.5" gradientUnits="userSpaceOnUse"><stop stop-color="#d3d7cf" offset="0"/><stop stop-color="#888a85" offset=".23438"/><stop stop-color="#fff" offset=".65625"/><stop stop-color="#888a85" offset=".90625"/><stop stop-color="#babdb6" offset="1"/></linearGradient><linearGradient id="p" x1="-118.82" x2="-132.71" y1="79.8" y2="62.278" gradientUnits="userSpaceOnUse"><stop stop-color="#555753" offset="0"/><stop stop-color="#fff" offset="1"/></linearGradient><linearGradient id="o" x1="135.5" x2="135.5" y1="54.25" y2="62.25" gradientUnits="userSpaceOnUse"><stop offset="0"/><stop stop-opacity="0" offset="1"/></linearGradient><radialGradient id="e" cx="150.38" cy="70.5" r="12.5" gradientTransform="matrix(1 0 0 .44 400 25.48)" gradientUnits="userSpaceOnUse"><stop stop-color="#fff" offset="0"/><stop stop-color="#fff" offset=".57"/><stop stop-color="#fff" stop-opacity="0" offset="1"/></radialGradient><radialGradient id="d" cx="152.06" cy="50.688" r="1.5625" gradientUnits="userSpaceOnUse"><stop stop-color="#fff" offset="0"/><stop stop-color="#fff" stop-opacity="0" offset="1"/></radialGradient><linearGradient id="n" x1="550.1" x2="550.1" y1="221.32" y2="205.47" gradientUnits="userSpaceOnUse"><stop stop-color="#fff" offset="0"/><stop stop-color="#fff" stop-opacity="0" offset="1"/></linearGradient><radialGradient id="c" cx="159.5" cy="73.382" r="29" gradientTransform="matrix(1.5102 6.1079e-7 -1.4138e-7 .34956 228.62 36.473)" gradientUnits="userSpaceOnUse"><stop stop-color="#fff" offset="0"/><stop stop-color="#fff" stop-opacity="0" offset="1"/></radialGradient></defs><g transform="translate(-420,-950)"><g><g transform="translate(0,920)"><ellipse transform="matrix(1.1143 0 0 .95022 699.26 192.36)" cx="-135.75" cy="64.5" rx="31.75" ry="12" enable-background="new" fill-opacity=".089286" filter="url(#ac)" opacity=".5" stroke="#000" stroke-linecap="round" stroke-linejoin="round" stroke-width="1.9437"/><ellipse transform="matrix(1.7323 0 0 1.5278 783.16 155.46)" cx="-135.75" cy="64.5" rx="31.75" ry="12" enable-background="new" fill="url(#m)" opacity=".4"/><path d="m548 47.945c-9.5802 0-18.26 1.3327-24.205 3.3145-2.9726 0.99086-5.2496 2.1666-6.5234 3.1699-1.2738 1.0034-1.3262 1.5156-1.3262 1.5703v196c0 0.0548 0.0523 0.56696 1.3262 1.5703 1.2738 1.0034 3.5508 2.1791 6.5234 3.1699 5.9452 1.9817 14.625 3.3145 24.205 3.3145s18.26-1.3327 24.205-3.3145c2.9726-0.99086 5.2496-2.1666 6.5234-3.1699 1.2738-1.0034 1.3262-1.5156 1.3262-1.5703v-196c0-0.05475-0.0523-0.56696-1.3262-1.5703-1.2738-1.0034-3.5508-2.1791-6.5234-3.1699-5.9452-1.9817-14.625-3.3145-24.205-3.3145z" enable-background="new" fill="none" filter="url(#z)" stroke="#fff" stroke-linecap="round" stroke-linejoin="round"/><g transform="matrix(-.88889 0 0 -.96364 928.44 302.4)" enable-background="new" opacity=".3"><path d="m392 56c0.10612-1.2907 0.19675-1.2788 0 0zm0 0v196c0 6.624 16.128 12 36 12 19.872 0 36-5.376 36-12v-196c0-7.0011-16.128-11.868-36-11.868-19.872 2e-6 -36 4.4825-36 11.868z" enable-background="new" fill="url(#w)" opacity=".5"/></g><path transform="matrix(-.88889 0 0 -.96364 926.44 302.4)" d="m404 64.906v196c4.4718 1.3375 9.9394 2.3213 16 2.7812v-196c-6.0606-0.45996-11.528-1.4437-16-2.7812z" enable-background="new" fill="url(#v)" filter="url(#b)"/><ellipse transform="matrix(1.6597 0 0 3.1636 -349 -530.12)" cx="540.69" cy="246.31" rx="21.688" ry="3.4375" fill="url(#l)"/><g transform="translate(90)"><ellipse transform="matrix(-1.0079 0 0 -.96364 321.18 122.59)" cx="-135.75" cy="64.5" rx="31.75" ry="12" enable-background="new" fill="url(#u)" filter="url(#ab)" stroke="url(#k)" stroke-linecap="round" stroke-linejoin="round"/><g transform="translate(-60)"><g transform="translate(-30)"><ellipse transform="matrix(.88189 0 0 .6875 667.72 11.906)" cx="-135.75" cy="64.5" rx="31.75" ry="12" enable-background="new" fill="#babdb6"/><g clip-path="url(#ak)"><ellipse transform="matrix(1.1339 0 0 1 701.92 -8.5)" cx="-135.75" cy="64.5" rx="31.75" ry="12" enable-background="new" fill="url(#j)" opacity=".5"/><path d="m512.19 54.781c-0.12298 0.40324-0.1875 0.80475-0.1875 1.2188 0-0.414 0.0645-0.81551 0.1875-1.2188zm-0.1875 1.2188v196c0 6.624 16.128 12 36 12 19.872 0 36-5.376 36-12v-196c1e-5 6.624-16.128 12-36 12-19.872 2e-6 -36-5.376-36-12z" enable-background="new" fill="url(#t)" opacity=".4"/><path d="m524 64.906v196c4.4718 1.3375 9.9394 2.3213 16 2.7812v-196c-6.0606-0.45996-11.528-1.4437-16-2.7812z" enable-background="new" fill="url(#s)" filter="url(#b)"/><ellipse transform="matrix(1.1339 0 0 1 701.92 -8.5)" cx="-135.75" cy="64.5" rx="31.75" ry="12" enable-background="new" fill="none" filter="url(#ad)" stroke="url(#i)" stroke-linecap="round" stroke-linejoin="round" stroke-width="1.8782"/><path d="m548 44c-19.872 0-36 5.376-36 12v196c0 6.624 16.128 12 36 12 19.872 0 36-5.376 36-12v-196c0-6.624-16.128-12-36-12z" enable-background="new" fill="none" filter="url(#ae)" stroke="url(#r)" stroke-linecap="round" stroke-linejoin="round"/></g><g transform="matrix(1 0 0 .94286 400 -4.9143)" enable-background="new"><ellipse transform="matrix(.88189 0 0 .72917 267.72 15.719)" cx="-135.75" cy="64.5" rx="31.75" ry="12" enable-background="new" fill="url(#h)"/><ellipse transform="matrix(.88189 0 0 .72917 267.72 15.719)" cx="-135.75" cy="64.5" rx="31.75" ry="12" enable-background="new" fill="url(#g)"/><path transform="matrix(1.2444 0 0 1.1667 -36.178 -10.167)" d="m148 55c-12.42 0-22.5 3.36-22.5 7.5 0 0.16935 0.0293 0.33344 0.0625 0.5 0.77851-3.9053 10.526-7 22.438-7 11.912-1e-6 21.659 3.0947 22.438 7 0.0332-0.16656 0.0625-0.33065 0.0625-0.5 0-4.14-10.08-7.5-22.5-7.5z" enable-background="new" fill="url(#f)" opacity=".55102"/></g><g transform="translate(400,-8)" clip-path="url(#al)" enable-background="new"><path d="m148 50c-6.624 0-12 1.792-12 4v7c0 2.208 5.376 4 12 4 6.624 0 12-1.792 12-4v-7c0-2.208-5.376-4-12-4z" enable-background="new" fill="url(#q)"/><ellipse transform="matrix(.47244 0 0 .41667 212.13 26.125)" cx="-135.75" cy="64.5" rx="31.75" ry="12" enable-background="new" fill="url(#p)" filter="url(#af)"/><path d="m148 50c-6.624 0-12 1.792-12 4v7c0 2.208 5.376 4 12 4 6.624 0 12-1.792 12-4v-7c0-2.208-5.376-4-12-4z" enable-background="new" fill="none" filter="url(#aj)" opacity=".38776" stroke="url(#o)" stroke-linecap="round" stroke-linejoin="round" stroke-width="2"/></g><path d="m536 53c0 2.208 5.376 4 12 4 6.624 0 12-1.792 12-4" enable-background="new" fill="none" filter="url(#ai)" stroke="url(#e)" stroke-linecap="round" stroke-linejoin="round"/><circle transform="translate(399.62 .125)" cx="152.06" cy="50.688" r="1.5625" enable-background="new" fill="#fff"/><circle transform="matrix(3.9382 0 0 2.0617 -47.17 -47.69)" cx="152.06" cy="50.688" r="1.5625" enable-background="new" fill="url(#d)"/><ellipse transform="matrix(.87245 .14286 0 .45946 66.233 -40.903)" cx="532.5" cy="67.375" rx="12.25" ry="4.625" fill="#fff" filter="url(#aa)"/><g><g fill="#fff" filter="url(#y)"><path d="m555.75 150.59v6.375c-2e-5 1.6016-0.4268 2.7995-1.25 3.5938-0.82326 0.80077-1.9802 1.1875-3.5 1.1875-1.2504-1e-5 -2.2807-0.28472-3.0938-0.84375 0.13261 0.19161 0.24354 0.37106 0.40625 0.53125 0.8795 0.87238 2.1255 1.3125 3.6875 1.3125 1.5198-1e-5 2.6768-0.38673 3.5-1.1875 0.8232-0.79428 1.25-1.9922 1.25-3.5938v-7.375zm-14.5 3.4688v1h4.75v-1zm7.9062 0v1.0625c0 0.85286 0.15212 1.4674 0.46875 1.8125 0.19794 0.21101 0.42379 0.32428 0.6875 0.40625-0.10647-0.32381-0.15626-0.72418-0.15625-1.2188v-1.0625h2.4375v-1zm5.3438 12.094c0.9927 1.2311 1.5 2.7979 1.5 4.75-2e-5 2.3828-0.67641 4.2422-2.0625 5.5312-1.3791 1.289-3.3218 1.9062-5.8125 1.9062-1.8083-1e-5 -3.3078-0.27736-4.4688-0.84375-0.46435-0.22531-0.8677-0.50497-1.25-0.8125 0.59631 0.76263 1.3356 1.3688 2.25 1.8125 1.161 0.56639 2.6605 0.84373 4.4688 0.84375 2.4908-2e-5 4.4334-0.6172 5.8125-1.9062 1.3861-1.2891 2.0625-3.1484 2.0625-5.5312-2e-5 -2.3242-0.71779-4.1354-2.125-5.4375-0.12476-0.11544-0.24144-0.20729-0.375-0.3125zm-6.5312 1.7812c-1.562 0-2.6925 0.27864-3.375 0.8125-0.68249 0.54036-1 1.263-1 2.1875 1e-5 0.95051 0.33157 1.6979 1 2.2188 0.0953 0.0743 0.22679 0.12381 0.34375 0.1875-0.21414-0.40035-0.34375-0.86825-0.34375-1.4062 0-0.92449 0.31751-1.6471 1-2.1875 0.68249-0.53386 1.813-0.81251 3.375-0.8125 1.3913 0 2.3988 0.23514 3.0938 0.65625-0.16907-0.31628-0.4101-0.59937-0.71875-0.84375-0.68251-0.54037-1.7989-0.81251-3.375-0.8125zm8.7812 12-1 0.21875v2.9688l-8.6562 1.5312 2.75 0.6875 6.9062-1.2188zm-15.5 6.75v0.75l7.3125 1.875 1.4375-0.375zm14.5 0.90625v3.4375l-8.6562 2.2188 2.9062 0.5 6.75-1.7188v-4.1875zm0 8v3.3438l-14.5-2.9375v0.8125l15.5 3.125v-4.1562zm0 5.8125v10.844h-2.3125v1h3.3125v-11.844zm-11.969 3.4375v7.625h-2.5312v1h3.5312v-7.625h2.0312v-1zm6.1875 0v6.875h-2.1562v1h3.1562v-6.875h1.4688v-1zm5.7812 11.062v6.375c-2e-5 1.3672-0.15297 2.4336-0.40625 3.1562-0.25332 0.72265-0.71673 1.3073-1.4062 1.75-0.68252 0.4427-1.515 0.65624-2.5 0.65625-0.8584-1e-5 -1.5926-0.16147-2.2188-0.5-0.13411-0.0733-0.25178-0.16476-0.375-0.25 0.36966 0.51227 0.81626 0.94448 1.375 1.25 0.6262 0.33853 1.3604 0.49998 2.2188 0.5 0.98504-1e-5 1.8175-0.21356 2.5-0.65625 0.68952-0.44272 1.1529-1.0274 1.4062-1.75 0.25328-0.72267 0.40622-1.7891 0.40625-3.1562v-7.375zm-14.5 3.4688v1h5.1875c0.0745-0.19892 0.0937-0.39973 0.0937-0.625v-0.375h-5.2812zm8.2188 0v1.8438c-4e-5 0.20182 0.078 0.60806 0.21875 1.1875 0.0633 0.29296 0.20841 0.53645 0.46875 0.71875 0.14685 0.1065 0.32852 0.14108 0.5 0.1875-0.12328-0.51968-0.18749-0.90487-0.1875-1.0938v-1.8438h2.1562v-1zm-2.375 5c-0.18998 0.52733-0.37253 0.91535-0.5625 1.1562-0.12663 0.16275-0.39738 0.41275-0.8125 0.71875-0.41515 0.31249-0.7436 0.52082-0.96875 0.625l-3.5 1.6562v1.4688l4.5-2.125c0.22515-0.10418 0.55359-0.31251 0.96875-0.625 0.41512-0.306 0.68586-0.556 0.8125-0.71875 0.095-0.12045 0.18626-0.27669 0.28125-0.46875-0.0308-0.0437-0.0643-0.0798-0.0937-0.125-0.24626-0.37761-0.46318-0.90496-0.625-1.5625zm0.46875 19.375v4.7812h-2.3125v1h3.3125v-5.7812z" enable-background="new" opacity=".5"/><path d="m549.69 81.406v2.75h1v-2.75zm4.0625 3.75v2.125h-4.0625v3.7812h-2.4062v1h3.4062v-3.7812h4.0625v-3.125zm-10.5 2.125v1h3.0312v-1z" enable-background="new" opacity=".5"/></g><g fill="#000000" font-family="'Arial Black'" font-weight="bold"><text transform="matrix(0 .96192 -1.0396 0 0 0)" x="154.02531" y="-519.69244" enable-background="new" opacity=".1" style="line-height:0%" xml:space="preserve"><tspan x="154.02531" y="-519.69244" font-size="20.792px" style="line-height:1.25">POWER  -</tspan></text><text transform="matrix(0 .96192 -1.0396 0 0 0)" x="82.293869" y="-519.69244" enable-background="new" opacity=".1" style="line-height:0%" xml:space="preserve"><tspan x="82.293869" y="-519.69244" font-size="20.792px" style="line-height:1.25">+</tspan></text></g></g><g enable-background="new"><g transform="translate(400)" enable-background="new" fill="#000000" font-family="'Trebuchet MS'" opacity=".1"><text transform="matrix(0 1.0049 -.99515 -.14491 0 0)" x="176.22548" y="-132.69225" style="line-height:0%" xml:space="preserve"><tspan x="176.22548" y="-132.69225" fill="#000000" font-size="7.367px" style="line-height:1.25">tango cell</tspan></text><text transform="matrix(0 1.0049 -.99515 .17629 0 0)" x="176.22801" y="-160.85133" enable-background="new" style="line-height:0%" xml:space="preserve"><tspan x="176.22801" y="-160.85133" fill="#000000" font-size="7.367px" style="line-height:1.25">clean</tspan></text></g><path d="m562.22 149.31c-0.54187 0.11983-0.98651 0.37204-1.3125 0.75-0.11898 0.13796-0.20186 0.28969-0.28125 0.4375-0.0299 0.11926-0.0625 0.24168-0.0625 0.375-2e-5 0.30845 0.13874 0.60358 0.375 0.875l-0.5 0.3125c0.0632 0.26692 0.1744 0.49647 0.3125 0.6875l0.5625-0.375c-0.23626-0.27142-0.34373-0.56654-0.34375-0.875 0-0.39762 0.10988-0.70321 0.34375-0.96875 0.23626-0.26597 0.58257-0.45176 1.0312-0.53125 0.43743-0.0775 0.77566-6e-3 1.0312 0.15625-0.0381-0.28632-0.1559-0.51035-0.375-0.65625-0.19329-0.13022-0.44815-0.19549-0.75-0.1875-0.01 2.6e-4 -0.0212-4.3e-4 -0.0313 0zm1.6562 0.3125c0.0538 0.19552 0.0937 0.40939 0.0937 0.65625 1e-5 0.20001-0.0415 0.4077-0.125 0.65625-0.0323 0.0961-0.0622 0.14092-0.0937 0.21875-0.0144 0.11272-0.0223 0.2227-0.0625 0.34375-0.062 0.18931-0.11829 0.3241-0.1875 0.40625l0.46875 0.25c0.0883-0.1265 0.16647-0.31396 0.25-0.5625 0.0835-0.24855 0.12499-0.45625 0.125-0.65625 0-0.58287-0.14624-1.0178-0.46875-1.3125zm1.9688 3-0.375 0.0625-3.9375 0.71875c-0.36615 0.0649-0.65153 0.20457-0.84375 0.4375-0.0101 0.0123-0.0216 0.0185-0.0313 0.0313-4e-3 9e-3 3e-3 0.0223 0 0.0313-0.0323 0.0832-0.0625 0.18485-0.0625 0.28125h-0.0937c-0.0846 0.21086-0.12499 0.45549-0.125 0.75l0.625-0.0937c0-0.19279 0.0393-0.3588 0.15625-0.5 0.11932-0.13922 0.29477-0.2449 0.5-0.28125l4.1875-0.75v-0.6875zm-3.4375 2.5312v2.125c0.15228-0.027 0.28183-0.0827 0.40625-0.15625v-1.3438c0.22391-0.0182 0.39967 0.0506 0.5625 0.15625-0.023-0.24088-0.0848-0.44811-0.25-0.59375-0.18616-0.16463-0.44192-0.21003-0.71875-0.1875zm-0.46875 0.0625c-0.0208 7e-3 -0.0421 0.0238-0.0625 0.0313-0.40541 0.14883-0.72971 0.38712-1 0.71875-0.11443 0.1392-0.20535 0.28966-0.28125 0.4375-0.0163 0.0903-0.0313 0.1845-0.0313 0.28125-2e-5 0.3928 0.11703 0.68374 0.34375 0.90625l-0.4375 0.34375c0.021 0.0809 0.0341 0.17727 0.0625 0.25 0.0764 0.20576 0.17625 0.35006 0.28125 0.4375l0.46875-0.375c-0.22672-0.22251-0.31248-0.54471-0.3125-0.9375 0-0.3446 0.10246-0.64976 0.3125-0.90625 0.16453-0.19858 0.39594-0.31339 0.65625-0.40625v-0.78125zm1.9688 0.28125c0.0362 0.13483 0.0625 0.27926 0.0625 0.4375 1e-5 0.35246-0.0911 0.66143-0.21875 0.9375-0.0235 0.26149-0.0832 0.49959-0.25 0.6875-0.18376 0.20606-0.41304 0.32637-0.6875 0.375v-0.0937c-0.14413 0.0671-0.29752 0.12592-0.46875 0.15625-0.0116 2e-3 -0.0199-2e-3 -0.0313 0v0.65625c0.12648 0.0137 0.2559-5e-3 0.40625-0.0313 0.48923-0.0867 0.89157-0.3002 1.1875-0.65625 0.30785-0.36781 0.43749-0.82315 0.4375-1.375 0-0.44322-0.14142-0.8129-0.4375-1.0938zm0.0625 3.625-0.0625 0.0313c0.0345 0.16129 0.0625 0.31612 0.0625 0.46875 1e-5 0.45423-0.0856 0.81399-0.25 1.0938-0.0873 0.40367-0.38847 0.65827-0.90625 0.75 0.0106-0.0332-9e-3 -0.0608 0-0.0937-0.12786 0.0423-0.25334 0.0979-0.40625 0.125h-0.0625c-3e-3 0.0142 3e-3 0.0165 0 0.0313l-0.9375 0.1875c-0.0132-8e-3 -0.0185-0.0225-0.0313-0.0313l-0.34375 0.0625c-0.0716 0.0127-0.12505 0.0437-0.1875 0.0625 0.0243 0.0186 0.0364 0.0461 0.0625 0.0625-0.18137 0.0924-0.32747 0.19244-0.40625 0.34375-0.0788 0.15372-0.125 0.37671-0.125 0.65625l0.34375-0.0625c0.11216-0.2223 0.351-0.34664 0.6875-0.40625l1.375-0.25c0.55128-0.0977 0.93452-0.2935 1.1875-0.59375 0.25296-0.29784 0.37499-0.71977 0.375-1.2812 0-0.20965-0.0174-0.43844-0.0937-0.65625-0.074-0.21583-0.17623-0.38848-0.28125-0.5zm-2.5938 0.3125c-0.24935 0.0752-0.47641 0.19282-0.65625 0.40625-0.0769 0.093-0.13492 0.18403-0.1875 0.28125-2e-3 0.033 0 0.0585 0 0.0937 2e-5 0.29659 0.13411 0.55192 0.375 0.75-3e-3 -0.031 0-0.0617 0-0.0937 0-0.47473 0.22648-0.7419 0.625-0.8125 0.17614-0.0312 0.32744 0.0328 0.46875 0.125-0.0392-0.22636-0.12044-0.42457-0.25-0.5625-0.1122-0.11943-0.23725-0.16094-0.375-0.1875zm1.0625 0.25c0.0512 0.18799 0.0937 0.39386 0.0937 0.625-3e-5 0.14459-0.0317 0.30586-0.0937 0.5 0.17421-0.0309 0.31143-0.0904 0.4375-0.15625-0.0416-0.39022-0.15603-0.69645-0.375-0.9375-0.0157-0.0173-0.0465-0.0151-0.0625-0.0313zm-2 1.4688c8e-3 0.0353 0.0208 0.0604 0.0313 0.0937 0.0139-8e-3 0.0165-0.0238 0.0313-0.0313-0.0261-0.0164-0.0385-0.0439-0.0625-0.0625zm3.8438 1.8125-0.84375 0.15625c0.22877 0.10836 0.39041 0.28473 0.46875 0.53125l0.375-0.21875zm-1.3438 0.25-2.5 0.4375v0.6875l2.875-0.53125c0.034 0.0169 0.0624 0.0392 0.0937 0.0625-0.0181-0.12788-0.0804-0.24893-0.15625-0.375-0.0841-0.13974-0.19327-0.21593-0.3125-0.28125zm1 0.625c0.0124 0.0813 0.0313 0.15639 0.0313 0.25 0 0.31809-0.0753 0.58496-0.21875 0.8125-3e-3 0.0111-0.0279 0.0204-0.0313 0.0313-0.0409 0.13286-0.0918 0.25538-0.1875 0.34375-0.16228 0.15406-0.43563 0.27145-0.84375 0.34375l-0.25 0.0313-2 0.375v0.6875l2.375-0.4375c1.0214-0.18095 1.5312-0.683 1.5312-1.5312 0-0.43399-0.13738-0.72712-0.40625-0.90625zm-30.906 34.062c-0.1146 0.0104-0.21323 0.0494-0.28125 0.0937-0.13601 0.091-0.1875 0.25661-0.1875 0.5 1e-5 0.17591 0.0367 0.36168 0.125 0.5625l-0.3125 0.0313c0.0206 0.21943 0.0446 0.42255 0.0937 0.625h0.21875c0.1159-0.0316 0.2392-0.044 0.375-0.0313-0.079-0.18936-0.12501-0.36414-0.125-0.53125 0-0.24339 0.0515-0.40897 0.1875-0.5 0.13603-0.0886 0.36531-0.10941 0.6875-0.0625l1.5312 0.1875v-0.5625l-1.9062-0.28125c-0.16108-0.0235-0.29165-0.0417-0.40625-0.0313zm2.8438 0.375v1.0625l-0.15625-0.0313v0.59375l0.53125 0.0937v-1.0625l1.0625 0.15625-0.25-0.71875-0.15625-0.0313 0.0313 0.0937-1.0625-0.15625zm-2.875 2.0938c-0.11117 0.0432-0.22102 0.10844-0.3125 0.1875-0.0662 0.0587-0.1079 0.12177-0.15625 0.1875-0.0147 0.0709-0.0313 0.16099-0.0313 0.25-2e-5 0.31785 0.16186 0.61422 0.4375 0.90625-0.0184-0.0854-0.0313-0.16325-0.0313-0.25 0-0.35605 0.0883-0.56863 0.3125-0.625 0.0747-0.0188 0.18161-0.0145 0.28125 0 0.15399 0.0224 0.31023 0.0835 0.4375 0.1875-0.0404-0.14475-0.0992-0.28375-0.1875-0.40625-0.17659-0.24501-0.38397-0.4024-0.625-0.4375-0.0443-6e-3 -0.0813 1e-3 -0.125 0zm1.3438 0.46875c0.0987 0.26733 0.15625 0.55362 0.15625 0.875 0 0.14459-0.0317 0.29464-0.0937 0.46875 0.17063 0.0248 0.31305 0.0226 0.4375 0-0.024-0.44939-0.10795-0.85186-0.34375-1.1875-0.0444-0.0632-0.10783-0.10196-0.15625-0.15625zm1.5938 0.0625-0.0625 0.0313c0.0588 0.20047 0.0937 0.38188 0.0937 0.5625-2e-5 0.56148-0.15329 0.9713-0.40625 1.1875-0.0282 0.0244-0.0622 0.0423-0.0937 0.0625-0.0391 0.0251-0.0806 0.0436-0.125 0.0625-0.24035 0.10229-0.55529 0.1227-0.96875 0.0625l-1.375-0.18755c-0.10816-0.0157-0.19423-6e-3 -0.28125 0-0.10683 0.0461-0.19606 0.10127-0.25 0.1875-0.0788 0.1283-0.0937 0.31421-0.0937 0.59375l0.3125 0.0625c0.11216-0.18609 0.35103-0.26775 0.6875-0.21875l1.375 0.21875c0.55128 0.0803 0.9658-1.6e-4 1.2188-0.21875 0.25296-0.2162 0.37502-0.59477 0.375-1.1562 0-0.20965-0.0487-0.44503-0.125-0.6875-0.074-0.2397-0.17626-0.41708-0.28125-0.5625zm-3.5 1c0.0103 0.0326 0.0193 0.0623 0.0313 0.0937 0.0104-2e-3 0.0206 2e-3 0.0313 0-0.0269-0.0256-0.0375-0.0666-0.0625-0.0937zm0 2.4688v0.59375l2.8438 0.40625c0.0227 0.0186 0.041 0.0422 0.0625 0.0625-0.0196-0.0901-0.0472-0.18892-0.0937-0.28125-0.0931-0.18465-0.20772-0.32612-0.34375-0.4375zm3.1562 0.375-0.21875 0.0625c0.21616 0.16134 0.36861 0.3575 0.46875 0.59375l0.40625-0.0937v-0.46875l-0.65625-0.0937zm0.3125 0.8125c0.0379 0.13318 0.0625 0.28263 0.0625 0.4375-1e-5 0.45348-0.1458 0.74251-0.4375 0.90625-0.25393 0.14254-0.6184 0.19422-1.0938 0.125l-2-0.28125v0.59375l2.375 0.34375c1.0214 0.14873 1.5313-0.21426 1.5312-1.0625 0-0.44515-0.15453-0.79265-0.4375-1.0625zm-4.5 2.5c-0.15969 0.27731-0.25 0.5458-0.25 0.8125 2e-5 0.31086 0.0489 0.55604 0.15625 0.75 0.0742 0.13857 0.15503 0.22469 0.25 0.28125-0.0218-0.11696-0.0313-0.23145-0.0313-0.375 0-0.33737 0.14135-0.70105 0.40625-1.0625l-0.53125-0.40625zm1.375 0.28125c-0.0638 0.0202-0.10946 0.0789-0.15625 0.125-5e-3 0.0406 0 0.0732 0 0.125-1e-5 0.10362 0.0267 0.27549 0.0625 0.5 0.0382 0.22485 0.0625 0.36272 0.0625 0.46875 0 0.38075-0.0999 0.68934-0.28125 0.875-0.0673 0.12391-0.16771 0.19143-0.3125 0.1875-0.0179 4e-3 -0.0439-3e-3 -0.0625 0-0.11157 0.0179-0.23795 0.0199-0.375 0-0.26492-0.0386-0.47119-0.17055-0.65625-0.375 0.0486 0.15478 0.10606 0.30636 0.1875 0.4375 0.21717 0.35212 0.49056 0.54231 0.84375 0.59375 0.31979 0.0466 0.57102-0.0303 0.75-0.21875 0.18137-0.18566 0.28122-0.463 0.28125-0.84375 0-0.10603-0.0243-0.27515-0.0625-0.5-0.0358-0.22451-0.0312-0.39638-0.0313-0.5 0-0.10355 0.0171-0.16774 0.0313-0.21875v-0.0313l-0.0313-0.25c-7e-3 -0.0685-0.0172-0.16139-0.0625-0.28125-0.0155-0.043-0.0407-0.0661-0.0625-0.0937-0.0395 3e-3 -0.0904-0.0109-0.125 0zm0.40625 0.0625c6e-3 0.0227 0.026 0.0395 0.0313 0.0625 7e-3 -0.0145 0.0237-0.0172 0.0313-0.0313-0.0191-0.0141-0.0427-0.0207-0.0625-0.0313zm1.1875 0.125c-0.31325 0.0711-0.55257 0.25283-0.71875 0.5625-8e-3 0.014-0.024 0.0168-0.0313 0.0313-3e-3 0.0308 0 0.061 0 0.0937-2e-5 0.24339 0.0806 0.43172 0.25 0.59375 0.0329 0.031 0.0875 0.0354 0.125 0.0625 0-0.24821 0.0758-0.44087 0.25-0.5625 0.0883-0.0594 0.20153-0.10501 0.3125-0.125 0.11097-0.02 0.24135-0.0195 0.375 0 0.18633 0.0271 0.33002 0.10695 0.46875 0.21875-0.0133-0.213-0.0977-0.40186-0.25-0.5625-0.16707-0.17373-0.3551-0.27775-0.59375-0.3125-0.0668-0.01-0.12433 7e-5 -0.1875 0zm1.5312 0.5c0.0413 0.1451 0.0625 0.30783 0.0625 0.46875-2e-5 0.36806-0.10397 0.65117-0.25 0.84375-5e-3 7e-3 5e-3 0.0248 0 0.0313-4e-3 9e-3 4e-3 0.0226 0 0.0313l0.40625 0.375-0.40625 0.375-0.3125-0.46875c-0.0487 0.0263-0.10285 0.0473-0.15625 0.0625-0.20913 0.0901-0.45545 0.13663-0.75 0.0937-0.36282-0.0528-0.65326-0.21821-0.90625-0.46875 0.0818 0.21764 0.18405 0.42243 0.34375 0.59375 0.26251 0.28161 0.58213 0.4437 0.96875 0.5 0.36513 0.0532 0.64829 0.0179 0.875-0.125l0.3125 0.46875 0.40625-0.40625-0.40625-0.375c0.15512-0.19189 0.25002-0.49425 0.25-0.875 0-0.41449-0.13894-0.77288-0.40625-1.0938-0.01-0.0115-0.0215-0.0201-0.0313-0.0313zm-2.2812 3.0625c-0.10365 2e-3 -0.19108 0.0229-0.28125 0.0313-0.0489 5e-3 -0.0805 0.023-0.125 0.0313-0.11086 0.0432-0.21597 0.0877-0.3125 0.15625-0.0901 0.064-0.18037 0.13561-0.25 0.21875-0.022 0.0414-0.048 0.0771-0.0625 0.125-0.0282 0.093-0.0625 0.19506-0.0625 0.3125 0 0.3205 0.11726 0.59423 0.375 0.8125 7e-3 6e-3 0.0244-6e-3 0.0313 0-0.0133-0.0645-0.0313-0.11859-0.0313-0.1875 0-0.5151 0.2715-0.79375 0.8125-0.84375 0.18033-0.0167 0.38456-4e-3 0.625 0.0313 0.42647 0.0621 0.77974 0.19803 1.0312 0.40625-0.0411-0.23343-0.14447-0.4479-0.34375-0.625-0.25297-0.22239-0.61862-0.37287-1.0625-0.4375-0.12022-0.0175-0.2401-0.0335-0.34375-0.0313zm2.2188 0.71875c0.0731 0.20619 0.125 0.42641 0.125 0.65625-1e-5 0.33532-0.0889 0.59434-0.21875 0.8125-5e-3 0.0254-0.0241 0.0387-0.0313 0.0625-0.0775 0.25704-0.27166 0.39614-0.5625 0.46875-0.0585 0.0235-0.12361 0.0456-0.1875 0.0625-9e-3 8.1e-4 -0.0222-6.8e-4 -0.0313 0-0.27589 0.0679-0.60243 0.0846-0.96875 0.0313-0.6181-0.09-1.1108-0.29085-1.4688-0.65625 0.0963 0.23289 0.22178 0.43563 0.40625 0.625 0.35797 0.3654 0.81938 0.5975 1.4375 0.6875 0.62048 0.0904 1.1203 5e-3 1.4688-0.25 0.35081-0.25496 0.53127-0.6645 0.53125-1.2188 0-0.49454-0.17489-0.91985-0.5-1.2812zm-2.5 5.5312c-0.0532 0.01-0.10817 0.0155-0.15625 0.0313-0.10029 0.0462-0.19533 0.0888-0.28125 0.15625-0.0114 9e-3 -0.0201 0.0219-0.0313 0.0313-0.051 0.046-0.0869 0.0997-0.125 0.15625-0.11913 0.17678-0.1875 0.40128-0.1875 0.6875 1e-5 0.30845 0.10749 0.62107 0.34375 0.96875l-0.46875 0.15625c0.0643 0.24499 0.15793 0.47708 0.28125 0.6875l0.5625-0.1875c-0.23626-0.34768-0.34376-0.6603-0.34375-0.96875 0-0.39762 0.10985-0.71619 0.34375-0.90625 0.23626-0.18971 0.5826-0.25283 1.0312-0.1875 0.43369 0.0632 0.77634 0.22772 1.0312 0.46875-0.0484-0.24171-0.15725-0.44061-0.34375-0.625-0.25776-0.25682-0.61146-0.40307-1.0625-0.46875-0.22434-0.0327-0.42156-0.0313-0.59375 0zm2.4688 0.71875c0.0944 0.25348 0.15625 0.53288 0.15625 0.84375-2e-5 0.20001-0.0415 0.40341-0.125 0.625-0.0593 0.15721-0.11896 0.27397-0.1875 0.375-0.062 0.16929-0.11832 0.28394-0.1875 0.34375l0.46875 0.40625c0.0883-0.098 0.19769-0.24716 0.28125-0.46875 0.0835-0.22159 0.12502-0.42499 0.125-0.625 0-0.59652-0.19019-1.0949-0.53125-1.5zm-2.2188 2.9062c-0.0989 8e-4 -0.19545 0.0131-0.28125 0.0313-0.17279 0.0618-0.33362 0.15905-0.46875 0.28125-0.0463 0.0493-0.0911 0.097-0.125 0.15625-0.0279 0.0325-0.069 0.0591-0.0937 0.0937-3e-3 8e-3 3e-3 0.0234 0 0.0313-0.0519 0.13646-0.0625 0.29645-0.0625 0.46875 1e-5 0.3928 0.0858 0.73557 0.3125 1.0312l-0.40625 0.1875c0.0147 0.0518 0.0138 0.10576 0.0313 0.15625 0.0764 0.23041 0.17627 0.40992 0.28125 0.53125l0.5-0.21875c-0.22672-0.29568-0.34376-0.6697-0.34375-1.0625 0-0.3446 0.10249-0.59255 0.3125-0.78125 0.16755-0.14814 0.38935-0.23726 0.65625-0.25v-0.625c-0.11216-0.0163-0.21362-0.032-0.3125-0.0313zm0.8125 0.125v2.1562c0.13723 0.02 0.2604 2e-3 0.375-0.0313v-1.4688c0.21871 0.0528 0.40222 0.1611 0.5625 0.3125-0.0389-0.19276-0.11693-0.37095-0.25-0.53125-0.18613-0.22471-0.41067-0.37068-0.6875-0.4375zm1.4688 0.6875c0.074 0.19981 0.0937 0.41046 0.0937 0.625-1e-5 0.41388-0.10613 0.74881-0.28125 1-0.0453 0.11857-0.11853 0.23191-0.21875 0.3125-0.13782 0.11006-0.31112 0.15232-0.5 0.15625-0.19873 0.0466-0.41163 0.0669-0.65625 0.0313-0.0106-2e-3 -0.0209 2e-3 -0.0313 0v0.53125c0.12648 0.0546 0.25593 0.10311 0.40625 0.125 0.48923 0.0712 0.8916-0.0207 1.1875-0.28125 0.30785-0.26845 0.46877-0.69816 0.46875-1.25 0-0.44765-0.16334-0.87119-0.46875-1.25zm-2.9062 3.4375c-0.0844 0.0146-0.15909 0.0434-0.21875 0.0937-0.11696 0.10346-0.15625 0.24471-0.15625 0.4375l-0.15625-0.0313c-0.0588 0.16845-0.0937 0.35035-0.0937 0.59375l0.625 0.0937c0-0.19279 0.0706-0.33404 0.1875-0.4375 0.11932-0.10071 0.26349-0.12364 0.46875-0.0937l4.2188 0.59375v-0.6875l-0.375-0.0625v0.0937l-4.2188-0.59375c-0.10262-0.0149-0.19682-0.0146-0.28125 0zm0 2.1875c-0.0844 0.0146-0.15909 0.0434-0.21875 0.0937-0.11696 0.10346-0.15625 0.24471-0.15625 0.4375l-0.15625-0.0313c-0.0588 0.16845-0.0937 0.35035-0.0937 0.59375l0.625 0.0937c0-0.19279 0.0706-0.33404 0.1875-0.4375 0.11932-0.10071 0.26349-0.15489 0.46875-0.125l4.2188 0.625v-0.6875l-0.375-0.0625v0.0937l-4.2188-0.59375c-0.10262-0.0149-0.19682-0.0146-0.28125 0z" fill="#fff" filter="url(#x)" opacity=".5"/></g></g><ellipse transform="matrix(1.2321 0 0 .66259 -160.66 112.86)" cx="551" cy="210" rx="28" ry="14" fill="url(#n)" filter="url(#ah)" opacity=".3"/></g><path d="m429.06 55.75c-0.0338 0.16299-0.0647 0.33461-0.0647 0.5 0 4.554 12.992 8.25 29 8.25 16.008 0 29-3.696 29-8.25 0-0.16539-0.0309-0.33701-0.0647-0.5-0.89672 4.3249-13.509 7.75-28.935 7.75-15.427-1e-6 -28.039-3.4251-28.935-7.75z" enable-background="new" fill="url(#c)" filter="url(#ag)"/></g></g></g></g></svg>
