<?xml version="1.0" encoding="UTF-8"?>
<svg enable-background="new" version="1.0" viewBox="0 0 256 256" xmlns="http://www.w3.org/2000/svg" xmlns:xlink="http://www.w3.org/1999/xlink"><defs><filter id="g"><feGaussianBlur stdDeviation="0.3596875"/></filter><filter id="h"><feGaussianBlur stdDeviation="0.58583333"/></filter><filter id="f" x="-.11421" y="-.42455" width="1.2284" height="1.8491"><feGaussianBlur stdDeviation="2.6976563"/></filter><clipPath id="i"><circle transform="matrix(1.2632 0 0 1.2632 -158.74 -139.53)" cx="626" cy="522.12" r="28.5" enable-background="new" fill="#999"/></clipPath><linearGradient id="e"><stop offset="0"/><stop stop-opacity="0" offset="1"/></linearGradient><radialGradient id="a" cx="626" cy="522.12" r="28.5" gradientUnits="userSpaceOnUse" xlink:href="#e"/><radialGradient id="d" cx="624.91" cy="511.29" r="28.5" gradientTransform="matrix(2.5967 4.8095e-7 -3.0609e-7 1.6526 -996.7 -337.02)" gradientUnits="userSpaceOnUse"><stop stop-color="#ef2929" offset="0"/><stop stop-color="#c00" offset="1"/></radialGradient><radialGradient id="c" cx="606.09" cy="493.23" r="29.292" gradientTransform="matrix(1.7842 0 0 1.0999 -476.66 -49.61)" gradientUnits="userSpaceOnUse"><stop stop-color="#a40000" offset="0"/><stop stop-color="#7c0000" offset="1"/></radialGradient><radialGradient id="b" cx="632" cy="465.28" r="28.344" gradientTransform="matrix(-1.2867 -6.2181e-7 2.6045e-7 -.53892 1445.2 736.75)" gradientUnits="userSpaceOnUse"><stop stop-color="#fff" offset="0"/><stop stop-color="#fcaf3e" stop-opacity="0" offset="1"/></radialGradient></defs><g transform="translate(-16,-28)"><g transform="matrix(2.7013 0 0 2.7013 -1565.4 -1260.8)" enable-background="new"><circle transform="matrix(1.4016 0 0 .39281 -245.34 352.35)" cx="626" cy="522.12" r="28.5" enable-background="new" fill="url(#a)" opacity=".5"/><circle transform="matrix(1.0111 0 0 .28337 -.87365 410.44)" cx="626" cy="522.12" r="28.5" enable-background="new" fill="url(#a)"/><g transform="matrix(1.1096 0 0 1.1096 -69.205 -53.041)" clip-path="url(#i)"><circle transform="matrix(1.2632 0 0 1.2632 -158.74 -139.53)" cx="626" cy="522.12" r="28.5" enable-background="new" fill="url(#d)"/><path d="m603.66 537.75c6.0897 9.1826 16.508 15.25 28.344 15.25 11.836 0 22.254-6.0674 28.344-15.25-6.3615 8.0255-16.682 13.25-28.344 13.25-11.662 0-21.982-5.2245-28.344-13.25z" enable-background="new" fill="#fff" filter="url(#f)"/><circle transform="matrix(1.2632 0 0 1.2632 -158.74 -139.53)" cx="626" cy="522.12" r="28.5" enable-background="new" fill="none" filter="url(#h)" stroke="url(#c)" stroke-linecap="round" stroke-linejoin="round" stroke-width=".79237"/><path d="m632 486c-11.836 0-22.254 6.0674-28.344 15.25 6.3615-8.0255 16.682-13.25 28.344-13.25 11.662 1e-5 21.982 5.2245 28.344 13.25-6.0898-9.1826-16.508-15.25-28.344-15.25z" enable-background="new" fill="url(#b)" filter="url(#g)" opacity=".8"/></g><rect x="600" y="516" width="64" height="16" rx=".37019" ry=".37019" enable-background="new" fill="#fff"/></g></g></svg>
