<?xml version="1.0" encoding="UTF-8"?>
<svg enable-background="new" version="1.0" viewBox="0 0 256 256" xmlns="http://www.w3.org/2000/svg" xmlns:xlink="http://www.w3.org/1999/xlink"><defs><linearGradient id="a"><stop stop-color="#fff" offset="0"/><stop stop-color="#fff" stop-opacity="0" offset="1"/></linearGradient><linearGradient id="p"><stop offset="0"/><stop stop-opacity="0" offset="1"/></linearGradient><clipPath id="x"><path d="m-52.298 90.961c-14.221 0-25.747 11.549-25.747 25.77 0 14.221 11.526 25.747 25.747 25.747 3.8783 0 7.5496-0.88545 10.848-2.4211l37.899 37.922h4.5162l-0.51215-1.2571h2.2581l0.74494 1.2571 5.8431-1.583-0.65183-0.65182-1.1873-7.2632-5.494-5.5172-5.2612 0.25608v-6.0061l-3.748-3.748-4.2601 0.74494-0.2328-5.75-16.086-15.155 1.583-1.583 0.48887-2.002-2.9099-3.3057c1.216-2.9914 1.9089-6.2562 1.9089-9.6843 0-14.221-11.526-25.77-25.747-25.77z" fill="none" stroke="#000" stroke-width="1.4899"/></clipPath><filter id="u" color-interpolation-filters="sRGB"><feGaussianBlur stdDeviation="0.56367413"/></filter><linearGradient id="c" x1="-19.567" x2="23.104" y1="146.58" y2="188.41" gradientUnits="userSpaceOnUse" xlink:href="#p"/><clipPath id="w"><path d="m179.64 158.15v-65.57h-75.577v65.57zm-37.722-22.581c-5.7447 0-10.402-4.657-10.402-10.402s4.657-10.402 10.402-10.402 10.402 4.657 10.402 10.402-4.657 10.402-10.402 10.402z" color="#000000" enable-background="accumulate" fill="none" stroke="#000" stroke-width="2"/></clipPath><filter id="t" color-interpolation-filters="sRGB"><feGaussianBlur stdDeviation="0.60614225"/></filter><radialGradient id="b" cx="152.45" cy="113.6" r="25.8" gradientUnits="userSpaceOnUse"><stop stop-color="#fff" offset="0"/><stop stop-color="#fff" stop-opacity="0" offset="1"/></radialGradient><linearGradient id="o" x1="194.63" x2="192.86" y1="168.57" y2="170.51" gradientTransform="translate(-2)" gradientUnits="userSpaceOnUse"><stop stop-color="#fff" offset="0"/><stop stop-color="#fff" stop-opacity="0" offset="1"/></linearGradient><linearGradient id="n" x1="224.68" x2="222.55" y1="198.44" y2="200.57" gradientTransform="translate(-2)" gradientUnits="userSpaceOnUse"><stop stop-color="#fff" offset="0"/><stop stop-color="#fff" stop-opacity="0" offset="1"/></linearGradient><linearGradient id="m" x1="215.14" x2="213.68" y1="188.98" y2="190.44" gradientTransform="translate(-2)" gradientUnits="userSpaceOnUse"><stop stop-color="#fff" offset="0"/><stop stop-color="#fff" stop-opacity="0" offset="1"/></linearGradient><radialGradient id="i" cx="193.13" cy="187.57" r="27.666" gradientTransform="matrix(1.3067 1.3802 -.73313 .6941 76.28 -209.18)" gradientUnits="userSpaceOnUse"><stop stop-color="#858585" offset="0"/><stop stop-color="#858585" stop-opacity="0" offset="1"/></radialGradient><radialGradient id="h" cx="208.77" cy="205.8" r="30.229" gradientTransform="matrix(.79464 -.60708 1.4386 1.883 -255.19 -54.125)" gradientUnits="userSpaceOnUse"><stop stop-color="#fefefe" offset="0"/><stop stop-color="#fefefe" stop-opacity="0" offset="1"/></radialGradient><linearGradient id="l" x1="-2219.6" x2="1116" y1="5545.8" y2="4595.5" gradientTransform="matrix(.050697 .050697 -.050697 .050697 505.35 -52.291)" gradientUnits="userSpaceOnUse"><stop stop-color="#babdb6" offset="0"/><stop stop-color="#f2f2f1" offset=".17445"/><stop stop-color="#edeeec" offset=".23801"/><stop stop-color="#dcdeda" offset=".27069"/><stop stop-color="#fff" offset="1"/></linearGradient><filter id="s"><feGaussianBlur stdDeviation="1.3220716"/></filter><linearGradient id="k" x1="168.75" x2="155.5" y1="127.62" y2="127.12" gradientUnits="userSpaceOnUse"><stop stop-color="#fff" offset="0"/><stop stop-color="#fff" stop-opacity="0" offset="1"/></linearGradient><radialGradient id="g" cx="145.94" cy="167.19" r="23.583" gradientTransform="matrix(-.27628 -3.0663e-8 5.6266e-8 -.50696 193.46 186.32)" gradientUnits="userSpaceOnUse" xlink:href="#a"/><radialGradient id="f" cx="149.22" cy="170.76" r="23.583" gradientTransform="matrix(-.40434 -.010601 .012818 -.48889 219.91 188.13)" gradientUnits="userSpaceOnUse" xlink:href="#a"/><radialGradient id="e" cx="145.94" cy="167.19" r="23.583" gradientTransform="matrix(.23927 .13814 -.25348 .43904 138.5 67.985)" gradientUnits="userSpaceOnUse" xlink:href="#a"/><radialGradient id="d" cx="149.22" cy="170.76" r="23.583" gradientTransform="matrix(.34487 .21135 -.25555 .41698 116.49 53.191)" gradientUnits="userSpaceOnUse" xlink:href="#a"/><filter id="r"><feGaussianBlur stdDeviation="0.73221983"/></filter><linearGradient id="j" x1="-446.82" x2="-2920.9" y1="4522.3" y2="7486" gradientTransform="matrix(.050697 .050697 -.050697 .050697 505.35 -52.291)" gradientUnits="userSpaceOnUse"><stop stop-color="#babdb6" offset="0"/><stop stop-color="#f2f2f1" offset=".17445"/><stop stop-color="#edeeec" offset=".23801"/><stop stop-color="#dcdeda" offset=".27069"/><stop stop-color="#fff" offset="1"/></linearGradient><filter id="q"><feGaussianBlur stdDeviation="1.512155"/></filter><filter id="v" x="-.079672" y="-.17061" width="1.1593" height="1.3412"><feGaussianBlur stdDeviation="7.9388137"/></filter></defs><g transform="translate(-20,-32)"><g><path transform="translate(-7.8686e-7 2.0295e-6)" d="m711.97 228.02c-1.8997 1e-5 -3.4797 0.71804-4.4531 1.6719v1.7969h8.9688v-1.7422c-0.96855-0.97768-2.5874-1.7266-4.5156-1.7266z" enable-background="accumulate" fill="none" opacity=".35" stroke="#fff"/><g transform="matrix(-1.0737 1.0737 -1.0737 -1.0737 511.23 140.02)" enable-background="new"><path transform="matrix(-.43794 -.43794 .43794 -.43794 177.34 290.7)" d="m212.97 100.38c-0.82645 0.0122-1.6406 0.0625-2.4688 0.125-26.5 2-40.5 14.5-45.5 23s-7 13.5-7 13.5h-117l-14.5 20.5 11 11h17.5l9-9 8 8.5 11.5 1 6-8.5 7.5 9 50-1.5 0.5 10 9.5-1.5s17 37 49 35.5 62-24.5 59.5-57c-2.4219-31.484-26.911-55.005-52.531-54.625zm22.46 41.054c8.0081 0 14.5 6.4919 14.5 14.5s-6.4919 14.5-14.5 14.5-14.5-6.4919-14.5-14.5 6.4919-14.5 14.5-14.5z" color="#000000" enable-background="accumulate" filter="url(#v)" opacity=".28947"/><path transform="matrix(-.43794 -.43794 .43794 -.43794 174.71 293.32)" d="m212.97 100.38c-0.82645 0.0122-1.6406 0.0625-2.4688 0.125-26.5 2-40.5 14.5-45.5 23s-7 13.5-7 13.5h-117l-14.5 20.5 11 11h17.5l9-9 8 8.5 11.5 1 6-8.5 7.5 9 50-1.5 0.5 10 9.5-1.5s16.965 35.5 49 35.5c39.003 0 62-24.5 59.5-57-2.4219-31.484-26.911-55.005-52.531-54.625zm22.46 41.054c8.0081 0 14.5 6.4919 14.5 14.5s-6.4919 14.5-14.5 14.5-14.5-6.4919-14.5-14.5 6.4919-14.5 14.5-14.5z" color="#000000" enable-background="accumulate" filter="url(#q)" opacity=".26754"/><path d="m180.78 155.02 23.492 22.149 0.33559 7.7187 5.7051-1.0068 5.0339 5.034v8.0543l7.0475-0.3356 7.3831 7.3831 1.678 10.068-53.695-53.695z" fill="#555753"/><path d="m149.57 99.981c-19.09 0-34.566 15.476-34.566 34.566s15.476 34.566 34.566 34.566c5.2062 0 10.128-1.1687 14.556-3.2301l50.885 50.885h6.0407l-0.6712-1.678h3.0204l1.0068 1.678 7.8446-2.0975-53.486-53.947 6.0407-6.0407 0.67119-2.6848-3.9013-4.4466c1.6323-4.0156 2.5589-8.4026 2.5589-13.004 0-19.09-15.476-34.566-34.566-34.566zm-11.075 14.095c5.0043 0 9.0611 4.0568 9.0611 9.0611s-4.0568 9.0611-9.0611 9.0611-9.0611-4.0568-9.0611-9.0611 4.0568-9.0611 9.0611-9.0611z" color="#000000" enable-background="accumulate" fill="url(#l)"/><path d="m218.26 216.21-60.104-61.872v-1.0607l15.91 12.728 44.548 44.548z" color="#000000" enable-background="accumulate" fill="url(#h)"/><path d="m163.46 159.64 55.331 55.331-1.9445 0.53033z" color="#000000" enable-background="accumulate" fill="url(#i)"/><path d="m221.09 216.56-3.182-5.6568-45.962-47.73 51.972 51.265z" color="#000000" enable-background="accumulate" fill="#858585"/><path d="m225.69 215.85-50.205-49.144 50.912 46.669 5.6568 0.70711z" color="#000000" enable-background="accumulate" fill="#fff"/><path d="m206.6 184.74 9.5459 10.607-0.35355-4.5962-6.364-6.0104z" color="#000000" enable-background="accumulate" fill="url(#m)"/><path d="m218.26 197.12 13.258 13.789-1.4142-4.9498-8.4853-9.0156z" color="#000000" enable-background="accumulate" fill="url(#n)"/><path d="m204.65 183.15-24.218-23.688 1.9445-1.591 22.274 21.92z" color="#000000" enable-background="accumulate" fill="url(#o)"/><path d="m154.75 101.25c-2.6667 22.017-5.3333 44.317-8 67 7.9081-0.66952 13.079-2.2515 17-4.25l5 5 4.4073-4.0576 33.225 31.201-28.255-35.777 6.3726-5.8668v-2.25l-4.75-4c8.25-23.75-4.5-40.75-25-47z" color="#000000" enable-background="new" fill="url(#k)" opacity=".41667"/><g transform="matrix(1.3424 0 0 1.3424 220.02 -22.386)" clip-path="url(#x)" enable-background="new" filter="url(#u)" opacity=".39474" stroke="url(#c)" stroke-width=".65856"><path d="m-52.298 90.961c-14.221 0-25.747 11.549-25.747 25.77 0 14.221 11.526 25.747 25.747 25.747 3.8783 0 7.5496-0.88545 10.848-2.4211l37.899 37.922h4.5162l-0.51215-1.2571h2.2581l0.74494 1.2571 5.8431-1.583-0.65183-0.65182-1.1873-7.2632-5.494-5.5172-5.2612 0.25608v-6.0061l-3.748-3.748-4.2601 0.74494-0.2328-5.75-16.086-15.155 1.583-1.583 0.48887-2.002-2.9099-3.3057c1.216-2.9914 1.9089-6.2562 1.9089-9.6843 0-14.221-11.526-25.77-25.747-25.77z" fill="none" stroke="url(#c)" stroke-width=".98118"/></g><g transform="matrix(.86207 0 0 .86207 16.527 15.001)" clip-path="url(#w)" enable-background="new" opacity=".58772"><circle transform="matrix(-1.0307 0 0 -1.0307 287.29 253.52)" cx="141.38" cy="124.62" r="9.875" clip-path="none" color="#000000" enable-background="accumulate" fill="none" filter="url(#t)" stroke="#000" stroke-width="1.4073"/></g><path d="m177.64 124c11.521 24.614-13.707 49.677-35.733 41.644z" color="#000000" enable-background="accumulate" fill="#fff" filter="url(#s)" opacity=".3114"/><circle transform="matrix(1.2795 0 0 1.2795 -44.029 -40.766)" cx="151.25" cy="136" r="25" color="#000000" enable-background="accumulate" fill="none" stroke="url(#b)" stroke-width=".51469"/><circle transform="matrix(.64469 1.1166 -1.1166 .64469 203.85 -123.32)" cx="151.25" cy="136" r="25" color="#000000" enable-background="accumulate" fill="none" opacity=".58772" stroke="url(#b)" stroke-width=".51076"/><path d="m147.19 102c-19.427-0.24806-37.487 21.65-27.406 43.188l10.241-14.883 3.2282-0.80408c-1.9919-1.6275-3.25-4.1022-3.25-6.875 0-4.9015 3.9735-8.875 8.875-8.875 2.2815 0 4.3653 0.86658 5.9375 2.2812l1.1807-4.0015 5.7886-7.2442 3.7495-1.2544c-2.7532-1.0042-5.5685-1.4958-8.3438-1.5312z" color="#000000" enable-background="accumulate" fill="#fff" opacity=".17982"/><path d="m159.83 103.5-1.25-2.625c-4.4609-1.423-8.3196-1.3407-12.125-1.125l0.75 2.125c4.0327-0.51206 8.2592 0.13829 12.625 1.625z" color="#000000" enable-background="new" fill="url(#g)" opacity=".78947"/><path d="m168.83 107.25-1.25-2.625c-1.7109-1.548-4.9446-2.4657-7.625-3.125l0.75 2.125c2.0327 0.61294 4.8842 1.2633 8.125 3.625z" color="#000000" enable-background="new" fill="url(#f)" opacity=".72368"/><path d="m126.21 156.53-0.22997 2.8983c3.1517 3.4628 6.5346 5.3208 9.938 7.0368l0.41299-2.2153c-3.7485-1.5729-7.0835-4.2493-10.121-7.7198z" color="#000000" enable-background="new" fill="url(#e)" opacity=".78947"/><path d="m120.29 148.78-0.22997 2.8983c0.70765 2.1961 3.0493 4.6076 5.041 6.5188l0.41297-2.2153c-1.4539-1.5472-3.5982-3.5361-5.224-7.2018z" color="#000000" enable-background="new" fill="url(#d)" opacity=".72368"/><rect transform="matrix(-.43794 -.43794 .43794 -.43794 173.4 294.64)" x="186" y="131" width="24.5" height="51" color="#000000" enable-background="accumulate" fill="url(#j)" filter="url(#r)"/><path transform="matrix(-.43794 -.43794 .43794 -.43794 173.4 294.64)" d="m210.25 102c-30.238 0-54.75 24.512-54.75 54.75 0 0.33604 0.0252 0.6654 0.0312 1 0.53648-29.773 24.817-53.75 54.719-53.75s54.182 23.977 54.719 53.75c6e-3 -0.3346 0.0312-0.66396 0.0312-1 1e-4 -30.238-24.512-54.75-54.75-54.75z" color="#000000" enable-background="accumulate" fill="#fff" opacity=".47807"/><path transform="matrix(-.43794 -.43794 .43794 -.43794 173.4 294.64)" d="m220.56 157.75c-0.0215 0.3315-0.0625 0.66306-0.0625 1 0 8.4223 6.8277 15.25 15.25 15.25s15.25-6.8277 15.25-15.25c0-0.33694-0.041-0.6685-0.0625-1-0.5164 7.9549-7.1021 14.25-15.188 14.25s-14.671-6.2951-15.188-14.25z" color="#000000" enable-background="accumulate" fill="#fff"/></g></g></g></svg>
