<?xml version="1.0" encoding="UTF-8"?>
<svg enable-background="new" version="1.0" viewBox="0 0 256 256" xmlns="http://www.w3.org/2000/svg" xmlns:xlink="http://www.w3.org/1999/xlink"><defs><filter id="g"><feGaussianBlur stdDeviation="2.3481713"/></filter><linearGradient id="a" x1="85.688" x2="89.832" y1="52.708" y2="154.2" gradientUnits="userSpaceOnUse" xlink:href="#d"/><radialGradient id="b" cx="79.377" cy="44.534" r="50.668" gradientTransform="matrix(1.674 0 0 1.6099 -53.178 -27.614)" gradientUnits="userSpaceOnUse"><stop stop-color="#fff" offset="0"/><stop stop-color="#fff" stop-opacity="0" offset="1"/></radialGradient><filter id="h" x="-.036648" y="-.58355" width="1.0733" height="2.1671"><feGaussianBlur stdDeviation="3.1609195"/></filter><filter id="i"><feGaussianBlur stdDeviation="0.78272377"/></filter><linearGradient id="d"><stop stop-color="#fff" offset="0"/><stop stop-color="#fff" stop-opacity="0" offset="1"/></linearGradient><radialGradient id="c" cx="85.837" cy="52.855" r="53.631" gradientTransform="matrix(2.9649 0 0 2.7985 -168.67 -93.569)" gradientUnits="userSpaceOnUse"><stop stop-color="#fed496" offset="0"/><stop stop-color="#fcaf3e" offset="1"/></radialGradient><linearGradient id="e" x1="94.645" x2="103.89" y1="37.144" y2="184.59" gradientUnits="userSpaceOnUse"><stop stop-color="#f57900" offset="0"/><stop stop-color="#be5d00" offset="1"/></linearGradient><filter id="j" x="-.095059" y="-.92579" width="1.1901" height="2.8516"><feGaussianBlur stdDeviation="8.8721264"/></filter><filter id="f" x="-.027927" y="-.27199" width="1.0559" height="1.544"><feGaussianBlur stdDeviation="2.6065439"/></filter></defs><g transform="translate(-16,-28)"><g><g transform="matrix(1.5667 0 0 1.5667 9.2443 10.531)"><rect transform="matrix(.6098 0 0 .57393 9.3161 25.01)" x="15" y="209" width="224" height="23" rx="12.037" ry="12.79" display="block" enable-background="accumulate" filter="url(#f)" opacity=".65517"/><rect transform="matrix(.6383 0 0 .60075 5.6972 21.012)" x="15" y="209" width="224" height="23" rx="11.5" ry="12.219" display="block" enable-background="accumulate" filter="url(#j)" opacity=".65517"/><path d="m157.74 141.64-63.297-118.97c-1.8193-3.3046-5.1114-5.1405-8.7777-5.1405-3.6663 0-6.9753 2.2031-8.8223 5.5077l-62.825 118.97c-1.4788 2.9374-1.4957 6.9764 0.32517 9.9139 1.8209 2.9374 4.7478 4.4062 8.4142 4.4062h126.12c3.6663 0 6.9737-1.8359 8.4526-4.7734 1.8454-2.9375 1.8608-6.6093 0.4081-9.9139z" fill="url(#e)"/><path d="m32.648 137.44c-1.1008 1.816-0.01394 3.2688 1.8078 3.2688h102.75c1.8217 0 2.9209-1.4528 1.8357-3.2688l-51.69-96.608c-1.0853-1.8159-2.5427-1.8159-3.2791 0z" fill="url(#c)"/><g transform="matrix(2.9743 0 0 3.0265 14.505 17.57)" fill="#121312" stroke="#000" stroke-width=".18501"><path d="m23.9 36.5c-1.3 0-2.3-1-2.3-2.3 0-1.4 0.9-2.3 2.3-2.3s2.2 0.9 2.3 2.3c0 1.3-0.9 2.3-2.3 2.3zm-0.73237-7.4332-1.2676-9.9668h4l-1.2676 11.61z" fill="#121312" stroke="none"/></g><path transform="matrix(.95555 0 0 .95555 3.8086 3.0379)" d="m85.501 18.318c-3.6106 0-6.8634 2.1672-8.6823 5.4215l-61.876 117.15c-0.91574 1.819-1.2577 4.0699-0.94287 6.2073 0.15785-1.0852 0.47342-2.1318 0.94287-3.0643l61.876-117.15c1.8189-3.2543 5.0718-5.4215 8.6823-5.4215 3.6105 0 6.8514 1.794 8.643 5.0483l62.348 117.17c0.43615 0.99206 0.72664 2.0162 0.88398 3.0448 0.30705-2.0345 2e-3 -4.1731-0.88398-6.1877l-62.348-117.17c-1.7917-3.2543-5.0325-5.0483-8.643-5.0483z" fill="url(#a)" filter="url(#i)"/><path transform="matrix(.6383 0 0 .6383 5.6972 15.286)" d="m30 218h196l11-13-13 8-206.63 1z" display="block" enable-background="accumulate" fill="#fff" filter="url(#h)" opacity=".28161"/><path d="m85.761 20.696c-3.2691 0-6.2144 1.9622-7.8613 4.9088l-47.915 90.707 99.422-23.726-35.82-67.319c-1.6222-2.9466-4.5566-4.5709-7.8257-4.5709z" fill="url(#b)" opacity=".47126"/><path transform="matrix(.95555 0 0 .95555 3.8086 3.0379)" d="m85.501 18.318c-3.6106 0-6.8634 2.1672-8.6823 5.4215l-61.876 117.15c-0.91574 1.819-1.2577 4.0699-0.94287 6.2073 0.15785-1.0852 0.47342-2.1318 0.94287-3.0643l61.876-117.15c1.8189-3.2543 5.0718-5.4215 8.6823-5.4215 3.6105 0 6.8514 1.794 8.643 5.0483l62.348 117.17c0.43615 0.99206 0.72664 2.0162 0.88398 3.0448 0.30705-2.0345 2e-3 -4.1731-0.88398-6.1877l-62.348-117.17c-1.7917-3.2543-5.0325-5.0483-8.643-5.0483z" fill="url(#a)" filter="url(#g)"/></g></g></g></svg>
