<?xml version="1.0" encoding="UTF-8"?>
<svg enable-background="new" version="1.0" viewBox="0 0 256 256" xmlns="http://www.w3.org/2000/svg" xmlns:xlink="http://www.w3.org/1999/xlink"><defs><radialGradient id="g" cx="110" cy="231" r="45" gradientTransform="matrix(1 0 0 .33333 0 154)" gradientUnits="userSpaceOnUse" xlink:href="#f"/><linearGradient id="f"><stop offset="0"/><stop stop-opacity="0" offset="1"/></linearGradient><filter id="k" x="-.072289" y="-.21687" width="1.1446" height="1.4337" color-interpolation-filters="sRGB"><feGaussianBlur stdDeviation="2.7108434"/></filter><radialGradient id="q" cx="316.83" cy="648.35" r="35.5" gradientTransform="matrix(.50035 0 0 .25018 158.92 480.16)" gradientUnits="userSpaceOnUse"><stop stop-color="#757575" offset="0"/><stop offset="1"/></radialGradient><linearGradient id="ag" x1="119.46" x2="132" y1="177.6" y2="177.5" gradientUnits="userSpaceOnUse"><stop stop-color="#999" offset="0"/><stop stop-color="#757575" stop-opacity=".40952" offset="1"/></linearGradient><linearGradient id="af" x1="119.46" x2="132" y1="177.6" y2="177.5" gradientUnits="userSpaceOnUse" xlink:href="#f"/><filter id="d" color-interpolation-filters="sRGB"><feGaussianBlur stdDeviation="0.72413793"/></filter><linearGradient id="ae" x1="105" x2="154.5" y1="212.25" y2="212.25" gradientTransform="matrix(-1.0964 .012118 .011429 1.034 273.28 -11.062)" gradientUnits="userSpaceOnUse"><stop stop-color="#303427" offset="0"/><stop stop-color="#a2ac90" offset=".6"/><stop stop-color="#707b5d" offset="1"/></linearGradient><clipPath id="aw"><path d="m138.2 186.58c-12.005-0.0506-24.732 1.0492-30.151 2.8192-2.6892 0.87835 0.2619 4.9164 1.6795 6.6181 0 0 4.3e-4 0.88933 0 0.95972-1.2061 0.71886-1.9538 2.1354-1.7995 3.7189 0.11344 1.1637 0.69542 2.1717 1.5196 2.8592-1.0406 0.75976-1.6618 2.0803-1.5196 3.539 0.11344 1.1637 0.69542 2.1717 1.5196 2.8592-1.0406 0.75976-1.6618 2.0803-1.5196 3.539 0.11344 1.1637 0.69544 2.1717 1.5196 2.8592-1.0406 0.75975-1.6618 2.0802-1.5196 3.539 0.15735 1.6141 1.2083 2.9393 2.5792 3.499 2.6876 3.5276 10.297 6.898 10.297 6.898 10.231 1.9136 17.624 0.98863 24.933-0.02 4.4787 0.15996 13.316-9.0774 13.316-9.0774s-2e-5 -0.29285 0-0.29992c1.5177-0.58541 2.5155-2.1718 2.3393-3.9788-0.11345-1.1637-0.69543-2.1717-1.5196-2.8592 1.0406-0.75976 1.6618-2.0803 1.5196-3.539-0.11345-1.1637-0.69543-2.1717-1.5196-2.8592 1.0406-0.75976 1.6618-2.0803 1.5196-3.539-0.11345-1.1637-0.69543-2.1717-1.5196-2.8592 1.0406-0.75976 1.6618-2.0803 1.5196-3.539-0.11345-1.1637-0.69543-2.1717-1.5196-2.8592 1.1284-1.827 2.9664-5.2441 1.2196-5.8583-4.6588-1.6383-13.556-2.3799-22.893-2.4193z" color="#000000" display="block" enable-background="accumulate" fill="#1b1b1b"/></clipPath><filter id="an" color-interpolation-filters="sRGB"><feGaussianBlur stdDeviation="1.0367847"/></filter><radialGradient id="p" cx="694.25" cy="609.14" r="11.313" gradientTransform="matrix(1.7625 0 0 22.176 -1064.4 -13240)" gradientUnits="userSpaceOnUse"><stop stop-color="#151712" offset="0"/><stop stop-color="#fff" stop-opacity="0" offset="1"/></radialGradient><filter id="j" x="-.2572" y="-.10768" width="1.5144" height="1.2154" color-interpolation-filters="sRGB"><feGaussianBlur stdDeviation="1.9960299"/></filter><radialGradient id="o" cx="444.75" cy="635.12" r="41.813" gradientTransform="matrix(.64162 .06222 0 3.3341 58.388 -1524.1)" gradientUnits="userSpaceOnUse"><stop stop-color="#fff" offset="0"/><stop stop-color="#fff" stop-opacity="0" offset="1"/></radialGradient><filter id="aj" color-interpolation-filters="sRGB"><feGaussianBlur stdDeviation="0.29135108"/></filter><linearGradient id="ad" x1="125" x2="127.25" y1="155.25" y2="169.25" gradientUnits="userSpaceOnUse"><stop stop-color="#fff" offset="0"/><stop stop-color="#fff" stop-opacity="0" offset="1"/></linearGradient><linearGradient id="ac" x1="125" x2="127.25" y1="155.25" y2="169.25" gradientUnits="userSpaceOnUse" xlink:href="#f"/><radialGradient id="n" cx="170" cy="101.74" r="54.507" gradientTransform="matrix(1 0 0 1.5138 0 -57.021)" gradientUnits="userSpaceOnUse"><stop stop-color="#9ea399" offset="0"/><stop stop-color="#cccfca" offset="1"/></radialGradient><linearGradient id="i" x1="119" x2="137" y1="158" y2="177.5" gradientUnits="userSpaceOnUse" xlink:href="#f"/><clipPath id="av"><path d="m106 193s1.5-13.75-6-44-23.25-35-23-68c0.2357-31.113 28.75-52.75 56-52s51.517 21.808 52 52c0.5 31.25-17.25 39.5-25 69s-6 43-6 43z" color="#000000" display="block" enable-background="accumulate" fill="#fff" filter="url(#d)"/></clipPath><filter id="al" color-interpolation-filters="sRGB"><feGaussianBlur stdDeviation="2.2339877"/></filter><linearGradient id="ab" x1="-57" x2="-44" y1="50" y2="88" gradientUnits="userSpaceOnUse"><stop stop-color="#fff" offset="0"/><stop stop-color="#fff" stop-opacity="0" offset="1"/></linearGradient><filter id="ar" x="-.13793" y="-.2069" width="1.2759" height="1.4138" color-interpolation-filters="sRGB"><feGaussianBlur stdDeviation="4.137931"/></filter><linearGradient id="aa" x1="138.5" x2="138.5" y1="164" y2="192.5" gradientUnits="userSpaceOnUse"><stop offset="0"/><stop stop-opacity="0" offset="1"/></linearGradient><filter id="at" color-interpolation-filters="sRGB"><feGaussianBlur stdDeviation="0.2816092"/></filter><filter id="ap" x="-.14708" y="-.097466" width="1.2942" height="1.1949" color-interpolation-filters="sRGB"><feGaussianBlur stdDeviation="6.7421657"/></filter><linearGradient id="z" x1="133" x2="133" y1="168" y2="155" gradientUnits="userSpaceOnUse"><stop stop-color="#fff" offset="0"/><stop stop-color="#fff" stop-opacity="0" offset="1"/></linearGradient><linearGradient id="y" x1="138.9" x2="162.71" y1="136.7" y2="136.7" gradientTransform="scale(.88192 1.1339)" gradientUnits="userSpaceOnUse"><stop stop-color="#7c7c7c" offset="0"/><stop stop-color="#fff" offset="1"/></linearGradient><filter id="as" color-interpolation-filters="sRGB"><feGaussianBlur stdDeviation="0.61619253"/></filter><linearGradient id="x" x1="153" x2="107" y1="148" y2="150" gradientTransform="translate(0,12)" gradientUnits="userSpaceOnUse"><stop stop-color="#fff" stop-opacity=".2381" offset="0"/><stop stop-color="#fff" offset=".56604"/><stop stop-color="#fff" stop-opacity=".44762" offset="1"/></linearGradient><filter id="aq" x="-.14166" y="-.13439" width="1.2833" height="1.2688" color-interpolation-filters="sRGB"><feGaussianBlur stdDeviation="4.3678161"/></filter><linearGradient id="w" x1="109.5" x2="161.5" y1="100.11" y2="100.11" gradientUnits="userSpaceOnUse"><stop stop-color="#fce94f" offset="0"/><stop stop-color="#fce94f" stop-opacity="0" offset=".5"/><stop stop-color="#fce94f" offset="1"/></linearGradient><filter id="ao" x="-.09083" y="-.35714" width="1.1817" height="1.7143" color-interpolation-filters="sRGB"><feGaussianBlur stdDeviation="1.9679912"/></filter><linearGradient id="h" x1="79.955" x2="94.478" y1="87" y2="86" gradientUnits="userSpaceOnUse" xlink:href="#e"/><linearGradient id="e"><stop stop-color="#fff" offset="0"/><stop stop-color="#fff" stop-opacity="0" offset="1"/></linearGradient><filter id="am" color-interpolation-filters="sRGB"><feGaussianBlur stdDeviation="1.2808689"/></filter><radialGradient id="m" cx="301.51" cy="505.76" r="21.265" gradientTransform="matrix(.83044 -.80601 .7527 .77552 -497.27 5.8708)" gradientUnits="userSpaceOnUse"><stop stop-color="#fff" offset="0"/><stop stop-color="#fff" stop-opacity="0" offset="1"/></radialGradient><linearGradient id="v" x1="306.25" x2="293.35" y1="512.42" y2="539.92" gradientTransform="matrix(.45912 -.44561 .44561 .45912 -230.02 55.471)" gradientUnits="userSpaceOnUse" xlink:href="#e"/><radialGradient id="l" cx="331.72" cy="616.64" r="37.275" gradientTransform="matrix(2.2948 0 0 .45636 -639.51 -36.879)" gradientUnits="userSpaceOnUse"><stop stop-color="#fff" offset="0"/><stop stop-color="#fff" stop-opacity=".28313" offset="1"/></radialGradient><filter id="ak" x="-.06274" y="-.73914" width="1.1255" height="2.4783" color-interpolation-filters="sRGB"><feGaussianBlur stdDeviation="1.9488754"/></filter><radialGradient id="b" cx="331.91" cy="602.64" r="38.628" gradientTransform="matrix(.85191 0 0 .31281 50.978 410.84)" gradientUnits="userSpaceOnUse" xlink:href="#e"/><radialGradient id="a" cx="331.91" cy="602.64" r="38.628" gradientTransform="matrix(.6424 0 0 .23588 123.1 456.83)" gradientUnits="userSpaceOnUse" xlink:href="#e"/><filter id="c" x="-.048236" y="-.43025" width="1.0965" height="1.8605" color-interpolation-filters="sRGB"><feGaussianBlur stdDeviation="1.1708626"/></filter><linearGradient id="u" x1="378.56" x2="369.25" y1="606.14" y2="606.14" gradientUnits="userSpaceOnUse"><stop stop-color="#bbc1b0" offset="0"/><stop stop-color="#fff" stop-opacity="0" offset="1"/></linearGradient><linearGradient id="t" x1="367.75" x2="378" y1="637.86" y2="629.11" gradientTransform="translate(-210,-338)" gradientUnits="userSpaceOnUse"><stop stop-color="#fff" offset="0"/><stop stop-color="#fff" stop-opacity="0" offset="1"/></linearGradient><filter id="ai" x="-.12592" y="-.16972" width="1.2518" height="1.3394" color-interpolation-filters="sRGB"><feGaussianBlur stdDeviation="0.81325301"/></filter><linearGradient id="s" x1="329.25" x2="335" y1="635.24" y2="633.49" gradientTransform="translate(-211.88 -338.12)" gradientUnits="userSpaceOnUse"><stop stop-color="#fff" offset="0"/><stop stop-color="#fff" stop-opacity="0" offset="1"/></linearGradient><filter id="ah" x="-.13251" y="-.17768" width="1.265" height="1.3554" color-interpolation-filters="sRGB"><feGaussianBlur stdDeviation="0.81438253"/></filter><linearGradient id="r" x1="337.5" x2="339" y1="640.11" y2="630.36" gradientTransform="matrix(.63981 0 0 .63981 -85.915 -180.29)" gradientUnits="userSpaceOnUse"><stop offset="0"/><stop stop-opacity="0" offset="1"/></linearGradient><filter id="au" x="-.18208" y="-.85144" width="1.3642" height="2.7029" color-interpolation-filters="sRGB"><feGaussianBlur stdDeviation="4.1373574"/></filter></defs><g transform="translate(-16,-28)"><g transform="translate(9 24.41)"><ellipse transform="matrix(1.4667 0 0 1.4667 -26.333 -108.8)" cx="110" cy="231" rx="45" ry="15" color="#000000" enable-background="accumulate" fill="url(#g)" filter="url(#k)" opacity=".39157"/><ellipse transform="matrix(.7643 0 0 .7643 50.927 53.447)" cx="110" cy="231" rx="45" ry="15" color="#000000" enable-background="accumulate" fill="url(#g)" filter="url(#k)" opacity=".61446"/><ellipse transform="matrix(.38749 0 0 .63981 9.1515 -179.65)" cx="322.25" cy="631.11" rx="35.5" ry="17.75" color="#000000" enable-background="accumulate" fill="url(#q)"/><rect transform="matrix(-.84073 .0092926 .012345 1.1169 242.43 -17.091)" x="120" y="159" width="24" height="37" rx="4.6965" ry="4.6965" color="#000000" display="block" enable-background="accumulate" fill="url(#ag)" filter="url(#d)" stroke="url(#af)" stroke-linecap="round" stroke-miterlimit="10" stroke-width=".58545"/><path d="m138.2 186.58c-12.005-0.0506-24.732 1.0492-30.151 2.8192-2.6892 0.87835 0.2619 4.9164 1.6795 6.6181 0 0 4.3e-4 0.88933 0 0.95972-1.2061 0.71886-1.9538 2.1354-1.7995 3.7189 0.11344 1.1637 0.69542 2.1717 1.5196 2.8592-1.0406 0.75976-1.6618 2.0803-1.5196 3.539 0.11344 1.1637 0.69542 2.1717 1.5196 2.8592-1.0406 0.75976-1.6618 2.0803-1.5196 3.539 0.11344 1.1637 0.69544 2.1717 1.5196 2.8592-1.0406 0.75975-1.6618 2.0802-1.5196 3.539 0.15735 1.6141 1.2083 2.9393 2.5792 3.499 2.6876 3.5276 10.297 6.898 10.297 6.898 10.231 1.9136 17.624 0.98863 24.933-0.02 4.4787 0.15996 13.316-9.0774 13.316-9.0774s-2e-5 -0.29285 0-0.29992c1.5177-0.58541 2.5155-2.1718 2.3393-3.9788-0.11345-1.1637-0.69543-2.1717-1.5196-2.8592 1.0406-0.75976 1.6618-2.0803 1.5196-3.539-0.11345-1.1637-0.69543-2.1717-1.5196-2.8592 1.0406-0.75976 1.6618-2.0803 1.5196-3.539-0.11345-1.1637-0.69543-2.1717-1.5196-2.8592 1.0406-0.75976 1.6618-2.0803 1.5196-3.539-0.11345-1.1637-0.69543-2.1717-1.5196-2.8592 1.1284-1.827 2.9664-5.2441 1.2196-5.8583-4.6588-1.6383-13.556-2.3799-22.893-2.4193z" color="#000000" display="block" enable-background="accumulate" fill="url(#ae)"/><path d="m138.2 186.58c-12.005-0.0506-24.732 1.0492-30.151 2.8192-2.6892 0.87835 0.2619 4.9164 1.6795 6.6181 0 0 4.3e-4 0.88933 0 0.95972-1.2061 0.71886-1.9538 2.1354-1.7995 3.7189 0.11344 1.1637 0.69542 2.1717 1.5196 2.8592-1.0406 0.75976-1.6618 2.0803-1.5196 3.539 0.11344 1.1637 0.69542 2.1717 1.5196 2.8592-1.0406 0.75976-1.6618 2.0803-1.5196 3.539 0.11344 1.1637 0.69544 2.1717 1.5196 2.8592-1.0406 0.75975-1.6618 2.0802-1.5196 3.539 0.15735 1.6141 1.2083 2.9393 2.5792 3.499 2.6876 3.5276 10.297 6.898 10.297 6.898 10.231 1.9136 17.624 0.98863 24.933-0.02 4.4787 0.15996 13.316-9.0774 13.316-9.0774s-2e-5 -0.29285 0-0.29992c1.5177-0.58541 2.5155-2.1718 2.3393-3.9788-0.11345-1.1637-0.69543-2.1717-1.5196-2.8592 1.0406-0.75976 1.6618-2.0803 1.5196-3.539-0.11345-1.1637-0.69543-2.1717-1.5196-2.8592 1.0406-0.75976 1.6618-2.0803 1.5196-3.539-0.11345-1.1637-0.69543-2.1717-1.5196-2.8592 1.0406-0.75976 1.6618-2.0803 1.5196-3.539-0.11345-1.1637-0.69543-2.1717-1.5196-2.8592 1.1284-1.827 2.9664-5.2441 1.2196-5.8583-4.6588-1.6383-13.556-2.3799-22.893-2.4193z" clip-path="url(#aw)" color="#000000" display="block" enable-background="accumulate" fill="none" filter="url(#an)" opacity=".5" stroke="#000" stroke-linecap="round" stroke-miterlimit="10" stroke-width="2"/><path transform="matrix(.63981 0 0 .63981 48.446 35.967)" d="m163.11 245.91-8.7209 1.9688c-2.7217 0.18384-4.7026 3.132-4.4248 6.5938 0.14596 1.8188 0.89476 3.3943 1.9551 4.4688-1.3389 1.1875-2.1381 3.2514-1.9551 5.5312 0.14596 1.8188 0.89476 3.3943 1.9551 4.4688-1.3389 1.1875-2.1381 3.2514-1.9551 5.5312 0.14596 1.8188 0.89476 3.3943 1.9551 4.4688-1.3389 1.1875-2.1381 3.2514-1.9551 5.5312 0.27781 3.4617 2.7063 6.0901 5.428 5.9062l8.7209-1.9688c2.7217-0.18384 4.7026-3.132 4.4248-6.5938-0.14596-1.8188-0.89476-3.3943-1.9551-4.4688 1.3389-1.1875 2.1381-3.2514 1.9551-5.5312-0.14596-1.8188-0.89476-3.3943-1.9551-4.4688 1.3389-1.1875 2.1381-3.2514 1.9551-5.5312-0.14596-1.8188-0.89476-3.3943-1.9551-4.4688 1.3389-1.1875 2.1381-3.2514 1.9551-5.5312-0.27781-3.4617-2.7064-6.0901-5.428-5.9062z" color="#000000" enable-background="accumulate" fill="url(#p)" filter="url(#j)" opacity=".59639"/><path transform="matrix(.63981 -.023862 0 .63981 -85.915 -172.09)" d="m366.31 584.59-45.91 0.54426c-2.1201 0.0257-3.6632 2.8588-3.4468 6.3366 0.1137 1.8273 0.697 3.4463 1.523 4.5824-1.043 1.1097-1.6655 3.1272-1.523 5.4176 0.1137 1.8273 0.697 3.4463 1.523 4.5824-1.043 1.1097-1.6655 3.1271-1.523 5.4176 0.1137 1.8273 0.697 3.4463 1.523 4.5824-1.043 1.1097-1.6655 3.1271-1.523 5.4176 0.21641 3.4779 2.1082 6.2474 4.2283 6.2216l45.91-0.54426c2.1201-0.0257 3.6632-2.8588 3.4468-6.3366-0.1137-1.8273-0.697-3.4463-1.523-4.5824 1.043-1.1097 1.6655-3.1271 1.523-5.4176-0.1137-1.8273-0.697-3.4463-1.523-4.5824 1.043-1.1097 1.6655-3.1271 1.523-5.4176-0.1137-1.8273-0.697-3.4463-1.523-4.5824 1.043-1.1097 1.6655-3.1271 1.523-5.4176-0.21642-3.4779-2.1082-6.2473-4.2283-6.2216z" color="#000000" enable-background="accumulate" fill="url(#o)" filter="url(#aj)" opacity=".46386"/><ellipse transform="matrix(-1.034 .011429 .011429 1.034 266.16 -8.6125)" cx="129.5" cy="191" rx="25.5" ry="3" color="#000000" display="block" enable-background="accumulate" fill="#555753"/><path transform="matrix(-.99647 .011014 .011014 .99647 263.26 2.1863)" d="m124 173.51-11.004-15.507c-0.33722-4.7176 0.68931-8.2663 5-9h28c4.1731 1.8553 4.44 4.8267 4 8l-11 17z" color="#000000" display="block" enable-background="accumulate" fill="url(#ad)" filter="url(#d)" opacity=".49425" stroke="url(#ac)" stroke-linecap="round" stroke-miterlimit="10" stroke-width=".58545"/><path transform="matrix(-1.113 .012302 .012302 1.113 275.74 -23.476)" d="m106 193s1.5-13.75-6-44-23.25-35-23-68c0.2357-31.113 28.75-52.75 56-52s51.517 21.808 52 52c0.5 31.25-17.25 39.5-25 69s-6 43-6 43z" clip-path="url(#av)" color="#000000" display="block" enable-background="accumulate" fill="url(#n)" filter="url(#al)" opacity=".28736" stroke="url(#i)" stroke-linecap="round" stroke-miterlimit="10" stroke-width="2.8742"/><ellipse transform="matrix(-1.113 .012302 .012302 1.113 72.709 -27.623)" cx="-52" cy="64" rx="36" ry="24" color="#000000" display="block" enable-background="accumulate" fill="url(#ab)" filter="url(#ar)"/><path transform="matrix(-1.113 .012302 .012302 1.113 278.3 -23.476)" d="m127 191v-35h11l-2 36" color="#000000" display="block" enable-background="accumulate" fill="none" filter="url(#at)" opacity=".53448" stroke="url(#aa)" stroke-linecap="round" stroke-miterlimit="10" stroke-width=".58545"/><path transform="matrix(-.97889 .01082 .01082 .97889 258.31 -11.739)" d="m106 193s1.5-13.75-6-44-22.356-36.179-23-68c-0.62952-31.107 28.75-52.75 56-52s51.517 21.808 52 52c0.5 31.25-17.25 39.5-25 69s-6 43-6 43z" color="#000000" display="block" enable-background="accumulate" fill="none" filter="url(#ap)" opacity=".48851" stroke="url(#i)" stroke-linecap="round" stroke-miterlimit="10" stroke-width="1.1709"/><ellipse transform="matrix(-.34838 .0038507 .0027098 .24516 178.27 109.74)" cx="133" cy="155" rx="10" ry="13" color="#000000" display="block" enable-background="accumulate" fill="url(#z)" filter="url(#as)" stroke="url(#y)" stroke-linecap="round" stroke-miterlimit="10" stroke-width=".58545"/><path transform="matrix(-1.113 .012302 .012302 1.113 278.3 -23.476)" d="m98 117 19 71s13.381-0.42693 28 0l27-78c-18.573 21.27-51.778 27.223-74 7z" color="#000000" display="block" enable-background="accumulate" fill="url(#x)" filter="url(#aq)" opacity=".72414"/><path d="m126.67 155.18s2.189-3.3635-0.13532-12.243c-2.3244-8.8792-27.376-59.805-27.376-59.805l3.3389-0.03691 0.0861 7.7908" color="#000000" display="block" enable-background="accumulate" fill="none" opacity=".21264" stroke="#000" stroke-linecap="round" stroke-miterlimit="10" stroke-width=".65163"/><path d="m141.01 155.03s-2.2628-3.3143-0.13532-12.243c2.1275-8.9284 18.256-60.31 18.256-60.31l-3.3389 0.03691 0.0861 7.7908" color="#000000" display="block" enable-background="accumulate" fill="none" opacity=".21264" stroke="#000" stroke-linecap="round" stroke-miterlimit="10" stroke-width=".65163"/><path transform="matrix(-1.113 .012302 .012302 1.113 278.3 -23.476)" d="m111 95s12 12 26 10 18-10 23-10" color="#000000" display="block" enable-background="accumulate" fill="none" filter="url(#ao)" stroke="url(#w)" stroke-linecap="round" stroke-miterlimit="10" stroke-width="1.7564"/><path d="m155.93 83.622s-13.208 13.503-28.814 11.45c-15.606-2.0537-20.156-10.908-25.721-10.847" color="#000000" display="block" enable-background="accumulate" fill="none" stroke="#fff" stroke-linecap="round" stroke-miterlimit="10" stroke-width="1.3033"/><path transform="matrix(-1.113 .012302 .012302 1.113 275.74 -23.476)" d="m104 44s-25.839 8.5256-24 44c1.6761 32.338 20 19 29 100-4.886-80.058-20.094-66.652-22-100-2.0199-35.465 17-44 17-44z" color="#000000" display="block" enable-background="accumulate" fill="url(#h)" filter="url(#d)"/><path transform="matrix(1.113 -.012302 .012302 1.113 -13.579 -20.278)" d="m104 44s-25.25 8.5-24 44 20 19 29 100c-4.886-80.058-20.75-64.5-22-100s17-44 17-44z" color="#000000" display="block" enable-background="accumulate" fill="url(#h)" filter="url(#d)" opacity=".4023"/><path transform="matrix(-1.1121 .046306 .046306 1.1121 264.57 -27.269)" d="m110.32 39.457s-27.018 12.389-25.768 47.889c1.25 35.5 20.707 19.707 29.707 100.71-4.886-80.058-25.982-64.793-27.232-100.29-1.25-35.5 23.293-48.303 23.293-48.303z" color="#000000" display="block" enable-background="accumulate" fill="#fff" filter="url(#am)"/><path d="m116.46 160.41c0.24487-1.7908 6e-3 -4.36 3.1936-5.5516l27.267-0.3848c4.1373 0.6633 3.1932 2.7687 4.6317 4.1979-1.805-0.95389-0.5668-2.872-5.4436-2.8526l-26.198 0.79665c-2.1676 6e-3 -2.7049 2.0289-3.4501 3.7945z" color="#000000" enable-background="accumulate" fill="url(#m)"/><path d="m131.17 175.44 9.9537 0.0355 10.285-14.552c0.0217-4.9677-1.7787-5.7661-3.7539-6.1643l-15.387 0.22277-1.0972 20.458z" color="#000000" enable-background="accumulate" fill="url(#v)" opacity=".6"/><path transform="matrix(.63981 0 0 .63981 48.446 35.967)" d="m94.25 240.36c19.527 8.0542 48.898 1.8874 73.75 2.25-23.388-1.341-45.033 1.9672-70.25-4.25-5.4612-0.62169-4.5612 0.66499-3.5 2z" color="#000000" enable-background="accumulate" fill="url(#l)" filter="url(#ak)"/><g transform="matrix(.63981 0 0 .63981 -85.915 -180.29)"><path d="m305.61 598.92c22.507 0.88606 56.138-1.3879 77.257-5.3975-20.247 9.4254-55.039 11.052-77.257 5.3975z" color="#000000" display="block" enable-background="accumulate" fill="url(#b)" opacity=".50602"/><path d="m315.11 598.65c16.972 0.66815 42.332-1.0465 58.257-4.0701-15.268 7.1074-41.503 8.3341-58.257 4.0701z" color="#000000" display="block" enable-background="accumulate" fill="url(#a)" filter="url(#c)"/></g><g transform="matrix(.63981 0 0 .63981 -85.915 -186.69)"><path d="m305.61 598.92c22.507 0.88606 56.138-1.3879 77.257-5.3975-20.247 9.4254-55.039 11.052-77.257 5.3975z" color="#000000" display="block" enable-background="accumulate" fill="url(#b)" opacity=".50602"/><path d="m315.11 598.65c16.972 0.66815 42.332-1.0465 58.257-4.0701-15.268 7.1074-41.503 8.3341-58.257 4.0701z" color="#000000" display="block" enable-background="accumulate" fill="url(#a)" filter="url(#c)"/></g><g transform="matrix(.63981 0 0 .63981 -85.915 -173.89)"><path d="m305.61 598.92c22.507 0.88606 56.138-1.3879 77.257-5.3975-20.247 9.4254-55.039 11.052-77.257 5.3975z" color="#000000" display="block" enable-background="accumulate" fill="url(#b)" opacity=".50602"/><path d="m315.11 598.65c16.972 0.66815 42.332-1.0465 58.257-4.0701-15.268 7.1074-41.503 8.3341-58.257 4.0701z" color="#000000" display="block" enable-background="accumulate" fill="url(#a)" filter="url(#c)"/></g><g transform="matrix(.63981 0 0 .63981 -85.915 -167.49)"><path d="m305.61 598.92c22.507 0.88606 56.138-1.3879 77.257-5.3975-20.247 9.4254-55.039 11.052-77.257 5.3975z" color="#000000" display="block" enable-background="accumulate" fill="url(#b)" opacity=".50602"/><path d="m315.11 598.65c16.972 0.66815 42.332-1.0465 58.257-4.0701-15.268 7.1074-41.503 8.3341-58.257 4.0701z" color="#000000" display="block" enable-background="accumulate" fill="url(#a)" filter="url(#c)"/></g><g transform="matrix(.63981 0 0 .63981 -85.915 -161.1)"><path d="m305.61 598.92c22.507 0.88606 56.138-1.3879 77.257-5.3975-20.247 9.4254-55.039 11.052-77.257 5.3975z" color="#000000" display="block" enable-background="accumulate" fill="url(#b)" opacity=".50602"/><path d="m315.11 598.65c16.972 0.66815 42.332-1.0465 58.257-4.0701-15.268 7.1074-41.503 8.3341-58.257 4.0701z" color="#000000" display="block" enable-background="accumulate" fill="url(#a)" filter="url(#c)"/></g><path d="m160.25 193.59-0.71979 1.2396c-1.4066 0.87365-4.6014 1.2108-6.958 1.7995 2.5607-1.0079 5.3171-1.3309 7.6778-3.0391z" color="#000000" enable-background="accumulate" fill="#eeeeec" opacity=".46386"/><path d="m160.25 199.99-0.71979 1.2396c-1.4066 0.87364-4.6014 1.2108-6.958 1.7995 2.5607-1.0079 5.3171-1.3309 7.6778-3.0391z" color="#000000" enable-background="accumulate" fill="#eeeeec" opacity=".46386"/><path d="m160.25 206.39-0.71979 1.2396c-1.4066 0.87364-4.6014 1.2108-6.958 1.7995 2.5607-1.0079 5.3171-1.3309 7.6778-3.0391z" color="#000000" enable-background="accumulate" fill="#eeeeec" opacity=".46386"/><path d="m160.25 212.79-0.71979 1.2396c-1.4066 0.87365-4.6014 1.2108-6.958 1.7995 2.5607-1.0079 5.3171-1.3309 7.6778-3.0391z" color="#000000" enable-background="accumulate" fill="#eeeeec" opacity=".46386"/><path d="m160.25 218.86-0.71979 1.2396c-1.4066 0.87364-4.6014 1.2108-6.958 1.7995 2.5607-1.0079 5.3171-1.3309 7.6778-3.0391z" color="#000000" enable-background="accumulate" fill="#eeeeec" opacity=".46386"/><path transform="matrix(-.63981 0 0 .63981 353.32 -177.73)" d="m373.11 583.91-8.7209 1.9688c-2.7217 0.18384-4.7026 3.132-4.4248 6.5938 0.14596 1.8188 0.89476 3.3943 1.9551 4.4688-1.3389 1.1875-2.1381 3.2514-1.9551 5.5312 0.14596 1.8188 0.89476 3.3943 1.9551 4.4688-1.3389 1.1875-2.1381 3.2514-1.9551 5.5312 0.14596 1.8188 0.89476 3.3943 1.9551 4.4688-1.3389 1.1875-2.1381 3.2514-1.9551 5.5312 0.27781 3.4617 2.7063 6.0901 5.428 5.9062l8.7209-1.9688c2.7217-0.18384 4.7026-3.132 4.4248-6.5938-0.14596-1.8188-0.89476-3.3943-1.9551-4.4688 1.3389-1.1875 2.1381-3.2514 1.9551-5.5312-0.14596-1.8188-0.89476-3.3943-1.9551-4.4688 1.3389-1.1875 2.1381-3.2514 1.9551-5.5312-0.14596-1.8188-0.89476-3.3943-1.9551-4.4688 1.3389-1.1875 2.1381-3.2514 1.9551-5.5312-0.27781-3.4617-2.7064-6.0901-5.428-5.9062z" color="#000000" enable-background="accumulate" fill="url(#u)" filter="url(#j)" opacity=".59639"/><path transform="matrix(.63981 0 0 .63981 48.446 35.967)" d="m169.25 291.11c-4.5357 4.1138-8.1519 8.6362-15.5 11.5 3.9076-3.5158 7.8649-7.0103 9.5-11.5z" color="#000000" enable-background="accumulate" fill="url(#t)" filter="url(#ai)" opacity=".59639"/><path transform="matrix(.63981 0 0 .63981 48.446 35.967)" d="m112.62 293.86 8.125 10.625 6.625 0.375-3.75-10.625z" color="#000000" enable-background="accumulate" fill="url(#s)" filter="url(#ah)" opacity=".33735"/><path d="m111.95 223.66c2.4563 2.8945 5.9345 4.5117 9.1973 6.3981 8.7169 0.66001 17.326 1.3356 25.832-0.3199 3.748-2.1011 8.0427-4.7086 10.957-8.4775-15.052 2.5391-30.722 4.3181-45.987 2.3993z" color="#000000" enable-background="accumulate" fill="url(#r)" opacity=".33735"/><path d="m155.93 83.622s-13.208 13.503-28.814 11.45c-15.606-2.0537-20.156-10.908-25.721-10.847" color="#000000" display="block" enable-background="accumulate" fill="none" filter="url(#au)" stroke="#fff" stroke-linecap="round" stroke-miterlimit="10" stroke-width="5"/><path d="m155.93 83.622s-13.208 13.503-28.814 11.45c-15.606-2.0537-20.156-10.908-25.721-10.847" color="#000000" display="block" enable-background="accumulate" fill="none" stroke="#fff" stroke-linecap="round" stroke-miterlimit="10" stroke-width="2"/></g></g></svg>
