<?xml version="1.0" encoding="UTF-8"?>
<svg enable-background="new" version="1.0" viewBox="0 0 256 256" xmlns="http://www.w3.org/2000/svg" xmlns:xlink="http://www.w3.org/1999/xlink"><defs><filter id="b"><feGaussianBlur stdDeviation="0.82000005"/></filter><clipPath id="n"><rect transform="rotate(-45)" x="-14.688" y="17.838" width="30.791" height="30.791" rx="3.0791" ry="3.0791" fill="none" filter="url(#b)" stroke="#000" stroke-dashoffset=".7" stroke-linecap="round" stroke-width="1.0001"/></clipPath><linearGradient id="a"><stop offset="0"/><stop stop-opacity="0" offset="1"/></linearGradient><filter id="k"><feGaussianBlur stdDeviation="0.61500003"/></filter><filter id="m"><feGaussianBlur stdDeviation="1.6523743"/></filter><filter id="l"><feGaussianBlur stdDeviation="2.2191195"/></filter><filter id="j" x="-.34474" y="-.2281" width="1.6895" height="1.4562"><feGaussianBlur stdDeviation="30.602196"/></filter><filter id="i" x="-.31225" y="-.25328" width="1.6245" height="1.5066"><feGaussianBlur stdDeviation="31.925794"/></filter><linearGradient id="h" x1="189" x2="187.23" y1="227.06" y2="14.914" gradientUnits="userSpaceOnUse" xlink:href="#a"/><linearGradient id="g" x1="189" x2="186.29" y1="227.06" y2="33.809" gradientUnits="userSpaceOnUse" xlink:href="#a"/><linearGradient id="f" x1="-3.8747" x2="-23.865" y1="20.506" y2="67.352" gradientUnits="userSpaceOnUse"><stop stop-color="#729fcf" offset="0"/><stop stop-color="#3465a4" offset="1"/></linearGradient><radialGradient id="e" cx="24.795" cy="27.944" r="5.0366" gradientTransform="matrix(1.9687 0 0 3.352 -24.018 -62.184)" gradientUnits="userSpaceOnUse"><stop stop-color="#fff" offset="0"/><stop stop-color="#e1e1e1" offset="1"/></radialGradient><radialGradient id="d" cx="-11.105" cy="45.056" r="14.595" gradientTransform="matrix(2.0966 0 0 2.0966 13.697 -50.926)" gradientUnits="userSpaceOnUse"><stop stop-color="#eee" offset="0"/><stop stop-color="#e9e9e9" offset="1"/></radialGradient><radialGradient id="c" cx="79.377" cy="44.534" r="50.668" gradientTransform="matrix(.47037 0 0 .45236 -15.079 -9.6473)" gradientUnits="userSpaceOnUse"><stop stop-color="#fff" offset="0"/><stop stop-color="#fff" stop-opacity="0" offset="1"/></radialGradient></defs><g transform="translate(-16,-36)"><g transform="matrix(5.5755 0 0 5.5755 6.188 29.775)" enable-background="new"><g transform="translate(0 -.71742)"><path transform="matrix(.13898 0 -.013095 .053478 7.4663 31.317)" d="m144 264c-40.166-58.128-81.481-114.85-136.81-237.95 18.452-49.682 93.269-59.124 128.54-60.433 34.155-0.7594 114.28-34.805 112.28 106.39-21.259 69.793-71.523 141.33-104 192z" display="block" enable-background="new" fill="url(#h)" filter="url(#i)" opacity=".42"/><path transform="matrix(.058958 0 -.0055551 .025093 18.328 39.355)" d="m144 264c-40.166-58.128-70.043-81.937-104-191-25.911-134.71 60.454-106.08 95.721-107.39 34.155-0.7594 101.41-81.393 99.407 59.799-14.285 105.22-58.651 187.92-91.129 238.59z" display="block" enable-background="new" fill="url(#g)" filter="url(#j)" opacity=".5099"/><g transform="matrix(1.0149 0 0 1.0149 .35999 .73149)" clip-path="url(#n)"><rect transform="rotate(-45)" x="-14.688" y="17.838" width="30.791" height="30.791" rx="3.0791" ry="3.0791" fill="url(#f)" filter="url(#b)"/><path d="m26.121 25.828-4.2414 0.0059v-0.5361c-3e-6 -0.5981 0.28947-1.131 0.53017-1.5905 0.2407-0.4668 0.83896-1.0862 1.6121-1.801l0.70022-0.63457c0.41575-0.37928 0.71845-0.73668 0.9081-1.0722 0.19693-0.33551 0.31404-0.67107 0.31404-1.0066-7e-6 -0.51056-0.1937-0.90805-0.5438-1.1925-0.35012-0.29174-0.83881-0.47839-1.4661-0.4784-0.59082 1.4e-5 -1.229 0.16478-1.9147 0.41276-0.68563 0.24071-1.5168 0.69638-2.2608 1.1778v-3.5345c0.7069-0.35345 1.8049-0.88147 2.5343-1.0274 0.72939-0.14586 1.4333-0.2188 2.1116-0.21882 1.7797 1.6e-5 3.1364 0.71816 4.07 1.4475 0.93361 0.72212 1.3573 1.7797 1.3573 3.1728-1.2e-5 0.71482-0.09914 1.3567-0.38359 1.9256-0.28448 0.56164-0.76952 1.167-1.4551 1.8162l-0.70022 0.62363c-0.496 0.45223-0.82058 0.81693-0.97374 1.0941-0.15318 0.26988-0.22977 0.56893-0.22976 0.89716m-0.65324 2.6398c0.31113-0.03111 0.65338 0.32486 0.6845 0.69822v2.1957c0 0.39763-0.30862 0.64059-0.68481 0.64059h-2.8939c-0.30927 0-0.66271-0.30927-0.66271-0.72899v-2.2006c0-0.31114 0.31113-0.60488 0.62227-0.60488" fill="url(#e)"/><path transform="rotate(-45)" d="m-11.594 20.4c-0.34989 0-0.53711 0.1872-0.53711 0.50586v24.656c0 0.31866 0.18722 0.50586 0.53711 0.50586h24.625c0.34989 0 0.50586-0.15597 0.50586-0.50586v-24.656c0-0.34989-0.15597-0.50586-0.50586-0.50586z" fill="none" stroke="url(#d)" stroke-dashoffset=".7" stroke-linecap="round" stroke-width="3.5345"/><rect transform="rotate(-45)" x="-14.688" y="17.838" width="30.791" height="30.791" rx="3.0791" ry="3.0791" fill="none" filter="url(#k)" stroke="#000" stroke-dashoffset=".7" stroke-linecap="round" stroke-width=".53807"/><path transform="matrix(.2685 0 0 .2685 .83889 -1.1059)" d="m85.501 18.318c-3.6106 0-5.9775 2.1672-7.7964 5.4215l-62.762 65.049c-0.91574 1.819-1.2564 5.5093-0.94287 6.2073 0.15913 0.35427 0.21541-2.3155 0.94287-3.0643l63.193-65.049c1.8189-3.2543 3.7554-5.4215 7.366-5.4215 3.6105 0 6.8514 1.794 8.643 5.0483l62.348 63.733c0.43615 0.99206 0.72664 2.0162 0.88398 3.0448 0.30705-2.0345 2e-3 -5.4895-0.88398-7.5041l-62.348-62.417c-1.7917-3.2543-5.0325-5.0483-8.643-5.0483z" enable-background="new" fill="#fff" filter="url(#m)"/><path d="m23.962 4.2808c-0.91859 0-1.3875 0.55137-1.8502 1.3793l-16.703 16.492c-0.48599 0.48599-0.37125 1.166 0.070564 1.5195l6.3753 6.3009 30.877-6.7712s0.15194-0.72798-0.28987-1.1035l-16.635-16.532c-0.45583-0.82797-0.92691-1.2844-1.8455-1.2844z" enable-background="new" fill="url(#c)" opacity=".42"/><path transform="matrix(.17936 0 0 .17936 2.8411 39.206)" d="m80.243-13.443 34.835 31.417c1.916 1.0451 4.6442 0.98847 6.2118-0.3179l40.953-39.011 11-13-13 9.9707-40.341 38.557c-1.2193 1.2193-2.9593 1.6515-4.1786 0.34516l-24.46-22.108z" display="block" enable-background="accumulate" fill="#fff" filter="url(#l)" opacity=".42"/></g></g></g></g></svg>
