<?xml version="1.0" encoding="UTF-8"?>
<svg enable-background="new" version="1.0" viewBox="0 0 256 256" xmlns="http://www.w3.org/2000/svg" xmlns:xlink="http://www.w3.org/1999/xlink"><defs><clipPath id="a"><path d="m-235.76 72h215.51c2.3504 0 4.2426 1.8922 4.2426 4.2426l-1.5e-5 115.76c0 4-4 8-4 8l-40 40s-4 4-8 4h-167.76c-2.3504 0-4.2426-1.8922-4.2426-4.2426v-163.51c0-2.3504 1.8922-4.2426 4.2426-4.2426z" enable-background="new" fill="#eeeeec"/></clipPath><clipPath id="r"><path d="m-555.76 72h215.51c2.3504 0 4.2426 1.8922 4.2426 4.2426l-2e-5 115.76c0 4-4 8-4 8l-40 40s-4 4-8 4h-167.76c-2.3504 0-4.2426-1.8922-4.2426-4.2426v-163.51c0-2.3504 1.8922-4.2426 4.2426-4.2426z" enable-background="new" fill="#eeeeec"/></clipPath><filter id="p"><feGaussianBlur stdDeviation="0.99000005"/></filter><clipPath id="q"><path d="m-235.76 72h215.51c2.3504 0 4.2426 1.8922 4.2426 4.2426l-1.5e-5 115.76c0 4-4 8-4 8l-40 40s-4 4-8 4h-167.76c-2.3504 0-4.2426-1.8922-4.2426-4.2426v-163.51c0-2.3504 1.8922-4.2426 4.2426-4.2426z" enable-background="new" fill="#eeeeec"/></clipPath><filter id="n" x="-.18" y="-.18" width="1.36" height="1.36"><feGaussianBlur stdDeviation="3.9000006"/></filter><filter id="m"><feGaussianBlur stdDeviation="2.9700001"/></filter><filter id="o"><feGaussianBlur stdDeviation="2.3760001"/></filter><radialGradient id="b" cx="-264.09" cy="208" r="100" gradientTransform="matrix(3.3194 -4.9659e-8 2.8657e-8 1.9155 1422.5 -203.43)" gradientUnits="userSpaceOnUse"><stop stop-color="#888a85" offset="0"/><stop stop-color="#2e3436" offset="1"/></radialGradient><linearGradient id="l" x1="175.66" x2="168" y1="223.97" y2="183" gradientUnits="userSpaceOnUse"><stop offset="0"/><stop stop-opacity="0" offset="1"/></linearGradient><linearGradient id="k" x1="-173.01" x2="-213.36" y1="196.84" y2="46.222" gradientTransform="translate(280)" gradientUnits="userSpaceOnUse"><stop offset="0"/><stop stop-opacity="0" offset="1"/></linearGradient><radialGradient id="e" cx="-205.38" cy="194.84" r="112" gradientTransform="matrix(3.6313 -.97301 .12553 .4685 827.06 -113.08)" gradientUnits="userSpaceOnUse"><stop stop-color="#fff" offset="0"/><stop stop-color="#eeeeec" offset="1"/></radialGradient><linearGradient id="j" x1="-35.589" x2="-28.106" y1="195.82" y2="203.3" gradientUnits="userSpaceOnUse"><stop stop-color="#fff" offset="0"/><stop stop-color="#fff" stop-opacity="0" offset="1"/></linearGradient><radialGradient id="d" cx="-234.65" cy="20.163" r="112" gradientTransform="matrix(0 .53925 -3.0198 0 127.4 201.85)" gradientUnits="userSpaceOnUse"><stop stop-color="#fff" offset="0"/><stop stop-color="#fff" stop-opacity="0" offset="1"/></radialGradient><linearGradient id="i" x1="-40.305" x2="-65.439" y1="218.33" y2="193.2" gradientTransform="translate(280)" gradientUnits="userSpaceOnUse"><stop stop-color="#fff" stop-opacity="0" offset="0"/><stop stop-color="#fff" offset=".1407"/><stop stop-color="#fff" stop-opacity="0" offset="1"/></linearGradient><linearGradient id="h" x1="-56" x2="-38.462" y1="206.75" y2="226.17" gradientUnits="userSpaceOnUse"><stop stop-opacity=".21622" offset="0"/><stop offset=".46155"/><stop stop-opacity="0" offset="1"/></linearGradient><linearGradient id="g" x1="-55.25" x2="-38.75" y1="203.5" y2="219.25" gradientUnits="userSpaceOnUse"><stop stop-color="#fff" offset="0"/><stop stop-color="#f9f9f9" offset=".12803"/><stop stop-color="#eeeeec" offset=".3232"/><stop stop-color="#989994" offset=".86811"/><stop stop-color="#bec0bd" offset="1"/></linearGradient><linearGradient id="f" x1="-41.997" x2="-38.925" y1="210.5" y2="213.57" gradientUnits="userSpaceOnUse"><stop stop-color="#fff" offset="0"/><stop stop-color="#fff" stop-opacity="0" offset="1"/></linearGradient><radialGradient id="c" cx="30.041" cy="36.636" r="22" gradientTransform="matrix(6.0498 -2.9538 1.8075 3.702 -62.775 117.91)" gradientUnits="userSpaceOnUse"><stop stop-color="#fff" offset="0"/><stop stop-color="#fff" stop-opacity="0" offset="1"/></radialGradient></defs><g transform="translate(-424 -36)"><g transform="translate(400)"><path d="m44.243 74h215.51c2.3504 0 4.2426 1.8922 4.2426 4.2426l-1e-5 115.76c0 4-4 8-4 8l-40 40s-4 4-8 4h-167.76c-2.3504 0-4.2426-1.8922-4.2426-4.2426v-163.51c0-2.3504 1.8922-4.2426 4.2426-4.2426z" enable-background="new" fill="url(#l)" filter="url(#m)" opacity=".8"/><path d="m44.243 72h215.51c2.3504 0 4.2426 1.8922 4.2426 4.2426l-2e-5 115.76c0 4-4 8-4 8l-40 40s-4 4-8 4h-167.76c-2.3504 0-4.2426-1.8922-4.2426-4.2426v-163.51c0-2.3504 1.8922-4.2426 4.2426-4.2426z" enable-background="new" fill="url(#k)" filter="url(#o)" opacity=".7"/><path d="m44.243 72h215.51c2.3504 0 4.2426 1.8922 4.2426 4.2426l-2e-5 115.76c0 4-4 8-4 8l-40 40s-4 4-8 4h-167.76c-2.3504 0-4.2426-1.8922-4.2426-4.2426v-163.51c0-2.3504 1.8922-4.2426 4.2426-4.2426z" enable-background="new" fill="url(#e)"/><path transform="translate(600)" d="m-555.76 72h215.51c2.3504 0 4.2426 1.8922 4.2426 4.2426l-2e-5 115.76c0 4-4 8-4 8l-40 40s-4 4-8 4h-167.76c-2.3504 0-4.2426-1.8922-4.2426-4.2426v-163.51c0-2.3504 1.8922-4.2426 4.2426-4.2426z" clip-path="url(#r)" enable-background="new" fill="none" filter="url(#p)" stroke="#babdb6" stroke-dashoffset=".5" stroke-linecap="round" stroke-width="2"/><path transform="translate(280)" d="m-235.75 73.768c-1.398 0-2.4824 1.0845-2.4824 2.4824v163.5c0 1.398 1.0844 2.4824 2.4824 2.4824h167.75c1.4107 0 3.1704-0.8037 4.5195-1.7031 1.3491-0.89943 2.2305-1.7793 2.2305-1.7793l40-40s0.87987-0.88133 1.7793-2.2305c0.89943-1.3491 1.7031-3.1088 1.7031-4.5195v-115.75c0-1.398-1.0845-2.4824-2.4824-2.4824z" enable-background="new" fill="none" stroke="url(#j)" stroke-dashoffset=".5" stroke-linecap="round" stroke-width="1.5"/></g><path d="m452 84v148h171.12l28.875-28.875v-119.12z" enable-background="new" fill="url(#b)"/><g transform="translate(390)" enable-background="new"><path d="m54.25 72c-2.3504 0-4.25 1.8996-4.25 4.25v84.75h224v-84.75c0-2.3504-1.8996-4.25-4.25-4.25z" enable-background="new" fill="url(#d)" opacity=".67568"/><g transform="translate(10)" enable-background="new"><path d="m141.41 139.84v102.75h70.594c1.5286 0 3.3394-0.86171 4.7188-1.7812s2.2812-1.8125 2.2812-1.8125l40-40s0.89296-0.90194 1.8125-2.2812 1.7812-3.1902 1.7812-4.7188v-52.156z" enable-background="new" fill="url(#i)" opacity=".4"/><path transform="translate(280)" d="m-62 207c0-3 1-4 4-4 0 0 28 1 28 1 4 0 16-2 16-10v52h-54c8 0 8-12 8-16z" clip-path="url(#q)" enable-background="new" fill="url(#h)" filter="url(#n)"/><g transform="translate(270)"><g><path transform="translate(10)" d="m-56.25 209.5c0.875-3.375 3.8019-3.9446 6.75-4.5l17.25-3.25c6.5862-1.2349 16.25-3.75 16.25-11.75v54h-54c8 0 9-8.75 10.25-14.5z" clip-path="url(#a)" fill="url(#g)"/><path transform="translate(9.875,1)" d="m-17.875 190c0 8-10.46 10.528-14.479 10.963 0 0-18.53 2.7045-18.53 2.7045-4.1875 1.125-5.2241 2.1982-5.9741 5.4482l-3.3598 18.884c-0.625 4.375-0.94792 16.375-8.7812 16.375l3.6562-0.75c4.9762-2.9543 5.0938-10.948 5.8438-14.5l4.0089-18.655c0.72855-2.0947 2.3232-3.1679 5.1161-4.2197 0 0 17.985-3.8447 17.985-3.8447 3.4268-0.35355 10.805-3.213 13.89-7.9991z" clip-path="url(#a)" enable-background="new" fill="url(#f)"/></g></g><path d="m45.906 75c-2.138 0-3.9062 1.7683-3.9062 3.9062v136.56l220-98.906v-37.656c0-2.138-1.7683-3.9062-3.9062-3.9062z" enable-background="new" fill="url(#c)" opacity=".34483"/></g></g></g></svg>
