<?xml version="1.0" encoding="UTF-8"?>
<svg version="1.0" viewBox="0 0 256 256" xmlns="http://www.w3.org/2000/svg" xmlns:xlink="http://www.w3.org/1999/xlink"><defs><linearGradient id="b"><stop offset="0"/><stop stop-opacity="0" offset="1"/></linearGradient><filter id="as" x="-.16294" y="-2.3897" width="1.3259" height="5.7795" color-interpolation-filters="sRGB"><feGaussianBlur stdDeviation="11.948684"/></filter><filter id="ar" x="-.093476" y="-1.094" width="1.187" height="3.188" color-interpolation-filters="sRGB"><feGaussianBlur stdDeviation="8.257079"/></filter><filter id="ad" color-interpolation-filters="sRGB"><feGaussianBlur stdDeviation="2.43"/></filter><clipPath id="aw"><path d="m36 19c-0.56266 0-1 0.43734-1 1v217c0 0.56266 0.43734 1 1 1h184c0.56266 0 1-0.43734 1-1v-171c0-13.558-10.858-25.296-16.281-30.719-5.4231-5.4231-17.161-16.281-30.719-16.281z" fill="url(#linearGradient6013) #000000" fill-rule="evenodd"/></clipPath><filter id="ak" color-interpolation-filters="sRGB"><feGaussianBlur stdDeviation="2.025"/></filter><linearGradient id="a"><stop stop-color="#fff" offset="0"/><stop stop-color="#fff" stop-opacity="0" offset="1"/></linearGradient><filter id="al" x="-.10594" y="-.11513" width="1.2119" height="1.2303" color-interpolation-filters="sRGB"><feGaussianBlur stdDeviation="3.0222701"/></filter><mask id="x" maskUnits="userSpaceOnUse"><path d="m36-31c-0.56266 0-1 0.43734-1 1v217c0 0.56266 0.43734 1 1 1h184c0.56266 0 1-0.43734 1-1v-171c0-13.558-12.858-23.296-18.281-28.719-5.4231-5.4231-15.161-18.281-28.719-18.281z" fill="#fff" fill-rule="evenodd"/></mask><filter id="aj" x="-.24138" y="-.24138" width="1.4828" height="1.4828" color-interpolation-filters="sRGB"><feGaussianBlur stdDeviation="4.7270115"/></filter><filter id="ai" color-interpolation-filters="sRGB"><feGaussianBlur stdDeviation="0.27169794"/></filter><filter id="ah" x="-.13103" y="-.13103" width="1.2621" height="1.2621" color-interpolation-filters="sRGB"><feGaussianBlur stdDeviation="2.566092"/></filter><filter id="ag" color-interpolation-filters="sRGB"><feGaussianBlur stdDeviation="0.30732727"/></filter><filter id="af" x="-.031646" y="-.10174" width="1.0633" height="1.2035" color-interpolation-filters="sRGB"><feGaussianBlur stdDeviation="0.35931052"/></filter><clipPath id="au"><path d="m456.99 951.96c-0.55661 0-0.98925 0.44748-0.98925 1.0232v222.03c0 0.5756 0.43264 1.0231 0.98925 1.0231h182.02c0.55661 0 0.98925-0.4475 0.98925-1.0231v-174.96c0-13.872-10.741-25.882-16.106-31.431-5.3648-5.5487-16.977-16.658-30.389-16.658z" fill="#808080"/></clipPath><clipPath id="av"><circle transform="translate(-8,-8)" cx="556" cy="1068" r="44" fill="#555753"/></clipPath><filter id="aq" color-interpolation-filters="sRGB"><feGaussianBlur stdDeviation="0.89"/></filter><filter id="d" color-interpolation-filters="sRGB"><feGaussianBlur stdDeviation="0.89191478"/></filter><filter id="ap" color-interpolation-filters="sRGB"><feGaussianBlur stdDeviation="2.2"/></filter><filter id="ao" color-interpolation-filters="sRGB"><feGaussianBlur stdDeviation="0.9346788"/></filter><filter id="an" color-interpolation-filters="sRGB"><feGaussianBlur stdDeviation="0.59954691"/></filter><filter id="am" x="-.18" y="-.18" width="1.36" height="1.36" color-interpolation-filters="sRGB"><feGaussianBlur stdDeviation="6.6"/></filter><radialGradient id="w" cx="556" cy="1063.7" r="44" gradientTransform="matrix(1.1597 -2.1891e-7 2.3075e-7 1.2224 -88.777 -237.95)" gradientUnits="userSpaceOnUse"><stop stop-color="#babdb6" offset="0"/><stop stop-color="#888a85" offset=".62351"/><stop stop-color="#2e3436" offset=".80543"/><stop stop-color="#fff" offset="1"/></radialGradient><radialGradient id="v" cx="534" cy="1036" r="44" gradientTransform="matrix(1.989 0 0 1.989 -528.14 -1024.6)" gradientUnits="userSpaceOnUse"><stop stop-color="#fff" offset="0"/><stop stop-color="#fff" stop-opacity="0" offset="1"/></radialGradient><radialGradient id="u" cx="562.8" cy="1106.7" r="44.596" gradientTransform="matrix(2.6154 0 0 1.4833 -909.47 -534.89)" gradientUnits="userSpaceOnUse"><stop stop-color="#fff" offset="0"/><stop stop-color="#2e3436" offset="1"/></radialGradient><radialGradient id="t" cx="544.38" cy="1048.4" r="44" gradientTransform="matrix(1.7787 0 0 1.7787 -423.9 -816.39)" gradientUnits="userSpaceOnUse"><stop stop-color="#fff" offset="0"/><stop stop-color="#babdb6" offset="1"/></radialGradient><radialGradient id="s" cx="551.72" cy="1052.9" r="44" gradientTransform="matrix(.90781 0 0 .90781 51.017 99.075)" gradientUnits="userSpaceOnUse"><stop stop-color="#888a85" offset="0"/><stop stop-color="#2e3436" offset="1"/></radialGradient><radialGradient id="r" cx="556" cy="1115.4" r="44" gradientTransform="matrix(.70874 0 0 .24934 161.94 820.47)" gradientUnits="userSpaceOnUse"><stop stop-color="#fff" offset="0"/><stop stop-color="#fff" stop-opacity="0" offset="1"/></radialGradient><radialGradient id="q" cx="543.43" cy="1035" r="44" gradientTransform="matrix(3.6835 -1.1087e-6 1.8575e-7 1.4933 -1459.8 -509.09)" gradientUnits="userSpaceOnUse"><stop stop-color="#fff" offset="0"/><stop stop-color="#fff" stop-opacity="0" offset="1"/></radialGradient><linearGradient id="c" x1="443.5" x2="524.5" y1="161.97" y2="90.971" gradientUnits="userSpaceOnUse" xlink:href="#b"/><linearGradient id="ac" x1="409.26" x2="674.74" y1="1184.7" y2="919.26" gradientUnits="userSpaceOnUse" xlink:href="#b"/><filter id="ae"><feGaussianBlur stdDeviation="2.4"/></filter><clipPath id="at"><rect transform="matrix(1.0178 0 0 1.1291 -9.8321 -137.4)" x="432" y="944" width="240" height="240" fill="url(#y)" filter="url(#ae)"/></clipPath><linearGradient id="y" x1="534" x2="559" y1="1077" y2="875.76" gradientTransform="matrix(1.0714 0 0 1 -35.143 -1)" gradientUnits="userSpaceOnUse"><stop stop-color="#fff" offset="0"/><stop offset="1"/></linearGradient><linearGradient id="ab" x1="84" x2="-104.07" y1="200.5" y2="-127.99" gradientUnits="userSpaceOnUse"><stop offset="0"/><stop stop-opacity="0" offset="1"/></linearGradient><radialGradient id="p" cx="-80.661" cy="88.983" r="18" gradientTransform="matrix(25.306 2.1794e-6 -1.0731e-6 12.46 2199.2 -911.49)" gradientUnits="userSpaceOnUse"><stop stop-color="#fff" offset="0"/><stop stop-color="#d3d7cf" offset="1"/></radialGradient><radialGradient id="o" cx="128.59" cy="116.47" r="92.902" gradientTransform="matrix(3.5967 -.28529 .17691 2.2303 -355.12 -121.58)" gradientUnits="userSpaceOnUse"><stop stop-color="#fff" offset="0"/><stop stop-color="#fff" stop-opacity="0" offset="1"/></radialGradient><radialGradient id="n" cx="36" cy="45.297" r="84.203" gradientTransform="matrix(0 2.7411 -1.8799 0 120.78 -78.804)" gradientUnits="userSpaceOnUse"><stop stop-color="#fff" offset="0"/><stop stop-color="#fff" stop-opacity="0" offset="1"/></radialGradient><radialGradient id="m" cx="127.75" cy="261.27" r="92.25" gradientTransform="matrix(1.663 0 0 .34037 -84.702 148.57)" gradientUnits="userSpaceOnUse" xlink:href="#a"/><radialGradient id="l" cx="20.48" cy="31.231" r="93" gradientTransform="matrix(0 1.0485 -3.8781 0 165.49 13.855)" gradientUnits="userSpaceOnUse"><stop stop-color="#fff" offset="0"/><stop stop-color="#fff" stop-opacity="0" offset="1"/></radialGradient><radialGradient id="k" cx="127.75" cy="236.25" r="92.25" gradientTransform="matrix(1.5709 0 0 1.1159 -53.057 .95481)" gradientUnits="userSpaceOnUse" xlink:href="#a"/><radialGradient id="j" cx="210.96" cy="38.58" r="34.234" gradientTransform="matrix(1.0442 0 0 .96082 -12.745 6.3495)" gradientUnits="userSpaceOnUse"><stop offset="0"/><stop stop-opacity="0" offset="1"/></radialGradient><radialGradient id="i" cx="196.36" cy="44.213" r="23.763" gradientTransform="matrix(1 0 0 .98931 0 .47264)" gradientUnits="userSpaceOnUse"><stop offset="0"/><stop stop-opacity="0" offset="1"/></radialGradient><linearGradient id="aa" x1="190.98" x2="196.45" y1="52.973" y2="39.564" gradientTransform="translate(-1.5 2.5214)" gradientUnits="userSpaceOnUse"><stop offset="0"/><stop stop-opacity="0" offset="1"/></linearGradient><radialGradient id="h" cx="190.88" cy="49.25" r="23.5" gradientTransform="matrix(1.4473 0 0 1.4473 -85.751 -21.529)" gradientUnits="userSpaceOnUse"><stop stop-color="#fff" offset="0"/><stop stop-color="#fff" stop-opacity="0" offset="1"/></radialGradient><radialGradient id="g" cx="192.25" cy="45.75" r="23.5" gradientTransform="matrix(.5972 -.4509 1.7045 2.2575 -.54025 29.158)" gradientUnits="userSpaceOnUse"><stop stop-color="#fff" offset="0"/><stop stop-color="#e6e6e6" offset=".44761"/><stop stop-color="#cbcbcb" offset=".81268"/><stop stop-color="#dbdbdb" offset="1"/></radialGradient><radialGradient id="f" cx="186.77" cy="27.786" r="8.9714" gradientTransform="matrix(2.1152 0 0 2.9279 -207.44 -53.617)" gradientUnits="userSpaceOnUse"><stop stop-color="#fff" offset="0"/><stop stop-color="#fff" stop-opacity="0" offset="1"/></radialGradient><radialGradient id="e" cx="208.68" cy="39.762" r="13.625" gradientTransform="matrix(.99733 .072992 -.11677 1.5955 5.1997 -29.524)" gradientUnits="userSpaceOnUse"><stop stop-color="#fff" offset="0"/><stop stop-color="#fff" stop-opacity="0" offset="1"/></radialGradient><linearGradient id="z" x1="189.25" x2="189.25" y1="23.662" y2="43.888" gradientUnits="userSpaceOnUse"><stop stop-color="#fff" offset="0"/><stop stop-color="#fff" stop-opacity="0" offset="1"/></linearGradient></defs><g transform="translate(-424 -936)"><g><g clip-path="url(#at)"><g transform="translate(0 904)" fill="url(#c)"><rect transform="matrix(1.1875 0 0 .625 372.25 116)" x="60" y="244" width="176" height="12" rx="30.842" ry="6" fill="#000" filter="url(#as)" opacity=".3"/><rect transform="matrix(.88797 0 0 .18573 434.71 228.96)" x="22.995" y="223.44" width="211" height="18.114" rx="4.9924" ry="9.0572" fill="#000" fill-rule="evenodd" filter="url(#ar)" opacity=".8"/><path transform="matrix(.98925 0 0 1.0129 401.72 .5305)" d="m55.872 47.328c-0.56266 0-1 0.43734-1 1l-1.0109 217c0 0.56266 0.43734 1 1 1h186.02c0.56266 0 1-0.43734 1-1l-1.0109-171c0-13.558-10.858-25.296-16.281-30.719-5.4231-5.4231-17.161-16.281-30.719-16.281z" fill="url(#ab)" fill-rule="evenodd" filter="url(#ad)" opacity=".7"/><g transform="matrix(.98925 0 0 1.0232 401.72 .044255)"><g fill="url(#c)"><g transform="translate(19.872 27.828)"><path d="m36 19c-0.56266 0-1 0.43734-1 1v217c0 0.56266 0.43734 1 1 1h184c0.56266 0 1-0.43734 1-1v-171c0-13.558-10.858-25.296-16.281-30.719-5.4231-5.4231-17.161-16.281-30.719-16.281z" fill="url(#p)"/><path d="m36.591 19.704c-0.55904 0-0.99357 0.43453-0.99357 0.99357v215.61c0 0.55904 0.43453 0.99357 0.99357 0.99357h182.82c0.55904 0 0.99357-0.43453 0.99357-0.99357v-169.9c0-13.471-10.788-25.133-16.177-30.521-5.3882-5.3882-17.051-16.177-30.521-16.177z" fill="none" stroke="url(#o)" stroke-dashoffset=".7" stroke-linecap="round" stroke-width=".99397"/><path d="m36 19c-0.56266 0-1 0.43734-1 1v217c0 0.56266 0.43734 1 1 1h184c0.56266 0 1-0.43734 1-1v-171c0-13.558-10.858-25.296-16.281-30.719-5.4231-5.4231-17.161-16.281-30.719-16.281z" clip-path="url(#aw)" fill="none" filter="url(#ak)" opacity=".072289" stroke="#000" stroke-dashoffset=".7" stroke-linecap="round" stroke-width=".99397"/><path d="m36.625 19.875c-0.56266 0-1 0.43734-1 1v217c0 0.56266 0.43734 1 1 1v-217c0-0.56266 0.43734-1 1-1h138c11.863 0 22.341 8.3199 28.406 14.031-5.8462-5.6773-16.801-15.031-29.406-15.031z" fill="url(#n)" fill-rule="evenodd"/><rect x="35.5" y="186.25" width="184.5" height="51.25" rx="1.0156" ry="1.0156" fill="url(#m)" fill-rule="evenodd" opacity=".56024"/></g><path d="m55.875 46.812c-0.56266-1e-6 -1 0.43734-1 1v88.188h186v-42.188c-1e-5 -13.558-10.858-25.296-16.281-30.719-5.4231-5.4231-17.161-16.281-30.719-16.281z" fill="url(#l)"/></g><rect x="55.372" y="263.83" width="184.5" height="1.5" rx="1.0156" ry="1.0156" fill="url(#k)" fill-rule="evenodd"/></g></g><g clip-path="url(#au)" fill="url(#ac)" opacity=".2"><rect x="456" y="1120" width="28" height="28"/><rect x="456" y="1064" width="28" height="28"/><rect x="484" y="1008" width="28" height="28"/><rect x="456" y="952" width="28" height="28"/><rect x="484" y="1148" width="28" height="28"/><rect x="484" y="1092" width="28" height="28"/><rect x="484" y="1036" width="28" height="28"/><rect x="456" y="980" width="28" height="28"/><rect x="512" y="1148" width="32" height="28"/><rect x="544" y="1036" width="32" height="28"/><rect x="512" y="1008" width="32" height="28"/><rect x="512" y="952" width="32" height="28"/><rect x="544" y="1148" width="32" height="28"/><rect x="512" y="1092" width="32" height="28"/><rect x="576" y="1064" width="32" height="28"/><rect x="544" y="980" width="32" height="28"/><rect x="576" y="1120" width="32" height="28"/><rect x="608" y="1064" width="32" height="28"/><rect x="576" y="1008" width="32" height="28"/><rect x="576" y="980" width="32" height="28"/><rect x="608" y="1148" width="32" height="28"/><rect x="608" y="1092" width="32" height="28"/><rect x="608" y="1036" width="32" height="28"/><rect x="608" y="980" width="32" height="28"/></g><g transform="translate(400 907.93)" fill-rule="evenodd"><g transform="matrix(.98925 0 0 1.0232 21.376 24.59)"><path transform="matrix(.76048 0 0 .87302 56.123 8.4826)" d="m162 24c-2.7302 0-5.4062 0.18108-8.0312 0.5625-3.1702 5.9491-4.9688 12.73-4.9688 19.938 0 23.46 19.04 42.5 42.5 42.5 9.7773 0 18.785-3.3191 25.969-8.875-0.73575-29.997-25.296-54.125-55.469-54.125z" fill="url(#j)" filter="url(#al)" opacity=".16868"/><path transform="translate(0,50)" d="m174-31c13.558 0 22.308 11.846 27.731 17.269s19.269 16.173 19.269 29.731c0-13.558-20.111-8.6028-26.192-8.6028-0.6357 0-1.2268-0.51769-1.1502-1.1502 2.5084-20.705-6.1006-37.247-19.658-37.247z" filter="url(#aj)" mask="url(#x)" opacity=".37952"/><path d="m172.59 20.722c24.827-0.87083 48.543 30.546 47.5 47 0-13.558-7.491-16.365-29.984-16.365-0.6357 0-1.1502-0.51307-1.1502-1.1502 0-22.493-2.8077-29.484-16.365-29.484z" fill="url(#i)" filter="url(#ai)" opacity=".42771"/><path d="m171.45 22.448c13.558 0 25.308 10.846 30.731 16.269s16.269 17.173 16.269 30.731c0-13.558-6.991-16.365-29.484-16.365-0.6357 0-1.1502-0.51307-1.1502-1.1502 0-22.493-2.8077-29.484-16.365-29.484z" fill="url(#aa)" filter="url(#ah)" opacity=".27711"/><path d="m173.12 19.75c13.558 0 25.308 10.846 30.731 16.269s16.269 17.173 16.269 30.731c0-13.558-6.991-16.365-29.484-16.365-0.6357 0-1.1502-0.51307-1.1502-1.1502 0-22.493-2.8077-29.484-16.365-29.484z" fill="url(#h)"/><path d="m174 19c13.558 0 25.308 10.846 30.731 16.269s16.269 17.173 16.269 30.731c0-13.558-6.991-16.365-29.484-16.365-0.6357 0-1.1502-0.51307-1.1502-1.1502 0-22.493-2.8077-29.484-16.365-29.484z" fill="url(#g)"/><path d="m174.13 19.031c15.481 1.0337 16.019 13.643 16.263 26.517-0.74413-7.7303 1.374-15.978-4.2426-22.627 4.5078 1.5017 9.8111 5.7816 14.938 9.1924-5.4964-4.8666-14.015-13.001-26.958-13.081z" fill="url(#f)" filter="url(#ag)"/><path d="m219.38 57.625c-3.971-8.9-17.43-7.2964-27.25-8 9.9276-0.23867 24.598-2.9842 27.25 8z" fill="url(#e)" filter="url(#af)"/></g><path transform="matrix(.98925 0 0 1.0232 21.376 24.59)" d="m174 19c13.558 0 25.308 10.846 30.731 16.269s16.269 17.173 16.269 30.731c0-13.558-6.991-16.365-29.484-16.365-0.6357 0-1.1502-0.51307-1.1502-1.1502 0-22.493-2.8077-29.484-16.365-29.484z" fill="url(#z)"/></g></g><g><circle transform="translate(-7,-6)" cx="556" cy="1068" r="44" filter="url(#am)" opacity=".5"/><circle transform="translate(-7,-6)" cx="556" cy="1068" r="44" filter="url(#ap)" opacity=".5"/></g><g clip-path="url(#av)"><circle transform="translate(-8,-8)" cx="556" cy="1068" r="44" fill="url(#w)"/><circle transform="translate(-8,-8)" cx="556" cy="1068" r="44" fill="url(#v)"/><circle transform="translate(-8,-8)" cx="556" cy="1068" r="44" fill="none" filter="url(#aq)" stroke="#000" stroke-linecap="round" stroke-linejoin="round"/><circle transform="matrix(.83929 0 0 .83929 81.353 163.63)" cx="556" cy="1068" r="44" fill="none" filter="url(#d)" stroke="url(#u)" stroke-linecap="round" stroke-linejoin="round" stroke-width="2.383"/></g><circle transform="matrix(.8052 0 0 .8052 100.31 200.04)" cx="556" cy="1068" r="44" fill="none" filter="url(#d)" stroke="#2e3436" stroke-linecap="round" stroke-linejoin="round" stroke-width="2.4838"/><circle transform="matrix(.81746 0 0 .81746 93.491 186.95)" cx="556" cy="1068" r="44" fill="url(#t)"/><path d="m536.75 1040c-0.25857 0.031-0.51011 0.1114-0.75 0.25-0.95956 0.554-1.2809 1.7762-0.71875 2.75l9.2812 16.031c-0.34164 0.5891-0.56249 1.2704-0.5625 2 0 2.208 1.7921 4 4 4 1.0954 0 2.0586-0.4734 2.7812-1.1875h0.0313l25.656 6.875c1.0702 0.2868 2.1507-0.3359 2.4375-1.4063 0.28677-1.0702-0.33603-2.1507-1.4062-2.4374l-25.656-6.875c-0.45507-1.709-1.9922-2.9688-3.8438-2.9688l-9.25-16.031c-0.42161-0.7303-1.2243-1.0932-2-1z" filter="url(#ao)"/><rect transform="rotate(45)" x="1136.5" y="329.04" width="1" height="33.5" rx=".5" ry=".5" fill="#2e3436"/><rect transform="rotate(45)" x="1137.9" y="330.45" width="1" height="33.5" rx=".5" ry=".5" filter="url(#an)" opacity=".5"/><g transform="rotate(105,548,1060)"><rect x="546" y="1028" width="4" height="34" rx="2" ry="2" fill="#babdb6"/></g><g transform="matrix(.86603 -.5 .38235 .66225 -331.64 632.42)"><rect x="546" y="1028" width="4" height="34" rx="2" ry="2.6538" fill="#babdb6"/></g><circle transform="matrix(.090908 0 0 .090908 497.46 962.91)" cx="556" cy="1068" r="44" fill="url(#s)"/><g opacity=".2"><g transform="rotate(-90,548,1059.5)"><rect transform="rotate(90)" x="1058.5" y="-581.5" width="2" height="7" rx="1" ry="1"/><rect transform="rotate(90)" x="1058.5" y="-520.5" width="2" height="7" rx="1" ry="1"/></g><g transform="translate(.5 .5)"><rect transform="rotate(90)" x="1058.5" y="-581.5" width="2" height="7" rx="1" ry="1"/><rect transform="rotate(90)" x="1058.5" y="-520.5" width="2" height="7" rx="1" ry="1"/></g></g><g opacity=".3"><g transform="rotate(-30 548.68 1058.8)"><rect transform="rotate(90)" x="1058.5" y="-581.5" width="2" height="2" rx="1" ry="1"/><rect transform="rotate(90)" x="1058.5" y="-515.5" width="2" height="2" rx="1" ry="1"/></g><g transform="rotate(-60 548.18 1059.3)"><rect transform="rotate(90)" x="1058.5" y="-581.5" width="2" height="2" rx="1" ry="1"/><rect transform="rotate(90)" x="1058.5" y="-515.5" width="2" height="2" rx="1" ry="1"/></g><g transform="matrix(1,0,0,-1,0,2120)"><g transform="rotate(-30 548.68 1058.8)"><rect transform="rotate(90)" x="1058.5" y="-581.5" width="2" height="2" rx="1" ry="1"/><rect transform="rotate(90)" x="1058.5" y="-515.5" width="2" height="2" rx="1" ry="1"/></g><g transform="rotate(-60 548.18 1059.3)"><rect transform="rotate(90)" x="1058.5" y="-581.5" width="2" height="2" rx="1" ry="1"/><rect transform="rotate(90)" x="1058.5" y="-515.5" width="2" height="2" rx="1" ry="1"/></g></g></g><g><circle transform="matrix(.81746 0 0 .81746 93.491 186.95)" cx="556" cy="1068" r="44" fill="url(#r)" opacity=".5"/><circle transform="matrix(.56818 0 0 .36526 232.09 653.4)" cx="556" cy="1068" r="44" fill="url(#q)"/></g></g></g></svg>
