<?xml version="1.0" encoding="UTF-8"?>
<svg enable-background="new" version="1.0" viewBox="0 0 256 256" xmlns="http://www.w3.org/2000/svg" xmlns:xlink="http://www.w3.org/1999/xlink"><defs><radialGradient id="l" cx="99.477" cy="14.743" r="29.131" gradientTransform="matrix(10.711 7.7826e-8 -2.2954e-8 3.1592 -894.54 42.424)" gradientUnits="userSpaceOnUse"><stop stop-color="#f6f6f5" offset="0"/><stop stop-color="#e1e1dd" offset=".6022"/><stop stop-color="#ccccc6" offset="1"/></radialGradient><clipPath id="h"><rect x="68.784" y="-.093301" width="58.261" height="58.261" rx="2.6482" ry="2.6482" enable-background="accumulate" fill="none" opacity=".74257" stroke="#000" stroke-width=".52965px"/></clipPath><filter id="g" color-interpolation-filters="sRGB"><feGaussianBlur stdDeviation="0.28282197"/></filter><radialGradient id="o" cx="105.2" cy="-.36554" r="29.403" gradientTransform="matrix(3.5399 0 0 3.5072 -267.19 1.1887)" gradientUnits="userSpaceOnUse"><stop stop-color="#fff" offset="0"/><stop stop-color="#fff" stop-opacity="0" offset="1"/></radialGradient><radialGradient id="b" cx="157.34" cy="30.799" r="1.0312" gradientUnits="userSpaceOnUse" xlink:href="#ap"/><linearGradient id="ap"><stop stop-color="#fff" offset="0"/><stop stop-color="#b4b4b4" offset="1"/></linearGradient><linearGradient id="t" x1="-2.2416" x2="-5.4761" y1="35.848" y2="26.519" gradientUnits="userSpaceOnUse"><stop stop-color="#878983" offset="0"/><stop stop-color="#d4d4d3" offset="1"/></linearGradient><clipPath id="av"><path d="m-6.5625 24.531c-0.38774 0-0.69169 0.21848-0.90625 0.46875l-0.03125-0.03125-0.03125 0.0625-0.34375 0.3125-4.25 1.2188c-0.03226 0.0071-0.06369 0.01756-0.09375 0.03125-0.54891 0.27446-0.90203 0.55405-1.0938 0.9375s-0.11652 0.86642 0.125 1.1562c0.32808 0.39369 0.85761 0.55239 1.4062 0.65625l-0.40625 0.4375c-0.05629 0.05141-0.0992 0.11577-0.125 0.1875-0.03135 0.12138-0.0699 0.31579-0.125 0.5-0.01612 0.04003-0.02664 0.08209-0.03125 0.125v6.6562c0 0.29887 0.11323 0.58168 0.3125 0.8125s0.51087 0.40625 0.875 0.40625h7.8438c0.32363 0 0.65689-0.11579 0.90625-0.375l4.6562-4.8125c0.22588-0.2348 0.34375-0.53965 0.34375-0.875v-6.625c0-0.33535-0.11787-0.6402-0.34375-0.875-0.22366-0.22912-0.55136-0.375-0.875-0.375z" enable-background="new" fill="none" stroke="#555753" stroke-dashoffset=".7" stroke-linecap="round" stroke-linejoin="round" stroke-width=".25138"/></clipPath><filter id="as" color-interpolation-filters="sRGB"><feGaussianBlur stdDeviation="0.1491362"/></filter><radialGradient id="r" cx="14.363" cy="34.786" r="8.7946" gradientTransform="matrix(1 0 0 .68844 0 10.838)" gradientUnits="userSpaceOnUse"><stop offset="0"/><stop stop-opacity="0" offset="1"/></radialGradient><filter id="au" x="-.39496" y="-.57371" width="1.7899" height="2.1474" color-interpolation-filters="sRGB"><feGaussianBlur stdDeviation="2.8946329"/></filter><linearGradient id="ac" x1="4.3566" x2=".82207" y1="58.888" y2="54.416" gradientTransform="matrix(1.0224 0 0 1.0224 .049378 -1.3018)" gradientUnits="userSpaceOnUse"><stop stop-color="#e6e7e5" offset="0"/><stop stop-color="#a5a79f" offset=".2782"/><stop stop-color="#c7c9c3" offset=".78266"/><stop stop-color="#fff" offset="1"/></linearGradient><linearGradient id="ao" x1="-4.2209" x2="-4.2209" y1="59.879" y2="54.708" gradientTransform="matrix(.96429 0 0 .97222 -.25 1.6944)" gradientUnits="userSpaceOnUse" xlink:href="#e"/><linearGradient id="e"><stop stop-color="#fff" offset="0"/><stop stop-color="#d3d7cf" offset="1"/></linearGradient><linearGradient id="an" x1="-1.9887" x2="-3.3588" y1="51.138" y2="54" gradientTransform="translate(-4,-24)" gradientUnits="userSpaceOnUse"><stop offset="0"/><stop stop-opacity="0" offset="1"/></linearGradient><linearGradient id="ab" x1="-4.1556" x2="-4.1556" y1="37.149" y2="29.992" gradientUnits="userSpaceOnUse"><stop stop-color="#fff" offset="0"/><stop stop-color="#fff" stop-opacity="0" offset="1"/></linearGradient><filter id="ar" color-interpolation-filters="sRGB"><feGaussianBlur stdDeviation="0.071069152"/></filter><linearGradient id="am" x1="-4.6846" x2=".88388" y1="52.64" y2="50.563" gradientTransform="translate(-4,-24)" gradientUnits="userSpaceOnUse"><stop stop-color="#eeeeec" offset="0"/><stop stop-color="#babdb6" offset="1"/></linearGradient><linearGradient id="al" x1="-5.0823" x2=".26517" y1="50.519" y2="49.458" gradientTransform="translate(-4,-24)" gradientUnits="userSpaceOnUse"><stop stop-color="#eeeeec" offset="0"/><stop stop-color="#fff" offset="1"/></linearGradient><linearGradient id="ak" x1="-5.9688" x2="-5.9688" y1="52.875" y2="51.812" gradientTransform="translate(-4,-24)" gradientUnits="userSpaceOnUse"><stop stop-color="#888a85" offset="0"/><stop stop-color="#fff" offset="1"/></linearGradient><linearGradient id="aj" x1="-3.5355" x2="-3.5355" y1="55.867" y2="59.445" gradientTransform="matrix(1 0 0 1.0286 -4 -25.143)" gradientUnits="userSpaceOnUse"><stop stop-color="#555753" offset="0"/><stop stop-color="#d3d7cf" offset="1"/></linearGradient><linearGradient id="ad" x1="-97.155" x2="-96.715" y1="153.01" y2="149.24" gradientUnits="userSpaceOnUse"><stop stop-color="#4d4d4d" stop-opacity=".16043" offset="0"/><stop stop-color="#181818" offset="1"/></linearGradient><linearGradient id="ai" x1="37.625" x2="39.629" y1="40.312" y2="49.839" gradientTransform="translate(-109.99 113.28)" gradientUnits="userSpaceOnUse"><stop stop-color="#729fcf" offset="0"/><stop stop-color="#729fcf" stop-opacity="0" offset="1"/></linearGradient><linearGradient id="ah" x1="41.188" x2="42.124" y1="38.312" y2="42.938" gradientTransform="translate(-109.99 113.28)" gradientUnits="userSpaceOnUse" xlink:href="#c"/><linearGradient id="c"><stop stop-color="#fff" offset="0"/><stop stop-color="#fff" stop-opacity="0" offset="1"/></linearGradient><filter id="d" color-interpolation-filters="sRGB"><feGaussianBlur stdDeviation="0.16679387"/></filter><linearGradient id="ag" x1="-4.1098" x2="-4.1098" y1="58.808" y2="55" gradientTransform="matrix(1.125 0 0 1.1667 -94.115 79.141)" gradientUnits="userSpaceOnUse" xlink:href="#e"/><linearGradient id="af" x1="-6.4062" x2="-7.7812" y1="32.438" y2="34.562" gradientTransform="translate(-89.99 113.28)" gradientUnits="userSpaceOnUse"><stop offset="0"/><stop stop-opacity="0" offset="1"/></linearGradient><clipPath id="aw"><path d="m-95.303 143.84s-4.1894 3.2677-8.0938 6.5c-1.9522 1.6162-3.6981 3.221-4.7188 4.7812-0.51035 0.7801-0.98712 1.6232-0.65625 2.7812 0.16543 0.57901 0.61139 1.1212 1.0938 1.4062s0.95815 0.40623 1.5 0.46875c2.1239 0.24506 4.731-0.39359 7.8438-1.2812 3.1128-0.88766 6.6692-2.0824 10.25-3.25s7.1964-2.3061 10.344-3 5.8351-0.88497 7.375-0.5c0.72893 0.18223 0.74555 0.30082 0.75 0.3125 0.0044 0.0117 0.06458 0.33543-0.21875 0.9375-0.56665 1.2041-2.2451 3.1165-4.1875 4.9375-3.8847 3.6419-8.8438 7.125-8.8438 7.125l1.75 2.4375s5.041-3.5169 9.1562-7.375c2.0576-1.929 3.8792-3.8916 4.8125-5.875 0.46667-0.99168 0.7768-2.1132 0.34375-3.25s-1.5414-1.8697-2.8125-2.1875c-2.4601-0.61503-5.4442-0.2045-8.7812 0.53125s-7.0183 1.8551-10.625 3.0312-7.1284 2.3955-10.125 3.25c-2.9123 0.83049-5.2979 1.2201-6.4688 1.125 0.61993-0.94761 2.2959-2.5537 4.1562-4.0938 3.7206-3.0802 7.9688-6.375 7.9688-6.375z" fill="none" stroke="#204a87" stroke-linejoin="round"/></clipPath><mask id="s" maskUnits="userSpaceOnUse"><rect x="-115.57" y="147.01" width="51.281" height="17.345" rx=".66571" ry=".66571" enable-background="accumulate" fill="url(#ae)" fill-rule="evenodd"/></mask><linearGradient id="ae" x1="44" x2="44" y1="180.5" y2="242.52" gradientTransform="matrix(.25138 0 0 .25138 -123.36 103.52)" gradientUnits="userSpaceOnUse"><stop offset="0"/><stop stop-color="#fff" offset=".21768"/><stop stop-color="#fff" offset=".7659"/><stop offset="1"/></linearGradient><filter id="at" color-interpolation-filters="sRGB"><feGaussianBlur stdDeviation="0.24373953"/></filter><radialGradient id="q" cx="-73.928" cy="146.24" r="20.138" gradientTransform="matrix(1 0 0 .55708 0 68.77)" gradientUnits="userSpaceOnUse" xlink:href="#c"/><radialGradient id="p" cx="-101.21" cy="162.92" r="20.138" gradientTransform="matrix(.41351 0 0 .23036 -62.745 120.75)" gradientUnits="userSpaceOnUse" xlink:href="#c"/><radialGradient id="n" cx="211.38" cy="217.37" r="21.625" gradientTransform="matrix(1 0 0 1.0405 -4 8.0882)" gradientUnits="userSpaceOnUse" xlink:href="#f"/><linearGradient id="f"><stop stop-color="#e6e7e5" offset="0"/><stop stop-color="#e6e7e5" stop-opacity="0" offset="1"/></linearGradient><radialGradient id="m" cx="207.4" cy="217.16" r="21.625" gradientTransform="matrix(-.75475 0 0 -.78529 235.91 382.03)" gradientUnits="userSpaceOnUse" xlink:href="#f"/><radialGradient id="k" cx="99.223" cy="38.566" r="11.366" gradientTransform="matrix(1.9342 0 0 2.1266 -109.64 -21.131)" gradientUnits="userSpaceOnUse"><stop stop-color="#4d4d4d" offset="0"/><stop offset="1"/></radialGradient><linearGradient id="aa" x1="30.312" x2="30.312" y1="27.313" y2="24.688" gradientTransform="matrix(1 0 0 2.2579 58.186 -1.726)" gradientUnits="userSpaceOnUse" xlink:href="#a"/><linearGradient id="a"><stop stop-color="#edd400" offset="0"/><stop stop-color="#edd400" stop-opacity="0" offset="1"/></linearGradient><linearGradient id="z" x1="30.312" x2="30.312" y1="27.313" y2="24.688" gradientTransform="matrix(1 0 0 2.2579 58.319 -1.726)" gradientUnits="userSpaceOnUse" xlink:href="#a"/><linearGradient id="y" x1="30.312" x2="30.312" y1="27.313" y2="24.688" gradientTransform="matrix(1 0 0 2.2579 56.432 -1.726)" gradientUnits="userSpaceOnUse" xlink:href="#a"/><linearGradient id="x" x1="30.312" x2="30.312" y1="27.313" y2="24.688" gradientTransform="matrix(1 0 0 2.2579 49.712 -1.726)" gradientUnits="userSpaceOnUse" xlink:href="#a"/><linearGradient id="w" x1="30.312" x2="30.312" y1="27.313" y2="24.688" gradientTransform="matrix(1 0 0 2.2579 49.877 -1.726)" gradientUnits="userSpaceOnUse" xlink:href="#a"/><linearGradient id="v" x1="30.312" x2="30.312" y1="27.313" y2="24.688" gradientTransform="matrix(1 0 0 2.2579 49.943 -1.726)" gradientUnits="userSpaceOnUse" xlink:href="#a"/><linearGradient id="u" x1="30.312" x2="30.312" y1="27.313" y2="24.688" gradientTransform="matrix(1 0 0 2.2579 50.043 -1.726)" gradientUnits="userSpaceOnUse" xlink:href="#a"/><filter id="aq" x="-.23457" y="-.042527" width="1.4691" height="1.0851" color-interpolation-filters="sRGB"><feGaussianBlur stdDeviation="0.09773745"/></filter><radialGradient id="j" cx="84.119" cy="49.951" r="12.953" gradientTransform="matrix(2.2881 -9.785e-8 6.801e-8 1.5903 -108.36 -28.416)" gradientUnits="userSpaceOnUse"><stop stop-color="#fff" offset="0"/><stop stop-color="#c6c6c6" offset="1"/></radialGradient></defs><g transform="translate(-18,-35)"><rect x="116" y="63" width="110" height="110" rx="5" ry="5" enable-background="accumulate" fill="url(#l)" fill-rule="evenodd"/><rect transform="matrix(1.888 0 0 1.888 -13.868 63.176)" x="68.784" y="-.093301" width="58.261" height="58.261" rx="2.6482" ry="2.6482" clip-path="url(#h)" enable-background="accumulate" fill="none" filter="url(#g)" opacity=".35326" stroke="#000" stroke-width="1.0593"/><rect transform="matrix(1.8537 0 0 1.8197 -10.507 66.133)" x="68.784" y="-.093301" width="58.261" height="58.261" rx="2.6482" ry="2.6977" clip-path="url(#h)" enable-background="accumulate" fill="none" filter="url(#g)" stroke="url(#o)" stroke-width="1.0889"/><g transform="matrix(1.888 0 0 1.888 -13.868 65.176)" fill-rule="evenodd"><circle transform="matrix(.78645 0 0 .78645 -51.996 -21.121)" cx="157.34" cy="31.094" r="1.0312" enable-background="accumulate" fill="#fff"/><circle transform="matrix(.78645 0 0 .78645 -51.996 -21.617)" cx="157.34" cy="31.094" r="1.0312" enable-background="accumulate" fill="url(#b)"/></g><g transform="matrix(1.888 0 0 1.888 84.132 65.176)" fill-rule="evenodd"><circle transform="matrix(.78645 0 0 .78645 -51.996 -21.121)" cx="157.34" cy="31.094" r="1.0312" enable-background="accumulate" fill="#fff"/><circle transform="matrix(.78645 0 0 .78645 -51.996 -21.617)" cx="157.34" cy="31.094" r="1.0312" enable-background="accumulate" fill="url(#b)"/></g><path transform="matrix(4.0253 0 0 4.0253 129.01 54.335)" d="m-6.5625 24.531c-0.38774 0-0.69169 0.21848-0.90625 0.46875l-0.03125-0.03125-0.03125 0.0625-0.34375 0.3125-4.25 1.2188c-0.03226 0.0071-0.06369 0.01756-0.09375 0.03125-0.54891 0.27446-0.90203 0.55405-1.0938 0.9375s-0.11652 0.86642 0.125 1.1562c0.32808 0.39369 0.85761 0.55239 1.4062 0.65625l-0.40625 0.4375c-0.05629 0.05141-0.0992 0.11577-0.125 0.1875-0.03135 0.12138-0.0699 0.31579-0.125 0.5-0.01612 0.04003-0.02664 0.08209-0.03125 0.125v6.6562c0 0.29887 0.11323 0.58168 0.3125 0.8125s0.51087 0.40625 0.875 0.40625h7.8438c0.32363 0 0.65689-0.11579 0.90625-0.375l4.6562-4.8125c0.22588-0.2348 0.34375-0.53965 0.34375-0.875v-6.625c0-0.33535-0.11787-0.6402-0.34375-0.875-0.22366-0.22912-0.55136-0.375-0.875-0.375z" clip-path="url(#av)" enable-background="new" fill="#7d7d7d" fill-rule="evenodd" filter="url(#as)" stroke="url(#t)" stroke-dashoffset=".7" stroke-linecap="round" stroke-linejoin="round" stroke-width=".49686"/><g transform="matrix(1.888 0 0 1.888 -13.868 161.18)" fill-rule="evenodd"><circle transform="matrix(.78645 0 0 .78645 -51.996 -21.121)" cx="157.34" cy="31.094" r="1.0312" enable-background="accumulate" fill="#fff" opacity=".54348"/><circle transform="matrix(.78645 0 0 .78645 -51.996 -21.617)" cx="157.34" cy="31.094" r="1.0312" enable-background="accumulate" fill="url(#b)"/></g><g transform="matrix(1.888 0 0 1.888 84.132 161.18)" fill-rule="evenodd"><circle transform="matrix(.78645 0 0 .78645 -51.996 -21.121)" cx="157.34" cy="31.094" r="1.0312" enable-background="accumulate" fill="#fff" opacity=".55978"/><circle transform="matrix(.78645 0 0 .78645 -51.996 -21.617)" cx="157.34" cy="31.094" r="1.0312" enable-background="accumulate" fill="url(#b)"/></g><g transform="matrix(3.9781 0 0 3.9781 486.74 -394.8)"><ellipse transform="matrix(1.156 0 0 1.5112 -107.71 93.869)" cx="14.363" cy="34.786" rx="8.7946" ry="6.0546" fill="url(#r)" fill-rule="evenodd" filter="url(#au)" opacity=".15347"/><g transform="translate(-89.99 113.28)"><g transform="matrix(1.1667 0 0 1.2 -3.8333 -36.2)" fill-rule="evenodd"><path d="m-2.347 50.843c-0.20937 0-0.38971 0.10351-0.51122 0.25561l-4.1058 4.0898c-0.035795 0.13476-0.10134 0.27743-0.14378 0.41537v5.6447c0 0.37172 0.30317 0.67098 0.67098 0.67098h6.8376c0.1839 0 0.35927-0.07043 0.47927-0.19171l4.0898-4.0898c0.12-0.12128 0.19171-0.29341 0.19171-0.47927v-5.6447c0-0.18586-0.071707-0.35799-0.19171-0.47927-0.12177-0.12128-0.29537-0.19171-0.47927-0.19171z" fill="url(#ac)"/><path d="m-6.3739 55.167h6.462c0.34688 0 0.62614 0.28456 0.62614 0.63802v5.3906c0 0.35346-0.27926 0.63802-0.62614 0.63802h-6.462c-0.34688 0-0.62614-0.28456-0.62614-0.63802v-5.3906c0-0.35346 0.27926-0.63802 0.62614-0.63802z" fill="url(#ao)"/></g><path d="m-5 25-5 5h4l5-5h-4" fill="url(#an)" fill-rule="evenodd" opacity=".12313"/><path d="m-1 25-9.5 4h3.5l5-3 1-1" fill="#babdb6" fill-rule="evenodd"/><path transform="matrix(1.0124 0 0 1.0124 .067589 -.38931)" d="m-6.6447 25.049c-0.025623 0-0.058719 0.0069-0.16799 0.13439-0.032267 0.02434-0.065923 0.04677-0.1008 0.0672-0.021366 0.02341-0.043788 0.04583-0.067198 0.0672-0.021366 0.02341-0.043788 0.04583-0.067198 0.0672h-0.033599c-0.021366 0.02341-0.043788 0.04583-0.067198 0.0672l-0.20159 0.20159c-0.11487 0.10789-0.25273 0.1883-0.40319 0.23519l-4.5695 1.3104c-0.4306 0.22402-0.57418 0.37558-0.63838 0.50398-9.57e-4 0.0019 0.03657 0.14469 0 0.1008 0.088 0.1056 0.38746 0.2712 0.90717 0.36959 0.36544 0.07405 0.66344 0.33778 0.78135 0.69152 0.11791 0.35374 0.03776 0.74352-0.21017 1.022l-0.36959 0.40319c-0.02131 0.09415-0.05789 0.18287-0.1008 0.33599-8e-3 0.0286 0.0088 0.03787 0 0.0672v6.9886c0 0.05826 4.03e-4 0.12422 0.0672 0.20159 0.03386 0.03922 0.11101 0.0672 0.168 0.0672h8.4333c0.09953 0 0.1811-0.01096 0.23519-0.0672-1.806e-4 -0.0112-1.806e-4 -0.0224 0-0.0336l5.0062-5.1742c0.056108-0.05832 0.067198-0.08509 0.067198-0.20159v-7.123c0-0.11649-0.011087-0.17686-0.067198-0.23519-0.039593-0.04056-0.16663-0.0672-0.20159-0.0672h-8.3997z" fill="none" filter="url(#ar)" opacity=".53358" stroke="url(#ab)" stroke-dashoffset=".7" stroke-linecap="round" stroke-linejoin="round" stroke-width=".26697"/><path d="m-1 25-11 2.5 2 1.5h3l5-3 1-1" fill="url(#am)" fill-rule="evenodd"/><path d="m-5 25-7 2h4l7-2h-4" fill="url(#al)" fill-rule="evenodd"/><path d="m-12 27h4c-2 1-0.5 2 1 2h-4c-1.5 0-3-1-1-2z" fill="url(#ak)" fill-rule="evenodd"/><path d="m-9.5942 32h4.1883c0.22483 0 0.40583 0.19512 0.40583 0.4375v3.125c0 0.24238-0.181 0.4375-0.40583 0.4375h-4.1883c-0.22483 0-0.40583-0.19512-0.40583-0.4375v-3.125c0-0.24238 0.181-0.4375 0.40583-0.4375z" fill="url(#aj)" fill-rule="evenodd"/></g><path d="m-95.207 149.27-1.2569 2.4509h-3.5193l2.011-2.4509z" enable-background="accumulate" fill="url(#ad)" fill-rule="evenodd" opacity=".2337"/><path d="m-95.303 143.84s-4.1894 3.2677-8.0938 6.5c-1.9522 1.6162-3.6981 3.221-4.7188 4.7812-0.51035 0.7801-0.98712 1.6232-0.65625 2.7812 0.16543 0.57901 0.61139 1.1212 1.0938 1.4062s0.95815 0.40623 1.5 0.46875c2.1239 0.24506 4.731-0.39359 7.8438-1.2812 3.1128-0.88766 6.6692-2.0824 10.25-3.25s7.1964-2.3061 10.344-3 5.8351-0.88497 7.375-0.5c0.72893 0.18223 0.74555 0.30082 0.75 0.3125 0.0044 0.0117 0.06458 0.33543-0.21875 0.9375-0.56665 1.2041-2.2451 3.1165-4.1875 4.9375-3.8847 3.6419-8.8438 7.125-8.8438 7.125l1.75 2.4375s5.041-3.5169 9.1562-7.375c2.0576-1.929 3.8792-3.8916 4.8125-5.875 0.46667-0.99168 0.7768-2.1132 0.34375-3.25s-1.5414-1.8697-2.8125-2.1875c-2.4601-0.61503-5.4442-0.2045-8.7812 0.53125s-7.0183 1.8551-10.625 3.0312-7.1284 2.3955-10.125 3.25c-2.9123 0.83049-5.2979 1.2201-6.4688 1.125 0.61993-0.94761 2.2959-2.5537 4.1562-4.0938 3.7206-3.0802 7.9688-6.375 7.9688-6.375z" fill="url(#ai)" fill-rule="evenodd"/><path d="m-94.318 144.55s-18.437 12.688-11.937 13.438c6.5 0.75 28-10 36-8s-12 16-12 16" fill="none" filter="url(#d)" opacity=".1903" stroke="url(#ah)" stroke-width="1px"/><path d="m-99.901 143.31 0.31748 2h4.1875c0.22483 0 0.40625 0.19512 0.40625 0.4375v3.125l2-0.3125v-4.4688c0-0.42416-0.31405-0.78125-0.71875-0.78125z" fill="url(#ag)" fill-rule="evenodd"/><path d="m-99.584 145.28h4.1883c0.22483 0 0.40583 0.19512 0.40583 0.4375v3.125c0 0.24238-0.181 0.4375-0.40583 0.4375h-4.1883c-0.22483 0-0.40583-0.19512-0.40583-0.4375v-3.125c0-0.24238 0.181-0.4375 0.40583-0.4375z" fill="url(#af)" fill-rule="evenodd" opacity=".35448"/><path d="m-95.303 143.84s-4.1894 3.2677-8.0938 6.5c-1.9522 1.6162-3.6981 3.221-4.7188 4.7812-0.51035 0.7801-0.98712 1.6232-0.65625 2.7812 0.16543 0.57901 0.61139 1.1212 1.0938 1.4062s0.95815 0.40623 1.5 0.46875c2.1239 0.24506 4.731-0.39359 7.8438-1.2812 3.1128-0.88766 6.6692-2.0824 10.25-3.25s7.1964-2.3061 10.344-3 5.8351-0.88497 7.375-0.5c0.72893 0.18223 0.74555 0.30082 0.75 0.3125 0.0044 0.0117 0.06458 0.33543-0.21875 0.9375-0.56665 1.2041-2.2451 3.1165-4.1875 4.9375-3.8847 3.6419-8.8438 7.125-8.8438 7.125l1.75 2.4375s5.041-3.5169 9.1562-7.375c2.0576-1.929 3.8792-3.8916 4.8125-5.875 0.46667-0.99168 0.7768-2.1132 0.34375-3.25s-1.5414-1.8697-2.8125-2.1875c-2.4601-0.61503-5.4442-0.2045-8.7812 0.53125s-7.0183 1.8551-10.625 3.0312-7.1284 2.3955-10.125 3.25c-2.9123 0.83049-5.2979 1.2201-6.4688 1.125 0.61993-0.94761 2.2959-2.5537 4.1562-4.0938 3.7206-3.0802 7.9688-6.375 7.9688-6.375z" clip-path="url(#aw)" fill="none" filter="url(#at)" mask="url(#s)" opacity=".4802" stroke="#204a87" stroke-linejoin="round" stroke-width=".50276"/><path d="m-94.318 144.55s-18.437 12.688-11.937 13.438c6.5 0.75 28-10 36-8s-12 16-12 16" fill="none" filter="url(#d)" stroke="url(#q)" stroke-width="1px"/><path d="m-94.318 144.55s-18.437 12.688-11.937 13.438c6.5 0.75 28-10 36-8s-12 16-12 16" fill="none" filter="url(#d)" stroke="url(#p)" stroke-width="1px"/></g><path d="m177.25 259.75c16.09-13.97 35.225-26.066 43.25-45-12.391 17.026-28.417 30.416-43.25 45z" enable-background="accumulate" fill="url(#n)" fill-rule="evenodd"/><path d="m105.56 192.92c-12.012 7.3196-34.308 18.705-43.363 37.168 13.31-16.317 28.386-25.892 43.363-37.168z" enable-background="accumulate" fill="url(#m)" fill-rule="evenodd" opacity=".52717"/><g transform="matrix(1.888 0 0 1.888 18.132 25.176)" fill="none"><path id="i" d="m77.405 35.89c-0.34636 0-0.62423 0.27787-0.62423 0.62423v3.6839h-4.6959c-0.65394 0-1.1775 0.52358-1.1775 1.1775v18.33c0 0.65394 0.52358 1.1775 1.1775 1.1775h20.377c0.65394 0 1.1775-0.52358 1.1775-1.1775v-18.33c0-0.65394-0.52358-1.1775-1.1775-1.1775h-4.5635v-3.6839c0-0.34636-0.27787-0.62423-0.62423-0.62423z" enable-background="accumulate" fill="url(#k)" fill-rule="evenodd"/><path d="m84.686 58.109v-4.5158" stroke="url(#aa)" stroke-linecap="round" stroke-width="1px"/><path d="m86.819 58.109v-4.5158" stroke="url(#z)" stroke-linecap="round" stroke-width="1px"/><path d="m88.932 58.109v-4.5158" stroke="url(#y)" stroke-linecap="round" stroke-width="1px"/><path d="m76.212 58.109v-4.5158" stroke="url(#x)" stroke-linecap="round" stroke-width="1px"/><path d="m78.377 58.109v-4.5158" stroke="url(#w)" stroke-linecap="round" stroke-width="1px"/><path d="m80.443 58.109v-4.5158" stroke="url(#v)" stroke-linecap="round" stroke-width="1px"/><path d="m82.543 58.109v-4.5158" filter="url(#aq)" stroke="url(#u)" stroke-linecap="round" stroke-width="1px"/><path d="m77.404 35.594c-0.50404 0-0.91992 0.41588-0.91992 0.91992v3.3867h-4.3984c-0.81204 0-1.4746 0.66256-1.4746 1.4746v18.33c0 0.81204 0.66256 1.4746 1.4746 1.4746h20.377c0.81204 0 1.4746-0.66256 1.4746-1.4746v-18.33c0-0.81205-0.66257-1.4746-1.4746-1.4746h-4.2676v-3.3867c0-0.50404-0.41588-0.91992-0.91992-0.91992z" enable-background="accumulate" stroke="url(#j)" stroke-width=".52965" xlink:href="#i"/></g></g></svg>
