<?xml version="1.0" encoding="UTF-8"?>
<svg enable-background="new" version="1.0" viewBox="0 0 256 256" xmlns="http://www.w3.org/2000/svg" xmlns:xlink="http://www.w3.org/1999/xlink"><defs><radialGradient id="a" cx="99.569" cy="50.223" r="104.65" gradientTransform="matrix(2.0798 -.019111 .0087453 .95171 -108.07 5.696)" gradientUnits="userSpaceOnUse"><stop stop-color="#ffd519" offset="0"/><stop stop-color="#ffd519" stop-opacity="0" offset="1"/></radialGradient><filter id="d"><feGaussianBlur stdDeviation="1.6456225"/></filter><linearGradient id="c" x1="84.366" x2="84.366" y1="167.66" y2="10.211" gradientUnits="userSpaceOnUse"><stop stop-color="#ac8c00" offset="0"/><stop stop-color="#f2c500" offset="1"/></linearGradient></defs><g transform="translate(-20,-330)"><g><path transform="translate(1,5)" d="m148.34 354.49-28.863 69.686-75.176 6.1387 57.355 48.982-17.391 73.395 64.309-39.412 64.428 39.221-17.609-73.342 57.209-49.154-75.193-5.9141z" enable-background="new" fill="none" filter="url(#d)" opacity=".26749" stroke="#000" stroke-width="5" xlink:href="#b"/><g enable-background="new"><path id="b" transform="translate(49,375)" d="m164 177.5-64.427-39.22-64.31 39.412 17.392-73.393-57.356-48.984 75.176-6.1391 28.862-69.685 29.069 69.599 75.193 5.9159-57.21 49.154z" color="#000000" enable-background="new" fill="none" stroke="url(#c)" stroke-width="5"/><path transform="translate(49,375)" d="m164 177.5-64.427-39.22-64.31 39.412 17.392-73.393-57.356-48.984 75.176-6.1391 28.862-69.685 29.069 69.599 75.193 5.9159-57.21 49.154z" enable-background="new" fill="none" stroke="url(#a)"/></g></g></g></svg>
