<?xml version="1.0" encoding="UTF-8"?>
<svg enable-background="new" version="1.0" viewBox="0 0 256 256" xmlns="http://www.w3.org/2000/svg" xmlns:xlink="http://www.w3.org/1999/xlink"><defs><filter id="j" x="-.14641" y="-.1442" width="1.2928" height="1.2884"><feGaussianBlur stdDeviation="12.688964"/></filter><radialGradient id="c" cx="21.791" cy="11.443" r="19.875" gradientTransform="matrix(7.3169 0 0 13.917 -27.24 -75.317)" gradientUnits="userSpaceOnUse"><stop stop-color="#fff" offset="0"/><stop stop-color="#eeeeec" offset=".18483"/><stop stop-color="#b3b6af" offset=".54472"/><stop stop-color="#5b6255" offset=".68284"/><stop stop-color="#bcbfb9" offset=".84865"/><stop stop-color="#e0e3de" offset="1"/></radialGradient><filter><feGaussianBlur stdDeviation="0.89250709"/></filter><linearGradient id="g" x1="189" x2="189" y1="227.06" y2="118.23" gradientUnits="userSpaceOnUse"><stop offset="0"/><stop stop-opacity="0" offset="1"/></linearGradient><linearGradient id="f" x1="248" x2="47.299" y1="130.94" y2="78.147" gradientTransform="matrix(-1,0,0,1,288,0)" gradientUnits="userSpaceOnUse"><stop stop-color="#d3d7cf" offset="0"/><stop stop-color="#6f706d" offset=".16984"/><stop stop-color="#f6f6f5" offset=".54393"/><stop stop-color="#555753" offset="1"/></linearGradient><clipPath id="m"><path d="m144 44c-39.344 29.923-104 48-104 48 15.948 138.17 104 170 104 170s88.052-31.829 104-170c0 0-64.656-18.077-104-48z" display="block" enable-background="new" fill="#b3b3b3"/></clipPath><filter id="l"><feGaussianBlur stdDeviation="1.07"/></filter><linearGradient id="e" x1="159" x2="107" y1="251" y2="54.5" gradientUnits="userSpaceOnUse"><stop offset="0"/><stop stop-color="#888a85" offset="1"/></linearGradient><filter id="k"><feGaussianBlur stdDeviation="1.1571687"/></filter><radialGradient id="b" cx="117.99" cy="150.23" r="102.67" gradientTransform="matrix(1.0097 .068178 -.17036 2.523 24.444 -241.08)" gradientUnits="userSpaceOnUse"><stop stop-color="#fff" offset="0"/><stop stop-color="#eeeeec" offset=".76297"/><stop stop-color="#888a85" offset="1"/></radialGradient><radialGradient id="a" cx="92.313" cy="136.71" r="37.812" gradientTransform="matrix(1.2553 -.024405 .05315 2.7337 -37.447 -262.4)" gradientUnits="userSpaceOnUse"><stop stop-color="#fff" offset="0"/><stop stop-color="#fff" stop-opacity="0" offset="1"/></radialGradient><filter id="i" x="-.18615" y="-.088538" width="1.3723" height="1.1771"><feGaussianBlur stdDeviation="5.865625"/></filter><linearGradient id="d" x1="153.5" x2="153.5" y1="226.5" y2="197.5" gradientTransform="matrix(1.1861 0 0 1 -26.801 0)" gradientUnits="userSpaceOnUse"><stop stop-color="#fff" offset="0"/><stop stop-color="#fff" stop-opacity="0" offset="1"/></linearGradient><filter id="h" x="-.12304" y="-.11711" width="1.2461" height="1.2342"><feGaussianBlur stdDeviation="8.0617188"/></filter></defs><g transform="translate(-16 -28)"><path transform="matrix(.77491 0 -.073013 .29817 49.703 189.28)" d="m144 264c-42.583-28.173-93.883-65.532-104-191 33.577-14.89 68.67-18.878 103.94-20.188 34.155-0.7594 69.135 8.7065 104.06 19.188-4.3636 121.56-62.413 171.29-104 192z" display="block" enable-background="new" fill="url(#g)" filter="url(#j)" opacity=".25"/><g clip-path="url(#m)" enable-background="new"><path d="m144 44c-39.344 29.923-104 48-104 48 15.948 138.17 104 170 104 170s88.052-31.829 104-170c0 0-64.656-18.077-104-48z" display="block" enable-background="new" fill="url(#c)"/><path d="m143.53 34.781c-1.8584 0.09356-3.645 0.74719-5.125 1.875-36.895 28.06-100.88 46.469-100.88 46.469-4.3702 1.2164-7.2064 5.4309-6.6875 9.9375 8.1866 70.925 35.19 115.53 60.469 142.09 25.279 26.566 49.562 35.5 49.562 35.5 2.0198 0.72762 4.2302 0.72762 6.25 0 0 0 24.283-8.9338 49.562-35.5s52.282-71.169 60.469-142.09c0.5189-4.5066-2.3173-8.7211-6.6875-9.9375 0 0-63.98-18.409-100.88-46.469-1.7353-1.3226-3.8835-1.987-6.0625-1.875zm0.46875 19.875c34.282 24.111 78.795 38.819 94.281 43.5-8.6975 62.933-32.605 101.58-54.562 124.66-17.931 18.843-33.648 27.029-39.719 29.75-6.071-2.7206-21.788-10.907-39.719-29.75-21.957-23.075-45.865-61.723-54.562-124.66 15.486-4.6806 59.999-19.389 94.281-43.5z" display="block" enable-background="new" fill="url(#f)" filter="url(#k)"/><path d="m246.66 92.765s-63.841-17.943-102.36-47.243c-0.12076-0.09667-0.27999-0.13079-0.42975-0.09211-0.0672 0.01734-0.12998 0.04873-0.18418 0.09211-29.78 22.628-75.94 39.581-102.37 47.249 7.8442 67.973 33.477 110.2 57.126 135.06 23.649 24.858 45.4 32.729 45.4 32.729 0.0997 0.0328 0.20728 0.0328 0.30697 0 0 0 21.751-7.8709 45.4-32.729s49.267-67.095 57.111-135.07zm-102.66-45.252c38.411 29.066 100.34 45.952 101.6 46.306-7.878 67.53-33.293 108.67-56.758 133.34-23.273 24.463-44.414 31.281-44.847 31.439-0.43294-0.15804-21.574-6.9765-44.847-31.439-23.465-24.664-48.879-65.809-56.758-133.34 1.2608-0.35393 63.194-17.239 101.6-46.306z" clip-path="none" display="block" enable-background="new" fill="url(#b)"/><path d="m144 44c-39.344 29.923-104 48-104 48 15.948 138.17 104 170 104 170s88.052-31.829 104-170c0 0-64.656-18.077-104-48z" display="block" enable-background="new" fill="none" filter="url(#l)" stroke="url(#e)" stroke-linecap="round" stroke-linejoin="round"/></g><path d="m144 74.781c-26.582 16.799-56.118 28.38-75.625 35 9.5342 51.369 29.829 82.435 48 101.53 11.46 12.043 21.054 18.675 27.625 22.469z" display="block" enable-background="new" fill="url(#a)" filter="url(#i)"/><path d="m82.531 187c8.0773 11.095 16.614 20.114 24.844 27.406 15.586 13.809 28.55 20.787 36.625 24.438 8.0747-3.6505 21.039-10.629 36.625-24.438 8.2301-7.2919 16.766-16.312 24.844-27.406z" display="block" enable-background="new" fill="url(#d)" filter="url(#h)" opacity=".7"/></g></svg>
