<?xml version="1.0" encoding="UTF-8"?>
<svg enable-background="new" version="1.0" viewBox="0 0 256 256" xmlns="http://www.w3.org/2000/svg" xmlns:xlink="http://www.w3.org/1999/xlink"><defs><pattern id="n" xlink:href="#o" patternTransform="matrix(0 1.9807 -1.9807 0 -216.99 210.04)"/><pattern id="o" xlink:href="#an" patternTransform="matrix(0 1.9807 -1.9807 0 -216.99 210.04)"/><pattern id="an" width="2" height="1" patternTransform="translate(0) scale(10)" patternUnits="userSpaceOnUse"><rect y="-.5" width="1" height="2" fill="#fff"/></pattern><linearGradient id="y"><stop stop-color="#eeeeec" offset="0"/><stop stop-color="#eeeeec" stop-opacity="0" offset="1"/></linearGradient><linearGradient id="g"><stop stop-color="#ffe925" offset="0"/><stop stop-color="#cbb500" offset="1"/></linearGradient><linearGradient id="p"><stop stop-color="#fff" offset="0"/><stop stop-color="#fff" stop-opacity="0" offset="1"/></linearGradient><linearGradient id="q"><stop stop-color="#c9b400" offset="0"/><stop stop-color="#edd400" offset="1"/></linearGradient><filter id="h" x="-.20491" y="-.13988" width="1.4098" height="1.2798"><feGaussianBlur stdDeviation="0.34151836"/></filter><filter id="al" x="-.012597" y="-.25329" width="1.0252" height="1.5066"><feGaussianBlur stdDeviation="0.82478531"/></filter><filter id="ak"><feGaussianBlur stdDeviation="0.36265625"/></filter><filter id="aj"><feGaussianBlur stdDeviation="0.34887323"/></filter><filter id="ai"><feGaussianBlur stdDeviation="1.3131541"/></filter><mask id="e" maskUnits="userSpaceOnUse"><path d="m-214 198v17.625c0 2.4239-2.1185 4.3752-4.75 4.3752s-4.75-1.9514-4.75-4.3752v-17.625z" enable-background="accumulate" fill="url(#n)" opacity=".50213"/></mask><filter id="ah"><feGaussianBlur stdDeviation="0.42974063"/></filter><filter id="ag"><feGaussianBlur stdDeviation="0.42782927"/></filter><filter id="af" x="-.084721" y="-.24085" width="1.1694" height="1.4817"><feGaussianBlur stdDeviation="0.4390493"/></filter><filter id="ae"><feGaussianBlur stdDeviation="0.99109401"/></filter><linearGradient id="x" x1="136.5" x2="228.62" y1="42.158" y2="43.908" gradientTransform="translate(0,1)" gradientUnits="userSpaceOnUse" spreadMethod="reflect"><stop stop-color="#eeeeec" offset="0"/><stop stop-color="#eeeeec" stop-opacity=".74468" offset=".43103"/><stop stop-color="#eeeeec" stop-opacity=".098" offset="1"/></linearGradient><linearGradient id="w" x1="20.894" x2="27.489" y1="24.67" y2="24.67" gradientTransform="matrix(7.938 0 0 5.2359 -45.186 24.806)" gradientUnits="userSpaceOnUse"><stop stop-color="#ef2929" offset="0"/><stop stop-color="#c00" offset="1"/></linearGradient><radialGradient id="m" cx="37.23" cy="25.455" r="9.5823" gradientTransform="matrix(-4.5382e-7 -4.3249 4.7999 1.3064e-7 22.76 241.45)" gradientUnits="userSpaceOnUse"><stop stop-color="#ecd300" offset="0"/><stop stop-color="#e9d000" offset=".8491"/><stop stop-color="#ccb600" offset="1"/></radialGradient><linearGradient id="v" x1="20.875" x2="33.312" y1="12.812" y2="12.812" gradientTransform="translate(0,-1)" gradientUnits="userSpaceOnUse"><stop stop-color="#fff" offset="0"/><stop stop-color="#fff" stop-opacity="0" offset="1"/></linearGradient><linearGradient id="u" x1="138.34" x2="153.2" y1="67.078" y2="142" gradientUnits="userSpaceOnUse"><stop stop-color="#fff" offset="0"/><stop stop-color="#fff" stop-opacity="0" offset="1"/></linearGradient><radialGradient id="d" cx="24.976" cy="25.602" r="9.5823" gradientTransform="matrix(-.030011 5.6349 25.683 .13675 -874.27 45.764)" gradientUnits="userSpaceOnUse" xlink:href="#q"/><linearGradient id="f" x1="-223.5" x2="-214" y1="209" y2="209" gradientUnits="userSpaceOnUse" xlink:href="#y"/><radialGradient id="c" cx="-245.8" cy="190.77" r="6" gradientTransform="matrix(1 0 0 .91667 0 16.125)" gradientUnits="userSpaceOnUse" xlink:href="#g"/><radialGradient id="a" cx="-246" cy="190.77" r="6" gradientTransform="matrix(1 0 0 .91667 0 16.125)" gradientUnits="userSpaceOnUse" xlink:href="#g"/><radialGradient id="b" cx="24" cy="32.17" r="2" gradientTransform="matrix(19.694 0 0 2.5787 -448.65 -49.19)" gradientUnits="userSpaceOnUse" xlink:href="#p"/><clipPath id="am"><path d="m59.382 76.365c9.2372 46.039 11.103 92.066-1.3483 139.74-1.1032 4.224-1.877 7.7508 0.67415 10.08 0 0 43.112 41.344 84.943 41.814 42.308 0.47519 82.362-40.47 82.362-40.47 3.5729-3.1506 2.8454-6.9442 2.0225-10.752-10.337-34.647-7.2084-100.9 0.67414-163.97 1.1974-5.5668-1.3884-9.7892-5.3932-10.08-55.152-4.007-91.866-4.0436-147.76 0-4.7818 0.34598-7.9373 5.796-5.3932 9.4081l10.786 12.012c3.0584 3.3589-0.23249 10.243-8.764 7.7718l-5.4775-1.596c-4.0449-1.344-8.0898 2.268-7.3314 6.0481z" enable-background="accumulate" fill="#999"/></clipPath><filter id="ac"><feGaussianBlur stdDeviation="1.0007555"/></filter><radialGradient id="l" cx="33.997" cy="26.367" r="2.5625" gradientTransform="matrix(45.138 0 0 32.65 -1364.7 -682.88)" gradientUnits="userSpaceOnUse"><stop stop-color="#fff" offset="0"/><stop stop-color="#fff" stop-opacity="0" offset="1"/></radialGradient><radialGradient id="k" cx="76.75" cy="130.08" r="86" gradientTransform="matrix(1.9958 1.3625e-7 0 5.84 -73.168 -581.74)" gradientUnits="userSpaceOnUse"><stop stop-color="#fff8ff" offset="0"/><stop stop-color="#746f76" offset="1"/></radialGradient><linearGradient id="t" x1="28.25" x2="28.25" y1="44.413" y2="29.703" gradientTransform="matrix(5.2961 0 0 5.2961 17.384 32.923)" gradientUnits="userSpaceOnUse"><stop stop-color="#fff" offset="0"/><stop stop-color="#fff" stop-opacity="0" offset="1"/></linearGradient><filter id="ab" color-interpolation-filters="sRGB"><feGaussianBlur stdDeviation="1.9735286"/></filter><radialGradient id="j" cx="143.01" cy="160.03" r="89.837" gradientTransform="matrix(3.1488 0 0 1.3212 -307.29 -48.397)" gradientUnits="userSpaceOnUse"><stop stop-color="#fff" stop-opacity="0" offset="0"/><stop stop-color="#fff" offset="1"/></radialGradient><linearGradient id="s" x1="146" x2="146" y1="256" y2="189.93" gradientTransform="matrix(1 0 -.13165 1 35.283 1)" gradientUnits="userSpaceOnUse"><stop offset="0"/><stop stop-opacity="0" offset="1"/></linearGradient><filter id="aa" x="-.094314" y="-.16491" width="1.1886" height="1.3298"><feGaussianBlur stdDeviation="7.1667528"/></filter><linearGradient id="r" x1="143" x2="-61.094" y1="164.85" y2="-101.15" gradientUnits="userSpaceOnUse"><stop offset="0"/><stop stop-opacity="0" offset="1"/></linearGradient><filter id="z" x="-.58512" y="-.095578" width="2.1702" height="1.1912"><feGaussianBlur stdDeviation="6.6639004"/></filter><radialGradient id="i" cx="136.64" cy="148.78" r="86.002" gradientTransform="matrix(1.2558 -3.8017e-7 2.3384e-6 7.7243 -36.581 -1034.5)" gradientUnits="userSpaceOnUse"><stop stop-opacity="0" offset="0"/><stop stop-opacity="0" offset=".52593"/><stop offset="1"/></radialGradient><filter id="ad" x="-.098005" y="-.17056" width="1.196" height="1.3411"><feGaussianBlur stdDeviation="5.7581829"/></filter></defs><g transform="translate(-16 -28)"><path d="m70.908 181.45c6.4681 21.033 5.5652 42.06-9.7528 63.839-1.3573 1.9297-2.3432 3.5409 0.06788 4.6051 0 0 40.626 18.888 82.428 19.103 42.279 0.21709 84.796-18.489 84.796-18.489 3.7624-1.4394 3.263-3.1725 2.6692-4.9121-8.2529-15.829-1.1397-46.097 10.536-74.911 1.5322-2.5432-0.79968-4.4722-4.787-4.6051-54.911-1.8306-91.623-1.8473-147.76 0-4.8027 0.15806-8.2859 2.6479-5.9591 4.2981l10.064 5.4878c2.8564 1.5345-0.84854 4.6793-9.2314 3.5505l-5.3815-0.72913c-3.9641-0.61402-8.2263 1.0362-7.6952 2.7631z" enable-background="accumulate" fill="url(#s)" filter="url(#aa)" opacity=".3"/><g clip-path="url(#am)"><path d="m59.382 76.365c9.2372 46.039 11.103 92.066-1.3483 139.74-1.1032 4.224-1.877 7.7508 0.67415 10.08 0 0 43.112 41.344 84.943 41.814 42.308 0.47519 82.362-40.47 82.362-40.47 3.5729-3.1506 2.8454-6.9442 2.0225-10.752-10.337-34.647-7.2084-100.9 0.67414-163.97 1.1974-5.5668-1.3884-9.7892-5.3932-10.08-55.152-4.007-91.866-4.0436-147.76 0-4.7818 0.34598-7.9373 5.796-5.3932 9.4081l10.786 12.012c3.0584 3.3589-0.23249 10.243-8.764 7.7718l-5.4775-1.596c-4.0449-1.344-8.0898 2.268-7.3314 6.0481z" enable-background="accumulate" fill="url(#k)"/><path d="m59.382 76.365c9.2372 46.039 11.103 92.066-1.3483 139.74-1.1032 4.224-1.877 7.7508 0.67415 10.08 0 0 43.112 41.344 84.943 41.814 42.308 0.47519 82.362-40.47 82.362-40.47 3.5729-3.1506 2.8454-6.9442 2.0225-10.752-10.337-34.647-7.2084-100.9 0.67414-163.97 1.1974-5.5668-1.3884-9.7892-5.3932-10.08-55.152-4.007-91.866-4.0436-147.76 0-4.7818 0.34598-7.9373 5.796-5.3932 9.4081l10.786 12.012c3.0584 3.3589-0.23249 10.243-8.764 7.7718l-5.4775-1.596c-4.0449-1.344-8.0898 2.268-7.3314 6.0481z" enable-background="accumulate" fill="url(#i)" opacity=".32489"/><path d="m102 41.188c7.083 74.867 5.3514 140.3 0.0442 215.17 28.653 14.853 53.745 16.021 83.956 0.28727-9.1676-73.909-6.7543-140.21 0-215.89-28.855-1.1695-57.125-1-84 0.43754z" enable-background="accumulate" fill="url(#w)"/><path transform="matrix(1.1008 0 0 1 -16.898 0)" d="m84.909 173.27-12.578 54.285c43.062 26.499 94.467 44.607 141.01-1.986l-11.916-50.975c-37.071 13.694-75.913 13.228-116.51-1.324z" enable-background="accumulate" fill="url(#t)" filter="url(#ad)" opacity=".67511"/><path d="m213.33 64s-12.667 110 1.3333 144.67l-27.333 22.667z" enable-background="accumulate" fill="url(#l)" filter="url(#z)" opacity=".80059"/><path d="m227.62 48.793c-0.79663-2.407-1.4754-4.8714-5.3066-5.0722-55.215-3.5169-89.835-3.7379-145.76 0-3.6195 0.23488-5.3775 2.6157-6.0801 5.0939 4.5186-7.8151 39.885-3.7864 77.519-3.8151 38.142-0.02911 75-4 79.623 3.7934z" enable-background="accumulate" fill="url(#x)" filter="url(#al)"/><path d="m67 71c3.3667 1.2093 15.673 5.9209 16-4 1.5203 17.945-23.164-3.7412-22 12-2.7577-6.2722 2-9.5 6-8z" enable-background="accumulate" fill="#fff" filter="url(#aj)" opacity=".29362"/><path transform="translate(3.5298e-7 4.0978e-6)" d="m149.72 41.094c-23.017-0.0046-46.132 1.0071-74.055 3.0273-1.8833 0.13626-3.4802 1.3002-4.334 2.7793-0.84958 1.4718-0.93676 3.0868-0.0293 4.3926l10.707 11.916c2.0201 2.2186 1.9097 5.5961 0 7.9043-1.9097 2.3082-5.5644 3.4902-10.211 2.1445a1.4065 1.4065 0 0 1-2e-3 -2e-3l-5.4688-1.5938a1.4065 1.4065 0 0 1-0.05078-0.01563c-3.0595-1.0166-6.0555 1.7897-5.5215 4.4512 9.2655 46.18 11.154 92.433-1.3613 140.35-0.5473 2.0955-0.97465 3.9565-0.98242 5.4102-0.0078 1.4537 0.29563 2.4105 1.2578 3.2891a1.4065 1.4065 0 0 1 0.02344 0.0234s10.686 10.247 26.576 20.566c15.89 10.32 36.947 20.626 57.404 20.855 41.391 0.46489 81.322-40.045 81.322-40.045a1.4065 1.4065 0 0 1 0.0762-0.0723c1.5415-1.3593 2.0549-2.6673 2.1934-4.2012s-0.19847-3.3049-0.60742-5.1973l0.0273 0.10547c-10.5-35.193-7.2532-101.4 0.63868-164.54a1.4065 1.4065 0 0 1 0.0215-0.12109c0.53928-2.5072 0.19698-4.6085-0.60547-6.0449-0.80244-1.4364-1.995-2.2402-3.5273-2.3516-27.554-2.0019-50.475-3.0228-73.492-3.0273z" enable-background="accumulate" fill="none" filter="url(#ab)" stroke="url(#j)"/><path d="m59.382 75.365c9.2372 46.039 11.103 92.066-1.3483 139.74-1.1032 4.224-1.877 7.7508 0.67415 10.08 0 0 43.112 43.344 84.943 43.814 42.308 0.47519 82.362-42.47 82.362-42.47 3.5729-3.1506 2.8454-6.9442 2.0225-10.752-10.337-34.647-7.2084-100.9 0.67414-163.97 1.1974-5.5668-1.3884-9.7892-5.3932-10.08-55.152-4.007-91.866-4.0436-147.76 0-4.7818 0.34598-7.9373 5.796-5.3932 9.4081l10.786 12.012c3.0584 3.3589-0.23249 10.243-8.764 7.7718l-5.4775-1.596c-4.0449-1.344-8.0898 2.268-7.3314 6.0481z" enable-background="accumulate" fill="none" filter="url(#ac)" stroke="url(#r)"/></g><g><path d="m144.62 94.594-10.156-0.25-5.5625-6.2188-4.875 6.0938-11.312 0.125-5.2188-10.438 5.625-5.75-10.781-0.125-7.5-5.375 13 32.344h80.344l8.875-33.281-9.2188 7.125-11.062-0.375 9.625 5.1875-4.5 10.688-10.719 0.125-4.9688-5.4688-5.4688 5.3438h-10.25l-3.375-16.625z" enable-background="accumulate" filter="url(#ai)" opacity=".46414"/><path d="m106.83 103h80.362l8.8537-33.293-9.1906 7.1374-11.076-0.37014 9.6289 5.1924-4.5115 10.667-10.706 0.13197-4.9829-5.4653-5.4543 5.3333h-8.7679l-3.875-19.375-4.1076 19.641-9.5416-0.2664-5.5556-6.1971-4.8816 6.0933-11.312 0.10373-5.2186-10.44 5.6219-5.7232-10.784-0.13443-7.496-5.3862z" enable-background="accumulate" fill="url(#m)"/><path transform="matrix(5.3333 0 0 5.3333 16 28)" d="m20.875 14h4.375l7.3125-1.6875 0.75-2.6875-1.75 0.875-0.6875 1.625-2.0625 0.125-0.8125-0.9375-1 0.75-1 0.0625z" enable-background="accumulate" fill="url(#v)" filter="url(#af)"/><path d="m196.06 69.719-9.2188 7.125-11.062-0.375 1.9062 1.0312 10.156 0.34375 7.625-5.9062zm-102.22 0.9375 13 32.344h0.59375l-12.594-31.344 7.5 5.375 8.8125 0.09375 0.96875-0.96875-10.781-0.125zm49.281 21.938-9.5625-0.25 0.90625 1 9.6562 0.25 2.9553-19.815zm42.125-10.562-4.3438 10.312-10.625 0.125 0.90625 1 10.719-0.125 4.5-10.688zm-57.344 4.0938-4.875 6.0938-10.812 0.125 0.5 1 11.312-0.125 4.8125-6.0312zm37.312 0.875-5.4688 5.3438h-9.25v1h10.25l5.4062-5.2812z" enable-background="accumulate" fill="url(#u)" filter="url(#ak)"/><path d="m119.09 126.16c-0.82173 0.0799-1.5212 0.34449-2.0625 0.8125-4.3306 3.7441 3.425 19.77 5.8125 22.531l8.5 9.8125-19.188 22.188-0.3125 1.125c-3.5058-2.6144-6.777-4.7869-9.5625-6.375-0.14956-1.5061-0.89214-3.0171-2.1875-4.125-2.5169-2.1528-6.1516-2.026-8.125 0.28125s-1.5482 5.941 0.96875 8.0938c1.2933 1.1062 2.8973 1.615 4.4062 1.5312 2.7055 3.3865 6.602 7.4613 11.25 11.719l-1.75 2.0625-8.875 10.219c-0.26703 0.30886-0.48033 0.65211-0.65625 1-0.76406 1.2896-0.73813 2.9004-0.03125 4.2812 0.0043 9e-3 -0.0044 0.0223 0 0.0313 0.21459 0.41333 0.50473 0.80104 0.84375 1.1562 0.11246 0.11896 0.21715 0.2343 0.34375 0.34375 0.01126 0.01 0.01989 0.0215 0.03125 0.0313 0.04715 0.0403 0.10815 0.0554 0.15625 0.0937 0.10364 0.0819 0.20442 0.17786 0.3125 0.25 1.7274 1.1707 3.911 1.1586 5.4062-0.0313 0.33711-0.23113 0.62581-0.51937 0.90625-0.84375l10.625-12.25c5.3132 4.3137 10.347 7.7979 14.375 10.094 0.14956 1.5061 0.89214 3.0171 2.1875 4.125 2.517 2.1528 6.1516 2.026 8.125-0.28125 1.9734-2.3072 1.5482-5.941-0.96875-8.0938-1.2954-1.1079-2.8951-1.617-4.4062-1.5312-2.1245-2.6592-4.9964-5.7344-8.375-9l0.9375-0.40625 17.219-19.906 17.188 19.906 0.9375 0.40625c-3.38 3.2668-6.2499 6.34-8.375 9-1.5111-0.0858-3.1109 0.42333-4.4062 1.5312-2.517 2.1528-2.9421 5.7866-0.96875 8.0938s5.608 2.434 8.125 0.28125c1.2954-1.1079 2.0379-2.6189 2.1875-4.125 4.0275-2.2959 9.0618-5.78 14.375-10.094l10.594 12.25c0.26071 0.30156 0.56474 0.56024 0.875 0.78125 1.4959 1.2318 3.7208 1.2784 5.4688 0.0937 0.031-0.021 0.0631-0.0407 0.0937-0.0625 0.12251-0.086 0.25861-0.18236 0.375-0.28125 0.0114-0.01 0.02-0.0215 0.0313-0.0313 0.1266-0.10945 0.23129-0.22479 0.34375-0.34375 1.2867-1.3482 1.6724-3.2065 1.0938-4.7812-0.0851-0.23172-0.15325-0.47147-0.28125-0.6875-0.17592-0.34789-0.42047-0.69114-0.6875-1l-8.3438-9.6562-2.25-2.625c4.648-4.2574 8.5132-8.3323 11.219-11.719 1.518 0.0923 3.1042-0.41762 4.4062-1.5312 2.5169-2.1528 2.9734-5.7866 1-8.0938s-5.608-2.434-8.125-0.28125c-1.2954 1.1079-2.0379 2.6189-2.1875 4.125-2.7828 1.5866-6.0605 3.7641-9.5625 6.375l-0.3125-1.125-19.188-22.188 8.5-9.8125c2.3875-2.7615 10.143-18.787 5.8125-22.531s-19.05 6.2385-21.438 9l-6.5 7.5314-6.5312-7.5312c-2.0891-2.4163-13.623-10.372-19.375-9.8125z" enable-background="accumulate" filter="url(#ae)" opacity=".5443"/><g transform="translate(331)" enable-background="new"><g transform="matrix(-.75995 .64998 .64998 .75995 -449.76 185.86)"><path d="m-218.77 219.99c-2.6776-0.0143-4.8218-2.1814-4.8075-4.859l0.0879-16.5-5.2729-11.362 0.32042-60.166c0.0195-3.6504 4.7196-20.808 10.444-20.778 5.7246 0.0305 10.242 17.238 10.222 20.888l-0.32043 60.166-5.727 11.303-0.0879 16.5c-0.0143 2.6776-2.1814 4.8218-4.859 4.8075z" enable-background="accumulate" fill="url(#d)"/><path d="m-214 198v17.625c0 2.4239-2.1185 4.3752-4.75 4.3752s-4.75-1.9514-4.75-4.3752v-17.625z" enable-background="accumulate" fill="url(#f)" mask="url(#e)" opacity=".4383"/><ellipse transform="matrix(5,0,0,1,1002,0)" cx="-244" cy="193.5" rx="6" ry="5.5" enable-background="accumulate" fill="url(#c)"/><ellipse cx="-244" cy="193.5" rx="6" ry="5.5" enable-background="accumulate" fill="url(#a)"/><ellipse transform="translate(52)" cx="-244" cy="193.5" rx="6" ry="5.5" enable-background="accumulate" fill="url(#a)"/></g><path d="m-169.34 193.37 8.7934-7.9028-54.485-57.743c-4.756 11.485 21.12 38.905 45.691 65.645z" enable-background="accumulate" fill="#fff" opacity=".3494"/><path d="m-211.91 124.12c-0.34664-0.0178-0.68543 6.6e-4 -1 0.0313-0.82173 0.0799-1.5212 0.34449-2.0625 0.8125-4.3306 3.7441 3.425 19.77 5.8125 22.531l39.344 45.5 0.90625 0.40625c-0.84422 0.81769-1.6311 1.6147-2.4062 2.4062-0.41981 0.42868-0.85184 0.86204-1.25 1.2812-0.32524 0.34022-0.65848 0.69812-0.96875 1.0312-0.70194 0.75939-1.3798 1.5017-2 2.2188-0.61303 0.70886-1.1917 1.4028-1.7188 2.0625-1.5111-0.0858-3.1109 0.42333-4.4062 1.5312-2.517 2.1528-2.9421 5.7866-0.96875 8.0938 0.71089 0.83116 1.6441 1.3644 2.6562 1.625-0.23425-0.1906-0.45393-0.38846-0.65625-0.625-0.12333-0.1442-0.23908-0.28362-0.34375-0.4375s-0.19509-0.33781-0.28125-0.5c-0.17231-0.32437-0.30709-0.65062-0.40625-1-0.0496-0.17469-0.0935-0.35237-0.125-0.53125-0.34666-1.9677 0.3946-4.145 2.125-5.625 0.48576-0.41547 1.0118-0.75274 1.5625-1 0.18355-0.0824 0.37481-0.15499 0.5625-0.21875 0.18769-0.0638 0.37221-0.11113 0.5625-0.15625 0.19029-0.0451 0.37114-0.0673 0.5625-0.0937 0.38272-0.053 0.77847-0.0839 1.1562-0.0625 0.53128-0.665 1.098-1.3493 1.7188-2.0625s1.2972-1.4642 2-2.2188c0.31027-0.33313 0.64351-0.69103 0.96875-1.0312 0.39816-0.41921 0.83019-0.85257 1.25-1.2812 0.77252-0.78394 1.5672-1.595 2.4062-2.4062 2.1419-2.0746 4.4843-4.2233 7-6.375 2.7478-2.3502 5.4486-4.4868 8.0312-6.4062 0.87549-0.65274 1.7505-1.2789 2.5938-1.875s1.6662-1.153 2.4688-1.6875c0.68389-0.45552 1.3201-0.87375 1.9688-1.2812 0.22124-0.13899 0.43952-0.27308 0.65625-0.40625 0.64697-0.39718 1.271-0.78062 1.875-1.125 0.11217-1.1296 0.55016-2.2558 1.3125-3.2188 0.12706-0.16049 0.26168-0.31846 0.40625-0.46875s0.30683-0.29901 0.46875-0.4375c0.15458-0.13221 0.30649-0.26021 0.46875-0.375 0.0487-0.0345 0.10692-0.0608 0.15625-0.0937 0.0395-0.0263 0.0851-0.0372 0.125-0.0625 0.17488-0.11165 0.35023-0.21998 0.53125-0.3125 0.22387-0.11334 0.45652-0.22823 0.6875-0.3125 0.0221-8e-3 0.0403-0.0234 0.0625-0.0313 0.0889-0.0314 0.19166-0.0354 0.28125-0.0625 0.0959-0.0288 0.18469-0.0699 0.28125-0.0937 0.0215-5e-3 0.0409-0.0261 0.0625-0.0313 0.11269-0.0265 0.23054-0.0426 0.34375-0.0625 0.0509-9e-3 0.10522-0.0234 0.15625-0.0313 0.0717-0.0107 0.14705-0.0231 0.21875-0.0313 0.0214-2e-3 0.041 2e-3 0.0625 0 0.21628-0.0222 0.44112-0.0328 0.65625-0.0313 0.0512 4.2e-4 0.10513-2e-3 0.15625 0 0.41686 0.0143 0.82002 0.0848 1.2188 0.1875-0.22681-0.18455-0.46798-0.3571-0.71875-0.5-0.0414-0.0234-0.083-0.0403-0.125-0.0625-0.21426-0.11485-0.42894-0.19685-0.65625-0.28125-0.0824-0.0302-0.16622-0.0676-0.25-0.0937-0.08-0.0252-0.16884-0.041-0.25-0.0625-0.19402-0.0508-0.39469-0.0956-0.59375-0.125-0.13438-0.0203-0.27006-0.0209-0.40625-0.0313-0.0731-5e-3 -0.14532-0.0287-0.21875-0.0313-0.17382-6e-3 -0.35576-9e-3 -0.53125 0-0.0103 5.2e-4 -0.021-6.2e-4 -0.0313 0-0.32359 0.0194-0.6484 0.0514-0.96875 0.125-0.31379 0.073-0.6317 0.18853-0.9375 0.3125-0.31122 0.1277-0.6413 0.28711-0.9375 0.46875-0.29144 0.1786-0.57497 0.39511-0.84375 0.625-1.2954 1.1079-2.0379 2.6189-2.1875 4.125-0.60404 0.34438-1.228 0.72782-1.875 1.125-0.24337 0.14951-0.50088 0.31191-0.75 0.46875-0.41363 0.26018-0.82188 0.50168-1.25 0.78125-0.0451 0.0295-0.0797 0.0641-0.125 0.0937-0.64466 0.42247-1.2951 0.84831-1.9688 1.3125-0.0756 0.0521-0.14285 0.10361-0.21875 0.15625-0.64965 0.4499-1.3277 0.92007-2 1.4062-0.0976 0.0708-0.18326 0.14729-0.28125 0.21875-2.9035 2.1119-5.9885 4.5361-9.125 7.2188-2.3904 2.0445-4.6324 4.0847-6.6875 6.0625l-38.562-44.594c-2.3875-2.7615-10.143-18.787-5.8125-22.531 0.54132-0.46801 1.2408-0.73258 2.0625-0.8125 2.0332-0.19774 4.7883 0.65946 7.5938 1.9688-3.0229-1.6082-6.1673-2.8756-8.5938-3zm55.969 74.969c-0.2325 0.18876-0.45613 0.34569-0.6875 0.53125l9.2812 10.719c0.26071 0.30156 0.56474 0.56024 0.875 0.78125 0.51924 0.42759 1.1368 0.70371 1.7812 0.84375-0.23729-0.18488-0.45383-0.39086-0.65625-0.625z" enable-background="accumulate" fill="#fff" filter="url(#ag)" opacity=".5"/><g transform="rotate(40.54 -213.77 195.45)"><path d="m-218.77 219.99c-2.6776-0.0143-4.8218-2.1814-4.8075-4.859l0.0879-16.5-5.2729-11.362 0.32042-60.166c0.0195-3.6504 4.7196-20.808 10.444-20.778 5.7246 0.0305 10.242 17.238 10.222 20.888l-0.32043 60.166-5.727 11.303-0.0879 16.5c-0.0143 2.6776-2.1814 4.8218-4.859 4.8075z" enable-background="accumulate" fill="url(#d)"/><path d="m-214 198v17.625c0 2.4239-2.1185 4.3752-4.75 4.3752s-4.75-1.9514-4.75-4.3752v-17.625z" enable-background="accumulate" fill="url(#f)" mask="url(#e)" opacity=".4383"/><ellipse transform="matrix(5,0,0,1,1002,0)" cx="-244" cy="193.5" rx="6" ry="5.5" enable-background="accumulate" fill="url(#c)"/><ellipse cx="-244" cy="193.5" rx="6" ry="5.5" enable-background="accumulate" fill="url(#a)"/><ellipse transform="translate(52)" cx="-244" cy="193.5" rx="6" ry="5.5" enable-background="accumulate" fill="url(#a)"/></g><path d="m-220.33 180.67 9 7.6667 50-61.667c-12.015-3.1894-35.757 26.097-59 54z" enable-background="accumulate" fill="#fff" opacity=".3494"/><path transform="matrix(-4.0446 3.4764 -3.4764 -4.0446 35.985 221.2)" d="m22.125 31.375-0.125 4.125c1.4729-1.6708 2.7349-2.0759 3.875-1.75l0.125-3.875c-1.431-0.47522-2.7755-0.34548-3.875 1.5z" enable-background="accumulate" fill="url(#b)" filter="url(#h)"/><path transform="matrix(4.0446 3.4764 3.4764 -4.0446 -391.26 199.53)" d="m22.125 31.375-0.125 4.125c1.4729-1.6708 2.7349-2.0759 3.875-1.75l0.125-3.875c-1.431-0.47522-2.7755-0.34548-3.875 1.5z" enable-background="accumulate" fill="url(#b)" filter="url(#h)"/><path d="m-161.75 124.16c-5.9262 0.0291-16.736 7.4825-18.75 9.8125l-39.344 45.531-0.21875 0.75c0.62629 0.44932 1.2626 0.89501 1.9062 1.375l0.3125-1.125 39.344-45.531c2.0144-2.33 12.824-9.7834 18.75-9.8125 0.33379-2e-3 0.63924 0.0169 0.9375 0.0625-0.0799-0.0884-0.15978-0.172-0.25-0.25-0.67665-0.58501-1.59-0.8179-2.6875-0.8125zm-74.438 44.438c-1.47 0.051-2.8571 0.6589-3.8438 1.8125-1.9734 2.3072-1.5482 5.941 0.96875 8.0938 0.718 0.6141 1.5349 1.0345 2.375 1.2812-0.12637-0.0932-0.25375-0.17755-0.375-0.28125-2.517-2.1528-2.9421-5.7866-0.96875-8.0938 1.414-1.6532 3.6836-2.1848 5.7812-1.5625-1.1863-0.88127-2.6035-1.2963-3.9375-1.25zm2.3125 12.375c2.6558 3.1962 6.228 6.8969 10.469 10.781l-1.75 2.0625-8.875 10.219c-0.26703 0.30886-0.48033 0.65211-0.65625 1-0.128 0.21603-0.1961 0.45578-0.28125 0.6875-0.42314 1.1515-0.33846 2.4442 0.25 3.5938 4e-3 9e-3 -4e-3 0.0223 0 0.0313 0.0106 0.0204 0.0203 0.0422 0.0313 0.0625 0.20991 0.39086 0.49023 0.75609 0.8125 1.0938 0.11246 0.11896 0.21715 0.2343 0.34375 0.34375 0.0113 0.01 0.0199 0.0215 0.0313 0.0313 0.0471 0.0403 0.10815 0.0554 0.15625 0.0937 0.10364 0.0819 0.20442 0.17786 0.3125 0.25 0.50109 0.33959 1.0459 0.55269 1.5938 0.6875-0.0206-0.0108-0.0445-0.0158-0.0625-0.0313-0.0114-0.01-0.02-0.0215-0.0313-0.0313-0.1266-0.10945-0.23129-0.22479-0.34375-0.34375-0.32227-0.33766-0.60259-0.70289-0.8125-1.0938-0.0109-0.0203-0.0206-0.0421-0.0313-0.0625-4e-3 -9e-3 4e-3 -0.0223 0-0.0313-0.58846-1.1495-0.67314-2.4423-0.25-3.5938 0.0851-0.23172 0.15325-0.47147 0.28125-0.6875 0.17592-0.34789 0.38922-0.69114 0.65625-1l8.875-10.219 1.75-2.0625c-4.648-4.2574-8.5445-8.3323-11.25-11.719-0.39764 0.0221-0.81535-2e-3 -1.2188-0.0625zm19.781 18.125-0.28125 0.34375c4.667 3.6736 9.0713 6.7064 12.656 8.75 0.14956 1.5061 0.89214 3.0171 2.1875 4.125 0.7134 0.61017 1.514 1.0351 2.3438 1.2812-0.12089-0.0898-0.22737-0.18171-0.34375-0.28125-1.2954-1.1079-2.0379-2.6189-2.1875-4.125-4.0275-2.2959-9.0618-5.78-14.375-10.094zm18.531 3.375c0.26037 0.31259 0.53983 0.63532 0.78125 0.9375 0.67221-0.0382 1.3586 0.0524 2.0312 0.25-0.86704-0.63996-1.8288-1.0409-2.8125-1.1875z" enable-background="accumulate" fill="#fff" filter="url(#ah)" opacity=".5"/></g></g></g></svg>
