<?xml version="1.0" encoding="UTF-8"?>
<svg enable-background="new" version="1.0" viewBox="0 0 256 256" xmlns="http://www.w3.org/2000/svg" xmlns:xlink="http://www.w3.org/1999/xlink"><defs><linearGradient id="a"><stop stop-color="#fff" offset="0"/><stop stop-color="#fff" stop-opacity="0" offset="1"/></linearGradient><filter id="n"><feGaussianBlur stdDeviation="0.36777384"/></filter><filter id="m"><feGaussianBlur stdDeviation="0.437826"/></filter><filter id="l" x="-.13112" y="-.4619" width="1.2622" height="1.9238"><feGaussianBlur stdDeviation="1.5633979"/></filter><linearGradient id="k" x1="22.097" x2="24.238" y1="8.0085" y2="38.437" gradientUnits="userSpaceOnUse"><stop stop-color="#ef2929" offset="0"/><stop stop-color="#c00" offset=".64417"/><stop stop-color="#ef2929" offset="1"/></linearGradient><linearGradient id="j" x1="22.097" x2="22.097" y1="17.645" y2="39.105" gradientUnits="userSpaceOnUse"><stop stop-color="#a40000" offset="0"/><stop stop-color="#7c0000" offset="1"/></linearGradient><radialGradient id="g" cx="74" cy="85.5" r="2.25" gradientUnits="userSpaceOnUse"><stop stop-color="#fff" offset="0"/><stop stop-color="#fff" stop-opacity="0" offset="1"/></radialGradient><clipPath id="o"><path transform="matrix(6.0716 0 0 5.9813 222.98 21.331)" d="m35.099 35.723-8.3965-1.8827-4.6059 7.2685-4.6059-7.2685-8.3965 1.8827 1.8827-8.3965-7.2685-4.6059 7.2685-4.6059-1.8827-8.3965 8.3965 1.8827 4.6059-7.2685 4.6059 7.2685 8.3965-1.8827-1.8827 8.3965 7.2685 4.6059-7.2685 4.6059z" enable-background="accumulate" fill="#2e3436"/></clipPath><linearGradient id="i" x1="144.5" x2="144.5" y1="266" y2="214.61" gradientTransform="matrix(.18462 0 0 .18462 -2.4094 -5.4971)" gradientUnits="userSpaceOnUse"><stop offset="0"/><stop stop-opacity="0" offset="1"/></linearGradient><linearGradient id="h" x1="132.25" x2="34" y1="93" y2="207" gradientTransform="translate(400)" gradientUnits="userSpaceOnUse"><stop stop-color="#fff" offset="0"/><stop stop-color="#fff" stop-opacity="0" offset="1"/></linearGradient><radialGradient id="f" cx="21.286" cy="14.017" r="17.369" gradientTransform="matrix(2.4425 0 0 2.4403 -30.704 -20.181)" gradientUnits="userSpaceOnUse"><stop stop-color="#fff" offset="0"/><stop stop-color="#fff" stop-opacity="0" offset="1"/></radialGradient><radialGradient id="e" cx="198.12" cy="90.375" r="20.125" gradientTransform="matrix(.97728 -.21194 .1118 .51553 394.4 85.775)" gradientUnits="userSpaceOnUse" xlink:href="#a"/><radialGradient id="d" cx="198.12" cy="90.375" r="20.125" gradientTransform="matrix(.40355 -.75618 .35948 .16465 424.6 207.37)" gradientUnits="userSpaceOnUse" xlink:href="#a"/><radialGradient id="c" cx="72.375" cy="86.253" r="7.5" gradientTransform="matrix(1.7333 -.016667 .021549 2.2411 345.07 -108.29)" gradientUnits="userSpaceOnUse"><stop stop-color="#fff" offset="0"/><stop stop-color="#fff" stop-opacity="0" offset="1"/></radialGradient><radialGradient id="b" cx="198.12" cy="90.375" r="20.125" gradientTransform="matrix(.96941 -.70347 .30982 .42694 241.47 247.98)" gradientUnits="userSpaceOnUse" xlink:href="#a"/></defs><g transform="translate(-420 -30)"><g><path transform="matrix(6.4332 0 0 5.066 389.38 44.142)" d="m24.545 43.612-5.7232-4.0616h-8.8617l5.9078-4.0616h17.908l4.8001 3.877h-8.3079z" enable-background="accumulate" fill="url(#i)" filter="url(#l)" opacity=".40291"/><path transform="matrix(6.0716 0 0 5.9813 412.98 23.331)" d="m35.099 35.723-8.3965-1.8827-4.6059 7.2685-4.6059-7.2685-8.3965 1.8827 1.8827-8.3965-7.2685-4.6059 7.2685-4.6059-1.8827-8.3965 8.3965 1.8827 4.6059-7.2685 4.6059 7.2685 8.3965-1.8827-1.8827 8.3965 7.2685 4.6059-7.2685 4.6059z" enable-background="accumulate" filter="url(#m)" opacity=".49515"/><g transform="translate(190)" clip-path="url(#o)"><path transform="matrix(6.0716 0 0 5.9813 222.98 21.331)" d="m35.099 35.723-8.3965-1.8827-4.6059 7.2685-4.6059-7.2685-8.3965 1.8827 1.8827-8.3965-7.2685-4.6059 7.2685-4.6059-1.8827-8.3965 8.3965 1.8827 4.6059-7.2685 4.6059 7.2685 8.3965-1.8827-1.8827 8.3965 7.2685 4.6059-7.2685 4.6059z" clip-path="none" enable-background="accumulate" fill="url(#k)"/><path d="m357.34 194.12c-6.0577 0-10.717-4.7415-10.717-10.905 0-6.638 4.1938-10.905 10.717-10.905 6.5237 0 10.251 4.2673 10.717 10.905 0 6.1639-4.1938 10.905-10.717 10.905zm-3.4127-35.244-5.9069-47.257h18.639l-5.9069 55.046z" enable-background="new" fill="#d3d7cf"/><path transform="matrix(6.0716 0 0 5.9813 222.98 21.331)" d="m35.099 35.723-8.3965-1.8827-4.6059 7.2685-4.6059-7.2685-8.3965 1.8827 1.8827-8.3965-7.2685-4.6059 7.2685-4.6059-1.8827-8.3965 8.3965 1.8827 4.6059-7.2685 4.6059 7.2685 8.3965-1.8827-1.8827 8.3965 7.2685 4.6059-7.2685 4.6059z" clip-path="none" enable-background="accumulate" fill="none" filter="url(#n)" stroke="url(#j)" stroke-width=".66376"/><circle transform="matrix(.94444 0 0 .94444 403.49 4)" cx="74" cy="85.5" r="2.25" enable-background="accumulate" fill="url(#g)"/></g><g enable-background="new"><path d="m481 191.5c40.573-29.137 87.058-44.71 130-62l11.5-45-49.5 9.5-26-40-26.5 39-48.5-10 12 48-42 27 40.548 25.172z" enable-background="accumulate" fill="url(#h)" opacity=".26699"/><path transform="matrix(6.0716 0 0 5.9813 412.98 21.331)" d="m22.094 5.4961-4.0723 6.4277a0.61664 0.61664 0 0 1-0.65625 0.27148l-7.459-1.6641 1.6641 7.459a0.61664 0.61664 0 0 1-0.27148 0.65625l-6.4277 4.0723 6.4277 4.0723a0.61664 0.61664 0 0 1 0.27148 0.65625l-1.6641 7.459 7.459-1.6641a0.61664 0.61664 0 0 1 0.65625 0.27148l4.0723 6.4277 4.0723-6.4277a0.61664 0.61664 0 0 1 0.65625-0.27148l7.459 1.6641-1.6641-7.459a0.61664 0.61664 0 0 1 0.27344-0.65625l6.4551-4.0723-6.4551-4.0723a0.61664 0.61664 0 0 1-0.27344-0.65625l1.6641-7.459-7.459 1.6641a0.61664 0.61664 0 0 1-0.65625-0.27148z" enable-background="accumulate" fill="none" opacity=".36893" stroke="url(#f)" stroke-width=".33188"/><path d="m578 94.75c10.561-4.3417 23.047-7.73 40.25-8.75z" enable-background="accumulate" fill="url(#e)"/><path d="m525 91.313c2.9672-8.17 13.363-26.812 21.598-34.923z" enable-background="accumulate" fill="url(#d)"/><path d="m486.5 86-15-3.125 5 20.375-2.5-17.625z" enable-background="accumulate" fill="url(#c)" opacity=".58738"/><path d="m442.34 158.17c8.4472-7.6826 25.394-18.308 41.218-25.133z" enable-background="accumulate" fill="url(#b)"/></g></g></g></svg>
