<?xml version="1.0" encoding="UTF-8"?>
<svg enable-background="new" version="1.0" viewBox="0 0 256 256" xmlns="http://www.w3.org/2000/svg" xmlns:xlink="http://www.w3.org/1999/xlink"><defs><linearGradient id="a"><stop stop-color="#fff" offset="0"/><stop stop-color="#fff" stop-opacity="0" offset="1"/></linearGradient><clipPath id="q"><path d="m164 177.5-64.427-39.22-64.31 39.412 17.392-73.393-57.356-48.984 75.176-6.1391 28.862-69.685 29.069 69.599 75.193 5.9159-57.21 49.154z" fill="none" stroke="#000" stroke-width="2"/></clipPath><filter id="p" color-interpolation-filters="sRGB"><feGaussianBlur stdDeviation="1.7521637"/></filter><radialGradient id="f" cx="149" cy="180.62" r="59.5" gradientTransform="matrix(2.0674 0 0 .91208 -159.04 35.513)" gradientUnits="userSpaceOnUse"><stop stop-color="#fdf4a4" offset="0"/><stop stop-color="#fdf4a4" stop-opacity="0" offset="1"/></radialGradient><filter id="o" color-interpolation-filters="sRGB"><feGaussianBlur stdDeviation="1.7521637"/></filter><filter id="n" color-interpolation-filters="sRGB"><feGaussianBlur stdDeviation="6.5706138"/></filter><radialGradient id="e" cx="95.75" cy="207.25" r="8.25" gradientTransform="matrix(1 0 0 4.1515 0 -653.15)" gradientUnits="userSpaceOnUse"><stop stop-color="#fff" offset="0"/><stop stop-color="#fff" stop-opacity="0" offset="1"/></radialGradient><radialGradient id="d" cx="147.08" cy="146.23" r="86" gradientTransform="matrix(.41283 0 0 .44283 87.782 87.492)" gradientUnits="userSpaceOnUse"><stop stop-color="#fff" offset="0"/><stop stop-color="#fcf085" offset="1"/></radialGradient><radialGradient id="c" cx="148.36" cy="136.66" r="94.5" gradientTransform="matrix(1.2645 .0056534 -.005291 1.1835 -39.885 -50.331)" gradientUnits="userSpaceOnUse" xlink:href="#a"/><linearGradient id="l" x1="46" x2="173.5" y1="148.75" y2="194.75" gradientUnits="userSpaceOnUse"><stop stop-color="#c4a000" offset="0"/><stop stop-color="#c4a000" stop-opacity="0" offset="1"/></linearGradient><linearGradient id="k" x1="179" x2="173.5" y1="137.75" y2="194.75" gradientUnits="userSpaceOnUse"><stop stop-color="#c4a000" offset="0"/><stop stop-color="#c4a000" stop-opacity="0" offset="1"/></linearGradient><linearGradient id="j" x1="190.5" x2="218" y1="136.5" y2="114.5" gradientUnits="userSpaceOnUse"><stop stop-color="#fce94f" offset="0"/><stop stop-color="#fef4a9" offset="1"/></linearGradient><linearGradient id="i" x1="103.5" x2="92" y1="136.5" y2="114.5" gradientUnits="userSpaceOnUse"><stop stop-color="#fce94f" offset="0"/><stop stop-color="#fef4a9" offset="1"/></linearGradient><filter id="m" x="-.079975" y="-.18128" width="1.16" height="1.3626" color-interpolation-filters="sRGB"><feGaussianBlur stdDeviation="3.9654399"/></filter><radialGradient id="b" cx="148.36" cy="136.66" r="94.5" gradientTransform="matrix(-1.0455 -.75445 .70609 -.97848 180.78 442.88)" gradientUnits="userSpaceOnUse" xlink:href="#a"/><linearGradient id="h" x1="150.5" x2="118" y1="125.5" y2="104.5" gradientUnits="userSpaceOnUse"><stop stop-color="#fdf4a4" offset="0"/><stop stop-color="#fdf4a4" stop-opacity="0" offset="1"/></linearGradient><linearGradient id="g" x1="157.5" x2="164" y1="134.5" y2="68.5" gradientUnits="userSpaceOnUse"><stop stop-color="#eed404" offset="0"/><stop stop-color="#fdf193" offset="1"/></linearGradient></defs><g transform="translate(-20 -30)"><g><path transform="translate(49,71)" d="m164 177.5-64.427-39.22-64.31 39.412 17.392-73.393-57.356-48.984 75.176-6.1391 28.862-69.685 29.069 69.599 75.193 5.9159-57.21 49.154z" enable-background="new" fill="#6b6d34" filter="url(#n)" opacity=".48684"/><g enable-background="new"><path transform="translate(49,70.5)" d="m164 177.5-64.427-39.22-64.31 39.412 17.392-73.393-57.356-48.984 75.176-6.1391 28.862-69.685 29.069 69.599 75.193 5.9159-57.21 49.154z" fill="#869436" filter="url(#o)" opacity=".48684"/><path transform="translate(49,69)" d="m164 177.5-64.427-39.22-64.31 39.412 17.392-73.393-57.356-48.984 75.176-6.1391 28.862-69.685 29.069 69.599 75.193 5.9159-57.21 49.154z" fill="#edd400"/><path d="m45.5 124 102.5 33-29-39z" color="#000000" enable-background="accumulate" fill="url(#i)"/><path d="m148.5 49.5-29 69 29.5 39z" fill="url(#h)"/><path d="m149 49.5 29 69-29.5 39z" fill="url(#g)"/><path d="m251 124-102.5 33 29-39z" fill="url(#j)"/><path d="m46 124.5 102.5 33-47.5 15.5z" fill="url(#l)"/><path d="m252 124.5-102.5 33 47.5 15.5z" color="#000000" enable-background="accumulate" fill="url(#k)"/><path d="m149 157.5 64 88.5-16.5-73z" fill-opacity="0"/><path d="m149 157.5 64 88.5-16.5-73z" fill="#edd400"/><path d="m149 157.5-64 88.5 16.5-73z" fill="#edd400"/><path d="m84.5 246 64-88v49.5z" fill="#e0b700"/><path d="m212.5 246-64-88v49.5z" fill="#c4a000"/><path d="m148.5 49.5-0.5 105.5-95.5-28.5 94 31.5-50 71 52.5-69 54 74-51.5-75.5 73-25.5-74.5 22z" fill="url(#d)"/><path transform="matrix(1.0096 0 0 1.0096 48.045 68.245)" d="m164 177.5-64.427-39.22-64.31 39.412 17.392-73.393-57.356-48.984 75.176-6.1391 28.862-69.685 29.069 69.599 75.193 5.9159-57.21 49.154z" clip-path="url(#q)" fill="none" filter="url(#p)" opacity=".25439" stroke="#000" stroke-width="1.981"/><path transform="matrix(1 0 0 1.1499 0 -33.35)" d="m87.5 242 60.5-40.5 58.5 38-58-50z" fill="url(#f)" filter="url(#m)" opacity=".26754"/><path d="m104 173-16.5 68.5 15-46.5z" fill="url(#e)" opacity=".48684"/><path d="m59 125 61.5-5 27.97-66.823 27.53 66.823 72 5.5-72.763-4.591-26.768-64.621-27 64.652z" fill="url(#c)" opacity=".61842"/><path d="m202.71 238.82-53.974-32.317-62.818 38.841 16.785-71.748-56.457-47.251 57.629 46.949-16.112 69.469 60.727-37.615z" fill="url(#b)" opacity=".26754"/></g></g></g></svg>
