<?xml version="1.0" encoding="UTF-8"?>
<svg enable-background="new" version="1.0" viewBox="0 0 256 256" xmlns="http://www.w3.org/2000/svg" xmlns:xlink="http://www.w3.org/1999/xlink"><defs><radialGradient id="e" cx="192" cy="-20.643" r="72" gradientTransform="matrix(5.7463 0 0 1.676 -967.29 -81.197)" gradientUnits="userSpaceOnUse"><stop stop-color="#fff" offset="0"/><stop stop-color="#dae5f2" offset="1"/></radialGradient><linearGradient id="h" x1="216.37" x2="216.37" y1="143.16" y2="130.19" gradientUnits="userSpaceOnUse"><stop stop-color="#fff" offset="0"/><stop stop-color="#fff" stop-opacity="0" offset="1"/></linearGradient><filter id="m" x="-.037128" y="-.15626" width="1.0743" height="1.3125" color-interpolation-filters="sRGB"><feGaussianBlur stdDeviation="2.0948028"/></filter><radialGradient id="d" cx="191.98" cy="38.547" r="56.569" gradientTransform="matrix(1.6033 .12129 -.050263 .59411 -169.89 -206.78)" gradientUnits="userSpaceOnUse" xlink:href="#a"/><linearGradient id="a"><stop stop-color="#fff" offset="0"/><stop stop-color="#fff" stop-opacity="0" offset="1"/></linearGradient><radialGradient id="c" cx="191.98" cy="38.547" r="56.569" gradientTransform="matrix(.90964 .072771 -.028517 .35646 -255.62 -270.75)" gradientUnits="userSpaceOnUse" xlink:href="#a"/><radialGradient id="b" cx="191.98" cy="38.547" r="56.569" gradientTransform="matrix(.91255 3.5858e-8 0 1.7255 -261.27 -95.613)" gradientUnits="userSpaceOnUse"><stop stop-color="#fff" offset="0"/><stop stop-color="#fff" stop-opacity="0" offset="1"/></radialGradient><filter id="l" color-interpolation-filters="sRGB"><feGaussianBlur stdDeviation="1.0684422"/></filter><linearGradient id="g" x1="192.32" x2="114.32" y1="-.066504" y2="-219.99" gradientUnits="userSpaceOnUse"><stop stop-color="#2e3436" offset="0"/><stop stop-color="#babdb6" offset="1"/></linearGradient><filter id="k" color-interpolation-filters="sRGB"><feGaussianBlur stdDeviation="1.0684422"/></filter><linearGradient id="f" x1="916.09" x2="1060.8" y1="-139.53" y2="71.418" gradientUnits="userSpaceOnUse"><stop stop-color="#2e3436" offset="0"/><stop stop-color="#babdb6" offset="1"/></linearGradient><filter id="j" color-interpolation-filters="sRGB"><feGaussianBlur stdDeviation="1.0288281"/></filter><clipPath id="n"><path d="m52.125-164.47c-14.197 0-25.625 11.428-25.625 25.625v119.09c0 14.197 11.428 25.625 25.625 25.625h95.531l52.594 38.031-9.2812-38.031h28.906c14.197 0 25.625-11.428 25.625-25.625v-119.09c0-14.197-11.428-25.625-25.625-25.625zm0 7.875h167.75c9.9708 0 17.75 7.7793 17.75 17.75v119.09c0 9.9707-7.7792 17.75-17.75 17.75h-28.906a7.8758 7.8758 0 0 0-7.6563 9.75l4.2187 17.219-35.25-25.469a7.8758 7.8758 0 0 0-4.625-1.5h-95.531c-9.9706 0-17.75-7.7794-17.75-17.75v-119.09c0-9.9706 7.7794-17.75 17.75-17.75z" enable-background="accumulate" fill="none" stroke="#000" stroke-width=".54061"/></clipPath><filter id="i" color-interpolation-filters="sRGB"><feGaussianBlur stdDeviation="1.6026563"/></filter></defs><g transform="translate(-850,190)"><g><path d="m893.12-161.47c-14.197 0-25.625 11.428-25.625 25.625v119.09c0 14.197 11.428 25.625 25.625 25.625h95.531l52.594 38.031-9.2812-38.031h28.906c14.197 0 25.625-11.428 25.625-25.625v-119.09c0-14.197-11.428-25.625-25.625-25.625zm0 7.875h167.75c9.9708 0 17.75 7.7794 17.75 17.75v119.09c0 9.9707-7.7792 17.75-17.75 17.75h-28.906a7.8758 7.8758 0 0 0-7.6563 9.75l4.2187 17.219-35.25-25.469a7.8758 7.8758 0 0 0-4.6251-1.5h-95.531c-9.9706 0-17.75-7.7794-17.75-17.75v-119.09c0-9.9706 7.7794-17.75 17.75-17.75z" enable-background="accumulate" filter="url(#i)" opacity=".3" stroke="#000" stroke-width=".54061"/><g transform="translate(840)" clip-path="url(#n)" enable-background="new"><path d="m52.112-164.46c-14.197 0-25.618 11.421-25.618 25.618v119.11c0 14.197 11.421 25.618 25.618 25.618h95.538l52.604 38.023-9.2707-38.023h28.905c14.197 0 25.618-11.421 25.618-25.618v-119.11c0-14.197-11.421-25.618-25.618-25.618z" enable-background="accumulate" fill="url(#e)"/><path transform="translate(-841,-1)" d="m892.12-161.53c-12.617 0-22.682 10.064-22.682 22.682v119.09c0 12.617 10.064 22.682 22.682 22.682h95.531a2.9433 2.9433 0 0 1 1.7246 0.55859l46.113 33.346-7.3847-30.264a2.9433 2.9433 0 0 1 2.8594-3.6406h28.906c12.618 0 22.682-10.064 22.682-22.682v-119.09c0-12.617-10.064-22.682-22.682-22.682z" color="#000000" enable-background="accumulate" fill="none" filter="url(#j)" stroke="#fff" stroke-width="2"/><path transform="matrix(1.5209 0 0 1.5209 -156.02 -219.22)" d="m136.18 143.12h65.342l24.119 17.77-8.2811-18.124h28.936c10.966 0 13.565-12.734 13.565-12.734h-135.41s2.1957 13.088 11.729 13.088z" enable-background="accumulate" fill="url(#h)" filter="url(#m)"/><rect x="44.983" y="-161.93" width="181.97" height="2.6886" enable-background="new" fill="url(#d)"/><rect transform="rotate(90)" x="-133.7" y="-243.85" width="103.24" height="1.6132" enable-background="new" fill="url(#c)"/><rect transform="rotate(90)" x="-137.7" y="-29.908" width="103.24" height="1.6132" enable-background="new" fill="url(#b)"/><path d="m52.112-164.46c-14.197 0-25.618 11.421-25.618 25.618v119.11c0 14.197 11.421 25.618 25.618 25.618h95.538l54.104 40.273-10.771-40.273h28.905c14.197 0 25.618-11.421 25.618-25.618v-119.11c0-14.197-11.421-25.618-25.618-25.618z" color="#000000" enable-background="accumulate" fill="none" filter="url(#l)" stroke="url(#g)" stroke-width="2"/><path transform="translate(-840 1.3411e-6)" d="m892.12-156.59c-9.9706 0-17.75 7.7794-17.75 17.75v119.09c0 9.9706 7.7794 17.75 17.75 17.75h95.531a7.8758 7.8758 0 0 1 4.6152 1.4941l35.256 25.494-4.2089-17.246a7.8758 7.8758 0 0 1 7.6504-9.7422h28.906c9.9708 0 17.75-7.7793 17.75-17.75v-119.09c0-9.9707-7.7792-17.75-17.75-17.75z" color="#000000" enable-background="accumulate" fill="none" filter="url(#k)" stroke="url(#f)" stroke-width="2"/></g></g></g></svg>
