<?xml version="1.0" encoding="UTF-8"?>
<svg enable-background="new" version="1.0" viewBox="0 0 256 256" xmlns="http://www.w3.org/2000/svg" xmlns:xlink="http://www.w3.org/1999/xlink"><defs><linearGradient id="a"><stop stop-color="#fff" offset="0"/><stop stop-color="#fff" stop-opacity="0" offset="1"/></linearGradient><filter id="j" x="-.037128" y="-.15626" width="1.0743" height="1.3125" color-interpolation-filters="sRGB"><feGaussianBlur stdDeviation="2.0948028"/></filter><filter id="i" color-interpolation-filters="sRGB"><feGaussianBlur stdDeviation="1.0684422"/></filter><clipPath id="k"><path d="m52.112-164.46c-14.197 0-25.618 11.421-25.618 25.618v119.11c0 14.197 11.421 25.618 25.618 25.618h95.538l52.604 38.023-9.2707-38.023h28.905c14.197 0 25.618-11.421 25.618-25.618v-119.11c0-14.197-11.421-25.618-25.618-25.618z" enable-background="accumulate" fill="none" stroke="#000" stroke-width=".54061"/></clipPath><radialGradient id="e" cx="190.26" cy="-34.366" r="72" gradientTransform="matrix(5.7463 0 0 1.7468 -967.29 -78.763)" gradientUnits="userSpaceOnUse"><stop stop-color="#c7f19f" offset="0"/><stop stop-color="#69c014" offset="1"/></radialGradient><linearGradient id="g" x1="216.37" x2="216.37" y1="143.16" y2="130.19" gradientUnits="userSpaceOnUse"><stop stop-color="#fff" offset="0"/><stop stop-color="#fff" stop-opacity="0" offset="1"/></linearGradient><radialGradient id="d" cx="191.98" cy="38.547" r="56.569" gradientTransform="matrix(1.6033 .12129 -.050263 .59411 -169.89 -206.78)" gradientUnits="userSpaceOnUse" xlink:href="#a"/><radialGradient id="c" cx="191.98" cy="38.547" r="56.569" gradientTransform="matrix(.90964 .072771 -.028517 .35646 -255.62 -270.75)" gradientUnits="userSpaceOnUse" xlink:href="#a"/><radialGradient id="b" cx="191.98" cy="38.547" r="56.569" gradientTransform="matrix(.91255 3.5858e-8 0 1.7255 -261.27 -95.613)" gradientUnits="userSpaceOnUse"><stop stop-color="#fff" offset="0"/><stop stop-color="#fff" stop-opacity="0" offset="1"/></radialGradient><linearGradient id="f" x1="192.32" x2="192.32" y1="-.066504" y2="-161.99" gradientUnits="userSpaceOnUse"><stop stop-color="#1d3a02" offset="0"/><stop stop-color="#4e9a06" offset="1"/></linearGradient><filter id="h" color-interpolation-filters="sRGB"><feGaussianBlur stdDeviation="1.6026632"/></filter></defs><g transform="translate(-10,190)"><path d="m53.112-161.46c-14.197 0-25.618 11.421-25.618 25.618v119.11c0 14.197 11.421 25.618 25.618 25.618h95.538l52.604 38.023-9.2707-38.023h28.905c14.197 0 25.618-11.421 25.618-25.618v-119.11c0-14.197-11.421-25.618-25.618-25.618z" enable-background="accumulate" filter="url(#h)" opacity=".5"/><g clip-path="url(#k)" enable-background="new"><path d="m52.112-164.46c-14.197 0-25.618 11.421-25.618 25.618v119.11c0 14.197 11.421 25.618 25.618 25.618h95.538l52.604 38.023-9.2707-38.023h28.905c14.197 0 25.618-11.421 25.618-25.618v-119.11c0-14.197-11.421-25.618-25.618-25.618z" enable-background="accumulate" fill="url(#e)"/><path transform="matrix(1.5209 0 0 1.5209 -156.02 -219.22)" d="m136.18 143.12h65.342l24.119 17.77-8.2811-18.124h28.936c10.966 0 13.565-12.734 13.565-12.734h-135.41s2.1957 13.088 11.729 13.088z" enable-background="accumulate" fill="url(#g)" filter="url(#j)" opacity=".38853"/><rect x="44.983" y="-161.93" width="181.97" height="2.6886" enable-background="new" fill="url(#d)" opacity=".6"/><rect transform="rotate(90)" x="-133.7" y="-243.85" width="103.24" height="1.6132" enable-background="new" fill="url(#c)" opacity=".6"/><rect transform="rotate(90)" x="-137.7" y="-29.908" width="103.24" height="1.6132" enable-background="new" fill="url(#b)" opacity=".6"/><path d="m52.112-164.46c-14.197 0-25.618 11.421-25.618 25.618v119.11c0 14.197 11.421 25.618 25.618 25.618h95.538l54.104 40.273-10.771-40.273h28.905c14.197 0 25.618-11.421 25.618-25.618v-119.11c0-14.197-11.421-25.618-25.618-25.618z" color="#000000" enable-background="accumulate" fill="none" filter="url(#i)" stroke="url(#f)" stroke-width="2"/></g></g></svg>
