<?xml version="1.0" encoding="UTF-8" standalone="no"?>
<svg
   xmlns:dc="http://purl.org/dc/elements/1.1/"
   xmlns:cc="http://creativecommons.org/ns#"
   xmlns:rdf="http://www.w3.org/1999/02/22-rdf-syntax-ns#"
   xmlns:svg="http://www.w3.org/2000/svg"
   xmlns="http://www.w3.org/2000/svg"
   xmlns:xlink="http://www.w3.org/1999/xlink"
   width="32"
   version="1.0"
   style="display:inline;enable-background:new"
   id="svg11300"
   height="32">
  <title
     id="title8836">Optical Drive</title>
  <metadata
     id="metadata154">
    <rdf:RDF>
      <cc:Work
         rdf:about="">
        <dc:format>image/svg+xml</dc:format>
        <dc:type
           rdf:resource="http://purl.org/dc/dcmitype/StillImage" />
        <dc:title />
        <dc:creator>
          <cc:Agent>
            <dc:title />
          </cc:Agent>
        </dc:creator>
        <dc:contributor>
          <cc:Agent>
            <dc:title />
          </cc:Agent>
        </dc:contributor>
        <dc:source />
        <cc:license
           rdf:resource="" />
        <dc:subject>
          <rdf:Bag />
        </dc:subject>
      </cc:Work>
    </rdf:RDF>
  </metadata>
  <defs
     id="defs3">
    <linearGradient
       gradientUnits="userSpaceOnUse"
       y2="48.404987"
       x2="23.71875"
       y1="14.463861"
       x1="19.450956"
       id="linearGradient5172"
       xlink:href="#linearGradient5166" />
    <linearGradient
       id="linearGradient5166">
      <stop
         id="stop5168"
         offset="0"
         style="stop-color:white;stop-opacity:1;" />
      <stop
         id="stop5170"
         offset="1"
         style="stop-color:white;stop-opacity:0;" />
    </linearGradient>
    <linearGradient
       id="linearGradient5176">
      <stop
         id="stop5178"
         offset="0"
         style="stop-color:black;stop-opacity:1;" />
      <stop
         id="stop5180"
         offset="1"
         style="stop-color:black;stop-opacity:0;" />
    </linearGradient>
    <linearGradient
       id="linearGradient5162">
      <stop
         id="stop5164"
         offset="0"
         style="stop-color:#babdb6;stop-opacity:1;" />
      <stop
         id="stop5166"
         offset="1"
         style="stop-color:white;stop-opacity:1;" />
    </linearGradient>
    <linearGradient
       id="linearGradient5188">
      <stop
         id="stop5190"
         offset="0"
         style="stop-color:white;stop-opacity:1;" />
      <stop
         id="stop5192"
         offset="1"
         style="stop-color:#aeaea3;stop-opacity:1;" />
    </linearGradient>
    <linearGradient
       id="linearGradient5196">
      <stop
         id="stop5198"
         offset="0"
         style="stop-color:#dfe2dc;stop-opacity:1;" />
      <stop
         id="stop5200"
         offset="1"
         style="stop-color:#86917a;stop-opacity:1;" />
    </linearGradient>
    <linearGradient
       id="linearGradient5150">
      <stop
         id="stop5152"
         offset="0"
         style="stop-color:black;stop-opacity:1;" />
      <stop
         id="stop5154"
         offset="1"
         style="stop-color:black;stop-opacity:0;" />
    </linearGradient>
    <radialGradient
       r="21.478369"
       fy="40.663769"
       fx="24.837126"
       cy="40.663769"
       cx="24.837126"
       gradientTransform="matrix(1,0,0,0.325103,0,27.44386)"
       gradientUnits="userSpaceOnUse"
       id="radialGradient2968"
       xlink:href="#linearGradient5150" />
    <radialGradient
       r="22.597088"
       fy="14.210698"
       fx="23.688078"
       cy="14.210698"
       cx="23.688078"
       gradientTransform="matrix(2.135667,0,0,2.110607,222.46822,40.133154)"
       gradientUnits="userSpaceOnUse"
       id="radialGradient2970"
       xlink:href="#linearGradient5188" />
    <radialGradient
       r="22.597088"
       fy="10.853651"
       fx="20.089987"
       cy="10.853651"
       cx="20.089987"
       gradientTransform="matrix(1.790269,0,0,1.769263,233.55604,43.852324)"
       gradientUnits="userSpaceOnUse"
       id="radialGradient2972"
       xlink:href="#linearGradient5196" />
    <linearGradient
       y2="14.412428"
       x2="23.585091"
       y1="36.509514"
       x1="22.008699"
       gradientTransform="translate(249.36998,55.802294)"
       gradientUnits="userSpaceOnUse"
       id="linearGradient2974"
       xlink:href="#linearGradient5162" />
    <linearGradient
       y2="28.554564"
       x2="32.600704"
       y1="20.246058"
       x1="24.365993"
       gradientTransform="translate(249.36998,55.802294)"
       gradientUnits="userSpaceOnUse"
       id="linearGradient2976"
       xlink:href="#linearGradient5162" />
    <linearGradient
       y2="18.389904"
       x2="38.714096"
       y1="10.611729"
       x1="25.632622"
       gradientTransform="translate(249.36998,55.802294)"
       gradientUnits="userSpaceOnUse"
       id="linearGradient2978"
       xlink:href="#linearGradient5176" />
    <radialGradient
       r="21.478369"
       fy="40.663769"
       fx="24.837126"
       cy="40.663769"
       cx="24.837126"
       gradientTransform="matrix(1,0,0,0.325103,0,27.44386)"
       gradientUnits="userSpaceOnUse"
       id="radialGradient2968-1"
       xlink:href="#linearGradient5150-0" />
    <linearGradient
       id="linearGradient5150-0">
      <stop
         id="stop5152-6"
         offset="0"
         style="stop-color:black;stop-opacity:1;" />
      <stop
         id="stop5154-1"
         offset="1"
         style="stop-color:black;stop-opacity:0;" />
    </linearGradient>
    <radialGradient
       r="22.597088"
       fy="14.210698"
       fx="23.688078"
       cy="14.210698"
       cx="23.688078"
       gradientTransform="matrix(2.135667,0,0,2.110607,222.46822,40.133154)"
       gradientUnits="userSpaceOnUse"
       id="radialGradient2970-5"
       xlink:href="#linearGradient5188-9" />
    <linearGradient
       id="linearGradient5188-9">
      <stop
         id="stop5190-4"
         offset="0"
         style="stop-color:white;stop-opacity:1;" />
      <stop
         id="stop5192-9"
         offset="1"
         style="stop-color:#aeaea3;stop-opacity:1;" />
    </linearGradient>
    <radialGradient
       r="22.597088"
       fy="10.853651"
       fx="20.089987"
       cy="10.853651"
       cx="20.089987"
       gradientTransform="matrix(1.790269,0,0,1.769263,233.55604,43.852324)"
       gradientUnits="userSpaceOnUse"
       id="radialGradient2972-0"
       xlink:href="#linearGradient5196-9" />
    <linearGradient
       id="linearGradient5196-9">
      <stop
         id="stop5198-1"
         offset="0"
         style="stop-color:#dfe2dc;stop-opacity:1;" />
      <stop
         id="stop5200-7"
         offset="1"
         style="stop-color:#86917a;stop-opacity:1;" />
    </linearGradient>
    <linearGradient
       y2="14.412428"
       x2="23.585091"
       y1="36.509514"
       x1="22.008699"
       gradientTransform="translate(249.36998,55.802294)"
       gradientUnits="userSpaceOnUse"
       id="linearGradient2974-7"
       xlink:href="#linearGradient5162-1" />
    <linearGradient
       id="linearGradient5162-1">
      <stop
         id="stop5164-1"
         offset="0"
         style="stop-color:#babdb6;stop-opacity:1;" />
      <stop
         id="stop5166-5"
         offset="1"
         style="stop-color:white;stop-opacity:1;" />
    </linearGradient>
    <linearGradient
       y2="28.554564"
       x2="32.600704"
       y1="20.246058"
       x1="24.365993"
       gradientTransform="translate(249.36998,55.802294)"
       gradientUnits="userSpaceOnUse"
       id="linearGradient2976-9"
       xlink:href="#linearGradient5162-1" />
    <linearGradient
       y2="18.389904"
       x2="38.714096"
       y1="10.611729"
       x1="25.632622"
       gradientTransform="translate(249.36998,55.802294)"
       gradientUnits="userSpaceOnUse"
       id="linearGradient2978-7"
       xlink:href="#linearGradient5176-7" />
    <linearGradient
       id="linearGradient5176-7">
      <stop
         id="stop5178-6"
         offset="0"
         style="stop-color:black;stop-opacity:1;" />
      <stop
         id="stop5180-7"
         offset="1"
         style="stop-color:black;stop-opacity:0;" />
    </linearGradient>
  </defs>
  <g
     transform="translate(-296,-126)"
     style="display:none"
     id="layer6">
    <rect
       y="50"
       x="296"
       width="48"
       style="display:inline;overflow:visible;visibility:visible;fill:#eeeeec;fill-opacity:1;fill-rule:nonzero;stroke:none;stroke-width:2;marker:none;enable-background:accumulate"
       id="rect6284"
       height="48" />
    <rect
       y="177"
       x="303"
       width="22"
       style="display:inline;overflow:visible;visibility:visible;fill:#eeeeec;fill-opacity:1;fill-rule:nonzero;stroke:none;stroke-width:2;marker:none;enable-background:accumulate"
       id="rect6749"
       height="22" />
    <rect
       y="219"
       x="303"
       width="16"
       style="display:inline;overflow:visible;visibility:visible;fill:#eeeeec;fill-opacity:1;fill-rule:nonzero;stroke:none;stroke-width:2;marker:none;enable-background:accumulate"
       id="rect6833"
       height="16" />
    <text
       y="21.513618"
       xml:space="preserve"
       x="20.970737"
       style="font-style:normal;font-weight:normal;line-height:0%;font-family:'Bitstream Vera Sans';display:inline;fill:#000000;fill-opacity:1;stroke:none;enable-background:new"
       id="context"><tspan
         style="font-size:18.30070686px;line-height:1.25"
         y="21.513618"
         x="20.970737"
         id="tspan2716">actions</tspan></text>
    <text
       y="21.513618"
       xml:space="preserve"
       x="191.97073"
       style="font-style:normal;font-variant:normal;font-weight:bold;font-stretch:normal;line-height:0%;font-family:'Droid Sans';-inkscape-font-specification:'Droid Sans Bold';text-align:start;writing-mode:lr-tb;text-anchor:start;display:inline;fill:#000000;fill-opacity:1;stroke:none;enable-background:new"
       id="icon-name"><tspan
         style="font-size:18.30070686px;line-height:1.25"
         y="21.513618"
         x="191.97073"
         id="tspan3023">mail-mark-junk</tspan></text>
    <path
       d="m 279.04688,58.876953 -10.85352,3.189453 -2.84961,6.708985 a 0.83785841,0.83785841 0 0 1 -1.53125,0.02344 l -0.82227,-1.78125 -1.64453,0.09766 v 2.039063 a 0.83785841,0.83785841 0 0 1 -1.4707,0.550781 l -2.92578,-3.363281 -3.91211,4.203125 v 6.537109 l 8.02148,6.998047 a 0.83785841,0.83785841 0 0 1 -0.13867,1.359375 l -4.84961,2.748047 0.12696,2.136719 2.74218,2.419922 a 0.83785841,0.83785841 0 0 1 0.15625,1.072265 l -1.25,2 2.35352,1.007813 2.25976,-1.808594 a 0.83785841,0.83785841 0 0 1 0.58594,-0.181641 l 11.84375,0.884766 a 0.83785841,0.83785841 0 0 1 0.60742,0.333984 l 2.97266,3.962886 2.71289,-4.429682 a 0.83785841,0.83785841 0 0 1 1.11328,-0.298829 l 4.00586,2.169922 4.2461,-0.53125 -0.92188,-1.958984 a 0.83785841,0.83785841 0 0 1 0.16602,-0.949219 l 3.33007,-3.332031 -4.95703,-5.597656 a 0.83785841,0.83785841 0 0 1 0.73828,-1.384766 l 3.86914,0.515625 a 0.83785841,0.83785841 0 0 1 -0.10937,-0.148438 l -3,-5.166015 -4.24023,-0.978516 a 0.83785841,0.83785841 0 0 1 -0.0781,-1.611328 l 3.17383,-1.058594 0.12109,-2.205078 -6.9414,-6.095703 a 0.83785841,0.83785841 0 0 1 -0.2461,-0.378906 z"
       id="path5359"
       style="color:#000000;display:inline;overflow:visible;visibility:visible;fill:none;stroke:url(#linearGradient5172);stroke-width:1;stroke-linecap:butt;stroke-linejoin:miter;stroke-miterlimit:4;stroke-dasharray:none;stroke-dashoffset:0;stroke-opacity:1;marker:none"
       xlink:href="#path4273"
       transform="translate(-25.353555,-32.538059)" />
    <rect
       height="32"
       id="rect2956"
       style="display:inline;overflow:visible;visibility:visible;fill:#eeeeec;fill-opacity:1;fill-rule:nonzero;stroke:none;stroke-width:2;marker:none;enable-background:accumulate"
       width="32"
       x="296"
       y="126" />
  </g>
  <g
     transform="translate(-296,-126)"
     style="display:inline"
     id="layer2">
    <g
       transform="translate(303,126)"
       style="display:inline;enable-background:new"
       id="g32" />
    <g
       transform="translate(46.35355,-5.911613)"
       id="g2958"
       style="display:inline;enable-background:new">
      <ellipse
         ry="6.9826794"
         rx="21.478369"
         cy="40.663769"
         cx="24.837126"
         style="color:#000000;display:inline;overflow:visible;visibility:visible;opacity:0.3258427;fill:url(#radialGradient2968-1);fill-opacity:1;fill-rule:evenodd;stroke:none;stroke-width:1;marker:none"
         id="path4275"
         transform="matrix(1.106996,0,0,1.106996,246.0054,50.390778)" />
      <path
         style="color:#000000;display:inline;overflow:visible;visibility:visible;fill:url(#radialGradient2970-5);fill-opacity:1;fill-rule:evenodd;stroke:url(#radialGradient2972-0);stroke-width:1;stroke-linecap:butt;stroke-linejoin:miter;stroke-miterlimit:4;stroke-dasharray:none;stroke-dashoffset:0;stroke-opacity:1;marker:none"
         d="m 258.38559,93.37247 -1.76777,2.82843 3.71231,1.59099 2.65165,-2.12132 11.84404,0.88388 3.71231,4.94975 3.35876,-5.48008 4.24264,2.2981 5.65685,-0.70711 -1.41421,-3.0052 3.88909,-3.88909 -5.48008,-6.18719 5.3033,0.70711 2.2981,-2.12132 -3.00521,0.53033 -3.18198,-5.48008 -4.59619,-1.06066 3.71231,-1.23743 0.17678,-3.18198 -7.24785,-6.363965 -2.65165,-8.485282 -12.02081,3.535534 -3.00521,7.071068 -1.06066,-2.298097 -3.0052,0.176777 v 2.828425 l -3.53553,-4.065862 -4.77298,5.126522 v 7.24785 l 8.30851,7.24784 -5.3033,3.00521 0.17677,3.0052 z"
         id="path4273" />
      <path
         style="color:#000000;display:inline;overflow:visible;visibility:visible;opacity:0.76966289;fill:url(#linearGradient2974-7);fill-opacity:1;fill-rule:evenodd;stroke:none;stroke-width:1;marker:none"
         d="m 268.81541,78.52323 -0.88388,6.54073 2.12132,3.35876 -4.59619,1.41422 -2.65165,5.3033 12.02081,0.88388 2.82843,4.06586 2.29809,-6.18718 -4.41941,-2.82843 -6.71752,1.94455 2.65165,-3.53554 -1.41421,-6.18718 z"
         id="path5158" />
      <path
         style="color:#000000;display:inline;overflow:visible;visibility:visible;opacity:0.61797755;fill:url(#linearGradient2976-9);fill-opacity:1;fill-rule:evenodd;stroke:none;stroke-width:1;marker:none"
         d="m 269.87607,79.58389 4.41942,6.89429 7.24785,-4.94975 4.41941,2.47487 3.53554,-3.0052 3.18198,2.82843 -3.00521,-4.94975 -6.89429,-1.59099 -8.66206,-4.24264 c 0,0 -12.37436,3.71231 -11.66726,3.71231 0.70711,0 10.25305,0.17678 10.25305,0.17678 l 1.59099,-2.2981 4.24264,1.94454 z"
         id="path5160" />
      <path
         style="color:#000000;display:inline;overflow:visible;visibility:visible;fill:#ffffff;fill-opacity:1;fill-rule:evenodd;stroke:none;stroke-width:1;marker:none"
         d="m 278.89168,59.254567 -10.42982,3.535534 -1.41421,3.889087 6.0104,4.242642 5.65686,-5.480079 z"
         id="path5172" />
      <path
         style="color:#000000;display:inline;overflow:visible;visibility:visible;opacity:0.13483145;fill:url(#linearGradient2978-7);fill-opacity:1;fill-rule:evenodd;stroke:none;stroke-width:1;marker:none"
         d="m 279.06846,59.60812 2.2981,7.424621 4.24264,3.712309 -8.66206,-1.944542 c 0,0 -2.47487,2.828432 -1.41421,2.828432 1.06066,0 12.55114,1.41421 12.55114,1.41421 l -0.17677,2.2981 -16.26346,-3.00521 7.07107,-6.540735 z"
         id="path5174" />
      <path
         style="color:#000000;display:inline;overflow:visible;visibility:visible;fill:#ffffff;fill-opacity:1;fill-rule:evenodd;stroke:none;stroke-width:1;marker:none"
         d="m 256.7946,70.03795 -0.88389,8.83883 1.94455,-6.01041 5.12652,1.59099 1.23744,-2.65165 6.18718,0.88389 1.41422,-1.23744 -9.01561,-0.35355 -0.88389,2.47487 -3.88908,-1.94454 z"
         id="path5184" />
      <path
         style="color:#000000;display:inline;overflow:visible;visibility:visible;fill:#ffffff;fill-opacity:1;fill-rule:evenodd;stroke:none;stroke-width:1;marker:none"
         d="m 271.82062,83.11942 3.0052,3.53554 6.89429,-4.5962 4.24264,2.2981 6.89429,6.54074 -7.60139,-5.83364 -3.71231,-1.06066 -7.24785,4.94975 z"
         id="path5186" />
    </g>
    <image
       xlink:href="file:///home/hbons/.cache/.fr-vhiaz5/tango-icon-theme-0.8.90/32x32/actions/mail-mark-junk.png"
       width="32"
       height="32"
       id="image2924"
       x="296"
       y="126"
       style="display:inline;enable-background:new" />
    <image
       xlink:href="file:///home/hbons/.cache/.fr-PfuGB0/tango-icon-theme-0.8.90/22x22/actions/mail-mark-junk.png"
       width="22"
       height="22"
       id="image2938"
       x="303"
       y="177"
       style="display:inline;enable-background:new" />
    <image
       xlink:href="file:///home/hbons/.cache/.fr-8zwR1v/tango-icon-theme-0.8.90/16x16/actions/mail-mark-junk.png"
       width="16"
       height="16"
       id="image2952"
       x="303"
       y="219"
       style="display:inline;enable-background:new" />
  </g>
  <g
     transform="translate(-296,-126)"
     style="display:inline"
     id="layer4" />
</svg>
