<?xml version="1.0" encoding="UTF-8"?>
<svg enable-background="new" version="1.0" viewBox="0 0 256 256" xmlns="http://www.w3.org/2000/svg" xmlns:xlink="http://www.w3.org/1999/xlink"><defs><linearGradient id="v"><stop stop-color="#2e3436" offset="0"/><stop stop-color="#555753" stop-opacity="0" offset="1"/></linearGradient><linearGradient id="w"><stop stop-color="#fff" offset="0"/><stop stop-color="#fff" stop-opacity="0" offset="1"/></linearGradient><linearGradient id="x"><stop stop-color="#babdb6" offset="0"/><stop stop-color="#fff" offset=".28173"/><stop stop-color="#888a85" offset=".59382"/><stop stop-color="#babdb6" offset=".82276"/><stop stop-color="#888a85" offset="1"/></linearGradient><linearGradient id="y"><stop stop-color="#888a85" offset="0"/><stop stop-color="#fff" offset="1"/></linearGradient><clipPath id="am"><rect x="156" y="612" width="104" height="44" rx="4.1739" ry="4.1739" enable-background="new" fill="#808080"/></clipPath><filter id="af"><feGaussianBlur stdDeviation="1.54"/></filter><clipPath id="al"><path d="m208 476c-33.24 0-60 13.135-60 29.469v48.406c0 5.6084 4.3347 10.125 9.7188 10.125h100.56c5.3841 0 9.7188-4.5166 9.7188-10.125v-48.406c0-16.333-26.76-29.469-60-29.469z" enable-background="new" fill="#808080"/></clipPath><clipPath id="h"><path d="m184 520v50c0 3.324-2.676 6-6 6s-6-2.676-6-6v-50z" enable-background="new" fill="#666"/></clipPath><filter id="g"><feGaussianBlur stdDeviation="0.34828"/></filter><filter id="ae" x="-.0385" y="-.13588" width="1.077" height="1.2718"><feGaussianBlur stdDeviation="1.925"/></filter><filter id="ad" x="-.1155" y="-.40765" width="1.231" height="1.8153"><feGaussianBlur stdDeviation="5.775"/></filter><filter id="ab" x="-.11959" y="-.36375" width="1.2392" height="1.7275"><feGaussianBlur stdDeviation="3.6374999"/></filter><filter id="aa"><feGaussianBlur stdDeviation="1.06"/></filter><filter id="ak"><feGaussianBlur stdDeviation="2.9777778"/></filter><filter id="aj" x="-.268" y="-.13551" width="1.536" height="1.271"><feGaussianBlur stdDeviation="8.9333333"/></filter><filter id="f"><feGaussianBlur stdDeviation="0.88220129"/></filter><filter id="e"><feGaussianBlur stdDeviation="0.3303125"/></filter><filter id="ac" x="-.14762" y="-.23056" width="1.2953" height="1.4611"><feGaussianBlur stdDeviation="4.9208332"/></filter><filter id="ai"><feGaussianBlur stdDeviation="1.9097392"/></filter><filter id="ah"><feGaussianBlur stdDeviation="1.8248241"/></filter><linearGradient id="z" x1="111" x2="97" y1="737.73" y2="655" gradientTransform="translate(0,2)" gradientUnits="userSpaceOnUse"><stop offset="0"/><stop stop-opacity="0" offset="1"/></linearGradient><filter id="ag"><feGaussianBlur stdDeviation="3.8243995"/></filter><linearGradient id="o" x1="-149" x2="-149" y1="709" y2="644.64" gradientUnits="userSpaceOnUse"><stop stop-color="#fff" offset="0"/><stop stop-color="#fff" stop-opacity=".34459" offset=".28986"/><stop stop-color="#fff" stop-opacity="0" offset="1"/></linearGradient><mask id="n" maskUnits="userSpaceOnUse"><rect x="-240" y="620" width="224" height="176" rx="1.0825" ry="1.0532" enable-background="new"/><path d="m-127 790c-25-58 215.17-82 23-82-256 0-24-16-56-80" enable-background="new" fill="none" stroke="url(#o)" stroke-linejoin="round" stroke-width="12"/></mask><linearGradient id="u" x1="179.16" x2="166.59" y1="534.5" y2="493" gradientTransform="translate(0,-4)" gradientUnits="userSpaceOnUse"><stop stop-color="#555753" offset="0"/><stop stop-color="#888a85" offset="1"/></linearGradient><linearGradient id="t" x1="200" x2="200" y1="492" y2="488" gradientTransform="translate(0,-980)" gradientUnits="userSpaceOnUse"><stop stop-color="#babdb6" offset="0"/><stop stop-color="#555753" offset="1"/></linearGradient><linearGradient id="s" x1="202" x2="202" y1="500" y2="496" gradientTransform="translate(0,-996)" gradientUnits="userSpaceOnUse"><stop stop-color="#babdb6" offset="0"/><stop stop-color="#555753" offset="1"/></linearGradient><radialGradient id="m" cx="207.84" cy="414.17" r="40" gradientTransform="matrix(1.2746 .46564 -.16442 .39514 6.6915 238.37)" gradientUnits="userSpaceOnUse"><stop stop-color="#fff" offset="0"/><stop stop-color="#fce94f" stop-opacity="0" offset="1"/></radialGradient><linearGradient id="r" x1="187.74" x2="313.17" y1="511.65" y2="610.17" gradientUnits="userSpaceOnUse"><stop stop-color="#555753" offset="0"/><stop stop-color="#2e3436" offset="1"/></linearGradient><radialGradient id="l" cx="155.75" cy="465.05" r="60" gradientTransform="matrix(2.2297 0 0 .13854 -187.53 439.88)" gradientUnits="userSpaceOnUse"><stop stop-color="#888a85" offset="0"/><stop stop-color="#555753" offset="1"/></radialGradient><linearGradient id="q" x1="200.5" x2="176.5" y1="533" y2="474.5" gradientUnits="userSpaceOnUse"><stop stop-color="#2e3436" offset="0"/><stop stop-color="#555753" offset="1"/></linearGradient><radialGradient id="k" cx="208" cy="471.95" r="60" gradientTransform="matrix(.75889 0 0 .10104 50.15 457.63)" gradientUnits="userSpaceOnUse"><stop stop-color="#fff" offset="0"/><stop stop-color="#fce94f" stop-opacity="0" offset="1"/></radialGradient><linearGradient id="p" x1="208" x2="215.15" y1="517" y2="585.18" gradientTransform="translate(0,100)" gradientUnits="userSpaceOnUse"><stop stop-color="#2e3436" offset="0"/><stop stop-color="#555753" offset="1"/></linearGradient><radialGradient id="j" cx="238.8" cy="581.3" r="51.953" gradientTransform="matrix(2.0249 0 0 .6469 -263.25 182.14)" gradientUnits="userSpaceOnUse"><stop stop-color="#888a85" offset="0"/><stop stop-color="#555753" offset="1"/></radialGradient><linearGradient id="d" x1="171.98" x2="184" y1="560.25" y2="560.25" gradientUnits="userSpaceOnUse" xlink:href="#x"/><linearGradient id="c" x1="184" x2="178" y1="525" y2="539.18" gradientUnits="userSpaceOnUse" xlink:href="#y"/><radialGradient id="a" cx="174.12" cy="542.12" r="3.125" gradientUnits="userSpaceOnUse" xlink:href="#w"/><linearGradient id="b" x1="182.46" x2="173.09" y1="554.75" y2="526.37" gradientUnits="userSpaceOnUse" xlink:href="#v"/><radialGradient id="i" cx="207.84" cy="414.17" r="40" gradientTransform="matrix(3.8075 1.0202 -.66694 2.4891 -307.1 -824.33)" gradientUnits="userSpaceOnUse"><stop stop-color="#fff" offset="0"/><stop stop-color="#fce94f" offset="1"/></radialGradient></defs><g transform="translate(-20,-630)"><g><path transform="matrix(1 0 0 1.0185 2 -13.704)" d="m154 794c-25-58 215.17-82 23-82-256 0-24-16-56-80" enable-background="new" fill="none" filter="url(#ag)" opacity=".6" stroke="url(#z)" stroke-linejoin="round" stroke-width="11.89"/><g transform="translate(280)" fill="none" mask="url(#n)" stroke-linejoin="round"><path d="m-127 790c-25-58 215.17-82 23-82-256 0-24-16-56-80" enable-background="new" stroke="#2e3436" stroke-width="12"/><path d="m-131 786c-25-58 215.17-82 23-82-256 0-24-16-56-80" enable-background="new" filter="url(#ah)" opacity=".5" stroke="#babdb6" stroke-width="3"/><path d="m-154.62 623.31-10.75 5.375c3.3292 6.6584 3.1244 11.621 0.9375 16.781s-6.8614 10.454-13.031 15.344c-12.34 9.7786-29.959 17.662-41.406 23.906-2.8618 1.561-5.3562 3.0227-7.4688 4.5938s-4.2798 2.9835-5.25 6.75c-0.48508 1.8833-0.12006 4.4679 0.96875 6.1875s2.4827 2.6608 3.8125 3.375c2.6597 1.4285 5.571 2.1047 9.5625 2.7812 15.966 2.7061 49.188 3.5938 113.25 3.5938 23.958 0 41.158 0.37161 52.781 1.125 4.0658 0.26353 6.5925 0.62481 9.3125 0.96875-3.6426 1.6603-7.9303 3.4888-13.156 5.5938-16.391 6.6022-38.294 15.052-55.125 26-8.4155 5.4742-15.694 11.556-20.25 19s-5.9084 16.765-2.0625 25.688l11-4.75c-2.4041-5.5775-1.7294-9.6864 1.3125-14.656s8.9494-10.287 16.531-15.219c15.164-9.864 36.589-18.29 53.094-24.938 8.2523-3.3239 15.204-6.1283 20.125-8.9375 2.4607-1.4046 4.5153-2.4824 6.3125-5.375 0.8986-1.4463 1.6163-3.9139 0.9375-6.25s-2.2512-3.7599-3.5938-4.625c-2.6852-1.7302-5.3745-2.2947-9.125-2.9375s-8.4703-1.1384-14.531-1.5312c-12.122-0.78568-29.479-1.1562-53.562-1.1562-63.938 0-97.716-1.1123-111.25-3.4062-0.0168-3e-3 -0.0145 3e-3 -0.0312 0 0.79685-0.46735 1.2156-0.79942 2.1562-1.3125 10.553-5.756 28.933-13.872 43.094-25.094 7.0802-5.6107 13.281-12.066 16.656-20.031s3.4208-17.502-1.25-26.844z" enable-background="new" filter="url(#ai)" stroke="#000" stroke-width="3"/></g><g transform="translate(-48)"><g transform="translate(0,300)"><g transform="translate(-4,4)" filter="url(#ab)" opacity=".6"><path transform="matrix(1.0833 0 0 1 -14.333 0)" d="m184 554v18c0 3.324-2.676 6-6 6s-6-2.676-6-6v-18z" enable-background="new"/><path transform="matrix(1.0833 0 0 1 -20.417 0)" d="m245 554v18c0 3.324-2.676 6-6 6s-6-2.676-6-6v-18z" enable-background="new"/></g><path d="m204 536c-33.24 0-60 13.38-60 30v0.0313c0 2.1986 1.7702 3.9688 3.9688 3.9688h112.06c2.1986-5e-5 3.9688-1.7702 3.9688-3.9688v-0.03125c0-16.62-26.76-30-60-30z" enable-background="new" filter="url(#ae)" opacity=".5"/><path d="m204 536c-33.24 0-60 13.38-60 30v0.0313c0 2.1986 1.7702 3.9688 3.9688 3.9688h112.06c2.1986-5e-5 3.9688-1.7702 3.9688-3.9688v-0.03125c0-16.62-26.76-30-60-30z" enable-background="new" filter="url(#ad)" opacity=".5"/><g transform="translate(-4,4)" clip-path="url(#al)"><path d="m208 476c-33.24 0-60 13.135-60 29.469v48.406c0 5.6084 4.3347 10.125 9.7188 10.125h100.56c5.3841 0 9.7188-4.5166 9.7188-10.125v-48.406c0-16.333-26.76-29.469-60-29.469z" enable-background="new" fill="url(#u)"/><path transform="matrix(-.88688 0 0 1 398.12 -2.5)" d="m203.59 477c-30.107 0-54.344 14.695-54.344 32.969h3.623c0-18.083 22.946-32.667 51.627-32.969-0.30286-3e-3 -0.60166 0-0.90574 0z" enable-background="new" fill="#888a85" filter="url(#f)" opacity=".2"/><path transform="matrix(.88235 0 0 1 18.559 -2.5)" d="m203.59 477c-30.107 0-54.344 14.695-54.344 32.969h3.623c0-18.083 22.946-32.667 51.627-32.969-0.30286-3e-3 -0.60166 0-0.90574 0z" enable-background="new" fill="#babdb6" filter="url(#f)" opacity=".4"/><rect transform="matrix(1,0,0,-1,4,-4)" x="184" y="-492" width="36" height="4" rx="3.9375" ry="2" enable-background="new" fill="url(#t)" opacity=".4"/><rect transform="matrix(1,0,0,-1,4,-4)" x="176" y="-500" width="52" height="4" rx="2.8889" ry="2" enable-background="new" fill="url(#s)" opacity=".4"/><path transform="matrix(1.3875 0 0 1 -74.856 -4)" d="m163.5 502.6 28 2.1343-11 20.489 63-28.172-28-2.5611 12-20.489z" enable-background="new" fill="url(#m)" filter="url(#ac)" opacity=".6"/><rect x="148" y="504" width="120" height="60" rx="9.7186" ry="10.124" enable-background="new" fill="url(#r)"/><path d="m157.72 503c-5.3841 0-9.7188 4.5166-9.7188 10.125v2c0-5.6084 4.3347-10.125 9.7188-10.125h100.56c5.3841 0 9.7188 4.5166 9.7188 10.125v-2c0-5.6084-4.3347-10.125-9.7188-10.125z" enable-background="new" fill="url(#l)" filter="url(#e)"/><path d="m208 476c-33.24 0-60 13.135-60 29.469v48.406c0 5.6084 4.3347 10.125 9.7188 10.125h100.56c5.3841 0 9.7188-4.5166 9.7188-10.125v-48.406c0-16.333-26.76-29.469-60-29.469z" enable-background="new" fill="none" filter="url(#aa)" stroke="url(#q)" stroke-linejoin="round" stroke-width="3"/><path d="m157.72 503c-5.3841 0-9.7188 4.5166-9.7188 10.125v2c0-5.6084 4.3347-10.125 9.7188-10.125h100.56c5.3841 0 9.7188 4.5166 9.7188 10.125v-2c0-5.6084-4.3347-10.125-9.7188-10.125z" enable-background="new" fill="url(#k)" filter="url(#e)" opacity=".6"/></g><g transform="translate(-4,-96)" clip-path="url(#am)"><rect x="156" y="612" width="104" height="44" rx="4.1739" ry="4.1739" enable-background="new" fill="url(#p)"/><path d="m156.34 610c-2.4013 0-4.3438 1.9575-4.3438 4.375v37.25c0 2.4174 1.9425 4.375 4.3438 4.375h0.28125c-0.38827-0.63426-0.625-1.3863-0.625-2.1875v-35.625c0-2.3123 1.8752-4.1875 4.1875-4.1875h95.625c2.3123 0 4.1875 1.8752 4.1875 4.1875v-3.8125c0-2.4174-1.9425-4.375-4.3438-4.375z" enable-background="new" filter="url(#af)" opacity=".2"/></g><path d="m254.91 517.38c0.0515 0.26293 0.0937 0.53403 0.0937 0.8125v35.625c0 2.3124-1.8752 4.1875-4.1875 4.1875h-95.625c-1.2196 1e-5 -2.3319-0.51501-3.0938-1.3438 0.38793 1.9054 2.0704 3.3438 4.0938 3.3438h95.625c2.3123 0 4.1875-1.8752 4.1875-4.1875v-35.625c0-1.0839-0.42099-2.072-1.0938-2.8125z" enable-background="new" fill="url(#j)" opacity=".2"/><g transform="translate(-4,4)" clip-path="url(#h)"><path d="m184 520v50c0 3.324-2.676 6-6 6s-6-2.676-6-6v-50z" enable-background="new" fill="url(#d)"/><path d="m184 520v18c0 3.324-2.676 6-6 6s-6-2.676-6-6v-18z" enable-background="new" fill="url(#c)"/><circle transform="matrix(1.1028 0 0 1.1028 -16.407 -54.379)" cx="174.12" cy="542.12" r="3.125" enable-background="new" fill="url(#a)"/><path d="m184 520v50c0 3.324-2.676 6-6 6s-6-2.676-6-6v-50z" enable-background="new" fill="none" filter="url(#g)" stroke="url(#b)" stroke-linejoin="round" stroke-width=".828"/></g><g transform="translate(56,4)" clip-path="url(#h)"><path d="m184 520v50c0 3.324-2.676 6-6 6s-6-2.676-6-6v-50z" enable-background="new" fill="url(#d)"/><path d="m184 520v18c0 3.324-2.676 6-6 6s-6-2.676-6-6v-18z" enable-background="new" fill="url(#c)"/><circle transform="matrix(1.1028 0 0 1.1028 -16.407 -54.379)" cx="174.12" cy="542.12" r="3.125" enable-background="new" fill="url(#a)"/><path d="m184 520v50c0 3.324-2.676 6-6 6s-6-2.676-6-6v-50z" enable-background="new" fill="none" filter="url(#g)" stroke="url(#b)" stroke-linejoin="round" stroke-width=".828"/></g><circle transform="matrix(.38 0 0 .38 105.46 341.49)" cx="174.12" cy="542.12" r="3.125" enable-background="new" fill="#fff"/></g><g transform="translate(0,300)"><path d="m168 430.34 28 6.5926-11 63.289 63-87.022-28-7.9111 12-63.289z" enable-background="new" fill="#fff" filter="url(#aj)"/><path d="m168 430.34 28 6.5926-11 63.289 63-87.022-28-7.9111 12-63.289z" enable-background="new" fill="#fcaf3e" filter="url(#ak)" stroke="#fcaf3e" stroke-linecap="round" stroke-linejoin="round" stroke-width="2"/><path d="m168 430.34 28 6.5926-11 63.289 63-87.022-28-7.9111 12-63.289z" enable-background="new" fill="url(#i)"/></g></g></g></g></svg>
