<?xml version="1.0" encoding="UTF-8"?>
<svg enable-background="new" version="1.0" viewBox="0 0 256 256" xmlns="http://www.w3.org/2000/svg" xmlns:xlink="http://www.w3.org/1999/xlink"><defs><linearGradient id="l"><stop stop-color="#edd400" offset="0"/><stop stop-color="#c4a000" offset="1"/></linearGradient><linearGradient id="n" x1="112" x2="184" y1="168" y2="168" gradientUnits="userSpaceOnUse"><stop stop-color="#888a85" offset="0"/><stop offset=".10764"/><stop stop-color="#79888d" offset=".29861"/><stop offset=".76389"/><stop stop-color="#555753" offset="1"/></linearGradient><filter id="b" x="-1.7639" y="-.029175" width="4.5279" height="1.0583"><feGaussianBlur stdDeviation="2.3886777"/></filter><linearGradient id="m" x1="112" x2="184" y1="102" y2="102" gradientUnits="userSpaceOnUse"><stop stop-color="#fce94f" offset="0"/><stop stop-color="#c4a000" offset=".10764"/><stop stop-color="#fff17b" offset=".30451"/><stop stop-color="#c4a000" offset=".76389"/><stop stop-color="#edd400" offset="1"/></linearGradient><clipPath id="ab"><path d="m148 52c-19.872 0-36 5.376-36 12v196c0 6.624 16.128 12 36 12 19.872 0 36-5.376 36-12v-196c0-6.624-16.128-12-36-12z" enable-background="new"/></clipPath><filter id="s" x="-.042593" y="-.11269" width="1.0852" height="1.2254"><feGaussianBlur stdDeviation="1.1269427"/></filter><linearGradient id="a" x1="-133.49" x2="-155.15" y1="84.035" y2="41.5" gradientUnits="userSpaceOnUse" xlink:href="#l"/><filter id="r"><feGaussianBlur stdDeviation="1.47"/></filter><linearGradient id="k" x1="142.11" x2="142.11" y1="137.96" y2="21.137" gradientUnits="userSpaceOnUse"><stop offset="0"/><stop stop-opacity="0" offset="1"/></linearGradient><radialGradient id="j" cx="-135.75" cy="64.5" r="31.75" gradientTransform="matrix(2.4024 2.9056 -.16835 .20361 201.24 445.81)" gradientUnits="userSpaceOnUse"><stop stop-color="#fff" offset="0"/><stop stop-color="#fff" stop-opacity="0" offset="1"/></radialGradient><radialGradient id="i" cx="-137.22" cy="54.818" r="31.75" gradientTransform="matrix(2.3239 2.5867 -1.1912 1.528 242.75 327.45)" gradientUnits="userSpaceOnUse"><stop stop-color="#fff" offset="0"/><stop stop-color="#646662" offset=".48955"/><stop stop-color="#888a85" offset="1"/></radialGradient><radialGradient id="h" cx="145.72" cy="45.234" r="22.5" gradientTransform="matrix(2.3578 0 0 .32947 -200.95 41.472)" gradientUnits="userSpaceOnUse"><stop offset="0"/><stop stop-opacity="0" offset="1"/></radialGradient><clipPath id="ac"><path d="m148 50c-6.624 0-12 1.792-12 4v7c0 2.208 5.376 4 12 4 6.624 0 12-1.792 12-4v-7c0-2.208-5.376-4-12-4z" enable-background="new"/></clipPath><linearGradient id="q" x1="-118.82" x2="-132.71" y1="79.8" y2="62.278" gradientUnits="userSpaceOnUse"><stop stop-color="#555753" offset="0"/><stop stop-color="#fff" offset="1"/></linearGradient><filter id="aa"><feGaussianBlur stdDeviation="0.205"/></filter><linearGradient id="p" x1="135.5" x2="135.5" y1="54.25" y2="62.25" gradientUnits="userSpaceOnUse"><stop offset="0"/><stop stop-opacity="0" offset="1"/></linearGradient><filter id="z" x="-.0288" y="-.144" width="1.0576" height="1.288"><feGaussianBlur stdDeviation="0.3"/></filter><radialGradient id="g" cx="150.38" cy="70.5" r="12.5" gradientTransform="matrix(1 0 0 .44 0 25.48)" gradientUnits="userSpaceOnUse"><stop stop-color="#fff" offset="0"/><stop stop-color="#fff" offset=".57"/><stop stop-color="#fff" stop-opacity="0" offset="1"/></radialGradient><linearGradient id="o" x1="136" x2="160" y1="57.5" y2="57.5" gradientUnits="userSpaceOnUse"><stop stop-color="#d3d7cf" offset="0"/><stop stop-color="#888a85" offset=".23438"/><stop stop-color="#fff" offset=".65625"/><stop stop-color="#888a85" offset=".90625"/><stop stop-color="#babdb6" offset="1"/></linearGradient><radialGradient id="f" cx="-135.75" cy="64.5" r="31.75" gradientTransform="matrix(1 0 0 .37795 0 40.122)" gradientUnits="userSpaceOnUse"><stop offset="0"/><stop offset=".72667"/><stop stop-opacity="0" offset="1"/></radialGradient><radialGradient id="e" cx="-135.75" cy="64.5" r="31.75" gradientTransform="matrix(1 0 0 .37795 0 40.122)" gradientUnits="userSpaceOnUse"><stop offset="0"/><stop stop-opacity="0" offset="1"/></radialGradient><filter id="x" x="-.28636" y="-.85" width="1.5727" height="2.7"><feGaussianBlur stdDeviation="0.79606628"/></filter><filter id="w" x="-.14447" y="-.72994" width="1.2889" height="2.4599"><feGaussianBlur stdDeviation="0.57041894"/></filter><filter id="v" x="-.97538" y="-.043235" width="2.9508" height="1.0865"><feGaussianBlur stdDeviation="3.6068672"/></filter><filter id="u" x="-.97538" y="-.043235" width="2.9508" height="1.0865"><feGaussianBlur stdDeviation="3.6068672"/></filter><filter id="t" x="-.085186" y="-.22539" width="1.1704" height="1.4508"><feGaussianBlur stdDeviation="2.2538855"/></filter><radialGradient id="d" cx="152.06" cy="50.688" r="1.5625" gradientUnits="userSpaceOnUse"><stop stop-color="#fff" offset="0"/><stop stop-color="#fff" stop-opacity="0" offset="1"/></radialGradient><radialGradient id="c" cx="159.5" cy="73.382" r="29" gradientTransform="matrix(1.5102 6.1079e-7 -1.4138e-7 .34956 -81.376 36.473)" gradientUnits="userSpaceOnUse"><stop stop-color="#fff" offset="0"/><stop stop-color="#fff" stop-opacity="0" offset="1"/></radialGradient><filter id="y"><feGaussianBlur stdDeviation="0.33375"/></filter></defs><g transform="translate(-20 -30)"><g><ellipse transform="matrix(1.1811 0 0 1.0417 308.33 186.81)" cx="-135.75" cy="64.5" rx="31.75" ry="12" enable-background="new" fill="url(#f)"/><ellipse transform="matrix(1.7323 0 0 1.5278 383.16 155.46)" cx="-135.75" cy="64.5" rx="31.75" ry="12" enable-background="new" fill="url(#e)" opacity=".4"/><g transform="translate(0,-8)" clip-path="url(#ab)" enable-background="new"><ellipse transform="matrix(1.1339 0 0 1 301.92 -.50001)" cx="-135.75" cy="64.5" rx="31.75" ry="12" enable-background="new" fill="url(#a)"/><path d="m112 64v196c0 6.624 16.128 12 36 12 19.872 0 36-5.376 36-12v-196z" enable-background="new" fill="url(#n)"/><g transform="translate(0,8)" enable-background="new" fill="#babdb6" font-family="'Trebuchet MS'" stroke-width="1px"><text transform="matrix(0 1.0049 -.99515 -.14491 0 0)" x="176.22548" y="-132.69225" style="line-height:0%" xml:space="preserve"><tspan x="176.22548" y="-132.69225" fill="#babdb6" font-size="7.367px" style="line-height:1.25">tango cell</tspan></text><text transform="matrix(0 1.0049 -.99515 .17629 0 0)" x="176.22801" y="-160.85133" enable-background="new" style="line-height:0%" xml:space="preserve"><tspan x="176.22801" y="-160.85133" fill="#babdb6" font-size="7.367px" style="line-height:1.25">clean</tspan></text></g><path d="m112 64.001v63.999c0 6.624 16.128 12 36 12 19.872 0 36-5.376 36-12v-63.999z" enable-background="new" fill="url(#m)"/><path transform="matrix(.69231 0 0 1 40.692 0)" d="m130.62 74.531v196c1.0488 0.1932 2.1406 0.34178 3.25 0.5v-196c-1.1094-0.15822-2.2012-0.3068-3.25-0.5z" enable-background="new" fill="#fff" filter="url(#b)" opacity=".2"/><path d="m165.84 71.406c-2.7496 0.52514-5.7324 0.94906-8.875 1.2188v199c3.1426-0.26969 6.1254-0.69361 8.875-1.2188z" enable-background="new" fill="#fff" filter="url(#u)" opacity=".2"/><ellipse transform="matrix(1.1339 0 0 1 301.92 -.50001)" cx="-135.75" cy="64.5" rx="31.75" ry="12" fill="url(#a)" filter="url(#s)"/><path d="m148 52c-19.872 0-36 5.376-36 12v196c0 6.624 16.128 12 36 12 19.872 0 36-5.376 36-12v-196c0-6.624-16.128-12-36-12z" enable-background="new" fill="none" filter="url(#r)" stroke="url(#k)" stroke-linecap="round" stroke-linejoin="round" stroke-width="2"/><ellipse transform="rotate(-4.1367 156.06 75.438)" cx="161.25" cy="75.625" rx="4.75" ry=".875" enable-background="new" fill="#fff" filter="url(#w)" opacity=".5"/><ellipse transform="rotate(9.152 128.41 75.282)" cx="132.38" cy="75.75" rx="3.375" ry="1" enable-background="new" fill="#fff" filter="url(#x)" opacity=".7"/></g><g transform="matrix(1 0 0 .94286 0 -4.9143)" enable-background="new"><ellipse transform="matrix(.88189 0 0 .72917 267.72 15.719)" cx="-135.75" cy="64.5" rx="31.75" ry="12" enable-background="new" fill="url(#i)"/><ellipse transform="matrix(.88189 0 0 .72917 267.72 15.719)" cx="-135.75" cy="64.5" rx="31.75" ry="12" enable-background="new" fill="url(#j)"/><path transform="matrix(1.2444 0 0 1.1667 -36.178 -10.167)" d="m148 55c-12.42 0-22.5 3.36-22.5 7.5 0 0.16935 0.0293 0.33344 0.0625 0.5 0.77851-3.9053 10.526-7 22.438-7 11.912-1e-6 21.659 3.0947 22.438 7 0.0332-0.16656 0.0625-0.33065 0.0625-0.5 0-4.14-10.08-7.5-22.5-7.5z" enable-background="new" fill="url(#h)" opacity=".55102"/></g><g transform="translate(0,-8)" clip-path="url(#ac)" enable-background="new"><path d="m148 50c-6.624 0-12 1.792-12 4v7c0 2.208 5.376 4 12 4 6.624 0 12-1.792 12-4v-7c0-2.208-5.376-4-12-4z" enable-background="new" fill="url(#o)"/><ellipse transform="matrix(.47244 0 0 .41667 212.13 26.125)" cx="-135.75" cy="64.5" rx="31.75" ry="12" enable-background="new" fill="url(#q)" filter="url(#t)"/><path d="m148 50c-6.624 0-12 1.792-12 4v7c0 2.208 5.376 4 12 4 6.624 0 12-1.792 12-4v-7c0-2.208-5.376-4-12-4z" enable-background="new" fill="none" filter="url(#aa)" opacity=".38776" stroke="url(#p)" stroke-linecap="round" stroke-linejoin="round" stroke-width="2"/></g><path d="m136 53c0 2.208 5.376 4 12 4 6.624 0 12-1.792 12-4" enable-background="new" fill="none" filter="url(#z)" stroke="url(#g)" stroke-linecap="round" stroke-linejoin="round"/><text transform="matrix(0 .96192 -1.0396 0 0 0)" x="154.02531" y="-134.92282" enable-background="new" fill="#ffffff" font-family="'Arial Black'" font-weight="bold" stroke-width="1px" style="line-height:0%" xml:space="preserve"><tspan x="154.02531" y="-134.92282" font-size="20.792px" style="line-height:1.25">POWER  -</tspan></text><text transform="matrix(0 .96192 -1.0396 0 0 0)" x="82.293869" y="-134.92282" enable-background="new" fill="#000000" font-family="'Arial Black'" font-weight="bold" stroke-width="1px" style="line-height:0%" xml:space="preserve"><tspan x="82.293869" y="-134.92282" font-size="20.792px" style="line-height:1.25">+</tspan></text><path transform="matrix(.69231 0 0 1 40.692 -8)" d="m130.62 74.531v62c1.0488 0.1932 2.1406 0.34178 3.25 0.5v-62c-1.1094-0.15822-2.2012-0.3068-3.25-0.5z" enable-background="new" fill="#fff" filter="url(#b)" opacity=".3"/><path d="m165.84 66.406c-2.7496 0.52514-5.7324 0.94906-8.875 1.2188v62c3.1426-0.26969 6.1254-0.69361 8.875-1.2188z" enable-background="new" fill="#fff" filter="url(#v)" opacity=".2"/><circle transform="translate(-.375 .125)" cx="152.06" cy="50.688" r="1.5625" fill="#fff"/><circle transform="matrix(3.9382 0 0 2.0617 -447.17 -47.69)" cx="152.06" cy="50.688" r="1.5625" enable-background="new" fill="url(#d)"/><path d="m119.06 55.75c-0.0338 0.16299-0.0647 0.33461-0.0647 0.5 0 4.554 12.992 8.25 29 8.25 16.008 0 29-3.696 29-8.25 0-0.16539-0.0309-0.33701-0.0647-0.5-0.89672 4.3249-13.509 7.75-28.935 7.75-15.427-1e-6 -28.039-3.4251-28.935-7.75z" enable-background="new" fill="url(#c)" filter="url(#y)" opacity=".7"/></g></g></svg>
