<?xml version="1.0" encoding="UTF-8"?>
<svg enable-background="new" version="1.0" viewBox="0 0 256 256" xmlns="http://www.w3.org/2000/svg" xmlns:xlink="http://www.w3.org/1999/xlink"><defs><filter id="ae" x="-.38806" y="-.36523" width="1.7761" height="1.7305" color-interpolation-filters="sRGB"><feGaussianBlur stdDeviation="0.39207371"/></filter><filter id="aj"><feGaussianBlur stdDeviation="0.363967"/></filter><clipPath id="ao"><path d="m216 146c0 38.64-31.36 70-70 70-38.64 0-70-31.36-70-70s31.36-70 70-70c38.64 0 70 31.36 70 70z" color="#000000" enable-background="new" fill="none" stroke="#000"/></clipPath><radialGradient id="l" cx="120.54" cy="88.724" r="73.86" gradientTransform="matrix(-3.0907 -6.8705e-8 3.2976e-8 -1.4834 493.11 220.34)" gradientUnits="userSpaceOnUse"><stop stop-color="#d3d7cf" offset="0"/><stop offset="1"/></radialGradient><clipPath id="an"><path d="m166.75 67.827c0 5.0918-9.2945 8.173-20.747 8.173s-20.747-3.0812-20.747-8.173c0-3.7223 4.6562-9.2244 20.747-9.2244s20.747 5.776 20.747 9.2244z" color="#000000" enable-background="new" fill="none" stroke="#000"/></clipPath><filter id="ah"><feGaussianBlur stdDeviation="0.44167814"/></filter><linearGradient id="s" x1="139.62" x2="139.62" y1="83.654" y2="100.85" gradientUnits="userSpaceOnUse"><stop stop-color="#204a87" offset="0"/><stop stop-color="#204a87" stop-opacity="0" offset="1"/></linearGradient><radialGradient id="k" cx="138.62" cy="63.198" r="20.747" gradientTransform="matrix(1 0 0 1.3921 0 -31.415)" gradientUnits="userSpaceOnUse"><stop stop-color="#a7c3e1" offset="0"/><stop stop-color="#729fcf" offset="1"/></radialGradient><filter id="ag" color-interpolation-filters="sRGB"><feGaussianBlur stdDeviation="0.43739176"/></filter><radialGradient id="j" cx="157.73" cy="99.115" r="22.994" gradientTransform="matrix(1.4437 0 0 .64026 -69.983 27.691)" gradientUnits="userSpaceOnUse"><stop stop-color="#fff" offset="0"/><stop stop-color="#fff" stop-opacity="0" offset="1"/></radialGradient><radialGradient id="i" cx="139.76" cy="65.013" r="20.747" gradientTransform="matrix(1.1176 0 0 .51327 -15.649 39.574)" gradientUnits="userSpaceOnUse"><stop stop-color="#f3f7fb" offset="0"/><stop stop-color="#729fcf" offset="1"/></radialGradient><filter id="af"><feGaussianBlur stdDeviation="0.51561135"/></filter><clipPath id="am"><path d="m192 220c0 8.8366-19.755 16-44.125 16-24.37 0-44.125-7.1634-44.125-16s10.505-48 44.125-48c33.62 0 44.125 39.163 44.125 48z" color="#bebebe" enable-background="accumulate" fill="none" stroke="#000"/></clipPath><filter id="ad"><feGaussianBlur stdDeviation="1.8124999"/></filter><radialGradient id="h" cx="141.03" cy="246.06" r="44.125" gradientTransform="matrix(1.0406 8.3462e-8 -1.5413e-7 2.2859 -5.3786 -327.96)" gradientUnits="userSpaceOnUse"><stop stop-color="#888a85" offset="0"/><stop stop-color="#2e3436" offset=".66395"/><stop stop-color="#555753" offset="1"/></radialGradient><filter id="ac"><feGaussianBlur stdDeviation="3.697479"/></filter><radialGradient id="b" cx="54.249" cy="18.849" r="8.6624" gradientTransform="matrix(2.2942 0 0 2.0699 -68.828 -20.624)" gradientUnits="userSpaceOnUse"><stop stop-color="#fff" offset="0"/><stop stop-color="#eeeeec" offset=".7"/><stop stop-color="#888a85" offset="1"/></radialGradient><linearGradient id="r" x1="59.522" x2="47.752" y1="22.272" y2="2.6631" gradientUnits="userSpaceOnUse"><stop stop-color="#24292b" offset="0"/><stop stop-color="#2e3436" offset="1"/></linearGradient><radialGradient id="g" cx="55.376" cy="18.595" r="8.6624" gradientTransform="matrix(.86925 -.50205 .47134 .81668 -1.6677 28.151)" gradientUnits="userSpaceOnUse"><stop stop-color="#555753" offset="0"/><stop stop-color="#101212" offset="1"/></radialGradient><radialGradient id="a" cx="49.52" cy="3.2081" r="8.8528" gradientTransform="matrix(1.7081 0 0 1.368 -35.064 -1.1806)" gradientUnits="userSpaceOnUse"><stop stop-color="#fff" stop-opacity=".051" offset="0"/><stop offset="1"/></radialGradient><radialGradient id="f" cx="49.571" cy="7.0434" r="8.6624" gradientTransform="matrix(.75496 0 0 .75496 13.763 3.5307)" gradientUnits="userSpaceOnUse"><stop stop-color="#555753" offset="0"/><stop offset="1"/></radialGradient><radialGradient id="e" cx="32.312" cy="31" r="2.6875" gradientTransform="matrix(.9537 0 0 .9537 1.4962 1.4354)" gradientUnits="userSpaceOnUse"><stop stop-color="#204a87" stop-opacity="0" offset="0"/><stop stop-color="#204a87" stop-opacity="0" offset=".5"/><stop stop-color="#204a87" offset="1"/></radialGradient><radialGradient id="d" cx="34.256" cy="28.376" r="4.125" gradientTransform="matrix(.49539 0 0 .49539 16.642 14.43)" gradientUnits="userSpaceOnUse"><stop stop-color="#edd400" offset="0"/><stop stop-color="#edd400" stop-opacity="0" offset="1"/></radialGradient><linearGradient id="q" x1="20.875" x2="20.875" y1="17.083" y2="19.868" gradientUnits="userSpaceOnUse"><stop stop-color="#fff" offset="0"/><stop stop-color="#fff" stop-opacity="0" offset="1"/></linearGradient><radialGradient id="c" cx="30.95" cy="28.008" r="2.6875" gradientTransform="matrix(1.3419 0 0 .99844 -10.41 .77852)" gradientUnits="userSpaceOnUse"><stop stop-color="#fff" offset="0"/><stop stop-color="#fff" stop-opacity="0" offset="1"/></radialGradient><linearGradient id="p" x1="20.875" x2="20.875" y1="16.861" y2="19.122" gradientUnits="userSpaceOnUse"><stop stop-color="#fff" offset="0"/><stop stop-color="#fff" stop-opacity="0" offset="1"/></linearGradient><clipPath id="al"><path d="m238.28 173.44c0 0.35564-0.89958 1.8463-2.7188 3.4688s-4.2261 3.4048-6.2812 5.25-4.0491 3.725-4.0938 6.5312c-0.0223 1.4031 0.65408 2.8584 1.7812 3.9062s2.6642 1.8366 4.7188 2.5938c3.6967 1.3622 6.8912 2.9549 9.125 4.4375s3.2949 3.0307 3.3438 3.2812c0.0244 0.12526 0.12956-0.0984-0.0313 0.0625-0.16081 0.16092-0.75409 0.54431-1.875 0.84375-2.2418 0.59888-6.3936 0.91874-12.594 0.53125-25.662-1.6038-51.125 4.7812-51.125 4.7812l0.9688 3.875s25.073-6.2395 49.906-4.6875c6.4236 0.40146 10.831 0.18808 13.875-0.625 1.5218-0.40654 2.7556-0.94241 3.6875-1.875s1.3681-2.4089 1.125-3.6562c-0.48612-2.4947-2.4588-4.1468-5.0625-5.875s-6.0434-3.3973-9.9688-4.8438c-1.7565-0.64726-2.8188-1.2932-3.3438-1.7812s-0.53495-0.64224-0.53125-0.875c7e-3 -0.46552 0.92475-2.0175 2.75-3.6562s4.2374-3.3959 6.2812-5.2188 4.0625-3.6686 4.0625-6.4688z" color="#000000" enable-background="new" fill="none" stroke="#000" style="text-decoration-line:none;text-indent:0;text-transform:none"/></clipPath><filter id="ab"><feGaussianBlur stdDeviation="0.5459569"/></filter><filter id="aa"><feGaussianBlur stdDeviation="0.4402807"/></filter><filter id="z" color-interpolation-filters="sRGB"><feGaussianBlur stdDeviation="0.4402807"/></filter><filter id="y" color-interpolation-filters="sRGB"><feGaussianBlur stdDeviation="0.4402807"/></filter><filter id="x" x="-.21751" y="-.59332" width="1.435" height="2.1866"><feGaussianBlur stdDeviation="2.108382"/></filter><filter id="w" x="-.054764" y="-.14938" width="1.1095" height="1.2988"><feGaussianBlur stdDeviation="0.53083442"/></filter><filter id="v"><feGaussianBlur stdDeviation="1.3763619"/></filter><linearGradient id="o" x1="232" x2="236" y1="196" y2="176" gradientUnits="userSpaceOnUse"><stop stop-color="#fff" offset="0"/><stop offset="1"/></linearGradient><mask id="n" maskUnits="userSpaceOnUse"><rect x="176" y="172" width="76" height="44" color="#bebebe" enable-background="accumulate" fill="url(#o)"/></mask><filter id="u"><feGaussianBlur stdDeviation="1.5686275"/></filter><radialGradient id="m" cx="135.08" cy="127.09" r="70" gradientTransform="matrix(1.2685 0 0 1.2844 -36.264 -36.139)" gradientUnits="userSpaceOnUse"><stop stop-color="#fff" offset="0"/><stop stop-color="#fff" offset=".34524"/><stop stop-color="#babdb6" offset=".79734"/><stop stop-color="#e3e3e3" offset="1"/></radialGradient><filter id="ak" color-interpolation-filters="sRGB"><feGaussianBlur stdDeviation="0.33970254"/></filter><linearGradient id="t" x1="20.875" x2="20.875" y1="17.083" y2="19.085" gradientUnits="userSpaceOnUse"><stop stop-color="#fff" offset="0"/><stop stop-color="#fff" stop-opacity="0" offset="1"/></linearGradient><filter id="ai" x="-.32657" y="-.32657" width="1.6531" height="1.6531"><feGaussianBlur stdDeviation="0.22111768"/></filter></defs><g transform="translate(-20,-28)"><ellipse transform="matrix(4.2492 0 0 3.67 82.549 120.54)" cx="15.338" cy="27.468" rx="11.632" ry="4.2642" color="#000000" enable-background="new" fill-rule="evenodd" filter="url(#w)" opacity=".89802"/><g mask="url(#n)"><path d="m238.28 174.44c0 0.35564-0.89958 1.8463-2.7188 3.4688s-4.2261 3.4048-6.2812 5.25-4.0491 3.725-4.0938 6.5312c-0.0223 1.4031 0.65408 2.8584 1.7812 3.9062s2.6642 1.8366 4.7188 2.5938c3.6967 1.3622 6.8912 2.9549 9.125 4.4375s3.2949 3.0307 3.3438 3.2812c0.0244 0.12526 0.12956-0.0984-0.0313 0.0625-0.16081 0.16092-0.75409 0.54431-1.875 0.84375-2.2418 0.59888-6.3936 0.91874-12.594 0.53125-25.662-1.6038-51.125 4.7812-51.125 4.7812l0.9688 3.875s25.073-6.2395 49.906-4.6875c6.4236 0.40146 10.831 0.18808 13.875-0.625 1.5218-0.40654 2.7556-0.94241 3.6875-1.875s1.3681-2.4089 1.125-3.6562c-0.48612-2.4947-2.4588-4.1468-5.0625-5.875s-6.0434-3.3973-9.9688-4.8438c-1.7565-0.64726-2.8188-1.2932-3.3438-1.7812s-0.53495-0.64224-0.53125-0.875c7e-3 -0.46552 0.92475-2.0175 2.75-3.6562s4.2374-3.3959 6.2812-5.2188 4.0625-3.6686 4.0625-6.4688z" color="#000000" enable-background="new" filter="url(#v)" style="text-decoration-line:none;text-indent:0;text-transform:none"/><g clip-path="url(#al)" mask="none"><path d="m238.28 173.44c0 0.35564-0.89958 1.8463-2.7188 3.4688s-4.2261 3.4048-6.2812 5.25-4.0491 3.725-4.0938 6.5312c-0.0223 1.4031 0.65408 2.8584 1.7812 3.9062s2.6642 1.8366 4.7188 2.5938c3.6967 1.3622 6.8912 2.9549 9.125 4.4375s3.2949 3.0307 3.3438 3.2812c0.0244 0.12526 0.12956-0.0984-0.0313 0.0625-0.16081 0.16092-0.75409 0.54431-1.875 0.84375-2.2418 0.59888-6.3936 0.91874-12.594 0.53125-25.662-1.6038-51.125 4.7812-51.125 4.7812l0.9688 3.875s25.073-6.2395 49.906-4.6875c6.4236 0.40146 10.831 0.18808 13.875-0.625 1.5218-0.40654 2.7556-0.94241 3.6875-1.875s1.3681-2.4089 1.125-3.6562c-0.48612-2.4947-2.4588-4.1468-5.0625-5.875s-6.0434-3.3973-9.9688-4.8438c-1.7565-0.64726-2.8188-1.2932-3.3438-1.7812s-0.53495-0.64224-0.53125-0.875c7e-3 -0.46552 0.92475-2.0175 2.75-3.6562s4.2374-3.3959 6.2812-5.2188 4.0625-3.6686 4.0625-6.4688z" color="#000000" enable-background="new" fill="#555753" style="text-decoration-line:none;text-indent:0;text-transform:none"/><path d="m179.02 212.06s25.247-6.3116 50.495-4.7337c25.247 1.5779 18.106-7.3831 2.8619-13.001-15.244-5.6174 7.8996-13.589 7.8996-19.9" enable-background="new" fill="none" filter="url(#aa)" stroke="#888a85"/><path d="m178.02 210.06s25.247-6.3116 50.495-4.7337c25.247 1.5779 18.106-7.3831 2.8619-13.001-15.244-5.6174 7.8996-13.589 7.8996-19.9" enable-background="new" fill="none" filter="url(#z)" stroke="#555753" stroke-width="2"/><path d="m238.28 173.44c0 0.35564-0.89958 1.8463-2.7188 3.4688s-4.2261 3.4048-6.2812 5.25-4.0491 3.725-4.0938 6.5312c-0.0223 1.4031 0.65408 2.8584 1.7812 3.9062s2.6642 1.8366 4.7188 2.5938c3.6967 1.3622 6.8912 2.9549 9.125 4.4375s3.2949 3.0307 3.3438 3.2812c0.0244 0.12526 0.12956-0.0984-0.0313 0.0625-0.16081 0.16092-0.75409 0.54431-1.875 0.84375-2.2418 0.59888-6.3936 0.91874-12.594 0.53125-25.662-1.6038-51.125 4.7812-51.125 4.7812l0.9688 3.875s25.073-6.2395 49.906-4.6875c6.4236 0.40146 10.831 0.18808 13.875-0.625 1.5218-0.40654 2.7556-0.94241 3.6875-1.875s1.3681-2.4089 1.125-3.6562c-0.48612-2.4947-2.4588-4.1468-5.0625-5.875s-6.0434-3.3973-9.9688-4.8438c-1.7565-0.64726-2.8188-1.2932-3.3438-1.7812s-0.53495-0.64224-0.53125-0.875c7e-3 -0.46552 0.92475-2.0175 2.75-3.6562s4.2374-3.3959 6.2812-5.2188 4.0625-3.6686 4.0625-6.4688z" color="#000000" enable-background="new" fill="none" filter="url(#ab)" stroke="#000" stroke-linejoin="round" style="text-decoration-line:none;text-indent:0;text-transform:none"/><path d="m178.02 210.06s25.247-6.3116 50.495-4.7337c25.247 1.5779 18.106-7.3831 2.8619-13.001-15.244-5.6174 7.8996-13.589 7.8996-19.9" enable-background="new" fill="none" filter="url(#y)" stroke="#babdb6"/></g></g><ellipse transform="matrix(5.3434 0 0 4.022 65.766 113.52)" cx="15.338" cy="27.468" rx="11.632" ry="4.2642" color="#000000" enable-background="new" fill-rule="evenodd" filter="url(#x)" opacity=".18864"/><g transform="matrix(1.0907 0 0 1 -13.405 0)" clip-path="url(#am)"><path d="m192 220c0 8.8366-19.755 16-44.125 16-24.37 0-44.125-7.1634-44.125-16s10.505-48 44.125-48c33.62 0 44.125 39.163 44.125 48z" color="#bebebe" enable-background="accumulate" fill="url(#h)"/><path d="m190.7 221c0 8.8366-18.459 16-42.828 16-24.37 0-44.125-7.1634-44.125-16s10.505-49 44.125-49c33.62 0 42.828 40.163 42.828 49z" color="#bebebe" enable-background="accumulate" fill="none" filter="url(#ad)" stroke="#000" stroke-width="1.9151"/><path transform="matrix(.83276 0 0 1.0134 24.417 -.94994)" d="m212 146c0 36.432-29.568 66-66 66-36.432 0-66-29.568-66-66s29.568-66 66-66c36.432 0 66 29.568 66 66z" color="#000000" enable-background="new" fill-rule="evenodd" filter="url(#ac)"/></g><g transform="matrix(.94286 0 0 .94286 8.3429 8.3429)" clip-path="url(#ao)"><path d="m216 146c0 38.64-31.36 70-70 70-38.64 0-70-31.36-70-70s31.36-70 70-70c38.64 0 70 31.36 70 70z" color="#000000" enable-background="new" fill="url(#m)" fill-rule="evenodd"/><path transform="matrix(1 0 0 .98175 1.1249 1.3599)" d="m168 85.362c0 5.4004-9.8578 8.6683-22.004 8.6683s-22.004-3.2679-22.004-8.6683c0-3.9479 4.9384-9.7834 22.004-9.7834s22.004 6.126 22.004 9.7834z" color="#000000" enable-background="new" fill="url(#j)" fill-rule="evenodd" filter="url(#ag)"/><path d="m216 146c0 38.64-31.36 70-70 70-38.64 0-70-31.36-70-70s31.36-70 70-70c38.64 0 70 31.36 70 70z" color="#000000" enable-background="new" fill="none" filter="url(#u)" stroke="url(#l)" stroke-width="2.1212"/></g><circle transform="matrix(29.243 -7.8355 4.1882 15.631 -553.91 -23.437)" cx="20.875" cy="18.562" r="1.25" color="#000000" enable-background="accumulate" fill="url(#t)" fill-rule="evenodd"/><g transform="matrix(1.3027 0 0 1.3027 -44.198 -38.803)"><circle transform="matrix(3.7232 0 0 3.7218 -51.835 107.01)" cx="53.135" cy="11.014" r="8.6624" color="#000000" enable-background="new" fill="url(#b)" fill-rule="evenodd"/><circle transform="matrix(3.4645 0 0 3.4632 -38.089 109.86)" cx="53.135" cy="11.014" r="8.6624" color="#000000" enable-background="new" fill-rule="evenodd" filter="url(#ak)"/><circle transform="matrix(3.4645 0 0 3.4632 -38.089 109.86)" cx="53.135" cy="11.014" r="8.6624" color="#000000" enable-background="new" fill="#eeeeec" fill-rule="evenodd" filter="url(#aj)"/><circle transform="matrix(3.4645 0 0 3.4632 -38.089 109.86)" cx="53.135" cy="11.014" r="8.6624" color="#000000" enable-background="new" fill="url(#r)" fill-rule="evenodd"/><circle transform="matrix(3.01 0 0 3.0089 -13.936 114.86)" cx="53.135" cy="11.014" r="8.6624" color="#000000" enable-background="new" fill="url(#g)" fill-rule="evenodd"/><circle transform="matrix(-1.0274 0 0 -1.027 200.59 159.31)" cx="53.135" cy="11.014" r="8.6624" color="#000000" enable-background="new" fill="none" stroke="url(#a)" stroke-width=".74732"/><circle transform="matrix(-2.4829 0 0 -2.482 277.93 175.34)" cx="53.135" cy="11.014" r="8.6624" color="#000000" enable-background="new" fill="none" stroke="url(#a)" stroke-width=".30922"/><circle transform="matrix(-2.021 0 0 -2.0202 253.39 170.25)" cx="53.135" cy="11.014" r="8.6624" color="#000000" enable-background="new" fill="none" stroke="url(#a)" stroke-width=".3799"/><circle transform="matrix(-1.559 0 0 -1.5585 228.84 165.16)" cx="53.135" cy="11.014" r="8.6624" color="#000000" enable-background="new" fill="none" stroke="url(#a)" stroke-width=".49246"/><circle transform="matrix(.66746 0 0 .66721 110.53 140.65)" cx="53.135" cy="11.014" r="8.6624" color="#000000" enable-background="new" fill="url(#f)" fill-rule="evenodd"/><circle transform="matrix(7.7742 0 0 7.798 -105.2 -93.655)" cx="32.312" cy="31" r="2.6875" color="#000000" enable-background="accumulate" fill="url(#e)" fill-rule="evenodd" opacity=".48235"/><circle transform="matrix(2.9817 0 0 2.9817 45.926 70.475)" cx="33.562" cy="26" r="2.125" color="#000000" enable-background="accumulate" fill="none" stroke="url(#d)" stroke-miterlimit="10" stroke-width=".25744"/><circle transform="matrix(7.3861 0 0 7.4087 -92.663 -81.587)" cx="32.312" cy="31" r="2.6875" color="#000000" enable-background="accumulate" fill="url(#c)" fill-rule="evenodd" opacity=".48235"/><circle transform="matrix(6.4586 0 0 -3.3723 10.99 225.46)" cx="20.875" cy="18.562" r="1.25" color="#000000" enable-background="accumulate" fill="url(#p)" fill-rule="evenodd" opacity=".53541"/><circle transform="matrix(7.5737 0 0 7.597 -98.726 -87.423)" cx="32.312" cy="31" r="2.6875" color="#000000" enable-background="accumulate" fill="none" opacity=".48235" stroke="#000" stroke-width=".1012"/><circle transform="matrix(9.4213 0 0 6.2807 -50.857 21.918)" cx="20.875" cy="18.562" r="1.25" color="#000000" enable-background="accumulate" fill="url(#q)" fill-rule="evenodd"/></g><g transform="translate(0,20)" clip-path="url(#an)"><path d="m166.75 67.827c0 5.0918-9.2945 8.173-20.747 8.173s-20.747-3.0812-20.747-8.173c0-3.7223 4.6562-9.2244 20.747-9.2244s20.747 5.776 20.747 9.2244z" color="#000000" enable-background="new" fill="url(#k)" fill-rule="evenodd"/><path transform="matrix(1 0 0 .96878 0 1.7087)" d="m165.55 65.282c0 5.1358-8.7563 8.2435-19.545 8.2435s-19.545-3.1077-19.545-8.2435c0-3.7544 4.3866-9.304 19.545-9.304s19.545 5.8258 19.545 9.304z" color="#000000" enable-background="new" fill="url(#i)" fill-rule="evenodd" filter="url(#af)"/><g transform="translate(0,-20)"><path d="m166.75 87.827c0 5.0918-9.2945 8.173-20.747 8.173s-20.747-3.0812-20.747-8.173c0-3.7223 4.6562-9.2244 20.747-9.2244s20.747 5.776 20.747 9.2244z" color="#000000" enable-background="new" fill="none" filter="url(#ah)" stroke="url(#s)"/></g></g><g transform="matrix(1 0 0 1.12 -4 -13.058)" fill-rule="evenodd"><circle transform="matrix(.90317 0 0 .90284 68.01 104.06)" cx="53.135" cy="11.014" r="8.6624" color="#000000" enable-background="new" fill="url(#b)"/><g transform="matrix(.70276 0 0 .70276 170.11 37.401)"><ellipse transform="matrix(8.5989 0 0 8.0928 -154.64 42.188)" cx="9.03" cy="8.2568" rx="1.0104" ry="1.0735" color="#000000" enable-background="new" fill="#4e9a06"/><path d="m-77.733 102.69c-1.5789 0.20089-3.0998 1.0986-4.0921 2.244-0.90066 1.0912-1.452 2.5676-1.452 4.0919 0 0.54438 2e-3 1.0799 0.13221 1.584 4.5827-0.4834 7.8489-2.0908 11.088-5.4119 0.0254-0.024-0.0254-0.10767 0-0.13199-1.1559-1.4706-2.8698-2.376-4.8841-2.376-0.27203 0-0.52885-0.0333-0.79201 0z" color="#000000" enable-background="new" fill="#64c607"/><ellipse transform="matrix(8.5989 0 0 8.0928 -154.64 42.188)" cx="9.03" cy="8.2568" rx="1.0104" ry="1.0735" color="#000000" enable-background="new" fill="#edd400" filter="url(#ae)"/><circle transform="matrix(4.2241 0 0 4.2239 -143.47 53.85)" cx="15.719" cy="13.094" r=".8125" color="#000000" enable-background="accumulate" fill="#fff" filter="url(#ai)"/></g></g><g transform="matrix(.11818 0 0 .11818 142.19 216.34)" opacity=".15581"><g><path d="m86.068 0c-24.602 0-29.217 35.041-15.377 35.041 13.838 0 39.98-35.041 15.377-35.041z"/><path d="m45.217 30.699c7.369 0.45 15.454-28.122 1.604-26.325-13.845 1.797-8.976 25.875-1.604 26.325z"/><path d="m11.445 48.453c5.241-2.307 0.675-24.872-8.237-18.718-8.908 6.155 2.996 21.024 8.237 18.718z"/><path d="m26.212 36.642c6.239-1.272 6.581-26.864-4.545-22.273-11.128 4.592-1.689 23.547 4.545 22.273z"/><path d="m58.791 93.913c1.107 8.454-6.202 12.629-13.36 7.179-22.787-17.349 37.729-26.004 33.74-49.706-3.311-19.674-63.676-13.617-70.55 17.167-4.653 20.821 19.153 49.707 43.993 49.707 12.22 0 26.315-11.034 28.952-25.012 2.014-10.659-23.699-6.388-22.775 0.665z"/></g></g><path d="m153.47 217.78c-0.41245 1.1925-1.9486 2.6875-2.9375 2.6875-0.46003 0-0.73581-0.34345-0.84375-0.8125-0.12099 0.59738-0.0427 1.1658 0.21875 1.5 0.32339 0.0646 0.59933 0.15294 0.84375 0.28125 1.3202-0.26129 3.3065-2.6532 2.7188-3.6562zm-4.9375 0.6875c-0.16054 0.77443-0.58204 1.5255-1 1.5-0.36302-0.0222-0.65911-0.52926-0.78125-1.125-0.20588 0.89837 0.21618 2.0905 0.78125 2.125 0.6125 0.0374 1.2356-1.5912 1-2.5zm-4.2812 1.0938c-0.34443 0.85474 0.44645 2.2445 1.0312 2.125 0.39733-0.081 0.58091-1.0007 0.46875-1.75-0.0766 0.39545-0.24619 0.70463-0.46875 0.75-0.38019 0.0777-0.83691-0.48506-1.0312-1.125zm-1.9375 1.5312c-0.51864 0.81502 0.66356 2.213 1.2188 1.9688 0.28198-0.12412 0.32241-0.74041 0.1875-1.3125-0.0428 0.14636-0.0868 0.26818-0.1875 0.3125-0.35506 0.15622-0.95913-0.36549-1.2188-0.96875zm9.125 2.0625c-0.69542 2.0796-5.5003 3.1073-4.2812 4.7188 0.89241-1.2701 4.7256-2.3858 4.375-4.4688-0.015-0.089-0.0598-0.16982-0.0937-0.25zm-8.25 2.4688c-0.37399 2.4429 2.3568 5.6875 5.2188 5.6875 1.4442 0 3.1258-1.2855 3.4375-2.9375 0.0446-0.2362-0.0113-0.40874-0.15625-0.53125-0.5113 1.4145-1.9803 2.4688-3.2812 2.4688-2.4891 0-4.8835-2.4408-5.2188-4.6875z" fill="#fff" opacity=".17564"/></g></svg>
