<?xml version="1.0" encoding="UTF-8"?>
<svg enable-background="new" version="1.0" viewBox="0 0 256 256" xmlns="http://www.w3.org/2000/svg" xmlns:xlink="http://www.w3.org/1999/xlink"><defs><linearGradient id="b"><stop stop-color="#fff" offset="0"/><stop stop-color="#fff" stop-opacity="0" offset="1"/></linearGradient><filter id="ak" x="-.14923" y="-1.1379" width="1.2985" height="3.2757" color-interpolation-filters="sRGB"><feGaussianBlur stdDeviation="2.0114875"/></filter><filter id="al" x="-.094035" y="-.71702" width="1.1881" height="2.434" color-interpolation-filters="sRGB"><feGaussianBlur stdDeviation="1.2675209"/></filter><linearGradient id="v" x1="13" x2="13" y1="31.125" y2="41.003" gradientUnits="userSpaceOnUse"><stop stop-color="#babdb6" offset="0"/><stop stop-color="#6e726a" offset=".72129"/><stop stop-color="#c9ccc6" offset="1"/></linearGradient><linearGradient id="w" x1="16.879" x2="47.97" y1="26.014" y2="35.889" gradientTransform="matrix(1.0169 0 0 1.0354 -1.2931 -.4422)" gradientUnits="userSpaceOnUse"><stop stop-color="#babdb6" offset="0"/><stop stop-color="#51544e" offset="1"/></linearGradient><radialGradient id="k" cx="21.228" cy="29.342" r="2.5625" gradientTransform="matrix(3.2777 0 0 11.65 -49.926 -314.3)" gradientUnits="userSpaceOnUse"><stop offset="0"/><stop stop-opacity="0" offset="1"/></radialGradient><filter id="ai" x="-.19427" y="-.05466" width="1.3885" height="1.1093" color-interpolation-filters="sRGB"><feGaussianBlur stdDeviation="0.36425926"/></filter><linearGradient id="e"><stop stop-color="#fff" offset="0"/><stop stop-color="#ebebeb" offset=".32143"/><stop stop-color="#909090" offset=".5"/><stop stop-color="#fafafa" offset="1"/></linearGradient><linearGradient id="z" x1="63.877" x2="64.005" y1="17.894" y2="4.6888" gradientTransform="matrix(1.0399 0 0 .98263 -42.254 1.5174)" gradientUnits="userSpaceOnUse"><stop stop-color="#7d8376" offset="0"/><stop stop-color="#c8cac5" offset=".13653"/><stop stop-color="#fff" offset=".65412"/><stop stop-color="#c0c3bb" offset=".81743"/><stop stop-color="#fff" offset="1"/></linearGradient><radialGradient id="l" cx="38.399" cy="30.702" r="5.8336" gradientUnits="userSpaceOnUse"><stop stop-color="#fff" offset="0"/><stop stop-color="#fff" stop-opacity="0" offset="1"/></radialGradient><linearGradient id="t" x1="25.633" x2="39.421" y1="33.151" y2="33.151" gradientUnits="userSpaceOnUse"><stop stop-color="#72776c" offset="0"/><stop stop-color="#e0e0e0" offset=".5"/><stop stop-color="#8f9587" offset=".75"/><stop stop-color="#c1c1c1" offset="1"/></linearGradient><radialGradient id="g" cx="32.754" cy="29.526" r="5.9602" gradientUnits="userSpaceOnUse"><stop stop-color="#fff" offset="0"/><stop stop-color="#ccc" offset="1"/></radialGradient><linearGradient id="s" x1="32.754" x2="32.671" y1="29.526" y2="39.484" gradientUnits="userSpaceOnUse"><stop stop-color="#fff" offset="0"/><stop stop-color="#a5a5a5" offset="1"/></linearGradient><linearGradient id="u" x1="28.312" x2="35.812" y1="33.375" y2="33.375" gradientUnits="userSpaceOnUse"><stop stop-color="#2e3436" offset="0"/><stop stop-color="#6b797d" offset=".5"/><stop stop-color="#2e3436" offset="1"/></linearGradient><radialGradient id="j" cx="33.717" cy="34.229" r="3.5" gradientTransform="matrix(.95971 0 0 1.4286 -20.699 -34.357)" gradientUnits="userSpaceOnUse"><stop stop-color="#717171" offset="0"/><stop offset="1"/></radialGradient><radialGradient id="a" cx="9.2366" cy="16.462" r="2.961" gradientTransform="matrix(1.956 0 0 1.0218 -8.8298 .24557)" gradientUnits="userSpaceOnUse" xlink:href="#e"/><clipPath id="as"><rect x="28.475" y="29" width="8.1784" height="5" rx="1.1325" ry="1.1325" color="#000000" enable-background="accumulate" fill="none" stroke="#fff" stroke-miterlimit="10" stroke-width=".1"/></clipPath><radialGradient id="i" cx="32.312" cy="31" r="2.6875" gradientTransform="matrix(.9537 0 0 .9537 1.4962 1.4354)" gradientUnits="userSpaceOnUse"><stop stop-color="#204a87" stop-opacity="0" offset="0"/><stop stop-color="#204a87" stop-opacity="0" offset=".5"/><stop stop-color="#204a87" offset="1"/></radialGradient><radialGradient id="h" cx="32.104" cy="27.799" r="4.125" gradientTransform="matrix(.49539 0 0 .49539 16.642 14.43)" gradientUnits="userSpaceOnUse"><stop stop-color="#edd400" offset="0"/><stop stop-color="#edd400" stop-opacity="0" offset="1"/></radialGradient><linearGradient id="x" x1="12" x2="14" y1="21" y2="26" gradientUnits="userSpaceOnUse" xlink:href="#y"/><linearGradient id="y"><stop stop-color="#2e3436" offset="0"/><stop offset="1"/></linearGradient><filter id="aj" x="-.068588" y="-.1492" width="1.1372" height="1.2984" color-interpolation-filters="sRGB"><feGaussianBlur stdDeviation="0.28267878"/></filter><radialGradient id="d" cx="100.75" cy="205.05" r="11.75" gradientTransform="matrix(2.5748 3.301e-6 -1.0639e-5 8.2981 -158.66 -1472.3)" gradientUnits="userSpaceOnUse" xlink:href="#b"/><radialGradient id="r" cx="100.75" cy="205.05" r="11.75" gradientTransform="matrix(.44761 5.7386e-7 -1.8494e-6 1.4426 -36.079 -260.5)" gradientUnits="userSpaceOnUse" xlink:href="#b"/><clipPath id="av"><path d="m10 12.5h26c0.831 0 1.5 0.669 1.5 1.5v25c0 0.831-0.669 1.5-1.5 1.5h-24c-3.3201-1.5032-3.3088-5.0952-3.5-8.9402v-17.56c0-0.831 0.669-1.5 1.5-1.5z" color="#000000" enable-background="accumulate" fill="none" stroke="#000" stroke-miterlimit="10" stroke-width=".34769"/></clipPath><filter id="ar"><feGaussianBlur stdDeviation="0.28500001"/></filter><linearGradient id="ah" x1="18.5" x2="23" y1="29.372" y2="29.372" gradientUnits="userSpaceOnUse"><stop offset="0"/><stop stop-opacity="0" offset="1"/></linearGradient><filter id="aq" x="-.50359" y="-.14169" width="2.0072" height="1.2834"><feGaussianBlur stdDeviation="0.94422819"/></filter><clipPath id="au"><rect x="4.5" y="6.6248" width="35.086" height="12.875" rx="6.4376" ry="6.4376" color="#000000" enable-background="accumulate" fill="none" stroke="#000" stroke-width=".34769"/></clipPath><filter id="ap"><feGaussianBlur stdDeviation="0.45151909"/></filter><radialGradient id="c" cx="9.2366" cy="15.667" r="2.961" fx="9.1957" fy="16.976" gradientTransform="matrix(2.1327 0 0 1.1141 -10.463 -1.2747)" gradientUnits="userSpaceOnUse" xlink:href="#e"/><filter id="ao" x="-.031103" y="-.13018" width="1.0622" height="1.2604"><feGaussianBlur stdDeviation="0.090716339"/></filter><filter id="an" x="-.13941" y="-.026964" width="1.2788" height="1.0539"><feGaussianBlur stdDeviation="1.3650628"/></filter><linearGradient id="ag" x1="66" x2="88" y1="199" y2="199" gradientUnits="userSpaceOnUse"><stop stop-color="#555753" offset="0"/><stop stop-color="#555753" stop-opacity="0" offset="1"/></linearGradient><radialGradient id="q" cx="12.581" cy="39.738" r="1.6515" gradientTransform="matrix(2 0 0 2.0373 -12.973 -40.426)" gradientUnits="userSpaceOnUse"><stop stop-color="#a7a9a4" offset="0"/><stop stop-color="#63655f" offset="1"/></radialGradient><radialGradient id="p" cx="14.45" cy="37.365" r="2.4338" gradientTransform="matrix(1.0412 0 0 .87622 -.59595 4.8215)" gradientUnits="userSpaceOnUse"><stop stop-color="#aeb0ab" offset="0"/><stop stop-color="#3b3d3a" offset="1"/></radialGradient><linearGradient id="ae" x1="21.245" x2="22.396" y1="22.652" y2="26.946" gradientUnits="userSpaceOnUse"><stop stop-color="#e0e0e0" offset="0"/><stop stop-color="#a6a6a6" offset="1"/></linearGradient><linearGradient id="ad" x1="119.62" x2="138.38" y1="191.69" y2="191.69" gradientTransform="matrix(.17384 0 0 .1159 -1.1956 6.6265)" gradientUnits="userSpaceOnUse"><stop stop-color="#111" offset="0"/><stop stop-color="#111" stop-opacity="0" offset="1"/></linearGradient><clipPath id="at"><rect transform="skewX(-.0091974)" x="22.507" y="46.663" width="22" height="15" rx="1.2857" ry="1.2809" color="#000000" fill="none" stroke="#000" stroke-width=".17384"/></clipPath><linearGradient id="af" x1="36.497" x2="36.495" y1="26.435" y2="12.743" gradientUnits="userSpaceOnUse"><stop offset="0"/><stop stop-opacity="0" offset="1"/></linearGradient><linearGradient id="ac" x1="33.692" x2="33.69" y1="32.27" y2="18.875" gradientTransform="matrix(1.0077 0 0 1 -.33843 28.163)" gradientUnits="userSpaceOnUse"><stop stop-color="#777a74" offset="0"/><stop stop-color="#999c97" offset="1"/></linearGradient><linearGradient id="ab" x1="33.692" x2="33.69" y1="32.27" y2="18.875" gradientTransform="matrix(.97621 0 0 1 .37533 28.163)" gradientUnits="userSpaceOnUse"><stop stop-color="#555753" offset="0"/><stop stop-color="#7e817b" offset="1"/></linearGradient><linearGradient id="aa" x1="31.032" x2="35.447" y1="29.402" y2="30.662" gradientTransform="translate(0 28.684)" gradientUnits="userSpaceOnUse"><stop stop-color="#9c9c9c" offset="0"/><stop stop-color="#a5a5a5" offset=".32162"/><stop stop-color="#f3f3f3" offset=".65498"/><stop stop-color="#bebebe" offset="1"/></linearGradient><radialGradient id="o" cx="197.38" cy="130.38" r="54.375" gradientTransform="matrix(.17384 0 0 .0019982 -1.1956 46.531)" gradientUnits="userSpaceOnUse" xlink:href="#b"/><radialGradient id="n" cx="197.38" cy="130.38" r="54.375" gradientTransform="matrix(.1067 0 0 .0031971 33.38 -44.116)" gradientUnits="userSpaceOnUse" xlink:href="#b"/><radialGradient id="m" cx="260.25" cy="161.12" r="2.25" gradientTransform="matrix(.48048 1.1004 -1.8153 2.8951 211.5 -698.77)" gradientUnits="userSpaceOnUse"><stop stop-color="#fff" offset="0"/><stop stop-color="#fff" stop-opacity="0" offset="1"/></radialGradient><filter id="am"><feGaussianBlur stdDeviation="0.18486732"/></filter></defs><g transform="translate(-22,-37)"><g transform="matrix(5.7523 0 0 5.7523 6.8775 26.216)" enable-background="new"><rect transform="matrix(1.2623 0 0 .42874 -2.2571 23.406)" x="4.773" y="37.924" width="32.35" height="4.2426" rx="1.6805" ry="2.5208" color="#000000" enable-background="accumulate" fill-rule="evenodd" filter="url(#ak)" opacity=".18072"/><rect transform="matrix(.82587 0 0 .24749 6.7083 30.488)" x="4.773" y="37.924" width="32.35" height="4.2426" rx="2.2702" ry="4.2426" color="#000000" enable-background="accumulate" fill-rule="evenodd" filter="url(#al)"/><path d="m10 12.5h26c0.831 0 1.5 0.669 1.5 1.5v25c0 0.831-0.669 1.5-1.5 1.5h-24c-3.3201-1.5032-3.3088-5.0952-3.5-8.9402v-17.56c0-0.831 0.669-1.5 1.5-1.5z" color="#000000" enable-background="accumulate" fill="url(#v)" fill-rule="evenodd"/><path d="m17.892 12.5h17.9c0.84502 0 1.5253 0.69267 1.5253 1.5531v24.878c0 0.8604-0.68029 1.5531-1.5253 1.5531h-14.563c-3.0555 0-4.8629-2.8732-4.8629-5.8199v-20.611c0-0.8604 0.68029-1.5531 1.5253-1.5531z" color="#000000" enable-background="accumulate" fill="url(#w)" fill-rule="evenodd"/><rect transform="matrix(.26263 0 0 .50221 14.404 10.853)" x="18.5" y="21.375" width="4.5" height="15.994" rx="2.4276" ry="3.6081" color="#000000" enable-background="accumulate" fill="url(#k)" filter="url(#ai)" opacity=".33133"/><rect transform="matrix(2.7993 0 0 .93748 -31.331 1.3364)" x="18.5" y="21.375" width="4.5" height="15.994" rx="1.3977" ry="2.7334" color="#000000" enable-background="accumulate" fill="url(#ah)" filter="url(#aq)" opacity=".40361"/><g transform="matrix(.51324 0 0 .51324 6.7882 10.883)" fill="#fff" fill-rule="evenodd"><circle cx="11.5" cy="21.5" r=".5" color="#000000" enable-background="accumulate"/><circle transform="translate(2)" cx="11.5" cy="21.5" r=".5" color="#000000" enable-background="accumulate"/><circle transform="translate(4)" cx="11.5" cy="21.5" r=".5" color="#000000" enable-background="accumulate"/><circle transform="translate(2,2)" cx="11.5" cy="21.5" r=".5" color="#000000" enable-background="accumulate"/><circle transform="translate(0,2)" cx="11.5" cy="21.5" r=".5" color="#000000" enable-background="accumulate"/><circle transform="translate(4,2)" cx="11.5" cy="21.5" r=".5" color="#000000" enable-background="accumulate"/><circle transform="translate(4,4)" cx="11.5" cy="21.5" r=".5" color="#000000" enable-background="accumulate"/><circle transform="translate(2,4)" cx="11.5" cy="21.5" r=".5" color="#000000" enable-background="accumulate"/><circle transform="translate(0,4)" cx="11.5" cy="21.5" r=".5" color="#000000" enable-background="accumulate"/><circle transform="translate(.9375 3)" cx="11.5" cy="21.5" r=".5" color="#000000" enable-background="accumulate"/><circle transform="translate(2.9375,3)" cx="11.5" cy="21.5" r=".5" color="#000000" enable-background="accumulate"/><circle transform="translate(2.9375,1)" cx="11.5" cy="21.5" r=".5" color="#000000" enable-background="accumulate"/><circle transform="translate(.9375 1)" cx="11.5" cy="21.5" r=".5" color="#000000" enable-background="accumulate"/></g><g transform="matrix(.51324 0 0 .51324 6.7882 10.836)" fill="url(#x)" fill-rule="evenodd"><circle cx="11.5" cy="21.5" r=".5" color="#000000" enable-background="accumulate"/><circle transform="translate(2)" cx="11.5" cy="21.5" r=".5" color="#000000" enable-background="accumulate"/><circle transform="translate(4)" cx="11.5" cy="21.5" r=".5" color="#000000" enable-background="accumulate"/><circle transform="translate(2,2)" cx="11.5" cy="21.5" r=".5" color="#000000" enable-background="accumulate"/><circle transform="translate(0,2)" cx="11.5" cy="21.5" r=".5" color="#000000" enable-background="accumulate"/><circle transform="translate(4,2)" cx="11.5" cy="21.5" r=".5" color="#000000" enable-background="accumulate"/><circle transform="translate(4,4)" cx="11.5" cy="21.5" r=".5" color="#000000" enable-background="accumulate"/><circle transform="translate(2,4)" cx="11.5" cy="21.5" r=".5" color="#000000" enable-background="accumulate"/><circle transform="translate(0,4)" cx="11.5" cy="21.5" r=".5" color="#000000" enable-background="accumulate"/><circle transform="translate(.9375 3)" cx="11.5" cy="21.5" r=".5" color="#000000" enable-background="accumulate"/><circle transform="translate(2.9375,3)" cx="11.5" cy="21.5" r=".5" color="#000000" enable-background="accumulate"/><circle transform="translate(2.9375,1)" cx="11.5" cy="21.5" r=".5" color="#000000" enable-background="accumulate"/><circle transform="translate(.9375 1)" cx="11.5" cy="21.5" r=".5" color="#000000" enable-background="accumulate"/></g><path d="m10 12.5h26c0.831 0 1.5 0.669 1.5 1.5v25c0 0.831-0.669 1.5-1.5 1.5h-24c-3.3201-1.5032-3.3088-5.0952-3.5-8.9402v-17.56c0-0.831 0.669-1.5 1.5-1.5z" clip-path="url(#av)" color="#000000" enable-background="accumulate" fill="none" filter="url(#ar)" stroke="#000" stroke-miterlimit="10" stroke-width=".34769"/><rect x="4.5" y="6.6248" width="35.086" height="12.875" rx="6.4376" ry="6.4376" color="#000000" enable-background="accumulate" fill="url(#z)" fill-rule="evenodd"/><circle transform="matrix(1.1171 0 0 1.0465 -25.156 -21.714)" cx="33.588" cy="33.151" r="5.8336" color="#000000" enable-background="accumulate" fill="url(#l)" fill-rule="evenodd"/><circle transform="matrix(1.1325 0 0 1.0465 -26.643 -21.714)" cx="33.588" cy="33.151" r="5.8336" color="#000000" enable-background="accumulate" fill="url(#t)" fill-rule="evenodd"/><circle transform="matrix(1.0593 0 0 1.0108 -24.587 -20.566)" cx="33.588" cy="33.151" r="5.8336" color="#000000" enable-background="accumulate" fill="url(#g)" fill-rule="evenodd" stroke="url(#s)" stroke-miterlimit="10" stroke-width=".050401"/><circle transform="matrix(1.2703 0 0 1.2701 -30.237 -29.186)" cx="32.062" cy="33.375" r="3.75" color="#000000" enable-background="accumulate" fill="url(#u)" fill-rule="evenodd"/><rect x="6.4024" y="11.251" width="8.1784" height="5.1243" rx=".94875" ry="1.2357" color="#000000" enable-background="accumulate" fill="#fff" fill-rule="evenodd" opacity=".47059"/><rect x="6.4024" y="11" width="8.1784" height="5" rx="1.1325" ry="1.1325" color="#000000" enable-background="accumulate" fill="url(#j)" fill-rule="evenodd"/><ellipse transform="matrix(.35607 0 -.094656 .63606 23.92 4.5982)" cx="9.2366" cy="17.727" rx="2.961" ry="1.5468" color="#000000" enable-background="accumulate" fill="url(#a)" fill-rule="evenodd"/><g transform="matrix(1.0086 0 0 1.0038 -21.258 -18.064)" clip-path="url(#as)"><circle transform="translate(.375 -.125)" cx="32.312" cy="31" r="2.6875" color="#000000" enable-background="accumulate" fill="url(#i)" fill-rule="evenodd"/><circle transform="matrix(.67647 0 0 .67647 9.9835 13.224)" cx="33.562" cy="26" r="2.125" color="#000000" enable-background="accumulate" fill="none" stroke="url(#h)" stroke-miterlimit="10" stroke-width=".25541"/><circle transform="matrix(.66762 0 0 .66751 10.636 7.577)" cx="31.312" cy="33.062" r=".875" color="#000000" enable-background="accumulate" fill="#fff" fill-rule="evenodd"/></g><ellipse transform="matrix(.23738 0 -.063104 .42404 29.897 8.0082)" cx="9.2366" cy="17.727" rx="2.961" ry="1.5468" color="#000000" enable-background="accumulate" fill="url(#a)" fill-rule="evenodd"/><ellipse transform="matrix(.23738 0 -.063104 .42404 32.521 8.0082)" cx="9.2366" cy="17.727" rx="2.961" ry="1.5468" color="#000000" enable-background="accumulate" fill="url(#a)" fill-rule="evenodd"/><ellipse transform="matrix(.23738 0 -.063104 .42404 27.381 8.0082)" cx="9.2366" cy="17.727" rx="2.961" ry="1.5468" color="#000000" enable-background="accumulate" fill="url(#a)" fill-rule="evenodd"/><path transform="matrix(1.0652 0 0 1 -.36797 -.26076)" d="m7.6581 19.495 7.375 0.125c2.4688-1.0625 1.875-4.0625 1.875-4.0625-1.0947 2.8628-4.233 4.1024-9.25 3.9375z" color="#000000" enable-background="accumulate" fill-rule="evenodd" filter="url(#aj)" opacity=".28916"/><path transform="matrix(.87616 0 0 .87616 1.8522 1.7652)" d="m19.881 9.4651h0.83073c0.18093 1e-6 0.32591 0.043028 0.43493 0.12908 0.10976 0.086054 0.18245 0.20851 0.21807 0.36738 0.03661 0.16328 0.01594 0.29089-0.062 0.38282-0.07721 0.09194-0.21657 0.1379-0.4181 0.1379h-0.2736l0.13456 0.60016h-0.50197l-0.36263-1.6173m0.65657 0.68952h0.12246c0.09635 2e-6 0.1603-0.01655 0.19186-0.04964 0.03139-0.03383 0.04124-0.07686 0.02953-0.12908-0.01138-0.050748-0.03794-0.093774-0.07969-0.12908-0.04175-0.035302-0.10933-0.052953-0.20273-0.052954h-0.14232l0.08089 0.36076m1.0971 0.12025c-0.0592-0.26404-0.03174-0.46961 0.08237-0.61671 0.11412-0.1471 0.30246-0.22064 0.56503-0.22064 0.26919 2e-6 0.49284 0.072446 0.67095 0.21734 0.17795 0.14416 0.29611 0.34642 0.35449 0.60678 0.04238 0.18902 0.04518 0.34421 0.0084 0.46556-0.03621 0.12062-0.10704 0.21476-0.21248 0.28243-0.10488 0.06693-0.24705 0.10039-0.4265 0.10039-0.1824 0-0.34006-0.02905-0.47297-0.08715-0.13218-0.0581-0.24951-0.15004-0.35199-0.27581-0.10248-0.12577-0.17492-0.28316-0.2173-0.47218m0.50026 0.0022c0.03661 0.16328 0.09307 0.28059 0.16937 0.35193 0.07704 0.07134 0.16778 0.10702 0.27222 0.10702 0.10738 0 0.18266-0.03494 0.22583-0.10481 0.04317-0.06987 0.04447-0.19527 0.0039-0.3762-0.03414-0.15225-0.08993-0.2633-0.16738-0.33318-0.07688-0.070606-0.1679-0.10591-0.27308-0.10591-0.10076 1e-6 -0.17367 0.035673-0.21872 0.10701-0.04505 0.071343-0.04911 0.18939-0.01217 0.35414m1.2687-0.81198h0.46667l0.80959 0.89472-0.20061-0.89472h0.47108l0.36263 1.6173h-0.47108l-0.8048-0.8881 0.19913 0.8881h-0.46998l-0.36263-1.6173m1.7177 0h0.55493l0.449 0.5461 0.20411-0.5461h0.55162l-0.41809 0.93995 0.15188 0.67738h-0.50087l-0.15188-0.67738-0.8407-0.93995" color="#000000" enable-background="accumulate" fill="#2e3436" fill-rule="evenodd" filter="url(#ao)" opacity=".47234" style="text-decoration-line:none;text-indent:0;text-transform:none"/><path d="m19.427 9.9689h0.72786c0.15852 7e-7 0.28555 0.037696 0.38107 0.11309 0.09617 0.0754 0.15985 0.18269 0.19106 0.32188 0.03207 0.14306 0.01397 0.25486-0.05432 0.33541-0.06764 0.08055-0.18975 0.12083-0.36632 0.12083h-0.23972l0.1179 0.52583h-0.43981l-0.31772-1.417m0.57526 0.60413h0.10729c0.08441 1e-6 0.14045-0.0145 0.1681-0.04349 0.0275-0.02964 0.03613-0.06734 0.02587-0.11309-0.01-0.04446-0.03324-0.08216-0.06982-0.11309-0.03658-0.03093-0.09579-0.04639-0.17763-0.04639h-0.12469l0.07087 0.31608m0.96123 0.10536c-0.05187-0.23134-0.02781-0.41145 0.07217-0.54034 0.09998-0.12888 0.265-0.19332 0.49506-0.19332 0.23585 1.7e-6 0.43181 0.063474 0.58786 0.19042 0.15591 0.1263 0.25944 0.30352 0.31059 0.53163 0.03713 0.16561 0.03959 0.30158 0.0074 0.40791-0.03173 0.10568-0.09378 0.18817-0.18617 0.24745-0.09189 0.05864-0.21645 0.08796-0.37369 0.08796-0.15981 0-0.29794-0.02546-0.4144-0.07636-0.11581-0.0509-0.21861-0.13146-0.3084-0.24165-0.08979-0.11019-0.15326-0.2481-0.19039-0.41371m0.43831 2e-3c0.03207 0.14306 0.08154 0.24584 0.1484 0.30835 0.0675 0.06251 0.147 0.09376 0.23851 0.09376 0.09408 0 0.16004-0.03061 0.19786-0.09183 0.03783-0.06122 0.03897-0.17109 0.0034-0.32961-0.02991-0.13339-0.07879-0.2307-0.14665-0.29192-0.06736-0.06186-0.14711-0.09279-0.23926-0.0928-0.08828 1e-6 -0.15216 0.03125-0.19163 0.09376-0.03947 0.0625-0.04302 0.16593-0.01066 0.31028m1.1116-0.71142h0.40888l0.70933 0.78392-0.17577-0.78392h0.41274l0.31772 1.417h-0.41274l-0.70513-0.77812 0.17447 0.77812h-0.41177l-0.31772-1.417m1.505 0h0.4862l0.3934 0.47847 0.17884-0.47847h0.4833l-0.36631 0.82355 0.13307 0.5935h-0.43884l-0.13307-0.5935-0.73659-0.82355" color="#000000" enable-background="accumulate" fill="#fff" fill-rule="evenodd" style="text-decoration-line:none;text-indent:0;text-transform:none"/><path transform="skewX(-.0090453)" d="m19.591 21.978h5.4081v7h-4.8866l-0.52153-0.31012z" color="#000000" fill="url(#ae)"/><path d="m8.7134 18.998 0.043461 13.69c0 5.3485 1.8688 7.4318 4.1288 7.9533-2.1676-0.83659-3.9115-2.6387-3.9115-7.8229l0.086922-13.603z" color="#bebebe" enable-background="accumulate" fill="url(#r)"/><path transform="matrix(.17384 0 0 .17384 -1.1956 -4.5574)" d="m99.5 138.5v86c2 22.5 10.5 32.5 23.5 35.5-12.468-4.8123-20.147-18.431-20.5-37.5v-84z" color="#bebebe" enable-background="accumulate" fill="url(#d)" filter="url(#an)" opacity=".40426"/><path d="m19.6 28.69h3.2596v0.30422h-2.7815z" color="#000000" enable-background="accumulate" fill="url(#ad)" opacity=".6"/><rect x="4.5" y="6.6248" width="35.086" height="12.875" rx="6.4376" ry="6.4376" clip-path="url(#au)" color="#000000" enable-background="accumulate" fill="none" filter="url(#ap)" stroke="#000" stroke-width=".34769"/><g transform="translate(-.52153 -.17384)" fill="url(#c)" fill-rule="evenodd"><ellipse transform="matrix(.72369 0 0 .38709 24.066 -.035702)" cx="9.2366" cy="17.727" rx="2.961" ry="1.5468" color="#000000" enable-background="accumulate" stroke="#888a85" stroke-miterlimit="10" stroke-width=".65691"/><ellipse transform="matrix(.72369 0 0 .38709 24.03 -.035702)" cx="9.2366" cy="17.727" rx="2.961" ry="1.5468" color="#000000" enable-background="accumulate"/></g><g transform="translate(-4.8676 -.17384)" fill="url(#c)" fill-rule="evenodd"><ellipse transform="matrix(.72369 0 0 .38709 24.066 -.035702)" cx="9.2366" cy="17.727" rx="2.961" ry="1.5468" color="#000000" enable-background="accumulate" stroke="#888a85" stroke-miterlimit="10" stroke-width=".65691"/><ellipse transform="matrix(.72369 0 0 .38709 24.03 -.035702)" cx="9.2366" cy="17.727" rx="2.961" ry="1.5468" color="#000000" enable-background="accumulate"/></g><path transform="matrix(.17384 0 0 .17384 -1.1956 -4.5574)" d="m99.5 138.5v86c2 22.5 10.5 32.5 23.5 35.5-12.468-4.8123-20.147-18.431-20.5-37.5v-84z" color="#bebebe" enable-background="accumulate" fill="url(#d)" opacity=".44255"/><path transform="matrix(.17384 0 0 .17384 -1.1956 -4.5574)" d="m70 138.5v96.5l2.25 10v14.75l-4-0.5v-14.25l-2.25-10v-96.5z" color="#bebebe" enable-background="accumulate" fill="url(#ag)" opacity=".48085"/><path transform="matrix(.17384 0 0 .17384 -1.1956 -4.5574)" d="m61 138.5 0.40123 97.498c0.22377 4.8767 5.5381 5.5014 5.5381 9.2514l0.060701 14.75h4.5v-14.875c-0.25-4.5-5.5-4.875-5.5-9.125v-97.5z" color="#bebebe" enable-background="accumulate" fill="#c2c3c0"/><path d="m12.266 36.556h2.6293c0.62 0 1.1191 0.49913 1.1191 1.1191v2.977h-4.8676v-2.977c0-0.62 0.49914-1.1191 1.1191-1.1191z" color="#bebebe" enable-background="accumulate" fill="url(#p)"/><path d="m12.081 37.288h1.7842c0.42072 0 0.75942 0.41 0.75942 0.91929v2.4454h-3.303v-2.4454c0-0.50929 0.3387-0.91929 0.75941-0.91929z" color="#bebebe" enable-background="accumulate" fill="url(#q)"/><g transform="matrix(1.0114 0 0 1.0199 -.31053 -30.591)" clip-path="url(#at)"><rect transform="skewX(-.0091974)" x="22.507" y="46.663" width="22" height="15" rx="1.2857" ry="1.2809" color="#000000" fill="url(#ac)"/><rect transform="skewX(-.0098178)" x="23.51" y="47.663" width="18.998" height="12.5" rx=".0071789" ry=".0071518" color="#000000" fill="url(#linearGradient5842)" stroke="url(#linearGradient5805)" stroke-linecap="round" stroke-linejoin="round"/><rect transform="skewX(-.00891)" x="22.507" y="46.663" width="21.313" height="15" rx="1.2914" ry="1.2809" color="#000000" fill="url(#ab)"/><path transform="translate(0 .17384)" d="m32.025 58.031c-0.20798 2e-6 -0.36981 0.05926-0.48633 0.17578-0.11652 0.11652-0.17383 0.27913-0.17383 0.48828 0 0.14973 0.02905 0.27343 0.08789 0.37305s0.13414 0.17273 0.22852 0.21875c0.09496 0.04602 0.21489 0.07031 0.35938 0.07031 0.14215 0 0.26051-0.02706 0.35547-0.08008 0.09554-0.0536 0.16865-0.12906 0.21875-0.22461 0.05068-0.09613 0.07617-0.21746 0.07617-0.36719-1e-6 -0.20624-0.05652-0.36823-0.17188-0.48242-0.11535-0.11477-0.28091-0.17187-0.49414-0.17188zm-1.9062 0.02148v1.2812h0.39844v-0.47461h0.2168c0.15963 0 0.27799-0.03654 0.35547-0.10938 0.07806-0.07282 0.11719-0.1734 0.11719-0.30273-1e-6 -0.12584-0.03577-0.22286-0.10742-0.29102-0.07108-0.06815-0.17895-0.10352-0.32226-0.10352zm2.791 0v1.2812h0.37109v-0.70312l0.48047 0.70312h0.37305v-1.2812h-0.37305v0.70898l-0.48242-0.70898zm1.3594 0 0.5 0.74609v0.53516h0.39648v-0.53516l0.49805-0.74609h-0.4375l-0.25781 0.43359-0.25977-0.43359zm-3.752 0.26172h0.11133c0.07399 0 0.12554 0.01306 0.15234 0.04102 0.0268 0.02797 0.03906 0.06332 0.03906 0.10352 1e-6 0.04136-0.01404 0.07476-0.04492 0.10156-0.03088 0.02621-0.08579 0.03906-0.16211 0.03906h-0.0957zm1.5078 0.01758c0.08331 0 0.1489 0.02806 0.19726 0.08398 0.04894 0.05535 0.07422 0.14308 0.07422 0.26367 0 0.14332-0.0237 0.24153-0.07031 0.29687s-0.1122 0.08398-0.19726 0.08398c-0.08273 0-0.14892-0.02943-0.19727-0.08594-0.04777-0.05651-0.07227-0.14801-0.07227-0.27734 0-0.1305 0.0239-0.22474 0.07227-0.28125 0.04835-0.05651 0.11354-0.08398 0.19336-0.08398z" color="#000000" enable-background="accumulate" fill="#2e2e2e" fill-rule="evenodd" style="text-decoration-line:none;text-indent:0;text-transform:none" xlink:href="#f"/><path id="f" d="m30.119 58.054h0.65804c0.14332 1e-6 0.25051 0.03409 0.32159 0.10224 0.07165 0.06816 0.10749 0.16516 0.10749 0.291-1e-6 0.12934-0.03904 0.23042-0.1171 0.30324-0.07748 0.07283-0.19604 0.10924-0.35567 0.10924h-0.21672v0.47539h-0.39762v-1.2811m0.39762 0.54618h0.097c0.07632 2e-6 0.12992-0.01311 0.16079-0.03932 0.03088-0.0268 0.04631-0.06088 0.04631-0.10224 0-0.0402-0.0134-0.07428-0.0402-0.10225-0.0268-0.02796-0.07719-0.04194-0.15118-0.04194h-0.11273v0.28576m0.84767 0.09525c0-0.20915 0.05826-0.37198 0.17478-0.4885 0.11652-0.11652 0.27877-0.17477 0.48676-0.17478 0.21323 2e-6 0.37752 0.05739 0.49287 0.17216 0.11535 0.11419 0.17303 0.2744 0.17303 0.48064-1e-6 0.14973-0.02535 0.27265-0.07603 0.36878-0.0501 0.09555-0.12293 0.17012-0.21847 0.22372-0.09496 0.05302-0.21352 0.07952-0.35567 0.07952-0.14448 0-0.2642-0.02301-0.35917-0.06903-0.09438-0.04602-0.17099-0.11885-0.22983-0.21847-0.05884-0.09962-0.08826-0.2243-0.08826-0.37402m0.39587 0.0017c-1e-6 0.12934 0.02388 0.22226 0.07165 0.27877 0.04835 0.05651 0.1139 0.08477 0.19662 0.08477 0.08506 0 0.15089-0.02768 0.1975-0.08302 0.04661-0.05534 0.06991-0.15468 0.06991-0.298-2e-6 -0.1206-0.02447-0.20857-0.07341-0.26391-0.04836-0.05593-0.11419-0.08389-0.1975-0.08389-0.07982 1e-6 -0.1439 0.02826-0.19225 0.08477-0.04836 0.05651-0.07253 0.15002-0.07253 0.28052m1.1492-0.64318h0.36965l0.48239 0.70872v-0.70872h0.37315v1.2811h-0.37315l-0.47976-0.70348v0.70348h-0.37228v-1.2811m1.3606 0h0.43956l0.25867 0.43257 0.25867-0.43257h0.43694l-0.49812 0.74455v0.53657h-0.39674v-0.53657l-0.49899-0.74455" color="#000000" enable-background="accumulate" fill="url(#aa)" fill-rule="evenodd" style="text-decoration-line:none;text-indent:0;text-transform:none"/><rect x="23.664" y="46.683" width="18.905" height=".2173" color="#000000" enable-background="accumulate" fill="url(#o)" opacity=".6"/><rect transform="rotate(90)" x="48.639" y="-43.873" width="11.604" height=".34769" color="#000000" enable-background="accumulate" fill="url(#n)" opacity=".6"/><rect x="43.656" y="48.465" width=".78229" height="11.213" color="#000000" enable-background="accumulate" fill="url(#m)" opacity=".20851"/><rect transform="matrix(1 0 -.00016053 1 0 28.684)" x="22.503" y="17.978" width="22" height="15" rx="1.2857" ry="1.2809" clip-path="none" color="#000000" fill="none" filter="url(#am)" stroke="url(#af)" stroke-width=".25675"/></g></g></g></svg>
