<?xml version="1.0" encoding="UTF-8"?>
<svg enable-background="new" version="1.0" viewBox="0 0 256 256" xmlns="http://www.w3.org/2000/svg" xmlns:xlink="http://www.w3.org/1999/xlink"><defs><linearGradient id="a"><stop stop-color="#fff" offset="0"/><stop stop-color="#fff" stop-opacity="0" offset="1"/></linearGradient><linearGradient id="d"><stop stop-color="#fff" offset="0"/><stop stop-color="#e7e7e7" offset=".47026"/><stop stop-color="#8c8c8c" offset=".67184"/><stop stop-color="#ddd" offset=".83543"/><stop stop-color="#a8a8a8" offset="1"/></linearGradient><linearGradient id="w"><stop stop-color="#fff" stop-opacity=".24752" offset="0"/><stop stop-color="#fff" stop-opacity=".61176" offset=".38571"/><stop stop-color="#fff" stop-opacity="0" offset="1"/></linearGradient><radialGradient id="al" cx="113.07" cy="97.588" r="2.5631" fx="113.67" fy="98" gradientUnits="userSpaceOnUse"><stop stop-color="#eee" offset="0"/><stop stop-color="#cecece" offset=".16"/><stop stop-color="#888" offset=".4675"/><stop stop-color="#555" offset="1"/></radialGradient><linearGradient id="am" x1="113.07" x2="113.07" y1="100.66" y2="94.513" gradientUnits="userSpaceOnUse"><stop stop-color="#eee" offset="0"/><stop stop-color="#ddd" offset=".6686"/><stop stop-color="#555" offset="1"/></linearGradient><filter id="g" x="-.40136" y="-.041808" width="1.8027" height="1.0836" color-interpolation-filters="sRGB"><feGaussianBlur stdDeviation="0.52260316"/></filter><filter id="f" x="-.10926" y="-.24673" width="1.2185" height="1.4935" color-interpolation-filters="sRGB"><feGaussianBlur stdDeviation="3.1868932"/></filter><filter id="ad" x="-.10253" y="-.19667" width="1.2051" height="1.3933" color-interpolation-filters="sRGB"><feGaussianBlur stdDeviation="9.0139614"/></filter><filter id="ac" color-interpolation-filters="sRGB"><feGaussianBlur stdDeviation="1.1686893"/></filter><filter id="ag" color-interpolation-filters="sRGB"><feGaussianBlur stdDeviation="3.0864192"/></filter><filter id="af" color-interpolation-filters="sRGB"><feGaussianBlur stdDeviation="1.5855855"/></filter><filter id="ae" color-interpolation-filters="sRGB"><feGaussianBlur stdDeviation="0.85808528"/></filter><radialGradient id="v" cx="109.5" cy="186.5" r="12.5" gradientTransform="matrix(1 0 0 .8 -2.5 27.3)" gradientUnits="userSpaceOnUse" xlink:href="#a"/><radialGradient id="u" cx="109.5" cy="186.5" r="12.5" gradientTransform="matrix(.76 0 0 .608 31.78 1.608)" gradientUnits="userSpaceOnUse" xlink:href="#a"/><radialGradient id="t" cx="109.5" cy="186.5" r="12.5" gradientTransform="matrix(.76 0 0 .608 98.78 67.108)" gradientUnits="userSpaceOnUse" xlink:href="#a"/><radialGradient id="s" cx="201.36" cy="324.65" r="106.18" gradientTransform="matrix(.5855 0 -.02044 .21883 71.418 153.57)" gradientUnits="userSpaceOnUse" xlink:href="#a"/><radialGradient id="r" cx="85.75" cy="214.08" r="14" gradientTransform="matrix(1.3571 .45536 -.11929 .35552 -2.0877 97.592)" gradientUnits="userSpaceOnUse"><stop stop-color="#fff" offset="0"/><stop stop-color="#fff" stop-opacity="0" offset="1"/></radialGradient><radialGradient id="q" cx="43.562" cy="202.25" r="1.5625" gradientTransform="matrix(3.16 0 0 11.28 -91.095 -2077.1)" gradientUnits="userSpaceOnUse" xlink:href="#a"/><linearGradient id="ab" x1="7.8008" x2="36.183" y1="32.635" y2="40.944" gradientTransform="matrix(5.0963 0 0 2.49 24.323 123.63)" gradientUnits="userSpaceOnUse"><stop stop-color="#555753" offset="0"/><stop stop-color="#2e3436" offset="1"/></linearGradient><radialGradient id="p" cx="15.571" cy="2.9585" r="20.936" gradientTransform="matrix(6.5551 3.9838 -3.6223 5.9604 12.325 29.219)" gradientUnits="userSpaceOnUse"><stop stop-color="#efefef" offset="0"/><stop stop-color="#bcbcbc" offset=".69517"/><stop stop-color="#e4e4e4" offset="1"/></radialGradient><linearGradient id="aa" x1="227.5" x2="66" y1="168.91" y2="92" gradientUnits="userSpaceOnUse"><stop stop-color="#fff" stop-opacity=".73759" offset="0"/><stop stop-color="#d3d7cf" stop-opacity="0" offset=".050516"/><stop stop-color="#e9ebe7" stop-opacity=".47163" offset=".12191"/><stop stop-color="#fff" stop-opacity=".60993" offset=".23397"/><stop stop-color="#888a85" stop-opacity=".20922" offset=".31845"/><stop stop-color="#fff" stop-opacity=".058824" offset=".52353"/><stop stop-color="#fff" stop-opacity=".68794" offset=".62108"/><stop stop-color="#fff" stop-opacity="0" offset=".69267"/><stop stop-color="#2e3436" stop-opacity=".067376" offset=".84465"/><stop stop-color="#fff" stop-opacity=".56738" offset="1"/></linearGradient><radialGradient id="o" cx="150.18" cy="301.8" r="106.18" gradientTransform="matrix(.99253 .12197 -.065923 .53645 24.017 16.39)" gradientUnits="userSpaceOnUse" xlink:href="#a"/><radialGradient id="n" cx="141.75" cy="206.43" r="78.728" gradientTransform="matrix(1.6283 -.018468 .012051 1.0626 -88.551 -34.307)" gradientUnits="userSpaceOnUse" xlink:href="#d"/><radialGradient id="m" cx="142.62" cy="191.85" r="78.728" gradientTransform="matrix(.6942 0 0 -.45301 50.489 215.44)" gradientUnits="userSpaceOnUse" xlink:href="#d"/><linearGradient id="c" x1="113.07" x2="113.07" y1="100.66" y2="94.513" gradientTransform="matrix(2.4957 0 0 2.4957 -223.98 -53.226)" gradientUnits="userSpaceOnUse" xlink:href="#am"/><radialGradient id="b" cx="113.07" cy="97.588" r="2.5631" fx="113.67" fy="98" gradientTransform="matrix(2.4957 0 0 2.4957 -223.98 -53.226)" gradientUnits="userSpaceOnUse" xlink:href="#al"/><radialGradient id="l" cx="230" cy="133" r="16.5" gradientTransform="matrix(1 0 0 2.4545 3 -182.45)" gradientUnits="userSpaceOnUse" xlink:href="#a"/><radialGradient id="k" cx="230" cy="133" r="16.5" gradientTransform="matrix(-1 0 0 2.4545 291.5 -182.45)" gradientUnits="userSpaceOnUse" xlink:href="#a"/><radialGradient id="j" cx="127.32" cy="143.83" r="78.728" gradientTransform="matrix(.86137 -.1061 .038934 .31607 5.2292 84.22)" gradientUnits="userSpaceOnUse" xlink:href="#d"/><linearGradient id="e" x1="152" x2="222" y1="202.5" y2="202.5" gradientUnits="userSpaceOnUse" xlink:href="#w"/><radialGradient id="i" cx="43.562" cy="202.25" r="1.5625" gradientTransform="matrix(3.16 0 0 11.28 -94.095 -2079.1)" gradientUnits="userSpaceOnUse" xlink:href="#a"/><linearGradient id="z" x1="7.0625" x2="24.688" y1="35.281" y2="35.281" gradientTransform="matrix(5.0963 0 0 5.0963 25.377 30.287)" gradientUnits="userSpaceOnUse"><stop offset="0"/><stop stop-color="#bbb" stop-opacity="0" offset="1"/></linearGradient><linearGradient id="y" x1="12.277" x2="12.222" y1="37.206" y2="33.759" gradientTransform="matrix(5.0963 0 0 5.0963 21.323 37.044)" gradientUnits="userSpaceOnUse"><stop stop-color="#eee" offset="0"/><stop stop-color="#eee" stop-opacity="0" offset="1"/></linearGradient><clipPath id="ak"><path d="m76.838 255.65c-3.1852 0-5.2555 1.4788-6.5296 4.3-5e-6 0-32.967 87.165-32.967 87.165s-1.2741 3.4224-1.2741 9.0778v17.179c0 5.5173 3.3523 8.2815 8.4407 8.2815h196.53c5.0191 0 8.1222-3.66 8.1222-9.3963v-17.179s0.54002-3.9263-0.47778-6.6889l-34.241-87.642c-0.94039-2.6088-3.2458-5.0356-5.7333-5.0963z" enable-background="new" fill-rule="evenodd" stroke="#000" stroke-linecap="round" stroke-linejoin="round" stroke-width="2"/></clipPath><radialGradient id="h" cx="139.08" cy="201" r="79" gradientTransform="matrix(1.269 0 0 .4557 -29.862 101.41)" gradientUnits="userSpaceOnUse"><stop stop-color="#fff" offset="0"/><stop stop-color="#fff" stop-opacity=".78723" offset=".76683"/><stop stop-color="#fff" stop-opacity="0" offset="1"/></radialGradient><filter id="aj" color-interpolation-filters="sRGB"><feGaussianBlur stdDeviation="0.60269899"/></filter><filter id="ai" color-interpolation-filters="sRGB"><feGaussianBlur stdDeviation="0.16457461"/></filter><filter id="ah" color-interpolation-filters="sRGB"><feGaussianBlur stdDeviation="0.23197962"/></filter><linearGradient id="x" x1="142.68" x2="149.3" y1="328.65" y2="360.16" gradientUnits="userSpaceOnUse"><stop stop-color="#535353" offset="0"/><stop offset="1"/></linearGradient></defs><g transform="translate(-20,-36)"><g><g transform="matrix(1 0 0 .93668 63 14.018)"><path transform="matrix(.9977 0 0 .95196 -59.665 9.1069)" d="m75 113-35 100 8 8h195l8-9-42-101z" enable-background="accumulate" filter="url(#ad)" opacity=".55446"/><path transform="matrix(1.0143 0 0 1.0143 -2.7148 -2.8665)" d="m15 113-33.768 99.754c0 3.4032 1.4196 9.2188 6.7676 8.2465h195s11.403-2.1936 8-9l-42-101z" enable-background="accumulate" filter="url(#ac)"/></g><path d="m41.006 190.85 3.8966-1.7236 191.67 0.15563 17.645 0.79007v25.992c0 2.8027-3.0935 4.5899-8.1126 4.5899h-196.63c-5.0885 0-8.4692-2.7902-8.4692-6.8186z" fill="url(#ab)" fill-rule="evenodd"/><g transform="translate(8 -5.4706)" fill-rule="evenodd"><rect x="61.37" y="195.92" width="89.822" height="28.348" fill="url(#z)"/><path d="m61.37 224.26v-20.444c9.3544 16.202 42.281 20.444 65.933 20.444h-65.933z" fill="url(#y)" opacity=".81143"/><path d="m61.456 195.98v28.189h64.022l-62.27-1.7518z" fill="#fff" opacity=".44"/></g><path transform="matrix(.99063 0 0 .94216 4.3556 22.01)" d="m39.41 178.14c-3.6402 7.4624-0.0031 12.195 5.2783 12.195h198.75c5.703-0.12134 9.4039-5.157 7.2804-10.921l-34.218-87.711c-0.94038-2.6088-3.3368-5.0356-5.8243-5.0963h-131.78c-3.1852 0-5.2783 1.5471-6.5524 4.3682l-32.944 87.165z" enable-background="new" fill-rule="evenodd" filter="url(#af)" opacity=".36879"/><path d="m42.41 186.14c-3.6402 7.4624-0.0031 12.195 5.2783 12.195h198.75c5.703-0.12134 9.4039-5.157 7.2804-10.921l-34.218-87.711c-0.94038-2.6088-3.3368-5.0356-5.8243-5.0963h-131.78c-3.1852 0-5.2783 1.5471-6.5524 4.3682l-32.944 87.165z" fill="url(#p)" fill-rule="evenodd"/><path transform="matrix(1 0 0 .98471 3 12.321)" d="m78.906 86.422c-2.255 2e-6 -3.0229 0.60267-3.9707 2.6914-10.961 29.004-32.952 87.172-32.986 87.252-1.5534 3.1845-1.3392 5.2192-0.74414 6.3516 0.59509 1.1323 1.6908 1.7988 3.4824 1.7988 0 0 198.57 1e-5 198.69 0 2.0298-0.0432 3.4627-0.90105 4.3047-2.127s1.1675-2.8739 0.38281-5.0039c-11.4-29.213-34.216-87.684-34.225-87.707-0.61509-1.7064-2.5489-3.2395-3.2207-3.2559l-210.62-86.422z" enable-background="new" fill="url(#aa)" fill-rule="evenodd" filter="url(#ag)" opacity=".70567"/><path d="m252.62 180.68c0.32373 6.3702-2.1099 11.802-6.7379 11.944 0 0-194.26-1e-5 -194.26 0-6.5703 0-9.5185-1.656-10.621-4.4239 0.46764 4.8126 4.2086 8.4053 10.621 8.4053 0-1e-5 194.26 0 194.26 0 5.4836-0.16854 8.9328-7.2572 6.891-15.262z" fill="url(#o)" fill-rule="evenodd"/><path d="m215.23 130.52c-0.22563-2.124-10.978-28.045-10.978-28.045-0.22024-2.0887-3.574-3.6651-7.8034-3.6651h-26.542c-4.2598 0-7.5527 1.5971-7.6601 3.7149-0.48704 9.5683-15.239 14.085-37.491 18.109-85.67 15.492-48.627 64.456 22.993 66.391 52.11 1.4208 105.28-24.644 67.482-56.504zm-66.732 51.542c-73.274-1.935-95.436-47.334-22.23-60.716 21.131-3.863 38.419-7.8992 39.022-19.682 0.0286-0.56419 1.3641-1.5112 2.8664-1.5112l29.663-0.125c1.5363 0 3.8327 1.0938 3.8936 1.6725l8.7231 28.191c42.29 33.71-23.838 53.177-61.939 52.171z" fill="url(#n)" filter="url(#aj)"/><path d="m152.25 156.37c-12.63 0-22.312-4.3904-22.516-10.214-2e-3 -0.063-3e-3 -0.12485-3e-3 -0.18673 0-2.1073 1.269-4.1114 3.6804-5.8083 4.0792-2.8683 11.122-4.5804 18.841-4.5804 7.7169 0 14.76 1.7121 18.839 4.5804 2.4826 1.7446 3.7548 3.8183 3.6773 5.9939-0.20728 5.8235-9.8894 10.215-22.518 10.215zm0-17.531c-11.867 0-17.913 4.3513-17.771 8.3237 0.13766 3.9105 8.0935 7.0351 17.771 7.0351s17.633-3.1256 17.771-7.0351c0.14083-3.9735-5.9036-8.3237-17.771-8.3237z" enable-background="accumulate" fill="url(#m)" filter="url(#ai)"/><g transform="matrix(.6722 0 0 .44227 16.827 103.3)"><path d="m48.3 190.28c0.31446 4.2476 5.0238 7.7116 10.514 7.7116 5.4879 0 9.6432-3.464 9.2763-7.7116-0.36437-4.2251-5.0712-7.6367-10.507-7.6367-5.438 2e-3 -9.5933 3.4116-9.2838 7.6367z" fill="url(#c)"/><path d="m51.851 187.29c-0.50163 0.53906-1.0756 1.4026-1.0756 2.5506 0 0.0824 5e-3 0.16471 0.01 0.25206 0.21713 2.9274 3.8932 5.4006 8.026 5.4006 2.3534 0 4.5046-0.81109 5.7525-2.1737 0.53656-0.58149 1.148-1.5448 1.0382-2.8276-0.25206-2.9024-3.9232-5.3557-8.021-5.3557-2.3359 2e-3 -4.4797 0.8061-5.73 2.1538z" fill="url(#b)"/></g><g transform="matrix(.6722 0 0 .44227 200.83 103.3)"><path d="m48.3 190.28c0.31446 4.2476 5.0238 7.7116 10.514 7.7116 5.4879 0 9.6432-3.464 9.2763-7.7116-0.36437-4.2251-5.0712-7.6367-10.507-7.6367-5.438 2e-3 -9.5933 3.4116-9.2838 7.6367z" fill="url(#c)"/><path d="m51.851 187.29c-0.50163 0.53906-1.0756 1.4026-1.0756 2.5506 0 0.0824 5e-3 0.16471 0.01 0.25206 0.21713 2.9274 3.8932 5.4006 8.026 5.4006 2.3534 0 4.5046-0.81109 5.7525-2.1737 0.53656-0.58149 1.148-1.5448 1.0382-2.8276-0.25206-2.9024-3.9232-5.3557-8.021-5.3557-2.3359 2e-3 -4.4797 0.8061-5.73 2.1538z" fill="url(#b)"/></g><g transform="matrix(.461 0 0 .30331 58.025 41.746)"><path d="m48.3 190.28c0.31446 4.2476 5.0238 7.7116 10.514 7.7116 5.4879 0 9.6432-3.464 9.2763-7.7116-0.36437-4.2251-5.0712-7.6367-10.507-7.6367-5.438 2e-3 -9.5933 3.4116-9.2838 7.6367z" fill="url(#c)"/><path d="m51.851 187.29c-0.50163 0.53906-1.0756 1.4026-1.0756 2.5506 0 0.0824 5e-3 0.16471 0.01 0.25206 0.21713 2.9274 3.8932 5.4006 8.026 5.4006 2.3534 0 4.5046-0.81109 5.7525-2.1737 0.53656-0.58149 1.148-1.5448 1.0382-2.8276-0.25206-2.9024-3.9232-5.3557-8.021-5.3557-2.3359 2e-3 -4.4797 0.8061-5.73 2.1538z" fill="url(#b)"/></g><g transform="matrix(.461 0 0 .30331 184.21 41.746)"><path d="m48.3 190.28c0.31446 4.2476 5.0238 7.7116 10.514 7.7116 5.4879 0 9.6432-3.464 9.2763-7.7116-0.36437-4.2251-5.0712-7.6367-10.507-7.6367-5.438 2e-3 -9.5933 3.4116-9.2838 7.6367z" fill="url(#c)"/><path d="m51.851 187.29c-0.50163 0.53906-1.0756 1.4026-1.0756 2.5506 0 0.0824 5e-3 0.16471 0.01 0.25206 0.21713 2.9274 3.8932 5.4006 8.026 5.4006 2.3534 0 4.5046-0.81109 5.7525-2.1737 0.53656-0.58149 1.148-1.5448 1.0382-2.8276-0.25206-2.9024-3.9232-5.3557-8.021-5.3557-2.3359 2e-3 -4.4797 0.8061-5.73 2.1538z" fill="url(#b)"/></g><path d="m217 104 32 80" enable-background="accumulate" fill="none" opacity=".89604" stroke="url(#l)"/><path d="m77.5 104-32 80" enable-background="accumulate" fill="none" opacity=".89604" stroke="url(#k)"/><path d="m89.594 99.5-0.46875 1.3438-7 20-1.1875 3.3438 3.4688-0.71875 59-12.5 0.1875-0.0625 0.15625-0.0625c3.1243-1.2497 4.7938-3.7752 5.1875-6.0938 0.19685-1.1593 0.13817-2.2944-0.375-3.3438-0.48445-0.99059-1.7448-1.8719-3.0625-1.8438v-0.0625h-0.21875-54.281zm1.997 1.2357h54.377c0.0268 0.16888 0.0866 0.26256 0.0323 0.58191-0.1707 1.0052-0.90438 4.6014-2.7479 5.3859l-57.19 12.123z" enable-background="accumulate" fill="url(#j)" filter="url(#ah)"/><path transform="matrix(-1,0,0,1,335,2)" d="m161.5 187-9.5 31h56l14-31z" enable-background="accumulate" fill="url(#e)" filter="url(#f)" opacity=".67822"/><path transform="translate(5,-161)" d="m76.838 255.65c-3.1852 0-5.2555 1.4788-6.5296 4.3-5e-6 0-32.967 87.165-32.967 87.165s-1.2741 3.4224-1.2741 9.0778v17.179c0 5.5173 3.3523 8.2815 8.4407 8.2815h196.53c5.0191 0 8.1222-3.66 8.1222-9.3963v-17.179s0.54002-3.9263-0.47778-6.6889l-34.241-87.642c-0.94039-2.6088-3.2458-5.0356-5.7333-5.0963z" clip-path="url(#ak)" fill="none" filter="url(#ae)" stroke="url(#x)" stroke-linecap="round" stroke-linejoin="round" stroke-width="2"/><path d="m45.5 189.25-0.5 28.25 3.125 1.75v-30z" enable-background="accumulate" fill="url(#q)" filter="url(#g)" opacity=".34752"/><path transform="matrix(-.68 0 0 1 280.18 2)" d="m42.5 187.25-0.5 28.25 3.125 1.75v-30z" enable-background="accumulate" fill="url(#i)" filter="url(#g)" opacity=".21631"/><path d="m76.25 205.5c5.9045 6.3325 14.446 10.487 28 10.5-12.798-2.3453-22.202-5.8214-28-10.5z" enable-background="accumulate" fill="url(#r)" opacity=".55446"/><path transform="matrix(-.77143 0 0 1 366.26 2)" d="m161.5 187-9.5 31h56l14-31z" enable-background="accumulate" fill="url(#e)" filter="url(#f)" opacity=".26241"/><path d="m252.62 208.68c0.32373 4.3703-2.1099 8.0968-6.7379 8.1944 0 0-194.26-1e-5 -194.26 0-6.5703 0-9.5185-1.1361-10.621-3.035 0.46764 3.3016 4.2086 5.7664 10.621 5.7664 0-1e-5 194.26 0 194.26 0 5.4836-0.11563 8.9328-4.9788 6.891-10.471z" fill="url(#s)" fill-rule="evenodd" opacity=".25532"/><ellipse cx="107" cy="176.5" rx="12.5" ry="10" fill="url(#v)"/><ellipse cx="115" cy="115" rx="9.5" ry="7.6" enable-background="new" fill="url(#u)" opacity=".60284"/><ellipse cx="182" cy="180.5" rx="9.5" ry="7.6" enable-background="new" fill="url(#t)" opacity=".60284"/><path d="m44.75 193h203.75" fill="none" stroke="url(#h)" stroke-width="1px"/></g></g></svg>
