<?xml version="1.0" encoding="UTF-8"?>
<svg enable-background="new" version="1.0" viewBox="0 0 256 256" xmlns="http://www.w3.org/2000/svg" xmlns:xlink="http://www.w3.org/1999/xlink"><defs><linearGradient id="o" x1="136.98" x2="136.98" y1="-172.02" y2="-176.51" gradientTransform="translate(0,103)" gradientUnits="userSpaceOnUse"><stop stop-color="#babdb6" offset="0"/><stop stop-color="#babdb6" stop-opacity="0" offset="1"/></linearGradient><radialGradient id="k" cx="188.75" cy="235.4" r="96" gradientTransform="matrix(3.9274 0 0 .71171 -552.55 29.21)" gradientUnits="userSpaceOnUse"><stop stop-color="#fff" offset="0"/><stop stop-color="#fff" stop-opacity="0" offset="1"/></radialGradient><linearGradient id="p" x1="54.5" x2="241.5" y1="193.91" y2="193.91" gradientTransform="matrix(1.0103 0 0 1.3688 -.53637 -336.71)" gradientUnits="userSpaceOnUse"><stop offset="0"/><stop stop-color="#525252" offset=".5"/><stop stop-color="#040404" offset="1"/></linearGradient><linearGradient id="q" x1="105.76" x2="105.76" y1="188" y2="196.02" gradientTransform="translate(0 -.25)" gradientUnits="userSpaceOnUse"><stop offset="0"/><stop stop-opacity="0" offset="1"/></linearGradient><filter id="r"><feGaussianBlur stdDeviation="1.2010375"/></filter><clipPath id="aa"><path d="m73.868 105c-2.8181 0-4.1033 2.2326-5.0776 4.6509l-27.605 68.398c-0.15207 0.37748-0.22154 0.75553-0.18576 1.1162-0.0053 0.0624 0 0.12294 0 0.18604v28.68c0 2.2005 3.2649 3.9688 7.3067 3.9688h199.39c4.0418 0 7.3067-1.7682 7.3067-3.9688v-28.68c0-0.0631 5e-3 -0.12367 0-0.18604 0.0358-0.36068-0.0337-0.73873-0.18577-1.1162l-27.605-68.398c-0.97423-2.4183-2.2594-4.6509-5.0776-4.6509z" enable-background="new" fill="none" stroke="#000"/></clipPath><filter id="z"><feGaussianBlur stdDeviation="0.85254664"/></filter><filter id="x" x="-.0061328" y="-.27706" width="1.0123" height="1.5541"><feGaussianBlur stdDeviation="0.490625"/></filter><filter id="u" x="-.00625" y="-.15" width="1.0125" height="1.3"><feGaussianBlur stdDeviation="0.5"/></filter><linearGradient id="a"><stop stop-color="#fff" offset="0"/><stop stop-color="#fff" stop-opacity="0" offset="1"/></linearGradient><filter id="s"><feGaussianBlur stdDeviation="0.083731455"/></filter><filter id="t"><feGaussianBlur stdDeviation="0.0809375"/></filter><filter id="y"><feGaussianBlur stdDeviation="0.08825744"/></filter><filter id="b"><feGaussianBlur stdDeviation="0.3225"/></filter><filter id="w" x="-.096082" y="-.21078" width="1.1922" height="1.4216"><feGaussianBlur stdDeviation="8.6473583"/></filter><filter id="v"><feGaussianBlur stdDeviation="1.1139135"/></filter><linearGradient id="n" x1="40.871" x2="254.78" y1="223.45" y2="223.45" gradientTransform="matrix(1.0075 0 0 1.0094 -5.1097 -44.266)" gradientUnits="userSpaceOnUse"><stop stop-color="#909090" offset="0"/><stop stop-color="#babdb6" offset=".04"/><stop stop-color="#babdb6" offset=".96"/><stop stop-color="#888a85" offset="1"/></linearGradient><linearGradient id="m" x1="49.604" x2="253.29" y1="176.61" y2="210.29" gradientUnits="userSpaceOnUse"><stop stop-color="#fff" stop-opacity=".64894" offset="0"/><stop stop-color="#fff" stop-opacity="0" offset=".068364"/><stop stop-color="#929292" stop-opacity=".50382" offset=".32103"/><stop stop-color="#fff" stop-opacity="0" offset=".54211"/><stop stop-color="#fff" stop-opacity=".71756" offset=".78632"/><stop stop-color="#fff" stop-opacity="0" offset="1"/></linearGradient><radialGradient id="j" cx="136.8" cy="196.24" r="107.69" gradientTransform="matrix(1.5202 -4.7412e-8 5.339e-8 1.7119 -82.997 -165.93)" gradientUnits="userSpaceOnUse"><stop stop-color="#fff" offset="0"/><stop stop-color="#fff" stop-opacity="0" offset="1"/></radialGradient><radialGradient id="i" cx="171.86" cy="163.67" r="106.11" gradientTransform="matrix(2.4906 -.66783 .93479 3.4282 -410.89 -269.1)" gradientUnits="userSpaceOnUse"><stop stop-color="#fff" offset="0"/><stop stop-color="#959595" offset="1"/></radialGradient><linearGradient id="l" x1="155.76" x2="155.76" y1="167.5" y2="94.25" gradientUnits="userSpaceOnUse"><stop stop-color="#5f5f5f" offset="0"/><stop stop-color="#babdb6" offset="1"/></linearGradient><radialGradient id="h" cx="43.062" cy="192.25" r="1.3818" gradientTransform="matrix(1 0 0 11.008 0 -1924)" gradientUnits="userSpaceOnUse" xlink:href="#a"/><radialGradient id="g" cx="253.03" cy="193.54" r="1.3818" gradientTransform="matrix(1 0 0 10.996 -1 -1934.7)" gradientUnits="userSpaceOnUse" xlink:href="#a"/><radialGradient id="f" cx="172.25" cy="86.875" r="66" gradientTransform="matrix(.69005 0 0 .26573 49.612 71.565)" gradientUnits="userSpaceOnUse"><stop stop-color="#fff" offset="0"/><stop stop-color="#fff" stop-opacity="0" offset="1"/></radialGradient><radialGradient id="e" cx="58.25" cy="137.05" r="18.75" gradientTransform="matrix(.97821 .20762 -.69333 3.2667 96.293 -316.55)" gradientUnits="userSpaceOnUse" xlink:href="#a"/><radialGradient id="d" cx="58.292" cy="130.62" r="18.75" gradientTransform="matrix(.97821 .20762 -.69333 3.2667 96.293 -316.55)" gradientUnits="userSpaceOnUse" xlink:href="#a"/><radialGradient id="c" cx="230.55" cy="167.62" r="11.75" gradientTransform="matrix(.79354 .5462 -1.4362 2.2157 287.88 -329.09)" gradientUnits="userSpaceOnUse"><stop stop-color="#fff" offset="0"/><stop stop-color="#ececec" offset="1"/></radialGradient><radialGradient id="ab" cx="226" cy="166.28" r="7.8125" gradientTransform="matrix(.66088 -.29267 1.9361 4.3718 -245.3 -494.53)" gradientUnits="userSpaceOnUse"><stop stop-color="#7b7b7b" offset="0"/><stop stop-color="#fff" offset="1"/></radialGradient></defs><g transform="translate(-416,-28)"><g><g transform="translate(400 6)"><path transform="matrix(.99991 0 0 .94844 -4.9767 -.97678)" d="m82.253 115h133.49c2.8444 0 4.151 2.2513 5.1344 4.6886l35.941 89.084c0.98334 2.4374-2.2899 4.6886-5.1344 4.6886h-205.37c-2.8444 0-6.1177-2.2513-5.1344-4.6886l35.941-89.084c0.98334-2.4374 2.2899-4.6886 5.1344-4.6886z" enable-background="new" filter="url(#v)" opacity=".89"/><path transform="matrix(1.0092 0 0 .94939 -5.3563 -1.1801)" d="m82.253 115h133.49c2.8444 0 4.151 2.2513 5.1344 4.6886l35.941 89.084c0.98334 2.4374-2.2899 4.6886-5.1344 4.6886h-205.37c-2.8444 0-6.1177-2.2513-5.1344-4.6886l35.941-89.084c0.98334-2.4374 2.2899-4.6886 5.1344-4.6886z" enable-background="new" filter="url(#w)" opacity=".55"/><rect x="36.068" y="162.74" width="215.51" height="37.09" rx="7.3473" ry="4.0218" enable-background="new" fill="url(#n)"/><rect transform="matrix(.95934 0 0 1.0094 2.0089 -13.985)" x="42.357" y="176.61" width="210.94" height="33.679" rx="7.1913" ry="3.6518" enable-background="new" fill="url(#m)" filter="url(#r)" opacity=".9"/><path d="m251.66 166c0 2.216-2.1951 4-4.9218 4h-205.53c-2.7267 0-4.9218-1.784-4.9218-4z" enable-background="new" fill="url(#j)"/><path d="m68.171 92.134c-0.94078 0-1.3644 0.27449-1.9033 0.85679-0.53884 0.58231-1.0562 1.5408-1.5226 2.6973l-28.406 70.154c-0.0745 0.18471-0.06537 0.24186 0 0.41253 0.06537 0.17066 0.23306 0.4503 0.57097 0.72986 0.67582 0.55911 1.9141 1.0154 2.8549 1.0154h208.47c0.94078 0 2.1791-0.45633 2.8549-1.0154 0.3379-0.27956 0.5056-0.5592 0.57097-0.72986 0.0654-0.17067 0.0745-0.22782 0-0.41253l-28.406-70.154c-0.46638-1.1565-0.98376-2.115-1.5226-2.6973-0.53884-0.5823-0.96246-0.85679-1.9033-0.85679z" enable-background="new" fill="url(#i)"/><path transform="matrix(1.0092 0 0 1.0094 -5.3563 -13.985)" d="m73.868 105c-2.8181 0-4.1033 2.2326-5.0776 4.6509l-27.605 68.398c-0.15207 0.37748-0.22154 0.75553-0.18576 1.1162-0.0053 0.0624 0 0.12294 0 0.18604v28.68c0 2.2005 3.2649 3.9688 7.3067 3.9688h199.39c4.0418 0 7.3067-1.7682 7.3067-3.9688v-28.68c0-0.0631 5e-3 -0.12367 0-0.18604 0.0358-0.36068-0.0337-0.73873-0.18577-1.1162l-27.605-68.398c-0.97423-2.4183-2.2594-4.6509-5.0776-4.6509z" clip-path="url(#aa)" enable-background="new" fill="none" filter="url(#z)" stroke="url(#l)" stroke-width="2.9724"/><rect transform="matrix(1.0092 0 0 1.0924 -4.3471 -28.687)" x="41.875" y="177.25" width="2.375" height="30" rx="2.2867" ry="2.2466" enable-background="new" fill="url(#h)" filter="url(#s)" opacity=".85"/><rect transform="matrix(1.0092 0 0 1.0094 -5.3563 -13.985)" x="250.84" y="178.54" width="2.375" height="30" rx="2.2867" ry="2.2466" enable-background="new" fill="url(#g)" filter="url(#t)" opacity=".55"/><rect x="77.396" y="94.019" width="137.5" height="1.3023" rx="2.2683" ry=".63086" enable-background="accumulate" fill="url(#f)"/><path transform="matrix(1.0092 0 0 1.0094 -5.3563 -13.985)" d="m45 177.5 27-68.5" enable-background="new" fill="none" filter="url(#b)" opacity=".67568" stroke="url(#e)" stroke-linecap="round" stroke-width="1.9816"/><path transform="matrix(-1.0092 0 0 1.0094 293.86 -13.985)" d="m45 177.5 27.75-68.5" enable-background="new" fill="none" filter="url(#b)" opacity=".40541" stroke="url(#d)" stroke-linecap="round" stroke-width="1.9816"/><g transform="matrix(1.0092 0 0 1.0094 -14.313 -19.662)" enable-background="new"><ellipse transform="matrix(1.3505 0 .18007 1.3505 -115.56 -58.834)" cx="230.25" cy="167.12" rx="11.75" ry="5.875" enable-background="accumulate" fill="#949494" filter="url(#y)"/><ellipse transform="matrix(1.3505 0 .18007 1.3505 -115.56 -58.084)" cx="230.25" cy="167.12" rx="11.75" ry="5.875" enable-background="accumulate" fill="#fff"/><ellipse transform="matrix(1.3505 0 .18007 1.3505 -115.56 -58.584)" cx="230.25" cy="167.12" rx="11.75" ry="5.875" enable-background="accumulate" fill="url(#c)"/><g transform="translate(0 .375)" fill="#fff"><path d="m218.19 167.14h14.583l-8.3333-4.1667z" enable-background="accumulate"/><path d="m218.26 168.48 0.0744 1.1161h15.476l-0.52083-1.2649-15.03 0.14881z" enable-background="accumulate"/></g><g opacity=".5"><path d="m218.19 167.14h14.583l-8.3333-4.1667z" enable-background="accumulate" fill="#d4d4d4"/><path d="m218.26 168.48 0.0744 1.1161h15.476l-0.52083-1.2649-15.03 0.14881z" enable-background="accumulate" fill="#d2d2d2"/></g></g></g><g transform="translate(395.36 260.94)" enable-background="new"><rect transform="matrix(1.0103 0 0 1 -.53637 -267)" x="53.5" y="187.75" width="189.12" height="8" rx="1.375" ry="1.375" enable-background="new" fill="url(#q)" filter="url(#u)" opacity=".75243"/><path d="m55.41-78c-0.49472 0-0.88403 0.52745-0.88403 1.1977v3.251 0.08555 3.251c0 0.67027 0.3893 1.1977 0.88403 1.1977h187.16c0.49472 0 0.88403-0.52745 0.88403-1.1977v-3.251-0.08555-3.251c0-0.67028-0.38931-1.1977-0.88403-1.1977z" enable-background="accumulate" fill="url(#p)"/><path transform="matrix(1.0103 0 0 1 -.53637 -264)" d="m52 193.75v2c0 1.2446 1.5081 2.25 3.375 2.25h185.25c1.8669 0 3.375-1.0054 3.375-2.25v-2c0 1.2446-1.5081 2.25-3.375 2.25h-185.25c-1.8669 0-3.375-1.0054-3.375-2.25z" enable-background="new" fill="url(#k)" filter="url(#x)" opacity=".95946"/><path d="m55.41-78c-0.49472 0-0.88403 0.52745-0.88403 1.1977v3.251 0.08555 3.251c0 0.67027 0.3893 1.1977 0.88403 1.1977h187.16c0.49472 0 0.88403-0.52745 0.88403-1.1977v-3.251-0.08555-3.251c0-0.67028-0.38931-1.1977-0.88403-1.1977z" enable-background="accumulate" fill="url(#o)"/></g></g></g></svg>
