<?xml version="1.0" encoding="UTF-8"?>
<svg enable-background="new" version="1.0" viewBox="0 0 256 256" xmlns="http://www.w3.org/2000/svg" xmlns:xlink="http://www.w3.org/1999/xlink"><defs><linearGradient id="c"><stop stop-color="#fff" offset="0"/><stop stop-color="#fff" stop-opacity="0" offset="1"/></linearGradient><filter id="bp" color-interpolation-filters="sRGB"><feGaussianBlur stdDeviation="1.1139135"/></filter><filter id="bq" x="-.096082" y="-.21078" width="1.1922" height="1.4216" color-interpolation-filters="sRGB"><feGaussianBlur stdDeviation="8.6473583"/></filter><linearGradient id="bh" x1="40.871" x2="254.78" y1="223.45" y2="223.45" gradientTransform="matrix(1.0075 0 0 1.0094 -5.1097 -44.266)" gradientUnits="userSpaceOnUse"><stop stop-color="#909090" offset="0"/><stop stop-color="#babdb6" offset=".04"/><stop stop-color="#babdb6" offset=".96"/><stop stop-color="#888a85" offset="1"/></linearGradient><linearGradient id="bg" x1="49.604" x2="253.29" y1="176.61" y2="210.29" gradientUnits="userSpaceOnUse"><stop stop-color="#fff" stop-opacity=".64894" offset="0"/><stop stop-color="#fff" stop-opacity="0" offset=".068364"/><stop stop-color="#929292" stop-opacity=".50382" offset=".32103"/><stop stop-color="#fff" stop-opacity="0" offset=".54211"/><stop stop-color="#fff" stop-opacity=".71756" offset=".78632"/><stop stop-color="#fff" stop-opacity="0" offset="1"/></linearGradient><filter id="bm" color-interpolation-filters="sRGB"><feGaussianBlur stdDeviation="1.2010375"/></filter><radialGradient id="aw" cx="136.8" cy="196.24" r="107.69" gradientTransform="matrix(1.5202 -4.7412e-8 5.339e-8 1.7119 -82.997 -165.93)" gradientUnits="userSpaceOnUse"><stop stop-color="#fff" offset="0"/><stop stop-color="#fff" stop-opacity="0" offset="1"/></radialGradient><radialGradient id="av" cx="172.57" cy="139.3" r="106.11" gradientTransform="matrix(1.3544 -.36291 .50799 1.8643 -155.36 -103.87)" gradientUnits="userSpaceOnUse"><stop stop-color="#fff" offset="0"/><stop stop-color="#959595" offset="1"/></radialGradient><linearGradient id="bf" x1="155.76" x2="155.76" y1="167.5" y2="94.25" gradientUnits="userSpaceOnUse"><stop stop-color="#5f5f5f" offset="0"/><stop stop-color="#babdb6" offset="1"/></linearGradient><clipPath id="bu"><path d="m73.868 55.464c-2.8181 0-4.1033 2.2326-5.0776 4.6509l-27.605 48.583c-0.15207 0.37748-0.22154 0.75553-0.18576 1.1162-0.0053 0.0624 0 0.12294 0 0.18604v148.56c0 2.2005 3.2649 3.9688 7.3067 3.9688h199.39c4.0418 0 7.3067-1.7682 7.3067-3.9688v-148.56c0-0.0631 5e-3 -0.12367 0-0.18604 0.0358-0.36068-0.0337-0.73873-0.18577-1.1162l-27.605-48.583c-0.97423-2.4183-2.2594-4.6509-5.0776-4.6509z" enable-background="new" fill="none" stroke="#000"/></clipPath><filter id="bt" color-interpolation-filters="sRGB"><feGaussianBlur stdDeviation="0.85254664"/></filter><radialGradient id="au" cx="43.062" cy="192.25" r="1.3818" gradientTransform="matrix(1 0 0 11.008 0 -1924)" gradientUnits="userSpaceOnUse" xlink:href="#c"/><filter id="bn" color-interpolation-filters="sRGB"><feGaussianBlur stdDeviation="0.083731455"/></filter><radialGradient id="at" cx="253.03" cy="193.54" r="1.3818" gradientTransform="matrix(1 0 0 10.996 -1 -1934.7)" gradientUnits="userSpaceOnUse" xlink:href="#c"/><filter id="bo" color-interpolation-filters="sRGB"><feGaussianBlur stdDeviation="0.0809375"/></filter><radialGradient id="as" cx="172.25" cy="86.875" r="66" gradientTransform="matrix(.69005 0 0 .26573 49.612 71.565)" gradientUnits="userSpaceOnUse"><stop stop-color="#fff" offset="0"/><stop stop-color="#fff" stop-opacity="0" offset="1"/></radialGradient><radialGradient id="ar" cx="58.25" cy="137.05" r="18.75" gradientTransform="matrix(.97821 .20762 -.69333 3.2667 96.293 -316.55)" gradientUnits="userSpaceOnUse" xlink:href="#c"/><filter id="an" color-interpolation-filters="sRGB"><feGaussianBlur stdDeviation="0.3225"/></filter><radialGradient id="ao" cx="58.292" cy="130.62" r="18.75" gradientTransform="matrix(.97821 .20762 -.69333 3.2667 96.293 -316.55)" gradientUnits="userSpaceOnUse" xlink:href="#c"/><linearGradient id="ak" x1="105.76" x2="105.76" y1="188" y2="196.02" gradientTransform="translate(0 -.25)" gradientUnits="userSpaceOnUse" xlink:href="#be"/><linearGradient id="be"><stop offset="0"/><stop stop-opacity="0" offset="1"/></linearGradient><filter id="al" x="-.00625" y="-.15" width="1.0125" height="1.3" color-interpolation-filters="sRGB"><feGaussianBlur stdDeviation="0.5"/></filter><linearGradient id="aj" x1="54.5" x2="241.5" y1="193.91" y2="193.91" gradientTransform="matrix(1.0103 0 0 1.3688 -.53637 -336.71)" gradientUnits="userSpaceOnUse" xlink:href="#bk"/><linearGradient id="bk"><stop offset="0"/><stop stop-color="#525252" offset=".5"/><stop stop-color="#040404" offset="1"/></linearGradient><radialGradient id="ag" cx="188.75" cy="235.4" r="96" gradientTransform="matrix(3.9274 0 0 .71171 -552.55 29.21)" gradientUnits="userSpaceOnUse" xlink:href="#c"/><filter id="am" x="-.0061328" y="-.27706" width="1.0123" height="1.5541" color-interpolation-filters="sRGB"><feGaussianBlur stdDeviation="0.490625"/></filter><linearGradient id="ai" x1="136.98" x2="136.98" y1="-172.02" y2="-176.51" gradientTransform="translate(0,103)" gradientUnits="userSpaceOnUse" xlink:href="#ay"/><linearGradient id="ay"><stop stop-color="#babdb6" offset="0"/><stop stop-color="#babdb6" stop-opacity="0" offset="1"/></linearGradient><clipPath id="ae"><rect x="23.951" y="200.44" width="231.5" height="56" color="#000000" enable-background="accumulate" fill="#d3d7cf"/></clipPath><linearGradient id="x" x1="7.8008" x2="36.183" y1="32.635" y2="40.944" gradientTransform="matrix(5.0963 0 0 2.49 16.323 147.63)" gradientUnits="userSpaceOnUse" xlink:href="#bb"/><linearGradient id="bb"><stop stop-color="#555753" offset="0"/><stop stop-color="#2e3436" offset="1"/></linearGradient><linearGradient id="w" x1="7.0625" x2="24.688" y1="35.281" y2="35.281" gradientTransform="matrix(5.0963 0 0 5.0963 25.377 30.287)" gradientUnits="userSpaceOnUse" xlink:href="#bc"/><linearGradient id="bc"><stop offset="0"/><stop stop-color="#bbb" stop-opacity="0" offset="1"/></linearGradient><linearGradient id="v" x1="12.277" x2="12.222" y1="37.206" y2="33.759" gradientTransform="matrix(5.0963 0 0 5.0963 21.323 37.044)" gradientUnits="userSpaceOnUse" xlink:href="#ba"/><linearGradient id="ba"><stop stop-color="#eee" offset="0"/><stop stop-color="#eee" stop-opacity="0" offset="1"/></linearGradient><filter id="z" color-interpolation-filters="sRGB"><feGaussianBlur stdDeviation="1.5855855"/></filter><radialGradient id="s" cx="15.571" cy="2.9585" r="20.936" gradientTransform="matrix(6.5551 3.9838 -3.6223 5.9604 9.3248 16.219)" gradientUnits="userSpaceOnUse" xlink:href="#az"/><linearGradient id="az"><stop stop-color="#efefef" offset="0"/><stop stop-color="#bcbcbc" offset=".69517"/><stop stop-color="#e4e4e4" offset="1"/></linearGradient><linearGradient id="u" x1="227.5" x2="66" y1="168.91" y2="92" gradientUnits="userSpaceOnUse" xlink:href="#bd"/><linearGradient id="bd"><stop stop-color="#fff" stop-opacity=".73759" offset="0"/><stop stop-color="#d3d7cf" stop-opacity="0" offset=".050516"/><stop stop-color="#e9ebe7" stop-opacity=".47163" offset=".12191"/><stop stop-color="#fff" stop-opacity=".60993" offset=".23397"/><stop stop-color="#888a85" stop-opacity=".20922" offset=".31845"/><stop stop-color="#fff" stop-opacity=".058824" offset=".52353"/><stop stop-color="#fff" stop-opacity=".68794" offset=".62108"/><stop stop-color="#fff" stop-opacity="0" offset=".69267"/><stop stop-color="#2e3436" stop-opacity=".067376" offset=".84465"/><stop stop-color="#fff" stop-opacity=".56738" offset="1"/></linearGradient><filter id="aa" color-interpolation-filters="sRGB"><feGaussianBlur stdDeviation="3.0864192"/></filter><radialGradient id="r" cx="150.18" cy="301.8" r="106.18" gradientTransform="matrix(.99253 .12197 -.065923 .53645 21.017 3.3904)" gradientUnits="userSpaceOnUse" xlink:href="#c"/><radialGradient id="q" cx="141.75" cy="206.43" r="78.728" gradientTransform="matrix(1.6283 -.018468 .012051 1.0626 -91.551 -47.307)" gradientUnits="userSpaceOnUse" xlink:href="#ah"/><linearGradient id="ah"><stop stop-color="#fff" offset="0"/><stop stop-color="#e7e7e7" offset=".47026"/><stop stop-color="#8c8c8c" offset=".67184"/><stop stop-color="#ddd" offset=".83543"/><stop stop-color="#a8a8a8" offset="1"/></linearGradient><filter id="ad" color-interpolation-filters="sRGB"><feGaussianBlur stdDeviation="0.60269899"/></filter><radialGradient id="p" cx="142.62" cy="191.85" r="78.728" gradientTransform="matrix(.6942 0 0 -.45301 47.489 202.44)" gradientUnits="userSpaceOnUse" xlink:href="#ah"/><filter id="ac" color-interpolation-filters="sRGB"><feGaussianBlur stdDeviation="0.16457461"/></filter><linearGradient id="b" x1="113.07" x2="113.07" y1="100.66" y2="94.513" gradientTransform="matrix(2.4957 0 0 2.4957 -223.98 -53.226)" gradientUnits="userSpaceOnUse" xlink:href="#bw"/><linearGradient id="bw" x1="113.07" x2="113.07" y1="100.66" y2="94.513" gradientUnits="userSpaceOnUse"><stop stop-color="#eee" offset="0"/><stop stop-color="#ddd" offset=".6686"/><stop stop-color="#555" offset="1"/></linearGradient><radialGradient id="a" cx="113.07" cy="97.588" r="2.5631" fx="113.67" fy="98" gradientTransform="matrix(2.4957 0 0 2.4957 -223.98 -53.226)" gradientUnits="userSpaceOnUse" xlink:href="#bv"/><radialGradient id="bv" cx="113.07" cy="97.588" r="2.5631" fx="113.67" fy="98" gradientUnits="userSpaceOnUse"><stop stop-color="#eee" offset="0"/><stop stop-color="#cecece" offset=".16"/><stop stop-color="#888" offset=".4675"/><stop stop-color="#555" offset="1"/></radialGradient><radialGradient id="o" cx="230" cy="133" r="16.5" gradientTransform="matrix(1 0 0 2.4545 0 -195.45)" gradientUnits="userSpaceOnUse" xlink:href="#c"/><radialGradient id="n" cx="230" cy="133" r="16.5" gradientTransform="matrix(-1 0 0 2.4545 288.5 -195.45)" gradientUnits="userSpaceOnUse" xlink:href="#c"/><radialGradient id="m" cx="127.32" cy="143.83" r="78.728" gradientTransform="matrix(.86137 -.1061 .038934 .31607 2.2292 71.22)" gradientUnits="userSpaceOnUse" xlink:href="#ah"/><filter id="ab" color-interpolation-filters="sRGB"><feGaussianBlur stdDeviation="0.23197962"/></filter><linearGradient id="e" x1="152" x2="222" y1="202.5" y2="202.5" gradientUnits="userSpaceOnUse" xlink:href="#ax"/><linearGradient id="ax"><stop stop-color="#fff" stop-opacity=".24752" offset="0"/><stop stop-color="#fff" stop-opacity=".61176" offset=".38571"/><stop stop-color="#fff" stop-opacity="0" offset="1"/></linearGradient><filter id="f" x="-.10926" y="-.24673" width="1.2185" height="1.4935" color-interpolation-filters="sRGB"><feGaussianBlur stdDeviation="3.1868932"/></filter><linearGradient id="t" x1="142.68" x2="149.3" y1="328.65" y2="360.16" gradientUnits="userSpaceOnUse" xlink:href="#bi"/><linearGradient id="bi"><stop stop-color="#535353" offset="0"/><stop offset="1"/></linearGradient><clipPath id="af"><path d="m76.838 255.65c-3.1852 0-5.2555 1.4788-6.5296 4.3-5e-6 0-32.967 87.165-32.967 87.165s-1.2741 3.4224-1.2741 9.0778v17.179c0 5.5173 3.3523 8.2815 8.4407 8.2815h196.53c5.0191 0 8.1222-3.66 8.1222-9.3963v-17.179s0.54002-3.9263-0.47778-6.6889l-34.241-87.642c-0.94039-2.6088-3.2458-5.0356-5.7333-5.0963z" enable-background="new" fill-rule="evenodd" stroke="#000" stroke-linecap="round" stroke-linejoin="round" stroke-width="2"/></clipPath><filter id="y" color-interpolation-filters="sRGB"><feGaussianBlur stdDeviation="0.85808528"/></filter><radialGradient id="l" cx="43.562" cy="202.25" r="1.5625" gradientTransform="matrix(3.16 0 0 11.28 -99.095 -2053.1)" gradientUnits="userSpaceOnUse" xlink:href="#c"/><filter id="g" x="-.40136" y="-.041808" width="1.8027" height="1.0836" color-interpolation-filters="sRGB"><feGaussianBlur stdDeviation="0.52260316"/></filter><radialGradient id="k" cx="43.562" cy="202.25" r="1.5625" gradientTransform="matrix(3.16 0 0 11.28 -94.095 -2079.1)" gradientUnits="userSpaceOnUse" xlink:href="#c"/><radialGradient id="j" cx="85.75" cy="214.08" r="14" gradientTransform="matrix(1.3571 .45536 -.11929 .35552 -10.088 121.59)" gradientUnits="userSpaceOnUse" xlink:href="#c"/><radialGradient id="i" cx="201.36" cy="324.65" r="106.18" gradientTransform="matrix(.5855 0 -.02044 .21883 63.418 177.57)" gradientUnits="userSpaceOnUse" xlink:href="#c"/><radialGradient id="d" cx="109.5" cy="186.5" r="12.5" gradientTransform="matrix(1 0 0 .52 0 89.52)" gradientUnits="userSpaceOnUse" xlink:href="#c"/><radialGradient id="h" cx="139.08" cy="201" r="79" gradientTransform="matrix(1.269 0 0 .4557 -37.862 125.41)" gradientUnits="userSpaceOnUse" xlink:href="#bj"/><linearGradient id="bj"><stop stop-color="#fff" offset="0"/><stop stop-color="#fff" stop-opacity=".78723" offset=".76683"/><stop stop-color="#fff" stop-opacity="0" offset="1"/></linearGradient><filter id="bs" x="-.046913" y="-.66013" width="1.0938" height="2.3203" color-interpolation-filters="sRGB"><feGaussianBlur stdDeviation="3.85075"/></filter><filter id="br" x="-.10925" y="-1.5373" width="1.2185" height="4.0746"><feGaussianBlur stdDeviation="8.9675"/></filter><radialGradient id="aq" cx="147.79" cy="115.45" r="91.924" gradientTransform="matrix(.99388 -.11043 .0076923 .069231 .015855 123.77)" gradientUnits="userSpaceOnUse" xlink:href="#c"/><filter id="bl" x="-.011575" y="-.7524" width="1.0232" height="2.5048"><feGaussianBlur stdDeviation="0.8867119"/></filter><radialGradient id="ap" cx="147.79" cy="115.45" r="91.924" gradientTransform="matrix(.83234 -.034891 .048592 .19165 15.1 27.362)" gradientUnits="userSpaceOnUse" xlink:href="#c"/></defs><g transform="translate(-20,-36)"><g><g transform="translate(-39.571 -461.36)"><g transform="translate(43.889 477.62)" enable-background="new"><path transform="matrix(.99991 0 0 .94844 -4.9767 -.97678)" d="m82.253 62.282h133.49c2.8444 0 4.151 2.2513 5.1344 4.6886l35.941 194.52c0.98334 2.4374-2.2899 4.6886-5.1344 4.6886h-205.37c-2.8444 0-6.1177-2.2513-5.1344-4.6886l35.941-194.52c0.98334-2.4374 2.2899-4.6886 5.1344-4.6886z" enable-background="new" filter="url(#bp)" opacity=".89"/><path transform="matrix(1.0092 0 0 .94939 -5.3563 -1.1801)" d="m82.253 62.335h133.49c2.8444 0 4.151 2.2513 5.1344 4.6886l35.941 194.41c0.98334 2.4374-2.2899 4.6886-5.1344 4.6886h-205.37c-2.8444 0-6.1177-2.2513-5.1344-4.6886l35.941-194.41c0.98334-2.4374 2.2899-4.6886 5.1344-4.6886z" enable-background="new" filter="url(#bq)" opacity=".55"/><path d="m43.415 92.737h200.82c4.0704 0 7.3473 1.7937 7.3473 4.0218v149.05c0 2.2281-3.2769 4.0218-7.3473 4.0218h-200.82c-4.0704 0-7.3473-1.7937-7.3473-4.0218v-149.05c0-2.2281 3.2769-4.0218 7.3473-4.0218z" enable-background="new" fill="url(#bh)"/><path transform="matrix(.95934 0 0 1.0094 2.0089 -13.985)" d="m49.548 107.26h196.56c3.984 0 7.1914 1.6287 7.1914 3.6518v145.26c0 2.0231-3.2073 3.6518-7.1914 3.6518h-196.56c-3.984 0-7.1913-1.6287-7.1913-3.6518v-145.26c0-2.0231 3.2073-3.6518 7.1913-3.6518z" enable-background="new" fill="url(#bg)" filter="url(#bm)" opacity=".9"/><path d="m251.66 96c0 2.216-2.1951 4-4.9218 4h-205.53c-2.7267 0-4.9218-1.784-4.9218-4z" enable-background="new" fill="url(#aw)"/><path d="m68.171 42.134c-0.94078 0-1.3644 0.27449-1.9033 0.85679-0.53884 0.58231-1.0562 1.5408-1.5226 2.6973l-28.406 50.154c-0.0745 0.18471-0.06537 0.24186 0 0.41253 0.06537 0.17066 0.23306 0.4503 0.57097 0.72986 0.67582 0.55911 1.9141 1.0154 2.8549 1.0154h208.47c0.94078 0 2.1791-0.45633 2.8549-1.0154 0.3379-0.27956 0.5056-0.5592 0.57097-0.72986 0.0654-0.17067 0.0745-0.22782 0-0.41253l-28.406-50.154c-0.46638-1.1565-0.98376-2.115-1.5226-2.6973-0.53884-0.5823-0.96246-0.85679-1.9033-0.85679z" enable-background="new" fill="url(#av)"/><path transform="matrix(1.0092 0 0 1.0102 -5.3563 -14.211)" d="m73.868 55.464c-2.8181 0-4.1033 2.2326-5.0776 4.6509l-27.605 48.583c-0.15207 0.37748-0.22154 0.75553-0.18576 1.1162-0.0053 0.0624 0 0.12294 0 0.18604v147.57c0 2.2005 3.2649 3.9688 7.3067 3.9688h199.39c4.0418 0 7.3067-1.7682 7.3067-3.9688v-147.57c0-0.0631 5e-3 -0.12367 0-0.18604 0.0358-0.36068-0.0337-0.73873-0.18577-1.1162l-27.605-48.583c-0.97423-2.4183-2.2594-4.6509-5.0776-4.6509z" clip-path="url(#bu)" enable-background="new" fill="none" filter="url(#bt)" stroke="url(#bf)" stroke-width="2.9712"/><path transform="matrix(1.0092 0 0 1.0924 -4.3471 -28.687)" d="m43.062 113.17c0.65788 0 1.1875 1.002 1.1875 2.2466v135.36c0 1.2446-0.52962 2.2466-1.1875 2.2466s-1.1875-1.002-1.1875-2.2466v-135.36c0-1.2446 0.52962-2.2466 1.1875-2.2466z" enable-background="new" fill="url(#au)" filter="url(#bn)" opacity=".85"/><path transform="matrix(1.0092 0 0 1.0094 -5.3563 -13.985)" d="m252.03 109.19c0.65787 0 1.1875 1.002 1.1875 2.2466v144.39c0 1.2446-0.52963 2.2466-1.1875 2.2466-0.65788 0-1.1875-1.002-1.1875-2.2466v-144.39c0-1.2446 0.52962-2.2466 1.1875-2.2466z" enable-background="new" fill="url(#at)" filter="url(#bo)" opacity=".55"/><path d="m79.664 44.019h132.96c1.2566 0 2.2683 0.28136 2.2683 0.63086v0.04062c0 0.3495-1.0117 0.63086-2.2683 0.63086h-132.96c-1.2566 0-2.2683-0.28136-2.2683-0.63086v-0.04062c0-0.3495 1.0117-0.63086 2.2683-0.63086z" enable-background="accumulate" fill="url(#as)"/><path transform="matrix(1.0092 0 0 1.0094 -5.3563 -13.985)" d="m45 108.15 27-48.686" enable-background="new" fill="none" filter="url(#an)" opacity=".67568" stroke="url(#ar)" stroke-linecap="round" stroke-width="1.9816"/><path transform="matrix(-1.0092 0 0 1.0094 293.86 -13.985)" d="m45 108.15 27.75-48.686" enable-background="new" fill="none" filter="url(#an)" opacity=".40541" stroke="url(#ao)" stroke-linecap="round" stroke-width="1.9816"/><rect transform="matrix(1 0 0 2.6938 -4.3172 -211.8)" x="55.861" y="114.03" width="183.85" height="2.8284" color="#000000" enable-background="accumulate" fill="url(#aq)" filter="url(#bl)"/><rect x="66.794" y="43.853" width="153.85" height=".95501" color="#000000" enable-background="accumulate" fill="url(#ap)"/></g><g transform="matrix(.93539 0 0 .93539 -695.1 477.6)" enable-background="new"><g transform="matrix(1.0051 0 0 2.2179 794.1 301.92)" enable-background="new"><path transform="matrix(1.0103 0 0 1 -.53637 -267)" d="m54.875 187.75h186.38c0.76175 0 1.375 0.61325 1.375 1.375v5.25c0 0.76175-0.61325 1.375-1.375 1.375h-186.38c-0.76175 0-1.375-0.61325-1.375-1.375v-5.25c0-0.76175 0.61325-1.375 1.375-1.375z" enable-background="new" fill="url(#ak)" filter="url(#al)" opacity=".75243"/><path d="m55.41-78c-0.49472 0-0.88403 0.52745-0.88403 1.1977v3.251 0.08555 3.251c0 0.67027 0.3893 1.1977 0.88403 1.1977h187.16c0.49472 0 0.88403-0.52745 0.88403-1.1977v-3.251-0.08555-3.251c0-0.67028-0.38931-1.1977-0.88403-1.1977z" enable-background="accumulate" fill="url(#aj)"/><path transform="matrix(1.0103 0 0 1 -.53637 -264)" d="m52 193.75v2c0 1.2446 1.5081 2.25 3.375 2.25h185.25c1.8669 0 3.375-1.0054 3.375-2.25v-2c0 1.2446-1.5081 2.25-3.375 2.25h-185.25c-1.8669 0-3.375-1.0054-3.375-2.25z" enable-background="new" fill="url(#ag)" filter="url(#am)" opacity=".95946"/><path d="m55.41-78c-0.49472 0-0.88403 0.52745-0.88403 1.1977v3.251 0.08555 3.251c0 0.67027 0.3893 1.1977 0.88403 1.1977h187.16c0.49472 0 0.88403-0.52745 0.88403-1.1977v-3.251-0.08555-3.251c0-0.67028-0.38931-1.1977-0.88403-1.1977z" enable-background="accumulate" fill="url(#ai)"/></g><g transform="matrix(1.0153 0 0 2.2179 792.58 365.39)" enable-background="new"><path transform="matrix(1.0103 0 0 1 -.53637 -267)" d="m54.875 187.75h186.38c0.76175 0 1.375 0.61325 1.375 1.375v5.25c0 0.76175-0.61325 1.375-1.375 1.375h-186.38c-0.76175 0-1.375-0.61325-1.375-1.375v-5.25c0-0.76175 0.61325-1.375 1.375-1.375z" enable-background="new" fill="url(#ak)" filter="url(#al)" opacity=".75243"/><path d="m55.41-78c-0.49472 0-0.88403 0.52745-0.88403 1.1977v3.251 0.08555 3.251c0 0.67027 0.3893 1.1977 0.88403 1.1977h187.16c0.49472 0 0.88403-0.52745 0.88403-1.1977v-3.251-0.08555-3.251c0-0.67028-0.38931-1.1977-0.88403-1.1977z" enable-background="accumulate" fill="url(#aj)"/><path transform="matrix(1.0103 0 0 1 -.53637 -264)" d="m52 193.75v2c0 1.2446 1.5081 2.25 3.375 2.25h185.25c1.8669 0 3.375-1.0054 3.375-2.25v-2c0 1.2446-1.5081 2.25-3.375 2.25h-185.25c-1.8669 0-3.375-1.0054-3.375-2.25z" enable-background="new" fill="url(#ag)" filter="url(#am)" opacity=".95946"/><path d="m55.41-78c-0.49472 0-0.88403 0.52745-0.88403 1.1977v3.251 0.08555 3.251c0 0.67027 0.3893 1.1977 0.88403 1.1977h187.16c0.49472 0 0.88403-0.52745 0.88403-1.1977v-3.251-0.08555-3.251c0-0.67028-0.38931-1.1977-0.88403-1.1977z" enable-background="accumulate" fill="url(#ai)"/></g><rect transform="matrix(.97023 0 0 1 28.106 0)" x="845.68" y="239.74" width="197" height="14" rx="7.7131" ry="7.4835" color="#000000" enable-background="accumulate" filter="url(#bs)"/><rect transform="matrix(.95546 0 0 .843 42.051 46.217)" x="845.68" y="239.74" width="197" height="14" rx="7.8324" ry="8.8773" color="#000000" enable-background="accumulate" filter="url(#br)" opacity=".587"/><g transform="matrix(.92188 0 0 .92188 815.67 26.112)" clip-path="url(#ae)" enable-background="new"><path d="m33.006 214.85 3.8966-1.7236 191.67 0.15563 17.645 0.79007v25.992c0 2.8027-3.0935 4.5899-8.1126 4.5899h-196.63c-5.0885 0-8.4692-2.7902-8.4692-6.8186z" fill="url(#x)" fill-rule="evenodd"/><g transform="translate(0 18.529)" fill-rule="evenodd"><rect x="61.37" y="195.92" width="89.822" height="28.348" fill="url(#w)"/><path d="m61.37 224.26v-20.444c9.3544 16.202 42.281 20.444 65.933 20.444h-65.933z" fill="url(#v)" opacity=".81143"/><path d="m61.456 195.98v28.189h64.022l-62.27-1.7518z" fill="#fff" opacity=".44"/></g><g transform="translate(-5,37)"><path transform="matrix(.99063 0 0 .94216 1.3556 9.0097)" d="m39.41 178.14c-3.6402 7.4624-0.0031 12.195 5.2783 12.195h198.75c5.703-0.12134 9.4039-5.157 7.2804-10.921l-34.218-87.711c-0.94038-2.6088-3.3368-5.0356-5.8243-5.0963h-131.78c-3.1852 0-5.2783 1.5471-6.5524 4.3682l-32.944 87.165z" enable-background="new" fill-rule="evenodd" filter="url(#z)" opacity=".36879"/><path d="m39.41 173.14c-3.6402 7.4624-0.0031 12.195 5.2783 12.195h198.75c5.703-0.12134 9.4039-5.157 7.2804-10.921l-34.218-87.711c-0.94038-2.6088-3.3368-5.0356-5.8243-5.0963h-131.78c-3.1852 0-5.2783 1.5471-6.5524 4.3682l-32.944 87.165z" fill="url(#s)" fill-rule="evenodd"/><path transform="matrix(1 0 0 .98471 0 -.67872)" d="m208.2 91.709c0.04 0.11084-0.0875 0.27573 0.16016 0.42383-0.0267-0.06901-0.13346-0.35156-0.16016-0.42383zm-128.11 0.70508c-10.812 28.609-32.516 86.016-32.557 86.109h194.54l-33.602-86.109z" enable-background="new" fill="url(#u)" fill-rule="evenodd" filter="url(#aa)" opacity=".70567"/><path d="m249.62 167.68c0.32373 6.3702-2.1099 11.802-6.7379 11.944 0 0-194.26-1e-5 -194.26 0-6.5703 0-9.5185-1.656-10.621-4.4239 0.46764 4.8126 4.2086 8.4053 10.621 8.4053 0-1e-5 194.26 0 194.26 0 5.4836-0.16854 8.9328-7.2572 6.891-15.262z" fill="url(#r)" fill-rule="evenodd"/><path d="m212.23 117.52c-0.22563-2.124-10.978-28.045-10.978-28.045-0.22024-2.0887-3.574-3.6651-7.8034-3.6651h-26.542c-4.2598 0-7.5527 1.5971-7.6601 3.7149-0.48704 9.5683-15.239 14.085-37.491 18.109-85.67 15.492-48.627 64.456 22.993 66.391 52.11 1.4208 105.28-24.644 67.482-56.504zm-66.732 51.542c-73.274-1.935-95.436-47.334-22.23-60.716 21.131-3.863 38.419-7.8992 39.022-19.682 0.0286-0.56419 1.3641-1.5112 2.8664-1.5112l29.663-0.125c1.5363 0 3.8327 1.0938 3.8936 1.6725l8.7231 28.191c42.29 33.71-23.838 53.177-61.939 52.171z" fill="url(#q)" filter="url(#ad)"/><path d="m149.25 143.37c-12.63 0-22.312-4.3904-22.516-10.214-2e-3 -0.063-3e-3 -0.12485-3e-3 -0.18673 0-2.1073 1.269-4.1114 3.6804-5.8083 4.0792-2.8683 11.122-4.5804 18.841-4.5804 7.7169 0 14.76 1.7121 18.839 4.5804 2.4826 1.7446 3.7548 3.8183 3.6773 5.9939-0.20728 5.8235-9.8894 10.215-22.518 10.215zm0-17.531c-11.867 0-17.913 4.3513-17.771 8.3237 0.13766 3.9105 8.0935 7.0351 17.771 7.0351s17.633-3.1256 17.771-7.0351c0.14083-3.9735-5.9036-8.3237-17.771-8.3237z" enable-background="accumulate" fill="url(#p)" filter="url(#ac)"/><g transform="matrix(.6722 0 0 .44227 13.827 90.3)"><path d="m48.3 190.28c0.31446 4.2476 5.0238 7.7116 10.514 7.7116 5.4879 0 9.6432-3.464 9.2763-7.7116-0.36437-4.2251-5.0712-7.6367-10.507-7.6367-5.438 2e-3 -9.5933 3.4116-9.2838 7.6367z" fill="url(#b)"/><path d="m51.851 187.29c-0.50163 0.53906-1.0756 1.4026-1.0756 2.5506 0 0.0824 5e-3 0.16471 0.01 0.25206 0.21713 2.9274 3.8932 5.4006 8.026 5.4006 2.3534 0 4.5046-0.81109 5.7525-2.1737 0.53656-0.58149 1.148-1.5448 1.0382-2.8276-0.25206-2.9024-3.9232-5.3557-8.021-5.3557-2.3359 2e-3 -4.4797 0.8061-5.73 2.1538z" fill="url(#a)"/></g><g transform="matrix(.6722 0 0 .44227 197.83 90.3)"><path d="m48.3 190.28c0.31446 4.2476 5.0238 7.7116 10.514 7.7116 5.4879 0 9.6432-3.464 9.2763-7.7116-0.36437-4.2251-5.0712-7.6367-10.507-7.6367-5.438 2e-3 -9.5933 3.4116-9.2838 7.6367z" fill="url(#b)"/><path d="m51.851 187.29c-0.50163 0.53906-1.0756 1.4026-1.0756 2.5506 0 0.0824 5e-3 0.16471 0.01 0.25206 0.21713 2.9274 3.8932 5.4006 8.026 5.4006 2.3534 0 4.5046-0.81109 5.7525-2.1737 0.53656-0.58149 1.148-1.5448 1.0382-2.8276-0.25206-2.9024-3.9232-5.3557-8.021-5.3557-2.3359 2e-3 -4.4797 0.8061-5.73 2.1538z" fill="url(#a)"/></g><g transform="matrix(.461 0 0 .30331 55.025 28.746)"><path d="m48.3 190.28c0.31446 4.2476 5.0238 7.7116 10.514 7.7116 5.4879 0 9.6432-3.464 9.2763-7.7116-0.36437-4.2251-5.0712-7.6367-10.507-7.6367-5.438 2e-3 -9.5933 3.4116-9.2838 7.6367z" fill="url(#b)"/><path d="m51.851 187.29c-0.50163 0.53906-1.0756 1.4026-1.0756 2.5506 0 0.0824 5e-3 0.16471 0.01 0.25206 0.21713 2.9274 3.8932 5.4006 8.026 5.4006 2.3534 0 4.5046-0.81109 5.7525-2.1737 0.53656-0.58149 1.148-1.5448 1.0382-2.8276-0.25206-2.9024-3.9232-5.3557-8.021-5.3557-2.3359 2e-3 -4.4797 0.8061-5.73 2.1538z" fill="url(#a)"/></g><g transform="matrix(.461 0 0 .30331 181.21 28.746)"><path d="m48.3 190.28c0.31446 4.2476 5.0238 7.7116 10.514 7.7116 5.4879 0 9.6432-3.464 9.2763-7.7116-0.36437-4.2251-5.0712-7.6367-10.507-7.6367-5.438 2e-3 -9.5933 3.4116-9.2838 7.6367z" fill="url(#b)"/><path d="m51.851 187.29c-0.50163 0.53906-1.0756 1.4026-1.0756 2.5506 0 0.0824 5e-3 0.16471 0.01 0.25206 0.21713 2.9274 3.8932 5.4006 8.026 5.4006 2.3534 0 4.5046-0.81109 5.7525-2.1737 0.53656-0.58149 1.148-1.5448 1.0382-2.8276-0.25206-2.9024-3.9232-5.3557-8.021-5.3557-2.3359 2e-3 -4.4797 0.8061-5.73 2.1538z" fill="url(#a)"/></g><path d="m214 91 32 80" enable-background="accumulate" fill="none" opacity=".89604" stroke="url(#o)" stroke-width="1.1597"/><path d="m74.5 91-32 80" enable-background="accumulate" fill="none" opacity=".89604" stroke="url(#n)" stroke-width="1.1597"/><path d="m86.594 86.5-0.46875 1.3438-7 20-1.1875 3.3438 3.4688-0.71875 59-12.5 0.1875-0.0625 0.15625-0.0625c3.1243-1.2497 4.7938-3.7752 5.1875-6.0938 0.19685-1.1593 0.13817-2.2944-0.375-3.3438-0.48445-0.99059-1.7448-1.8719-3.0625-1.8438v-0.0625h-0.21875-54.281zm1.997 1.2357h54.377c0.0268 0.16888 0.0866 0.26256 0.0323 0.58192-0.1707 1.0052-0.90438 4.6014-2.7479 5.3859l-57.19 12.123z" enable-background="accumulate" fill="url(#m)" filter="url(#ab)"/></g><path transform="matrix(-1,0,0,1,327,26)" d="m161.5 187-9.5 31h56l14-31z" enable-background="accumulate" fill="url(#e)" filter="url(#f)" opacity=".67822"/><path transform="translate(-3,-137)" d="m76.838 255.65c-3.1852 0-5.2555 1.4788-6.5296 4.3-5e-6 0-32.967 87.165-32.967 87.165s-1.2741 3.4224-1.2741 9.0778v17.179c0 5.5173 3.3523 8.2815 8.4407 8.2815h196.53c5.0191 0 8.1222-3.66 8.1222-9.3963v-17.179s0.54002-3.9263-0.47778-6.6889l-34.241-87.642c-0.94039-2.6088-3.2458-5.0356-5.7333-5.0963z" clip-path="url(#af)" fill="none" filter="url(#y)" stroke="url(#t)" stroke-linecap="round" stroke-linejoin="round" stroke-width="2.3193"/><path d="m37.5 213.25-0.5 28.25 3.125 1.75v-30z" enable-background="accumulate" fill="url(#l)" filter="url(#g)" opacity=".34752"/><path transform="matrix(-.68 0 0 1 272.18 26)" d="m42.5 187.25-0.5 28.25 3.125 1.75v-30z" enable-background="accumulate" fill="url(#k)" filter="url(#g)" opacity=".21631"/><path d="m68.25 229.5c5.9045 6.3325 14.446 10.487 28 10.5-12.798-2.3453-22.202-5.8214-28-10.5z" enable-background="accumulate" fill="url(#j)" opacity=".55446"/><path transform="matrix(-.77143 0 0 1 358.26 26)" d="m161.5 187-9.5 31h56l14-31z" enable-background="accumulate" fill="url(#e)" filter="url(#f)" opacity=".26241"/><path d="m244.62 232.68c0.32373 4.3703-2.1099 8.0968-6.7379 8.1944 0 0-194.26-1e-5 -194.26 0-6.5703 0-9.5185-1.1361-10.621-3.035 0.46764 3.3016 4.2086 5.7664 10.621 5.7664 0-1e-5 194.26 0 194.26 0 5.4836-0.11563 8.9328-4.9788 6.891-10.471z" fill="url(#i)" fill-rule="evenodd" opacity=".25532"/><ellipse transform="matrix(1 0 0 1.5385 -10.5 -86.423)" cx="109.5" cy="186.5" rx="12.5" ry="6.5" fill="url(#d)"/><ellipse transform="matrix(.76 0 0 1.1692 23.78 -79.062)" cx="109.5" cy="186.5" rx="12.5" ry="6.5" enable-background="new" fill="url(#d)" opacity=".60284"/><ellipse transform="matrix(.76 0 0 1.1692 90.78 -13.562)" cx="109.5" cy="186.5" rx="12.5" ry="6.5" enable-background="new" fill="url(#d)" opacity=".60284"/><path d="m36.75 217h203.75" fill="none" stroke="url(#h)" stroke-width="1.1597px"/></g><g transform="matrix(.92188 0 0 .92188 815.67 -.88799)" clip-path="url(#ae)" enable-background="new"><path d="m33.006 214.85 3.8966-1.7236 191.67 0.15563 17.645 0.79007v25.992c0 2.8027-3.0935 4.5899-8.1126 4.5899h-196.63c-5.0885 0-8.4692-2.7902-8.4692-6.8186z" fill="url(#x)" fill-rule="evenodd"/><g transform="translate(0 18.529)" fill-rule="evenodd"><rect x="61.37" y="195.92" width="89.822" height="28.348" fill="url(#w)"/><path d="m61.37 224.26v-20.444c9.3544 16.202 42.281 20.444 65.933 20.444h-65.933z" fill="url(#v)" opacity=".81143"/><path d="m61.456 195.98v28.189h64.022l-62.27-1.7518z" fill="#fff" opacity=".44"/></g><g transform="translate(-5,37)"><path transform="matrix(.99063 0 0 .94216 1.3556 9.0097)" d="m39.41 178.14c-3.6402 7.4624-0.0031 12.195 5.2783 12.195h198.75c5.703-0.12134 9.4039-5.157 7.2804-10.921l-34.218-87.711c-0.94038-2.6088-3.3368-5.0356-5.8243-5.0963h-131.78c-3.1852 0-5.2783 1.5471-6.5524 4.3682l-32.944 87.165z" enable-background="new" fill-rule="evenodd" filter="url(#z)" opacity=".36879"/><path d="m39.41 173.14c-3.6402 7.4624-0.0031 12.195 5.2783 12.195h198.75c5.703-0.12134 9.4039-5.157 7.2804-10.921l-34.218-87.711c-0.94038-2.6088-3.3368-5.0356-5.8243-5.0963h-131.78c-3.1852 0-5.2783 1.5471-6.5524 4.3682l-32.944 87.165z" fill="url(#s)" fill-rule="evenodd"/><path transform="matrix(1 0 0 .98471 0 -.67872)" d="m208.2 91.709c0.04 0.11084-0.0875 0.27573 0.16016 0.42383-0.0267-0.06901-0.13346-0.35156-0.16016-0.42383zm-128.11 0.70508c-10.812 28.609-32.516 86.016-32.557 86.109h194.54l-33.602-86.109z" enable-background="new" fill="url(#u)" fill-rule="evenodd" filter="url(#aa)" opacity=".70567"/><path d="m249.62 167.68c0.32373 6.3702-2.1099 11.802-6.7379 11.944 0 0-194.26-1e-5 -194.26 0-6.5703 0-9.5185-1.656-10.621-4.4239 0.46764 4.8126 4.2086 8.4053 10.621 8.4053 0-1e-5 194.26 0 194.26 0 5.4836-0.16854 8.9328-7.2572 6.891-15.262z" fill="url(#r)" fill-rule="evenodd"/><path d="m212.23 117.52c-0.22563-2.124-10.978-28.045-10.978-28.045-0.22024-2.0887-3.574-3.6651-7.8034-3.6651h-26.542c-4.2598 0-7.5527 1.5971-7.6601 3.7149-0.48704 9.5683-15.239 14.085-37.491 18.109-85.67 15.492-48.627 64.456 22.993 66.391 52.11 1.4208 105.28-24.644 67.482-56.504zm-66.732 51.542c-73.274-1.935-95.436-47.334-22.23-60.716 21.131-3.863 38.419-7.8992 39.022-19.682 0.0286-0.56419 1.3641-1.5112 2.8664-1.5112l29.663-0.125c1.5363 0 3.8327 1.0938 3.8936 1.6725l8.7231 28.191c42.29 33.71-23.838 53.177-61.939 52.171z" fill="url(#q)" filter="url(#ad)"/><path d="m149.25 143.37c-12.63 0-22.312-4.3904-22.516-10.214-2e-3 -0.063-3e-3 -0.12485-3e-3 -0.18673 0-2.1073 1.269-4.1114 3.6804-5.8083 4.0792-2.8683 11.122-4.5804 18.841-4.5804 7.7169 0 14.76 1.7121 18.839 4.5804 2.4826 1.7446 3.7548 3.8183 3.6773 5.9939-0.20728 5.8235-9.8894 10.215-22.518 10.215zm0-17.531c-11.867 0-17.913 4.3513-17.771 8.3237 0.13766 3.9105 8.0935 7.0351 17.771 7.0351s17.633-3.1256 17.771-7.0351c0.14083-3.9735-5.9036-8.3237-17.771-8.3237z" enable-background="accumulate" fill="url(#p)" filter="url(#ac)"/><g transform="matrix(.6722 0 0 .44227 13.827 90.3)"><path d="m48.3 190.28c0.31446 4.2476 5.0238 7.7116 10.514 7.7116 5.4879 0 9.6432-3.464 9.2763-7.7116-0.36437-4.2251-5.0712-7.6367-10.507-7.6367-5.438 2e-3 -9.5933 3.4116-9.2838 7.6367z" fill="url(#b)"/><path d="m51.851 187.29c-0.50163 0.53906-1.0756 1.4026-1.0756 2.5506 0 0.0824 5e-3 0.16471 0.01 0.25206 0.21713 2.9274 3.8932 5.4006 8.026 5.4006 2.3534 0 4.5046-0.81109 5.7525-2.1737 0.53656-0.58149 1.148-1.5448 1.0382-2.8276-0.25206-2.9024-3.9232-5.3557-8.021-5.3557-2.3359 2e-3 -4.4797 0.8061-5.73 2.1538z" fill="url(#a)"/></g><g transform="matrix(.6722 0 0 .44227 197.83 90.3)"><path d="m48.3 190.28c0.31446 4.2476 5.0238 7.7116 10.514 7.7116 5.4879 0 9.6432-3.464 9.2763-7.7116-0.36437-4.2251-5.0712-7.6367-10.507-7.6367-5.438 2e-3 -9.5933 3.4116-9.2838 7.6367z" fill="url(#b)"/><path d="m51.851 187.29c-0.50163 0.53906-1.0756 1.4026-1.0756 2.5506 0 0.0824 5e-3 0.16471 0.01 0.25206 0.21713 2.9274 3.8932 5.4006 8.026 5.4006 2.3534 0 4.5046-0.81109 5.7525-2.1737 0.53656-0.58149 1.148-1.5448 1.0382-2.8276-0.25206-2.9024-3.9232-5.3557-8.021-5.3557-2.3359 2e-3 -4.4797 0.8061-5.73 2.1538z" fill="url(#a)"/></g><g transform="matrix(.461 0 0 .30331 55.025 28.746)"><path d="m48.3 190.28c0.31446 4.2476 5.0238 7.7116 10.514 7.7116 5.4879 0 9.6432-3.464 9.2763-7.7116-0.36437-4.2251-5.0712-7.6367-10.507-7.6367-5.438 2e-3 -9.5933 3.4116-9.2838 7.6367z" fill="url(#b)"/><path d="m51.851 187.29c-0.50163 0.53906-1.0756 1.4026-1.0756 2.5506 0 0.0824 5e-3 0.16471 0.01 0.25206 0.21713 2.9274 3.8932 5.4006 8.026 5.4006 2.3534 0 4.5046-0.81109 5.7525-2.1737 0.53656-0.58149 1.148-1.5448 1.0382-2.8276-0.25206-2.9024-3.9232-5.3557-8.021-5.3557-2.3359 2e-3 -4.4797 0.8061-5.73 2.1538z" fill="url(#a)"/></g><g transform="matrix(.461 0 0 .30331 181.21 28.746)"><path d="m48.3 190.28c0.31446 4.2476 5.0238 7.7116 10.514 7.7116 5.4879 0 9.6432-3.464 9.2763-7.7116-0.36437-4.2251-5.0712-7.6367-10.507-7.6367-5.438 2e-3 -9.5933 3.4116-9.2838 7.6367z" fill="url(#b)"/><path d="m51.851 187.29c-0.50163 0.53906-1.0756 1.4026-1.0756 2.5506 0 0.0824 5e-3 0.16471 0.01 0.25206 0.21713 2.9274 3.8932 5.4006 8.026 5.4006 2.3534 0 4.5046-0.81109 5.7525-2.1737 0.53656-0.58149 1.148-1.5448 1.0382-2.8276-0.25206-2.9024-3.9232-5.3557-8.021-5.3557-2.3359 2e-3 -4.4797 0.8061-5.73 2.1538z" fill="url(#a)"/></g><path d="m214 91 32 80" enable-background="accumulate" fill="none" opacity=".89604" stroke="url(#o)" stroke-width="1.1597"/><path d="m74.5 91-32 80" enable-background="accumulate" fill="none" opacity=".89604" stroke="url(#n)" stroke-width="1.1597"/><path d="m86.594 86.5-0.46875 1.3438-7 20-1.1875 3.3438 3.4688-0.71875 59-12.5 0.1875-0.0625 0.15625-0.0625c3.1243-1.2497 4.7938-3.7752 5.1875-6.0938 0.19685-1.1593 0.13817-2.2944-0.375-3.3438-0.48445-0.99059-1.7448-1.8719-3.0625-1.8438v-0.0625h-0.21875-54.281zm1.997 1.2357h54.377c0.0268 0.16888 0.0866 0.26256 0.0323 0.58192-0.1707 1.0052-0.90438 4.6014-2.7479 5.3859l-57.19 12.123z" enable-background="accumulate" fill="url(#m)" filter="url(#ab)"/></g><path transform="matrix(-1,0,0,1,327,26)" d="m161.5 187-9.5 31h56l14-31z" enable-background="accumulate" fill="url(#e)" filter="url(#f)" opacity=".67822"/><path transform="translate(-3,-137)" d="m76.838 255.65c-3.1852 0-5.2555 1.4788-6.5296 4.3-5e-6 0-32.967 87.165-32.967 87.165s-1.2741 3.4224-1.2741 9.0778v17.179c0 5.5173 3.3523 8.2815 8.4407 8.2815h196.53c5.0191 0 8.1222-3.66 8.1222-9.3963v-17.179s0.54002-3.9263-0.47778-6.6889l-34.241-87.642c-0.94039-2.6088-3.2458-5.0356-5.7333-5.0963z" clip-path="url(#af)" fill="none" filter="url(#y)" stroke="url(#t)" stroke-linecap="round" stroke-linejoin="round" stroke-width="2.3193"/><path d="m37.5 213.25-0.5 28.25 3.125 1.75v-30z" enable-background="accumulate" fill="url(#l)" filter="url(#g)" opacity=".34752"/><path transform="matrix(-.68 0 0 1 272.18 26)" d="m42.5 187.25-0.5 28.25 3.125 1.75v-30z" enable-background="accumulate" fill="url(#k)" filter="url(#g)" opacity=".21631"/><path d="m68.25 229.5c5.9045 6.3325 14.446 10.487 28 10.5-12.798-2.3453-22.202-5.8214-28-10.5z" enable-background="accumulate" fill="url(#j)" opacity=".55446"/><path transform="matrix(-.77143 0 0 1 358.26 26)" d="m161.5 187-9.5 31h56l14-31z" enable-background="accumulate" fill="url(#e)" filter="url(#f)" opacity=".26241"/><path d="m244.62 232.68c0.32373 4.3703-2.1099 8.0968-6.7379 8.1944 0 0-194.26-1e-5 -194.26 0-6.5703 0-9.5185-1.1361-10.621-3.035 0.46764 3.3016 4.2086 5.7664 10.621 5.7664 0-1e-5 194.26 0 194.26 0 5.4836-0.11563 8.9328-4.9788 6.891-10.471z" fill="url(#i)" fill-rule="evenodd" opacity=".25532"/><ellipse transform="matrix(1 0 0 1.5385 -10.5 -86.423)" cx="109.5" cy="186.5" rx="12.5" ry="6.5" fill="url(#d)"/><ellipse transform="matrix(.76 0 0 1.1692 23.78 -79.062)" cx="109.5" cy="186.5" rx="12.5" ry="6.5" enable-background="new" fill="url(#d)" opacity=".60284"/><ellipse transform="matrix(.76 0 0 1.1692 90.78 -13.562)" cx="109.5" cy="186.5" rx="12.5" ry="6.5" enable-background="new" fill="url(#d)" opacity=".60284"/><path d="m36.75 217h203.75" fill="none" stroke="url(#h)" stroke-width="1.1597px"/></g><g transform="matrix(1.0153 0 0 2.2179 792.58 333.66)" enable-background="new"><path transform="matrix(1.0103 0 0 1 -.53637 -267)" d="m54.875 187.75h186.38c0.76175 0 1.375 0.61325 1.375 1.375v5.25c0 0.76175-0.61325 1.375-1.375 1.375h-186.38c-0.76175 0-1.375-0.61325-1.375-1.375v-5.25c0-0.76175 0.61325-1.375 1.375-1.375z" enable-background="new" fill="url(#ak)" filter="url(#al)" opacity=".75243"/><path d="m55.41-78c-0.49472 0-0.88403 0.52745-0.88403 1.1977v3.251 0.08555 3.251c0 0.67027 0.3893 1.1977 0.88403 1.1977h187.16c0.49472 0 0.88403-0.52745 0.88403-1.1977v-3.251-0.08555-3.251c0-0.67028-0.38931-1.1977-0.88403-1.1977z" enable-background="accumulate" fill="url(#aj)"/><path transform="matrix(1.0103 0 0 1 -.53637 -264)" d="m52 193.75v2c0 1.2446 1.5081 2.25 3.375 2.25h185.25c1.8669 0 3.375-1.0054 3.375-2.25v-2c0 1.2446-1.5081 2.25-3.375 2.25h-185.25c-1.8669 0-3.375-1.0054-3.375-2.25z" enable-background="new" fill="url(#ag)" filter="url(#am)" opacity=".95946"/><path d="m55.41-78c-0.49472 0-0.88403 0.52745-0.88403 1.1977v3.251 0.08555 3.251c0 0.67027 0.3893 1.1977 0.88403 1.1977h187.16c0.49472 0 0.88403-0.52745 0.88403-1.1977v-3.251-0.08555-3.251c0-0.67028-0.38931-1.1977-0.88403-1.1977z" enable-background="accumulate" fill="url(#ai)"/></g><g transform="matrix(.92188 0 0 .92188 815.67 -27.888)" clip-path="url(#ae)" enable-background="new"><path d="m33.006 214.85 3.8966-1.7236 191.67 0.15563 17.645 0.79007v25.992c0 2.8027-3.0935 4.5899-8.1126 4.5899h-196.63c-5.0885 0-8.4692-2.7902-8.4692-6.8186z" fill="url(#x)" fill-rule="evenodd"/><g transform="translate(0 18.529)" fill-rule="evenodd"><rect x="61.37" y="195.92" width="89.822" height="28.348" fill="url(#w)"/><path d="m61.37 224.26v-20.444c9.3544 16.202 42.281 20.444 65.933 20.444h-65.933z" fill="url(#v)" opacity=".81143"/><path d="m61.456 195.98v28.189h64.022l-62.27-1.7518z" fill="#fff" opacity=".44"/></g><g transform="translate(-5,37)"><path transform="matrix(.99063 0 0 .94216 1.3556 9.0097)" d="m39.41 178.14c-3.6402 7.4624-0.0031 12.195 5.2783 12.195h198.75c5.703-0.12134 9.4039-5.157 7.2804-10.921l-34.218-87.711c-0.94038-2.6088-3.3368-5.0356-5.8243-5.0963h-131.78c-3.1852 0-5.2783 1.5471-6.5524 4.3682l-32.944 87.165z" enable-background="new" fill-rule="evenodd" filter="url(#z)" opacity=".36879"/><path d="m39.41 173.14c-3.6402 7.4624-0.0031 12.195 5.2783 12.195h198.75c5.703-0.12134 9.4039-5.157 7.2804-10.921l-34.218-87.711c-0.94038-2.6088-3.3368-5.0356-5.8243-5.0963h-131.78c-3.1852 0-5.2783 1.5471-6.5524 4.3682l-32.944 87.165z" fill="url(#s)" fill-rule="evenodd"/><path transform="matrix(1 0 0 .98471 0 -.67872)" d="m208.2 91.709c0.04 0.11084-0.0875 0.27573 0.16016 0.42383-0.0267-0.06901-0.13346-0.35156-0.16016-0.42383zm-128.11 0.70508c-10.812 28.609-32.516 86.016-32.557 86.109h194.54l-33.602-86.109z" enable-background="new" fill="url(#u)" fill-rule="evenodd" filter="url(#aa)" opacity=".70567"/><path d="m249.62 167.68c0.32373 6.3702-2.1099 11.802-6.7379 11.944 0 0-194.26-1e-5 -194.26 0-6.5703 0-9.5185-1.656-10.621-4.4239 0.46764 4.8126 4.2086 8.4053 10.621 8.4053 0-1e-5 194.26 0 194.26 0 5.4836-0.16854 8.9328-7.2572 6.891-15.262z" fill="url(#r)" fill-rule="evenodd"/><path d="m212.23 117.52c-0.22563-2.124-10.978-28.045-10.978-28.045-0.22024-2.0887-3.574-3.6651-7.8034-3.6651h-26.542c-4.2598 0-7.5527 1.5971-7.6601 3.7149-0.48704 9.5683-15.239 14.085-37.491 18.109-85.67 15.492-48.627 64.456 22.993 66.391 52.11 1.4208 105.28-24.644 67.482-56.504zm-66.732 51.542c-73.274-1.935-95.436-47.334-22.23-60.716 21.131-3.863 38.419-7.8992 39.022-19.682 0.0286-0.56419 1.3641-1.5112 2.8664-1.5112l29.663-0.125c1.5363 0 3.8327 1.0938 3.8936 1.6725l8.7231 28.191c42.29 33.71-23.838 53.177-61.939 52.171z" fill="url(#q)" filter="url(#ad)"/><path d="m149.25 143.37c-12.63 0-22.312-4.3904-22.516-10.214-2e-3 -0.063-3e-3 -0.12485-3e-3 -0.18673 0-2.1073 1.269-4.1114 3.6804-5.8083 4.0792-2.8683 11.122-4.5804 18.841-4.5804 7.7169 0 14.76 1.7121 18.839 4.5804 2.4826 1.7446 3.7548 3.8183 3.6773 5.9939-0.20728 5.8235-9.8894 10.215-22.518 10.215zm0-17.531c-11.867 0-17.913 4.3513-17.771 8.3237 0.13766 3.9105 8.0935 7.0351 17.771 7.0351s17.633-3.1256 17.771-7.0351c0.14083-3.9735-5.9036-8.3237-17.771-8.3237z" enable-background="accumulate" fill="url(#p)" filter="url(#ac)"/><g transform="matrix(.6722 0 0 .44227 13.827 90.3)"><path d="m48.3 190.28c0.31446 4.2476 5.0238 7.7116 10.514 7.7116 5.4879 0 9.6432-3.464 9.2763-7.7116-0.36437-4.2251-5.0712-7.6367-10.507-7.6367-5.438 2e-3 -9.5933 3.4116-9.2838 7.6367z" fill="url(#b)"/><path d="m51.851 187.29c-0.50163 0.53906-1.0756 1.4026-1.0756 2.5506 0 0.0824 5e-3 0.16471 0.01 0.25206 0.21713 2.9274 3.8932 5.4006 8.026 5.4006 2.3534 0 4.5046-0.81109 5.7525-2.1737 0.53656-0.58149 1.148-1.5448 1.0382-2.8276-0.25206-2.9024-3.9232-5.3557-8.021-5.3557-2.3359 2e-3 -4.4797 0.8061-5.73 2.1538z" fill="url(#a)"/></g><g transform="matrix(.6722 0 0 .44227 197.83 90.3)"><path d="m48.3 190.28c0.31446 4.2476 5.0238 7.7116 10.514 7.7116 5.4879 0 9.6432-3.464 9.2763-7.7116-0.36437-4.2251-5.0712-7.6367-10.507-7.6367-5.438 2e-3 -9.5933 3.4116-9.2838 7.6367z" fill="url(#b)"/><path d="m51.851 187.29c-0.50163 0.53906-1.0756 1.4026-1.0756 2.5506 0 0.0824 5e-3 0.16471 0.01 0.25206 0.21713 2.9274 3.8932 5.4006 8.026 5.4006 2.3534 0 4.5046-0.81109 5.7525-2.1737 0.53656-0.58149 1.148-1.5448 1.0382-2.8276-0.25206-2.9024-3.9232-5.3557-8.021-5.3557-2.3359 2e-3 -4.4797 0.8061-5.73 2.1538z" fill="url(#a)"/></g><g transform="matrix(.461 0 0 .30331 55.025 28.746)"><path d="m48.3 190.28c0.31446 4.2476 5.0238 7.7116 10.514 7.7116 5.4879 0 9.6432-3.464 9.2763-7.7116-0.36437-4.2251-5.0712-7.6367-10.507-7.6367-5.438 2e-3 -9.5933 3.4116-9.2838 7.6367z" fill="url(#b)"/><path d="m51.851 187.29c-0.50163 0.53906-1.0756 1.4026-1.0756 2.5506 0 0.0824 5e-3 0.16471 0.01 0.25206 0.21713 2.9274 3.8932 5.4006 8.026 5.4006 2.3534 0 4.5046-0.81109 5.7525-2.1737 0.53656-0.58149 1.148-1.5448 1.0382-2.8276-0.25206-2.9024-3.9232-5.3557-8.021-5.3557-2.3359 2e-3 -4.4797 0.8061-5.73 2.1538z" fill="url(#a)"/></g><g transform="matrix(.461 0 0 .30331 181.21 28.746)"><path d="m48.3 190.28c0.31446 4.2476 5.0238 7.7116 10.514 7.7116 5.4879 0 9.6432-3.464 9.2763-7.7116-0.36437-4.2251-5.0712-7.6367-10.507-7.6367-5.438 2e-3 -9.5933 3.4116-9.2838 7.6367z" fill="url(#b)"/><path d="m51.851 187.29c-0.50163 0.53906-1.0756 1.4026-1.0756 2.5506 0 0.0824 5e-3 0.16471 0.01 0.25206 0.21713 2.9274 3.8932 5.4006 8.026 5.4006 2.3534 0 4.5046-0.81109 5.7525-2.1737 0.53656-0.58149 1.148-1.5448 1.0382-2.8276-0.25206-2.9024-3.9232-5.3557-8.021-5.3557-2.3359 2e-3 -4.4797 0.8061-5.73 2.1538z" fill="url(#a)"/></g><path d="m214 91 32 80" enable-background="accumulate" fill="none" opacity=".89604" stroke="url(#o)" stroke-width="1.1597"/><path d="m74.5 91-32 80" enable-background="accumulate" fill="none" opacity=".89604" stroke="url(#n)" stroke-width="1.1597"/><path d="m86.594 86.5-0.46875 1.3438-7 20-1.1875 3.3438 3.4688-0.71875 59-12.5 0.1875-0.0625 0.15625-0.0625c3.1243-1.2497 4.7938-3.7752 5.1875-6.0938 0.19685-1.1593 0.13817-2.2944-0.375-3.3438-0.48445-0.99059-1.7448-1.8719-3.0625-1.8438v-0.0625h-0.21875-54.281zm1.997 1.2357h54.377c0.0268 0.16888 0.0866 0.26256 0.0323 0.58192-0.1707 1.0052-0.90438 4.6014-2.7479 5.3859l-57.19 12.123z" enable-background="accumulate" fill="url(#m)" filter="url(#ab)"/></g><path transform="matrix(-1,0,0,1,327,26)" d="m161.5 187-9.5 31h56l14-31z" enable-background="accumulate" fill="url(#e)" filter="url(#f)" opacity=".67822"/><path transform="translate(-3,-137)" d="m76.838 255.65c-3.1852 0-5.2555 1.4788-6.5296 4.3-5e-6 0-32.967 87.165-32.967 87.165s-1.2741 3.4224-1.2741 9.0778v17.179c0 5.5173 3.3523 8.2815 8.4407 8.2815h196.53c5.0191 0 8.1222-3.66 8.1222-9.3963v-17.179s0.54002-3.9263-0.47778-6.6889l-34.241-87.642c-0.94039-2.6088-3.2458-5.0356-5.7333-5.0963z" clip-path="url(#af)" fill="none" filter="url(#y)" stroke="url(#t)" stroke-linecap="round" stroke-linejoin="round" stroke-width="2.3193"/><path d="m37.5 213.25-0.5 28.25 3.125 1.75v-30z" enable-background="accumulate" fill="url(#l)" filter="url(#g)" opacity=".34752"/><path transform="matrix(-.68 0 0 1 272.18 26)" d="m42.5 187.25-0.5 28.25 3.125 1.75v-30z" enable-background="accumulate" fill="url(#k)" filter="url(#g)" opacity=".21631"/><path d="m68.25 229.5c5.9045 6.3325 14.446 10.487 28 10.5-12.798-2.3453-22.202-5.8214-28-10.5z" enable-background="accumulate" fill="url(#j)" opacity=".55446"/><path transform="matrix(-.77143 0 0 1 358.26 26)" d="m161.5 187-9.5 31h56l14-31z" enable-background="accumulate" fill="url(#e)" filter="url(#f)" opacity=".26241"/><path d="m244.62 232.68c0.32373 4.3703-2.1099 8.0968-6.7379 8.1944 0 0-194.26-1e-5 -194.26 0-6.5703 0-9.5185-1.1361-10.621-3.035 0.46764 3.3016 4.2086 5.7664 10.621 5.7664 0-1e-5 194.26 0 194.26 0 5.4836-0.11563 8.9328-4.9788 6.891-10.471z" fill="url(#i)" fill-rule="evenodd" opacity=".25532"/><ellipse transform="matrix(1 0 0 1.5385 -10.5 -86.423)" cx="109.5" cy="186.5" rx="12.5" ry="6.5" fill="url(#d)"/><ellipse transform="matrix(.76 0 0 1.1692 23.78 -79.062)" cx="109.5" cy="186.5" rx="12.5" ry="6.5" enable-background="new" fill="url(#d)" opacity=".60284"/><ellipse transform="matrix(.76 0 0 1.1692 90.78 -13.562)" cx="109.5" cy="186.5" rx="12.5" ry="6.5" enable-background="new" fill="url(#d)" opacity=".60284"/><path d="m36.75 217h203.75" fill="none" stroke="url(#h)" stroke-width="1.1597px"/></g><g transform="matrix(.92188 0 0 .92188 815.67 -55.888)" clip-path="url(#ae)" enable-background="new"><path d="m33.006 214.85 3.8966-1.7236 191.67 0.15563 17.645 0.79007v25.992c0 2.8027-3.0935 4.5899-8.1126 4.5899h-196.63c-5.0885 0-8.4692-2.7902-8.4692-6.8186z" fill="url(#x)" fill-rule="evenodd"/><g transform="translate(0 18.529)" fill-rule="evenodd"><rect x="61.37" y="195.92" width="89.822" height="28.348" fill="url(#w)"/><path d="m61.37 224.26v-20.444c9.3544 16.202 42.281 20.444 65.933 20.444h-65.933z" fill="url(#v)" opacity=".81143"/><path d="m61.456 195.98v28.189h64.022l-62.27-1.7518z" fill="#fff" opacity=".44"/></g><g transform="translate(-5,37)"><path transform="matrix(.99063 0 0 .94216 1.3556 9.0097)" d="m39.41 178.14c-3.6402 7.4624-0.0031 12.195 5.2783 12.195h198.75c5.703-0.12134 9.4039-5.157 7.2804-10.921l-34.218-87.711c-0.94038-2.6088-3.3368-5.0356-5.8243-5.0963h-131.78c-3.1852 0-5.2783 1.5471-6.5524 4.3682l-32.944 87.165z" enable-background="new" fill-rule="evenodd" filter="url(#z)" opacity=".36879"/><path d="m39.41 173.14c-3.6402 7.4624-0.0031 12.195 5.2783 12.195h198.75c5.703-0.12134 9.4039-5.157 7.2804-10.921l-34.218-87.711c-0.94038-2.6088-3.3368-5.0356-5.8243-5.0963h-131.78c-3.1852 0-5.2783 1.5471-6.5524 4.3682l-32.944 87.165z" fill="url(#s)" fill-rule="evenodd"/><path transform="matrix(1 0 0 .98471 0 -.67872)" d="m208.2 91.709c0.04 0.11084-0.0875 0.27573 0.16016 0.42383-0.0267-0.06901-0.13346-0.35156-0.16016-0.42383zm-128.11 0.70508c-10.812 28.609-32.516 86.016-32.557 86.109h194.54l-33.602-86.109z" enable-background="new" fill="url(#u)" fill-rule="evenodd" filter="url(#aa)" opacity=".70567"/><path d="m249.62 167.68c0.32373 6.3702-2.1099 11.802-6.7379 11.944 0 0-194.26-1e-5 -194.26 0-6.5703 0-9.5185-1.656-10.621-4.4239 0.46764 4.8126 4.2086 8.4053 10.621 8.4053 0-1e-5 194.26 0 194.26 0 5.4836-0.16854 8.9328-7.2572 6.891-15.262z" fill="url(#r)" fill-rule="evenodd"/><path d="m212.23 117.52c-0.22563-2.124-10.978-28.045-10.978-28.045-0.22024-2.0887-3.574-3.6651-7.8034-3.6651h-26.542c-4.2598 0-7.5527 1.5971-7.6601 3.7149-0.48704 9.5683-15.239 14.085-37.491 18.109-85.67 15.492-48.627 64.456 22.993 66.391 52.11 1.4208 105.28-24.644 67.482-56.504zm-66.732 51.542c-73.274-1.935-95.436-47.334-22.23-60.716 21.131-3.863 38.419-7.8992 39.022-19.682 0.0286-0.56419 1.3641-1.5112 2.8664-1.5112l29.663-0.125c1.5363 0 3.8327 1.0938 3.8936 1.6725l8.7231 28.191c42.29 33.71-23.838 53.177-61.939 52.171z" fill="url(#q)" filter="url(#ad)"/><path d="m149.25 143.37c-12.63 0-22.312-4.3904-22.516-10.214-2e-3 -0.063-3e-3 -0.12485-3e-3 -0.18673 0-2.1073 1.269-4.1114 3.6804-5.8083 4.0792-2.8683 11.122-4.5804 18.841-4.5804 7.7169 0 14.76 1.7121 18.839 4.5804 2.4826 1.7446 3.7548 3.8183 3.6773 5.9939-0.20728 5.8235-9.8894 10.215-22.518 10.215zm0-17.531c-11.867 0-17.913 4.3513-17.771 8.3237 0.13766 3.9105 8.0935 7.0351 17.771 7.0351s17.633-3.1256 17.771-7.0351c0.14083-3.9735-5.9036-8.3237-17.771-8.3237z" enable-background="accumulate" fill="url(#p)" filter="url(#ac)"/><g transform="matrix(.6722 0 0 .44227 13.827 90.3)"><path d="m48.3 190.28c0.31446 4.2476 5.0238 7.7116 10.514 7.7116 5.4879 0 9.6432-3.464 9.2763-7.7116-0.36437-4.2251-5.0712-7.6367-10.507-7.6367-5.438 2e-3 -9.5933 3.4116-9.2838 7.6367z" fill="url(#b)"/><path d="m51.851 187.29c-0.50163 0.53906-1.0756 1.4026-1.0756 2.5506 0 0.0824 5e-3 0.16471 0.01 0.25206 0.21713 2.9274 3.8932 5.4006 8.026 5.4006 2.3534 0 4.5046-0.81109 5.7525-2.1737 0.53656-0.58149 1.148-1.5448 1.0382-2.8276-0.25206-2.9024-3.9232-5.3557-8.021-5.3557-2.3359 2e-3 -4.4797 0.8061-5.73 2.1538z" fill="url(#a)"/></g><g transform="matrix(.6722 0 0 .44227 197.83 90.3)"><path d="m48.3 190.28c0.31446 4.2476 5.0238 7.7116 10.514 7.7116 5.4879 0 9.6432-3.464 9.2763-7.7116-0.36437-4.2251-5.0712-7.6367-10.507-7.6367-5.438 2e-3 -9.5933 3.4116-9.2838 7.6367z" fill="url(#b)"/><path d="m51.851 187.29c-0.50163 0.53906-1.0756 1.4026-1.0756 2.5506 0 0.0824 5e-3 0.16471 0.01 0.25206 0.21713 2.9274 3.8932 5.4006 8.026 5.4006 2.3534 0 4.5046-0.81109 5.7525-2.1737 0.53656-0.58149 1.148-1.5448 1.0382-2.8276-0.25206-2.9024-3.9232-5.3557-8.021-5.3557-2.3359 2e-3 -4.4797 0.8061-5.73 2.1538z" fill="url(#a)"/></g><g transform="matrix(.461 0 0 .30331 55.025 28.746)"><path d="m48.3 190.28c0.31446 4.2476 5.0238 7.7116 10.514 7.7116 5.4879 0 9.6432-3.464 9.2763-7.7116-0.36437-4.2251-5.0712-7.6367-10.507-7.6367-5.438 2e-3 -9.5933 3.4116-9.2838 7.6367z" fill="url(#b)"/><path d="m51.851 187.29c-0.50163 0.53906-1.0756 1.4026-1.0756 2.5506 0 0.0824 5e-3 0.16471 0.01 0.25206 0.21713 2.9274 3.8932 5.4006 8.026 5.4006 2.3534 0 4.5046-0.81109 5.7525-2.1737 0.53656-0.58149 1.148-1.5448 1.0382-2.8276-0.25206-2.9024-3.9232-5.3557-8.021-5.3557-2.3359 2e-3 -4.4797 0.8061-5.73 2.1538z" fill="url(#a)"/></g><g transform="matrix(.461 0 0 .30331 181.21 28.746)"><path d="m48.3 190.28c0.31446 4.2476 5.0238 7.7116 10.514 7.7116 5.4879 0 9.6432-3.464 9.2763-7.7116-0.36437-4.2251-5.0712-7.6367-10.507-7.6367-5.438 2e-3 -9.5933 3.4116-9.2838 7.6367z" fill="url(#b)"/><path d="m51.851 187.29c-0.50163 0.53906-1.0756 1.4026-1.0756 2.5506 0 0.0824 5e-3 0.16471 0.01 0.25206 0.21713 2.9274 3.8932 5.4006 8.026 5.4006 2.3534 0 4.5046-0.81109 5.7525-2.1737 0.53656-0.58149 1.148-1.5448 1.0382-2.8276-0.25206-2.9024-3.9232-5.3557-8.021-5.3557-2.3359 2e-3 -4.4797 0.8061-5.73 2.1538z" fill="url(#a)"/></g><path d="m214 91 32 80" enable-background="accumulate" fill="none" opacity=".89604" stroke="url(#o)" stroke-width="1.1597"/><path d="m74.5 91-32 80" enable-background="accumulate" fill="none" opacity=".89604" stroke="url(#n)" stroke-width="1.1597"/><path d="m86.594 86.5-0.46875 1.3438-7 20-1.1875 3.3438 3.4688-0.71875 59-12.5 0.1875-0.0625 0.15625-0.0625c3.1243-1.2497 4.7938-3.7752 5.1875-6.0938 0.19685-1.1593 0.13817-2.2944-0.375-3.3438-0.48445-0.99059-1.7448-1.8719-3.0625-1.8438v-0.0625h-0.21875-54.281zm1.997 1.2357h54.377c0.0268 0.16888 0.0866 0.26256 0.0323 0.58192-0.1707 1.0052-0.90438 4.6014-2.7479 5.3859l-57.19 12.123z" enable-background="accumulate" fill="url(#m)" filter="url(#ab)"/></g><path transform="matrix(-1,0,0,1,327,26)" d="m161.5 187-9.5 31h56l14-31z" enable-background="accumulate" fill="url(#e)" filter="url(#f)" opacity=".67822"/><path transform="translate(-3,-137)" d="m76.838 255.65c-3.1852 0-5.2555 1.4788-6.5296 4.3-5e-6 0-32.967 87.165-32.967 87.165s-1.2741 3.4224-1.2741 9.0778v17.179c0 5.5173 3.3523 8.2815 8.4407 8.2815h196.53c5.0191 0 8.1222-3.66 8.1222-9.3963v-17.179s0.54002-3.9263-0.47778-6.6889l-34.241-87.642c-0.94039-2.6088-3.2458-5.0356-5.7333-5.0963z" clip-path="url(#af)" fill="none" filter="url(#y)" stroke="url(#t)" stroke-linecap="round" stroke-linejoin="round" stroke-width="2.3193"/><path d="m37.5 213.25-0.5 28.25 3.125 1.75v-30z" enable-background="accumulate" fill="url(#l)" filter="url(#g)" opacity=".34752"/><path transform="matrix(-.68 0 0 1 272.18 26)" d="m42.5 187.25-0.5 28.25 3.125 1.75v-30z" enable-background="accumulate" fill="url(#k)" filter="url(#g)" opacity=".21631"/><path d="m68.25 229.5c5.9045 6.3325 14.446 10.487 28 10.5-12.798-2.3453-22.202-5.8214-28-10.5z" enable-background="accumulate" fill="url(#j)" opacity=".55446"/><path transform="matrix(-.77143 0 0 1 358.26 26)" d="m161.5 187-9.5 31h56l14-31z" enable-background="accumulate" fill="url(#e)" filter="url(#f)" opacity=".26241"/><path d="m244.62 232.68c0.32373 4.3703-2.1099 8.0968-6.7379 8.1944 0 0-194.26-1e-5 -194.26 0-6.5703 0-9.5185-1.1361-10.621-3.035 0.46764 3.3016 4.2086 5.7664 10.621 5.7664 0-1e-5 194.26 0 194.26 0 5.4836-0.11563 8.9328-4.9788 6.891-10.471z" fill="url(#i)" fill-rule="evenodd" opacity=".25532"/><ellipse transform="matrix(1 0 0 1.5385 -10.5 -86.423)" cx="109.5" cy="186.5" rx="12.5" ry="6.5" fill="url(#d)"/><ellipse transform="matrix(.76 0 0 1.1692 23.78 -79.062)" cx="109.5" cy="186.5" rx="12.5" ry="6.5" enable-background="new" fill="url(#d)" opacity=".60284"/><ellipse transform="matrix(.76 0 0 1.1692 90.78 -13.562)" cx="109.5" cy="186.5" rx="12.5" ry="6.5" enable-background="new" fill="url(#d)" opacity=".60284"/><path d="m36.75 217h203.75" fill="none" stroke="url(#h)" stroke-width="1.1597px"/></g></g></g></g></g></svg>
