<?xml version="1.0" encoding="UTF-8"?>
<svg enable-background="new" version="1.0" viewBox="0 0 256 256" xmlns="http://www.w3.org/2000/svg" xmlns:xlink="http://www.w3.org/1999/xlink"><defs><linearGradient id="l" x1="2.4416" x2="2.4416" y1="37.206" y2="43" gradientTransform="matrix(1.0206 0 0 .84163 .49903 7.9399)" gradientUnits="userSpaceOnUse"><stop stop-color="#fff" offset="0"/><stop stop-color="#babdb6" offset="1"/></linearGradient><linearGradient id="m" x1="26.322" x2="49.735" y1="19.019" y2="3.5159" gradientTransform="matrix(.9558 0 .32034 -.79155 -8.4492 48.092)" gradientUnits="userSpaceOnUse" xlink:href="#b"/><linearGradient id="b"><stop offset="0"/><stop stop-opacity="0" offset="1"/></linearGradient><linearGradient id="r" x1="1.5" x2="1.5" y1="4.2649" y2="8" gradientTransform="matrix(.43054 -.53198 .49313 .46446 18.912 27.93)" gradientUnits="userSpaceOnUse"><stop stop-color="#eeeeec" offset="0"/><stop stop-color="#888a85" offset="1"/></linearGradient><linearGradient id="q" x1="46.5" x2="46.5" y1="4" y2="8" gradientTransform="matrix(.38166 -.47158 .43714 .41172 21.148 25.893)" gradientUnits="userSpaceOnUse" xlink:href="#c"/><linearGradient id="c"><stop stop-color="#888a85" offset="0"/><stop stop-color="#4a4b48" offset="1"/></linearGradient><linearGradient id="p" x1="25.878" x2="25.829" y1="3.8999" y2="7.9227" gradientTransform="matrix(.43054 -.53198 .49313 .46446 18.912 27.93)" gradientUnits="userSpaceOnUse"><stop stop-color="#eeeeec" offset="0"/><stop stop-color="#abaca9" offset=".7971"/><stop stop-color="#d3d7cf" offset="1"/></linearGradient><linearGradient id="o" x1="6.5" x2="6.5" y1="3" y2="9" gradientTransform="matrix(.43054 -.53198 .49313 .46446 18.912 27.93)" gradientUnits="userSpaceOnUse" xlink:href="#c"/><filter id="aj"><feGaussianBlur stdDeviation="0.34937147"/></filter><filter id="ai" x="-.049524" y="-.12106" width="1.099" height="1.2421"><feGaussianBlur stdDeviation="0.87042489"/></filter><filter id="ah"><feGaussianBlur stdDeviation="0.36371886"/></filter><radialGradient id="i" cx="24.893" cy="27.012" r="19.708" gradientTransform="matrix(-1.0842 .0020629 -5.2546e-5 -.027614 51.716 44.376)" gradientUnits="userSpaceOnUse"><stop stop-color="#fff" offset="0"/><stop stop-color="#fff" stop-opacity="0" offset="1"/></radialGradient><radialGradient id="h" cx="27.788" cy="24.744" r="14.52" gradientTransform="matrix(1.0869 -.039462 .047923 1.3199 -15.528 -3.268)" gradientUnits="userSpaceOnUse"><stop stop-color="#fff" offset="0"/><stop stop-color="#e3e3e3" offset="1"/></radialGradient><radialGradient id="g" cx="7.6712" cy="15.007" r="19.769" gradientTransform="matrix(2.4615 -1.0699 .79981 1.8528 -21.205 5.9019)" gradientUnits="userSpaceOnUse"><stop stop-color="#fff" offset="0"/><stop stop-color="#d3d7cf" offset="1"/></radialGradient><clipPath id="an"><path d="m12.449 25.5s-0.94152 0.09032-1.2344 1.0156c0 0-5.7914 15.24-6.123 16.061-0.31371 0.77607 0.79897 1.4766 1.791 1.4766h35.713c0.99204 0 2.1047-0.70049 1.791-1.4766-0.33161-0.82035-6.123-16.061-6.123-16.061-0.43928-1.046-1.2344-1.0156-1.2344-1.0156z" fill="none" stroke="#000" stroke-width=".57298" xlink:href="#a"/></clipPath><linearGradient id="v" x1="25.285" x2="25.285" y1="42.039" y2="24.198" gradientUnits="userSpaceOnUse"><stop offset="0"/><stop stop-opacity="0" offset="1"/></linearGradient><filter id="ag"><feGaussianBlur stdDeviation="0.14488135"/></filter><radialGradient id="f" cx="143" cy="227.5" r="69" gradientTransform="matrix(.92167 .0029817 -.00017066 .052754 11.24 215.07)" gradientUnits="userSpaceOnUse"><stop stop-color="#fff" offset="0"/><stop stop-color="#fff" stop-opacity="0" offset="1"/></radialGradient><linearGradient id="u" x1="26.322" x2="41.39" y1="19.019" y2="11.305" gradientTransform="matrix(.9558 0 .32034 -.79155 -8.4492 48.092)" gradientUnits="userSpaceOnUse" xlink:href="#b"/><radialGradient id="e" cx="158" cy="183.44" r="10" gradientTransform="matrix(2.2432 0 0 2.075 -196.43 -197.89)" gradientUnits="userSpaceOnUse"><stop offset="0"/><stop stop-opacity="0" offset="1"/></radialGradient><radialGradient id="d" cx="175.86" cy="150.42" r="21.875" gradientTransform="matrix(.41667 .30574 -1.0972 1.4953 260.27 -126.07)" gradientUnits="userSpaceOnUse"><stop stop-color="#fff" offset="0"/><stop stop-color="#fff" stop-opacity="0" offset="1"/></radialGradient><filter id="af"><feGaussianBlur stdDeviation="0.88964435"/></filter><clipPath id="am"><path d="m24.782 28.741c0.82356 0.65382 1.6704 1.296 2.2479 2.0728l1.4879-0.52544c1.9298-3.8966 4.5027-6.8598 6.9723-9.2171l0.21625-0.67194c-0.5795-0.87067-1.3884-1.512-2.2847-2.0658l-0.58723 0.24922c-2.0928 2.7782-3.9434 5.31-7.6996 8.7325z" enable-background="new" fill="none" stroke="#000" stroke-width=".38199"/></clipPath><linearGradient id="t" x1="31.906" x2="27.975" y1="24.641" y2="20.454" gradientUnits="userSpaceOnUse"><stop offset="0"/><stop stop-opacity="0" offset="1"/></linearGradient><filter id="ae"><feGaussianBlur stdDeviation="0.17553478"/></filter><clipPath id="al"><path d="m33.227 18.854 7.598-9.3262c0.49286-0.60897 0.6897-1.2848 0.43757-1.5223l-1.1592-1.0918c-0.25212-0.23746-0.84631 0.06411-1.3392 0.67308l-7.4581 9.4156z" fill="none" stroke="#000" stroke-width=".50814"/></clipPath><filter id="ad"><feGaussianBlur stdDeviation="0.11034125"/></filter><linearGradient id="s" x1="38.094" x2="35.046" y1="13.528" y2="10.446" gradientUnits="userSpaceOnUse"><stop offset="0"/><stop stop-opacity="0" offset="1"/></linearGradient><filter id="ac"><feGaussianBlur stdDeviation="0.86035576"/></filter><filter id="ab" x="-.18543" y="-.20743" width="1.3709" height="1.4149"><feGaussianBlur stdDeviation="0.63742155"/></filter><filter id="aa"><feGaussianBlur stdDeviation="0.12136969"/></filter><filter id="z"><feGaussianBlur stdDeviation="0.043929811"/></filter><filter id="y" x="-.084226" y="-.18362" width="1.1685" height="1.3672"><feGaussianBlur stdDeviation="0.73050399"/></filter><clipPath id="ak"><path d="m121.56 81.188a1.5002 1.5002 0 0 0-0.8125 0.28125c-5.0317 3.3875-8.1651 6.1825-9.8438 8.7812-0.83934 1.2994-1.3213 2.5939-1.3438 3.875-0.0224 1.2811 0.46168 2.4841 1.25 3.4375 1.5766 1.9068 4.1651 3.0239 7.375 3.9375s7.0867 1.5567 11.281 2.0938c8.3891 1.0741 18.063 1.6902 25.781 2.7812 3.859 0.54552 7.2244 1.2089 9.625 2.0625s3.5981 1.9024 3.8125 2.625c0.095 0.3201 0.11901 0.31041-0.15625 0.625s-0.99468 0.79368-2.0625 1.2188c-2.1356 0.85013-5.6449 1.5679-10.031 2.0938-8.7728 1.0518-21.011 1.4193-33.531 1.75s-25.328 0.60008-35.406 1.4375c-5.0393 0.41871-9.3993 0.97633-12.75 1.7812s-5.8853 1.6705-7 3.8438c-0.44516 0.8679-0.61472 1.835-0.375 2.75s0.83122 1.6355 1.5312 2.1562c1.4001 1.0416 3.2941 1.6087 5.5625 2.1562 4.5368 1.095 10.651 1.8991 16.25 3.5s10.527 4.0051 12.906 7.7812 2.6181 9.2296-1.9375 18.031a1.5094 1.5094 0 1 0 2.6875 1.375c4.8194-9.3113 4.8298-16.193 1.7812-21.031s-8.7377-7.3478-14.625-9.0312-12.113-2.5337-16.375-3.5625c-2.1312-0.51441-3.7493-1.113-4.4375-1.625-0.34408-0.25598-0.41592-0.41764-0.4375-0.5-0.02157-0.0824-0.05674-0.24099 0.15625-0.65625 0.20162-0.39309 1.9226-1.5107 5-2.25s7.3516-1.3066 12.312-1.7188c9.9218-0.8244 22.688-1.1066 35.219-1.4375 12.531-0.33095 24.802-0.70099 33.812-1.7812 4.5052-0.54013 8.183-1.2345 10.812-2.2812 1.3148-0.52336 2.4005-1.1318 3.1875-2.0312s1.1368-2.2393 0.78125-3.4375c-0.68657-2.3139-2.9309-3.6135-5.6875-4.5938s-6.266-1.66-10.219-2.2188c-7.9056-1.1176-17.57-1.726-25.812-2.7812-4.1211-0.52764-7.8888-1.159-10.844-2s-5.0391-1.9578-5.875-2.9688c-0.41794-0.50546-0.57225-0.91152-0.5625-1.4688 0.01-0.55723 0.24354-1.3349 0.875-2.3125 1.2629-1.9552 4.1342-4.6304 9-7.9062a1.5002 1.5002 0 0 0-0.875-2.7812z" color="#000000" enable-background="new" fill="#eeeeec" style="text-decoration-line:none;text-indent:0;text-transform:none"/></clipPath><filter id="x"><feGaussianBlur stdDeviation="0.58376764"/></filter><filter id="w"><feGaussianBlur stdDeviation="0.7219486"/></filter><linearGradient id="n" x1="96" x2="96" y1="86" y2="130.5" gradientTransform="translate(-10)" gradientUnits="userSpaceOnUse"><stop offset="0"/><stop stop-color="#fff" offset="1"/></linearGradient><mask id="k" maskUnits="userSpaceOnUse"><rect x="50" y="86" width="128" height="78" color="#000000" enable-background="accumulate" fill="url(#n)"/></mask></defs><g transform="translate(-20,-33)"><g fill="none" mask="url(#k)" stroke-linecap="round" stroke-linejoin="round"><path d="m121.6 83.714c-39.59 26.653 44.928 15.771 48.532 27.917 3.6039 12.146-95.768 3.5869-101.03 13.852-5.2653 10.265 52.687 0.15697 33.937 36.383" enable-background="new" filter="url(#w)" opacity=".47557" stroke="#000" stroke-width="3"/><g clip-path="url(#ak)" mask="none"><path d="m121.6 82.714c-39.59 26.653 44.928 15.771 48.532 27.917 3.6039 12.146-95.768 3.5869-101.03 13.852-5.2653 10.265 52.687 0.15697 33.937 36.383" enable-background="new" stroke="#babdb6" stroke-width="4"/><path d="m121.6 81.714c-39.59 26.653 44.928 15.771 48.532 27.917 3.6039 12.146-95.768 3.5869-101.03 13.852-5.2653 10.265 52.687 0.15697 33.937 36.383" enable-background="new" filter="url(#x)" stroke="#fff"/></g></g><g transform="matrix(5.2357 0 0 5.2357 14.48 22.003)" enable-background="new"><path transform="matrix(1 0 0 .9906 0 .8046)" d="m12.449 25.5s-0.94152 0.09032-1.2344 1.0156c0 0-5.7914 15.24-6.123 16.061-0.31371 0.77607 0.79897 1.4766 1.791 1.4766h35.713c0.99204 0 2.1047-0.70049 1.791-1.4766-0.33161-0.82035-6.123-16.061-6.123-16.061-0.43928-1.046-1.2344-1.0156-1.2344-1.0156z" filter="url(#ah)" opacity=".5" xlink:href="#a"/><path transform="matrix(.94232 0 0 1 1.4439 0)" d="m12.194 28.5h26.152s0.84396-0.02887 1.3113 0.98894c0 0 6.0545 14.018 6.4095 14.821 0.33584 0.75983-0.85498 1.4457-1.917 1.4457h-38.232c-1.062 0-2.2528-0.68589-1.917-1.4457 0.355-0.80318 6.8815-14.821 6.8815-14.821 0.31156-0.90032 1.3113-0.98894 1.3113-0.98894z" filter="url(#ai)" opacity=".11064"/><path d="m12.448 25.5h24.582s0.79328-0.02967 1.2326 1.0164c0 0 5.458 14.476 5.7896 15.296 0.6957 1.4446-0.46441 2.2406-1.4565 2.2406h-35.713c-0.99204 0-2.1999-0.60505-1.5042-2.2406 0.33161-0.82035 5.8374-15.296 5.8374-15.296 0.29285-0.9253 1.2326-1.0164 1.2326-1.0164z" fill="url(#l)"/><path id="a" d="m12.448 25.5h24.582s0.79328-0.02967 1.2326 1.0164c0 0 5.7922 15.24 6.1238 16.06 0.31371 0.77607-0.79865 1.4766-1.7907 1.4766h-35.713c-0.99204 0-2.1044-0.70055-1.7907-1.4766 0.33161-0.82035 6.1238-16.06 6.1238-16.06 0.29285-0.9253 1.2326-1.0164 1.2326-1.0164z" fill="url(#g)" opacity=".5"/><path transform="translate(0 .19099)" d="m14.494 27.006s-0.7206 0.06598-0.94336 0.69727c0 0-3.0428 10.103-3.2871 10.645-0.23108 0.51272 0.59348 0.98047 1.3242 0.98047h26.312c0.73074 0 1.5533-0.46775 1.3223-0.98047-0.24426-0.54196-3.8555-10.645-3.8555-10.645-0.33414-0.71366-0.94336-0.69727-0.94336-0.69727z" fill-opacity=".27778" xlink:href="#j"/><path id="j" d="m14.493 27.005h19.931s0.60911-0.01604 0.94326 0.69762c-1e-6 -1e-6 3.6117 10.104 3.856 10.646 0.23108 0.51272-0.59316 0.97915-1.3239 0.97915h-26.313c-0.73074 0-1.555-0.46643-1.3239-0.97915 0.24426-0.54196 3.2867-10.646 3.2867-10.646 0.22276-0.63128 0.94326-0.69762 0.94326-0.69762z" fill="url(#h)"/><path transform="matrix(.55761 0 0 .55761 10.108 14.627)" d="m22.802 33.038 1.301 1.7187 0.42423 0.52515 7.127 3.867 1.3292 0.38192 6.1372 3.0554h4.1291c0.19701-0.16648 0.32646-0.35847 0.36766-0.57289l-6.929-3.4612-0.56564-0.57289-7.9472-3.6522-1.2727-0.31031z" fill="url(#u)" filter="url(#aj)" opacity=".2"/><path d="m12.449 25.5s-0.94152 0.09032-1.2344 1.0156c0 0-5.7914 15.24-6.123 16.061-0.31371 0.77607 0.79897 1.4766 1.791 1.4766h35.713c0.99204 0 2.1047-0.70049 1.791-1.4766-0.33161-0.82035-6.123-16.061-6.123-16.061-0.43928-1.046-1.2344-1.0156-1.2344-1.0156z" clip-path="url(#an)" fill="none" filter="url(#ag)" opacity=".3" stroke="url(#v)" stroke-width=".38199" xlink:href="#a"/><path d="m22.802 33.038 1.301 1.7187 0.42423 0.52515 7.127 3.867 1.3292 0.38192 6.1372 3.0554h4.1291c0.19701-0.16648 0.32646-0.35847 0.36766-0.57289l-6.929-3.4612-0.56564-0.57289-7.9472-3.6522-1.2727-0.31031z" fill="url(#m)" filter="url(#y)" opacity=".2"/><g transform="matrix(1.1396 0 0 1.1157 -2.2076 -.63656)"><path d="m22.055 29.952c-0.11883 0.14683-0.10481 0.37003 0.03129 0.49822 0.1361 0.12819 0.34301 0.11307 0.46184-0.03376l0.43054-0.53198-0.49313-0.46446-0.43054 0.53198z" color="#000000" enable-background="accumulate" fill="#eeeeec" fill-rule="evenodd"/><path d="m22.27 29.686 1.6283-3.6226 1.9725 1.8578-3.1077 2.2292z" fill="url(#r)"/><path d="m39.904 7.0017 0.86611-0.73653c0.28544-0.24274 0.70311-0.39661 0.8929-0.22734l0.21228 0.18933c0.18979 0.16927 0.11038 0.65428-0.09089 1.0085l-0.56897 1.0013c-0.16474 0.2899-0.57023 0.28475-0.80972 0.059188l-0.44684-0.42086c-0.23949-0.22556-0.26396-0.61514-0.05486-0.8735z" fill="url(#q)"/><path transform="matrix(.16759 0 0 .17118 -.48969 -3.196)" d="m251.38 55.125-1.875-0.25-6.375 5.5 1.75 1.875 4.875-6.25z" color="#bebebe" enable-background="new" fill="#fff" filter="url(#ab)" opacity=".42128"/><path d="m33.227 18.854 7.598-9.3262c0.49286-0.60897 0.6897-1.2848 0.43757-1.5223l-1.1592-1.0918c-0.25212-0.23746-0.84631 0.06411-1.3392 0.67308l-7.4581 9.4156z" fill="url(#p)"/><path transform="matrix(.16759 0 0 .17118 -.3221 -3.0248)" d="m193.25 122.75 47-59 4-2.5-1.5-1.25-5.5 3-47.75 58z" color="#bebebe" enable-background="new" fill="#fff" filter="url(#ac)" opacity=".80851"/><path d="m33.227 18.854 7.598-9.3262c0.49286-0.60897 0.6897-1.2848 0.43757-1.5223l-1.1592-1.0918c-0.25212-0.23746-0.84631 0.06411-1.3392 0.67308l-7.4581 9.4156z" clip-path="url(#al)" fill="none" filter="url(#ad)" opacity=".6" stroke="url(#s)" stroke-width=".16938"/><path d="m23.683 26.33c0.72266 0.586 1.4658 1.1616 1.9725 1.8578l1.3056-0.47093c1.6934-3.4924 3.951-6.1482 6.1181-8.2609l0.18975-0.60224c-0.5085-0.78035-1.2183-1.3551-2.0048-1.8515l-0.51529 0.22337c-1.8364 2.49-3.4603 4.7592-6.7562 7.8267z" fill="url(#o)"/><path d="m22.659 30.12 1.7807-1.3053 0.03333-0.10191 0.11332 0.01631 0.90082-0.64193-0.33519-0.36376-0.8519 0.76905-0.10372 0.03195-0.01151 0.13704z" color="#bebebe" enable-background="new" opacity=".23404"/></g><path d="m26.027 29.866-0.85948 0.71623 0.23874 0.28649-1.8622 1.8145 0.42974 0.23874 2.9604-2.1487z" color="#bebebe" enable-background="new" fill-opacity=".41667" filter="url(#aa)" opacity=".28085"/><path transform="matrix(.19099 0 0 .19099 -2.7657 -4.2025)" d="m40.75 246.12c2.8527 4.9275 9.2106 5.4262 14.75 5.3801l179.5 0.1303c9.5 0.125 12.127-4.2604 12.127-4.2604s-2.625 5.875-12.375 5.375h-179.25c-11.125 0.375-12.75-2-14.75-6.625z" color="#bebebe" enable-background="new" opacity=".11064"/><path d="m5.0174 42.567c0.54486 0.94112 1.7592 1.0364 2.8171 1.0276l34.283 0.02489c1.8145 0.02387 2.3163-0.81372 2.3163-0.81372s-0.50136 1.1221-2.3636 1.0266h-34.236c-2.1248 0.07162-2.4352-0.38199-2.8172-1.2653z" color="#bebebe" enable-background="new" fill="url(#i)"/><rect transform="matrix(.19099 0 0 .19099 -2.7657 -4.2025)" x="74" y="227" width="138" height="1" color="#bebebe" enable-background="new" fill="url(#f)"/><path transform="matrix(.19099 0 0 .19099 -2.7657 -4.2025)" d="m146.25 165c7.0725 3.5818 12.558 9.3848 18 15.25l-8.75 3.25c-4.8312-6.8268-7.6039-7.4783-11.25-10.75z" color="#bebebe" enable-background="new" fill="url(#e)" opacity=".35745"/><path transform="matrix(.19099 0 0 .19099 -2.7657 -4.2025)" d="m141.5 180c2.5598 2.5724 5.1775 5.0386 8.0871 6.9697" color="#bebebe" enable-background="new" fill="none" opacity=".19149" stroke="#000" stroke-width=".5"/><path transform="matrix(.19099 0 0 .19099 -2.7657 -4.2025)" d="m134.38 196.75 1.875 0.375 2.25-2.125-0.625-0.875-2 2.5z" color="#bebebe" enable-background="new" opacity=".61277"/><path transform="matrix(.19099 0 0 .19099 -2.7657 -4.2025)" d="m148.88 166.5c0.5 0.25 6.875 5.125 6.875 5.125 10.311-16.6 23.647-31.52 36.875-46.5l-5.125-4.25c-11.218 16.06-23.278 31.687-38.625 45.625z" color="#bebebe" enable-background="new" fill="url(#d)" filter="url(#af)" opacity=".35745"/><path transform="matrix(.19099 0 0 .19099 -2.7657 -4.2025)" d="m154.5 158 3 2 11.875-12.625-2.625-1.5z" color="#bebebe" enable-background="new" opacity=".35745"/><path d="m24.782 28.741c0.82356 0.65382 1.6704 1.296 2.2479 2.0728l1.4879-0.52544c1.9298-3.8966 4.5027-6.8598 6.9723-9.2171l0.21625-0.67194c-0.5795-0.87067-1.3884-1.512-2.2847-2.0658l-0.58723 0.24922c-2.0928 2.7782-3.9434 5.31-7.6996 8.7325z" clip-path="url(#am)" enable-background="new" fill="none" filter="url(#ae)" opacity=".5" stroke="url(#t)" stroke-width=".38199"/><path transform="matrix(.19099 0 0 .19099 -2.7657 -4.2025)" d="m154.88 157.25 2.5 1.875 0.375-3.25-2.25-1.5z" color="#bebebe" enable-background="new" fill="#9f9f9f"/><path transform="matrix(.19099 0 0 .19099 -2.7657 -4.2025)" d="m155.38 154.25 2.375 1.75 3.75-2.75-1.875-1z" color="#bebebe" enable-background="new" fill="#c3c3c3"/><path transform="matrix(.19099 0 0 .19099 -2.7657 -4.2025)" d="m159.62 152.12 1.625 1.375 6.375-6.625-1.25-0.625z" color="#bebebe" enable-background="new" fill="#aeaeae"/><path transform="matrix(.19099 0 0 .19099 -2.7657 -4.2025)" d="m167.5 146.88 1.25 0.5-11.25 11.875 0.125-3.25 4-2.75z" color="#bebebe" enable-background="new" fill="#707070"/><path transform="matrix(.19099 0 0 .19099 -2.7657 -4.2025)" d="m155.21 154.34 2.0329 1.8562 0.17678 3.182 0.53033-3.182 3.5355-2.5633 6.2756-6.6291-0.44194-0.26517-6.1872 6.7175-3.4472 2.3865-1.8562-1.6794z" color="#bebebe" enable-background="new" fill="#d2d2d2"/><path transform="matrix(.19099 0 0 .19099 -2.7657 -4.2025)" d="m154.86 157.34 0.61871-3.0936 4.2426-2.0329 3.0936-2.9168-3.4472 2.6516-4.4194 1.8562-0.61871 3.8891z" color="#bebebe" enable-background="new"/><path d="m23.288 32.661 1.4446-1.8629 0.06615-0.09998-0.02322-0.13999 1.0387-0.9221-0.56952-0.44835-0.72794 1.0787 0.03178 0.14709-0.05225 0.14429z" color="#bebebe" enable-background="new" fill="#fff" filter="url(#z)" opacity=".78298"/></g></g></svg>
