<?xml version="1.0" encoding="UTF-8"?>
<svg enable-background="new" version="1.0" viewBox="0 0 256 256" xmlns="http://www.w3.org/2000/svg" xmlns:xlink="http://www.w3.org/1999/xlink"><defs><linearGradient id="v"><stop stop-color="#eeeeec" offset="0"/><stop stop-color="#babdb6" offset=".41413"/><stop stop-color="#888a85" offset=".77028"/><stop stop-color="#babdb6" offset="1"/></linearGradient><linearGradient id="q"><stop stop-color="#eeeeec" offset="0"/><stop stop-color="#babdb6" offset="1"/></linearGradient><linearGradient id="w"><stop stop-color="#2e3436" offset="0"/><stop stop-color="#d3d7cf" offset="1"/></linearGradient><linearGradient id="r"><stop stop-color="#babdb6" offset="0"/><stop stop-color="#babdb6" stop-opacity="0" offset="1"/></linearGradient><clipPath id="n"><rect x="-202" y="56" width="84" height="88" rx="10" ry="10" color="#000000" display="block" enable-background="new" fill="none" stroke="#000"/></clipPath><filter id="l"><feGaussianBlur stdDeviation="0.43000004"/></filter><linearGradient id="t"><stop stop-color="#d3d7cf" offset="0"/><stop stop-color="#babdb6" offset="1"/></linearGradient><filter id="k" x="-.12" y="-.12" width="1.24" height="1.24"><feGaussianBlur stdDeviation="1.5594418"/></filter><filter id="j" x="-.12" y="-.12" width="1.24" height="1.24"><feGaussianBlur stdDeviation="1.5594418"/></filter><linearGradient id="s"><stop stop-color="#eeeeec" offset="0"/><stop stop-color="#eeeeec" stop-opacity="0" offset="1"/></linearGradient><filter id="g" x="-.15775" y="-.043022" width="1.3155" height="1.086" color-interpolation-filters="sRGB"><feGaussianBlur stdDeviation="1.5774648"/></filter><filter id="h" x="-.1316" y="-.077035" width="1.2632" height="1.1541" color-interpolation-filters="sRGB"><feGaussianBlur stdDeviation="1.3160211"/></filter><filter id="i" x="-.1316" y="-.077035" width="1.2632" height="1.1541" color-interpolation-filters="sRGB"><feGaussianBlur stdDeviation="1.3160211"/></filter><linearGradient id="f" x1="-160" x2="-160" y1="48.998" y2="150.5" gradientUnits="userSpaceOnUse" xlink:href="#v"/><linearGradient id="e" x1="-160.16" x2="-160.16" y1="68.002" y2="61.702" gradientTransform="translate(-3.4509e-8 -4.0345e-6)" gradientUnits="userSpaceOnUse" xlink:href="#s"/><linearGradient id="d" x1="-184.89" x2="-199.11" y1="94.939" y2="94.939" gradientTransform="translate(-3.4509e-8 -4.0345e-6)" gradientUnits="userSpaceOnUse" xlink:href="#s"/><linearGradient id="c" x1="-160" x2="-160" y1="118.98" y2="145.52" gradientUnits="userSpaceOnUse" xlink:href="#r"/><linearGradient id="b" x1="-184" x2="-201.75" y1="120.48" y2="146.02" gradientUnits="userSpaceOnUse" xlink:href="#r"/><linearGradient id="a" x1="-146.5" x2="-164.5" y1="145.53" y2="41.439" gradientUnits="userSpaceOnUse" xlink:href="#w"/><radialGradient id="o" cx="24.5" cy="31.046" r="15.095" gradientTransform="matrix(5.0704 0 0 3.6554 35.774 3.5135)" gradientUnits="userSpaceOnUse" xlink:href="#t"/><linearGradient id="p" x1="152.86" x2="169" y1="129.14" y2="71.5" gradientUnits="userSpaceOnUse" xlink:href="#q"/><filter id="m"><feGaussianBlur stdDeviation="0.97915191"/></filter><radialGradient id="u" cx="24.5" cy="31.046" r="15.095" gradientTransform="matrix(3.0639 0 0 2.2081 -159.54 17.337)" gradientUnits="userSpaceOnUse" xlink:href="#t"/><linearGradient id="y" x1="152.86" x2="169" y1="129.14" y2="71.5" gradientTransform="matrix(.60427 0 0 .60406 -181.16 15.214)" gradientUnits="userSpaceOnUse" xlink:href="#q"/><linearGradient id="x" x1="129.98" x2="188.85" y1="73.013" y2="292.8" gradientTransform="scale(1.0002 .99983)" gradientUnits="userSpaceOnUse"><stop offset="0"/><stop stop-color="#484848" offset="1"/></linearGradient><filter id="z"><feGaussianBlur stdDeviation="0.34722966"/></filter></defs><g transform="translate(-16,-36)"><g><rect transform="matrix(1.1818 0 0 1.1814 -25.994 -31.293)" x="122" y="219.5" width="42.95" height="44.995" rx="5.172" ry="5.1738" color="#000000" enable-background="accumulate" filter="url(#m)" opacity=".5144"/><rect transform="matrix(1.1818 0 0 1.1814 -25.994 -31.293)" x="72" y="169.5" width="42.95" height="44.995" rx="5.172" ry="5.1738" color="#000000" enable-background="accumulate" filter="url(#m)" opacity=".5144"/><rect transform="matrix(1.1818 0 0 1.1814 -25.994 -31.293)" x="122" y="169.5" width="42.95" height="44.995" rx="5.172" ry="5.1738" color="#000000" enable-background="accumulate" filter="url(#m)" opacity=".5144"/><rect transform="matrix(1.1818 0 0 1.1814 -25.994 -31.293)" x="171" y="169.5" width="42.95" height="44.995" rx="5.172" ry="5.1738" color="#000000" enable-background="accumulate" filter="url(#m)" opacity=".5144"/><rect transform="matrix(1.1818 0 0 1.1814 -25.994 -31.293)" x="72" y="119.5" width="42.95" height="44.995" rx="5.172" ry="5.1738" color="#000000" enable-background="accumulate" filter="url(#m)" opacity=".5144"/><rect transform="matrix(1.1818 0 0 1.1814 -25.994 -31.293)" x="122" y="119.5" width="42.95" height="44.995" rx="5.172" ry="5.1738" color="#000000" enable-background="accumulate" filter="url(#m)" opacity=".5144"/><rect transform="matrix(1.1818 0 0 1.1814 -25.994 -31.293)" x="171" y="119.5" width="42.95" height="44.995" rx="5.172" ry="5.1738" color="#000000" enable-background="accumulate" filter="url(#m)" opacity=".5144"/><rect transform="matrix(1.1818 0 0 1.1814 -25.994 -31.293)" x="72" y="69.5" width="42.95" height="44.995" rx="5.172" ry="5.1738" color="#000000" enable-background="accumulate" filter="url(#m)" opacity=".5144"/><g transform="matrix(.60427 0 0 .60406 181.16 15.214)" clip-path="url(#n)"><rect x="-202" y="56" width="84" height="88" rx="10.249" ry="10.253" color="#000000" display="block" enable-background="new" fill="url(#f)"/><path transform="matrix(-1 0 0 1 -320.33 4.5198e-6)" d="m-203.07 47.457c-9.6825 0-7.4774-2.2051-7.4774 7.4774l30.973 22.234c0-4.8412-6.1025 1.2613-1.2613 1.2613z" color="#000000" display="block" enable-background="new" fill="#fff" filter="url(#j)"/><path d="m-203.07 47.457c-9.6825 0-7.4774-2.2051-7.4774 7.4774l30.973 22.234c0-4.8412-6.1025 1.2613-1.2613 1.2613z" color="#000000" display="block" enable-background="new" fill="#fff" filter="url(#k)"/><path d="m-202 56 24 24h36l24-24z" color="#000000" display="block" enable-background="new" fill="url(#e)" opacity=".70357"/><path d="m-202 56v88l24-40v-24z" color="#000000" display="block" enable-background="new" fill="url(#d)" filter="url(#g)" opacity=".70357"/><path d="m-178 104-24 37 5 4z" color="#000000" display="block" enable-background="new" fill="url(#c)" filter="url(#h)"/><path transform="matrix(-1 0 0 1 -320 6.0349e-7)" d="m-178 104-24 37 5 4z" color="#000000" display="block" enable-background="new" fill="url(#b)" filter="url(#i)" opacity=".825" stroke="#888a85" stroke-width="1.0251"/><rect x="-202" y="56" width="84" height="88" rx="10.249" ry="10.253" color="#000000" display="block" enable-background="new" fill="none" filter="url(#l)" stroke="url(#a)" stroke-width="1.0251"/></g><rect transform="scale(-1,1)" x="-102.6" y="56.291" width="36.256" height="33.828" rx="3.0966" ry="3.0966" color="#000000" display="block" enable-background="new" fill="url(#u)" stroke="url(#y)" stroke-width="1.2386"/><rect transform="matrix(1.1818 0 0 1.1814 -25.994 -31.293)" x="122" y="69.5" width="42.95" height="44.995" rx="5.172" ry="5.1738" color="#000000" enable-background="accumulate" filter="url(#m)" opacity=".5144"/><rect transform="matrix(1.1818 0 0 1.1814 -25.994 -31.293)" x="171" y="69.5" width="42.95" height="44.995" rx="5.172" ry="5.1738" color="#000000" enable-background="accumulate" filter="url(#m)" opacity=".5144"/><g transform="matrix(.60427 0 0 .60406 239.7 15.214)"><g clip-path="url(#n)"><rect x="-202" y="56" width="84" height="88" rx="10.249" ry="10.253" color="#000000" display="block" enable-background="new" fill="url(#f)"/><path transform="matrix(-1 0 0 1 -320.33 4.5198e-6)" d="m-203.07 47.457c-9.6825 0-7.4774-2.2051-7.4774 7.4774l30.973 22.234c0-4.8412-6.1025 1.2613-1.2613 1.2613z" color="#000000" display="block" enable-background="new" fill="#fff" filter="url(#j)"/><path d="m-203.07 47.457c-9.6825 0-7.4774-2.2051-7.4774 7.4774l30.973 22.234c0-4.8412-6.1025 1.2613-1.2613 1.2613z" color="#000000" display="block" enable-background="new" fill="#fff" filter="url(#k)"/><path d="m-202 56 24 24h36l24-24z" color="#000000" display="block" enable-background="new" fill="url(#e)" opacity=".70357"/><path d="m-202 56v88l24-40v-24z" color="#000000" display="block" enable-background="new" fill="url(#d)" filter="url(#g)" opacity=".70357"/><path d="m-178 104-24 37 5 4z" color="#000000" display="block" enable-background="new" fill="url(#c)" filter="url(#h)"/><path transform="matrix(-1 0 0 1 -320 6.0349e-7)" d="m-178 104-24 37 5 4z" color="#000000" display="block" enable-background="new" fill="url(#b)" filter="url(#i)" opacity=".825" stroke="#888a85" stroke-width="1.0251"/><rect x="-202" y="56" width="84" height="88" rx="10.249" ry="10.253" color="#000000" display="block" enable-background="new" fill="none" filter="url(#l)" stroke="url(#a)" stroke-width="1.0251"/></g><rect transform="scale(-1,1)" x="130" y="68" width="60" height="56" rx="5.1245" ry="5.1263" color="#000000" display="block" enable-background="new" fill="url(#o)" stroke="url(#p)" stroke-width="2.0502"/></g><g transform="matrix(.60427 0 0 .60406 298.24 15.214)"><g clip-path="url(#n)"><rect x="-202" y="56" width="84" height="88" rx="10.249" ry="10.253" color="#000000" display="block" enable-background="new" fill="url(#f)"/><path transform="matrix(-1 0 0 1 -320.33 4.5198e-6)" d="m-203.07 47.457c-9.6825 0-7.4774-2.2051-7.4774 7.4774l30.973 22.234c0-4.8412-6.1025 1.2613-1.2613 1.2613z" color="#000000" display="block" enable-background="new" fill="#fff" filter="url(#j)"/><path d="m-203.07 47.457c-9.6825 0-7.4774-2.2051-7.4774 7.4774l30.973 22.234c0-4.8412-6.1025 1.2613-1.2613 1.2613z" color="#000000" display="block" enable-background="new" fill="#fff" filter="url(#k)"/><path d="m-202 56 24 24h36l24-24z" color="#000000" display="block" enable-background="new" fill="url(#e)" opacity=".70357"/><path d="m-202 56v88l24-40v-24z" color="#000000" display="block" enable-background="new" fill="url(#d)" filter="url(#g)" opacity=".70357"/><path d="m-178 104-24 37 5 4z" color="#000000" display="block" enable-background="new" fill="url(#c)" filter="url(#h)"/><path transform="matrix(-1 0 0 1 -320 6.0349e-7)" d="m-178 104-24 37 5 4z" color="#000000" display="block" enable-background="new" fill="url(#b)" filter="url(#i)" opacity=".825" stroke="#888a85" stroke-width="1.0251"/><rect x="-202" y="56" width="84" height="88" rx="10.249" ry="10.253" color="#000000" display="block" enable-background="new" fill="none" filter="url(#l)" stroke="url(#a)" stroke-width="1.0251"/></g><rect transform="scale(-1,1)" x="130" y="68" width="60" height="56" rx="5.1245" ry="5.1263" color="#000000" display="block" enable-background="new" fill="url(#o)" stroke="url(#p)" stroke-width="2.0502"/></g><g transform="matrix(.60427 0 0 .60406 181.16 73.736)"><g clip-path="url(#n)"><rect x="-202" y="56" width="84" height="88" rx="10.249" ry="10.253" color="#000000" display="block" enable-background="new" fill="url(#f)"/><path transform="matrix(-1 0 0 1 -320.33 4.5198e-6)" d="m-203.07 47.457c-9.6825 0-7.4774-2.2051-7.4774 7.4774l30.973 22.234c0-4.8412-6.1025 1.2613-1.2613 1.2613z" color="#000000" display="block" enable-background="new" fill="#fff" filter="url(#j)"/><path d="m-203.07 47.457c-9.6825 0-7.4774-2.2051-7.4774 7.4774l30.973 22.234c0-4.8412-6.1025 1.2613-1.2613 1.2613z" color="#000000" display="block" enable-background="new" fill="#fff" filter="url(#k)"/><path d="m-202 56 24 24h36l24-24z" color="#000000" display="block" enable-background="new" fill="url(#e)" opacity=".70357"/><path d="m-202 56v88l24-40v-24z" color="#000000" display="block" enable-background="new" fill="url(#d)" filter="url(#g)" opacity=".70357"/><path d="m-178 104-24 37 5 4z" color="#000000" display="block" enable-background="new" fill="url(#c)" filter="url(#h)"/><path transform="matrix(-1 0 0 1 -320 6.0349e-7)" d="m-178 104-24 37 5 4z" color="#000000" display="block" enable-background="new" fill="url(#b)" filter="url(#i)" opacity=".825" stroke="#888a85" stroke-width="1.0251"/><rect x="-202" y="56" width="84" height="88" rx="10.249" ry="10.253" color="#000000" display="block" enable-background="new" fill="none" filter="url(#l)" stroke="url(#a)" stroke-width="1.0251"/></g><rect transform="scale(-1,1)" x="130" y="68" width="60" height="56" rx="5.1245" ry="5.1263" color="#000000" display="block" enable-background="new" fill="url(#o)" stroke="url(#p)" stroke-width="2.0502"/></g><g transform="matrix(.60427 0 0 .60406 239.7 73.736)"><g clip-path="url(#n)"><rect x="-202" y="56" width="84" height="88" rx="10.249" ry="10.253" color="#000000" display="block" enable-background="new" fill="url(#f)"/><path transform="matrix(-1 0 0 1 -320.33 4.5198e-6)" d="m-203.07 47.457c-9.6825 0-7.4774-2.2051-7.4774 7.4774l30.973 22.234c0-4.8412-6.1025 1.2613-1.2613 1.2613z" color="#000000" display="block" enable-background="new" fill="#fff" filter="url(#j)"/><path d="m-203.07 47.457c-9.6825 0-7.4774-2.2051-7.4774 7.4774l30.973 22.234c0-4.8412-6.1025 1.2613-1.2613 1.2613z" color="#000000" display="block" enable-background="new" fill="#fff" filter="url(#k)"/><path d="m-202 56 24 24h36l24-24z" color="#000000" display="block" enable-background="new" fill="url(#e)" opacity=".70357"/><path d="m-202 56v88l24-40v-24z" color="#000000" display="block" enable-background="new" fill="url(#d)" filter="url(#g)" opacity=".70357"/><path d="m-178 104-24 37 5 4z" color="#000000" display="block" enable-background="new" fill="url(#c)" filter="url(#h)"/><path transform="matrix(-1 0 0 1 -320 6.0349e-7)" d="m-178 104-24 37 5 4z" color="#000000" display="block" enable-background="new" fill="url(#b)" filter="url(#i)" opacity=".825" stroke="#888a85" stroke-width="1.0251"/><rect x="-202" y="56" width="84" height="88" rx="10.249" ry="10.253" color="#000000" display="block" enable-background="new" fill="none" filter="url(#l)" stroke="url(#a)" stroke-width="1.0251"/></g><rect transform="scale(-1,1)" x="130" y="68" width="60" height="56" rx="5.1245" ry="5.1263" color="#000000" display="block" enable-background="new" fill="url(#o)" stroke="url(#p)" stroke-width="2.0502"/></g><g transform="matrix(.60427 0 0 .60406 298.24 73.736)"><g clip-path="url(#n)"><rect x="-202" y="56" width="84" height="88" rx="10.249" ry="10.253" color="#000000" display="block" enable-background="new" fill="url(#f)"/><path transform="matrix(-1 0 0 1 -320.33 4.5198e-6)" d="m-203.07 47.457c-9.6825 0-7.4774-2.2051-7.4774 7.4774l30.973 22.234c0-4.8412-6.1025 1.2613-1.2613 1.2613z" color="#000000" display="block" enable-background="new" fill="#fff" filter="url(#j)"/><path d="m-203.07 47.457c-9.6825 0-7.4774-2.2051-7.4774 7.4774l30.973 22.234c0-4.8412-6.1025 1.2613-1.2613 1.2613z" color="#000000" display="block" enable-background="new" fill="#fff" filter="url(#k)"/><path d="m-202 56 24 24h36l24-24z" color="#000000" display="block" enable-background="new" fill="url(#e)" opacity=".70357"/><path d="m-202 56v88l24-40v-24z" color="#000000" display="block" enable-background="new" fill="url(#d)" filter="url(#g)" opacity=".70357"/><path d="m-178 104-24 37 5 4z" color="#000000" display="block" enable-background="new" fill="url(#c)" filter="url(#h)"/><path transform="matrix(-1 0 0 1 -320 6.0349e-7)" d="m-178 104-24 37 5 4z" color="#000000" display="block" enable-background="new" fill="url(#b)" filter="url(#i)" opacity=".825" stroke="#888a85" stroke-width="1.0251"/><rect x="-202" y="56" width="84" height="88" rx="10.249" ry="10.253" color="#000000" display="block" enable-background="new" fill="none" filter="url(#l)" stroke="url(#a)" stroke-width="1.0251"/></g><rect transform="scale(-1,1)" x="130" y="68" width="60" height="56" rx="5.1245" ry="5.1263" color="#000000" display="block" enable-background="new" fill="url(#o)" stroke="url(#p)" stroke-width="2.0502"/></g><g transform="matrix(.60427 0 0 .60406 181.16 132.26)"><g clip-path="url(#n)"><rect x="-202" y="56" width="84" height="88" rx="10.249" ry="10.253" color="#000000" display="block" enable-background="new" fill="url(#f)"/><path transform="matrix(-1 0 0 1 -320.33 4.5198e-6)" d="m-203.07 47.457c-9.6825 0-7.4774-2.2051-7.4774 7.4774l30.973 22.234c0-4.8412-6.1025 1.2613-1.2613 1.2613z" color="#000000" display="block" enable-background="new" fill="#fff" filter="url(#j)"/><path d="m-203.07 47.457c-9.6825 0-7.4774-2.2051-7.4774 7.4774l30.973 22.234c0-4.8412-6.1025 1.2613-1.2613 1.2613z" color="#000000" display="block" enable-background="new" fill="#fff" filter="url(#k)"/><path d="m-202 56 24 24h36l24-24z" color="#000000" display="block" enable-background="new" fill="url(#e)" opacity=".70357"/><path d="m-202 56v88l24-40v-24z" color="#000000" display="block" enable-background="new" fill="url(#d)" filter="url(#g)" opacity=".70357"/><path d="m-178 104-24 37 5 4z" color="#000000" display="block" enable-background="new" fill="url(#c)" filter="url(#h)"/><path transform="matrix(-1 0 0 1 -320 6.0349e-7)" d="m-178 104-24 37 5 4z" color="#000000" display="block" enable-background="new" fill="url(#b)" filter="url(#i)" opacity=".825" stroke="#888a85" stroke-width="1.0251"/><rect x="-202" y="56" width="84" height="88" rx="10.249" ry="10.253" color="#000000" display="block" enable-background="new" fill="none" filter="url(#l)" stroke="url(#a)" stroke-width="1.0251"/></g><rect transform="scale(-1,1)" x="130" y="68" width="60" height="56" rx="5.1245" ry="5.1263" color="#000000" display="block" enable-background="new" fill="url(#o)" stroke="url(#p)" stroke-width="2.0502"/></g><g transform="matrix(.60427 0 0 .60406 239.7 132.26)"><g clip-path="url(#n)"><rect x="-202" y="56" width="84" height="88" rx="10.249" ry="10.253" color="#000000" display="block" enable-background="new" fill="url(#f)"/><path transform="matrix(-1 0 0 1 -320.33 4.5198e-6)" d="m-203.07 47.457c-9.6825 0-7.4774-2.2051-7.4774 7.4774l30.973 22.234c0-4.8412-6.1025 1.2613-1.2613 1.2613z" color="#000000" display="block" enable-background="new" fill="#fff" filter="url(#j)"/><path d="m-203.07 47.457c-9.6825 0-7.4774-2.2051-7.4774 7.4774l30.973 22.234c0-4.8412-6.1025 1.2613-1.2613 1.2613z" color="#000000" display="block" enable-background="new" fill="#fff" filter="url(#k)"/><path d="m-202 56 24 24h36l24-24z" color="#000000" display="block" enable-background="new" fill="url(#e)" opacity=".70357"/><path d="m-202 56v88l24-40v-24z" color="#000000" display="block" enable-background="new" fill="url(#d)" filter="url(#g)" opacity=".70357"/><path d="m-178 104-24 37 5 4z" color="#000000" display="block" enable-background="new" fill="url(#c)" filter="url(#h)"/><path transform="matrix(-1 0 0 1 -320 6.0349e-7)" d="m-178 104-24 37 5 4z" color="#000000" display="block" enable-background="new" fill="url(#b)" filter="url(#i)" opacity=".825" stroke="#888a85" stroke-width="1.0251"/><rect x="-202" y="56" width="84" height="88" rx="10.249" ry="10.253" color="#000000" display="block" enable-background="new" fill="none" filter="url(#l)" stroke="url(#a)" stroke-width="1.0251"/></g><rect transform="scale(-1,1)" x="130" y="68" width="60" height="56" rx="5.1245" ry="5.1263" color="#000000" display="block" enable-background="new" fill="url(#o)" stroke="url(#p)" stroke-width="2.0502"/></g><g transform="matrix(.60427 0 0 .60406 298.24 132.26)"><g clip-path="url(#n)"><rect x="-202" y="56" width="84" height="88" rx="10.249" ry="10.253" color="#000000" display="block" enable-background="new" fill="url(#f)"/><path transform="matrix(-1 0 0 1 -320.33 4.5198e-6)" d="m-203.07 47.457c-9.6825 0-7.4774-2.2051-7.4774 7.4774l30.973 22.234c0-4.8412-6.1025 1.2613-1.2613 1.2613z" color="#000000" display="block" enable-background="new" fill="#fff" filter="url(#j)"/><path d="m-203.07 47.457c-9.6825 0-7.4774-2.2051-7.4774 7.4774l30.973 22.234c0-4.8412-6.1025 1.2613-1.2613 1.2613z" color="#000000" display="block" enable-background="new" fill="#fff" filter="url(#k)"/><path d="m-202 56 24 24h36l24-24z" color="#000000" display="block" enable-background="new" fill="url(#e)" opacity=".70357"/><path d="m-202 56v88l24-40v-24z" color="#000000" display="block" enable-background="new" fill="url(#d)" filter="url(#g)" opacity=".70357"/><path d="m-178 104-24 37 5 4z" color="#000000" display="block" enable-background="new" fill="url(#c)" filter="url(#h)"/><path transform="matrix(-1 0 0 1 -320 6.0349e-7)" d="m-178 104-24 37 5 4z" color="#000000" display="block" enable-background="new" fill="url(#b)" filter="url(#i)" opacity=".825" stroke="#888a85" stroke-width="1.0251"/><rect x="-202" y="56" width="84" height="88" rx="10.249" ry="10.253" color="#000000" display="block" enable-background="new" fill="none" filter="url(#l)" stroke="url(#a)" stroke-width="1.0251"/></g><rect transform="scale(-1,1)" x="130" y="68" width="60" height="56" rx="5.1245" ry="5.1263" color="#000000" display="block" enable-background="new" fill="url(#o)" stroke="url(#p)" stroke-width="2.0502"/></g><g transform="matrix(.60427 0 0 .60406 239.7 190.78)"><g clip-path="url(#n)"><rect x="-202" y="56" width="84" height="88" rx="10.249" ry="10.253" color="#000000" display="block" enable-background="new" fill="url(#f)"/><path transform="matrix(-1 0 0 1 -320.33 4.5198e-6)" d="m-203.07 47.457c-9.6825 0-7.4774-2.2051-7.4774 7.4774l30.973 22.234c0-4.8412-6.1025 1.2613-1.2613 1.2613z" color="#000000" display="block" enable-background="new" fill="#fff" filter="url(#j)"/><path d="m-203.07 47.457c-9.6825 0-7.4774-2.2051-7.4774 7.4774l30.973 22.234c0-4.8412-6.1025 1.2613-1.2613 1.2613z" color="#000000" display="block" enable-background="new" fill="#fff" filter="url(#k)"/><path d="m-202 56 24 24h36l24-24z" color="#000000" display="block" enable-background="new" fill="url(#e)" opacity=".70357"/><path d="m-202 56v88l24-40v-24z" color="#000000" display="block" enable-background="new" fill="url(#d)" filter="url(#g)" opacity=".70357"/><path d="m-178 104-24 37 5 4z" color="#000000" display="block" enable-background="new" fill="url(#c)" filter="url(#h)"/><path transform="matrix(-1 0 0 1 -320 6.0349e-7)" d="m-178 104-24 37 5 4z" color="#000000" display="block" enable-background="new" fill="url(#b)" filter="url(#i)" opacity=".825" stroke="#888a85" stroke-width="1.0251"/><rect x="-202" y="56" width="84" height="88" rx="10.249" ry="10.253" color="#000000" display="block" enable-background="new" fill="none" filter="url(#l)" stroke="url(#a)" stroke-width="1.0251"/></g><rect transform="scale(-1,1)" x="130" y="68" width="60" height="56" rx="5.1245" ry="5.1263" color="#000000" display="block" enable-background="new" fill="url(#o)" stroke="url(#p)" stroke-width="2.0502"/></g><path d="m206.94 66.156c-2.28 0-4.271 0.698-5.375 1.25l-0.375 0.1875 1 2.4375 0.46875-0.1875c1.752-0.768 3.16-0.9375 4-0.9375 1.944 0 3.1875 0.742 3.1875 1.75 0 0.84-0.934 2.1562-4.75 2.1562h-0.53125v2.6562h0.53125c4.656 0 5.5938 1.593 5.5938 2.625 0 1.584-2.0832 2.625-4.5312 2.625-0.864 0-1.96-0.12825-4-0.65625l-0.4375-0.125-0.875 2.5 0.4375 0.15625c1.584 0.648 3.2358 0.9375 4.8438 0.9375 4.584 0 7.5625-2.3325 7.5625-5.8125 0-1.608-0.7145-3.059-2.5625-3.875 1.152-0.768 1.8438-2.036 1.8438-3.5 0-2.448-2.4312-4.1875-6.0312-4.1875zm-58.812 0.0625c-2.328 0-4.44 0.5155-6 1.1875l-0.40625 0.1875 0.875 2.4062 0.46875-0.15625c2.04-0.696 3.4322-0.9375 4.6562-0.9375 2.16 0 3.75 1.1053 3.75 2.2812 0 2.28-6.9148 3.5373-9.2188 10.281v1.5312h12.562v-2.7188h-8.75c2.472-4.632 8.4375-5.5378 8.4375-9.5938 0-2.472-2.367-4.4688-6.375-4.4688zm-59.875 0.125-4.3125 1.5312 1.125 2.4375 3.1562-1.0625v11.031h-4.1875v2.7188h11.594v-2.7188h-4.0312v-13.938zm122.5 58.875c-5.4 0-10.031 2.1855-10.031 9.9375 0 5.976 3.639 7.125 6.375 7.125 4.224 0 6.75-2.8202 6.75-6.1562 0-3.24-2.3738-5.5312-6.0938-5.5312-1.392 0-2.6098 0.35425-3.5938 0.90625 0.576-1.8 2.0722-3.5625 6.6562-3.5625 0.432 0 0.81075 0.0145 1.2188 0.0625l0.5 0.0312 0.21875-2.6875-0.46875-0.0625c-0.504-0.048-0.97925-0.0625-1.5312-0.0625zm-120.69 0.125-7.4375 11.25v1.8438h8.5312v3.5625h2.875v-3.5625h2.9062v-2.6875h-2.9062v-10.406zm52.375 0v8.75l0.5-0.0625c1.824-0.216 3.059-0.25 3.875-0.25 4.032 0 5.0625 1.7638 5.0625 2.8438 0 1.128-0.93725 2.8438-5.2812 2.8438-1.488 0-2.9128-0.159-3.9688-0.375l-0.46875-0.09375-0.5625 2.7188 0.46875 0.0937c1.344 0.264 2.8875 0.4375 4.6875 0.4375 6.696 0 8.1875-3.4772 8.1875-5.7812 0-2.16-1.375-5.4688-7.375-5.4688-0.792 0-1.5875 0.0457-2.1875 0.0937v-3.0312h9v-2.7188h-11.938zm-51.625 3.6562v6.75h-4.5312zm116.41 4.1875c1.944 0 3.75 1.2122 3.75 3.1562 0 1.824-1.6258 3.3438-3.5938 3.3438-2.16 0-3.75-1.772-3.75-3.5 0-1.776 1.6018-3 3.5938-3zm0.28125 49.906c-4.104 0-6.8125 2.7142-6.8125 5.9062 0 3.072 2.5082 5.3438 6.1562 5.3438 1.2 0 2.4585-0.275 3.5625-0.875-0.48 2.04-1.6642 4-6.6562 4-0.432 0-0.81075-0.0145-1.2188-0.0625l-0.5-0.0312-0.21875 2.6875 0.46875 0.0312c0.504 0.048 0.948 0.0625 1.5 0.0625 5.4 0 10.062-2.1638 10.062-9.8438 0-6-3.6318-7.2188-6.3438-7.2188zm-59.312 0.0312c-3.72 0-5.8125 1.922-5.8125 4.25 0 0.84 0.32225 2.295 1.9062 3.375-1.704 1.032-2.8438 2.7168-2.8438 4.4688 0 2.976 2.915 5.0312 6.875 5.0312 4.488 0 6.7812-2.658 6.7812-5.25 0-1.68-0.883-3.2325-2.875-4.3125 1.224-0.96 1.9375-1.93 1.9375-3.25 0-2.616-1.8648-4.3125-5.9688-4.3125zm-65.438 0.21875v2.8438h10.219l-8.4688 13.813h3.4062l8.9062-14.906v-1.75h-14.062zm124.47 2.375c2.064 0 3.7188 1.7308 3.7188 3.2188 0 1.512-1.6018 2.8125-3.5938 2.8125-1.968 0-3.75-1.2815-3.75-2.9375 0-1.536 1.705-3.0938 3.625-3.0938zm-59.031 0.0625c1.56 0 2.9375 0.64875 2.9375 1.9688 0 0.792-0.7285 1.3308-2.3125 2.2188-1.392-0.384-3.375-0.97575-3.375-2.3438 0-0.912 1.118-1.8438 2.75-1.8438zm-0.3125 5.7188c2.256 0.576 4.1562 1.455 4.1562 3.375 0 1.416-1.3138 2.625-3.5938 2.625-2.52 0-3.9688-1.3268-3.9688-2.7188 0-1.296 1.2462-2.6812 3.4062-3.2812zm0.375 50.625c-3.072 0-7.2812 1.8878-7.2812 8.3438 0 6.744 4.1925 8.7812 7.3125 8.7812 3.096 0 7.25-1.982 7.25-8.75 0-6.48-4.1852-8.375-7.2812-8.375zm0 2.75c1.752 0 4.3438 1.2955 4.3438 5.6875 0 4.632-2.5845 5.9375-4.3125 5.9375-1.752 0-4.3438-1.3272-4.3438-6.0312 0-4.32 2.5845-5.5938 4.3125-5.5938z" color="#000000" enable-background="accumulate" fill="#fff" filter="url(#z)" opacity=".39957"/><path d="m206.94 67.156c-2.28 0-4.271 0.698-5.375 1.25l-0.375 0.1875 1 2.4375 0.46875-0.1875c1.752-0.768 3.16-0.9375 4-0.9375 1.944 0 3.1875 0.742 3.1875 1.75 0 0.84-0.934 2.1562-4.75 2.1562h-0.53125v2.6562h0.53125c4.656 0 5.5938 1.593 5.5938 2.625 0 1.584-2.0832 2.625-4.5312 2.625-0.864 0-1.96-0.12825-4-0.65625l-0.4375-0.125-0.875 2.5 0.4375 0.15625c1.584 0.648 3.2358 0.9375 4.8438 0.9375 4.584 0 7.5625-2.3325 7.5625-5.8125 0-1.608-0.7145-3.059-2.5625-3.875 1.152-0.768 1.8438-2.036 1.8438-3.5 0-2.448-2.4312-4.1875-6.0312-4.1875zm-58.812 0.0625c-2.328 0-4.44 0.5155-6 1.1875l-0.40625 0.1875 0.875 2.4062 0.46875-0.15625c2.04-0.696 3.4322-0.9375 4.6562-0.9375 2.16 0 3.75 1.1053 3.75 2.2812 0 2.28-6.9148 3.5373-9.2188 10.281v1.5312h12.562v-2.7188h-8.75c2.472-4.632 8.4375-5.5378 8.4375-9.5938 0-2.472-2.367-4.4688-6.375-4.4688zm-59.875 0.125-4.3125 1.5312 1.125 2.4375 3.1562-1.0625v11.031h-4.1875v2.7188h11.594v-2.7188h-4.0312v-13.938zm122.5 58.875c-5.4 0-10.031 2.1855-10.031 9.9375 0 5.976 3.639 7.125 6.375 7.125 4.224 0 6.75-2.8202 6.75-6.1562 0-3.24-2.3738-5.5312-6.0938-5.5312-1.392 0-2.6098 0.35425-3.5938 0.90625 0.576-1.8 2.0722-3.5625 6.6562-3.5625 0.432 0 0.81075 0.0145 1.2188 0.0625l0.5 0.0312 0.21875-2.6875-0.46875-0.0625c-0.504-0.048-0.97925-0.0625-1.5312-0.0625zm-120.69 0.125-7.4375 11.25v1.8438h8.5312v3.5625h2.875v-3.5625h2.9062v-2.6875h-2.9062v-10.406zm52.375 0v8.75l0.5-0.0625c1.824-0.216 3.059-0.25 3.875-0.25 4.032 0 5.0625 1.7638 5.0625 2.8438 0 1.128-0.93725 2.8438-5.2812 2.8438-1.488 0-2.9128-0.159-3.9688-0.375l-0.46875-0.09375-0.5625 2.7188 0.46875 0.0937c1.344 0.264 2.8875 0.4375 4.6875 0.4375 6.696 0 8.1875-3.4772 8.1875-5.7812 0-2.16-1.375-5.4688-7.375-5.4688-0.792 0-1.5875 0.0457-2.1875 0.0937v-3.0312h9v-2.7188zm-51.625 3.6562v6.75h-4.5312zm116.41 4.1875c1.944 0 3.75 1.2122 3.75 3.1562 0 1.824-1.6258 3.3438-3.5938 3.3438-2.16 0-3.75-1.772-3.75-3.5 0-1.776 1.6018-3 3.5938-3zm0.28125 49.906c-4.104 0-6.8125 2.7142-6.8125 5.9062 0 3.072 2.5082 5.3438 6.1562 5.3438 1.2 0 2.4585-0.275 3.5625-0.875-0.48 2.04-1.6642 4-6.6562 4-0.432 0-0.81075-0.0145-1.2188-0.0625l-0.5-0.0312-0.21875 2.6875 0.46875 0.0312c0.504 0.048 0.948 0.0625 1.5 0.0625 5.4 0 10.062-2.1638 10.062-9.8438 0-6-3.6318-7.2188-6.3438-7.2188zm-59.312 0.0312c-3.72 0-5.8125 1.922-5.8125 4.25 0 0.84 0.32225 2.295 1.9062 3.375-1.704 1.032-2.8438 2.7168-2.8438 4.4688 0 2.976 2.915 5.0312 6.875 5.0312 4.488 0 6.7812-2.658 6.7812-5.25 0-1.68-0.883-3.2325-2.875-4.3125 1.224-0.96 1.9375-1.93 1.9375-3.25 0-2.616-1.8648-4.3125-5.9688-4.3125zm-65.438 0.2188v2.8438h10.219l-8.4688 13.812h3.4062l8.9062-14.906v-1.75zm124.47 2.375c2.064 0 3.7188 1.7308 3.7188 3.2188 0 1.512-1.6018 2.8125-3.5938 2.8125-1.968 0-3.75-1.2815-3.75-2.9375 0-1.536 1.705-3.0938 3.625-3.0938zm-59.031 0.0625c1.56 0 2.9375 0.64875 2.9375 1.9688 0 0.792-0.7285 1.3308-2.3125 2.2188-1.392-0.384-3.375-0.97575-3.375-2.3438 0-0.912 1.118-1.8438 2.75-1.8438zm-0.3125 5.7188c2.256 0.576 4.1562 1.455 4.1562 3.375 0 1.416-1.3138 2.625-3.5938 2.625-2.52 0-3.9688-1.3268-3.9688-2.7188 0-1.296 1.2462-2.6812 3.4062-3.2812zm0.375 50.625c-3.072 0-7.2812 1.8878-7.2812 8.3438 0 6.744 4.1925 8.7812 7.3125 8.7812 3.096 0 7.25-1.982 7.25-8.75 0-6.48-4.1852-8.375-7.2812-8.375zm0 2.75c1.752 0 4.3438 1.2955 4.3438 5.6875 0 4.632-2.5845 5.9375-4.3125 5.9375-1.752 0-4.3438-1.3272-4.3438-6.0312 0-4.32 2.5845-5.5938 4.3125-5.5938z" color="#000000" enable-background="accumulate" fill="url(#x)"/></g></g></svg>
