<?xml version="1.0" encoding="UTF-8"?>
<svg enable-background="new" version="1.0" viewBox="0 0 256 256" xmlns="http://www.w3.org/2000/svg" xmlns:xlink="http://www.w3.org/1999/xlink"><defs><linearGradient id="c"><stop offset="0"/><stop stop-opacity="0" offset="1"/></linearGradient><linearGradient id="d"><stop stop-color="#627272" offset="0"/><stop stop-color="#1d2222" offset="1"/></linearGradient><linearGradient id="e"><stop stop-color="#fff" offset="0"/><stop stop-color="#fff" stop-opacity="0" offset="1"/></linearGradient><radialGradient id="p" cx="117.08" cy="127.93" r="60.606" gradientTransform="matrix(2.32 0 0 1.3676 -154.55 -59.834)" gradientUnits="userSpaceOnUse"><stop stop-color="#f2f2f2" offset="0"/><stop stop-color="#c1c1c1" offset="1"/></radialGradient><radialGradient id="o" cx="-155.74" cy="245.77" r="21.263" gradientTransform="matrix(1.5387 .23515 -.060938 .59577 374.87 136.97)" gradientUnits="userSpaceOnUse"><stop stop-color="#f2f2f2" offset="0"/><stop stop-color="#f2f2f2" stop-opacity="0" offset="1"/></radialGradient><radialGradient id="n" cx="96.249" cy="170.73" r="14.519" gradientTransform="matrix(1.8638 0 0 11.819 -79.664 -1785.2)" gradientUnits="userSpaceOnUse" xlink:href="#c"/><radialGradient id="m" cx="96.249" cy="170.73" r="14.519" gradientTransform="matrix(-1.8638 0 0 11.819 368.24 -1785.2)" gradientUnits="userSpaceOnUse" xlink:href="#c"/><filter id="x" x="-.073635" y="-.10764" width="1.1473" height="1.2153"><feGaussianBlur stdDeviation="0.98673461"/></filter><radialGradient id="l" cx="155.95" cy="131.4" r="1.25" gradientTransform="matrix(10.905 0 0 28.637 -1544 -3615.6)" gradientUnits="userSpaceOnUse" xlink:href="#e"/><filter id="w" x="-.55668" y="-.17579" width="2.1134" height="1.3516"><feGaussianBlur stdDeviation="0.6958502"/></filter><filter id="v" x="-.96172" y="-.18891" width="2.9234" height="1.3778"><feGaussianBlur stdDeviation="1.1019737"/></filter><filter id="u" x="-.53198" y="-.26599" width="2.064" height="1.532"><feGaussianBlur stdDeviation="1.2191296"/></filter><radialGradient id="k" cx="75.903" cy="187.11" r="31.462" gradientTransform="matrix(.99841 .056423 -.059362 1.0504 11.228 -13.717)" gradientUnits="userSpaceOnUse"><stop stop-color="#fff" offset="0"/><stop stop-color="#c7c7be" offset="1"/></radialGradient><radialGradient id="j" cx="-136.65" cy="164.06" r="2.2981" gradientUnits="userSpaceOnUse"><stop stop-color="#fff20d" offset="0"/><stop stop-color="#b10000" offset="1"/></radialGradient><radialGradient id="i" cx="155.95" cy="131.4" r="1.25" gradientTransform="matrix(-27.262 0 0 28.637 4385.7 -3615.6)" gradientUnits="userSpaceOnUse" xlink:href="#e"/><radialGradient id="h" cx="108.33" cy="180.69" r="31.872" gradientTransform="matrix(-.99948 -.032179 -.031375 .97454 294.25 64.917)" gradientUnits="userSpaceOnUse" xlink:href="#d"/><filter id="t" x="-.2443" y="-.40688" width="1.4886" height="1.8138"><feGaussianBlur stdDeviation="4.3286586"/></filter><clipPath id="y"><path d="m-134.89 65.734v13.496h1.2825v-13.408c0.20546 0 0.40712-0.0011 0.61211 0-0.63799-0.03401-1.2508-0.07084-1.8363-0.08745-0.0187-5.36e-4 -0.0387-4.4e-5 -0.0583 0zm49.697 24.047c1.5746 2.6639 3.0336 5.5919 4.3431 8.8319 4.2015 10.395 2.3083 23.342-0.32063 35.736-4.305 43.946-21.103 113.79-21.103 113.79-0.2692 0.18128-0.54503 0.34887-0.81615 0.52466 15.803-8.4497 27.283-23.683 27.283-45.384 0-12.694-5.4966-33.315-5.9462-50.135-0.18248-6.827 1.3408-20.433 1.3408-20.433 2.3084-10.882 3.5953-23.017 0-33.637-1.0511-3.105-2.7271-6.2631-4.7803-9.2982zm-101.7 3.5561c-1.0583 1.9089-1.9483 3.8342-2.5942 5.7422 0.72762-1.911 1.5932-3.8302 2.5942-5.7422zm-4.4305 27.836c0.0553 0.54755 0.10925 1.0864 0.17488 1.6323-0.0667-0.54584-0.11837-1.089-0.17488-1.6323zm0.17488 1.6323c0.0881 0.73239 0.18655 1.458 0.29148 2.1861-0.10471-0.72698-0.20315-1.463-0.29148-2.1861zm1.6614 9.9978c0.0282 0.25782 1.4924 13.584 1.3117 20.345-0.44957 16.819-6.2852 37.445-5.9462 50.135 0.61851 23.152 12.841 38.55 29.206 46.579-1.0598-0.54562-2.1129-1.1215-3.148-1.7197 0 0-16.798-69.848-21.103-113.79-0.10967-0.51701-0.21546-1.0283-0.32063-1.5448z" color="#000000" enable-background="accumulate" fill="url(#g)"/></clipPath><radialGradient id="g" cx="108.33" cy="180.69" r="31.872" gradientTransform="matrix(-.93225 -.030014 -.029265 .90899 4.9 63.062)" gradientUnits="userSpaceOnUse" xlink:href="#d"/><radialGradient id="b" cx="-84.348" cy="213.31" r="14.016" gradientTransform="matrix(-.98253 .18608 1.0648 5.6223 -495.09 -950.99)" gradientUnits="userSpaceOnUse" xlink:href="#c"/><filter id="s"><feGaussianBlur stdDeviation="2.3477026"/></filter><filter id="r" x="-.19035" y="-.11808" width="1.3807" height="1.2362"><feGaussianBlur stdDeviation="10.061583"/></filter><linearGradient id="q" x1="144.64" x2="144.64" y1="107.6" y2="85.6" gradientUnits="userSpaceOnUse"><stop stop-color="#6d7375" offset="0"/><stop stop-color="#2a2d2d" offset=".32955"/><stop stop-color="#595f60" offset="1"/></linearGradient><radialGradient id="f" cx="144.73" cy="128.4" r="12.859" gradientTransform="matrix(2.0102 .067723 -.099456 2.9522 -133.52 -273.92)" gradientUnits="userSpaceOnUse"><stop stop-color="#212324" offset="0"/><stop stop-color="#090909" offset="1"/></radialGradient><radialGradient id="a" cx="-84.348" cy="213.31" r="14.016" gradientTransform="matrix(.98253 .18608 -1.0648 5.6223 225.66 -950.99)" gradientUnits="userSpaceOnUse" xlink:href="#c"/></defs><g transform="translate(-16,-37)"><g transform="translate(0,-10)"><path d="m144.19 73.781c-10.044 0.28489-27.753 2.88-38.188 10.281-8.2286 5.8368-16.921 15.913-20.156 25.469-3.8546 11.386-2.4749 24.395 0 36.062 0 0 1.6019 14.587 1.4062 21.906-0.48198 18.032-6.7384 40.146-6.375 53.75 2.083 77.973 126.84 74.09 126.84 0 0-13.609-5.893-35.718-6.375-53.75-0.19564-7.3194 1.4375-21.906 1.4375-21.906 2.4749-11.667 3.8546-24.676 0-36.062-3.235-9.5558-11.928-19.632-20.156-25.469-10.434-7.4013-28.143-9.9964-38.188-10.281-0.0803-0.0023-0.17071 2e-3 -0.25 0z" color="#000000" enable-background="accumulate" filter="url(#r)" opacity=".71193"/><path d="m144.19 71.781c-10.044 0.28489-27.753 2.88-38.188 10.281-8.2286 5.8368-16.921 15.913-20.156 25.469-3.8546 11.386-2.4749 24.395 0 36.062 0 0 1.6019 14.587 1.4062 21.906-0.48198 18.032-6.7384 40.146-6.375 53.75 2.083 77.973 126.84 74.09 126.84 0 0-13.609-5.893-35.718-6.375-53.75-0.19564-7.3194 1.4375-21.906 1.4375-21.906 2.4749-11.667 3.8546-24.676 0-36.062-3.235-9.5558-11.928-19.632-20.156-25.469-10.434-7.4013-28.143-9.9964-38.188-10.281-0.0803-0.0023-0.17071 2e-3 -0.25 0z" color="#000000" enable-background="accumulate" filter="url(#s)"/><path d="m144.19 67.781c-10.044 0.28489-27.753 2.88-38.188 10.281-8.2286 5.8368-16.921 15.913-20.156 25.469-3.8546 11.386-2.4749 24.395 0 36.062 0 0 1.6019 14.587 1.4062 21.906-0.48198 18.032-6.7384 40.146-6.375 53.75 2.083 77.973 126.84 74.09 126.84 0 0-13.609-5.893-35.718-6.375-53.75-0.19564-7.3194 1.4375-21.906 1.4375-21.906 2.4749-11.667 3.8546-24.676 0-36.062-3.235-9.5558-11.928-19.632-20.156-25.469-10.434-7.4013-28.143-9.9964-38.188-10.281-0.0803-0.0023-0.17071 2e-3 -0.25 0z" color="#000000" enable-background="accumulate" fill="url(#h)"/><path d="m85.844 103.28c-4.1656 11.276-2.5654 24.581-0.90625 38.062 5.7828 46.986 23.875 122 23.875 122 21.823 12.613 49.059 14.459 70.531 0 0 0 14.51-75.45 23.125-122 2.3483-12.688 4.5982-27.168 0.0937-38.312-11.387-28.175-32.803-35.333-56.812-35.333v14.552h-1.375v-14.5c-35.473 0-52.121 18.179-58.531 35.531z" color="#000000" enable-background="accumulate" fill="url(#p)"/><rect x="132.29" y="79.461" width="25.717" height="106.44" rx="12.859" ry="12.859" color="#000000" enable-background="accumulate" fill="url(#f)"/><path d="m145.25 82.004c-3.8698 0-7.0273 3.1575-7.0273 7.0273v14.125c0 3.8698 3.1575 7.0273 7.0273 7.0273s7.0273-3.1575 7.0273-7.0273v-14.125c0-3.8698-3.1575-7.0273-7.0273-7.0273z" color="#000000" enable-background="accumulate"/><rect x="139.58" y="83.372" width="11.314" height="25.456" rx="5.6569" ry="5.6569" color="#000000" enable-background="accumulate" fill="url(#q)" opacity=".71193"/><circle transform="translate(281.75,10)" cx="-136.65" cy="164.06" r="2.2981" color="#000000" enable-background="accumulate" fill="url(#j)" opacity=".71193"/><path d="m116.24 267.22s-2.1213-4.9498-4.5962-14.849l-21.567-111.72c-7.0711-35.709 9.6317-56.569 9.6317-56.569" color="#000000" enable-background="accumulate" fill="none" opacity=".71193" stroke="url(#n)"/><path transform="matrix(1.2224 0 0 1 -21.742 8)" d="m99 234 3 15s15.99 11.213 25 10.5c5.671-0.44856 13.965-3.3365 14.5-9 0.53216-5.6367-7.4129-9.0147-12.5-11.5-9.109-4.4502-30-5-30-5z" color="#000000" enable-background="accumulate" fill="url(#o)" filter="url(#t)" opacity=".6214"/><path d="m172.34 267.22s2.1213-4.9498 4.5962-14.849l21.567-119.72c4.8211-34.459-9.6317-48.569-9.6317-48.569" color="#000000" enable-background="accumulate" fill="none" opacity=".71193" stroke="url(#m)"/><path d="m148.5 274c2-0.5 23.14-0.6921 30-8.5 3.0027-3.4174 2-13.5 2-13.5-8.3568 10.413-19.665 16.891-32 22z" color="#000000" enable-background="accumulate" fill="#fff" filter="url(#x)" opacity=".34156"/><path d="m155.25 119.96c0.35-4.2 1.75-4.4625 1.75-4.4625v54.725s-1.75-1.75-1.75-5.8625z" color="#000000" enable-background="accumulate" fill="url(#l)" opacity=".88066"/><path d="m141.25 88.5v5.5l2.75-4 0.25-5.5s-2.5 2-3 4z" color="#000000" enable-background="accumulate" fill="#fff" filter="url(#w)" opacity=".54321"/><path d="m147.5 86.25c0 1.25-0.5 6.5-0.5 6.5l2.75 7.5-0.5-11.5z" color="#000000" enable-background="accumulate" fill="#fff" filter="url(#v)" opacity=".35391"/><path d="m145.5 96.75-1.75 10.75 2 0.25 3.5-2.5z" color="#000000" enable-background="accumulate" fill="#fff" filter="url(#u)" opacity=".17284"/><g transform="matrix(0 .53543 -.53543 0 244.88 97.084)" fill="#eeeeec"><path d="m46.219 182.31c-0.60021 2.9044-3.1912 7.5612-0.74676 9.5899 2.3776-1.1437 1.09-6.9562 3.4528-2.7853 2.5877 0.57804 3.7723-4.3299 2.5995 0.0146-0.69898 4.4082 3.2738 2.0506 2.7478-0.83419 2.0276-2.9176 0.09778-9.2903-2.7686-4.0032-3.0019 5.5003-1.3907-3.7925-5.2847-1.9818zm31.625 0.90625c-2.4611 2.5922-3.0148 9.9565 2.3115 8.4174 2.1273-1.9944-3.4359-2.1385-0.49203-4.3999 4.5835 0.0246-0.14877-4.4048-1.8195-4.0174zm-18.625 1.5625c-5.2502-0.77779-5.7442 9.0096 0.10158 6.9288 3.3701-1.0813 4.4644-6.9102-0.10158-6.9288zm7.7812 0c-4.2305-1.7044-6.6202 5.9488-3.2984 6.9103 1.286-0.39965 1.3204-6.5664 2.9601-3.3587-2.4061 3.1362 2.7066 4.9822 2.3079 0.68258 0.49522-1.639 0.45531-4.478-1.9696-4.2342zm6.8125 0c-3.2051-1.2912-5.2808 4.7368-1.3476 4.7125-5.0636-1.2183-2.6191 4.3187 1.0109 2.1228 3.3599-0.72159 1.2535-4.0051 0.18146-4.6468 2.8058 1.1839 3.0003-2.9877 0.15523-2.1886zm11.625 0c-4.1041-2.0088-6.2444 7.506-2.5958 6.7094 0.91936-2.1071 1.1306-5.285 3.9756-4.7245 0.89821-1.0242-0.14072-2.3567-1.3798-1.9849zm5.2188 0c-5.2502-0.77779-5.7442 9.0096 0.10158 6.9288 3.3701-1.0813 4.4644-6.9102-0.10158-6.9288zm14.688 0c-3.1976-1.2894-5.3266 4.7221-1.3788 4.7125-5.0855-1.2144-2.5914 4.3387 1.0336 2.1179 3.3819-0.73389 1.2012-4.0243 0.17362-4.6414 2.7842 1.2048 2.9991-2.9731 0.17157-2.189zm-10.344 0.125c-4.0547 3.902 2.3297 10.594 5.339 5.0905 1.0548-2.022 0.47782-7.8116-1.7634-3.8145 0.31689 2.4122-2.713 4.8454-1.9103 1.0287 0.67611-1.3542 0.1651-2.9487-1.6653-2.3047zm-36.125 2.1562c3.3339 1.7757-4.1713 3.2756-0.65472 0.16205zm31.438 0c3.3339 1.7757-4.1713 3.2756-0.65472 0.16205z" fill="url(#k)"/></g><path d="m134.5 119.96c-0.875-4.2-1.25-4.4625-1.25-4.4625v54.725s1.25-1.75 1.25-5.8625z" color="#000000" enable-background="accumulate" fill="url(#i)" opacity=".57613"/><path d="m116.95 267.22s-2.1213-4.9498-4.5962-14.849l-21.567-111.72c-7.0711-35.709 9.6317-56.569 9.6317-56.569" color="#000000" enable-background="accumulate" fill="none" opacity=".71193" stroke="#fff" stroke-width=".5"/><g transform="matrix(1.0721 0 0 1.0721 288.99 -2.6927)" clip-path="url(#y)" fill="none" stroke-linecap="round" stroke-width=".93274"><path d="m-100.6 230.39c3.1255 3.9254 5.8932 8.2244 5.788 15.522" color="#000000" enable-background="accumulate" stroke="url(#a)"/><path d="m-97.179 221.71c3.0626 5.643 6.9413 10.266 7.3666 19.206" color="#000000" enable-background="accumulate" stroke="url(#a)"/><path d="m-95.864 213.56c4.1622 6.7865 8.9181 13.334 9.4713 21.574" color="#000000" enable-background="accumulate" stroke="url(#a)"/><path d="m-93.759 206.45c4.1737 6.8264 9.9805 12.292 10.261 22.363" color="#000000" enable-background="accumulate" stroke="url(#a)"/><path d="m-92.707 198.3c5.4121 7.7228 11.183 15.189 11.839 26.309" color="#000000" enable-background="accumulate" stroke="url(#a)"/><path d="m-91.917 191.98c5.7996 7.425 12.231 14.285 12.892 26.309" color="#000000" enable-background="accumulate" stroke="url(#a)"/><path d="m-89.813 185.67c4.8681 6.7509 10.417 12.14 12.628 24.204" color="#000000" enable-background="accumulate" stroke="url(#a)"/><path d="m-88.497 178.04c4.5438 7.901 10.157 15.267 12.102 24.468" color="#000000" enable-background="accumulate" stroke="url(#a)"/><path d="m-87.708 171.2c3.8954 7.081 8.4365 12.225 11.05 23.152" color="#000000" enable-background="accumulate" stroke="url(#a)"/><path d="m-103.49 251.7c12.568-10.321 21.458-24.32 26.309-42.358" color="#000000" enable-background="accumulate" stroke="url(#a)"/><path d="m-100.57 246.22c11.358-10.826 21.14-29.072 23.915-47.397" color="#000000" enable-background="accumulate" stroke="url(#a)"/><path d="m-100.03 240.7c11.126-10.884 20.643-28.841 23.373-46.874" color="#000000" enable-background="accumulate" stroke="url(#a)"/><path d="m-98.758 234.08c7.3064-9.2684 19.879-29.056 21.31-52.355" color="#000000" enable-background="accumulate" stroke="url(#a)"/><path d="m-96.916 223.55c5.9909-7.4268 16.985-28.793 17.89-51.829" color="#000000" enable-background="accumulate" stroke="url(#a)"/><path d="m-93.634 207.84c5.786-10.028 12.802-28.777 13.556-47.955" color="#000000" enable-background="accumulate" stroke="url(#a)"/><path d="m-168.83 230.39c-3.1255 3.9254-5.8932 8.2244-5.788 15.522" color="#000000" enable-background="accumulate" stroke="url(#b)"/><path d="m-172.25 221.71c-3.0626 5.643-6.9413 10.266-7.3666 19.206" color="#000000" enable-background="accumulate" stroke="url(#b)"/><path d="m-173.57 213.56c-4.1622 6.7865-8.9181 13.334-9.4713 21.574" color="#000000" enable-background="accumulate" stroke="url(#b)"/><path d="m-175.67 206.45c-4.1737 6.8264-9.9805 12.292-10.261 22.363" color="#000000" enable-background="accumulate" stroke="url(#b)"/><path d="m-176.72 198.3c-5.4121 7.7228-11.183 15.189-11.839 26.309" color="#000000" enable-background="accumulate" stroke="url(#b)"/><path d="m-177.51 191.98c-5.7996 7.425-12.231 14.285-12.892 26.309" color="#000000" enable-background="accumulate" stroke="url(#b)"/><path d="m-179.62 185.67c-4.8681 6.7509-10.417 12.14-12.628 24.204" color="#000000" enable-background="accumulate" stroke="url(#b)"/><path d="m-180.93 178.04c-4.5438 7.901-10.157 15.267-12.102 24.468" color="#000000" enable-background="accumulate" stroke="url(#b)"/><path d="m-181.72 171.2c-3.8954 7.081-8.4365 12.225-11.05 23.152" color="#000000" enable-background="accumulate" stroke="url(#b)"/><path d="m-165.94 251.7c-12.568-10.321-21.458-24.32-26.309-42.358" color="#000000" enable-background="accumulate" stroke="url(#b)"/><path d="m-168.86 246.22c-11.358-10.826-21.14-29.072-23.915-47.397" color="#000000" enable-background="accumulate" stroke="url(#b)"/><path d="m-169.4 240.7c-11.126-10.884-20.643-28.841-23.373-46.874" color="#000000" enable-background="accumulate" stroke="url(#b)"/><path d="m-170.67 234.08c-7.3064-9.2684-19.879-29.056-21.31-52.355" color="#000000" enable-background="accumulate" stroke="url(#b)"/><path d="m-172.51 223.55c-5.9909-7.4268-16.985-28.793-17.89-51.829" color="#000000" enable-background="accumulate" stroke="url(#b)"/><path d="m-175.8 207.84c-5.786-10.028-12.802-28.777-13.556-47.955" color="#000000" enable-background="accumulate" stroke="url(#b)"/></g></g></g></svg>
