<?xml version="1.0" encoding="UTF-8"?>
<svg enable-background="new" version="1.0" viewBox="0 0 256 256" xmlns="http://www.w3.org/2000/svg" xmlns:xlink="http://www.w3.org/1999/xlink"><defs><linearGradient id="g"><stop stop-color="#fff" offset="0"/><stop stop-color="#fff" stop-opacity="0" offset="1"/></linearGradient><linearGradient id="q"><stop stop-color="#2e3436" offset="0"/><stop stop-color="#2e3436" stop-opacity="0" offset="1"/></linearGradient><linearGradient id="a" x1="12.274" x2="35.391" y1="32.416" y2="14.203" gradientUnits="userSpaceOnUse"><stop stop-color="#ffffc8" offset="0"/><stop stop-color="#9a91ef" stop-opacity="0" offset="1"/></linearGradient><filter id="ad"><feGaussianBlur stdDeviation="0.49984413"/></filter><filter id="ae"><feGaussianBlur stdDeviation="5.8810556"/></filter><linearGradient id="c"><stop stop-color="#fff" offset="0"/><stop stop-color="#333" stop-opacity=".26263" offset="1"/></linearGradient><linearGradient id="p"><stop stop-color="#fff" stop-opacity="0" offset="0"/><stop stop-color="#fff" offset=".5"/><stop stop-color="#fff" offset=".75"/><stop stop-color="#fff" stop-opacity="0" offset="1"/></linearGradient><linearGradient id="aa" x1="119.02" x2="143.24" y1="98.315" y2="167.74" gradientTransform="matrix(.98049 0 0 .98008 18.59 43.92)" gradientUnits="userSpaceOnUse"><stop stop-color="#e6e6e6" offset="0"/><stop stop-color="#404040" stop-opacity=".52525" offset=".5"/><stop stop-color="#ededed" stop-opacity=".78824" offset="1"/></linearGradient><linearGradient id="z" x1="89.233" x2="127.81" y1="78.342" y2="168.72" gradientTransform="translate(256.72 300.94)" gradientUnits="userSpaceOnUse"><stop stop-color="#babdb6" offset="0"/><stop stop-color="#d9d9d9" offset=".25"/><stop stop-color="#fff" offset=".5"/><stop stop-color="#888a85" offset="1"/></linearGradient><clipPath id="ak"><path d="m383.16 310c-2.9011 0.0247-5.8429 0.15721-8.7812 0.40625-62.684 5.3128-109.28 60.535-103.97 123.22 5.3129 62.684 60.535 109.28 123.22 103.97 62.684-5.3129 109.28-60.535 103.97-123.22-5.0638-59.746-55.448-104.88-114.44-104.38zm0.84375 78c19.872 1e-5 36 16.128 36 36s-16.128 36-36 36c-19.872 0-36-16.128-36-36s16.128-36 36-36z" enable-background="accumulate"/></clipPath><linearGradient id="y" x1="126" x2="126" y1="76.762" y2="170.08" gradientUnits="userSpaceOnUse"><stop stop-color="#181818" stop-opacity=".3" offset="0"/><stop stop-color="#fff" offset="1"/></linearGradient><linearGradient id="x" x1="126" x2="126" y1="76.762" y2="177.36" gradientUnits="userSpaceOnUse"><stop stop-color="#fff" offset="0"/><stop stop-opacity=".5" offset="1"/></linearGradient><filter id="ah"><feGaussianBlur stdDeviation="0.50699301"/></filter><linearGradient id="f" x1="120.44" x2="126" y1="156.13" y2="128.35" gradientUnits="userSpaceOnUse" xlink:href="#c"/><linearGradient id="e" x1="126" x2="126" y1="88.28" y2="128.35" gradientUnits="userSpaceOnUse" xlink:href="#c"/><linearGradient id="w" x1="126.57" x2="130.86" y1="101.61" y2="139.61" gradientUnits="userSpaceOnUse"><stop offset="0"/><stop stop-opacity="0" offset="1"/></linearGradient><linearGradient id="v" x1="126.57" x2="126.57" y1="140.03" y2="113.87" gradientUnits="userSpaceOnUse"><stop stop-color="#fff" offset="0"/><stop stop-color="#fff" stop-opacity="0" offset="1"/></linearGradient><linearGradient id="d" x1="140.49" x2="129.21" y1="126.53" y2="100.12" gradientUnits="userSpaceOnUse" xlink:href="#p"/><filter id="ag"><feGaussianBlur stdDeviation="0.50746269"/></filter><linearGradient id="u" x1="137" x2="90.5" y1="281" y2="-5" gradientTransform="translate(0 -.35355)" gradientUnits="userSpaceOnUse"><stop offset="0"/><stop stop-opacity="0" offset="1"/></linearGradient><linearGradient id="t" x1="121.26" x2="129.07" y1="93.528" y2="137.86" gradientUnits="userSpaceOnUse"><stop stop-opacity=".4" offset="0"/><stop stop-color="#fff" offset="1"/></linearGradient><filter id="af"><feGaussianBlur stdDeviation="1.165"/></filter><clipPath id="aj"><g transform="rotate(267.41 158.34 -151)"><text transform="translate(0,-330)" fill="#000000" font-family="Impact" font-size="6px" font-weight="bold" stroke-width="1px" style="line-height:0%" xml:space="preserve"><textPath font-family="'Bitstream Vera Sans'" font-size="2.7px" font-weight="normal" style="line-height:125%" xlink:href="#o">Tango Media. Only capable of holding freely licensed content. Explodes in hard drives when trying to store proprietary software.</textPath></text><path d="m144-279c-62.634 0-113 50.366-113 113 0 62.634 50.366 113 113 113 62.634-1e-5 113-50.366 113-113 0-62.634-50.366-113-113-113zm0 65c26.496 0 48 21.504 48 48s-21.504 48-48 48c-26.496-1e-5 -48-21.504-48-48 1e-5 -26.496 21.504-48 48-48z" enable-background="new"/></g></clipPath><linearGradient id="s" x1="12.962" x2="36.527" y1="36.22" y2="12.655" gradientTransform="matrix(6.9709 0 0 6.9709 -23.302 -297.03)" gradientUnits="userSpaceOnUse"><stop stop-color="#FBFBFB" offset="0"/><stop stop-color="#B6B6B6" offset=".5"/><stop stop-color="#eeeeec" offset="1"/></linearGradient><linearGradient id="r" x1="12.274" x2="35.391" y1="32.416" y2="14.203" gradientTransform="matrix(5.3242 -4.9256 4.9294 5.3261 -97.649 -140.8)" gradientUnits="userSpaceOnUse"><stop stop-color="#fbfbfb" stop-opacity="0" offset="0"/><stop stop-color="#e8e8e8" stop-opacity="0" offset=".30952"/><stop stop-color="#fff" offset=".4621"/><stop stop-color="#fff" offset=".54616"/><stop stop-color="#e3e3e3" stop-opacity="0" offset=".71429"/><stop stop-color="#d1d1d1" stop-opacity="0" offset="1"/></linearGradient><radialGradient id="m" cx="37.751" cy="27.569" r="21.333" gradientTransform="matrix(4.7255 5.3343 -4.3548 3.8577 112.51 -379.49)" gradientUnits="userSpaceOnUse"><stop stop-color="#fff307" offset="0"/><stop stop-color="#166eff" offset=".5"/><stop stop-color="#fff" stop-opacity="0" offset="1"/></radialGradient><radialGradient id="l" cx="26.138" cy="38.807" r="21.333" gradientTransform="matrix(4.2846 -6.9182 3.7322 2.3115 -112.83 -34.876)" gradientUnits="userSpaceOnUse"><stop stop-color="#b307ff" stop-opacity=".82178" offset="0"/><stop stop-color="#f0ff8b" stop-opacity=".64356" offset="1"/><stop stop-color="#fff" stop-opacity="0" offset="1"/></radialGradient><radialGradient id="k" cx="16.885" cy="33.378" r="21.333" gradientTransform="matrix(-.7527 .50358 -2.2302 -3.335 253.43 7.2654)" gradientUnits="userSpaceOnUse" xlink:href="#a"/><radialGradient id="j" cx="16.679" cy="26.423" r="21.333" gradientTransform="matrix(.96448 -1.6697 3.4244 1.9763 -25.05 -170.57)" gradientUnits="userSpaceOnUse" xlink:href="#a"/><radialGradient id="i" cx="12.822" cy="30.577" r="21.333" gradientTransform="matrix(.56236 1.844 -6.1514 1.8741 374.41 -232.41)" gradientUnits="userSpaceOnUse" xlink:href="#a"/><radialGradient id="h" cx="141.56" cy="-107.79" r="115.99" gradientTransform="matrix(3.1004 -2.1478 .12376 .17865 -281.55 197.29)" gradientUnits="userSpaceOnUse"><stop stop-color="#fff" offset="0"/><stop stop-color="#fff" stop-opacity="0" offset="1"/></radialGradient><radialGradient id="b" cx="156.5" cy="258" r="89.5" gradientTransform="matrix(1 0 0 .21229 0 203.23)" gradientUnits="userSpaceOnUse" xlink:href="#q"/><radialGradient id="n" cx="476.75" cy="525.48" r="120" gradientTransform="matrix(1.1854 -.23876 .23905 1.1868 -255.29 -88.553)" gradientUnits="userSpaceOnUse"><stop stop-color="#f5f5f5" offset="0"/><stop stop-color="#fff" stop-opacity="0" offset=".5"/><stop stop-color="#d9d9d9" offset=".75"/><stop stop-color="#e8e8e8" stop-opacity="0" offset="1"/></radialGradient><filter id="ai"><feGaussianBlur stdDeviation="2.2600695"/></filter><linearGradient id="ac" x1="119.53" x2="130.5" y1="234.28" y2="185.05" gradientUnits="userSpaceOnUse" xlink:href="#g"/><linearGradient id="ab" x1="163.44" x2="179" y1="148.22" y2="77" gradientUnits="userSpaceOnUse" xlink:href="#g"/></defs><g transform="translate(-16,-36)"><g><path d="m144.72 48.001c-9.5753-0.03696-19.324 1.1107-29.059 3.5624-62.307 15.691-99.79 78.429-84.084 140.75 15.707 62.317 78.457 99.813 140.76 84.122 62.307-15.691 99.79-78.429 84.084-140.75-13.252-52.58-59.999-87.485-111.71-87.685zm-0.71867 99.997c8.831 1e-5 15.998 7.1678 15.998 16 0 8.8317-7.1672 16-15.998 16-8.831 1e-5 -15.998-7.1678-15.998-16 0-8.8317 7.1672-16 15.998-16z" enable-background="new" fill="url(#aa)" opacity=".33143"/><g transform="rotate(11.388 1567.8 -909.54)" clip-path="url(#ak)" enable-background="new"><path d="m383.12 304c-3.0536 0.026-6.1572 0.17536-9.25 0.4375-65.98 5.5922-115.03 63.708-109.44 129.69 5.5922 65.98 63.708 115.03 129.69 109.44 65.98-5.5922 115.03-63.708 109.44-129.69-5.33-62.887-58.347-110.4-120.44-109.88z" enable-background="accumulate" fill="url(#z)"/><path d="m383.12 304c-3.0536 0.026-6.1572 0.17536-9.25 0.4375-65.98 5.5922-115.03 63.708-109.44 129.69 5.5922 65.98 63.708 115.03 129.69 109.44 65.98-5.5922 115.03-63.708 109.44-129.69-5.33-62.887-58.347-110.4-120.44-109.88z" enable-background="accumulate" fill="url(#n)" opacity=".87429"/></g><path transform="matrix(.79578 0 0 .79578 42.453 66.456)" d="m93.275 107.04 1.2643 1.9334 0.51045-1.1357-1.7748-0.79771m-0.44497-0.0581 0.25423-0.56561 2.1667 0.97386 0.21319-0.47431 0.3741 0.16815-0.21319 0.47431 0.78384 0.35232-0.20118 0.44758-0.78384-0.35231-0.6746 1.5009-0.43423-0.19517-1.485-2.3297m2.0346-3.0304 1.0843 2.0398 0.61106-1.0849-1.6954-0.95493m-0.43789-0.0981 0.30433-0.5403 2.0697 1.1658 0.25521-0.45309 0.35737 0.20129-0.25521 0.45309 0.74877 0.42175-0.24083 0.42756-0.74877-0.42175-0.80756 1.4337-0.4148-0.23364-1.2683-2.4544m2.0462-2.6477c-0.14427 0.20893-0.14981 0.43751-0.01662 0.68574 0.13278 0.24597 0.40542 0.51138 0.81793 0.79623 0.41117 0.28392 0.75595 0.44487 1.0343 0.48282 0.27798 0.0357 0.4891-0.0509 0.63338-0.25986 0.1452-0.21027 0.15141-0.43839 0.01863-0.68436-0.13319-0.24823-0.40537-0.5143-0.81654-0.79823-0.41251-0.28485-0.75775-0.44512-1.0357-0.48082-0.27839-0.038-0.49019 0.0482-0.63539 0.25848m-0.32144-0.22196c0.23214-0.33617 0.5425-0.50063 0.9311-0.49338 0.38819 5e-3 0.83541 0.18228 1.3417 0.53187 0.50492 0.34866 0.82914 0.70408 0.97266 1.0662 0.14311 0.35991 0.09859 0.70795-0.13354 1.0441-0.23214 0.33617-0.5423 0.50176-0.93048 0.49677-0.3886-7e-3 -0.83536-0.18521-1.3403-0.53387-0.50626-0.34959-0.83094-0.70433-0.97405-1.0642-0.14352-0.36217-0.09921-0.71134 0.13292-1.0475m4.2576-0.20751 1.1036-1.3208 0.3185 0.26611-1.484 1.7761-0.31851-0.26611c-0.0286-0.26782-0.06452-0.62974-0.1077-1.0858-0.04338-0.45832-0.07469-0.74958-0.09391-0.87381-0.03492-0.2349-0.07939-0.41522-0.13341-0.54095-0.05423-0.12802-0.12693-0.23012-0.21811-0.30631-0.14863-0.12418-0.31362-0.17295-0.49496-0.1463-0.18029 0.02541-0.34036 0.12179-0.4802 0.28916-0.09914 0.11866-0.18341 0.26141-0.25281 0.42824-0.06835 0.16559-0.1233 0.35828-0.16485 0.57808l-0.3822-0.31933c0.06611-0.20351 0.13887-0.38451 0.21826-0.543 0.0794-0.15848 0.16501-0.29268 0.25684-0.4026 0.24211-0.28977 0.50761-0.46031 0.79651-0.51163 0.2889-0.05131 0.5545 0.02426 0.79682 0.22671 0.11491 0.09601 0.20594 0.20918 0.27308 0.33951 0.0669 0.12804 0.12287 0.30733 0.1678 0.53787 0.0101 0.06149 0.0321 0.24845 0.0659 0.56087 0.0325 0.31138 0.077 0.74938 0.13335 1.314m1.8927-2.1739 0.57096-0.56842-1.9619-1.9707-0.49711 0.74295-0.31694-0.31835 0.49365-0.7395 0.3495-0.34794 2.2788 2.289 0.57096-0.56842 0.29282 0.29413-1.488 1.4813-0.29282-0.29413m2.324-2.2311 0.62041-0.514-1.7741-2.1413-0.56278 0.69453-0.28659-0.34592 0.55902-0.69141 0.37976-0.31463 2.0607 2.4873 0.6204-0.514 0.26479 0.3196-1.6168 1.3395-0.26479-0.3196m0.62466-4.6285 1.5968-1.0947 0.23468 0.34232-1.2243 0.83931 0.50524 0.737c0.0453-0.06063 0.0942-0.11589 0.14684-0.16578 0.0517-0.05123 0.10709-0.09709 0.16616-0.13759 0.33561-0.23007 0.66445-0.32033 0.98653-0.27078 0.32207 0.04955 0.59079 0.2314 0.80614 0.54552 0.22179 0.32353 0.29366 0.64426 0.21561 0.96219-0.079 0.31659-0.30169 0.60051-0.66818 0.85175-0.12619 0.08651-0.26242 0.16412-0.40871 0.23283-0.14494 0.06779-0.30194 0.12806-0.471 0.18081l-0.28023-0.40877c0.16591-0.01705 0.32435-0.05363 0.47531-0.10977 0.15096-0.05613 0.29826-0.13343 0.4419-0.2319 0.23225-0.15921 0.37429-0.34637 0.42613-0.56148 0.0518-0.21511 6e-3 -0.42738-0.13759-0.6368-0.14357-0.20942-0.32502-0.32874-0.54435-0.35795-0.21934-0.02921-0.44512 0.03579-0.67737 0.195-0.10873 0.07455-0.20919 0.16117-0.30136 0.25988-0.0908 0.09779-0.17514 0.21084-0.25294 0.33916l-1.0353-1.5102m2.821-1.8705 2.0451-1.1449 0.10256 0.1832 0.52345 3.6437-0.44949 0.25165-0.49143-3.4266-1.5274 0.85513-0.20275-0.36215m4.2999-1.8551c-0.23184 0.10354-0.35536 0.29596-0.37055 0.57725-0.0144 0.27915 0.0806 0.64759 0.28506 1.1053 0.20375 0.45625 0.41469 0.77292 0.63282 0.95001 0.21895 0.17495 0.44434 0.21066 0.67618 0.10712 0.23332-0.1042 0.35717-0.29587 0.37155-0.57502 0.0152-0.2813-0.0791-0.65006-0.28284-1.1063-0.20441-0.45773-0.4161-0.77407-0.63505-0.94902-0.21812-0.17709-0.44385-0.21354-0.67717-0.10935m-0.15933-0.35673c0.37302-0.16658 0.72366-0.14581 1.0519 0.06232 0.32907 0.20599 0.61904 0.58986 0.86991 1.1516 0.25021 0.56028 0.34253 1.0324 0.27695 1.4164-0.0648 0.38186-0.28366 0.65609-0.65668 0.82267s-0.72406 0.14689-1.0531-0.0591c-0.32824-0.20813-0.61747-0.59234-0.86768-1.1526-0.25087-0.56176-0.34393-1.0336-0.27917-1.4154 0.0656-0.38401 0.28488-0.65931 0.6579-0.8259" enable-background="new" opacity=".42286"/><circle id="o" transform="matrix(2.0203 0 0 2.0203 -130.64 514.34)" cx="135.94" cy="-173.41" r="19.799" enable-background="new" fill="none"/><circle transform="matrix(.67 0 0 .67 59.58 82.26)" cx="126" cy="122" r="50" enable-background="accumulate" fill="none" filter="url(#ag)" opacity=".5" stroke="url(#y)" stroke-width="1.4925"/><circle transform="matrix(.715 0 0 .715 53.91 76.77)" cx="126" cy="122" r="50" enable-background="accumulate" fill="none" filter="url(#ah)" opacity=".2" stroke="url(#x)" stroke-width="1.3986"/><g transform="matrix(.86781 0 0 .86802 339.86 369.49)" enable-background="new" fill="none" stroke-width="1.0107"><circle transform="matrix(.57 0 0 .57 -297.51 -306.28)" cx="126" cy="122" r="50" enable-background="accumulate" opacity=".34857" stroke="url(#f)"/><circle transform="matrix(.56009 0 0 .56009 -296.26 -305.07)" cx="126" cy="122" r="50" enable-background="accumulate" opacity=".34857" stroke="url(#e)"/></g><g transform="matrix(.69488 0 0 .69505 300.83 328.55)" enable-background="new" fill="none" stroke-width="1.2622"><circle transform="matrix(.57 0 0 .57 -297.51 -306.28)" cx="126" cy="122" r="50" enable-background="accumulate" opacity=".34857" stroke="url(#f)"/><circle transform="matrix(.56009 0 0 .56009 -296.26 -305.07)" cx="126" cy="122" r="50" enable-background="accumulate" opacity=".34857" stroke="url(#e)"/></g><circle transform="matrix(.68435 0 0 .68435 57.381 80.266)" cx="126.57" cy="122.36" r="24.042" enable-background="accumulate" fill="none" filter="url(#ad)" opacity=".26857" stroke="url(#w)" stroke-width="2.9225"/><circle transform="matrix(.7279 0 0 .7279 51.868 74.936)" cx="126.57" cy="122.36" r="24.042" enable-background="accumulate" fill="none" opacity=".8" stroke="url(#v)" stroke-width="1.3738"/><circle transform="matrix(.7695 0 0 .7695 46.603 69.847)" cx="126.57" cy="122.36" r="24.042" enable-background="accumulate" fill="none" stroke="url(#d)" stroke-width="1.2995"/><circle transform="matrix(4.8042 0 0 4.8042 -464.07 -423.82)" cx="126.57" cy="122.36" r="24.042" enable-background="accumulate" fill="none" stroke="url(#d)" stroke-width=".20815"/><circle transform="matrix(-4.8042 0 0 -4.8042 752.07 751.82)" cx="126.57" cy="122.36" r="24.042" enable-background="accumulate" fill="none" opacity=".7" stroke="url(#t)" stroke-width=".20815"/><g transform="translate(0,300)" clip-path="url(#aj)" enable-background="new" filter="url(#ai)"><path d="m144-257.99c-67.618 0-121.99 54.373-121.99 121.99-1e-6 67.618 54.373 121.99 121.99 121.99 67.618-1.1e-5 121.99-54.373 121.99-121.99 0-67.618-54.373-121.99-121.99-121.99z" clip-path="none" fill="url(#s)"/><path d="m142.86-257.99c-29.208 0.25933-58.411 11.074-81.648 32.571-49.572 45.861-52.515 122.59-6.6191 172.18 45.896 49.59 122.63 52.548 172.2 6.6875 49.572-45.861 52.515-122.55 6.6192-172.14-24.382-26.345-57.452-39.587-90.554-39.293z" enable-background="new" fill="url(#r)" opacity=".9"/><g transform="matrix(1.0516 0 0 1.0516 -7.4373 -3.4922)" clip-path="none"><path d="m144-242c-64.297 0-116 51.703-116 116 0 64.297 51.703 116 116 116 64.297 0 116-51.703 116-116 0-64.297-51.703-116-116-116z" fill="url(#m)" opacity=".11429"/><path d="m144-242c-64.297 0-116 51.703-116 116 0 64.297 51.703 116 116 116 64.297 0 116-51.703 116-116 0-64.297-51.703-116-116-116z" fill="url(#l)" opacity=".097143"/><path d="m50.464-57.545c37.915 51.825 110.09 62.987 161.94 25.044 51.845-37.943 63.047-110.13 25.132-161.95-37.915-51.825-110.09-62.987-161.94-25.044-51.845 37.943-63.047 110.13-25.132 161.95z" fill="url(#k)" opacity=".62286"/><path d="m178.03-236.83c-61.425-18.841-125.99 15.406-144.85 76.837-18.861 61.431 15.366 125.98 76.791 144.82 61.425 18.841 125.99-15.406 144.85-76.837 18.861-61.431-15.366-125.98-76.791-144.82z" fill="url(#j)" opacity=".62286"/><path d="m142.56-242c-13.24 0.18442-26.679 2.6593-39.812 7.6562-60.04 22.843-89.928 89.514-67.062 149.56 22.866 60.049 89.523 89.968 149.56 67.125 60.04-22.843 89.928-89.514 67.062-149.56-17.864-46.913-62.464-75.44-109.75-74.781z" fill="url(#i)" filter="url(#ae)" opacity=".42286"/></g><path transform="matrix(1.0516 0 0 1.0516 -7.4373 -3.4922)" d="m142.56-242c-13.24 0.18442-26.679 2.6593-39.812 7.6562-60.04 22.843-89.928 89.514-67.062 149.56 22.866 60.049 89.523 89.968 149.56 67.125 60.04-22.843 89.928-89.514 67.062-149.56-17.864-46.913-62.464-75.44-109.75-74.781z" enable-background="new" fill="url(#h)" opacity=".27477"/></g><path d="m108.41 169.78-70.844 38.406c12.335 29.656 36.67 53.076 66.969 64.125l34.969-72.531c-15.884-1.9786-28.561-14.294-31.094-30z" enable-background="new" fill="url(#ac)" opacity=".35616"/><path d="m183.47 55.688-34.969 72.531c15.884 1.9786 28.561 14.294 31.094 30l70.844-38.406c-12.335-29.656-36.67-53.076-66.969-64.125z" enable-background="new" fill="url(#ab)" opacity=".34703"/><g enable-background="new"><ellipse transform="matrix(1.257 0 0 1.0596 -52.718 -.63064)" cx="156.5" cy="258" rx="89.5" ry="19" enable-background="new" fill="url(#b)" opacity=".2"/><ellipse transform="matrix(.75419 0 0 .5963 25.969 120.16)" cx="156.5" cy="258" rx="89.5" ry="19" fill="url(#b)" opacity=".4"/><path d="m144.72 48.647c-9.5753-0.03696-19.324 1.1107-29.059 3.5624-62.307 15.691-99.79 78.429-84.084 140.75 15.707 62.317 78.457 99.813 140.76 84.122 62.307-15.691 99.79-78.429 84.084-140.75-13.252-52.58-59.999-87.485-111.71-87.685zm-0.71867 99.997c8.831 1e-5 15.998 7.1678 15.998 16 0 8.8317-7.1672 16-15.998 16-8.831 1e-5 -15.998-7.1678-15.998-16 0-8.8317 7.1672-16 15.998-16z" enable-background="new" fill="none" filter="url(#af)" stroke="url(#u)" stroke-width=".5"/></g></g></g></svg>
