<?xml version="1.0" encoding="UTF-8"?>
<svg enable-background="new" version="1.0" viewBox="0 0 256 256" xmlns="http://www.w3.org/2000/svg" xmlns:xlink="http://www.w3.org/1999/xlink"><defs><linearGradient id="n"><stop stop-color="#fff" offset="0"/><stop stop-color="#fff" stop-opacity="0" offset="1"/></linearGradient><linearGradient id="m" x1="146.44" x2="146.44" y1="54.536" y2="56.359" gradientTransform="matrix(.20325 0 0 .20325 -4.9466 -9.5984)" gradientUnits="userSpaceOnUse"><stop stop-color="#2f2f2f" offset="0"/><stop stop-color="#5a5a5a" offset="1"/></linearGradient><radialGradient id="k" cx="23.406" cy="33.769" r="11.297" gradientTransform="matrix(2.7452 0 0 5.7599 -40.848 -148.29)" gradientUnits="userSpaceOnUse"><stop stop-color="#fff" offset="0"/><stop stop-color="#fff" stop-opacity="0" offset="1"/></radialGradient><clipPath id="t"><path d="m15.746-1.0617c5.6524-0.71501 11.305-0.9062 16.957 0 1.7549 0.28135 3.2081 1.2079 3.2081 2.7083v41.785c0 1.5004-1.4433 2.4977-3.2081 2.7083-4.3534 0.51958-9.8948 0.56403-16.957 0-1.7717-0.14149-3.2081-1.2079-3.2081-2.7083v-41.785c0-1.5004 1.4449-2.4853 3.2081-2.7083z" color="#000000" enable-background="accumulate" fill="none" stroke="#000" stroke-width=".60974"/></clipPath><filter id="s"><feGaussianBlur stdDeviation="0.37443461"/></filter><linearGradient id="p" x1="86" x2="270.53" y1="123.49" y2="149.49" gradientTransform="matrix(.20325 0 0 .20325 -3.6206 -11.021)" gradientUnits="userSpaceOnUse"><stop stop-color="#fff" offset="0"/><stop stop-color="#fff" stop-opacity="0" offset="1"/></linearGradient><linearGradient id="o" x1="15.79" x2="32.659" y1="22.641" y2="22.844" gradientTransform="translate(0 -.60974)" gradientUnits="userSpaceOnUse"><stop stop-color="#bdbec0" offset="0"/><stop stop-color="#dbdbdc" offset="1"/></linearGradient><filter id="r" x="-.090768" y="-.40846" width="1.1815" height="1.8169"><feGaussianBlur stdDeviation="3.0634143"/></filter><filter id="q" x="-.14204" y="-.63919" width="1.2841" height="2.2784"><feGaussianBlur stdDeviation="4.7939498"/></filter><filter id="b" x="-.23724" y="-.67782" width="1.4745" height="2.3556"><feGaussianBlur stdDeviation="0.49424686"/></filter><radialGradient id="j" cx="23.965" cy="46.936" r="9.6719" gradientTransform="matrix(1.415 .0052536 -.0025374 .68344 -9.8271 11.602)" gradientUnits="userSpaceOnUse"><stop stop-color="#fff" offset="0"/><stop stop-color="#fff" stop-opacity="0" offset="1"/></radialGradient><radialGradient id="i" cx="134.5" cy="233.5" r="46.5" gradientTransform="matrix(.19453 .058879 -.22292 .7365 49.908 -142.84)" gradientUnits="userSpaceOnUse"><stop stop-color="#e9e9e9" offset="0"/><stop stop-color="#d0d0d0" offset="1"/></radialGradient><radialGradient id="h" cx="-15.752" cy="33.312" r="2.8967" gradientTransform="matrix(.99968 .025308 -.017541 .69289 .5793 10.706)" gradientUnits="userSpaceOnUse"><stop stop-color="#fff" offset="0"/><stop stop-color="#555" offset="1"/></radialGradient><radialGradient id="g" cx="-15.857" cy="24.443" r="2.8967" gradientTransform="matrix(1.6838 0 1.9137e-8 1.1671 10.999 -1.2858)" gradientUnits="userSpaceOnUse"><stop stop-color="#fff" offset="0"/><stop stop-color="#555" stop-opacity="0" offset="1"/></radialGradient><radialGradient id="f" cx="-15.612" cy="32.621" r="2.281" gradientTransform="matrix(1 0 0 1.0024 0 -.073802)" gradientUnits="userSpaceOnUse"><stop stop-color="#9eb1c0" offset="0"/><stop stop-color="#11161a" offset="1"/></radialGradient><radialGradient id="e" cx="-16.908" cy="31.89" r="1.5498" gradientTransform="matrix(1.8536 0 0 1.8536 14.433 -27.222)" gradientUnits="userSpaceOnUse"><stop stop-color="#b0c9e6" offset="0"/><stop stop-color="#070e16" offset="1"/></radialGradient><radialGradient id="a" cx="-12.995" cy="20.33" r="1.4782" gradientTransform="matrix(.84342 .53726 -1.8906 2.968 36.401 -33.027)" gradientUnits="userSpaceOnUse" xlink:href="#n"/></defs><g transform="translate(-11,-35)"><g transform="matrix(4.9201 0 0 4.9201 16.314 51.224)" enable-background="new"><ellipse transform="matrix(.32941 0 0 .16592 -19.548 -1.2906)" cx="133.5" cy="277" rx="40.5" ry="9" color="#000000" enable-background="accumulate" filter="url(#q)" opacity=".29362"/><path transform="matrix(.27277 0 0 .16592 -12.191 -1.4938)" d="m174 277c0 4.9706-18.132 9-40.5 9s-40.5-4.0294-40.5-9 18.132-9 40.5-9 40.5 4.0294 40.5 9z" color="#000000" enable-background="accumulate" filter="url(#r)" opacity=".94894"/><path id="d" d="m15.746-1.6715c5.6524-0.71501 11.305-0.9062 16.957 0 1.7549 0.28135 3.2081 1.2079 3.2081 2.7083v41.785c0 1.5004-1.4433 2.4977-3.2081 2.7083-4.3534 0.51958-9.8948 0.56403-16.957 0-1.7717-0.14149-3.2081-1.2079-3.2081-2.7083v-41.785c0-1.5004 1.4449-2.4853 3.2081-2.7083z" color="#000000" enable-background="accumulate" fill="url(#o)" fill-rule="evenodd"/><path transform="translate(0 -.20325)" d="m25.098-0.78906c-0.68137-0.007676-1.3355 3.9474e-4 -1.9688 0.021484-2.533 0.084357-4.7274 0.36491-6.9863 0.58789-0.64318 0.063487-1.2439 0.26811-1.7129 0.625-0.47117 0.35852-0.80859 0.90616-0.80859 1.541v24.797c1e-6 0.63111 0.30588 1.1769 0.7793 1.5605 0.47342 0.38361 1.1147 0.60937 1.7949 0.60938h15.854c0.68018 0 1.321-0.22586 1.7949-0.60938s0.78125-0.92907 0.78125-1.5605v-24.797c0-0.63748-0.35009-1.1752-0.82031-1.5215-0.46748-0.3443-1.0524-0.54197-1.6719-0.63867-2.7026-0.42184-4.991-0.59221-7.0352-0.61523z" color="#000000" enable-background="accumulate" fill-rule="evenodd" xlink:href="#l"/><path id="l" d="m23.131-0.68164c-2.5283 0.084201-4.7199 0.36476-6.9805 0.58789-0.63049 0.062235-1.2144 0.26231-1.668 0.60742-0.45355 0.34511-0.77539 0.86815-0.77539 1.4727v24.797c2e-6 1.2072 1.1657 2.084 2.4883 2.084h15.854c1.3226 0 2.4902-0.87615 2.4902-2.084v-24.797c0-0.6062-0.3326-1.1198-0.78516-1.4531-0.45256-0.33331-1.0247-0.52783-1.6348-0.62305-3.5984-0.56167-6.46-0.676-8.9883-0.5918z" color="#000000" enable-background="accumulate" fill="#e9e9e9" fill-rule="evenodd" xlink:href="#c"/><path id="c" d="m16.196 0.36102c4.5379-0.44793 8.7108-1.1149 15.853 0 1.1125 0.17365 2.0325 0.72519 2.0325 1.626v24.796c0 0.90079-0.90648 1.626-2.0325 1.626h-15.853c-1.126 0-2.0325-0.72519-2.0325-1.626v-24.796c0-0.90079 0.91193-1.5154 2.0325-1.626z" color="#000000" enable-background="accumulate" fill-rule="evenodd"/><rect x="16.806" y="5.6455" width="14.837" height="16.26" rx=".4131" ry=".33048" color="#000000" enable-background="accumulate" fill="#e9b96e" fill-rule="evenodd"/><g transform="matrix(.50923 0 0 .43273 29.143 -24.325)" color="#000000" enable-background="accumulate" fill="#fff" fill-rule="evenodd" stroke-width="3" style="text-decoration-line:none;text-indent:0;text-transform:none"><path d="m-13.921 66.01v-1.8965h0.93228c0.2186 2e-6 0.36726 0.0352 0.44599 0.10559 0.07966 0.06947 0.11949 0.201 0.11949 0.39459-2e-6 0.23434-0.09309 0.37236-0.27927 0.41404v0.0069c0.21674 0.03335 0.32512 0.18386 0.32512 0.45155-1e-6 0.19359-0.04168 0.32928-0.12504 0.40709-0.08336 0.0778-0.22879 0.11671-0.43627 0.11671h-0.9823m0.35985-1.1004h0.44044c0.14264 1e-6 0.23342-0.01575 0.27232-0.04724 0.03983-0.03149 0.05974-0.1042 0.05974-0.21813-1e-6 -0.1519-0.08614-0.22786-0.25843-0.22786h-0.51407v0.49323m0 0.79751h0.39459l0.12643-0.0028c0.12134 0 0.201-0.01714 0.23898-0.05141 0.0389-0.03427 0.05835-0.10652 0.05835-0.21674-1e-6 -0.11486-0.02038-0.1871-0.06113-0.21674-0.03983-0.02964-0.13894-0.04446-0.29733-0.04446h-0.45989v0.53214"/><path d="m-10.895 64.113h0.35985v1.2616c-2e-6 0.26398-0.05095 0.43858-0.15283 0.5238-0.10096 0.08522-0.30798 0.12782-0.62106 0.12782-0.33068 0-0.54742-0.04029-0.65023-0.12088-0.10282-0.08058-0.15422-0.25055-0.15422-0.5099v-1.2824h0.35985v1.2824c-1e-6 0.13986 0.02501 0.22879 0.07503 0.26676 0.05002 0.03705 0.16765 0.05558 0.3529 0.05558 0.18988 0 0.30891-0.01899 0.35707-0.05697 0.04909-0.03798 0.07364-0.13106 0.07364-0.27927v-1.2685"/><path d="m-9.8433 64.113v1.5742h0.88921v0.32234h-1.2491v-1.8965h0.35985"/><path d="m-8.4094 64.113v0.7725h0.16951l0.63078-0.7725h0.44738l-0.76555 0.92116 0.84614 0.97535h-0.46128l-0.69469-0.82113h-0.17228v0.82113h-0.35985v-1.8965h0.35985"/><path d="m-6.5754 64.113v1.8965h-0.35985v-1.8965h0.35985"/><path d="m-5.9127 64.416v0.48906h0.88921v0.26537h-0.88921v0.5363h0.94617v0.30289h-1.306v-1.8965h1.2977v0.30289h-0.93784"/><path d="m-4.7011 66.01v-1.8965h0.93506c0.23249 2e-6 0.39273 0.04029 0.48073 0.12088 0.087993 0.08059 0.13199 0.22647 0.13199 0.43766-1.7e-6 0.19174-0.022232 0.3228-0.066691 0.3932-0.043536 0.0704-0.13338 0.11902-0.26954 0.14589v0.0125c0.21026 0.01297 0.31539 0.1357 0.31539 0.36819v0.41821h-0.35985v-0.34596c-1.3e-6 -0.19544-0.096332-0.29316-0.28899-0.29316h-0.51824v0.63912h-0.35985m0.35985-0.942h0.51685c0.12319 1e-6 0.2047-0.02177 0.24453-0.0653 0.040754-0.04446 0.061132-0.13292 0.061133-0.26537-1.4e-6 -0.13523-0.0176-0.2223-0.052797-0.2612-0.034273-0.03983-0.11023-0.05974-0.22786-0.05974h-0.54186v0.65162"/></g><rect x="22.498" y="1.2754" width="4.77" height=".61609" rx=".30805" ry=".30805" color="#000000" enable-background="accumulate" fill="#353535" stroke="url(#m)" stroke-linecap="round" stroke-width=".20325"/><circle transform="matrix(.20325 0 0 .20325 -4.9466 -9.5984)" cx="136.54" cy="54.501" r=".48614" color="#000000" enable-background="accumulate" fill="#0b0b0b"/><circle transform="matrix(.20325 0 0 .20325 -4.5401 -9.5984)" cx="136.54" cy="54.501" r=".48614" color="#000000" enable-background="accumulate" fill="#0b0b0b"/><circle transform="matrix(.20325 0 0 .20325 -4.1336 -9.5984)" cx="136.54" cy="54.501" r=".48614" color="#000000" enable-background="accumulate" fill="#0b0b0b"/><circle transform="matrix(.20325 0 0 .20325 -3.7271 -9.5984)" cx="136.54" cy="54.501" r=".48614" color="#000000" enable-background="accumulate" fill="#0b0b0b"/><circle transform="matrix(.20325 0 0 .20325 -3.3206 -9.5984)" cx="136.54" cy="54.501" r=".48614" color="#000000" enable-background="accumulate" fill="#0b0b0b"/><circle transform="matrix(.20325 0 0 .20325 -2.9141 -9.5984)" cx="136.54" cy="54.501" r=".48614" color="#000000" enable-background="accumulate" fill="#0b0b0b"/><circle transform="matrix(.20325 0 0 .20325 -2.5076 -9.5984)" cx="136.54" cy="54.501" r=".48614" color="#000000" enable-background="accumulate" fill="#0b0b0b"/><circle transform="matrix(.20325 0 0 .20325 -2.1011 -9.5984)" cx="136.54" cy="54.501" r=".48614" color="#000000" enable-background="accumulate" fill="#0b0b0b"/><circle transform="matrix(.20325 0 0 .20325 -1.6946 -9.5984)" cx="136.54" cy="54.501" r=".48614" color="#000000" enable-background="accumulate" fill="#0b0b0b"/><circle transform="matrix(.20325 0 0 .20325 -4.7433 -9.3951)" cx="136.54" cy="54.501" r=".48614" color="#000000" enable-background="accumulate" fill="#0b0b0b"/><circle transform="matrix(.20325 0 0 .20325 -4.3369 -9.3951)" cx="136.54" cy="54.501" r=".48614" color="#000000" enable-background="accumulate" fill="#0b0b0b"/><circle transform="matrix(.20325 0 0 .20325 -3.9304 -9.3951)" cx="136.54" cy="54.501" r=".48614" color="#000000" enable-background="accumulate" fill="#0b0b0b"/><circle transform="matrix(.20325 0 0 .20325 -3.5239 -9.3951)" cx="136.54" cy="54.501" r=".48614" color="#000000" enable-background="accumulate" fill="#0b0b0b"/><circle transform="matrix(.20325 0 0 .20325 -3.1174 -9.3951)" cx="136.54" cy="54.501" r=".48614" color="#000000" enable-background="accumulate" fill="#0b0b0b"/><circle transform="matrix(.20325 0 0 .20325 -2.7109 -9.3951)" cx="136.54" cy="54.501" r=".48614" color="#000000" enable-background="accumulate" fill="#0b0b0b"/><circle transform="matrix(.20325 0 0 .20325 -2.3044 -9.3951)" cx="136.54" cy="54.501" r=".48614" color="#000000" enable-background="accumulate" fill="#0b0b0b"/><circle transform="matrix(.20325 0 0 .20325 -1.8979 -9.3951)" cx="136.54" cy="54.501" r=".48614" color="#000000" enable-background="accumulate" fill="#0b0b0b"/><circle transform="matrix(.20325 0 0 .20325 -1.2881 -9.5984)" cx="136.54" cy="54.501" r=".48614" color="#000000" enable-background="accumulate" fill="#0b0b0b"/><circle transform="matrix(.20325 0 0 .20325 -.88164 -9.5984)" cx="136.54" cy="54.501" r=".48614" color="#000000" enable-background="accumulate" fill="#0b0b0b"/><circle transform="matrix(.20325 0 0 .20325 -1.4914 -9.3951)" cx="136.54" cy="54.501" r=".48614" color="#000000" enable-background="accumulate" fill="#0b0b0b"/><circle transform="matrix(.20325 0 0 .20325 -1.0849 -9.3951)" cx="136.54" cy="54.501" r=".48614" color="#000000" enable-background="accumulate" fill="#0b0b0b"/><g transform="matrix(.28916 0 0 .28916 104.31 -16.35)"><rect x="-299.5" y="81.062" width=".8125" height="1.125" color="#000000" enable-background="accumulate"/><rect x="-298.38" y="80.438" width=".8125" height="1.75" color="#000000" enable-background="accumulate"/><rect x="-297.25" y="79.812" width=".8125" height="2.375" color="#000000" enable-background="accumulate"/><rect x="-296.06" y="79.25" width=".8125" height="2.9375" color="#000000" enable-background="accumulate" opacity=".2"/><rect x="-294.94" y="78.625" width=".8125" height="3.5625" color="#000000" enable-background="accumulate" opacity=".2"/></g><text x="27.413834" y="7.2434168" fill="#000000" font-family="'Swis721 Md BT'" opacity=".5" style="line-height:0%" xml:space="preserve"><tspan x="27.413834" y="7.2434168" font-size="1.41px" style="line-height:1.25">23:42</tspan></text><g transform="matrix(-.28916 0 0 .28916 70.315 -17.233)" opacity=".5"><path d="m152.03 81.594v3.4688h7.0068v-1.0625h0.70357v-1.4375h-0.70357v-0.96875zm0.34375 0.34375h6.3193v0.625 1.4375 0.6875h-6.3193zm6.663 0.9375h0.35982v0.78125h-0.35982z" color="#000000" enable-background="accumulate"/><rect x="152.55" y="82.141" width="4.3451" height="2.3594" color="#000000" enable-background="accumulate"/></g><path d="m24.23-1.6855c-2.7979 0.02366-5.6019 0.24829-8.4102 0.60352-0.79361 0.10039-1.4983 0.37505-1.9707 0.75s-0.71875 0.80974-0.71875 1.3691v41.785c0 0.56051 0.2514 1.0209 0.7207 1.4023 0.4693 0.3814 1.161 0.65252 1.9414 0.71484 7.0354 0.56187 12.541 0.51498 16.84 2e-3 0.79168-0.09449 1.4935-0.37028 1.9648-0.74609 0.47135-0.37582 0.71875-0.81318 0.71875-1.373v-41.785c0-0.55856-0.2422-0.97335-0.7168-1.3438-0.4746-0.3704-1.1882-0.65072-1.9902-0.7793-2.7891-0.44716-5.581-0.62327-8.3789-0.59961z" color="#000000" enable-background="accumulate" fill="none" stroke="url(#k)" stroke-width=".4065" xlink:href="#d"/><path transform="translate(0 -.60974)" d="m15.746-1.0617c5.6524-0.71501 11.305-0.9062 16.957 0 1.7549 0.28135 3.2081 1.2079 3.2081 2.7083v41.785c0 1.5004-1.4433 2.4977-3.2081 2.7083-4.3534 0.51958-9.8948 0.56403-16.957 0-1.7717-0.14149-3.2081-1.2079-3.2081-2.7083v-41.785c0-1.5004 1.4449-2.4853 3.2081-2.7083z" clip-path="url(#t)" color="#000000" enable-background="accumulate" fill="none" filter="url(#s)" opacity=".66383" stroke="#000" stroke-width=".60974"/><path d="m23.799-0.24872c-2.9151 0.03445-5.355 0.35778-7.9076 0.60974-1.1205 0.11061-2.0325 0.72519-2.0325 1.626v24.796c0 0.90079 0.90648 1.626 2.0325 1.626h5.6338l0.20304-0.95603s-0.36262-0.46773-0.36262-0.7726l0.01148-3.3076c0-0.63566 0.58665-0.98122 1.4636-1.2162l4.7438-22.278c-1.364-0.10184-2.6143-0.14087-3.7855-0.12703z" color="#000000" enable-background="accumulate" fill="url(#p)" fill-rule="evenodd" opacity=".25957"/><g transform="translate(0 -.60974)"><g transform="matrix(.75 0 0 .75 35.946 2.923)" fill-rule="evenodd"><rect x="-18.813" y="27.139" width="6.3769" height="6.5039" rx="1.3883" ry="1.3883" color="#000000" enable-background="accumulate" fill="#efeff0"/><rect x="-18.547" y="27.418" width="5.7934" height="5.945" rx="1.1342" ry="1.1342" color="#000000" enable-background="accumulate" fill="url(#h)"/><rect x="-18.547" y="27.418" width="5.7934" height="5.945" rx="1.1342" ry="1.1342" color="#000000" enable-background="accumulate" fill="url(#g)"/><rect x="-17.944" y="28.003" width="4.562" height="4.5731" rx=".72772" ry=".72772" color="#000000" enable-background="accumulate" fill="url(#f)"/><rect x="-17.137" y="28.866" width="3.0995" height="3.0995" rx=".28216" ry=".28216" color="#000000" enable-background="accumulate" fill="url(#e)"/></g><g transform="translate(31.503 4.065)"><rect x="-14.494" y="19.517" width="2.9979" height="1.626" rx=".30774" ry=".30774" color="#000000" enable-background="accumulate" fill="none" stroke="#000" stroke-linecap="round" stroke-width=".20325"/><rect x="-14.411" y="19.562" width="2.8314" height="1.5356" rx=".29064" ry=".29064" color="#000000" enable-background="accumulate" fill="#1f1f1f" fill-rule="evenodd" stroke="url(#a)" stroke-linecap="round" stroke-width=".10162"/><rect transform="matrix(.20325 0 0 .20325 -3.3665 -10.309)" x="-49.75" y="149.75" width="5" height="1.75" rx=".29064" ry=".29064" color="#000000" enable-background="accumulate" fill="#729fcf" fill-rule="evenodd" filter="url(#b)"/></g><g transform="translate(31.503 6.9104)" fill-rule="evenodd"><rect x="-14.494" y="19.517" width="2.9979" height="1.626" rx=".30774" ry=".30774" color="#000000" enable-background="accumulate" fill="#fff" stroke="#000" stroke-linecap="round" stroke-width=".20325"/><rect x="-14.411" y="19.562" width="2.8314" height="1.5356" rx=".29064" ry=".29064" color="#000000" enable-background="accumulate" fill="#202020" stroke="url(#a)" stroke-linecap="round" stroke-width=".10162"/><rect transform="matrix(.20325 0 0 .20325 -3.3665 -10.309)" x="-49.75" y="149.75" width="5" height="1.75" rx=".29064" ry=".29064" color="#000000" enable-background="accumulate" fill="#729fcf" filter="url(#b)"/></g><g transform="translate(43.088 4.065)" fill-rule="evenodd"><rect x="-14.494" y="19.517" width="2.9979" height="1.626" rx=".30774" ry=".30774" color="#000000" enable-background="accumulate" fill="#fff" stroke="#000" stroke-linecap="round" stroke-width=".20325"/><rect x="-14.411" y="19.562" width="2.8314" height="1.5356" rx=".29064" ry=".29064" color="#000000" enable-background="accumulate" stroke="url(#a)" stroke-linecap="round" stroke-width=".10162"/><rect transform="matrix(.20325 0 0 .20325 -3.3665 -10.309)" x="-49.75" y="149.75" width="5" height="1.75" rx=".29064" ry=".29064" color="#000000" enable-background="accumulate" fill="#729fcf" filter="url(#b)"/></g><g transform="translate(43.088 6.9104)" fill-rule="evenodd"><rect x="-14.494" y="19.517" width="2.9979" height="1.626" rx=".30774" ry=".30774" color="#000000" enable-background="accumulate" fill="#fff" stroke="#000" stroke-linecap="round" stroke-width=".20325"/><rect x="-14.411" y="19.562" width="2.8314" height="1.5356" rx=".29064" ry=".29064" color="#000000" enable-background="accumulate" stroke="url(#a)" stroke-linecap="round" stroke-width=".10162"/><rect transform="matrix(.20325 0 0 .20325 -3.3665 -10.309)" x="-49.75" y="149.75" width="5" height="1.75" rx=".29064" ry=".29064" color="#000000" enable-background="accumulate" fill="#729fcf" filter="url(#b)"/></g></g><g transform="translate(0 -.60974)"><path transform="translate(0 .20325)" d="m15.844 30.438c-0.82124 0-1.5 0.64063-1.5 1.4688v9.875c0 0.8287 0.67532 1.3999 1.4688 1.4688 5.9878 0.51975 11.523 0.56721 16.438 0 0.78371-0.09046 1.4375-0.64649 1.4375-1.4688v-9.875c0-0.82124-0.64751-1.4688-1.4688-1.4688z" color="#000000" enable-background="accumulate" fill="url(#j)" fill-rule="evenodd"/><path d="m15.844 30.438c-0.82124 0-1.5 0.64063-1.5 1.4688v9.875c0 0.8287 0.67532 1.3999 1.4688 1.4688 5.9878 0.51975 11.523 0.56721 16.438 0 0.78371-0.09046 1.4375-0.64649 1.4375-1.4688v-9.875c0-0.82124-0.64751-1.4688-1.4688-1.4688z" color="#000000" enable-background="accumulate" fill="#8f8f8f" fill-rule="evenodd"/><path d="m15.834 30.645h16.374c0.70031 0 1.2641 0.56379 1.2641 1.2641v9.8699c0 0.70031-0.56841 1.1838-1.2641 1.2641-4.8932 0.56479-10.397 0.5188-16.374 0-0.69769-0.06056-1.2641-0.56379-1.2641-1.2641v-9.8699c0-0.70031 0.56379-1.2641 1.2641-1.2641z" color="#000000" enable-background="accumulate" fill="url(#i)" fill-rule="evenodd"/><path d="m14.57 33.592h18.699" color="#000000" enable-background="accumulate" fill="none" opacity=".25957" stroke="#000" stroke-width=".20325"/><path d="m14.57 36.844h18.699" color="#000000" enable-background="accumulate" fill="none" opacity=".25957" stroke="#000" stroke-width=".20325"/><path d="m14.57 40.096h18.699" color="#000000" enable-background="accumulate" fill="none" opacity=".25957" stroke="#000" stroke-width=".20325"/><path d="m20.971 43.301 2e-6 -12.555" color="#000000" enable-background="accumulate" fill="none" opacity=".25957" stroke="#000" stroke-width=".20129"/><path d="m27.071 43.301 2e-6 -12.555" color="#000000" enable-background="accumulate" fill="none" opacity=".25957" stroke="#000" stroke-width=".20129"/><path transform="matrix(.20325 0 0 .20325 -3.3157 -10.411)" d="m87.875 215.88 1.75-0.75h28.5v-11.625l0.89952-1.558v14.058z" color="#000000" enable-background="accumulate" fill="#fff" opacity=".25957"/><path d="m14.545 36.717 0.35568-0.15244h5.7926v-2.3628l0.18282-0.31666v2.8573z" color="#000000" enable-background="accumulate" fill="#fff" opacity=".25957"/><path d="m14.545 39.969 0.35568-0.15244h5.7926v-2.3628l0.18282-0.31666v2.8573z" color="#000000" enable-background="accumulate" fill="#fff" opacity=".25957"/><path d="m14.617 42.155s0.53533 0.60208 1.3617 0.67394c1.3168 0.17004 2.5925 0.20634 4.7147 0.28744v-2.6143l0.18282-0.31666v3.2166c-1.4184-0.11704-3.5236-0.22905-4.8647-0.35918-0.86094-0.08354-1.132-0.3564-1.3945-0.88783z" color="#000000" enable-background="accumulate" fill="#fff" opacity=".25957"/><g color="#000000" enable-background="accumulate" fill="#3465a4" fill-rule="evenodd" style="text-decoration-line:none;text-indent:0;text-transform:none"><path d="m16.545 31.594v1.1851h-0.22487v-0.98893l-0.30823 0.30562-0.13371-0.145 0.38289-0.35685h0.28392"/></g><g color="#000000" enable-background="accumulate" fill="#3465a4" fill-rule="evenodd" style="text-decoration-line:none;text-indent:0;text-transform:none"><path d="m16.67 34.846v0.75711h0.13631v0.17365h-0.13631v0.2544h-0.22487v-0.2544h-0.63989v-0.25266l0.51747-0.6781h0.3473m-0.22487 0.75711v-0.58693h-0.0069l-0.44888 0.58693h0.45583"/></g><g color="#000000" enable-background="accumulate" fill="#3465a4" fill-rule="evenodd" style="text-decoration-line:none;text-indent:0;text-transform:none"><path d="m16.723 37.895v0.21619l-0.47753 0.96896h-0.25092l0.50358-0.99587h-0.65552v-0.18928h0.8804"/></g><g color="#000000" enable-background="accumulate" fill="#3465a4" fill-rule="evenodd" style="text-decoration-line:none;text-indent:0;text-transform:none"><path d="m23.261 32.601v0.17799h-0.89602v-0.24137c0-0.12503 0.02229-0.20809 0.06685-0.24918 0.04515-0.0411 0.15194-0.07669 0.32038-0.10679 0.1395-0.02489 0.22198-0.04746 0.24745-0.06772 0.02605-0.02084 0.03907-0.07409 0.03907-0.15976 0-0.08219-0.01302-0.13429-0.03907-0.15628-0.02547-0.02199-0.08654-0.03299-0.1832-0.03299-0.09956 1e-6 -0.16236 0.01129-0.18841 0.03386-0.02605 0.022-0.03907 0.07612-0.03907 0.16236v0.05036h-0.22053v-0.04949c0-0.14876 0.03068-0.24889 0.09203-0.30041 0.06136-0.05151 0.1803-0.07727 0.35685-0.07727 0.17249 1e-6 0.28941 0.02605 0.35077 0.07814 0.06193 0.05209 0.0929 0.15107 0.0929 0.29694-1e-6 0.13776-0.02344 0.23008-0.07033 0.27697-0.04688 0.04631-0.15484 0.08509-0.32385 0.11634-0.1395 0.02547-0.22053 0.04717-0.24311 0.06512-0.02257 0.01736-0.03386 0.06772-0.03386 0.15107v0.03213h0.67115"/></g><g color="#000000" enable-background="accumulate" fill="#3465a4" fill-rule="evenodd" style="text-decoration-line:none;text-indent:0;text-transform:none"><path d="m23.226 34.846v0.17799h-0.62253l-0.0026 0.28565h0.0043c0.04399-0.06135 0.13429-0.09203 0.27089-0.09203 0.1557 1e-6 0.26134 0.02865 0.31691 0.08596 0.05614 0.0573 0.08422 0.16526 0.08422 0.32385-1e-6 0.16265-0.03126 0.27234-0.09377 0.32906-0.06251 0.05615-0.18349 0.08422-0.36292 0.08422-0.17712 0-0.29636-0.02402-0.35772-0.07206-0.06136-0.04804-0.09203-0.14123-0.09203-0.27957h0.21966c0.0041 0.07641 0.01852 0.12416 0.04341 0.14326 0.02547 0.01852 0.0874 0.02778 0.1858 0.02778 0.1094 0 0.17596-0.01244 0.1997-0.03733 0.02373-0.02547 0.0356-0.09638 0.0356-0.21272-1e-6 -0.09088-0.01331-0.14876-0.03994-0.17365-0.02663-0.02547-0.08827-0.0382-0.18494-0.0382-0.14066 1e-6 -0.21793 0.0275-0.23182 0.08248h-0.20317v-0.63468h0.83091"/></g><g color="#000000" enable-background="accumulate" fill="#3465a4" fill-rule="evenodd" style="text-decoration-line:none;text-indent:0;text-transform:none"><path d="m23.072 38.468v0.0043c0.13776 0.02373 0.20664 0.11721 0.20664 0.28044-1e-6 0.13371-0.03126 0.22343-0.09377 0.26915-0.06251 0.04515-0.18609 0.06772-0.37074 0.06772-0.18233 0-0.30504-0.02257-0.36813-0.06772-0.06251-0.04515-0.09377-0.13371-0.09377-0.26568 0-0.16612 0.06917-0.26105 0.20751-0.28478v-0.0043c-0.07583-0.01852-0.12676-0.04544-0.15281-0.08075-0.02547-0.03589-0.0382-0.09724-0.0382-0.18407 0-0.1256 0.02981-0.20982 0.08943-0.25266 0.0602-0.04283 0.1777-0.06425 0.3525-0.06425 0.18117 1e-6 0.30186 0.02113 0.36206 0.06338 0.06078 0.04168 0.09116 0.12561 0.09117 0.25179-1e-6 0.14644-0.06396 0.23558-0.19188 0.26742m-0.26047-0.402c-0.09956 1e-6 -0.1612 0.0084-0.18494 0.02518-0.02373 0.01679-0.0356 0.06049-0.0356 0.1311-1e-6 0.07467 0.01273 0.1204 0.0382 0.13718 0.02547 0.01679 0.09493 0.02518 0.20838 0.02518 0.0903 1e-6 0.14673-0.0095 0.16931-0.02865 0.02315-0.01968 0.03473-0.06801 0.03473-0.145 0-0.06425-0.01302-0.10448-0.03907-0.12068-0.02547-0.01621-0.08914-0.02431-0.19101-0.02431m0 0.49403c-0.1065 0-0.17278 0.0096-0.19883 0.02865-0.02547 0.01852-0.0382 0.06714-0.0382 0.14586 0 0.07988 0.01302 0.12908 0.03907 0.1476 0.02663 0.01794 0.09811 0.02692 0.21446 0.02692 0.09956 0 0.16236-0.01071 0.18841-0.03213 0.02663-0.02142 0.03994-0.07293 0.03994-0.15455 0-0.0712-0.01389-0.11606-0.04167-0.13458-0.02779-0.01852-0.09551-0.02778-0.20317-0.02778"/></g><g color="#000000" enable-background="accumulate" fill="#3465a4" fill-rule="evenodd" style="text-decoration-line:none;text-indent:0;text-transform:none"><path d="m31.665 32.261v-0.17452l0.0382 8.68e-4c0.12618 1e-6 0.20288-0.0075 0.23008-0.02257 0.02778-0.01505 0.04168-0.05759 0.04168-0.12763-1e-6 -0.07814-0.01245-0.12618-0.03733-0.14413-0.02431-0.01852-0.08914-0.02778-0.19449-0.02778-0.09551 1e-6 -0.1557 0.01013-0.18059 0.03039-0.02489 0.01968-0.03733 0.0683-0.03733 0.14586v0.03473h-0.21706v-0.04428c0-0.13834 0.02923-0.23066 0.08769-0.27697 0.05846-0.04688 0.17394-0.07033 0.34643-0.07033 0.17365 1e-6 0.29289 0.022 0.35772 0.06599 0.06483 0.04399 0.09724 0.12532 0.09724 0.24398-1e-6 0.16381-0.0657 0.25584-0.19709 0.2761v0.0061c0.14297 0.01563 0.21445 0.10187 0.21446 0.25874-1e-6 0.1395-0.03155 0.23327-0.09464 0.28131-0.06309 0.04804-0.18609 0.07206-0.369 0.07206-0.17944 0-0.30157-0.02402-0.3664-0.07206-0.06425-0.04804-0.09637-0.13892-0.09637-0.27263l8.68e-4 -0.06599h0.21966c0.0017 0.02605 0.0026 0.04167 0.0026 0.04689 0 0.08161 0.0136 0.13255 0.04081 0.15281 0.02778 0.02026 0.09695 0.03039 0.20751 0.03039 0.10129 0 0.16525-0.011 0.19188-0.03299 0.0272-0.022 0.04081-0.07467 0.04081-0.15802 0-0.06367-0.01244-0.10564-0.03733-0.12589-0.02431-0.02026-0.07525-0.03039-0.15281-0.03039h-0.09811-0.03907"/></g><g color="#000000" enable-background="accumulate" fill="#3465a4" fill-rule="evenodd" style="text-decoration-line:none;text-indent:0;text-transform:none"><path d="m32.208 35.178h-0.22314l8.69e-4 -0.02692c-1e-6 -0.05557-0.01245-0.09174-0.03734-0.10853-0.02489-0.01736-0.07756-0.02605-0.15802-0.02605-0.11692 1e-6 -0.18986 0.01129-0.2188 0.03386-0.02894 0.022-0.04341 0.07785-0.04341 0.16757v0.20404h0.0043c0.03878-0.0764 0.13574-0.11461 0.29086-0.11461 0.15223 1e-6 0.25613 0.02431 0.3117 0.07293 0.05557 0.04804 0.08335 0.13834 0.08335 0.27089-1e-6 0.15339-0.02981 0.25671-0.08943 0.30996-0.05962 0.05325-0.17538 0.07988-0.3473 0.07988-0.21185 0-0.34498-0.03126-0.39939-0.09377-0.05441-0.06309-0.08161-0.21648-0.08161-0.46017 0-0.30099 0.02431-0.48477 0.07293-0.55133 0.0492-0.06656 0.18494-0.09985 0.4072-0.09985 0.16207 1e-6 0.27378 0.02229 0.33514 0.06685 0.06135 0.04457 0.09203 0.1259 0.09203 0.24398v0.03126m-0.43672 0.30996c-0.10593 1e-6 -0.17394 0.0096-0.20404 0.02865-0.02952 0.01852-0.04428 0.06107-0.04428 0.12763 0 0.09666 0.01331 0.15686 0.03994 0.18059 0.02663 0.02373 0.09377 0.0356 0.20143 0.0356 0.10303 1e-6 0.16728-0.01042 0.19275-0.03126 0.02605-0.02142 0.03907-0.07467 0.03907-0.15976 0-0.08046-0.01273-0.13082-0.0382-0.15107-0.02489-0.02026-0.08711-0.03039-0.18667-0.03039"/></g><g color="#000000" enable-background="accumulate" fill="#3465a4" fill-rule="evenodd" style="text-decoration-line:none;text-indent:0;text-transform:none"><path d="m31.29 38.745h0.2188c-1e-6 0.07525 0.01215 0.12155 0.03647 0.13892 0.02431 0.01679 0.08914 0.02518 0.19448 0.02518 0.11403 1e-6 0.1832-0.01187 0.20751-0.0356 0.02489-0.02373 0.03733-0.09088 0.03733-0.20143v-0.17278h-0.0043c-0.03762 0.07756-0.1285 0.11634-0.27263 0.11634-0.16207 1e-6 -0.27089-0.02257-0.32646-0.06772-0.05499-0.04573-0.08248-0.13516-0.08248-0.26829 0-0.1557 0.02894-0.26047 0.08682-0.3143 0.05846-0.05383 0.1722-0.08075 0.34122-0.08075 0.21938 1e-6 0.35482 0.03126 0.40634 0.09377 0.05209 0.06251 0.07814 0.22632 0.07814 0.49142-1e-6 0.28536-0.02489 0.46017-0.07467 0.52442-0.0492 0.06367-0.18407 0.09551-0.4046 0.09551-0.17018 0-0.28652-0.02142-0.34903-0.06425-0.06194-0.04283-0.0929-0.12271-0.0929-0.23964v-0.04081m0.44541-0.67983c-0.09319 1e-6 -0.15223 0.011-0.17712 0.03299-0.02489 0.02142-0.03733 0.07264-0.03733 0.15368 0 0.08161 0.01244 0.13255 0.03733 0.15281 0.02547 0.02026 0.08885 0.03039 0.19014 0.03039 0.10708 1e-6 0.17394-0.0095 0.20056-0.02865 0.02663-0.01968 0.03994-0.06801 0.03994-0.145 0-0.08798-0.01389-0.14268-0.04167-0.1641-0.02778-0.02142-0.0984-0.03212-0.21185-0.03213"/></g><g color="#000000" enable-background="accumulate" fill="#3465a4" fill-rule="evenodd" style="text-decoration-line:none;text-indent:0;text-transform:none"><path d="m22.821 40.934c0.21764 1e-6 0.35193 0.03213 0.40286 0.09637 0.05093 0.06367 0.0764 0.23211 0.0764 0.50532-1e-6 0.27379-0.02547 0.4428-0.0764 0.50705-0.05094 0.06367-0.18523 0.09551-0.40286 0.09551-0.21764 0-0.35193-0.03213-0.40286-0.09638-0.05094-0.06425-0.0764-0.23298-0.0764-0.50618 0-0.2732 0.02547-0.44164 0.0764-0.50532 0.05094-0.06425 0.18522-0.09637 0.40286-0.09637m-0.01737 0.19275c-0.10361 1e-6 -0.16931 0.01476-0.19709 0.04428-0.02721 0.02952-0.04081 0.09956-0.04081 0.21011l-0.0017 0.15542 0.0017 0.14413c0 0.11982 0.01389 0.19391 0.04168 0.22227 0.02778 0.02836 0.09985 0.04254 0.21619 0.04254 0.12097 0 0.19362-0.01997 0.21793-0.05991 0.02431-0.03994 0.03646-0.15889 0.03647-0.35685-1e-6 -0.19969-0.01158-0.31662-0.03473-0.35077-0.02315-0.03415-0.10303-0.05122-0.23964-0.05123"/></g><g color="#000000" enable-background="accumulate" fill="#3465a4" fill-rule="evenodd" style="text-decoration-line:none;text-indent:0;text-transform:none"><path d="m24.108 32.224h-0.1655c0-0.0811 0.01886-0.13532 0.05658-0.16267 0.03772-0.02735 0.11245-0.04102 0.2242-0.04102 0.12165 0 0.20392 0.01674 0.24683 0.05021 0.0429 0.03348 0.06436 0.09737 0.06436 0.19166v0.44203h-0.16196l0.0078-0.09265-0.0042-7.08e-4c-0.03112 0.06742-0.10302 0.10114-0.21571 0.10114-0.16361 0-0.24541-0.06954-0.24541-0.20864 0-0.14051 0.08369-0.21076 0.25107-0.21076 0.11174 0 0.17964 0.0257 0.20369 0.07709h0.0028v-0.10962c-1e-6 -0.05281-0.0092-0.0877-0.02758-0.10467-0.01839-0.01744-0.05611-0.02617-0.11316-0.02617-0.08251 1e-6 -0.12377 0.03159-0.12377 0.09477m0.10821 0.17752c-0.09147 0-0.13721 0.03159-0.13721 0.09477 0 0.04385 0.0094 0.07261 0.02829 0.08628 0.01886 0.01367 0.05846 0.02051 0.11882 0.02051 0.09854 0 0.14781-0.03324 0.14781-0.09972 0-0.0679-0.05257-0.10184-0.15772-0.10184"/><path d="m24.695 32.704v-0.96539h0.16196v0.38616l0.0035 0.0014c0.02782-0.07119 0.09831-0.10679 0.21147-0.10679 0.09713 1e-6 0.16361 0.02381 0.19944 0.07143 0.0363 0.04715 0.05446 0.13485 0.05446 0.2631-1e-6 0.14004-0.01839 0.23481-0.05517 0.28431-0.03631 0.04904-0.10632 0.07355-0.21005 0.07355-0.10514 0-0.17422-0.03819-0.20722-0.11457h-0.0035l0.0071 0.10679h-0.16196m0.3218-0.5566c-0.10514 0-0.15772 0.0653-0.15772 0.19591-1e-6 0.10232 9e-3 0.16809 0.02688 0.19732 0.01792 0.02876 0.05847 0.04314 0.12165 0.04314 0.06601 0 0.10821-0.0132 0.1266-0.03961 0.01839-0.02688 0.02758-0.08793 0.02758-0.18318-1e-6 -0.08864-0.0092-0.1464-0.02758-0.17328-0.01792-0.02688-0.05705-0.04031-0.1174-0.04031"/><path d="m25.892 32.446h0.16125v0.02334l-0.0099 0.10255c-0.0198 0.09336-0.11646 0.14003-0.28997 0.14003-0.1273 0-0.21194-0.02287-0.2539-0.0686-0.04196-0.04621-0.06294-0.13886-0.06294-0.27795 0-0.13579 0.02098-0.22726 0.06294-0.27441s0.12353-0.07072 0.24471-0.07072c0.11693 0 0.19614 0.01721 0.23763 0.05163 0.04149 0.03395 0.06224 0.09878 0.06224 0.19449h-0.16054c0-0.07874-0.0455-0.11811-0.1365-0.11811-0.0646 0-0.10514 0.0125-0.12165 0.03748-0.0165 0.02499-0.02475 0.08628-0.02475 0.18388 0 0.0943 9e-3 0.15371 0.02688 0.17822 0.01839 0.02405 0.06294 0.03607 0.13367 0.03607 0.05564 0 0.09123-0.0083 0.10679-0.02475 0.01603-0.01697 0.02405-0.05469 0.02405-0.11316"/></g><g color="#000000" enable-background="accumulate" fill="#3465a4" fill-rule="evenodd" style="text-decoration-line:none;text-indent:0;text-transform:none"><path d="m24.548 34.99v0.13508h-0.16196v-0.13508h0.16196m-7.07e-4 0.28926v0.70512c-1e-6 0.13532-0.06012 0.20298-0.18035 0.20298-0.01697 0-0.0356-0.0019-0.05587-0.0057v-0.11528h0.01627c0.03866 0 0.05799-0.03183 0.05799-0.09548v-0.69169h0.16196"/><path d="m24.87 34.99v0.55236h0.04173l0.18247-0.2631h0.18813l-0.23551 0.31826 0.2836 0.35787h-0.20086l-0.21995-0.29987h-0.03961v0.29987h-0.16196v-0.96539h0.16196"/><path d="m25.566 34.99v0.96539h-0.16196v-0.96539h0.16196"/></g><g color="#000000" enable-background="accumulate" fill="#3465a4" fill-rule="evenodd" style="text-decoration-line:none;text-indent:0;text-transform:none"><path d="m24.516 38.328v0.12306h-0.26027v0.33948c-1e-6 0.06271 0.02381 0.09406 0.07143 0.09406 0.05234 0 0.0785-0.03795 0.0785-0.11387v-0.02688h0.13791v0.03395c0 0.03112-9.43e-4 0.05776-0.0028 0.07992-9e-3 0.10326-0.08581 0.15489-0.23056 0.15489-0.14428 0-0.21642-0.06625-0.21642-0.19874v-0.36282h-0.0877v-0.12306h0.0877v-0.15135h0.16196v0.15135h0.26027"/><path d="m25.232 38.328v0.67613h-0.16196l0.0092-0.11599-0.0028-7.07e-4c-0.03159 0.08298-0.1042 0.12448-0.21783 0.12448-0.15324 0-0.22985-0.07662-0.22985-0.22986v-0.45405h0.16196v0.41515c0 0.05752 8e-3 0.09548 0.02405 0.11387 0.01603 0.01792 0.04927 0.02688 0.09972 0.02688 0.10373 0 0.15559-0.06224 0.15559-0.18671v-0.36918h0.16196"/><path d="m25.959 38.328-0.19378 0.67613h-0.25319l-0.20369-0.67613h0.17186l0.08911 0.3119c0.01226 0.04338 0.02357 0.08534 0.03395 0.12589l0.01627 0.06294 0.01627 0.06294h0.0035l0.01485-0.06294 0.01485-0.06224c0.01131-0.04715 0.02192-0.08911 0.03183-0.12589l0.08346-0.3126h0.17469"/></g><g color="#000000" enable-background="accumulate" fill="#3465a4" fill-rule="evenodd" style="text-decoration-line:none;text-indent:0;text-transform:none"><path d="m29.096 31.738v0.96539h-0.15772l0.0057-0.10892-0.0028-7.07e-4c-0.03159 0.07874-0.10043 0.11811-0.20652 0.11811-0.10703 0-0.17799-0.02428-0.21288-0.07285-0.03442-0.04904-0.05163-0.14828-0.05163-0.29775 0-0.1207 0.01862-0.20439 0.05587-0.25107 0.03725-0.04715 0.10349-0.07072 0.19874-0.07072 0.11033 0 0.17917 0.03489 0.20652 0.10467l0.0028-7.07e-4v-0.38545h0.16196m-0.31755 0.4095c-0.06035 0-0.09949 0.01297-0.1174 0.0389-0.01792 0.02546-0.02688 0.08063-0.02687 0.1655-1e-6 0.09807 9e-3 0.16125 0.02687 0.18954 0.01792 0.02829 0.05799 0.04243 0.12023 0.04243 0.06507 0 0.10656-0.01391 0.12448-0.04173 0.01839-0.02782 0.02758-0.09194 0.02758-0.19237 0-0.08298-0.01014-0.13744-0.03041-0.16337-0.0198-0.02593-0.06129-0.0389-0.12448-0.0389"/><path d="m29.691 32.487h0.16267v0.02617c0 0.13202-0.09901 0.19803-0.29704 0.19803-0.13438 0-0.22231-0.02287-0.2638-0.0686-0.04149-0.04574-0.06224-0.14263-0.06224-0.29068 0-0.13155 0.02169-0.21995 0.06507-0.26522 0.04338-0.04526 0.12801-0.0679 0.2539-0.0679 0.1207 1e-6 0.20156 0.02216 0.24258 0.06648 0.04102 0.04385 0.06153 0.13037 0.06153 0.25956v0.04951h-0.45759c-9.43e-4 0.01509-0.0014 0.02499-0.0014 0.0297 0 0.06648 0.01014 0.1108 0.03041 0.13296 0.02075 0.02216 0.06177 0.03324 0.12306 0.03324 0.05941 1e-6 0.09807-0.0064 0.11599-0.0191 0.01792-0.0132 0.02688-0.04126 0.02688-0.08416m0.0014-0.19166-7.08e-4 -0.02687c0-0.05375-0.0094-0.08864-0.02829-0.10467-0.01839-0.01603-0.0587-0.02405-0.12094-0.02405-0.06035 1e-6 -0.09972 0.0097-0.11811 0.029-0.01792 0.01933-0.02688 0.06153-0.02688 0.1266h0.29492"/><path d="m30.022 32.704v-0.55307h-0.09548v-0.12306h0.09548v-0.07214c-1e-6 -0.08581 0.01839-0.14498 0.05516-0.17752 0.03725-0.033 0.10444-0.04951 0.20156-0.04951 0.0165 1e-6 0.03937 7.09e-4 0.0686 0.0021v0.1266c-0.02216-0.0052-0.04102-0.0078-0.05658-0.0078-0.0712 1e-6 -0.1068 0.03536-0.10679 0.10609v0.07214h0.16832v0.12306h-0.16832v0.55307h-0.16196"/></g><g color="#000000" enable-background="accumulate" fill="#3465a4" fill-rule="evenodd" style="text-decoration-line:none;text-indent:0;text-transform:none"><path d="m28.118 35.28h0.16196l-0.0042 0.10396 0.0035 7.07e-4c0.033-0.07497 0.10184-0.11245 0.20652-0.11245 0.12212 1e-6 0.19001 0.04173 0.20369 0.12518h0.0028c0.03159-0.08346 0.10114-0.12518 0.20864-0.12518 0.15654 1e-6 0.2348 0.07874 0.23481 0.23622v0.44769h-0.16196v-0.41232c-1e-6 -0.09571-0.03937-0.14357-0.11811-0.14357-0.09854 0-0.14782 0.05351-0.14781 0.16054v0.39535h-0.16196v-0.41869c-1e-6 -0.05611-0.0075-0.09288-0.02263-0.11033-0.01462-0.01792-0.04597-0.02687-0.09406-0.02687-0.09949 0-0.14923 0.05469-0.14923 0.16408v0.39181h-0.16196v-0.67613"/><path d="m29.301 35.28h0.16054l-0.0064 0.11387 0.0035 7.08e-4c0.03159-0.08157 0.10232-0.12235 0.21217-0.12235 0.15984 1e-6 0.23976 0.0745 0.23976 0.22349v0.46042h-0.16196v-0.40737-0.02546l-0.0035-0.04738c-0.0075-0.05045-0.04715-0.07567-0.11882-0.07567-0.10892 0-0.16337 0.05163-0.16337 0.15489v0.40101h-0.16196v-0.67613"/><path d="m30.365 35.272c0.1306 1e-6 0.21618 0.02098 0.25673 0.06294 0.04055 0.04149 0.06082 0.12943 0.06082 0.2638-1e-6 0.14994-0.0198 0.24824-0.05941 0.29492-0.03961 0.04668-0.12306 0.07002-0.25036 0.07002-0.13815 0-0.22773-0.02169-0.26875-0.06507-0.04055-0.04338-0.06082-0.13886-0.06082-0.28644 0-0.14192 0.02004-0.2341 0.06012-0.27653 0.04008-0.04243 0.1273-0.06365 0.26168-0.06365m-0.0014 0.12801c-0.06742 0-0.11033 0.01226-0.12872 0.03678-0.01839 0.02405-0.02758 0.08063-0.02758 0.16974 0 0.10184 0.0087 0.1655 0.02617 0.19096 0.01744 0.02546 0.06106 0.03819 0.13084 0.03819 0.06742 0 0.10986-0.01344 0.1273-0.04031 0.01792-0.02687 0.02688-0.09147 0.02688-0.19378-1e-6 -0.08628-0.0092-0.14145-0.02758-0.1655-0.01839-0.02405-0.06082-0.03607-0.1273-0.03607"/></g><g color="#000000" enable-background="accumulate" fill="#3465a4" fill-rule="evenodd" style="text-decoration-line:none;text-indent:0;text-transform:none"><path d="m28.954 38.328-0.15135 0.67613h-0.23905l-0.0679-0.3027c-0.01179-0.05233-0.02051-0.09218-0.02617-0.11952l-0.01202-0.05941-0.01202-0.05941h-5e-3l-0.01202 0.05941-0.01202 0.06012c-0.0052 0.0264-0.01367 0.06601-0.02546 0.11882l-0.0679 0.3027h-0.24258l-0.15064-0.67613h0.16337l0.06507 0.31331c8e-3 0.03914 0.01603 0.0811 0.02405 0.12589l0.01132 0.06295 0.01202 0.06294h0.0028l0.01414-0.06294 0.01344-0.06295c0.0071-0.03159 0.01674-0.07332 0.029-0.12518l0.07355-0.31402h0.20652l0.07355 0.31402c0.01367 0.05894 0.02334 0.10066 0.029 0.12518l0.01344 0.06295 0.01344 0.06294h0.0035l0.01202-0.06294 0.01132-0.06295c8e-3 -0.04338 0.01627-0.08534 0.02475-0.12589l0.06577-0.31331h0.16196"/><path d="m29.589 38.328-0.19662 0.31826 0.21854 0.35787h-0.19378l-0.13579-0.24541-0.13226 0.24541h-0.19874l0.22137-0.35574-0.1952-0.32038h0.19308l0.11174 0.2143 0.11457-0.2143h0.19308"/><path d="m30.244 38.328-0.17752 0.71856c-0.02499 0.10184-0.05611 0.17021-0.09336 0.2051-0.03678 0.03536-0.09595 0.05304-0.17752 0.05304-0.01839-1e-6 -0.03748-9.44e-4 -0.05729-0.0028v-0.11952c0.01414 9.43e-4 0.02593 0.0014 0.03536 0.0014 0.06884-1e-6 0.11245-0.05988 0.13084-0.17964h-0.08275l-0.22137-0.67613h0.17398l0.08487 0.28643 0.04243 0.14357c0.0024 0.0094 9e-3 0.03348 0.0198 0.07214l0.02051 0.07143h0.0035l0.01485-0.07143c0.0075-0.03678 0.01249-0.06082 0.01485-0.07214l0.03324-0.14357 0.06507-0.28643h0.17045"/><path d="m30.296 38.328h0.5269v0.13933l-0.36211 0.41374h0.36211v0.12306h-0.55519v-0.14216l0.35857-0.41091h-0.33028v-0.12306"/></g><g color="#000000" enable-background="accumulate" fill="#3465a4" fill-rule="evenodd" style="text-decoration-line:none;text-indent:0;text-transform:none"><path d="m18.638 35.28v0.68886c-1e-6 0.11033-0.0224 0.186-0.06719 0.22703-0.04432 0.04102-0.12636 0.06153-0.24612 0.06153-0.11599 0-0.19355-0.01556-0.23268-0.04668-0.03913-0.03112-0.0587-0.09265-0.0587-0.18459h0.15701c0 0.04385 0.0083 0.0719 0.02475 0.08416 0.0165 0.01273 0.05328 0.0191 0.11033 0.0191 0.10043-1e-6 0.15064-0.04149 0.15064-0.12448v-0.15206l-0.0035-7.08e-4c-0.02876 0.07214-0.09477 0.10821-0.19803 0.10821-0.10232 0-0.17233-0.02475-0.21005-0.07426-0.03725-0.04951-0.05587-0.14192-0.05587-0.27724 0-0.1273 0.01862-0.21524 0.05587-0.2638 0.03772-0.04856 0.10585-0.07285 0.20439-0.07285 0.1075 1e-6 0.17799 0.03984 0.21147 0.11952h0.0035l-0.0078-0.11174h0.16196m-0.31897 0.12023c-0.06224 0-0.10232 0.01273-0.12023 0.03819-0.01744 0.02499-0.02617 0.08228-0.02617 0.17186 0 0.09524 0.0087 0.15606 0.02617 0.18247 0.01792 0.0264 0.0587 0.03961 0.12235 0.03961 0.06365 0 0.10491-0.01344 0.12377-0.04031 0.01886-0.02735 0.02829-0.08746 0.02829-0.18035 0-0.08911-0.0094-0.14664-0.02829-0.17257-0.01886-0.02593-0.06082-0.0389-0.12589-0.0389"/><path d="m18.956 34.99v0.40101l0.0035 7.07e-4c0.03018-0.08015 0.09949-0.12023 0.20793-0.12023 0.15795 1e-6 0.23693 0.07473 0.23693 0.2242v0.45971h-0.16196v-0.41515-0.02192c0-0.07921-0.04031-0.11882-0.12094-0.11882-0.11033 0-0.1655 0.05729-0.1655 0.17186v0.38403h-0.16196v-0.96539h0.16196"/><path d="m19.726 34.99v0.13508h-0.16196v-0.13508h0.16196m0 0.28926v0.67613h-0.16196v-0.67613h0.16196"/></g><g color="#000000" enable-background="accumulate" fill="#3465a4" fill-rule="evenodd" style="text-decoration-line:none;text-indent:0;text-transform:none"><path d="m17.523 38.328h0.16479l-0.0064 0.10043 0.0035 7.07e-4c0.03913-0.07308 0.11198-0.10962 0.21854-0.10962 0.09854 1e-6 0.1662 0.02452 0.20298 0.07355 0.03725 0.04856 0.05587 0.13744 0.05587 0.26663 0 0.13485-0.01839 0.22726-0.05516 0.27724-0.03678 0.04998-0.10491 0.07497-0.20439 0.07497-0.10609 0-0.1754-0.03536-0.20793-0.10609h-0.0028v0.38828h-0.16903v-0.9661m0.31897 0.11952c-0.06177 1e-6 -0.10208 0.01391-0.12094 0.04173s-0.02829 0.08676-0.02829 0.17681c-1e-6 0.0877 0.01014 0.14593 0.03041 0.17469 0.02027 0.02876 0.06153 0.04314 0.12377 0.04314 0.06318 0 0.1042-0.01367 0.12306-0.04102 0.01886-0.02735 0.02829-0.08605 0.02829-0.1761-1e-6 -0.09241-0.0097-0.15206-0.029-0.17893-0.01886-0.02687-0.0613-0.04031-0.1273-0.04031"/><path d="m18.903 38.328v0.9661h-0.16196v-0.38898l-0.0028-7.07e-4c-0.0297 0.07214-0.09901 0.10821-0.20793 0.10821-0.09949 0-0.16738-0.02499-0.20369-0.07497-0.03583-0.05045-0.05375-0.14498-0.05375-0.2836 0-0.12778 0.01839-0.21524 0.05517-0.26239 0.03725-0.04762 0.10562-0.07143 0.2051-0.07143 0.10232 1e-6 0.17092 0.03631 0.20581 0.10892l0.0042-0.0014-0.0021-0.09972h0.16196m-0.32109 0.12023c-0.05894 0-0.09784 0.01344-0.1167 0.04031-0.01886 0.0264-0.02829 0.08133-0.02829 0.16479 0 0.10043 0.0087 0.16408 0.02617 0.19096 0.01792 0.02687 0.05988 0.04031 0.12589 0.04031 0.05988 0 0.09972-0.01391 0.11952-0.04173 0.02027-0.02782 0.03041-0.08322 0.03041-0.1662-1e-6 -0.09619-0.0097-0.15819-0.029-0.18601-0.01886-0.02829-0.06153-0.04243-0.12801-0.04243"/><path d="m19.066 38.328h0.16196l-0.0099 0.09477 0.0035 7.07e-4c0.03866-0.07072 0.09948-0.10609 0.18247-0.10609 0.11882 1e-6 0.17822 0.07497 0.17823 0.2249v0.04739h-0.15276c0.0019-0.01839 0.0028-0.03041 0.0028-0.03607 0-0.07214-0.02806-0.10821-0.08416-0.10821-0.08016 0-0.12023 0.05352-0.12023 0.16054v0.39818h-0.16196v-0.67613"/><path d="m20.24 38.514h-0.15842c-9.44e-4 -0.0057-0.0017-0.0099-0.0021-0.01273-0.0033-0.03253-0.01273-0.05281-0.02829-0.06082-0.01509-8e-3 -0.0521-0.01202-0.11104-0.01202-0.0844 0-0.1266 0.02735-0.1266 0.08204 0 0.03725 0.0073 0.05941 0.02192 0.06648 0.01509 0.0071 0.06554 0.01273 0.15135 0.01697 0.11552 0.0057 0.19072 0.02098 0.22561 0.04597 0.03489 0.02499 0.05234 0.07615 0.05234 0.15347 0 0.08251-0.02334 0.1398-0.07002 0.17186-0.04621 0.03159-0.12943 0.04738-0.24966 0.04738-0.11552 0-0.19449-0.01438-0.23693-0.04314-0.04243-0.02876-0.06365-0.08251-0.06365-0.16125v-0.01697h0.16832c-0.0024 0.0094-0.0038 0.01697-0.0042 0.02263-0.0066 0.05988 0.03961 0.08982 0.13862 0.08982 0.10232 1e-6 0.15347-0.0297 0.15347-0.08911-1e-6 -0.05705-0.03206-0.08558-0.09619-0.08558-0.14475 0-0.24023-0.01367-0.28643-0.04102-0.04574-0.02735-0.0686-0.08416-0.0686-0.17045 0-0.07732 0.02098-0.12966 0.06295-0.15701 0.04196-0.02735 0.12259-0.04102 0.24188-0.04102 0.11269 1e-6 0.18836 0.0132 0.22703 0.03961 0.03913 0.0264 0.0587 0.07803 0.0587 0.15489"/></g><path d="m18.179 32.047c-0.20524 0-0.3756 0.16522-0.3756 0.37046 0 0.18462 0.13677 0.33576 0.31386 0.36531 0.0115 2e-3 0.0242 0.0043 0.03603 0.0051 0.0085 5.92e-4 0.0171 0.0051 0.02573 0.0051 0.01368 0 0.02789-0.0037 0.04116-0.0051h0.90557c0.01332 0.0014 0.0275 0.0051 0.04116 0.0051 0.20524 0 0.37046-0.17036 0.37046-0.3756 0-0.20524-0.16522-0.37046-0.37046-0.37046-0.20524 0-0.3756 0.16522-0.3756 0.37046 0 0.07073 0.02168 0.13862 0.0566 0.19552h-0.35502c0.03465-0.05723 0.0566-0.1242 0.0566-0.19552 0-0.20524-0.16522-0.37046-0.37046-0.37046zm0 0.16465c0.11625 0 0.20581 0.08955 0.20581 0.20581 0 0.08719-0.04924 0.16344-0.12349 0.19552h-0.10805a0.082333 0.082333 0 0 0-0.01544 0.01032c-0.09601-0.01972-0.16979-0.10408-0.16979-0.20581 0-0.11625 0.0947-0.20581 0.21096-0.20581zm0.98789 0c0.11625 0 0.20581 0.08955 0.20581 0.20581 0 0.11625-0.08955 0.21096-0.20581 0.21096a0.082333 0.082333 0 0 0 0-0.01544h-0.08232c-0.07568-0.03208-0.12864-0.10832-0.12864-0.19552 0-0.11625 0.0947-0.20581 0.21096-0.20581z" color="#000000" enable-background="accumulate" fill="#3465a4" opacity=".94894" style="text-decoration-line:none;text-indent:0;text-transform:none"/><g color="#000000" enable-background="accumulate" fill="#3465a4" fill-rule="evenodd" style="text-decoration-line:none;text-indent:0;text-transform:none"><path d="m17.041 41.594-0.36101 0.12507 0.21604 0.307-0.15208 0.11512-0.21888-0.32121-0.23736 0.32121-0.1535-0.11512 0.22456-0.30842-0.36243-0.13502 0.06538-0.18477 0.36243 0.13076v-0.38233h0.18903v0.38233l0.36527-0.13076 0.06254 0.19614"/></g><g color="#000000" enable-background="accumulate" fill="#3465a4" fill-rule="evenodd" style="text-decoration-line:none;text-indent:0;text-transform:none"><path d="m32.223 41.873-0.02235 0.14301h-0.19843l-0.05542 0.35038h-0.15642l0.05542-0.35038h-0.24402l-0.05542 0.35038h-0.15463l0.05542-0.35038h-0.19843l0.02145-0.14301h0.19933l0.03843-0.23597h-0.19843l0.02235-0.14301h0.19843l0.05542-0.3477h0.15374l-0.05452 0.3477h0.24402l0.05452-0.3477h0.15642l-0.05542 0.3477h0.19754l-0.02145 0.14301h-0.19754l-0.03933 0.23597h0.19932m-0.31642-0.23597h-0.24402l-0.03843 0.23597h0.24312l0.03933-0.23597"/></g><path d="m24.207 41.755v0.23826h1.5592l7e-3 -0.23247" color="#000000" enable-background="accumulate" fill="none" stroke="#3465a4" stroke-linecap="round" stroke-width=".16824"/><g transform="translate(1.2195)"><path transform="matrix(.20325 0 0 .12421 -3.6968 10.261)" d="m159 256.88c0 0.62132-0.50368 1.125-1.125 1.125s-1.125-0.50368-1.125-1.125 0.50368-1.125 1.125-1.125 1.125 0.50368 1.125 1.125z" color="#000000" enable-background="accumulate" fill="#3465a4"/><path transform="matrix(.20325 0 0 .12421 -3.0363 10.261)" d="m159 256.88c0 0.62132-0.50368 1.125-1.125 1.125s-1.125-0.50368-1.125-1.125 0.50368-1.125 1.125-1.125 1.125 0.50368 1.125 1.125z" color="#000000" enable-background="accumulate" fill="#3465a4"/><path transform="matrix(.20325 0 0 .20325 -3.3157 -10.411)" d="m156.5 258.62v-3.75h3.5v3.75" color="#000000" enable-background="accumulate" fill="none" stroke="#3465a4"/></g><g color="#000000" enable-background="accumulate" fill="#3465a4" fill-rule="evenodd" style="text-decoration-line:none;text-indent:0;text-transform:none"><path d="m18.693 42.031v-0.28361h-0.27653v-0.15064h0.27653v-0.2836h0.16196v0.2836h0.28007v0.15064h-0.28007v0.28361h-0.16196"/></g></g><g transform="translate(-.20325 8.7396)" fill="#202020" opacity=".5"><rect x="19.448" y="9.5072" width=".4065" height=".4065" color="#000000" enable-background="accumulate"/><rect x="18.635" y="9.5072" width=".4065" height=".4065" color="#000000" enable-background="accumulate"/><rect x="19.042" y="9.5072" width=".4065" height=".4065" color="#000000" enable-background="accumulate"/><rect x="19.042" y="9.1007" width=".4065" height=".4065" color="#000000" enable-background="accumulate"/><rect x="19.448" y="10.32" width=".4065" height=".4065" color="#000000" enable-background="accumulate"/><rect x="18.635" y="10.32" width=".4065" height=".4065" color="#000000" enable-background="accumulate"/><rect x="21.074" y="9.9137" width=".4065" height=".4065" color="#000000" enable-background="accumulate"/><rect x="21.48" y="9.5072" width=".4065" height=".4065" color="#000000" enable-background="accumulate"/><rect x="20.667" y="9.5072" width=".4065" height=".4065" color="#000000" enable-background="accumulate"/><rect x="21.074" y="9.5072" width=".4065" height=".4065" color="#000000" enable-background="accumulate"/><rect x="21.074" y="9.1007" width=".4065" height=".4065" color="#000000" enable-background="accumulate"/><rect x="21.48" y="10.32" width=".4065" height=".4065" color="#000000" enable-background="accumulate"/><rect x="20.667" y="10.32" width=".4065" height=".4065" color="#000000" enable-background="accumulate"/><rect x="22.7" y="9.1007" width=".4065" height=".4065" color="#000000" enable-background="accumulate"/><rect x="23.513" y="9.5072" width=".4065" height=".4065" color="#000000" enable-background="accumulate"/><rect x="23.106" y="9.9137" width=".4065" height=".4065" color="#000000" enable-background="accumulate"/><rect x="23.106" y="9.1007" width=".4065" height=".4065" color="#000000" enable-background="accumulate"/><rect x="23.513" y="10.32" width=".4065" height=".4065" color="#000000" enable-background="accumulate"/><rect x="22.7" y="10.32" width=".4065" height=".4065" color="#000000" enable-background="accumulate"/><rect x="24.732" y="9.1007" width=".4065" height=".4065" color="#000000" enable-background="accumulate"/><rect x="25.139" y="9.9137" width=".4065" height=".4065" color="#000000" enable-background="accumulate"/><rect x="24.732" y="9.5072" width=".4065" height=".4065" color="#000000" enable-background="accumulate"/><rect x="25.139" y="9.5072" width=".4065" height=".4065" color="#000000" enable-background="accumulate"/><rect x="25.545" y="10.32" width=".4065" height=".4065" color="#000000" enable-background="accumulate"/><rect x="24.732" y="10.32" width=".4065" height=".4065" color="#000000" enable-background="accumulate"/><rect x="25.545" y="9.1007" width=".4065" height=".4065" color="#000000" enable-background="accumulate"/><rect x="26.765" y="9.1007" width=".4065" height=".4065" color="#000000" enable-background="accumulate"/><rect x="27.578" y="9.1007" width=".4065" height=".4065" color="#000000" enable-background="accumulate"/><rect x="27.578" y="9.5072" width=".4065" height=".4065" color="#000000" enable-background="accumulate"/><rect x="26.765" y="9.5072" width=".4065" height=".4065" color="#000000" enable-background="accumulate"/><rect x="27.171" y="9.9137" width=".4065" height=".4065" color="#000000" enable-background="accumulate"/><rect x="27.171" y="9.1007" width=".4065" height=".4065" color="#000000" enable-background="accumulate"/><rect x="27.578" y="10.32" width=".4065" height=".4065" color="#000000" enable-background="accumulate"/><rect x="26.765" y="10.32" width=".4065" height=".4065" color="#000000" enable-background="accumulate"/><rect x="28.797" y="9.1007" width=".4065" height=".4065" color="#000000" enable-background="accumulate"/><rect x="29.204" y="9.9137" width=".4065" height=".4065" color="#000000" enable-background="accumulate"/><rect x="29.61" y="9.5072" width=".4065" height=".4065" color="#000000" enable-background="accumulate"/><rect x="28.797" y="9.5072" width=".4065" height=".4065" color="#000000" enable-background="accumulate"/><rect x="28.797" y="10.32" width=".4065" height=".4065" color="#000000" enable-background="accumulate"/><rect x="19.042" y="9.9137" width=".4065" height=".4065" color="#000000" enable-background="accumulate"/></g><g transform="matrix(-1 0 0 1 48.449 4.6747)" fill="#202020" opacity=".5"><rect x="19.448" y="9.5072" width=".4065" height=".4065" color="#000000" enable-background="accumulate"/><rect x="18.635" y="9.5072" width=".4065" height=".4065" color="#000000" enable-background="accumulate"/><rect x="19.042" y="9.5072" width=".4065" height=".4065" color="#000000" enable-background="accumulate"/><rect x="19.042" y="9.1007" width=".4065" height=".4065" color="#000000" enable-background="accumulate"/><rect x="19.448" y="10.32" width=".4065" height=".4065" color="#000000" enable-background="accumulate"/><rect x="18.635" y="10.32" width=".4065" height=".4065" color="#000000" enable-background="accumulate"/><rect x="21.074" y="9.9137" width=".4065" height=".4065" color="#000000" enable-background="accumulate"/><rect x="21.48" y="9.5072" width=".4065" height=".4065" color="#000000" enable-background="accumulate"/><rect x="20.667" y="9.5072" width=".4065" height=".4065" color="#000000" enable-background="accumulate"/><rect x="21.074" y="9.5072" width=".4065" height=".4065" color="#000000" enable-background="accumulate"/><rect x="21.074" y="9.1007" width=".4065" height=".4065" color="#000000" enable-background="accumulate"/><rect x="21.48" y="10.32" width=".4065" height=".4065" color="#000000" enable-background="accumulate"/><rect x="20.667" y="10.32" width=".4065" height=".4065" color="#000000" enable-background="accumulate"/><rect x="22.7" y="9.1007" width=".4065" height=".4065" color="#000000" enable-background="accumulate"/><rect x="23.513" y="9.5072" width=".4065" height=".4065" color="#000000" enable-background="accumulate"/><rect x="23.106" y="9.9137" width=".4065" height=".4065" color="#000000" enable-background="accumulate"/><rect x="23.106" y="9.1007" width=".4065" height=".4065" color="#000000" enable-background="accumulate"/><rect x="23.513" y="10.32" width=".4065" height=".4065" color="#000000" enable-background="accumulate"/><rect x="22.7" y="10.32" width=".4065" height=".4065" color="#000000" enable-background="accumulate"/><rect x="24.732" y="9.1007" width=".4065" height=".4065" color="#000000" enable-background="accumulate"/><rect x="25.139" y="9.9137" width=".4065" height=".4065" color="#000000" enable-background="accumulate"/><rect x="24.732" y="9.5072" width=".4065" height=".4065" color="#000000" enable-background="accumulate"/><rect x="25.139" y="9.5072" width=".4065" height=".4065" color="#000000" enable-background="accumulate"/><rect x="25.545" y="10.32" width=".4065" height=".4065" color="#000000" enable-background="accumulate"/><rect x="24.732" y="10.32" width=".4065" height=".4065" color="#000000" enable-background="accumulate"/><rect x="25.545" y="9.1007" width=".4065" height=".4065" color="#000000" enable-background="accumulate"/><rect x="26.765" y="9.1007" width=".4065" height=".4065" color="#000000" enable-background="accumulate"/><rect x="27.578" y="9.1007" width=".4065" height=".4065" color="#000000" enable-background="accumulate"/><rect x="27.578" y="9.5072" width=".4065" height=".4065" color="#000000" enable-background="accumulate"/><rect x="26.765" y="9.5072" width=".4065" height=".4065" color="#000000" enable-background="accumulate"/><rect x="27.171" y="9.9137" width=".4065" height=".4065" color="#000000" enable-background="accumulate"/><rect x="27.171" y="9.1007" width=".4065" height=".4065" color="#000000" enable-background="accumulate"/><rect x="27.578" y="10.32" width=".4065" height=".4065" color="#000000" enable-background="accumulate"/><rect x="26.765" y="10.32" width=".4065" height=".4065" color="#000000" enable-background="accumulate"/><rect x="28.797" y="9.1007" width=".4065" height=".4065" color="#000000" enable-background="accumulate"/><rect x="29.204" y="9.9137" width=".4065" height=".4065" color="#000000" enable-background="accumulate"/><rect x="29.61" y="9.5072" width=".4065" height=".4065" color="#000000" enable-background="accumulate"/><rect x="28.797" y="9.5072" width=".4065" height=".4065" color="#000000" enable-background="accumulate"/><rect x="28.797" y="10.32" width=".4065" height=".4065" color="#000000" enable-background="accumulate"/><rect x="19.042" y="9.9137" width=".4065" height=".4065" color="#000000" enable-background="accumulate"/></g><g transform="rotate(180 24.224 10.219)" fill="#202020" opacity=".5"><rect x="19.448" y="9.5072" width=".4065" height=".4065" color="#000000" enable-background="accumulate"/><rect x="18.635" y="9.5072" width=".4065" height=".4065" color="#000000" enable-background="accumulate"/><rect x="19.042" y="9.5072" width=".4065" height=".4065" color="#000000" enable-background="accumulate"/><rect x="19.042" y="9.1007" width=".4065" height=".4065" color="#000000" enable-background="accumulate"/><rect x="19.448" y="10.32" width=".4065" height=".4065" color="#000000" enable-background="accumulate"/><rect x="18.635" y="10.32" width=".4065" height=".4065" color="#000000" enable-background="accumulate"/><rect x="21.074" y="9.9137" width=".4065" height=".4065" color="#000000" enable-background="accumulate"/><rect x="21.48" y="9.5072" width=".4065" height=".4065" color="#000000" enable-background="accumulate"/><rect x="20.667" y="9.5072" width=".4065" height=".4065" color="#000000" enable-background="accumulate"/><rect x="21.074" y="9.5072" width=".4065" height=".4065" color="#000000" enable-background="accumulate"/><rect x="21.074" y="9.1007" width=".4065" height=".4065" color="#000000" enable-background="accumulate"/><rect x="21.48" y="10.32" width=".4065" height=".4065" color="#000000" enable-background="accumulate"/><rect x="20.667" y="10.32" width=".4065" height=".4065" color="#000000" enable-background="accumulate"/><rect x="22.7" y="9.1007" width=".4065" height=".4065" color="#000000" enable-background="accumulate"/><rect x="23.513" y="9.5072" width=".4065" height=".4065" color="#000000" enable-background="accumulate"/><rect x="23.106" y="9.9137" width=".4065" height=".4065" color="#000000" enable-background="accumulate"/><rect x="23.106" y="9.1007" width=".4065" height=".4065" color="#000000" enable-background="accumulate"/><rect x="23.513" y="10.32" width=".4065" height=".4065" color="#000000" enable-background="accumulate"/><rect x="22.7" y="10.32" width=".4065" height=".4065" color="#000000" enable-background="accumulate"/><rect x="24.732" y="9.1007" width=".4065" height=".4065" color="#000000" enable-background="accumulate"/><rect x="25.139" y="9.9137" width=".4065" height=".4065" color="#000000" enable-background="accumulate"/><rect x="24.732" y="9.5072" width=".4065" height=".4065" color="#000000" enable-background="accumulate"/><rect x="25.139" y="9.5072" width=".4065" height=".4065" color="#000000" enable-background="accumulate"/><rect x="25.545" y="10.32" width=".4065" height=".4065" color="#000000" enable-background="accumulate"/><rect x="24.732" y="10.32" width=".4065" height=".4065" color="#000000" enable-background="accumulate"/><rect x="25.545" y="9.1007" width=".4065" height=".4065" color="#000000" enable-background="accumulate"/><rect x="26.765" y="9.1007" width=".4065" height=".4065" color="#000000" enable-background="accumulate"/><rect x="27.578" y="9.1007" width=".4065" height=".4065" color="#000000" enable-background="accumulate"/><rect x="27.578" y="9.5072" width=".4065" height=".4065" color="#000000" enable-background="accumulate"/><rect x="26.765" y="9.5072" width=".4065" height=".4065" color="#000000" enable-background="accumulate"/><rect x="27.171" y="9.9137" width=".4065" height=".4065" color="#000000" enable-background="accumulate"/><rect x="27.171" y="9.1007" width=".4065" height=".4065" color="#000000" enable-background="accumulate"/><rect x="27.578" y="10.32" width=".4065" height=".4065" color="#000000" enable-background="accumulate"/><rect x="26.765" y="10.32" width=".4065" height=".4065" color="#000000" enable-background="accumulate"/><rect x="28.797" y="9.1007" width=".4065" height=".4065" color="#000000" enable-background="accumulate"/><rect x="29.204" y="9.9137" width=".4065" height=".4065" color="#000000" enable-background="accumulate"/><rect x="29.61" y="9.5072" width=".4065" height=".4065" color="#000000" enable-background="accumulate"/><rect x="28.797" y="9.5072" width=".4065" height=".4065" color="#000000" enable-background="accumulate"/><rect x="28.797" y="10.32" width=".4065" height=".4065" color="#000000" enable-background="accumulate"/><rect x="19.042" y="9.9137" width=".4065" height=".4065" color="#000000" enable-background="accumulate"/></g><g transform="matrix(-1 0 0 1 48.449 5.4877)" fill="#202020" opacity=".1"><rect x="19.448" y="9.5072" width=".4065" height=".4065" color="#000000" enable-background="accumulate"/><rect x="18.635" y="9.5072" width=".4065" height=".4065" color="#000000" enable-background="accumulate"/><rect x="19.042" y="9.5072" width=".4065" height=".4065" color="#000000" enable-background="accumulate"/><rect x="19.042" y="9.1007" width=".4065" height=".4065" color="#000000" enable-background="accumulate"/><rect x="19.448" y="10.32" width=".4065" height=".4065" color="#000000" enable-background="accumulate"/><rect x="18.635" y="10.32" width=".4065" height=".4065" color="#000000" enable-background="accumulate"/><rect x="21.074" y="9.9137" width=".4065" height=".4065" color="#000000" enable-background="accumulate"/><rect x="21.48" y="9.5072" width=".4065" height=".4065" color="#000000" enable-background="accumulate"/><rect x="20.667" y="9.5072" width=".4065" height=".4065" color="#000000" enable-background="accumulate"/><rect x="21.074" y="9.5072" width=".4065" height=".4065" color="#000000" enable-background="accumulate"/><rect x="21.074" y="9.1007" width=".4065" height=".4065" color="#000000" enable-background="accumulate"/><rect x="21.48" y="10.32" width=".4065" height=".4065" color="#000000" enable-background="accumulate"/><rect x="20.667" y="10.32" width=".4065" height=".4065" color="#000000" enable-background="accumulate"/><rect x="22.7" y="9.1007" width=".4065" height=".4065" color="#000000" enable-background="accumulate"/><rect x="23.513" y="9.5072" width=".4065" height=".4065" color="#000000" enable-background="accumulate"/><rect x="23.106" y="9.9137" width=".4065" height=".4065" color="#000000" enable-background="accumulate"/><rect x="23.106" y="9.1007" width=".4065" height=".4065" color="#000000" enable-background="accumulate"/><rect x="23.513" y="10.32" width=".4065" height=".4065" color="#000000" enable-background="accumulate"/><rect x="22.7" y="10.32" width=".4065" height=".4065" color="#000000" enable-background="accumulate"/><rect x="24.732" y="9.1007" width=".4065" height=".4065" color="#000000" enable-background="accumulate"/><rect x="25.139" y="9.9137" width=".4065" height=".4065" color="#000000" enable-background="accumulate"/><rect x="24.732" y="9.5072" width=".4065" height=".4065" color="#000000" enable-background="accumulate"/><rect x="25.139" y="9.5072" width=".4065" height=".4065" color="#000000" enable-background="accumulate"/><rect x="25.545" y="10.32" width=".4065" height=".4065" color="#000000" enable-background="accumulate"/><rect x="24.732" y="10.32" width=".4065" height=".4065" color="#000000" enable-background="accumulate"/><rect x="25.545" y="9.1007" width=".4065" height=".4065" color="#000000" enable-background="accumulate"/><rect x="26.765" y="9.1007" width=".4065" height=".4065" color="#000000" enable-background="accumulate"/><rect x="27.578" y="9.1007" width=".4065" height=".4065" color="#000000" enable-background="accumulate"/><rect x="27.578" y="9.5072" width=".4065" height=".4065" color="#000000" enable-background="accumulate"/><rect x="26.765" y="9.5072" width=".4065" height=".4065" color="#000000" enable-background="accumulate"/><rect x="27.171" y="9.9137" width=".4065" height=".4065" color="#000000" enable-background="accumulate"/><rect x="27.171" y="9.1007" width=".4065" height=".4065" color="#000000" enable-background="accumulate"/><rect x="27.578" y="10.32" width=".4065" height=".4065" color="#000000" enable-background="accumulate"/><rect x="26.765" y="10.32" width=".4065" height=".4065" color="#000000" enable-background="accumulate"/><rect x="28.797" y="9.1007" width=".4065" height=".4065" color="#000000" enable-background="accumulate"/><rect x="29.204" y="9.9137" width=".4065" height=".4065" color="#000000" enable-background="accumulate"/><rect x="29.61" y="9.5072" width=".4065" height=".4065" color="#000000" enable-background="accumulate"/><rect x="28.797" y="9.5072" width=".4065" height=".4065" color="#000000" enable-background="accumulate"/><rect x="28.797" y="10.32" width=".4065" height=".4065" color="#000000" enable-background="accumulate"/><rect x="19.042" y="9.9137" width=".4065" height=".4065" color="#000000" enable-background="accumulate"/></g><g transform="rotate(180 24.224 10.828)" fill="#202020" opacity=".1"><rect x="19.448" y="9.5072" width=".4065" height=".4065" color="#000000" enable-background="accumulate"/><rect x="18.635" y="9.5072" width=".4065" height=".4065" color="#000000" enable-background="accumulate"/><rect x="19.042" y="9.5072" width=".4065" height=".4065" color="#000000" enable-background="accumulate"/><rect x="19.042" y="9.1007" width=".4065" height=".4065" color="#000000" enable-background="accumulate"/><rect x="19.448" y="10.32" width=".4065" height=".4065" color="#000000" enable-background="accumulate"/><rect x="18.635" y="10.32" width=".4065" height=".4065" color="#000000" enable-background="accumulate"/><rect x="21.074" y="9.9137" width=".4065" height=".4065" color="#000000" enable-background="accumulate"/><rect x="21.48" y="9.5072" width=".4065" height=".4065" color="#000000" enable-background="accumulate"/><rect x="20.667" y="9.5072" width=".4065" height=".4065" color="#000000" enable-background="accumulate"/><rect x="21.074" y="9.5072" width=".4065" height=".4065" color="#000000" enable-background="accumulate"/><rect x="21.074" y="9.1007" width=".4065" height=".4065" color="#000000" enable-background="accumulate"/><rect x="21.48" y="10.32" width=".4065" height=".4065" color="#000000" enable-background="accumulate"/><rect x="20.667" y="10.32" width=".4065" height=".4065" color="#000000" enable-background="accumulate"/><rect x="22.7" y="9.1007" width=".4065" height=".4065" color="#000000" enable-background="accumulate"/><rect x="23.513" y="9.5072" width=".4065" height=".4065" color="#000000" enable-background="accumulate"/><rect x="23.106" y="9.9137" width=".4065" height=".4065" color="#000000" enable-background="accumulate"/><rect x="23.106" y="9.1007" width=".4065" height=".4065" color="#000000" enable-background="accumulate"/><rect x="23.513" y="10.32" width=".4065" height=".4065" color="#000000" enable-background="accumulate"/><rect x="22.7" y="10.32" width=".4065" height=".4065" color="#000000" enable-background="accumulate"/><rect x="24.732" y="9.1007" width=".4065" height=".4065" color="#000000" enable-background="accumulate"/><rect x="25.139" y="9.9137" width=".4065" height=".4065" color="#000000" enable-background="accumulate"/><rect x="24.732" y="9.5072" width=".4065" height=".4065" color="#000000" enable-background="accumulate"/><rect x="25.139" y="9.5072" width=".4065" height=".4065" color="#000000" enable-background="accumulate"/><rect x="25.545" y="10.32" width=".4065" height=".4065" color="#000000" enable-background="accumulate"/><rect x="24.732" y="10.32" width=".4065" height=".4065" color="#000000" enable-background="accumulate"/><rect x="25.545" y="9.1007" width=".4065" height=".4065" color="#000000" enable-background="accumulate"/><rect x="26.765" y="9.1007" width=".4065" height=".4065" color="#000000" enable-background="accumulate"/><rect x="27.578" y="9.1007" width=".4065" height=".4065" color="#000000" enable-background="accumulate"/><rect x="27.578" y="9.5072" width=".4065" height=".4065" color="#000000" enable-background="accumulate"/><rect x="26.765" y="9.5072" width=".4065" height=".4065" color="#000000" enable-background="accumulate"/><rect x="27.171" y="9.9137" width=".4065" height=".4065" color="#000000" enable-background="accumulate"/><rect x="27.171" y="9.1007" width=".4065" height=".4065" color="#000000" enable-background="accumulate"/><rect x="27.578" y="10.32" width=".4065" height=".4065" color="#000000" enable-background="accumulate"/><rect x="26.765" y="10.32" width=".4065" height=".4065" color="#000000" enable-background="accumulate"/><rect x="28.797" y="9.1007" width=".4065" height=".4065" color="#000000" enable-background="accumulate"/><rect x="29.204" y="9.9137" width=".4065" height=".4065" color="#000000" enable-background="accumulate"/><rect x="29.61" y="9.5072" width=".4065" height=".4065" color="#000000" enable-background="accumulate"/><rect x="28.797" y="9.5072" width=".4065" height=".4065" color="#000000" enable-background="accumulate"/><rect x="28.797" y="10.32" width=".4065" height=".4065" color="#000000" enable-background="accumulate"/><rect x="19.042" y="9.9137" width=".4065" height=".4065" color="#000000" enable-background="accumulate"/></g><g transform="translate(-.20325 9.9591)" fill="#202020" opacity=".1"><rect x="19.448" y="9.5072" width=".4065" height=".4065" color="#000000" enable-background="accumulate"/><rect x="18.635" y="9.5072" width=".4065" height=".4065" color="#000000" enable-background="accumulate"/><rect x="19.042" y="9.5072" width=".4065" height=".4065" color="#000000" enable-background="accumulate"/><rect x="19.042" y="9.1007" width=".4065" height=".4065" color="#000000" enable-background="accumulate"/><rect x="19.448" y="10.32" width=".4065" height=".4065" color="#000000" enable-background="accumulate"/><rect x="18.635" y="10.32" width=".4065" height=".4065" color="#000000" enable-background="accumulate"/><rect x="21.074" y="9.9137" width=".4065" height=".4065" color="#000000" enable-background="accumulate"/><rect x="21.48" y="9.5072" width=".4065" height=".4065" color="#000000" enable-background="accumulate"/><rect x="20.667" y="9.5072" width=".4065" height=".4065" color="#000000" enable-background="accumulate"/><rect x="21.074" y="9.5072" width=".4065" height=".4065" color="#000000" enable-background="accumulate"/><rect x="21.074" y="9.1007" width=".4065" height=".4065" color="#000000" enable-background="accumulate"/><rect x="21.48" y="10.32" width=".4065" height=".4065" color="#000000" enable-background="accumulate"/><rect x="20.667" y="10.32" width=".4065" height=".4065" color="#000000" enable-background="accumulate"/><rect x="22.7" y="9.1007" width=".4065" height=".4065" color="#000000" enable-background="accumulate"/><rect x="23.513" y="9.5072" width=".4065" height=".4065" color="#000000" enable-background="accumulate"/><rect x="23.106" y="9.9137" width=".4065" height=".4065" color="#000000" enable-background="accumulate"/><rect x="23.106" y="9.1007" width=".4065" height=".4065" color="#000000" enable-background="accumulate"/><rect x="23.513" y="10.32" width=".4065" height=".4065" color="#000000" enable-background="accumulate"/><rect x="22.7" y="10.32" width=".4065" height=".4065" color="#000000" enable-background="accumulate"/><rect x="24.732" y="9.1007" width=".4065" height=".4065" color="#000000" enable-background="accumulate"/><rect x="25.139" y="9.9137" width=".4065" height=".4065" color="#000000" enable-background="accumulate"/><rect x="24.732" y="9.5072" width=".4065" height=".4065" color="#000000" enable-background="accumulate"/><rect x="25.139" y="9.5072" width=".4065" height=".4065" color="#000000" enable-background="accumulate"/><rect x="25.545" y="10.32" width=".4065" height=".4065" color="#000000" enable-background="accumulate"/><rect x="24.732" y="10.32" width=".4065" height=".4065" color="#000000" enable-background="accumulate"/><rect x="25.545" y="9.1007" width=".4065" height=".4065" color="#000000" enable-background="accumulate"/><rect x="26.765" y="9.1007" width=".4065" height=".4065" color="#000000" enable-background="accumulate"/><rect x="27.578" y="9.1007" width=".4065" height=".4065" color="#000000" enable-background="accumulate"/><rect x="27.578" y="9.5072" width=".4065" height=".4065" color="#000000" enable-background="accumulate"/><rect x="26.765" y="9.5072" width=".4065" height=".4065" color="#000000" enable-background="accumulate"/><rect x="27.171" y="9.9137" width=".4065" height=".4065" color="#000000" enable-background="accumulate"/><rect x="27.171" y="9.1007" width=".4065" height=".4065" color="#000000" enable-background="accumulate"/><rect x="27.578" y="10.32" width=".4065" height=".4065" color="#000000" enable-background="accumulate"/><rect x="26.765" y="10.32" width=".4065" height=".4065" color="#000000" enable-background="accumulate"/><rect x="28.797" y="9.1007" width=".4065" height=".4065" color="#000000" enable-background="accumulate"/><rect x="29.204" y="9.9137" width=".4065" height=".4065" color="#000000" enable-background="accumulate"/><rect x="29.61" y="9.5072" width=".4065" height=".4065" color="#000000" enable-background="accumulate"/><rect x="28.797" y="9.5072" width=".4065" height=".4065" color="#000000" enable-background="accumulate"/><rect x="28.797" y="10.32" width=".4065" height=".4065" color="#000000" enable-background="accumulate"/><rect x="19.042" y="9.9137" width=".4065" height=".4065" color="#000000" enable-background="accumulate"/></g></g></g></svg>
