<?xml version="1.0" encoding="UTF-8"?>
<svg enable-background="new" version="1.0" viewBox="0 0 256 256" xmlns="http://www.w3.org/2000/svg" xmlns:xlink="http://www.w3.org/1999/xlink"><defs><linearGradient id="aa"><stop stop-color="#8f8f99" offset="0"/><stop stop-color="#6b6b73" offset=".77862"/><stop stop-color="#45454b" offset="1"/></linearGradient><linearGradient id="ab"><stop stop-color="#babac0" offset="0"/><stop stop-color="#7a7a83" offset=".77862"/><stop stop-color="#45454b" offset="1"/></linearGradient><radialGradient cx="226" cy="166.28" r="7.8125" gradientTransform="matrix(.66088 -.29267 1.9361 4.3718 -245.3 -494.53)" gradientUnits="userSpaceOnUse"><stop stop-color="#7b7b7b" offset="0"/><stop stop-color="#fff" offset="1"/></radialGradient><linearGradient id="ai" x1="57" x2="57" y1="233.32" y2="106.75" gradientUnits="userSpaceOnUse"><stop stop-color="#adaeb2" offset="0"/><stop stop-color="#d3d2d7" offset=".80841"/><stop stop-color="#e9e9e9" offset=".86766"/><stop stop-color="#e5e5e5" offset=".92297"/><stop stop-color="#d1d1d3" offset="1"/></linearGradient><radialGradient id="m" cx="149.56" cy="187.65" r="17.188" gradientTransform="matrix(.99651 -.083479 .041141 .4911 -7.3016 108.81)" gradientUnits="userSpaceOnUse"><stop stop-color="#9d9fa5" offset="0"/><stop stop-color="#5c5f65" offset="1"/></radialGradient><linearGradient id="ah" x1="205.94" x2="205.94" y1="249.11" y2="269.27" gradientTransform="matrix(1.0103 0 0 1 -2.5366 0)" gradientUnits="userSpaceOnUse"><stop stop-color="#9fa0a5" offset="0"/><stop stop-color="#717379" offset="1"/></linearGradient><radialGradient id="l" cx="210.55" cy="248.51" r="1.375" gradientTransform="matrix(1.7297 0 0 1.7297 -153.69 -181.59)" gradientUnits="userSpaceOnUse"><stop stop-color="#7f7f7f" offset="0"/><stop stop-color="#666" offset="1"/></radialGradient><radialGradient id="k" cx="210.75" cy="246.38" r="1.875" gradientTransform="matrix(1.7999 .013696 -.037036 4.867 -159.46 -953.75)" gradientUnits="userSpaceOnUse"><stop stop-color="#555" offset="0"/><stop stop-color="#2b2b2b" offset="1"/></radialGradient><linearGradient id="ag" x1="120.25" x2="179.75" y1="253" y2="253" gradientUnits="userSpaceOnUse"><stop stop-color="#494949" offset="0"/><stop stop-color="#5d5d5d" offset=".13115"/><stop stop-color="#6e6e6e" offset=".88934"/><stop stop-color="#959595" offset="1"/></linearGradient><filter id="ao" x="-.050333" y="-.61972" width="1.1007" height="2.2394"><feGaussianBlur stdDeviation="4.1314655"/></filter><filter id="an" x="-.151" y="-1.8592" width="1.302" height="4.7183"><feGaussianBlur stdDeviation="12.394397"/></filter><filter id="am"><feGaussianBlur stdDeviation="0.99915123"/></filter><clipPath id="aq"><path d="m115 58.5-31.5 0.5-25.5 23.5-1.75 24h-1.75s-3.4657 11.985-3.5 19.5l-0.5 109.5-0.25 0.5 0.25 16.75c-0.12628 3.5 1.7689 6.125 6.0625 6.25l62.906 0.5v-6.25c0-1.8793 0.97223-2.8193 2.25-3h53.812c1.6465 0 2.7812 1 2.7812 2.75l-0.125 6.75h61.75c3.9164 0 7.0625-2.125 7.0625-6.75v-16.5l0.5-0.5 1-113c1-8-3-16-3-16h-1.4375l1.4375-9.5-15-14-2 1-3-4-19.5 4.5-42.5-1-1.5-3 22.5-6 33.5-4.5 4-1.5 1-2-7-7.5-62.5 8.5-5-5-27-1.5-1.5 4z" color="#000000" enable-background="accumulate" fill="none" filter="url(#am)" stroke="url(#ae)" xlink:href="#path11342"/></clipPath><linearGradient id="ae" x1="156.25" x2="156.25" y1="251.12" y2="59.893" gradientUnits="userSpaceOnUse"><stop offset="0"/><stop stop-opacity="0" offset="1"/></linearGradient><filter id="al"><feGaussianBlur stdDeviation="0.99915123"/></filter><linearGradient id="ad" x1="121.66" x2="121.66" y1="190.36" y2="70.125" gradientUnits="userSpaceOnUse"><stop offset="0"/><stop stop-opacity="0" offset="1"/></linearGradient><linearGradient id="ac" x1="93.512" x2="93.512" y1="108.82" y2="138.56" gradientUnits="userSpaceOnUse"><stop stop-color="#87878f" offset="0"/><stop stop-color="#92929a" offset=".60328"/><stop stop-color="#505058" offset="1"/></linearGradient><linearGradient id="af" x1="70.188" x2="232.75" y1="105" y2="105" gradientUnits="userSpaceOnUse"><stop stop-color="#494949" offset="0"/><stop stop-color="#5d5d5d" offset="0"/><stop stop-color="#6e6e6e" offset=".93691"/><stop stop-color="#4a4a4a" offset="1"/></linearGradient><radialGradient id="h" cx="102.89" cy="114.45" r="13.877" gradientTransform="matrix(.99758 .069597 -.063054 .90379 7.4685 3.1488)" gradientUnits="userSpaceOnUse"><stop stop-color="#e9eecc" offset="0"/><stop stop-color="#a6aa93" offset="1"/></radialGradient><radialGradient id="g" cx="152.43" cy="121.36" r="9.75" gradientTransform="matrix(1.556 0 0 .71815 -84.748 30.511)" gradientUnits="userSpaceOnUse"><stop stop-color="#729fcf" offset="0"/><stop stop-color="#c9daf2" offset="1"/></radialGradient><radialGradient id="f" cx="152.65" cy="117.54" r="9.25" gradientTransform="matrix(1 0 0 .43243 0 64.986)" gradientUnits="userSpaceOnUse"><stop stop-color="#ababb2" offset="0"/><stop stop-color="#6b6b75" offset="1"/></radialGradient><radialGradient id="a" cx="152.25" cy="111.71" r="9.25" gradientTransform="matrix(1.1013 -3.9281e-7 1.8983e-7 .47625 -15.426 60.194)" gradientUnits="userSpaceOnUse" xlink:href="#ab"/><radialGradient id="b" cx="152.25" cy="111.71" r="9.25" gradientTransform="matrix(1.1013 -3.9281e-7 1.8983e-7 .47625 -15.426 60.194)" gradientUnits="userSpaceOnUse" xlink:href="#aa"/><radialGradient id="e" cx="-190.75" cy="122.88" r="6.5" gradientTransform="matrix(1 0 0 .17308 302 101.36)" gradientUnits="userSpaceOnUse"><stop stop-color="#aedb8a" offset="0"/><stop stop-color="#849964" offset="1"/></radialGradient><linearGradient id="z" x1="-61.5" x2="-61.5" y1="160.37" y2="145.5" gradientTransform="translate(213.5,1)" gradientUnits="userSpaceOnUse"><stop stop-color="#333338" offset="0"/><stop stop-color="#63636d" offset=".22307"/><stop offset="1"/></linearGradient><linearGradient id="y" x1="-61.5" x2="-61.5" y1="160.37" y2="143" gradientTransform="translate(213.5,1)" gradientUnits="userSpaceOnUse"><stop stop-color="#333338" offset="0"/><stop stop-color="#63636d" offset=".22307"/><stop offset="1"/></linearGradient><linearGradient id="w" x1="-61.5" x2="-61.5" y1="160.37" y2="143" gradientTransform="translate(534.5,1)" gradientUnits="userSpaceOnUse"><stop stop-color="#333338" offset="0"/><stop stop-color="#63636d" offset=".22307"/><stop offset="1"/></linearGradient><linearGradient id="v" x1="175.44" x2="175.44" y1="135.66" y2="178.34" gradientUnits="userSpaceOnUse"><stop offset="0"/><stop stop-color="#2b2a30" offset="1"/></linearGradient><linearGradient id="u" x1="69" x2="82.5" y1="62" y2="73.5" gradientUnits="userSpaceOnUse"><stop stop-color="#a7a8b1" offset="0"/><stop stop-color="#cfd0d5" offset="1"/></linearGradient><filter id="ak" x="-.072135" y="-.35667" width="1.1443" height="1.7133"><feGaussianBlur stdDeviation="2.0062498"/></filter><linearGradient id="t" x1="121.5" x2="222" y1="75" y2="75" gradientUnits="userSpaceOnUse"><stop stop-color="#c5c6cb" offset="0"/><stop stop-color="#c6c7cc" offset=".35821"/><stop stop-color="#dbdcdf" offset=".40796"/><stop stop-color="#d8d9dc" offset=".59701"/><stop stop-color="#c6c7cc" offset=".6592"/><stop stop-color="#c9cacf" offset="1"/></linearGradient><linearGradient id="s" x1="170" x2="220.38" y1="69.864" y2="64.489" gradientUnits="userSpaceOnUse"><stop stop-color="#afb0b5" offset="0"/><stop stop-color="#9a9ba1" offset="1"/></linearGradient><linearGradient id="r" x1="126" x2="165.25" y1="87.25" y2="87.25" gradientUnits="userSpaceOnUse"><stop stop-color="#44444d" offset="0"/><stop stop-color="#202024" offset="1"/></linearGradient><radialGradient id="d" cx="71.58" cy="84.296" r="30.345" gradientTransform="matrix(2.7549 -1.8048 .26847 .40982 -148.83 177.64)" gradientUnits="userSpaceOnUse"><stop stop-color="#fff" offset="0"/><stop stop-color="#fff" stop-opacity="0" offset="1"/></radialGradient><linearGradient id="q" x1="88.842" x2="88.842" y1="112.39" y2="110.89" gradientUnits="userSpaceOnUse"><stop stop-color="#3a3a40" offset="0"/><stop stop-color="#81818c" offset=".51294"/><stop stop-color="#9b9ba5" offset="1"/></linearGradient><linearGradient id="p" x1="88.717" x2="88.717" y1="116.86" y2="115.17" gradientUnits="userSpaceOnUse"><stop stop-color="#3a3a40" offset="0"/><stop stop-color="#81818c" offset=".32804"/><stop stop-color="#9b9ba5" offset="1"/></linearGradient><filter id="aj"><feGaussianBlur stdDeviation="0.72413793"/></filter><linearGradient id="x" x1="-14.5" x2="-14.5" y1="159.37" y2="146.21" gradientTransform="matrix(.69695 0 0 1 208.2 .11612)" gradientUnits="userSpaceOnUse"><stop stop-color="#333338" offset="0"/><stop stop-color="#63636d" offset=".22307"/><stop offset="1"/></linearGradient><radialGradient id="i" cx="72.052" cy="114.93" r="2.5" gradientTransform="matrix(-.98936 -.14549 -1 6.8 415.97 -656.31)" gradientUnits="userSpaceOnUse"><stop stop-color="#a0a0aa" offset="0"/><stop stop-color="#777785" stop-opacity="0" offset="1"/></radialGradient><radialGradient id="j" cx="72.052" cy="114.93" r="2.5" gradientTransform="matrix(.98936 -.14549 1 6.8 -114.22 -656.31)" gradientUnits="userSpaceOnUse"><stop stop-color="#777785" offset="0"/><stop stop-color="#777785" stop-opacity="0" offset="1"/></radialGradient><linearGradient id="o" x1="60.25" x2="237.25" y1="113.5" y2="113.5" gradientUnits="userSpaceOnUse"><stop stop-color="#656571" offset="0"/><stop stop-color="#777785" offset="1"/></linearGradient><clipPath id="ap"><path d="m159 84.603 46 1.7096 21.5-5.1287 2 3.989-45.5 11.397-48.5 0.85478-8-11.397z" color="#000000" enable-background="accumulate" fill="#919297" fill-rule="evenodd"/></clipPath></defs><g transform="translate(-20,-32)"><g><rect x="60.25" y="101.5" width="177" height="24" color="#000000" enable-background="accumulate" fill="url(#o)" fill-rule="evenodd"/><path d="m71 107.5 0.75 14.75 4.25 0.25-2.5-14.25z" color="#000000" enable-background="accumulate" fill="url(#j)" fill-rule="evenodd"/><path d="m230.75 107.5-0.75 14.75-4.25 0.25 2.5-14.25z" color="#000000" enable-background="accumulate" fill="url(#i)" fill-rule="evenodd"/><path d="m115 59 13 15-6.5 6.5-11-14z" color="#000000" enable-background="accumulate" fill="#bfbec4" fill-rule="evenodd" opacity=".65351"/><rect x="50" y="245" width="197" height="16" rx="8" ry="8" color="#000000" enable-background="accumulate" fill-rule="evenodd" filter="url(#an)"/><rect x="50" y="246" width="197" height="16" rx="8" ry="8" color="#000000" enable-background="accumulate" fill-rule="evenodd" filter="url(#ao)"/><rect x="51" y="132" width="195.44" height="122.69" color="#000000" enable-background="accumulate" fill="url(#v)" fill-rule="evenodd"/><g transform="matrix(1.0092 0 0 1.0094 -14.313 40.338)" enable-background="new"></g><path d="m64 106.5 4.5-1.5 160.5 0.5 5 2 1-6.5-5.5-1.5-163-1z" color="#000000" enable-background="accumulate" fill="url(#af)" fill-rule="evenodd"/><path d="m227 85 5.5-0.5 12.5 13h-108.5l-11.5-12h79z" color="#000000" enable-background="accumulate" fill="#c0c1c5" fill-rule="evenodd"/><path d="m121.5 79 5.5-7.5 87.75-11.75c0.75-0.125 1.6112 0.26476 2.7362 1.1398l4.2713 3.9942-1.7575 3.4911-97 13.625z" color="#000000" enable-background="accumulate" fill="url(#s)" fill-rule="evenodd"/><path d="m118.5 68-1.5 4 4.5 5 30-1.5-5.7197-7.3473z" color="#000000" enable-background="accumulate" fill="#c2c3c8" fill-rule="evenodd"/><path d="m119 68 3-5.5 25.5 0.5 6 5.5-2 7.5-5.625-7.625z" color="#000000" enable-background="accumulate" fill="#b8b9be" fill-rule="evenodd"/><path d="m116 59-5.5 8h-36c-3.5 0.25-15.25 9.75-15.25 9.75 7.5074-11.201 14.984-17.572 27.25-17.75z" color="#000000" enable-background="accumulate" fill="url(#u)" fill-rule="evenodd" opacity=".65351"/><path d="m111.25 66.75-37.75 0.25c-6.75 0.25-15 7.75-15.5 16l-1.75 23h11.25l-0.125-3.125c0-1.5 1.375-2.375 2.75-2.375h160.38c1.5-0.25 2.75 1.1875 2.75 2.75l-0.25 3.0625 12 0.1875v-9.5l-101 0.5c-4.25 0-8.5 0-11.75-5.5z" color="#000000" enable-background="accumulate" fill="#e2e3e6" fill-rule="evenodd"/><path d="m159 84 46 1.5 21.5-4.5 2 3.5-45.5 10-48.5 0.75-8-10z" color="#000000" enable-background="accumulate" fill="#919297" fill-rule="evenodd"/><path transform="matrix(1 0 0 .87741 0 9.7682)" d="m126.25 84.5 7 9.75 5.75 3 18.821 0.0533 6.3059-4.5786 28.873-5.9747-30.5-1.75z" clip-path="url(#ap)" color="#000000" enable-background="accumulate" fill-rule="evenodd" filter="url(#ak)" opacity=".65789"/><path d="m126 85.5 35-5.5 4.25 7.75-31.75 6.75z" color="#000000" enable-background="accumulate" fill="url(#r)" fill-rule="evenodd"/><path d="m227 82 9.5 12-46-0.5z" color="#000000" enable-background="accumulate" fill="#cfd1d1" fill-rule="evenodd"/><path d="m54.5 106.5 11.5 0.5-0.5 5.875 2 54.625 8 7.5h148.5l8-7.5 1.4375-29.875-1-31.125 13.062 0.5s4 8 3 16l-1 113-197-0.5 0.5-109.5c0.03432-7.5153 3.5-19.5 3.5-19.5z" color="#000000" enable-background="accumulate" fill="url(#ai)" fill-rule="evenodd"/><path d="m132.62 181.25 1.25 8.75h32.125l1-8.5z" color="#000000" enable-background="accumulate" fill="#fff" fill-rule="evenodd"/><path d="m132.62 180.75 1.25 8.75h32.125l1-8.5z" color="#000000" enable-background="accumulate" fill="url(#m)" fill-rule="evenodd"/><path transform="translate(0,1)" d="m132.32 176.24-8e-3 4.084h-44.75c-0.5625-0.0625-1 0.3125-1.0625 1.125v54.553l126.25 0.5v-55.615s0-0.49805-0.625-0.56055h-45.318l-0.0566-4.0859z" color="#000000" enable-background="accumulate" fill="none" opacity=".33772" stroke="#fff" stroke-width=".5" xlink:href="#n"/><path id="n" d="m86.5 236v-54.552c0.0625-0.8125 0.5-1.1875 1.0625-1.125h44.75l7e-3 -4.0843h34.431l0.0564 4.0859h45.319c0.625 0.0625 0.625 0.56086 0.625 0.56086v55.614" color="#000000" enable-background="accumulate" fill="none" opacity=".33772" stroke="#000" stroke-width=".5"/><path d="m65 107 3.9699 0.39506c-1.0229 9.1502-0.42497 9.092 0.32296 12.044 0 0 1.0666 3.2402 3.188 2.8867l155.52 0.17398c2.25 0.125 4.625-2 4.25-6.375l-1.75-8.625 2.5-0.5s3.3604 5.0973 2.5 14.5c-0.53501 5.8469-1.2929 16.793-1.2929 16.793l-169.21 0.70711s-0.40235-11.659-1-17.5c-1.0272-10.039 1-14.5 1-14.5z" color="#000000" enable-background="accumulate" fill="url(#ac)"/><path d="m65.125 139 2.25 28c0.5 3.625 4.5 8 8.5 8.125l148.12-0.25c4.125-0.125 8.125-4.875 8.5-8.375l1.125-27.5-25.625-0.5v28.5c0 2.4749-1.8484 4.1768-4.5 4h-107.5c-2.1213 0-4.5-1.1716-4.5-4v-27.5z" color="#000000" enable-background="accumulate" fill="#515159" fill-rule="evenodd"/><ellipse transform="matrix(.94595 0 0 .92188 8.9065 8.2685)" cx="152.25" cy="114.5" rx="9.25" ry="4" color="#000000" enable-background="accumulate" fill="url(#f)" fill-rule="evenodd"/><ellipse transform="matrix(.26751 0 0 .28279 126.78 78.752)" cx="152.25" cy="114.5" rx="9.25" ry="4" color="#000000" enable-background="accumulate" fill="url(#a)" fill-rule="evenodd"/><path d="m95.813 110.14-1.2374 6.7175" color="#000000" enable-background="accumulate" fill-rule="evenodd" opacity=".65351"/><path d="m94.222 117.92 36.946 0.17678 0.7071-8.1317-36.593-0.17677z" color="#000000" enable-background="accumulate" fill="#525252" fill-rule="evenodd" opacity=".65351"/><path d="m99.525 111.2-0.88388 5.4801 27.047 0.041 0.70711-5.5211z" color="#000000" enable-background="accumulate" fill="url(#h)" fill-rule="evenodd" opacity=".65351"/><path d="m132.7 110.02-0.79994 8.0907 8.1103 0.0625 0.17678-8.205z" color="#000000" enable-background="accumulate" fill="#5b5b60" fill-rule="evenodd" opacity=".65351"/><path d="m85.081 110.67-0.48755 1.591 6.9603-0.0215 0.16252-1.591z" color="#000000" enable-background="accumulate" fill="url(#q)" fill-rule="evenodd" opacity=".65351"/><path d="m83.969 114.91-0.53033 1.9445 7.2996-0.041 0.35355-2.0695z" color="#000000" enable-background="accumulate" fill="url(#p)" fill-rule="evenodd" opacity=".65351"/><path d="m119.38 259.25s1.3724-2.75 4.375-2.75h52c2.5-0.125 3.375 2.5 3.375 2.5l0.625-12h-61z" color="#000000" enable-background="accumulate" fill="url(#ag)" fill-rule="evenodd"/><path d="m50.25 236 0.25257 16.75c-0.12628 3.5 1.768 6.125 6.0616 6.25l62.889 0.5 3e-3 -6.25c0-1.8793 0.99791-2.8193 2.2757-3h53.792c1.6465 0 2.7782 1 2.7782 2.75l-0.12628 6.75h61.753c3.9164 0 7.0714-2.125 7.0714-6.75v-16.5z" color="#000000" enable-background="accumulate" fill="url(#ah)" fill-rule="evenodd"/><path transform="translate(0 .75)" d="m210.88 240c-1.0388 0-1.875 0.83625-1.875 1.875v7c0 1.0388 0.83625 1.875 1.875 1.875s1.875-0.83625 1.875-1.875v-7c0-1.0388-0.83625-1.875-1.875-1.875z" color="#000000" enable-background="accumulate" fill="#a8a8a8" fill-rule="evenodd" xlink:href="#c"/><rect id="c" x="209" y="240" width="3.75" height="10.75" rx="1.875" ry="1.875" color="#000000" enable-background="accumulate" fill="url(#k)" fill-rule="evenodd"/><circle transform="translate(.25 -.25)" cx="210.62" cy="248.88" r="1.375" color="#000000" enable-background="accumulate" fill="url(#l)" fill-rule="evenodd"/><path d="m158.44 199.03c0.84154 0.38791 1.7359-0.34599 1.0292-1.0102 0.12308-0.75414 0.0252-1.5461 0.0798-2.281-0.57966-0.42471-1.444 0.34877-1.3574 1.0012 0.25892 0.67899 0.40437 1.4434 0.27661 2.1784l-0.0282 0.11176h-5e-5zm-1.9225 0c0.70712 0.41786 1.711-0.39694 0.97141-1.0645-0.48425-0.41781-7e-3 -1.1764-0.18895-1.7509-0.13252-0.81562-0.98012-0.15809-0.80308 0.40905-0.0735 0.80191 0.0885 1.6043 0.0206 2.4064zm-2.3661 0c0.99854-0.0622 1.096-1.4544 2.0512-1.6064 0.52692-0.93788-0.67495-2.1676-1.629-1.7611-0.60385 0.41494-0.5084 1.2588-0.45505 1.8995 0.0521 0.48636 0.12657 0.9816 0.033 1.4679m0.78555-1.59c-0.61674-0.46148 0.52712-1.2263 0.47214-0.41966-0.0635 0.21954-0.2031 0.48649-0.47207 0.42006m-3.1517 1.59c0.99854-0.0622 1.096-1.4544 2.0512-1.6063 0.52692-0.93789-0.67496-2.1676-1.629-1.7611-0.60386 0.41494-0.50842 1.2588-0.45504 1.8995 0.0522 0.48635 0.1266 0.98159 0.0329 1.4679m0.78556-1.59c-0.61669-0.46139 0.52701-1.2263 0.47209-0.41973-0.0635 0.21951-0.20309 0.48646-0.47203 0.42003m-2.0848 0.17982c-0.8307 0.0157 0.0435-1.4261 8e-3 -0.46926-0.0411 0.15831-0.0373 0.3103-9e-3 0.46926m-1.344 1.4102c0.63042-0.24401 1.5336-0.6006 2.0394-0.367 0.21304-1.0121 0.15774-2.2139-0.55228-3.0261-0.67769-0.3278-1.2113 0.5165-1.1954 1.1396-0.049 0.75774-0.18025 1.5032-0.29162 2.2536m-1.297 0c0.97797-0.35005 1.1012-1.5346 1.0974-2.4277-0.012-0.35444 0.14028-1.2622-0.37982-0.66714-0.20333 0.5447-0.6794 0.58179-0.73634-0.0499-0.88153 0.2092-0.17358 1.3145-0.0719 1.8845 0.14266 0.41218 0.19235 0.83458 0.0911 1.2602m-2.8256 0c0.9985-0.0622 1.096-1.4544 2.0512-1.6063 0.52693-0.93788-0.67494-2.1676-1.629-1.7611-0.60386 0.41494-0.50842 1.2588-0.45506 1.8995 0.0521 0.48635 0.12658 0.98159 0.033 1.4679m0.78555-1.59c-0.61671-0.46145 0.52708-1.2262 0.4721-0.41966-0.0635 0.21953-0.20308 0.48649-0.47204 0.42006m-2.0706 0.88019c-0.70519-0.0751-0.59624-1.0212-0.23909-1.4181 0.57513-0.14529 0.0674 1.0694 0.23909 1.4181zm-1.2209 0.0426c0.19809 0.81158 1.2632 0.87223 1.7709 0.32489 0.66613-0.52284 0.55988-1.4481 0.3926-2.1681-0.28855-0.82637-1.5849-1.1617-2.077-0.3402-0.41171 0.65968-0.28039 1.4761-0.0865 2.1834zm-2.3661-0.0284c-0.0938 0.91765 1.0862 0.92047 1.5877 0.45417 0.80929-0.55714-0.20998-0.85714-0.70996-0.92754-0.54295-0.48865 8e-3 -1.721 0.764-1.4465 0.50468 0.16217-0.0123-0.99465-0.52299-0.83327-0.71116-0.11401-1.6227 0.56995-1.2252 1.3327 0.18204 0.43361 0.13665 0.95599 0.10671 1.4207" fill="#4e4f54" opacity=".68421"/><path d="m115 58.5-31.5 0.5c-9.5 0.75-23.5 15.75-25.5 23.5l-1.75 24h-1.75s-3.4657 11.985-3.5 19.5l-0.5 109.5-0.25 0.5 0.25 16.75c-0.12628 3.5 1.7689 6.125 6.0625 6.25l183.38 0.75c3.9164 0 7.0625-2.125 7.0625-6.75v-16.5l0.5-0.5 1-113c1-8-3-16-3-16h-1.4375l1.4375-9.5-15-14-2 1-3-4-19.5 4.5-42.5-1-1.5-3 22.5-6 33.5-4.5 4-1.5 1-2-7-7.5-62.5 8.5-5-5-27-1.5-1.5 4z" clip-path="url(#aq)" color="#000000" enable-background="accumulate" fill="none" filter="url(#al)" stroke="url(#ad)"/><rect x="76.188" y="158.38" width="6.0625" height="3.6187" color="#000000" enable-background="accumulate" fill="#6a6a76" fill-rule="evenodd"/><rect x="76.328" y="158.18" width="5.8275" height="2.8198" color="#000000" enable-background="accumulate" fill="#252529" fill-rule="evenodd"/><path d="m65.054 139.49h26.163v27.047c0.04419 3.5355 2.4749 4.6404 4.773 4.773h106.42c2.6516 0 5.1265-1.0607 5.6568-4.5962l-0.17678-27.754h26.34l-25.809 0.70711v27.4c0 3.1869-2.8284 4.9498-5.8336 4.9498h-107.13c-3.0494 0-4.9939-1.6794-4.9497-4.9498v-27.047l-24.749 0.35355z" color="#000000" enable-background="accumulate" fill="#6b6b74" fill-rule="evenodd"/><ellipse transform="matrix(.89961 0 0 .84529 15.961 17.037)" cx="152.25" cy="114.5" rx="9.25" ry="4" color="#000000" enable-background="accumulate" fill="none" stroke="url(#g)" stroke-width=".8365"/><ellipse transform="matrix(.36876 0 0 .35938 96.846 73.206)" cx="152.25" cy="114.5" rx="9.25" ry="4" color="#000000" enable-background="accumulate" fill="#747771" fill-rule="evenodd"/><ellipse transform="matrix(.36876 0 0 .35938 96.846 72.862)" cx="152.25" cy="114.5" rx="9.25" ry="4" color="#000000" enable-background="accumulate" fill="#8d8d96" fill-rule="evenodd"/><path d="m157.62 113.62 0.0312 1.0312 1.9688-0.8125z" color="#000000" enable-background="accumulate" fill="#6b6b75" fill-rule="evenodd"/><path d="m151.94 112.16 1.7812-0.0312-0.875-1.0312z" color="#000000" enable-background="accumulate" fill="#8d8d96" fill-rule="evenodd"/><path d="m148.25 113.62-0.0312 1.0312-1.9688-0.8125z" color="#000000" enable-background="accumulate" fill="#6e6e78" fill-rule="evenodd"/><ellipse transform="matrix(.26751 0 0 .28279 126.78 81.502)" cx="152.25" cy="114.5" rx="9.25" ry="4" color="#000000" enable-background="accumulate" fill="url(#a)" fill-rule="evenodd"/><ellipse transform="matrix(.26751 0 0 .28279 126.78 84.377)" cx="152.25" cy="114.5" rx="9.25" ry="4" color="#000000" enable-background="accumulate" fill="url(#a)" fill-rule="evenodd"/><ellipse transform="matrix(.26751 0 0 .28279 126.78 87.127)" cx="152.25" cy="114.5" rx="9.25" ry="4" color="#000000" enable-background="accumulate" fill="url(#a)" fill-rule="evenodd"/><ellipse transform="matrix(.26751 0 0 .28279 133.72 78.752)" cx="152.25" cy="114.5" rx="9.25" ry="4" color="#000000" enable-background="accumulate" fill="url(#a)" fill-rule="evenodd"/><ellipse transform="matrix(.26751 0 0 .28279 133.72 81.502)" cx="152.25" cy="114.5" rx="9.25" ry="4" color="#000000" enable-background="accumulate" fill="url(#a)" fill-rule="evenodd"/><ellipse transform="matrix(.26751 0 0 .28279 133.72 84.377)" cx="152.25" cy="114.5" rx="9.25" ry="4" color="#000000" enable-background="accumulate" fill="url(#a)" fill-rule="evenodd"/><ellipse transform="matrix(.26751 0 0 .28279 133.72 87.127)" cx="152.25" cy="114.5" rx="9.25" ry="4" color="#000000" enable-background="accumulate" fill="url(#a)" fill-rule="evenodd"/><ellipse transform="matrix(.26751 0 0 .28279 140.72 78.752)" cx="152.25" cy="114.5" rx="9.25" ry="4" color="#000000" enable-background="accumulate" fill="url(#a)" fill-rule="evenodd"/><ellipse transform="matrix(.26751 0 0 .28279 140.72 81.502)" cx="152.25" cy="114.5" rx="9.25" ry="4" color="#000000" enable-background="accumulate" fill="url(#a)" fill-rule="evenodd"/><ellipse transform="matrix(.26751 0 0 .28279 140.72 84.377)" cx="152.25" cy="114.5" rx="9.25" ry="4" color="#000000" enable-background="accumulate" fill="url(#a)" fill-rule="evenodd"/><ellipse transform="matrix(.26751 0 0 .28279 140.72 87.127)" cx="152.25" cy="114.5" rx="9.25" ry="4" color="#000000" enable-background="accumulate" fill="url(#a)" fill-rule="evenodd"/><ellipse transform="matrix(.26751 0 0 .28279 148.47 78.752)" cx="152.25" cy="114.5" rx="9.25" ry="4" color="#000000" enable-background="accumulate" fill="url(#a)" fill-rule="evenodd"/><ellipse transform="matrix(.26751 0 0 .28279 148.47 81.502)" cx="152.25" cy="114.5" rx="9.25" ry="4" color="#000000" enable-background="accumulate" fill="url(#a)" fill-rule="evenodd"/><ellipse transform="matrix(.26751 0 0 .28279 148.47 87.127)" cx="152.25" cy="114.5" rx="9.25" ry="4" color="#000000" enable-background="accumulate" fill="url(#a)" fill-rule="evenodd"/><ellipse transform="matrix(.33507 0 0 .35422 108.37 78.662)" cx="152.25" cy="114.5" rx="9.25" ry="4" color="#000000" enable-background="accumulate" fill="url(#b)" fill-rule="evenodd"/><ellipse transform="matrix(.33507 0 0 .35422 94.746 78.662)" cx="152.25" cy="114.5" rx="9.25" ry="4" color="#000000" enable-background="accumulate" fill="url(#b)" fill-rule="evenodd"/><ellipse transform="matrix(.65053 0 0 .49485 106.01 61.998)" cx="152.25" cy="114.5" rx="9.25" ry="4" color="#000000" enable-background="accumulate" fill="url(#b)" fill-rule="evenodd"/><ellipse transform="matrix(.42756 0 0 .32523 151.4 75.115)" cx="152.25" cy="114.5" rx="9.25" ry="4" color="#000000" enable-background="accumulate" fill="url(#b)" fill-rule="evenodd"/><ellipse transform="matrix(.42756 0 0 .32523 139.15 75.115)" cx="152.25" cy="114.5" rx="9.25" ry="4" color="#000000" enable-background="accumulate" fill="url(#b)" fill-rule="evenodd"/><rect x="104.75" y="121.5" width="13" height="2.25" rx="1.125" ry="1.125" color="#000000" enable-background="accumulate" fill="url(#e)" fill-rule="evenodd"/><path d="m107.12 148.12 1.875 14.125h-5.25c-1.25-1-1.875-1.625-2.25-3l-0.5-11.25z" color="#000000" enable-background="accumulate" fill="url(#z)" fill-rule="evenodd"/><path d="m174 144.5 0.5 4.75-2.25-0.5v-2.5l-1.5 0.5v2.25l-8.5 0.0312v-2.2812h-1.75v2.3125h-2.25l0.25-3.5-9.25 0.53125 0.25 3h-3v-2.3438h-1.5v2.375l-9.25 0.0312v-2.6562h-1.25v2.6562h-1.5v-4.1562h-6v4.1875h-1.75v-2.4375h-1.5v2.4375l-6.5 0.0312v-3.2188h-5.75v3.25h-1l1 11.5h82.75l1-11.75-2 0.25-0.75-3h-1l0.25 2.75h-9.5l-0.25-2.5-0.75 0.25-0.25 2.25h-1.75l-0.25-4.25-5-0.25z" color="#000000" enable-background="accumulate" fill="url(#y)" fill-rule="evenodd"/><path d="m169.5 163.88h4.875v1.125h-4.875zm-4.875 2.375h3.5v1.375h-3.5zm-27-1.875h26v1.125h-26zm-4 1.75h4v1.5h-4zm-6.375-2.5h4.875v1.5h-4.875z" color="#000000" enable-background="accumulate" fill="url(#w)" fill-rule="evenodd"/><path transform="matrix(1.0722 0 0 1.0722 -6.1707 -6.3872)" d="m61 106 1-20.5c1-6 3.5-14.5 17-14.5h31" color="#000000" enable-background="accumulate" fill="none" filter="url(#aj)" stroke="url(#d)" stroke-width="2.7981"/><path d="m121.5 78.5 4.5 6.5 35.5-4.5 25-5.5 30-4 5.5-2v-4l-8.5 2.5-31 3-27 6z" color="#000000" enable-background="accumulate" fill="url(#t)" fill-rule="evenodd"/><path d="m121.25 78.5 0.75 0.875 33.75-2.375 27-6 31.25-3 7.5-2.25 0.375-1-1.125 0.875-6.875 1.875-31.625 2.875-26.625 6.125z" color="#000000" enable-background="accumulate" fill="#f6f6f7" fill-rule="evenodd" opacity=".65789"/><path d="m126.44 111.06-0.25 0.875-26.125-0.1875-0.9375 4.875-0.5 0.0625 0.875-5.5z" color="#000000" enable-background="accumulate" fill-rule="evenodd"/><path d="m56.375 105.75 0.125 1.375h11l2.375-1.625h159l4.5 2.125 11.125-0.125-0.25-1.25-11.375 0.125-3.875-2.125h-159.38l-2.875 2z" color="#000000" enable-background="accumulate" fill="#3e3e3e" fill-rule="evenodd"/><path d="m232.38 166.38h14c0.875 0 1.625-1.5 1.625-1.5" color="#000000" enable-background="accumulate" fill="none" stroke="#5c5c63" stroke-width=".5"/><path d="m232.38 167.28h14c0.875 0 1.625-1.5 1.625-1.5" color="#000000" enable-background="accumulate" fill="none" stroke="#dadadd" stroke-width=".5"/><path d="m68 166.38h-14c-0.875 0-1.625-1.5-1.625-1.5" color="#000000" enable-background="accumulate" fill="none" stroke="#5c5c63" stroke-width=".5"/><path d="m68 167.28h-14c-0.875 0-1.625-1.5-1.625-1.5" color="#000000" enable-background="accumulate" fill="none" stroke="#dadadd" stroke-width=".5"/><path d="m129.25 68.375 4.625 5.625c0.8125 0.8125 1.8125 1.375 3 1.25l13.75-0.625-0.375-0.625-13.375 0.625c-0.75 0-2.125-0.625-2.625-1.25l-4.125-4.875z" color="#000000" enable-background="accumulate" fill="#fefefe" opacity=".32018"/><ellipse transform="matrix(1.3871 0 0 1 -53.016 0)" cx="136.31" cy="113.88" rx="1.9375" ry="1" color="#000000" enable-background="accumulate" fill="#90b3db" fill-rule="evenodd" opacity=".32018"/><rect x="109.81" y="120.31" width="3.125" height=".75" color="#000000" enable-background="accumulate" fill="#90b3db" fill-rule="evenodd" opacity=".32018"/><path d="m197.05 147.87-1.0454 11.75h1.0454l0.69696-3.25 0.69695-8.75z" color="#000000" enable-background="accumulate" fill="url(#x)" fill-rule="evenodd"/><path d="m118.62 67.981 27.299 0.21339 5.3159 7.4764-5.6694-6.9461-27.034 0.05178z" color="#000000" enable-background="accumulate" fill="#fff" opacity=".3913"/></g></g></svg>
