<?xml version="1.0" encoding="UTF-8"?>
<svg enable-background="new" version="1.0" viewBox="0 0 256 256" xmlns="http://www.w3.org/2000/svg" xmlns:xlink="http://www.w3.org/1999/xlink"><defs><filter id="af" color-interpolation-filters="sRGB"><feGaussianBlur stdDeviation="1.1139135"/></filter><filter id="ag" x="-.096082" y="-.21078" width="1.1922" height="1.4216" color-interpolation-filters="sRGB"><feGaussianBlur stdDeviation="8.6473583"/></filter><filter id="ac" color-interpolation-filters="sRGB"><feGaussianBlur stdDeviation="1.2010375"/></filter><linearGradient id="a"><stop stop-color="#fff" offset="0"/><stop stop-color="#fff" stop-opacity="0" offset="1"/></linearGradient><filter id="ad" color-interpolation-filters="sRGB"><feGaussianBlur stdDeviation="0.083731455"/></filter><filter id="ae" color-interpolation-filters="sRGB"><feGaussianBlur stdDeviation="0.0809375"/></filter><radialGradient id="l" cx="58.25" cy="137.05" r="18.75" gradientTransform="matrix(.97821 .20762 -.69333 3.2667 96.293 -316.55)" gradientUnits="userSpaceOnUse" xlink:href="#a"/><filter id="c" color-interpolation-filters="sRGB"><feGaussianBlur stdDeviation="0.3225"/></filter><radialGradient id="k" cx="58.292" cy="130.62" r="18.75" gradientTransform="matrix(.97821 .20762 -.69333 3.2667 96.293 -316.55)" gradientUnits="userSpaceOnUse" xlink:href="#a"/><radialGradient cx="226" cy="166.28" r="7.8125" gradientTransform="matrix(.66088 -.29267 1.9361 4.3718 -245.3 -494.53)" gradientUnits="userSpaceOnUse"><stop stop-color="#7b7b7b" offset="0"/><stop stop-color="#fff" offset="1"/></radialGradient><radialGradient id="j" cx="171.86" cy="163.67" r="106.11" gradientTransform="matrix(2.4906 -1.0563 .93479 5.4225 -410.89 -463.38)" gradientUnits="userSpaceOnUse"><stop stop-color="#fff" offset="0"/><stop stop-color="#959595" offset="1"/></radialGradient><radialGradient id="i" cx="136.8" cy="196.24" r="107.69" gradientTransform="matrix(1.4108 -4.7412e-8 4.9548e-8 1.7119 -66.663 -105.93)" gradientUnits="userSpaceOnUse"><stop stop-color="#fff" offset="0"/><stop stop-color="#fff" stop-opacity="0" offset="1"/></radialGradient><linearGradient id="v" x1="40.871" x2="254.78" y1="223.45" y2="223.45" gradientTransform="matrix(.93662 0 0 1.0094 5.3688 15.734)" gradientUnits="userSpaceOnUse"><stop stop-color="#909090" offset="0"/><stop stop-color="#babdb6" offset=".04"/><stop stop-color="#babdb6" offset=".96"/><stop stop-color="#888a85" offset="1"/></linearGradient><radialGradient id="h" cx="253.03" cy="193.54" r="1.3818" gradientTransform="matrix(1 0 0 10.996 -1 -1934.7)" gradientUnits="userSpaceOnUse" xlink:href="#a"/><radialGradient id="g" cx="43.062" cy="192.25" r="1.3818" gradientTransform="matrix(1 0 0 11.008 0 -1924)" gradientUnits="userSpaceOnUse" xlink:href="#a"/><linearGradient id="b" x1="49.604" x2="253.29" y1="176.61" y2="210.29" gradientUnits="userSpaceOnUse"><stop stop-color="#fff" stop-opacity=".64894" offset="0"/><stop stop-color="#fff" stop-opacity="0" offset=".068364"/><stop stop-color="#929292" stop-opacity=".50382" offset=".32103"/><stop stop-color="#fff" stop-opacity="0" offset=".54211"/><stop stop-color="#fff" stop-opacity=".71756" offset=".78632"/><stop stop-color="#fff" stop-opacity="0" offset="1"/></linearGradient><filter id="ah" color-interpolation-filters="sRGB"><feGaussianBlur stdDeviation="0.85254664"/></filter><linearGradient id="u" x1="144" x2="144" y1="107.84" y2="228.65" gradientUnits="userSpaceOnUse"><stop offset="0"/><stop stop-opacity=".49804" offset=".28477"/><stop stop-opacity="0" offset="1"/></linearGradient><clipPath id="ak"><path d="m89.906 342-16.844 90h141.88l-16.844-90z" enable-background="new"/></clipPath><linearGradient id="t" x1="84.25" x2="389.12" y1="337" y2="366.88" gradientTransform="matrix(1 0 0 1.9415 0 -321.06)" gradientUnits="userSpaceOnUse"><stop offset="0"/><stop stop-color="#2e3436" offset="1"/></linearGradient><radialGradient id="f" cx="143" cy="484" r="81.219" gradientTransform="matrix(1.7968 0 0 1.0309 -113.94 -58.242)" gradientUnits="userSpaceOnUse"><stop stop-color="#2e3436" offset="0"/><stop offset="1"/></radialGradient><linearGradient id="s" x1="192.81" x2="163.86" y1="204.08" y2="156.89" gradientTransform="matrix(.96742 0 0 .95008 4.9076 9.1279)" gradientUnits="userSpaceOnUse"><stop stop-color="#fff" offset="0"/><stop stop-color="#fff" stop-opacity="0" offset="1"/></linearGradient><linearGradient id="r" x1="129.54" x2="158.46" y1="109.05" y2="58.955" gradientUnits="userSpaceOnUse"><stop stop-color="#555753" offset="0"/><stop stop-color="#888a85" offset="1"/></linearGradient><linearGradient id="q" x1="129.54" x2="158.46" y1="109.05" y2="58.955" gradientTransform="translate(0,1)" gradientUnits="userSpaceOnUse"><stop stop-color="#6c6d69" offset="0"/><stop stop-color="#aeb2a9" offset="1"/></linearGradient><clipPath id="aj"><path d="m-172.25 56c-0.94077 0-2.1679 0.3025-2.8438 0.65625-0.33791 0.17688-0.4971 0.32952-0.5625 0.4375-0.0327 0.05399-0.0614 0.08279-0.0625 0.125v4c-1e-3 0.04221 0.0252 0.09782 0.0625 0.15625l28.406 44.375c0.46639 0.73168 0.99241 1.3503 1.5312 1.7188 0.53885 0.36841 0.93422 0.53125 1.875 0.53125h135.69c0.9408 0 1.3362-0.16284 1.875-0.53125 0.53884-0.36843 1.0649-0.98707 1.5312-1.7188l28.406-44.375c0.0373-0.05843 0.0636-0.11404 0.0625-0.15625v-4c-1e-3 -0.04221-0.0298-0.07101-0.0625-0.125-0.0654-0.10798-0.2246-0.26062-0.5625-0.4375-0.67583-0.35375-1.903-0.65625-2.8438-0.65625z" enable-background="new" fill="#ccc"/></clipPath><filter id="z"><feGaussianBlur stdDeviation="0.6285939"/></filter><linearGradient id="p" x1="129.54" x2="158.46" y1="109.05" y2="58.955" gradientTransform="translate(-220)" gradientUnits="userSpaceOnUse"><stop stop-color="#555753" offset="0"/><stop stop-color="#888a85" offset="1"/></linearGradient><linearGradient id="o" x1="-76" x2="-76" y1="102.4" y2="53.749" gradientUnits="userSpaceOnUse"><stop stop-color="#2e3436" offset="0"/><stop stop-color="#5b5f5d" offset=".77586"/><stop stop-color="#babdb6" offset="1"/></linearGradient><filter id="ab" color-interpolation-filters="sRGB"><feGaussianBlur stdDeviation="1.2010375"/></filter><radialGradient id="e" cx="136.8" cy="196.24" r="107.69" gradientTransform="matrix(1.4108 4.7412e-8 4.9548e-8 -1.7119 -286.66 389.93)" gradientUnits="userSpaceOnUse"><stop stop-color="#fff" offset="0"/><stop stop-color="#fff" stop-opacity="0" offset="1"/></radialGradient><linearGradient id="n" x1="96" x2="96" y1="112.1" y2="104.84" gradientTransform="matrix(.74219 0 0 1 26.812 1)" gradientUnits="userSpaceOnUse"><stop stop-color="#babdb6" offset="0"/><stop stop-color="#555753" offset=".29323"/><stop stop-color="#d3d7cf" offset=".53461"/><stop stop-color="#eeeeec" offset=".69838"/><stop stop-color="#555753" offset="1"/></linearGradient><linearGradient id="m" x1="96" x2="96" y1="112.1" y2="104.84" gradientTransform="matrix(.74495 0 0 1 118.48 1)" gradientUnits="userSpaceOnUse"><stop stop-color="#babdb6" offset="0"/><stop stop-color="#555753" offset=".29323"/><stop stop-color="#d3d7cf" offset=".53461"/><stop stop-color="#eeeeec" offset=".69838"/><stop stop-color="#555753" offset="1"/></linearGradient><radialGradient id="d" cx="143.38" cy="126.33" r="71.125" gradientTransform="matrix(2.1233 0 0 .14035 -161.06 381.55)" gradientUnits="userSpaceOnUse"><stop stop-color="#555753" offset="0"/><stop stop-color="#2e3436" offset="1"/></radialGradient><filter id="y" x="-.017313" y="-1.2314" width="1.0346" height="3.4628"><feGaussianBlur stdDeviation="1.0261687"/></filter><filter id="x" x="-.027206" y="-1.9351" width="1.0544" height="4.8701"><feGaussianBlur stdDeviation="1.6125508"/></filter><filter id="w" x="-.04452" y="-3.1665" width="1.089" height="7.3329"><feGaussianBlur stdDeviation="2.6387195"/></filter><filter id="aa"><feGaussianBlur stdDeviation="0.889375"/></filter><clipPath id="ai"><path d="m77.189 108c-2.8439 0-4.1409 2.2535-5.1241 4.6945l-27.858 113.04c-0.15346 0.38102-0.22357 0.76262-0.18747 1.1267-5e-3 0.063 0 0.12409 0 0.18778v12.949c0 2.2211 3.2948 4.006 7.3737 4.006h185.21c4.0789 0 7.3737-1.7848 7.3737-4.006v-12.949c0-0.0637 5e-3 -0.12483 0-0.18778 0.0361-0.36406-0.034-0.74566-0.18748-1.1267l-27.858-113.04c-0.98316-2.441-2.2801-4.6945-5.1241-4.6945z" enable-background="new" fill="none" stroke="#000"/></clipPath></defs><g transform="translate(-20,-32)"><g><path transform="matrix(.98171 0 0 1.1923 -1.2648 -10.074)" d="m82.253 115h133.49c2.8444 0 4.151 2.2513 5.1344 4.6886l35.941 89.084c0.98334 2.4374-2.2899 4.6886-5.1344 4.6886h-205.37c-2.8444 0-6.1177-2.2513-5.1344-4.6886l35.941-89.084c0.98334-2.4374 2.2899-4.6886 5.1344-4.6886z" enable-background="new" filter="url(#ag)" opacity=".55"/><path transform="matrix(.93322 0 0 .94844 4.9594 44.023)" d="m82.253 115h133.49c2.8444 0 4.151 2.2513 5.1344 4.6886l35.941 89.084c0.98334 2.4374-2.2899 4.6886-5.1344 4.6886h-205.37c-2.8444 0-6.1177-2.2513-5.1344-4.6886l35.941-89.084c0.98334-2.4374 2.2899-4.6886 5.1344-4.6886z" enable-background="new" filter="url(#af)" opacity=".89"/><g transform="matrix(1.0092 0 0 1.0094 -14.313 40.338)" enable-background="new"></g><path d="m76.171 104c-0.94078 0-1.3644-0.17367-1.9033-0.54208-0.53884-0.36843-1.0562-0.97488-1.5226-1.7066l-28.406-44.386c-0.0745-0.11686-0.0654-0.15302 0-0.261 0.0654-0.10798 0.23306-0.2849 0.57097-0.46178 0.67582-0.35375 1.9141-0.64246 2.8549-0.64246h192.47c0.94078 0 2.1791 0.28872 2.8549 0.64246 0.3379 0.17688 0.5056 0.3538 0.57097 0.46178 0.0654 0.10798 0.0745 0.14414 0 0.261l-28.406 44.386c-0.46638 0.73168-0.98376 1.3381-1.5226 1.7066-0.53884 0.36841-0.96246 0.54208-1.9033 0.54208z" enable-background="new" fill="#ccc"/><g transform="translate(0,1)" clip-path="url(#ai)"><path d="m50.48 222.74h186.69c3.784 0 6.8304 1.7937 6.8304 4.0218v21.047c0 2.2281-3.0464 4.0218-6.8304 4.0218h-186.69c-3.784 0-6.8304-1.7937-6.8304-4.0218v-21.047c0-2.2281 3.0464-4.0218 6.8304-4.0218z" enable-background="new" fill="url(#v)"/><rect transform="matrix(.88439 0 0 .85708 13.09 72.474)" x="42.357" y="176.61" width="210.94" height="33.679" rx="7.1913" ry="3.6518" enable-background="new" fill="url(#b)" filter="url(#ac)" opacity=".9"/><path d="m243.91 226c0 2.216-2.0371 4-4.5676 4h-190.74c-2.5304 0-4.5676-1.784-4.5676-4z" enable-background="new" fill="url(#i)"/><path d="m76.171 108c-0.94078 0-1.3644 0.43417-1.9033 1.3552-0.53884 0.92106-1.0562 2.4372-1.5226 4.2664l-28.406 110.97c-0.0745 0.29216-0.0654 0.38256 0 0.65251 0.0654 0.26994 0.23306 0.71225 0.57097 1.1544 0.67582 0.88437 1.9141 1.6062 2.8549 1.6062h192.47c0.94078 0 2.1791-0.72179 2.8549-1.6062 0.3379-0.44219 0.5056-0.8845 0.57097-1.1544 0.0654-0.26995 0.0745-0.36035 0-0.65251l-28.406-110.97c-0.46638-1.8292-0.98376-3.3453-1.5226-4.2664-0.53884-0.92104-0.96246-1.3552-1.9033-1.3552z" clip-path="none" enable-background="new" fill="url(#j)"/><rect transform="matrix(1.0092 0 0 1.0924 3.6529 31.313)" x="41.875" y="177.25" width="2.375" height="30" rx="2.2867" ry="2.2466" enable-background="new" fill="url(#g)" filter="url(#ad)" opacity=".85"/><rect transform="matrix(1.0092 0 0 1.0094 -13.356 46.015)" x="250.84" y="178.54" width="2.375" height="30" rx="2.2867" ry="2.2466" enable-background="new" fill="url(#h)" filter="url(#ae)" opacity=".55"/><path transform="matrix(1.0092 0 0 1.6697 1.6437 -71.708)" d="m45 177.5 27-68.5" enable-background="new" fill="none" filter="url(#c)" opacity=".67568" stroke="url(#l)" stroke-linecap="round" stroke-width="1.5407"/><path transform="matrix(-1.0092 0 0 1.6697 285.86 -71.708)" d="m45 177.5 27.75-68.5" enable-background="new" fill="none" filter="url(#c)" opacity=".40541" stroke="url(#k)" stroke-linecap="round" stroke-width="1.5407"/><path d="m76.171 108c-0.94078 0-1.3644 0.43417-1.9033 1.3552-0.53884 0.92106-1.0562 2.4372-1.5226 4.2664l-28.406 110.97c-0.0745 0.29216-0.0654 0.38256 0 0.65251 0.0654 0.26994 0.23306 0.71225 0.57097 1.1544 0.67582 0.88437 1.9141 1.6062 2.8549 1.6062h192.47c0.94078 0 2.1791-0.72179 2.8549-1.6062 0.3379-0.44219 0.5056-0.8845 0.57097-1.1544 0.0654-0.26995 0.0745-0.36035 0-0.65251l-28.406-110.97c-0.46638-1.8292-0.98376-3.3453-1.5226-4.2664-0.53884-0.92104-0.96246-1.3552-1.9033-1.3552z" clip-path="none" enable-background="new" fill="url(#u)" opacity=".54959"/><path d="m77.189 108c-2.8439 0-4.1409 2.2535-5.1241 4.6945l-27.858 113.04c-0.15346 0.38102-0.22357 0.76262-0.18747 1.1267-5e-3 0.063 0 0.12409 0 0.18778v12.949c0 2.2211 3.2948 4.006 7.3737 4.006h185.21c4.0789 0 7.3737-1.7848 7.3737-4.006v-12.949c0-0.0637 5e-3 -0.12483 0-0.18778 0.0361-0.36406-0.034-0.74566-0.18748-1.1267l-27.858-113.04c-0.98316-2.441-2.2801-4.6945-5.1241-4.6945z" color="#000000" enable-background="new" fill="none" filter="url(#ah)" stroke="#555753" stroke-width="3"/></g><path d="m76.171 108c-0.94078 0-1.3644-0.17367-1.9033-0.54208-0.53884-0.36843-1.0562-0.97488-1.5226-1.7066l-28.406-44.386c-0.0745-0.11686-0.0654-0.15302 0-0.261 0.0654-0.10798 0.23306-0.2849 0.57097-0.46178 0.67582-0.35375 1.9141-0.64246 2.8549-0.64246h192.47c0.94078 0 2.1791 0.28872 2.8549 0.64246 0.3379 0.17688 0.5056 0.3538 0.57097 0.46178 0.0654 0.10798 0.0745 0.14414 0 0.261l-28.406 44.386c-0.46638 0.73168-0.98376 1.3381-1.5226 1.7066-0.53884 0.36841-0.96246 0.54208-1.9033 0.54208z" enable-background="new" fill="url(#r)"/><g transform="translate(220)" clip-path="url(#aj)"><path d="m-172.25 56c-0.94077 0-2.1679 0.3025-2.8438 0.65625-0.33791 0.17688-0.4971 0.32952-0.5625 0.4375-0.0327 0.05399-0.0614 0.08279-0.0625 0.125v4c-1e-3 0.04221 0.0252 0.09782 0.0625 0.15625l28.406 44.375c0.46639 0.73168 0.99241 1.3503 1.5312 1.7188 0.53885 0.36841 0.93422 0.53125 1.875 0.53125h135.69c0.9408 0 1.3362-0.16284 1.875-0.53125 0.53884-0.36843 1.0649-0.98707 1.5312-1.7188l28.406-44.375c0.03725-0.05843 0.06364-0.11404 0.0625-0.15625v-4c-0.0011-0.04221-0.0298-0.07101-0.0625-0.125-0.06537-0.10798-0.2246-0.26062-0.5625-0.4375-0.67583-0.35375-1.903-0.65625-2.8438-0.65625z" clip-path="none" enable-background="new" fill="#ccc"/><rect transform="matrix(.87775 0 0 .85708 -205.93 -107.53)" x="42.357" y="176.61" width="210.94" height="33.679" rx="7.1913" ry="3.6518" enable-background="new" fill="url(#b)" filter="url(#ab)" opacity=".9"/><path d="m-143.83 108c-0.94078 0-1.3644-0.17367-1.9033-0.54208-0.53884-0.36843-1.0562-0.97488-1.5226-1.7066l-28.406-44.386c-0.0745-0.11686-0.0654-0.15302 0-0.261 0.0654-0.10798 0.23306-0.2849 0.57097-0.46178 0.67582-0.35375 1.9141-0.64246 2.8549-0.64246h192.47c0.94078 0 2.1791 0.28872 2.8549 0.64246 0.3379 0.17688 0.5056 0.3538 0.57097 0.46178 0.0654 0.10798 0.0745 0.14414 0 0.261l-28.406 44.386c-0.46638 0.73168-0.98376 1.3381-1.5226 1.7066-0.53884 0.36841-0.96246 0.54208-1.9033 0.54208z" clip-path="none" enable-background="new" fill="url(#p)"/><path d="m23.906 58c0-2.216-2.0371-4-4.5676-4h-190.74c-2.5304 0-4.5676 1.784-4.5676 4z" enable-background="new" fill="url(#e)"/><path d="m-172.25 56c-0.94077 0-2.1679 0.3025-2.8438 0.65625-0.33791 0.17688-0.4971 0.32952-0.5625 0.4375-0.0327 0.05399-0.0614 0.08279-0.0625 0.125v4c-1e-3 0.04221 0.0252 0.09782 0.0625 0.15625l28.406 44.375c0.46639 0.73168 0.99241 1.3503 1.5312 1.7188 0.53885 0.36841 0.93422 0.53125 1.875 0.53125h135.69c0.9408 0 1.3362-0.16284 1.875-0.53125 0.53884-0.36843 1.0649-0.98707 1.5312-1.7188l28.406-44.375c0.0373-0.05843 0.0636-0.11404 0.0625-0.15625v-4c-1e-3 -0.04221-0.0298-0.07101-0.0625-0.125-0.0654-0.10798-0.2246-0.26062-0.5625-0.4375-0.67583-0.35375-1.903-0.65625-2.8438-0.65625z" clip-path="none" enable-background="new" fill="none" filter="url(#z)" stroke="url(#o)" stroke-width="2"/></g><path d="m89.906 102.4-16.844-36h141.88l-16.844 36z" color="#000000" enable-background="new" filter="url(#aa)" opacity=".41322"/><rect x="92.125" y="105.94" width="11.875" height="7.0559" rx="0" ry="0" color="#000000" enable-background="new" fill="url(#n)"/><path d="m89.906 123-16.844 90h141.88l-16.844-90z" enable-background="new"/><g transform="translate(0,-219)" clip-path="url(#ak)"><rect x="84" y="341" width="120" height="17.528" color="#000000" enable-background="new" fill="url(#t)"/><path d="m86.344 350c-0.79966 0-1.167 0.37336-1.625 1.1562-0.45801 0.7829-0.88482 2.0702-1.2812 3.625l-20.656 80.625h162.44l-20.656-80.625c-0.39643-1.5548-0.82324-2.8421-1.2812-3.625-0.45802-0.78289-0.82532-1.1562-1.625-1.1562z" clip-path="none" enable-background="new" fill="url(#f)"/><rect x="72.25" y="397.19" width="142.25" height="12.562" color="#000000" enable-background="new" fill="url(#d)"/><rect transform="matrix(1 0 0 1.1446 0 -57.857)" x="72.25" y="399" width="142.25" height="2" color="#000000" enable-background="new" fill="#fce94f" filter="url(#w)"/><rect x="72.25" y="399" width="142.25" height="2" color="#000000" enable-background="new" fill="#fff" filter="url(#y)"/><rect x="72.25" y="399" width="142.25" height="2" color="#000000" enable-background="new" fill="#fff" filter="url(#x)"/><rect x="72.25" y="399" width="142.25" height="2" color="#000000" enable-background="new" fill="#fff"/></g><path d="m92.943 125.75 94.307 14.788-48.716 69.284 71.497 0.053-14.542-84.125z" enable-background="new" fill="url(#s)" opacity=".21074"/><path d="m89.906 102.4-16.844-36h141.88l-16.844 36z" color="#000000" enable-background="new" opacity=".41322"/><path d="m89.906 103.4-16.844-36h141.88l-16.844 36z" color="#000000" enable-background="new" fill="url(#q)"/><rect x="184.04" y="105.94" width="11.919" height="7.0559" rx="0" ry="0" color="#000000" enable-background="new" fill="url(#m)"/></g></g></svg>
