<?xml version="1.0" encoding="UTF-8"?>
<svg enable-background="new" version="1.0" viewBox="0 0 256 256" xmlns="http://www.w3.org/2000/svg" xmlns:xlink="http://www.w3.org/1999/xlink"><defs><linearGradient id="q"><stop stop-color="#555753" offset="0"/><stop stop-color="#b6b8b5" offset="1"/></linearGradient><linearGradient id="t"><stop stop-color="#b6b6b6" offset="0"/><stop stop-color="#f8f8f8" offset="1"/></linearGradient><linearGradient id="a"><stop stop-color="#fff" offset="0"/><stop stop-color="#fff" stop-opacity="0" offset="1"/></linearGradient><radialGradient id="o" cx="155.88" cy="68.432" r="52" gradientTransform="matrix(2.1452 -.57481 1.0246 3.8238 -257 -106.57)" gradientUnits="userSpaceOnUse"><stop stop-color="#fff" offset="0"/><stop stop-color="#888a85" offset="1"/></radialGradient><clipPath id="ae"><path d="m112.28 44-15.656 25.656-0.1875 0.34375c-0.27754 0.52402-0.4375 1.1135-0.4375 1.75v192.5c0 2.0775 1.6725 3.75 3.75 3.75h96.5c2.0775 0 3.75-1.6725 3.75-3.75v-192.5c0-0.63651-0.15996-1.226-0.4375-1.75l-0.1875-0.34375-15.656-25.656z" enable-background="new" fill="#999" fill-rule="evenodd"/></clipPath><filter id="ad"><feGaussianBlur stdDeviation="0.83"/></filter><linearGradient id="y" x1="174.91" x2="161.91" y1="123.95" y2="10.968" gradientUnits="userSpaceOnUse"><stop stop-color="#555753" offset="0"/><stop stop-color="#babdb6" offset="1"/></linearGradient><radialGradient id="n" cx="137.01" cy="57" r="49.058" gradientTransform="matrix(2.5726 0 0 .23504 -232.74 43.603)" gradientUnits="userSpaceOnUse"><stop stop-color="#fff" offset="0"/><stop stop-color="#fff" stop-opacity="0" offset="1"/></radialGradient><filter id="ac"><feGaussianBlur stdDeviation="0.31736217"/></filter><linearGradient id="x" x1="247.34" x2="78.315" y1="142.14" y2="136.96" gradientUnits="userSpaceOnUse"><stop stop-color="#babdb6" offset="0"/><stop stop-color="#eeeeec" offset="1"/></linearGradient><radialGradient id="m" cx="148" cy="69.875" r="52" gradientTransform="matrix(1.283 0 0 .7476 -41.888 18.637)" gradientUnits="userSpaceOnUse"><stop stop-color="#fff" offset="0"/><stop stop-color="#fff" stop-opacity="0" offset="1"/></radialGradient><filter id="ab" x="-.10255" y="-.14461" width="1.2051" height="1.2892"><feGaussianBlur stdDeviation="4.44375"/></filter><linearGradient id="w" x1="135.5" x2="135.5" y1="256.03" y2="194.23" gradientUnits="userSpaceOnUse"><stop stop-color="#fff" offset="0"/><stop stop-color="#fff" stop-opacity="0" offset="1"/></linearGradient><radialGradient id="l" cx="148" cy="156.5" r="52" gradientTransform="matrix(1.6058 3.2485e-7 -8.4615e-8 .41827 -249.65 -160.96)" gradientUnits="userSpaceOnUse" xlink:href="#a"/><radialGradient id="k" cx="148" cy="156.5" r="52" gradientTransform="matrix(1.6058 3.2485e-7 -8.4615e-8 .41827 -249.65 -180.96)" gradientUnits="userSpaceOnUse" xlink:href="#a"/><radialGradient id="j" cx="148" cy="156.5" r="52" gradientTransform="matrix(1.6058 3.2485e-7 -8.4615e-8 .41827 -249.65 -200.96)" gradientUnits="userSpaceOnUse" xlink:href="#a"/><radialGradient id="i" cx="148" cy="156.5" r="52" gradientTransform="matrix(1.6058 3.2485e-7 -8.4615e-8 .41827 -249.65 -220.96)" gradientUnits="userSpaceOnUse" xlink:href="#a"/><radialGradient id="h" cx="148" cy="156.5" r="52" gradientTransform="matrix(1.6058 3.2485e-7 -8.4615e-8 .41827 -249.65 -240.96)" gradientUnits="userSpaceOnUse" xlink:href="#a"/><filter id="aa" x="-.038005" y="-.14243" width="1.076" height="1.2849"><feGaussianBlur stdDeviation="1.646875"/></filter><filter id="z" x="-.15202" y="-.56973" width="1.304" height="2.1395"><feGaussianBlur stdDeviation="6.5875"/></filter><linearGradient id="v" x1="143.48" x2="143.48" y1="259.14" y2="241.95" gradientTransform="matrix(.53846 0 0 .99701 68.308 .21519)" gradientUnits="userSpaceOnUse"><stop stop-color="#babdb6" offset="0"/><stop stop-color="#ddddd9" offset="1"/></linearGradient><linearGradient id="u" x1="149" x2="149" y1="87.5" y2="83.983" gradientTransform="translate(-2)" gradientUnits="userSpaceOnUse"><stop stop-color="#6ac314" offset="0"/><stop stop-color="#b6ff28" offset="1"/></linearGradient><linearGradient id="b" x1="150.28" x2="150.28" y1="-83" y2="-89.39" gradientUnits="userSpaceOnUse" xlink:href="#t"/><filter id="d" x="-.033553" y="-.53684" width="1.0671" height="2.0737"><feGaussianBlur stdDeviation="0.27960526"/></filter><linearGradient id="s" x1="175.82" x2="179.75" y1="168.75" y2="168.75" gradientUnits="userSpaceOnUse"><stop stop-color="#babdb6" offset="0"/><stop stop-color="#babdb6" stop-opacity="0" offset="1"/></linearGradient><linearGradient id="r" x1="175.82" x2="179.75" y1="168.75" y2="168.75" gradientTransform="matrix(-1 0 0 1 296.07 0)" gradientUnits="userSpaceOnUse"><stop stop-color="#fff" offset="0"/><stop stop-color="#babdb6" stop-opacity="0" offset="1"/></linearGradient><filter id="c" x="-.18576" y="-.19334" width="1.3715" height="1.3867"><feGaussianBlur stdDeviation="0.17445039"/></filter><linearGradient id="e" x1="144.75" x2="144.75" y1="103.51" y2="106.78" gradientUnits="userSpaceOnUse" xlink:href="#q"/><radialGradient id="g" cx="-173.62" cy="170" r=".875" gradientTransform="matrix(-7.2653 0 0 -112 -1086.9 19210)" gradientUnits="userSpaceOnUse"><stop stop-color="#fff" offset="0"/><stop stop-color="#fff" stop-opacity="0" offset="1"/></radialGradient><linearGradient id="p" x1="144.75" x2="146.75" y1="175.25" y2="165" gradientUnits="userSpaceOnUse"><stop stop-color="#fff" offset="0"/><stop stop-color="#bbb" offset="1"/></linearGradient><radialGradient id="f" cx="148" cy="167.86" r="12" gradientTransform="matrix(1.1724 0 0 1.1724 -25.517 -28.942)" gradientUnits="userSpaceOnUse"><stop stop-color="#aaaca8" offset="0"/><stop stop-color="#91948f" offset="1"/></radialGradient></defs><g transform="translate(-20,-32)"><g><g transform="translate(286)" fill-rule="evenodd"><path d="m-173.72 241-15.656 25.656-0.1875 0.34375c-0.27754 0.52402-0.4375 1.1135-0.4375 1.75h104c0-0.63651-0.15996-1.226-0.4375-1.75l-0.1875-0.34375-15.656-25.656z" enable-background="new" filter="url(#z)" opacity=".6"/><path d="m-173.72 241-15.656 25.656-0.1875 0.34375c-0.27754 0.52402-0.4375 1.1135-0.4375 1.75h104c0-0.63651-0.15996-1.226-0.4375-1.75l-0.1875-0.34375-15.656-25.656z" enable-background="new" filter="url(#aa)" opacity=".6"/></g><g clip-path="url(#ae)"><path d="m112.28 44-15.656 25.656-0.1875 0.34375c-0.27754 0.52402-0.4375 1.1135-0.4375 1.75v192.5c0 2.0775 1.6725 3.75 3.75 3.75h96.5c2.0775 0 3.75-1.6725 3.75-3.75v-192.5c0-0.63651-0.15996-1.226-0.4375-1.75l-0.1875-0.34375-15.656-25.656z" enable-background="new" fill="url(#o)" fill-rule="evenodd"/><path d="m113.75 44h68.5l15.222 26h-98.945z" enable-background="new" fill="none" filter="url(#ac)" stroke="url(#n)" stroke-linecap="round" stroke-linejoin="round"/><rect x="96" y="68" width="104" height="200" rx="3.75" ry="3.75" enable-background="new" fill="url(#x)" fill-rule="evenodd"/><rect x="-64" y="-97" width="104" height="1" enable-background="new" fill-rule="evenodd" opacity=".1"/><rect x="-64" y="-96" width="104" height="1" enable-background="new" fill="url(#l)" fill-rule="evenodd" opacity=".7"/><path transform="matrix(.95192 0 0 .66718 7.1154 87.424)" d="m96 194.25v70c0 2.0775 1.6725 3.75 3.75 3.75h96.5c2.0775 0 3.75-1.6725 3.75-3.75v-70z" enable-background="new" fill="url(#w)" fill-rule="evenodd" filter="url(#ab)" opacity=".5"/><rect x="120" y="72" width="56" height="195.41" rx="0" ry="0" enable-background="new" fill="url(#v)" fill-rule="evenodd"/><path d="m99.75 68c-2.0775 0-3.75 1.6725-3.75 3.75v2c0-2.0775 1.6725-3.75 3.75-3.75h17.25l3 2h56.25l3.25-2h16.75c2.0775 0 3.75 1.6725 3.75 3.75v-2c0-2.0775-1.6725-3.75-3.75-3.75z" enable-background="new" fill="url(#m)" fill-rule="evenodd"/><path d="m112.28 43-15.656 26.656-0.1875 0.34375c-0.27754 0.52402-0.4375 1.1135-0.4375 1.75v192.5c0 2.0775 1.6725 3.75 3.75 3.75h96.5c2.0775 0 3.75-1.6725 3.75-3.75v-192.5c0-0.63651-0.15996-1.226-0.4375-1.75l-0.1875-0.34375-15.656-26.656z" enable-background="new" fill="none" filter="url(#ad)" stroke="url(#y)" stroke-linecap="round" stroke-linejoin="round" stroke-width="2"/><rect x="-64" y="-117" width="104" height="1" enable-background="new" fill-rule="evenodd" opacity=".1"/><rect x="-64" y="-116" width="104" height="1" enable-background="new" fill="url(#k)" fill-rule="evenodd" opacity=".7"/><rect x="-64" y="-137" width="104" height="1" enable-background="new" fill-rule="evenodd" opacity=".1"/><rect x="-64" y="-136" width="104" height="1" enable-background="new" fill="url(#j)" fill-rule="evenodd" opacity=".7"/><rect x="-64" y="-157" width="104" height="1" enable-background="new" fill-rule="evenodd" opacity=".1"/><rect x="-64" y="-156" width="104" height="1" enable-background="new" fill="url(#i)" fill-rule="evenodd" opacity=".7"/><rect x="-64" y="-177" width="104" height="1" enable-background="new" fill-rule="evenodd" opacity=".1"/><rect x="-64" y="-176" width="104" height="1" enable-background="new" fill="url(#h)" fill-rule="evenodd" opacity=".7"/><text x="147.15704" y="94.803871" fill="#000000" font-family="Cantarell" font-weight="bold" letter-spacing="0px" text-align="center" text-anchor="middle" word-spacing="0px" style="line-height:0%" xml:space="preserve"><tspan x="147.15704" y="94.803871" font-size="4.0141px" style="line-height:1.25">On Line</tspan></text><path d="m179.75 70-3.75 2.5s-0.40849 196.52 0 195 2.75-29 2.75-29z" fill="url(#s)"/><path d="m116.32 70 3.75 2.5s0.40849 196.52 0 195-2.75-29-2.75-29z" fill="url(#r)"/><text x="147.15704" y="114.80387" fill="#000000" font-family="Cantarell" font-weight="bold" letter-spacing="0px" text-align="center" text-anchor="middle" word-spacing="0px" style="line-height:0%" xml:space="preserve"><tspan x="147.15704" y="114.80387" font-size="4.0141px" style="line-height:1.25">On Battery</tspan></text><text x="147.15704" y="132.80386" fill="#000000" font-family="Cantarell" font-weight="bold" letter-spacing="0px" text-align="center" text-anchor="middle" word-spacing="0px" style="line-height:0%" xml:space="preserve"><tspan x="147.15704" y="132.80386" font-size="4.0141px" style="line-height:1.25">Overload</tspan></text><text x="147.15704" y="150.80386" fill="#000000" font-family="Cantarell" font-weight="bold" letter-spacing="0px" text-align="center" text-anchor="middle" word-spacing="0px" style="line-height:0%" xml:space="preserve"><tspan x="147.15704" y="150.80386" font-size="4.0141px" style="line-height:1.25">Replace Battery</tspan></text><g><path transform="matrix(1.0786 0 0 -1 -13.715 20)" d="m140-89.721c-2.0488 0-3.7207 1.6719-3.7207 3.7207s1.6719 3.7207 3.7207 3.7207h18c2.0488 0 3.7207-1.6719 3.7207-3.7207s-1.6719-3.7207-3.7207-3.7207z" color="#000000" enable-background="accumulate" fill="url(#b)"/><rect x="135" y="103" width="24" height="4.3125" rx="2.1562" ry="2.1562" color="#000000" enable-background="accumulate" fill="url(#e)"/><rect transform="matrix(.93491 0 0 1 7.6816 20)" x="138.75" y="84" width="20" height="1.25" rx=".625" ry=".625" color="#000000" enable-background="accumulate" fill="#fff" filter="url(#d)" opacity=".35802"/><path d="m157.11 103.56-0.83969 0.97227c1.6162-0.2158 1.7373 0.64446 2.2539 1.1932-0.072-1.1247-0.6368-1.746-1.4142-2.1655z" fill="#fff" filter="url(#c)"/></g><g><path transform="matrix(1.0786 0 0 -1 -13.715 0)" d="m140-89.721c-2.0488 0-3.7207 1.6719-3.7207 3.7207s1.6719 3.7207 3.7207 3.7207h18c2.0488 0 3.7207-1.6719 3.7207-3.7207s-1.6719-3.7207-3.7207-3.7207z" color="#000000" enable-background="accumulate" fill="url(#b)"/><rect x="135" y="83" width="24" height="4.3125" rx="2.1562" ry="2.1562" color="#000000" enable-background="accumulate" fill="url(#u)"/><rect transform="matrix(.93491 0 0 1 7.6816 0)" x="138.75" y="84" width="20" height="1.25" rx=".625" ry=".625" color="#000000" enable-background="accumulate" fill="#98ffbb" filter="url(#d)"/><path d="m157.11 83.36-0.83969 0.97227c1.6162-0.2158 1.7373 0.64446 2.2539 1.1932-0.072-1.1247-0.6368-1.746-1.4142-2.1655z" fill="#fff" filter="url(#c)"/></g><g transform="translate(0,18)"><path transform="matrix(1.0786 0 0 -1 -13.715 20)" d="m140-89.721c-2.0488 0-3.7207 1.6719-3.7207 3.7207s1.6719 3.7207 3.7207 3.7207h18c2.0488 0 3.7207-1.6719 3.7207-3.7207s-1.6719-3.7207-3.7207-3.7207z" color="#000000" enable-background="accumulate" fill="url(#b)"/><rect x="135" y="103" width="24" height="4.3125" rx="2.1562" ry="2.1562" color="#000000" enable-background="accumulate" fill="url(#e)"/><rect transform="matrix(.93491 0 0 1 7.6816 20)" x="138.75" y="84" width="20" height="1.25" rx=".625" ry=".625" color="#000000" enable-background="accumulate" fill="#fff" filter="url(#d)" opacity=".46502"/><path d="m157.11 103.56-0.83969 0.97227c1.6162-0.2158 1.7373 0.64446 2.2539 1.1932-0.072-1.1247-0.6368-1.746-1.4142-2.1655z" fill="#fff" filter="url(#c)"/></g><g transform="translate(0,36)"><path transform="matrix(1.0786 0 0 -1 -13.715 20)" d="m140-89.721c-2.0488 0-3.7207 1.6719-3.7207 3.7207s1.6719 3.7207 3.7207 3.7207h18c2.0488 0 3.7207-1.6719 3.7207-3.7207s-1.6719-3.7207-3.7207-3.7207z" color="#000000" enable-background="accumulate" fill="url(#b)"/><rect x="135" y="103" width="24" height="4.3125" rx="2.1562" ry="2.1562" color="#000000" enable-background="accumulate" fill="url(#e)"/><rect transform="matrix(.93491 0 0 1 7.6816 20)" x="138.75" y="84" width="20" height="1.25" rx=".625" ry=".625" color="#000000" enable-background="accumulate" fill="#fff" filter="url(#d)" opacity=".47737"/><path d="m157.11 103.56-0.83969 0.97227c1.6162-0.2158 1.7373 0.64446 2.2539 1.1932-0.072-1.1247-0.6368-1.746-1.4142-2.1655z" fill="#fff" filter="url(#c)"/></g><path transform="translate(-1,3)" d="m155.88 228.78c-0.97858 0-1.8143 0.25897-2.4219 0.70312-0.60758 0.44415-0.98632 1.0913-0.98632 1.7988 0 0.67181 0.32168 1.1948 0.7539 1.5312 0.43223 0.33647 0.95819 0.52533 1.457 0.68359 0.49885 0.15826 0.97865 0.2875 1.2871 0.4336 0.15424 0.073 0.25988 0.14938 0.3125 0.20898 0.0526 0.0596 0.0662 0.0891 0.0645 0.16602a0.37778 0.37778 0 0 0 0 8e-3c0 0.0947-0.0404 0.17369-0.23828 0.2793-0.19794 0.1056-0.53508 0.1875-0.94727 0.1875-0.32017 0-0.88554-0.0917-1.7715-0.41602h-4e-3l-0.15039-0.0762a0.37778 0.37778 0 0 0-0.52344 0.21094l-0.4375 1.2188a0.37778 0.37778 0 0 0 0.23633 0.48437l0.1875 0.0625c0.68495 0.26535 1.4148 0.51953 2.3691 0.51953 2.3056 0 3.3747-1.3543 3.377-2.5293v-2e-3c5e-3 -0.67452-0.30733-1.2059-0.73437-1.5547-0.42748-0.34918-0.95272-0.55258-1.4531-0.71875-0.50041-0.16618-0.98302-0.29699-1.3008-0.43946-0.15888-0.0712-0.27374-0.14598-0.32812-0.20117-0.0544-0.0552-0.0586-0.0689-0.0586-0.11914 0-0.0719 0.0503-0.1646 0.26953-0.27539 0.21927-0.11079 0.56891-0.19141 0.94727-0.19141 0.27863 0 0.766 0.0429 1.4238 0.23633l-0.0117-6e-3 0.1875 0.0625a0.37778 0.37778 0 0 0 0.47461-0.23242l0.40625-1.1562a0.37778 0.37778 0 0 0-0.23633-0.48242l-0.1875-0.0625a0.37778 0.37778 0 0 0-8e-3 -4e-3c-0.41155-0.12663-1.1473-0.32812-1.9551-0.32812zm-17.281 0.0625a0.37778 0.37778 0 0 0-0.37695 0.37695v4.6562c0 0.40089 4e-3 1.1296 0.45117 1.7754 0.44706 0.64585 1.3294 1.1328 2.832 1.1328 1.4666 0 2.344-0.50823 2.7891-1.1738 0.44509-0.6656 0.46289-1.4162 0.46289-1.8594v-4.5312a0.37778 0.37778 0 0 0-0.37695-0.37695h-1.25a0.37778 0.37778 0 0 0-0.37695 0.37695v4.5c0 0.20017-0.0126 0.36182-0.0488 0.49219a0.37778 0.37778 0 0 0-4e-3 0.01c-0.0532 0.21263-0.15865 0.35191-0.34961 0.46485s-0.47751 0.1875-0.8457 0.1875c-0.7202 0-1.0316-0.27867-1.0664-0.31641a0.37778 0.37778 0 0 0-2e-3 -2e-3c-0.19213-0.20585-0.21094-0.42445-0.21094-0.83594v-4.5a0.37778 0.37778 0 0 0-0.37695-0.37695zm7.6562 0a0.37778 0.37778 0 0 0-0.37695 0.37695v7.0938a0.37778 0.37778 0 0 0 0.37695 0.37695h1.25a0.37778 0.37778 0 0 0 0.37695-0.37695v-2.373c0.049-9.8e-4 0.104 0 0.1543 0 0.77974 0 1.6782-0.0366 2.4394-0.40234 0.76123-0.36571 1.3438-1.1341 1.3438-2.3184 0-1.0951-0.60394-1.7771-1.2891-2.0762-0.68511-0.29905-1.4346-0.30078-1.9004-0.30078zm1.627 1.9102h0.5293c0.43969 0 0.83831 0.0444 1.0664 0.14453 0.2281 0.10017 0.30664 0.16709 0.30664 0.47852 0 0.18239-0.0391 0.28114-0.0937 0.35547-0.0546 0.0743-0.13972 0.13594-0.2793 0.18945-0.27917 0.10702-0.75673 0.14063-1.2812 0.14063-0.0774 0-0.16644-9e-3 -0.24805-0.0137z" fill="#c00"/><text x="133.59186" y="211.30855" fill="#000000" font-family="Cantarell" letter-spacing="0px" word-spacing="0px" style="line-height:0%" xml:space="preserve"><tspan x="133.59186" y="211.30855" font-family="Cantarell" font-size="9.1445px" letter-spacing="4.2674" style="line-height:125%">500</tspan></text><rect x="174" y="72" width="1" height="196" rx="0" ry="0" enable-background="new" fill="url(#g)" fill-rule="evenodd"/><circle cx="148" cy="172" r="12" color="#000000" enable-background="accumulate" fill="url(#p)"/><circle transform="matrix(.6875 0 0 .6875 46.25 53.75)" cx="148" cy="172" r="12" color="#000000" enable-background="accumulate" fill="#555753"/><circle transform="matrix(.60417 0 0 .60417 58.583 68.083)" cx="148" cy="172" r="12" color="#000000" enable-background="accumulate" fill="url(#f)"/><path d="m148 164.75c-4.0041 0-7.25 3.2459-7.25 7.25 0 0.38066 0.0372 0.76018 0.0937 1.125 0.5382-3.4726 3.5329-6.125 7.1563-6.125s6.6181 2.6524 7.1562 6.125c0.0565-0.36482 0.0937-0.74434 0.0937-1.125 0-4.0041-3.2459-7.25-7.25-7.25z" color="#000000" enable-background="accumulate" fill="#555753" opacity=".19753"/><g transform="matrix(.5625 0 0 .5625 120.97 -218.9)" fill="none" stroke="#eeeeec" stroke-linecap="round"><path transform="matrix(.85694 0 0 .85714 6.8667 99.429)" d="m52.95 691.05a7 7 0 0 1 1.4896 7.6946 7 7 0 0 1-6.5828 4.2536 7 7 0 0 1-6.403-4.5197 7 7 0 0 1 1.8035-7.6272" color="#000000" enable-background="accumulate" stroke-width="2.3336"/><path d="m48 689v5" stroke-width="2"/></g><g transform="matrix(.5625 0 0 .5625 120.97 -219.38)" fill="none"><rect x="40" y="688" width="16" height="16" rx=".14409" ry=".15129" color="#bebebe" enable-background="new"/><path transform="matrix(.85694 0 0 .85714 6.8667 99.429)" d="m52.95 691.05a7 7 0 0 1 1.4896 7.6946 7 7 0 0 1-6.5828 4.2536 7 7 0 0 1-6.403-4.5197 7 7 0 0 1 1.8035-7.6272" color="#000000" enable-background="accumulate" stroke="#555753" stroke-linecap="round" stroke-width="2.3336"/><path d="m48 689v5" stroke="#555753" stroke-linecap="round" stroke-width="2"/></g></g></g></g></svg>
