<?xml version="1.0" encoding="UTF-8"?>
<svg enable-background="new" version="1.0" viewBox="0 0 256 256" xmlns="http://www.w3.org/2000/svg" xmlns:xlink="http://www.w3.org/1999/xlink"><defs><filter id="ai" x="-.1638" y="-1.3576" width="1.3276" height="3.7152" color-interpolation-filters="sRGB"><feGaussianBlur stdDeviation="6.5052645"/></filter><filter id="aj" x="-.045228" y="-.37485" width="1.0905" height="1.7497" color-interpolation-filters="sRGB"><feGaussianBlur stdDeviation="1.7961743"/></filter><filter id="am" color-interpolation-filters="sRGB"><feGaussianBlur stdDeviation="0.37"/></filter><linearGradient id="c"><stop offset="0"/><stop stop-opacity=".47895" offset="1"/></linearGradient><clipPath id="ao"><path d="m119 314 1 20.558c0.65135 13.39-8 16.93-18 21.767-1.0288 0.49763-2 1.0787-2 2.4186v3.6279c0 3.6279 8 3.6279 15 3.6279h66c7 0 15 0 15-3.6279v-3.6279c0-1.3399-0.97125-1.921-2-2.4186-10-4.8372-18.651-8.3769-18-21.767l1-20.558z" enable-background="new" fill-rule="evenodd"/></clipPath><filter id="ak" color-interpolation-filters="sRGB"><feGaussianBlur stdDeviation="0.745"/></filter><linearGradient id="a"><stop stop-color="#fff" offset="0"/><stop stop-color="#fff" stop-opacity="0" offset="1"/></linearGradient><clipPath id="aq"><rect x="44" y="362" width="208" height="124" enable-background="new" fill-rule="evenodd"/></clipPath><filter id="al" color-interpolation-filters="sRGB"><feGaussianBlur stdDeviation="1.6762502"/></filter><clipPath id="ap"><rect x="36" y="-270" width="224" height="148" rx="2.125" ry="2.125" enable-background="new" fill-rule="evenodd"/></clipPath><filter id="ah" color-interpolation-filters="sRGB"><feGaussianBlur stdDeviation="0.92999989"/></filter><linearGradient id="b"><stop stop-color="#888a85" offset="0"/><stop stop-color="#fff" offset=".031264"/><stop stop-color="#d3d7cf" offset=".19533"/><stop stop-color="#babdb6" offset=".82031"/><stop stop-color="#fff" offset=".95833"/><stop stop-color="#888a85" offset="1"/></linearGradient><filter id="d" x="-.864" y="-.006042" width="2.728" height="1.0121" color-interpolation-filters="sRGB"><feGaussianBlur stdDeviation="0.36"/></filter><clipPath id="ar"><path d="m240 211c-1.6616 0-3 1.3384-3 3v4h10v-4c0-1.6616-1.3384-3-3-3z" enable-background="new"/></clipPath><filter id="an" color-interpolation-filters="sRGB"><feGaussianBlur stdDeviation="0.2548"/></filter><filter id="ag" x="-.1076" y="-1.6069" width="1.2152" height="4.2137"><feGaussianBlur stdDeviation="10.042965"/></filter><linearGradient id="af" x1="141.5" x2="141.5" y1="250.75" y2="201.4" gradientTransform="translate(0,2)" gradientUnits="userSpaceOnUse"><stop stop-color="#d3d7cf" offset="0"/><stop stop-color="#979894" offset=".11059"/><stop stop-color="#d3d7cf" offset=".21475"/><stop stop-color="#fff" offset=".35913"/><stop stop-color="#555753" offset="1"/></linearGradient><radialGradient id="s" cx="111.15" cy="242.44" r="48" gradientTransform="matrix(2.4969 2.147e-7 0 .69156 -172.03 81.838)" gradientUnits="userSpaceOnUse"><stop stop-color="#fff" offset="0"/><stop stop-color="#fff" stop-opacity="0" offset="1"/></radialGradient><linearGradient id="ae" x1="142.25" x2="142.25" y1="203.96" y2="224.5" gradientTransform="translate(0,2)" gradientUnits="userSpaceOnUse"><stop offset="0"/><stop stop-opacity=".31507" offset=".59851"/><stop stop-opacity="0" offset="1"/></linearGradient><linearGradient id="ad" x1="176.42" x2="176.42" y1="357.42" y2="373.22" gradientUnits="userSpaceOnUse" xlink:href="#c"/><radialGradient id="r" cx="160.53" cy="145.73" r="112" gradientTransform="matrix(1.6172 -.5392 1.2857 3.9546 -266.96 -316.17)" gradientUnits="userSpaceOnUse"><stop stop-color="#fff" offset="0"/><stop stop-color="#959595" offset="1"/></radialGradient><linearGradient id="ac" x1="44" x2="125.5" y1="71.25" y2="207.5" gradientUnits="userSpaceOnUse"><stop offset="0"/><stop stop-opacity="0" offset="1"/></linearGradient><linearGradient id="ab" x1="77.5" x2="70.5" y1="-121.5" y2="-453.5" gradientUnits="userSpaceOnUse" xlink:href="#c"/><radialGradient id="q" cx="131.58" cy="71.691" r="111.81" gradientTransform="matrix(2.5458 1.0381 -.60658 1.5009 -170.84 -182.76)" gradientUnits="userSpaceOnUse"><stop stop-color="#fff" offset="0"/><stop stop-color="#fff" stop-opacity="0" offset="1"/></radialGradient><radialGradient id="p" cx="158.95" cy="-282.64" r="105" gradientTransform="matrix(1.8205 -1.8205 .4646 .4646 -42.803 223.08)" gradientUnits="userSpaceOnUse" xlink:href="#a"/><radialGradient id="o" cx="-253.64" cy="134.03" r=".49998" gradientTransform="matrix(92.4 -92.4 282.89 282.89 -14732 -61203)" gradientUnits="userSpaceOnUse"><stop stop-color="#fff" offset="0"/><stop stop-color="#fff" stop-opacity="0" offset="1"/></radialGradient><linearGradient id="aa" x1="99.999" x2="196" y1="251.5" y2="251.5" gradientTransform="translate(0,2)" gradientUnits="userSpaceOnUse" xlink:href="#b"/><linearGradient id="z" x1="99.999" x2="196" y1="251.5" y2="251.5" gradientTransform="matrix(1 0 0 .62353 0 95.376)" gradientUnits="userSpaceOnUse" xlink:href="#b"/><radialGradient id="n" cx="130.45" cy="244.43" r="48" gradientTransform="matrix(3.0284 .89944 -.17992 .6058 -215.38 -17.893)" gradientUnits="userSpaceOnUse"><stop stop-color="#fff" offset="0"/><stop stop-color="#fff" stop-opacity="0" offset="1"/></radialGradient><radialGradient id="m" cx="103.88" cy="250" r="1.5" gradientUnits="userSpaceOnUse"><stop stop-color="#fff" offset="0"/><stop stop-color="#fff" offset=".52789"/><stop stop-color="#fff" stop-opacity="0" offset="1"/></radialGradient><radialGradient id="l" cx="36.778" cy="134.52" r="1" gradientTransform="matrix(24.674 184.17 -78.655 42.151 9708.6 -12332)" gradientUnits="userSpaceOnUse" xlink:href="#a"/><radialGradient id="k" cx="36.807" cy="134.6" r="1" gradientTransform="matrix(24.674 184.17 -78.655 42.151 9927.6 -12332)" gradientUnits="userSpaceOnUse" xlink:href="#a"/><radialGradient id="j" cx="103.88" cy="250" r="1.5" gradientUnits="userSpaceOnUse"><stop stop-color="#fff" offset="0"/><stop stop-color="#fff" offset=".59524"/><stop stop-color="#fff" stop-opacity="0" offset="1"/></radialGradient><linearGradient id="y" x1="148" x2="148" y1="284.6" y2="224.4" gradientUnits="userSpaceOnUse"><stop stop-opacity="0" offset="0"/><stop offset=".5"/><stop stop-opacity="0" offset="1"/></linearGradient><radialGradient id="i" cx="176.82" cy="-212.64" r="105" gradientTransform="matrix(1.9032 -1.8205 .48572 .4646 -51.477 215.19)" gradientUnits="userSpaceOnUse" xlink:href="#a"/><linearGradient id="x" x1="241.39" x2="242" y1="204" y2="206.97" gradientUnits="userSpaceOnUse"><stop offset="0"/><stop stop-opacity="0" offset="1"/></linearGradient><linearGradient id="w" x1="242.01" x2="242.01" y1="206.02" y2="207.75" gradientUnits="userSpaceOnUse"><stop stop-color="#888a85" offset="0"/><stop stop-color="#2e3436" offset=".56766"/><stop stop-color="#555753" offset="1"/></linearGradient><radialGradient id="h" cx="238.94" cy="200.75" r="5" gradientTransform="matrix(1.6127 0 0 .95 -146.4 11.162)" gradientUnits="userSpaceOnUse"><stop stop-color="#fff" offset="0"/><stop stop-color="#fff" stop-opacity="0" offset="1"/></radialGradient><linearGradient id="v" x1="241.48" x2="241.48" y1="205" y2="207" gradientUnits="userSpaceOnUse"><stop stop-color="#888a85" offset="0"/><stop stop-color="#888a85" stop-opacity="0" offset="1"/></linearGradient><linearGradient id="u" x1="236.6" x2="237.52" y1="212.53" y2="220.51" gradientUnits="userSpaceOnUse"><stop offset="0"/><stop stop-opacity="0" offset="1"/></linearGradient><radialGradient id="g" cx="23.219" cy="-11.043" r="19" gradientTransform="matrix(9.0709 .078068 -.052631 6.1154 -69.202 -41.969)" gradientUnits="userSpaceOnUse"><stop stop-color="#5789ca" offset="0"/><stop stop-color="#023c88" offset="1"/></radialGradient><linearGradient id="t" x1="88" x2="178" y1="44.5" y2="202.5" gradientUnits="userSpaceOnUse"><stop stop-color="#fff" offset="0"/><stop stop-color="#fff" stop-opacity="0" offset="1"/></linearGradient><radialGradient id="f" cx="326.02" cy="58" r="12.5" gradientTransform="matrix(-10.48 4.6048e-6 -3.2812e-6 -7.4674 3556.5 507.11)" gradientUnits="userSpaceOnUse" xlink:href="#a"/><radialGradient id="e" cx="326.02" cy="58" r="12.5" gradientTransform="matrix(-10.48 4.6048e-6 -3.2812e-6 -7.4674 3513.5 507.11)" gradientUnits="userSpaceOnUse" xlink:href="#a"/></defs><g transform="translate(-20,272)"><g><g transform="translate(0 -300.1)" enable-background="new"><path transform="matrix(1.0577 0 0 1.1304 -8.5403 -31.522)" d="m115.16 245.5c-3.3412 3.2448-8.0762 5.3552-13.156 7.8125-0.65659 0.31761-1.2841 0.68883-1.6562 1.25 1.627 2.4304 8.5312 2.4375 14.656 2.4375h66c6.125 0 13.029-7e-3 14.656-2.4375-0.37218-0.56117-0.99967-0.93239-1.6562-1.25-5.0801-2.4573-9.8151-4.5677-13.156-7.8125z" enable-background="new" fill-rule="evenodd" filter="url(#ai)" opacity=".3"/><path transform="matrix(1.0577 0 0 1.1304 -8.5403 -31.522)" d="m115.16 245.5c-3.3412 3.2448-8.0762 5.3552-13.156 7.8125-0.65659 0.31761-1.2841 0.68883-1.6562 1.25 1.627 2.4304 8.5312 2.4375 14.656 2.4375h66c6.125 0 13.029-7e-3 14.656-2.4375-0.37218-0.56117-0.99967-0.93239-1.6562-1.25-5.0801-2.4573-9.8151-4.5677-13.156-7.8125z" enable-background="new" fill-rule="evenodd" filter="url(#aj)"/><path d="m119 206 1 20.558c0.65135 13.39-8 16.93-18 21.767-1.0288 0.49763-2 1.0787-2 2.4186v3.6279c0 3.6279 8 3.6279 15 3.6279h66c7 0 15 0 15-3.6279v-3.6279c0-1.3399-0.97125-1.921-2-2.4186-10-4.8372-18.651-8.3769-18-21.767l1-20.558z" enable-background="new" fill="url(#af)" fill-rule="evenodd"/><path transform="translate(0,2)" d="m119.48 204.46 0.97656 20.08c0.33058 6.7961-1.7368 11.202-5.1504 14.439-3.4136 3.237-8.1168 5.3311-13.109 7.7461-0.5002 0.24196-0.95339 0.49935-1.2578 0.81055s-0.48242 0.65432-0.48242 1.2129v3.625c0 0.73754 0.36065 1.243 1.1328 1.7012 0.77216 0.45816 1.9465 0.79404 3.3535 1.0156 2.8141 0.44316 6.5527 0.44726 10.053 0.44726h66c3.5001 0 7.2387-4e-3 10.053-0.44726 1.407-0.22159 2.5814-0.55747 3.3535-1.0156 0.77216-0.45815 1.1328-0.96363 1.1328-1.7012v-3.625c0-0.55857-0.178-0.90169-0.48242-1.2129s-0.75762-0.56859-1.2578-0.81055c-4.9926-2.415-9.6958-4.5091-13.109-7.7461-3.4136-3.237-5.481-7.6433-5.1504-14.439l0.97656-20.08-176.52-204.46z" enable-background="new" fill="url(#s)" fill-rule="evenodd" filter="url(#am)" opacity=".507"/><path d="m119 206 1 20.5h56l1-20.5z" enable-background="new" fill="url(#ae)" fill-rule="evenodd" opacity=".35"/><path transform="translate(0,-108)" d="m119 314 1 20.558c0.65135 13.39-8 16.93-18 21.767-1.0288 0.49763-2 1.0787-2 2.4186v3.6279c0 3.6279 8 3.6279 15 3.6279h66c7 0 15 0 15-3.6279v-3.6279c0-1.3399-0.97125-1.921-2-2.4186-10-4.8372-18.651-8.3769-18-21.767l1-20.558z" clip-path="url(#ao)" enable-background="new" fill="none" filter="url(#ak)" stroke="url(#ad)" stroke-dashoffset=".7" stroke-linecap="round" stroke-linejoin="round"/><rect x="36" y="58.121" width="224" height="149.88" rx="2.125" ry="2.152" enable-background="new" fill="url(#r)" fill-rule="evenodd"/><rect x="43" y="71" width="210" height="126" enable-background="new" fill="url(#ac)" fill-rule="evenodd" opacity=".3"/><path transform="matrix(1 0 0 1.0128 0 331.58)" d="m38.125-270h219.75c1.1772 0 2.125 0.94775 2.125 2.125v143.75c0 1.1772-0.94775 2.125-2.125 2.125h-219.75c-1.1772 0-2.125-0.94775-2.125-2.125v-143.75c0-1.1772 0.94775-2.125 2.125-2.125z" clip-path="url(#ap)" enable-background="new" fill="none" filter="url(#ah)" opacity=".7" stroke="url(#ab)" stroke-width="1.9873"/><path d="m37.108 60.781c-0.15331 0.16441-0.30919 0.32395-0.40443 0.53125 0.25059 0.46766 0.73275 0.78125 1.3066 0.78125h220.01c0.57388 0 1.056-0.31359 1.3066-0.78125-0.0952-0.2073-0.25112-0.36684-0.40443-0.53125-0.2479 0.19308-0.55526 0.3125-0.9022 0.3125h-220.01c-0.34694 0-0.6543-0.11942-0.9022-0.3125z" enable-background="new" fill="url(#q)" fill-rule="evenodd"/><rect transform="scale(1,-1)" x="43" y="-198.11" width="210" height="1" enable-background="new" fill="url(#p)" fill-rule="evenodd"/><rect transform="scale(-1,1)" x="-254" y="71" width=".99995" height="126" enable-background="new" fill="url(#o)" fill-rule="evenodd"/><path d="m100.09 250.03c-0.07084 0.21323-0.09375 0.44986-0.09375 0.71875v3.625c-3e-6 3.6279 8 3.625 15 3.625h66c7 0 15 3e-3 15-3.625v-3.625c0-0.26889-0.0229-0.50552-0.0937-0.71875-0.94203 2.9616-8.3641 2.9688-14.906 2.9688h-66c-6.5422 0-13.964-7e-3 -14.906-2.9688z" enable-background="new" fill="url(#aa)" fill-rule="evenodd"/><path d="m100.09 250.03c-0.0708 0.13296-0.0937 0.2805-0.0937 0.44816v2.2603c0 2.2621 8 2.2603 15 2.2603h66c7 0 15 2e-3 15-2.2603v-2.2603c0-0.16766-0.0229-0.3152-0.0937-0.44816-0.94198 1.8467-8.364 1.8511-14.906 1.8511h-66c-6.5422 0-13.964-4e-3 -14.906-1.8511z" enable-background="new" fill="url(#z)" fill-rule="evenodd"/><path d="m100.09 250.03c0.94198 2.9616 8.364 2.9688 14.906 2.9688h66c6.5422 0 13.964-7e-3 14.906-2.9688-0.94198 1.8467-8.364 1.8438-14.906 1.8438h-66c-6.5422 0-13.964 3e-3 -14.906-1.8438zm0 0c-0.0553 0.10371-0.0537 0.21967-0.0625 0.34375 0.0146-0.11942 0.0271-0.23713 0.0625-0.34375zm-0.0625 0.34375c-2e-3 0.035-0.0313 0.0569-0.0313 0.0937v0.28125c0-0.13445 0.0167-0.25558 0.0313-0.375zm95.875-0.34375c0.0354 0.10662 0.0479 0.22433 0.0625 0.34375-9e-3 -0.12407-7e-3 -0.24004-0.0625-0.34375zm0.0625 0.34375c0.0146 0.11942 0.0313 0.24055 0.0313 0.375v-0.28125c0-0.0369-0.0288-0.0588-0.0313-0.0937z" enable-background="new" fill="url(#n)" fill-rule="evenodd" opacity=".75"/><path d="m100 253.84v0.53125c-3e-6 3.6279 8 3.625 15 3.625h66c7 0 15 3e-3 15-3.625v-0.53125c0 3.1726-8 3.1562-15 3.1562h-66c-7 0-15 0.0164-15-3.1562z" enable-background="new" fill-rule="evenodd" opacity=".19178"/><circle transform="matrix(1.75 0 0 1.75 -77.906 -185.5)" cx="103.88" cy="250" r="1.5" enable-background="new" fill="url(#m)"/><rect transform="matrix(1 0 0 1.0074 0 -.99761)" x="38" y="63" width="1" height="143" rx=".5" ry="1" enable-background="new" fill="url(#l)" filter="url(#d)"/><rect transform="matrix(1 0 0 -1.0074 1 270)" x="257" y="63" width="1" height="143" rx=".5" ry="1" enable-background="new" fill="url(#k)" filter="url(#d)" opacity=".38356"/><circle transform="matrix(1.0429 0 0 1.0429 83.428 -8.9001)" cx="103.88" cy="250" r="1.5" enable-background="new" fill="url(#j)"/><rect transform="matrix(.93622 0 0 .70422 9.4392 83.777)" x="36" y="247" width="224" height="15" rx="0" ry="0" enable-background="new" fill="url(#y)" fill-rule="evenodd" filter="url(#ag)" opacity=".081618"/><rect transform="scale(1,-1)" x="38.227" y="-206" width="219.55" height="1" enable-background="new" fill="url(#i)" fill-rule="evenodd" opacity=".3653"/><path d="m240 200c-2.1996 0-4 1.8004-4 4v4h12v-4c0-2.1996-1.8004-4-4-4z" enable-background="new" fill="url(#x)" opacity=".18265"/><path d="m240 201c-1.6616 0-3 1.3384-3 3v4h10v-4c0-1.6616-1.3384-3-3-3z" enable-background="new" fill="url(#w)"/><path d="m240 201c-1.6616 0-3 1.3384-3 3v4h10v-4c0-1.6616-1.3384-3-3-3z" enable-background="new" fill="url(#h)" opacity=".55708"/><path transform="matrix(1 0 0 .75 0 51.75)" d="m240 203c-0.58774 0-1 0.41226-1 1v3h6v-3c0-0.58774-0.41226-1-1-1z" enable-background="new" fill="url(#v)"/><path transform="translate(0,-10)" d="m240 211.32c-1.6616 0-3 1.3384-3 3v6.6768h10v-6.6768c0-1.6616-1.3384-3-3-3z" clip-path="url(#ar)" enable-background="new" fill="none" filter="url(#an)" opacity=".65" stroke="url(#u)" stroke-linecap="round" stroke-width=".8"/></g><rect x="44" y="-228" width="208" height="124" color="#000000" enable-background="new" fill="url(#g)" fill-rule="evenodd"/><g transform="translate(230 -300)" enable-background="new"><rect transform="translate(-230,-290)" x="44" y="362" width="208.75" height="125" clip-path="url(#aq)" enable-background="new" fill="none" filter="url(#al)" opacity=".6" stroke="#000"/><g transform="translate(-230)"><rect x="44" y="72" width="208" height="124" enable-background="new" fill="url(#t)" fill-rule="evenodd" opacity=".19178"/><path d="m200.55 74h50.455v122h-111z" enable-background="new" fill="url(#f)" opacity=".24498"/><path d="m139.55 74h34.455l-32 89-17-1z" enable-background="new" fill="url(#e)" opacity=".24498"/></g></g></g></g></svg>
