<?xml version="1.0" encoding="UTF-8" standalone="no"?>
<svg
   xmlns:dc="http://purl.org/dc/elements/1.1/"
   xmlns:cc="http://creativecommons.org/ns#"
   xmlns:rdf="http://www.w3.org/1999/02/22-rdf-syntax-ns#"
   xmlns:svg="http://www.w3.org/2000/svg"
   xmlns="http://www.w3.org/2000/svg"
   xmlns:xlink="http://www.w3.org/1999/xlink"
   style="display:inline;enable-background:new"
   version="1.0"
   id="svg11300"
   height="256"
   width="256">
  <title
     id="title10372">Available Software Updates</title>
  <defs
     id="defs3">
    <linearGradient
       id="linearGradient11275">
      <stop
         id="stop11277"
         offset="0"
         style="stop-color:#73d216;stop-opacity:1;" />
      <stop
         id="stop11279"
         offset="1"
         style="stop-color:#73d216;stop-opacity:0;" />
    </linearGradient>
    <linearGradient
       id="linearGradient11225">
      <stop
         id="stop11227"
         offset="0"
         style="stop-color:#ffffff;stop-opacity:1;" />
      <stop
         id="stop11229"
         offset="1"
         style="stop-color:#ffffff;stop-opacity:0;" />
    </linearGradient>
    <linearGradient
       id="linearGradient3511">
      <stop
         id="stop3513"
         offset="0"
         style="stop-color:#274d03;stop-opacity:1;" />
      <stop
         id="stop3515"
         offset="1"
         style="stop-color:#274d03;stop-opacity:0;" />
    </linearGradient>
    <linearGradient
       id="linearGradient3499">
      <stop
         id="stop3501"
         offset="0"
         style="stop-color:#ffffff;stop-opacity:1;" />
      <stop
         id="stop3503"
         offset="1"
         style="stop-color:#ffffff;stop-opacity:0;" />
    </linearGradient>
    <linearGradient
       id="linearGradient3476">
      <stop
         id="stop3478"
         offset="0"
         style="stop-color:#ffffff;stop-opacity:1;" />
      <stop
         id="stop3480"
         offset="1"
         style="stop-color:#ffffff;stop-opacity:0;" />
    </linearGradient>
    <linearGradient
       id="linearGradient3448">
      <stop
         id="stop3450"
         offset="0"
         style="stop-color:#ffffff;stop-opacity:1;" />
      <stop
         id="stop3452"
         offset="1"
         style="stop-color:#ffffff;stop-opacity:0;" />
    </linearGradient>
    <linearGradient
       id="linearGradient3435">
      <stop
         id="stop3437"
         offset="0"
         style="stop-color:#68bf14;stop-opacity:1" />
      <stop
         id="stop3439"
         offset="1"
         style="stop-color:#4e9a06;stop-opacity:1" />
    </linearGradient>
    <linearGradient
       id="linearGradient3285">
      <stop
         id="stop3287"
         offset="0"
         style="stop-color:#ffffff;stop-opacity:1;" />
      <stop
         id="stop3289"
         offset="1"
         style="stop-color:#ffffff;stop-opacity:0;" />
    </linearGradient>
    <linearGradient
       id="linearGradient3275">
      <stop
         id="stop3277"
         offset="0"
         style="stop-color:#73d216;stop-opacity:1" />
      <stop
         id="stop3279"
         offset="1"
         style="stop-color:#4e9a06;stop-opacity:1" />
    </linearGradient>
    <linearGradient
       id="linearGradient3371">
      <stop
         id="stop3373"
         offset="0"
         style="stop-color:#73d216;stop-opacity:1" />
      <stop
         id="stop3375"
         offset="1"
         style="stop-color:#4e9a06;stop-opacity:1" />
    </linearGradient>
    <linearGradient
       id="linearGradient3239">
      <stop
         id="stop3241"
         offset="0"
         style="stop-color:#ffffff;stop-opacity:1;" />
      <stop
         id="stop3243"
         offset="1"
         style="stop-color:#ffffff;stop-opacity:0;" />
    </linearGradient>
    <linearGradient
       gradientTransform="matrix(1.000063,0,0,1,-0.0196201,0)"
       gradientUnits="userSpaceOnUse"
       y2="236.13058"
       x2="308.85614"
       y1="220.5"
       x1="307"
       id="linearGradient3245"
       xlink:href="#linearGradient3239" />
    <radialGradient
       gradientUnits="userSpaceOnUse"
       gradientTransform="matrix(1.7142858,0,0,1.0666667,-223.00004,-15.133349)"
       r="7.4999995"
       fy="233.8569"
       fx="311.5"
       cy="233.8569"
       cx="311.5"
       id="radialGradient3377"
       xlink:href="#linearGradient3371" />
    <radialGradient
       r="7.4999995"
       fy="233.27399"
       fx="311.5"
       cy="233.27399"
       cx="311.5"
       gradientTransform="matrix(1.9666668,0,0,1.4933334,-298.61674,-151.98671)"
       gradientUnits="userSpaceOnUse"
       id="radialGradient3392"
       xlink:href="#linearGradient3371" />
    <linearGradient
       y2="236.13058"
       x2="308.85614"
       y1="220.5"
       x1="307"
       gradientTransform="matrix(1.4616305,0,0,1.4556199,-140.56714,-143.4642)"
       gradientUnits="userSpaceOnUse"
       id="linearGradient3455"
       xlink:href="#linearGradient3239" />
    <filter
       height="3.52"
       y="-1.26"
       width="1.126"
       x="-0.063000001"
       id="filter3471">
      <feGaussianBlur
         id="feGaussianBlur3473"
         stdDeviation="0.525" />
    </filter>
    <radialGradient
       gradientTransform="matrix(1.1905357,0,0,1,-60.971428,0)"
       gradientUnits="userSpaceOnUse"
       r="21"
       fy="90.561554"
       fx="320"
       cy="90.561554"
       cx="320"
       id="radialGradient3281"
       xlink:href="#linearGradient3275" />
    <linearGradient
       gradientUnits="userSpaceOnUse"
       y2="115.53844"
       x2="320"
       y1="52"
       x1="320"
       id="linearGradient3291"
       xlink:href="#linearGradient3285" />
    <filter
       height="2.3199999"
       y="-0.66000003"
       width="1.0628572"
       x="-0.031428572"
       id="filter3295">
      <feGaussianBlur
         id="feGaussianBlur3297"
         stdDeviation="0.55" />
    </filter>
    <filter
       height="3.4918218"
       y="-1.2459109"
       width="1.1186582"
       x="-0.059329093"
       id="filter3301">
      <feGaussianBlur
         id="feGaussianBlur3303"
         stdDeviation="1.0382591" />
    </filter>
    <radialGradient
       r="21"
       fy="90.577713"
       fx="320"
       cy="90.577713"
       cx="320"
       gradientTransform="matrix(1.2366638,0,0,1,-75.732429,60)"
       gradientUnits="userSpaceOnUse"
       id="radialGradient3329"
       xlink:href="#linearGradient3275" />
    <linearGradient
       y2="115.53844"
       x2="320"
       y1="52"
       x1="320"
       gradientTransform="matrix(0.9787784,0,0,0.9787783,6.7909233,61.527957)"
       gradientUnits="userSpaceOnUse"
       id="linearGradient3331"
       xlink:href="#linearGradient3285" />
    <clipPath
       id="clipPath3423"
       clipPathUnits="userSpaceOnUse">
      <rect
         ry="5.9375"
         rx="5.9375"
         y="364"
         x="36"
         height="224"
         width="224"
         id="rect3425"
         style="display:inline;overflow:visible;visibility:visible;opacity:1;fill:#999999;fill-opacity:1;fill-rule:evenodd;stroke:none;stroke-width:12;stroke-linecap:round;stroke-linejoin:round;stroke-miterlimit:4;stroke-dasharray:none;stroke-dashoffset:0;stroke-opacity:1;marker:none;marker-start:none;marker-mid:none;marker-end:none;enable-background:new" />
    </clipPath>
    <filter
       id="filter3431">
      <feGaussianBlur
         id="feGaussianBlur3433"
         stdDeviation="2.26" />
    </filter>
    <radialGradient
       gradientTransform="matrix(1.59089,0,0,1.34089,-87.451726,-145.44918)"
       gradientUnits="userSpaceOnUse"
       r="112"
       fy="543.25793"
       fx="148"
       cy="543.25793"
       cx="148"
       id="radialGradient3441"
       xlink:href="#linearGradient3435" />
    <filter
       height="1.8676771"
       y="-0.43383855"
       width="1.0246826"
       x="-0.012341363"
       id="filter3456">
      <feGaussianBlur
         id="feGaussianBlur3458"
         stdDeviation="1.1107227" />
    </filter>
    <radialGradient
       r="108"
       fy="53"
       fx="148"
       cy="53"
       cx="148"
       gradientTransform="matrix(1.6687487,0,0,0.2364047,-98.974807,356.54282)"
       gradientUnits="userSpaceOnUse"
       id="radialGradient3461"
       xlink:href="#linearGradient3448" />
    <filter
       height="1.3919582"
       y="-0.1959791"
       width="1.1729493"
       x="-0.086474657"
       id="filter3485">
      <feGaussianBlur
         id="feGaussianBlur3487"
         stdDeviation="7.81875" />
    </filter>
    <linearGradient
       gradientTransform="translate(0,322)"
       y2="198.13327"
       x2="61.5"
       y1="280.02573"
       x1="61.5"
       gradientUnits="userSpaceOnUse"
       id="linearGradient3489"
       xlink:href="#linearGradient3476" />
    <radialGradient
       r="108"
       fy="53"
       fx="148"
       cy="53"
       cx="148"
       gradientTransform="matrix(1.6687487,0,0,0.2364047,-98.974807,356.54282)"
       gradientUnits="userSpaceOnUse"
       id="radialGradient3495"
       xlink:href="#linearGradient3448" />
    <radialGradient
       gradientUnits="userSpaceOnUse"
       gradientTransform="matrix(2.437931,0.1422017,-0.05352297,0.9176063,-187.3369,18.173633)"
       r="109.00001"
       fy="476"
       fx="148.00002"
       cy="476"
       cx="148.00002"
       id="radialGradient3505"
       xlink:href="#linearGradient3499" />
    <filter
       id="filter3507">
      <feGaussianBlur
         id="feGaussianBlur3509"
         stdDeviation="1.11" />
    </filter>
    <linearGradient
       gradientUnits="userSpaceOnUse"
       y2="-87.094368"
       x2="137"
       y1="542.40149"
       x1="137"
       id="linearGradient3517"
       xlink:href="#linearGradient3511" />
    <filter
       height="2.428"
       y="-0.71399999"
       width="1.0626316"
       x="-0.031315789"
       id="filter3521">
      <feGaussianBlur
         id="feGaussianBlur3523"
         stdDeviation="2.975" />
    </filter>
    <filter
       height="3.8559999"
       y="-1.428"
       width="1.1252632"
       x="-0.062631577"
       id="filter3531">
      <feGaussianBlur
         id="feGaussianBlur3533"
         stdDeviation="5.95" />
    </filter>
    <radialGradient
       gradientUnits="userSpaceOnUse"
       gradientTransform="matrix(2.1337521,-0.1382488,0.06120856,0.9447015,-60.35655,119.84958)"
       r="108.5"
       fy="41.969551"
       fx="69.010353"
       cy="41.969551"
       cx="69.010353"
       id="radialGradient11231"
       xlink:href="#linearGradient11225" />
    <radialGradient
       gradientTransform="matrix(2.7881314,-1.5982143e-7,7.4211595e-8,1.2946429,-64.372756,-103.41963)"
       gradientUnits="userSpaceOnUse"
       r="112"
       fy="351"
       fx="36"
       cy="351"
       cx="36"
       id="radialGradient11281"
       xlink:href="#linearGradient11275" />
    <radialGradient
       r="108.5"
       fy="41.969551"
       fx="69.010353"
       cy="41.969551"
       cx="69.010353"
       gradientTransform="matrix(0.3963208,-0.02567818,0.01136881,0.1754678,281.30008,65.716739)"
       gradientUnits="userSpaceOnUse"
       id="radialGradient11285"
       xlink:href="#linearGradient11225" />
    <radialGradient
       r="108.5"
       fy="41.969551"
       fx="69.010353"
       cy="41.969551"
       cx="69.010353"
       gradientTransform="matrix(0.2774246,-0.01797473,0.00795817,0.1228275,291.91006,136.60172)"
       gradientUnits="userSpaceOnUse"
       id="radialGradient11289"
       xlink:href="#linearGradient11225" />
    <radialGradient
       r="108.5"
       fy="41.969551"
       fx="69.010353"
       cy="41.969551"
       cx="69.010353"
       gradientTransform="matrix(0.1981604,-0.01283909,0.00568441,0.0877339,294.65004,183.85837)"
       gradientUnits="userSpaceOnUse"
       id="radialGradient11293"
       xlink:href="#linearGradient11225" />
    <radialGradient
       r="108.5"
       fy="41.969551"
       fx="69.010353"
       cy="41.969551"
       cx="69.010353"
       gradientTransform="matrix(0.1387123,-0.00898736,0.00397908,0.06141373,297.45503,224.80086)"
       gradientUnits="userSpaceOnUse"
       id="radialGradient11297"
       xlink:href="#linearGradient11225" />
  </defs>
  <metadata
     id="metadata4">
    <rdf:RDF>
      <cc:Work
         rdf:about="">
        <dc:format>image/svg+xml</dc:format>
        <dc:type
           rdf:resource="http://purl.org/dc/dcmitype/StillImage" />
        <dc:creator>
          <cc:Agent>
            <dc:title>Lapo Calamandrei</dc:title>
          </cc:Agent>
        </dc:creator>
        <dc:source />
        <cc:license
           rdf:resource="" />
        <dc:title />
        <dc:subject>
          <rdf:Bag />
        </dc:subject>
        <dc:date />
        <dc:rights>
          <cc:Agent>
            <dc:title />
          </cc:Agent>
        </dc:rights>
        <dc:publisher>
          <cc:Agent>
            <dc:title />
          </cc:Agent>
        </dc:publisher>
        <dc:identifier />
        <dc:relation />
        <dc:language />
        <dc:coverage />
        <dc:description />
        <dc:contributor>
          <cc:Agent>
            <dc:title />
          </cc:Agent>
        </dc:contributor>
      </cc:Work>
    </rdf:RDF>
  </metadata>
  <g
     transform="translate(-20,-31.99999)"
     style="display:inline"
     id="layer1">
    <g
       style="display:none"
       id="layer6">
      <rect
         style="display:inline;overflow:visible;visibility:visible;fill:#eeeeec;fill-opacity:1;fill-rule:nonzero;stroke:none;stroke-width:2;marker:none;enable-background:accumulate"
         id="rect6284"
         width="48"
         height="48"
         x="296.0625"
         y="49.996326" />
      <rect
         y="125.99633"
         x="303"
         height="32"
         width="32"
         id="rect6592"
         style="display:inline;overflow:visible;visibility:visible;fill:#eeeeec;fill-opacity:1;fill-rule:nonzero;stroke:none;stroke-width:2;marker:none;enable-background:accumulate" />
      <rect
         style="display:inline;overflow:visible;visibility:visible;fill:#eeeeec;fill-opacity:1;fill-rule:nonzero;stroke:none;stroke-width:2;marker:none;enable-background:accumulate"
         id="rect6749"
         width="22"
         height="22"
         x="303"
         y="177.05884" />
      <rect
         y="219"
         x="303"
         height="16"
         width="16"
         id="rect6833"
         style="display:inline;overflow:visible;visibility:visible;fill:#eeeeec;fill-opacity:1;fill-rule:nonzero;stroke:none;stroke-width:2;marker:none;enable-background:accumulate" />
      <rect
         y="176"
         x="302"
         height="24"
         width="24"
         id="rect8104"
         style="display:inline;overflow:visible;visibility:visible;fill:#eeeeec;fill-opacity:1;fill-rule:nonzero;stroke:none;stroke-width:2;marker:none;enable-background:accumulate" />
      <rect
         y="31.99999"
         x="20"
         height="256"
         width="256"
         id="rect6282"
         style="display:inline;overflow:visible;visibility:visible;fill:#eeeeec;fill-opacity:1;fill-rule:nonzero;stroke:none;stroke-width:2;marker:none;enable-background:accumulate" />
      <text
         id="context"
         y="21.513618"
         x="20.970737"
         style="font-style:normal;font-weight:normal;line-height:0%;font-family:'Bitstream Vera Sans';display:inline;fill:#000000;fill-opacity:1;stroke:none;enable-background:new"
         xml:space="preserve"><tspan
           style="font-size:18.30070686px;line-height:1.25"
           y="21.513618"
           x="20.970737"
           id="tspan2716">actions</tspan></text>
      <text
         xml:space="preserve"
         style="font-style:normal;font-variant:normal;font-weight:bold;font-stretch:normal;line-height:0%;font-family:'Droid Sans';-inkscape-font-specification:'Droid Sans Bold';text-align:start;writing-mode:lr-tb;text-anchor:start;display:inline;fill:#000000;fill-opacity:1;stroke:none;enable-background:new"
         x="153.97073"
         y="21.513618"
         id="text3021"><tspan
           style="font-size:18.30070686px;line-height:1.25"
           id="tspan3023"
           x="153.97073"
           y="21.513618">system-log-out</tspan></text>
      <path
         id="path3212"
         d="m 411.5,70.5 3,-4.5 h 9 l 4,5 h 5"
         style="display:inline;fill:none;fill-rule:evenodd;stroke:#000000;stroke-width:2;stroke-linecap:round;stroke-linejoin:round;stroke-miterlimit:4;stroke-dasharray:none;stroke-opacity:1;enable-background:new" />
      <path
         id="path3214"
         d="m 404,81.5 h 12.5 l 0.5,-8.5 3.5,-6.5"
         style="display:inline;fill:none;fill-rule:evenodd;stroke:#000000;stroke-width:3;stroke-linecap:round;stroke-linejoin:round;stroke-miterlimit:4;stroke-dasharray:none;stroke-opacity:1;enable-background:new" />
      <path
         id="path3216"
         d="m 427,88 -7,-14 3.5,-6.5"
         style="display:inline;fill:none;fill-rule:evenodd;stroke:#000000;stroke-width:3;stroke-linecap:round;stroke-linejoin:miter;stroke-miterlimit:4;stroke-dasharray:none;stroke-opacity:1;enable-background:new" />
      <g
         transform="matrix(1,0,-0.8,0.8,71.2,17.8)"
         id="g3266" />
    </g>
    <g
       style="display:inline"
       id="layer2">
      <rect
         ry="0.875"
         rx="0.875"
         y="219.5"
         x="303.5"
         height="15"
         width="14.999999"
         id="rect2465"
         style="display:inline;overflow:visible;visibility:visible;opacity:1;fill:url(#radialGradient3377);fill-opacity:1;fill-rule:evenodd;stroke:#3a7304;stroke-width:0.99999994;stroke-linecap:round;stroke-linejoin:miter;stroke-miterlimit:4;stroke-dasharray:none;stroke-dashoffset:0;stroke-opacity:1;marker:none;marker-start:none;marker-mid:none;marker-end:none;enable-background:new" />
      <path
         id="rect3358"
         d="M 307.0625,221 C 307.0313,221 307,221.0279 307,221.0625 v 8.03125 c -0.58702,0.20326 -1,0.74838 -1,1.40625 0,0.65787 0.41298,1.20299 1,1.40625 v 1.03125 c 0,0.0346 0.0313,0.0625 0.0625,0.0625 h 7.3125 c -0.12441,-0.0339 -0.24347,-0.12919 -0.3125,-0.25 L 311,227.5625 V 230.5 c -3e-5,0.27613 -0.22387,0.49997 -0.5,0.5 h -3 c -0.18032,0.003 -0.34661,-0.0942 -0.4375,-0.25 -0.0909,-0.15575 -0.0909,-0.34425 0,-0.5 0.0909,-0.15575 0.25718,-0.25255 0.4375,-0.25 h 2.5 v -2.5 c 0.002,-0.0534 0.0125,-0.10617 0.0312,-0.15625 L 310.8125,225 h -1 l -0.875,1.71875 c -0.0513,0.19726 -0.20414,0.34862 -0.40625,0.375 -0.20211,0.0264 -0.39981,-0.0725 -0.5,-0.25 -0.10017,-0.1775 -0.0958,-0.40311 0.0312,-0.5625 l 1,-2 c 0.0644,-0.14228 0.19153,-0.24632 0.34375,-0.28125 0.0312,-0.003 0.0626,-0.003 0.0937,0 h 3.5 c 0.15738,-0.005 0.30791,0.0645 0.40625,0.1875 L 314.75,226 H 316 v -4.9375 C 316,221.02787 315.96866,221 315.9375,221 Z m 6.1875,0.5 c 0.69,0 1.25,0.56 1.25,1.25 0,0.69 -0.56,1.25 -1.25,1.25 -0.69,0 -1.25,-0.56 -1.25,-1.25 0,-0.69 0.56,-1.25 1.25,-1.25 z m 0.0312,4.21875 -0.75,2.21875 2.40625,4.3125 c 0.13807,0.24162 0.0541,0.54943 -0.1875,0.6875 -0.0604,0.0345 -0.12251,0.0547 -0.1875,0.0625 h 1.375 c 0.0312,0 0.0625,-0.0279 0.0625,-0.0625 V 227 h -1.5 c -0.15738,0.005 -0.30791,-0.0645 -0.40625,-0.1875 z"
         style="display:inline;overflow:visible;visibility:visible;opacity:1;fill:#ffffff;fill-opacity:1;fill-rule:evenodd;stroke:none;stroke-width:2;stroke-linecap:round;stroke-linejoin:round;stroke-miterlimit:4;stroke-dasharray:none;stroke-dashoffset:0;stroke-opacity:1;marker:none;marker-start:none;marker-mid:none;marker-end:none;enable-background:new" />
      <rect
         ry="0.0625"
         rx="0.062503934"
         y="220.50002"
         x="304.5"
         height="13.000001"
         width="13"
         id="rect2467"
         style="display:inline;overflow:visible;visibility:visible;opacity:0.2;fill:none;fill-opacity:1;fill-rule:evenodd;stroke:url(#linearGradient3245);stroke-width:0.99999994;stroke-linecap:round;stroke-linejoin:miter;stroke-miterlimit:4;stroke-dasharray:none;stroke-dashoffset:0;stroke-opacity:1;marker:none;marker-start:none;marker-mid:none;marker-end:none;enable-background:new" />
      <g
         transform="translate(1)"
         id="g3332">
        <g
           id="g3313"
           style="fill:#4e9a06" />
      </g>
      <rect
         transform="matrix(1.0618718,0,0,1,-19.427759,0)"
         ry="0.090976246"
         rx="0.091351904"
         y="197"
         x="304"
         height="1"
         width="20"
         id="rect3457"
         style="display:inline;overflow:visible;visibility:visible;opacity:1;fill:#000000;fill-opacity:1;fill-rule:evenodd;stroke:none;stroke-width:2;stroke-linecap:square;stroke-linejoin:round;stroke-miterlimit:4;stroke-dasharray:none;stroke-dashoffset:0;stroke-opacity:1;marker:none;marker-start:none;marker-mid:none;marker-end:none;filter:url(#filter3471);enable-background:new" />
      <rect
         ry="1.225"
         rx="1.2250001"
         y="176.5"
         x="303.5"
         height="21.000002"
         width="21"
         id="rect3390"
         style="display:inline;overflow:visible;visibility:visible;opacity:1;fill:url(#radialGradient3392);fill-opacity:1;fill-rule:evenodd;stroke:#3a7304;stroke-width:1;stroke-linecap:round;stroke-linejoin:miter;stroke-miterlimit:4;stroke-dasharray:none;stroke-dashoffset:0;stroke-opacity:1;marker:none;marker-start:none;marker-mid:none;marker-end:none;enable-background:new" />
      <path
         id="rect3394"
         d="m 308,178 v 12.53125 h -1 c -0.17086,0.003 -0.32652,0.0988 -0.40625,0.25 l -1,2 c -0.076,0.14399 -0.0828,0.32858 0,0.46875 0.0828,0.14016 0.24346,0.21584 0.40625,0.21875 h 2 V 195 l -2,2 h 8 l 2,-2 -3,-6.34375 V 192 c -6e-5,0.55226 -0.44774,0.99994 -1,1 h -6 l 1,-2 h 4 v -3.21875 -0.0625 l 0.0312,-0.0312 L 313,184 h -1.6875 l -1.375,2.71875 c -0.0513,0.19726 -0.20414,0.34862 -0.40625,0.375 -0.20211,0.0264 -0.39981,-0.0725 -0.5,-0.25 -0.10017,-0.1775 -0.0958,-0.40311 0.0312,-0.5625 l 1.5,-3 c 0.0644,-0.14228 0.19153,-0.24632 0.34375,-0.28125 0.0312,-0.003 0.0626,-0.003 0.0937,0 h 5 c 0.16297,0.002 0.31458,0.084 0.40625,0.21875 L 318.25,186 H 320 v -8 z m 8.75,1 c 0.966,0 1.75,0.784 1.75,1.75 0,0.966 -0.784,1.75 -1.75,1.75 -0.966,0 -1.75,-0.784 -1.75,-1.75 0,-0.966 0.784,-1.75 1.75,-1.75 z m -0.59375,5.625 -1.53125,2.9375 L 318,195 l -2,2 h 2 l 2,-2 v -8 h -2 c -0.16297,-0.002 -0.31458,-0.084 -0.40625,-0.21875 z"
         style="display:inline;overflow:visible;visibility:visible;fill:#ffffff;fill-opacity:1;fill-rule:evenodd;stroke:none;stroke-width:2;stroke-linecap:round;stroke-linejoin:round;stroke-miterlimit:4;stroke-dasharray:none;stroke-dashoffset:0;stroke-opacity:1;marker:none;marker-start:none;marker-mid:none;marker-end:none;enable-background:new" />
      <rect
         ry="0.090976246"
         rx="0.091351904"
         y="177.50002"
         x="304.5"
         height="18.923059"
         width="19"
         id="rect3453"
         style="display:inline;overflow:visible;visibility:visible;opacity:0.2;fill:none;fill-opacity:1;fill-rule:evenodd;stroke:url(#linearGradient3455);stroke-width:1;stroke-linecap:round;stroke-linejoin:miter;stroke-miterlimit:4;stroke-dasharray:none;stroke-dashoffset:0;stroke-opacity:1;marker:none;marker-start:none;marker-mid:none;marker-end:none;enable-background:new" />
      <g
         id="g3333">
        <rect
           style="display:inline;overflow:visible;visibility:visible;opacity:0.5;fill:#000000;fill-opacity:1;fill-rule:evenodd;stroke:none;stroke-width:1;stroke-linecap:round;stroke-linejoin:round;stroke-miterlimit:4;stroke-dasharray:none;stroke-dashoffset:0;stroke-opacity:1;marker:none;marker-start:none;marker-mid:none;marker-end:none;filter:url(#filter3301);enable-background:new"
           id="rect3299"
           width="42"
           height="2"
           x="299"
           y="91"
           rx="1"
           ry="1"
           transform="matrix(0.9761905,0,0,1.109375,7.6190476,-9.953125)" />
        <rect
           style="display:inline;overflow:visible;visibility:visible;opacity:0.5;fill:#000000;fill-opacity:1;fill-rule:evenodd;stroke:none;stroke-width:1;stroke-linecap:round;stroke-linejoin:round;stroke-miterlimit:4;stroke-dasharray:none;stroke-dashoffset:0;stroke-opacity:1;marker:none;marker-start:none;marker-mid:none;marker-end:none;filter:url(#filter3295);enable-background:new"
           id="rect3293"
           width="42"
           height="2"
           x="299"
           y="91"
           rx="1"
           ry="1"
           transform="matrix(0.9761905,0,0,1.109375,7.6190476,-9.953125)" />
      </g>
      <rect
         ry="2.0606601"
         rx="2.0606601"
         y="51.5"
         x="299.5"
         height="41"
         width="41"
         id="rect3273"
         style="display:inline;overflow:visible;visibility:visible;opacity:1;fill:url(#radialGradient3281);fill-opacity:1;fill-rule:evenodd;stroke:#3a7304;stroke-width:1;stroke-linecap:round;stroke-linejoin:round;stroke-miterlimit:4;stroke-dasharray:none;stroke-dashoffset:0;stroke-opacity:1;marker:none;marker-start:none;marker-mid:none;marker-end:none;enable-background:new" />
      <path
         id="rect3254"
         d="m 308,55 v 24.0625 c -2.22688,0.387361 -3.9375,2.453199 -3.9375,4.9375 H 308 v 5 l -2,2 h 17.5 l 2,-2 h 3 l -2,2 h 3.5 l 2,-2 V 72 h -4.5 c -0.30386,1.75e-4 -0.59132,-0.137806 -0.78125,-0.375 L 324.5,68.8125 l -2.8125,5.21875 6.65625,13.3125 c 0.12113,0.205044 0.17296,0.428382 0.1875,0.65625 H 325.3125 L 318.65625,74.65625 318.4375,74.1875 318,81.59375 c -0.0496,0.791572 -0.70687,1.407726 -1.5,1.40625 h -11.375 c 0.41709,-1.72388 1.87916,-3 3.625,-3 h 6.34375 L 315.5,72.90625 c 0.0159,-0.219567 0.0799,-0.432948 0.1875,-0.625 L 318.53125,67 h -3.46875 l -2.71875,4.0625 c -0.31066,0.46599 -0.94026,0.59191 -1.40625,0.28125 -0.46599,-0.31066 -0.59191,-0.94026 -0.28125,-1.40625 l 3,-4.5 c 0.17036,-0.252411 0.44643,-0.413456 0.75,-0.4375 0.0312,-0.0015 0.0625,-0.0015 0.0937,0 h 5.75 c 0.0706,-0.0128 0.14582,-0.0287 0.21875,-0.03125 0.13596,-0.0041 0.27658,0.0011 0.40625,0.03125 h 2.625 c 0.30386,-1.75e-4 0.59132,0.137806 0.78125,0.375 L 327.96875,70 H 332 V 55 Z m 15.5,3 c 1.656,10e-7 3,1.344002 3,3 0,1.655998 -1.344,3 -3,3 -1.656,0 -3,-1.344002 -3,-3 10e-6,-1.655997 1.344,-3 3,-3 z"
         style="display:inline;overflow:visible;visibility:visible;opacity:1;fill:#ffffff;fill-opacity:1;fill-rule:evenodd;stroke:none;stroke-width:3;stroke-linecap:round;stroke-linejoin:round;stroke-miterlimit:4;stroke-dasharray:none;stroke-dashoffset:0;stroke-opacity:1;marker:none;marker-start:none;marker-mid:none;marker-end:none;enable-background:new" />
      <rect
         ry="1.0625"
         rx="1.0625"
         y="52.499992"
         x="300.5"
         height="39.000011"
         width="39.000011"
         id="rect3283"
         style="display:inline;overflow:visible;visibility:visible;opacity:0.2;fill:none;fill-opacity:1;fill-rule:evenodd;stroke:url(#linearGradient3291);stroke-width:1;stroke-linecap:round;stroke-linejoin:round;stroke-miterlimit:4;stroke-dasharray:none;stroke-dashoffset:0;stroke-opacity:1;marker:none;marker-start:none;marker-mid:none;marker-end:none;enable-background:new" />
      <g
         transform="matrix(0.7317071,0,0,0.7746479,84.853714,84.007042)"
         id="g3337"
         style="display:inline;enable-background:new">
        <rect
           style="display:inline;overflow:visible;visibility:visible;opacity:0.5;fill:#000000;fill-opacity:1;fill-rule:evenodd;stroke:none;stroke-width:1;stroke-linecap:round;stroke-linejoin:round;stroke-miterlimit:4;stroke-dasharray:none;stroke-dashoffset:0;stroke-opacity:1;marker:none;marker-start:none;marker-mid:none;marker-end:none;filter:url(#filter3301);enable-background:new"
           id="rect3339"
           width="42"
           height="2"
           x="299"
           y="91"
           rx="1"
           ry="1"
           transform="matrix(0.9761905,0,0,1.109375,7.6190476,-9.953125)" />
        <rect
           style="display:inline;overflow:visible;visibility:visible;opacity:0.5;fill:#000000;fill-opacity:1;fill-rule:evenodd;stroke:none;stroke-width:1;stroke-linecap:round;stroke-linejoin:round;stroke-miterlimit:4;stroke-dasharray:none;stroke-dashoffset:0;stroke-opacity:1;marker:none;marker-start:none;marker-mid:none;marker-end:none;filter:url(#filter3295);enable-background:new"
           id="rect3341"
           width="42"
           height="2"
           x="299"
           y="91"
           rx="1"
           ry="1"
           transform="matrix(0.9761905,0,0,1.109375,7.6190476,-9.953125)" />
      </g>
      <g
         transform="matrix(0.7073158,0,0,0.7072924,92.658923,47.636917)"
         id="g3324">
        <rect
           style="display:inline;overflow:visible;visibility:visible;opacity:1;fill:url(#radialGradient3329);fill-opacity:1;fill-rule:evenodd;stroke:#3a7304;stroke-width:1.41381931;stroke-linecap:round;stroke-linejoin:round;stroke-miterlimit:4;stroke-dasharray:none;stroke-dashoffset:0;stroke-opacity:1;marker:none;marker-start:none;marker-mid:none;marker-end:none;enable-background:new"
           id="rect3314"
           width="41"
           height="41"
           x="299.5"
           y="111.5"
           rx="2.0606601"
           ry="2.0606601" />
        <path
           style="display:inline;overflow:visible;visibility:visible;opacity:1;fill:#ffffff;fill-opacity:1;fill-rule:evenodd;stroke:none;stroke-width:3;stroke-linecap:round;stroke-linejoin:round;stroke-miterlimit:4;stroke-dasharray:none;stroke-dashoffset:0;stroke-opacity:1;marker:none;marker-start:none;marker-mid:none;marker-end:none;enable-background:new"
           d="m 308.68966,115.0074 v 24.0625 c -2.22688,0.38736 -4.62716,2.4458 -4.62716,4.9301 l 4.62716,0.007 v 5 l -2,2 L 323.5,151 l 2,-2 h 3 l -2,2 2.81039,6.9e-4 2,-2 v -17 L 327.5,132 c -0.30386,1.7e-4 -0.59132,-0.13781 -0.78125,-0.375 l -2.21875,-2.8125 -2.8125,5.21875 6.65625,13.3125 c 0.12113,0.20504 0.17296,0.42838 0.1875,0.65625 H 325.3125 L 318.65625,134.65625 318.4375,134.1875 318,141.59375 c -0.0496,0.79157 -0.70687,1.40773 -1.5,1.40625 h -11.375 c 0.41709,-1.72388 1.87916,-3 3.625,-3 h 6.34375 L 315.5,132.90625 c 0.0159,-0.21957 0.0799,-0.43295 0.1875,-0.625 L 318.53125,127 h -3.46875 l -2.71875,4.0625 c -0.31066,0.46599 -0.94026,0.59191 -1.40625,0.28125 -0.46599,-0.31066 -0.59191,-0.94026 -0.28125,-1.40625 l 3,-4.5 c 0.17036,-0.25241 0.44643,-0.41346 0.75,-0.4375 0.0312,-0.001 0.0625,-0.001 0.0937,0 h 5.75 c 0.0706,-0.0128 0.14582,-0.0287 0.21875,-0.0312 0.13596,-0.004 0.27658,0.001 0.40625,0.0312 h 2.625 c 0.30386,-1.7e-4 0.59132,0.13781 0.78125,0.375 l 3.6875,4.625 3.34164,6.9e-4 v -15 z M 323.5,118 c 1.656,0 3,1.344 3,3 0,1.656 -1.344,3 -3,3 -1.656,0 -3,-1.344 -3,-3 10e-6,-1.656 1.344,-3 3,-3 z"
           id="path3316" />
        <rect
           style="display:inline;overflow:visible;visibility:visible;opacity:0.2;fill:none;fill-opacity:1;fill-rule:evenodd;stroke:url(#linearGradient3331);stroke-width:1.41381931;stroke-linecap:round;stroke-linejoin:round;stroke-miterlimit:4;stroke-dasharray:none;stroke-dashoffset:0;stroke-opacity:1;marker:none;marker-start:none;marker-mid:none;marker-end:none;enable-background:new"
           id="rect3318"
           width="38.172367"
           height="38.172363"
           x="300.91382"
           y="112.91381"
           rx="1.039952"
           ry="1.0399519" />
      </g>
      <path
         id="path11283"
         d="M 300.44931,52 C 300.18923,52 300,52.189231 300,52.449309 V 74.47441 l 40,-3.658498 V 52.449309 C 340,52.189229 339.81077,52 339.55069,52 Z"
         style="display:inline;overflow:visible;visibility:visible;opacity:0.3;fill:url(#radialGradient11285);fill-opacity:1;fill-rule:evenodd;stroke:none;stroke-width:12;stroke-linecap:round;stroke-linejoin:round;stroke-miterlimit:4;stroke-dasharray:none;stroke-dashoffset:0;stroke-opacity:1;marker:none;marker-start:none;marker-mid:none;marker-end:none;enable-background:new" />
      <path
         id="path11287"
         d="M 305.31452,127 C 305.13246,127 305,127.13247 305,127.31452 v 15.41757 l 28,-2.56094 V 127.31452 C 333,127.13246 332.86754,127 332.68548,127 Z"
         style="display:inline;overflow:visible;visibility:visible;opacity:0.3;fill:url(#radialGradient11289);fill-opacity:1;fill-rule:evenodd;stroke:none;stroke-width:12;stroke-linecap:round;stroke-linejoin:round;stroke-miterlimit:4;stroke-dasharray:none;stroke-dashoffset:0;stroke-opacity:1;marker:none;marker-start:none;marker-mid:none;marker-end:none;enable-background:new" />
      <path
         id="path11291"
         d="M 304.22465,177 C 304.09461,177 304,177.09462 304,177.22466 v 11.01255 l 20,-1.82925 v -9.1833 C 324,177.09462 323.90539,177 323.77535,177 Z"
         style="display:inline;overflow:visible;visibility:visible;opacity:0.3;fill:url(#radialGradient11293);fill-opacity:1;fill-rule:evenodd;stroke:none;stroke-width:12;stroke-linecap:round;stroke-linejoin:round;stroke-miterlimit:4;stroke-dasharray:none;stroke-dashoffset:0;stroke-opacity:1;marker:none;marker-start:none;marker-mid:none;marker-end:none;enable-background:new" />
      <path
         id="path11295"
         d="M 304.15726,220 C 304.06626,220 304,220.0662 304,220.15726 v 7.70879 l 14,-1.28048 v -6.42831 C 318,220.06624 317.93377,220 317.84274,220 Z"
         style="display:inline;overflow:visible;visibility:visible;opacity:0.4;fill:url(#radialGradient11297);fill-opacity:1;fill-rule:evenodd;stroke:none;stroke-width:12;stroke-linecap:round;stroke-linejoin:round;stroke-miterlimit:4;stroke-dasharray:none;stroke-dashoffset:0;stroke-opacity:1;marker:none;marker-start:none;marker-mid:none;marker-end:none;enable-background:new" />
    </g>
    <g
       style="display:inline;opacity:1"
       id="layer3">
      <rect
         transform="matrix(0.9912281,0,0,0.787868,1.2982456,55.275649)"
         ry="5"
         rx="6.0530972"
         y="260"
         x="34"
         height="10"
         width="228"
         id="rect3525"
         style="display:inline;overflow:visible;visibility:visible;opacity:0.7;fill:#000000;fill-opacity:1;fill-rule:evenodd;stroke:none;stroke-width:2;marker:none;filter:url(#filter3531);enable-background:new" />
      <rect
         transform="matrix(0.9912281,0,0,0.787868,1.2982456,55.275649)"
         ry="5"
         rx="6.0530972"
         y="260"
         x="34"
         height="10"
         width="228"
         id="rect3519"
         style="display:inline;overflow:visible;visibility:visible;opacity:0.7;fill:#000000;fill-opacity:1;fill-rule:evenodd;stroke:none;stroke-width:2;marker:none;filter:url(#filter3521);enable-background:new" />
      <g
         transform="translate(0,-322)"
         clip-path="url(#clipPath3423)"
         id="g3417">
        <rect
           style="display:inline;overflow:visible;visibility:visible;fill:url(#radialGradient3441);fill-opacity:1;fill-rule:evenodd;stroke:none;stroke-width:12;marker:none;enable-background:new"
           id="rect3413"
           width="224"
           height="224"
           x="36"
           y="364"
           rx="5.9375"
           ry="5.9375" />
        <rect
           style="display:inline;overflow:visible;visibility:visible;opacity:0.5;fill:url(#radialGradient11281);fill-opacity:1;fill-rule:evenodd;stroke:none;stroke-width:12;marker:none;enable-background:new"
           id="rect11273"
           width="224"
           height="224"
           x="36"
           y="364"
           rx="5.9375"
           ry="5.9375" />
        <rect
           transform="matrix(1.0092593,0,0,1,-1.3703703,0)"
           style="display:inline;overflow:visible;visibility:visible;opacity:0.4;fill:none;stroke:url(#radialGradient3505);stroke-width:1.99080455;stroke-linecap:round;stroke-linejoin:round;stroke-miterlimit:4;stroke-dasharray:none;stroke-dashoffset:0;stroke-opacity:1;marker:none;filter:url(#filter3507);enable-background:new"
           id="rect3497"
           width="216.00002"
           height="224"
           x="40"
           y="364"
           rx="5.7254467"
           ry="5.9375" />
        <path
           id="rect3463"
           d="m 39.5,490.75 v 90 c 0,3.18658 2.563418,5.75 5.75,5.75 h 205.5 c 3.18658,0 5.75,-2.56342 5.75,-5.75 v -90 c 0,3.18658 -2.56342,5.75 -5.75,5.75 H 45.25 c -3.186582,0 -5.75,-2.56342 -5.75,-5.75 z"
           style="display:inline;overflow:visible;visibility:visible;opacity:0.3;fill:url(#linearGradient3489);fill-opacity:1;fill-rule:evenodd;stroke:none;stroke-width:12;marker:none;filter:url(#filter3485);enable-background:new" />
        <path
           transform="matrix(1,0,0,0.7558804,0,92.34776)"
           id="rect3411"
           d="M 45.725446,366 C 42.553549,366 40,367.14072 40,368.56139 v 3.58314 c 0,-1.42067 2.553549,-2.56139 5.725446,-2.56139 H 250.27455 c 3.17191,0 5.72545,1.14072 5.72545,2.56139 v -3.58314 C 256,367.14072 253.44646,366 250.27455,366 Z"
           style="display:inline;overflow:visible;visibility:visible;opacity:0.5;fill:url(#radialGradient3461);fill-opacity:1;fill-rule:evenodd;stroke:none;stroke-width:12;marker:none;filter:url(#filter3456);enable-background:new" />
        <rect
           style="display:inline;overflow:visible;visibility:visible;fill:none;stroke:url(#linearGradient3517);stroke-width:2;stroke-linecap:round;stroke-linejoin:round;stroke-miterlimit:4;stroke-dasharray:none;stroke-dashoffset:0;stroke-opacity:1;marker:none;filter:url(#filter3431);enable-background:new"
           id="rect3415"
           width="224"
           height="224"
           x="36"
           y="364"
           rx="5.9375"
           ry="5.9375" />
        <path
           transform="matrix(1,0,0,-1,0,952.14453)"
           id="path3493"
           d="M 45.725446,366 C 42.553549,366 40,367.14072 40,368.56139 v 3.58314 c 0,-1.42067 2.553549,-2.56139 5.725446,-2.56139 H 250.27455 c 3.17191,0 5.72545,1.14072 5.72545,2.56139 v -3.58314 C 256,367.14072 253.44646,366 250.27455,366 Z"
           style="display:inline;overflow:visible;visibility:visible;opacity:0.7;fill:url(#radialGradient3495);fill-opacity:1;fill-rule:evenodd;stroke:none;stroke-width:12;marker:none;filter:url(#filter3456);enable-background:new" />
      </g>
      <path
         id="rect3384"
         d="m 80,58 v 136.25 c -11.902428,1.53197 -20.999998,9.79818 -21,19.75 0,1.36971 0.171624,2.70746 0.5,4 H 80 v 28 l -12,16 h 98 l 12,-16 h 18 l -12,16 h 20 l 12,-16 v -92 h -26 c -1.75372,0.002 -3.42069,-0.76265 -4.5625,-2.09375 L 170.625,134.625 156.9375,162 196,242 c 0,0 -18,0 -18,0 l -38,-68 c 0,0 -4.03125,32.65625 -4.03125,32.65625 C 135.62695,210.80423 132.16204,213.99739 128,214 H 64 c 0,-8.83199 8.96,-16 20,-16 h 36.65625 l 3.375,-40.65625 c 0.084,-1.01152 0.35977,-1.99781 0.8125,-2.90625 L 139.0625,126 H 119.375 l -14.25,23.15625 c -1.74315,2.83046 -5.45079,3.7119 -8.28125,1.96875 -2.83046,-1.74315 -3.7119,-5.45079 -1.96875,-8.28125 l 16,-26 c 1.09771,-1.7745 3.03843,-2.85136 5.125,-2.84375 h 50 c 1.75372,-0.002 3.42069,0.76265 4.5625,2.09375 L 192.78125,142 H 216 V 58 Z m 88,20 c 8.832,0 16,7.168 16,16 0,8.832 -7.168,16 -16,16 -8.832,0 -16,-7.168 -16,-16 0,-8.832 7.168,-16 16,-16 z"
         style="display:inline;overflow:visible;visibility:visible;fill:#ffffff;fill-opacity:1;fill-rule:evenodd;stroke:none;stroke-width:12;marker:none;enable-background:new" />
      <path
         id="path11218"
         d="m 42.741004,46 c -1.40023,0 -2.419034,1.018803 -2.419034,2.419034 V 167 L 255.67803,147.30303 V 48.419034 C 255.67803,47.018793 254.65924,46 253.259,46 Z"
         style="display:inline;overflow:visible;visibility:visible;opacity:0.3;fill:url(#radialGradient11231);fill-opacity:1;fill-rule:evenodd;stroke:none;stroke-width:12;marker:none;enable-background:new" />
    </g>
  </g>
</svg>
