<?xml version="1.0" encoding="UTF-8" standalone="no"?>
<svg
   xmlns:dc="http://purl.org/dc/elements/1.1/"
   xmlns:cc="http://creativecommons.org/ns#"
   xmlns:rdf="http://www.w3.org/1999/02/22-rdf-syntax-ns#"
   xmlns:svg="http://www.w3.org/2000/svg"
   xmlns="http://www.w3.org/2000/svg"
   xmlns:xlink="http://www.w3.org/1999/xlink"
   width="256"
   version="1.0"
   style="display:inline;enable-background:new"
   id="svg11300"
   height="256">
  <title
     id="title8836">Optical Drive</title>
  <metadata
     id="metadata154">
    <rdf:RDF>
      <cc:Work
         rdf:about="">
        <dc:format>image/svg+xml</dc:format>
        <dc:type
           rdf:resource="http://purl.org/dc/dcmitype/StillImage" />
        <dc:title />
        <dc:creator>
          <cc:Agent>
            <dc:title />
          </cc:Agent>
        </dc:creator>
        <dc:contributor>
          <cc:Agent>
            <dc:title />
          </cc:Agent>
        </dc:contributor>
        <dc:source />
        <cc:license
           rdf:resource="" />
        <dc:subject>
          <rdf:Bag />
        </dc:subject>
      </cc:Work>
    </rdf:RDF>
  </metadata>
  <defs
     id="defs3">
    <radialGradient
       r="20.530962"
       fy="35.87817"
       fx="24.44569"
       cy="35.87817"
       cx="24.44569"
       gradientTransform="matrix(0.8569597,3.2529443e-7,-1.2530456e-7,0.3301039,290.04928,219.77023)"
       gradientUnits="userSpaceOnUse"
       id="radialGradient9050-3"
       xlink:href="#linearGradient11520-0" />
    <linearGradient
       id="linearGradient11520-0">
      <stop
         style="stop-color:#ffffff;stop-opacity:1.0000000;"
         offset="0.0000000"
         id="stop11522-6" />
      <stop
         style="stop-color:#dcdcdc;stop-opacity:1.0000000;"
         offset="1.0000000"
         id="stop11524-0" />
    </linearGradient>
    <linearGradient
       y2="118.49502"
       x2="311.65057"
       y1="145.51683"
       x1="321.5675"
       gradientTransform="matrix(0.5556927,0,0,0.5556793,133.73229,148.09196)"
       gradientUnits="userSpaceOnUse"
       id="linearGradient9043-2"
       xlink:href="#linearGradient4247-4" />
    <linearGradient
       id="linearGradient4247-4">
      <stop
         id="stop4249-6"
         offset="0"
         style="stop-color:#9b9b9b;stop-opacity:1;" />
      <stop
         id="stop4251-6"
         offset="1"
         style="stop-color:#d3d7cf;stop-opacity:1" />
    </linearGradient>
    <radialGradient
       r="19.500002"
       fy="51.5"
       fx="301"
       cy="51.5"
       cx="301"
       gradientTransform="matrix(0.9706301,1.96843e-8,0,0.2861052,11.840341,204.36816)"
       gradientUnits="userSpaceOnUse"
       id="radialGradient9037-6"
       xlink:href="#linearGradient8978-7" />
    <linearGradient
       id="linearGradient8978-7">
      <stop
         id="stop8980-9"
         offset="0"
         style="stop-color:#ffffff;stop-opacity:1;" />
      <stop
         id="stop8982-8"
         offset="1"
         style="stop-color:#ffffff;stop-opacity:0;" />
    </linearGradient>
    <filter
       style="color-interpolation-filters:sRGB"
       height="2.6341176"
       y="-0.8170588"
       width="1.0797131"
       x="-0.039856527"
       id="filter9096-3">
      <feGaussianBlur
         id="feGaussianBlur9098-8"
         stdDeviation="0.68088236" />
    </filter>
    <radialGradient
       r="20.530962"
       fy="35.87817"
       fx="24.44569"
       cy="35.87817"
       cx="24.44569"
       gradientTransform="matrix(1.0921306,-3.6209389e-7,1.6434037e-7,0.4956757,287.30209,175.06113)"
       gradientUnits="userSpaceOnUse"
       id="radialGradient9033-0"
       xlink:href="#linearGradient11520-0" />
    <linearGradient
       y2="118.49502"
       x2="311.65057"
       y1="145.51683"
       x1="321.5675"
       gradientTransform="matrix(0.7042252,0,0,0.7037235,89.35216,87.071358)"
       gradientUnits="userSpaceOnUse"
       id="linearGradient9026-9"
       xlink:href="#linearGradient4247-4" />
    <radialGradient
       r="19.500002"
       fy="51.5"
       fx="301"
       cy="51.5"
       cx="301"
       gradientTransform="matrix(1.2479479,2.5308282e-8,0,0.3678481,-70.632281,157.90201)"
       gradientUnits="userSpaceOnUse"
       id="radialGradient9020-3"
       xlink:href="#linearGradient8978-7" />
    <radialGradient
       r="20.530962"
       fy="35.87817"
       fx="24.44569"
       cy="35.87817"
       cx="24.44569"
       gradientTransform="matrix(1.5539259,4.3568146e-7,-1.8921444e-7,0.6748628,281.0132,126.09291)"
       gradientUnits="userSpaceOnUse"
       id="radialGradient9009-5"
       xlink:href="#linearGradient11520-0" />
    <linearGradient
       y2="121.5209"
       x2="310.82327"
       y1="146.87985"
       x1="322.20023"
       gradientUnits="userSpaceOnUse"
       id="linearGradient9011-2"
       xlink:href="#linearGradient4247-4" />
    <radialGradient
       r="19.500002"
       fy="51.5"
       fx="301"
       cy="51.5"
       cx="301"
       gradientTransform="matrix(1.8025928,3.6556436e-8,0,0.5313365,-236.58041,99.96952)"
       gradientUnits="userSpaceOnUse"
       id="radialGradient8988-6"
       xlink:href="#linearGradient8978-7" />
    <radialGradient
       r="20.530962"
       fy="37.384212"
       fx="24.445683"
       cy="37.384212"
       cx="24.445683"
       gradientTransform="matrix(2.5277505,-5.0664448e-7,2.3817641e-7,1.1883097,258.70741,44.380787)"
       gradientUnits="userSpaceOnUse"
       id="radialGradient9001-8"
       xlink:href="#linearGradient11520-0" />
    <linearGradient
       y2="-10.411684"
       x2="12.481904"
       y1="35.480087"
       x1="28.222286"
       gradientTransform="matrix(0.9984544,0,0,0.9984542,296.09211,49.982102)"
       gradientUnits="userSpaceOnUse"
       id="linearGradient9003-0"
       xlink:href="#linearGradient4239-8" />
    <linearGradient
       id="linearGradient4239-8">
      <stop
         id="stop4241-6"
         offset="0"
         style="stop-color:#9b9b9b;stop-opacity:1;" />
      <stop
         id="stop4243-3"
         offset="1"
         style="stop-color:#d3d7cf;stop-opacity:1" />
    </linearGradient>
    <radialGradient
       xlink:href="#linearGradient8978-7"
       id="radialGradient3300"
       gradientUnits="userSpaceOnUse"
       gradientTransform="matrix(2.7038898,5.4834668e-8,0,0.7970049,-512.87082,10.454246)"
       cx="301"
       cy="51.5"
       fx="301"
       fy="51.5"
       r="19.500002" />
    <radialGradient
       gradientUnits="userSpaceOnUse"
       gradientTransform="matrix(4.2701989,-3.152639e-8,0,0.82287215,-275.89748,12.516662)"
       r="66.227539"
       fy="79.968262"
       fx="84.367188"
       cy="79.968262"
       cx="84.367188"
       id="radialGradient4255-3"
       xlink:href="#linearGradient4249-5" />
    <linearGradient
       id="linearGradient4249-5">
      <stop
         id="stop4251-2"
         offset="0"
         style="stop-color:#555753;stop-opacity:1" />
      <stop
         id="stop4253-4"
         offset="1"
         style="stop-color:#000000;stop-opacity:1" />
    </linearGradient>
    <filter
       style="color-interpolation-filters:sRGB"
       height="3.5553987"
       y="-1.2776994"
       width="1.3058832"
       x="-0.15294158"
       id="filter4608-0-5">
      <feGaussianBlur
         id="feGaussianBlur4610-6-7"
         stdDeviation="12.776994" />
    </filter>
    <filter
       style="color-interpolation-filters:sRGB"
       height="2.2776995"
       y="-0.63884968"
       width="1.1529416"
       x="-0.076470785"
       id="filter4568-5">
      <feGaussianBlur
         id="feGaussianBlur4570-2"
         stdDeviation="6.388497" />
    </filter>
    <clipPath
       id="clipPath4315-5"
       clipPathUnits="userSpaceOnUse">
      <rect
         height="183.99988"
         id="rect4317-9"
         rx="25.053392"
         ry="25.053387"
         style="display:inline;overflow:visible;visibility:visible;fill:url(#radialGradient4319);fill-opacity:1;fill-rule:evenodd;stroke:none;stroke-width:0.23381771;marker:none;enable-background:new"
         width="183.99991"
         x="56.000088"
         y="60.00013" />
    </clipPath>
    <radialGradient
       r="20.530962"
       fy="6.8678637"
       fx="17.320858"
       cy="6.8678637"
       cx="17.320858"
       gradientTransform="matrix(13.339021,1.2973092e-6,-3.2847942e-7,3.3774477,-169.04322,33.206222)"
       gradientUnits="userSpaceOnUse"
       id="radialGradient4622-1"
       xlink:href="#linearGradient11520-9-9" />
    <linearGradient
       id="linearGradient11520-9-9">
      <stop
         style="stop-color:#ffffff;stop-opacity:1.0000000;"
         offset="0.0000000"
         id="stop11522-2-3" />
      <stop
         style="stop-color:#dcdcdc;stop-opacity:1.0000000;"
         offset="1.0000000"
         id="stop11524-8-0" />
    </linearGradient>
    <radialGradient
       r="91.999954"
       fy="214.94498"
       fx="176.67326"
       cy="214.94498"
       cx="176.67326"
       gradientTransform="matrix(1.5655573,0,0,0.95658347,-83.702508,9.3321893)"
       gradientUnits="userSpaceOnUse"
       id="radialGradient4624-2"
       xlink:href="#linearGradient4205-7" />
    <linearGradient
       id="linearGradient4205-7">
      <stop
         id="stop4207-4"
         offset="0"
         style="stop-color:#eeeeec;stop-opacity:1;" />
      <stop
         id="stop4209-6"
         offset="1"
         style="stop-color:#eeeeec;stop-opacity:0;" />
    </linearGradient>
    <linearGradient
       y2="206.98183"
       x2="131.5"
       y1="234.5"
       x1="131.5"
       gradientTransform="translate(0,1)"
       gradientUnits="userSpaceOnUse"
       id="linearGradient4626-0"
       xlink:href="#linearGradient4085-9" />
    <linearGradient
       id="linearGradient4085-9">
      <stop
         id="stop4087-82"
         offset="0"
         style="stop-color:#ffffff;stop-opacity:1;" />
      <stop
         id="stop4089-5"
         offset="1"
         style="stop-color:#ffffff;stop-opacity:0;" />
    </linearGradient>
    <filter
       style="color-interpolation-filters:sRGB"
       height="1.324192"
       y="-0.16209599"
       width="1.0736265"
       x="-0.036813226"
       id="filter4105-9">
      <feGaussianBlur
         id="feGaussianBlur4107-1"
         stdDeviation="2.6382812" />
    </filter>
    <radialGradient
       r="92.331871"
       fy="272.15036"
       fx="132.00293"
       cy="272.15036"
       cx="132.00293"
       gradientTransform="matrix(2.0831076,0,0,0.225958,-158.48028,172.9742)"
       gradientUnits="userSpaceOnUse"
       id="radialGradient4628-2"
       xlink:href="#linearGradient4085-0-1" />
    <linearGradient
       id="linearGradient4085-0-1">
      <stop
         id="stop4087-8-6"
         offset="0"
         style="stop-color:#ffffff;stop-opacity:1;" />
      <stop
         id="stop4089-1-3"
         offset="1"
         style="stop-color:#ffffff;stop-opacity:0;" />
    </linearGradient>
    <filter
       style="color-interpolation-filters:sRGB"
       id="filter4155-4">
      <feGaussianBlur
         id="feGaussianBlur4157-3"
         stdDeviation="0.98531245" />
    </filter>
    <radialGradient
       r="90"
       fy="152"
       fx="148"
       cy="152"
       cx="148"
       gradientTransform="matrix(4.0735165,0.53628862,-0.11022212,0.8372201,-438.12668,-54.628172)"
       gradientUnits="userSpaceOnUse"
       id="radialGradient4630-7"
       xlink:href="#linearGradient4238-1" />
    <linearGradient
       id="linearGradient4238-1">
      <stop
         id="stop4240-6"
         offset="0"
         style="stop-color:#ffffff;stop-opacity:1;" />
      <stop
         id="stop4242-1"
         offset="1"
         style="stop-color:#ffffff;stop-opacity:0;" />
    </linearGradient>
    <filter
       style="color-interpolation-filters:sRGB"
       id="filter4246-8">
      <feGaussianBlur
         id="feGaussianBlur4248-3"
         stdDeviation="0.83" />
    </filter>
    <linearGradient
       y2="69.760551"
       x2="100.51903"
       y1="234.23958"
       x1="195.48103"
       gradientUnits="userSpaceOnUse"
       id="linearGradient4632-6"
       xlink:href="#linearGradient4538-0" />
    <linearGradient
       id="linearGradient4538-0">
      <stop
         id="stop4540-8"
         offset="0"
         style="stop-color:#2e3436;stop-opacity:1" />
      <stop
         id="stop4542-8"
         offset="1"
         style="stop-color:#babdb6;stop-opacity:1" />
    </linearGradient>
    <filter
       style="color-interpolation-filters:sRGB"
       id="filter4321-3">
      <feGaussianBlur
         id="feGaussianBlur4323-7"
         stdDeviation="0.91999947" />
    </filter>
    <radialGradient
       xlink:href="#linearGradient4249-5"
       id="radialGradient4385"
       gradientUnits="userSpaceOnUse"
       gradientTransform="matrix(4.2701989,-3.152639e-8,0,0.82287215,-275.89748,12.516662)"
       cx="84.367188"
       cy="79.968262"
       fx="84.367188"
       fy="79.968262"
       r="66.227539" />
    <radialGradient
       xlink:href="#linearGradient4249-5"
       id="radialGradient4387"
       gradientUnits="userSpaceOnUse"
       gradientTransform="matrix(4.2701989,-3.152639e-8,0,0.82287215,-275.89748,12.516662)"
       cx="84.367188"
       cy="79.968262"
       fx="84.367188"
       fy="79.968262"
       r="66.227539" />
    <radialGradient
       xlink:href="#linearGradient4249-5"
       id="radialGradient4389"
       gradientUnits="userSpaceOnUse"
       gradientTransform="matrix(4.2701989,-3.152639e-8,0,0.82287215,-275.89748,12.516662)"
       cx="84.367188"
       cy="79.968262"
       fx="84.367188"
       fy="79.968262"
       r="66.227539" />
    <radialGradient
       r="20.530962"
       fy="6.8678637"
       fx="17.320858"
       cy="6.8678637"
       cx="17.320858"
       gradientTransform="matrix(13.339021,1.2973092e-6,-3.2847942e-7,3.3774477,-169.04322,33.206222)"
       gradientUnits="userSpaceOnUse"
       id="radialGradient220334"
       xlink:href="#linearGradient11520-9-9" />
    <radialGradient
       r="91.999954"
       fy="214.94498"
       fx="176.67326"
       cy="214.94498"
       cx="176.67326"
       gradientTransform="matrix(1.5655573,0,0,0.95658347,-83.702508,9.3321893)"
       gradientUnits="userSpaceOnUse"
       id="radialGradient220336"
       xlink:href="#linearGradient4205-7" />
    <linearGradient
       y2="206.98183"
       x2="131.5"
       y1="234.5"
       x1="131.5"
       gradientTransform="translate(0,1)"
       gradientUnits="userSpaceOnUse"
       id="linearGradient220338"
       xlink:href="#linearGradient4085-9" />
    <radialGradient
       r="92.331871"
       fy="272.15036"
       fx="132.00293"
       cy="272.15036"
       cx="132.00293"
       gradientTransform="matrix(2.0831076,0,0,0.225958,-158.48028,172.9742)"
       gradientUnits="userSpaceOnUse"
       id="radialGradient220340"
       xlink:href="#linearGradient4085-0-1" />
    <radialGradient
       r="90"
       fy="152"
       fx="148"
       cy="152"
       cx="148"
       gradientTransform="matrix(4.0735165,0.53628862,-0.11022212,0.8372201,-438.12668,-54.628172)"
       gradientUnits="userSpaceOnUse"
       id="radialGradient220342"
       xlink:href="#linearGradient4238-1" />
    <linearGradient
       y2="69.760551"
       x2="100.51903"
       y1="234.23958"
       x1="195.48103"
       gradientUnits="userSpaceOnUse"
       id="linearGradient220344"
       xlink:href="#linearGradient4538-0" />
    <radialGradient
       r="66.227539"
       fy="79.968262"
       fx="84.367188"
       cy="79.968262"
       cx="84.367188"
       gradientTransform="matrix(4.2701989,-3.152639e-8,0,0.82287215,-275.89748,12.516662)"
       gradientUnits="userSpaceOnUse"
       id="radialGradient220346"
       xlink:href="#linearGradient4249-5" />
    <radialGradient
       r="66.227539"
       fy="79.968262"
       fx="84.367188"
       cy="79.968262"
       cx="84.367188"
       gradientTransform="matrix(4.2701989,-3.152639e-8,0,0.82287215,-275.89748,12.516662)"
       gradientUnits="userSpaceOnUse"
       id="radialGradient220348"
       xlink:href="#linearGradient4249-5" />
    <radialGradient
       r="66.227539"
       fy="79.968262"
       fx="84.367188"
       cy="79.968262"
       cx="84.367188"
       gradientTransform="matrix(4.2701989,-3.152639e-8,0,0.82287215,-275.89748,12.516662)"
       gradientUnits="userSpaceOnUse"
       id="radialGradient220350"
       xlink:href="#linearGradient4249-5" />
    <radialGradient
       r="66.227539"
       fy="79.968262"
       fx="84.367188"
       cy="79.968262"
       cx="84.367188"
       gradientTransform="matrix(4.2701989,-3.152639e-8,0,0.82287215,-275.89748,12.516662)"
       gradientUnits="userSpaceOnUse"
       id="radialGradient220352"
       xlink:href="#linearGradient4249-5" />
    <filter
       height="1.4898243"
       y="-0.24491216"
       width="1.0586323"
       x="-0.029316168"
       id="filter220880">
      <feGaussianBlur
         id="feGaussianBlur220882"
         stdDeviation="2.4491216" />
    </filter>
  </defs>
  <g
     transform="translate(-20,-27.99999)"
     style="display:none"
     id="layer6">
    <rect
       y="50"
       x="296"
       width="48"
       style="display:inline;overflow:visible;visibility:visible;fill:#eeeeec;fill-opacity:1;fill-rule:nonzero;stroke:none;stroke-width:2;marker:none;enable-background:accumulate"
       id="rect6284"
       height="48" />
    <rect
       y="126"
       x="303"
       width="32"
       style="display:inline;overflow:visible;visibility:visible;fill:#eeeeec;fill-opacity:1;fill-rule:nonzero;stroke:none;stroke-width:2;marker:none;enable-background:accumulate"
       id="rect6592"
       height="32" />
    <rect
       y="176"
       x="302"
       width="24"
       style="display:inline;overflow:visible;visibility:visible;fill:#ffffff;fill-opacity:1;fill-rule:nonzero;stroke:none;stroke-width:2;marker:none;enable-background:accumulate"
       id="rect6749-6"
       height="24" />
    <rect
       y="177"
       x="303"
       width="22"
       style="display:inline;overflow:visible;visibility:visible;fill:#eeeeec;fill-opacity:1;fill-rule:nonzero;stroke:none;stroke-width:2;marker:none;enable-background:accumulate"
       id="rect6749"
       height="22" />
    <rect
       y="219"
       x="303"
       width="16"
       style="display:inline;overflow:visible;visibility:visible;fill:#eeeeec;fill-opacity:1;fill-rule:nonzero;stroke:none;stroke-width:2;marker:none;enable-background:accumulate"
       id="rect6833"
       height="16" />
    <text
       y="21.513618"
       xml:space="preserve"
       x="20.970737"
       style="font-style:normal;font-weight:normal;line-height:0%;font-family:'Bitstream Vera Sans';display:inline;fill:#000000;fill-opacity:1;stroke:none;enable-background:new"
       id="context"><tspan
         style="font-size:18.30070686px;line-height:1.25"
         y="21.513618"
         x="20.970737"
         id="tspan2716">apps</tspan></text>
    <text
       y="21.513618"
       xml:space="preserve"
       x="191.97073"
       style="font-style:normal;font-variant:normal;font-weight:bold;font-stretch:normal;line-height:0%;font-family:'Droid Sans';-inkscape-font-specification:'Droid Sans Bold';text-align:start;writing-mode:lr-tb;text-anchor:start;display:inline;fill:#000000;fill-opacity:1;stroke:none;enable-background:new"
       id="icon-name"><tspan
         style="font-size:18.30070686px;line-height:1.25"
         y="21.513618"
         x="191.97073"
         id="tspan3023">preferences-desktop-font</tspan></text>
    <rect
       style="display:inline;overflow:visible;visibility:visible;fill:#eeeeec;fill-opacity:1;fill-rule:nonzero;stroke:none;stroke-width:2;marker:none;enable-background:accumulate"
       id="rect6282"
       width="256"
       height="256"
       x="20"
       y="27.99999" />
    <path
       id="rect3068-1"
       d="m 20.0625,28 v 238 18 H 258 h 18 0.0625 V 266 H 276 V 28 H 258 V 266 H 38.0625 V 28 Z"
       style="display:inline;overflow:visible;visibility:visible;opacity:0.29455285;fill:#729fcf;fill-opacity:1;fill-rule:nonzero;stroke:none;stroke-width:2;marker:none;enable-background:accumulate" />
  </g>
  <g
     transform="translate(-20,-27.99999)"
     style="display:inline"
     id="layer2">
    <g
       id="g891"
       transform="matrix(0.186703,0,0,0.186703,274.8927,107.62299)" />
    <g
       id="g8996"
       style="display:inline;enable-background:new"
       transform="translate(-2.396698e-6)">
      <rect
         transform="matrix(1,0,0,1.2500014,0,-23.000132)"
         ry="1"
         rx="1"
         y="92"
         x="300"
         height="2"
         width="41"
         id="rect9082"
         style="display:inline;overflow:visible;visibility:visible;opacity:0.25;fill:#000000;fill-opacity:1;fill-rule:nonzero;stroke:none;stroke-width:14;marker:none;filter:url(#filter9096-3);enable-background:new" />
      <rect
         y="53.5"
         x="300.5"
         width="40.000004"
         style="display:inline;overflow:visible;visibility:visible;fill:url(#radialGradient9001-8);fill-opacity:1;fill-rule:evenodd;stroke:url(#linearGradient9003-0);stroke-width:1;stroke-linecap:butt;stroke-linejoin:bevel;stroke-miterlimit:10;stroke-dasharray:none;stroke-dashoffset:0;stroke-opacity:1;marker:none"
         ry="5.4463916"
         rx="5.446393"
         id="rect11518"
         height="39.999996" />
      <rect
         y="54.5"
         x="301.5"
         width="38"
         style="display:inline;overflow:visible;visibility:visible;fill:none;stroke:#ffffff;stroke-width:0.99999976;stroke-linecap:butt;stroke-linejoin:bevel;stroke-miterlimit:10;stroke-dasharray:none;stroke-dashoffset:0;stroke-opacity:1;marker:none"
         ry="4.2767878"
         rx="4.2767873"
         id="rect11528"
         height="38" />
      <rect
         height="38.999996"
         id="rect8206"
         rx="5.3102331"
         ry="5.3102317"
         style="display:inline;overflow:visible;visibility:visible;fill:url(#radialGradient3300);fill-opacity:1;fill-rule:evenodd;stroke:none;stroke-width:1;marker:none;enable-background:new"
         width="39.000004"
         x="301"
         y="54" />
    </g>
    <g
       id="g9013"
       style="display:inline;enable-background:new"
       transform="translate(-2.396698e-6)">
      <rect
         transform="matrix(0.6829267,0,0,0.9999998,100.122,62.500018)"
         ry="1"
         rx="1"
         y="92"
         x="300"
         height="2"
         width="41"
         id="rect9118"
         style="display:inline;overflow:visible;visibility:visible;opacity:0.25;fill:#000000;fill-opacity:1;fill-rule:nonzero;stroke:none;stroke-width:14;marker:none;filter:url(#filter9096-3);enable-background:new" />
      <rect
         y="128.5"
         x="305.5"
         width="27.000004"
         style="display:inline;overflow:visible;visibility:visible;fill:url(#radialGradient9009-5);fill-opacity:1;fill-rule:evenodd;stroke:url(#linearGradient9011-2);stroke-width:1.00000095;stroke-linecap:butt;stroke-linejoin:bevel;stroke-miterlimit:10;stroke-dasharray:none;stroke-dashoffset:0;stroke-opacity:1;marker:none;enable-background:new"
         ry="3.6763155"
         rx="3.6763155"
         id="rect3372"
         height="27.000004" />
      <rect
         y="129.5"
         x="306.5"
         width="24.999989"
         style="display:inline;overflow:visible;visibility:visible;fill:none;stroke:#ffffff;stroke-width:0.99999994;stroke-linecap:butt;stroke-linejoin:bevel;stroke-miterlimit:10;stroke-dasharray:none;stroke-dashoffset:0;stroke-opacity:1;marker:none;enable-background:new"
         ry="2.8136752"
         rx="2.8136747"
         id="rect3374"
         height="24.999992" />
      <rect
         height="25.99999"
         id="rect8986"
         rx="3.5401545"
         ry="3.5401535"
         style="display:inline;overflow:visible;visibility:visible;fill:url(#radialGradient8988-6);fill-opacity:1;fill-rule:evenodd;stroke:none;stroke-width:1;marker:none;enable-background:new"
         width="25.999996"
         x="306"
         y="129.00002" />
    </g>
    <g
       id="g9028"
       style="display:inline;enable-background:new"
       transform="translate(-2.396698e-6)">
      <rect
         transform="matrix(0.4878048,0,0,0.9999998,157.65857,103.50002)"
         ry="1"
         rx="4.0750003"
         y="92"
         x="300"
         height="2"
         width="41"
         id="rect9120"
         style="display:inline;overflow:visible;visibility:visible;opacity:0.25;fill:#000000;fill-opacity:1;fill-rule:nonzero;stroke:none;stroke-width:14;marker:none;filter:url(#filter9096-3);enable-background:new" />
      <rect
         y="177.49983"
         x="304.49295"
         width="19.014084"
         style="display:inline;overflow:visible;visibility:visible;fill:url(#radialGradient9033-0);fill-opacity:1;fill-rule:evenodd;stroke:url(#linearGradient9026-9);stroke-width:1.00000095;stroke-linecap:butt;stroke-linejoin:bevel;stroke-miterlimit:10;stroke-dasharray:none;stroke-dashoffset:0;stroke-opacity:1;marker:none;enable-background:new"
         ry="2.5871096"
         rx="2.588954"
         id="rect4255"
         height="19.000538" />
      <rect
         y="178.50018"
         x="305.5"
         width="17.000019"
         style="display:inline;overflow:visible;visibility:visible;fill:none;stroke:#ffffff;stroke-width:1;stroke-linecap:butt;stroke-linejoin:bevel;stroke-miterlimit:10;stroke-dasharray:none;stroke-dashoffset:0;stroke-opacity:1;marker:none;enable-background:new"
         ry="1.9132789"
         rx="1.9133018"
         id="rect4257"
         height="16.999815" />
      <rect
         y="178.00002"
         x="305.00003"
         width="17.999983"
         style="display:inline;overflow:visible;visibility:visible;fill:url(#radialGradient9020-3);fill-opacity:1;fill-rule:evenodd;stroke:none;stroke-width:1;marker:none;enable-background:new"
         ry="2.4508736"
         rx="2.4508743"
         id="rect9018"
         height="17.999979" />
    </g>
    <g
       id="g9045"
       style="display:inline;enable-background:new"
       transform="translate(-2.396698e-6)">
      <rect
         y="219.49675"
         x="303.4964"
         width="15.003705"
         style="display:inline;overflow:visible;visibility:visible;fill:url(#radialGradient9050-3);fill-opacity:1;fill-rule:evenodd;stroke:url(#linearGradient9043-2);stroke-width:1.00000095;stroke-linecap:butt;stroke-linejoin:bevel;stroke-miterlimit:10;stroke-dasharray:none;stroke-dashoffset:0;stroke-opacity:1;marker:none;enable-background:new"
         ry="1.5142833"
         rx="1.5143198"
         id="rect4319"
         height="15.003344" />
      <rect
         y="220.50003"
         x="304.4996"
         width="12.997247"
         style="display:inline;overflow:visible;visibility:visible;fill:none;stroke:#ffffff;stroke-width:0.99999994;stroke-linecap:butt;stroke-linejoin:bevel;stroke-miterlimit:10;stroke-dasharray:none;stroke-dashoffset:0;stroke-opacity:1;marker:none;enable-background:new"
         ry="0.50810492"
         rx="0.5081172"
         id="rect4321"
         height="12.999963" />
      <rect
         height="14.000041"
         id="rect9035"
         rx="1.9062433"
         ry="1.9062428"
         style="display:inline;overflow:visible;visibility:visible;fill:url(#radialGradient9037-6);fill-opacity:1;fill-rule:evenodd;stroke:none;stroke-width:1;marker:none;enable-background:new"
         width="14.000044"
         x="304"
         y="220" />
    </g>
    <path
       d="m 316.53195,64.755627 c -1.76734,6e-6 -2.99178,0.178273 -3.67335,0.5348 -0.68157,0.356537 -1.02235,0.964737 -1.02235,1.824604 0,0.685104 0.2536,1.230389 0.76082,1.635855 0.51514,0.398479 1.21255,0.597718 2.09226,0.597716 1.21255,2e-6 2.18339,-0.377504 2.91252,-1.132514 0.73704,-0.761999 1.10556,-1.77217 1.10557,-3.030524 v -0.429937 h -2.17547 m 4.36284,-0.796954 v 6.700709 h -2.18737 v -1.782661 c -0.4993,0.713066 -1.12143,1.240871 -1.86639,1.583422 -0.74498,0.33556 -1.65638,0.50334 -2.7342,0.50334 -1.36315,0 -2.4489,-0.335558 -3.25727,-1.006679 -0.80045,-0.678109 -1.20068,-1.583421 -1.20067,-2.715936 -10e-6,-1.321263 0.49928,-2.317453 1.49786,-2.988581 1.0065,-0.671111 2.50437,-1.006671 4.49361,-1.006679 h 3.06706 v -0.188751 c -1e-5,-0.887828 -0.33287,-1.572928 -0.99858,-2.055306 -0.6578,-0.489347 -1.58505,-0.734024 -2.78175,-0.734034 -0.76083,1e-5 -1.50184,0.0804 -2.22303,0.241183 -0.7212,0.160799 -1.41465,0.401981 -2.08037,0.72355 v -1.782663 c 0.80044,-0.272628 1.57712,-0.475364 2.33002,-0.6082 0.75289,-0.139805 1.48597,-0.209713 2.19925,-0.209725 1.92582,1.2e-5 3.36425,0.440434 4.31528,1.321267 0.95102,0.880852 1.42653,2.2161 1.42655,4.005744"
       id="text2841"
       style="font-style:normal;font-weight:normal;font-size:22.27977753px;font-family:'Bitstream Vera Sans';fill:#000000;fill-opacity:1;stroke:none" />
    <path
       d="m 330.45009,76.789573 c 0.76538,2e-6 1.34775,-0.29189 1.74709,-0.875676 0.40598,-0.583782 0.60898,-1.431657 0.60899,-2.543632 -1e-5,-1.111963 -0.20301,-1.95984 -0.60899,-2.543632 -0.39934,-0.583776 -0.98171,-0.875666 -1.74709,-0.875679 -0.7654,1.3e-5 -1.35441,0.29538 -1.76705,0.886102 -0.406,0.583794 -0.609,1.428194 -0.60899,2.533209 -10e-6,1.105024 0.20299,1.952902 0.60899,2.543632 0.41264,0.583786 1.00165,0.875678 1.76705,0.875676 m -2.37604,-7.557923 c 0.49251,-0.681069 1.03826,-1.181457 1.63727,-1.50116 0.59899,-0.326628 1.28785,-0.48995 2.06656,-0.489962 1.37769,1.2e-5 2.50914,0.573371 3.39435,1.72008 0.88518,1.139778 1.32777,2.609663 1.32779,4.409657 -2e-5,1.800005 -0.44261,3.273366 -1.32779,4.420082 -0.88521,1.139769 -2.01666,1.709653 -3.39435,1.709653 -0.77871,0 -1.46757,-0.159845 -2.06656,-0.479537 -0.59901,-0.326642 -1.14476,-0.830502 -1.63727,-1.511585 v 1.688806 h -4.10438 V 62.976817 h 4.10438 v 6.254833"
       id="text2849"
       style="font-style:normal;font-weight:normal;font-size:10.17865562px;font-family:'Bitstream Vera Sans';fill:#000000;fill-opacity:1;stroke:none" />
    <path
       d="m 317.69672,83.908892 c -0.66033,1.452666 -1.57391,2.559251 -2.74074,3.319762 -1.16687,0.76051 -2.54629,1.140765 -4.13826,1.140765 -2.09853,0 -3.64528,-0.653696 -4.64027,-1.961094 -0.99499,-1.315936 -1.26635,-3.059131 -0.81408,-5.229583 0.46131,-2.178987 1.46534,-3.917908 3.01211,-5.216771 1.55579,-1.307381 3.38295,-1.96108 5.48148,-1.961092 0.91357,1.2e-5 1.80002,0.102554 2.65934,0.307621 0.86834,0.19655 1.71408,0.4999 2.53722,0.91005 l -0.73267,3.486392 h -1.45178 c 0.0633,-1.196301 -0.16735,-2.067896 -0.69197,-2.614794 -0.5156,-0.546872 -1.36586,-0.820315 -2.55079,-0.820325 -1.34777,1e-5 -2.47392,0.495625 -3.37845,1.486842 -0.89549,0.982692 -1.55128,2.456718 -1.96736,4.422077 -0.41609,1.96537 -0.38896,3.443667 0.0814,4.434892 0.47939,0.99123 1.3975,1.486844 2.75431,1.486842 1.07639,2e-6 1.98997,-0.264896 2.74074,-0.794692 0.7598,-0.529792 1.37036,-1.328755 1.83169,-2.396892 h 2.00807"
       id="text2853"
       style="font-style:normal;font-weight:normal;font-size:17.54367638px;font-family:'Bitstream Vera Sans';fill:#000000;fill-opacity:1;stroke:none" />
    <g
       id="g44"
       transform="matrix(0.186703,0,0,0.186703,281.8927,183.62299)" />
    <path
       d="m 315.75584,135.55372 c -1.31417,0 -2.22466,0.13256 -2.73146,0.39767 -0.50681,0.26512 -0.76022,0.71737 -0.76022,1.35676 0,0.50943 0.18858,0.9149 0.56574,1.2164 0.38305,0.29631 0.90165,0.44446 1.55579,0.44446 0.90164,0 1.62354,-0.28071 2.16572,-0.84213 0.54805,-0.56661 0.82208,-1.31777 0.82209,-2.25347 v -0.31969 h -1.61766 M 319,134.96111 v 4.98258 h -1.6265 v -1.32557 c -0.37128,0.53023 -0.83388,0.9227 -1.38783,1.17742 -0.55396,0.24952 -1.23167,0.37428 -2.03313,0.37428 -1.01362,0 -1.82097,-0.24952 -2.42207,-0.74856 -0.59521,-0.50424 -0.89281,-1.17742 -0.89281,-2.01954 0,-0.98248 0.37127,-1.72324 1.1138,-2.22228 0.74842,-0.49903 1.86222,-0.74855 3.3414,-0.74856 h 2.28064 v -0.14035 c -10e-6,-0.66018 -0.24752,-1.16961 -0.74253,-1.5283 -0.48914,-0.36388 -1.17863,-0.54582 -2.06849,-0.54583 -0.56574,1e-5 -1.11675,0.0598 -1.65302,0.17935 -0.53628,0.11957 -1.05192,0.29891 -1.54694,0.53802 v -1.32557 c 0.5952,-0.20272 1.17272,-0.35348 1.73257,-0.45225 0.55985,-0.10396 1.10496,-0.15594 1.63535,-0.15595 1.43202,1e-5 2.50162,0.3275 3.2088,0.98248 0.70716,0.65499 1.06075,1.64787 1.06076,2.97863"
       id="path58"
       style="font-style:normal;font-weight:normal;font-size:22.27977753px;font-family:'Bitstream Vera Sans';fill:#000000;fill-opacity:1;stroke:none" />
    <path
       d="m 325.50134,144.27102 c 0.56913,0 1.00217,-0.21704 1.29912,-0.65114 0.30188,-0.43409 0.45282,-1.06457 0.45283,-1.89142 -10e-6,-0.82684 -0.15095,-1.45732 -0.45283,-1.89142 -0.29695,-0.43409 -0.72999,-0.65113 -1.29912,-0.65114 -0.56915,1e-5 -1.00713,0.21964 -1.31397,0.65889 -0.30189,0.43411 -0.45284,1.06199 -0.45283,1.88367 -10e-6,0.82169 0.15094,1.45216 0.45283,1.89142 0.30684,0.4341 0.74482,0.65114 1.31397,0.65114 m -1.7668,-5.61999 c 0.36622,-0.50644 0.77204,-0.87852 1.21746,-1.11625 0.4454,-0.24288 0.95763,-0.36432 1.53667,-0.36433 1.02444,1e-5 1.86577,0.42635 2.524,1.27904 0.65821,0.84752 0.98732,1.94051 0.98733,3.27897 -10e-6,1.33847 -0.32912,2.43404 -0.98733,3.28673 -0.65823,0.84752 -1.49956,1.27128 -2.524,1.27128 -0.57904,0 -1.09127,-0.11886 -1.53667,-0.35658 -0.44542,-0.24289 -0.85124,-0.61755 -1.21746,-1.124 v 1.25578 h -2.65763 V 134 h 2.65763 v 4.65103"
       id="path60"
       style="font-style:normal;font-weight:normal;font-size:10.17865562px;font-family:'Bitstream Vera Sans';fill:#000000;fill-opacity:1;stroke:none" />
    <path
       d="m 318.32859,149.6832 c -0.49101,1.08018 -1.17034,1.90303 -2.03798,2.46854 -0.86767,0.56551 -1.89339,0.84826 -3.07717,0.84826 -1.56044,0 -2.71059,-0.48608 -3.45045,-1.45825 -0.73987,-0.97852 -0.94165,-2.27474 -0.60535,-3.88866 0.34303,-1.62028 1.08962,-2.91332 2.23977,-3.87914 1.15688,-0.97216 2.51553,-1.45824 4.07598,-1.45825 0.67932,1e-5 1.33847,0.0763 1.97746,0.22874 0.64568,0.14616 1.27457,0.37172 1.88665,0.67671 l -0.54481,2.59244 h -1.07953 c 0.0471,-0.88955 -0.12444,-1.53766 -0.51454,-1.94433 -0.38339,-0.40665 -1.01564,-0.60998 -1.89674,-0.60999 -1.00219,1e-5 -1.83958,0.36855 -2.51218,1.1056 -0.66588,0.73072 -1.15352,1.82679 -1.46291,3.28822 -0.3094,1.46142 -0.28923,2.56067 0.0605,3.29774 0.35648,0.73706 1.03917,1.1056 2.04808,1.1056 0.80039,0 1.47972,-0.19698 2.03799,-0.59093 0.56498,-0.39395 1.01899,-0.98805 1.36202,-1.7823 h 1.49318"
       id="path62"
       style="font-style:normal;font-weight:normal;font-size:17.54367638px;font-family:'Bitstream Vera Sans';fill:#000000;fill-opacity:1;stroke:none" />
    <g
       id="g65"
       transform="matrix(0.186703,0,0,0.186703,281.8927,234.62299)" />
    <path
       d="m 311.87453,182.98349 c -0.86101,1e-5 -1.45754,0.0868 -1.78958,0.26055 -0.33205,0.17369 -0.49807,0.47 -0.49807,0.88891 0,0.33377 0.12355,0.59942 0.37066,0.79695 0.25096,0.19413 0.59073,0.2912 1.0193,0.2912 0.59073,0 1.06371,-0.18391 1.41893,-0.55174 0.35907,-0.37123 0.5386,-0.86337 0.53861,-1.47641 v -0.20946 h -1.05985 m 2.12549,-0.38826 v 3.26446 h -1.06564 v -0.86848 c -0.24325,0.34739 -0.54634,0.60453 -0.90927,0.77141 -0.36294,0.16348 -0.80696,0.24522 -1.33205,0.24522 -0.6641,0 -1.19306,-0.16348 -1.58688,-0.49044 -0.38996,-0.33036 -0.58494,-0.77141 -0.58494,-1.32315 0,-0.64369 0.24324,-1.12901 0.72973,-1.45597 0.49035,-0.32696 1.22008,-0.49043 2.18919,-0.49044 h 1.49422 v -0.0919 c -10e-6,-0.43254 -0.16217,-0.7663 -0.48649,-1.00131 -0.32047,-0.2384 -0.77221,-0.3576 -1.35522,-0.35761 -0.37066,1e-5 -0.73166,0.0392 -1.08301,0.1175 -0.35135,0.0783 -0.68919,0.19584 -1.01352,0.3525 v -0.86847 c 0.38996,-0.13282 0.76834,-0.23159 1.13514,-0.29631 0.3668,-0.0681 0.72394,-0.10217 1.07143,-0.10217 0.93822,0 1.639,0.21457 2.10232,0.64369 0.46332,0.42914 0.69498,1.07964 0.69499,1.95152"
       id="path79"
       style="font-style:normal;font-weight:normal;font-size:22.27977753px;font-family:'Bitstream Vera Sans';fill:#000000;fill-opacity:1;stroke:none" />
    <path
       d="m 318.05224,188.72906 c 0.37288,0 0.65659,-0.1422 0.85114,-0.42661 0.19779,-0.28441 0.29668,-0.69747 0.29669,-1.23921 -10e-6,-0.54172 -0.0989,-0.95479 -0.29669,-1.2392 -0.19455,-0.28441 -0.47826,-0.42661 -0.85114,-0.42662 -0.37289,1e-5 -0.65985,0.14391 -0.86088,0.43169 -0.19779,0.28442 -0.29669,0.69579 -0.29668,1.23413 -10e-6,0.53835 0.0989,0.95142 0.29668,1.23921 0.20103,0.28441 0.48799,0.42661 0.86088,0.42661 m -1.15756,-3.68207 c 0.23994,-0.3318 0.50582,-0.57558 0.79764,-0.73133 0.29182,-0.15913 0.62742,-0.2387 1.00679,-0.2387 0.67118,0 1.2224,0.27933 1.65366,0.83799 0.43124,0.55527 0.64686,1.27137 0.64687,2.14829 -10e-6,0.87693 -0.21563,1.59472 -0.64687,2.15338 -0.43126,0.55527 -0.98248,0.83291 -1.65366,0.83291 -0.37937,0 -0.71497,-0.0779 -1.00679,-0.23362 -0.29182,-0.15914 -0.5577,-0.40461 -0.79764,-0.73642 v 0.82276 h -1.74121 v -7.90249 h 1.74121 v 3.04723"
       id="path81"
       style="font-style:normal;font-weight:normal;font-size:10.17865562px;font-family:'Bitstream Vera Sans';fill:#000000;fill-opacity:1;stroke:none" />
    <path
       d="m 313.33942,191.8274 c -0.3217,0.70771 -0.76677,1.24682 -1.33524,1.61732 -0.56847,0.37051 -1.24049,0.55576 -2.01607,0.55576 -1.02236,0 -1.77591,-0.31847 -2.26064,-0.9554 -0.48474,-0.6411 -0.61695,-1.49035 -0.39661,-2.54775 0.22474,-1.06156 0.71389,-1.90873 1.46744,-2.54151 0.75795,-0.63693 1.64811,-0.9554 2.67047,-0.9554 0.44507,0 0.87693,0.05 1.29557,0.14986 0.42304,0.0958 0.83507,0.24354 1.23609,0.44336 l -0.35695,1.6985 h -0.70728 c 0.0308,-0.58281 -0.0815,-1.00744 -0.33711,-1.27387 -0.25119,-0.26643 -0.66542,-0.39965 -1.24269,-0.39965 -0.65661,0 -1.20524,0.24146 -1.64591,0.72436 -0.43627,0.47875 -0.75576,1.19686 -0.95846,2.15435 -0.20271,0.95749 -0.18949,1.67768 0.0397,2.16059 0.23355,0.48291 0.68083,0.72436 1.34184,0.72436 0.5244,0 0.96948,-0.12905 1.33524,-0.38716 0.37016,-0.2581 0.66761,-0.64734 0.89236,-1.16772 h 0.97829"
       id="path83"
       style="font-style:normal;font-weight:normal;font-size:17.54367638px;font-family:'Bitstream Vera Sans';fill:#000000;fill-opacity:1;stroke:none" />
    <g
       id="g86"
       transform="matrix(0.186703,0,0,0.186703,281.8927,276.62299)" />
    <path
       d="m 308.26247,224.98349 c -0.70385,1e-5 -1.1915,0.0868 -1.46294,0.26055 -0.27144,0.17369 -0.40716,0.47 -0.40716,0.88891 0,0.33377 0.101,0.59942 0.30301,0.79695 0.20515,0.19413 0.4829,0.2912 0.83325,0.2912 0.48291,0 0.86955,-0.18391 1.15994,-0.55174 0.29353,-0.37123 0.44029,-0.86337 0.4403,-1.47641 v -0.20946 h -0.8664 M 310,224.59523 v 3.26446 h -0.87113 v -0.86848 c -0.19885,0.34739 -0.44662,0.60453 -0.74331,0.77141 -0.29669,0.16348 -0.65966,0.24522 -1.08891,0.24522 -0.54288,0 -0.97529,-0.16348 -1.29723,-0.49044 -0.31879,-0.33036 -0.47818,-0.77141 -0.47818,-1.32315 0,-0.64369 0.19884,-1.12901 0.59654,-1.45597 0.40084,-0.32696 0.99738,-0.49043 1.78961,-0.49044 h 1.22148 v -0.0919 c -1e-5,-0.43254 -0.13257,-0.7663 -0.39769,-1.00131 -0.26198,-0.2384 -0.63126,-0.3576 -1.10786,-0.35761 -0.303,1e-5 -0.59812,0.0392 -0.88534,0.1175 -0.28722,0.0783 -0.56339,0.19584 -0.82852,0.3525 v -0.86847 c 0.31879,-0.13282 0.6281,-0.23159 0.92795,-0.29631 0.29984,-0.0681 0.5918,-0.10217 0.87587,-0.10217 0.76697,0 1.33983,0.21457 1.71859,0.64369 0.37875,0.42914 0.56812,1.07964 0.56813,1.95152"
       id="path92"
       style="font-style:normal;font-weight:normal;font-size:22.27977753px;font-family:'Bitstream Vera Sans';fill:#000000;fill-opacity:1;stroke:none" />
    <path
       d="m 314.05224,230.72906 c 0.37288,0 0.65659,-0.1422 0.85114,-0.42661 0.19779,-0.28441 0.29668,-0.69747 0.29669,-1.23921 -10e-6,-0.54172 -0.0989,-0.95479 -0.29669,-1.2392 -0.19455,-0.28441 -0.47826,-0.42661 -0.85114,-0.42662 -0.37289,1e-5 -0.65985,0.14391 -0.86088,0.43169 -0.19779,0.28442 -0.29669,0.69579 -0.29668,1.23413 -10e-6,0.53835 0.0989,0.95142 0.29668,1.23921 0.20103,0.28441 0.48799,0.42661 0.86088,0.42661 m -1.15756,-3.68207 c 0.23994,-0.3318 0.50582,-0.57558 0.79764,-0.73133 0.29182,-0.15913 0.62742,-0.2387 1.00679,-0.2387 0.67118,0 1.2224,0.27933 1.65366,0.83799 0.43124,0.55527 0.64686,1.27137 0.64687,2.14829 -10e-6,0.87693 -0.21563,1.59472 -0.64687,2.15338 -0.43126,0.55527 -0.98248,0.83291 -1.65366,0.83291 -0.37937,0 -0.71497,-0.0779 -1.00679,-0.23362 -0.29182,-0.15914 -0.5577,-0.40461 -0.79764,-0.73642 v 0.82276 h -1.74121 v -7.90249 h 1.74121 v 3.04723"
       id="path94"
       style="font-style:normal;font-weight:normal;font-size:10.17865562px;font-family:'Bitstream Vera Sans';fill:#000000;fill-opacity:1;stroke:none" />
  </g>
  <g
     transform="translate(-20,-27.99999)"
     style="display:inline"
     id="layer4">
    <g
       transform="matrix(1.1797915,0,0,1.1797915,-26.564197,-17.068348)"
       id="g220315">
      <g
         style="display:inline;enable-background:new"
         id="g4612"
         transform="translate(3.5956152e-8,-3.9999997)">
        <rect
           style="color:#000000;display:inline;overflow:visible;visibility:visible;opacity:0.26016259;fill:#000000;fill-opacity:1;fill-rule:nonzero;stroke:none;stroke-width:2;marker:none;filter:url(#filter220880);enable-background:accumulate"
           id="rect220862"
           width="200.5"
           height="24"
           x="47.5"
           y="222"
           rx="25.040651"
           ry="12"
           transform="matrix(0.85467923,0,0,0.68862801,21.471147,77.684522)" />
        <rect
           style="color:#000000;display:inline;overflow:visible;visibility:visible;opacity:0.26016259;fill:#000000;fill-opacity:1;fill-rule:nonzero;stroke:none;stroke-width:2;marker:none;filter:url(#filter4608-0-5);enable-background:accumulate"
           id="rect4550-5"
           width="200.5"
           height="24"
           x="47.5"
           y="222"
           rx="25.040651"
           ry="12"
           transform="matrix(0.94655935,0,0,0.68862801,7.8958598,80.83692)" />
        <rect
           transform="matrix(0.94655935,0,0,0.68862801,7.8958593,76.836915)"
           ry="12"
           rx="25.040651"
           y="222"
           x="47.5"
           height="24"
           width="200.5"
           id="rect4550"
           style="color:#000000;display:inline;overflow:visible;visibility:visible;opacity:0.26829266;fill:#000000;fill-opacity:1;fill-rule:nonzero;stroke:none;stroke-width:2;marker:none;filter:url(#filter4568-5);enable-background:accumulate" />
        <g
           clip-path="url(#clipPath4315-5)"
           id="g4288">
          <rect
             y="60.000126"
             x="56.000088"
             width="183.99991"
             style="display:inline;overflow:visible;visibility:visible;fill:url(#radialGradient220334);fill-opacity:1;fill-rule:evenodd;stroke:none;stroke-width:0.23381771;marker:none"
             ry="25.053387"
             rx="25.053392"
             id="rect11518-2"
             height="183.99988" />
          <rect
             y="60.00013"
             x="56.000088"
             width="183.99991"
             style="display:inline;overflow:visible;visibility:visible;fill:url(#radialGradient220336);fill-opacity:1;fill-rule:evenodd;stroke:none;stroke-width:0.23381771;marker:none;enable-background:new"
             ry="25.053387"
             rx="25.053392"
             id="rect11518-2-8"
             height="183.99988" />
          <path
             style="display:inline;overflow:visible;visibility:visible;fill:url(#linearGradient220338);fill-opacity:1;fill-rule:evenodd;stroke:none;stroke-width:0.23381771;marker:none;filter:url(#filter4105-9);enable-background:new"
             d="m 62,189.9375 v 30 C 62,230.59424 70.405762,239 81.0625,239 h 133.875 C 225.59424,239 234,230.59424 234,219.9375 v -30 C 234,200.59424 225.59424,209 214.9375,209 H 81.0625 C 70.405762,209 62,200.59424 62,189.9375 Z"
             id="path4060" />
          <path
             style="display:inline;overflow:visible;visibility:visible;fill:url(#radialGradient220340);fill-opacity:1;fill-rule:evenodd;stroke:none;stroke-width:0.23381771;marker:none;filter:url(#filter4155-4);enable-background:new"
             d="m 62,212.9375 v 6 C 62,229.59424 70.405762,238 81.0625,238 h 133.87499 c 10.65674,0 19.0625,-8.40576 19.0625,-19.0625 v -6 c 0,10.65674 -8.40576,19.0625 -19.0625,19.0625 H 81.0625 C 70.405762,232 62,223.59424 62,212.9375 Z"
             id="path4060-9"
             transform="matrix(1,0,0,-1,0,300.9375)" />
          <path
             style="color:#000000;display:inline;overflow:visible;visibility:visible;fill:url(#radialGradient220342);fill-opacity:1;fill-rule:nonzero;stroke:none;stroke-width:1;marker:none;filter:url(#filter4246-8);enable-background:accumulate"
             d="m 60,76 c -1.108,0 -2,0.892 -2,2 v 148 c 0,1.108 0.892,2 2,2 1.108,0 2,-0.892 2,-2 V 78 c 0,-1.108 -0.892,-2 -2,-2 z m 176,0 c -1.108,0 -2,0.892 -2,2 v 148 c 0,1.108 0.892,2 2,2 1.108,0 2,-0.892 2,-2 V 78 c 0,-1.108 -0.892,-2 -2,-2 z"
             id="rect4213" />
          <rect
             y="60.00013"
             x="56.000088"
             width="183.99991"
             style="display:inline;overflow:visible;visibility:visible;fill:none;stroke:url(#linearGradient220344);stroke-width:2;stroke-miterlimit:4;stroke-dasharray:none;marker:none;filter:url(#filter4321-3);enable-background:new"
             ry="25.053387"
             rx="25.053392"
             id="rect11518-2-8-3"
             height="183.99988" />
        </g>
      </g>
      <g
         id="g3469"
         style="display:inline;fill:url(#radialGradient220352);fill-opacity:1;enable-background:new">
        <text
           id="text3457"
           y="128.72559"
           x="101.02246"
           style="font-style:normal;font-variant:normal;font-weight:normal;font-stretch:normal;line-height:0%;font-family:'Liberation Sans';-inkscape-font-specification:'Liberation Sans';fill:url(#radialGradient220346);fill-opacity:1;stroke:none"
           xml:space="preserve"><tspan
             style="font-style:normal;font-variant:normal;font-weight:normal;font-stretch:normal;font-size:90px;line-height:1.25;font-family:'DejaVu Sans';-inkscape-font-specification:'DejaVu Sans';fill:url(#radialGradient220346);fill-opacity:1"
             y="128.72559"
             x="101.02246"
             id="tspan3459">a</tspan></text>
        <text
           id="text3461"
           y="174.37891"
           x="156.44141"
           style="font-style:normal;font-variant:normal;font-weight:normal;font-stretch:normal;line-height:0%;font-family:'Liberation Sans';-inkscape-font-specification:'Liberation Sans';fill:url(#radialGradient220348);fill-opacity:1;stroke:none"
           xml:space="preserve"><tspan
             style="font-style:normal;font-variant:normal;font-weight:bold;font-stretch:normal;font-size:90px;line-height:1.25;font-family:'DejaVu Sans';-inkscape-font-specification:'DejaVu Sans Bold';fill:url(#radialGradient220348);fill-opacity:1"
             y="174.37891"
             x="156.44141"
             id="tspan3463">b</tspan></text>
        <text
           id="text3465"
           y="212.79688"
           x="80.851562"
           style="font-style:normal;font-variant:normal;font-weight:normal;font-stretch:normal;line-height:0%;font-family:'Liberation Sans';-inkscape-font-specification:'Liberation Sans';fill:url(#radialGradient220350);fill-opacity:1;stroke:none"
           xml:space="preserve"><tspan
             style="font-style:italic;font-variant:normal;font-weight:normal;font-stretch:normal;font-size:90px;line-height:1.25;font-family:'DejaVu Serif';-inkscape-font-specification:'DejaVu Serif Italic';fill:url(#radialGradient220350);fill-opacity:1"
             y="212.79688"
             x="80.851562"
             id="tspan3467">C</tspan></text>
      </g>
    </g>
  </g>
</svg>
