<?xml version="1.0" encoding="UTF-8" standalone="no"?>
<svg
   xmlns:dc="http://purl.org/dc/elements/1.1/"
   xmlns:cc="http://creativecommons.org/ns#"
   xmlns:rdf="http://www.w3.org/1999/02/22-rdf-syntax-ns#"
   xmlns:svg="http://www.w3.org/2000/svg"
   xmlns="http://www.w3.org/2000/svg"
   xmlns:xlink="http://www.w3.org/1999/xlink"
   width="32"
   version="1.0"
   style="display:inline;enable-background:new"
   id="svg11300"
   height="32">
  <title
     id="title8836">Optical Drive</title>
  <metadata
     id="metadata154">
    <rdf:RDF>
      <cc:Work
         rdf:about="">
        <dc:format>image/svg+xml</dc:format>
        <dc:type
           rdf:resource="http://purl.org/dc/dcmitype/StillImage" />
        <dc:title />
        <dc:creator>
          <cc:Agent>
            <dc:title />
          </cc:Agent>
        </dc:creator>
        <dc:contributor>
          <cc:Agent>
            <dc:title />
          </cc:Agent>
        </dc:contributor>
        <dc:source />
        <cc:license
           rdf:resource="" />
        <dc:subject>
          <rdf:Bag />
        </dc:subject>
      </cc:Work>
    </rdf:RDF>
  </metadata>
  <defs
     id="defs3">
    <linearGradient
       id="linearGradient2796">
      <stop
         style="stop-color:#2e3436;stop-opacity:1;"
         offset="0"
         id="stop2798" />
      <stop
         style="stop-color:#2e3436;stop-opacity:0;"
         offset="1"
         id="stop2800" />
    </linearGradient>
    <linearGradient
       id="linearGradient3052">
      <stop
         style="stop-color:#555753;stop-opacity:1"
         offset="0"
         id="stop3054" />
      <stop
         style="stop-color:#2e3436;stop-opacity:1"
         offset="1"
         id="stop3056" />
    </linearGradient>
    <linearGradient
       id="linearGradient3013">
      <stop
         style="stop-color:#2d2d2d;stop-opacity:1;"
         offset="0"
         id="stop3015" />
      <stop
         style="stop-color:white;stop-opacity:1"
         offset="1"
         id="stop3017" />
    </linearGradient>
    <linearGradient
       id="linearGradient2985">
      <stop
         style="stop-color:#555753;stop-opacity:1"
         offset="0"
         id="stop2987" />
      <stop
         style="stop-color:#555753;stop-opacity:0"
         offset="1"
         id="stop2989" />
    </linearGradient>
    <radialGradient
       xlink:href="#linearGradient2985"
       r="12.990843"
       id="radialGradient2991"
       gradientUnits="userSpaceOnUse"
       gradientTransform="matrix(0.551865,-0.07423106,0.05764729,0.428573,10.8571,24.32541)"
       fy="33.735012"
       fx="23.801941"
       cy="33.735012"
       cx="23.801941" />
    <linearGradient
       y2="42.721909"
       y1="15.6875"
       xlink:href="#linearGradient3013"
       x2="23.625"
       x1="22.625"
       id="linearGradient3011"
       gradientUnits="userSpaceOnUse" />
    <linearGradient
       y2="14.403073"
       y1="1.5140598"
       xlink:href="#linearGradient3013"
       x2="35.222755"
       x1="35.222755"
       id="linearGradient3019"
       gradientUnits="userSpaceOnUse" />
    <linearGradient
       y2="12.78336"
       y1="3.2925007"
       xlink:href="#linearGradient3013"
       x2="23.113552"
       x1="23.113552"
       id="linearGradient3027"
       gradientUnits="userSpaceOnUse" />
    <linearGradient
       y2="14.586771"
       y1="6.2158523"
       xlink:href="#linearGradient3013"
       x2="15.202796"
       x1="15.202796"
       id="linearGradient3035"
       gradientUnits="userSpaceOnUse" />
    <linearGradient
       y2="19.071247"
       y1="11.509477"
       xlink:href="#linearGradient3013"
       x2="8.3526993"
       x1="8.3526993"
       id="linearGradient3043"
       gradientUnits="userSpaceOnUse" />
    <radialGradient
       xlink:href="#linearGradient3052"
       r="17.994564"
       id="radialGradient3070"
       gradientUnits="userSpaceOnUse"
       gradientTransform="matrix(1.987042,-0.338101,0.124071,0.729175,-24.09973,13.29516)"
       fy="21.81378"
       fx="19.450382"
       cy="21.81378"
       cx="19.450382" />
    <radialGradient
       xlink:href="#linearGradient3052"
       r="17.994564"
       id="radialGradient3073"
       gradientUnits="userSpaceOnUse"
       gradientTransform="matrix(2.140448,-1.450766e-6,0,0.93766,-24.37707,2.17114)"
       fy="8.0827875"
       fx="18.107206"
       cy="8.0827875"
       cx="18.107206" />
    <radialGradient
       xlink:href="#linearGradient3052"
       r="17.994564"
       id="radialGradient3076"
       gradientUnits="userSpaceOnUse"
       gradientTransform="matrix(2.140448,-1.450766e-6,0,0.93766,-24.37707,2.17114)"
       fy="13.681828"
       fx="14.95366"
       cy="13.681828"
       cx="14.95366" />
    <radialGradient
       xlink:href="#linearGradient3052"
       r="17.994564"
       id="radialGradient3079"
       gradientUnits="userSpaceOnUse"
       gradientTransform="matrix(2.140448,-1.450766e-6,0,0.93766,-24.37707,2.17114)"
       fy="4.3500967"
       fx="21.494347"
       cy="4.3500967"
       cx="21.494347" />
    <radialGradient
       xlink:href="#linearGradient3052"
       r="17.994564"
       id="radialGradient3082"
       gradientUnits="userSpaceOnUse"
       gradientTransform="matrix(2.140448,-1.450766e-6,0,0.93766,-24.37707,2.17114)"
       fy="3.6835504"
       fx="25.640675"
       cy="3.6835504"
       cx="25.640675" />
    <linearGradient
       y2="41.193676"
       y1="18.389484"
       xlink:href="#linearGradient2796"
       x2="21.678997"
       x1="23.936737"
       id="linearGradient2802"
       gradientUnits="userSpaceOnUse" />
    <linearGradient
       y2="12.644369"
       y1="3.7170186"
       xlink:href="#linearGradient2796"
       x2="33.305901"
       x1="33.305901"
       id="linearGradient2804"
       gradientUnits="userSpaceOnUse" />
    <linearGradient
       y2="15.742812"
       y1="12.426562"
       xlink:href="#linearGradient2796"
       x2="33.129124"
       x1="33.129124"
       id="linearGradient2806"
       gradientUnits="userSpaceOnUse" />
    <radialGradient
       xlink:href="#linearGradient2985"
       r="12.990843"
       id="radialGradient2951"
       gradientUnits="userSpaceOnUse"
       gradientTransform="matrix(0.551865,-0.07423106,0.05764729,0.428573,10.8571,24.32541)"
       fy="33.735012"
       fx="23.801941"
       cy="33.735012"
       cx="23.801941" />
    <radialGradient
       xlink:href="#linearGradient3052"
       r="17.994564"
       id="radialGradient2971"
       gradientUnits="userSpaceOnUse"
       gradientTransform="matrix(1.318521,-0.233206,0.08232854,0.502949,-15.75139,8.601354)"
       fy="21.81378"
       fx="19.450382"
       cy="21.81378"
       cx="19.450382" />
    <radialGradient
       xlink:href="#linearGradient3052"
       r="17.994564"
       id="radialGradient2977"
       gradientUnits="userSpaceOnUse"
       gradientTransform="matrix(1.212095,-0.157025,0.08850433,0.498913,-16.28552,6.214977)"
       fy="13.681828"
       fx="14.95366"
       cy="13.681828"
       cx="14.95366" />
    <radialGradient
       xlink:href="#linearGradient3052"
       r="17.994564"
       id="radialGradient2980"
       gradientUnits="userSpaceOnUse"
       gradientTransform="matrix(1.440352,-9.61553e-7,0,0.621471,-16.69871,0.991345)"
       fy="4.3500967"
       fx="21.494347"
       cy="4.3500967"
       cx="21.494347" />
    <radialGradient
       xlink:href="#linearGradient3052"
       r="17.994564"
       id="radialGradient2983"
       gradientUnits="userSpaceOnUse"
       gradientTransform="matrix(1.248594,-8.927783e-7,0,0.577021,-10.92829,1.297625)"
       fy="3.6835504"
       fx="25.640675"
       cy="3.6835504"
       cx="25.640675" />
    <radialGradient
       xlink:href="#linearGradient3052"
       r="17.994564"
       id="radialGradient3036"
       gradientUnits="userSpaceOnUse"
       gradientTransform="matrix(1.258218,-8.874887e-7,0,0.573602,-14.18757,2.346228)"
       fy="8.0827875"
       fx="18.107206"
       cy="8.0827875"
       cx="18.107206" />
    <linearGradient
       y2="14.403073"
       y1="1.5140598"
       xlink:href="#linearGradient3013"
       x2="35.222755"
       x1="35.222755"
       id="linearGradient3097"
       gradientUnits="userSpaceOnUse" />
    <linearGradient
       y2="42.721909"
       y1="15.6875"
       xlink:href="#linearGradient3013"
       x2="23.625"
       x1="22.625"
       id="linearGradient3099"
       gradientUnits="userSpaceOnUse" />
    <linearGradient
       y2="12.78336"
       y1="3.2925007"
       xlink:href="#linearGradient3013"
       x2="23.113552"
       x1="23.113552"
       id="linearGradient3101"
       gradientUnits="userSpaceOnUse" />
    <linearGradient
       y2="19.071247"
       y1="11.509477"
       xlink:href="#linearGradient3013"
       x2="8.3526993"
       x1="8.3526993"
       id="linearGradient3112"
       gradientUnits="userSpaceOnUse" />
    <linearGradient
       y2="14.586771"
       y1="6.2158523"
       xlink:href="#linearGradient3013"
       x2="15.202796"
       x1="15.202796"
       id="linearGradient3116"
       gradientUnits="userSpaceOnUse" />
    <linearGradient
       id="linearGradient7320">
      <stop
         style="stop-color:#555753;stop-opacity:1;"
         offset="0"
         id="stop7322" />
      <stop
         style="stop-color:#2e3436;stop-opacity:1;"
         offset="1"
         id="stop7324" />
    </linearGradient>
    <linearGradient
       id="linearGradient6425">
      <stop
         style="stop-color:#2e3436;stop-opacity:1"
         offset="0"
         id="stop6427" />
      <stop
         style="stop-color:white;stop-opacity:1;"
         offset="1"
         id="stop6429" />
    </linearGradient>
    <linearGradient
       y2="7.9904466"
       y1="2.2893984"
       xlink:href="#linearGradient6425"
       x2="11.357903"
       x1="9.5459414"
       id="linearGradient6415"
       gradientUnits="userSpaceOnUse" />
    <linearGradient
       y2="21.690641"
       y1="9.0069132"
       xlink:href="#linearGradient6425"
       x2="8.3526993"
       x1="7.0268736"
       id="linearGradient6423"
       gradientUnits="userSpaceOnUse" />
    <radialGradient
       xlink:href="#linearGradient7320"
       r="6.0068936"
       id="radialGradient7326"
       gradientUnits="userSpaceOnUse"
       gradientTransform="matrix(2.51794,-0.532,0.266807,1.269268,-15.61017,0.966538)"
       fy="11.753805"
       fx="8.1685505"
       cy="11.753805"
       cx="8.1685505" />
    <radialGradient
       xlink:href="#linearGradient7320"
       r="2.9893067"
       id="radialGradient2797"
       gradientUnits="userSpaceOnUse"
       gradientTransform="matrix(1.596751,0,-2.402591e-8,1.530066,-9.546988,-1.510888)"
       fy="2.8881135"
       fx="16.192034"
       cy="2.8881135"
       cx="16.192034" />
    <linearGradient
       id="linearGradient2890">
      <stop
         style="stop-color:#555753;stop-opacity:1;"
         offset="0"
         id="stop2892" />
      <stop
         style="stop-color:#2e3436;stop-opacity:1"
         offset="1"
         id="stop2894" />
    </linearGradient>
    <linearGradient
       id="linearGradient2876">
      <stop
         style="stop-color:#555753;stop-opacity:1;"
         offset="0"
         id="stop2878" />
      <stop
         style="stop-color:white;stop-opacity:1;"
         offset="1"
         id="stop2880" />
    </linearGradient>
    <linearGradient
       y2="5.375"
       y1="2.65625"
       xlink:href="#linearGradient2876"
       x2="6.9375"
       x1="6.375"
       id="linearGradient2882"
       gradientUnits="userSpaceOnUse" />
    <linearGradient
       y2="15.158121"
       y1="6.1781015"
       xlink:href="#linearGradient2876"
       x2="9.1195116"
       x1="6.9311519"
       id="linearGradient2884"
       gradientUnits="userSpaceOnUse" />
    <radialGradient
       xlink:href="#linearGradient2890"
       r="4.5304475"
       id="radialGradient2896"
       gradientUnits="userSpaceOnUse"
       gradientTransform="matrix(2.63495,-0.40007,0.14964,0.985565,-10.9316,2.500836)"
       fy="8.5116825"
       fx="5.8949537"
       cy="8.5116825"
       cx="5.8949537" />
    <linearGradient
       y2="12.644369"
       x2="33.305901"
       y1="3.7170186"
       x1="33.305901"
       gradientUnits="userSpaceOnUse"
       id="linearGradient996658"
       xlink:href="#linearGradient2796" />
    <linearGradient
       y2="12.644369"
       x2="33.305901"
       y1="3.7170186"
       x1="33.305901"
       gradientUnits="userSpaceOnUse"
       id="linearGradient996660"
       xlink:href="#linearGradient2796" />
  </defs>
  <g
     transform="translate(-303,-126)"
     style="display:none"
     id="layer6">
    <rect
       y="50"
       x="296"
       width="48"
       style="display:inline;overflow:visible;visibility:visible;fill:#eeeeec;fill-opacity:1;fill-rule:nonzero;stroke:none;stroke-width:2;marker:none;enable-background:accumulate"
       id="rect6284"
       height="48" />
    <rect
       y="126"
       x="303"
       width="32"
       style="display:inline;overflow:visible;visibility:visible;fill:#eeeeec;fill-opacity:1;fill-rule:nonzero;stroke:none;stroke-width:2;marker:none;enable-background:accumulate"
       id="rect6592"
       height="32" />
    <rect
       y="177"
       x="303"
       width="22"
       style="display:inline;overflow:visible;visibility:visible;fill:#eeeeec;fill-opacity:1;fill-rule:nonzero;stroke:none;stroke-width:2;marker:none;enable-background:accumulate"
       id="rect6749"
       height="22" />
    <rect
       y="219"
       x="303"
       width="16"
       style="display:inline;overflow:visible;visibility:visible;fill:#eeeeec;fill-opacity:1;fill-rule:nonzero;stroke:none;stroke-width:2;marker:none;enable-background:accumulate"
       id="rect6833"
       height="16" />
    <text
       y="21.513618"
       xml:space="preserve"
       x="20.970737"
       style="font-style:normal;font-weight:normal;line-height:0%;font-family:'Bitstream Vera Sans';display:inline;fill:#000000;fill-opacity:1;stroke:none;enable-background:new"
       id="context"><tspan
         style="font-size:18.30070686px;line-height:1.25"
         y="21.513618"
         x="20.970737"
         id="tspan2716">places</tspan></text>
    <text
       y="21.513618"
       xml:space="preserve"
       x="191.97073"
       style="font-style:normal;font-variant:normal;font-weight:bold;font-stretch:normal;line-height:0%;font-family:'Droid Sans';-inkscape-font-specification:'Droid Sans Bold';text-align:start;writing-mode:lr-tb;text-anchor:start;display:inline;fill:#000000;fill-opacity:1;stroke:none;enable-background:new"
       id="icon-name"><tspan
         style="font-size:18.30070686px;line-height:1.25"
         y="21.513618"
         x="191.97073"
         id="tspan3023">start-here</tspan></text>
  </g>
  <g
     transform="translate(-303,-126)"
     style="display:inline"
     id="layer2">
    <g
       transform="translate(296,50)"
       style="display:inline;enable-background:new"
       id="g48">
      <g
         transform="translate(0,1)"
         style="opacity:0.5"
         id="g3045">
        <path
           style="fill:none;stroke:url(#linearGradient3019);stroke-width:1;stroke-linejoin:round;stroke-miterlimit:4;stroke-dasharray:none;stroke-opacity:1"
           id="path2997"
           d="m 37.84375,0.54882812 c -4.906083,0 -7.913346,3.64281208 -8.902344,7.19531248 -0.494499,1.7762502 -0.540876,3.5576814 -0.05078,5.0253904 0.490095,1.46771 1.729045,2.681641 3.390625,2.681641 1.661459,0 3.295515,-0.957447 4.837891,-2.253906 1.542375,-1.29646 2.970916,-2.98779 3.972656,-4.7226566 1.00174,-1.7348671 1.644708,-3.5166892 1.259765,-5.1601563 C 42.159091,2.4927196 41.64072,1.7274922 40.855469,1.2480469 40.070218,0.76860153 39.070311,0.54882813 37.84375,0.54882812 Z" />
        <path
           style="fill:none;stroke:url(#linearGradient3011);stroke-width:0.99999994;stroke-miterlimit:4;stroke-dasharray:none;stroke-opacity:1"
           id="path2995"
           d="m 27.501953,15.529297 c -3.680005,-0.06067 -7.836063,0.79396 -11.388672,2.585937 -3.549362,1.79034 -6.5040153,4.57433 -7.3769529,8.382813 -0.9636585,4.205201 0.9598441,8.838889 4.2265629,12.527344 3.258685,3.679384 7.900081,6.445312 12.849609,6.445312 2.570406,0 5.098005,-1.126586 7.208984,-2.839844 2.11098,-1.713257 3.837751,-4.076138 4.38086,-6.880859 0.100703,-0.519236 -0.0047,-1.425986 -0.265625,-1.871094 -0.414813,-0.70761 -0.898167,-0.915958 -1.316407,-1.107422 -1.144941,-0.524135 -2.210706,-0.54284 -3.478515,-0.419922 -1.219836,0.118268 -2.383035,0.390595 -3.417969,0.9375 -0.560226,0.296049 -0.920149,0.576609 -1.263672,0.998047 -0.06516,0.07994 -0.104421,0.124508 -0.177734,0.230469 -0.03666,0.05298 -0.07968,0.09428 -0.183594,0.324219 -0.103914,0.229934 -0.158226,1.076002 -0.158203,1.076172 0.156008,1.160732 -0.274973,1.86629 -0.818359,2.15625 -0.574304,0.306457 -1.479181,0.297783 -2.554688,-0.5 -0.955107,-0.708446 -1.344279,-1.27549 -1.464844,-1.703125 -0.09484,-0.33638 -0.0083,-0.756449 0.292969,-1.197266 0.729946,-1.068153 2.513358,-2.231645 4.701172,-3.548828 2.169424,-1.306111 4.566015,-2.697452 6.429687,-4.380859 C 34.63933,25.919662 35.427329,25.05557 35.970703,24 c 0.543375,-1.05557 0.780344,-2.336136 0.564453,-3.585938 -0.283022,-1.638406 -1.582884,-2.953255 -3.166015,-3.697265 -1.617983,-0.760389 -3.636491,-1.150724 -5.867188,-1.1875 z" />
        <path
           style="fill:none;stroke:url(#linearGradient3027);stroke-width:1;stroke-linejoin:round;stroke-miterlimit:4;stroke-dasharray:none;stroke-opacity:1"
           id="path2999"
           d="m 23.574219,2.5976562 c -1.51491,0.1842466 -2.662624,1.0212925 -3.289063,2.0996094 -0.626439,1.078317 -0.79583,2.3431573 -0.708984,3.5566406 0.08685,1.2134834 0.432046,2.3886468 0.986328,3.3398438 0.554282,0.951197 1.368684,1.778482 2.509766,1.84375 1.245722,0.07128 2.111668,-0.838537 2.767578,-1.849609 0.65591,-1.011072 1.142593,-2.2818994 1.382812,-3.572266 0.240219,-1.2903666 0.259625,-2.6059975 -0.273437,-3.7246094 -0.533063,-1.1186118 -1.83057,-1.8811285 -3.375,-1.6933594 z" />
        <path
           style="fill:none;stroke:url(#linearGradient3043);stroke-width:1;stroke-linejoin:round;stroke-miterlimit:4;stroke-dasharray:none;stroke-opacity:1"
           id="path3001"
           d="m 8.8457031,10.962891 c -0.6110673,-0.02139 -1.2037865,0.212395 -1.7265625,0.58789 a 0.97583383,0.97583383 0 0 0 -0.00195,0 c -1.0442823,0.750537 -1.5450896,1.89268 -1.5703125,2.978516 -0.025223,1.085836 0.3414284,2.126878 0.8671875,3.035156 0.5257591,0.908278 1.213049,1.688503 1.9824219,2.230469 0.7693728,0.541966 1.7339036,0.938947 2.6972656,0.498047 0.938304,-0.429618 1.204012,-1.35871 1.318359,-2.238281 0.114348,-0.879572 0.04587,-1.864934 -0.158203,-2.837891 C 12.049838,14.24384 11.712847,13.291412 11.195312,12.5 10.677778,11.708588 9.8951786,10.999628 8.8457031,10.962891 Z" />
        <path
           style="fill:none;stroke:url(#linearGradient3035);stroke-width:1;stroke-linejoin:round;stroke-miterlimit:4;stroke-dasharray:none;stroke-opacity:1"
           id="path3003"
           d="m 15.949219,5.609375 c -0.618454,-0.1493425 -1.272674,-0.05249 -1.904297,0.1972656 -1.269521,0.5020115 -2.080677,1.5228213 -2.361328,2.6171875 -0.280651,1.0943663 -0.119372,2.2306249 0.242187,3.2617189 0.36156,1.031094 0.929206,1.966858 1.628907,2.673828 0.6997,0.70697 1.602701,1.280117 2.664062,1.072266 1.025992,-0.20045 1.56126,-1.060578 1.890625,-1.921875 0.329365,-0.861298 0.483171,-1.869914 0.486328,-2.896485 C 18.59886,9.5867109 18.452357,8.5485196 18.072266,7.6367188 17.692174,6.7249179 17.006689,5.8647302 15.949219,5.609375 Z" />
      </g>
      <path
         style="fill:url(#radialGradient3082);fill-opacity:1;fill-rule:nonzero;stroke:#2e3436;stroke-width:1.00000048;stroke-miterlimit:4;stroke-dasharray:none"
         id="path4490"
         d="m 37.836287,2.5000004 c -8.885099,0 -10.551823,13.0000026 -5.553458,13.0000026 4.997643,0 14.438919,-13.0000026 5.553458,-13.0000026 z" />
      <path
         style="fill:url(#radialGradient3079);fill-opacity:1;fill-rule:nonzero;stroke:#2e3436;stroke-width:1.00000036;stroke-miterlimit:4;stroke-dasharray:none"
         id="path4492"
         d="m 23.118531,13.498207 c 2.679773,0.153342 5.619921,-9.5828262 0.583302,-8.970483 -5.0348,0.6123432 -3.264165,8.817142 -0.583302,8.970483 z" />
      <path
         style="fill:url(#radialGradient3076);fill-opacity:1;fill-rule:nonzero;stroke:#2e3436;stroke-width:1;stroke-miterlimit:4;stroke-dasharray:none"
         id="path4494"
         d="m 10.673889,20.408945 c 1.905915,-0.872654 0.245468,-9.408186 -2.9954244,-7.080348 -3.2394365,2.328216 1.0895089,7.952625 2.9954244,7.080348 z" />
      <path
         style="fill:url(#radialGradient3073);fill-opacity:1;fill-rule:nonzero;stroke:#2e3436;stroke-width:1;stroke-miterlimit:4;stroke-dasharray:none"
         id="path4496"
         d="m 16.043979,15.478633 c 2.268841,-0.443268 2.393212,-9.3615813 -1.652812,-7.7617068 -4.04675,1.6002216 -0.614213,8.2056698 1.652812,7.7617068 z" />
      <path
         style="fill:url(#radialGradient3070);fill-opacity:1;fill-rule:nonzero;stroke:#2e3436;stroke-width:0.99999994;stroke-miterlimit:4;stroke-dasharray:none"
         id="path4498"
         d="m 28.088174,36.787402 c 0.406855,3.027068 -2.279419,4.521983 -4.910198,2.570539 -8.374904,-6.212043 13.866533,-9.310724 12.400456,-17.797902 -1.216891,-7.04454 -23.402831,-4.875749 -25.9292301,6.146517 -1.7101166,7.455597 7.0392991,17.798617 16.1687401,17.798617 4.491216,0 9.671549,-3.950871 10.640724,-8.955884 0.740207,-3.816595 -8.710089,-2.287308 -8.370492,0.238113 z" />
      <path
         transform="translate(0,1)"
         style="opacity:0.7;fill:url(#radialGradient2991);fill-opacity:1;fill-rule:nonzero;stroke:none"
         id="path2981"
         d="m 27.490234,17.044922 c -3.416215,-0.05632 -7.414058,0.764767 -10.707031,2.425781 -3.292973,1.661014 -5.853619,4.131549 -6.595703,7.369141 -0.7974855,3.476797 0.862903,7.784521 3.890625,11.203125 3.027722,3.418603 7.375481,5.910156 11.734375,5.910156 4.172531,0 9.211007,-3.794271 10.121094,-8.494141 0.07249,-0.373744 0.01891,-0.611708 -0.09766,-0.810546 -0.116562,-0.198839 -0.323113,-0.377027 -0.638672,-0.521485 -0.631119,-0.288916 -1.661966,-0.390954 -2.712891,-0.289062 -1.050925,0.101891 -2.126147,0.398495 -2.865234,0.789062 -0.369544,0.195283 -0.651101,0.414206 -0.808594,0.607422 -0.157494,0.193216 -0.195455,0.328303 -0.175781,0.474609 0.226098,1.682213 -0.431725,3.079014 -1.597657,3.701172 -1.165931,0.622159 -2.735797,0.44119 -4.175781,-0.626953 -1.101983,-0.81739 -1.765925,-1.625345 -2.009766,-2.490234 -0.24384,-0.864889 -0.0063,-1.727753 0.496094,-2.462891 1.004746,-1.470277 2.997857,-2.684486 5.169922,-3.992187 2.172065,-1.307701 4.530269,-2.675445 6.212891,-4.195313 1.682621,-1.519868 2.652324,-3.098217 2.326172,-4.986328 -0.191814,-1.110407 -0.995587,-1.966708 -2.333985,-2.595703 -1.338398,-0.628996 -3.182676,-0.981832 -5.232422,-1.015625 z" />
      <g
         style="opacity:0.3;stroke:#2e3436"
         id="g2836">
        <path
           transform="translate(0,1)"
           style="fill:none;stroke:url(#linearGradient2802);stroke-width:0.99999994;stroke-miterlimit:4;stroke-dasharray:none;stroke-opacity:1"
           id="path2853"
           d="m 27.482422,17.515625 c -3.33604,-0.055 -7.27351,0.752463 -10.486328,2.373047 -3.212818,1.620583 -5.648294,3.996914 -6.34961,7.05664 -0.7479834,3.260985 0.82764,7.449981 3.783204,10.78711 2.955563,3.337129 7.200889,5.751953 11.382812,5.751953 3.898524,0 8.800874,-3.67773 9.660156,-8.115234 0.05526,-0.284901 0.01496,-0.386935 -0.04102,-0.482422 -0.05598,-0.09549 -0.17684,-0.216282 -0.429688,-0.332031 -0.505696,-0.2315 -1.476275,-0.346604 -2.472656,-0.25 -0.996381,0.0966 -2.027964,0.387688 -2.691406,0.738281 -0.331722,0.175296 -0.564254,0.365834 -0.664063,0.488281 -0.09981,0.122447 -0.07431,0.114555 -0.07422,0.115234 0.245592,1.827245 -0.488977,3.457803 -1.841797,4.179688 -1.352819,0.721884 -3.128669,0.481592 -4.675781,-0.666016 -1.149376,-0.852543 -1.898659,-1.729585 -2.183593,-2.740234 -0.284935,-1.010649 0.0087,-2.04503 0.5625,-2.855469 1.107662,-1.620877 3.137038,-2.817984 5.314453,-4.128906 2.177415,-1.310922 4.514778,-2.67204 6.140625,-4.140625 1.625846,-1.468585 2.469179,-2.873358 2.177734,-4.560547 -0.160558,-0.929466 -0.819252,-1.660097 -2.070312,-2.248047 -1.251061,-0.58795 -3.039361,-0.937703 -5.041016,-0.970703 z" />
        <path
           transform="translate(0,1)"
           style="color:#000000;display:inline;overflow:visible;visibility:visible;fill:none;stroke:url(#linearGradient996658);stroke-width:0.99999994;stroke-linecap:butt;stroke-linejoin:miter;stroke-miterlimit:4;stroke-dasharray:none;stroke-dashoffset:0;stroke-opacity:1;marker:none"
           id="path2920"
           d="m 37.84375,2.515625 c -3.947445,0 -6.194933,2.8289635 -7.009766,5.7558594 -0.407416,1.4634479 -0.396293,2.9221666 -0.07813,3.8749996 0.318168,0.952834 0.715849,1.337891 1.525391,1.337891 0.809298,0 2.22304,-0.657221 3.574219,-1.792969 1.351178,-1.135747 2.662662,-2.6915688 3.533203,-4.1992185 C 40.259213,5.9845378 40.616707,4.5287768 40.4375,3.7636719 40.347896,3.3811194 40.197346,3.1488292 39.832031,2.9257812 39.466716,2.7027333 38.830661,2.515625 37.84375,2.515625 Z" />
        <path
           transform="translate(0,1)"
           style="color:#000000;display:inline;overflow:visible;visibility:visible;fill:none;stroke:url(#linearGradient996660);stroke-width:0.99999994;stroke-linecap:butt;stroke-linejoin:miter;stroke-miterlimit:4;stroke-dasharray:none;stroke-dashoffset:0;stroke-opacity:1;marker:none"
           id="path2922"
           d="m 23.810547,4.5429688 c -0.980763,0.1192824 -1.471028,0.520623 -1.830078,1.1386718 -0.359051,0.6180489 -0.517093,1.5124936 -0.451172,2.4335938 0.06592,0.9211002 0.353805,1.8558543 0.724609,2.4921876 0.370805,0.636333 0.77027,0.865881 0.929688,0.875 0.04534,0.0026 0.533042,-0.218104 1.013672,-0.958984 C 24.677895,9.7825567 25.105733,8.6934849 25.298828,7.65625 25.491923,6.6190151 25.422105,5.6393707 25.181641,5.1347656 24.941176,4.6301605 24.760233,4.4275076 23.810547,4.5429688 Z" />
        <path
           transform="translate(0,1)"
           style="color:#000000;display:inline;overflow:visible;visibility:visible;fill:none;stroke:url(#linearGradient2806);stroke-width:0.99999994;stroke-linecap:butt;stroke-linejoin:miter;stroke-miterlimit:4;stroke-dasharray:none;stroke-dashoffset:0;stroke-opacity:1;marker:none"
           id="path2926"
           d="m 8.7773438,12.923828 c -0.089821,-0.0031 -0.2274958,0.01515 -0.5136719,0.220703 -0.5729038,0.411752 -0.7421477,0.839403 -0.7558594,1.429688 -0.013712,0.590284 0.2133128,1.333715 0.6035156,2.007812 0.3902029,0.674097 0.9396207,1.273791 1.4160157,1.609375 0.4763952,0.335585 0.7656632,0.311191 0.7500002,0.31836 -0.110099,0.05041 0.1144,-0.129722 0.189453,-0.707032 0.07505,-0.577309 0.03226,-1.394632 -0.132813,-2.18164 C 10.168917,14.834085 9.8771972,14.070386 9.5527344,13.574219 9.2282715,13.078051 8.9546368,12.930034 8.7773438,12.923828 Z" />
        <path
           transform="translate(0,1)"
           style="color:#000000;display:inline;overflow:visible;visibility:visible;fill:none;stroke:url(#linearGradient2804);stroke-width:0.99999994;stroke-linecap:butt;stroke-linejoin:miter;stroke-miterlimit:4;stroke-dasharray:none;stroke-dashoffset:0;stroke-opacity:1;marker:none"
           id="path2924"
           d="m 15.488281,7.515625 c -0.140497,-0.033927 -0.342678,-0.036969 -0.722656,0.1132812 -0.754048,0.2981763 -1.033324,0.7029068 -1.181641,1.28125 -0.148316,0.5783433 -0.07578,1.3649778 0.191407,2.1269528 0.267191,0.761976 0.721955,1.488766 1.171875,1.94336 0.449919,0.454594 0.82396,0.541546 0.896484,0.527343 -0.03298,0.0064 0.222394,-0.139866 0.435547,-0.697265 0.213153,-0.557399 0.352943,-1.381699 0.355469,-2.203125 0.0025,-0.821426 -0.133374,-1.6465292 -0.371094,-2.216797 -0.237721,-0.5702678 -0.504717,-0.8096384 -0.775391,-0.875 z" />
      </g>
    </g>
    <g
       transform="translate(303,126)"
       style="display:inline;enable-background:new"
       id="g32">
      <g
         style="opacity:0.5"
         id="g2826">
        <path
           transform="matrix(0.646681,0,0,0.671681,1.035749,0.130928)"
           style="fill:none;stroke:url(#linearGradient3097);stroke-width:1.51730716;stroke-linejoin:round;stroke-miterlimit:4;stroke-dasharray:none;stroke-opacity:1"
           id="path95"
           d="m 37.84375,0.54882812 c -4.906083,0 -7.913346,3.64281208 -8.902344,7.19531248 -0.494499,1.7762502 -0.540876,3.5576814 -0.05078,5.0253904 0.490095,1.46771 1.729045,2.681641 3.390625,2.681641 1.661459,0 3.295515,-0.957447 4.837891,-2.253906 1.542375,-1.29646 2.970916,-2.98779 3.972656,-4.7226566 1.00174,-1.7348671 1.644708,-3.5166892 1.259765,-5.1601563 C 42.159091,2.4927196 41.64072,1.7274922 40.855469,1.2480469 40.070218,0.76860153 39.070311,0.54882813 37.84375,0.54882812 Z" />
        <path
           transform="matrix(0.690717,0,0,0.700818,-0.361533,-0.382484)"
           style="fill:none;stroke:url(#linearGradient3099);stroke-width:1.43729961;stroke-miterlimit:4;stroke-dasharray:none;stroke-opacity:1"
           id="path97"
           d="m 27.501953,15.529297 c -3.680005,-0.06067 -7.836063,0.79396 -11.388672,2.585937 -3.549362,1.79034 -6.5040153,4.57433 -7.3769529,8.382813 -0.9636585,4.205201 0.9598441,8.838889 4.2265629,12.527344 3.258685,3.679384 7.900081,6.445312 12.849609,6.445312 2.570406,0 5.098005,-1.126586 7.208984,-2.839844 2.11098,-1.713257 3.837751,-4.076138 4.38086,-6.880859 0.100703,-0.519236 -0.0047,-1.425986 -0.265625,-1.871094 -0.414813,-0.70761 -0.898167,-0.915958 -1.316407,-1.107422 -1.144941,-0.524135 -2.210706,-0.54284 -3.478515,-0.419922 -1.219836,0.118268 -2.383035,0.390595 -3.417969,0.9375 -0.560226,0.296049 -0.920149,0.576609 -1.263672,0.998047 -0.06516,0.07994 -0.104421,0.124508 -0.177734,0.230469 -0.03666,0.05298 -0.07968,0.09428 -0.183594,0.324219 -0.103914,0.229934 -0.158226,1.076002 -0.158203,1.076172 0.156008,1.160732 -0.274973,1.86629 -0.818359,2.15625 -0.574304,0.306457 -1.479181,0.297783 -2.554688,-0.5 -0.955107,-0.708446 -1.344279,-1.27549 -1.464844,-1.703125 -0.09484,-0.33638 -0.0083,-0.756449 0.292969,-1.197266 0.729946,-1.068153 2.513358,-2.231645 4.701172,-3.548828 2.169424,-1.306111 4.566015,-2.697452 6.429687,-4.380859 C 34.63933,25.919662 35.427329,25.05557 35.970703,24 c 0.543375,-1.05557 0.780344,-2.336136 0.564453,-3.585938 -0.283022,-1.638406 -1.582884,-2.953255 -3.166015,-3.697265 -1.617983,-0.760389 -3.636491,-1.150724 -5.867188,-1.1875 z" />
        <path
           transform="matrix(0.738429,0,0,0.725615,-1.930358,-0.361311)"
           style="fill:none;stroke:url(#linearGradient3101);stroke-width:1.36613142;stroke-linejoin:round;stroke-miterlimit:4;stroke-dasharray:none;stroke-opacity:1"
           id="path99"
           d="m 23.574219,2.5976562 c -1.51491,0.1842466 -2.662624,1.0212925 -3.289063,2.0996094 -0.626439,1.078317 -0.79583,2.3431573 -0.708984,3.5566406 0.08685,1.2134834 0.432046,2.3886468 0.986328,3.3398438 0.554282,0.951197 1.368684,1.778482 2.509766,1.84375 1.245722,0.07128 2.111668,-0.838537 2.767578,-1.849609 0.65591,-1.011072 1.142593,-2.2818994 1.382812,-3.572266 0.240219,-1.2903666 0.259625,-2.6059975 -0.273437,-3.7246094 -0.533063,-1.1186118 -1.83057,-1.8811285 -3.375,-1.6933594 z" />
        <path
           transform="matrix(0.670709,-0.09294505,0.103826,0.626081,-3.69788,2.464307)"
           style="fill:none;stroke:url(#linearGradient3112);stroke-width:1.52575243;stroke-linejoin:round;stroke-miterlimit:4;stroke-dasharray:none;stroke-opacity:1"
           id="path101"
           d="m 8.8457031,10.962891 c -0.6110673,-0.02139 -1.2037865,0.212395 -1.7265625,0.58789 a 0.97583383,0.97583383 0 0 0 -0.00195,0 c -1.0442823,0.750537 -1.5450896,1.89268 -1.5703125,2.978516 -0.025223,1.085836 0.3414284,2.126878 0.8671875,3.035156 0.5257591,0.908278 1.213049,1.688503 1.9824219,2.230469 0.7693728,0.541966 1.7339036,0.938947 2.6972656,0.498047 0.938304,-0.429618 1.204012,-1.35871 1.318359,-2.238281 0.114348,-0.879572 0.04587,-1.864934 -0.158203,-2.837891 C 12.049838,14.24384 11.712847,13.291412 11.195312,12.5 10.677778,11.708588 9.8951786,10.999628 8.8457031,10.962891 Z" />
        <path
           transform="matrix(0.686999,0,0,0.704973,-1.432808,0.586176)"
           style="fill:none;stroke:url(#linearGradient3116);stroke-width:1.43693066;stroke-linejoin:round;stroke-miterlimit:4;stroke-dasharray:none;stroke-opacity:1"
           id="path103"
           d="m 15.949219,5.609375 c -0.618454,-0.1493425 -1.272674,-0.05249 -1.904297,0.1972656 -1.269521,0.5020115 -2.080677,1.5228213 -2.361328,2.6171875 -0.280651,1.0943663 -0.119372,2.2306249 0.242187,3.2617189 0.36156,1.031094 0.929206,1.966858 1.628907,2.673828 0.6997,0.70697 1.602701,1.280117 2.664062,1.072266 1.025992,-0.20045 1.56126,-1.060578 1.890625,-1.921875 0.329365,-0.861298 0.483171,-1.869914 0.486328,-2.896485 C 18.59886,9.5867109 18.452357,8.5485196 18.072266,7.6367188 17.692174,6.7249179 17.006689,5.8647302 15.949219,5.609375 Z" />
      </g>
      <path
         style="fill:url(#radialGradient2983);fill-opacity:1;fill-rule:nonzero;stroke:#2e3436;stroke-width:1.00000048;stroke-miterlimit:4;stroke-dasharray:none"
         id="path105"
         d="m 25.362812,1.5000001 c -5.18297,0 -6.155226,7.9999981 -3.239514,7.9999981 2.915288,0 8.422697,-7.9999981 3.239514,-7.9999981 z" />
      <path
         style="fill:url(#radialGradient2980);fill-opacity:1;fill-rule:nonzero;stroke:#2e3436;stroke-width:1.00000048;stroke-miterlimit:4;stroke-dasharray:none"
         id="path107"
         d="m 15.262059,8.4988127 c 1.803274,0.1016336 3.781761,-6.3514021 0.392516,-5.945547 -3.388022,0.4058549 -2.196525,5.8439141 -0.392516,5.945547 z" />
      <path
         style="fill:url(#radialGradient2977);fill-opacity:1;fill-rule:nonzero;stroke:#2e3436;stroke-width:1.00000095;stroke-miterlimit:4;stroke-dasharray:none"
         id="path109"
         d="M 5.284619,13.347655 C 6.281533,12.743514 4.535598,8.3237128 2.920063,9.8000681 1.305389,11.276518 4.287668,13.951597 5.284619,13.347655 Z" />
      <path
         style="fill:url(#radialGradient2971);fill-opacity:1;fill-rule:nonzero;stroke:#2e3436;stroke-width:1.00000072;stroke-miterlimit:4;stroke-dasharray:none"
         id="path111"
         d="m 18.878404,24.805137 c 0.269972,2.087921 -1.512532,3.119039 -3.258211,1.773029 -5.557251,-4.284758 9.201275,-6.422074 8.228446,-12.276108 C 23.041157,9.4430839 8.319458,10.939009 6.6430409,18.54162 5.5082762,23.684121 11.314037,30.818222 17.371968,30.818222 c 2.980191,0 6.417652,-2.725114 7.060758,-6.177324 0.491172,-2.632497 -5.779666,-1.577671 -5.554322,0.164239 z" />
      <path
         transform="matrix(0.676806,0,0,0.68975,-0.243289,0.120764)"
         style="fill:url(#radialGradient2951);fill-opacity:1;fill-rule:nonzero;stroke:none"
         id="path113"
         d="m 27.490234,17.044922 c -3.416215,-0.05632 -7.414058,0.764767 -10.707031,2.425781 -3.292973,1.661014 -5.853619,4.131549 -6.595703,7.369141 -0.7974855,3.476797 0.862903,7.784521 3.890625,11.203125 3.027722,3.418603 7.375481,5.910156 11.734375,5.910156 4.172531,0 9.211007,-3.794271 10.121094,-8.494141 0.07249,-0.373744 0.01891,-0.611708 -0.09766,-0.810546 -0.116562,-0.198839 -0.323113,-0.377027 -0.638672,-0.521485 -0.631119,-0.288916 -1.661966,-0.390954 -2.712891,-0.289062 -1.050925,0.101891 -2.126147,0.398495 -2.865234,0.789062 -0.369544,0.195283 -0.651101,0.414206 -0.808594,0.607422 -0.157494,0.193216 -0.195455,0.328303 -0.175781,0.474609 0.226098,1.682213 -0.431725,3.079014 -1.597657,3.701172 -1.165931,0.622159 -2.735797,0.44119 -4.175781,-0.626953 -1.101983,-0.81739 -1.765925,-1.625345 -2.009766,-2.490234 -0.24384,-0.864889 -0.0063,-1.727753 0.496094,-2.462891 1.004746,-1.470277 2.997857,-2.684486 5.169922,-3.992187 2.172065,-1.307701 4.530269,-2.675445 6.212891,-4.195313 1.682621,-1.519868 2.652324,-3.098217 2.326172,-4.986328 -0.191814,-1.110407 -0.995587,-1.966708 -2.333985,-2.595703 -1.338398,-0.628996 -3.182676,-0.981832 -5.232422,-1.015625 z" />
      <path
         transform="matrix(0.660525,0,0,0.676067,0.328382,0.36574)"
         style="opacity:0.2;fill:none;stroke:#2e3436;stroke-width:1.49644375;stroke-linejoin:round;stroke-miterlimit:4;stroke-dasharray:none;stroke-opacity:1"
         id="path115"
         d="m 27.476562,17.896484 c -3.27096,-0.05393 -7.160838,0.744267 -10.308593,2.332032 -3.147755,1.587765 -5.482168,3.887384 -6.150391,6.802734 -0.707802,3.085806 0.800275,7.176271 3.697266,10.447266 2.89699,3.270994 7.059384,5.625 11.097656,5.625 3.676107,0 8.467113,-3.582103 9.285156,-7.806641 0.04127,-0.212784 0.01266,-0.207155 0.0059,-0.21875 -0.0068,-0.01159 -0.05782,-0.08529 -0.259766,-0.177734 -0.40389,-0.184895 -1.325237,-0.309108 -2.277344,-0.216797 -0.952107,0.09231 -1.94874,0.377167 -2.550781,0.695312 -0.30102,0.159073 -0.49389,0.329528 -0.546875,0.394532 -0.05298,0.065 0.02557,-0.06021 0.0098,-0.177735 0.261414,1.94497 -0.536497,3.763572 -2.041016,4.566406 -1.504519,0.802834 -3.447963,0.514845 -5.082031,-0.697265 -1.187845,-0.881078 -2.005927,-1.812442 -2.324219,-2.941406 -0.318292,-1.128965 0.01963,-2.302268 0.615234,-3.173829 1.191201,-1.743121 3.251836,-2.926697 5.433594,-4.240234 2.181758,-1.313537 4.500316,-2.670698 6.080078,-4.097656 1.579762,-1.426958 2.319914,-2.686841 2.056641,-4.210938 -0.135187,-0.782592 -0.675302,-1.41607 -1.855469,-1.970703 -1.180167,-0.554633 -2.922146,-0.901237 -4.884766,-0.933594 z" />
      <path
         transform="matrix(0.536273,0,0,0.581818,4.962887,0.845455)"
         style="opacity:0.2;fill:none;stroke:#2e3436;stroke-width:1.79024982;stroke-linejoin:round;stroke-miterlimit:4;stroke-dasharray:none;stroke-opacity:1"
         id="path117"
         d="m 37.84375,2.8300781 c -3.793895,0 -5.920096,2.700654 -6.707031,5.5273438 -0.393468,1.4133448 -0.372661,2.8190901 -0.08203,3.6894531 0.290629,0.870363 0.553495,1.123047 1.226562,1.123047 0.672803,0 2.05054,-0.608745 3.371094,-1.71875 1.320553,-1.110005 2.615317,-2.6459324 3.464844,-4.1171876 0.849526,-1.4712552 1.159925,-2.8755867 1.013671,-3.5 C 40.057733,3.5217777 39.966021,3.3753389 39.667969,3.1933594 39.369917,3.0113798 38.792276,2.8300781 37.84375,2.8300781 Z" />
      <path
         transform="matrix(0.512093,0,0,0.573981,3.481929,0.917149)"
         style="opacity:0.2;fill:none;stroke:#2e3436;stroke-width:1.84449363;stroke-linejoin:round;stroke-miterlimit:4;stroke-dasharray:none;stroke-opacity:1"
         id="path119"
         d="m 23.810547,4.5429688 c -0.980763,0.1192824 -1.471028,0.520623 -1.830078,1.1386718 -0.359051,0.6180489 -0.517093,1.5124936 -0.451172,2.4335938 0.06592,0.9211002 0.353805,1.8558543 0.724609,2.4921876 0.370805,0.636333 0.77027,0.865881 0.929688,0.875 0.04534,0.0026 0.533042,-0.218104 1.013672,-0.958984 C 24.677895,9.7825567 25.105733,8.6934849 25.298828,7.65625 25.491923,6.6190151 25.422105,5.6393707 25.181641,5.1347656 24.941176,4.6301605 24.760233,4.4275076 23.810547,4.5429688 Z" />
      <path
         transform="matrix(0.309204,-0.03309301,0.07589298,0.353447,-0.00895,6.218141)"
         style="opacity:0.2;fill:none;stroke:#2e3436;stroke-width:2.99075699;stroke-linejoin:round;stroke-miterlimit:4;stroke-dasharray:none;stroke-opacity:1"
         id="path121"
         d="m 8.7773438,12.923828 c -0.089821,-0.0031 -0.2274958,0.01515 -0.5136719,0.220703 -0.5729038,0.411752 -0.7421477,0.839403 -0.7558594,1.429688 -0.013712,0.590284 0.2133128,1.333715 0.6035156,2.007812 0.3902029,0.674097 0.9396207,1.273791 1.4160157,1.609375 0.4763952,0.335585 0.7656632,0.311191 0.7500002,0.31836 -0.110099,0.05041 0.1144,-0.129722 0.189453,-0.707032 0.07505,-0.577309 0.03226,-1.394632 -0.132813,-2.18164 C 10.168917,14.834085 9.8771972,14.070386 9.5527344,13.574219 9.2282715,13.078051 8.9546368,12.930034 8.7773438,12.923828 Z" />
      <path
         style="fill:url(#radialGradient3036);fill-opacity:1;fill-rule:nonzero;stroke:#2e3436;stroke-width:1.00000048;stroke-miterlimit:4;stroke-dasharray:none"
         id="path123"
         d="M 9.573106,10.48693 C 10.906798,10.215766 10.979907,4.7600932 8.6015353,5.7387975 6.2227372,6.7177142 8.240483,10.758519 9.573106,10.48693 Z" />
      <path
         transform="matrix(0.321739,0,0,0.498527,4.151064,2.769207)"
         style="opacity:0.2;fill:none;stroke:#2e3436;stroke-width:2.49691343;stroke-linejoin:round;stroke-miterlimit:4;stroke-dasharray:none;stroke-opacity:1"
         id="path125"
         d="m 15.488281,7.515625 c -0.140497,-0.033927 -0.342678,-0.036969 -0.722656,0.1132812 -0.754048,0.2981763 -1.033324,0.7029068 -1.181641,1.28125 -0.148316,0.5783433 -0.07578,1.3649778 0.191407,2.1269528 0.267191,0.761976 0.721955,1.488766 1.171875,1.94336 0.449919,0.454594 0.82396,0.541546 0.896484,0.527343 -0.03298,0.0064 0.222394,-0.139866 0.435547,-0.697265 0.213153,-0.557399 0.352943,-1.381699 0.355469,-2.203125 0.0025,-0.821426 -0.133374,-1.6465292 -0.371094,-2.216797 -0.237721,-0.5702678 -0.504717,-0.8096384 -0.775391,-0.875 z" />
    </g>
    <g
       transform="translate(303,177)"
       style="display:inline;enable-background:new"
       id="g22">
      <g
         style="opacity:0.5"
         id="g6431">
        <path
           style="fill:url(#linearGradient6415);fill-opacity:1;fill-rule:nonzero;stroke:none"
           id="path5503"
           d="M 17.15625,0 C 15.253983,0 13.857109,0.97414707 13,2.1875 12.958886,2.0606843 12.907259,1.9393435 12.84375,1.8125 12.466236,1.0585137 11.455642,0.51567482 10.5,0.625 9.5772991,0.73059491 8.7943467,1.266873 8.375,1.9375 8.2517766,2.1345612 8.1696205,2.3257636 8.09375,2.53125 7.8772314,2.3282452 7.6305755,2.1426989 7.3125,2.0625 6.8933752,1.9568228 6.4571639,2.0263388 6.0625,2.1875 5.3035644,2.4974233 4.793101,3.1687933 4.625,3.84375 4.5044297,4.327862 4.5340397,4.8074 4.625,5.25 4.3657691,5.0831338 4.0318048,5.0097943 3.6875,5 3.3277786,4.9897672 2.9462731,5.0591422 2.625,5.25 2.0066895,5.6175427 1.6440084,6.3151112 1.625,6.9375 1.605992,7.5598888 1.8188477,8.0605355 2.125,8.5 c 0.3061523,0.4394645 0.7123698,0.8032991 1.15625,1.0625 0.4438802,0.2592009 0.9833491,0.492883 1.625,0.25 C 5.2718528,9.6740491 5.518003,9.3658312 5.65625,9.09375 5.794497,8.8216688 5.8520356,8.5792817 5.875,8.3125 5.8979644,8.0457183 5.8806931,7.774191 5.84375,7.5 6.230465,7.8399203 6.7442807,8.1026262 7.40625,7.96875 7.8606634,7.8770669 8.17632,7.5848724 8.375,7.3125 8.57368,7.0401276 8.6923845,6.7646582 8.78125,6.46875 8.7906736,6.4373709 8.8037178,6.4066195 8.8125,6.375 c 0.3443489,0.3872294 0.8059744,0.7160106 1.4375,0.75 0.925606,0.049838 1.603369,-0.7072845 2,-1.25 0.216538,0.8680438 1.09046,1.1591891 2.125,1.15625 2.527035,-0.00727 4.331744,-1.1828005 5,-2.28125 0.530958,-0.8727655 0.799916,-2.024983 0.53125,-3.0625 -0.134333,-0.5187585 -0.499471,-1.03122831 -1,-1.3125 C 18.405721,0.09372831 17.823941,0 17.15625,0 Z" />
        <path
           style="fill:url(#linearGradient6423);fill-opacity:1;fill-rule:nonzero;stroke:none"
           id="path5495"
           d="M 10.080078,7.1933594 C 8.5883933,7.4558129 7.0850047,8.0006081 5.8242188,8.8691406 4.5634328,9.7376731 3.5302953,10.96359 3.171875,12.53125 c -0.4877623,2.131844 0.3220067,4.43862 1.7753906,6.253906 1.453384,1.815287 3.6320758,3.19336 6.1152344,3.19336 2.585949,1e-6 5.312361,-1.858028 5.867188,-4.730469 0.07932,-0.410007 0.01845,-0.878647 -0.201172,-1.242188 -0.219626,-0.36354 -0.547263,-0.591541 -0.861328,-0.730468 -0.628131,-0.277856 -1.273378,-0.292814 -1.91211,-0.228516 -0.638731,0.0643 -1.259716,0.22325 -1.80664,0.509766 -0.273463,0.143257 -0.53436,0.31732 -0.761719,0.591797 -0.227359,0.274476 -0.418554,0.714167 -0.357422,1.169921 0.05721,0.426701 -0.0051,0.330081 0.01758,0.320313 0.02272,-0.0098 -0.225386,0.04847 -0.650391,-0.267578 -0.382586,-0.284495 -0.4559763,-0.468411 -0.4570309,-0.472656 -0.00105,-0.0042 -0.03739,0.03672 0.076172,-0.117188 0.227123,-0.307814 1.109997,-0.920552 2.150391,-1.523438 1.040393,-0.602885 2.232825,-1.254346 3.197265,-2.09375 0.96444,-0.839403 1.783408,-2.036998 1.539063,-3.4550776 -0.22528,-1.3074129 -1.387452,-2.0924923 -2.626953,-2.4316406 -1.239502,-0.3391484 -2.706572,-0.34592 -4.195313,-0.083984 z" />
      </g>
      <path
         transform="matrix(1,0,0,0.997444,0,0.05239347)"
         style="fill:url(#radialGradient7326);fill-opacity:1;fill-rule:nonzero;stroke:#2e3436;stroke-width:1.00128043;stroke-linejoin:round;stroke-miterlimit:4;stroke-dasharray:none"
         id="path1911"
         d="m 12.248047,8.4765625 c -0.606173,-0.010349 -1.257589,0.040747 -1.914063,0.15625 -1.3114894,0.2307492 -2.6382952,0.7226648 -3.6816402,1.4414065 -1.0433451,0.718741 -1.7948924,1.64691 -2.0546876,2.783203 -0.3504554,1.531722 0.2607248,3.473613 1.4921876,5.011719 1.2314627,1.538105 3.0419692,2.646484 4.9726562,2.646484 1.828913,1e-6 4.033435,-1.493446 4.429688,-3.544922 0.02478,-0.128113 0.0069,-0.168503 -0.01758,-0.208984 -0.02446,-0.04048 -0.07939,-0.09543 -0.199218,-0.148438 -0.23965,-0.10601 -0.70163,-0.156909 -1.173829,-0.109375 -0.472198,0.04753 -0.960871,0.184844 -1.27539,0.34961 -0.15726,0.08238 -0.267826,0.172225 -0.314453,0.228515 -0.04663,0.05629 -0.03037,0.04756 -0.03125,0.04102 0.112505,0.839162 -0.219051,1.587718 -0.855469,1.861328 -0.636418,0.27361 -1.401365,0.08124 -2.1015625,-0.439453 C 8.9881325,18.146864 8.6391716,17.731599 8.5195312,17.25 8.3998909,16.768401 8.5630546,16.287234 8.8398438,15.912109 9.393422,15.161859 10.376256,14.60376 11.431641,13.992188 12.487025,13.380615 13.617894,12.744995 14.404297,12.060547 15.1907,11.376098 15.5937,10.727532 15.460938,9.9570312 15.361861,9.3820438 14.835689,8.9485728 13.888672,8.6894531 13.415163,8.5598933 12.85422,8.4869117 12.248047,8.4765625 Z" />
      <path
         transform="matrix(0.996599,0,0,0.918839,0.03912288,0.446391)"
         style="fill:#555753;fill-opacity:1;fill-rule:nonzero;stroke:#2e3436;stroke-width:1.04500914;stroke-linejoin:round;stroke-miterlimit:4;stroke-dasharray:none"
         id="path2806"
         d="M 10.681641,2.2363281 C 10.171994,2.2946527 9.9104219,2.4962016 9.7285156,2.7871094 9.5466094,3.0780172 9.4682482,3.4931922 9.4980469,3.9238281 c 0.029799,0.430636 0.1702837,0.8674072 0.3535156,1.1660157 0.1832315,0.2986084 0.3787325,0.416084 0.4863285,0.421875 0.05596,0.00301 0.304453,-0.1163277 0.548828,-0.4667969 0.244374,-0.3504692 0.462745,-0.8623163 0.5625,-1.3496094 0.09975,-0.4872931 0.06716,-0.9421719 -0.04883,-1.1738281 -0.115988,-0.2316562 -0.223168,-0.3418508 -0.71875,-0.2851563 z" />
      <path
         style="fill:#555753;fill-opacity:1;fill-rule:nonzero;stroke:#2e3436;stroke-width:1;stroke-linejoin:round;stroke-miterlimit:4;stroke-dasharray:none"
         id="path2810"
         d="M 6.9609375,3.4980469 C 6.8934703,3.4810358 6.7951324,3.4785569 6.6230469,3.5488281 6.2637439,3.6955552 6.1264553,3.8973563 6.0527344,4.1933594 5.9790135,4.4893625 6.014913,4.8891056 6.1445312,5.2753906 6.2741495,5.6616756 6.4937669,6.029205 6.7109375,6.2578125 6.9281081,6.48642 7.1018525,6.5234226 7.1210938,6.5195312 c -0.01855,0.00374 0.00739,0.00401 0.064453,-0.074219 C 7.2426101,6.3670839 7.3125211,6.2230461 7.3671875,6.0410156 7.4765202,5.6769547 7.5269215,5.1668354 7.4882812,4.703125 7.449641,4.2394146 7.3102549,3.8259447 7.1621094,3.6425781 7.0880366,3.5508948 7.0284047,3.5150579 6.9609375,3.4980469 Z" />
      <path
         style="fill:#555753;fill-opacity:1;fill-rule:nonzero;stroke:#2e3436;stroke-width:1;stroke-linejoin:round;stroke-miterlimit:4;stroke-dasharray:none;stroke-opacity:1"
         id="path5469"
         d="M 3.8730469,6.4316406 C 3.7096441,6.3187903 3.6233874,6.2850485 3.34375,6.4511719 3.0511994,6.6250729 3.0002603,6.7644675 2.9941406,6.9648438 2.9880209,7.16522 3.0857875,7.451342 3.2734375,7.7207031 c 0.18765,0.2693611 0.4576713,0.5152 0.6992187,0.65625 0.2415475,0.14105 0.4283916,0.1426493 0.4492188,0.1347657 -0.013967,0.00529 -0.012865,0.01707 0.013672,-0.035156 0.026537,-0.052227 0.060302,-0.1598438 0.072266,-0.2988281 C 4.5317398,7.8997657 4.4779354,7.5068587 4.3554688,7.1660156 4.2330021,6.8251726 4.0364496,6.5444909 3.8730469,6.4316406 Z" />
      <path
         style="display:inline;fill:url(#radialGradient2797);fill-opacity:1;fill-rule:nonzero;stroke:#2e3436;stroke-width:1;stroke-miterlimit:4;stroke-dasharray:none"
         id="path1902"
         d="m 17.15625,1.5097656 c -1.605715,0 -2.950201,1.1401078 -3.439453,2.203125 -0.244626,0.5315086 -0.256656,0.9969642 -0.115235,1.2714844 0.141422,0.2745202 0.445673,0.5058594 1.242188,0.5058594 1.764764,0 3.031822,-1.1350662 3.464844,-2.1855469 0.216511,-0.5252403 0.209518,-0.9905956 0.05273,-1.2792969 -0.156783,-0.2887012 -0.46405,-0.515625 -1.205078,-0.515625 z" />
    </g>
    <g
       transform="translate(303,219)"
       style="display:inline;enable-background:new"
       id="g16">
      <g
         style="opacity:0.5"
         id="g2886">
        <path
           transform="matrix(0.999611,0,0,1.002225,0.00904504,-0.03559431)"
           style="fill:url(#linearGradient2884);fill-opacity:1;fill-rule:nonzero;stroke:none"
           id="path2848"
           d="M 7.4003906,5.1523438 C 6.289821,5.3378884 5.1581241,5.7146685 4.1894531,6.3339844 3.2207821,6.9533003 2.3876665,7.8562262 2.1035156,9.0546875 c -0.39501,1.6648335 0.3781832,3.3513215 1.5683594,4.6503905 1.1901762,1.299069 2.8885708,2.28125 4.765625,2.28125 1.0251404,0 2.009497,-0.405979 2.826172,-1.042969 0.816674,-0.636989 1.484441,-1.533241 1.703125,-2.625 0.0693,-0.345423 0.01618,-0.765088 -0.177735,-1.085937 -0.193913,-0.320849 -0.476174,-0.513789 -0.734374,-0.628906 -0.505538,-0.225391 -0.981898,-0.23026 -1.453126,-0.189454 0.308862,-0.202861 0.621704,-0.348767 0.904297,-0.5957026 0.701749,-0.613203 1.351923,-1.562753 1.152344,-2.6796875 C 12.46538,6.0595578 11.493296,5.4616186 10.546875,5.2148438 9.6004541,4.9680689 8.5121347,4.9666029 7.4003906,5.1523438 Z M 8.3613281,11.927734 C 8.3302863,12.062219 8.2339902,12.151862 8.25,12.296875 c -0.011356,9.27e-4 0.016545,0.02669 -0.1132812,-0.06641 -0.1047958,-0.07515 -0.06292,-0.03845 -0.097656,-0.07617 0.039591,-0.03882 0.2346865,-0.158483 0.3222656,-0.226563 z" />
        <path
           style="fill:url(#linearGradient2882);fill-opacity:1;fill-rule:nonzero;stroke:none"
           id="path2840"
           d="m 12.625,0 c -1.365949,0 -2.393969,0.7230467 -3,1.625 C 9.2639281,1.1508561 8.6037776,0.7966229 7.96875,0.875 7.2614789,0.96232512 6.6472899,1.4039588 6.34375,1.9375 6.3200591,1.9791422 6.3022344,2.0204487 6.28125,2.0625 6.0891212,1.9089876 5.855387,1.7830023 5.59375,1.71875 5.2449007,1.6330803 4.851866,1.6244243 4.53125,1.75 3.9199076,1.9894534 3.4843955,2.5426691 3.34375,3.09375 3.3027284,3.2544819 3.288595,3.4100517 3.28125,3.5625 3.1339069,3.5206518 2.9730261,3.4740274 2.8125,3.46875 2.470818,3.4575169 2.146683,3.5094275 1.875,3.6875 1.3588213,4.0260323 1.0131891,4.6500491 1,5.1875 0.98681092,5.7249509 1.1726828,6.1621692 1.40625,6.53125 1.6398172,6.9003308 1.9514395,7.2355628 2.3125,7.46875 2.6735605,7.7019372 3.1750117,7.9224876 3.8125,7.65625 4.1837647,7.5011298 4.4172849,7.2181476 4.53125,6.96875 4.6452151,6.7193524 4.6708777,6.4719745 4.6875,6.25 4.68908,6.22886 4.68629,6.208492 4.6875,6.1875 4.9482176,6.3182442 5.272605,6.3869188 5.65625,6.3125 6.0620994,6.23396 6.3590559,6.0092684 6.53125,5.78125 6.6173471,5.6672408 6.6944063,5.5522996 6.75,5.4375 7.0032696,5.7247077 7.3394025,5.9707144 7.84375,6 8.6942298,6.0494048 9.1233301,5.4763785 9.40625,5.03125 9.7635756,5.5701954 10.403805,6 11.125,6 12.866671,6 14.156169,4.7048719 14.71875,3.375 15.00004,2.7100641 15.128137,1.9643965 14.78125,1.21875 14.434364,0.47310345 13.553387,0 12.625,0 Z" />
      </g>
      <path
         style="fill:#555753;fill-opacity:1;fill-rule:nonzero;stroke:#2e3436;stroke-width:0.99639422;stroke-miterlimit:4;stroke-dasharray:none"
         id="path147"
         d="m 12.584774,1.4981912 c -2.223946,0 -2.641128,3.0036128 -1.390034,3.0036128 1.250914,0 3.614071,-3.0036128 1.390034,-3.0036128 z" />
      <path
         style="fill:#2e3436;fill-opacity:1;fill-rule:nonzero;stroke:none"
         id="path149"
         d="M 7.8980615,4.9993772 C 8.8171266,5.05265 9.8254911,1.6702087 8.0981127,1.8829428 6.3713584,2.0956769 6.9786221,4.946105 7.8980615,4.9993772 Z" />
      <path
         style="fill:#2e3436;fill-opacity:1;fill-rule:nonzero;stroke:none"
         id="path151"
         d="M 3.4277592,6.736009 C 4.0814192,6.4628997 3.5119459,3.791585 2.4004371,4.5201145 1.2894274,5.2487625 2.7740992,7.0090005 3.4277592,6.736009 Z" />
      <path
         style="fill:#2e3436;fill-opacity:1;fill-rule:nonzero;stroke:none"
         id="path153"
         d="M 5.4592103,5.3377869 C 6.2373407,5.1872032 6.2799953,2.1575436 4.8923554,2.7010405 3.5044662,3.2446552 4.6817024,5.4886065 5.4592103,5.3377869 Z" />
      <path
         style="fill:url(#radialGradient2896);fill-opacity:1;fill-rule:nonzero;stroke:#2e3436;stroke-width:1;stroke-linejoin:round;stroke-miterlimit:4;stroke-dasharray:none"
         id="path1934"
         d="M 9.015625,6.4960938 C 8.5828778,6.4892191 8.1149013,6.5226507 7.6425781,6.6015625 6.697355,6.7594824 5.7313307,7.0922051 4.9804688,7.5722656 4.2296068,8.0523262 3.7067353,8.6606726 3.5332031,9.3925781 3.3033468,10.361345 3.7963815,11.665627 4.7558594,12.712891 c 0.9594779,1.047263 2.3407825,1.802734 3.6816406,1.802734 0.609683,0 1.3332489,-0.273306 1.921875,-0.732422 0.588626,-0.459116 1.033206,-1.090865 1.166016,-1.753906 0.01183,-0.05899 0.0052,-0.04146 0.0078,-0.03711 0.0026,0.0044 -0.01059,-0.01764 -0.07617,-0.04688 -0.131159,-0.05848 -0.438315,-0.101042 -0.753906,-0.07226 -0.315591,0.02878 -0.64636,0.120292 -0.84375,0.220703 -0.098695,0.05021 -0.1604918,0.103345 -0.1738281,0.119141 -0.013336,0.01579 0.019139,-0.03845 0.011719,-0.0918 C 9.7869789,12.76637 9.4996682,13.37404 8.9921875,13.638672 8.4847068,13.903304 7.8328972,13.819413 7.28125,13.423828 6.884286,13.139178 6.606173,12.836776 6.4960938,12.458984 6.3860145,12.081193 6.5030909,11.686341 6.7050781,11.400391 7.1090526,10.828489 7.7939611,10.45014 8.5195312,10.027344 9.2451014,9.6045471 10.016791,9.1673095 10.539062,8.7109375 11.061334,8.2545655 11.294607,7.866691 11.210938,7.3984375 11.154828,7.0844297 10.840305,6.8094809 10.177734,6.6367188 9.8464492,6.5503377 9.4483722,6.5029684 9.015625,6.4960938 Z" />
    </g>
  </g>
  <g
     transform="translate(-303,-126)"
     style="display:inline"
     id="layer4" />
</svg>
