<?xml version="1.0" encoding="UTF-8" standalone="no"?>
<svg
   xmlns:dc="http://purl.org/dc/elements/1.1/"
   xmlns:cc="http://creativecommons.org/ns#"
   xmlns:rdf="http://www.w3.org/1999/02/22-rdf-syntax-ns#"
   xmlns:svg="http://www.w3.org/2000/svg"
   xmlns="http://www.w3.org/2000/svg"
   xmlns:xlink="http://www.w3.org/1999/xlink"
   style="display:inline;enable-background:new"
   version="1.0"
   id="svg11300"
   height="256"
   width="256">
  <title
     id="title3004">Yaru Icon Theme Template</title>
  <defs
     id="defs3">
    <linearGradient
       id="linearGradient10935">
      <stop
         style="stop-color:#319741;stop-opacity:1"
         offset="0"
         id="stop10931" />
      <stop
         style="stop-color:#0e8420;stop-opacity:1"
         offset="1"
         id="stop10933" />
    </linearGradient>
    <clipPath
       id="clipPath9430"
       clipPathUnits="userSpaceOnUse">
      <path
         style="color:#000000;display:inline;overflow:visible;visibility:visible;fill:#ffffff;fill-opacity:1;fill-rule:nonzero;stroke:none;stroke-width:1;marker:none;enable-background:new"
         d="m 166.0625,-196 h 179.875 C 491.2348,-196 512,-175.28677 512,-30.125 v 148.25 C 512,263.28618 491.2348,284 345.9375,284 H 166.0625 C 20.7652,284 0,263.28618 0,118.125 V -30.125 C 0,-175.28677 20.7652,-196 166.0625,-196 Z"
         id="path9432" />
    </clipPath>
    <clipPath
       id="clipPath1082"
       clipPathUnits="userSpaceOnUse">
      <path
         style="display:inline;opacity:1;fill:#8c59d9;fill-opacity:1;stroke:none;stroke-width:2;stroke-linecap:round;stroke-linejoin:round;stroke-miterlimit:4;stroke-dasharray:none;stroke-dashoffset:0;stroke-opacity:1;enable-background:new"
         d="M 361.9375,-212 C 507.2348,-212 528,-191.28677 528,-46.125 V 70.125 C 528,215.28618 507.2348,236 361.9375,236 H 214.0625 C 68.7652,236 48,215.28618 48,70.125 V -46.125 C 48,-191.28677 68.7652,-212 214.0625,-212 Z"
         id="path1084" />
    </clipPath>
    <linearGradient
       id="linearGradient927">
      <stop
         id="stop923"
         offset="0"
         style="stop-color:#ffffff;stop-opacity:1;" />
      <stop
         style="stop-color:#ffffff;stop-opacity:0.09803922"
         offset="0.125"
         id="stop933" />
      <stop
         style="stop-color:#ffffff;stop-opacity:0.09803922"
         offset="0.92500001"
         id="stop931" />
      <stop
         id="stop925"
         offset="1"
         style="stop-color:#ffffff;stop-opacity:0.49803922" />
    </linearGradient>
    <clipPath
       id="clipPath994"
       clipPathUnits="userSpaceOnUse">
      <path
         id="path996"
         d="m 335.73108,62 c -8.82418,0 -9.77365,0.90635 -9.7304,9.74838 V 84 96.25162 c -0.0433,8.84203 0.90622,9.74838 9.7304,9.74838 h 16.53919 c 8.82418,0 9.7304,-0.90625 9.7304,-9.74838 V 84 71.74838 C 362.00067,62.90625 361.09445,62 352.27027,62 Z"
         style="color:#000000;display:inline;overflow:visible;visibility:visible;fill:#cdcdcd;fill-opacity:1;fill-rule:nonzero;stroke:none;stroke-width:2;stroke-miterlimit:4;stroke-dasharray:none;stroke-opacity:1;marker:none;enable-background:accumulate" />
    </clipPath>
    <clipPath
       id="clipPath959"
       clipPathUnits="userSpaceOnUse">
      <path
         id="path961"
         d="m 330.1929,133.99999 c -5.61538,0 -6.21958,0.57678 -6.19206,6.20352 v 7.79648 7.79648 c -0.0276,5.62673 0.57668,6.20351 6.19206,6.20351 h 11.615 c 5.6154,0 6.19208,-0.5767 6.19208,-6.20351 v -7.79648 -7.79648 c 0,-5.6268 -0.5767,-6.20352 -6.19208,-6.20352 z"
         style="color:#000000;display:inline;overflow:visible;visibility:visible;opacity:1;fill:#46a926;fill-opacity:1;fill-rule:nonzero;stroke:none;stroke-width:2;stroke-miterlimit:4;stroke-dasharray:none;stroke-opacity:1;marker:none;enable-background:accumulate" />
    </clipPath>
    <clipPath
       id="clipPath971"
       clipPathUnits="userSpaceOnUse">
      <path
         id="path973"
         d="m 327.8652,189 c -4.41209,0 -4.88682,0.45318 -4.8652,4.87419 V 200 206.12581 C 322.9783,210.54682 323.45311,211 327.8652,211 h 8.2696 C 340.54689,211 341,210.54688 341,206.12581 V 200 193.87419 C 341,189.45313 340.54688,189 336.13479,189 Z"
         style="color:#000000;display:inline;overflow:visible;visibility:visible;opacity:1;fill:#46a926;fill-opacity:1;fill-rule:nonzero;stroke:none;stroke-width:2;stroke-miterlimit:4;stroke-dasharray:none;stroke-opacity:1;marker:none;enable-background:accumulate" />
    </clipPath>
    <clipPath
       id="clipPath983"
       clipPathUnits="userSpaceOnUse">
      <path
         style="color:#000000;display:inline;overflow:visible;visibility:visible;opacity:1;fill:#46a926;fill-opacity:1;fill-rule:nonzero;stroke:none;stroke-width:2;stroke-miterlimit:4;stroke-dasharray:none;stroke-opacity:1;marker:none;enable-background:accumulate"
         d="m 325.09646,237 c -2.80769,0 -3.10979,0.28839 -3.09603,3.10176 V 244 v 3.89824 c -0.0138,2.81337 0.28834,3.10176 3.09603,3.10176 h 5.8075 C 333.71166,251 334,250.71165 334,247.89824 V 244 240.10176 C 334,237.28836 333.71165,237 330.90396,237 Z"
         id="path985" />
    </clipPath>
    <linearGradient
       id="linearGradient4336-3">
      <stop
         id="stop4338-8"
         offset="0"
         style="stop-color:#5884f4;stop-opacity:1" />
      <stop
         style="stop-color:#5884f4;stop-opacity:1"
         offset="0.27800092"
         id="stop4344-3" />
      <stop
         id="stop4346-3"
         offset="0.27800092"
         style="stop-color:#2f5fdd;stop-opacity:1" />
      <stop
         style="stop-color:#2f5fdd;stop-opacity:1"
         offset="0.70735365"
         id="stop4350-1" />
      <stop
         style="stop-color:#234db8;stop-opacity:1"
         offset="0.70936078"
         id="stop4348-6" />
      <stop
         id="stop4340-0"
         offset="1"
         style="stop-color:#234db8;stop-opacity:1" />
    </linearGradient>
    <clipPath
       id="clipPath994-1"
       clipPathUnits="userSpaceOnUse">
      <path
         id="path996-8"
         d="m 335.73108,62 c -8.82418,0 -9.77365,0.90635 -9.7304,9.74838 V 84 96.25162 c -0.0433,8.84203 0.90622,9.74838 9.7304,9.74838 h 16.53919 c 8.82418,0 9.7304,-0.90625 9.7304,-9.74838 V 84 71.74838 C 362.00067,62.90625 361.09445,62 352.27027,62 Z"
         style="color:#000000;display:inline;overflow:visible;visibility:visible;fill:#cdcdcd;fill-opacity:1;fill-rule:nonzero;stroke:none;stroke-width:2;stroke-miterlimit:4;stroke-dasharray:none;stroke-opacity:1;marker:none;enable-background:accumulate" />
    </clipPath>
    <linearGradient
       gradientTransform="translate(-304,-311.99998)"
       gradientUnits="userSpaceOnUse"
       y2="268"
       x2="200"
       y1="44"
       x1="104"
       id="linearGradient11065"
       xlink:href="#linearGradient10935" />
    <linearGradient
       y2="188"
       x2="96"
       y1="4.0000062"
       x1="96"
       gradientTransform="matrix(0.23913043,0,0,0.23913032,321.04348,61.043494)"
       gradientUnits="userSpaceOnUse"
       id="linearGradient8590"
       xlink:href="#linearGradient927" />
    <linearGradient
       y2="292.76666"
       x2="38.099998"
       y1="249.69423"
       x1="13.735326"
       gradientTransform="matrix(0.94488193,0,0,0.94488229,-367.49999,-341.12993)"
       gradientUnits="userSpaceOnUse"
       id="linearGradient8588"
       xlink:href="#linearGradient10935" />
    <linearGradient
       y2="188"
       x2="96"
       y1="4.0000062"
       x1="96"
       gradientTransform="matrix(0.15217394,0,0,0.15217387,321.3913,133.39129)"
       gradientUnits="userSpaceOnUse"
       id="linearGradient8590-3"
       xlink:href="#linearGradient927" />
    <linearGradient
       y2="292.76666"
       x2="38.099998"
       y1="249.69423"
       x1="13.735326"
       gradientTransform="matrix(0.60892393,0,0,0.60892417,-351.14444,-313.70596)"
       gradientUnits="userSpaceOnUse"
       id="linearGradient8588-0"
       xlink:href="#linearGradient10935" />
    <linearGradient
       y2="188.00014"
       x2="95.999878"
       y1="3.9999957"
       x1="95.999878"
       gradientTransform="matrix(0.11956515,0,0,0.11956513,320.52176,188.52174)"
       gradientUnits="userSpaceOnUse"
       id="linearGradient8590-3-3"
       xlink:href="#linearGradient927" />
    <linearGradient
       y2="292.76666"
       x2="38.099998"
       y1="249.69423"
       x1="13.735326"
       gradientTransform="matrix(0.48293959,0,0,0.48293984,-344.01112,-331.42197)"
       gradientUnits="userSpaceOnUse"
       id="linearGradient8588-0-1"
       xlink:href="#linearGradient10935" />
    <linearGradient
       y2="188"
       x2="96"
       y1="4.0000062"
       x1="96"
       gradientTransform="matrix(0.0760869,0,0,0.07608688,320.69566,236.69567)"
       gradientUnits="userSpaceOnUse"
       id="linearGradient8590-3-3-4"
       xlink:href="#linearGradient927" />
    <linearGradient
       y2="292.76666"
       x2="38.099998"
       y1="249.69423"
       x1="13.735326"
       gradientTransform="matrix(0.31496064,0,0,0.31496077,-335.83331,-329.70993)"
       gradientUnits="userSpaceOnUse"
       id="linearGradient8588-0-1-5"
       xlink:href="#linearGradient10935" />
    <clipPath
       id="clipPath1348"
       clipPathUnits="userSpaceOnUse">
      <path
         style="display:inline;opacity:0.1;fill:#da1636;fill-opacity:1;stroke:none;stroke-width:2;stroke-linecap:round;stroke-linejoin:round;stroke-miterlimit:4;stroke-dasharray:none;stroke-dashoffset:0;stroke-opacity:1;enable-background:new"
         d="m 339.76513,135.56122 c 8.62214,1e-5 9.85437,1.23067 9.85437,9.85549 v 6.90662 c 0,8.62479 -1.23223,9.85549 -9.85437,9.85549 h -9.40807 c -8.62214,0 -9.85437,-1.2307 -9.85437,-9.85549 v -6.90663 c 0,-8.62482 1.23223,-9.85551 9.85437,-9.8555 z"
         id="path1350" />
    </clipPath>
    <clipPath
       id="clipPath1278"
       clipPathUnits="userSpaceOnUse">
      <path
         id="path1280"
         d="m 339.98751,134.06477 c 8.56743,0 9.79185,1.21924 9.79185,9.76386 v 7.47067 c 0,8.54459 -1.22442,9.76386 -9.79185,9.76386 h -9.97735 c -8.56744,0 -9.79186,-1.21927 -9.79186,-9.76386 v -7.47067 c 0,-8.54462 1.22442,-9.76386 9.79186,-9.76386 z"
         style="display:inline;opacity:0.1;fill:#da1636;fill-opacity:1;stroke:none;stroke-width:2;stroke-linecap:round;stroke-linejoin:round;stroke-miterlimit:4;stroke-dasharray:none;stroke-dashoffset:0;stroke-opacity:1;enable-background:new" />
    </clipPath>
    <clipPath
       id="clipPath1361"
       clipPathUnits="userSpaceOnUse">
      <path
         id="path1363"
         d="m 341.12109,133.5 c 9.08109,0 10.37891,1.29458 10.37891,10.36719 v 8.26562 c 0,9.07258 -1.29782,10.36719 -10.37891,10.36719 H 330.87891 C 321.79783,162.5 320.5,161.20539 320.5,152.13281 v -8.26562 c 0,-9.07261 1.29783,-10.36719 10.37891,-10.36719 z"
         style="display:inline;opacity:0.1;fill:#da1636;fill-opacity:1;stroke:none;stroke-width:2;stroke-linecap:round;stroke-linejoin:round;stroke-miterlimit:4;stroke-dasharray:none;stroke-dashoffset:0;stroke-opacity:1;enable-background:new" />
    </clipPath>
    <clipPath
       id="clipPath1221"
       clipPathUnits="userSpaceOnUse">
      <path
         style="display:inline;opacity:0.1;fill:#da1636;fill-opacity:1;stroke:none;stroke-width:2;stroke-linecap:round;stroke-linejoin:round;stroke-miterlimit:4;stroke-dasharray:none;stroke-dashoffset:0;stroke-opacity:1;enable-background:new"
         d="M 188.96875,44 C 261.6174,44 272,54.356615 272,126.9375 v 58.125 C 272,257.64309 261.6174,268 188.96875,268 h -73.9375 C 42.3826,268 32,257.64309 32,185.0625 v -58.125 C 32,54.356615 42.3826,44 115.03125,44 Z"
         id="path1223" />
    </clipPath>
    <clipPath
       id="clipPath1322"
       clipPathUnits="userSpaceOnUse">
      <path
         style="display:inline;opacity:0.1;fill:#da1636;fill-opacity:1;stroke:none;stroke-width:2;stroke-linecap:round;stroke-linejoin:round;stroke-miterlimit:4;stroke-dasharray:none;stroke-dashoffset:0;stroke-opacity:1;enable-background:new"
         d="m 339.2585,134.52626 c 8.67761,0 9.91777,1.24234 9.91777,9.94882 v 6.97244 c 0,8.70646 -1.24016,9.94882 -9.91777,9.94882 h -8.83154 c -8.67758,0 -9.91775,-1.24236 -9.91775,-9.94882 v -6.97244 c 0,-8.70648 1.24017,-9.94882 9.91777,-9.94882 z"
         id="path1324" />
    </clipPath>
    <clipPath
       id="clipPath1237"
       clipPathUnits="userSpaceOnUse">
      <path
         id="path1239"
         d="M 351.93164,62.5 C 365.55326,62.5 367.5,64.44187 367.5,78.05078 V 89.94922 C 367.5,103.55808 365.55326,105.5 351.93164,105.5 H 336.06836 C 322.44674,105.5 320.5,103.55808 320.5,89.94922 V 78.05078 C 320.5,64.44187 322.44674,62.5 336.06836,62.5 Z"
         style="opacity:1;fill:url(#linearGradient1241);fill-opacity:1;stroke:none;stroke-width:2;stroke-linecap:round;stroke-linejoin:round;stroke-miterlimit:4;stroke-dasharray:none;stroke-dashoffset:0;stroke-opacity:1" />
    </clipPath>
    <clipPath
       id="clipPath1205"
       clipPathUnits="userSpaceOnUse">
      <path
         id="path1207"
         d="m 341.12109,133.5 c 9.08109,0 10.37891,1.29458 10.37891,10.36719 v 8.26562 c 0,9.07258 -1.29782,10.36719 -10.37891,10.36719 H 330.87891 C 321.79783,162.5 320.5,161.20539 320.5,152.13281 v -8.26562 c 0,-9.07261 1.29783,-10.36719 10.37891,-10.36719 z"
         style="opacity:1;fill:#325fd1;fill-opacity:1;stroke:none;stroke-width:2;stroke-linecap:round;stroke-linejoin:round;stroke-miterlimit:4;stroke-dasharray:none;stroke-dashoffset:0;stroke-opacity:1" />
    </clipPath>
    <clipPath
       id="clipPath1231"
       clipPathUnits="userSpaceOnUse">
      <path
         style="opacity:1;fill:#325fd1;fill-opacity:1;stroke:none;stroke-width:2;stroke-linecap:round;stroke-linejoin:round;stroke-miterlimit:4;stroke-dasharray:none;stroke-dashoffset:0;stroke-opacity:1"
         d="m 335.71582,189.50031 c 6.81081,10e-6 7.78418,0.97093 7.78418,7.77539 v 5.44891 c 0,6.80444 -0.97337,7.77539 -7.78418,7.77539 h -7.43164 c -6.81081,0 -7.78418,-0.97095 -7.78418,-7.77539 v -5.44892 c 0,-6.80446 0.97337,-7.7754 7.78418,-7.77539 z"
         id="path1233" />
    </clipPath>
    <clipPath
       id="clipPath1225"
       clipPathUnits="userSpaceOnUse">
      <path
         style="opacity:1;fill:#325fd1;fill-opacity:1;stroke:none;stroke-width:2;stroke-linecap:round;stroke-linejoin:round;stroke-miterlimit:4;stroke-dasharray:none;stroke-dashoffset:0;stroke-opacity:1"
         d="m 330.31054,236.5 c 4.54055,0 5.18946,0.64729 5.18946,5.18359 v 3.63282 c 0,4.53629 -0.64891,5.18359 -5.18946,5.18359 h -4.62109 c -4.54053,0 -5.18945,-0.6473 -5.18945,-5.18359 v -3.63282 c 0,-4.5363 0.64892,-5.18359 5.18946,-5.18359 z"
         id="path1227" />
    </clipPath>
    <filter
       height="1.096"
       y="-0.048"
       width="1.096"
       x="-0.048"
       id="filter48952"
       style="color-interpolation-filters:sRGB">
      <feGaussianBlur
         id="feGaussianBlur48954"
         stdDeviation="4.48" />
    </filter>
    <filter
       height="1.024"
       y="-0.012"
       width="1.024"
       x="-0.012"
       id="filter48967"
       style="color-interpolation-filters:sRGB">
      <feGaussianBlur
         id="feGaussianBlur48969"
         stdDeviation="1.12" />
    </filter>
    <linearGradient
       id="linearGradient7537">
      <stop
         id="stop7539"
         offset="0"
         style="stop-color:#f37e40;stop-opacity:1" />
      <stop
         id="stop7541"
         offset="1"
         style="stop-color:#f34f17;stop-opacity:1" />
    </linearGradient>
    <filter
       height="1.0193846"
       y="-0.0096923076"
       width="1.0315"
       x="-0.01575"
       id="filter10875"
       style="color-interpolation-filters:sRGB">
      <feGaussianBlur
         id="feGaussianBlur10877"
         stdDeviation="0.52499999" />
    </filter>
    <filter
       height="1.019945"
       y="-0.0099725248"
       width="1.0301245"
       x="-0.015062248"
       id="filter10952"
       style="color-interpolation-filters:sRGB">
      <feGaussianBlur
         id="feGaussianBlur10954"
         stdDeviation="0.09265347" />
    </filter>
  </defs>
  <metadata
     id="metadata4">
    <rdf:RDF>
      <cc:Work
         rdf:about="">
        <dc:format>image/svg+xml</dc:format>
        <dc:type
           rdf:resource="http://purl.org/dc/dcmitype/StillImage" />
        <dc:creator>
          <cc:Agent>
            <dc:title>Yaru Team, based on the Suru template by Sam Hewitt and original Suru designs by Matthieu James</dc:title>
          </cc:Agent>
        </dc:creator>
        <dc:source />
        <cc:license
           rdf:resource="http://creativecommons.org/licenses/by-sa/4.0/" />
        <dc:title>Yaru Icon Theme Template</dc:title>
        <dc:subject>
          <rdf:Bag />
        </dc:subject>
        <dc:date />
        <dc:rights>
          <cc:Agent>
            <dc:title />
          </cc:Agent>
        </dc:rights>
        <dc:publisher>
          <cc:Agent>
            <dc:title />
          </cc:Agent>
        </dc:publisher>
        <dc:identifier />
        <dc:relation />
        <dc:language />
        <dc:coverage />
        <dc:description />
        <dc:contributor>
          <cc:Agent>
            <dc:title />
          </cc:Agent>
        </dc:contributor>
      </cc:Work>
      <cc:Work
         rdf:about="">
        <dc:format>image/svg+xml</dc:format>
        <dc:type
           rdf:resource="http://purl.org/dc/dcmitype/StillImage" />
      </cc:Work>
      <cc:License
         rdf:about="http://creativecommons.org/licenses/by-sa/4.0/">
        <cc:permits
           rdf:resource="http://creativecommons.org/ns#Reproduction" />
        <cc:permits
           rdf:resource="http://creativecommons.org/ns#Distribution" />
        <cc:requires
           rdf:resource="http://creativecommons.org/ns#Notice" />
        <cc:requires
           rdf:resource="http://creativecommons.org/ns#Attribution" />
        <cc:permits
           rdf:resource="http://creativecommons.org/ns#DerivativeWorks" />
        <cc:requires
           rdf:resource="http://creativecommons.org/ns#ShareAlike" />
      </cc:License>
    </rdf:RDF>
  </metadata>
  <g
     transform="translate(-24,-28)"
     id="layer1"
     style="display:inline">
    <g
       id="layer7"
       style="display:none">
      <text
         id="context"
         style="font-style:normal;font-variant:normal;font-weight:normal;font-stretch:normal;line-height:0%;font-family:'DejaVu Sans';-inkscape-font-specification:'DejaVu Sans';display:inline;fill:#000000;fill-opacity:1;stroke:none;enable-background:new"
         x="19.006836"
         xml:space="preserve"
         y="-8.2548828"><tspan
           id="tspan3933"
           x="19.006836"
           y="-8.2548828"
           style="font-style:normal;font-variant:normal;font-weight:normal;font-stretch:normal;font-size:18px;line-height:1.25;font-family:'DejaVu Sans';-inkscape-font-specification:'DejaVu Sans'">status</tspan></text>
      <text
         id="icon-name"
         style="font-style:normal;font-variant:normal;font-weight:bold;font-stretch:normal;line-height:0%;font-family:'DejaVu Sans';-inkscape-font-specification:'DejaVu Sans Bold';text-align:start;writing-mode:lr-tb;text-anchor:start;display:inline;fill:#000000;fill-opacity:1;stroke:none;enable-background:new"
         x="146.48828"
         xml:space="preserve"
         y="-8.2548828"><tspan
           id="tspan3937"
           x="146.48828"
           y="-8.2548828"
           style="font-style:normal;font-variant:normal;font-weight:bold;font-stretch:normal;font-size:18px;line-height:1.25;font-family:'DejaVu Sans';-inkscape-font-specification:'DejaVu Sans Bold'">software-update-available</tspan></text>
      <rect
         y="236"
         x="320"
         height="16"
         width="16"
         id="rect16x16"
         style="display:inline;overflow:visible;visibility:visible;fill:#cdcdcd;fill-opacity:1;fill-rule:nonzero;stroke:none;stroke-width:2;marker:none;enable-background:accumulate" />
      <rect
         y="188"
         x="320"
         height="24"
         width="24"
         id="rect24x24"
         style="display:inline;overflow:visible;visibility:visible;fill:#cdcdcd;fill-opacity:1;fill-rule:nonzero;stroke:none;stroke-width:2;marker:none;enable-background:accumulate" />
      <rect
         y="132"
         x="320"
         height="32"
         width="32"
         id="rect32x32"
         style="display:inline;overflow:visible;visibility:visible;fill:#cdcdcd;fill-opacity:1;fill-rule:nonzero;stroke:none;stroke-width:2;marker:none;enable-background:accumulate" />
      <rect
         style="display:inline;overflow:visible;visibility:visible;fill:#cdcdcd;fill-opacity:1;fill-rule:nonzero;stroke:none;stroke-width:2;marker:none;enable-background:accumulate"
         id="rect48x48"
         width="48"
         height="48"
         x="320"
         y="60" />
      <rect
         y="28"
         x="24"
         height="256"
         width="256"
         id="rect3951"
         style="display:inline;overflow:visible;visibility:visible;fill:#cdcdcd;fill-opacity:1;fill-rule:nonzero;stroke:none;stroke-width:2;marker:none;enable-background:accumulate" />
    </g>
    <g
       style="display:inline"
       id="layer8">
      <circle
         cx="152"
         cy="157"
         r="112"
         id="path11042-4"
         style="display:inline;opacity:0.1;fill:#000000;fill-opacity:1;stroke:none;stroke-width:1;stroke-linecap:round;stroke-linejoin:round;stroke-miterlimit:4;stroke-dasharray:none;stroke-opacity:1;filter:url(#filter48967);enable-background:new" />
      <circle
         cx="152"
         cy="157"
         r="112"
         id="path11042-9"
         style="display:inline;opacity:0.2;fill:#000000;fill-opacity:1;stroke:none;stroke-width:1;stroke-linecap:round;stroke-linejoin:round;stroke-miterlimit:4;stroke-dasharray:none;stroke-opacity:1;filter:url(#filter48952);enable-background:new" />
      <circle
         transform="scale(-1)"
         cx="-152"
         cy="-155.99998"
         r="112"
         id="path11042"
         style="display:inline;opacity:1;fill:url(#linearGradient11065);fill-opacity:1;stroke:none;stroke-width:1;stroke-linecap:round;stroke-linejoin:round;stroke-miterlimit:4;stroke-dasharray:none;stroke-opacity:1;enable-background:new" />
      <path
         d=""
         cx="152"
         cy="156"
         r="112"
         id="path11042-5"
         style="display:inline;opacity:1;fill:#ffffff;fill-opacity:1;stroke:none;stroke-width:1;stroke-linecap:round;stroke-linejoin:round;stroke-miterlimit:4;stroke-dasharray:none;stroke-opacity:1;enable-background:new" />
      <circle
         r="23"
         transform="scale(-1)"
         cy="-85.000015"
         cx="-344"
         id="path9498-0-0"
         style="display:inline;opacity:0.1;fill:#000000;fill-opacity:1;stroke:none;stroke-width:1.95437694;stroke-linecap:round;stroke-linejoin:round;stroke-miterlimit:4;stroke-dasharray:none;stroke-opacity:1;enable-background:new" />
      <circle
         transform="scale(-1)"
         r="22.5"
         cy="-84"
         cx="-344"
         id="path9498-6"
         style="display:inline;opacity:1;fill:url(#linearGradient8588);fill-opacity:1;stroke:none;stroke-width:1.86940372;stroke-linecap:round;stroke-linejoin:round;stroke-miterlimit:4;stroke-dasharray:none;stroke-opacity:1;enable-background:new" />
      <circle
         r="14.999996"
         transform="scale(-1)"
         cy="-149"
         cx="-336"
         id="path9498-0-0-2"
         style="display:inline;opacity:0.1;fill:#000000;fill-opacity:1;stroke:none;stroke-width:1.95437694;stroke-linecap:round;stroke-linejoin:round;stroke-miterlimit:4;stroke-dasharray:none;stroke-opacity:1;enable-background:new" />
      <circle
         transform="scale(-1)"
         r="14.5"
         cy="-148"
         cx="-336"
         id="path9498-6-5"
         style="display:inline;opacity:1;fill:url(#linearGradient8588-0);fill-opacity:1;stroke:none;stroke-width:1.86940372;stroke-linecap:round;stroke-linejoin:round;stroke-miterlimit:4;stroke-dasharray:none;stroke-opacity:1;enable-background:new" />
      <ellipse
         ry="11.476745"
         rx="11.999997"
         transform="scale(-1)"
         cy="-200.52327"
         cx="-332"
         id="path9498-0-0-2-3"
         style="display:inline;opacity:0.1;fill:#000000;fill-opacity:1;stroke:none;stroke-width:1.95437694;stroke-linecap:round;stroke-linejoin:round;stroke-miterlimit:4;stroke-dasharray:none;stroke-opacity:1;enable-background:new" />
      <ellipse
         transform="scale(-1)"
         ry="11.5"
         rx="11.499999"
         cy="-200"
         cx="-332"
         id="path9498-6-5-6"
         style="display:inline;opacity:1;fill:url(#linearGradient8588-0-1);fill-opacity:1;stroke:none;stroke-width:1.8694036;stroke-linecap:round;stroke-linejoin:round;stroke-miterlimit:4;stroke-dasharray:none;stroke-opacity:1;enable-background:new" />
      <ellipse
         ry="6.5"
         rx="6.9999981"
         transform="scale(-1)"
         cy="-244.5"
         cx="-328"
         id="path9498-0-0-2-3-3"
         style="display:inline;opacity:0.1;fill:#000000;fill-opacity:1;stroke:none;stroke-width:1.95437706;stroke-linecap:round;stroke-linejoin:round;stroke-miterlimit:4;stroke-dasharray:none;stroke-opacity:1;enable-background:new" />
      <circle
         transform="scale(-1)"
         r="7.5"
         cy="-244"
         cx="-328"
         id="path9498-6-5-6-8"
         style="display:inline;opacity:1;fill:url(#linearGradient8588-0-1-5);fill-opacity:1;stroke:none;stroke-width:1.86940384;stroke-linecap:round;stroke-linejoin:round;stroke-miterlimit:4;stroke-dasharray:none;stroke-opacity:1;enable-background:new" />
    </g>
    <g
       style="display:inline"
       id="layer6">
      <path
         id="rect12119"
         d="M 40,164 A 112.5345,114.39995 0 0 0 151.97753,268 112.5345,114.39995 0 0 0 264,164 Z"
         style="display:inline;opacity:0.1;fill:#ffffff;fill-opacity:1;stroke:none;stroke-width:10.75471401;stroke-linecap:round;stroke-linejoin:round;stroke-miterlimit:4;stroke-dasharray:none;stroke-opacity:1;enable-background:new" />
      <path
         id="rect12119-7"
         d="M 322.10848,86.000037 A 21.999999,21.99999 0 0 0 343.9996,106.00003 21.999999,21.99999 0 0 0 365.8995,86.000037 Z"
         style="display:inline;opacity:0.1;fill:#ffffff;fill-opacity:1;stroke:none;stroke-width:1.99999988;stroke-linecap:round;stroke-linejoin:round;stroke-miterlimit:4;stroke-dasharray:none;stroke-opacity:1;enable-background:new" />
      <path
         id="rect12119-0"
         d="m 321.40552,149.33338 a 14.666667,14.666661 0 0 0 14.59408,13.33334 14.666667,14.666661 0 0 0 14.59995,-13.33334 z"
         style="display:inline;opacity:0.1;fill:#ffffff;fill-opacity:1;stroke:none;stroke-width:1.33333325;stroke-linecap:round;stroke-linejoin:round;stroke-miterlimit:4;stroke-dasharray:none;stroke-opacity:1;enable-background:new" />
      <path
         id="rect12119-01"
         d="m 321.05404,201.00005 a 11,10.999995 0 0 0 10.94556,10 11,10.999995 0 0 0 10.94996,-10 z"
         style="display:inline;opacity:0.1;fill:#ffffff;fill-opacity:1;stroke:none;stroke-width:0.99999994;stroke-linecap:round;stroke-linejoin:round;stroke-miterlimit:4;stroke-dasharray:none;stroke-opacity:1;enable-background:new" />
      <path
         id="rect12119-6"
         d="m 320.70256,244.6667 a 7.3333329,7.3333299 0 0 0 7.29704,6.66666 7.3333329,7.3333299 0 0 0 7.29996,-6.66666 z"
         style="display:inline;opacity:0.1;fill:#ffffff;fill-opacity:1;stroke:none;stroke-width:0.66666663;stroke-linecap:round;stroke-linejoin:round;stroke-miterlimit:4;stroke-dasharray:none;stroke-opacity:1;enable-background:new" />
      <g
         transform="translate(1.25,-9.12675)"
         id="g10881">
        <path
           style="color:#000000;font-style:normal;font-variant:normal;font-weight:normal;font-stretch:normal;font-size:medium;line-height:normal;font-family:sans-serif;font-variant-ligatures:normal;font-variant-position:normal;font-variant-caps:normal;font-variant-numeric:normal;font-variant-alternates:normal;font-feature-settings:normal;text-indent:0;text-align:start;text-decoration:none;text-decoration-line:none;text-decoration-style:solid;text-decoration-color:#000000;letter-spacing:normal;word-spacing:normal;text-transform:none;writing-mode:lr-tb;direction:ltr;text-orientation:mixed;dominant-baseline:auto;baseline-shift:baseline;text-anchor:start;white-space:normal;shape-padding:0;clip-rule:nonzero;display:inline;overflow:visible;visibility:visible;opacity:0.1;isolation:auto;mix-blend-mode:normal;color-interpolation:sRGB;color-interpolation-filters:linearRGB;solid-color:#000000;solid-opacity:1;vector-effect:none;fill:#000000;fill-opacity:1;fill-rule:nonzero;stroke:none;stroke-width:1.54472721;stroke-linecap:butt;stroke-linejoin:miter;stroke-miterlimit:4;stroke-dasharray:none;stroke-dashoffset:0;stroke-opacity:1;marker:none;filter:url(#filter10875);color-rendering:auto;image-rendering:auto;shape-rendering:auto;text-rendering:auto;enable-background:accumulate"
           d="M 152.47725,90.999985 C 173.85976,123.90751 184.82056,158.53528 192,174.12673 h -24.25062 v 46.87325 H 137.20512 V 174.12673 H 112 c 7.17637,-15.59051 19.09474,-50.21891 40.47725,-83.126745 z"
           id="path913" />
        <path
           id="path10681"
           d="M 152.47725,90.000005 C 173.85976,122.90753 184.82056,157.5353 192,173.12675 H 167.74938 V 220 H 137.20512 V 173.12675 H 112 c 7.17637,-15.59051 19.09474,-50.21891 40.47725,-83.126745 z"
           style="color:#000000;font-style:normal;font-variant:normal;font-weight:normal;font-stretch:normal;font-size:medium;line-height:normal;font-family:sans-serif;font-variant-ligatures:normal;font-variant-position:normal;font-variant-caps:normal;font-variant-numeric:normal;font-variant-alternates:normal;font-feature-settings:normal;text-indent:0;text-align:start;text-decoration:none;text-decoration-line:none;text-decoration-style:solid;text-decoration-color:#000000;letter-spacing:normal;word-spacing:normal;text-transform:none;writing-mode:lr-tb;direction:ltr;text-orientation:mixed;dominant-baseline:auto;baseline-shift:baseline;text-anchor:start;white-space:normal;shape-padding:0;clip-rule:nonzero;display:inline;overflow:visible;visibility:visible;opacity:1;isolation:auto;mix-blend-mode:normal;color-interpolation:sRGB;color-interpolation-filters:linearRGB;solid-color:#000000;solid-opacity:1;vector-effect:none;fill:#f7f7f7;fill-opacity:1;fill-rule:nonzero;stroke:none;stroke-width:1.54472721;stroke-linecap:butt;stroke-linejoin:miter;stroke-miterlimit:4;stroke-dasharray:none;stroke-dashoffset:0;stroke-opacity:1;marker:none;color-rendering:auto;image-rendering:auto;shape-rendering:auto;text-rendering:auto;enable-background:accumulate" />
      </g>
      <g
         transform="translate(-0.73025536)"
         id="g10977">
        <path
           id="path10965"
           d="m 344.81833,72.090831 c 3.94595,5.644425 5.96867,11.583914 7.29357,14.258218 h -4.47524 v 8.03988 H 342 v -8.03988 h -4.65139 c 1.32433,-2.674143 3.52376,-8.613739 7.46972,-14.258218 z"
           style="color:#000000;font-style:normal;font-variant:normal;font-weight:normal;font-stretch:normal;font-size:medium;line-height:normal;font-family:sans-serif;font-variant-ligatures:normal;font-variant-position:normal;font-variant-caps:normal;font-variant-numeric:normal;font-variant-alternates:normal;font-feature-settings:normal;text-indent:0;text-align:start;text-decoration:none;text-decoration-line:none;text-decoration-style:solid;text-decoration-color:#000000;letter-spacing:normal;word-spacing:normal;text-transform:none;writing-mode:lr-tb;direction:ltr;text-orientation:mixed;dominant-baseline:auto;baseline-shift:baseline;text-anchor:start;white-space:normal;shape-padding:0;clip-rule:nonzero;display:inline;overflow:visible;visibility:visible;opacity:0.1;isolation:auto;mix-blend-mode:normal;color-interpolation:sRGB;color-interpolation-filters:linearRGB;solid-color:#000000;solid-opacity:1;vector-effect:none;fill:#000000;fill-opacity:1;fill-rule:nonzero;stroke:none;stroke-width:1.37413836;stroke-linecap:butt;stroke-linejoin:miter;stroke-miterlimit:4;stroke-dasharray:none;stroke-dashoffset:0;stroke-opacity:1;marker:none;filter:url(#filter10952);color-rendering:auto;image-rendering:auto;shape-rendering:auto;text-rendering:auto;enable-background:accumulate" />
        <path
           id="path10946"
           d="M 344.81833,71.741782 C 348.76428,77.386207 350.787,83.325696 352.1119,86 h -4.47524 v 8.03988 H 342 V 86 h -4.65139 c 1.32433,-2.674143 3.52376,-8.613739 7.46972,-14.258218 z"
           style="color:#000000;font-style:normal;font-variant:normal;font-weight:normal;font-stretch:normal;font-size:medium;line-height:normal;font-family:sans-serif;font-variant-ligatures:normal;font-variant-position:normal;font-variant-caps:normal;font-variant-numeric:normal;font-variant-alternates:normal;font-feature-settings:normal;text-indent:0;text-align:start;text-decoration:none;text-decoration-line:none;text-decoration-style:solid;text-decoration-color:#000000;letter-spacing:normal;word-spacing:normal;text-transform:none;writing-mode:lr-tb;direction:ltr;text-orientation:mixed;dominant-baseline:auto;baseline-shift:baseline;text-anchor:start;white-space:normal;shape-padding:0;clip-rule:nonzero;display:inline;overflow:visible;visibility:visible;opacity:1;isolation:auto;mix-blend-mode:normal;color-interpolation:sRGB;color-interpolation-filters:linearRGB;solid-color:#000000;solid-opacity:1;vector-effect:none;fill:#ffffff;fill-opacity:1;fill-rule:nonzero;stroke:none;stroke-width:1.37413836;stroke-linecap:butt;stroke-linejoin:miter;stroke-miterlimit:4;stroke-dasharray:none;stroke-dashoffset:0;stroke-opacity:1;marker:none;color-rendering:auto;image-rendering:auto;shape-rendering:auto;text-rendering:auto;enable-background:accumulate" />
      </g>
      <g
         id="g12547"
         transform="matrix(0.67110607,0,0,0.67110607,104.64943,91.618258)">
        <path
           style="color:#000000;font-style:normal;font-variant:normal;font-weight:normal;font-stretch:normal;font-size:medium;line-height:normal;font-family:sans-serif;font-variant-ligatures:normal;font-variant-position:normal;font-variant-caps:normal;font-variant-numeric:normal;font-variant-alternates:normal;font-feature-settings:normal;text-indent:0;text-align:start;text-decoration:none;text-decoration-line:none;text-decoration-style:solid;text-decoration-color:#000000;letter-spacing:normal;word-spacing:normal;text-transform:none;writing-mode:lr-tb;direction:ltr;text-orientation:mixed;dominant-baseline:auto;baseline-shift:baseline;text-anchor:start;white-space:normal;shape-padding:0;clip-rule:nonzero;display:inline;overflow:visible;visibility:visible;opacity:0.1;isolation:auto;mix-blend-mode:normal;color-interpolation:sRGB;color-interpolation-filters:linearRGB;solid-color:#000000;solid-opacity:1;vector-effect:none;fill:#000000;fill-opacity:1;fill-rule:nonzero;stroke:none;stroke-width:1.37413836;stroke-linecap:butt;stroke-linejoin:miter;stroke-miterlimit:4;stroke-dasharray:none;stroke-dashoffset:0;stroke-opacity:1;marker:none;filter:url(#filter10952);color-rendering:auto;image-rendering:auto;shape-rendering:auto;text-rendering:auto;enable-background:accumulate"
           d="m 344.81833,72.090831 c 3.94595,5.644425 5.96867,11.583914 7.29357,14.258218 h -4.47524 v 8.03988 H 342 v -8.03988 h -4.65139 c 1.32433,-2.674143 3.52376,-8.613739 7.46972,-14.258218 z"
           id="path12543" />
        <path
           style="color:#000000;font-style:normal;font-variant:normal;font-weight:normal;font-stretch:normal;font-size:medium;line-height:normal;font-family:sans-serif;font-variant-ligatures:normal;font-variant-position:normal;font-variant-caps:normal;font-variant-numeric:normal;font-variant-alternates:normal;font-feature-settings:normal;text-indent:0;text-align:start;text-decoration:none;text-decoration-line:none;text-decoration-style:solid;text-decoration-color:#000000;letter-spacing:normal;word-spacing:normal;text-transform:none;writing-mode:lr-tb;direction:ltr;text-orientation:mixed;dominant-baseline:auto;baseline-shift:baseline;text-anchor:start;white-space:normal;shape-padding:0;clip-rule:nonzero;display:inline;overflow:visible;visibility:visible;opacity:1;isolation:auto;mix-blend-mode:normal;color-interpolation:sRGB;color-interpolation-filters:linearRGB;solid-color:#000000;solid-opacity:1;vector-effect:none;fill:#ffffff;fill-opacity:1;fill-rule:nonzero;stroke:none;stroke-width:1.37413836;stroke-linecap:butt;stroke-linejoin:miter;stroke-miterlimit:4;stroke-dasharray:none;stroke-dashoffset:0;stroke-opacity:1;marker:none;color-rendering:auto;image-rendering:auto;shape-rendering:auto;text-rendering:auto;enable-background:accumulate"
           d="M 344.81833,71.741782 C 348.76428,77.386207 350.787,83.325696 352.1119,86 h -4.47524 v 8.03988 H 342 V 86 h -4.65139 c 1.32433,-2.674143 3.52376,-8.613739 7.46972,-14.258218 z"
           id="path12545" />
      </g>
      <g
         transform="matrix(0.56095815,0,0,0.56095815,138.62075,152.75765)"
         id="g12553">
        <path
           id="path12549"
           d="m 344.81833,72.090831 c 3.94595,5.644425 5.96867,11.583914 7.29357,14.258218 h -4.47524 v 8.03988 H 342 v -8.03988 h -4.65139 c 1.32433,-2.674143 3.52376,-8.613739 7.46972,-14.258218 z"
           style="color:#000000;font-style:normal;font-variant:normal;font-weight:normal;font-stretch:normal;font-size:medium;line-height:normal;font-family:sans-serif;font-variant-ligatures:normal;font-variant-position:normal;font-variant-caps:normal;font-variant-numeric:normal;font-variant-alternates:normal;font-feature-settings:normal;text-indent:0;text-align:start;text-decoration:none;text-decoration-line:none;text-decoration-style:solid;text-decoration-color:#000000;letter-spacing:normal;word-spacing:normal;text-transform:none;writing-mode:lr-tb;direction:ltr;text-orientation:mixed;dominant-baseline:auto;baseline-shift:baseline;text-anchor:start;white-space:normal;shape-padding:0;clip-rule:nonzero;display:inline;overflow:visible;visibility:visible;opacity:0.1;isolation:auto;mix-blend-mode:normal;color-interpolation:sRGB;color-interpolation-filters:linearRGB;solid-color:#000000;solid-opacity:1;vector-effect:none;fill:#000000;fill-opacity:1;fill-rule:nonzero;stroke:none;stroke-width:1.37413836;stroke-linecap:butt;stroke-linejoin:miter;stroke-miterlimit:4;stroke-dasharray:none;stroke-dashoffset:0;stroke-opacity:1;marker:none;filter:url(#filter10952);color-rendering:auto;image-rendering:auto;shape-rendering:auto;text-rendering:auto;enable-background:accumulate" />
        <path
           id="path12551"
           d="M 344.81833,71.741782 C 348.76428,77.386207 350.787,83.325696 352.1119,86 h -4.47524 v 8.03988 H 342 V 86 h -4.65139 c 1.32433,-2.674143 3.52376,-8.613739 7.46972,-14.258218 z"
           style="color:#000000;font-style:normal;font-variant:normal;font-weight:normal;font-stretch:normal;font-size:medium;line-height:normal;font-family:sans-serif;font-variant-ligatures:normal;font-variant-position:normal;font-variant-caps:normal;font-variant-numeric:normal;font-variant-alternates:normal;font-feature-settings:normal;text-indent:0;text-align:start;text-decoration:none;text-decoration-line:none;text-decoration-style:solid;text-decoration-color:#000000;letter-spacing:normal;word-spacing:normal;text-transform:none;writing-mode:lr-tb;direction:ltr;text-orientation:mixed;dominant-baseline:auto;baseline-shift:baseline;text-anchor:start;white-space:normal;shape-padding:0;clip-rule:nonzero;display:inline;overflow:visible;visibility:visible;opacity:1;isolation:auto;mix-blend-mode:normal;color-interpolation:sRGB;color-interpolation-filters:linearRGB;solid-color:#000000;solid-opacity:1;vector-effect:none;fill:#ffffff;fill-opacity:1;fill-rule:nonzero;stroke:none;stroke-width:1.37413836;stroke-linecap:butt;stroke-linejoin:miter;stroke-miterlimit:4;stroke-dasharray:none;stroke-dashoffset:0;stroke-opacity:1;marker:none;color-rendering:auto;image-rendering:auto;shape-rendering:auto;text-rendering:auto;enable-background:accumulate" />
      </g>
      <g
         id="g12559"
         transform="matrix(0.3481961,0,0,0.3481961,207.96627,214.72184)">
        <path
           style="color:#000000;font-style:normal;font-variant:normal;font-weight:normal;font-stretch:normal;font-size:medium;line-height:normal;font-family:sans-serif;font-variant-ligatures:normal;font-variant-position:normal;font-variant-caps:normal;font-variant-numeric:normal;font-variant-alternates:normal;font-feature-settings:normal;text-indent:0;text-align:start;text-decoration:none;text-decoration-line:none;text-decoration-style:solid;text-decoration-color:#000000;letter-spacing:normal;word-spacing:normal;text-transform:none;writing-mode:lr-tb;direction:ltr;text-orientation:mixed;dominant-baseline:auto;baseline-shift:baseline;text-anchor:start;white-space:normal;shape-padding:0;clip-rule:nonzero;display:inline;overflow:visible;visibility:visible;opacity:0.1;isolation:auto;mix-blend-mode:normal;color-interpolation:sRGB;color-interpolation-filters:linearRGB;solid-color:#000000;solid-opacity:1;vector-effect:none;fill:#000000;fill-opacity:1;fill-rule:nonzero;stroke:none;stroke-width:1.37413836;stroke-linecap:butt;stroke-linejoin:miter;stroke-miterlimit:4;stroke-dasharray:none;stroke-dashoffset:0;stroke-opacity:1;marker:none;filter:url(#filter10952);color-rendering:auto;image-rendering:auto;shape-rendering:auto;text-rendering:auto;enable-background:accumulate"
           d="m 344.81833,72.090831 c 3.94595,5.644425 5.96867,11.583914 7.29357,14.258218 h -4.47524 v 8.03988 H 342 v -8.03988 h -4.65139 c 1.32433,-2.674143 3.52376,-8.613739 7.46972,-14.258218 z"
           id="path12555" />
        <path
           style="color:#000000;font-style:normal;font-variant:normal;font-weight:normal;font-stretch:normal;font-size:medium;line-height:normal;font-family:sans-serif;font-variant-ligatures:normal;font-variant-position:normal;font-variant-caps:normal;font-variant-numeric:normal;font-variant-alternates:normal;font-feature-settings:normal;text-indent:0;text-align:start;text-decoration:none;text-decoration-line:none;text-decoration-style:solid;text-decoration-color:#000000;letter-spacing:normal;word-spacing:normal;text-transform:none;writing-mode:lr-tb;direction:ltr;text-orientation:mixed;dominant-baseline:auto;baseline-shift:baseline;text-anchor:start;white-space:normal;shape-padding:0;clip-rule:nonzero;display:inline;overflow:visible;visibility:visible;opacity:1;isolation:auto;mix-blend-mode:normal;color-interpolation:sRGB;color-interpolation-filters:linearRGB;solid-color:#000000;solid-opacity:1;vector-effect:none;fill:#ffffff;fill-opacity:1;fill-rule:nonzero;stroke:none;stroke-width:1.37413836;stroke-linecap:butt;stroke-linejoin:miter;stroke-miterlimit:4;stroke-dasharray:none;stroke-dashoffset:0;stroke-opacity:1;marker:none;color-rendering:auto;image-rendering:auto;shape-rendering:auto;text-rendering:auto;enable-background:accumulate"
           d="M 344.81833,71.741782 C 348.76428,77.386207 350.787,83.325696 352.1119,86 h -4.47524 v 8.03988 H 342 V 86 h -4.65139 c 1.32433,-2.674143 3.52376,-8.613739 7.46972,-14.258218 z"
           id="path12557" />
      </g>
    </g>
    <g
       style="display:inline"
       id="layer2">
      <circle
         r="7.5000005"
         cy="244.00002"
         cx="328.00003"
         id="path1377"
         style="display:inline;opacity:0.4;vector-effect:none;fill:none;fill-opacity:1;stroke:#000000;stroke-width:1;stroke-linecap:butt;stroke-linejoin:round;stroke-miterlimit:4;stroke-dasharray:none;stroke-dashoffset:6.5999999;stroke-opacity:1;enable-background:new" />
      <ellipse
         ry="11.476745"
         rx="11.454546"
         cy="199.97676"
         cx="332"
         id="path1384"
         style="display:inline;opacity:0.4;vector-effect:none;fill:none;fill-opacity:1;stroke:#000000;stroke-width:1;stroke-linecap:butt;stroke-linejoin:round;stroke-miterlimit:4;stroke-dasharray:none;stroke-dashoffset:6.5999999;stroke-opacity:1;enable-background:new" />
      <circle
         r="14.5"
         cy="148"
         cx="336"
         id="path1389"
         style="display:inline;opacity:0.4;vector-effect:none;fill:none;fill-opacity:1;stroke:#000000;stroke-width:1;stroke-linecap:butt;stroke-linejoin:round;stroke-miterlimit:4;stroke-dasharray:none;stroke-dashoffset:6.5999999;stroke-opacity:1;enable-background:new" />
      <circle
         r="22.5"
         cy="84"
         cx="344"
         id="path1389-3"
         style="display:inline;opacity:0.4;vector-effect:none;fill:none;fill-opacity:1;stroke:#000000;stroke-width:1;stroke-linecap:butt;stroke-linejoin:round;stroke-miterlimit:4;stroke-dasharray:none;stroke-dashoffset:6.5999999;stroke-opacity:1;enable-background:new" />
      <path
         id="path11042-1-7"
         d="m 152,267.99999 a 112,112 0 0 1 -112,-112 112,112 0 0 1 0.04102,-1.16992 A 112,112 0 0 0 152,265.99999 112,112 0 0 0 263.95898,155.16991 a 112,112 0 0 1 0.041,0.83008 112,112 0 0 1 -112,112 z"
         style="display:inline;opacity:0.2;fill:#000000;fill-opacity:1;stroke:none;stroke-width:1;stroke-linecap:round;stroke-linejoin:round;stroke-miterlimit:4;stroke-dasharray:none;stroke-opacity:1;enable-background:new" />
      <path
         id="path11042-1"
         d="M 152,43.999994 A 112,112 0 0 0 40,155.99999 112,112 0 0 0 40.04102,157.16991 112,112 0 0 1 152,45.999994 112,112 0 0 1 263.95898,156.83007 a 112,112 0 0 0 0.041,-0.83008 112,112 0 0 0 -112,-111.999996 z"
         style="display:inline;opacity:0.3;fill:#ffffff;fill-opacity:1;stroke:none;stroke-width:1;stroke-linecap:round;stroke-linejoin:round;stroke-miterlimit:4;stroke-dasharray:none;stroke-opacity:1;enable-background:new" />
    </g>
    <g
       style="display:inline;opacity:0.8"
       id="layer5">
      <path
         id="path9498-1-6"
         d="M 344,62.000016 A 22,21.99999 0 0 0 322,84.000013 22,21.99999 0 0 0 344,106 22,21.99999 0 0 0 366,84.000013 22,21.99999 0 0 0 344,62.000016 Z m 0,0.956532 A 21.043478,21.043469 0 0 1 365.04348,84.000013 21.043478,21.043469 0 0 1 344,105.04348 21.043478,21.043469 0 0 1 322.95652,84.000013 21.043478,21.043469 0 0 1 344,62.956548 Z"
         style="display:inline;opacity:1;fill:url(#linearGradient8590);fill-opacity:1;stroke:none;stroke-width:1.8694036;stroke-linecap:round;stroke-linejoin:round;stroke-miterlimit:4;stroke-dasharray:none;stroke-opacity:1;enable-background:new" />
      <path
         id="path9498-1-6-7"
         d="m 336,134 c -7.73199,0 -14,6.26802 -14,14 0,7.73198 6.26801,14 14,14 7.73199,0 14,-6.26802 14,-14 0,-7.73198 -6.26801,-14 -14,-14 z m 0,1 a 13,13 0 0 1 13,13 13,13 0 0 1 -13,13 13,13 0 0 1 -13,-13 13,13 0 0 1 13,-13 z"
         style="display:inline;opacity:1;fill:url(#linearGradient8590-3);fill-opacity:1;stroke:none;stroke-width:1.8694036;stroke-linecap:round;stroke-linejoin:round;stroke-miterlimit:4;stroke-dasharray:none;stroke-opacity:1;enable-background:new" />
      <path
         id="path9498-1-6-7-2"
         d="m 332,189 c -6.07513,0 -11,4.92488 -11,11 0,6.07513 4.92487,11 11,11 6.07513,0 11,-4.92487 11,-11 0,-6.07512 -4.92487,-11 -11,-11 z m 0,1 a 10,10 0 0 1 10,10 10,10 0 0 1 -10,10 10,10 0 0 1 -10,-10 10,10 0 0 1 10,-10 z"
         style="display:inline;opacity:1;fill:url(#linearGradient8590-3-3);fill-opacity:1;stroke:none;stroke-width:1.8694036;stroke-linecap:round;stroke-linejoin:round;stroke-miterlimit:4;stroke-dasharray:none;stroke-opacity:1;enable-background:new" />
      <path
         id="path9498-1-6-7-2-0"
         d="m 328,237 c -3.86599,0 -7,3.13402 -7,7 0,3.86599 3.13401,7 7,7 3.866,0 7,-3.13401 7,-7 0,-3.86598 -3.134,-7 -7,-7 z m 0,1 a 6,6 0 0 1 6,6 6,6 0 0 1 -6,6 6,6 0 0 1 -6,-6 6,6 0 0 1 6,-6 z"
         style="display:inline;opacity:1;fill:url(#linearGradient8590-3-3-4);fill-opacity:1;stroke:none;stroke-width:1.86940372;stroke-linecap:round;stroke-linejoin:round;stroke-miterlimit:4;stroke-dasharray:none;stroke-opacity:1;enable-background:new" />
    </g>
  </g>
</svg>
