<?xml version="1.0" encoding="UTF-8"?>
<svg enable-background="new" version="1.0" viewBox="0 0 256 256" xmlns="http://www.w3.org/2000/svg" xmlns:xlink="http://www.w3.org/1999/xlink"><defs><filter id="v"><feGaussianBlur stdDeviation="1.02"/></filter><linearGradient id="j" x1="-64.645" x2="-136.86" y1="273.04" y2="62.412" gradientTransform="translate(250)" gradientUnits="userSpaceOnUse"><stop offset="0"/><stop stop-color="#ad7fa8" offset="1"/></linearGradient><radialGradient id="b" cx="56" cy="149" r="14" gradientUnits="userSpaceOnUse" xlink:href="#a"/><radialGradient id="g" cx="103.89" cy="169.91" r="88.462" gradientTransform="matrix(.84749 -.4893 .44438 .76969 21.979 93.791)" gradientUnits="userSpaceOnUse" xlink:href="#a"/><linearGradient id="a"><stop stop-color="#fff" offset="0"/><stop stop-color="#fff" stop-opacity="0" offset="1"/></linearGradient><radialGradient id="f" cx="118.39" cy="161.19" r="88.462" gradientTransform="matrix(1.2409 -.76 .40016 .65334 -100.82 153.24)" gradientUnits="userSpaceOnUse" xlink:href="#a"/><linearGradient id="q" x1="180.12" x2="114.7" y1="114" y2="82" gradientTransform="matrix(.97963 0 0 .97963 2.5404 2.0852)" gradientUnits="userSpaceOnUse"><stop stop-color="#fff" offset="0"/><stop stop-color="#fff" stop-opacity="0" offset="1"/></linearGradient><linearGradient id="p" x1="171.15" x2="120.98" y1="212.97" y2="180.92" gradientTransform="matrix(.96723 0 0 .96723 5.2001 15.929)" gradientUnits="userSpaceOnUse"><stop stop-color="#fff" offset="0"/><stop stop-color="#fff" stop-opacity="0" offset="1"/></linearGradient><radialGradient id="e" cx="131.8" cy="117.06" r="93.974" gradientTransform="matrix(2.1492 -.57589 .094235 .35169 -168.11 152.82)" gradientUnits="userSpaceOnUse" xlink:href="#a"/><filter id="u"><feGaussianBlur stdDeviation="0.93500002"/></filter><linearGradient id="r" x1="143.58" x2="195.91" y1="66.125" y2="215.17" gradientUnits="userSpaceOnUse" xlink:href="#a"/><linearGradient id="o" x1="52.5" x2="141" y1="132" y2="261.5" gradientUnits="userSpaceOnUse"><stop stop-color="#75507b" offset="0"/><stop stop-color="#75507b" stop-opacity="0" offset="1"/></linearGradient><linearGradient id="n" x1="235" x2="133.5" y1="134" y2="298.5" gradientUnits="userSpaceOnUse"><stop stop-color="#5c3566" offset="0"/><stop stop-color="#5c3566" stop-opacity="0" offset="1"/></linearGradient><linearGradient id="m" x1="150" x2="271.5" y1="20.5" y2="237" gradientUnits="userSpaceOnUse"><stop stop-color="#decbdc" offset="0"/><stop stop-color="#decbdc" stop-opacity="0" offset="1"/></linearGradient><linearGradient id="l" x1="130.5" x2="43" y1="67" y2="268" gradientUnits="userSpaceOnUse"><stop stop-color="#f3ecf2" offset="0"/><stop stop-color="#f3ecf2" stop-opacity="0" offset="1"/></linearGradient><filter id="t"><feGaussianBlur stdDeviation="0.90664062"/></filter><radialGradient id="d" cx="145.12" cy="185.04" r="87.469" gradientTransform="matrix(.70897 .16977 -.24988 1.0436 88.473 -30.266)" gradientUnits="userSpaceOnUse"><stop offset="0"/><stop stop-opacity="0" offset="1"/></radialGradient><clipPath id="x"><path d="m-140 48-102 102 102 102 102-102z" enable-background="new" fill="#f3ecf2"/></clipPath><radialGradient id="h" cx="-107.44" cy="142.87" r="94.562" gradientTransform="matrix(2.5967 0 0 .79985 171.54 28.115)" gradientUnits="userSpaceOnUse"><stop stop-color="#5c3566" offset="0"/><stop stop-color="#5c3566" stop-opacity="0" offset="1"/></radialGradient><linearGradient id="i" x1="189.05" x2="130.81" y1="53.611" y2="203.12" gradientTransform="matrix(1.0281 0 0 1.0281 22.586 25.326)" gradientUnits="userSpaceOnUse"><stop stop-color="#75507b" offset="0"/><stop stop-color="#C8BDDC" offset="1"/></linearGradient><clipPath id="w"><path d="m150 252-102-102 102-102 102 102z" enable-background="new" fill="#808080"/></clipPath><filter id="s" x="-.10708" y="-.21428" width="1.2142" height="1.4286"><feGaussianBlur stdDeviation="7.2531609"/></filter><linearGradient id="k" x1="153.68" x2="136.38" y1="252.74" y2="188.18" gradientUnits="userSpaceOnUse"><stop offset="0"/><stop stop-opacity="0" offset="1"/></linearGradient><radialGradient id="c" cx="147" cy="246.5" r="12" gradientTransform="matrix(.82847 0 0 .72492 25.214 67.808)" gradientUnits="userSpaceOnUse"><stop offset="0"/><stop stop-opacity="0" offset="1"/></radialGradient></defs><g transform="translate(-16,-28)"><g><g transform="translate(-10)" enable-background="new"><g><ellipse transform="matrix(.6826 0 0 .33784 49.486 167.64)" cx="147" cy="246.5" rx="12" ry="10.5" fill="url(#c)" opacity=".2"/><path d="m150 172.38-81.282 40.619 81.282 40.62 81.282-40.62z" enable-background="new" fill="url(#k)" filter="url(#s)" opacity=".3"/></g><g clip-path="url(#w)"><path d="m150 252-102-102 102-102 102 102z" enable-background="new" fill="url(#i)"/><path transform="translate(290)" d="m-130.06 42.781c-0.9442 1.8225-1.8693 3.6533-2.7188 5.5312l10.75 7.7812c-1.9792 4.6938-3.6009 9.5512-4.875 14.562 0.80894 1.4931 1.5815 3.0131 2.2812 4.5625l-6.6875 4.8125c1.4022 3.3269 2.5085 6.7909 3.3438 10.375l8.25-0.03125c0.45966 2.2365 0.81244 4.5072 1.0625 6.8125l-7.8438 2.5312c0.14882 1.7991 0.25 3.6009 0.25 5.4375 0 1.8366-0.0991 3.6717-0.25 5.4688l7.8438 2.5c-0.25108 2.3064-0.60081 4.577-1.0625 6.8125h-8.2188c-0.0196 0.0841-0.0425 0.16598-0.0625 0.25h0.5625c1.3417 5.7599 3.1515 11.309 5.4062 16.656l-5.5312 4c-0.0754 0.13332-0.14268 0.27331-0.21875 0.40625l-0.21875-0.0625-4.7812 3.4375c0.38167 0.84481 0.78399 1.6999 1.1875 2.5312 0.2545-0.45853 0.52095-0.91969 0.78125-1.375l11 3.625c2.6648-4.396 5.6861-8.5689 9.0312-12.438l-6.8438-9.3438c2.1808-2.3965 4.4775-4.6932 6.875-6.875l1.4688 1.0625c-2.441-8.0208-3.7812-16.523-3.7812-25.344h-0.0312c0-10.92 2.0437-21.37 5.7188-31zm-78.719 75.875c-1.5286 0.22453-3.0306 0.47134-4.5312 0.78125v3.75zm-20.781 7.9375-6.5938 6.5938 1.4688 4.375c-3.5641 2.1611-6.9573 4.6314-10.094 7.3438l-1.7812-1.3125-6 6 112.41 112.41c1.8156-1.6711 3.5268-3.4252 5.1875-5.25l-5.5625-7.5625c2.2603-2.6128 4.3637-5.4226 6.25-8.3438-0.33278-0.68221-0.65448-1.3677-0.96875-2.0625l9.4062-6.8125c-0.13019-0.30875-0.24835-0.6272-0.375-0.9375l-2.0625-1.5c0.26928-0.63889 0.49971-1.2898 0.75-1.9375-1.1977-3.325-2.2161-6.7193-3.0312-10.219l-11.625 0.0312c-0.64998-3.1477-1.1466-6.3468-1.5-9.5938l11.062-3.5312c-0.21058-2.5311-0.3125-5.1017-0.3125-7.6875 0-2.5848 0.10191-5.1564 0.3125-7.6875l-11.062-3.5312c0.35335-3.2449 0.85103-6.446 1.5-9.5938l11.625 0.0312c1.1755-5.046 2.7434-9.9091 4.7188-14.594l-1-0.71875-6.3125 2.0625c-1.5364-2.5346-3.2364-4.9615-5.0625-7.2812-1.2277 1.2928-2.4924 2.5477-3.8125 3.75l-6.6562-4.875c-2.7478 2.3762-5.6911 4.5442-8.8125 6.4375l2.5625 7.8125c-1.9895 1.139-4.0221 2.2045-6.125 3.1562l-4.8125-6.6875c-3.3279 1.4032-6.8222 2.5407-10.406 3.375l0.0312 8.2188c-2.2355 0.46167-4.5061 0.81042-6.8125 1.0625l-2.5-7.8438c-1.7981 0.14984-3.6332 0.25-5.4688 0.25-1.8376 0-3.6394-0.10118-5.4375-0.25l-2.5312 7.8438c-2.3053-0.25209-4.577-0.60083-6.8125-1.0625l0.0312-8.2188c-3.583-0.83527-7.0471-1.9718-10.375-3.375l-3.875 5.3438-5.7812-5.7812 1.2812-3.8438c-3.1224-1.8933-6.096-4.0613-8.8438-6.4375l-1.5625 1.1562-5.25-5.25 18.844-18.844c-1.2746 0.45725-2.5392 0.94501-3.7812 1.4688zm91.812 15.375c-1.3354 1.9193-2.756 3.7683-4.2812 5.5312l2.5938 3.5312 4.4688-6.125c-0.91371-1.0039-1.8214-1.9808-2.7812-2.9375zm39.688 3.3125c-4.0508 4.4383-7.5808 9.3519-10.5 14.656 1.2007 1.5625 2.4328 3.1065 3.7188 4.5938l-7.8125 10.656c2.4893 2.7355 5.1071 5.3845 7.8438 7.875l10.688-7.8125c4.4147 3.8184 9.1684 7.2406 14.188 10.281l-4.1562 12.562c2.6407 1.5105 5.3305 2.9441 8.0938 4.25l8.4375-8.4062 1.0938-1.5c0.09939 0.0428 0.18071 0.0521 0.28125 0.0937l13.312-13.312c-18.588-6.0163-34.427-18.102-45.188-33.938zm-18.875 38.688c-0.4944 2.9641-0.79589 5.9928-0.9375 9.0625l4.0312-1.2812c-0.2866-2.6326-0.69174-5.2295-1.2188-7.7812zm-0.0625 24.969c0.48156 2.9361 1.1623 5.8116 1.9688 8.625 0.50914-2.5024 0.90787-5.0471 1.1875-7.625zm-5.75 24.562-6.8125 6.8125 5.3125 1.75c1.2978-2.2721 2.5097-4.6309 3.5938-7.0312z" clip-path="url(#x)" enable-background="new" fill="url(#h)" opacity=".26577"/><path d="m151.59 57.906-3.625 4.9062c0.0871 0.10068 0.16346 0.21121 0.25 0.3125l3.625-4.9375c-0.0848-0.09315-0.1648-0.18856-0.25-0.28125zm12.312 18.375-5.2188 3.75c0.13902 0.32984 0.27302 0.66748 0.40625 1l5.2812-3.8125c-0.14356-0.31789-0.31989-0.62155-0.46875-0.9375zm6.2188 21.281-6.625 2.1562c0.0454 0.54826 0.09 1.1066 0.125 1.6562l6.7188-2.1875c-0.0592-0.5454-0.14804-1.0835-0.21875-1.625zm27.688 11.219c-0.469 0.25996-0.9411 0.51519-1.4062 0.78125l3.25 9.875c0.45969-0.28996 0.90956-0.59303 1.375-0.875zm-35.75 11.156c-0.15768 0.67576-0.35251 1.3329-0.53125 2h7.75c0.13686-0.66264 0.25747-1.3312 0.375-2zm60.438 4.9062c-18.818 6.7504-34.193 20.713-42.844 38.531 9.1712-17.555 24.974-31.093 44.094-37.281zm-49.75 3.3125c-0.46075 0.48691-0.92402 0.97318-1.375 1.4688l6.5312 8.9375c0.43773-0.53063 0.863-1.0739 1.3125-1.5938zm-18.344 10.531c-1.8933 3.1234-4.0603 6.0647-6.4375 8.8125l0.3125 0.4375c1.8671-2.2926 3.5857-4.7105 5.125-7.25l7.8125 2.5625c0.84501-1.4767 1.6276-2.9971 2.375-4.5312-0.44672 0.84659-0.90007 1.7013-1.375 2.5312zm-104.09 11.875-1.5 1.5 5.25 5.25 1.5625-1.1562c2.7478 2.3762 5.7214 4.5442 8.8438 6.4375l-1.2812 3.8438 5.7812 5.7812 3.875-5.3438c3.3279 1.4032 6.792 2.5397 10.375 3.375l-0.03125 8.2188c2.2355 0.46167 4.5072 0.8104 6.8125 1.0625l0.65625-2.0312c-2.1874-0.24873-4.3445-0.59256-6.4688-1.0312l0.03125-8.2188c-3.583-0.83527-7.0471-1.9718-10.375-3.375l-3.875 5.3438-5.7812-5.7812 1.2812-3.8438c-3.1224-1.8933-6.096-4.0613-8.8438-6.4375l-1.5625 1.1562zm105.47 1.6562c-0.70733 1.3758-1.3912 2.7707-2.0312 4.1875l9.4062 6.8125c-1.7115 4.0589-3.078 8.264-4.1875 12.594h0.46875c1.1754-5.0461 2.7434-9.9092 4.7188-14.594l-9.4062-6.8125c0.33436-0.7401 0.67775-1.4592 1.0312-2.1875zm-14.469 1.9375c-2.7478 2.3762-5.6911 4.5442-8.8125 6.4375l0.375 1.125c2.6117-1.68 5.0984-3.5397 7.4375-5.5625l6.6562 4.875c1.7019-1.5501 3.326-3.1731 4.875-4.875l-0.40625-0.53125c-1.1237 1.1677-2.2686 2.3132-3.4688 3.4062zm-17.188 10.719c-3.3279 1.4032-6.8222 2.5407-10.406 3.375v1.75c3.2316-0.80722 6.3909-1.8535 9.4062-3.125l4.8125 6.6875c2.1029-0.95172 4.1355-2.0172 6.125-3.1562l-0.40625-1.2188c-1.5428 0.84585-3.1055 1.6449-4.7188 2.375zm-30.594 4.8125-0.65625 2.0312c1.6848 0.13355 3.3725 0.21875 5.0938 0.21875 1.8356 0 3.6706-0.10016 5.4688-0.25l2.5 7.8438c2.3064-0.2521 4.577-0.60083 6.8125-1.0625v-1.8125c-1.9131 0.36504-3.848 0.66026-5.8125 0.875l-2.5-7.8438c-1.7981 0.14984-3.6332 0.25-5.4688 0.25-1.8376 0-3.6394-0.10118-5.4375-0.25zm53.281 8.0938c-0.64897 3.1477-1.1466 6.3488-1.5 9.5938l11.062 3.5312c-0.21059 2.5311-0.3125 5.1027-0.3125 7.6875 0 2.0245 0.0906 4.0371 0.21875 6.0312l1.0938-0.34375c-0.21058-2.5311-0.3125-5.1017-0.3125-7.6875 0-2.5848 0.10191-5.1564 0.3125-7.6875l-11.062-3.5312c0.27888-2.561 0.63164-5.092 1.0938-7.5938zm-0.3125 31.656-1.1875 0.375c0.35335 3.2469 0.85002 6.446 1.5 9.5938l11.625-0.0312c1.0926 4.6906 2.5296 9.2158 4.3125 13.594l1.4062-1c-1.9753-4.6846-3.5433-9.5477-4.7188-14.594l-11.625 0.0312c-0.54165-2.6231-0.978-5.2763-1.3125-7.9688zm29.25 15.562-18.625 18.625c-0.66858-1.2905-1.3186-2.5888-1.9375-3.9062l-1.4375 1.0625c0.74415 1.6452 1.5478 3.2471 2.375 4.8438l19.875-19.875c-0.0941-0.24661-0.15836-0.50217-0.25-0.75z" enable-background="new" fill="url(#d)" filter="url(#t)" opacity=".2"/><path d="m150 48-102 102h8l94-94z" enable-background="new" fill="url(#l)"/><path d="m150 48v8l94 94h8z" enable-background="new" fill="url(#m)"/><path d="m150 252 102-102h-8l-94 94z" enable-background="new" fill="url(#n)"/><path d="m48 150 102 102v-8l-94-94z" enable-background="new" fill="url(#o)"/><path transform="matrix(1.0193 0 0 1.0193 -2.8918 -2.8918)" d="m150 243-93-93 93-93 93 93z" enable-background="new" fill="none" filter="url(#u)" opacity=".49099" stroke="url(#r)" stroke-linecap="round" stroke-linejoin="round" stroke-width="1.9622"/><path d="m150 244.09-94.086-94.086 94.086-94.086 94.086 94.086z" enable-background="new" fill="none" stroke="url(#e)" stroke-linecap="round" stroke-linejoin="round" stroke-width="1.5"/><path d="m232.6 159.93-157.39 17.894 40.896 40.896 56.682 3.204 60.905-60.905z" enable-background="new" fill="url(#p)" opacity=".41441"/><path d="m149.48 55.965-92.789 92.789 136.02-49.563z" enable-background="new" fill="url(#q)" opacity=".75"/><circle transform="matrix(.31815 0 0 .31815 38.891 102.3)" cx="56" cy="149" r="14" fill="url(#b)" opacity=".26126"/><path d="m69.979 170.22 3.8595-5.3528c3.3279 1.4032 6.7976 2.5352 10.381 3.3704l-0.03036 8.2414c2.2355 0.46167 4.5105 0.81602 6.8158 1.0681l2.518-7.8495c1.7981 0.14883 3.6155 0.23082 5.4531 0.23082 1.8356 0 3.6539-0.081 5.452-0.23082l2.518 7.8495c2.3064-0.25209 4.5803-0.60644 6.8158-1.0681l-0.0314-8.2424c3.5841-0.83427 7.0527-1.9662 10.381-3.3694l4.8213 6.6872c2.1029-0.95172 4.151-1.9996 6.1405-3.1386l-2.5757-7.8293c3.1214-1.8933 6.0716-4.0417 8.8194-6.4179l6.6488 4.8699c1.7019-1.5501 3.331-3.1791 4.88-4.881l-4.8689-6.6477c2.3772-2.7478 4.5256-5.6971 6.4189-8.8205l7.8293 2.5767c1.139-1.9905 2.1879-4.0397 3.1376-6.1415l-6.6862-4.8203c1.4032-3.3279 2.5352-6.7976 3.3715-10.382l8.2403 0.0304c0.46169-2.2355 0.81605-4.5105 1.0671-6.8168l-7.8485-2.518c0.15085-1.7971 0.23083-3.6154 0.23083-5.452 0-1.8366-0.082-3.6539-0.23083-5.453l7.8485-2.518c-0.25006-2.3053-0.60646-4.5793-1.0661-6.8158l-8.2423 0.03139c-0.83527-3.5841-1.9672-7.0537-3.3694-10.381l6.6862-4.8203c-0.94968-2.1029-1.9996-4.151-3.1366-6.1415l-7.8303 2.5767c-1.8933-3.1224-4.0417-6.0717-6.4179-8.8184l4.8689-6.6488c-1.4549-1.5987-2.9847-3.1254-4.5753-4.5894l-98.461 98.462 5.2627 5.2627 1.5612-1.143c2.7478 2.3762 5.697 4.5246 8.8194 6.4179l-1.2646 3.8422 5.7912 5.7912z" enable-background="new" fill="url(#f)" opacity=".75"/><circle transform="matrix(.47886 0 0 .47886 122.89 -15.518)" cx="56" cy="149" r="14" enable-background="new" fill="url(#b)" opacity=".68018"/><path d="m172.02 196.59c0-33.892 22.128-62.61 52.72-72.512l-11.639-11.64c-0.0881 0.0365-0.17717 0.0678-0.26425 0.10529l-0.94866-1.3162-7.3797-7.3797c-2.4208 1.1441-4.7909 2.3752-7.1044 3.6985l3.6276 11.024c-4.3971 2.6638-8.5491 5.69-12.417 9.0351l-9.3611-6.8553c-2.3975 2.1818-4.6897 4.474-6.8705 6.8705l6.8543 9.3601c-3.3451 3.8686-6.3703 8.0206-9.0351 12.417l-11.025-3.6276c-1.6027 2.8035-3.0788 5.6879-4.4163 8.6483l9.4138 6.7854c-1.9753 4.6846-3.5689 9.5697-4.7443 14.616l-11.603-0.0446c-0.64897 3.1477-1.1491 6.3511-1.5025 9.596l11.051 3.5456c-0.21058 2.5311-0.32398 5.0906-0.32398 7.6754 0 2.5858 0.1134 5.1453 0.32398 7.6764l-11.051 3.5426c0.35335 3.2469 0.8535 6.4493 1.5035 9.597l11.602-0.0436c1.1755 5.0461 2.769 9.9311 4.7443 14.616l-9.4138 6.7864c0.74415 1.6452 1.5359 3.2662 2.3631 4.8628l19.881-19.879c-3.2196-8.4367-4.9873-17.591-4.9873-27.158z" enable-background="new" fill="url(#g)" opacity=".75"/><circle transform="matrix(.44315 0 0 .44315 31.684 83.471)" cx="56" cy="149" r="14" enable-background="new" fill="url(#b)" opacity=".68018"/><path d="m150 252-102-102 102-102 102 102z" clip-path="none" enable-background="new" fill="none" filter="url(#v)" stroke="url(#j)" stroke-linecap="round" stroke-linejoin="round" stroke-width="2"/></g></g></g></g></svg>
