<?xml version="1.0" encoding="UTF-8"?>
<svg enable-background="new" version="1.0" viewBox="0 0 256 256" xmlns="http://www.w3.org/2000/svg" xmlns:xlink="http://www.w3.org/1999/xlink"><defs><linearGradient id="a"><stop stop-color="#fff" offset="0"/><stop stop-color="#fff" stop-opacity="0" offset="1"/></linearGradient><linearGradient id="w"><stop offset="0"/><stop stop-opacity="0" offset="1"/></linearGradient><linearGradient id="h"><stop stop-color="#eee" offset="0"/><stop stop-color="#eee" stop-opacity="0" offset="1"/></linearGradient><linearGradient id="g"><stop stop-opacity="0" offset="0"/><stop stop-opacity="0" offset=".5"/><stop offset="1"/></linearGradient><clipPath id="ae"><path d="m236.68 14.952-131.33 16.056-0.5 134.9c-10.194-3.4537-35.351-2.8566-50.869 0.33875-26.98 5.5552-46.313 20.435-43.353 33.096 2.9595 12.661 27.211 18.522 54.191 12.967 25.496-5.2496 47.59-18.814 47.085-30.967l0.96771-117.87 116.86-17.432v103.55c-63.481-9.29-94.323 20.919-91.363 33.579s27.211 18.522 54.191 12.967c23.939-4.9292 41.077-17.113 42.773-28.644z" display="block" fill="#9db029"/></clipPath><filter id="aa"><feGaussianBlur stdDeviation="1.2151704"/></filter><filter id="b" x="-.11807" y="-.22256" width="1.2361" height="1.4451"><feGaussianBlur stdDeviation="0.74638493"/></filter><filter id="j"><feGaussianBlur stdDeviation="2.1071168"/></filter><clipPath id="ad"><path d="m147.82 39.784s-130.66-9.8586-130.66-9.8586l-26.415 130.42c-9.2386-5.3124-33.791-9.5985-49.48-9.5076-27.276 0.15818-48.916 10.816-48.475 23.637s22.873 23.181 50.15 23.023c25.776-0.14947 49.846-9.0011 51.691-20.856l23.596-113.85 116.87 5.7285-19.904 100.18c-59.881-21.262-95.647 2.0019-95.205 14.823 0.44132 12.821 22.873 23.181 50.15 23.023 24.202-0.14036 43.192-8.6151 47.055-19.443z" display="block" fill="#9db029"/></clipPath><clipPath id="ac"><path d="m273.3 48.665-130.66-9.8586-26.415 130.42c-9.2386-5.3124-33.791-9.5985-49.48-9.5076-27.276 0.15818-48.916 10.816-48.475 23.637 0.44132 12.821 22.873 23.181 50.15 23.023 25.776-0.14948 49.846-9.0011 51.691-20.856l23.596-113.85 116.87 5.7285-19.904 100.18c-59.881-21.262-95.647 2.0019-95.205 14.823 0.44132 12.821 22.873 23.181 50.15 23.023 24.202-0.14035 43.192-8.6151 47.055-19.443z" display="block" fill="#9db029"/></clipPath><filter id="k" x="-.14627" y="-.20703" width="1.2925" height="1.4141"><feGaussianBlur stdDeviation="0.71308235"/></filter><filter id="ab"><feGaussianBlur stdDeviation="2.5910413"/></filter><filter id="z" x="-.15875" y="-.54341" width="1.3175" height="2.0868"><feGaussianBlur stdDeviation="7.0642857"/></filter><filter id="y" x="-.084715" y="-.60343" width="1.1694" height="2.2069"><feGaussianBlur stdDeviation="5.4380567"/></filter><filter id="x" x="-.19197" y="-.65714" width="1.3839" height="2.3143"><feGaussianBlur stdDeviation="8.5428571"/></filter><filter id="i" x="-.51184" y="-.017737" width="2.0237" height="1.0355"><feGaussianBlur stdDeviation="0.89571429"/></filter><radialGradient id="r" cx="72.5" cy="212" r="44.5" gradientTransform="matrix(1 0 0 .29213 0 150.07)" gradientUnits="userSpaceOnUse"><stop offset="0"/><stop stop-opacity="0" offset="1"/></radialGradient><radialGradient id="e" cx="72.5" cy="212" r="44.5" gradientTransform="matrix(1 0 0 .29213 0 150.07)" gradientUnits="userSpaceOnUse" xlink:href="#w"/><linearGradient id="v" x1="101.82" x2="102.68" y1="200.68" y2="126.18" gradientTransform="translate(231.46 206.07)" gradientUnits="userSpaceOnUse"><stop stop-color="#9db029" offset="0"/><stop stop-color="#9db029" stop-opacity=".61616" offset="1"/></linearGradient><radialGradient id="d" cx="4.392" cy="32.308" r="6.375" gradientTransform="matrix(1 0 0 .5098 0 16.054)" gradientUnits="userSpaceOnUse" xlink:href="#a"/><radialGradient id="q" cx="171.75" cy="49" r="57.75" gradientTransform="matrix(1 0 0 .19048 231.46 245.74)" gradientUnits="userSpaceOnUse"><stop stop-color="#dbf6c0" offset="0"/><stop stop-color="#8ae234" stop-opacity="0" offset="1"/></radialGradient><radialGradient id="c" cx="5.875" cy="32.75" r="6.375" gradientTransform="matrix(1 0 0 .99563 0 .14311)" gradientUnits="userSpaceOnUse" xlink:href="#a"/><radialGradient id="p" cx="67.131" cy="199.41" r="55.921" gradientTransform="matrix(1.1274 -.072624 .032834 .50611 -15.127 94.99)" gradientUnits="userSpaceOnUse" xlink:href="#g"/><radialGradient id="o" cx="67.131" cy="199.41" r="55.921" gradientTransform="matrix(1.0864 -.069985 .031641 .48772 -12.138 98.48)" gradientUnits="userSpaceOnUse" xlink:href="#g"/><linearGradient id="f" x1="181.84" x2="191.14" y1="149.63" y2="181.3" gradientUnits="userSpaceOnUse" xlink:href="#a"/><linearGradient id="u" x1="170.77" x2="170.77" y1="34.322" y2="144.63" gradientUnits="userSpaceOnUse" xlink:href="#h"/><linearGradient id="t" x1="170.77" x2="174.66" y1="34.322" y2="52.707" gradientUnits="userSpaceOnUse" xlink:href="#h"/><radialGradient id="n" cx="109.25" cy="114.5" r="1.75" gradientTransform="matrix(1 0 0 28.857 0 -3189.6)" gradientUnits="userSpaceOnUse" xlink:href="#a"/><radialGradient id="m" cx="109.25" cy="114.5" r="1.75" gradientTransform="matrix(1 0 0 28.857 124.24 -3204.8)" gradientUnits="userSpaceOnUse" xlink:href="#a"/><radialGradient id="l" cx="41.734" cy="223.92" r="41.063" gradientTransform="matrix(.92255 0 0 .66967 .95342 60.723)" gradientUnits="userSpaceOnUse" xlink:href="#a"/><linearGradient id="s" x1="166.02" x2="166.48" y1="192.68" y2="183.54" gradientTransform="translate(2,2)" gradientUnits="userSpaceOnUse" xlink:href="#a"/></defs><g transform="translate(-20,-30)"><g><g transform="translate(-207.3 -166.04)" enable-background="new"><g transform="translate(231.46 206.07)" fill-rule="evenodd"><ellipse transform="translate(-9,-6)" cx="72.5" cy="212" rx="44.5" ry="13" enable-background="accumulate" fill="url(#r)" filter="url(#z)"/><ellipse transform="matrix(2.401 0 0 1.1538 -38.075 -38.615)" cx="72.5" cy="212" rx="44.5" ry="13" enable-background="accumulate" fill="url(#e)" filter="url(#y)" opacity=".21143"/><ellipse transform="matrix(1.1538 0 0 1.1538 107.85 -38.615)" cx="72.5" cy="212" rx="44.5" ry="13" enable-background="accumulate" fill="url(#e)" filter="url(#x)" opacity=".34286"/></g><path d="m468.14 221.02-131.33 16.056-0.5 134.9c-10.194-3.4537-35.351-2.8566-50.869 0.33875-26.98 5.5552-46.313 20.435-43.353 33.096 2.9595 12.661 27.211 18.522 54.191 12.967 25.496-5.2496 47.59-18.814 47.085-30.967l0.96771-117.87 116.86-17.432v103.55c-63.481-9.29-94.323 20.919-91.363 33.579s27.211 18.522 54.191 12.967c23.939-4.9292 41.077-17.113 42.773-28.644z" display="block" fill="url(#v)"/><ellipse transform="matrix(5.1719 -.76801 1.4021 1.598 351.23 316.76)" cx="5.875" cy="32.75" rx="6.375" ry="3.25" display="block" fill="url(#d)" filter="url(#b)"/><path d="m346.46 260.07-1 6 115-16.5 0.5-5.5z" fill="url(#q)" fill-rule="evenodd" opacity=".61143"/><ellipse transform="matrix(4.9569 -.73351 1.3438 1.5262 232.52 331.82)" cx="5.875" cy="32.75" rx="6.375" ry="3.25" display="block" fill="url(#d)" filter="url(#b)"/><ellipse transform="matrix(5.1719 -.76801 1.4021 1.598 336.73 340.26)" cx="5.875" cy="32.75" rx="6.375" ry="6.3471" display="block" fill="url(#c)" filter="url(#b)" opacity=".55429"/><ellipse transform="matrix(5.1719 -.76801 1.4021 1.598 203.23 355.76)" cx="5.875" cy="32.75" rx="6.375" ry="6.3471" display="block" fill="url(#c)" filter="url(#b)" opacity=".55429"/><g transform="translate(231.46 206.07)"><path d="m236.68 13.452-131.33 16.056-0.5 134.9c-10.194-3.4537-35.351-2.8566-50.869 0.33875-26.98 5.5552-46.313 20.435-43.353 33.096 2.9595 12.661 27.211 18.522 54.191 12.967 25.496-5.2496 47.59-18.814 47.085-30.967l0.96771-117.87 116.86-17.432v103.55c-63.481-9.29-94.323 20.919-91.363 33.579s27.211 18.522 54.191 12.967c23.939-4.9292 41.077-17.113 42.773-28.644z" clip-path="url(#ae)" display="block" fill="none" filter="url(#aa)" stroke="#254b01" stroke-linecap="round" stroke-linejoin="round" stroke-width="2"/></g><g transform="translate(231.46 206.07)" fill-rule="evenodd"><ellipse transform="matrix(.99027 -.1979 .19674 .99429 -43.536 20.649)" cx="68.75" cy="182.75" rx="55.921" ry="25.098" clip-path="url(#ac)" enable-background="accumulate" fill="url(#p)" filter="url(#j)" opacity=".34286"/><ellipse transform="matrix(.99027 -.1979 .19674 .99429 82.464 4.6492)" cx="68.75" cy="182.75" rx="55.921" ry="25.098" clip-path="url(#ad)" enable-background="accumulate" fill="url(#o)" filter="url(#j)" opacity=".34286"/><path d="m99.5 167.5s4.5625-0.6875 7 1 2.75 5.75 2.75 5.75-2.3125-2.8125-4.75-4.5-5-2.25-5-2.25z" fill="#fff" filter="url(#k)" opacity=".53143"/><path d="m223 151.25s4.5625-0.6875 7 1 2.75 5.75 2.75 5.75-2.3125-2.8125-4.75-4.5-5-2.25-5-2.25z" fill="#fff" filter="url(#k)" opacity=".53143"/></g><g transform="translate(231.46 206.07)" fill-rule="evenodd"><ellipse transform="matrix(1.1676 -.1872 .25955 .84212 -189.15 79.188)" cx="185" cy="159.5" rx="32.5" ry="14" enable-background="accumulate" fill="url(#f)" opacity=".68"/><ellipse transform="matrix(1.137 -.19425 .25274 .87386 -57.151 59.932)" cx="185" cy="159.5" rx="32.5" ry="14" enable-background="accumulate" fill="url(#f)" opacity=".68"/><path d="m108.19 94.426 1.0607-60.458 124.1-15.91v69.296l-1.7678-48.79c-0.41408-2.8993-2.3119-3.202-4.5962-2.8284l-113.84 16.263c-1.4406 0.56726-2.8907 1.0931-3.182 6.7175z" fill="url(#u)" filter="url(#ab)" opacity=".46857"/><path d="m108.19 94.426 1.0607-60.458 124.1-15.91v69.296l-1.7678-51.619c-1.0534-3.8149-2.914-2.7864-4.5962-2.8284l-113.84 19.092c-2.9626 0.9712-2.9553 3.9224-3.182 6.7175z" fill="url(#t)" opacity=".46857"/><path d="m108.5 64-1 93 2.5 8 1-95z" fill="url(#n)" filter="url(#i)"/><path d="m232.74 48.797-1 93 2.5 8 1-95z" fill="url(#m)" filter="url(#i)"/><path d="m18.324 187.47c-1.1797-0.65539-12.198 16.989 14.142 22.274 26.436 5.3039 64.7-13.789 64.7-13.789s-41.101 12.728-63.993 8.8388c-19.544-3.3203-14.849-17.324-14.849-17.324z" fill="url(#l)" opacity=".50286"/><path d="m148.32 171.47c-1.1797-0.65539-12.198 16.989 14.142 22.274 26.436 5.3039 64.7-13.789 64.7-13.789s-41.101 12.728-63.993 8.8388c-19.544-3.3203-14.849-17.324-14.849-17.324z" fill="url(#s)" opacity=".50286"/><g fill="#fff"><circle transform="matrix(.71716 0 0 1.1414 40.022 -23.759)" cx="149" cy="178" r="5" enable-background="accumulate" opacity=".30286"/><circle transform="matrix(.71716 0 0 1.1414 -87.978 -7.7588)" cx="149" cy="178" r="5" enable-background="accumulate" opacity=".30286"/></g></g></g></g></g></svg>
