<?xml version="1.0" encoding="UTF-8"?>
<svg version="1.0" viewBox="0 0 256 256" xmlns="http://www.w3.org/2000/svg" xmlns:xlink="http://www.w3.org/1999/xlink"><defs><filter id="ad" x="-.16294" y="-2.3897" width="1.3259" height="5.7795" color-interpolation-filters="sRGB"><feGaussianBlur stdDeviation="11.948684"/></filter><filter id="ac" x="-.093476" y="-1.094" width="1.187" height="3.188" color-interpolation-filters="sRGB"><feGaussianBlur stdDeviation="8.257079"/></filter><filter id="t" color-interpolation-filters="sRGB"><feGaussianBlur stdDeviation="2.43"/></filter><clipPath id="ae"><path d="m36 19c-0.56266 0-1 0.43734-1 1v217c0 0.56266 0.43734 1 1 1h184c0.56266 0 1-0.43734 1-1v-171c0-13.558-10.858-25.296-16.281-30.719-5.4231-5.4231-17.161-16.281-30.719-16.281z" fill="url(#linearGradient6013) #000000" fill-rule="evenodd"/></clipPath><filter id="aa" color-interpolation-filters="sRGB"><feGaussianBlur stdDeviation="2.025"/></filter><linearGradient id="a"><stop stop-color="#fff" offset="0"/><stop stop-color="#fff" stop-opacity="0" offset="1"/></linearGradient><filter id="ab" x="-.10594" y="-.11513" width="1.2119" height="1.2303" color-interpolation-filters="sRGB"><feGaussianBlur stdDeviation="3.0222701"/></filter><mask id="o" maskUnits="userSpaceOnUse"><path d="m36-31c-0.56266 0-1 0.43734-1 1v217c0 0.56266 0.43734 1 1 1h184c0.56266 0 1-0.43734 1-1v-171c0-13.558-12.858-23.296-18.281-28.719-5.4231-5.4231-15.161-18.281-28.719-18.281z" fill="#fff" fill-rule="evenodd"/></mask><filter id="z" x="-.24138" y="-.24138" width="1.4828" height="1.4828" color-interpolation-filters="sRGB"><feGaussianBlur stdDeviation="4.7270115"/></filter><filter id="y" color-interpolation-filters="sRGB"><feGaussianBlur stdDeviation="0.27169794"/></filter><filter id="x" x="-.13103" y="-.13103" width="1.2621" height="1.2621" color-interpolation-filters="sRGB"><feGaussianBlur stdDeviation="2.566092"/></filter><filter id="v" color-interpolation-filters="sRGB"><feGaussianBlur stdDeviation="0.30732727"/></filter><filter id="u" x="-.031646" y="-.10174" width="1.0633" height="1.2035" color-interpolation-filters="sRGB"><feGaussianBlur stdDeviation="0.35931052"/></filter><filter id="w" color-interpolation-filters="sRGB"><feGaussianBlur stdDeviation="2.0215973"/></filter><linearGradient id="p" x1="612.06" x2="621.13" y1="1277.5" y2="1267.7" gradientUnits="userSpaceOnUse"><stop stop-color="#fff" offset="0"/><stop stop-color="#fff" stop-opacity="0" offset="1"/></linearGradient><mask id="n" maskUnits="userSpaceOnUse"><path d="m457 1248.9c-0.0801 0-0.0625-0.032-0.0625 0.063v222.03c0 0.094 0.0174 0.094 0.0625 0.094h182c0.0452 0 0.0625 6e-4 0.0625-0.094v-174.97c0-13.388-10.5-25.241-15.83-30.754-5.3288-5.5114-16.838-16.371-29.732-16.371z" fill="url(#p)" filter="url(#w)"/></mask><linearGradient id="s" x1="84" x2="-104.07" y1="200.5" y2="-127.99" gradientUnits="userSpaceOnUse"><stop offset="0"/><stop stop-opacity="0" offset="1"/></linearGradient><radialGradient id="m" cx="-80.661" cy="88.983" r="18" gradientTransform="matrix(25.306 2.1794e-6 -1.0731e-6 12.46 2199.2 -911.49)" gradientUnits="userSpaceOnUse"><stop stop-color="#fff" offset="0"/><stop stop-color="#d3d7cf" offset="1"/></radialGradient><radialGradient id="l" cx="128.59" cy="116.47" r="92.902" gradientTransform="matrix(3.5967 -.28529 .17691 2.2303 -355.12 -121.58)" gradientUnits="userSpaceOnUse"><stop stop-color="#fff" offset="0"/><stop stop-color="#fff" stop-opacity="0" offset="1"/></radialGradient><radialGradient id="k" cx="36" cy="45.297" r="84.203" gradientTransform="matrix(0 2.7411 -1.8799 0 120.78 -78.804)" gradientUnits="userSpaceOnUse"><stop stop-color="#fff" offset="0"/><stop stop-color="#fff" stop-opacity="0" offset="1"/></radialGradient><radialGradient id="j" cx="127.75" cy="261.27" r="92.25" gradientTransform="matrix(1.663 0 0 .34037 -84.702 148.57)" gradientUnits="userSpaceOnUse" xlink:href="#a"/><radialGradient id="i" cx="20.48" cy="31.231" r="93" gradientTransform="matrix(0 1.0485 -3.8781 0 165.49 13.855)" gradientUnits="userSpaceOnUse"><stop stop-color="#fff" offset="0"/><stop stop-color="#fff" stop-opacity="0" offset="1"/></radialGradient><radialGradient id="h" cx="127.75" cy="236.25" r="92.25" gradientTransform="matrix(1.5709 0 0 1.1159 -53.057 .95481)" gradientUnits="userSpaceOnUse" xlink:href="#a"/><radialGradient id="g" cx="210.96" cy="38.58" r="34.234" gradientTransform="matrix(1.0442 0 0 .96082 -12.745 6.3495)" gradientUnits="userSpaceOnUse"><stop offset="0"/><stop stop-opacity="0" offset="1"/></radialGradient><radialGradient id="f" cx="196.36" cy="44.213" r="23.763" gradientTransform="matrix(1 0 0 .98931 0 .47264)" gradientUnits="userSpaceOnUse"><stop offset="0"/><stop stop-opacity="0" offset="1"/></radialGradient><linearGradient id="r" x1="190.98" x2="196.45" y1="52.973" y2="39.564" gradientTransform="translate(-1.5 2.5214)" gradientUnits="userSpaceOnUse"><stop offset="0"/><stop stop-opacity="0" offset="1"/></linearGradient><radialGradient id="e" cx="190.88" cy="49.25" r="23.5" gradientTransform="matrix(1.4473 0 0 1.4473 -85.751 -21.529)" gradientUnits="userSpaceOnUse"><stop stop-color="#fff" offset="0"/><stop stop-color="#fff" stop-opacity="0" offset="1"/></radialGradient><radialGradient id="d" cx="192.25" cy="45.75" r="23.5" gradientTransform="matrix(.5972 -.4509 1.7045 2.2575 -.54025 29.158)" gradientUnits="userSpaceOnUse"><stop stop-color="#fff" offset="0"/><stop stop-color="#e6e6e6" offset=".44761"/><stop stop-color="#cbcbcb" offset=".81268"/><stop stop-color="#dbdbdb" offset="1"/></radialGradient><radialGradient id="c" cx="186.77" cy="27.786" r="8.9714" gradientTransform="matrix(2.1152 0 0 2.9279 -207.44 -53.617)" gradientUnits="userSpaceOnUse"><stop stop-color="#fff" offset="0"/><stop stop-color="#fff" stop-opacity="0" offset="1"/></radialGradient><radialGradient id="b" cx="208.68" cy="39.762" r="13.625" gradientTransform="matrix(.99733 .072992 -.11677 1.5955 5.1997 -29.524)" gradientUnits="userSpaceOnUse"><stop stop-color="#fff" offset="0"/><stop stop-color="#fff" stop-opacity="0" offset="1"/></radialGradient><linearGradient id="q" x1="189.25" x2="189.25" y1="23.662" y2="43.888" gradientUnits="userSpaceOnUse"><stop stop-color="#fff" offset="0"/><stop stop-color="#fff" stop-opacity="0" offset="1"/></linearGradient></defs><g transform="translate(-24 -636)"><g transform="translate(-400 -316)"><g transform="translate(0,920)"><rect transform="matrix(1.1875 0 0 .625 372.25 116)" x="60" y="244" width="176" height="12" rx="30.842" ry="6" filter="url(#ad)" opacity=".3"/><rect transform="matrix(.88797 0 0 .18573 434.71 228.96)" x="22.995" y="223.44" width="211" height="18.114" rx="4.9924" ry="9.0572" fill-rule="evenodd" filter="url(#ac)" opacity=".8"/><path transform="matrix(.98925 0 0 1.0129 401.72 .5305)" d="m55.872 47.328c-0.56266 0-1 0.43734-1 1l-1.0109 217c0 0.56266 0.43734 1 1 1h186.02c0.56266 0 1-0.43734 1-1l-1.0109-171c0-13.558-10.858-25.296-16.281-30.719-5.4231-5.4231-17.161-16.281-30.719-16.281z" fill="url(#s)" fill-rule="evenodd" filter="url(#t)" opacity=".7"/><g transform="matrix(.98925 0 0 1.0232 401.72 .044255)"><g transform="translate(19.872 27.828)"><path d="m36 19c-0.56266 0-1 0.43734-1 1v217c0 0.56266 0.43734 1 1 1h184c0.56266 0 1-0.43734 1-1v-171c0-13.558-10.858-25.296-16.281-30.719-5.4231-5.4231-17.161-16.281-30.719-16.281z" fill="url(#m)"/><path d="m36.591 19.704c-0.55904 0-0.99357 0.43453-0.99357 0.99357v215.61c0 0.55904 0.43453 0.99357 0.99357 0.99357h182.82c0.55904 0 0.99357-0.43453 0.99357-0.99357v-169.9c0-13.471-10.788-25.133-16.177-30.521-5.3882-5.3882-17.051-16.177-30.521-16.177z" fill="none" stroke="url(#l)" stroke-dashoffset=".7" stroke-linecap="round" stroke-width=".99397"/><path d="m36 19c-0.56266 0-1 0.43734-1 1v217c0 0.56266 0.43734 1 1 1h184c0.56266 0 1-0.43734 1-1v-171c0-13.558-10.858-25.296-16.281-30.719-5.4231-5.4231-17.161-16.281-30.719-16.281z" clip-path="url(#ae)" fill="none" filter="url(#aa)" opacity=".072289" stroke="#000" stroke-dashoffset=".7" stroke-linecap="round" stroke-width=".99397"/><path d="m36.625 19.875c-0.56266 0-1 0.43734-1 1v217c0 0.56266 0.43734 1 1 1v-217c0-0.56266 0.43734-1 1-1h138c11.863 0 22.341 8.3199 28.406 14.031-5.8462-5.6773-16.801-15.031-29.406-15.031z" fill="url(#k)" fill-rule="evenodd"/><rect x="35.5" y="186.25" width="184.5" height="51.25" rx="1.0156" ry="1.0156" fill="url(#j)" fill-rule="evenodd" opacity=".56024"/></g><path d="m55.875 46.812c-0.56266-1e-6 -1 0.43734-1 1v88.188h186v-42.188c-1e-5 -13.558-10.858-25.296-16.281-30.719-5.4231-5.4231-17.161-16.281-30.719-16.281z" fill="url(#i)"/><rect x="55.372" y="263.83" width="184.5" height="1.5" rx="1.0156" ry="1.0156" fill="url(#h)" fill-rule="evenodd"/></g></g><g transform="translate(0,-280)" mask="url(#n)" opacity=".7"><g opacity=".3"><rect x="456.12" y="1251.8" width="183.88" height=".25"/><rect x="456.12" y="1259.8" width="183.88" height=".25"/><rect x="456.12" y="1267.8" width="183.88" height=".25"/><rect x="456.12" y="1275.8" width="183.88" height=".25"/><rect x="456.12" y="1283.8" width="183.88" height=".25"/><rect x="456.12" y="1291.8" width="183.88" height=".25"/><rect x="456.12" y="1299.8" width="183.88" height=".25"/><rect x="456.12" y="1307.8" width="183.88" height=".25"/><rect x="456.12" y="1315.8" width="183.88" height=".25"/><rect x="456.12" y="1323.8" width="183.88" height=".25"/><rect x="456.12" y="1331.8" width="183.88" height=".25"/><rect x="456.12" y="1339.8" width="183.88" height=".25"/><g transform="translate(0,96)"><rect x="456.12" y="1251.8" width="183.88" height=".25"/><rect x="456.12" y="1259.8" width="183.88" height=".25"/><rect x="456.12" y="1267.8" width="183.88" height=".25"/><rect x="456.12" y="1275.8" width="183.88" height=".25"/><rect x="456.12" y="1283.8" width="183.88" height=".25"/><rect x="456.12" y="1291.8" width="183.88" height=".25"/><rect x="456.12" y="1299.8" width="183.88" height=".25"/><rect x="456.12" y="1307.8" width="183.88" height=".25"/><rect x="456.12" y="1315.8" width="183.88" height=".25"/><rect x="456.12" y="1323.8" width="183.88" height=".25"/><rect x="456.12" y="1331.8" width="183.88" height=".25"/><rect x="456.12" y="1339.8" width="183.88" height=".25"/></g><rect x="456.12" y="1443.8" width="183.88" height=".25"/><rect x="456.12" y="1451.8" width="183.88" height=".25"/><rect x="456.12" y="1459.8" width="183.88" height=".25"/><rect x="456.12" y="1467.8" width="183.88" height=".25"/></g><g opacity=".1"><rect x="456.12" y="1255.8" width="183.88" height=".25"/><rect x="456.12" y="1263.8" width="183.88" height=".25"/><rect x="456.12" y="1271.8" width="183.88" height=".25"/><rect x="456.12" y="1279.8" width="183.88" height=".25"/><rect x="456.12" y="1287.8" width="183.88" height=".25"/><rect x="456.12" y="1295.8" width="183.88" height=".25"/><rect x="456.12" y="1303.8" width="183.88" height=".25"/><rect x="456.12" y="1311.8" width="183.88" height=".25"/><rect x="456.12" y="1319.8" width="183.88" height=".25"/><rect x="456.12" y="1327.8" width="183.88" height=".25"/><rect x="456.12" y="1335.8" width="183.88" height=".25"/><rect x="456.12" y="1343.8" width="183.88" height=".25"/><rect transform="translate(0,96)" x="456.12" y="1255.8" width="183.88" height=".25"/><rect transform="translate(0,96)" x="456.12" y="1263.8" width="183.88" height=".25"/><rect transform="translate(0,96)" x="456.12" y="1271.8" width="183.88" height=".25"/><rect transform="translate(0,96)" x="456.12" y="1279.8" width="183.88" height=".25"/><rect transform="translate(0,96)" x="456.12" y="1287.8" width="183.88" height=".25"/><rect transform="translate(0,96)" x="456.12" y="1295.8" width="183.88" height=".25"/><rect transform="translate(0,96)" x="456.12" y="1303.8" width="183.88" height=".25"/><rect transform="translate(0,96)" x="456.12" y="1311.8" width="183.88" height=".25"/><rect transform="translate(0,96)" x="456.12" y="1319.8" width="183.88" height=".25"/><rect transform="translate(0,96)" x="456.12" y="1327.8" width="183.88" height=".25"/><rect transform="translate(0,96)" x="456.12" y="1335.8" width="183.88" height=".25"/><rect transform="translate(0,96)" x="456.12" y="1343.8" width="183.88" height=".25"/><rect x="456.12" y="1447.8" width="183.88" height=".25"/><rect x="456.12" y="1455.8" width="183.88" height=".25"/><rect x="456.12" y="1463.8" width="183.88" height=".25"/></g><g transform="translate(-3)"><g transform="matrix(0 1.2182 -1 0 1924 692.34)" opacity=".3"><rect x="456.12" y="1283.8" width="183.88" height=".25"/><rect x="456.12" y="1291.8" width="183.88" height=".25"/><rect x="456.12" y="1299.8" width="183.88" height=".25"/><rect x="456.12" y="1307.8" width="183.88" height=".25"/><rect x="456.12" y="1315.8" width="183.88" height=".25"/><rect x="456.12" y="1323.8" width="183.88" height=".25"/><rect x="456.12" y="1331.8" width="183.88" height=".25"/><rect x="456.12" y="1339.8" width="183.88" height=".25"/><g transform="translate(0,96)"><rect x="456.12" y="1251.8" width="183.88" height=".25"/><rect x="456.12" y="1259.8" width="183.88" height=".25"/><rect x="456.12" y="1267.8" width="183.88" height=".25"/><rect x="456.12" y="1275.8" width="183.88" height=".25"/><rect x="456.12" y="1283.8" width="183.88" height=".25"/><rect x="456.12" y="1291.8" width="183.88" height=".25"/><rect x="456.12" y="1299.8" width="183.88" height=".25"/><rect x="456.12" y="1307.8" width="183.88" height=".25"/><rect x="456.12" y="1315.8" width="183.88" height=".25"/><rect x="456.12" y="1323.8" width="183.88" height=".25"/><rect x="456.12" y="1331.8" width="183.88" height=".25"/><rect x="456.12" y="1339.8" width="183.88" height=".25"/></g><rect x="456.12" y="1443.8" width="183.88" height=".25"/><rect x="456.12" y="1451.8" width="183.88" height=".25"/><rect x="456.12" y="1459.8" width="183.88" height=".25"/><rect x="456.12" y="1467.8" width="183.88" height=".25"/></g><g transform="matrix(0 1.2182 -1 0 1928 692.34)" opacity=".1"><rect x="456.12" y="1291.8" width="183.88" height=".25"/><rect x="456.12" y="1299.8" width="183.88" height=".25"/><rect x="456.12" y="1307.8" width="183.88" height=".25"/><rect x="456.12" y="1315.8" width="183.88" height=".25"/><rect x="456.12" y="1323.8" width="183.88" height=".25"/><rect x="456.12" y="1331.8" width="183.88" height=".25"/><rect x="456.12" y="1339.8" width="183.88" height=".25"/><g transform="translate(0,96)"><rect x="456.12" y="1251.8" width="183.88" height=".25"/><rect x="456.12" y="1259.8" width="183.88" height=".25"/><rect x="456.12" y="1267.8" width="183.88" height=".25"/><rect x="456.12" y="1275.8" width="183.88" height=".25"/><rect x="456.12" y="1283.8" width="183.88" height=".25"/><rect x="456.12" y="1291.8" width="183.88" height=".25"/><rect x="456.12" y="1299.8" width="183.88" height=".25"/><rect x="456.12" y="1307.8" width="183.88" height=".25"/><rect x="456.12" y="1315.8" width="183.88" height=".25"/><rect x="456.12" y="1323.8" width="183.88" height=".25"/><rect x="456.12" y="1331.8" width="183.88" height=".25"/><rect x="456.12" y="1339.8" width="183.88" height=".25"/></g><rect x="456.12" y="1443.8" width="183.88" height=".25"/><rect x="456.12" y="1451.8" width="183.88" height=".25"/><rect x="456.12" y="1459.8" width="183.88" height=".25"/><rect x="456.12" y="1467.8" width="183.88" height=".25"/></g></g></g><g transform="translate(400 923.93)" fill-rule="evenodd"><g transform="matrix(.98925 0 0 1.0232 21.376 24.59)"><path transform="matrix(.76048 0 0 .87302 56.123 8.4826)" d="m162 24c-2.7302 0-5.4062 0.18108-8.0312 0.5625-3.1702 5.9491-4.9688 12.73-4.9688 19.938 0 23.46 19.04 42.5 42.5 42.5 9.7773 0 18.785-3.3191 25.969-8.875-0.73575-29.997-25.296-54.125-55.469-54.125z" fill="url(#g)" filter="url(#ab)" opacity=".16868"/><path transform="translate(0,50)" d="m174-31c13.558 0 22.308 11.846 27.731 17.269s19.269 16.173 19.269 29.731c0-13.558-20.111-8.6028-26.192-8.6028-0.6357 0-1.2268-0.51769-1.1502-1.1502 2.5084-20.705-6.1006-37.247-19.658-37.247z" filter="url(#z)" mask="url(#o)" opacity=".37952"/><path d="m172.59 20.722c24.827-0.87083 48.543 30.546 47.5 47 0-13.558-7.491-16.365-29.984-16.365-0.6357 0-1.1502-0.51307-1.1502-1.1502 0-22.493-2.8077-29.484-16.365-29.484z" fill="url(#f)" filter="url(#y)" opacity=".42771"/><path d="m171.45 22.448c13.558 0 25.308 10.846 30.731 16.269s16.269 17.173 16.269 30.731c0-13.558-6.991-16.365-29.484-16.365-0.6357 0-1.1502-0.51307-1.1502-1.1502 0-22.493-2.8077-29.484-16.365-29.484z" fill="url(#r)" filter="url(#x)" opacity=".27711"/><path d="m173.12 19.75c13.558 0 25.308 10.846 30.731 16.269s16.269 17.173 16.269 30.731c0-13.558-6.991-16.365-29.484-16.365-0.6357 0-1.1502-0.51307-1.1502-1.1502 0-22.493-2.8077-29.484-16.365-29.484z" fill="url(#e)"/><path d="m174 19c13.558 0 25.308 10.846 30.731 16.269s16.269 17.173 16.269 30.731c0-13.558-6.991-16.365-29.484-16.365-0.6357 0-1.1502-0.51307-1.1502-1.1502 0-22.493-2.8077-29.484-16.365-29.484z" fill="url(#d)"/><path d="m174.13 19.031c15.481 1.0337 16.019 13.643 16.263 26.517-0.74413-7.7303 1.374-15.978-4.2426-22.627 4.5078 1.5017 9.8111 5.7816 14.938 9.1924-5.4964-4.8666-14.015-13.001-26.958-13.081z" fill="url(#c)" filter="url(#v)"/><path d="m219.38 57.625c-3.971-8.9-17.43-7.2964-27.25-8 9.9276-0.23867 24.598-2.9842 27.25 8z" fill="url(#b)" filter="url(#u)"/></g><path transform="matrix(.98925 0 0 1.0232 21.376 24.59)" d="m174 19c13.558 0 25.308 10.846 30.731 16.269s16.269 17.173 16.269 30.731c0-13.558-6.991-16.365-29.484-16.365-0.6357 0-1.1502-0.51307-1.1502-1.1502 0-22.493-2.8077-29.484-16.365-29.484z" fill="url(#q)"/></g><g fill="#3465a4" opacity=".5"><rect x="580" y="1088" width="1" height="80"/><rect x="603" y="1088" width="1" height="80"/><path d="m585 1156.2v6.6666l-4-3.3333z"/><path d="m599 1156.2v6.6666l4-3.3333z"/><rect x="584" y="1159" width="16" height="1.0312"/><rect transform="matrix(0,1,1,0,0,0)" x="1066" y="552.25" width="1" height="72.75"/><rect transform="matrix(0,1,1,0,0,0)" x="1082" y="552.25" width="1" height="72.75"/><path d="m613.17 1071h6.6666l-3.3333-4z"/><path d="m613.17 1078h6.6666l-3.3333 4z"/><rect transform="matrix(0,1,1,0,0,0)" x="1069" y="615.97" width="10" height="1.0312"/><rect transform="rotate(90)" x="1136" y="-537.5" width="1" height="61.5"/><rect transform="rotate(90)" x="1154" y="-622" width="1" height="160"/><path d="m487.83 1141h-6.6666l3.3333-4z"/><path d="m487.83 1150h-6.6666l3.3333 4z"/><rect transform="rotate(90)" x="1140" y="-485.03" width="10" height="1.0312"/><rect transform="matrix(0,1,1,0,0,0)" x="1013" y="462" width="1" height="162"/><rect transform="matrix(0,1,1,0,0,0)" x="1031" y="548" width="1" height="76"/><path d="m612.17 1018h6.6666l-3.3333-4z"/><path d="m612.17 1027h6.6666l-3.3333 4z"/><rect transform="matrix(0,1,1,0,0,0)" x="1017" y="614.97" width="10" height="1.0312"/><rect transform="scale(1,-1)" x="485" y="-1112.5" width="1" height="115.5"/><rect transform="scale(1,-1)" x="603" y="-1077" width="1" height="80"/><path d="m490 1008.8v-6.6666l-4 3.3333z"/><path d="m599 1008.8v-6.6666l4 3.3333z"/><rect transform="scale(1,-1)" x="489" y="-1006" width="111" height="1.0312"/><path d="m473.83 1018h-6.6666l3.3333-4z"/><path d="m473.83 1150h-6.6666l3.3333 4z"/><rect transform="rotate(90)" x="1017.1" y="-471.03" width="132.94" height="1.0312"/><path d="m613.17 1087h6.6666l-3.3333-4z"/><path d="m613.17 1150h6.6666l-3.3333 4z"/><rect transform="matrix(0,1,1,0,0,0)" x="1086" y="615.97" width="65.5" height="1.0312"/></g><g opacity=".4"><path d="m468.73 983.13c5.5222-2.0631 0.6123 8.1117 1.1849 0.57634l-0.45853-0.60951-0.72633 0.0332zm4.6787 4.6787c-1.4431 2.3607-2.0168-5.9344 0.26773-2.0026 2.0406-3.3114-0.0105 1.0816-0.26773 2.0026zm2.707-0.79688c-1.6783 4.4479 0.0683-7.5806 2.2909-1.1544 0.2429 1.3189-1.3047 2.551-2.2909 1.1544zm1.834-1.1455c-2.0335-4.3704-1.8464 4.1405 0 0zm4.2598-0.13769c-3.9735-0.6259 1.482 3.8982-3.0706 0.58901-0.53968-2.1088 3.0881-3.2828 3.0706-0.58901zm-0.53906-0.1582c-0.9468-2.6419-3.1672 1.2346 0 0zm3.085-2.625c-1.0737 3.6017-2.1808 5.6524-1.5 0.62573zm1.9395 2.9092c-3.6233 1.0969 2.1566 1.3863 0 0zm1.0752-0.22266c-1.5 4.6977-1.8318-1.7806-1.8916-0.81949-1.838-0.80127 2.6624-0.81861 1.8916 0.81949zm3.4746-1.2832c-2.6312 0.62371 0.3635 5.8169-2.5842 1.0855 0.2344-1.0982 1.63-1.6737 2.5842-1.0855zm3.75 1.3799c-3.9735-0.62589 1.482 3.8982-3.0706 0.58901-0.53968-2.1088 3.0881-3.2828 3.0706-0.58901zm-0.53906-0.1582c-0.94683-2.6419-3.1672 1.2346 0 0zm3.8555 1.4414c-1.6783 4.4479 0.0683-7.5806 2.2909-1.1544 0.24289 1.3189-1.3047 2.551-2.2909 1.1544zm1.834-1.1455c-2.0335-4.3704-1.8464 4.1405 0 0zm3.3545-1.1396c-2.6472 5.5112-3.3219-2.4859 0 0zm1.7139-0.12598c-3.9186 2.8563 3.7793 2.9297 0 0zm0-0.45703c6.5553 4.2245-6.3415 4.4242 0 0zm2.3965 0.0791c1.5113 4.0778-1.5771 5.6077 0 0zm0-1.2773c1.7691-0.32803-0.56298 1.9076 0 0zm4.4707 2.7832c-3.9735-0.62589 1.482 3.8982-3.0706 0.58901-0.53967-2.1088 3.0881-3.2828 3.0706-0.58901zm-0.53906-0.1582c-0.94682-2.6419-3.1672 1.2346 0 0zm3.7852-1.2217c-2.6312 0.62371 0.36351 5.8169-2.5842 1.0855 0.2344-1.0982 1.63-1.6737 2.5842-1.0855zm1.4766-1.0576c2.3044 5.1742-2.1605 5.4946 0 0zm3.9111 3.7148c2.0535-0.96585-0.21443-7.002 1.621-1.7242 0.7176 1.0353 0.53736 3.9951-1.621 1.7242zm5.127-3.293c-2.6341 3.0358 2.703 3.0714 0 0zm-0.33398-0.583c3.7082 3.7761 1.5108 4.2282-1.6909 4.1076 0.43637-1.4184 1.5124-2.5918 1.6909-4.1076z"/><path d="m539.98 1002.5c4.2469 1.2067-4.1368-0.4329 1.333-2.2325-3.9945-3.3749 3.7801 0.5453-1.333 2.2325m4.9365-3.3604c-3.4808 2.7984 1.31 3.6179 0 0zm-0.15528-0.51562c4.6987 7.08-5.1737 3.7382 0 0zm2.4522 3.876c2.0535-0.9658-0.21444-7.0021 1.621-1.7242 0.71755 1.0353 0.53744 3.9951-1.621 1.7242z"/><path d="m479.16 1144.8c-3.4637 1.959 3.3307 1.9644 0 0m-0.5918-0.2519c-0.24043-6.0082 4.6046 5.6059-0.86172 1.5145-0.18385-0.6127 0.14678-1.443 0.86172-1.5145m-0.2168-0.9346c2.0648 3.1662 2.0386-3.0399 0 0"/><path d="m466.87 1088.1c1.2067-4.247-0.4328 4.1368-2.2324-1.333-2.7796 4.4364-0.62029-4.1385 2.2324 1.333zm-1.9248-4.6494c2.3678 3.5876 2.3335-3.4324 0 0zm-1.8545-1.1748c0.67462 3.7079 5.4533-2.6223 3.8522 2.2227-1.5746 1.1193-5.0328 0.3383-3.8522-2.2227m-0.0967-1.3125c-0.32225-2.6503 2.0438 0.01 3.3728-2.2986 2.3477 4.5588-1.3294-1.9561-1.8583 2.4316z"/><path d="m622.5 1022.6c-3.4637 1.959 3.3307 1.9644 0 0m-0.5918-0.2519c-0.24042-6.0082 4.6046 5.6059-0.86172 1.5145-0.18385-0.6127 0.14678-1.443 0.86172-1.5145m-0.21679-0.9346c2.0648 3.1662 2.0386-3.0399 0 0"/><path d="m621.08 1071.3c5.9601-1.4474-1.6636 8.424 1.8924 0.8575l-0.25213-0.3447z"/><path d="m591 1167.1c3.7066-0.6743-2.6158-5.4547 2.2235-3.8505 1.1178 1.5745 0.33774 5.0345-2.2235 3.8505m1.1777-1.8545c3.7809-2.5623-3.6494-2.5826 0 0"/><path d="m623.42 1118.2c-0.96582-2.0536-7.002 0.2144-1.7242-1.6211 1.0354-0.7176 3.9951-0.5372 1.7242 1.6211zm-3.876-3.5684c-1.4474-5.96 8.424 1.6635 0.85757-1.8924l-0.34473 0.2521zm2.2969-5.2354c1.9589 3.4637 1.9644-3.3306 0 0m-0.25195 0.5918c-6.0081 0.2404 5.606-4.6045 1.5145 0.8617-0.61271 0.1839-1.443-0.1467-1.5145-0.8617m-0.93457 0.2168c3.1662-2.0648-3.0399-2.0386 0 0"/></g><path d="m557.98 1083.3c-18.647 1e-4 -31.566 2.0489-38.758 6.1464-7.1913 4.0976-10.787 11.088-10.787 20.97-4e-5 7.8738 2.6758 14.141 8.0275 18.801 5.4352 4.5797 12.794 6.8695 22.076 6.8695 12.794 0 23.037-4.3386 30.73-13.016 7.7765-8.7575 11.665-20.367 11.665-34.829v-4.9412h-22.954m46.032-9.1593v47.539c0 22.855 6.592 29.471 6.592 29.471h-23.079s-6.592-6.5725-6.592-20.488c-5.2681 8.1952-11.832 14.261-19.692 18.198-7.8603 3.8565-17.477 5.7848-28.849 5.7848-14.383 0-25.838-3.8566-34.368-11.57-8.4456-7.7935-12.668-18.198-12.668-31.214-1e-5 -15.185 5.268-26.634 15.804-34.347 10.62-7.713 26.424-11.57 47.412-11.57h32.361v-2.1693c-1.1e-4 -10.204-3.5121-18.078-10.536-23.621-6.9405-5.624-16.724-8.436-29.35-8.4362-8.0275 2e-4 -15.846 0.9241-23.455 2.7719-7.6094 1.8481-14.926 4.62-21.95 8.3157v-20.488c8.4455-3.1333 16.64-5.4633 24.584-6.99 7.9438-1.6067 15.679-2.4102 23.204-2.4103 20.319 1e-4 35.496 5.0618 45.531 15.185 10.034 10.124 15.051 25.469 15.052 46.038" fill="#3465a4" fill-opacity=".19608" stroke="#3465a4" stroke-width="2"/><path d="m469.59 1159.1c1.9101 0.8767-0.2785 6.4962 0 2.257v-2.257zm2.2559 0c0.87893 2.2684-1.6602 0.7205 0 0zm3.3018 1.5908c1.5926-3.6822-0.30228 7.2779-2.4737 1.3685-0.14925-1.2667 1.5123-2.8547 2.4737-1.3685zm-1.8369 1.1455c0.96116 3.5824 2.6543-1.3164 0.6358-1.0978l-0.29898 0.4075zm5.3965-2.9209c1.7161 1.1052-0.22623 6.5918 0 2.2492v-2.2492zm1.6641 1.2774c1.8176 1.1282-0.59051 4.9154 0.0202 1.2073l-0.019-0.6036-1e-3 -0.6037zm0-1.2774c1.4268-0.158-0.49691 1.5398 0 0zm1.6436 0c0.71738 1.1967 0.64967 3.5814 2.2872 1.3747-2.576 1.4807 2.218 4.4937-0.85736 2.4571-1.3121-0.969-1.5158 1.384-1.4794-1.1109 8e-3 -0.907 0.14137-1.8142 0.0496-2.7209zm6.0967 2.7832c-2.3187-0.6194-2.6923 1.9438-0.17119 1.4208-3.491 2.4904-3.7379-4.1829-0.57369-2.7693 0.36987 0.3737 0.57889 0.861 0.74488 1.3485zm-0.53906-0.1582c-0.0863-2.2564-3.6585 0.4854-0.7007 0.1051zm3.8672-2.2793c1.3835 1.1524-1.032 3.2784 1.1104 4.2129-1.9579 0.8702-2.5284-3.6595-1.1104-4.2129zm3.0938 1.3096c-3.8035 2.8143 3.951 2.9863 0 0m0-0.4571c4.3813 0.9309-2.5524 5.7299-1.4374 1.0777 0.17253-0.6141 0.76682-1.1553 1.4374-1.0777m7.0342 1.3799c0.2357 4.3547-0.97154-3.006-2.29 0.3319-0.48866 4.2098-0.79528-5.7741 0.43734-1.3323 0.83184-0.7007 2.2115-0.1733 1.8526 1.0004m2.5723 0.3311c-3.045 0.2295-0.25846 2.252 0.63187 0.5753l-0.21009-0.2616zm1.0752-0.2227c1.0902 3.6305-5.3127 0.4758-1.247-0.2794 1.3661-0.3025-2.7414-1.14-0.11747-1.1042 0.81609-0.3187 1.4815 0.6676 1.3644 1.3836m0.72656-1.4091c1.3012 2.0057 2.0095 2.7739 2.7934 0.2808 1.007 1.8497-2.8643 4.3605-2.3105 0.8972l-0.25719-0.5827zm6.7441 1.5058c-2.3187-0.6194-2.6923 1.9438-0.1712 1.4208-3.491 2.4903-3.7379-4.1829-0.57367-2.7693 0.36987 0.3737 0.57889 0.861 0.74487 1.3485zm-0.53906-0.1582c-0.0863-2.2564-3.6585 0.4854-0.7007 0.1051zm5.4258-1.251c-3.81-0.1753 2.505 3.3563-1.561 3.1771-1.4724-0.1081 2.537-1.057-0.10434-1.7894-1.9986-0.7268 0.88555-2.2297 1.6653-1.3877m2.3086 0.2813c-3.8035 2.8143 3.951 2.9863 0 0m0-0.4571c4.3813 0.9309-2.5524 5.7299-1.4374 1.0777 0.1725-0.6142 0.76682-1.1553 1.4374-1.0777m4.9512 0.709c2.3966-3.1028 2.4236 4.8668 1.6154 0.9741-0.90804-3.7417-2.2261 4.1963-1.9727-0.059-1.2644-3.0922-2.3711 3.8913-2.2136 0.065-0.78821-1.7807 1.8078-2.0328 2.5709-0.9806m6.0996 0.876c-2.3187-0.6194-2.6923 1.9438-0.1712 1.4208-3.491 2.4904-3.7379-4.1829-0.57368-2.7693 0.36988 0.3737 0.57889 0.861 0.74488 1.3485zm-0.53906-0.1582c-0.0863-2.2564-3.6585 0.4853-0.7007 0.1051zm5.4258-1.251c-3.81-0.1753 2.505 3.3563-1.561 3.1771-1.4724-0.1081 2.537-1.057-0.10434-1.7894-1.9986-0.7268 0.88555-2.2297 1.6653-1.3877m2.3086 0.2813c-3.8035 2.8143 3.951 2.9863 0 0m0-0.4571c4.3813 0.9309-2.5524 5.7299-1.4374 1.0777 0.17251-0.6141 0.76682-1.1553 1.4374-1.0777m4.2978 0.5831c-2.0016-0.2893-1.5932 4.4-1.9776 0.7125-0.96887-0.8735 2.1936-1.9159 1.9776-0.7125zm1.1045-1.4356c1.3835 1.1524-1.0319 3.2784 1.1104 4.2129-1.9579 0.8702-2.5284-3.6595-1.1104-4.2129zm-72.691 8.8096c-3.8035 2.8143 3.951 2.9863 0 0m0-0.4571c4.3813 0.9309-2.5524 5.7299-1.4374 1.0777 0.17252-0.6141 0.76682-1.1553 1.4374-1.0777m4.0576-1.1982c-1.2028 1.274-1.0253 6.8883-1.733 2.3859-0.38176-1.2454 0.38161-2.4529 1.733-2.3859zm2.8916 0.3457c1.3836 1.1524-1.032 3.2784 1.1104 4.2129-1.9579 0.8702-2.5284-3.6595-1.1104-4.2129zm4.6289 2.4375c-2.3187-0.6194-2.6923 1.9438-0.1712 1.4208-3.491 2.4903-3.7379-4.1829-0.57367-2.7693 0.36987 0.3737 0.57889 0.861 0.74487 1.3485zm-0.53906-0.1582c-0.0863-2.2564-3.6585 0.4854-0.7007 0.1051zm4.0459-1.3476c-2.0552 0.6434 0.89068 4.7715-1.7029 2.1712-2.0423 2.4347 0.75098-1.6409-1.1258-2.1636 1.1577 2.0051 1.4522 0.2979 2.8287-0.01zm1.3564-0.9317c1.3835 1.1524-1.032 3.2784 1.1104 4.2129-1.9579 0.8702-2.5284-3.6595-1.1104-4.2129zm6.46 2.2324c0.23571 4.3547-0.97154-3.006-2.29 0.3319-0.48866 4.2098-0.79529-5.7741 0.43734-1.3323 0.83183-0.7007 2.2115-0.1733 1.8526 1.0004m3.8877 0.2051c-2.3187-0.6194-2.6923 1.9438-0.1712 1.4208-3.491 2.4903-3.7379-4.1829-0.57367-2.7693 0.36987 0.3737 0.57889 0.861 0.74487 1.3485zm-0.53907-0.1582c-0.0863-2.2564-3.6585 0.4854-0.7007 0.1051zm3.3252-0.8437c-2.0016-0.2893-1.5932 4.4-1.9776 0.7125-0.96886-0.8735 2.1936-1.9159 1.9776-0.7125zm3.249 1.0019c-2.3187-0.6194-2.6923 1.9438-0.17119 1.4208-3.491 2.4904-3.7379-4.1829-0.57369-2.7693 0.36987 0.3737 0.57889 0.861 0.74488 1.3485zm-0.53906-0.1582c-0.0863-2.2564-3.6585 0.4854-0.7007 0.1051zm1.5615 1.1895c2.0275 0.2854-1.3727 2.176 0 0zm6.0381-0.8936c-0.96329-3.5782-2.6509 1.3198-0.63456 1.098l0.29847-0.4077zm-1.834-1.1455c4.17-2.199 0.3998 6.091-0.59794 1.5505-0.26544-1.1442 0.48961-4.9407 0.59794-1.5505zm3.2314 1.4883c-0.23414-4.3643 0.96549 3.0033 2.2918-0.3305 0.588-4.4305 0.87309 4.4075-1.6679 1.1713l-0.29953-0.3743-0.32438-0.4665m4.3975-2.918c1.3835 1.1524-1.0319 3.2784 1.1104 4.2129-1.9579 0.8702-2.5284-3.6595-1.1104-4.2129zm3.7559-0.1611c1.9101 0.8767-0.27849 6.4962 0 2.257v-2.257zm2.2559 0c0.87894 2.2684-1.6602 0.7205 0 0zm3.6973 1.7226c2.3966-3.1028 2.4236 4.8668 1.6153 0.9741-0.90804-3.7417-2.2261 4.1963-1.9727-0.059-1.2644-3.0922-2.3711 3.8913-2.2136 0.065-0.78821-1.7807 1.8078-2.0328 2.571-0.9806m6.4746-0.2519c-3.8035 2.8142 3.951 2.9863 0 0m0-0.4571c4.3813 0.9309-2.5524 5.7299-1.4374 1.0777 0.17251-0.6141 0.76682-1.1553 1.4374-1.0777m2.3408 2.0655c-0.23415-4.3643 0.96549 3.0033 2.2919-0.3305 0.588-4.4305 0.87307 4.4075-1.668 1.1713l-0.29953-0.3743-0.32438-0.4665m4.3975-2.918c1.3835 1.1524-1.0319 3.2784 1.1104 4.2129-1.9579 0.8702-2.5284-3.6595-1.1104-4.2129zm5.0039 1.3096c-3.8035 2.8143 3.951 2.9863 0 0m0-0.4571c4.3813 0.9309-2.5524 5.7299-1.4374 1.0777 0.1725-0.6142 0.76682-1.1553 1.4374-1.0777m4.0576-1.1982c-1.2028 1.274-1.0253 6.8883-1.733 2.3859-0.38177-1.2454 0.38163-2.4529 1.733-2.3859zm2.3584 1.2774c1.8176 1.1281-0.59052 4.9154 0.0202 1.2073l-0.019-0.6036-1e-3 -0.6037zm0-1.2774c1.4268-0.158-0.49691 1.5398 0 0zm3.8232 1.7754c1.5926-3.6822-0.30227 7.2779-2.4737 1.3685-0.14926-1.2667 1.5123-2.8547 2.4737-1.3685zm-1.8369 1.1455c0.96116 3.5824 2.6544-1.3164 0.63581-1.0978l-0.29899 0.4075zm6.293-0.1377c-2.3187-0.6194-2.6923 1.9438-0.17121 1.4208-3.491 2.4904-3.7379-4.1829-0.57367-2.7693 0.36987 0.3737 0.5789 0.861 0.74488 1.3485zm-0.53907-0.1582c-0.0863-2.2564-3.6585 0.4853-0.7007 0.1051zm2.915 0.2842c-3.045 0.2295-0.25846 2.252 0.63187 0.5753l-0.21009-0.2616zm1.0752-0.2227c1.0902 3.6305-5.3127 0.4758-1.247-0.2794 1.3661-0.3025-2.7414-1.14-0.11747-1.1042 0.81609-0.3187 1.4815 0.6676 1.3644 1.3836m3.2051-1.3125c-3.81-0.1753 2.505 3.3563-1.561 3.1771-1.4724-0.1081 2.537-1.057-0.10434-1.7894-1.9986-0.7268 0.88556-2.2297 1.6653-1.3877" opacity=".4"/><path d="m495.62 1044.4c1.1286 0.5717 0.69464 4.1818 0.0766 4.0883-0.21713-1.3486-0.0138-2.728-0.0766-4.0883zm2.2559 0c0.51279 1.9555-1.1282 1.629-0.35401-0.044zm3.6973 1.7226c1.5959-2.3591 3.2466 2.1371 1.8063 2.4171 0.32917-1.1354-0.88907-4.0522-1.603-1.7958 0.23082 0.9886-0.79979 3.1012-0.58121 0.8948 0.38911-2.3018-2.2109-1.9113-1.6532 0.1257-0.39065 2.7903-1.3321-3.2722 0.34653-2.1364 0.52878-0.4316 1.5161-0.2084 1.6845 0.4946m4.8896-0.6299c1.1997 0.064 1.113 4.0955 1.5102 1.0221 0.85754-2.3877 1.4839 1.0371 1.7738 1.1217 0.0422-1.4035 1.3988-3.251 0.79086-0.7143 0.1637 1.593-1.6637 2.4758-1.5501 0.3722-0.41036-2.9903-1.0392 3.7629-1.9362 0.4482-0.19618-0.7499-0.39237-1.5-0.58858-2.2499zm7.125 0.5039c-1.9664-1.1944-1.2571 5.069-1.9428 1.3058-0.89545-1.4857 1.8722-2.7288 1.9428-1.3058zm0.57128-0.5039c1.6228 0.6059-0.15211 5.2322-0.0427 1.8137 0.0267-0.602 0.16706-1.2136 0.0427-1.8137zm0-1.2773c1.4366-0.1905-0.36549 1.6769 0 0zm2.1973 0.3457c-0.85796 1.1446 2.3381 1.0282 0.19533 1.4839-1.6456 1.3944 2.1742 2.9851-0.0902 2.7147-0.71061-0.8713-1.5078-3.7912-0.10513-4.1986zm1.8223 0.9316c1.6227 0.6059-0.15212 5.2322-0.0427 1.8137 0.0267-0.602 0.16708-1.2136 0.0427-1.8137zm0-1.2773c1.4366-0.1905-0.36549 1.6769 0 0zm4.3916 2.5781c0.54978 1.1491-0.84048 2.991-0.42284 0.7026 0.20099-2.2833-2.433-1.5821-1.769 0.3506-0.51644 2.5669-1.3081-3.3629 0.43709-2.2868 0.78702-0.5216 1.9996 0.303 1.7548 1.2336m3.2402 0.3018c-0.27372-2.9954-3.6766 1.4136-0.64504 1.1602 0.45363-0.1648 0.77864-0.6784 0.64504-1.1602m0.53906 1.2715c0.79335 2.43-4.4052 1.1985-1.239 1.1643 2.1612-1.7201-2.3822 0.05-1.7296-2.5772 0.0817-2.3444 4.2711-1.7912 2.9495 0.6996l-3e-3 0.3665 0.0222 0.3468zm-28.661 4.7226c-0.28281 0.7124-3.086 0.3181-0.85468 1.1954 2.9149 1.2515-1.6816 3.1457-1.2004 1.4178 2.1175 0.8201 1.4836-1.207-0.053-1.3687-0.82258-1.2292 1.3362-1.8122 2.1081-1.2445m2.3086 0.2813c-2.6014 0.4641 0.83757 4.4516 0.94617 1.176 9e-3 -0.5325-0.34608-1.1906-0.94617-1.176m0-0.4571c3.2888 0.1536 0.36689 5.7804-1.3943 2.5042-0.39548-0.9886 0.10724-2.6138 1.3943-2.5042m4.9512 0.709c1.5959-2.3591 3.2466 2.1371 1.8063 2.4171 0.32917-1.1354-0.88907-4.0522-1.603-1.7958 0.23082 0.9886-0.79979 3.1012-0.58121 0.8948 0.38911-2.3018-2.2109-1.9113-1.6532 0.1257-0.39065 2.7903-1.3321-3.2722 0.34653-2.1364 0.52878-0.4316 1.5161-0.2084 1.6845 0.4946m6.0996 0.876c-0.83959 0.2839-3.772 0.3386-1.5977 1.2845 3.214-0.1124-1.232 1.6603-1.3331-0.5806-0.9873-2.3089 2.9914-3.3611 2.9308-0.7039zm-0.53907-0.1582c0.12931-2.1169-3.387 0.4625-0.55648 9e-4 0.18549-2e-4 0.37099-6e-4 0.55648-9e-4zm1.957-2.2793c-0.85795 1.1446 2.3381 1.0282 0.19533 1.4839-1.6456 1.3945 2.1742 2.9851-0.0902 2.7147-0.7106-0.8713-1.5078-3.7912-0.10515-4.1986zm4.5498 2.2324c0.54978 1.1491-0.84048 2.991-0.42283 0.7026 0.20101-2.2833-2.433-1.5821-1.769 0.3506-0.62806 2.3489-0.63695-2.2163-0.56518-2.9342 0.86198-2.0591 0.0432 2.3817 1.6348 0.4834 0.68495 0.014 1.2637 0.7266 1.1222 1.3976m1.081-1.3008c1.6228 0.6059-0.15211 5.2322-0.0427 1.8137 0.0267-0.602 0.16706-1.2136 0.0427-1.8137zm0-1.2773c1.4366-0.1905-0.36549 1.6769 0 0zm4.3916 2.5781c0.54979 1.1491-0.84049 2.991-0.42284 0.7026 0.20101-2.2833-2.433-1.5821-1.769 0.3506-0.51644 2.5669-1.3081-3.3629 0.43708-2.2868 0.78702-0.5216 1.9996 0.303 1.7548 1.2336m3.2402 0.3018c-0.27372-2.9954-3.6766 1.4136-0.64503 1.1602 0.45363-0.1648 0.77863-0.6784 0.64503-1.1602m0.53906 1.2715c0.79334 2.43-4.4052 1.1984-1.239 1.1643 2.1612-1.7201-2.3822 0.05-1.7296-2.5772 0.0817-2.3444 4.2711-1.7912 2.9495 0.6996l-3e-3 0.3665 0.0222 0.3468zm-27.943 5.9267c0.54978 1.1491-0.84048 2.991-0.42282 0.7026 0.20097-2.2832-2.433-1.5821-1.769 0.3506-0.62807 2.3489-0.63691-2.2163-0.56517-2.9342 0.86198-2.0591 0.0432 2.3817 1.6348 0.4834 0.68495 0.014 1.2637 0.7266 1.1222 1.3976m3.8877 0.2051c-0.83959 0.2839-3.772 0.3386-1.5977 1.2845 3.214-0.1124-1.232 1.6603-1.3331-0.5806-0.98731-2.3089 2.9914-3.3612 2.9308-0.7039zm-0.53906-0.1582c0.1293-2.1169-3.387 0.4625-0.55649 9e-4 0.18549-2e-4 0.37099-6e-4 0.55649-9e-4zm3.3252-0.8438c-1.9664-1.1943-1.2571 5.069-1.9428 1.3058-0.89543-1.4857 1.8722-2.7288 1.9428-1.3058zm3.249 1.002c-0.83959 0.2839-3.772 0.3386-1.5977 1.2845 3.214-0.1124-1.232 1.6603-1.3331-0.5806-0.98731-2.3089 2.9914-3.3611 2.9308-0.7039zm-0.53906-0.1582c0.1293-2.1169-3.387 0.4625-0.55648 9e-4 0.18549-2e-4 0.37099-6e-4 0.55648-9e-4z" opacity=".4"/><path d="m544.38 1093.3c-0.28182 0.7132-3.0866 0.3174-0.85467 1.1954 2.9692 1.3072-1.7889 3.076-1.1589 1.432 1.4821 1.0007 2.0125-1.2261 0.25815-1.0425-1.5844-1.11 0.72687-2.3582 1.7554-1.5849m2.3086 0.2813c-2.6015 0.4641 0.83762 4.4516 0.94614 1.1761 9e-3 -0.5325-0.34607-1.1907-0.94614-1.1761m0-0.4571c3.1239 0.1255 0.67125 5.5222-1.308 2.7019-0.54709-0.999-0.0564-2.804 1.308-2.7019m4.9512 0.709c1.596-2.3591 3.2467 2.1375 1.8061 2.4171 0.33039-1.1365-0.89102-4.0531-1.6031-1.7945 0.23195 0.9904-0.80095 3.0988-0.58072 0.8923 0.38635-2.3046-2.2122-1.906-1.6533 0.1299-0.3929 2.7837-1.33-3.2766 0.34622-2.1392 0.52873-0.4319 1.5164-0.2087 1.6848 0.4944m6.0996 0.876c-0.8401 0.2831-3.7721 0.3396-1.5974 1.2843 3.2134-0.1112-1.233 1.6598-1.3335-0.5806-0.9869-2.3088 2.9915-3.3607 2.9309-0.7037zm-0.53906-0.1582c0.12935-2.1168-3.3867 0.4626-0.55622 9e-4 0.18541-2e-4 0.37081-6e-4 0.55622-9e-4zm1.957-2.2793c-0.85693 1.1459 2.3386 1.0275 0.19462 1.4843-1.644 1.3951 2.1755 2.9852-0.0898 2.7142-0.70966-0.8713-1.5079-3.7914-0.10483-4.1985zm4.5498 2.2324c0.55047 1.1523-0.84274 2.9899-0.42318 0.6997 0.19525-2.284-2.4331-1.5735-1.7686 0.3563-0.63021 2.3426-0.63572-2.2216-0.56515-2.9385 0.86354-2.056 0.042 2.3861 1.6348 0.485 0.68491 0.014 1.2637 0.7265 1.1222 1.3975m1.0811-1.3007c1.6231 0.6058-0.15261 5.2323-0.0427 1.8135 0.0267-0.602 0.16682-1.2134 0.0427-1.8135zm0-1.2774c1.4374-0.1915-0.36623 1.678 0 0zm4.3916 2.5781c0.55046 1.1523-0.84274 2.9899-0.42318 0.6997 0.19527-2.284-2.4331-1.5736-1.7686 0.3563-0.51901 2.5596-1.3058-3.3665 0.43673-2.2894 0.78693-0.522 1.9999 0.3027 1.7551 1.2334m3.2402 0.3018c-0.27372-2.9954-3.6766 1.4136-0.64505 1.1602 0.45364-0.1648 0.77863-0.6784 0.64505-1.1602m0.53906 1.2715c0.7931 2.4305-4.4055 1.1976-1.239 1.1644 2.1612-1.7205-2.3824 0.05-1.7297-2.5776 0.0819-2.3439 4.2712-1.7908 2.9496 0.6999l-3e-3 0.3665 0.0221 0.3468zm-27.416 5.9267c0.55046 1.1523-0.84274 2.9899-0.42318 0.6997 0.19527-2.284-2.4331-1.5736-1.7686 0.3563-0.63021 2.3426-0.63571-2.2216-0.56514-2.9385 0.86353-2.056 0.042 2.3861 1.6348 0.485 0.6849 0.014 1.2637 0.7265 1.1222 1.3975m3.8877 0.2051c-0.8401 0.2831-3.7721 0.3396-1.5974 1.2843 3.2134-0.1112-1.233 1.6598-1.3335-0.5806-0.9869-2.3088 2.9915-3.3607 2.9309-0.7037zm-0.53906-0.1582c0.12933-2.1168-3.3867 0.4626-0.55621 9e-4 0.1854-2e-4 0.3708-6e-4 0.55621-9e-4zm3.3252-0.8437c-1.9669-1.1933-1.2575 5.0718-1.943 1.3032-0.89122-1.4874 1.8684-2.7228 1.943-1.3032zm3.249 1.0019c-0.84009 0.2831-3.7721 0.3396-1.5974 1.2843 3.2134-0.1112-1.233 1.6598-1.3335-0.5806-0.9869-2.3088 2.9915-3.3607 2.9309-0.7037zm-0.53906-0.1582c0.12934-2.1168-3.3867 0.4626-0.55621 9e-4 0.1854-2e-4 0.37081-6e-4 0.55621-9e-4zm4.8252 0.2842c-2.2123-0.3063 0.21324 2.6512 0.56154 0.3562 0.0829-0.3035-0.31266-0.5512-0.56154-0.3562zm1.0752-0.2227c1.1324 2.5885-3.5459 2.6037-2.4526 0.054 0.84081-0.286 2.8025-0.3319 0.94438-1.1263-2.9221-0.021 2.3878-1.2277 1.5082 1.0719m3.2051-1.3125c-0.28182 0.7132-3.0866 0.3174-0.85465 1.1954 2.9692 1.3072-1.789 3.076-1.1589 1.432 1.4821 1.0007 2.0126-1.2261 0.25817-1.0425-1.5844-1.1099 0.72686-2.3582 1.7554-1.5849m-21.206 7.4034c1.1998 0.064 1.113 4.0959 1.5104 1.0215 0.8582-2.388 1.4838 1.0413 1.7739 1.1218 0.0418-1.4054 1.3999-3.2501 0.79014-0.7131 0.16405 1.5942-1.6642 2.4732-1.5497 0.3707-0.40998-2.9885-1.0413 3.7661-1.9368 0.4465-0.19597-0.7492-0.39198-1.4983-0.58795-2.2474zm8.0303 1.5058c-0.8401 0.2831-3.7721 0.3396-1.5974 1.2843 3.2134-0.1112-1.233 1.6598-1.3335-0.5806-0.9869-2.3088 2.9916-3.3607 2.9309-0.7037zm-0.53906-0.1582c0.12933-2.1168-3.3867 0.4626-0.55621 9e-4 0.1854-2e-4 0.3708-6e-4 0.55621-9e-4zm1.4238-2.625c1.0692 0.5902 0.57163 4.3546 0.0963 4.2061-0.24914-1.3914-0.0539-2.8044-0.0963-4.2061zm1.6641 0c1.0692 0.5902 0.5716 4.3547 0.0963 4.206-0.24913-1.3914-0.0539-2.8043-0.0963-4.206z" opacity=".4"/></g></g></svg>
