<?xml version="1.0" encoding="UTF-8"?>
<svg enable-background="new" version="1.0" viewBox="0 0 256 256" xmlns="http://www.w3.org/2000/svg" xmlns:xlink="http://www.w3.org/1999/xlink"><defs><filter id="t"><feGaussianBlur stdDeviation="0.5940625"/></filter><clipPath id="z"><path d="m79.406 432.78c4.9521 3.1562 10.098 2.36 13.812 6.2812 0.20853 0.22012 0.41543 0.41335 0.625 0.625-0.91227 0.0132-3.3617-0.64471-5.8125-0.21875-2.04 0.35455-4.026-0.55433-6.4375 1.0312 2.8086-1.177 5.0587-0.41657 7.3125-0.71875 1.757-0.23558 4.8595 0.60574 6.8438 1.75 3.1991 2.92 6.0681 5.0034 6.6562 7.0312 0.75156 2.5912 0.93062 10.177 0.96875 13.312-0.33977-0.27402-0.66062-0.5645-0.96875-0.875-0.68906-0.71321-1.3477-1.4778-2.1562-2.0625-0.77698-0.56343-1.5827-1.081-2.2188-1.8125-0.66486-0.8969-1.4471-1.6971-2.1875-2.5312-0.70592-0.72238-1.4565-1.3967-2.125-2.1562-0.61554-0.75741-1.3361-1.4232-2.1875-1.9062-0.77581-0.47272-1.5828-1.0033-2.5312-0.96875-0.47451-0.0791-0.95887-0.19127-1.3125-0.53125-0.59769-0.44175-1.3243-0.71337-2.0625-0.78125l0.125 0.0625c0.9109 0.24481 1.6818 0.8215 2.4062 1.4062 0.82464 0.41098 1.8702 0.34115 2.5312 1.0625 0.70456 0.74408 1.7606 1.1436 2.2812 2.0625 0.20942 0.35023 0.44974 0.66458 0.71875 0.96875-0.70331 0.27896-1.3791 1.262-1.875 1.5938-1.2981 0.86836-4.6092-2.7475-7.5-2.4062 2.0854-0.0469 5.7552 2.5084 6.4688 2.7188 0.55836 0.16459-1.6664 2.1036-3.375 3.0312 1.5174-0.43138 3.9773-2.5172 4.4375-2.625 0.57771-0.13527 1.1621-1.9473 2.4375-1.6875 0.26687 0.28232 0.53984 0.57255 0.78125 0.875 0.69303 0.78032 1.3858 1.5403 1.9688 2.4062 0.85162 1.0618 1.9547 1.8779 2.875 2.875 0.7471 0.7803 1.3951 1.6458 2.0938 2.4688 0.93323 1.1249 1.8793 2.2501 2.8125 3.375 0.42144 0.87267 1.0317 1.6104 1.6562 2.3438 0.66563 0.75999 1.3096 1.5578 1.8125 2.4375 0.59909 0.89138 1.1135 1.8414 1.5 2.8438 0.30827 0.94828 0.48395 1.9214 0.625 2.9062 0.19051 1.037 0.34872 2.0991 0.25 3.1562-0.14578 1.5715-0.30651 3.1462-0.4375 4.7188-0.0217 0.7843-0.12135 1.6214 0.25 2.3438 0.88575 0.56065 1.944 0.69175 2.9688 0.75 0.86591-0.0236 1.7265-0.22461 2.4688-0.6875 0.31904-0.16231 0.63392-0.49478 0.46875-0.875-0.18667-1.0174-0.40295-2.0314-0.5-3.0625-0.1344-1.1527-0.25974-2.311-0.34375-3.4688-0.099-1.0951-0.14847-2.1826-0.1875-3.2812 0.0322-1.002 0.0767-2.0359 0.375-3 0.32471-0.94223 0.65194-2.1835 1.25-2.9688 0.85084-1.0428 2.1162-1.5162 3.0938-2.4375 0.82415-0.71738 1.6886-1.3898 2.4688-2.1562 0.75889-0.71303 1.6336-2.171 2.3125-2.9688 0.7624-0.80646 1.4899-0.89854 2.2188-1.625 0.18969-0.12973 0.38766-0.25786 0.59375-0.375 0.52915-0.26792 1.0411-0.57592 1.7188-0.625 0.70029 0.0397 1.394-0.19008 2.0938-0.0937 0.70007 0.0559 1.0293 0.72896 1.7812 0.65625 0.66535-0.12321 1.3522-0.12021 2.0312-0.0625-0.21541-0.0835-0.44604-0.15445-0.6875-0.1875-0.48981-0.0904-0.98368 0.0758-1.4688 0.0313-0.63207-0.054-0.8309-0.55639-1.375-0.71875-0.66242-0.11588-1.3594 0.10128-2.0312 0.0625-0.5382-0.0737-1.0553 0.0455-1.5938 0.0313 0.76409-1.1233 1.4432-2.4472 2.25-3.375 1.3398-1.2447 2.987-2.4822 4.0312-2.9688 1.3919-0.64849 2.3846 0.15819 4.2188-0.75-2.0398 0.86066-3.2805-0.27726-5.6875 1.125-1.3263 0.76242-2.2125 1.1866-2.9688 1.7188-1.5881-1.3451-0.70451-6.0617-2.0938-8.7812 0.0827-0.0958 0.125-0.20732 0.125-0.34375 1.5442-0.65828 3.8554-0.62579 5.3438-0.34375 1.8094 0.34285 1.1428 0.69721 2.0625 0.75 0.8083 0.0464 2.2134 0.8335 3.3438 1.2812 1.2226 0.48428 1.5383-0.0211 3.8438 1.2188-1.6552-1.1205-3.3491-1.1322-3.5938-1.4062 0.7457-2.4294 3.7961-2.8874 5.0625-5.1875-1.7644 2.5927-4.053 2.3398-5.2812 5.0938-1.2265-0.34407-2.4426-0.89298-3.0625-1.2812 1.4979-1.8748-1.6865-7.1896-1.7812-9-0.11059 2.4131 2.8308 5.847 1.25 8.8125-3.1678-1.2587-5.7502-0.78886-7.4375-0.40625-0.0628-0.0425-0.14103-0.0804-0.21875-0.0937-1.3849-2.0411-0.95284-3.5457-2.5-5.7812 0.85981 2.0352 1.0308 4.2145 1.875 5.9688 0.0201 0.0419 0.0431 0.0827 0.0625 0.125-0.0386 0.0749-0.0625 0.16002-0.0625 0.25 0 0.22641 0.14749 0.41694 0.34375 0.5 0.92516 2.7208 0.58242 6.1324 0.8125 8.6562-2.3395-3.8392-5.1562-3.9023-6.7812-10.25 1.3491 7.7694 7.4282 8.4637 5.875 13.344-1.1892 1.2392-3.1172 3.336-4.0312 4.25-0.76285 0.67868-1.5958 1.2684-2.4375 1.8438-0.87643 0.65389-0.79689 1.1332-1.7188 1.7188-0.68733 0.46263-2.2481 0.96188-2.8438 1.4375-0.77914 0.62211-1.2104 1.4697-1.875 2.3125-0.35417 0.47917-1.2396 0.61458-1.5625 1.25-0.32894-1.3324-1.2862-3.8088-3.0938-4.8438-0.89341-0.51154-1.8948-1.4387-2.625-2.2188-0.16244-0.16986-0.32136-0.31728-0.5-0.46875-1.2415-3.0007-1.3751-6.7091-1.6562-10.062 0.097-0.0922 0.17429-0.19076 0.28125-0.28125 0.53668-0.40499 1.0314-0.85932 1.9375-1.125 1.0036-0.19673 1.6425 0.33535 2.6875 0.1875 1.0153-0.18272 1.852-1.0645 2.8438-1.375 0.83379-0.32538 2.075-0.13823 3.0625-0.3125-1.1481 0.056-2.2651-0.14799-3.375 0.1875-0.91936 0.16193-1.4661 1.1166-2.3438 1.1562-1.0076 0.1187-1.6305-0.40688-2.5938-0.21875-0.80343 0.11401-1.4592 0.39725-2.2188 0.5625-0.096-0.0611-0.4129 0.0496-0.40625-0.0625-0.0616-0.56577-0.12813-1.1274-0.21875-1.6562-0.06-3.8967 4.2735-2.5702 5.1562-3.25 0.58133-0.44768 3.8545-3.0494 6.75-3.6562-3.4352 0.61964-6.8993 3.236-6.5625 2.4062 0.43039-1.0604 0.76035-7.918 2.8438-10.375-3.2326 3.1378-1.9374 10.598-4.2812 11.312-1.1493 0.35058-3.9482-0.0106-4.4375 1.375-0.10489-0.29885-0.21204-0.57258-0.34375-0.84375-0.84843-1.7468-3.2081-3.669-5.7188-5.8438-0.24719-1.2233 1.7086-1.6135 1.9062-2.125 0.15296-0.39577 2.4216-2.3888 3-3.6875-1.0818 1.4262-3.1791 3.223-3.2812 2.7188-0.13053-0.6444-2.2318-4.077-1.9688-5.9062-0.63373 2.5132 2.5124 5.711 1.5312 6.7812-0.40432 0.441-1.5683 1.0007-1.8125 1.6562-1.2132-1.0658-2.4193-2.1804-3.5312-3.4062-3.251-3.584-5.7455-2.0317-14.312-5.6562z" fill-rule="evenodd"/></clipPath><filter id="r" x="-.11115" y="-.20272" width="1.2223" height="1.4054"><feGaussianBlur stdDeviation="0.83939158"/></filter><filter id="s"><feGaussianBlur stdDeviation="0.84057318"/></filter><filter id="q" x="-.30265" y="-.30265" width="1.6053" height="1.6053"><feGaussianBlur stdDeviation="3.5333828"/></filter><clipPath id="y"><rect x="84" y="428" width="92" height="56"/></clipPath><clipPath id="a"><path d="m-235.76 72h215.51c2.3504 0 4.2426 1.8922 4.2426 4.2426l-1.5e-5 115.76c0 4-4 8-4 8l-40 40s-4 4-8 4h-167.76c-2.3504 0-4.2426-1.8922-4.2426-4.2426v-163.51c0-2.3504 1.8922-4.2426 4.2426-4.2426z" enable-background="new" fill="#eeeeec"/></clipPath><clipPath id="ab"><path d="m-555.76 72h215.51c2.3504 0 4.2426 1.8922 4.2426 4.2426l-2e-5 115.76c0 4-4 8-4 8l-40 40s-4 4-8 4h-167.76c-2.3504 0-4.2426-1.8922-4.2426-4.2426v-163.51c0-2.3504 1.8922-4.2426 4.2426-4.2426z" enable-background="new" fill="#eeeeec"/></clipPath><filter id="w"><feGaussianBlur stdDeviation="0.99000005"/></filter><clipPath id="aa"><path d="m-235.76 72h215.51c2.3504 0 4.2426 1.8922 4.2426 4.2426l-1.5e-5 115.76c0 4-4 8-4 8l-40 40s-4 4-8 4h-167.76c-2.3504 0-4.2426-1.8922-4.2426-4.2426v-163.51c0-2.3504 1.8922-4.2426 4.2426-4.2426z" enable-background="new" fill="#eeeeec"/></clipPath><filter id="u" x="-.18" y="-.18" width="1.36" height="1.36"><feGaussianBlur stdDeviation="3.9000006"/></filter><clipPath id="x"><path transform="matrix(.46 0 0 .45714 -106.62 74.443)" d="m-235.75 74.121c-1.2075 0-2.1289 0.92144-2.1289 2.1289v163.5c0 1.2075 0.92142 2.1289 2.1289 2.1289h167.75c1.2929 0 3.0052-0.76522 4.3242-1.6445 1.319-0.87932 2.1758-1.7344 2.1758-1.7344l40-40s0.85506-0.85681 1.7344-2.1758 1.6445-3.0313 1.6445-4.3242v-115.75c0-1.2075-0.92143-2.1289-2.1289-2.1289z" enable-background="new" fill="#808080"/></clipPath><filter id="p"><feGaussianBlur stdDeviation="2.9700001"/></filter><filter id="v"><feGaussianBlur stdDeviation="2.3760001"/></filter><linearGradient id="h" x1="-11.986" x2="-11.986" y1="11.5" y2="28.977" gradientTransform="matrix(2.6265 0 0 2.6667 -134.02 85.833)" gradientUnits="userSpaceOnUse"><stop stop-color="#555753" offset="0"/><stop stop-color="#fcaf3e" offset="1"/></linearGradient><linearGradient id="g" x1="25.355" x2="25.355" y1="33.357" y2="31.763" gradientTransform="matrix(2.7059 0 0 3.5 -230.44 58)" gradientUnits="userSpaceOnUse"><stop stop-color="#2e3436" offset="0"/><stop stop-color="#2e3436" stop-opacity="0" offset="1"/></linearGradient><linearGradient id="f" x1="145" x2="149.75" y1="481.12" y2="492.88" gradientTransform="translate(-295.5 -303.5)" gradientUnits="userSpaceOnUse"><stop offset="0"/><stop stop-opacity="0" offset="1"/></linearGradient><radialGradient id="b" cx="130" cy="536.62" r="46" gradientTransform="matrix(3.2093 0 0 .19025 -582.71 79.534)" gradientUnits="userSpaceOnUse"><stop offset="0"/><stop stop-opacity="0" offset="1"/></radialGradient><linearGradient id="o" x1="175.66" x2="168" y1="223.97" y2="183" gradientUnits="userSpaceOnUse"><stop offset="0"/><stop stop-opacity="0" offset="1"/></linearGradient><linearGradient id="n" x1="-173.01" x2="-213.36" y1="196.84" y2="46.222" gradientTransform="translate(280)" gradientUnits="userSpaceOnUse"><stop offset="0"/><stop stop-opacity="0" offset="1"/></linearGradient><radialGradient id="e" cx="-205.38" cy="194.84" r="112" gradientTransform="matrix(3.6313 -.97301 .12553 .4685 827.06 -113.08)" gradientUnits="userSpaceOnUse"><stop stop-color="#fff" offset="0"/><stop stop-color="#eeeeec" offset="1"/></radialGradient><linearGradient id="m" x1="-35.589" x2="-28.106" y1="195.82" y2="203.3" gradientUnits="userSpaceOnUse"><stop stop-color="#fff" offset="0"/><stop stop-color="#fff" stop-opacity="0" offset="1"/></linearGradient><radialGradient id="d" cx="-234.65" cy="20.163" r="112" gradientTransform="matrix(0 .53925 -3.0198 0 127.4 201.85)" gradientUnits="userSpaceOnUse"><stop stop-color="#fff" offset="0"/><stop stop-color="#fff" stop-opacity="0" offset="1"/></radialGradient><linearGradient id="l" x1="-40.305" x2="-65.439" y1="218.33" y2="193.2" gradientTransform="translate(280)" gradientUnits="userSpaceOnUse"><stop stop-color="#fff" stop-opacity="0" offset="0"/><stop stop-color="#fff" offset=".1407"/><stop stop-color="#fff" stop-opacity="0" offset="1"/></linearGradient><linearGradient id="k" x1="-56" x2="-38.462" y1="206.75" y2="226.17" gradientUnits="userSpaceOnUse"><stop stop-opacity=".21622" offset="0"/><stop offset=".46155"/><stop stop-opacity="0" offset="1"/></linearGradient><linearGradient id="j" x1="-55.25" x2="-38.75" y1="203.5" y2="219.25" gradientUnits="userSpaceOnUse"><stop stop-color="#fff" offset="0"/><stop stop-color="#f9f9f9" offset=".12803"/><stop stop-color="#eeeeec" offset=".3232"/><stop stop-color="#989994" offset=".86811"/><stop stop-color="#bec0bd" offset="1"/></linearGradient><linearGradient id="i" x1="-41.997" x2="-38.925" y1="210.5" y2="213.57" gradientUnits="userSpaceOnUse"><stop stop-color="#fff" offset="0"/><stop stop-color="#fff" stop-opacity="0" offset="1"/></linearGradient><radialGradient id="c" cx="30.041" cy="36.636" r="22" gradientTransform="matrix(6.0498 -2.9538 1.8075 3.702 -62.775 117.91)" gradientUnits="userSpaceOnUse"><stop stop-color="#fff" offset="0"/><stop stop-color="#fff" stop-opacity="0" offset="1"/></radialGradient></defs><g transform="translate(-24,-36)"><g><path d="m44.243 74h215.51c2.3504 0 4.2426 1.8922 4.2426 4.2426l-1e-5 115.76c0 4-4 8-4 8l-40 40s-4 4-8 4h-167.76c-2.3504 0-4.2426-1.8922-4.2426-4.2426v-163.51c0-2.3504 1.8922-4.2426 4.2426-4.2426z" enable-background="new" fill="url(#o)" filter="url(#p)" opacity=".8"/><path d="m44.243 72h215.51c2.3504 0 4.2426 1.8922 4.2426 4.2426l-2e-5 115.76c0 4-4 8-4 8l-40 40s-4 4-8 4h-167.76c-2.3504 0-4.2426-1.8922-4.2426-4.2426v-163.51c0-2.3504 1.8922-4.2426 4.2426-4.2426z" enable-background="new" fill="url(#n)" filter="url(#v)" opacity=".7"/><path d="m44.243 72h215.51c2.3504 0 4.2426 1.8922 4.2426 4.2426l-2e-5 115.76c0 4-4 8-4 8l-40 40s-4 4-8 4h-167.76c-2.3504 0-4.2426-1.8922-4.2426-4.2426v-163.51c0-2.3504 1.8922-4.2426 4.2426-4.2426z" enable-background="new" fill="url(#e)"/><path transform="translate(600)" d="m-555.76 72h215.51c2.3504 0 4.2426 1.8922 4.2426 4.2426l-2e-5 115.76c0 4-4 8-4 8l-40 40s-4 4-8 4h-167.76c-2.3504 0-4.2426-1.8922-4.2426-4.2426v-163.51c0-2.3504 1.8922-4.2426 4.2426-4.2426z" clip-path="url(#ab)" enable-background="new" fill="none" filter="url(#w)" stroke="#babdb6" stroke-dashoffset=".5" stroke-linecap="round" stroke-width="2"/><path transform="translate(280)" d="m-235.75 73.768c-1.398 0-2.4824 1.0845-2.4824 2.4824v163.5c0 1.398 1.0844 2.4824 2.4824 2.4824h167.75c1.4107 0 3.1704-0.8037 4.5195-1.7031 1.3491-0.89943 2.2305-1.7793 2.2305-1.7793l40-40s0.87987-0.88133 1.7793-2.2305c0.89943-1.3491 1.7031-3.1088 1.7031-4.5195v-115.75c0-1.398-1.0845-2.4824-2.4824-2.4824z" enable-background="new" fill="none" stroke="url(#m)" stroke-dashoffset=".5" stroke-linecap="round" stroke-width="1.5"/><g transform="matrix(2.1739 0 0 2.1875 511.78 -162.84)" clip-path="url(#x)"><path d="m-211.5 112.84h92v67.657h-92z" fill="url(#h)"/><g transform="translate(-295.5 -310.5)" clip-path="url(#y)"><circle transform="matrix(1.7131 0 0 1.3785 -77.804 -183.18)" cx="110.79" cy="483.03" r="14.01" fill="#fef39e" filter="url(#q)"/><circle transform="matrix(1.1421 0 0 1.1421 -14.536 -68.656)" cx="110.79" cy="483.03" r="14.01" fill="#fef39e"/><circle transform="matrix(.99486 0 0 .99486 1.775 2.4562)" cx="110.79" cy="483.03" r="14.01" fill="#fffbd7" filter="url(#s)"/></g><path d="m-183.5 163.44c-5.0025 0-9.0625 4.06-9.0625 9.0625 0 0.29184 4e-3 0.5902 0.0313 0.875h18.062c0.027-0.2848 0.0313-0.58316 0.0313-0.875 0-5.0025-4.06-9.0625-9.0625-9.0625z" fill="#fff" filter="url(#r)"/><path d="m-211.5 173.63c22.498-3.4115 40.875-0.16667 60.875-0.125l31.125-1.75v8.75h-92z" fill="url(#g)"/><path d="m-186.09 121.28c4.9521 3.1562 10.098 2.36 13.812 6.2812 0.20853 0.22012 0.41543 0.41335 0.625 0.625-0.91227 0.0132-3.3617-0.64471-5.8125-0.21875-2.04 0.35455-4.026-0.55433-6.4375 1.0312 2.8086-1.177 5.0587-0.41657 7.3125-0.71875 1.757-0.23558 4.8595 0.60574 6.8438 1.75 3.1991 2.92 6.0681 5.0034 6.6562 7.0312 0.75156 2.5912 0.93062 10.177 0.96875 13.312-0.33977-0.27402-0.66062-0.5645-0.96875-0.875-0.68906-0.71321-1.3477-1.4778-2.1562-2.0625-0.77698-0.56343-1.5827-1.081-2.2188-1.8125-0.66486-0.8969-1.4471-1.6971-2.1875-2.5312-0.70592-0.72238-1.4565-1.3967-2.125-2.1562-0.61554-0.75741-1.3361-1.4232-2.1875-1.9062-0.77581-0.47272-1.5828-1.0033-2.5312-0.96875-0.47451-0.0791-0.95887-0.19127-1.3125-0.53125-0.59769-0.44175-1.3243-0.71337-2.0625-0.78125l0.125 0.0625c0.9109 0.24481 1.6818 0.8215 2.4062 1.4062 0.82464 0.41098 1.8702 0.34115 2.5312 1.0625 0.70456 0.74408 1.7606 1.1436 2.2812 2.0625 0.20942 0.35023 0.44974 0.66458 0.71875 0.96875-0.70331 0.27896-1.3791 1.262-1.875 1.5938-1.2981 0.86836-4.6092-2.7475-7.5-2.4062 2.0854-0.0469 5.7552 2.5084 6.4688 2.7188 0.55836 0.16459-1.6664 2.1036-3.375 3.0312 1.5174-0.43138 3.9773-2.5172 4.4375-2.625 0.57771-0.13527 1.1621-1.9473 2.4375-1.6875 0.26687 0.28232 0.53984 0.57255 0.78125 0.875 0.69303 0.78032 1.3858 1.5403 1.9688 2.4062 0.85162 1.0618 1.9547 1.8779 2.875 2.875 0.7471 0.7803 1.3951 1.6458 2.0938 2.4688 0.93323 1.1249 1.8793 2.2501 2.8125 3.375 0.42144 0.87267 1.0317 1.6104 1.6562 2.3438 0.66563 0.75999 1.3096 1.5578 1.8125 2.4375 0.59909 0.89138 1.1135 1.8414 1.5 2.8438 0.30827 0.94828 0.48395 1.9214 0.625 2.9062 0.19051 1.037 0.34872 2.0991 0.25 3.1562-0.14578 1.5715-0.30651 3.1462-0.4375 4.7188-0.0217 0.7843-0.12135 1.6214 0.25 2.3438 0.88575 0.56065 1.944 0.69175 2.9688 0.75 0.86591-0.0236 1.7265-0.22461 2.4688-0.6875 0.31904-0.16231 0.63392-0.49478 0.46875-0.875-0.18667-1.0174-0.40295-2.0314-0.5-3.0625-0.1344-1.1527-0.25974-2.311-0.34375-3.4688-0.099-1.0951-0.14847-2.1826-0.1875-3.2812 0.0322-1.002 0.0767-2.0359 0.375-3 0.32471-0.94223 0.65194-2.1835 1.25-2.9688 0.85084-1.0428 2.1162-1.5162 3.0938-2.4375 0.82415-0.71738 1.6886-1.3898 2.4688-2.1562 0.75889-0.71303 1.6336-2.171 2.3125-2.9688 0.7624-0.80646 1.4899-0.89854 2.2188-1.625 0.18969-0.12973 0.38766-0.25786 0.59375-0.375 0.52915-0.26792 1.0411-0.57592 1.7188-0.625 0.70029 0.0397 1.394-0.19008 2.0938-0.0937 0.70007 0.0559 1.0293 0.72896 1.7812 0.65625 0.66535-0.12321 1.3522-0.12021 2.0312-0.0625-0.21541-0.0835-0.44604-0.15445-0.6875-0.1875-0.48981-0.0904-0.98368 0.0758-1.4688 0.0313-0.63207-0.054-0.8309-0.55639-1.375-0.71875-0.66242-0.11588-1.3594 0.10128-2.0312 0.0625-0.5382-0.0737-1.0553 0.0455-1.5938 0.0313 0.76409-1.1233 1.4432-2.4472 2.25-3.375 1.3398-1.2447 2.987-2.4822 4.0312-2.9688 1.3919-0.64849 2.3846 0.15819 4.2188-0.75-2.0398 0.86066-3.2805-0.27726-5.6875 1.125-1.3263 0.76242-2.2125 1.1866-2.9688 1.7188-1.5881-1.3451-0.70451-6.0617-2.0938-8.7812 0.0827-0.0958 0.125-0.20732 0.125-0.34375 1.5442-0.65828 3.8554-0.62579 5.3438-0.34375 1.8094 0.34285 1.1428 0.69721 2.0625 0.75 0.8083 0.0464 2.2134 0.8335 3.3438 1.2812 1.2226 0.48428 1.5383-0.0211 3.8438 1.2188-1.6552-1.1205-3.3491-1.1322-3.5938-1.4062 0.7457-2.4294 3.7961-2.8874 5.0625-5.1875-1.7644 2.5927-4.053 2.3398-5.2812 5.0938-1.2265-0.34407-2.4426-0.89298-3.0625-1.2812 1.4979-1.8748-1.6865-7.1896-1.7812-9-0.11059 2.4131 2.8308 5.847 1.25 8.8125-3.1678-1.2587-5.7502-0.78886-7.4375-0.40625-0.0628-0.0425-0.14103-0.0804-0.21875-0.0937-1.3849-2.0411-0.95284-3.5457-2.5-5.7812 0.85981 2.0352 1.0308 4.2145 1.875 5.9688 0.0201 0.0419 0.0431 0.0827 0.0625 0.125-0.0385 0.0749-0.0625 0.16002-0.0625 0.25 0 0.22641 0.14749 0.41694 0.34375 0.5 0.92516 2.7208 0.58242 6.1324 0.8125 8.6562-2.3395-3.8392-5.1562-3.9023-6.7812-10.25 1.3491 7.7694 7.4282 8.4637 5.875 13.344-1.1892 1.2392-3.1172 3.336-4.0312 4.25-0.76285 0.67868-1.5958 1.2684-2.4375 1.8438-0.87643 0.65389-0.79689 1.1332-1.7188 1.7188-0.68733 0.46263-2.2481 0.96188-2.8438 1.4375-0.77914 0.62211-1.2104 1.4697-1.875 2.3125-0.35417 0.47917-1.2396 0.61458-1.5625 1.25-0.32894-1.3324-1.2862-3.8088-3.0938-4.8438-0.89341-0.51154-1.8948-1.4387-2.625-2.2188-0.16244-0.16986-0.32136-0.31728-0.5-0.46875-1.2415-3.0007-1.3751-6.7091-1.6562-10.062 0.097-0.0922 0.17429-0.19076 0.28125-0.28125 0.53668-0.40499 1.0314-0.85932 1.9375-1.125 1.0036-0.19673 1.6425 0.33535 2.6875 0.1875 1.0153-0.18272 1.852-1.0645 2.8438-1.375 0.83379-0.32538 2.075-0.13823 3.0625-0.3125-1.1481 0.056-2.2651-0.14799-3.375 0.1875-0.91936 0.16193-1.4661 1.1166-2.3438 1.1562-1.0076 0.1187-1.6305-0.40688-2.5938-0.21875-0.80343 0.11401-1.4592 0.39725-2.2188 0.5625-0.096-0.0611-0.4129 0.0496-0.40625-0.0625-0.0616-0.56577-0.12813-1.1274-0.21875-1.6562-0.06-3.8967 4.2735-2.5702 5.1562-3.25 0.58133-0.44768 3.8545-3.0494 6.75-3.6562-3.4352 0.61964-6.8993 3.236-6.5625 2.4062 0.43039-1.0604 0.76035-7.918 2.8438-10.375-3.2326 3.1378-1.9374 10.598-4.2812 11.312-1.1493 0.35058-3.9482-0.0106-4.4375 1.375-0.10489-0.29885-0.21204-0.57258-0.34375-0.84375-0.84843-1.7468-3.2081-3.669-5.7188-5.8438-0.24719-1.2233 1.7086-1.6135 1.9062-2.125 0.15296-0.39577 2.4216-2.3888 3-3.6875-1.0818 1.4262-3.1791 3.223-3.2812 2.7188-0.13053-0.6444-2.2318-4.077-1.9688-5.9062-0.63373 2.5132 2.5124 5.711 1.5312 6.7812-0.40432 0.441-1.5683 1.0007-1.8125 1.6562-1.2132-1.0658-2.4193-2.1804-3.5312-3.4062-3.251-3.584-5.7455-2.0317-14.312-5.6562z" fill-rule="evenodd"/><path d="m-152.59 174.38c-0.99296 0.048-1.9825 0.16292-2.5625 0.625 0.0227 0.59538 0.58177 1.2911 1.0312 1.9375 0.90796 1.1902 1.8268 2.3727 2.75 3.5625h4.9688c-0.42722-0.7657-0.82207-1.5501-1.2188-2.3125-0.46532-0.84979-0.81924-1.6927-1.1875-2.5312-0.0422-0.31337-0.52993-0.58499-0.9375-0.71875-0.99474-0.3815-1.965-0.54306-2.8438-0.5625z" fill="url(#f)" fill-rule="evenodd" opacity=".7973"/><path transform="translate(-265.5 -311.5)" d="m80.406 432.78c4.9521 3.1562 10.098 2.36 13.812 6.2812 0.16682 0.1761 0.33306 0.33512 0.5 0.5 0.47081 0.0642 0.86634 0.12875 1.125 0.125-0.20957-0.21165-0.41647-0.40488-0.625-0.625-3.0182-3.186-6.9951-3.2672-11.031-4.875-0.03474-0.0138-0.059-0.0484-0.09375-0.0625-1.1018-0.36006-2.2936-0.75403-3.6875-1.3438zm18.125 0.625c-0.63373 2.5132 2.5124 5.711 1.5312 6.7812-0.28982 0.31612-0.95433 0.69532-1.4062 1.125 0.12002 0.10757 0.25465 0.20603 0.375 0.3125 0.45504-0.64981 1.6018-0.96015 1.75-1.3438 0.0395-0.1023 0.21224-0.3176 0.46875-0.59375 7e-3 -0.15893-0.013-0.33834-0.0625-0.53125-0.36749 0.24581-0.65336 0.32478-0.6875 0.15625-0.13053-0.6444-2.2318-4.077-1.9688-5.9062zm15.125 3c-3.2326 3.1378-1.9374 10.598-4.2812 11.312-0.87305 0.26631-2.6774 0.13373-3.7188 0.65625 0.10564 0.23081 0.1924 0.46561 0.28125 0.71875 0.48934-1.3856 3.2882-1.0244 4.4375-1.375 0.40212-0.12266 0.70836-0.4424 0.9375-0.90625-0.37324 0.16279-0.58924 0.18863-0.5-0.0313 0.43039-1.0604 0.76035-7.918 2.8438-10.375zm-9.875 0.1875c-0.65633 0.8653-1.6747 1.8648-2.4062 2.4062 0.035 0.0884 0.11425 0.25945 0.125 0.3125 6e-3 0.0315 0.01 0.0483 0.0313 0.0625 0.76016-0.80336 1.8677-1.9229 2.25-2.7812zm31.156 1.2812c-0.10681 2.3307 2.612 5.6066 1.375 8.5 0.1879 0.0583 0.37002 0.14826 0.5625 0.21875 1.0309-2.0776-1.8472-6.9922-1.9375-8.7188zm-44.094 1.4375c-0.58853-2e-3 -1.1998 0.0498-1.8125 0.15625-0.24454 0.0425-0.47494 0.0811-0.71875 0.0937 0.57324 0.0163 1.1476 6e-3 1.7188-0.0937 0.3802-0.0661 0.75059-0.10454 1.125-0.125-0.10937-3e-3 -0.20125-0.031-0.3125-0.0313zm-4.9062 0.21875c-1.0529 0.0153-2.138 0.17596-3.3438 0.96875 0.73581-0.30835 1.4245-0.46615 2.0938-0.5625 0.66231-0.25997 1.291-0.37458 1.9062-0.40625-0.21749-6e-3 -0.43522-3e-3 -0.65625 0zm5.6875 0.21875c-0.16769-2e-3 -0.31622 0.0195-0.46875 0.0313 1.7515 0.14017 4.0198 0.84237 5.5938 1.75 3.1991 2.92 6.0681 5.0034 6.6562 7.0312 0.69343 2.3908 0.87982 8.899 0.9375 12.375 0.0202 0.021 0.0422 0.0415 0.0625 0.0625 0.30813 0.3105 0.62898 0.60098 0.96875 0.875-0.0381-3.1355-0.21719-10.721-0.96875-13.312-0.58814-2.0278-3.4571-4.1112-6.6562-7.0312-1.7362-1.0012-4.327-1.7624-6.125-1.7812zm-4.5 0.0625c0.65921 0.0186 1.3013 0.0547 1.9375 0.0313-0.6308-0.0149-1.2724-0.0416-1.9375-0.0313zm38.906 0.59375c0.85981 2.0352 1.0308 4.2145 1.875 5.9688 0.0201 0.0419 0.0431 0.0827 0.0625 0.125-0.0386 0.0749-0.0625 0.16002-0.0625 0.25 0 0.22641 0.14749 0.41694 0.34375 0.5 0.75795 2.229 0.68188 4.8991 0.75 7.1875 0.35884 0.43277 0.71896 0.90498 1.0625 1.4688-0.081-0.88874-0.10567-1.8975-0.125-2.9375-0.22118-1.9088-0.22993-4.2452-1.0625-5.875 0.0353-0.0409 0.0733-0.0777 0.0937-0.125-4e-3 -8e-3 4e-3 -0.0227 0-0.0313-0.0255-0.0612-0.0625-0.11723-0.0625-0.1875 0-0.09 0.024-0.17511 0.0625-0.25-0.0194-0.0423-0.0424-0.0831-0.0625-0.125-0.0198-0.0411-0.0434-0.0834-0.0625-0.125-0.0287 6e-3 -0.0655 0.0249-0.0937 0.0313-0.0628-0.0425-0.14103-0.0804-0.21875-0.0937-1.3849-2.0411-0.95284-3.5457-2.5-5.7812zm19.031 2.6562c-1.6976 2.4946-3.8682 2.3737-5.125 4.8125 0.0526 0.0186 0.10315 0.0444 0.15625 0.0625 0.89869-2.1647 3.7578-2.6757 4.9688-4.875zm-27.688 1.3125c-2.1947 0.39587-4.2804 1.5497-5.5 2.1562-0.0203 0.0759-0.0419 0.19937-0.0625 0.25-0.0928 0.22874 0.15792 0.18098 0.5625 0 1.3537-0.92023 3.2081-2.0307 5-2.4062zm4.9062 1.2812c1.3491 7.7694 7.4282 8.4637 5.875 13.344-1.1892 1.2392-3.1172 3.336-4.0312 4.25-0.76285 0.67868-1.5958 1.2684-2.4375 1.8438-0.87643 0.65389-0.79689 1.1332-1.7188 1.7188-0.68733 0.46263-2.2481 0.96188-2.8438 1.4375-0.77914 0.62211-1.2104 1.4697-1.875 2.3125-0.17709 0.23959-0.47526 0.38932-0.78125 0.5625 0.0747 0.23312 0.17111 0.49452 0.21875 0.6875 0.32292-0.63542 1.2083-0.77083 1.5625-1.25 0.66464-0.84278 1.0959-1.6904 1.875-2.3125 0.59567-0.47562 2.1564-0.97487 2.8438-1.4375 0.92186-0.58556 0.84232-1.0649 1.7188-1.7188 0.84169-0.5754 1.6746-1.1651 2.4375-1.8438 0.91403-0.91403 2.842-3.0108 4.0312-4.25 0.39409-1.2382 0.2929-2.2106-0.0937-3.0938-5e-3 -8e-3 5e-3 -0.0235 0-0.0313-2.3367-3.8163-5.1595-3.8839-6.7812-10.219zm9.625 0.21875c-0.92497 6e-3 -1.6987 0.11176-2.4062 0.25 0.0135 0.0204 0.0173 0.042 0.0313 0.0625 0.0777 0.0133 0.1559 0.0513 0.21875 0.0937 0.73442-0.16654 1.6394-0.32515 2.6875-0.375-0.17873-7e-3 -0.35939-0.0323-0.53125-0.0313zm0.78125 0.34375c-0.0732 3e-3 -0.1456 0.0269-0.21875 0.0313 0.67709 0.016 1.3376 0.0544 1.875 0.15625 1.8094 0.34285 1.1428 0.69721 2.0625 0.75 0.8083 0.0464 2.2134 0.8335 3.3438 1.2812 1.2226 0.48428 1.5383-0.0211 3.8438 1.2188-1.6552-1.1205-3.3491-1.1322-3.5938-1.4062 0.0129-0.0419 0.017-0.0842 0.0313-0.125-0.0649-0.0291-0.12217-0.0641-0.1875-0.0937-0.0207 0.0437-0.0423 0.0797-0.0625 0.125-1.0067-0.2824-1.9875-0.7062-2.6562-1.0625-0.18654-0.0477-0.28433-0.1223-0.40625-0.21875-0.0974-0.077-0.24506-0.15717-0.5-0.25-0.0108 0.0211-0.02 0.0415-0.0313 0.0625-0.24588-0.0977-0.48007-0.17228-0.71875-0.25-0.0468-0.01-0.0744-0.0217-0.125-0.0313-0.74419-0.14102-1.6994-0.22641-2.6562-0.1875zm-46.062 2.0312 0.125 0.0625c0.9109 0.24481 1.6818 0.8215 2.4062 1.4062 0.82464 0.41098 1.8702 0.34115 2.5312 1.0625 0.70456 0.74408 1.7606 1.1436 2.2812 2.0625 0.20942 0.35023 0.44974 0.66458 0.71875 0.96875-0.70331 0.27896-1.3791 1.262-1.875 1.5938-0.0184 0.0123-0.0433 0.0207-0.0625 0.0313 0.26674 0.0829 0.5096 0.12431 0.71875 0.0937 0.35283-0.4495 0.78212-0.98745 1.375-1.0938 0.27247-0.26266 0.5507-0.50877 0.84375-0.625-0.26901-0.30417-0.50933-0.61852-0.71875-0.96875-0.5206-0.91893-1.5767-1.3184-2.2812-2.0625-0.66103-0.72135-1.7066-0.65152-2.5312-1.0625-0.06827-0.0551-0.14958-0.10156-0.21875-0.15625-0.45456-0.0788-0.91165-0.20596-1.25-0.53125-0.59769-0.44175-1.3243-0.71337-2.0625-0.78125zm28.312 3.0625c-0.5615-2e-3 -1.1325 0.0198-1.6875 0.1875-0.8619 0.15181-1.4009 0.98682-2.1875 1.125 0.15712 0.0284 0.29573 0.0585 0.46875 0.0625 8e-3 -4e-3 0.0232 4e-3 0.0313 0 0.66399-0.34171 1.299-0.84303 2-1.0625 0.29196-0.11393 0.63652-0.16173 1-0.1875 0.45253-0.0986 0.91776-0.12668 1.375-0.125-0.33672-5e-3 -0.66726 1e-3 -1 0zm-6.2812 1.0938c-0.11119 4e-3 -0.22334 8e-3 -0.34375 0.0313-0.58666 0.0833-1.0979 0.25436-1.625 0.40625 3e-3 0.0315-3e-3 0.0623 0 0.0937-7e-3 0.11209 0.31024 1e-3 0.40625 0.0625 0.72887-0.15857 1.3651-0.40917 2.125-0.53125-0.18386-0.0329-0.36151-0.0695-0.5625-0.0625zm0.75 0.375c-0.11556 5e-3 -0.24955 7e-3 -0.375 0.0313 0.5303 0.0941 1.0274 0.28089 1.6875 0.1875 0.0423-8e-3 0.0833-0.0213 0.125-0.0313-0.48738-0.0785-0.91748-0.20805-1.4375-0.1875zm-23.562 0.1875c-0.18337-8e-3 -0.35057 0.01-0.53125 0.0313 2.0854-0.0469 5.7552 2.5084 6.4688 2.7188 0.55836 0.16459-1.6664 2.1036-3.375 3.0312 1.3278-0.37746 3.3876-2.0227 4.1875-2.5 0.01714-0.0102 0.01528-0.0221 0.03125-0.0313 0.21446-0.26888 0.31472-0.45329 0.15625-0.5-0.0892-0.0263-0.23354-0.0976-0.40625-0.1875-1.4003 0.064-4.066-2.4613-6.5312-2.5625zm53.781 0.0625c-0.88641 0.37401-1.6291 0.38336-2.375 0.375 0.46305-0.0347 0.90399-0.0303 1.3438-0.0313 0.31369-0.0695 0.65846-0.15916 1.0312-0.34375zm-2.375 0.375c-0.97055-0.0109-1.9515-0.0429-3.3125 0.75-0.98526 0.56636-1.6858 0.93652-2.3125 1.3125 0.1001 0.15403 0.21261 0.29518 0.34375 0.40625 0.43285-0.30459 0.95516-0.58877 1.5312-0.90625 0.0447-0.0331 0.0806-0.0614 0.125-0.0937 0.66035-0.48117 1.292-0.8658 1.7812-1.0938 0.34797-0.16212 0.68254-0.22024 1-0.25 0.018-4e-3 0.0446 4e-3 0.0625 0 0.27556-0.0643 0.52793-0.10604 0.78125-0.125zm-41.406 1.0312c-0.15346 0.0275-0.30526 0.0776-0.4375 0.15625 0.22223 0.23657 0.45596 0.46782 0.65625 0.71875 0.69303 0.78032 1.3858 1.5403 1.9688 2.4062 0.85162 1.0618 1.9547 1.8779 2.875 2.875 0.7471 0.7803 1.3951 1.6458 2.0938 2.4688 0.93323 1.1249 1.8793 2.2501 2.8125 3.375 0.42144 0.87267 1.0317 1.6104 1.6562 2.3438 0.66563 0.75999 1.3096 1.5578 1.8125 2.4375 0.59909 0.89138 1.1135 1.8414 1.5 2.8438 0.30827 0.94828 0.48395 1.9214 0.625 2.9062 0.19051 1.037 0.34872 2.0991 0.25 3.1562-0.14578 1.5715-0.30651 3.1462-0.4375 4.7188-0.0217 0.7843-0.12135 1.6214 0.25 2.3438 0.88575 0.56065 1.944 0.69175 2.9688 0.75 0.15421-4e-3 0.31552-0.0153 0.46875-0.0313-0.85535-0.0774-1.7021-0.25325-2.4375-0.71875-0.37135-0.7224-0.27171-1.5594-0.25-2.3438 0.13099-1.5726 0.29172-3.1472 0.4375-4.7188 0.0987-1.0572-0.0595-2.1192-0.25-3.1562-0.14105-0.9848-0.31673-1.958-0.625-2.9062-0.3865-1.0023-0.90091-1.9524-1.5-2.8438-0.50293-0.87969-1.1469-1.6775-1.8125-2.4375-0.62451-0.73339-1.2348-1.4711-1.6562-2.3438-0.93322-1.1249-1.8793-2.2501-2.8125-3.375-0.69869-0.823-1.3466-1.6884-2.0938-2.4688-0.92026-0.99713-2.0234-1.8132-2.875-2.875-0.58298-0.86596-1.2757-1.6259-1.9688-2.4062-0.24141-0.30245-0.51438-0.59268-0.78125-0.875-0.15942-0.0325-0.29833-0.0249-0.4375 0zm36.406 5.5625c-0.27801 6e-3 -0.56326 0.0349-0.84375 0.0625 0.10242 2e-3 0.20882 0.017 0.3125 0.0313 0.3359 0.0194 0.69022-0.0275 1.0312-0.0625-0.1656-0.029-0.331-0.0347-0.5-0.0313zm-2.0938 0.0625c-0.0128 0.019-0.0184 0.0436-0.0313 0.0625 0.19686 5e-3 0.40053-0.0167 0.59375-0.0313-0.19023-0.0261-0.37567-0.039-0.5625-0.0313zm2.7812 0.21875c-0.14219 6e-3 -0.2642 0.0468-0.40625 0.0625 0.65402 0.0921 0.99171 0.6953 1.7188 0.625 0.16682-0.0309 0.33094-0.0464 0.5-0.0625-0.11167-0.0407-0.21151-0.0958-0.3125-0.15625-0.10595 5e-3 -0.20725 0.01-0.3125 0-0.40936-0.035-0.64885-0.24056-0.90625-0.4375-0.0927-4e-3 -0.18865-0.0352-0.28125-0.0313zm2.2812 0.40625c-0.072 1e-3 -0.14679 0.0254-0.21875 0.0313 0.0432 9e-3 0.0772 0.0272 0.125 0.0313 0.15833 0.0145 0.30899-0.0171 0.46875-0.0313-0.12245-0.0226-0.25224-0.0334-0.375-0.0313zm0.96875 0.1875c-0.0641 2e-3 -0.12357 0.0276-0.1875 0.0313 0.0927 6e-3 0.18873-8e-3 0.28125 0-0.0298-0.0116-0.0634-0.0202-0.0937-0.0313z" clip-path="url(#z)" fill="#fce94f" fill-rule="evenodd" filter="url(#t)" opacity=".49153"/><path d="m-211.5 173.63c22.498-3.4115 40.875-0.16667 60.875-0.125l31.125-1.75v8.75h-92z" fill="url(#b)"/></g><g transform="translate(-10)" enable-background="new"><path d="m54.25 72c-2.3504 0-4.25 1.8996-4.25 4.25v84.75h224v-84.75c0-2.3504-1.8996-4.25-4.25-4.25z" enable-background="new" fill="url(#d)" opacity=".67568"/><g transform="translate(10)" enable-background="new"><path d="m141.41 139.84v102.75h70.594c1.5286 0 3.3394-0.86171 4.7188-1.7812s2.2812-1.8125 2.2812-1.8125l40-40s0.89296-0.90194 1.8125-2.2812 1.7812-3.1902 1.7812-4.7188v-52.156z" enable-background="new" fill="url(#l)" opacity=".4"/><path transform="translate(280)" d="m-62 207c0-3 1-4 4-4 0 0 28 1 28 1 4 0 16-2 16-10v52h-54c8 0 8-12 8-16z" clip-path="url(#aa)" enable-background="new" fill="url(#k)" filter="url(#u)"/><g transform="translate(270)"><g><path transform="translate(10)" d="m-56.25 209.5c0.875-3.375 3.8019-3.9446 6.75-4.5l17.25-3.25c6.5862-1.2349 16.25-3.75 16.25-11.75v54h-54c8 0 9-8.75 10.25-14.5z" clip-path="url(#a)" fill="url(#j)"/><path transform="translate(9.875,1)" d="m-17.875 190c0 8-10.46 10.528-14.479 10.963 0 0-18.53 2.7045-18.53 2.7045-4.1875 1.125-5.2241 2.1982-5.9741 5.4482l-3.3598 18.884c-0.625 4.375-0.94792 16.375-8.7812 16.375l3.6562-0.75c4.9762-2.9543 5.0938-10.948 5.8438-14.5l4.0089-18.655c0.72855-2.0947 2.3232-3.1679 5.1161-4.2197 0 0 17.985-3.8447 17.985-3.8447 3.4268-0.35355 10.805-3.213 13.89-7.9991z" clip-path="url(#a)" enable-background="new" fill="url(#i)"/></g></g><path d="m45.906 75c-2.138 0-3.9062 1.7683-3.9062 3.9062v136.56l220-98.906v-37.656c0-2.138-1.7683-3.9062-3.9062-3.9062z" enable-background="new" fill="url(#c)" opacity=".34483"/></g></g></g></g></svg>
