<?xml version="1.0" encoding="UTF-8"?>
<svg version="1.0" viewBox="0 0 256 256" xmlns="http://www.w3.org/2000/svg" xmlns:xlink="http://www.w3.org/1999/xlink"><defs><filter id="aq" x="-.16294" y="-2.3897" width="1.3259" height="5.7795" color-interpolation-filters="sRGB"><feGaussianBlur stdDeviation="11.948684"/></filter><filter id="ap" x="-.093476" y="-1.094" width="1.187" height="3.188" color-interpolation-filters="sRGB"><feGaussianBlur stdDeviation="8.257079"/></filter><filter id="ad" color-interpolation-filters="sRGB"><feGaussianBlur stdDeviation="2.43"/></filter><clipPath id="at"><path d="m36 19c-0.56266 0-1 0.43734-1 1v217c0 0.56266 0.43734 1 1 1h184c0.56266 0 1-0.43734 1-1v-171c0-13.558-10.858-25.296-16.281-30.719-5.4231-5.4231-17.161-16.281-30.719-16.281z" fill="url(#linearGradient6013) #000000" fill-rule="evenodd"/></clipPath><filter id="ak" color-interpolation-filters="sRGB"><feGaussianBlur stdDeviation="2.025"/></filter><linearGradient id="b"><stop stop-color="#fff" offset="0"/><stop stop-color="#fff" stop-opacity="0" offset="1"/></linearGradient><filter id="am" x="-.10594" y="-.11513" width="1.2119" height="1.2303" color-interpolation-filters="sRGB"><feGaussianBlur stdDeviation="3.0222701"/></filter><mask id="y" maskUnits="userSpaceOnUse"><path d="m36-31c-0.56266 0-1 0.43734-1 1v217c0 0.56266 0.43734 1 1 1h184c0.56266 0 1-0.43734 1-1v-171c0-13.558-12.858-23.296-18.281-28.719-5.4231-5.4231-15.161-18.281-28.719-18.281z" fill="#fff" fill-rule="evenodd"/></mask><filter id="ai" x="-.24138" y="-.24138" width="1.4828" height="1.4828" color-interpolation-filters="sRGB"><feGaussianBlur stdDeviation="4.7270115"/></filter><filter id="ah" color-interpolation-filters="sRGB"><feGaussianBlur stdDeviation="0.27169794"/></filter><filter id="ag" x="-.13103" y="-.13103" width="1.2621" height="1.2621" color-interpolation-filters="sRGB"><feGaussianBlur stdDeviation="2.566092"/></filter><filter id="af" color-interpolation-filters="sRGB"><feGaussianBlur stdDeviation="0.30732727"/></filter><filter id="ae" x="-.031646" y="-.10174" width="1.0633" height="1.2035" color-interpolation-filters="sRGB"><feGaussianBlur stdDeviation="0.35931052"/></filter><linearGradient id="a"><stop offset="0"/><stop stop-opacity="0" offset="1"/></linearGradient><filter id="aj" x="-.050594" y="-.13674" width="1.1012" height="1.2735" color-interpolation-filters="sRGB"><feGaussianBlur stdDeviation="0.85179702"/></filter><filter id="al" x="-.063896" y="-.11195" width="1.1278" height="1.2239" color-interpolation-filters="sRGB"><feGaussianBlur stdDeviation="3.7621822"/></filter><clipPath id="as"><path d="m-243.94 104.81c-7.0217 0-13.802 0.98382-20.25 2.7812l-0.46875-0.78125-3.6875 0.5625-1.75 1.75-2.9062 0.40625-2.5625 1.1875-1.25 0.625-0.75 1 0.5625 0.0937c-1.531 0.74984-3.0295 1.5577-4.5 2.4062l-0.0937-0.1875-0.1563 0.3438c-1.45 0.8443-2.8949 1.72-4.2812 2.6562l-0.15625-0.0937-2.3125-0.34375-1.25 3.1562c-0.22912 0.17606-0.46047 0.35263-0.6875 0.53125-0.56625 0.10725-2.0151 0.37256-2.5312 0.5-7.8919 7.2702-23.827 22.966-27.531 52.594 0.072 0.3369 0.7375 1.4663 1.375 2.5312-0.0541 1.1705-0.0937 2.3474-0.0937 3.5312 0 25.276 12.477 47.631 31.594 61.281l-0.0313 0.125c-0.0277 0.0221-0.0714 0.12606 0.0937 0.6875 0.22223 0.74898 9.2412 5.737 9.8125 5.3125 0.0677-0.0514 0.0605-0.044 0.125-0.0937 10.141 5.085 21.569 7.9688 33.688 7.9688 41.578 0 75.312-33.71 75.312-75.281 0-3.876-0.30979-7.6881-0.875-11.406l0.75-0.84375c-1e-5 -2.5861-2.9526-15.321-9.25-26.125-6.2973-10.8-17.344-20.688-17.344-20.688l-0.625 1.0625c-0.65527-0.54189-1.3264-1.0739-2-1.5938l0.59375-0.65625-1.9062-0.34375c-12.493-9.2134-27.942-14.656-44.656-14.656z"/></clipPath><clipPath id="ar"><path d="m-278.64 180.07c0 41.571-33.711 75.272-75.289 75.272-41.582 0-75.291-33.701-75.291-75.272 0-41.569 33.709-75.266 75.291-75.266 41.578 0 75.289 33.697 75.289 75.266z"/></clipPath><filter id="ao" color-interpolation-filters="sRGB"><feGaussianBlur stdDeviation="3.6522887"/></filter><filter id="an" color-interpolation-filters="sRGB"><feGaussianBlur stdDeviation="3.0240625"/></filter><linearGradient id="ac" x1="137.18" x2="137.18" y1="226.13" y2="55.715" gradientTransform="translate(1)" gradientUnits="userSpaceOnUse"><stop offset="0"/><stop stop-opacity="0" offset="1"/></linearGradient><radialGradient id="x" cx="15.116" cy="63.965" r="12.289" gradientTransform="matrix(1.6414 0 0 .60731 .039567 .061952)" gradientUnits="userSpaceOnUse" xlink:href="#a"/><radialGradient id="w" cx="15.116" cy="63.965" r="12.289" gradientTransform="scale(1.644 .60828)" gradientUnits="userSpaceOnUse" xlink:href="#a"/><radialGradient id="v" cx="18.248" cy="15.716" r="29.993" gradientTransform="matrix(3.5875 0 0 3.5866 -483.94 93.547)" gradientUnits="userSpaceOnUse"><stop stop-color="#d3e9ff" offset="0"/><stop stop-color="#d3e9ff" offset=".15517"/><stop stop-color="#4074ae" offset=".63109"/><stop stop-color="#3b5e8d" offset=".81554"/><stop stop-color="#526ea5" offset="1"/></radialGradient><radialGradient id="u" cx="-393.93" cy="174.24" r="75.29" gradientTransform="matrix(1.0282 -6.6497e-8 6.6479e-8 1.0279 11.116 -4.866)" gradientUnits="userSpaceOnUse"><stop stop-opacity="0" offset="0"/><stop stop-opacity="0" offset=".82124"/><stop offset="1"/></radialGradient><radialGradient id="t" cx="-259.12" cy="152.68" r="75.873" gradientTransform="matrix(1.033 0 0 .96191 8.5381 7.4775)" gradientUnits="userSpaceOnUse"><stop offset="0"/><stop stop-opacity="0" offset="1"/></radialGradient><radialGradient id="s" cx="186.5" cy="271.15" r="70.656" gradientTransform="matrix(1 0 0 .57076 -61.583 47.714)" gradientUnits="userSpaceOnUse"><stop stop-color="#fff" offset="0"/><stop stop-color="#fff" stop-opacity="0" offset="1"/></radialGradient><radialGradient id="r" cx="-418.62" cy="149.46" r="75.873" gradientTransform="matrix(1.3694 0 0 1.2752 184.62 -39.245)" gradientUnits="userSpaceOnUse"><stop stop-color="#fff" offset="0"/><stop stop-color="#eeeeec" offset=".15517"/><stop stop-color="#eeeeec" offset=".63109"/><stop stop-color="#babdb6" offset=".81554"/><stop stop-color="#888a85" offset="1"/></radialGradient><radialGradient id="q" cx="-376.48" cy="150.05" r="75.483" gradientTransform="matrix(1.0596 0 0 .99888 22.452 1.7041)" gradientUnits="userSpaceOnUse"><stop stop-color="#fff" offset="0"/><stop stop-color="#fff" stop-opacity="0" offset="1"/></radialGradient><radialGradient id="p" cx="-394.62" cy="176.62" r="75.873" gradientTransform="matrix(1.042 0 0 .97029 136.55 5.464)" gradientUnits="userSpaceOnUse"><stop stop-opacity="0" offset="0"/><stop stop-opacity="0" offset=".90858"/><stop offset="1"/></radialGradient><radialGradient id="o" cx="-393.93" cy="151.57" r="53.54" gradientTransform="matrix(1 0 0 .71015 -11 40.933)" gradientUnits="userSpaceOnUse"><stop stop-color="#fff" offset="0"/><stop stop-color="#fff" stop-opacity="0" offset="1"/></radialGradient><linearGradient id="ab" x1="84" x2="-104.07" y1="200.5" y2="-127.99" gradientUnits="userSpaceOnUse"><stop offset="0"/><stop stop-opacity="0" offset="1"/></linearGradient><radialGradient id="n" cx="-80.661" cy="88.983" r="18" gradientTransform="matrix(25.306 2.1794e-6 -1.0731e-6 12.46 2199.2 -911.49)" gradientUnits="userSpaceOnUse"><stop stop-color="#fff" offset="0"/><stop stop-color="#d3d7cf" offset="1"/></radialGradient><radialGradient id="m" cx="128.59" cy="116.47" r="92.902" gradientTransform="matrix(3.5967 -.28529 .17691 2.2303 -355.12 -121.58)" gradientUnits="userSpaceOnUse"><stop stop-color="#fff" offset="0"/><stop stop-color="#fff" stop-opacity="0" offset="1"/></radialGradient><radialGradient id="l" cx="36" cy="45.297" r="84.203" gradientTransform="matrix(0 2.7411 -1.8799 0 120.78 -78.804)" gradientUnits="userSpaceOnUse"><stop stop-color="#fff" offset="0"/><stop stop-color="#fff" stop-opacity="0" offset="1"/></radialGradient><radialGradient id="k" cx="127.75" cy="261.27" r="92.25" gradientTransform="matrix(1.663 0 0 .34037 -84.702 148.57)" gradientUnits="userSpaceOnUse" xlink:href="#b"/><radialGradient id="j" cx="20.48" cy="31.231" r="93" gradientTransform="matrix(0 1.0485 -3.8781 0 165.49 13.855)" gradientUnits="userSpaceOnUse"><stop stop-color="#fff" offset="0"/><stop stop-color="#fff" stop-opacity="0" offset="1"/></radialGradient><radialGradient id="i" cx="127.75" cy="236.25" r="92.25" gradientTransform="matrix(1.5709 0 0 1.1159 -53.057 .95481)" gradientUnits="userSpaceOnUse" xlink:href="#b"/><radialGradient id="h" cx="210.96" cy="38.58" r="34.234" gradientTransform="matrix(1.0442 0 0 .96082 -12.745 6.3495)" gradientUnits="userSpaceOnUse"><stop offset="0"/><stop stop-opacity="0" offset="1"/></radialGradient><radialGradient id="g" cx="196.36" cy="44.213" r="23.763" gradientTransform="matrix(1 0 0 .98931 0 .47264)" gradientUnits="userSpaceOnUse"><stop offset="0"/><stop stop-opacity="0" offset="1"/></radialGradient><linearGradient id="aa" x1="190.98" x2="196.45" y1="52.973" y2="39.564" gradientTransform="translate(-1.5 2.5214)" gradientUnits="userSpaceOnUse"><stop offset="0"/><stop stop-opacity="0" offset="1"/></linearGradient><radialGradient id="f" cx="190.88" cy="49.25" r="23.5" gradientTransform="matrix(1.4473 0 0 1.4473 -85.751 -21.529)" gradientUnits="userSpaceOnUse"><stop stop-color="#fff" offset="0"/><stop stop-color="#fff" stop-opacity="0" offset="1"/></radialGradient><radialGradient id="e" cx="192.25" cy="45.75" r="23.5" gradientTransform="matrix(.5972 -.4509 1.7045 2.2575 -.54025 29.158)" gradientUnits="userSpaceOnUse"><stop stop-color="#fff" offset="0"/><stop stop-color="#e6e6e6" offset=".44761"/><stop stop-color="#cbcbcb" offset=".81268"/><stop stop-color="#dbdbdb" offset="1"/></radialGradient><radialGradient id="d" cx="186.77" cy="27.786" r="8.9714" gradientTransform="matrix(2.1152 0 0 2.9279 -207.44 -53.617)" gradientUnits="userSpaceOnUse"><stop stop-color="#fff" offset="0"/><stop stop-color="#fff" stop-opacity="0" offset="1"/></radialGradient><radialGradient id="c" cx="208.68" cy="39.762" r="13.625" gradientTransform="matrix(.99733 .072992 -.11677 1.5955 5.1997 -29.524)" gradientUnits="userSpaceOnUse"><stop stop-color="#fff" offset="0"/><stop stop-color="#fff" stop-opacity="0" offset="1"/></radialGradient><linearGradient id="z" x1="189.25" x2="189.25" y1="23.662" y2="43.888" gradientUnits="userSpaceOnUse"><stop stop-color="#fff" offset="0"/><stop stop-color="#fff" stop-opacity="0" offset="1"/></linearGradient></defs><g transform="translate(-24,-32)"><g><g transform="translate(-400)"><rect transform="matrix(1.1875 0 0 .625 372.25 116)" x="60" y="244" width="176" height="12" rx="30.842" ry="6" filter="url(#aq)" opacity=".3"/><rect transform="matrix(.88797 0 0 .18573 434.71 228.96)" x="22.995" y="223.44" width="211" height="18.114" rx="4.9924" ry="9.0572" fill-rule="evenodd" filter="url(#ap)" opacity=".8"/><path transform="matrix(.98925 0 0 1.0129 401.72 .5305)" d="m55.872 47.328c-0.56266 0-1 0.43734-1 1l-1.0109 217c0 0.56266 0.43734 1 1 1h186.02c0.56266 0 1-0.43734 1-1l-1.0109-171c0-13.558-10.858-25.296-16.281-30.719-5.4231-5.4231-17.161-16.281-30.719-16.281z" fill="url(#ab)" fill-rule="evenodd" filter="url(#ad)" opacity=".7"/><g transform="matrix(.98925 0 0 1.0232 401.72 .044255)"><g transform="translate(19.872 27.828)"><path d="m36 19c-0.56266 0-1 0.43734-1 1v217c0 0.56266 0.43734 1 1 1h184c0.56266 0 1-0.43734 1-1v-171c0-13.558-10.858-25.296-16.281-30.719-5.4231-5.4231-17.161-16.281-30.719-16.281z" fill="url(#n)"/><path d="m36.591 19.704c-0.55904 0-0.99357 0.43453-0.99357 0.99357v215.61c0 0.55904 0.43453 0.99357 0.99357 0.99357h182.82c0.55904 0 0.99357-0.43453 0.99357-0.99357v-169.9c0-13.471-10.788-25.133-16.177-30.521-5.3882-5.3882-17.051-16.177-30.521-16.177z" fill="none" stroke="url(#m)" stroke-dashoffset=".7" stroke-linecap="round" stroke-width=".99397"/><path d="m36 19c-0.56266 0-1 0.43734-1 1v217c0 0.56266 0.43734 1 1 1h184c0.56266 0 1-0.43734 1-1v-171c0-13.558-10.858-25.296-16.281-30.719-5.4231-5.4231-17.161-16.281-30.719-16.281z" clip-path="url(#at)" fill="none" filter="url(#ak)" opacity=".072289" stroke="#000" stroke-dashoffset=".7" stroke-linecap="round" stroke-width=".99397"/><path d="m36.625 19.875c-0.56266 0-1 0.43734-1 1v217c0 0.56266 0.43734 1 1 1v-217c0-0.56266 0.43734-1 1-1h138c11.863 0 22.341 8.3199 28.406 14.031-5.8462-5.6773-16.801-15.031-29.406-15.031z" fill="url(#l)" fill-rule="evenodd"/><rect x="35.5" y="186.25" width="184.5" height="51.25" rx="1.0156" ry="1.0156" fill="url(#k)" fill-rule="evenodd" opacity=".56024"/></g><path d="m55.875 46.812c-0.56266-1e-6 -1 0.43734-1 1v88.188h186v-42.188c-1e-5 -13.558-10.858-25.296-16.281-30.719-5.4231-5.4231-17.161-16.281-30.719-16.281z" fill="url(#j)"/><rect x="55.372" y="263.83" width="184.5" height="1.5" rx="1.0156" ry="1.0156" fill="url(#i)" fill-rule="evenodd"/></g></g><g transform="translate(0 3.9265)" fill-rule="evenodd"><g transform="matrix(.98925 0 0 1.0232 21.376 24.59)"><path transform="matrix(.76048 0 0 .87302 56.123 8.4826)" d="m162 24c-2.7302 0-5.4062 0.18108-8.0312 0.5625-3.1702 5.9491-4.9688 12.73-4.9688 19.938 0 23.46 19.04 42.5 42.5 42.5 9.7773 0 18.785-3.3191 25.969-8.875-0.73575-29.997-25.296-54.125-55.469-54.125z" fill="url(#h)" filter="url(#am)" opacity=".16868"/><path transform="translate(0,50)" d="m174-31c13.558 0 22.308 11.846 27.731 17.269s19.269 16.173 19.269 29.731c0-13.558-20.111-8.6028-26.192-8.6028-0.6357 0-1.2268-0.51769-1.1502-1.1502 2.5084-20.705-6.1006-37.247-19.658-37.247z" filter="url(#ai)" mask="url(#y)" opacity=".37952"/><path d="m172.59 20.722c24.827-0.87083 48.543 30.546 47.5 47 0-13.558-7.491-16.365-29.984-16.365-0.6357 0-1.1502-0.51307-1.1502-1.1502 0-22.493-2.8077-29.484-16.365-29.484z" fill="url(#g)" filter="url(#ah)" opacity=".42771"/><path d="m171.45 22.448c13.558 0 25.308 10.846 30.731 16.269s16.269 17.173 16.269 30.731c0-13.558-6.991-16.365-29.484-16.365-0.6357 0-1.1502-0.51307-1.1502-1.1502 0-22.493-2.8077-29.484-16.365-29.484z" fill="url(#aa)" filter="url(#ag)" opacity=".27711"/><path d="m173.12 19.75c13.558 0 25.308 10.846 30.731 16.269s16.269 17.173 16.269 30.731c0-13.558-6.991-16.365-29.484-16.365-0.6357 0-1.1502-0.51307-1.1502-1.1502 0-22.493-2.8077-29.484-16.365-29.484z" fill="url(#f)"/><path d="m174 19c13.558 0 25.308 10.846 30.731 16.269s16.269 17.173 16.269 30.731c0-13.558-6.991-16.365-29.484-16.365-0.6357 0-1.1502-0.51307-1.1502-1.1502 0-22.493-2.8077-29.484-16.365-29.484z" fill="url(#e)"/><path d="m174.13 19.031c15.481 1.0337 16.019 13.643 16.263 26.517-0.74413-7.7303 1.374-15.978-4.2426-22.627 4.5078 1.5017 9.8111 5.7816 14.938 9.1924-5.4964-4.8666-14.015-13.001-26.958-13.081z" fill="url(#d)" filter="url(#af)"/><path d="m219.38 57.625c-3.971-8.9-17.43-7.2964-27.25-8 9.9276-0.23867 24.598-2.9842 27.25 8z" fill="url(#c)" filter="url(#ae)"/></g><path transform="matrix(.98925 0 0 1.0232 21.376 24.59)" d="m174 19c13.558 0 25.308 10.846 30.731 16.269s16.269 17.173 16.269 30.731c0-13.558-6.991-16.365-29.484-16.365-0.6357 0-1.1502-0.51307-1.1502-1.1502 0-22.493-2.8077-29.484-16.365-29.484z" fill="url(#z)"/></g><g transform="matrix(.79012 0 0 .79012 31.506 44.632)"><path d="m148.06 88.812c-7.0217 0-13.802 0.98382-20.25 2.7812l-0.46875-0.78125-3.6875 0.5625-1.75 1.75-2.9062 0.40625-2.5625 1.1875-1.25 0.625-0.75 1 0.5625 0.09375c-1.531 0.74984-3.0295 1.5577-4.5 2.4062l-0.0937-0.1875-0.1563 0.34375c-1.45 0.8443-2.8949 1.72-4.2812 2.6562l-0.15625-0.0937-2.3125-0.34375-1.25 3.1562c-0.22912 0.17606-0.46047 0.35263-0.6875 0.53125-0.56626 0.10725-2.0151 0.37256-2.5312 0.5-7.8919 7.2701-23.827 22.966-27.531 52.594 0.07196 0.3369 0.7375 1.4663 1.375 2.5312-0.05408 1.1705-0.09375 2.3474-0.09375 3.5312 0 25.276 12.477 47.631 31.594 61.281l-0.0313 0.125c-0.0277 0.0221-0.0714 0.12606 0.0937 0.6875 0.22222 0.74898 9.2412 5.737 9.8125 5.3125 0.0677-0.0514 0.0605-0.044 0.125-0.0937 10.141 5.085 21.569 7.9688 33.688 7.9688 41.578 0 75.313-33.71 75.312-75.281 0-3.876-0.30979-7.6881-0.875-11.406l0.75-0.84375c1e-5 -2.5861-2.9526-15.321-9.25-26.125-6.2972-10.8-17.344-20.688-17.344-20.688l-0.625 1.0625c-0.65527-0.54189-1.3264-1.0739-2-1.5938l0.59375-0.65625-1.9062-0.34375c-12.493-9.2134-27.942-14.656-44.656-14.656z" fill="url(#ac)" filter="url(#an)" opacity=".7"/><g transform="translate(712,-16)"><ellipse transform="matrix(2.1378 0 0 2.4826 -616.65 146.86)" cx="24.85" cy="38.909" rx="20.203" ry="7.4751" fill="url(#x)" opacity=".86939"/><ellipse transform="matrix(3.1746 0 0 3.6866 -642.41 95.745)" cx="24.85" cy="38.909" rx="20.203" ry="7.4751" fill="url(#w)" filter="url(#aj)" opacity=".63265"/><g transform="translate(-170)"><path d="m-318.64 180.07c0 41.571-33.711 75.272-75.289 75.272-41.582 0-75.291-33.701-75.291-75.272 0-41.569 33.709-75.266 75.291-75.266 41.578 0 75.289 33.697 75.289 75.266z" fill="url(#v)"/><path d="m-318.64 180.07c0 41.571-33.711 75.272-75.289 75.272-41.582 0-75.291-33.701-75.291-75.272 0-41.569 33.709-75.266 75.291-75.266 41.578 0 75.289 33.697 75.289 75.266z" fill="url(#u)" opacity=".4898"/><path transform="translate(-150)" d="m-243.24 107.19-8.6176 0.95396-10.621 2.9255-2.0352 1.9716 6.6143 4.5473v2.6076l-2.5757 2.5758 3.4343 6.8368 2.2895-1.3038 2.8938-4.5473c4.4399-1.3723 8.436-2.914 12.656-4.8653l3.4343-8.7766zm-20.415 0.63598-3.6887 0.54058-1.749 1.749-2.8938 0.41338-2.5757 1.2084-1.2402 0.60419-0.76319 1.0176 3.7205 0.63598 1.431-1.3038 2.8937-0.63598c1.9689-0.95729 3.9528-1.6141 6.0419-2.2896zm-11.766 7.7908-2.6076 0.66778-1.1448 2.2896-1.431-2.9255-0.57241 1.272 0.28621 3.2753-2.2896 1.9398-1.431 3.5933h2.8619l1.431-3.2753c1.2394-0.87625 2.4899-1.7641 3.7523-2.6075l2.8619 0.98579c1.9151 1.3008 3.839 2.6125 5.7557 3.9113l2.8619-2.6075-3.1481-1.3038-1.431-2.9255-5.4695-0.636zm-12.084 2.6075-1.431 3.5933c-1e-5 0-2.403 0.45163-3.0209 0.60419-7.8919 7.2702-23.834 22.968-27.538 52.596 0.14672 0.68694 2.6711 4.6745 2.6711 4.6745l6.0419 3.5933 6.0419 1.6218 2.5758 3.2435 4.0385 2.9255 2.2896-0.318 1.7172 0.76319v0.54058l-2.2896 6.1691-1.7172 2.6075 0.57238 1.3038-1.431 4.8653 5.1515 9.4444 5.1833 4.5473 2.2896 3.2435-0.28621 6.8368 1.749 3.9113-1.749 7.4728c-0.0277 0.0221-0.0698 0.13815 0.0954 0.69959 0.22222 0.74899 9.2229 5.735 9.7942 5.3105 0.56931-0.43241 1.0494-0.82678 1.0494-0.82678l-0.57238-1.59 2.2895-2.2896 0.85858-2.2896 3.7523-1.3038 2.8619-7.1548-0.85858-1.9398 2.0034-2.9255 4.3247-0.98578 2.2896-5.1833-0.57238-6.5189 3.4343-4.8653 0.57239-4.8971c-4.7183-2.339-9.3722-4.7466-14.055-7.1548l-2.3214-4.5473-4.2929-0.98577-2.3214-6.1691-5.7239 0.66779-4.8971-3.5933-5.1833 4.5473v0.73138c-1.5657-0.45176-3.4713-0.51045-4.8653-1.3674l-1.1448-3.2435v-3.5933l-3.4661 0.31799c0.28784-2.2774 0.56878-4.528 0.85858-6.805h-2.0034l-2.0034 2.5757-2.0352 0.9858-2.8619-1.6218-0.2862-3.5933 0.5724-3.8795 4.3247-3.2435h3.4343l0.57239-1.9716 4.3247 0.98578 3.1481 3.9113 0.5724-6.5189 5.4695-4.5473 2.0034-4.8971 4.0385-1.6218 2.2895-3.2435 5.1833-0.98578 2.5758-3.8795h-7.759l4.8971-2.2896h3.4343l4.8971-1.6218 0.57238-1.9398-1.7172-1.6536-2.0352-0.63599 0.5724-1.9398-1.431-2.9255-3.4343 1.272 0.57239-2.5757-4.0385-2.2896-3.1481 5.5331 0.28619 1.9398-3.1481 1.3038-2.0352 4.2293-0.85858-3.9113-5.4695-2.2578-0.85857-2.9255 7.1866-4.2293 3.1799-2.9255 0.2862-3.5933-1.7172-0.95398-2.3214-0.3498zm80.516 0-5.4695 1.3038-3.4343 2.2895v1.9398l-5.4695 3.5933 1.1448 5.1833 3.1799-2.2577 2.0034 2.2577 2.2896 1.3038 1.4628-3.8795-0.89039-2.2896 0.89039-1.6218 3.1481-2.9255h1.431l-1.431 3.2435v2.9255c1.3205-0.35928 2.6554-0.46802 4.0067-0.63599l-3.7205 2.5757-0.28619 1.6536-4.3247 3.5615-4.2929-0.98578v-2.5757l-2.0034 1.3038 0.85858 2.2578h-3.1799l-1.7172 2.9255-2.1624 2.4485-3.8795 0.79498 2.2896 2.2896 0.60418 2.2578h-2.8937l-3.7205 1.9716v5.8511h1.7172l1.59 1.7808 3.5933-1.7808 1.431-3.5933 2.5757-1.6218 0.5724-1.3038 4.3247-0.95397 2.2896 2.6076 2.6076 1.272-1.4628 2.9256 2.3213-0.63599 1.1448-2.9255-2.8938-3.2435h1.1766l2.8619 2.2578 0.57239 3.2753 2.5758 2.9255 0.57238-4.2293 1.4628-0.66779c1.4209 1.4747 2.5237 3.2375 3.7205 4.8971l4.3247 0.31799 2.5757 1.6218-1.1448 1.6218-2.5758 2.2896h-3.7523l-4.8971-1.6218-2.5758 0.31798-1.8762 2.0988-5.3105-5.3423-3.7205-0.98578-5.4695 0.63598-4.8971 1.3038c-2.7415 3.107-5.4504 6.2176-8.0452 9.4444l-3.1481 7.4728 1.431 1.6218-2.5757 3.9113 2.8619 6.8369c2.4437 2.7636 4.8737 5.5023 7.3138 8.2678l3.5933-3.0845 1.59 1.8126 3.8795-2.4486 1.3038 1.4628h3.8795l2.226 2.5122-1.3674 4.4837 2.7347 3.0845-0.159 5.3741 2.0352 3.8795-1.4628 3.2753c-0.14311 2.3928-0.28618 4.7616-0.28618 7.1548 1.1778 3.2422 2.3539 6.4651 3.4661 9.7306l0.85858 5.2151v2.6075h2.0034l3.1799-1.9398h3.7205l5.5967-6.3599-0.69959-2.0988 3.7205-3.2753-2.7347-3.0845 3.3071-2.7665 3.1799-1.9398 1.431-1.6218-0.8586-3.5933v-9.0946l2.5758-5.5331 3.1799-3.5615 3.4343-8.4586v-2.2896c-1.713 0.21571-3.3802 0.42013-5.0561 0.54058l3.4661-3.4661 4.7381-3.2435 2.6076-2.9255v-3.2753c-0.57527-1.0846-1.1698-2.159-1.749-3.2435l-2.2896 2.6075-1.7172-1.9398-2.5757-1.9716v-4.2293l3.0209 3.4343 3.2753-0.50878c1.5055 1.3664 3.0042 2.6736 4.3247 4.2293l2.1624-2.4167c0-2.5861-2.9562-15.335-9.2536-26.139-6.2974-10.8-17.331-20.67-17.331-20.67l-0.85858 1.431-2.8937 3.2436-3.7205-3.9113h3.7205l1.7172-1.9398-6.8686-1.3038zm-28.492 4.2293-2.2896 1.3038-1.1448-0.31801-0.28618 1.9398 2.0034 1.3038 3.4343-2.2578zm-37.937 0.66779-2.2896 1.6218 2.8619 1.9398h2.2896v-2.2578zm45.409 7.4728v1.9398l1.1448 1.3038v2.9255l-0.57239 3.9113 3.1799-0.63599 2.2896-2.2896-2.0034-1.9397c-0.67567-1.7988-1.4757-3.4898-2.3214-5.2151zm-1.1448 3.9113-2.0034 0.63599 0.57238 3.5933 2.5757-1.3038zm-39.654 5.8511 0.85859 4.5473 1.7172-2.6076zm75.046 25.376 3.3071 3.7205 3.8795 8.2996 2.2895 2.6076-1.1448 2.9255 2.1942 2.4804c-1.0086 0.0684-2.0157 0.1272-3.0527 0.1272-1.8301-3.8446-3.2172-7.7119-4.6109-11.734l-2.4485-2.7665-1.272-4.7063z" clip-path="url(#as)" fill="url(#t)" filter="url(#ao)"/><path transform="matrix(.9699 0 0 .9699 -515.91 45.267)" d="m54.979 127.15c-0.46429 3.2696-0.71875 6.6028-0.71875 10 0 38.998 31.659 70.656 70.656 70.656 38.998 0 70.656-31.659 70.656-70.656 0-3.3972-0.25446-6.7304-0.71875-10-4.8655 34.263-34.337 60.656-69.938 60.656-35.6 0-65.072-26.393-69.938-60.656z" fill="url(#s)" filter="url(#al)" opacity=".48707"/><g transform="translate(-120)"><g transform="translate(90)"><path d="m-364.24 106.19-8.6176 0.95396-10.621 2.9255-2.0352 1.9716 6.6143 4.5473v2.6076l-2.5757 2.5758 3.4343 6.8368 2.2895-1.3038 2.8938-4.5473c4.4399-1.3723 8.436-2.914 12.656-4.8653l3.4343-8.7766zm-20.415 0.63598-3.6887 0.54058-1.749 1.749-2.8938 0.41338-2.5757 1.2084-1.2402 0.60419-0.76319 1.0176 3.7205 0.63598 1.431-1.3038 2.8937-0.63598c1.9689-0.95729 3.9528-1.6141 6.0419-2.2896zm-11.766 7.7908-2.6076 0.66778-1.1448 2.2896-1.431-2.9255-0.57241 1.272 0.28621 3.2753-2.2896 1.9398-1.431 3.5933h2.8619l1.431-3.2753c1.2394-0.87625 2.4899-1.7641 3.7523-2.6075l2.8619 0.98579c1.9151 1.3008 3.839 2.6125 5.7557 3.9113l2.8619-2.6075-3.1481-1.3038-1.431-2.9255-5.4695-0.636zm-12.084 2.6075-1.431 3.5933c-1e-5 0-2.403 0.45163-3.0209 0.60419-7.8919 7.2702-23.834 22.968-27.538 52.596 0.14672 0.68694 2.6711 4.6745 2.6711 4.6745l6.0419 3.5933 6.0419 1.6218 2.5758 3.2435 4.0385 2.9255 2.2896-0.318 1.7172 0.76319v0.54058l-2.2896 6.1691-1.7172 2.6075 0.57238 1.3038-1.431 4.8653 5.1515 9.4444 5.1833 4.5473 2.2896 3.2435-0.28621 6.8368 1.749 3.9113-1.749 7.4728c-0.0277 0.0221-0.0698 0.13815 0.0954 0.69959 0.22222 0.74899 9.2229 5.735 9.7942 5.3105 0.56931-0.43241 1.0494-0.82678 1.0494-0.82678l-0.57238-1.59 2.2895-2.2896 0.85858-2.2896 3.7523-1.3038 2.8619-7.1548-0.85858-1.9398 2.0034-2.9255 4.3247-0.98578 2.2896-5.1833-0.57238-6.5189 3.4343-4.8653 0.57239-4.8971c-4.7183-2.339-9.3722-4.7466-14.055-7.1548l-2.3214-4.5473-4.2929-0.98577-2.3214-6.1691-5.7239 0.66779-4.8971-3.5933-5.1833 4.5473v0.73138c-1.5657-0.45176-3.4713-0.51045-4.8653-1.3674l-1.1448-3.2435v-3.5933l-3.4661 0.31799c0.28784-2.2774 0.56878-4.528 0.85858-6.805h-2.0034l-2.0034 2.5757-2.0352 0.9858-2.8619-1.6218-0.2862-3.5933 0.5724-3.8795 4.3247-3.2435h3.4343l0.57239-1.9716 4.3247 0.98578 3.1481 3.9113 0.5724-6.5189 5.4695-4.5473 2.0034-4.8971 4.0385-1.6218 2.2895-3.2435 5.1833-0.98578 2.5758-3.8795h-7.759l4.8971-2.2896h3.4343l4.8971-1.6218 0.57238-1.9398-1.7172-1.6536-2.0352-0.63599 0.5724-1.9398-1.431-2.9255-3.4343 1.272 0.57239-2.5757-4.0385-2.2896-3.1481 5.5331 0.28619 1.9398-3.1481 1.3038-2.0352 4.2293-0.85858-3.9113-5.4695-2.2578-0.85857-2.9255 7.1866-4.2293 3.1799-2.9255 0.2862-3.5933-1.7172-0.95398-2.3214-0.3498zm80.516 0-5.4695 1.3038-3.4343 2.2895v1.9398l-5.4695 3.5933 1.1448 5.1833 3.1799-2.2577 2.0034 2.2577 2.2896 1.3038 1.4628-3.8795-0.89039-2.2896 0.89039-1.6218 3.1481-2.9255h1.431l-1.431 3.2435v2.9255c1.3205-0.35928 2.6554-0.46802 4.0067-0.63599l-3.7205 2.5757-0.28619 1.6536-4.3247 3.5615-4.2929-0.98578v-2.5757l-2.0034 1.3038 0.85858 2.2578h-3.1799l-1.7172 2.9255-2.1624 2.4485-3.8795 0.79498 2.2896 2.2896 0.60418 2.2578h-2.8937l-3.7205 1.9716v5.8511h1.7172l1.59 1.7808 3.5933-1.7808 1.431-3.5933 2.5757-1.6218 0.5724-1.3038 4.3247-0.95397 2.2896 2.6076 2.6076 1.272-1.4628 2.9256 2.3213-0.63599 1.1448-2.9255-2.8938-3.2435h1.1766l2.8619 2.2578 0.57239 3.2753 2.5758 2.9255 0.57238-4.2293 1.4628-0.66779c1.4209 1.4747 2.5237 3.2375 3.7205 4.8971l4.3247 0.31799 2.5757 1.6218-1.1448 1.6218-2.5758 2.2896h-3.7523l-4.8971-1.6218-2.5758 0.31798-1.8762 2.0988-5.3105-5.3423-3.7205-0.98578-5.4695 0.63598-4.8971 1.3038c-2.7415 3.107-5.4504 6.2176-8.0452 9.4444l-3.1481 7.4728 1.431 1.6218-2.5757 3.9113 2.8619 6.8369c2.4437 2.7636 4.8737 5.5023 7.3138 8.2678l3.5933-3.0845 1.59 1.8126 3.8795-2.4486 1.3038 1.4628h3.8795l2.226 2.5122-1.3674 4.4837 2.7347 3.0845-0.159 5.3741 2.0352 3.8795-1.4628 3.2753c-0.14311 2.3928-0.28618 4.7616-0.28618 7.1548 1.1778 3.2422 2.3539 6.4651 3.4661 9.7306l0.85858 5.2151v2.6075h2.0034l3.1799-1.9398h3.7205l5.5967-6.3599-0.69959-2.0988 3.7205-3.2753-2.7347-3.0845 3.3071-2.7665 3.1799-1.9398 1.431-1.6218-0.8586-3.5933v-9.0946l2.5758-5.5331 3.1799-3.5615 3.4343-8.4586v-2.2896c-1.713 0.21571-3.3802 0.42013-5.0561 0.54058l3.4661-3.4661 4.7381-3.2435 2.6076-2.9255v-3.2753c-0.57527-1.0846-1.1698-2.159-1.749-3.2435l-2.2896 2.6075-1.7172-1.9398-2.5757-1.9716v-4.2293l3.0209 3.4343 3.2753-0.50878c1.5055 1.3664 3.0042 2.6736 4.3247 4.2293l2.1624-2.4167c0-2.5861-2.9562-15.335-9.2536-26.139-6.2974-10.8-17.331-20.67-17.331-20.67l-0.85858 1.431-2.8937 3.2436-3.7205-3.9113h3.7205l1.7172-1.9398-6.8686-1.3038zm-28.492 4.2293-2.2896 1.3038-1.1448-0.31801-0.28618 1.9398 2.0034 1.3038 3.4343-2.2578zm-37.937 0.66779-2.2896 1.6218 2.8619 1.9398h2.2896v-2.2578zm45.409 7.4728v1.9398l1.1448 1.3038v2.9255l-0.57239 3.9113 3.1799-0.63599 2.2896-2.2896-2.0034-1.9397c-0.67567-1.7988-1.4757-3.4898-2.3214-5.2151zm-1.1448 3.9113-2.0034 0.63599 0.57238 3.5933 2.5757-1.3038zm-39.654 5.8511 0.85859 4.5473 1.7172-2.6076zm75.046 25.376 3.3071 3.7205 3.8795 8.2996 2.2895 2.6076-1.1448 2.9255 2.1942 2.4804c-1.0086 0.0684-2.0157 0.1272-3.0527 0.1272-1.8301-3.8446-3.2172-7.7119-4.6109-11.734l-2.4485-2.7665-1.272-4.7063z" fill="url(#r)" stroke-width=".12032"/><path transform="translate(-10)" d="m-354.24 106.19-8.6176 0.95396-10.621 2.9255-2.0352 1.9716 6.6143 4.5473v2.6076l-2.5757 2.5758 3.4343 6.8368 2.2895-1.3038 2.8938-4.5473c4.4399-1.3723 8.436-2.914 12.656-4.8653l3.4343-8.7766zm-20.415 0.63598-3.6887 0.54058-1.749 1.749-2.8938 0.41338-2.5757 1.2084-1.2402 0.60419-0.76319 1.0176 3.7205 0.63598 1.431-1.3038 2.8937-0.63598c1.9689-0.95729 3.9528-1.6141 6.0419-2.2896zm-11.766 7.7908-2.6076 0.66778-1.1448 2.2896-1.431-2.9255-0.57241 1.272 0.28621 3.2753-2.2896 1.9398-1.431 3.5933h2.8619l1.431-3.2753c1.2394-0.87625 2.4899-1.7641 3.7523-2.6075l2.8619 0.98579c1.9151 1.3008 3.839 2.6125 5.7557 3.9113l2.8619-2.6075-3.1481-1.3038-1.431-2.9255-5.4695-0.636zm-12.084 2.6075-1.431 3.5933c-1e-5 0-2.403 0.45163-3.0209 0.60419-7.8919 7.2702-23.834 22.968-27.538 52.596 0.14672 0.68694 2.6711 4.6745 2.6711 4.6745l6.0419 3.5933 6.0419 1.6218 2.5758 3.2435 4.0385 2.9255 2.2896-0.318 1.7172 0.76319v0.54058l-2.2896 6.1691-1.7172 2.6075 0.57238 1.3038-1.431 4.8653 5.1515 9.4444 5.1833 4.5473 2.2896 3.2435-0.28621 6.8368 1.749 3.9113-1.749 7.4728c-0.0277 0.0221-0.0698 0.13815 0.0954 0.69959 0.22222 0.74899 9.2229 5.735 9.7942 5.3105 0.56931-0.43241 1.0494-0.82678 1.0494-0.82678l-0.57238-1.59 2.2895-2.2896 0.85858-2.2896 3.7523-1.3038 2.8619-7.1548-0.85858-1.9398 2.0034-2.9255 4.3247-0.98578 2.2896-5.1833-0.57238-6.5189 3.4343-4.8653 0.57239-4.8971c-4.7183-2.339-9.3722-4.7466-14.055-7.1548l-2.3214-4.5473-4.2929-0.98577-2.3214-6.1691-5.7239 0.66779-4.8971-3.5933-5.1833 4.5473v0.73138c-1.5657-0.45176-3.4713-0.51045-4.8653-1.3674l-1.1448-3.2435v-3.5933l-3.4661 0.31799c0.28784-2.2774 0.56878-4.528 0.85858-6.805h-2.0034l-2.0034 2.5757-2.0352 0.9858-2.8619-1.6218-0.2862-3.5933 0.5724-3.8795 4.3247-3.2435h3.4343l0.57239-1.9716 4.3247 0.98578 3.1481 3.9113 0.5724-6.5189 5.4695-4.5473 2.0034-4.8971 4.0385-1.6218 2.2895-3.2435 5.1833-0.98578 2.5758-3.8795h-7.759l4.8971-2.2896h3.4343l4.8971-1.6218 0.57238-1.9398-1.7172-1.6536-2.0352-0.63599 0.5724-1.9398-1.431-2.9255-3.4343 1.272 0.57239-2.5757-4.0385-2.2896-3.1481 5.5331 0.28619 1.9398-3.1481 1.3038-2.0352 4.2293-0.85858-3.9113-5.4695-2.2578-0.85857-2.9255 7.1866-4.2293 3.1799-2.9255 0.2862-3.5933-1.7172-0.95398-2.3214-0.3498zm80.516 0-5.4695 1.3038-3.4343 2.2895v1.9398l-5.4695 3.5933 1.1448 5.1833 3.1799-2.2577 2.0034 2.2577 2.2896 1.3038 1.4628-3.8795-0.89039-2.2896 0.89039-1.6218 3.1481-2.9255h1.431l-1.431 3.2435v2.9255c1.3205-0.35928 2.6554-0.46802 4.0067-0.63599l-3.7205 2.5757-0.28619 1.6536-4.3247 3.5615-4.2929-0.98578v-2.5757l-2.0034 1.3038 0.85858 2.2578h-3.1799l-1.7172 2.9255-2.1624 2.4485-3.8795 0.79498 2.2896 2.2896 0.60418 2.2578h-2.8937l-3.7205 1.9716v5.8511h1.7172l1.59 1.7808 3.5933-1.7808 1.431-3.5933 2.5757-1.6218 0.5724-1.3038 4.3247-0.95397 2.2896 2.6076 2.6076 1.272-1.4628 2.9256 2.3213-0.63599 1.1448-2.9255-2.8938-3.2435h1.1766l2.8619 2.2578 0.57239 3.2753 2.5758 2.9255 0.57238-4.2293 1.4628-0.66779c1.4209 1.4747 2.5237 3.2375 3.7205 4.8971l4.3247 0.31799 2.5757 1.6218-1.1448 1.6218-2.5758 2.2896h-3.7523l-4.8971-1.6218-2.5758 0.31798-1.8762 2.0988-5.3105-5.3423-3.7205-0.98578-5.4695 0.63598-4.8971 1.3038c-2.7415 3.107-5.4504 6.2176-8.0452 9.4444l-3.1481 7.4728 1.431 1.6218-2.5757 3.9113 2.8619 6.8369c2.4437 2.7636 4.8737 5.5023 7.3138 8.2678l3.5933-3.0845 1.59 1.8126 3.8795-2.4486 1.3038 1.4628h3.8795l2.226 2.5122-1.3674 4.4837 2.7347 3.0845-0.159 5.3741 2.0352 3.8795-1.4628 3.2753c-0.14311 2.3928-0.28618 4.7616-0.28618 7.1548 1.1778 3.2422 2.3539 6.4651 3.4661 9.7306l0.85858 5.2151v2.6075h2.0034l3.1799-1.9398h3.7205l5.5967-6.3599-0.69959-2.0988 3.7205-3.2753-2.7347-3.0845 3.3071-2.7665 3.1799-1.9398 1.431-1.6218-0.8586-3.5933v-9.0946l2.5758-5.5331 3.1799-3.5615 3.4343-8.4586v-2.2896c-1.713 0.21571-3.3802 0.42013-5.0561 0.54058l3.4661-3.4661 4.7381-3.2435 2.6076-2.9255v-3.2753c-0.57527-1.0846-1.1698-2.159-1.749-3.2435l-2.2896 2.6075-1.7172-1.9398-2.5757-1.9716v-4.2293l3.0209 3.4343 3.2753-0.50878c1.5055 1.3664 3.0042 2.6736 4.3247 4.2293l2.1624-2.4167c0-2.5861-2.9562-15.335-9.2536-26.139-6.2974-10.8-17.331-20.67-17.331-20.67l-0.85858 1.431-2.8937 3.2436-3.7205-3.9113h3.7205l1.7172-1.9398-6.8686-1.3038zm-28.492 4.2293-2.2896 1.3038-1.1448-0.31801-0.28618 1.9398 2.0034 1.3038 3.4343-2.2578zm-37.937 0.66779-2.2896 1.6218 2.8619 1.9398h2.2896v-2.2578zm45.409 7.4728v1.9398l1.1448 1.3038v2.9255l-0.57239 3.9113 3.1799-0.63599 2.2896-2.2896-2.0034-1.9397c-0.67567-1.7988-1.4757-3.4898-2.3214-5.2151zm-1.1448 3.9113-2.0034 0.63599 0.57238 3.5933 2.5757-1.3038zm-39.654 5.8511 0.85859 4.5473 1.7172-2.6076zm75.046 25.376 3.3071 3.7205 3.8795 8.2996 2.2895 2.6076-1.1448 2.9255 2.1942 2.4804c-1.0086 0.0684-2.0157 0.1272-3.0527 0.1272-1.8301-3.8446-3.2172-7.7119-4.6109-11.734l-2.4485-2.7665-1.272-4.7063z" clip-path="url(#ar)" fill="none" stroke="url(#q)" stroke-width="1.2656"/></g><path d="m-274.24 106.19-8.6176 0.95396-10.621 2.9255-2.0352 1.9716 6.6143 4.5473v2.6076l-2.5757 2.5758 3.4343 6.8368 2.2895-1.3038 2.8938-4.5473c4.4399-1.3723 8.436-2.914 12.656-4.8653l3.4343-8.7766zm-20.415 0.63598-3.6887 0.54058-1.749 1.749-2.8938 0.41338-2.5757 1.2084-1.2402 0.60419-0.76319 1.0176 3.7205 0.63598 1.431-1.3038 2.8937-0.63598c1.9689-0.95729 3.9528-1.6141 6.0419-2.2896zm-11.766 7.7908-2.6076 0.66778-1.1448 2.2896-1.431-2.9255-0.57241 1.272 0.28621 3.2753-2.2896 1.9398-1.431 3.5933h2.8619l1.431-3.2753c1.2394-0.87625 2.4899-1.7641 3.7523-2.6075l2.8619 0.98579c1.9151 1.3008 3.839 2.6125 5.7557 3.9113l2.8619-2.6075-3.1481-1.3038-1.431-2.9255-5.4695-0.636zm-12.084 2.6075-1.431 3.5933c-1e-5 0-2.403 0.45163-3.0209 0.60419-7.8919 7.2702-23.834 22.968-27.538 52.596 0.14672 0.68694 2.6711 4.6745 2.6711 4.6745l6.0419 3.5933 6.0419 1.6218 2.5758 3.2435 4.0385 2.9255 2.2896-0.318 1.7172 0.76319v0.54058l-2.2896 6.1691-1.7172 2.6075 0.57238 1.3038-1.431 4.8653 5.1515 9.4444 5.1833 4.5473 2.2896 3.2435-0.28621 6.8368 1.749 3.9113-1.749 7.4728c-0.0277 0.0221-0.0698 0.13815 0.0954 0.69959 0.22222 0.74899 9.2229 5.735 9.7942 5.3105 0.56931-0.43241 1.0494-0.82678 1.0494-0.82678l-0.57238-1.59 2.2895-2.2896 0.85858-2.2896 3.7523-1.3038 2.8619-7.1548-0.85858-1.9398 2.0034-2.9255 4.3247-0.98578 2.2896-5.1833-0.57238-6.5189 3.4343-4.8653 0.57239-4.8971c-4.7183-2.339-9.3722-4.7466-14.055-7.1548l-2.3214-4.5473-4.2929-0.98577-2.3214-6.1691-5.7239 0.66779-4.8971-3.5933-5.1833 4.5473v0.73138c-1.5657-0.45176-3.4713-0.51045-4.8653-1.3674l-1.1448-3.2435v-3.5933l-3.4661 0.31799c0.28784-2.2774 0.56878-4.528 0.85858-6.805h-2.0034l-2.0034 2.5757-2.0352 0.9858-2.8619-1.6218-0.2862-3.5933 0.5724-3.8795 4.3247-3.2435h3.4343l0.57239-1.9716 4.3247 0.98578 3.1481 3.9113 0.5724-6.5189 5.4695-4.5473 2.0034-4.8971 4.0385-1.6218 2.2895-3.2435 5.1833-0.98578 2.5758-3.8795h-7.759l4.8971-2.2896h3.4343l4.8971-1.6218 0.57238-1.9398-1.7172-1.6536-2.0352-0.63599 0.5724-1.9398-1.431-2.9255-3.4343 1.272 0.57239-2.5757-4.0385-2.2896-3.1481 5.5331 0.28619 1.9398-3.1481 1.3038-2.0352 4.2293-0.85858-3.9113-5.4695-2.2578-0.85857-2.9255 7.1866-4.2293 3.1799-2.9255 0.2862-3.5933-1.7172-0.95398-2.3214-0.3498zm80.516 0-5.4695 1.3038-3.4343 2.2895v1.9398l-5.4695 3.5933 1.1448 5.1833 3.1799-2.2577 2.0034 2.2577 2.2896 1.3038 1.4628-3.8795-0.89039-2.2896 0.89039-1.6218 3.1481-2.9255h1.431l-1.431 3.2435v2.9255c1.3205-0.35928 2.6554-0.46802 4.0067-0.63599l-3.7205 2.5757-0.28619 1.6536-4.3247 3.5615-4.2929-0.98578v-2.5757l-2.0034 1.3038 0.85858 2.2578h-3.1799l-1.7172 2.9255-2.1624 2.4485-3.8795 0.79498 2.2896 2.2896 0.60418 2.2578h-2.8937l-3.7205 1.9716v5.8511h1.7172l1.59 1.7808 3.5933-1.7808 1.431-3.5933 2.5757-1.6218 0.5724-1.3038 4.3247-0.95397 2.2896 2.6076 2.6076 1.272-1.4628 2.9256 2.3213-0.63599 1.1448-2.9255-2.8938-3.2435h1.1766l2.8619 2.2578 0.57239 3.2753 2.5758 2.9255 0.57238-4.2293 1.4628-0.66779c1.4209 1.4747 2.5237 3.2375 3.7205 4.8971l4.3247 0.31799 2.5757 1.6218-1.1448 1.6218-2.5758 2.2896h-3.7523l-4.8971-1.6218-2.5758 0.31798-1.8762 2.0988-5.3105-5.3423-3.7205-0.98578-5.4695 0.63598-4.8971 1.3038c-2.7415 3.107-5.4504 6.2176-8.0452 9.4444l-3.1481 7.4728 1.431 1.6218-2.5757 3.9113 2.8619 6.8369c2.4437 2.7636 4.8737 5.5023 7.3138 8.2678l3.5933-3.0845 1.59 1.8126 3.8795-2.4486 1.3038 1.4628h3.8795l2.226 2.5122-1.3674 4.4837 2.7347 3.0845-0.159 5.3741 2.0352 3.8795-1.4628 3.2753c-0.14311 2.3928-0.28618 4.7616-0.28618 7.1548 1.1778 3.2422 2.3539 6.4651 3.4661 9.7306l0.85858 5.2151v2.6075h2.0034l3.1799-1.9398h3.7205l5.5967-6.3599-0.69959-2.0988 3.7205-3.2753-2.7347-3.0845 3.3071-2.7665 3.1799-1.9398 1.431-1.6218-0.8586-3.5933v-9.0946l2.5758-5.5331 3.1799-3.5615 3.4343-8.4586v-2.2896c-1.713 0.21571-3.3802 0.42013-5.0561 0.54058l3.4661-3.4661 4.7381-3.2435 2.6076-2.9255v-3.2753c-0.57527-1.0846-1.1698-2.159-1.749-3.2435l-2.2896 2.6075-1.7172-1.9398-2.5757-1.9716v-4.2293l3.0209 3.4343 3.2753-0.50878c1.5055 1.3664 3.0042 2.6736 4.3247 4.2293l2.1624-2.4167c0-2.5861-2.9562-15.335-9.2536-26.139-6.2974-10.8-17.331-20.67-17.331-20.67l-0.85858 1.431-2.8937 3.2436-3.7205-3.9113h3.7205l1.7172-1.9398-6.8686-1.3038zm-28.492 4.2293-2.2896 1.3038-1.1448-0.31801-0.28618 1.9398 2.0034 1.3038 3.4343-2.2578zm-37.937 0.66779-2.2896 1.6218 2.8619 1.9398h2.2896v-2.2578zm45.409 7.4728v1.9398l1.1448 1.3038v2.9255l-0.57239 3.9113 3.1799-0.63599 2.2896-2.2896-2.0034-1.9397c-0.67567-1.7988-1.4757-3.4898-2.3214-5.2151zm-1.1448 3.9113-2.0034 0.63599 0.57238 3.5933 2.5757-1.3038zm-39.654 5.8511 0.85859 4.5473 1.7172-2.6076zm75.046 25.376 3.3071 3.7205 3.8795 8.2996 2.2895 2.6076-1.1448 2.9255 2.1942 2.4804c-1.0086 0.0684-2.0157 0.1272-3.0527 0.1272-1.8301-3.8446-3.2172-7.7119-4.6109-11.734l-2.4485-2.7665-1.272-4.7063z" fill="url(#p)" opacity=".24082" stroke-width=".12032"/></g><path d="m-351.39 148.57c0 20.999-23.972 38.023-53.539 38.023-29.569 0-53.54-17.024-53.54-38.023 0-20.998 23.971-38.02 53.54-38.02 29.567 0 53.539 17.022 53.539 38.02z" fill="url(#o)"/></g></g></g></g></g></svg>
