<?xml version="1.0" encoding="UTF-8"?>
<svg version="1.0" viewBox="0 0 256 256" xmlns="http://www.w3.org/2000/svg" xmlns:xlink="http://www.w3.org/1999/xlink"><defs><filter id="af" x="-.16294" y="-2.3897" width="1.3259" height="5.7795" color-interpolation-filters="sRGB"><feGaussianBlur stdDeviation="11.948684"/></filter><filter id="ae" x="-.093476" y="-1.094" width="1.187" height="3.188" color-interpolation-filters="sRGB"><feGaussianBlur stdDeviation="8.257079"/></filter><filter id="w" color-interpolation-filters="sRGB"><feGaussianBlur stdDeviation="2.43"/></filter><clipPath id="ah"><path d="m36 19c-0.56266 0-1 0.43734-1 1v217c0 0.56266 0.43734 1 1 1h184c0.56266 0 1-0.43734 1-1v-171c0-13.558-10.858-25.296-16.281-30.719-5.4231-5.4231-17.161-16.281-30.719-16.281z" fill="url(#linearGradient6013) #000000" fill-rule="evenodd"/></clipPath><filter id="ac" color-interpolation-filters="sRGB"><feGaussianBlur stdDeviation="2.025"/></filter><linearGradient id="a"><stop stop-color="#fff" offset="0"/><stop stop-color="#fff" stop-opacity="0" offset="1"/></linearGradient><filter id="ad" x="-.10594" y="-.11513" width="1.2119" height="1.2303" color-interpolation-filters="sRGB"><feGaussianBlur stdDeviation="3.0222701"/></filter><mask id="n" maskUnits="userSpaceOnUse"><path d="m36-31c-0.56266 0-1 0.43734-1 1v217c0 0.56266 0.43734 1 1 1h184c0.56266 0 1-0.43734 1-1v-171c0-13.558-12.858-23.296-18.281-28.719-5.4231-5.4231-15.161-18.281-28.719-18.281z" fill="#fff" fill-rule="evenodd"/></mask><filter id="ab" x="-.24138" y="-.24138" width="1.4828" height="1.4828" color-interpolation-filters="sRGB"><feGaussianBlur stdDeviation="4.7270115"/></filter><filter id="aa" color-interpolation-filters="sRGB"><feGaussianBlur stdDeviation="0.27169794"/></filter><filter id="z" x="-.13103" y="-.13103" width="1.2621" height="1.2621" color-interpolation-filters="sRGB"><feGaussianBlur stdDeviation="2.566092"/></filter><filter id="y" color-interpolation-filters="sRGB"><feGaussianBlur stdDeviation="0.30732727"/></filter><filter id="x" x="-.031646" y="-.10174" width="1.0633" height="1.2035" color-interpolation-filters="sRGB"><feGaussianBlur stdDeviation="0.35931052"/></filter><linearGradient id="q" x1="54.975" x2="28.439" y1="16.194" y2="-5.4887" gradientTransform="matrix(3.7478 0 0 8.6363 811.74 620.04)" gradientUnits="userSpaceOnUse"><stop stop-color="#fff" offset="0"/><stop stop-color="#fff" stop-opacity="0" offset="1"/></linearGradient><linearGradient id="p" x1="56.424" x2="31.958" y1="6.9802" y2="18.144" gradientTransform="matrix(-3.7478 0 0 8.6363 1080.3 620.04)" gradientUnits="userSpaceOnUse"><stop stop-opacity=".092784" offset="0"/><stop stop-opacity="0" offset="1"/></linearGradient><filter id="v" color-interpolation-filters="sRGB"><feGaussianBlur stdDeviation="0.2943598"/></filter><clipPath id="ag"><path d="m824.06 32v256h255.94v-256zm123.06 18.062c1.121 0 2.0312 0.90982 2.0312 2.0312 0 1.1214-0.91032 2.0312-2.0312 2.0312-1.1217 0-2.0313-0.90982-2.0312-2.0312 0-1.1214 0.90948-2.0312 2.0312-2.0312zm-6 10.188c1.121 0 2.0312 0.90981 2.0312 2.0312 0 1.1214-0.91032 2.0312-2.0312 2.0312-1.1217-8e-6 -2.0313-0.90982-2.0312-2.0312 0-1.1214 0.90948-2.0312 2.0312-2.0312zm6 0c1.121 0 2.0312 0.90981 2.0312 2.0312 0 1.1214-0.91032 2.0312-2.0312 2.0312-1.1217-8e-6 -2.0313-0.90982-2.0312-2.0312 0-1.1214 0.90948-2.0312 2.0312-2.0312zm6 0c1.1218 0 2.032 0.90981 2.0312 2.0312 0 1.1214-0.90942 2.0312-2.0312 2.0312-1.1217 0-2.0312-0.90982-2.0312-2.0312 0-1.1214 0.90958-2.0312 2.0312-2.0312zm-16 10c1.121-8e-6 2.0312 0.90981 2.0312 2.0312 0 1.1214-0.91032 2.0312-2.0312 2.0312-1.1217-8e-6 -2.0313-0.90982-2.0312-2.0312 0-1.1214 0.90948-2.0313 2.0312-2.0312zm10 0c1.121-8e-6 2.0312 0.90981 2.0312 2.0312 0 1.1214-0.91032 2.0312-2.0312 2.0312-1.1217-8e-6 -2.0313-0.90982-2.0312-2.0312 0-1.1214 0.90948-2.0313 2.0312-2.0312zm10 0c1.1218 0 2.0313 0.90981 2.0312 2.0312 0 1.1214-0.90942 2.0312-2.0312 2.0312-1.1217 0-2.0312-0.90983-2.0312-2.0312 0-1.1214 0.90958-2.0313 2.0312-2.0312zm-24 10c1.121-8e-6 2.0312 0.90981 2.0312 2.0312 0 1.1214-0.91022 2.0313-2.0312 2.0312-1.1217-8e-6 -2.0313-0.90982-2.0312-2.0312 0-1.1214 0.90948-2.0313 2.0312-2.0312zm14 0c1.121-8e-6 2.0312 0.90981 2.0312 2.0312 0 1.1214-0.91032 2.0313-2.0312 2.0312-1.1217-8e-6 -2.0313-0.90982-2.0312-2.0312 0-1.1214 0.90948-2.0313 2.0312-2.0312zm14 0c1.121 0 2.0312 0.90981 2.0312 2.0312 0 1.1214-0.91022 2.0312-2.0312 2.0312-1.1217 0-2.0313-0.90982-2.0312-2.0312 0-1.1214 0.90948-2.0313 2.0312-2.0312zm-32 10c1.1218-8e-6 2.0312 0.90982 2.0312 2.0312 0 1.1214-0.90952 2.0313-2.0312 2.0312-1.1217-8e-6 -2.0312-0.90982-2.0312-2.0312 0-1.1214 0.90948-2.0313 2.0312-2.0312zm18 0c1.121-8e-6 2.0312 0.90982 2.0312 2.0312 0 1.1214-0.91032 2.0313-2.0312 2.0312-1.1217-8e-6 -2.0313-0.90982-2.0312-2.0312 0-1.1214 0.90948-2.0313 2.0312-2.0312zm18 0c1.121 0 2.0312 0.90982 2.0312 2.0312 0 1.1214-0.91032 2.0312-2.0312 2.0312-1.1217 0-2.0313-0.90983-2.0312-2.0312 0-1.1214 0.90948-2.0313 2.0312-2.0312zm-40 10c1.1218 0 2.0312 0.90981 2.0312 2.0312 0 1.1214-0.90942 2.0312-2.0312 2.0312-1.1209 0-2.0312-0.90981-2.0312-2.0312 0-1.1214 0.91028-2.0312 2.0312-2.0312zm22 0c1.121 0 2.0312 0.90981 2.0312 2.0312 0 1.1214-0.91032 2.0312-2.0312 2.0312-1.1217 0-2.0313-0.90981-2.0312-2.0312 0-1.1214 0.90948-2.0312 2.0312-2.0312zm22 0c1.1218 0 2.0312 0.90981 2.0312 2.0312 0 1.1214-0.90952 2.0312-2.0312 2.0312-1.1209 0-2.0313-0.90982-2.0312-2.0312 0-1.1214 0.91028-2.0312 2.0312-2.0312zm-48 10c1.1218 0 2.0312 0.90983 2.0312 2.0312 0 1.1214-0.90942 2.0312-2.0312 2.0312-1.1209 0-2.0312-0.90981-2.0312-2.0312 0-1.1214 0.91028-2.0312 2.0312-2.0312zm26 0c1.121 0 2.0312 0.90983 2.0312 2.0312 0 1.1214-0.91032 2.0312-2.0312 2.0312-1.1217 0-2.0313-0.90981-2.0312-2.0312 0-1.1214 0.90948-2.0312 2.0312-2.0312zm26 0c1.1218 0 2.0312 0.90983 2.0312 2.0312 0 1.1214-0.90952 2.0312-2.0312 2.0312-1.1209 0-2.0313-0.90982-2.0312-2.0312 0-1.1214 0.91028-2.0312 2.0312-2.0312zm-56 10c1.1218 0 2.0313 0.90981 2.0312 2.0312 0 1.1214-0.90942 2.0312-2.0312 2.0312-1.1209 0-2.0312-0.90981-2.0312-2.0312 0-1.1214 0.91028-2.0312 2.0312-2.0312zm30 0c1.121 0 2.0312 0.90981 2.0312 2.0312 0 1.1214-0.91032 2.0312-2.0312 2.0312-1.1217 0-2.0313-0.90981-2.0312-2.0312 0-1.1214 0.90948-2.0312 2.0312-2.0312zm30 0c1.1218 0 2.0312 0.90981 2.0312 2.0312 0 1.1214-0.90952 2.0312-2.0312 2.0312-1.1209 0-2.0313-0.90982-2.0312-2.0312 0-1.1214 0.91028-2.0312 2.0312-2.0312zm-64 10c1.1214 0 2.0313 0.90981 2.0312 2.0312 0 1.1214-0.90982 2.0312-2.0312 2.0312-1.1214 0-2.0312-0.90981-2.0312-2.0312 0-1.1214 0.90988-2.0312 2.0312-2.0312zm34 0c1.121 0 2.0312 0.90981 2.0312 2.0312 0 1.1214-0.91032 2.0312-2.0312 2.0312-1.1217 0-2.0313-0.90982-2.0312-2.0312 0-1.1214 0.90948-2.0312 2.0312-2.0312zm34 0c1.1215 0 2.0312 0.90981 2.0312 2.0312 0 1.1214-0.90982 2.0312-2.0312 2.0312-1.1214 0-2.0313-0.90982-2.0312-2.0312 0-1.1214 0.90988-2.0312 2.0312-2.0312zm-72 10c1.1214 0 2.0313 0.90981 2.0312 2.0312 0 1.1214-0.90972 2.0312-2.0312 2.0312-1.1214 0-2.0312-0.90981-2.0312-2.0312 0-1.1214 0.90988-2.0312 2.0312-2.0312zm38 0c1.1214 0 2.0312 0.90979 2.0312 2.0312 0 1.1214-0.90982 2.0312-2.0312 2.0312-1.1214 0-2.0313-0.90983-2.0312-2.0312 0-1.1214 0.90988-2.0313 2.0312-2.0312zm38 0c1.1215 0 2.0312 0.90979 2.0312 2.0312 0 1.1214-0.90982 2.0312-2.0312 2.0312-1.1214 0-2.0313-0.90984-2.0312-2.0312 0-1.1214 0.90988-2.0313 2.0312-2.0312zm-80 10c1.1214 0 2.0313 0.90981 2.0312 2.0312 0 1.1214-0.90972 2.0312-2.0312 2.0312-1.1214 0-2.0312-0.90981-2.0312-2.0312 0-1.1214 0.90988-2.0312 2.0312-2.0312zm42 0c1.1214 0 2.0313 0.90982 2.0312 2.0312 0 1.1214-0.90982 2.0312-2.0312 2.0312-1.1214 0-2.0312-0.9098-2.0312-2.0312 0-1.1214 0.90988-2.0312 2.0312-2.0312zm42 0c1.1215 0 2.0312 0.90983 2.0312 2.0312 0 1.1214-0.90982 2.0312-2.0312 2.0312-1.1214 0-2.0313-0.9098-2.0312-2.0312 0-1.1214 0.90988-2.0312 2.0312-2.0312zm-88 10c1.1214 0 2.0313 0.90981 2.0312 2.0312 0 1.1214-0.90972 2.0312-2.0312 2.0312-1.1214 0-2.0312-0.90981-2.0312-2.0312 0-1.1214 0.90988-2.0312 2.0312-2.0312zm46 0c1.1214 0 2.0313 0.90981 2.0312 2.0312 0 1.1214-0.90982 2.0312-2.0312 2.0312-1.1214 0-2.0312-0.90981-2.0312-2.0312 0-1.1214 0.90988-2.0312 2.0312-2.0312zm46 0c1.1215 0 2.0312 0.90981 2.0312 2.0312 0 1.1214-0.90982 2.0312-2.0312 2.0312-1.1214 0-2.0313-0.90982-2.0312-2.0312 0-1.1214 0.90988-2.0312 2.0312-2.0312zm-96 10c1.1214 0 2.0313 0.90981 2.0312 2.0312 0 1.1214-0.90972 2.0312-2.0312 2.0312-1.1214 0-2.0312-0.90981-2.0312-2.0312 0-1.1214 0.90988-2.0312 2.0312-2.0312zm50 0c1.1214 0 2.0313 0.90981 2.0312 2.0312 0 1.1214-0.90982 2.0312-2.0312 2.0312-1.1214 0-2.0312-0.90981-2.0312-2.0312 0-1.1214 0.90988-2.0312 2.0312-2.0312zm50 0c1.1215 0 2.0312 0.90981 2.0312 2.0312 0 1.1214-0.90982 2.0312-2.0312 2.0312-1.1214 0-2.0313-0.90982-2.0312-2.0312 0-1.1214 0.90988-2.0312 2.0312-2.0312zm-104 10c1.1214 0 2.0313 0.90981 2.0312 2.0312 0 1.1214-0.90972 2.0312-2.0312 2.0312-1.1214 0-2.0312-0.90981-2.0312-2.0312 0-1.1214 0.90988-2.0312 2.0312-2.0312zm54 0c1.1214 0 2.0313 0.90981 2.0312 2.0312 0 1.1214-0.90982 2.0312-2.0312 2.0312-1.1214 0-2.0312-0.90982-2.0312-2.0312 0-1.1214 0.90988-2.0312 2.0312-2.0312zm54 0c1.1214 0 2.0312 0.90981 2.0312 2.0312s-0.9098 2.0312-2.0312 2.0312c-1.1214 0-2.0313-0.90984-2.0312-2.0312 0-1.1214 0.90985-2.0312 2.0312-2.0312zm-112 10c1.1214 0 2.0313 0.90981 2.0312 2.0312 0 1.1214-0.90972 2.0312-2.0312 2.0312-1.1214 0-2.0312-0.90981-2.0312-2.0312 0-1.1214 0.90988-2.0312 2.0312-2.0312zm58 0c1.1214 0 2.0313 0.90982 2.0312 2.0312 0 1.1214-0.90982 2.0313-2.0312 2.0312-1.1214 0-2.0312-0.9098-2.0312-2.0312 0-1.1214 0.90988-2.0312 2.0312-2.0312zm58 0c1.1214 0 2.0312 0.90983 2.0312 2.0312 0 1.1214-0.9098 2.0313-2.0312 2.0312-1.1214 0-2.0313-0.9098-2.0312-2.0312 0-1.1214 0.9098-2.0312 2.0312-2.0312zm-120 10c1.1214 0 2.0313 0.90981 2.0312 2.0312 0 1.1214-0.90972 2.0312-2.0312 2.0312-1.1214 0-2.0312-0.90981-2.0312-2.0312 0-1.1214 0.90988-2.0312 2.0312-2.0312zm62 0c1.1214 0 2.0313 0.90981 2.0312 2.0312 0 1.1214-0.90982 2.0312-2.0312 2.0312-1.1214 0-2.0312-0.90981-2.0312-2.0312 0-1.1214 0.90988-2.0312 2.0312-2.0312zm62 0c1.1214 0 2.0312 0.90981 2.0312 2.0312s-0.9098 2.0312-2.0312 2.0312-2.0313-0.90982-2.0312-2.0312c0-1.1214 0.9098-2.0312 2.0312-2.0312zm-128 10c1.1214 0 2.0313 0.90981 2.0312 2.0312 0 1.1214-0.90972 2.0312-2.0312 2.0312-1.1214 0-2.0312-0.90981-2.0312-2.0312 0-1.1214 0.90988-2.0312 2.0312-2.0312zm66 0c1.1214 0 2.0313 0.90981 2.0312 2.0312 0 1.1214-0.90982 2.0312-2.0312 2.0312-1.1214 0-2.0312-0.90981-2.0312-2.0312 0-1.1214 0.90988-2.0312 2.0312-2.0312zm66 0c1.1214 0 2.0312 0.90981 2.0312 2.0312s-0.9098 2.0312-2.0312 2.0312-2.0313-0.90982-2.0312-2.0312c0-1.1214 0.9098-2.0312 2.0312-2.0312zm-136 10c1.1214 0 2.0313 0.90981 2.0312 2.0312 0 1.1214-0.90972 2.0312-2.0312 2.0312-1.1214 0-2.0312-0.90981-2.0312-2.0312 0-1.1214 0.90988-2.0312 2.0312-2.0312zm70 0c1.1214 0 2.0313 0.90981 2.0312 2.0312 0 1.1214-0.90982 2.0312-2.0312 2.0312-1.1214 0-2.0312-0.90981-2.0312-2.0312 0-1.1214 0.90988-2.0312 2.0312-2.0312zm70 0c1.1214 0 2.0312 0.90981 2.0312 2.0312s-0.9098 2.0312-2.0312 2.0312-2.0313-0.90982-2.0312-2.0312c0-1.1214 0.9098-2.0312 2.0312-2.0312zm-144 10c1.1214 0 2.0313 0.90981 2.0312 2.0312 0 1.1214-0.90972 2.0312-2.0312 2.0312-1.1214 0-2.0312-0.90981-2.0312-2.0312 0-1.1214 0.90988-2.0312 2.0312-2.0312zm74 0c1.1214 0 2.0313 0.90982 2.0312 2.0312 0 1.1214-0.90982 2.0313-2.0312 2.0312-1.1214 0-2.0312-0.9098-2.0312-2.0312 0-1.1214 0.90988-2.0313 2.0312-2.0312zm74 0c1.1214 0 2.0312 0.90983 2.0312 2.0312 0 1.1214-0.9098 2.0313-2.0312 2.0312-1.1214 0-2.0313-0.9098-2.0312-2.0312 0-1.1214 0.9098-2.0313 2.0312-2.0312zm-152 10c1.1214 0 2.0313 0.90981 2.0312 2.0312 0 1.1214-0.90972 2.0312-2.0312 2.0312-1.1214 0-2.0312-0.90981-2.0312-2.0312 0-1.1214 0.90988-2.0312 2.0312-2.0312zm78 0c1.1214 0 2.0313 0.90981 2.0312 2.0312 0 1.1214-0.90982 2.0312-2.0312 2.0312-1.1214 0-2.0312-0.90981-2.0312-2.0312 0-1.1214 0.90988-2.0312 2.0312-2.0312zm78 0c1.1214 0 2.0315 0.90981 2.0312 2.0312 0 1.1214-0.9098 2.0312-2.0312 2.0312s-2.0313-0.90982-2.0312-2.0312c0-1.1214 0.9098-2.0312 2.0312-2.0312zm-160 10c1.1214 0 2.0313 0.90981 2.0312 2.0312 0 1.1214-0.90972 2.0312-2.0312 2.0312-1.1214 0-2.0312-0.90981-2.0312-2.0312 0-1.1214 0.90988-2.0312 2.0312-2.0312zm82 0c1.1214 0 2.0313 0.90981 2.0312 2.0312 0 1.1214-0.90982 2.0312-2.0312 2.0312-1.1214 0-2.0312-0.90981-2.0312-2.0312 0-1.1214 0.90988-2.0312 2.0312-2.0312zm82 0c1.1214 0 2.0315 0.90981 2.0312 2.0312 0 1.1214-0.9098 2.0312-2.0312 2.0312s-2.0312-0.90982-2.0312-2.0312c0-1.1214 0.9098-2.0312 2.0312-2.0312zm-168 10c1.1214 0 2.0313 0.90981 2.0312 2.0312 0 1.1214-0.90972 2.0312-2.0312 2.0312-1.1214 0-2.0312-0.90981-2.0312-2.0312 0-1.1214 0.90988-2.0312 2.0312-2.0312zm86 0c1.1214 0 2.0313 0.90981 2.0312 2.0312 0 1.1214-0.90982 2.0312-2.0312 2.0312-1.1214 0-2.0312-0.90981-2.0312-2.0312 0-1.1214 0.90988-2.0312 2.0312-2.0312zm86 0c1.1214 0 2.0315 0.90981 2.0312 2.0312 0 1.1214-0.9098 2.0312-2.0312 2.0312s-2.0312-0.90982-2.0312-2.0312c0-1.1214 0.9098-2.0312 2.0312-2.0312z"/></clipPath><linearGradient id="o" x1="965.69" x2="947.12" y1="238.8" y2="-130.31" gradientUnits="userSpaceOnUse"><stop offset="0"/><stop stop-opacity="0" offset="1"/></linearGradient><filter id="u" color-interpolation-filters="sRGB"><feGaussianBlur stdDeviation="0.793375"/></filter><linearGradient id="t" x1="84" x2="-104.07" y1="200.5" y2="-127.99" gradientUnits="userSpaceOnUse"><stop offset="0"/><stop stop-opacity="0" offset="1"/></linearGradient><radialGradient id="m" cx="-80.661" cy="88.983" r="18" gradientTransform="matrix(25.306 2.1794e-6 -1.0731e-6 12.46 2199.2 -911.49)" gradientUnits="userSpaceOnUse"><stop stop-color="#fff" offset="0"/><stop stop-color="#d3d7cf" offset="1"/></radialGradient><radialGradient id="l" cx="128.59" cy="116.47" r="92.902" gradientTransform="matrix(3.5967 -.28529 .17691 2.2303 -355.12 -121.58)" gradientUnits="userSpaceOnUse"><stop stop-color="#fff" offset="0"/><stop stop-color="#fff" stop-opacity="0" offset="1"/></radialGradient><radialGradient id="k" cx="36" cy="45.297" r="84.203" gradientTransform="matrix(0 2.7411 -1.8799 0 120.78 -78.804)" gradientUnits="userSpaceOnUse"><stop stop-color="#fff" offset="0"/><stop stop-color="#fff" stop-opacity="0" offset="1"/></radialGradient><radialGradient id="j" cx="127.75" cy="261.27" r="92.25" gradientTransform="matrix(1.663 0 0 .34037 -84.702 148.57)" gradientUnits="userSpaceOnUse" xlink:href="#a"/><radialGradient id="i" cx="20.48" cy="31.231" r="93" gradientTransform="matrix(0 1.0485 -3.8781 0 165.49 13.855)" gradientUnits="userSpaceOnUse"><stop stop-color="#fff" offset="0"/><stop stop-color="#fff" stop-opacity="0" offset="1"/></radialGradient><radialGradient id="h" cx="127.75" cy="236.25" r="92.25" gradientTransform="matrix(1.5709 0 0 1.1159 -53.057 .95481)" gradientUnits="userSpaceOnUse" xlink:href="#a"/><radialGradient id="g" cx="210.96" cy="38.58" r="34.234" gradientTransform="matrix(1.0442 0 0 .96082 -12.745 6.3495)" gradientUnits="userSpaceOnUse"><stop offset="0"/><stop stop-opacity="0" offset="1"/></radialGradient><radialGradient id="f" cx="196.36" cy="44.213" r="23.763" gradientTransform="matrix(1 0 0 .98931 0 .47264)" gradientUnits="userSpaceOnUse"><stop offset="0"/><stop stop-opacity="0" offset="1"/></radialGradient><linearGradient id="s" x1="190.98" x2="196.45" y1="52.973" y2="39.564" gradientTransform="translate(-1.5 2.5214)" gradientUnits="userSpaceOnUse"><stop offset="0"/><stop stop-opacity="0" offset="1"/></linearGradient><radialGradient id="e" cx="190.88" cy="49.25" r="23.5" gradientTransform="matrix(1.4473 0 0 1.4473 -85.751 -21.529)" gradientUnits="userSpaceOnUse"><stop stop-color="#fff" offset="0"/><stop stop-color="#fff" stop-opacity="0" offset="1"/></radialGradient><radialGradient id="d" cx="192.25" cy="45.75" r="23.5" gradientTransform="matrix(.5972 -.4509 1.7045 2.2575 -.54025 29.158)" gradientUnits="userSpaceOnUse"><stop stop-color="#fff" offset="0"/><stop stop-color="#e6e6e6" offset=".44761"/><stop stop-color="#cbcbcb" offset=".81268"/><stop stop-color="#dbdbdb" offset="1"/></radialGradient><radialGradient id="c" cx="186.77" cy="27.786" r="8.9714" gradientTransform="matrix(2.1152 0 0 2.9279 -207.44 -53.617)" gradientUnits="userSpaceOnUse"><stop stop-color="#fff" offset="0"/><stop stop-color="#fff" stop-opacity="0" offset="1"/></radialGradient><radialGradient id="b" cx="208.68" cy="39.762" r="13.625" gradientTransform="matrix(.99733 .072992 -.11677 1.5955 5.1997 -29.524)" gradientUnits="userSpaceOnUse"><stop stop-color="#fff" offset="0"/><stop stop-color="#fff" stop-opacity="0" offset="1"/></radialGradient><linearGradient id="r" x1="189.25" x2="189.25" y1="23.662" y2="43.888" gradientUnits="userSpaceOnUse"><stop stop-color="#fff" offset="0"/><stop stop-color="#fff" stop-opacity="0" offset="1"/></linearGradient></defs><g transform="translate(-824,-32)"><g><path d="m947.12 49.469c-1.9873 0-3.625 1.6381-3.625 3.625-1.4e-4 1.9871 1.6377 3.625 3.625 3.625 1.9871-7e-6 3.625-1.6373 3.625-3.625-1.4e-4 -1.9875-1.6379-3.625-3.625-3.625zm0 1.5938c1.121 0 2.0312 0.90982 2.0312 2.0312 0 1.1214-0.91032 2.0312-2.0312 2.0312-1.1217 0-2.0313-0.90982-2.0312-2.0312 0-1.1214 0.90948-2.0312 2.0312-2.0312zm-6 8.5938c-1.9873 2e-6 -3.625 1.6381-3.625 3.625-1.4e-4 1.9871 1.6377 3.625 3.625 3.625 1.2743-1e-6 2.3507-0.70936 3-1.7188 0.64925 1.0094 1.7256 1.7187 3 1.7188 1.2743-1e-6 2.3507-0.70936 3-1.7188 0.64924 1.0094 1.7256 1.7188 3 1.7188 1.9873-1.6e-5 3.625-1.6381 3.625-3.625 1e-3 -1.9881-1.6377-3.625-3.625-3.625-1.2744 1e-6 -2.3508 0.70934-3 1.7188-0.64927-1.0094-1.7256-1.7188-3-1.7188-1.2745 1e-6 -2.3508 0.70934-3 1.7188-0.64927-1.0094-1.7256-1.7188-3-1.7188zm0 1.5938c1.121 0 2.0312 0.90981 2.0312 2.0312 0 1.1214-0.91032 2.0312-2.0312 2.0312-1.1217-8e-6 -2.0313-0.90982-2.0312-2.0312 0-1.1214 0.90948-2.0312 2.0312-2.0312zm6 0c1.121 0 2.0312 0.90981 2.0312 2.0312 0 1.1214-0.91032 2.0312-2.0312 2.0312-1.1217-8e-6 -2.0313-0.90982-2.0312-2.0312 0-1.1214 0.90948-2.0312 2.0312-2.0312zm6 0c1.1218 0 2.032 0.90981 2.0312 2.0312 0 1.1214-0.90942 2.0312-2.0312 2.0312-1.1217 0-2.0312-0.90982-2.0312-2.0312 0-1.1214 0.90958-2.0312 2.0312-2.0312zm-16 8.4062c-1.9873-1.2e-5 -3.625 1.6381-3.625 3.625-1.4e-4 1.9871 1.6377 3.625 3.625 3.625 1.9871-9e-6 3.625-1.6373 3.625-3.625-1.4e-4 -1.9875-1.6378-3.625-3.625-3.625zm10 0c-1.9873-1.2e-5 -3.625 1.6381-3.625 3.625-1.4e-4 1.9871 1.6377 3.625 3.625 3.625 1.9871-9e-6 3.625-1.6373 3.625-3.625-1.4e-4 -1.9875-1.6378-3.625-3.625-3.625zm10 0c-1.9873-2.7e-5 -3.625 1.638-3.625 3.625 4e-5 1.987 1.6377 3.625 3.625 3.625 1.9873-2.3e-5 3.625-1.6381 3.625-3.625 4e-5 -1.9869-1.6377-3.625-3.625-3.625zm-20 1.5938c1.121-8e-6 2.0312 0.90981 2.0312 2.0312 0 1.1214-0.91032 2.0312-2.0312 2.0312-1.1217-8e-6 -2.0313-0.90982-2.0312-2.0312 0-1.1214 0.90948-2.0313 2.0312-2.0312zm10 0c1.121-8e-6 2.0312 0.90981 2.0312 2.0312 0 1.1214-0.91032 2.0312-2.0312 2.0312-1.1217-8e-6 -2.0313-0.90982-2.0312-2.0312 0-1.1214 0.90948-2.0313 2.0312-2.0312zm10 0c1.1218 0 2.0313 0.90981 2.0312 2.0312 0 1.1214-0.90942 2.0312-2.0312 2.0312-1.1217 0-2.0312-0.90983-2.0312-2.0312 0-1.1214 0.90958-2.0313 2.0312-2.0312zm-24 8.4062c-1.9873-1.8e-5 -3.625 1.6381-3.625 3.625-1.4e-4 1.9871 1.6377 3.625 3.625 3.625 1.9872 2e-6 3.625-1.6374 3.625-3.625-1.4e-4 -1.9875-1.6378-3.625-3.625-3.625zm14 0c-1.9873-1.8e-5 -3.625 1.6381-3.625 3.625-1.4e-4 1.9871 1.6377 3.625 3.625 3.625 1.9871 2e-6 3.625-1.6373 3.625-3.625-1.4e-4 -1.9875-1.6378-3.625-3.625-3.625zm14 0c-1.9873-3.2e-5 -3.625 1.6381-3.625 3.625-1.4e-4 1.9871 1.6377 3.625 3.625 3.625 1.9871-1.2e-5 3.625-1.6374 3.625-3.625-1.4e-4 -1.9875-1.6379-3.625-3.625-3.625zm-28 1.5938c1.121-8e-6 2.0312 0.90981 2.0312 2.0312 0 1.1214-0.91022 2.0313-2.0312 2.0312-1.1217-8e-6 -2.0313-0.90982-2.0312-2.0312 0-1.1214 0.90948-2.0313 2.0312-2.0312zm14 0c1.121-8e-6 2.0312 0.90981 2.0312 2.0312 0 1.1214-0.91032 2.0313-2.0312 2.0312-1.1217-8e-6 -2.0313-0.90982-2.0312-2.0312 0-1.1214 0.90948-2.0313 2.0312-2.0312zm14 0c1.121 0 2.0312 0.90981 2.0312 2.0312 0 1.1214-0.91022 2.0312-2.0312 2.0312-1.1217 0-2.0313-0.90982-2.0312-2.0312 0-1.1214 0.90948-2.0313 2.0312-2.0312zm-32 8.4062c-1.9873-1.1e-5 -3.625 1.6381-3.625 3.625 4e-5 1.987 1.6377 3.625 3.625 3.625 1.9873 1.1e-5 3.625-1.638 3.625-3.625-1.4e-4 -1.9868-1.6377-3.625-3.625-3.625zm18 0c-1.9873-1.1e-5 -3.625 1.6381-3.625 3.625-1.4e-4 1.9871 1.6377 3.625 3.625 3.625 1.9871 1.1e-5 3.625-1.6373 3.625-3.625-1.4e-4 -1.9875-1.6378-3.625-3.625-3.625zm18 0c-1.9873-2.5e-5 -3.625 1.6381-3.625 3.625-1.4e-4 1.9871 1.6377 3.625 3.625 3.625 1.9871-4e-6 3.625-1.6373 3.625-3.625-1.4e-4 -1.9875-1.6379-3.625-3.625-3.625zm-36 1.5938c1.1218-8e-6 2.0312 0.90982 2.0312 2.0312 0 1.1214-0.90952 2.0313-2.0312 2.0312-1.1217-8e-6 -2.0312-0.90982-2.0312-2.0312 0-1.1214 0.90948-2.0313 2.0312-2.0312zm18 0c1.121-8e-6 2.0312 0.90982 2.0312 2.0312 0 1.1214-0.91032 2.0313-2.0312 2.0312-1.1217-8e-6 -2.0313-0.90982-2.0312-2.0312 0-1.1214 0.90948-2.0313 2.0312-2.0312zm18 0c1.121 0 2.0312 0.90982 2.0312 2.0312 0 1.1214-0.91032 2.0312-2.0312 2.0312-1.1217 0-2.0313-0.90983-2.0312-2.0312 0-1.1214 0.90948-2.0313 2.0312-2.0312zm-40 8.4062c-1.9871 0-3.625 1.6373-3.625 3.625 4e-5 1.9877 1.6379 3.625 3.625 3.625 1.9873 0 3.625-1.6381 3.625-3.625-1.4e-4 -1.9868-1.6377-3.625-3.625-3.625zm22 0c-1.9873 0-3.625 1.6381-3.625 3.625-1.4e-4 1.9871 1.6377 3.625 3.625 3.625 1.9871 0 3.625-1.6373 3.625-3.625-1.4e-4 -1.9875-1.6379-3.625-3.625-3.625zm22 0c-1.9871 0-3.625 1.6373-3.625 3.625-1.4e-4 1.9879 1.6379 3.625 3.625 3.625 1.9873 0 3.625-1.638 3.625-3.625-1.4e-4 -1.9868-1.6377-3.625-3.625-3.625zm-44 1.5938c1.1218 0 2.0312 0.90981 2.0312 2.0312 0 1.1214-0.90942 2.0312-2.0312 2.0312-1.1209 0-2.0312-0.90981-2.0312-2.0312 0-1.1214 0.91028-2.0312 2.0312-2.0312zm22 0c1.121 0 2.0312 0.90981 2.0312 2.0312 0 1.1214-0.91032 2.0312-2.0312 2.0312-1.1217 0-2.0313-0.90981-2.0312-2.0312 0-1.1214 0.90948-2.0312 2.0312-2.0312zm22 0c1.1218 0 2.0312 0.90981 2.0312 2.0312 0 1.1214-0.90952 2.0312-2.0312 2.0312-1.1209 0-2.0313-0.90982-2.0312-2.0312 0-1.1214 0.91028-2.0312 2.0312-2.0312zm-48 8.4062c-1.9871 0-3.625 1.6373-3.625 3.625 4e-5 1.9877 1.6379 3.625 3.625 3.625 1.9873 0 3.625-1.6381 3.625-3.625-1.4e-4 -1.9868-1.6377-3.625-3.625-3.625zm26 0c-1.9873 0-3.625 1.6381-3.625 3.625-1.4e-4 1.9871 1.6377 3.625 3.625 3.625 1.9871 0 3.625-1.6373 3.625-3.625-1.4e-4 -1.9875-1.6378-3.625-3.625-3.625zm26 0c-1.9871 0-3.625 1.6373-3.625 3.625-1.4e-4 1.9879 1.6379 3.625 3.625 3.625 1.9873 0 3.625-1.638 3.625-3.625-1.4e-4 -1.9868-1.6377-3.625-3.625-3.625zm-52 1.5938c1.1218 0 2.0312 0.90983 2.0312 2.0312 0 1.1214-0.90942 2.0312-2.0312 2.0312-1.1209 0-2.0312-0.90981-2.0312-2.0312 0-1.1214 0.91028-2.0312 2.0312-2.0312zm26 0c1.121 0 2.0312 0.90983 2.0312 2.0312 0 1.1214-0.91032 2.0312-2.0312 2.0312-1.1217 0-2.0313-0.90981-2.0312-2.0312 0-1.1214 0.90948-2.0312 2.0312-2.0312zm26 0c1.1218 0 2.0312 0.90983 2.0312 2.0312 0 1.1214-0.90952 2.0312-2.0312 2.0312-1.1209 0-2.0313-0.90982-2.0312-2.0312 0-1.1214 0.91028-2.0312 2.0312-2.0312zm-56 8.4062c-1.9871 0-3.625 1.6373-3.625 3.625 4e-5 1.9877 1.6379 3.625 3.625 3.625 1.9873 0 3.625-1.6381 3.625-3.625 4e-5 -1.9869-1.6377-3.625-3.625-3.625zm30 0c-1.9873 0-3.625 1.6381-3.625 3.625-1.4e-4 1.9871 1.6377 3.625 3.625 3.625 1.9871 0 3.625-1.6373 3.625-3.625-1.4e-4 -1.9875-1.6379-3.625-3.625-3.625zm30 0c-1.9871 0-3.625 1.6373-3.625 3.625-1.4e-4 1.9879 1.6379 3.625 3.625 3.625 1.9873 0 3.625-1.638 3.625-3.625-1.4e-4 -1.9868-1.6377-3.625-3.625-3.625zm-60 1.5938c1.1218 0 2.0313 0.90981 2.0312 2.0312 0 1.1214-0.90942 2.0312-2.0312 2.0312-1.1209 0-2.0312-0.90981-2.0312-2.0312 0-1.1214 0.91028-2.0312 2.0312-2.0312zm30 0c1.121 0 2.0312 0.90981 2.0312 2.0312 0 1.1214-0.91032 2.0312-2.0312 2.0312-1.1217 0-2.0313-0.90981-2.0312-2.0312 0-1.1214 0.90948-2.0312 2.0312-2.0312zm30 0c1.1218 0 2.0312 0.90981 2.0312 2.0312 0 1.1214-0.90952 2.0312-2.0312 2.0312-1.1209 0-2.0313-0.90982-2.0312-2.0312 0-1.1214 0.91028-2.0312 2.0312-2.0312zm-64 8.4062c-1.9872 0-3.625 1.6377-3.625 3.625 4e-5 1.9872 1.6378 3.625 3.625 3.625 1.9872 0 3.625-1.6378 3.625-3.625 4e-5 -1.9873-1.6378-3.625-3.625-3.625zm34 0c-1.9873 0-3.625 1.6381-3.625 3.625-1.4e-4 1.9871 1.6377 3.625 3.625 3.625 1.9871 0 3.625-1.6373 3.625-3.625-1.4e-4 -1.9875-1.6379-3.625-3.625-3.625zm34 0c-1.9872 0-3.625 1.6377-3.625 3.625-1.4e-4 1.9874 1.6378 3.625 3.625 3.625 1.9872 0 3.625-1.6378 3.625-3.625-1.4e-4 -1.987-1.6378-3.625-3.625-3.625zm-68 1.5938c1.1214 0 2.0313 0.90981 2.0312 2.0312 0 1.1214-0.90982 2.0312-2.0312 2.0312-1.1214 0-2.0312-0.90981-2.0312-2.0312 0-1.1214 0.90988-2.0312 2.0312-2.0312zm34 0c1.121 0 2.0312 0.90981 2.0312 2.0312 0 1.1214-0.91032 2.0312-2.0312 2.0312-1.1217 0-2.0313-0.90982-2.0312-2.0312 0-1.1214 0.90948-2.0312 2.0312-2.0312zm34 0c1.1215 0 2.0312 0.90981 2.0312 2.0312 0 1.1214-0.90982 2.0312-2.0312 2.0312-1.1214 0-2.0313-0.90982-2.0312-2.0312 0-1.1214 0.90988-2.0312 2.0312-2.0312zm-72 8.4062c-1.9872 0-3.625 1.6377-3.625 3.625 4e-5 1.9872 1.6378 3.625 3.625 3.625 1.9873 0 3.625-1.6378 3.625-3.625 4e-5 -1.9873-1.6378-3.625-3.625-3.625zm38 0c-1.9872-4e-5 -3.625 1.6377-3.625 3.625-1.4e-4 1.9874 1.6378 3.625 3.625 3.625 1.9872-4e-5 3.625-1.6378 3.625-3.625-1.4e-4 -1.9871-1.6378-3.625-3.625-3.625zm38 0c-1.9872-4e-5 -3.625 1.6377-3.625 3.625-1.4e-4 1.9874 1.6378 3.625 3.625 3.625 1.9872-4e-5 3.625-1.6378 3.625-3.625-1.4e-4 -1.987-1.6378-3.625-3.625-3.625zm-76 1.5938c1.1214 0 2.0313 0.90981 2.0312 2.0312 0 1.1214-0.90972 2.0312-2.0312 2.0312-1.1214 0-2.0312-0.90981-2.0312-2.0312 0-1.1214 0.90988-2.0312 2.0312-2.0312zm38 0c1.1214 0 2.0312 0.90979 2.0312 2.0312 0 1.1214-0.90982 2.0312-2.0312 2.0312-1.1214 0-2.0313-0.90983-2.0312-2.0312 0-1.1214 0.90988-2.0313 2.0312-2.0312zm38 0c1.1215 0 2.0312 0.90979 2.0312 2.0312 0 1.1214-0.90982 2.0312-2.0312 2.0312-1.1214 0-2.0313-0.90984-2.0312-2.0312 0-1.1214 0.90988-2.0313 2.0312-2.0312zm-80 8.4062c-1.9872 0-3.625 1.6377-3.625 3.625 4e-5 1.9872 1.6378 3.625 3.625 3.625 1.9873 0 3.625-1.6378 3.625-3.625 4e-5 -1.9873-1.6378-3.625-3.625-3.625zm42 0c-1.9872 2e-5 -3.625 1.6377-3.625 3.625 4e-5 1.9872 1.6378 3.625 3.625 3.625 1.9872 0 3.625-1.6378 3.625-3.625 4e-5 -1.9873-1.6378-3.625-3.625-3.625zm42 0c-1.9872 4e-5 -3.625 1.6377-3.625 3.625-1.4e-4 1.9874 1.6378 3.625 3.625 3.625 1.9872 0 3.625-1.6378 3.625-3.625-1.4e-4 -1.987-1.6377-3.625-3.625-3.625zm-84 1.5938c1.1214 0 2.0313 0.90981 2.0312 2.0312 0 1.1214-0.90972 2.0312-2.0312 2.0312-1.1214 0-2.0312-0.90981-2.0312-2.0312 0-1.1214 0.90988-2.0312 2.0312-2.0312zm42 0c1.1214 0 2.0313 0.90982 2.0312 2.0312 0 1.1214-0.90982 2.0312-2.0312 2.0312-1.1214 0-2.0312-0.9098-2.0312-2.0312 0-1.1214 0.90988-2.0312 2.0312-2.0312zm42 0c1.1215 0 2.0312 0.90983 2.0312 2.0312 0 1.1214-0.90982 2.0312-2.0312 2.0312-1.1214 0-2.0313-0.9098-2.0312-2.0312 0-1.1214 0.90988-2.0312 2.0312-2.0312zm-88 8.4062c-1.9872 0-3.625 1.6377-3.625 3.625 4e-5 1.9872 1.6378 3.625 3.625 3.625 1.9873 0 3.625-1.6378 3.625-3.625 4e-5 -1.9873-1.6378-3.625-3.625-3.625zm46 0c-1.9872 0-3.625 1.6377-3.625 3.625 4e-5 1.9872 1.6378 3.625 3.625 3.625 1.9872 0 3.625-1.6378 3.625-3.625 4e-5 -1.9873-1.6378-3.625-3.625-3.625zm46 0c-1.9872 0-3.625 1.6377-3.625 3.625-1.4e-4 1.9874 1.6378 3.625 3.625 3.625 1.9872 0 3.625-1.6378 3.625-3.625-1.4e-4 -1.987-1.6378-3.625-3.625-3.625zm-92 1.5938c1.1214 0 2.0313 0.90981 2.0312 2.0312 0 1.1214-0.90972 2.0312-2.0312 2.0312-1.1214 0-2.0312-0.90981-2.0312-2.0312 0-1.1214 0.90988-2.0312 2.0312-2.0312zm46 0c1.1214 0 2.0313 0.90981 2.0312 2.0312 0 1.1214-0.90982 2.0312-2.0312 2.0312-1.1214 0-2.0312-0.90981-2.0312-2.0312 0-1.1214 0.90988-2.0312 2.0312-2.0312zm46 0c1.1215 0 2.0312 0.90981 2.0312 2.0312 0 1.1214-0.90982 2.0312-2.0312 2.0312-1.1214 0-2.0313-0.90982-2.0312-2.0312 0-1.1214 0.90988-2.0312 2.0312-2.0312zm-96 8.4062c-1.9872 0-3.625 1.6377-3.625 3.625 4e-5 1.9872 1.6378 3.625 3.625 3.625 1.9873 0 3.625-1.6378 3.625-3.625 4e-5 -1.9873-1.6378-3.625-3.625-3.625zm50 0c-1.9872 0-3.625 1.6377-3.625 3.625 4e-5 1.9872 1.6378 3.625 3.625 3.625 1.9872 0 3.625-1.6378 3.625-3.625 4e-5 -1.9873-1.6378-3.625-3.625-3.625zm50 0c-1.9872 0-3.625 1.6377-3.625 3.625-1.4e-4 1.9874 1.6378 3.625 3.625 3.625 1.9872 0 3.625-1.6378 3.625-3.625-1e-4 -1.987-1.6378-3.625-3.625-3.625zm-100 1.5938c1.1214 0 2.0313 0.90981 2.0312 2.0312 0 1.1214-0.90972 2.0312-2.0312 2.0312-1.1214 0-2.0312-0.90981-2.0312-2.0312 0-1.1214 0.90988-2.0312 2.0312-2.0312zm50 0c1.1214 0 2.0313 0.90981 2.0312 2.0312 0 1.1214-0.90982 2.0312-2.0312 2.0312-1.1214 0-2.0312-0.90981-2.0312-2.0312 0-1.1214 0.90988-2.0312 2.0312-2.0312zm50 0c1.1215 0 2.0312 0.90981 2.0312 2.0312 0 1.1214-0.90982 2.0312-2.0312 2.0312-1.1214 0-2.0313-0.90982-2.0312-2.0312 0-1.1214 0.90988-2.0312 2.0312-2.0312zm-104 8.4062c-1.9872 0-3.625 1.6377-3.625 3.625 4e-5 1.9872 1.6378 3.625 3.625 3.625 1.9873 0 3.625-1.6378 3.625-3.625 4e-5 -1.9873-1.6378-3.625-3.625-3.625zm54 0c-1.9872 0-3.625 1.6377-3.625 3.625 4e-5 1.9872 1.6378 3.625 3.625 3.625 1.9872-2e-5 3.625-1.6378 3.625-3.625 4e-5 -1.9873-1.6378-3.625-3.625-3.625zm54 0c-1.9872 0-3.625 1.6377-3.625 3.625-1.4e-4 1.9874 1.6378 3.625 3.625 3.625 1.9872-4e-5 3.625-1.6378 3.625-3.625 0-1.9872-1.6378-3.625-3.625-3.625zm-108 1.5938c1.1214 0 2.0313 0.90981 2.0312 2.0312 0 1.1214-0.90972 2.0312-2.0312 2.0312-1.1214 0-2.0312-0.90981-2.0312-2.0312 0-1.1214 0.90988-2.0312 2.0312-2.0312zm54 0c1.1214 0 2.0313 0.90981 2.0312 2.0312 0 1.1214-0.90982 2.0312-2.0312 2.0312-1.1214 0-2.0312-0.90982-2.0312-2.0312 0-1.1214 0.90988-2.0312 2.0312-2.0312zm54 0c1.1214 0 2.0312 0.90981 2.0312 2.0312s-0.9098 2.0312-2.0312 2.0312c-1.1214 0-2.0313-0.90984-2.0312-2.0312 0-1.1214 0.90985-2.0312 2.0312-2.0312zm-112 8.4062c-1.9872 0-3.625 1.6377-3.625 3.625 4e-5 1.9872 1.6378 3.625 3.625 3.625 1.9873 0 3.625-1.6378 3.625-3.625 4e-5 -1.9873-1.6378-3.625-3.625-3.625zm58 0c-1.9872 2e-5 -3.625 1.6377-3.625 3.625 4e-5 1.9872 1.6378 3.625 3.625 3.625 1.9873 2e-5 3.625-1.6378 3.625-3.625 4e-5 -1.9873-1.6378-3.625-3.625-3.625zm58 0c-1.9872 4e-5 -3.625 1.6378-3.625 3.625-2e-4 1.9874 1.6378 3.625 3.625 3.625 1.9873 4e-5 3.625-1.6378 3.625-3.625 0-1.9872-1.6378-3.625-3.625-3.625zm-116 1.5938c1.1214 0 2.0313 0.90981 2.0312 2.0312 0 1.1214-0.90972 2.0312-2.0312 2.0312-1.1214 0-2.0312-0.90981-2.0312-2.0312 0-1.1214 0.90988-2.0312 2.0312-2.0312zm58 0c1.1214 0 2.0313 0.90982 2.0312 2.0312 0 1.1214-0.90982 2.0313-2.0312 2.0312-1.1214 0-2.0312-0.9098-2.0312-2.0312 0-1.1214 0.90988-2.0312 2.0312-2.0312zm58 0c1.1214 0 2.0312 0.90983 2.0312 2.0312 0 1.1214-0.9098 2.0313-2.0312 2.0312-1.1214 0-2.0313-0.9098-2.0312-2.0312 0-1.1214 0.9098-2.0312 2.0312-2.0312zm-120 8.4062c-1.9872 0-3.625 1.6377-3.625 3.625 4e-5 1.9872 1.6378 3.625 3.625 3.625 1.9873 0 3.625-1.6378 3.625-3.625 4e-5 -1.9873-1.6378-3.625-3.625-3.625zm62 0c-1.9872 0-3.625 1.6377-3.625 3.625 4e-5 1.9872 1.6378 3.625 3.625 3.625 1.9872 0 3.625-1.6378 3.625-3.625 4e-5 -1.9873-1.6378-3.625-3.625-3.625zm62 0c-1.9872 0-3.625 1.6378-3.625 3.625-2e-4 1.9874 1.6378 3.625 3.625 3.625s3.625-1.6378 3.625-3.625c0-1.9872-1.6378-3.625-3.625-3.625zm-124 1.5938c1.1214 0 2.0313 0.90981 2.0312 2.0312 0 1.1214-0.90972 2.0312-2.0312 2.0312-1.1214 0-2.0312-0.90981-2.0312-2.0312 0-1.1214 0.90988-2.0312 2.0312-2.0312zm62 0c1.1214 0 2.0313 0.90981 2.0312 2.0312 0 1.1214-0.90982 2.0312-2.0312 2.0312-1.1214 0-2.0312-0.90981-2.0312-2.0312 0-1.1214 0.90988-2.0312 2.0312-2.0312zm62 0c1.1214 0 2.0312 0.90981 2.0312 2.0312s-0.9098 2.0312-2.0312 2.0312-2.0313-0.90982-2.0312-2.0312c0-1.1214 0.9098-2.0312 2.0312-2.0312zm-128 8.4062c-1.9872 0-3.625 1.6377-3.625 3.625 4e-5 1.9872 1.6378 3.625 3.625 3.625 1.9873 0 3.625-1.6378 3.625-3.625 4e-5 -1.9873-1.6378-3.625-3.625-3.625zm66 0c-1.9872 0-3.625 1.6377-3.625 3.625 4e-5 1.9872 1.6378 3.625 3.625 3.625 1.9872 0 3.625-1.6378 3.625-3.625 4e-5 -1.9873-1.6378-3.625-3.625-3.625zm66 0c-1.9872 0-3.625 1.6378-3.625 3.625-2e-4 1.9874 1.6378 3.625 3.625 3.625s3.625-1.6378 3.625-3.625c0-1.9872-1.6378-3.625-3.625-3.625zm-132 1.5938c1.1214 0 2.0313 0.90981 2.0312 2.0312 0 1.1214-0.90972 2.0312-2.0312 2.0312-1.1214 0-2.0312-0.90981-2.0312-2.0312 0-1.1214 0.90988-2.0312 2.0312-2.0312zm66 0c1.1214 0 2.0313 0.90981 2.0312 2.0312 0 1.1214-0.90982 2.0312-2.0312 2.0312-1.1214 0-2.0312-0.90981-2.0312-2.0312 0-1.1214 0.90988-2.0312 2.0312-2.0312zm66 0c1.1214 0 2.0312 0.90981 2.0312 2.0312s-0.9098 2.0312-2.0312 2.0312-2.0313-0.90982-2.0312-2.0312c0-1.1214 0.9098-2.0312 2.0312-2.0312zm-136 8.4062c-1.9872 0-3.625 1.6377-3.625 3.625 4e-5 1.9872 1.6378 3.625 3.625 3.625 1.9873 0 3.625-1.6378 3.625-3.625 4e-5 -1.9873-1.6378-3.625-3.625-3.625zm70 0c-1.9872 0-3.625 1.6377-3.625 3.625 4e-5 1.9872 1.6378 3.625 3.625 3.625 1.9872 0 3.625-1.6378 3.625-3.625 4e-5 -1.9873-1.6378-3.625-3.625-3.625zm70 0c-1.9872 0-3.625 1.6378-3.625 3.625-2e-4 1.9874 1.6378 3.625 3.625 3.625s3.625-1.6378 3.625-3.625c0-1.9872-1.6378-3.625-3.625-3.625zm-140 1.5938c1.1214 0 2.0313 0.90981 2.0312 2.0312 0 1.1214-0.90972 2.0312-2.0312 2.0312-1.1214 0-2.0312-0.90981-2.0312-2.0312 0-1.1214 0.90988-2.0312 2.0312-2.0312zm70 0c1.1214 0 2.0313 0.90981 2.0312 2.0312 0 1.1214-0.90982 2.0312-2.0312 2.0312-1.1214 0-2.0312-0.90981-2.0312-2.0312 0-1.1214 0.90988-2.0312 2.0312-2.0312zm70 0c1.1214 0 2.0312 0.90981 2.0312 2.0312s-0.9098 2.0312-2.0312 2.0312-2.0313-0.90982-2.0312-2.0312c0-1.1214 0.9098-2.0312 2.0312-2.0312zm-144 8.4062c-1.9872 0-3.625 1.6377-3.625 3.625 4e-5 1.9872 1.6378 3.625 3.625 3.625 1.9873 0 3.625-1.6378 3.625-3.625 4e-5 -1.9873-1.6378-3.625-3.625-3.625zm74 0c-1.9872-2e-5 -3.625 1.6377-3.625 3.625 4e-5 1.9872 1.6378 3.625 3.625 3.625 1.9873 2e-5 3.625-1.6378 3.625-3.625 4e-5 -1.9873-1.6378-3.625-3.625-3.625zm74 0c-1.9873-4e-5 -3.625 1.6378-3.625 3.625-2e-4 1.9874 1.6378 3.625 3.625 3.625 1.9873 4e-5 3.625-1.6378 3.625-3.625 0-1.9872-1.6378-3.625-3.625-3.625zm-148 1.5938c1.1214 0 2.0313 0.90981 2.0312 2.0312 0 1.1214-0.90972 2.0312-2.0312 2.0312-1.1214 0-2.0312-0.90981-2.0312-2.0312 0-1.1214 0.90988-2.0312 2.0312-2.0312zm74 0c1.1214 0 2.0313 0.90982 2.0312 2.0312 0 1.1214-0.90982 2.0313-2.0312 2.0312-1.1214 0-2.0312-0.9098-2.0312-2.0312 0-1.1214 0.90988-2.0313 2.0312-2.0312zm74 0c1.1214 0 2.0312 0.90983 2.0312 2.0312 0 1.1214-0.9098 2.0313-2.0312 2.0312-1.1214 0-2.0313-0.9098-2.0312-2.0312 0-1.1214 0.9098-2.0313 2.0312-2.0312zm-152 8.4062c-1.9872 0-3.625 1.6377-3.625 3.625 4e-5 1.9872 1.6378 3.625 3.625 3.625 1.9873 0 3.625-1.6378 3.625-3.625 4e-5 -1.9873-1.6378-3.625-3.625-3.625zm78 0c-1.9872 0-3.625 1.6377-3.625 3.625 4e-5 1.9872 1.6378 3.625 3.625 3.625 1.9872 0 3.625-1.6378 3.625-3.625 4e-5 -1.9873-1.6378-3.625-3.625-3.625zm78 0c-1.9872 0-3.625 1.6378-3.625 3.625-2e-4 1.9874 1.6378 3.625 3.625 3.625s3.625-1.6378 3.625-3.625c4e-4 -1.9877-1.6378-3.625-3.625-3.625zm-156 1.5938c1.1214 0 2.0313 0.90981 2.0312 2.0312 0 1.1214-0.90972 2.0312-2.0312 2.0312-1.1214 0-2.0312-0.90981-2.0312-2.0312 0-1.1214 0.90988-2.0312 2.0312-2.0312zm78 0c1.1214 0 2.0313 0.90981 2.0312 2.0312 0 1.1214-0.90982 2.0312-2.0312 2.0312-1.1214 0-2.0312-0.90981-2.0312-2.0312 0-1.1214 0.90988-2.0312 2.0312-2.0312zm78 0c1.1214 0 2.0315 0.90981 2.0312 2.0312 0 1.1214-0.9098 2.0312-2.0312 2.0312s-2.0313-0.90982-2.0312-2.0312c0-1.1214 0.9098-2.0312 2.0312-2.0312zm-160 8.4062c-1.9872 0-3.625 1.6377-3.625 3.625 4e-5 1.9872 1.6378 3.625 3.625 3.625 1.9873 0 3.625-1.6378 3.625-3.625 4e-5 -1.9873-1.6378-3.625-3.625-3.625zm82 0c-1.9872 0-3.625 1.6377-3.625 3.625 4e-5 1.9872 1.6378 3.625 3.625 3.625 1.9872 0 3.625-1.6378 3.625-3.625 4e-5 -1.9873-1.6378-3.625-3.625-3.625zm82 0c-1.9872 0-3.625 1.6378-3.625 3.625 1e-4 1.9871 1.6378 3.625 3.625 3.625s3.625-1.6378 3.625-3.625c4e-4 -1.9877-1.6378-3.625-3.625-3.625zm-164 1.5938c1.1214 0 2.0313 0.90981 2.0312 2.0312 0 1.1214-0.90972 2.0312-2.0312 2.0312-1.1214 0-2.0312-0.90981-2.0312-2.0312 0-1.1214 0.90988-2.0312 2.0312-2.0312zm82 0c1.1214 0 2.0313 0.90981 2.0312 2.0312 0 1.1214-0.90982 2.0312-2.0312 2.0312-1.1214 0-2.0312-0.90981-2.0312-2.0312 0-1.1214 0.90988-2.0312 2.0312-2.0312zm82 0c1.1214 0 2.0315 0.90981 2.0312 2.0312 0 1.1214-0.9098 2.0312-2.0312 2.0312s-2.0312-0.90982-2.0312-2.0312c0-1.1214 0.9098-2.0312 2.0312-2.0312zm-168 8.4062c-1.9872 0-3.625 1.6377-3.625 3.625 4e-5 1.9872 1.6378 3.625 3.625 3.625 1.9873 0 3.625-1.6378 3.625-3.625 4e-5 -1.9873-1.6378-3.625-3.625-3.625zm86 0c-1.9872 0-3.625 1.6377-3.625 3.625 4e-5 1.9872 1.6378 3.625 3.625 3.625 1.9872 0 3.625-1.6378 3.625-3.625 4e-5 -1.9873-1.6378-3.625-3.625-3.625zm86 0c-1.9872 0-3.625 1.6378-3.625 3.625 1e-4 1.9871 1.6378 3.625 3.625 3.625s3.625-1.6378 3.625-3.625c4e-4 -1.9877-1.6378-3.625-3.625-3.625zm-172 1.5938c1.1214 0 2.0313 0.90981 2.0312 2.0312 0 1.1214-0.90972 2.0312-2.0312 2.0312-1.1214 0-2.0312-0.90981-2.0312-2.0312 0-1.1214 0.90988-2.0312 2.0312-2.0312zm86 0c1.1214 0 2.0313 0.90981 2.0312 2.0312 0 1.1214-0.90982 2.0312-2.0312 2.0312-1.1214 0-2.0312-0.90981-2.0312-2.0312 0-1.1214 0.90988-2.0312 2.0312-2.0312zm86 0c1.1214 0 2.0315 0.90981 2.0312 2.0312 0 1.1214-0.9098 2.0312-2.0312 2.0312s-2.0312-0.90982-2.0312-2.0312c0-1.1214 0.9098-2.0312 2.0312-2.0312z" fill="url(#o)" filter="url(#u)" opacity=".6"/><g clip-path="url(#ag)"><g transform="translate(400)"><rect transform="matrix(1.1875 0 0 .625 372.25 116)" x="60" y="244" width="176" height="12" rx="30.842" ry="6" filter="url(#af)" opacity=".3"/><rect transform="matrix(.88797 0 0 .18573 434.71 228.96)" x="22.995" y="223.44" width="211" height="18.114" rx="4.9924" ry="9.0572" fill-rule="evenodd" filter="url(#ae)" opacity=".8"/><path transform="matrix(.98925 0 0 1.0129 401.72 .5305)" d="m55.872 47.328c-0.56266 0-1 0.43734-1 1l-1.0109 217c0 0.56266 0.43734 1 1 1h186.02c0.56266 0 1-0.43734 1-1l-1.0109-171c0-13.558-10.858-25.296-16.281-30.719-5.4231-5.4231-17.161-16.281-30.719-16.281z" fill="url(#t)" fill-rule="evenodd" filter="url(#w)" opacity=".7"/><g transform="matrix(.98925 0 0 1.0232 401.72 .044255)"><g transform="translate(19.872 27.828)"><path d="m36 19c-0.56266 0-1 0.43734-1 1v217c0 0.56266 0.43734 1 1 1h184c0.56266 0 1-0.43734 1-1v-171c0-13.558-10.858-25.296-16.281-30.719-5.4231-5.4231-17.161-16.281-30.719-16.281z" fill="url(#m)"/><path d="m36.591 19.704c-0.55904 0-0.99357 0.43453-0.99357 0.99357v215.61c0 0.55904 0.43453 0.99357 0.99357 0.99357h182.82c0.55904 0 0.99357-0.43453 0.99357-0.99357v-169.9c0-13.471-10.788-25.133-16.177-30.521-5.3882-5.3882-17.051-16.177-30.521-16.177z" fill="none" stroke="url(#l)" stroke-dashoffset=".7" stroke-linecap="round" stroke-width=".99397"/><path d="m36 19c-0.56266 0-1 0.43734-1 1v217c0 0.56266 0.43734 1 1 1h184c0.56266 0 1-0.43734 1-1v-171c0-13.558-10.858-25.296-16.281-30.719-5.4231-5.4231-17.161-16.281-30.719-16.281z" clip-path="url(#ah)" fill="none" filter="url(#ac)" opacity=".072289" stroke="#000" stroke-dashoffset=".7" stroke-linecap="round" stroke-width=".99397"/><path d="m36.625 19.875c-0.56266 0-1 0.43734-1 1v217c0 0.56266 0.43734 1 1 1v-217c0-0.56266 0.43734-1 1-1h138c11.863 0 22.341 8.3199 28.406 14.031-5.8462-5.6773-16.801-15.031-29.406-15.031z" fill="url(#k)" fill-rule="evenodd"/><rect x="35.5" y="186.25" width="184.5" height="51.25" rx="1.0156" ry="1.0156" fill="url(#j)" fill-rule="evenodd" opacity=".56024"/></g><path d="m55.875 46.812c-0.56266-1e-6 -1 0.43734-1 1v88.188h186v-42.188c-1e-5 -13.558-10.858-25.296-16.281-30.719-5.4231-5.4231-17.161-16.281-30.719-16.281z" fill="url(#i)"/><rect x="55.372" y="263.83" width="184.5" height="1.5" rx="1.0156" ry="1.0156" fill="url(#h)" fill-rule="evenodd"/></g></g><g transform="translate(0,-600)" fill-rule="evenodd"><path d="m946.32 648.64 93.107 222.51v-176.35c0.062-17.869-29.248-45.869-44.937-45.971l-48.17-0.19607v1e-5z" fill="url(#q)"/><path d="m946.52 649.16-89.192 221.94-0.49892-221.94h89.692-1e-3z" fill="url(#p)"/></g><g transform="translate(0,-600)" filter="url(#v)"><g transform="matrix(7.7899 0 0 8.0232 -8355.7 173.86)"><circle transform="matrix(.49649 0 0 .47258 726.15 36.004)" cx="942.77" cy="50.078" r=".67188" fill="#fff"/></g><g transform="matrix(7.7899 0 0 8.0232 -8355.7 194.05)"><circle transform="matrix(.49649 0 0 .47258 726.15 36.004)" cx="942.77" cy="50.078" r=".67188" fill="#fff"/></g><g transform="matrix(7.7899 0 0 8.0232 -8365.7 194.05)"><circle transform="matrix(.49649 0 0 .47258 726.15 36.004)" cx="942.77" cy="50.078" r=".67188" fill="#fff"/></g><g transform="matrix(7.7899 0 0 8.0232 -8355.7 214.05)"><circle transform="matrix(.49649 0 0 .47258 726.15 36.004)" cx="942.77" cy="50.078" r=".67188" fill="#fff"/></g><g transform="matrix(7.7899 0 0 8.0232 -8373.7 214.05)"><circle transform="matrix(.49649 0 0 .47258 726.15 36.004)" cx="942.77" cy="50.078" r=".67188" fill="#fff"/></g><g transform="matrix(7.7899 0 0 8.0232 -8355.7 234.05)"><circle transform="matrix(.49649 0 0 .47258 726.15 36.004)" cx="942.77" cy="50.078" r=".67188" fill="#fff"/></g><g transform="matrix(7.7899 0 0 8.0232 -8381.7 234.05)"><circle transform="matrix(.49649 0 0 .47258 726.15 36.004)" cx="942.77" cy="50.078" r=".67188" fill="#fff"/></g><g transform="matrix(7.7899 0 0 8.0232 -8355.7 254.05)"><circle transform="matrix(.49649 0 0 .47258 726.15 36.004)" cx="942.77" cy="50.078" r=".67188" fill="#fff"/></g><g transform="matrix(7.7899 0 0 8.0232 -8389.7 254.05)"><circle transform="matrix(.49649 0 0 .47258 726.15 36.004)" cx="942.77" cy="50.078" r=".67188" fill="#fff"/></g><g transform="matrix(7.7899 0 0 8.0232 -8355.7 274.05)"><circle transform="matrix(.49649 0 0 .47258 726.15 36.004)" cx="942.77" cy="50.078" r=".67188" fill="#fff"/></g><g transform="matrix(7.7899 0 0 8.0232 -8397.7 274.05)"><circle transform="matrix(.49649 0 0 .47258 726.15 36.004)" cx="942.77" cy="50.078" r=".67188" fill="#fff"/></g><g transform="matrix(7.7899 0 0 8.0232 -8355.7 294.05)"><circle transform="matrix(.49649 0 0 .47258 726.15 36.004)" cx="942.77" cy="50.078" r=".67188" fill="#fff"/></g><g transform="matrix(7.7899 0 0 8.0232 -8405.7 294.05)"><circle transform="matrix(.49649 0 0 .47258 726.15 36.004)" cx="942.77" cy="50.078" r=".67188" fill="#fff"/></g><g transform="matrix(7.7899 0 0 8.0232 -8355.7 314.05)"><circle transform="matrix(.49649 0 0 .47258 726.15 36.004)" cx="942.77" cy="50.078" r=".67188" fill="#fff"/></g><g transform="matrix(7.7899 0 0 8.0232 -8413.7 314.05)"><circle transform="matrix(.49649 0 0 .47258 726.15 36.004)" cx="942.77" cy="50.078" r=".67188" fill="#fff"/></g><g transform="matrix(7.7899 0 0 8.0232 -8355.7 334.05)"><circle transform="matrix(.49649 0 0 .47258 726.15 36.004)" cx="942.77" cy="50.078" r=".67188" fill="#fff"/></g><g transform="matrix(7.7899 0 0 8.0232 -8421.7 334.05)"><circle transform="matrix(.49649 0 0 .47258 726.15 36.004)" cx="942.77" cy="50.078" r=".67188" fill="#fff"/></g><g transform="matrix(7.7899 0 0 8.0232 -8355.7 354.05)"><circle transform="matrix(.49649 0 0 .47258 726.15 36.004)" cx="942.77" cy="50.078" r=".67188" fill="#fff"/></g><g transform="matrix(7.7899 0 0 8.0232 -8429.7 354.05)"><circle transform="matrix(.49649 0 0 .47258 726.15 36.004)" cx="942.77" cy="50.078" r=".67188" fill="#fff"/></g><g transform="matrix(7.7899 0 0 8.0232 -8355.7 374.05)"><circle transform="matrix(.49649 0 0 .47258 726.15 36.004)" cx="942.77" cy="50.078" r=".67188" fill="#fff"/></g><g transform="matrix(7.7899 0 0 8.0232 -8437.7 374.05)"><circle transform="matrix(.49649 0 0 .47258 726.15 36.004)" cx="942.77" cy="50.078" r=".67188" fill="#fff"/></g><g transform="matrix(-7.7899 0 0 8.0232 10260 194.05)"><circle transform="matrix(.49649 0 0 .47258 726.15 36.004)" cx="942.77" cy="50.078" r=".67188" fill="#fff"/></g><g transform="matrix(-7.7899 0 0 8.0232 10268 214.05)"><circle transform="matrix(.49649 0 0 .47258 726.15 36.004)" cx="942.77" cy="50.078" r=".67188" fill="#fff"/></g><g transform="matrix(-7.7899 0 0 8.0232 10276 234.05)"><circle transform="matrix(.49649 0 0 .47258 726.15 36.004)" cx="942.77" cy="50.078" r=".67188" fill="#fff"/></g><g transform="matrix(-7.7899 0 0 8.0232 10284 254.05)"><circle transform="matrix(.49649 0 0 .47258 726.15 36.004)" cx="942.77" cy="50.078" r=".67188" fill="#fff"/></g><g transform="matrix(-7.7899 0 0 8.0232 10292 274.05)"><circle transform="matrix(.49649 0 0 .47258 726.15 36.004)" cx="942.77" cy="50.078" r=".67188" fill="#fff"/></g><g transform="matrix(-7.7899 0 0 8.0232 10300 294.05)"><circle transform="matrix(.49649 0 0 .47258 726.15 36.004)" cx="942.77" cy="50.078" r=".67188" fill="#fff"/></g><g transform="matrix(-7.7899 0 0 8.0232 10308 314.05)"><circle transform="matrix(.49649 0 0 .47258 726.15 36.004)" cx="942.77" cy="50.078" r=".67188" fill="#fff"/></g><g transform="matrix(-7.7899 0 0 8.0232 10316 334.05)"><circle transform="matrix(.49649 0 0 .47258 726.15 36.004)" cx="942.77" cy="50.078" r=".67188" fill="#fff"/></g><g transform="matrix(-7.7899 0 0 8.0232 10324 354.05)"><circle transform="matrix(.49649 0 0 .47258 726.15 36.004)" cx="942.77" cy="50.078" r=".67188" fill="#fff"/></g><g transform="matrix(-7.7899 0 0 8.0232 10332 374.05)"><circle transform="matrix(.49649 0 0 .47258 726.15 36.004)" cx="942.77" cy="50.078" r=".67188" fill="#fff"/></g><g transform="matrix(7.7899 0 0 8.0232 -8355.7 184.05)"><circle transform="matrix(.49649 0 0 .47258 726.15 36.004)" cx="942.77" cy="50.078" r=".67188" fill="#fff"/></g><g transform="matrix(7.7899 0 0 8.0232 -8355.7 204.05)"><circle transform="matrix(.49649 0 0 .47258 726.15 36.004)" cx="942.77" cy="50.078" r=".67188" fill="#fff"/></g><g transform="matrix(7.7899 0 0 8.0232 -8355.7 224.05)"><circle transform="matrix(.49649 0 0 .47258 726.15 36.004)" cx="942.77" cy="50.078" r=".67188" fill="#fff"/></g><g transform="matrix(7.7899 0 0 8.0232 -8355.7 244.05)"><circle transform="matrix(.49649 0 0 .47258 726.15 36.004)" cx="942.77" cy="50.078" r=".67188" fill="#fff"/></g><g transform="matrix(7.7899 0 0 8.0232 -8355.7 264.05)"><circle transform="matrix(.49649 0 0 .47258 726.15 36.004)" cx="942.77" cy="50.078" r=".67188" fill="#fff"/></g><g transform="matrix(7.7899 0 0 8.0232 -8355.7 284.05)"><circle transform="matrix(.49649 0 0 .47258 726.15 36.004)" cx="942.77" cy="50.078" r=".67188" fill="#fff"/></g><g transform="matrix(7.7899 0 0 8.0232 -8355.7 304.05)"><circle transform="matrix(.49649 0 0 .47258 726.15 36.004)" cx="942.77" cy="50.078" r=".67188" fill="#fff"/></g><g transform="matrix(7.7899 0 0 8.0232 -8355.7 324.05)"><circle transform="matrix(.49649 0 0 .47258 726.15 36.004)" cx="942.77" cy="50.078" r=".67188" fill="#fff"/></g><g transform="matrix(7.7899 0 0 8.0232 -8355.7 344.05)"><circle transform="matrix(.49649 0 0 .47258 726.15 36.004)" cx="942.77" cy="50.078" r=".67188" fill="#fff"/></g><g transform="matrix(7.7899 0 0 8.0232 -8355.7 364.05)"><circle transform="matrix(.49649 0 0 .47258 726.15 36.004)" cx="942.77" cy="50.078" r=".67188" fill="#fff"/></g><g transform="matrix(7.7899 0 0 8.0232 -8355.7 384.05)"><circle transform="matrix(.49649 0 0 .47258 726.15 36.004)" cx="942.77" cy="50.078" r=".67188" fill="#fff"/></g><g transform="matrix(-7.7899 0 0 8.0232 10328 364.05)"><circle transform="matrix(.49649 0 0 .47258 726.15 36.004)" cx="942.77" cy="50.078" r=".67188" fill="#fff"/></g><g transform="matrix(-7.7899 0 0 8.0232 10256 184.05)"><circle transform="matrix(.49649 0 0 .47258 726.15 36.004)" cx="942.77" cy="50.078" r=".67188" fill="#fff"/></g><g transform="matrix(-7.7899 0 0 8.0232 10264 204.05)"><circle transform="matrix(.49649 0 0 .47258 726.15 36.004)" cx="942.77" cy="50.078" r=".67188" fill="#fff"/></g><g transform="matrix(-7.7899 0 0 8.0232 10272 224.05)"><circle transform="matrix(.49649 0 0 .47258 726.15 36.004)" cx="942.77" cy="50.078" r=".67188" fill="#fff"/></g><g transform="matrix(-7.7899 0 0 8.0232 10280 244.05)"><circle transform="matrix(.49649 0 0 .47258 726.15 36.004)" cx="942.77" cy="50.078" r=".67188" fill="#fff"/></g><g transform="matrix(-7.7899 0 0 8.0232 10288 264.05)"><circle transform="matrix(.49649 0 0 .47258 726.15 36.004)" cx="942.77" cy="50.078" r=".67188" fill="#fff"/></g><g transform="matrix(-7.7899 0 0 8.0232 10296 284.05)"><circle transform="matrix(.49649 0 0 .47258 726.15 36.004)" cx="942.77" cy="50.078" r=".67188" fill="#fff"/></g><g transform="matrix(-7.7899 0 0 8.0232 10304 304.05)"><circle transform="matrix(.49649 0 0 .47258 726.15 36.004)" cx="942.77" cy="50.078" r=".67188" fill="#fff"/></g><g transform="matrix(-7.7899 0 0 8.0232 10312 324.05)"><circle transform="matrix(.49649 0 0 .47258 726.15 36.004)" cx="942.77" cy="50.078" r=".67188" fill="#fff"/></g><g transform="matrix(-7.7899 0 0 8.0232 10320 344.05)"><circle transform="matrix(.49649 0 0 .47258 726.15 36.004)" cx="942.77" cy="50.078" r=".67188" fill="#fff"/></g><g transform="matrix(7.7899 0 0 8.0232 -8361.7 184.05)"><circle transform="matrix(.49649 0 0 .47258 726.15 36.004)" cx="942.77" cy="50.078" r=".67188" fill="#fff"/></g><g transform="matrix(7.7899 0 0 8.0232 -8369.7 204.05)"><circle transform="matrix(.49649 0 0 .47258 726.15 36.004)" cx="942.77" cy="50.078" r=".67188" fill="#fff"/></g><g transform="matrix(7.7899 0 0 8.0232 -8377.7 224.05)"><circle transform="matrix(.49649 0 0 .47258 726.15 36.004)" cx="942.77" cy="50.078" r=".67188" fill="#fff"/></g><g transform="matrix(7.7899 0 0 8.0232 -8385.7 244.05)"><circle transform="matrix(.49649 0 0 .47258 726.15 36.004)" cx="942.77" cy="50.078" r=".67188" fill="#fff"/></g><g transform="matrix(7.7899 0 0 8.0232 -8393.7 264.05)"><circle transform="matrix(.49649 0 0 .47258 726.15 36.004)" cx="942.77" cy="50.078" r=".67188" fill="#fff"/></g><g transform="matrix(7.7899 0 0 8.0232 -8401.7 284.05)"><circle transform="matrix(.49649 0 0 .47258 726.15 36.004)" cx="942.77" cy="50.078" r=".67188" fill="#fff"/></g><g transform="matrix(7.7899 0 0 8.0232 -8409.7 304.05)"><circle transform="matrix(.49649 0 0 .47258 726.15 36.004)" cx="942.77" cy="50.078" r=".67188" fill="#fff"/></g><g transform="matrix(7.7899 0 0 8.0232 -8417.7 324.05)"><circle transform="matrix(.49649 0 0 .47258 726.15 36.004)" cx="942.77" cy="50.078" r=".67188" fill="#fff"/></g><g transform="matrix(7.7899 0 0 8.0232 -8425.7 344.05)"><circle transform="matrix(.49649 0 0 .47258 726.15 36.004)" cx="942.77" cy="50.078" r=".67188" fill="#fff"/></g><g transform="matrix(7.7899 0 0 8.0232 -8433.7 364.05)"><circle transform="matrix(.49649 0 0 .47258 726.15 36.004)" cx="942.77" cy="50.078" r=".67188" fill="#fff"/></g><g transform="matrix(-7.7899 0 0 8.0232 10336 384.05)"><circle transform="matrix(.49649 0 0 .47258 726.15 36.004)" cx="942.77" cy="50.078" r=".67188" fill="#fff"/></g><g transform="matrix(7.7899 0 0 8.0232 -8441.7 384.05)"><circle transform="matrix(.49649 0 0 .47258 726.15 36.004)" cx="942.77" cy="50.078" r=".67188" fill="#fff"/></g></g></g><g transform="translate(800 3.9265)" fill-rule="evenodd"><g transform="matrix(.98925 0 0 1.0232 21.376 24.59)"><path transform="matrix(.76048 0 0 .87302 56.123 8.4826)" d="m162 24c-2.7302 0-5.4062 0.18108-8.0312 0.5625-3.1702 5.9491-4.9688 12.73-4.9688 19.938 0 23.46 19.04 42.5 42.5 42.5 9.7773 0 18.785-3.3191 25.969-8.875-0.73575-29.997-25.296-54.125-55.469-54.125z" fill="url(#g)" filter="url(#ad)" opacity=".16868"/><path transform="translate(0,50)" d="m174-31c13.558 0 22.308 11.846 27.731 17.269s19.269 16.173 19.269 29.731c0-13.558-20.111-8.6028-26.192-8.6028-0.6357 0-1.2268-0.51769-1.1502-1.1502 2.5084-20.705-6.1006-37.247-19.658-37.247z" filter="url(#ab)" mask="url(#n)" opacity=".37952"/><path d="m172.59 20.722c24.827-0.87083 48.543 30.546 47.5 47 0-13.558-7.491-16.365-29.984-16.365-0.6357 0-1.1502-0.51307-1.1502-1.1502 0-22.493-2.8077-29.484-16.365-29.484z" fill="url(#f)" filter="url(#aa)" opacity=".42771"/><path d="m171.45 22.448c13.558 0 25.308 10.846 30.731 16.269s16.269 17.173 16.269 30.731c0-13.558-6.991-16.365-29.484-16.365-0.6357 0-1.1502-0.51307-1.1502-1.1502 0-22.493-2.8077-29.484-16.365-29.484z" fill="url(#s)" filter="url(#z)" opacity=".27711"/><path d="m173.12 19.75c13.558 0 25.308 10.846 30.731 16.269s16.269 17.173 16.269 30.731c0-13.558-6.991-16.365-29.484-16.365-0.6357 0-1.1502-0.51307-1.1502-1.1502 0-22.493-2.8077-29.484-16.365-29.484z" fill="url(#e)"/><path d="m174 19c13.558 0 25.308 10.846 30.731 16.269s16.269 17.173 16.269 30.731c0-13.558-6.991-16.365-29.484-16.365-0.6357 0-1.1502-0.51307-1.1502-1.1502 0-22.493-2.8077-29.484-16.365-29.484z" fill="url(#d)"/><path d="m174.13 19.031c15.481 1.0337 16.019 13.643 16.263 26.517-0.74413-7.7303 1.374-15.978-4.2426-22.627 4.5078 1.5017 9.8111 5.7816 14.938 9.1924-5.4964-4.8666-14.015-13.001-26.958-13.081z" fill="url(#c)" filter="url(#y)"/><path d="m219.38 57.625c-3.971-8.9-17.43-7.2964-27.25-8 9.9276-0.23867 24.598-2.9842 27.25 8z" fill="url(#b)" filter="url(#x)"/></g><path transform="matrix(.98925 0 0 1.0232 21.376 24.59)" d="m174 19c13.558 0 25.308 10.846 30.731 16.269s16.269 17.173 16.269 30.731c0-13.558-6.991-16.365-29.484-16.365-0.6357 0-1.1502-0.51307-1.1502-1.1502 0-22.493-2.8077-29.484-16.365-29.484z" fill="url(#r)"/></g></g></g></svg>
