<?xml version="1.0" encoding="UTF-8"?>
<svg version="1.0" viewBox="0 0 256 256" xmlns="http://www.w3.org/2000/svg" xmlns:xlink="http://www.w3.org/1999/xlink"><defs><filter id="aa" x="-.16294" y="-2.3897" width="1.3259" height="5.7795" color-interpolation-filters="sRGB"><feGaussianBlur stdDeviation="11.948684"/></filter><filter id="z" x="-.093476" y="-1.094" width="1.187" height="3.188" color-interpolation-filters="sRGB"><feGaussianBlur stdDeviation="8.257079"/></filter><filter id="r" color-interpolation-filters="sRGB"><feGaussianBlur stdDeviation="2.43"/></filter><clipPath id="ab"><path d="m36 19c-0.56266 0-1 0.43734-1 1v217c0 0.56266 0.43734 1 1 1h184c0.56266 0 1-0.43734 1-1v-171c0-13.558-10.858-25.296-16.281-30.719-5.4231-5.4231-17.161-16.281-30.719-16.281z" fill="url(#linearGradient6013) #000000" fill-rule="evenodd"/></clipPath><filter id="x" color-interpolation-filters="sRGB"><feGaussianBlur stdDeviation="2.025"/></filter><linearGradient id="a"><stop stop-color="#fff" offset="0"/><stop stop-color="#fff" stop-opacity="0" offset="1"/></linearGradient><filter id="y" x="-.10594" y="-.11513" width="1.2119" height="1.2303" color-interpolation-filters="sRGB"><feGaussianBlur stdDeviation="3.0222701"/></filter><mask id="n" maskUnits="userSpaceOnUse"><path d="m36-31c-0.56266 0-1 0.43734-1 1v217c0 0.56266 0.43734 1 1 1h184c0.56266 0 1-0.43734 1-1v-171c0-13.558-12.858-23.296-18.281-28.719-5.4231-5.4231-15.161-18.281-28.719-18.281z" fill="#fff" fill-rule="evenodd"/></mask><filter id="w" x="-.24138" y="-.24138" width="1.4828" height="1.4828" color-interpolation-filters="sRGB"><feGaussianBlur stdDeviation="4.7270115"/></filter><filter id="v" color-interpolation-filters="sRGB"><feGaussianBlur stdDeviation="0.27169794"/></filter><filter id="u" x="-.13103" y="-.13103" width="1.2621" height="1.2621" color-interpolation-filters="sRGB"><feGaussianBlur stdDeviation="2.566092"/></filter><filter id="t" color-interpolation-filters="sRGB"><feGaussianBlur stdDeviation="0.30732727"/></filter><filter id="s" x="-.031646" y="-.10174" width="1.0633" height="1.2035" color-interpolation-filters="sRGB"><feGaussianBlur stdDeviation="0.35931052"/></filter><linearGradient id="q" x1="84" x2="-104.07" y1="200.5" y2="-127.99" gradientUnits="userSpaceOnUse"><stop offset="0"/><stop stop-opacity="0" offset="1"/></linearGradient><radialGradient id="m" cx="-80.661" cy="88.983" r="18" gradientTransform="matrix(25.306 2.1794e-6 -1.0731e-6 12.46 2199.2 -911.49)" gradientUnits="userSpaceOnUse"><stop stop-color="#fff" offset="0"/><stop stop-color="#d3d7cf" offset="1"/></radialGradient><radialGradient id="l" cx="128.59" cy="116.47" r="92.902" gradientTransform="matrix(3.5967 -.28529 .17691 2.2303 -355.12 -121.58)" gradientUnits="userSpaceOnUse"><stop stop-color="#fff" offset="0"/><stop stop-color="#fff" stop-opacity="0" offset="1"/></radialGradient><radialGradient id="k" cx="36" cy="45.297" r="84.203" gradientTransform="matrix(0 2.7411 -1.8799 0 120.78 -78.804)" gradientUnits="userSpaceOnUse"><stop stop-color="#fff" offset="0"/><stop stop-color="#fff" stop-opacity="0" offset="1"/></radialGradient><radialGradient id="j" cx="127.75" cy="261.27" r="92.25" gradientTransform="matrix(1.663 0 0 .34037 -84.702 148.57)" gradientUnits="userSpaceOnUse" xlink:href="#a"/><radialGradient id="i" cx="20.48" cy="31.231" r="93" gradientTransform="matrix(0 1.0485 -3.8781 0 165.49 13.855)" gradientUnits="userSpaceOnUse"><stop stop-color="#fff" offset="0"/><stop stop-color="#fff" stop-opacity="0" offset="1"/></radialGradient><radialGradient id="h" cx="127.75" cy="236.25" r="92.25" gradientTransform="matrix(1.5709 0 0 1.1159 -53.057 .95481)" gradientUnits="userSpaceOnUse" xlink:href="#a"/><radialGradient id="g" cx="210.96" cy="38.58" r="34.234" gradientTransform="matrix(1.0442 0 0 .96082 -12.745 6.3495)" gradientUnits="userSpaceOnUse"><stop offset="0"/><stop stop-opacity="0" offset="1"/></radialGradient><radialGradient id="f" cx="196.36" cy="44.213" r="23.763" gradientTransform="matrix(1 0 0 .98931 0 .47264)" gradientUnits="userSpaceOnUse"><stop offset="0"/><stop stop-opacity="0" offset="1"/></radialGradient><linearGradient id="p" x1="190.98" x2="196.45" y1="52.973" y2="39.564" gradientTransform="translate(-1.5 2.5214)" gradientUnits="userSpaceOnUse"><stop offset="0"/><stop stop-opacity="0" offset="1"/></linearGradient><radialGradient id="e" cx="190.88" cy="49.25" r="23.5" gradientTransform="matrix(1.4473 0 0 1.4473 -85.751 -21.529)" gradientUnits="userSpaceOnUse"><stop stop-color="#fff" offset="0"/><stop stop-color="#fff" stop-opacity="0" offset="1"/></radialGradient><radialGradient id="d" cx="192.25" cy="45.75" r="23.5" gradientTransform="matrix(.5972 -.4509 1.7045 2.2575 -.54025 29.158)" gradientUnits="userSpaceOnUse"><stop stop-color="#fff" offset="0"/><stop stop-color="#e6e6e6" offset=".44761"/><stop stop-color="#cbcbcb" offset=".81268"/><stop stop-color="#dbdbdb" offset="1"/></radialGradient><radialGradient id="c" cx="186.77" cy="27.786" r="8.9714" gradientTransform="matrix(2.1152 0 0 2.9279 -207.44 -53.617)" gradientUnits="userSpaceOnUse"><stop stop-color="#fff" offset="0"/><stop stop-color="#fff" stop-opacity="0" offset="1"/></radialGradient><radialGradient id="b" cx="208.68" cy="39.762" r="13.625" gradientTransform="matrix(.99733 .072992 -.11677 1.5955 5.1997 -29.524)" gradientUnits="userSpaceOnUse"><stop stop-color="#fff" offset="0"/><stop stop-color="#fff" stop-opacity="0" offset="1"/></radialGradient><linearGradient id="o" x1="189.25" x2="189.25" y1="23.662" y2="43.888" gradientUnits="userSpaceOnUse"><stop stop-color="#fff" offset="0"/><stop stop-color="#fff" stop-opacity="0" offset="1"/></linearGradient></defs><g transform="translate(-824 -936)"><g><g transform="translate(16 8)"><g transform="translate(384 896)"><rect transform="matrix(1.1875 0 0 .625 372.25 116)" x="60" y="244" width="176" height="12" rx="30.842" ry="6" filter="url(#aa)" opacity=".3"/><rect transform="matrix(.88797 0 0 .18573 434.71 228.96)" x="22.995" y="223.44" width="211" height="18.114" rx="4.9924" ry="9.0572" fill-rule="evenodd" filter="url(#z)" opacity=".8"/><path transform="matrix(.98925 0 0 1.0129 401.72 .5305)" d="m55.872 47.328c-0.56266 0-1 0.43734-1 1l-1.0109 217c0 0.56266 0.43734 1 1 1h186.02c0.56266 0 1-0.43734 1-1l-1.0109-171c0-13.558-10.858-25.296-16.281-30.719-5.4231-5.4231-17.161-16.281-30.719-16.281z" fill="url(#q)" fill-rule="evenodd" filter="url(#r)" opacity=".7"/><g transform="matrix(.98925 0 0 1.0232 401.72 .044255)"><g transform="translate(19.872 27.828)"><path d="m36 19c-0.56266 0-1 0.43734-1 1v217c0 0.56266 0.43734 1 1 1h184c0.56266 0 1-0.43734 1-1v-171c0-13.558-10.858-25.296-16.281-30.719-5.4231-5.4231-17.161-16.281-30.719-16.281z" fill="url(#m)"/><path d="m36.591 19.704c-0.55904 0-0.99357 0.43453-0.99357 0.99357v215.61c0 0.55904 0.43453 0.99357 0.99357 0.99357h182.82c0.55904 0 0.99357-0.43453 0.99357-0.99357v-169.9c0-13.471-10.788-25.133-16.177-30.521-5.3882-5.3882-17.051-16.177-30.521-16.177z" fill="none" stroke="url(#l)" stroke-dashoffset=".7" stroke-linecap="round" stroke-width=".99397"/><path d="m36 19c-0.56266 0-1 0.43734-1 1v217c0 0.56266 0.43734 1 1 1h184c0.56266 0 1-0.43734 1-1v-171c0-13.558-10.858-25.296-16.281-30.719-5.4231-5.4231-17.161-16.281-30.719-16.281z" clip-path="url(#ab)" fill="none" filter="url(#x)" opacity=".072289" stroke="#000" stroke-dashoffset=".7" stroke-linecap="round" stroke-width=".99397"/><path d="m36.625 19.875c-0.56266 0-1 0.43734-1 1v217c0 0.56266 0.43734 1 1 1v-217c0-0.56266 0.43734-1 1-1h138c11.863 0 22.341 8.3199 28.406 14.031-5.8462-5.6773-16.801-15.031-29.406-15.031z" fill="url(#k)" fill-rule="evenodd"/><rect x="35.5" y="186.25" width="184.5" height="51.25" rx="1.0156" ry="1.0156" fill="url(#j)" fill-rule="evenodd" opacity=".56024"/></g><path d="m55.875 46.812c-0.56266-1e-6 -1 0.43734-1 1v88.188h186v-42.188c-1e-5 -13.558-10.858-25.296-16.281-30.719-5.4231-5.4231-17.161-16.281-30.719-16.281z" fill="url(#i)"/><rect x="55.372" y="263.83" width="184.5" height="1.5" rx="1.0156" ry="1.0156" fill="url(#h)" fill-rule="evenodd"/></g></g><g transform="translate(784 899.93)" fill-rule="evenodd"><g transform="matrix(.98925 0 0 1.0232 21.376 24.59)"><path transform="matrix(.76048 0 0 .87302 56.123 8.4826)" d="m162 24c-2.7302 0-5.4062 0.18108-8.0312 0.5625-3.1702 5.9491-4.9688 12.73-4.9688 19.938 0 23.46 19.04 42.5 42.5 42.5 9.7773 0 18.785-3.3191 25.969-8.875-0.73575-29.997-25.296-54.125-55.469-54.125z" fill="url(#g)" filter="url(#y)" opacity=".16868"/><path transform="translate(0,50)" d="m174-31c13.558 0 22.308 11.846 27.731 17.269s19.269 16.173 19.269 29.731c0-13.558-20.111-8.6028-26.192-8.6028-0.6357 0-1.2268-0.51769-1.1502-1.1502 2.5084-20.705-6.1006-37.247-19.658-37.247z" filter="url(#w)" mask="url(#n)" opacity=".37952"/><path d="m172.59 20.722c24.827-0.87083 48.543 30.546 47.5 47 0-13.558-7.491-16.365-29.984-16.365-0.6357 0-1.1502-0.51307-1.1502-1.1502 0-22.493-2.8077-29.484-16.365-29.484z" fill="url(#f)" filter="url(#v)" opacity=".42771"/><path d="m171.45 22.448c13.558 0 25.308 10.846 30.731 16.269s16.269 17.173 16.269 30.731c0-13.558-6.991-16.365-29.484-16.365-0.6357 0-1.1502-0.51307-1.1502-1.1502 0-22.493-2.8077-29.484-16.365-29.484z" fill="url(#p)" filter="url(#u)" opacity=".27711"/><path d="m173.12 19.75c13.558 0 25.308 10.846 30.731 16.269s16.269 17.173 16.269 30.731c0-13.558-6.991-16.365-29.484-16.365-0.6357 0-1.1502-0.51307-1.1502-1.1502 0-22.493-2.8077-29.484-16.365-29.484z" fill="url(#e)"/><path d="m174 19c13.558 0 25.308 10.846 30.731 16.269s16.269 17.173 16.269 30.731c0-13.558-6.991-16.365-29.484-16.365-0.6357 0-1.1502-0.51307-1.1502-1.1502 0-22.493-2.8077-29.484-16.365-29.484z" fill="url(#d)"/><path d="m174.13 19.031c15.481 1.0337 16.019 13.643 16.263 26.517-0.74413-7.7303 1.374-15.978-4.2426-22.627 4.5078 1.5017 9.8111 5.7816 14.938 9.1924-5.4964-4.8666-14.015-13.001-26.958-13.081z" fill="url(#c)" filter="url(#t)"/><path d="m219.38 57.625c-3.971-8.9-17.43-7.2964-27.25-8 9.9276-0.23867 24.598-2.9842 27.25 8z" fill="url(#b)" filter="url(#s)"/></g><path transform="matrix(.98925 0 0 1.0232 21.376 24.59)" d="m174 19c13.558 0 25.308 10.846 30.731 16.269s16.269 17.173 16.269 30.731c0-13.558-6.991-16.365-29.484-16.365-0.6357 0-1.1502-0.51307-1.1502-1.1502 0-22.493-2.8077-29.484-16.365-29.484z" fill="url(#o)"/></g></g></g></g></svg>
