<?xml version="1.0" encoding="UTF-8"?>
<svg version="1.0" viewBox="0 0 256 256" xmlns="http://www.w3.org/2000/svg" xmlns:xlink="http://www.w3.org/1999/xlink"><defs><filter id="ae" x="-.16294" y="-2.3897" width="1.3259" height="5.7795" color-interpolation-filters="sRGB"><feGaussianBlur stdDeviation="11.948684"/></filter><filter id="ad" x="-.093476" y="-1.094" width="1.187" height="3.188" color-interpolation-filters="sRGB"><feGaussianBlur stdDeviation="8.257079"/></filter><filter id="s" color-interpolation-filters="sRGB"><feGaussianBlur stdDeviation="2.43"/></filter><clipPath id="af"><path d="m36 19c-0.56266 0-1 0.43734-1 1v217c0 0.56266 0.43734 1 1 1h184c0.56266 0 1-0.43734 1-1v-171c0-13.558-10.858-25.296-16.281-30.719-5.4231-5.4231-17.161-16.281-30.719-16.281z" fill="url(#linearGradient6013) #000000" fill-rule="evenodd"/></clipPath><filter id="y" color-interpolation-filters="sRGB"><feGaussianBlur stdDeviation="2.025"/></filter><linearGradient id="a"><stop stop-color="#fff" offset="0"/><stop stop-color="#fff" stop-opacity="0" offset="1"/></linearGradient><filter id="z" x="-.10594" y="-.11513" width="1.2119" height="1.2303" color-interpolation-filters="sRGB"><feGaussianBlur stdDeviation="3.0222701"/></filter><mask id="n" maskUnits="userSpaceOnUse"><path d="m36-31c-0.56266 0-1 0.43734-1 1v217c0 0.56266 0.43734 1 1 1h184c0.56266 0 1-0.43734 1-1v-171c0-13.558-12.858-23.296-18.281-28.719-5.4231-5.4231-15.161-18.281-28.719-18.281z" fill="#fff" fill-rule="evenodd"/></mask><filter id="x" x="-.24138" y="-.24138" width="1.4828" height="1.4828" color-interpolation-filters="sRGB"><feGaussianBlur stdDeviation="4.7270115"/></filter><filter id="w" color-interpolation-filters="sRGB"><feGaussianBlur stdDeviation="0.27169794"/></filter><filter id="v" x="-.13103" y="-.13103" width="1.2621" height="1.2621" color-interpolation-filters="sRGB"><feGaussianBlur stdDeviation="2.566092"/></filter><filter id="u" color-interpolation-filters="sRGB"><feGaussianBlur stdDeviation="0.30732727"/></filter><filter id="t" x="-.031646" y="-.10174" width="1.0633" height="1.2035" color-interpolation-filters="sRGB"><feGaussianBlur stdDeviation="0.35931052"/></filter><filter id="ac" x="-.018881" y="-.38579" width="1.0378" height="1.7716" color-interpolation-filters="sRGB"><feGaussianBlur stdDeviation="1.1252344"/></filter><filter id="ab" color-interpolation-filters="sRGB"><feGaussianBlur stdDeviation="1.0652344"/></filter><filter id="aa" color-interpolation-filters="sRGB"><feGaussianBlur stdDeviation="1.1299999"/></filter><linearGradient id="o" x1="953.73" x2="988.57" y1="401.28" y2="523.11" gradientTransform="matrix(.93684 0 0 1 60 0)" gradientUnits="userSpaceOnUse"><stop stop-color="#fcaf3e" offset="0"/><stop stop-color="#f57900" offset=".43473"/><stop stop-color="#fcaf3e" offset=".63779"/><stop stop-color="#f57f07" offset=".923"/><stop stop-color="#fcaf3e" offset="1"/></linearGradient><linearGradient id="r" x1="84" x2="-104.07" y1="200.5" y2="-127.99" gradientUnits="userSpaceOnUse"><stop offset="0"/><stop stop-opacity="0" offset="1"/></linearGradient><radialGradient id="m" cx="-80.661" cy="88.983" r="18" gradientTransform="matrix(25.306 2.1794e-6 -1.0731e-6 12.46 2199.2 -911.49)" gradientUnits="userSpaceOnUse"><stop stop-color="#fff" offset="0"/><stop stop-color="#d3d7cf" offset="1"/></radialGradient><radialGradient id="l" cx="128.59" cy="116.47" r="92.902" gradientTransform="matrix(3.5967 -.28529 .17691 2.2303 -355.12 -121.58)" gradientUnits="userSpaceOnUse"><stop stop-color="#fff" offset="0"/><stop stop-color="#fff" stop-opacity="0" offset="1"/></radialGradient><radialGradient id="k" cx="36" cy="45.297" r="84.203" gradientTransform="matrix(0 2.7411 -1.8799 0 120.78 -78.804)" gradientUnits="userSpaceOnUse"><stop stop-color="#fff" offset="0"/><stop stop-color="#fff" stop-opacity="0" offset="1"/></radialGradient><radialGradient id="j" cx="127.75" cy="261.27" r="92.25" gradientTransform="matrix(1.663 0 0 .34037 -84.702 148.57)" gradientUnits="userSpaceOnUse" xlink:href="#a"/><radialGradient id="i" cx="20.48" cy="31.231" r="93" gradientTransform="matrix(0 1.0485 -3.8781 0 165.49 13.855)" gradientUnits="userSpaceOnUse"><stop stop-color="#fff" offset="0"/><stop stop-color="#fff" stop-opacity="0" offset="1"/></radialGradient><radialGradient id="h" cx="127.75" cy="236.25" r="92.25" gradientTransform="matrix(1.5709 0 0 1.1159 -53.057 .95481)" gradientUnits="userSpaceOnUse" xlink:href="#a"/><radialGradient id="g" cx="210.96" cy="38.58" r="34.234" gradientTransform="matrix(1.0442 0 0 .96082 -12.745 6.3495)" gradientUnits="userSpaceOnUse"><stop offset="0"/><stop stop-opacity="0" offset="1"/></radialGradient><radialGradient id="f" cx="196.36" cy="44.213" r="23.763" gradientTransform="matrix(1 0 0 .98931 0 .47264)" gradientUnits="userSpaceOnUse"><stop offset="0"/><stop stop-opacity="0" offset="1"/></radialGradient><linearGradient id="q" x1="190.98" x2="196.45" y1="52.973" y2="39.564" gradientTransform="translate(-1.5 2.5214)" gradientUnits="userSpaceOnUse"><stop offset="0"/><stop stop-opacity="0" offset="1"/></linearGradient><radialGradient id="e" cx="190.88" cy="49.25" r="23.5" gradientTransform="matrix(1.4473 0 0 1.4473 -85.751 -21.529)" gradientUnits="userSpaceOnUse"><stop stop-color="#fff" offset="0"/><stop stop-color="#fff" stop-opacity="0" offset="1"/></radialGradient><radialGradient id="d" cx="192.25" cy="45.75" r="23.5" gradientTransform="matrix(.5972 -.4509 1.7045 2.2575 -.54025 29.158)" gradientUnits="userSpaceOnUse"><stop stop-color="#fff" offset="0"/><stop stop-color="#e6e6e6" offset=".44761"/><stop stop-color="#cbcbcb" offset=".81268"/><stop stop-color="#dbdbdb" offset="1"/></radialGradient><radialGradient id="c" cx="186.77" cy="27.786" r="8.9714" gradientTransform="matrix(2.1152 0 0 2.9279 -207.44 -53.617)" gradientUnits="userSpaceOnUse"><stop stop-color="#fff" offset="0"/><stop stop-color="#fff" stop-opacity="0" offset="1"/></radialGradient><radialGradient id="b" cx="208.68" cy="39.762" r="13.625" gradientTransform="matrix(.99733 .072992 -.11677 1.5955 5.1997 -29.524)" gradientUnits="userSpaceOnUse"><stop stop-color="#fff" offset="0"/><stop stop-color="#fff" stop-opacity="0" offset="1"/></radialGradient><linearGradient id="p" x1="189.25" x2="189.25" y1="23.662" y2="43.888" gradientUnits="userSpaceOnUse"><stop stop-color="#fff" offset="0"/><stop stop-color="#fff" stop-opacity="0" offset="1"/></linearGradient></defs><g transform="translate(-424,-332)"><g transform="translate(-400)"><g transform="translate(400,300)"><rect transform="matrix(1.1875 0 0 .625 372.25 116)" x="60" y="244" width="176" height="12" rx="30.842" ry="6" filter="url(#ae)" opacity=".3"/><rect transform="matrix(.88797 0 0 .18573 434.71 228.96)" x="22.995" y="223.44" width="211" height="18.114" rx="4.9924" ry="9.0572" fill-rule="evenodd" filter="url(#ad)" opacity=".8"/><path transform="matrix(.98925 0 0 1.0129 401.72 .5305)" d="m55.872 47.328c-0.56266 0-1 0.43734-1 1l-1.0109 217c0 0.56266 0.43734 1 1 1h186.02c0.56266 0 1-0.43734 1-1l-1.0109-171c0-13.558-10.858-25.296-16.281-30.719-5.4231-5.4231-17.161-16.281-30.719-16.281z" fill="url(#r)" fill-rule="evenodd" filter="url(#s)" opacity=".7"/><g transform="matrix(.98925 0 0 1.0232 401.72 .044255)"><g transform="translate(19.872 27.828)"><path d="m36 19c-0.56266 0-1 0.43734-1 1v217c0 0.56266 0.43734 1 1 1h184c0.56266 0 1-0.43734 1-1v-171c0-13.558-10.858-25.296-16.281-30.719-5.4231-5.4231-17.161-16.281-30.719-16.281z" fill="url(#m)"/><path d="m36.591 19.704c-0.55904 0-0.99357 0.43453-0.99357 0.99357v215.61c0 0.55904 0.43453 0.99357 0.99357 0.99357h182.82c0.55904 0 0.99357-0.43453 0.99357-0.99357v-169.9c0-13.471-10.788-25.133-16.177-30.521-5.3882-5.3882-17.051-16.177-30.521-16.177z" fill="none" stroke="url(#l)" stroke-dashoffset=".7" stroke-linecap="round" stroke-width=".99397"/><path d="m36 19c-0.56266 0-1 0.43734-1 1v217c0 0.56266 0.43734 1 1 1h184c0.56266 0 1-0.43734 1-1v-171c0-13.558-10.858-25.296-16.281-30.719-5.4231-5.4231-17.161-16.281-30.719-16.281z" clip-path="url(#af)" fill="none" filter="url(#y)" opacity=".072289" stroke="#000" stroke-dashoffset=".7" stroke-linecap="round" stroke-width=".99397"/><path d="m36.625 19.875c-0.56266 0-1 0.43734-1 1v217c0 0.56266 0.43734 1 1 1v-217c0-0.56266 0.43734-1 1-1h138c11.863 0 22.341 8.3199 28.406 14.031-5.8462-5.6773-16.801-15.031-29.406-15.031z" fill="url(#k)" fill-rule="evenodd"/><rect x="35.5" y="186.25" width="184.5" height="51.25" rx="1.0156" ry="1.0156" fill="url(#j)" fill-rule="evenodd" opacity=".56024"/></g><path d="m55.875 46.812c-0.56266-1e-6 -1 0.43734-1 1v88.188h186v-42.188c-1e-5 -13.558-10.858-25.296-16.281-30.719-5.4231-5.4231-17.161-16.281-30.719-16.281z" fill="url(#i)"/><rect x="55.372" y="263.83" width="184.5" height="1.5" rx="1.0156" ry="1.0156" fill="url(#h)" fill-rule="evenodd"/></g></g><path d="m981.16 528.25c71.127-22.531-150.88-128.75-45.981-128.75 104.18 0-24.508 151.08 45.981 128.75z" fill-rule="evenodd" filter="url(#aa)" opacity=".2" stroke="#000" stroke-width="3"/><g transform="translate(800 303.93)" fill-rule="evenodd"><g transform="matrix(.98925 0 0 1.0232 21.376 24.59)"><path transform="matrix(.76048 0 0 .87302 56.123 8.4826)" d="m162 24c-2.7302 0-5.4062 0.18108-8.0312 0.5625-3.1702 5.9491-4.9688 12.73-4.9688 19.938 0 23.46 19.04 42.5 42.5 42.5 9.7773 0 18.785-3.3191 25.969-8.875-0.73575-29.997-25.296-54.125-55.469-54.125z" fill="url(#g)" filter="url(#z)" opacity=".16868"/><path transform="translate(0,50)" d="m174-31c13.558 0 22.308 11.846 27.731 17.269s19.269 16.173 19.269 29.731c0-13.558-20.111-8.6028-26.192-8.6028-0.6357 0-1.2268-0.51769-1.1502-1.1502 2.5084-20.705-6.1006-37.247-19.658-37.247z" filter="url(#x)" mask="url(#n)" opacity=".37952"/><path d="m172.59 20.722c24.827-0.87083 48.543 30.546 47.5 47 0-13.558-7.491-16.365-29.984-16.365-0.6357 0-1.1502-0.51307-1.1502-1.1502 0-22.493-2.8077-29.484-16.365-29.484z" fill="url(#f)" filter="url(#w)" opacity=".42771"/><path d="m171.45 22.448c13.558 0 25.308 10.846 30.731 16.269s16.269 17.173 16.269 30.731c0-13.558-6.991-16.365-29.484-16.365-0.6357 0-1.1502-0.51307-1.1502-1.1502 0-22.493-2.8077-29.484-16.365-29.484z" fill="url(#q)" filter="url(#v)" opacity=".27711"/><path d="m173.12 19.75c13.558 0 25.308 10.846 30.731 16.269s16.269 17.173 16.269 30.731c0-13.558-6.991-16.365-29.484-16.365-0.6357 0-1.1502-0.51307-1.1502-1.1502 0-22.493-2.8077-29.484-16.365-29.484z" fill="url(#e)"/><path d="m174 19c13.558 0 25.308 10.846 30.731 16.269s16.269 17.173 16.269 30.731c0-13.558-6.991-16.365-29.484-16.365-0.6357 0-1.1502-0.51307-1.1502-1.1502 0-22.493-2.8077-29.484-16.365-29.484z" fill="url(#d)"/><path d="m174.13 19.031c15.481 1.0337 16.019 13.643 16.263 26.517-0.74413-7.7303 1.374-15.978-4.2426-22.627 4.5078 1.5017 9.8111 5.7816 14.938 9.1924-5.4964-4.8666-14.015-13.001-26.958-13.081z" fill="url(#c)" filter="url(#u)"/><path d="m219.38 57.625c-3.971-8.9-17.43-7.2964-27.25-8 9.9276-0.23867 24.598-2.9842 27.25 8z" fill="url(#b)" filter="url(#t)"/></g><path transform="matrix(.98925 0 0 1.0232 21.376 24.59)" d="m174 19c13.558 0 25.308 10.846 30.731 16.269s16.269 17.173 16.269 30.731c0-13.558-6.991-16.365-29.484-16.365-0.6357 0-1.1502-0.51307-1.1502-1.1502 0-22.493-2.8077-29.484-16.365-29.484z" fill="url(#p)"/></g><path d="m980.16 525.25c71.127-22.531-150.88-128.75-45.981-128.75 104.18 0-24.508 151.08 45.981 128.75z" fill="url(#o)" fill-rule="evenodd" stroke="#ce5c00" stroke-width="2"/><path d="m934.19 398.18c-8.0516 0-14.105 0.64213-18.375 1.7734-4.2702 1.1313-6.6603 2.7289-7.7598 4.4258s-1.1854 3.7045-0.23046 6.4434c0.95489 2.7389 3.0089 6.0364 5.9102 9.6504 11.22 13.976 34.736 32.582 53.773 50.344 5.2063-17.31 9.5764-35.368 6.7305-48.869-1.493-7.0833-4.8366-12.884-11.088-17.057-6.2512-4.1724-15.548-6.7109-28.961-6.7109zm34.986 78.846c-4.8012 15.501-9.6384 30.017-9.6309 38.918 2e-3 2.3589 0.33556 4.3038 0.98047 5.7637 0.6449 1.4599 1.5448 2.4556 2.9375 3.1524 2.7855 1.3934 7.9656 1.3935 16.188-1.2109 6.5154-2.0639 10.195-4.7719 11.898-7.7363 1.703-2.9644 1.6635-6.4101 0.084-10.617-2.9733-7.9196-11.691-17.891-22.457-28.27z" fill="none" stroke="#fcaf3e"/><g transform="translate(-4)"><path d="m1032.5 508c-1.9211-1e-5 -3.5 1.5789-3.5 3.5 0 0.16337 0.01 0.31088 0.031 0.46875l-43.031 12.625v-1.5938h-7v3.6562l-42.281 12.438c-0.54762-1.2384-1.7929-2.0938-3.2188-2.0938-1.921-1e-5 -3.5312 1.5789-3.5312 3.5 0 1.9211 1.6102 3.5 3.5312 3.5 1.9211-3e-5 3.5-1.579 3.5-3.5 0-0.15254-0.0118-0.28971-0.0313-0.4375l42.031-12.344v2.2812h7v-4.3438l43.281-12.719c0.5532 1.2254 1.8024 2.0625 3.2188 2.0625 1.921-3e-5 3.5-1.579 3.5-3.5 0-1.921-1.579-3.5-3.5-3.5z" filter="url(#ab)" opacity=".4"/><path d="m1029.5 511.34-47.182 13.869m-46.758 13.745 46.758-13.745" fill="none" stroke="#729fcf" stroke-width="1px"/><rect x="980" y="523" width="5.0002" height="5.0113" fill="#fff" opacity=".99" stroke="#204a87" stroke-linecap="square" stroke-width="2"/><circle transform="matrix(2.5 0 0 2.5 -1461.1 -480.19)" cx="997.47" cy="396.28" r="1" fill="#fff" opacity=".99" stroke="#729fcf" stroke-linecap="square" stroke-width=".80001"/><circle transform="matrix(2.5 0 0 2.5 -1560.1 -451.19)" cx="997.47" cy="396.28" r="1" fill="#fff" opacity=".99" stroke="#729fcf" stroke-linecap="square" stroke-width=".80001"/></g><g transform="translate(2)"><path d="m865.5 394c-1.921-1e-5 -3.5312 1.5789-3.5312 3.5 0 1.921 1.6102 3.5 3.5312 3.5 1.7469 1e-5 3.2153-1.3165 3.4688-3h61.031v3h7v-3h59.031c0.2537 1.6833 1.7221 3 3.4688 3 1.9211 1e-5 3.5-1.579 3.5-3.5 0-1.9211-1.579-3.5-3.5-3.5-1.7467-1e-5 -3.215 1.3167-3.4688 3h-59.031v-3h-7v3h-61.031c-0.25345-1.6835-1.7219-3-3.4688-3z" filter="url(#ac)" opacity=".4"/><path d="m866.49 396.5h66.464m66.009 0h-66.009" fill="#729fcf" stroke="#729fcf"/><rect x="931" y="393.99" width="5.0002" height="5.0113" fill="#fff" opacity=".99" stroke="#204a87" stroke-linecap="square" stroke-width="2"/><circle transform="matrix(2.5 0 0 2.5 -1494.1 -594.19)" cx="997.47" cy="396.28" r="1" fill="#fff" opacity=".99" stroke="#729fcf" stroke-linecap="square" stroke-width=".80001"/><circle transform="matrix(2.5 0 0 2.5 -1628.1 -594.19)" cx="997.47" cy="396.28" r="1" fill="#fff" opacity=".99" stroke="#729fcf" stroke-linecap="square" stroke-width=".80001"/></g></g></g></svg>
