<?xml version="1.0" encoding="UTF-8"?>
<svg version="1.0" viewBox="0 0 256 256" xmlns="http://www.w3.org/2000/svg" xmlns:xlink="http://www.w3.org/1999/xlink"><defs><filter id="aj" x="-.16294" y="-2.3897" width="1.3259" height="5.7795" color-interpolation-filters="sRGB"><feGaussianBlur stdDeviation="11.948684"/></filter><filter id="ai" x="-.093476" y="-1.094" width="1.187" height="3.188" color-interpolation-filters="sRGB"><feGaussianBlur stdDeviation="8.257079"/></filter><filter id="w" color-interpolation-filters="sRGB"><feGaussianBlur stdDeviation="2.43"/></filter><clipPath id="am"><path d="m36 19c-0.56266 0-1 0.43734-1 1v217c0 0.56266 0.43734 1 1 1h184c0.56266 0 1-0.43734 1-1v-171c0-13.558-10.858-25.296-16.281-30.719-5.4231-5.4231-17.161-16.281-30.719-16.281z" fill="url(#linearGradient6013) #000000" fill-rule="evenodd"/></clipPath><filter id="ag" color-interpolation-filters="sRGB"><feGaussianBlur stdDeviation="2.025"/></filter><linearGradient id="a"><stop stop-color="#fff" offset="0"/><stop stop-color="#fff" stop-opacity="0" offset="1"/></linearGradient><filter id="ah" x="-.10594" y="-.11513" width="1.2119" height="1.2303" color-interpolation-filters="sRGB"><feGaussianBlur stdDeviation="3.0222701"/></filter><mask id="o" maskUnits="userSpaceOnUse"><path d="m36-31c-0.56266 0-1 0.43734-1 1v217c0 0.56266 0.43734 1 1 1h184c0.56266 0 1-0.43734 1-1v-171c0-13.558-12.858-23.296-18.281-28.719-5.4231-5.4231-15.161-18.281-28.719-18.281z" fill="#fff" fill-rule="evenodd"/></mask><filter id="af" x="-.24138" y="-.24138" width="1.4828" height="1.4828" color-interpolation-filters="sRGB"><feGaussianBlur stdDeviation="4.7270115"/></filter><filter id="aa" color-interpolation-filters="sRGB"><feGaussianBlur stdDeviation="0.27169794"/></filter><filter id="z" x="-.13103" y="-.13103" width="1.2621" height="1.2621" color-interpolation-filters="sRGB"><feGaussianBlur stdDeviation="2.566092"/></filter><filter id="y" color-interpolation-filters="sRGB"><feGaussianBlur stdDeviation="0.30732727"/></filter><filter id="x" x="-.031646" y="-.10174" width="1.0633" height="1.2035" color-interpolation-filters="sRGB"><feGaussianBlur stdDeviation="0.35931052"/></filter><clipPath id="ak"><rect x="84" y="428" width="92" height="56"/></clipPath><filter id="ab" x="-.30265" y="-.30265" width="1.6053" height="1.6053" color-interpolation-filters="sRGB"><feGaussianBlur stdDeviation="3.5333828"/></filter><filter id="ad" color-interpolation-filters="sRGB"><feGaussianBlur stdDeviation="0.84057318"/></filter><filter id="ac" x="-.11115" y="-.20272" width="1.2223" height="1.4054" color-interpolation-filters="sRGB"><feGaussianBlur stdDeviation="0.83939158"/></filter><clipPath id="al"><path d="m79.406 432.78c4.9521 3.1562 10.098 2.36 13.812 6.2812 0.20853 0.22012 0.41543 0.41335 0.625 0.625-0.91227 0.0132-3.3617-0.64471-5.8125-0.21875-2.04 0.35455-4.026-0.55433-6.4375 1.0312 2.8086-1.177 5.0587-0.41657 7.3125-0.71875 1.757-0.23558 4.8595 0.60574 6.8438 1.75 3.1991 2.92 6.0681 5.0034 6.6562 7.0312 0.75156 2.5912 0.93062 10.177 0.96875 13.312-0.33977-0.27402-0.66062-0.5645-0.96875-0.875-0.68906-0.71321-1.3477-1.4778-2.1562-2.0625-0.77698-0.56343-1.5827-1.081-2.2188-1.8125-0.66486-0.8969-1.4471-1.6971-2.1875-2.5312-0.70592-0.72238-1.4565-1.3967-2.125-2.1562-0.61554-0.75741-1.3361-1.4232-2.1875-1.9062-0.77581-0.47272-1.5828-1.0033-2.5312-0.96875-0.47451-0.0791-0.95887-0.19127-1.3125-0.53125-0.59769-0.44175-1.3243-0.71337-2.0625-0.78125l0.125 0.0625c0.9109 0.24481 1.6818 0.8215 2.4062 1.4062 0.82464 0.41098 1.8702 0.34115 2.5312 1.0625 0.70456 0.74408 1.7606 1.1436 2.2812 2.0625 0.20942 0.35023 0.44974 0.66458 0.71875 0.96875-0.70331 0.27896-1.3791 1.262-1.875 1.5938-1.2981 0.86836-4.6092-2.7475-7.5-2.4062 2.0854-0.0469 5.7552 2.5084 6.4688 2.7188 0.55836 0.16459-1.6664 2.1036-3.375 3.0312 1.5174-0.43138 3.9773-2.5172 4.4375-2.625 0.57771-0.13527 1.1621-1.9473 2.4375-1.6875 0.26687 0.28232 0.53984 0.57255 0.78125 0.875 0.69303 0.78032 1.3858 1.5403 1.9688 2.4062 0.85162 1.0618 1.9547 1.8779 2.875 2.875 0.7471 0.7803 1.3951 1.6458 2.0938 2.4688 0.93323 1.1249 1.8793 2.2501 2.8125 3.375 0.42144 0.87267 1.0317 1.6104 1.6562 2.3438 0.66563 0.75999 1.3096 1.5578 1.8125 2.4375 0.59909 0.89138 1.1135 1.8414 1.5 2.8438 0.30827 0.94828 0.48395 1.9214 0.625 2.9062 0.19051 1.037 0.34872 2.0991 0.25 3.1562-0.14578 1.5715-0.30651 3.1462-0.4375 4.7188-0.0217 0.7843-0.12135 1.6214 0.25 2.3438 0.88575 0.56065 1.944 0.69175 2.9688 0.75 0.86591-0.0236 1.7265-0.22461 2.4688-0.6875 0.31904-0.16231 0.63392-0.49478 0.46875-0.875-0.18667-1.0174-0.40295-2.0314-0.5-3.0625-0.1344-1.1527-0.25974-2.311-0.34375-3.4688-0.099-1.0951-0.14847-2.1826-0.1875-3.2812 0.0322-1.002 0.0767-2.0359 0.375-3 0.32471-0.94223 0.65194-2.1835 1.25-2.9688 0.85084-1.0428 2.1162-1.5162 3.0938-2.4375 0.82415-0.71738 1.6886-1.3898 2.4688-2.1562 0.75889-0.71303 1.6336-2.171 2.3125-2.9688 0.7624-0.80646 1.4899-0.89854 2.2188-1.625 0.18969-0.12973 0.38766-0.25786 0.59375-0.375 0.52915-0.26792 1.0411-0.57592 1.7188-0.625 0.70029 0.0397 1.394-0.19008 2.0938-0.0937 0.70007 0.0559 1.0293 0.72896 1.7812 0.65625 0.66535-0.12321 1.3522-0.12021 2.0312-0.0625-0.21541-0.0835-0.44604-0.15445-0.6875-0.1875-0.48981-0.0904-0.98368 0.0758-1.4688 0.0313-0.63207-0.054-0.8309-0.55639-1.375-0.71875-0.66242-0.11588-1.3594 0.10128-2.0312 0.0625-0.5382-0.0737-1.0553 0.0455-1.5938 0.0313 0.76409-1.1233 1.4432-2.4472 2.25-3.375 1.3398-1.2447 2.987-2.4822 4.0312-2.9688 1.3919-0.64849 2.3846 0.15819 4.2188-0.75-2.0398 0.86066-3.2805-0.27726-5.6875 1.125-1.3263 0.76242-2.2125 1.1866-2.9688 1.7188-1.5881-1.3451-0.70451-6.0617-2.0938-8.7812 0.0827-0.0958 0.125-0.20732 0.125-0.34375 1.5442-0.65828 3.8554-0.62579 5.3438-0.34375 1.8094 0.34285 1.1428 0.69721 2.0625 0.75 0.8083 0.0464 2.2134 0.8335 3.3438 1.2812 1.2226 0.48428 1.5383-0.0211 3.8438 1.2188-1.6552-1.1205-3.3491-1.1322-3.5938-1.4062 0.7457-2.4294 3.7961-2.8874 5.0625-5.1875-1.7644 2.5927-4.053 2.3398-5.2812 5.0938-1.2265-0.34407-2.4426-0.89298-3.0625-1.2812 1.4979-1.8748-1.6865-7.1896-1.7812-9-0.11059 2.4131 2.8308 5.847 1.25 8.8125-3.1678-1.2587-5.7502-0.78886-7.4375-0.40625-0.0628-0.0425-0.14103-0.0804-0.21875-0.0937-1.3849-2.0411-0.95284-3.5457-2.5-5.7812 0.85981 2.0352 1.0308 4.2145 1.875 5.9688 0.0201 0.0419 0.0431 0.0827 0.0625 0.125-0.0386 0.0749-0.0625 0.16002-0.0625 0.25 0 0.22641 0.14749 0.41694 0.34375 0.5 0.92516 2.7208 0.58242 6.1324 0.8125 8.6562-2.3395-3.8392-5.1562-3.9023-6.7812-10.25 1.3491 7.7694 7.4282 8.4637 5.875 13.344-1.1892 1.2392-3.1172 3.336-4.0312 4.25-0.76285 0.67868-1.5958 1.2684-2.4375 1.8438-0.87643 0.65389-0.79689 1.1332-1.7188 1.7188-0.68733 0.46263-2.2481 0.96188-2.8438 1.4375-0.77914 0.62211-1.2104 1.4697-1.875 2.3125-0.35417 0.47917-1.2396 0.61458-1.5625 1.25-0.32894-1.3324-1.2862-3.8088-3.0938-4.8438-0.89341-0.51154-1.8948-1.4387-2.625-2.2188-0.16244-0.16986-0.32136-0.31728-0.5-0.46875-1.2415-3.0007-1.3751-6.7091-1.6562-10.062 0.097-0.0922 0.17429-0.19076 0.28125-0.28125 0.53668-0.40499 1.0314-0.85932 1.9375-1.125 1.0036-0.19673 1.6425 0.33535 2.6875 0.1875 1.0153-0.18272 1.852-1.0645 2.8438-1.375 0.83379-0.32538 2.075-0.13823 3.0625-0.3125-1.1481 0.056-2.2651-0.14799-3.375 0.1875-0.91936 0.16193-1.4661 1.1166-2.3438 1.1562-1.0076 0.1187-1.6305-0.40688-2.5938-0.21875-0.80343 0.11401-1.4592 0.39725-2.2188 0.5625-0.096-0.0611-0.4129 0.0496-0.40625-0.0625-0.0616-0.56577-0.12813-1.1274-0.21875-1.6562-0.06-3.8967 4.2735-2.5702 5.1562-3.25 0.58133-0.44768 3.8545-3.0494 6.75-3.6562-3.4352 0.61964-6.8993 3.236-6.5625 2.4062 0.43039-1.0604 0.76035-7.918 2.8438-10.375-3.2326 3.1378-1.9374 10.598-4.2812 11.312-1.1493 0.35058-3.9482-0.0106-4.4375 1.375-0.10489-0.29885-0.21204-0.57258-0.34375-0.84375-0.84843-1.7468-3.2081-3.669-5.7188-5.8438-0.24719-1.2233 1.7086-1.6135 1.9062-2.125 0.15296-0.39577 2.4216-2.3888 3-3.6875-1.0818 1.4262-3.1791 3.223-3.2812 2.7188-0.13053-0.6444-2.2318-4.077-1.9688-5.9062-0.63373 2.5132 2.5124 5.711 1.5312 6.7812-0.40432 0.441-1.5683 1.0007-1.8125 1.6562-1.2132-1.0658-2.4193-2.1804-3.5312-3.4062-3.251-3.584-5.7455-2.0317-14.312-5.6562z" fill-rule="evenodd"/></clipPath><filter id="ae" color-interpolation-filters="sRGB"><feGaussianBlur stdDeviation="0.5940625"/></filter><linearGradient id="v" x1="-11.986" x2="-11.986" y1="11.5" y2="28.977" gradientTransform="matrix(2.6265 0 0 2.6667 161.48 363.7)" gradientUnits="userSpaceOnUse"><stop stop-color="#555753" offset="0"/><stop stop-color="#fcaf3e" offset="1"/></linearGradient><linearGradient id="u" x1="25.355" x2="25.355" y1="33.357" y2="31.763" gradientTransform="matrix(2.7059 0 0 3.5 65.059 335.86)" gradientUnits="userSpaceOnUse"><stop stop-color="#2e3436" offset="0"/><stop stop-color="#2e3436" stop-opacity="0" offset="1"/></linearGradient><linearGradient id="t" x1="145" x2="149.75" y1="481.12" y2="492.88" gradientTransform="translate(0 -25.637)" gradientUnits="userSpaceOnUse"><stop offset="0"/><stop stop-opacity="0" offset="1"/></linearGradient><linearGradient id="s" x1="110" x2="58.687" y1="533" y2="371.82" gradientTransform="matrix(1.0217 0 0 1.0312 -2.8261 -48.012)" gradientUnits="userSpaceOnUse"><stop stop-color="#fff" offset="0"/><stop stop-color="#fff" stop-opacity="0" offset=".5"/><stop stop-color="#fff" offset="1"/></linearGradient><radialGradient id="n" cx="130" cy="536.62" r="46" gradientTransform="matrix(3.2093 0 0 .19025 -287.21 357.4)" gradientUnits="userSpaceOnUse"><stop offset="0"/><stop stop-opacity="0" offset="1"/></radialGradient><linearGradient id="r" x1="84" x2="-104.07" y1="200.5" y2="-127.99" gradientUnits="userSpaceOnUse"><stop offset="0"/><stop stop-opacity="0" offset="1"/></linearGradient><radialGradient id="m" cx="-80.661" cy="88.983" r="18" gradientTransform="matrix(25.306 2.1794e-6 -1.0731e-6 12.46 2199.2 -911.49)" gradientUnits="userSpaceOnUse"><stop stop-color="#fff" offset="0"/><stop stop-color="#d3d7cf" offset="1"/></radialGradient><radialGradient id="l" cx="128.59" cy="116.47" r="92.902" gradientTransform="matrix(3.5967 -.28529 .17691 2.2303 -355.12 -121.58)" gradientUnits="userSpaceOnUse"><stop stop-color="#fff" offset="0"/><stop stop-color="#fff" stop-opacity="0" offset="1"/></radialGradient><radialGradient id="k" cx="36" cy="45.297" r="84.203" gradientTransform="matrix(0 2.7411 -1.8799 0 120.78 -78.804)" gradientUnits="userSpaceOnUse"><stop stop-color="#fff" offset="0"/><stop stop-color="#fff" stop-opacity="0" offset="1"/></radialGradient><radialGradient id="j" cx="127.75" cy="261.27" r="92.25" gradientTransform="matrix(1.663 0 0 .34037 -84.702 148.57)" gradientUnits="userSpaceOnUse" xlink:href="#a"/><radialGradient id="i" cx="20.48" cy="31.231" r="93" gradientTransform="matrix(0 1.0485 -3.8781 0 165.49 13.855)" gradientUnits="userSpaceOnUse"><stop stop-color="#fff" offset="0"/><stop stop-color="#fff" stop-opacity="0" offset="1"/></radialGradient><radialGradient id="h" cx="127.75" cy="236.25" r="92.25" gradientTransform="matrix(1.5709 0 0 1.1159 -53.057 .95481)" gradientUnits="userSpaceOnUse" xlink:href="#a"/><radialGradient id="g" cx="210.96" cy="38.58" r="34.234" gradientTransform="matrix(1.0442 0 0 .96082 -12.745 6.3495)" gradientUnits="userSpaceOnUse"><stop offset="0"/><stop stop-opacity="0" offset="1"/></radialGradient><radialGradient id="f" cx="196.36" cy="44.213" r="23.763" gradientTransform="matrix(1 0 0 .98931 0 .47264)" gradientUnits="userSpaceOnUse"><stop offset="0"/><stop stop-opacity="0" offset="1"/></radialGradient><linearGradient id="q" x1="190.98" x2="196.45" y1="52.973" y2="39.564" gradientTransform="translate(-1.5 2.5214)" gradientUnits="userSpaceOnUse"><stop offset="0"/><stop stop-opacity="0" offset="1"/></linearGradient><radialGradient id="e" cx="190.88" cy="49.25" r="23.5" gradientTransform="matrix(1.4473 0 0 1.4473 -85.751 -21.529)" gradientUnits="userSpaceOnUse"><stop stop-color="#fff" offset="0"/><stop stop-color="#fff" stop-opacity="0" offset="1"/></radialGradient><radialGradient id="d" cx="192.25" cy="45.75" r="23.5" gradientTransform="matrix(.5972 -.4509 1.7045 2.2575 -.54025 29.158)" gradientUnits="userSpaceOnUse"><stop stop-color="#fff" offset="0"/><stop stop-color="#e6e6e6" offset=".44761"/><stop stop-color="#cbcbcb" offset=".81268"/><stop stop-color="#dbdbdb" offset="1"/></radialGradient><radialGradient id="c" cx="186.77" cy="27.786" r="8.9714" gradientTransform="matrix(2.1152 0 0 2.9279 -207.44 -53.617)" gradientUnits="userSpaceOnUse"><stop stop-color="#fff" offset="0"/><stop stop-color="#fff" stop-opacity="0" offset="1"/></radialGradient><radialGradient id="b" cx="208.68" cy="39.762" r="13.625" gradientTransform="matrix(.99733 .072992 -.11677 1.5955 5.1997 -29.524)" gradientUnits="userSpaceOnUse"><stop stop-color="#fff" offset="0"/><stop stop-color="#fff" stop-opacity="0" offset="1"/></radialGradient><linearGradient id="p" x1="189.25" x2="189.25" y1="23.662" y2="43.888" gradientUnits="userSpaceOnUse"><stop stop-color="#fff" offset="0"/><stop stop-color="#fff" stop-opacity="0" offset="1"/></linearGradient></defs><g transform="translate(-1624 -32)"><g><g transform="translate(1600 -300)"><g transform="translate(-400,300)"><rect transform="matrix(1.1875 0 0 .625 372.25 116)" x="60" y="244" width="176" height="12" rx="30.842" ry="6" filter="url(#aj)" opacity=".3"/><rect transform="matrix(.88797 0 0 .18573 434.71 228.96)" x="22.995" y="223.44" width="211" height="18.114" rx="4.9924" ry="9.0572" fill-rule="evenodd" filter="url(#ai)" opacity=".8"/><path transform="matrix(.98925 0 0 1.0129 401.72 .5305)" d="m55.872 47.328c-0.56266 0-1 0.43734-1 1l-1.0109 217c0 0.56266 0.43734 1 1 1h186.02c0.56266 0 1-0.43734 1-1l-1.0109-171c0-13.558-10.858-25.296-16.281-30.719-5.4231-5.4231-17.161-16.281-30.719-16.281z" fill="url(#r)" fill-rule="evenodd" filter="url(#w)" opacity=".7"/><g transform="matrix(.98925 0 0 1.0232 401.72 .044255)"><g transform="translate(19.872 27.828)"><path d="m36 19c-0.56266 0-1 0.43734-1 1v217c0 0.56266 0.43734 1 1 1h184c0.56266 0 1-0.43734 1-1v-171c0-13.558-10.858-25.296-16.281-30.719-5.4231-5.4231-17.161-16.281-30.719-16.281z" fill="url(#m)"/><path d="m36.591 19.704c-0.55904 0-0.99357 0.43453-0.99357 0.99357v215.61c0 0.55904 0.43453 0.99357 0.99357 0.99357h182.82c0.55904 0 0.99357-0.43453 0.99357-0.99357v-169.9c0-13.471-10.788-25.133-16.177-30.521-5.3882-5.3882-17.051-16.177-30.521-16.177z" fill="none" stroke="url(#l)" stroke-dashoffset=".7" stroke-linecap="round" stroke-width=".99397"/><path d="m36 19c-0.56266 0-1 0.43734-1 1v217c0 0.56266 0.43734 1 1 1h184c0.56266 0 1-0.43734 1-1v-171c0-13.558-10.858-25.296-16.281-30.719-5.4231-5.4231-17.161-16.281-30.719-16.281z" clip-path="url(#am)" fill="none" filter="url(#ag)" opacity=".072289" stroke="#000" stroke-dashoffset=".7" stroke-linecap="round" stroke-width=".99397"/><path d="m36.625 19.875c-0.56266 0-1 0.43734-1 1v217c0 0.56266 0.43734 1 1 1v-217c0-0.56266 0.43734-1 1-1h138c11.863 0 22.341 8.3199 28.406 14.031-5.8462-5.6773-16.801-15.031-29.406-15.031z" fill="url(#k)" fill-rule="evenodd"/><rect x="35.5" y="186.25" width="184.5" height="51.25" rx="1.0156" ry="1.0156" fill="url(#j)" fill-rule="evenodd" opacity=".56024"/></g><path d="m55.875 46.812c-0.56266-1e-6 -1 0.43734-1 1v88.188h186v-42.188c-1e-5 -13.558-10.858-25.296-16.281-30.719-5.4231-5.4231-17.161-16.281-30.719-16.281z" fill="url(#i)"/><rect x="55.372" y="263.83" width="184.5" height="1.5" rx="1.0156" ry="1.0156" fill="url(#h)" fill-rule="evenodd"/></g></g><g transform="translate(-8,29.625)"><rect x="84" y="510.36" width="56" height="4" rx="2" ry="2" opacity=".02"/><rect x="83" y="393.36" width="94" height="66" rx="1.375" ry="1.375" fill="#babdb6"/><rect x="84" y="338.69" width="94.793" height="3.6694" rx="2.4572" ry="1.8347" fill="#8d8d8d" fill-rule="evenodd" opacity=".34234"/><path d="m86.656 358.36c-1.4634 0-2.6562 0.892-2.6562 2s1.1929 2 2.6562 2h122.69c1.4634 0 2.625-0.892 2.625-2s-1.1616-2-2.625-2zm0 12c-1.4773 0-2.6562 0.892-2.6562 2s1.1789 2 2.6562 2h132.84c1.4773 0 2.6562-0.892 2.6562-2s-1.1789-2-2.6562-2zm-0.1875 12c-1.3626 0-2.4688 0.892-2.4688 2s1.1062 2 2.4688 2h115.06c1.3626 0 2.4688-0.892 2.4688-2 0-1.108-1.1062-2-2.4688-2zm99.875 12c-1.2984 0-2.3438 0.892-2.3438 2s1.0453 2 2.3438 2h35.312c1.2984 0 2.3438-0.892 2.3438-2s-1.0453-2-2.3438-2zm0 12c-1.2984 0-2.3438 0.892-2.3438 2s1.0453 2 2.3438 2h35.312c1.2984 0 2.3438-0.892 2.3438-2s-1.0453-2-2.3438-2zm0 12c-1.2984 0-2.3438 0.892-2.3438 2s1.0453 2 2.3438 2h35.312c1.2984 0 2.3438-0.892 2.3438-2s-1.0453-2-2.3438-2zm0 12c-1.2984 0-2.3438 0.892-2.3438 2s1.0453 2 2.3438 2h35.312c1.2984 0 2.3438-0.892 2.3438-2s-1.0453-2-2.3438-2zm0 12c-1.2984 0-2.3438 0.892-2.3438 2s1.0453 2 2.3438 2h22.406c1.2984 0 2.3437-0.892 2.3438-2 0-1.108-1.0453-2-2.3438-2zm0.0313 12c-1.3219 0-2.375 0.892-2.375 2s1.0531 2 2.375 2h23.562c1.3219 0 2.375-0.892 2.375-2s-1.0531-2-2.375-2zm-99.938 16c-1.3465 0-2.4375 0.892-2.4375 2s1.091 2 2.4375 2h135.12c1.3465 0 2.4375-0.892 2.4375-2s-1.091-2-2.4375-2zm0 12c-1.3465 0-2.4375 0.892-2.4375 2s1.091 2 2.4375 2h135.12c1.3465 0 2.4375-0.892 2.4375-2s-1.091-2-2.4375-2zm0 12c-1.3504 0-2.4375 0.892-2.4375 2s1.0871 2 2.4375 2h35.375c1.3504 0 2.4375-0.892 2.4375-2s-1.0871-2-2.4375-2z" fill-rule="evenodd" opacity=".07"/><rect x="84" y="394.36" width="92" height="64" rx="0" ry="0" fill="url(#v)"/><g transform="translate(0 -32.637)" clip-path="url(#ak)"><circle transform="matrix(1.7131 0 0 1.3785 -77.804 -183.18)" cx="110.79" cy="483.03" r="14.01" fill="#fef39e" filter="url(#ab)"/><circle transform="matrix(1.1421 0 0 1.1421 -14.536 -68.656)" cx="110.79" cy="483.03" r="14.01" fill="#fef39e"/><circle transform="matrix(.99486 0 0 .99486 1.775 2.4562)" cx="110.79" cy="483.03" r="14.01" fill="#fffbd7" filter="url(#ad)"/></g><path d="m112 441.3c-5.0025 0-9.0625 4.06-9.0625 9.0625 0 0.29184 4e-3 0.5902 0.0313 0.875h18.062c0.027-0.2848 0.0313-0.58316 0.0313-0.875 0-5.0025-4.06-9.0625-9.0625-9.0625z" fill="#fff" filter="url(#ac)"/><path d="m84 451.49c22.498-3.4115 40.875-0.16667 60.875-0.125l31.125-1.75v8.75h-92z" fill="url(#u)"/><path d="m109.41 399.14c4.9521 3.1562 10.098 2.36 13.812 6.2812 0.20853 0.22012 0.41543 0.41335 0.625 0.625-0.91227 0.0132-3.3617-0.64471-5.8125-0.21875-2.04 0.35455-4.026-0.55433-6.4375 1.0312 2.8086-1.177 5.0587-0.41657 7.3125-0.71875 1.757-0.23558 4.8595 0.60574 6.8438 1.75 3.1991 2.92 6.0681 5.0034 6.6562 7.0312 0.75156 2.5912 0.93062 10.177 0.96875 13.312-0.33977-0.27402-0.66062-0.5645-0.96875-0.875-0.68906-0.71321-1.3477-1.4778-2.1562-2.0625-0.77698-0.56343-1.5827-1.081-2.2188-1.8125-0.66486-0.8969-1.4471-1.6971-2.1875-2.5312-0.70592-0.72238-1.4565-1.3967-2.125-2.1562-0.61554-0.75741-1.3361-1.4232-2.1875-1.9062-0.77581-0.47272-1.5828-1.0033-2.5312-0.96875-0.47451-0.0791-0.95887-0.19127-1.3125-0.53125-0.59769-0.44175-1.3243-0.71337-2.0625-0.78125l0.125 0.0625c0.9109 0.24481 1.6818 0.8215 2.4062 1.4062 0.82464 0.41098 1.8702 0.34115 2.5312 1.0625 0.70456 0.74408 1.7606 1.1436 2.2812 2.0625 0.20942 0.35023 0.44974 0.66458 0.71875 0.96875-0.70331 0.27896-1.3791 1.262-1.875 1.5938-1.2981 0.86836-4.6092-2.7475-7.5-2.4062 2.0854-0.0469 5.7552 2.5084 6.4688 2.7188 0.55836 0.16459-1.6664 2.1036-3.375 3.0312 1.5174-0.43138 3.9773-2.5172 4.4375-2.625 0.57771-0.13527 1.1621-1.9473 2.4375-1.6875 0.26687 0.28232 0.53984 0.57255 0.78125 0.875 0.69303 0.78032 1.3858 1.5403 1.9688 2.4062 0.85162 1.0618 1.9547 1.8779 2.875 2.875 0.7471 0.7803 1.3951 1.6458 2.0938 2.4688 0.93323 1.1249 1.8793 2.2501 2.8125 3.375 0.42144 0.87267 1.0317 1.6104 1.6562 2.3438 0.66563 0.75999 1.3096 1.5578 1.8125 2.4375 0.59909 0.89138 1.1135 1.8414 1.5 2.8438 0.30827 0.94828 0.48395 1.9214 0.625 2.9062 0.19051 1.037 0.34872 2.0991 0.25 3.1562-0.14578 1.5715-0.30651 3.1462-0.4375 4.7188-0.0217 0.7843-0.12135 1.6214 0.25 2.3438 0.88575 0.56065 1.944 0.69175 2.9688 0.75 0.86591-0.0236 1.7265-0.22461 2.4688-0.6875 0.31904-0.16231 0.63392-0.49478 0.46875-0.875-0.18667-1.0174-0.40295-2.0314-0.5-3.0625-0.1344-1.1527-0.25974-2.311-0.34375-3.4688-0.099-1.0951-0.14847-2.1826-0.1875-3.2812 0.0322-1.002 0.0767-2.0359 0.375-3 0.32471-0.94223 0.65194-2.1835 1.25-2.9688 0.85084-1.0428 2.1162-1.5162 3.0938-2.4375 0.82415-0.71738 1.6886-1.3898 2.4688-2.1562 0.75889-0.71303 1.6336-2.171 2.3125-2.9688 0.7624-0.80646 1.4899-0.89854 2.2188-1.625 0.18969-0.12973 0.38766-0.25786 0.59375-0.375 0.52915-0.26792 1.0411-0.57592 1.7188-0.625 0.70029 0.0397 1.394-0.19008 2.0938-0.0937 0.70007 0.0559 1.0293 0.72896 1.7812 0.65625 0.66535-0.12321 1.3522-0.12021 2.0312-0.0625-0.21541-0.0835-0.44604-0.15445-0.6875-0.1875-0.48981-0.0904-0.98368 0.0758-1.4688 0.0313-0.63207-0.054-0.8309-0.55639-1.375-0.71875-0.66242-0.11588-1.3594 0.10128-2.0312 0.0625-0.5382-0.0737-1.0553 0.0455-1.5938 0.0313 0.76409-1.1233 1.4432-2.4472 2.25-3.375 1.3398-1.2447 2.987-2.4822 4.0312-2.9688 1.3919-0.64849 2.3846 0.15819 4.2188-0.75-2.0398 0.86066-3.2805-0.27726-5.6875 1.125-1.3263 0.76242-2.2125 1.1866-2.9688 1.7188-1.5881-1.3451-0.70451-6.0617-2.0938-8.7812 0.0827-0.0958 0.125-0.20732 0.125-0.34375 1.5442-0.65828 3.8554-0.62579 5.3438-0.34375 1.8094 0.34285 1.1428 0.69721 2.0625 0.75 0.8083 0.0464 2.2134 0.8335 3.3438 1.2812 1.2226 0.48428 1.5383-0.0211 3.8438 1.2188-1.6552-1.1205-3.3491-1.1322-3.5938-1.4062 0.7457-2.4294 3.7961-2.8874 5.0625-5.1875-1.7644 2.5927-4.053 2.3398-5.2812 5.0938-1.2265-0.34407-2.4426-0.89298-3.0625-1.2812 1.4979-1.8748-1.6865-7.1896-1.7812-9-0.11059 2.4131 2.8308 5.847 1.25 8.8125-3.1678-1.2587-5.7502-0.78886-7.4375-0.40625-0.0628-0.0425-0.14103-0.0804-0.21875-0.0937-1.3849-2.0411-0.95284-3.5457-2.5-5.7812 0.85981 2.0352 1.0308 4.2145 1.875 5.9688 0.0201 0.0419 0.0431 0.0827 0.0625 0.125-0.0385 0.0749-0.0625 0.16002-0.0625 0.25 0 0.22641 0.14749 0.41694 0.34375 0.5 0.92516 2.7208 0.58242 6.1324 0.8125 8.6562-2.3395-3.8392-5.1562-3.9023-6.7812-10.25 1.3491 7.7694 7.4282 8.4637 5.875 13.344-1.1892 1.2392-3.1172 3.336-4.0312 4.25-0.76285 0.67868-1.5958 1.2684-2.4375 1.8438-0.87643 0.65389-0.79689 1.1332-1.7188 1.7188-0.68733 0.46263-2.2481 0.96188-2.8438 1.4375-0.77914 0.62211-1.2104 1.4697-1.875 2.3125-0.35417 0.47917-1.2396 0.61458-1.5625 1.25-0.32894-1.3324-1.2862-3.8088-3.0938-4.8438-0.89341-0.51154-1.8948-1.4387-2.625-2.2188-0.16244-0.16986-0.32136-0.31728-0.5-0.46875-1.2415-3.0007-1.3751-6.7091-1.6562-10.062 0.097-0.0922 0.17429-0.19076 0.28125-0.28125 0.53668-0.40499 1.0314-0.85932 1.9375-1.125 1.0036-0.19673 1.6425 0.33535 2.6875 0.1875 1.0153-0.18272 1.852-1.0645 2.8438-1.375 0.83379-0.32538 2.075-0.13823 3.0625-0.3125-1.1481 0.056-2.2651-0.14799-3.375 0.1875-0.91936 0.16193-1.4661 1.1166-2.3438 1.1562-1.0076 0.1187-1.6305-0.40688-2.5938-0.21875-0.80343 0.11401-1.4592 0.39725-2.2188 0.5625-0.096-0.0611-0.4129 0.0496-0.40625-0.0625-0.0616-0.56577-0.12813-1.1274-0.21875-1.6562-0.06-3.8967 4.2735-2.5702 5.1562-3.25 0.58133-0.44768 3.8545-3.0494 6.75-3.6562-3.4352 0.61964-6.8993 3.236-6.5625 2.4062 0.43039-1.0604 0.76035-7.918 2.8438-10.375-3.2326 3.1378-1.9374 10.598-4.2812 11.312-1.1493 0.35058-3.9482-0.0106-4.4375 1.375-0.10489-0.29885-0.21204-0.57258-0.34375-0.84375-0.84843-1.7468-3.2081-3.669-5.7188-5.8438-0.24719-1.2233 1.7086-1.6135 1.9062-2.125 0.15296-0.39577 2.4216-2.3888 3-3.6875-1.0818 1.4262-3.1791 3.223-3.2812 2.7188-0.13053-0.6444-2.2318-4.077-1.9688-5.9062-0.63373 2.5132 2.5124 5.711 1.5312 6.7812-0.40432 0.441-1.5683 1.0007-1.8125 1.6562-1.2132-1.0658-2.4193-2.1804-3.5312-3.4062-3.251-3.584-5.7455-2.0317-14.312-5.6562z" fill-rule="evenodd"/><path d="m142.91 452.24c-0.99296 0.048-1.9825 0.16292-2.5625 0.625 0.0227 0.59538 0.58177 1.2911 1.0312 1.9375 0.90796 1.1902 1.8268 2.3727 2.75 3.5625h4.9688c-0.42722-0.7657-0.82207-1.5501-1.2188-2.3125-0.46532-0.84979-0.81924-1.6927-1.1875-2.5312-0.0422-0.31337-0.52993-0.58499-0.9375-0.71875-0.99474-0.3815-1.965-0.54306-2.8438-0.5625z" fill="url(#t)" fill-rule="evenodd" opacity=".7973"/><path d="m84 337.96c2.2592 2.2e-4 0.15567 4.8276 2.9567 3.6246-2.8068 2.9159-3.6822-1.54-2.9567-3.6246zm5.335 1.7637c-3.2286 2.3664 3.082 2.2069 0 0zm0-0.75c4.5706 0.36984-1.9309 6.2546-1.8282 1.5967 0.0521-0.89784 0.9009-1.7273 1.8282-1.5967zm5.001 0.97266c-1.8079-0.19303-2.1078 4.3416-2.6372 0.29361-0.0234-1.2796 3.0302-2.0534 2.6372-0.29361zm3.8027 0.73828c-1.4297-0.12042-2.5296 0.91983-0.5579 1.3502-3.5969 2.5659-3.852-4.9714-0.0411-2.7151 0.42159 0.30462 0.68067 0.84234 0.59904 1.3649zm-1.0781-0.34864c-0.77338-1.8873-2.1208 0.98957 0 0zm4.9102-0.73828c2.426-3.1605 2.4694 5.3563 1.0764 1.0652-0.57389-1.6176-1.8054 3.5823-2.0525 0.54387-0.4559-3.1288-1.6726 3.1914-2.0871-0.1377-1.16-1.8832 2.1496-2.8258 3.0632-1.4713zm5.3027-0.54492c2.9693-0.0713-0.60814 5.4449 0 1.3248v-0.66239zm0-1.2773c2.1942-0.82867-0.26147 2.2893 0 0zm3.1113 4.084c-0.48196 4.133-3.042-3.8719 0.53963-2.72 3.2043 0.38011 1.7875 4.6969-0.53963 2.72zm0.69726-2.124c-3.1526 2.3363 3.017 2.1768 0 0zm5.1182-0.58008c-1.2118 1.1798-1.5918 0.84732 0.0731 1.8647 0.4682 2.1082-4.9457 1.1274-1.3836 0.31588-2.7745-1.5415-1.0495-2.8545 1.3105-2.1806zm0.97558 1.9014c-0.59486-2.2088 1.4876-1.4979 1.5372 0.19693 0.67078-1.914 2.1969-2.6795 1.9998-7e-3 -0.41974 1.5923-3.3278 1.5054-3.5369-0.19015zm7.3535-1.459c2.426-3.1604 2.4694 5.3563 1.0764 1.0652-0.57388-1.6176-1.8054 3.5823-2.0525 0.54384-0.45591-3.1288-1.6726 3.1914-2.0871-0.1377-1.16-1.8832 2.1496-2.8258 3.0632-1.4713zm7.5352-0.0645c0.60329-4.1223 3.0162 4.2823-0.75865 2.8094-2.6702-0.076-1.7482-4.9586 0.75865-2.8094zm-0.6914 2.124c3.133-2.3368-3.0051-2.174 0 0zm4.3213-1.9336c-3.2286 2.3664 3.082 2.207 0 0zm0-0.75c4.5706 0.36984-1.9309 6.2546-1.8282 1.5967 0.0521-0.89784 0.90091-1.7273 1.8282-1.5967zm2.5635-1.1982c2.9916 0.0349-0.053 6.9393 0 2.4577v-2.4577zm3.624 1.9482c-3.2286 2.3664 3.082 2.207 0 0zm0-0.75c4.5706 0.36984-1.9309 6.2546-1.8282 1.5967 0.0521-0.89784 0.90091-1.7273 1.8282-1.5967zm5.001 0.97266c-1.8079-0.19303-2.1078 4.3416-2.6372 0.29361-0.0234-1.2796 3.0302-2.0534 2.6372-0.29361zm5.1768-0.79102c-1.2119 1.1798-1.5918 0.84732 0.0731 1.8647 0.4682 2.1082-4.9457 1.1274-1.3836 0.31588-2.7745-1.5415-1.0495-2.8545 1.3105-2.1806zm1.0107-0.10254c2.9693-0.0712-0.60814 5.4449 0 1.3248v-0.66239zm0-1.2773c2.1942-0.82866-0.2615 2.2893 0 0zm3.208 0.3457c1.2116 1.2508 0.37638 1.8501 0.32704 2.5567 1.0412 5.2241-4.1091-3.0261-0.32704-2.5567zm5.2822 2.7363c-2.041 0.6079 1.4509 0.79927 0 0zm1.6025-0.39551c1.0718 3.3919-5.6569 1.0494-1.6452-0.49483-3.2-0.75684 1.5807-1.7749 1.7342 0.0852l-0.089 0.40963zm4.0225-0.86426c2.426-3.1604 2.4694 5.3563 1.0764 1.0652-0.57389-1.6176-1.8054 3.5823-2.0525 0.54387-0.45591-3.1288-1.6726 3.1914-2.0871-0.13771-1.16-1.8832 2.1496-2.8258 3.0632-1.4713zm6.4922 1.0869c-1.4297-0.12042-2.5296 0.91982-0.5579 1.3502-3.5969 2.5659-3.852-4.9714-0.0411-2.7151 0.42159 0.30463 0.68066 0.84235 0.59904 1.3649zm-1.0781-0.34864c-0.77338-1.8873-2.1208 0.98957 0 0zm3.0146-2.2148c1.2116 1.2508 0.37636 1.8501 0.32704 2.5567 1.0412 5.2242-4.1091-3.0261-0.32704-2.5567zm1.834 3.0791c2.6891-0.4698-0.53642 2.8186 0 0z" fill="#555753"/><path d="m99.531 357.96c-0.36183 1.8262 1.5604-0.24924 0 0zm10.375 0 0.0625 1.1562c-0.73473 5.8582 1.7923 1.4446-0.0625-1.1562zm1.6562 0c-0.36182 1.8262 1.5604-0.24924 0 0zm46.156 0 0.0625 1.1562c-0.73473 5.8582 1.7923 1.4446-0.0625-1.1562zm8.6562 0c-0.36183 1.8262 1.5604-0.24924 0 0zm5.4688 0c-0.36182 1.8262 1.5604-0.24924 0 0zm8.9062 0-1.2188 0.28125-0.53125 0.625c0.3167 6.0811 0.51347 1.1503 1.75-0.90625zm11.75 0c-0.36182 1.8262 1.5604-0.24924 0 0zm11.531 0 0.0625 1.1562c-0.73473 5.8582 1.7923 1.4446-0.0625-1.1562zm-119.62 0.1875c-0.34255 3.1023 0.70463 6.6315 0.59375 1.375 0.40295 1.1917 2.0776 3.2282 2.875-0.21875-0.85821 6.2841 2.0402 0.0704-0.0937-1-1.8235 4.5008-1.0938 0.67261-3.375-0.15625zm59.906 0.15625-0.4375 0.71875c0.30858 5.5817 2.0265 2.0889 0.71875-0.71875zm53.812 0-0.4375 0.71875c0.30858 5.5817 2.0265 2.0889 0.71875-0.71875zm-72.469 0.59375c-2.054-0.0851-1.3036 7.3108-0.125 1.0938 2.3688 1.1221 0.30696 3.7517 2.5312-0.125 1.447 5.9442 1.979-2.9018-0.96875 0-0.58945-0.66146-1.0571-0.953-1.4375-0.96875zm38.875 0.1875c-1.2199-0.0317-2.0761 1.3814-1.5 2.625 4.5074 3.1583-1.8322-1.8093 2.4062-2.3438-0.30354-0.17975-0.62473-0.27392-0.90625-0.28125zm4.8125 0c-1.1481-0.0927-2.2132 1.6683-1.0625 3.3438 0.3672-6.9231 2.7448 2.9104 2.4688-1.9062-0.36403-0.97439-0.88437-1.3954-1.4062-1.4375zm-79.062 0.0313c-0.87066-0.0185-1.2984 0.39296 0.9375 1-1.5096 0.20207-1.792 0.79253-1.5625 1.3438 0.16006-0.16622 0.58528-0.37203 1.4062-0.59375 1.5769 1.046-0.3514 1.2564-1.1562 1 0.78072 0.84892 2.6356 1.2044 2.2188-1.2188 0.34656-1.0715-0.97309-1.5128-1.8438-1.5312zm-0.375 2.75c-0.11432-0.1243-0.19246-0.26805-0.25-0.40625-0.17733 0.18415-0.0265 0.3182 0.25 0.40625zm11.844-2.75c-2.3036 0.0776 3.3721 3.7731-0.6875 2.9688 4.9091 1.3552-1.4885-2.372 2.2188-2.75-0.70534-0.16068-1.2022-0.22983-1.5312-0.21875zm5.1875 0c-0.87065-0.0185-1.2671 0.39296 0.96875 1-1.5038 0.2013-1.8183 0.79424-1.5938 1.3438 0.16006-0.16623 0.58528-0.37203 1.4062-0.59375 1.5951 1.0581-0.36907 1.239-1.1562 0.96875 0.77011 0.86257 2.67 1.2538 2.25-1.1875 0.34655-1.0715-1.0044-1.5128-1.875-1.5312zm-0.375 2.7188c-0.10791-0.12087-0.19552-0.24166-0.25-0.375-0.17136 0.17796-8e-3 0.28633 0.25 0.375zm8.5-2.7188c-1.2853-0.0252-3.1323 3.7199-0.40625 3.125-0.25966 0.0334-0.62448-0.31003-1.0938-1.375 1.5517-3.4184 1.9598 0.82041 1.2188 1.3438 0.18998-0.0474 0.39223-0.0981 0.625-0.1875-0.24541 3.3018 1.0403 0.69718 0.59375-1.0312-0.0798-1.3642-0.47484-1.8659-0.9375-1.875zm6.5 0c-0.87065-0.0185-1.2671 0.39296 0.96875 1-1.5038 0.2013-1.8183 0.79424-1.5938 1.3438 0.16006-0.16623 0.58528-0.37203 1.4062-0.59375 1.5951 1.0581-0.36907 1.239-1.1562 0.96875 0.77011 0.86257 2.67 1.2538 2.25-1.1875 0.34655-1.0715-1.0044-1.5128-1.875-1.5312zm-0.375 2.7188c-0.10791-0.12087-0.19552-0.24166-0.25-0.375-0.17136 0.17796-8e-3 0.28633 0.25 0.375zm19.875-2.7188c-0.87066-0.0185-1.2672 0.39296 0.96875 1-1.5134 0.20259-1.7953 0.7914-1.5625 1.3438 0.16006-0.16623 0.55403-0.37203 1.375-0.59375 1.574 1.0441-0.31754 1.2542-1.125 1 0.78245 0.84661 2.6351 1.2013 2.2188-1.2188 0.34656-1.0715-1.0043-1.5128-1.875-1.5312zm-0.34375 2.75c-0.11453-0.12393-0.19187-0.26834-0.25-0.40625-0.17827 0.18513-0.0293 0.31832 0.25 0.40625zm19.375-2.75c-0.87065-0.0185-1.2671 0.39296 0.96875 1-1.5038 0.2013-1.8183 0.79424-1.5938 1.3438 0.16006-0.16623 0.58528-0.37203 1.4062-0.59375 1.5951 1.0581-0.36907 1.239-1.1562 0.96875 0.77011 0.86257 2.6387 1.2538 2.2188-1.1875 0.34656-1.0715-0.9731-1.5128-1.8438-1.5312zm-0.375 2.7188c-0.10791-0.12087-0.19552-0.24166-0.25-0.375-0.17136 0.17796-8e-3 0.28633 0.25 0.375zm14.5-2.7188c-0.87066-0.0185-1.2672 0.39296 0.96875 1-1.5096 0.20207-1.8232 0.79253-1.5938 1.3438 0.16006-0.16623 0.58528-0.37203 1.4062-0.59375 1.5769 1.046-0.3514 1.2564-1.1562 1 0.78072 0.84892 2.6356 1.2044 2.2188-1.2188 0.34656-1.0715-0.97309-1.5128-1.8438-1.5312zm-0.375 2.75c-0.11432-0.1243-0.19246-0.26805-0.25-0.40625-0.17733 0.18416-0.0265 0.3182 0.25 0.40625zm21.031-2.75c-0.87066-0.0185-1.2672 0.39296 0.96875 1-1.5134 0.20259-1.7953 0.7914-1.5625 1.3438 0.16006-0.16623 0.55403-0.37203 1.375-0.59375 1.574 1.0441-0.31754 1.2542-1.125 1 0.78245 0.84661 2.6351 1.2013 2.2188-1.2188 0.34656-1.0715-1.0043-1.5128-1.875-1.5312zm-0.34375 2.75c-0.11453-0.12393-0.19187-0.26834-0.25-0.40625-0.17827 0.18513-0.0293 0.31832 0.25 0.40625zm16.125-2.7188c-6.0571 4.4188 5.8513 3.7139 0 0zm-112.84 0.0313c-0.44062 0.0706-0.84243 0.37842-0.90625 0.875 0.63567 4.7486-0.11217-0.40828 2.0625-0.3125-0.21639-0.44854-0.71563-0.63312-1.1562-0.5625zm37.781 0c-1.257 0.0933-2.6891 1.4889-1.2812 2.6875 5.6553 1.6646-2.8837-1.0104 2.6875-1.125 0.0165-1.2061-0.65205-1.6185-1.4062-1.5625zm3.0625 0c-0.44062 0.0706-0.84244 0.37842-0.90625 0.875 0.63566 4.7486-0.14341-0.40828 2.0312-0.3125-0.21639-0.44854-0.68438-0.63312-1.125-0.5625zm11.031 0c-1.257 0.0934-2.6891 1.4889-1.2812 2.6875 5.6553 1.6646-2.8525-1.0104 2.7188-1.125 0.0165-1.2061-0.6833-1.6185-1.4375-1.5625zm32.906 0c-1.257 0.0934-2.6891 1.4889-1.2812 2.6875 5.6553 1.6646-2.8837-1.0104 2.6875-1.125 0.0165-1.2061-0.65205-1.6185-1.4062-1.5625zm24.469 0c-1.257 0.0933-2.6578 1.4889-1.25 2.6875 5.6553 1.6647-2.8837-1.0104 2.6875-1.125 0.0165-1.2061-0.6833-1.6185-1.4375-1.5625zm-16.688 0.0313c-1.6637 0.22572-3.9216 3.0552 0.28125 3.0938-2.5918 1.0557-0.30343 2.3672 0.75-0.1875 0.53524-2.069 0.035-2.8364-0.71875-2.9062-0.10364-0.01-0.20159-0.015-0.3125 0zm-90.844 0.0313c-0.88512 4.44 1.804 2.6515 0 0zm12.031 0c-0.88512 4.44 1.804 2.6515 0 0zm54.812 0c-0.88513 4.44 1.804 2.6515 0 0zm5.4688 0c-0.88512 4.44 1.804 2.6515 0 0zm20.656 0c-0.8851 4.44 1.804 2.6515 0 0zm-96.844 0.0937c-0.36473 6.9363-2.7458-2.9521-2.4688 1.875 1.1678 3.1202 4.1372 0.55599 2.4688-1.875zm23.812 0c-0.36472 6.9363-2.7458-2.9521-2.4688 1.875 1.1678 3.1202 4.1372 0.55598 2.4688-1.875zm34.969 0c-0.36473 6.9363-2.7771-2.9521-2.5 1.875 1.1678 3.1202 4.1685 0.55599 2.5-1.875zm32.875 0c-0.36472 6.9363-2.7458-2.9521-2.4688 1.875 1.1678 3.1202 4.1372 0.55599 2.4688-1.875zm2.375 0.15625c0.26325-0.13395 0.66228 0.18096 1.1875 1.3438-1.5818 3.3789-1.9772-0.94191-1.1875-1.3438zm-54.031 0.125c0.2903 0.0295 0.59569 0.30611 0.8125 0.96875-2.3966 0.9093-1.6834-1.0573-0.8125-0.96875zm14.094 0c0.2903 0.0295 0.62694 0.30611 0.84375 0.96875-2.3966 0.90931-1.7146-1.0573-0.84375-0.96875zm32.906 0c0.2903 0.0295 0.59569 0.30611 0.8125 0.96875-2.3966 0.9093-1.6834-1.0573-0.8125-0.96875zm24.5 0c0.2903 0.0295 0.59569 0.30611 0.8125 0.96875-2.3966 0.90931-1.6834-1.0573-0.8125-0.96875zm3.5 0c3.7109 2.974-3.8144 2.7536 0 0zm-80.125 2.1562c-1.389 2.6591 1.8876 0.40354 0 0zm69.812 0c-1.389 2.6591 1.8876 0.40354 0 0zm-112.16 8.1875c-0.36183 1.8262 1.5604-0.24924 0 0zm4.8125 0 0.0313 1.1562c-0.73473 5.8582 1.8235 1.4445-0.0313-1.1562zm28.156 0c-0.36183 1.8262 1.5604-0.24924 0 0zm52.656 0c-0.36182 1.8262 1.5604-0.24924 0 0zm6.375 0c-0.36182 1.8262 1.5604-0.24924 0 0zm9.1875 0c-0.36182 1.8262 1.5604-0.24924 0 0zm-70.312 0.34375-0.46875 0.71875c0.30859 5.5817 2.0264 2.0889 0.71875-0.71875zm56.688 0-0.46875 0.71875c0.30858 5.5817 2.0265 2.0889 0.71875-0.71875zm2.3438 0-0.4375 0.71875c0.30859 5.5817 2.0265 2.0889 0.71875-0.71875zm26.031 0.59375c-2.054-0.0851-1.3036 7.3108-0.125 1.0938 2.3688 1.1221 0.30694 3.7517 2.5312-0.125 1.447 5.9442 1.979-2.9017-0.96875 0-0.58945-0.66146-1.0571-0.953-1.4375-0.96875zm-118.44 0.1875c-1.1481-0.0927-2.2132 1.6683-1.0625 3.3438 0.36721-6.9231 2.7761 2.9104 2.5-1.9062-0.36403-0.97438-0.91562-1.3954-1.4375-1.4375zm19.406 0c-1.1481-0.0927-2.1819 1.6683-1.0312 3.3438 0.36719-6.923 2.7449 2.9104 2.4688-1.9062-0.36403-0.97439-0.91562-1.3954-1.4375-1.4375zm7.5 0c-1.1481-0.0927-2.1819 1.6683-1.0312 3.3438 0.36719-6.923 2.7449 2.9104 2.4688-1.9062-0.36403-0.97439-0.91562-1.3954-1.4375-1.4375zm16.562 0c-1.1481-0.0927-2.2132 1.6683-1.0625 3.3438 0.36721-6.923 2.7761 2.9104 2.5-1.9062-0.36403-0.97438-0.91562-1.3954-1.4375-1.4375zm22.625 0c-1.1481-0.0927-2.2132 1.6683-1.0625 3.3438 0.36722-6.9231 2.7761 2.9104 2.5-1.9062-0.36403-0.97438-0.91562-1.3954-1.4375-1.4375zm7.6875 0c-1.2199-0.0317-2.1073 1.3814-1.5312 2.625 4.5074 3.1583-1.8322-1.8093 2.4062-2.3438-0.30354-0.17975-0.59348-0.27392-0.875-0.28125zm-69.031 0.0312c-2.3036 0.0776 3.3408 3.7731-0.71875 2.9688 4.9091 1.3552-1.4885-2.372 2.2188-2.75-0.70534-0.16068-1.1709-0.22983-1.5-0.21875zm25.375 0c-0.87066-0.0185-1.2671 0.39296 0.96875 1-1.5038 0.2013-1.8183 0.79424-1.5938 1.3438 0.16006-0.16623 0.58528-0.37203 1.4062-0.59375 1.574 1.0441-0.31754 1.2542-1.125 1 0.78245 0.84661 2.6351 1.2013 2.2188-1.2188 0.34656-1.0715-1.0043-1.5128-1.875-1.5312zm-0.34375 2.75c-0.11746-0.12709-0.22339-0.26464-0.28125-0.40625-0.17826 0.18513 2e-3 0.31832 0.28125 0.40625zm7.9062-2.75c-2.3036 0.0776 3.3408 3.7731-0.71875 2.9688 4.9091 1.3552-1.4572-2.372 2.25-2.75-0.70534-0.16068-1.2022-0.22983-1.5312-0.21875zm13.781 0c-1.2858-0.0252-3.1053 3.7233-0.375 3.125-0.26132 0.0669-0.60571-0.26744-1.0938-1.375 1.5535-3.4224 1.9321 0.82841 1.1875 1.3438 0.19516-0.0476 0.38404-0.0949 0.625-0.1875-0.2454 3.3018 1.0403 0.69717 0.59375-1.0312-0.0798-1.3642-0.47484-1.8659-0.9375-1.875zm26.594 0c-2.3036 0.0776 3.372 3.7731-0.6875 2.9688 4.9091 1.3552-1.4885-2.372 2.2188-2.75-0.70534-0.16068-1.2022-0.22983-1.5312-0.21875zm3.2812 0c-0.87065-0.0185-1.2671 0.39296 0.96875 1-1.5038 0.2013-1.8183 0.79424-1.5938 1.3438 0.16006-0.16623 0.58528-0.37203 1.4062-0.59375 1.5951 1.0581-0.36907 1.239-1.1562 0.96875 0.77011 0.86257 2.6387 1.2538 2.2188-1.1875 0.34656-1.0715-0.9731-1.5128-1.8438-1.5312zm-0.375 2.7188c-0.10791-0.12087-0.19552-0.24166-0.25-0.375-0.17136 0.17796-8e-3 0.28633 0.25 0.375zm15.75-2.7188c-2.3036 0.0776 3.372 3.7731-0.6875 2.9688 4.9091 1.3552-1.4885-2.372 2.2188-2.75-0.70534-0.16068-1.2022-0.22983-1.5312-0.21875zm9.1875 0c-2.3036 0.0776 3.3408 3.7731-0.71875 2.9688 4.9091 1.3552-1.4572-2.372 2.25-2.75-0.70534-0.16068-1.2022-0.22983-1.5312-0.21875zm6.9375 0c-2.3036 0.0776 3.3408 3.7731-0.71875 2.9688 4.9091 1.3552-1.4572-2.372 2.25-2.75-0.70534-0.16068-1.2022-0.22983-1.5312-0.21875zm11.031 0c-0.87066-0.0185-1.2672 0.39296 0.96875 1-1.5096 0.20207-1.8232 0.79253-1.5938 1.3438 0.16006-0.16623 0.58528-0.37203 1.4062-0.59375 1.5769 1.046-0.3514 1.2564-1.1562 1 0.78072 0.84892 2.6356 1.2044 2.2188-1.2188 0.34656-1.0715-0.97309-1.5128-1.8438-1.5312zm-0.375 2.75c-0.11432-0.1243-0.19246-0.26805-0.25-0.40625-0.17733 0.18416-0.0265 0.3182 0.25 0.40625zm3.9062-2.75c-2.3036 0.0776 3.3408 3.7731-0.71875 2.9688 4.9091 1.3552-1.4572-2.372 2.25-2.75-0.70534-0.16068-1.2022-0.22983-1.5312-0.21875zm3.125 0c-2.3036 0.0776 3.372 3.7731-0.6875 2.9688 4.9091 1.3552-1.4885-2.372 2.2188-2.75-0.70534-0.16068-1.2022-0.22983-1.5312-0.21875zm3.2812 0c-0.87066-0.0185-1.2672 0.39296 0.96875 1-1.5096 0.20207-1.8232 0.79253-1.5938 1.3438 0.16006-0.16623 0.58528-0.37203 1.4062-0.59375 1.5769 1.046-0.3514 1.2564-1.1562 1 0.78072 0.84892 2.6356 1.2044 2.2188-1.2188 0.34656-1.0715-0.97309-1.5128-1.8438-1.5312zm-0.375 2.75c-0.11432-0.1243-0.19246-0.26805-0.25-0.40625-0.17733 0.18416-0.0265 0.3182 0.25 0.40625zm-117.62-2.6876c-1.257 0.0934-2.6891 1.4889-1.2812 2.6875 5.6553 1.6646-2.8837-1.0104 2.6875-1.125 0.0165-1.2061-0.65205-1.6185-1.4062-1.5625zm7.5 0c-1.257 0.0934-2.6891 1.4889-1.2812 2.6875 5.6553 1.6646-2.8837-1.0104 2.6875-1.125 0.0165-1.2061-0.65205-1.6185-1.4062-1.5625zm24.031 0c-1.257 0.0933-2.6891 1.4889-1.2812 2.6875 5.6553 1.6647-2.8525-1.0104 2.7188-1.125 0.0165-1.2061-0.6833-1.6185-1.4375-1.5625zm11.312 0c-1.257 0.0933-2.6891 1.4889-1.2812 2.6875 5.6553 1.6646-2.8525-1.0104 2.7188-1.125 0.0165-1.2061-0.6833-1.6185-1.4375-1.5625zm11.312 0c-1.257 0.0934-2.6891 1.4889-1.2812 2.6875 5.6553 1.6646-2.8525-1.0104 2.7188-1.125 0.0165-1.2061-0.6833-1.6185-1.4375-1.5625zm32 0c-0.44062 0.0706-0.84243 0.37842-0.90625 0.875 0.63566 4.7486-0.14342-0.40829 2.0312-0.3125-0.21639-0.44854-0.68438-0.63312-1.125-0.5625zm-16 0.0313c-1.6603 0.22572-3.8904 3.0552 0.3125 3.0938-2.5918 1.0557-0.33467 2.3672 0.71875-0.1875 0.53524-2.069 0.035-2.8364-0.71875-2.9062-0.10364-0.01-0.20181-0.015-0.3125 0zm-83.469 0.0312c-0.88512 4.44 1.804 2.6515 0 0zm8 0c0.96792 3.3876 2.0493 5.0129 2.9062 0.375-1.305 2.0481-1.1736 1.992-2.9062-0.375zm24.969 0c-0.88512 4.44 1.804 2.6515 0 0zm52.656 0c-0.88512 4.44 1.804 2.6515 0 0zm6.375 0c-0.88512 4.44 1.804 2.6515 0 0zm9.1875 0c-0.88512 4.44 1.804 2.6515 0 0zm-47.781 0.0937c-0.36473 6.9363-2.7771-2.9521-2.5 1.875 1.1678 3.1202 4.1685 0.55599 2.5-1.875zm55 0c-0.36472 6.9363-2.7771-2.9521-2.5 1.875 1.1678 3.1202 4.1684 0.55598 2.5-1.875zm-25.625 0.15625c0.26325-0.13395 0.66228 0.18097 1.1875 1.3438-1.5818 3.3789-1.9772-0.9419-1.1875-1.3438zm-69.406 0.125c0.2903 0.0295 0.59569 0.30611 0.8125 0.96875-2.3966 0.9093-1.6834-1.0573-0.8125-0.96875zm7.5 0c0.2903 0.0295 0.59569 0.30611 0.8125 0.96875-2.3966 0.9093-1.6834-1.0573-0.8125-0.96875zm24.062 0c0.2903 0.0295 0.59569 0.30611 0.8125 0.96875-2.3966 0.9093-1.6834-1.0573-0.8125-0.96875zm11.281 0c0.2903 0.0295 0.62694 0.30611 0.84375 0.96875-2.3966 0.90931-1.7146-1.0573-0.84375-0.96875zm11.344 0c0.2903 0.0295 0.59569 0.30611 0.8125 0.96875-2.3966 0.9093-1.6834-1.0573-0.8125-0.96875zm-8.9375 2.1562c-1.389 2.6591 1.8876 0.40356 0 0zm-55.188 8.1875 0.0625 1.1562c-0.73473 5.8582 1.7923 1.4445-0.0625-1.1562zm3.5625 0c-0.36183 1.8262 1.5604-0.24924 0 0zm61.656 0c-0.36182 1.8262 1.5604-0.24924 0 0zm15.438 0 0.0313 1.1562c-0.73472 5.8582 1.8235 1.4445-0.0313-1.1562zm10.844 0c-0.36183 1.8262 1.5604-0.24924 0 0zm-65.812 0.1875c-0.47335 2.6833 0.82848 6.5632 0.53125 1.2188 1.5119 3.9291 4.0453 3.3285 2.4375-1.1562-0.30062 5.6339-0.33129 1.4216-2.9688-0.0625zm41.469 0.15625-0.46875 0.71875c0.30858 5.5817 2.0264 2.0889 0.71875-0.71875zm22.25 0-0.46875 0.71875c0.30858 5.5817 2.0264 2.0889 0.71875-0.71875zm-47.594 0.0937c-0.42038 0.0341-0.40556 2.9634 0.0313 4.0312 0.36723-6.9231 2.7448 2.9104 2.4688-1.9062 0.41032-1.4379-1.0372-1.5005-1.9375-1.0312-0.22991-0.80211-0.42237-1.1051-0.5625-1.0938zm13.594 0.125c-0.10153-0.0336-0.21544 0.29766-0.34375 1.2188-1.1128-1.5837-3.0483 0.2993-2.25 1.75 2.9599 4.1758 3.0337-2.8231 2.5938-2.9688zm-38.312 0.375c-2.054-0.0851-1.2724 7.3107-0.0937 1.0938 2.3688 1.1221 0.2757 3.7517 2.5-0.125 1.447 5.9442 1.979-2.9017-0.96875 0-0.58946-0.66146-1.0571-0.953-1.4375-0.96875zm17.844 0c-2.054-0.0851-1.3036 7.3108-0.125 1.0938 2.3688 1.1221 0.30694 3.7517 2.5312-0.125 1.447 5.9442 1.979-2.9017-0.96875 0-0.58945-0.66146-1.0571-0.953-1.4375-0.96875zm37.312 0c-2.054-0.0851-1.3036 7.3108-0.125 1.0938 2.3688 1.1221 0.30695 3.7517 2.5312-0.125 1.447 5.9442 1.979-2.9017-0.96875 0-0.58945-0.66146-1.0571-0.953-1.4375-0.96875zm-65.844 0.0313c-1.7566 4e-3 -1.2329 7.0231-0.65625 3.0938 1.0981 1.5853 3.0437-0.30621 2.25-1.75-0.67822-0.96862-1.1884-1.3446-1.5938-1.3438zm43.969 0.1563c-1.1481-0.0927-2.1819 1.6683-1.0312 3.3438 0.36723-6.9231 2.7448 2.9104 2.4688-1.9062-0.36403-0.97438-0.91562-1.3954-1.4375-1.4375zm55.844 0c-1.1481-0.0927-2.1819 1.6683-1.0312 3.3438 0.3672-6.923 2.7448 2.9104 2.4688-1.9062-0.36403-0.97438-0.91562-1.3954-1.4375-1.4375zm-96.594 0.0313c-2.3036 0.0776 3.3408 3.7731-0.71875 2.9688 4.9091 1.3552-1.4572-2.372 2.25-2.75-0.70534-0.16068-1.2022-0.22983-1.5312-0.21875zm21.219 0c-0.87066-0.0185-1.2671 0.39296 0.96875 1-1.5038 0.2013-1.8183 0.79424-1.5938 1.3438 0.16006-0.16623 0.58528-0.37203 1.4062-0.59375 1.574 1.0441-0.31754 1.2542-1.125 1 0.78245 0.84661 2.6351 1.2013 2.2188-1.2188 0.34656-1.0715-1.0043-1.5128-1.875-1.5312zm-0.34375 2.75c-0.11746-0.12709-0.22339-0.26464-0.28125-0.40625-0.17826 0.18513 2e-3 0.31832 0.28125 0.40625zm56.062-2.75c-2.3036 0.0776 3.372 3.7731-0.6875 2.9688 4.9091 1.3552-1.4885-2.372 2.2188-2.75-0.70534-0.16068-1.2022-0.22983-1.5312-0.21875zm22.875 0c-0.87066-0.0185-1.2672 0.39296 0.96875 1-1.5134 0.20259-1.7953 0.7914-1.5625 1.3438 0.16006-0.16623 0.55403-0.37203 1.375-0.59375 1.574 1.0441-0.31754 1.2542-1.125 1 0.78245 0.84661 2.6351 1.2013 2.2188-1.2188 0.34656-1.0715-1.0043-1.5128-1.875-1.5312zm-0.34375 2.75c-0.11453-0.12393-0.19187-0.26834-0.25-0.40625-0.17827 0.18513-0.0293 0.31832 0.25 0.40625zm-30.844-2.7188c-6.0571 4.4188 5.8513 3.7139 0 0zm-80.562 0.0313c-1.257 0.0933-2.6891 1.4889-1.2812 2.6875 5.6553 1.6647-2.8525-1.0104 2.7188-1.125 0.0165-1.2061-0.6833-1.6185-1.4375-1.5625zm49.094 0c-1.257 0.0933-2.6891 1.4889-1.2812 2.6875 5.6553 1.6646-2.8837-1.0104 2.6875-1.125 0.0165-1.2061-0.65205-1.6185-1.4062-1.5625zm10.688 0c-0.44063 0.0706-0.84244 0.37842-0.90625 0.875 0.63567 4.7486-0.14342-0.40828 2.0312-0.3125-0.21639-0.44854-0.68437-0.63312-1.125-0.5625zm2.9375 0c-1.257 0.0933-2.6578 1.4889-1.25 2.6875 5.6553 1.6647-2.8837-1.0104 2.6875-1.125 0.0165-1.2061-0.6833-1.6185-1.4375-1.5625zm3.0938 0c-0.44062 0.0706-0.84243 0.37842-0.90625 0.875 0.63566 4.7486-0.14342-0.40829 2.0312-0.3125-0.21639-0.44854-0.68438-0.63312-1.125-0.5625zm20.188 0c-1.257 0.0933-2.6891 1.4889-1.2812 2.6875 5.6553 1.6647-2.8525-1.0104 2.7188-1.125 0.0165-1.2061-0.6833-1.6185-1.4375-1.5625zm10.844 0c-1.257 0.0933-2.6891 1.4889-1.2812 2.6875 5.6553 1.6646-2.8525-1.0104 2.7188-1.125 0.0165-1.2061-0.6833-1.6185-1.4375-1.5625zm8.8125 0c-0.44062 0.0706-0.84243 0.37842-0.90625 0.875 0.63566 4.7486-0.14341-0.40828 2.0312-0.3125-0.21639-0.44854-0.68438-0.63312-1.125-0.5625zm-110.97 0.06245c0.96792 3.3876 2.0493 5.0129 2.9062 0.375-1.305 2.0481-1.1736 1.992-2.9062-0.375zm11.188 0c-0.88512 4.44 1.804 2.6515 0 0zm61.656 0c-0.88512 4.44 1.804 2.6515 0 0zm26.281 0c-0.88512 4.44 1.804 2.6515 0 0zm-76.906 0.0937c-0.36472 6.9363-2.7458-2.9521-2.4688 1.875 1.1678 3.1202 4.1372 0.55599 2.4688-1.875zm86.594 0c-0.36474 6.9363-2.7771-2.9521-2.5 1.875 1.1678 3.1202 4.1685 0.55599 2.5-1.875zm-94.75 0.15625c0.0557-0.0194 0.12084-0.0227 0.1875 0 0.24613 0.0837 0.5743 0.48173 0.96875 1.375-1.5964 3.5247-1.9923-1.0836-1.1562-1.375zm47.75 0.0625c1.0671-0.29167 0.73938 5.189-0.96875 1.3125 0.39385-0.86765 0.7225-1.2452 0.96875-1.3125zm-56.438 0.0625c0.2903 0.0295 0.62694 0.30611 0.84375 0.96875-2.3966 0.9093-1.7146-1.0573-0.84375-0.96875zm49.094 0c0.2903 0.0295 0.59569 0.30611 0.8125 0.96875-2.3966 0.9093-1.6834-1.0573-0.8125-0.96875zm13.656 0c0.2903 0.0295 0.59569 0.30611 0.8125 0.96875-2.3966 0.90931-1.6834-1.0573-0.8125-0.96875zm17.75 0c3.7109 2.974-3.8144 2.7536 0 0zm5.5312 0c0.2903 0.0295 0.59569 0.30611 0.8125 0.96875-2.3966 0.9093-1.6834-1.0573-0.8125-0.96875zm10.812 0c0.2903 0.0295 0.62694 0.30611 0.84375 0.96875-2.3966 0.90931-1.7146-1.0573-0.84375-0.96875zm-72.688 2.1562c-0.46838 1.787 1.7027-0.24816 0 0zm90.594 0c-0.46837 1.787 1.7027-0.24817 0 0zm11.844 7.5938c-0.43418 1.7286 1.5473-0.21289 0 0zm-30.25 0.1875c-0.32259 1.4022-1.3145 2.6171-1.4688 4.0625 0.2365-0.12132 2.4006-1.6036 3.4062-0.0313 0.27042 0.42141-0.4058-3.783-1.9375-4.0312zm0.34375 0.59375c0.15802 0.39919 0.25926 0.8097 0.46875 1.1875 0.45942 2.3175-2.4298-0.32611-0.46875-1.1875zm27.531 0.28125c-0.27953 0.0377-0.5952 0.26544-0.9375 0.84375-0.88766-1.5481-3.075-0.65596-2.625 1.1875 0.24846 2.0219 0.21194 1.022 0.78125-0.3125 1.8702-2.6586 1.0725 3.8456 2.125 0.40625 0.43664-2.4413 1.6189-0.79556 1.5312 0.78125 0.90012 0.81465 0.33628-3.0695-0.875-2.9062zm-23.719 0.0937c-0.0893-3e-3 -0.19353 0.0121-0.28125 0.0313-0.54583 0.11931-1.033 0.68813-1.1875 1.6875-0.95565 2.0113 3.0219 2.0727 2.4062 1.4688-2.1808-0.13423-1.193-1.9953 0.5625-1.5625-0.25257-1.0481-0.87455-1.6062-1.5-1.625zm3.7188 0c-1.0371-1e-3 -2.1369 1.1752-1.3125 2.75 0.72927 0.55425 1.0344-4.0078 2.0938-0.96875 0.37602 1.9137 0.5933 1.2286 0.59375-0.34375-0.16269-1.007-0.75273-1.4369-1.375-1.4375zm3.7812 0c-0.0893-3e-3 -0.19353 0.0121-0.28125 0.0313-0.54583 0.11931-1.033 0.68813-1.1875 1.6875-0.95565 2.0113 3.0219 2.0727 2.4062 1.4688-2.1808-0.13423-1.193-1.9953 0.5625-1.5625-0.25257-1.0481-0.87455-1.6062-1.5-1.625zm7.4062 0c-1.0371-1e-3 -2.1369 1.1752-1.3125 2.75 0.72927 0.55425 1.0031-4.0078 2.0625-0.96875 0.37602 1.9137 0.62454 1.2286 0.625-0.34375-0.16268-1.007-0.75273-1.4369-1.375-1.4375zm-4.1562 0.0625c-0.30174 0.0181-0.60046 0.0835-0.84375 0.21875 1.6435 0.29289 2.2813 1.5096 0.125 1.3438-1.3213 2.4801 3.8782 2.4114 2.4062-0.0937 0.18067-1.0645-0.78228-1.5232-1.6875-1.4688zm15.344 0.0625v1.5625c-0.30488 3.7058 1.6842-0.95765 0-1.5625zm5.9062 0.0625c-2.0592 0.14118 1.8104 2.4334 0.6875 2.6875-3.4307-0.0942 2.2966 1.5267 0.90625-1-1.843-0.13494-1.4939-1.3846 0.0625-1.6562-0.38702-0.0296-0.7679-0.0359-1.1562-0.0313-0.1932-0.0111-0.36272-9e-3 -0.5 0zm-31.844 0.375c0.36269-0.0159 0.73195 0.19934 0.8125 0.90625l-0.34375 0.0625-0.3125 0.0313c-1.821 0.22247-0.95416-0.96498-0.15625-1zm7.5 0c0.36269-0.0159 0.73195 0.19934 0.8125 0.90625l-0.34375 0.0625-0.3125 0.0313c-1.821 0.22247-0.95416-0.96498-0.15625-1zm22.688 0.0313c-0.56599 0.22954-1.0145 3.9622-2.0312 1.1562-0.37651-1.9183-0.62462-1.195-0.625 0.375v0.34375c1.0949 2.3005 4.0926 0.23695 2.6562-1.875zm-18.969 1.1563c0.20916 0.18555 0.59418 0.40182 0.5625 0.75-1.3449 1.2078-2.8018-0.52781-0.5625-0.75zm1.1875 9.4375c-1.3687 0.52353-0.82555 4.3937 0.84375 4.1562-1.7289-1.3864 0.48345-2.8205-0.84375-4.1562zm20.688 0.0313c-0.18674 0.0776-0.34293 0.67643-0.21875 1.4062-0.8941-1.4566-3.2309 0.42563-2.1875 1.7188 1.7385 2.5848 3.5684 0.16034 2.7812-2.0312-0.0288-0.72004-0.15373-1.0395-0.28125-1.0938-0.0266-0.0113-0.0671-0.0111-0.0937 0zm-34.562 0.15625c-0.47767 0.10724-0.17064 2.5491-0.15625 3.375 0.72928 0.55426 1.0031-4.0078 2.0625-0.96875 0.37602 1.9137 0.62455 1.2286 0.625-0.34375 0.19928-0.94519-0.92269-1.785-1.75-1.25-0.37269-0.62359-0.62203-0.84825-0.78125-0.8125zm-3.2188 0.625c-0.0639-1.7e-4 -0.13033 0.015-0.1875 0.0313-1.6008 0.45622-0.0941 6.7777-0.0625 2.875 1.9645 1.6472 3.4539-1.8309 0.9375-2.6562-0.27664-0.16595-0.4957-0.2495-0.6875-0.25zm14.156 0c-0.0893-3e-3 -0.19353 0.0121-0.28125 0.0313-0.54584 0.11931-1.033 0.68813-1.1875 1.6875-0.95565 2.0113 3.0532 2.0727 2.4375 1.4688-2.1808-0.13423-1.2242-1.9953 0.53125-1.5625-0.25256-1.0481-0.87454-1.6062-1.5-1.625zm18.875 0c-0.0893-3e-3 -0.19353 0.0121-0.28125 0.0313-0.54583 0.11931-1.033 0.68813-1.1875 1.6875-0.95566 2.0112 3.0532 2.0727 2.4375 1.4688-2.1808-0.13423-1.2242-1.9953 0.53125-1.5625-0.25257-1.0481-0.87455-1.6062-1.5-1.625zm-25.312 0.0625c-0.30174 0.0181-0.60046 0.0835-0.84375 0.21875 1.6435 0.29289 2.2813 1.5096 0.125 1.3438-1.3213 2.4801 3.8782 2.4114 2.4062-0.0937 0.18068-1.0645-0.78227-1.5232-1.6875-1.4688zm3.8438 0c-0.10394-6e-3 -0.20862 7e-3 -0.3125 0.0313-0.69252 0.16165-1.2662 0.98177-0.75 1.8125 0.44999 3.3542 0.0264-1.8596 1.9062-1.2812-0.22982-0.37398-0.53194-0.54359-0.84375-0.5625zm8.375 0c-0.10687-6e-3 -0.20862 7e-3 -0.3125 0.0313-0.69252 0.16165-1.2662 0.98177-0.75 1.8125 0.44999 3.3542 0.0577-1.8596 1.9375-1.2812-0.22982-0.37398-0.5544-0.54359-0.875-0.5625zm2.3125 0c-0.30174 0.0181-0.60046 0.0835-0.84375 0.21875 1.6435 0.29289 2.2813 1.5096 0.125 1.3438-1.3213 2.4801 3.8782 2.4114 2.4062-0.0937 0.18069-1.0645-0.78227-1.5232-1.6875-1.4688zm6.7812 0.125c-2.0592 0.14118 1.8104 2.4334 0.6875 2.6875-3.4307-0.0942 2.2966 1.5267 0.90625-1-1.843-0.13494-1.4939-1.3846 0.0625-1.6562-0.38702-0.0296-0.7679-0.0359-1.1562-0.0313-0.1932-0.0111-0.36272-9e-3 -0.5 0zm-28.281 0.375c0.0439-0.0133 0.0797-7e-3 0.125 0 0.24181 0.0347 0.48568 0.38481 0.6875 1.2188-0.1708 0.37273-0.34447 0.75621-0.625 1.0625-1.3042 0.204-0.84642-2.0818-0.1875-2.2812zm13.594 0c0.36269-0.0159 0.7007 0.19934 0.78125 0.90625l-0.34375 0.0625-0.28125 0.0313c-1.821 0.22247-0.95416-0.96498-0.15625-1zm18.844 0c0.36269-0.0159 0.73195 0.19934 0.8125 0.90625l-0.34375 0.0625-0.28125 0.0313c-1.821 0.22248-0.98541-0.96497-0.1875-1zm3.5 0.125c1.4038 0.25307-0.10566 4.2668-0.9375 1.0938 0.17432-0.37905 0.33665-0.75318 0.625-1.0625 0.12083-0.0196 0.21891-0.0481 0.3125-0.0313zm-28.344 1.0625c0.20916 0.18555 0.59416 0.40182 0.5625 0.75-1.3449 1.2078-2.8018-0.52781-0.5625-0.75zm14.531 0c0.20916 0.18555 0.59416 0.40182 0.5625 0.75-1.3449 1.2078-2.8018-0.52781-0.5625-0.75zm-14.125 9.0937c0.0867 0.9127-0.051 1.8368-0.0625 2.75-3e-3 4.0492 1.6156-1.7459 0.0625-2.75zm1.6562 0c0.0867 0.91271-0.0197 1.8368-0.0313 2.75-3e-3 4.0492 1.5844-1.7459 0.0313-2.75zm1.6562 0c-0.43418 1.7286 1.5473-0.21289 0 0zm10.156 0c-0.43418 1.7286 1.5473-0.21289 0 0zm13.438 0c-0.43418 1.7286 1.5473-0.21289 0 0zm-32.938 1.0625c-0.27953 0.0377-0.5952 0.26544-0.9375 0.84375-0.88765-1.5481-3.075-0.65593-2.625 1.1875 0.24846 2.0219 0.18069 1.022 0.75-0.3125 1.8702-2.6586 1.0725 3.8456 2.125 0.40625 0.43665-2.4413 1.6189-0.79556 1.5312 0.78125 0.90012 0.81465 0.36753-3.0695-0.84375-2.9062zm30.562 0c-0.27953 0.0377-0.59519 0.26544-0.9375 0.84375-0.88766-1.5481-3.075-0.65597-2.625 1.1875 0.24846 2.0219 0.21195 1.022 0.78125-0.3125 1.8702-2.6586 1.0725 3.8456 2.125 0.40625 0.43665-2.4413 1.5876-0.79557 1.5 0.78125 0.90013 0.81465 0.36753-3.0695-0.84375-2.9062zm-8.0938 0.0937c-0.0893-3e-3 -0.19353 0.0121-0.28125 0.0313-0.54583 0.11931-1.033 0.68813-1.1875 1.6875-0.95565 2.0113 3.0532 2.0727 2.4375 1.4688-2.1808-0.13423-1.2242-1.9953 0.53125-1.5625-0.25257-1.0481-0.87455-1.6062-1.5-1.625zm-18.844 0.0625c-1.1142 0.67003-2.83 2.7897-0.5 3.1875 2.7429 0.70047 2.5764-2.474 0.5-3.1875zm5.7188 0.0625v1.5625c-0.30488 3.7058 1.6842-0.95764 0-1.5625zm10.156 0v1.5625c-0.30488 3.7058 1.6842-0.95764 0-1.5625zm13.438 0v1.5625c-0.30488 3.7058 1.6842-0.95765 0-1.5625zm-21.5 0.0625c-2.0592 0.14118 1.8104 2.4334 0.6875 2.6875-3.4307-0.0942 2.2966 1.5267 0.90625-1-1.843-0.13494-1.4939-1.3846 0.0625-1.6562-0.38702-0.0296-0.76792-0.0359-1.1562-0.0313-0.1932-0.0111-0.36272-9e-3 -0.5 0zm5.375 0c-2.0592 0.14118 1.8104 2.4334 0.6875 2.6875-3.4307-0.0942 2.2966 1.5267 0.90625-1-1.843-0.13494-1.4939-1.3846 0.0625-1.6562-0.38702-0.0296-0.79915-0.0359-1.1875-0.0313-0.1932-0.0111-0.33147-9e-3 -0.46875 0zm-13.188 0.3125c0.47757 0.4738 1.1531 1.0942 1 1.8438-1.3686 1.791-3.2038-1.0303-1-1.8438zm19 0.0625c0.36269-0.0159 0.73195 0.19934 0.8125 0.90625l-0.34375 0.0625-0.28125 0.0313c-1.821 0.22247-0.98541-0.96498-0.1875-1zm12.344 2.0625c-0.0806 1e-3 -0.20201 0.0117-0.3125 0.0313-0.46736 1.7968 1.522-0.0515 0.3125-0.0313zm-22.031 8.2188c-0.43417 1.7286 1.5473-0.21291 0 0zm-15.031 0.125c-0.13698 8e-3 -0.24286 0.0434-0.375 0.0937-3.4979 0.70581 2.5192 3.1049 0.5 3.7188-4.0314-0.24026 2.3745 1.7978 1.1875-1.0938-1.641-0.43445-2.7648-2.3421-0.0625-2.5-0.39195-0.0971-0.83907-0.24143-1.25-0.21875zm17.219 0.21875c-1.3687 0.52355-0.82554 4.3937 0.84375 4.1562-1.7289-1.3864 0.48345-2.8205-0.84375-4.1562zm17.562 0c-1.3687 0.52352-0.82556 4.3937 0.84375 4.1562-1.7289-1.3864 0.48344-2.8205-0.84375-4.1562zm-26.312 0.0313c-0.18673 0.0776-0.34293 0.67643-0.21875 1.4062-0.8941-1.4566-3.2309 0.42561-2.1875 1.7188 1.7385 2.5848 3.5684 0.16034 2.7812-2.0312-0.0288-0.72004-0.15374-1.0395-0.28125-1.0938-0.0266-0.0113-0.0671-0.0111-0.0937 0zm19.75 0.6875c-0.27953 0.0377-0.59519 0.26544-0.9375 0.84375-0.88764-1.5481-3.1062-0.65596-2.6562 1.1875 0.24846 2.0219 0.21193 1.022 0.78125-0.3125 1.8702-2.6586 1.0726 3.8456 2.125 0.40625 0.43666-2.4413 1.6189-0.79555 1.5312 0.78125 0.90015 0.81467 0.36754-3.0695-0.84375-2.9062zm-24.5 0.0937c-0.0893-3e-3 -0.19353 0.0121-0.28125 0.0313-0.54583 0.11931-1.033 0.68813-1.1875 1.6875-0.95565 2.0113 3.0219 2.0727 2.4062 1.4688-2.1808-0.13423-1.193-1.9953 0.5625-1.5625-0.25257-1.0481-0.87455-1.6062-1.5-1.625zm28.156 0c-0.0893-3e-3 -0.19353 0.0121-0.28125 0.0313-0.54583 0.11931-1.033 0.68813-1.1875 1.6875-0.95566 2.0112 3.0219 2.0727 2.4062 1.4688-2.1808-0.13424-1.193-1.9953 0.5625-1.5625-0.25257-1.0481-0.87455-1.6062-1.5-1.625zm-9.9688 0.0625c-0.30174 0.0181-0.60046 0.0835-0.84375 0.21875 1.6435 0.29288 2.2814 1.5096 0.125 1.3438-1.3213 2.4801 3.8782 2.4114 2.4062-0.0937 0.1807-1.0645-0.78227-1.5232-1.6875-1.4688zm-6.875 0.0625v1.5625c-0.30488 3.7058 1.6842-0.95768 0-1.5625zm-2.6875 0.0625c-2.0592 0.14118 1.7792 2.4334 0.65625 2.6875-3.4307-0.0942 2.2966 1.5267 0.90625-1-1.843-0.13494-1.4626-1.3846 0.0937-1.6562-0.38702-0.0296-0.79917-0.0359-1.1875-0.0313-0.1932-0.0111-0.33147-9e-3 -0.46875 0zm-8.4688 0.375c0.36269-0.0159 0.73195 0.19934 0.8125 0.90625l-0.34375 0.0625-0.3125 0.0313c-1.821 0.22247-0.95416-0.96498-0.15625-1zm28.156 0c0.36269-0.0159 0.7007 0.19934 0.78125 0.90625l-0.3125 0.0625-0.3125 0.0313c-1.821 0.22247-0.95416-0.96497-0.15625-1zm-24.656 0.125c1.4038 0.25307-0.1369 4.2668-0.96875 1.0938 0.17433-0.37904 0.3679-0.75318 0.65625-1.0625 0.12082-0.0196 0.21891-0.0481 0.3125-0.0313zm15.156 1.0625c0.20916 0.18555 0.59417 0.40179 0.5625 0.75-1.3449 1.2078-2.8018-0.52782-0.5625-0.75zm-22.719 9.0938c-2.0423 0.15615-1.2861 2.5702-0.9375 4 0.71636 0.54345 0.26837-3.2885 1.375-4-0.16188-0.0106-0.30135-0.0104-0.4375 0zm11.688 0c-0.43418 1.7286 1.5473-0.21289 0 0zm2.125 0.0937c-0.80683 0.27391-0.62253 3.0629-0.28125 4.2188 2.8584 2.4149 3.5541-4.925 0.34375-2.5312-0.16227-0.55837 0.19675-1.1529-0.0625-1.6875zm-4.0938 1.0313c-2.0818 0.0266-2.1162 4.1676 0.5625 3.4688-0.85288-0.0691-2.17-3.3833 0.46875-3.1875-0.38826-0.19899-0.72785-0.28513-1.0312-0.28125zm-7.9375 0.0937c-0.30174 0.0181-0.60046 0.0835-0.84375 0.21875 1.6435 0.29289 2.2813 1.5096 0.125 1.3438-1.3213 2.4801 3.8782 2.4114 2.4062-0.0937 0.18069-1.0645-0.78227-1.5232-1.6875-1.4688zm9.9062 0.0625v1.5625c-0.30487 3.7058 1.6842-0.95765 0-1.5625zm9.7188 0.0625c-2.0592 0.14118 1.8104 2.4334 0.6875 2.6875-3.4307-0.0942 2.2966 1.5267 0.90625-1-1.843-0.13494-1.4939-1.3846 0.0625-1.6562-0.38702-0.0296-0.7679-0.0359-1.1562-0.0313-0.1932-0.0111-0.36272-9e-3 -0.5 0zm-6.5312 0.375c0.0439-0.0133 0.0797-7e-3 0.125 0 0.24181 0.0347 0.51693 0.38481 0.71875 1.2188-0.1708 0.37272-0.37573 0.75621-0.65625 1.0625-1.3042 0.20401-0.84641-2.0818-0.1875-2.2812zm-7.7188 0.0313c-0.566 0.22952-1.0145 3.9622-2.0312 1.1562-0.37651-1.9183-0.59337-1.195-0.59375 0.375v0.34375c1.095 2.3005 4.0613 0.23696 2.625-1.875zm12.594 0c-0.56599 0.22954-1.0145 3.9622-2.0312 1.1562-0.37651-1.9183-0.62462-1.195-0.625 0.375v0.34375c1.0949 2.3005 4.0926 0.23695 2.6562-1.875zm-17.375 1.1562c0.20916 0.18555 0.62542 0.40182 0.59375 0.75-1.3449 1.2078-2.833-0.5278-0.59375-0.75zm14.406 9.0938c0.0867 0.91271-0.0197 1.8368-0.0313 2.75-3e-3 4.0492 1.5844-1.7459 0.0313-2.75zm1.6875 0c0.0867 0.91271-0.0197 1.8368-0.0313 2.75-3e-3 4.0492 1.5844-1.7459 0.0313-2.75zm1.6562 0c-0.43418 1.7286 1.5473-0.21289 0 0zm-20.031 1.125c-2.0738 0.0265-2.085 4.1278 0.5625 3.4688-0.85288-0.0691-2.1387-3.3833 0.5-3.1875-0.38826-0.19899-0.7591-0.28513-1.0625-0.28125zm7 0.0313c-1.0371-1e-3 -2.1369 1.1752-1.3125 2.75 0.72928 0.55425 1.0344-4.0078 2.0938-0.96875 0.37602 1.9137 0.5933 1.2286 0.59375-0.34375-0.16268-1.007-0.75273-1.4369-1.375-1.4375zm-3.7188 0.0625c-1.1142 0.67003-2.83 2.7897-0.5 3.1875 2.7429 0.70047 2.5764-2.474 0.5-3.1875zm10.625 0c-0.30174 0.0181-0.60046 0.0835-0.84375 0.21875 1.6435 0.2929 2.2813 1.5096 0.125 1.3438-1.3213 2.4801 3.8782 2.4114 2.4062-0.0937 0.18068-1.0645-0.78227-1.5232-1.6875-1.4688zm-4.8125 0.0625c0.31296 0.69611 0.50818 1.4449 0.78125 2.1562 1.0197 3.9906 3.1561-4.2845 1.4688-1.0625-0.5543 2.8818-1.1201-0.6896-2.25-1.0938zm10.938 0v1.5625c-0.30487 3.7058 1.6842-0.95765 0-1.5625zm2.0938 0.0624c-2.0592 0.14118 1.8104 2.4334 0.6875 2.6875-3.4307-0.0942 2.2966 1.5267 0.90625-1-1.843-0.13495-1.4939-1.3846 0.0625-1.6562-0.38702-0.0296-0.7679-0.0359-1.1562-0.0313-0.1932-0.0111-0.36272-9e-3 -0.5 0zm-18.844 0.3125c0.47757 0.4738 1.1531 1.0942 1 1.8438-1.3686 1.791-3.2038-1.0303-1-1.8438zm11.219 1.25c0.20916 0.18555 0.62542 0.40182 0.59375 0.75-1.3449 1.2078-2.833-0.52781-0.59375-0.75zm10.688 0.875c-0.0806 1e-3 -0.17076 0.0117-0.28125 0.0313-0.46736 1.7968 1.4908-0.0515 0.28125-0.0313zm-116.97 12.219c-0.42149 1.7197 1.4877-0.21941 0 0zm8.8125 0c0.0644 0.59951 0.0274 1.2124 0 1.8125-0.47995 4.7602 1.7425 0.25727 0-1.8125zm26.188 0c0.0644 0.59951 0.0273 1.2124 0 1.8125-0.47995 4.7602 1.7425 0.25727 0-1.8125zm1.6562 0c-0.42149 1.7197 1.4876-0.21939 0 0zm18.812 0c0.0644 0.59951 0.0274 1.2124 0 1.8125-0.47995 4.7602 1.7426 0.25723 0-1.8125zm70.219 0c-0.42149 1.7197 1.4877-0.21941 0 0zm-134.5 0.125c-0.20466 0.0106-0.43631 0.0191-0.6875 0.0625 0.0495 0.5048-0.42365 5.239 0.53125 3.8125 1.2309-0.71705 3.2261-4.0334 0.15625-3.875zm47.688 0.21875c-1.2647 0.44278-0.88846 4.315 0.75 4.1562-1.9106-1.4441 0.86071-2.7567-0.75-4.1562zm55.125 0c-1.2647 0.44277-0.8572 4.315 0.78125 4.1562-1.9106-1.444 0.82943-2.7567-0.78125-4.1562zm29.844 0c-1.2647 0.44278-0.8572 4.315 0.78125 4.1562-1.9106-1.444 0.82943-2.7567-0.78125-4.1562zm-49.969 0.1875c-0.10573-9e-3 -0.23253 0.34673-0.28125 1.25-1.2429-1.8085-3.347 0.91806-1.9375 2.125 3.2189 3.3548 2.6769-3.3356 2.2188-3.375zm-82.781 0.15625c3.9126-0.30325-1.049 3.7515 0 0zm11.844 0.25c-1.5856-0.0513-1.757 4.9657-0.65625 2.1875 0.68739-4.1292 2.3613 4.092 2.125-0.53125l-0.15625-0.65625c-0.51989-0.70783-0.9466-0.98816-1.3125-1zm106.66 0c-1.5856-0.0513-1.7258 4.9657-0.625 2.1875 0.68739-4.1292 2.33 4.092 2.0938-0.53125l-0.125-0.65625c-0.51989-0.70783-0.97785-0.98816-1.3438-1zm7.5 0c-1.5856-0.0513-1.7258 4.9657-0.625 2.1875 0.68739-4.1292 2.33 4.092 2.0938-0.53125l-0.125-0.65625c-0.51989-0.70783-0.97785-0.98816-1.3438-1zm-101.62 0.1875c-1.3981 0.11106-2.1531 2.2467-0.875 3.2812 4.0153 1.7966-2.5518-2.665 1.9375-3-0.37376-0.22675-0.73987-0.30688-1.0625-0.28125zm34.094 0c-0.28177 0.0156-0.6402 0.22145-1.0625 0.78125-0.52365-1.4306-3.4218-0.60552-2.6562 1.0938 0.60547 3.9637 0.10104-2.3471 1.9062-0.5 0.86771 4.5683 0.41076-1.6488 2.25-0.125 0.70709 4.8969 1.0841-1.3344-0.4375-1.25zm-17 0.0625c-1.6852 0.0246-3.1419 3.9901 1.2188 3.1875-2.5224-0.21228-2.1147-1.6547 0.34375-1.5938-0.40495-1.1967-1.0008-1.602-1.5625-1.5938zm25.812 0c-1.6852 0.0246-3.1419 3.9901 1.2188 3.1875-2.5224-0.21228-2.1147-1.6547 0.34375-1.5938-0.40496-1.1967-1.0008-1.602-1.5625-1.5938zm25.156 0c-1.6852 0.0246-3.1419 3.9901 1.2188 3.1875-2.5224-0.21228-2.1147-1.6547 0.34375-1.5938-0.40496-1.1967-1.0008-1.602-1.5625-1.5938zm3.8125 0c-1.5741 0.16074-3.3343 2.585 0.71875 3.4688-3.6841 0.66331 0.50669 2.0567 0.625-0.5 0.49077-2.3481-0.39927-3.0652-1.3438-2.9688zm3.6875 0c-1.6852 0.0246-3.1419 3.9901 1.2188 3.1875-2.5224-0.21228-2.1147-1.6547 0.34375-1.5938-0.40496-1.1967-1.0008-1.602-1.5625-1.5938zm14.875 0c-1.6852 0.0246-3.1419 3.9901 1.2188 3.1875-2.5224-0.21227-2.1459-1.6547 0.3125-1.5938-0.40496-1.1967-0.96953-1.602-1.5312-1.5938zm7.5 0c-1.6852 0.0246-3.1419 3.9901 1.2188 3.1875-2.5224-0.21227-2.1459-1.6547 0.3125-1.5938-0.40496-1.1967-0.96953-1.602-1.5312-1.5938zm-118.44 0.0313c-0.63835 0.0124-1.3193 0.5021-1.1875 1.2188 0.71953 4.2755-0.0169-0.81007 2.0938-0.65625-0.1598-0.41614-0.52324-0.56995-0.90625-0.5625zm2.2812 0c-0.34198 0.0702-0.64006 0.27831-0.84375 0.5625-1.0552 2.4962 0.41035 2.7367 1.5625 2.1562-1.0519 0.23306-2.6501-0.57345-0.375-2.2812 0.9579 0.78987 1.193 1.3691 1.0625 1.75 0.65224-0.67555 0.73892-1.6072-1.0625-2.1875-0.11707-8e-3 -0.22976-0.0234-0.34375 0zm14.094 0.0313c-0.64747 0.0759-0.87417 0.57663 0.9375 1.0938-4.8003 0.50375 1.7557 4.4904 0.78125 0.34375 0.0212-1.1723-1.0713-1.5134-1.7188-1.4375zm41.281 0c-0.64747 0.0759-0.84293 0.57663 0.96875 1.0938-4.8003 0.50374 1.7557 4.4904 0.78125 0.34375 0.0212-1.1723-1.1025-1.5134-1.75-1.4375zm16 0c-0.64746 0.0759-0.87415 0.57662 0.9375 1.0938-4.8003 0.50374 1.7557 4.4904 0.78125 0.34375 0.0212-1.1723-1.0713-1.5134-1.7188-1.4375zm7.4688 0c-0.64747 0.0759-0.84291 0.57662 0.96875 1.0938-4.8003 0.50375 1.7244 4.4904 0.75 0.34375 0.0212-1.1723-1.0713-1.5134-1.7188-1.4375zm44.406 0c-0.64747 0.0759-0.87416 0.57663 0.9375 1.0938-4.8003 0.50375 1.7557 4.4904 0.78125 0.34375 0.0212-1.1723-1.0713-1.5134-1.7188-1.4375zm-120.5 0.0313v0.59375c-0.61913 4.0596 1.7514 1.2984 0-0.59375zm27.375 0 0.40625 0.9375c0.15881 4.444 3.3427 0.58349 2.1875-0.59375-0.89574 3.6623-1.108 0.88082-2.5938-0.34375zm9.2812 0v0.59375c-0.61911 4.0596 1.7514 1.2985 0-0.59375zm64.062 0 0.375 0.9375c0.15881 4.444 3.374 0.58349 2.2188-0.59375-0.89574 3.6623-1.108 0.88082-2.5938-0.34375zm24.969 0v0.59375c-0.61913 4.0596 1.7514 1.2984 0-0.59375zm-103.25 0.0313c-1.0528 7.6e-4 -2.1532 0.26009-0.75 1.375 2.9627 1.6169-1.5674 1.1365 0.125 1.8125 4.2514-0.0108-2.3304-2.5949 1.5625-3.125-0.24864-0.0313-0.58658-0.0627-0.9375-0.0625zm39.531 0c-1.0528 7.6e-4 -2.1532 0.26009-0.75 1.375 2.9627 1.6169-1.5674 1.1365 0.125 1.8125 4.2514-0.0108-2.3304-2.5949 1.5625-3.125-0.24865-0.0313-0.58658-0.0627-0.9375-0.0625zm66.531 0c-1.0528 7.6e-4 -2.1532 0.26009-0.75 1.375 2.9627 1.6169-1.5674 1.1365 0.125 1.8125 4.2514-0.0108-2.3304-2.5949 1.5625-3.125-0.24865-0.0313-0.58658-0.0627-0.9375-0.0625zm-41.562 0.21875c0.25365-0.12369 0.62941 0.17817 1.1875 1.3438-1.4305 3.2854-1.9484-0.97269-1.1875-1.3438zm-14.281 0.125c1.0376-0.25234 0.94457 5.1762-0.875 1.2812 0.35523-0.84536 0.63555-1.223 0.875-1.2812zm-39.906 0.0313c0.29318 0.0303 0.58141 0.28217 0.8125 0.9375-2.3986 0.88904-1.692-1.0283-0.8125-0.9375zm25.812 0c0.29318 0.0303 0.61266 0.28217 0.84375 0.9375-2.3986 0.88903-1.7233-1.0283-0.84375-0.9375zm25.156 0c0.29318 0.0303 0.61265 0.28217 0.84375 0.9375-2.3986 0.88903-1.7233-1.0283-0.84375-0.9375zm7.5 0c0.29318 0.0303 0.61265 0.28217 0.84375 0.9375-2.3986 0.88903-1.7233-1.0283-0.84375-0.9375zm14.844 0c0.29318 0.0303 0.61266 0.28217 0.84375 0.9375-2.3986 0.88903-1.7233-1.0283-0.84375-0.9375zm7.5 0c0.29318 0.0303 0.61266 0.28217 0.84375 0.9375-2.3986 0.88903-1.7233-1.0283-0.84375-0.9375zm-96.031 0.125c-0.13168-0.0558-0.18388 0.31071-0.125 1.4688l0.125 0.625c2.7766 3.771 3.3145-4.5937 1.9688-1.1562-0.52005 3.0945-1.5737-0.76999-1.9688-0.9375zm46.5 0c-0.13168-0.0558-0.18388 0.31071-0.125 1.4688l0.125 0.625c2.7766 3.771 3.3145-4.5937 1.9688-1.1562-0.52006 3.0945-1.5737-0.76999-1.9688-0.9375zm-52.062 1.0938c2.1359 1.8706-3.8027 0.8053 0 0zm41.312 0c2.1358 1.8706-3.8027 0.80526 0 0zm15.969 0c2.1359 1.8705-3.8027 0.80532 0 0zm7.5 0c2.1359 1.8705-3.8027 0.80532 0 0zm44.375 0c2.1359 1.8706-3.8027 0.80528 0 0zm-122.5 0.5625c-0.17314 0.16913-0.37028 0.31793-0.59375 0.4375 0.26918-0.0723 0.4905-0.22289 0.59375-0.4375zm42.188 0.34375c-1.274 2.2256 1.7056 0.56249 0 0zm55.156 0c-1.274 2.2256 1.7055 0.56252 0 0zm-86.75 8.1872c-0.42149 1.7197 1.4877-0.2194 0 0zm9.2812 0c-0.42149 1.7197 1.4877-0.2194 0 0zm7.9375 0c-0.42149 1.7197 1.4877-0.21941 0 0zm27.875 0c-0.42149 1.7197 1.4876-0.21939 0 0zm44.406 0c-0.42149 1.7197 1.4877-0.21943 0 0zm4.8125 0c0.0644 0.59951 0.0273 1.2124 0 1.8125-0.47995 4.7602 1.7425 0.25727 0-1.8125zm9.5 0c-0.42149 1.7197 1.4877-0.21941 0 0zm-45.469 0.15625c-1.304 0.0685-2.5323 0.86763-0.65625 2.0312 4.1952 1.7256-3.183 2.2127 0.53125 2.1562 5.1222-0.57992-4.1348-3.4256 1.3438-4-0.33983-0.15258-0.78407-0.21034-1.2188-0.1875zm-26.875 0.1875c-1.2647 0.44276-0.88846 4.315 0.75 4.1562-1.9106-1.444 0.86068-2.7567-0.75-4.1562zm-40.969 0.1875c-0.10573-9e-3 -0.23253 0.34673-0.28125 1.25-1.2429-1.8085-3.347 0.9181-1.9375 2.125 3.2189 3.3548 2.6769-3.3356 2.2188-3.375zm8.0938 0c-0.10573-9e-3 -0.20128 0.34673-0.25 1.25-1.2429-1.8085-3.347 0.91809-1.9375 2.125 3.2189 3.3548 2.6457-3.3356 2.1875-3.375zm68.25 0c-0.10573-9e-3 -0.23253 0.34673-0.28125 1.25-1.2429-1.8086-3.347 0.9181-1.9375 2.125 3.2189 3.3548 2.6769-3.3356 2.2188-3.375zm-60.094 0.40625c-1.5856-0.0513-1.757 4.9657-0.65625 2.1875 0.68738-4.1292 2.33 4.092 2.0938-0.53125l-0.125-0.65625c-0.51989-0.70783-0.9466-0.98816-1.3125-1zm35.812 0c-1.5856-0.0513-1.757 4.9657-0.65625 2.1875 0.68737-4.1292 2.33 4.092 2.0938-0.53125l-0.125-0.65625c-0.51989-0.70783-0.9466-0.98816-1.3125-1zm44.406 0c-1.5856-0.0513-1.7258 4.9657-0.625 2.1875 0.68739-4.1292 2.33 4.092 2.0938-0.53125l-0.125-0.65625c-0.51989-0.70783-0.97785-0.98816-1.3438-1zm-64.5 0.1875c-0.28177 0.0156-0.60894 0.22145-1.0312 0.78125-0.52363-1.4306-3.4218-0.60552-2.6562 1.0938 0.60547 3.9637 0.0698-2.3471 1.875-0.5 0.8677 4.5683 0.41077-1.6487 2.25-0.125 0.70709 4.8969 1.0841-1.3344-0.4375-1.25zm27.906 0c-0.28177 0.0156-0.64019 0.22145-1.0625 0.78125-0.52365-1.4306-3.4218-0.60552-2.6562 1.0938 0.60548 3.9637 0.10104-2.347 1.9062-0.5 0.86771 4.5683 0.41079-1.6487 2.25-0.125 0.70709 4.8969 1.0841-1.3344-0.4375-1.25zm30.688 0c-0.28177 0.0156-0.64019 0.22145-1.0625 0.78125-0.52364-1.4306-3.4218-0.60552-2.6562 1.0938 0.60546 3.9637 0.10105-2.3471 1.9062-0.5 0.86771 4.5683 0.41078-1.6488 2.25-0.125 0.70709 4.8969 1.0841-1.3344-0.4375-1.25zm-95.438 0.0625c-1.6852 0.0246-3.1419 3.99 1.2188 3.1875-2.5224-0.21228-2.1147-1.6547 0.34375-1.5938-0.40496-1.1967-1.0008-1.602-1.5625-1.5938zm17.406 0c-1.5741 0.16074-3.3343 2.585 0.71875 3.4688-3.6841 0.66331 0.50668 2.0567 0.625-0.5 0.49078-2.3482-0.39926-3.0652-1.3438-2.9688zm35.812 0c-1.6852 0.0246-3.1419 3.99 1.2188 3.1875-2.5224-0.21228-2.1147-1.6547 0.34375-1.5938-0.40497-1.1967-1.0008-1.602-1.5625-1.5938zm23.125 0c-1.6852 0.0246-3.1419 3.99 1.2188 3.1875-2.5224-0.21228-2.1147-1.6547 0.34375-1.5938-0.40496-1.1967-1.0008-1.602-1.5625-1.5938zm13.031 0c-1.6852 0.0246-3.1419 3.99 1.2188 3.1875-2.5224-0.21228-2.1147-1.6547 0.34375-1.5938-0.40496-1.1967-1.0008-1.602-1.5625-1.5938zm35.281 0c-1.6852 0.0246-3.1419 3.99 1.2188 3.1875-2.5224-0.21227-2.1147-1.6547 0.34375-1.5938-0.40496-1.1967-1.0008-1.602-1.5625-1.5938zm3.4375 0.0313c-0.63836 0.0124-1.3193 0.5021-1.1875 1.2188 0.71953 4.2755-0.0169-0.81007 2.0938-0.65625-0.15979-0.41614-0.52324-0.56995-0.90625-0.5625zm2.375 0c-0.63835 0.0124-1.3193 0.5021-1.1875 1.2188 0.71953 4.2755-0.0169-0.81008 2.0938-0.65625-0.1598-0.41614-0.52324-0.56995-0.90625-0.5625zm2.3125 0.0313c-0.64747 0.0759-0.84291 0.57661 0.96875 1.0938-4.8003 0.50374 1.7244 4.4904 0.75 0.34375 0.0212-1.1723-1.0713-1.5134-1.7188-1.4375zm-118.41 0.0313v0.59375c-0.61912 4.0596 1.7514 1.2984 0-0.59375zm9.2812 0v0.59375c-0.61912 4.0596 1.7514 1.2984 0-0.59375zm7.9375 0v0.59375c-0.61912 4.0596 1.7514 1.2984 0-0.59375zm27.875 0v0.59375c-0.61911 4.0596 1.7514 1.2985 0-0.59375zm44.406 0v0.59375c-0.61913 4.0596 1.7515 1.2984 0-0.59375zm10.375 0 0.40625 0.9375c0.15882 4.444 3.374 0.58352 2.2188-0.59375-0.89574 3.6623-1.1392 0.88082-2.625-0.34375zm3.9375 0v0.59375c-0.61912 4.0596 1.7514 1.2984 0-0.59375zm1.2812 0 0.40625 0.9375c0.15882 4.444 3.374 0.58352 2.2188-0.59375-0.89574 3.6623-1.1392 0.88082-2.625-0.34375zm-122.69 0.0313c-1.0528 7.6e-4 -2.1532 0.26009-0.75 1.375 2.9627 1.6169-1.5674 1.1366 0.125 1.8125 4.2514-0.0108-2.3304-2.5949 1.5625-3.125-0.24864-0.0313-0.58658-0.0627-0.9375-0.0625zm29.688 0c-1.0528 7.6e-4 -2.1532 0.26009-0.75 1.375 2.9627 1.6169-1.5674 1.1366 0.125 1.8125 4.2514-0.0108-2.3304-2.5949 1.5625-3.125-0.24864-0.0313-0.58658-0.0627-0.9375-0.0625zm3.125 0c-1.0528 7.6e-4 -2.1532 0.26009-0.75 1.375 2.9627 1.6169-1.5674 1.1366 0.125 1.8125 4.2514-0.0108-2.3304-2.5949 1.5625-3.125-0.24864-0.0313-0.58658-0.0627-0.9375-0.0625zm56.562 0c-1.0528 7.6e-4 -2.1532 0.26009-0.75 1.375 2.9627 1.6169-1.5674 1.1366 0.125 1.8125 4.2514-0.0108-2.3304-2.5949 1.5625-3.125-0.24865-0.0313-0.58658-0.0627-0.9375-0.0625zm20.531 0c-1.0528 7.6e-4 -2.1532 0.26009-0.75 1.375 2.9627 1.6169-1.5674 1.1366 0.125 1.8125 4.2514-0.0108-2.3303-2.5949 1.5625-3.125-0.24864-0.0313-0.58658-0.0627-0.9375-0.0625zm-89.688 0.21875c0.25365-0.12369 0.62942 0.17817 1.1875 1.3438-1.4305 3.2854-1.9484-0.97269-1.1875-1.3438zm-13.344 0.125c1.0376-0.25234 0.94457 5.1762-0.875 1.2812 0.35523-0.84536 0.63555-1.223 0.875-1.2812zm8.125 0c1.0376-0.25234 0.94457 5.1762-0.875 1.2812 0.35523-0.84536 0.63555-1.223 0.875-1.2812zm68.219 0c1.0376-0.25234 0.94457 5.1762-0.875 1.2812 0.35522-0.84536 0.63555-1.223 0.875-1.2812zm-79.812 0.0313c0.29318 0.0303 0.61266 0.28217 0.84375 0.9375-2.3986 0.88904-1.7233-1.0283-0.84375-0.9375zm53.219 0c0.29318 0.0303 0.61266 0.28217 0.84375 0.9375-2.3986 0.88904-1.7233-1.0283-0.84375-0.9375zm23.125 0c0.29318 0.0303 0.61266 0.28217 0.84375 0.9375-2.3986 0.88904-1.7233-1.0283-0.84375-0.9375zm13.031 0c0.29318 0.0303 0.61265 0.28217 0.84375 0.9375-2.3986 0.88904-1.7233-1.0283-0.84375-0.9375zm35.281 0c0.29318 0.0303 0.61266 0.28217 0.84375 0.9375-2.3986 0.88904-1.7233-1.0283-0.84375-0.9375zm-83.281 0.12475c-0.13168-0.0558-0.18388 0.31071-0.125 1.4688l0.125 0.625c2.7766 3.771 3.3145-4.5936 1.9688-1.1562-0.52005 3.0945-1.5737-0.76999-1.9688-0.9375zm91.875 1.0938c2.1358 1.8706-3.8027 0.80528 0 0zm-127.03 0.90625c-1.274 2.2256 1.7055 0.56252 0 0zm41.375 0c-1.274 2.2256 1.7055 0.56252 0 0zm19.281 0c-0.47885 1.8905 1.7427-0.29426 0 0zm43.406 0c-1.274 2.2256 1.7055 0.56254 0 0zm-81.875 8.1875c0.0644 0.59951 0.0273 1.2124 0 1.8125-0.47995 4.7602 1.7425 0.25728 0-1.8125zm1.6875 0c-0.42149 1.7197 1.4877-0.21942 0 0zm2.1875 0.34375c-1.2647 0.44279-0.88846 4.315 0.75 4.1562-1.9106-1.444 0.86068-2.7567-0.75-4.1562zm-14.406 0.1875c-0.10574-9e-3 -0.20128 0.34673-0.25 1.25-1.2429-1.8086-3.3782 0.9181-1.9688 2.125 3.219 3.3548 2.6769-3.3356 2.2188-3.375zm-21.156 0.40625c-1.5856-0.0513-1.757 4.9657-0.65625 2.1875 0.68739-4.1292 2.33 4.092 2.0938-0.53125l-0.125-0.65625c-0.51989-0.70783-0.9466-0.98816-1.3125-1zm7.4688 0c-1.5856-0.0513-1.7257 4.9657-0.625 2.1875 0.68739-4.1292 2.33 4.092 2.0938-0.53125l-0.125-0.65625c-0.51989-0.70783-0.97785-0.98816-1.3438-1zm8.8438 0.25c-1.6852 0.0246-3.1419 3.99 1.2188 3.1875-2.5224-0.21228-2.1459-1.6547 0.3125-1.5938-0.40496-1.1967-0.96953-1.602-1.5312-1.5938zm12.938 0c-1.6852 0.0246-3.1419 3.99 1.2188 3.1875-2.5224-0.21228-2.1147-1.6547 0.34375-1.5938-0.40496-1.1967-1.0008-1.602-1.5625-1.5938zm-25.781 0.0313c-0.34198 0.0702-0.67131 0.27834-0.875 0.5625-1.0472 2.4774 0.38312 2.7201 1.5312 2.1562-1.0505 0.19179-2.5456-0.60497-0.3125-2.2812 0.95789 0.78987 1.193 1.3691 1.0625 1.75 0.65064-0.67545 0.73732-1.6077-1.0625-2.1875-0.11707-8e-3 -0.22976-0.0234-0.34375 0zm20.594 0.0625 0.40625 0.9375c0.1588 4.444 3.3427 0.58349 2.1875-0.59375-0.89574 3.6623-1.108 0.88082-2.5938-0.34375zm9.3125 0v0.59375c-0.61913 4.0596 1.7514 1.2984 0-0.59375zm-20.312 0.0313c-1.0528 7.6e-4 -2.1532 0.26009-0.75 1.375 2.9627 1.6169-1.5674 1.1366 0.125 1.8125 4.2514-0.0108-2.3304-2.5949 1.5625-3.125-0.24864-0.0313-0.58658-0.0628-0.9375-0.0625zm6.9062 0.34375c1.0376-0.25234 0.91333 5.1762-0.90625 1.2812 0.35523-0.84536 0.6668-1.223 0.90625-1.2812zm-3.5 0.0313c0.29318 0.0303 0.61265 0.28217 0.84375 0.9375-2.3986 0.88904-1.7233-1.0283-0.84375-0.9375zm12.969 0c0.29318 0.0303 0.61266 0.28217 0.84375 0.9375-2.3986 0.88904-1.7233-1.0283-0.84375-0.9375zm-24.594 1.7812c-0.18021 0.17709-0.42171 0.31483-0.65625 0.4375 0.29331-0.0679 0.54759-0.20699 0.65625-0.4375zm32.625 0.34375c-0.47883 1.8905 1.7427-0.29427 0 0z" fill="#7d807a"/><path transform="translate(30 -33.637)" d="m80.406 432.78c4.9521 3.1562 10.098 2.36 13.812 6.2812 0.16682 0.1761 0.33306 0.33512 0.5 0.5 0.47081 0.0642 0.86634 0.12875 1.125 0.125-0.20957-0.21165-0.41647-0.40488-0.625-0.625-3.0182-3.186-6.9951-3.2672-11.031-4.875-0.03474-0.0138-0.059-0.0484-0.09375-0.0625-1.1018-0.36006-2.2936-0.75403-3.6875-1.3438zm18.125 0.625c-0.63373 2.5132 2.5124 5.711 1.5312 6.7812-0.28982 0.31612-0.95433 0.69532-1.4062 1.125 0.12002 0.10757 0.25465 0.20603 0.375 0.3125 0.45504-0.64981 1.6018-0.96015 1.75-1.3438 0.0395-0.1023 0.21224-0.3176 0.46875-0.59375 7e-3 -0.15893-0.013-0.33834-0.0625-0.53125-0.36749 0.24581-0.65336 0.32478-0.6875 0.15625-0.13053-0.6444-2.2318-4.077-1.9688-5.9062zm15.125 3c-3.2326 3.1378-1.9374 10.598-4.2812 11.312-0.87305 0.26631-2.6774 0.13373-3.7188 0.65625 0.10564 0.23081 0.1924 0.46561 0.28125 0.71875 0.48934-1.3856 3.2882-1.0244 4.4375-1.375 0.40212-0.12266 0.70836-0.4424 0.9375-0.90625-0.37324 0.16279-0.58924 0.18863-0.5-0.0313 0.43039-1.0604 0.76035-7.918 2.8438-10.375zm-9.875 0.1875c-0.65633 0.8653-1.6747 1.8648-2.4062 2.4062 0.035 0.0884 0.11425 0.25945 0.125 0.3125 6e-3 0.0315 0.01 0.0483 0.0313 0.0625 0.76016-0.80336 1.8677-1.9229 2.25-2.7812zm31.156 1.2812c-0.10681 2.3307 2.612 5.6066 1.375 8.5 0.1879 0.0583 0.37002 0.14826 0.5625 0.21875 1.0309-2.0776-1.8472-6.9922-1.9375-8.7188zm-44.094 1.4375c-0.58853-2e-3 -1.1998 0.0498-1.8125 0.15625-0.24454 0.0425-0.47494 0.0811-0.71875 0.0937 0.57324 0.0163 1.1476 6e-3 1.7188-0.0937 0.3802-0.0661 0.75059-0.10454 1.125-0.125-0.10937-3e-3 -0.20125-0.031-0.3125-0.0313zm-4.9062 0.21875c-1.0529 0.0153-2.138 0.17596-3.3438 0.96875 0.73581-0.30835 1.4245-0.46615 2.0938-0.5625 0.66231-0.25997 1.291-0.37458 1.9062-0.40625-0.21749-6e-3 -0.43522-3e-3 -0.65625 0zm5.6875 0.21875c-0.16769-2e-3 -0.31622 0.0195-0.46875 0.0313 1.7515 0.14017 4.0198 0.84237 5.5938 1.75 3.1991 2.92 6.0681 5.0034 6.6562 7.0312 0.69343 2.3908 0.87982 8.899 0.9375 12.375 0.0202 0.021 0.0422 0.0415 0.0625 0.0625 0.30813 0.3105 0.62898 0.60098 0.96875 0.875-0.0381-3.1355-0.21719-10.721-0.96875-13.312-0.58814-2.0278-3.4571-4.1112-6.6562-7.0312-1.7362-1.0012-4.327-1.7624-6.125-1.7812zm-4.5 0.0625c0.65921 0.0186 1.3013 0.0547 1.9375 0.0313-0.6308-0.0149-1.2724-0.0416-1.9375-0.0313zm38.906 0.59375c0.85981 2.0352 1.0308 4.2145 1.875 5.9688 0.0201 0.0419 0.0431 0.0827 0.0625 0.125-0.0386 0.0749-0.0625 0.16002-0.0625 0.25 0 0.22641 0.14749 0.41694 0.34375 0.5 0.75795 2.229 0.68188 4.8991 0.75 7.1875 0.35884 0.43277 0.71896 0.90498 1.0625 1.4688-0.081-0.88874-0.10567-1.8975-0.125-2.9375-0.22118-1.9088-0.22993-4.2452-1.0625-5.875 0.0353-0.0409 0.0733-0.0777 0.0937-0.125-4e-3 -8e-3 4e-3 -0.0227 0-0.0313-0.0255-0.0612-0.0625-0.11723-0.0625-0.1875 0-0.09 0.024-0.17511 0.0625-0.25-0.0194-0.0423-0.0424-0.0831-0.0625-0.125-0.0198-0.0411-0.0434-0.0834-0.0625-0.125-0.0287 6e-3 -0.0655 0.0249-0.0937 0.0313-0.0628-0.0425-0.14103-0.0804-0.21875-0.0937-1.3849-2.0411-0.95284-3.5457-2.5-5.7812zm19.031 2.6562c-1.6976 2.4946-3.8682 2.3737-5.125 4.8125 0.0526 0.0186 0.10315 0.0444 0.15625 0.0625 0.89869-2.1647 3.7578-2.6757 4.9688-4.875zm-27.688 1.3125c-2.1947 0.39587-4.2804 1.5497-5.5 2.1562-0.0203 0.0759-0.0419 0.19937-0.0625 0.25-0.0928 0.22874 0.15792 0.18098 0.5625 0 1.3537-0.92023 3.2081-2.0307 5-2.4062zm4.9062 1.2812c1.3491 7.7694 7.4282 8.4637 5.875 13.344-1.1892 1.2392-3.1172 3.336-4.0312 4.25-0.76285 0.67868-1.5958 1.2684-2.4375 1.8438-0.87643 0.65389-0.79689 1.1332-1.7188 1.7188-0.68733 0.46263-2.2481 0.96188-2.8438 1.4375-0.77914 0.62211-1.2104 1.4697-1.875 2.3125-0.17709 0.23959-0.47526 0.38932-0.78125 0.5625 0.0747 0.23312 0.17111 0.49452 0.21875 0.6875 0.32292-0.63542 1.2083-0.77083 1.5625-1.25 0.66464-0.84278 1.0959-1.6904 1.875-2.3125 0.59567-0.47562 2.1564-0.97487 2.8438-1.4375 0.92186-0.58556 0.84232-1.0649 1.7188-1.7188 0.84169-0.5754 1.6746-1.1651 2.4375-1.8438 0.91403-0.91403 2.842-3.0108 4.0312-4.25 0.39409-1.2382 0.2929-2.2106-0.0937-3.0938-5e-3 -8e-3 5e-3 -0.0235 0-0.0313-2.3367-3.8163-5.1595-3.8839-6.7812-10.219zm9.625 0.21875c-0.92497 6e-3 -1.6987 0.11176-2.4062 0.25 0.0135 0.0204 0.0173 0.042 0.0313 0.0625 0.0777 0.0133 0.1559 0.0513 0.21875 0.0937 0.73442-0.16654 1.6394-0.32515 2.6875-0.375-0.17873-7e-3 -0.35939-0.0323-0.53125-0.0313zm0.78125 0.34375c-0.0732 3e-3 -0.1456 0.0269-0.21875 0.0313 0.67709 0.016 1.3376 0.0544 1.875 0.15625 1.8094 0.34285 1.1428 0.69721 2.0625 0.75 0.8083 0.0464 2.2134 0.8335 3.3438 1.2812 1.2226 0.48428 1.5383-0.0211 3.8438 1.2188-1.6552-1.1205-3.3491-1.1322-3.5938-1.4062 0.0129-0.0419 0.017-0.0842 0.0313-0.125-0.0649-0.0291-0.12217-0.0641-0.1875-0.0937-0.0207 0.0437-0.0423 0.0797-0.0625 0.125-1.0067-0.2824-1.9875-0.7062-2.6562-1.0625-0.18654-0.0477-0.28433-0.1223-0.40625-0.21875-0.0974-0.077-0.24506-0.15717-0.5-0.25-0.0108 0.0211-0.02 0.0415-0.0313 0.0625-0.24588-0.0977-0.48007-0.17228-0.71875-0.25-0.0468-0.01-0.0744-0.0217-0.125-0.0313-0.74419-0.14102-1.6994-0.22641-2.6562-0.1875zm-46.062 2.0312 0.125 0.0625c0.9109 0.24481 1.6818 0.8215 2.4062 1.4062 0.82464 0.41098 1.8702 0.34115 2.5312 1.0625 0.70456 0.74408 1.7606 1.1436 2.2812 2.0625 0.20942 0.35023 0.44974 0.66458 0.71875 0.96875-0.70331 0.27896-1.3791 1.262-1.875 1.5938-0.0184 0.0123-0.0433 0.0207-0.0625 0.0313 0.26674 0.0829 0.5096 0.12431 0.71875 0.0937 0.35283-0.4495 0.78212-0.98745 1.375-1.0938 0.27247-0.26266 0.5507-0.50877 0.84375-0.625-0.26901-0.30417-0.50933-0.61852-0.71875-0.96875-0.5206-0.91893-1.5767-1.3184-2.2812-2.0625-0.66103-0.72135-1.7066-0.65152-2.5312-1.0625-0.06827-0.0551-0.14958-0.10156-0.21875-0.15625-0.45456-0.0788-0.91165-0.20596-1.25-0.53125-0.59769-0.44175-1.3243-0.71337-2.0625-0.78125zm28.312 3.0625c-0.5615-2e-3 -1.1325 0.0198-1.6875 0.1875-0.8619 0.15181-1.4009 0.98682-2.1875 1.125 0.15712 0.0284 0.29573 0.0585 0.46875 0.0625 8e-3 -4e-3 0.0232 4e-3 0.0313 0 0.66399-0.34171 1.299-0.84303 2-1.0625 0.29196-0.11393 0.63652-0.16173 1-0.1875 0.45253-0.0986 0.91776-0.12668 1.375-0.125-0.33672-5e-3 -0.66726 1e-3 -1 0zm-6.2812 1.0938c-0.11119 4e-3 -0.22334 8e-3 -0.34375 0.0313-0.58666 0.0833-1.0979 0.25436-1.625 0.40625 3e-3 0.0315-3e-3 0.0623 0 0.0937-7e-3 0.11209 0.31024 1e-3 0.40625 0.0625 0.72887-0.15857 1.3651-0.40917 2.125-0.53125-0.18386-0.0329-0.36151-0.0695-0.5625-0.0625zm0.75 0.375c-0.11556 5e-3 -0.24955 7e-3 -0.375 0.0313 0.5303 0.0941 1.0274 0.28089 1.6875 0.1875 0.0423-8e-3 0.0833-0.0213 0.125-0.0313-0.48738-0.0785-0.91748-0.20805-1.4375-0.1875zm-23.562 0.1875c-0.18337-8e-3 -0.35057 0.01-0.53125 0.0313 2.0854-0.0469 5.7552 2.5084 6.4688 2.7188 0.55836 0.16459-1.6664 2.1036-3.375 3.0312 1.3278-0.37746 3.3876-2.0227 4.1875-2.5 0.01714-0.0102 0.01528-0.0221 0.03125-0.0313 0.21446-0.26888 0.31472-0.45329 0.15625-0.5-0.0892-0.0263-0.23354-0.0976-0.40625-0.1875-1.4003 0.064-4.066-2.4613-6.5312-2.5625zm53.781 0.0625c-0.88641 0.37401-1.6291 0.38336-2.375 0.375 0.46305-0.0347 0.90399-0.0303 1.3438-0.0313 0.31369-0.0695 0.65846-0.15916 1.0312-0.34375zm-2.375 0.375c-0.97055-0.0109-1.9515-0.0429-3.3125 0.75-0.98526 0.56636-1.6858 0.93652-2.3125 1.3125 0.1001 0.15403 0.21261 0.29518 0.34375 0.40625 0.43285-0.30459 0.95516-0.58877 1.5312-0.90625 0.0447-0.0331 0.0806-0.0614 0.125-0.0937 0.66035-0.48117 1.292-0.8658 1.7812-1.0938 0.34797-0.16212 0.68254-0.22024 1-0.25 0.018-4e-3 0.0446 4e-3 0.0625 0 0.27556-0.0643 0.52793-0.10604 0.78125-0.125zm-41.406 1.0312c-0.15346 0.0275-0.30526 0.0776-0.4375 0.15625 0.22223 0.23657 0.45596 0.46782 0.65625 0.71875 0.69303 0.78032 1.3858 1.5403 1.9688 2.4062 0.85162 1.0618 1.9547 1.8779 2.875 2.875 0.7471 0.7803 1.3951 1.6458 2.0938 2.4688 0.93323 1.1249 1.8793 2.2501 2.8125 3.375 0.42144 0.87267 1.0317 1.6104 1.6562 2.3438 0.66563 0.75999 1.3096 1.5578 1.8125 2.4375 0.59909 0.89138 1.1135 1.8414 1.5 2.8438 0.30827 0.94828 0.48395 1.9214 0.625 2.9062 0.19051 1.037 0.34872 2.0991 0.25 3.1562-0.14578 1.5715-0.30651 3.1462-0.4375 4.7188-0.0217 0.7843-0.12135 1.6214 0.25 2.3438 0.88575 0.56065 1.944 0.69175 2.9688 0.75 0.15421-4e-3 0.31552-0.0153 0.46875-0.0313-0.85535-0.0774-1.7021-0.25325-2.4375-0.71875-0.37135-0.7224-0.27171-1.5594-0.25-2.3438 0.13099-1.5726 0.29172-3.1472 0.4375-4.7188 0.0987-1.0572-0.0595-2.1192-0.25-3.1562-0.14105-0.9848-0.31673-1.958-0.625-2.9062-0.3865-1.0023-0.90091-1.9524-1.5-2.8438-0.50293-0.87969-1.1469-1.6775-1.8125-2.4375-0.62451-0.73339-1.2348-1.4711-1.6562-2.3438-0.93322-1.1249-1.8793-2.2501-2.8125-3.375-0.69869-0.823-1.3466-1.6884-2.0938-2.4688-0.92026-0.99713-2.0234-1.8132-2.875-2.875-0.58298-0.86596-1.2757-1.6259-1.9688-2.4062-0.24141-0.30245-0.51438-0.59268-0.78125-0.875-0.15942-0.0325-0.29833-0.0249-0.4375 0zm36.406 5.5625c-0.27801 6e-3 -0.56326 0.0349-0.84375 0.0625 0.10242 2e-3 0.20882 0.017 0.3125 0.0313 0.3359 0.0194 0.69022-0.0275 1.0312-0.0625-0.1656-0.029-0.331-0.0347-0.5-0.0313zm-2.0938 0.0625c-0.0128 0.019-0.0184 0.0436-0.0313 0.0625 0.19686 5e-3 0.40053-0.0167 0.59375-0.0313-0.19023-0.0261-0.37567-0.039-0.5625-0.0313zm2.7812 0.21875c-0.14219 6e-3 -0.2642 0.0468-0.40625 0.0625 0.65402 0.0921 0.99171 0.6953 1.7188 0.625 0.16682-0.0309 0.33094-0.0464 0.5-0.0625-0.11167-0.0407-0.21151-0.0958-0.3125-0.15625-0.10595 5e-3 -0.20725 0.01-0.3125 0-0.40936-0.035-0.64885-0.24056-0.90625-0.4375-0.0927-4e-3 -0.18865-0.0352-0.28125-0.0313zm2.2812 0.40625c-0.072 1e-3 -0.14679 0.0254-0.21875 0.0313 0.0432 9e-3 0.0772 0.0272 0.125 0.0313 0.15833 0.0145 0.30899-0.0171 0.46875-0.0313-0.12245-0.0226-0.25224-0.0334-0.375-0.0313zm0.96875 0.1875c-0.0641 2e-3 -0.12357 0.0276-0.1875 0.0313 0.0927 6e-3 0.18873-8e-3 0.28125 0-0.0298-0.0116-0.0634-0.0202-0.0937-0.0313z" clip-path="url(#al)" fill="#fce94f" fill-rule="evenodd" filter="url(#ae)" opacity=".49153"/><rect x="83" y="393.36" width="94" height="66" rx="0" ry="0" fill="url(#s)" opacity=".34234"/><rect x="82" y="505.36" width="144" height="1" fill="#d3d7cf" opacity=".5"/><path d="m84.744 513.61c2.546 0.0108-0.8307-4.7416 1.5995-2.3157-0.93161 1.5952 1.9094 3.1887-1.0751 2.7752-0.28938 0.0146-0.65528-0.19233-0.52444-0.45956zm3.7178-0.19617c1.6601-0.20172-0.54939 1.3699 0 0zm4.2774-2.7652c1.6082 1.1881-0.96114 1.6577 0.5931 3.094-0.43636 1.427-2.4508-3.0457-0.5931-3.094zm3.3135 2.0435c-4.0432 0.62865 2.1888 1.5128 0 0zm1.0752-0.17749c1.3541 2.7296-5.573 0.73408-1.2222-0.0919 1.7458-0.50847-2.8583-0.87517-0.19283-1.0945 0.81819-0.10772 1.546 0.55838 1.415 1.1864zm1.6348 1.1c-0.77403 3.1366-1.3881-4.78 2.2335-1.7292 0.78757 1.0756-0.81443 3.1865-2.2335 1.7292zm1.834-0.91316c-1.4799-3.424-2.4072 3.2969 0 0zm1.4531-1.3102c1.6996 0.69622-0.38611 3.9053 2e-3 1.1257l3e-3 -0.56272zm0-1.0182c1.4654-0.12954-0.49466 1.2252 0 0zm2.9356 1.3195c-2.8763 0.61522 1.8697 3.1281 0.87158 0.59262-0.0853-0.31554-0.4465-0.61679-0.87158-0.59262zm0-0.36433c4.0456 0.25617-1.3578 4.7589-1.5059 1.3732-0.0958-0.67288 0.5829-1.4499 1.5059-1.3732zm4.7578 0.16349c-2.3037-0.17488-2.5556 2.7286-0.0328 2.2623-3.3164 1.7387-3.2633-3.7243 0.0328-2.2623zm2.4346 1.2004c-4.0432 0.62868 2.1888 1.5128 0 0zm1.0752-0.17749c1.3541 2.7296-5.573 0.73408-1.2222-0.0919 1.7458-0.50847-2.8583-0.87517-0.19282-1.0945 0.81819-0.10772 1.546 0.55838 1.415 1.1864zm3.5566-1.866c1.6082 1.1881-0.96114 1.6577 0.5931 3.094-0.43636 1.427-2.4508-3.0457-0.5931-3.094zm3.3135 2.0435c-4.0432 0.62865 2.1888 1.5128 0 0zm1.0752-0.17749c1.3541 2.7296-5.573 0.73408-1.2222-0.0919 1.7458-0.50847-2.8583-0.87517-0.19283-1.0945 0.81819-0.10772 1.546 0.55838 1.415 1.1864zm3.0146-0.72165c-2.0656-0.61005-1.3554 3.9591-2.085 0.74352-0.17766-0.81565 1.6529-1.9201 2.085-0.74352zm2.0625 0.89914c-4.0432 0.62865 2.1888 1.5128 0 0zm1.0752-0.17749c1.3541 2.7296-5.573 0.7341-1.2222-0.0919 1.7458-0.50847-2.8583-0.87518-0.19282-1.0945 0.8182-0.10772 1.546 0.55839 1.415 1.1864zm1.6348 1.1c-0.77402 3.1366-1.3881-4.78 2.2335-1.7292 0.78757 1.0756-0.81443 3.1865-2.2335 1.7292zm1.834-0.91316c-1.4799-3.424-2.4072 3.2969 0 0zm1.4531-1.3102c1.6996 0.69624-0.38612 3.9053 2e-3 1.1257l3e-3 -0.56271zm0-1.0182c1.4654-0.12954-0.49467 1.2252 0 0zm3.1553 2.3191c-4.0432 0.62866 2.1888 1.5128 0 0zm1.0752-0.17749c1.3541 2.7296-5.573 0.73408-1.2222-0.0919 1.7458-0.50847-2.8583-0.87517-0.19282-1.0945 0.81819-0.10772 1.546 0.55838 1.415 1.1864zm1.1894 0.89914c1.6601-0.20171-0.5494 1.3699 0 0z" fill="#d3d7cf" opacity=".6"/><rect x="84" y="518.36" width="94.875" height="4" rx="2" ry="1.957" opacity=".02"/><path d="m85.151 521.61c3.2553-0.53224 0.32188 1.4633-0.32102-0.0497 0.73847-1.1101 2.8896-2.9101-0.0915-2.8538 4.0876-0.76391 2.3787 1.8498 0.41254 2.9035zm3.3105-0.19661c1.6601-0.20217-0.54939 1.3729 0 0zm4.2656 0.2013c-0.77403 3.1436-1.3881-4.7906 2.2335-1.733 0.78757 1.078-0.81442 3.1935-2.2335 1.733zm1.834-0.91519c-1.4799-3.4316-2.4072 3.3043 0 0zm3.3545-0.91049c-2.0656-0.61141-1.3554 3.9679-2.085 0.74515-0.17767-0.81745 1.6529-1.9244 2.085-0.74515zm3.249 0.80048c-2.8724-0.13622-1.7016 1.1614-0.78665 1.3415-4.6066 0.78432-1.4359-4.5288 0.74825-1.8291zm-0.53906-0.12639c-0.38333-1.9184-3.8592 0.61542 0 0zm3.9785-0.57346c2.2497-2.6048 2.5426 4.2317 1.5963 0.64623-0.78474-2.5642-2.3784 3.2908-1.8432 0.23754-1.1406-1.9066-2.0346 0.29319-2.1401 0.92697-0.99378-1.7238 0.56104-3.4038 2.387-1.8107zm4.7842 0.80051c-4.0432 0.63002 2.1888 1.5161 0 0zm1.0752-0.17789c1.3541 2.7357-5.573 0.73572-1.2222-0.0921 1.7458-0.50959-2.8583-0.87712-0.19282-1.0969 0.81819-0.10796 1.546 0.55963 1.415 1.189zm1.6465-1.8702c1.6082 1.1907-0.96113 1.6613 0.5931 3.1008-0.43635 1.4301-2.4508-3.0524-0.5931-3.1008zm1.7666 2.3313c-0.41644-1.7174 0.95794-1.4214 0.63581 0.11306 1.709 1.6072 2.0132-3.5168 2.3561-0.34075-0.0131 1.4734-2.9136 1.7677-2.9919 0.22769zm5.7656-1.1844c-2.0656-0.61139-1.3554 3.9679-2.085 0.74515-0.17766-0.81745 1.653-1.9244 2.085-0.74515zm2.0625 0.90114c-4.0432 0.63003 2.1888 1.5161 0 0zm1.0752-0.17789c1.3541 2.7357-5.573 0.73571-1.2222-0.0921 1.7458-0.50959-2.8584-0.8771-0.19284-1.0969 0.8182-0.10796 1.546 0.55963 1.415 1.189zm1.6465-1.8702c1.6082 1.1907-0.96115 1.6613 0.5931 3.1008-0.43636 1.4301-2.4508-3.0524-0.5931-3.1008zm3.3135 2.048c-4.0432 0.63007 2.1888 1.5161 0 0zm1.0752-0.17789c1.3541 2.7357-5.573 0.73571-1.2222-0.0921 1.7458-0.50959-2.8583-0.87711-0.19282-1.0969 0.81819-0.10796 1.546 0.55962 1.415 1.189zm3.0234-2.1464c1.696 0.74436-0.20715 5.3034 0 1.8166v-1.8166zm3.1553 2.3242c-4.0432 0.63003 2.1888 1.5161 0 0zm1.0752-0.17789c1.3541 2.7357-5.573 0.73571-1.2222-0.0921 1.7458-0.50959-2.8583-0.87711-0.19282-1.0969 0.81819-0.10796 1.546 0.55963 1.415 1.189zm5.1152-1.0486c-1.8684 0.43328-1.7662 0.94856-0.0604 1.3772 1.0982 1.5818-4.3836 1.0933-0.75249 0.68592-1.0768-1.2614-2.8086-2.5938 0.81287-2.0631zm0.98145 1.5097c-0.41644-1.7174 0.95793-1.4214 0.6358 0.11306 1.709 1.6072 2.0132-3.5168 2.3561-0.34075-0.0131 1.4734-2.9135 1.7677-2.9919 0.22769zm4.3857 0.64133c-0.77402 3.1436-1.3881-4.7906 2.2335-1.733 0.78757 1.078-0.81443 3.1935-2.2335 1.733zm1.834-0.91519c-1.4799-3.4316-2.4072 3.3042 0 0zm4.2598-0.11001c-2.8724-0.13622-1.7016 1.1614-0.78665 1.3415-4.6066 0.78432-1.4359-4.5288 0.74825-1.8291zm-0.53906-0.12639c-0.38333-1.9184-3.8592 0.61542 0 0zm3.3252-0.67409c-2.0656-0.61139-1.3554 3.9679-2.085 0.74515-0.17767-0.81745 1.6529-1.9244 2.085-0.74515zm2.8037-0.30195c-2.3037-0.17525-2.5556 2.7347-0.0328 2.2673-3.3164 1.7426-3.2633-3.7326 0.0328-2.2673zm2.4346 1.2031c-4.0432 0.63003 2.1888 1.5161 0 0zm1.0752-0.17789c1.3541 2.7357-5.573 0.73571-1.2222-0.0921 1.7458-0.50959-2.8583-0.87711-0.19282-1.0969 0.81819-0.10796 1.546 0.55963 1.415 1.189zm0.8789-1.1258c2.5462-0.88697 2.6242 1.4245 0.71192 2.1717 3.816 0.0522-1.8874 1.2284-0.18118-0.5227 1.6285-1.4482 1.2195-1.2998-0.53074-1.649zm3.1524 0c2.5462-0.88697 2.6242 1.4245 0.71191 2.1717 3.816 0.0522-1.8874 1.2284-0.18117-0.5227 1.6285-1.4482 1.2195-1.2998-0.53074-1.649zm4.6582 0.30193c-2.8763 0.61659 1.8697 3.1351 0.87158 0.59394-0.0853-0.31625-0.44649-0.61817-0.87158-0.59394zm0-0.36513c4.0456 0.25674-1.3578 4.7695-1.5059 1.3763-0.0958-0.67437 0.5829-1.4531 1.5059-1.3763zm2.3965-0.95731c1.696 0.74436-0.20714 5.3034 0 1.8166v-1.8166zm3.1553 2.3242c-4.0432 0.63003 2.1888 1.5161 0 0zm1.0752-0.17789c1.3541 2.7357-5.573 0.73571-1.2222-0.0921 1.7458-0.50959-2.8584-0.8771-0.19284-1.0969 0.81819-0.10796 1.546 0.55963 1.415 1.189zm1.1895 0.90113c1.6601-0.20215-0.5494 1.3729 0 0z" fill="#d3d7cf" opacity=".6"/><path d="m84 451.49c22.498-3.4115 40.875-0.16667 60.875-0.125l31.125-1.75v8.75h-92z" fill="url(#n)"/></g><g transform="translate(0 303.93)" fill-rule="evenodd"><g transform="matrix(.98925 0 0 1.0232 21.376 24.59)"><path transform="matrix(.76048 0 0 .87302 56.123 8.4826)" d="m162 24c-2.7302 0-5.4062 0.18108-8.0312 0.5625-3.1702 5.9491-4.9688 12.73-4.9688 19.938 0 23.46 19.04 42.5 42.5 42.5 9.7773 0 18.785-3.3191 25.969-8.875-0.73575-29.997-25.296-54.125-55.469-54.125z" fill="url(#g)" filter="url(#ah)" opacity=".16868"/><path transform="translate(0,50)" d="m174-31c13.558 0 22.308 11.846 27.731 17.269s19.269 16.173 19.269 29.731c0-13.558-20.111-8.6028-26.192-8.6028-0.6357 0-1.2268-0.51769-1.1502-1.1502 2.5084-20.705-6.1006-37.247-19.658-37.247z" filter="url(#af)" mask="url(#o)" opacity=".37952"/><path d="m172.59 20.722c24.827-0.87083 48.543 30.546 47.5 47 0-13.558-7.491-16.365-29.984-16.365-0.6357 0-1.1502-0.51307-1.1502-1.1502 0-22.493-2.8077-29.484-16.365-29.484z" fill="url(#f)" filter="url(#aa)" opacity=".42771"/><path d="m171.45 22.448c13.558 0 25.308 10.846 30.731 16.269s16.269 17.173 16.269 30.731c0-13.558-6.991-16.365-29.484-16.365-0.6357 0-1.1502-0.51307-1.1502-1.1502 0-22.493-2.8077-29.484-16.365-29.484z" fill="url(#q)" filter="url(#z)" opacity=".27711"/><path d="m173.12 19.75c13.558 0 25.308 10.846 30.731 16.269s16.269 17.173 16.269 30.731c0-13.558-6.991-16.365-29.484-16.365-0.6357 0-1.1502-0.51307-1.1502-1.1502 0-22.493-2.8077-29.484-16.365-29.484z" fill="url(#e)"/><path d="m174 19c13.558 0 25.308 10.846 30.731 16.269s16.269 17.173 16.269 30.731c0-13.558-6.991-16.365-29.484-16.365-0.6357 0-1.1502-0.51307-1.1502-1.1502 0-22.493-2.8077-29.484-16.365-29.484z" fill="url(#d)"/><path d="m174.13 19.031c15.481 1.0337 16.019 13.643 16.263 26.517-0.74413-7.7303 1.374-15.978-4.2426-22.627 4.5078 1.5017 9.8111 5.7816 14.938 9.1924-5.4964-4.8666-14.015-13.001-26.958-13.081z" fill="url(#c)" filter="url(#y)"/><path d="m219.38 57.625c-3.971-8.9-17.43-7.2964-27.25-8 9.9276-0.23867 24.598-2.9842 27.25 8z" fill="url(#b)" filter="url(#x)"/></g><path transform="matrix(.98925 0 0 1.0232 21.376 24.59)" d="m174 19c13.558 0 25.308 10.846 30.731 16.269s16.269 17.173 16.269 30.731c0-13.558-6.991-16.365-29.484-16.365-0.6357 0-1.1502-0.51307-1.1502-1.1502 0-22.493-2.8077-29.484-16.365-29.484z" fill="url(#p)"/></g></g></g></g></svg>
