<?xml version="1.0" encoding="UTF-8"?>
<svg enable-background="new" version="1.0" viewBox="0 0 256 256" xmlns="http://www.w3.org/2000/svg" xmlns:xlink="http://www.w3.org/1999/xlink"><defs><linearGradient id="a"><stop stop-color="#fff" offset="0"/><stop stop-color="#fff" stop-opacity="0" offset="1"/></linearGradient><linearGradient id="ae"><stop stop-color="#fff" offset="0"/><stop stop-color="#fff" offset=".20511"/><stop stop-color="#888a85" offset=".76182"/><stop stop-color="#babdb6" offset="1"/></linearGradient><linearGradient id="c"><stop offset="0"/><stop stop-opacity="0" offset="1"/></linearGradient><linearGradient id="b"><stop stop-color="#888a85" offset="0"/><stop stop-color="#fff" offset=".33366"/><stop stop-color="#888a85" offset=".71094"/><stop stop-color="#babdb6" offset="1"/></linearGradient><filter id="be" x="-.00624" y="-.156" width="1.0125" height="1.312"><feGaussianBlur stdDeviation="0.5525"/></filter><linearGradient id="ad" x1="86.25" x2="86.25" y1="56" y2="68.023" gradientUnits="userSpaceOnUse"><stop stop-color="#babdb6" offset="0"/><stop stop-color="#eeeeec" offset=".33366"/><stop stop-color="#888a85" offset="1"/></linearGradient><mask id="v" maskUnits="userSpaceOnUse"><rect x="36" y="56" width="216" height="12" rx="2.7164" ry="6" enable-background="new" fill="url(#ad)"/></mask><filter id="bd"><feGaussianBlur stdDeviation="0.6275"/></filter><clipPath id="bo"><path d="m143.94 260c-2.2506 0-4.0625 0.7142-4.0625 1.5938v31.562c-2.2856 1.3808-3.8305 3.866-3.875 6.7188l-26.219 16.562c-0.21318 0.12308-0.43187 0.28458-0.65625 0.4375-0.91201-0.55976-1.9772-0.875-3.125-0.875-3.312 0-6 2.688-6 6s2.688 6 6 6 6-2.688 6-6c0-0.18635-0.0146-0.38047-0.0312-0.5625l28.062-14.5c1.1705 0.67121 2.5236 1.0625 3.9688 1.0625 1.4605 0 2.821-0.40922 4-1.0938l28.031 14.469c-0.0205 0.20162-0.03125 0.418-0.03125 0.625 0 3.312 2.688 6 6 6s6-2.688 6-6-2.688-6-6-6c-1.178 0-2.2602 0.35024-3.1875 0.9375-0.21319-0.14405-0.42285-0.28954-0.625-0.40625l-26.188-16.531c0-2.9555-1.6143-5.5211-4-6.9062v-31.5c0-0.87954-1.8119-1.5938-4.0625-1.5938z" enable-background="new"/></clipPath><filter id="bc"><feGaussianBlur stdDeviation="0.21587626"/></filter><filter id="bb"><feGaussianBlur stdDeviation="0.49799046"/></filter><filter id="ba"><feGaussianBlur stdDeviation="0.49799046"/></filter><filter id="az"><feGaussianBlur stdDeviation="0.0640625"/></filter><filter id="ay" x="-.1212" y="-.71101" width="1.2424" height="2.422"><feGaussianBlur stdDeviation="4.4438223"/></filter><filter id="ax" x="-.087911" y="-2.0704" width="1.1758" height="5.1408"><feGaussianBlur stdDeviation="7.9119732"/></filter><filter id="aw"><feGaussianBlur stdDeviation="1.08"/></filter><filter id="av"><feGaussianBlur stdDeviation="0.78"/></filter><filter id="bh"><feGaussianBlur stdDeviation="0.4822653"/></filter><filter id="bg" x="-.034968" y="-.55949" width="1.0699" height="2.119"><feGaussianBlur stdDeviation="0.46624473"/></filter><filter id="bf"><feGaussianBlur stdDeviation="1.5611814"/></filter><filter id="bk"><feGaussianBlur stdDeviation="2.50425"/></filter><filter id="bi" x="-.0060583" y="-.624" width="1.0121" height="2.248"><feGaussianBlur stdDeviation="0.52"/></filter><clipPath id="bp"><rect x="40" y="-124" width="208" height="152" rx="0" ry="0" enable-background="new"/></clipPath><filter id="bj"><feGaussianBlur stdDeviation="0.9"/></filter><filter id="bn" x="-.16294" y="-2.3897" width="1.3259" height="5.7795"><feGaussianBlur stdDeviation="11.948684"/></filter><filter id="bm" x="-.093476" y="-1.094" width="1.187" height="3.188"><feGaussianBlur stdDeviation="8.257079"/></filter><linearGradient id="ac" x1="1031.5" x2="1059.5" y1="652" y2="869.17" gradientUnits="userSpaceOnUse"><stop stop-color="#8ae234" stop-opacity=".62174" offset="0"/><stop stop-color="#73d216" offset=".22747"/><stop stop-color="#8ae234" stop-opacity=".71304" offset=".3005"/><stop stop-color="#7eda25" stop-opacity=".68696" offset=".61341"/><stop stop-color="#73d216" offset=".92172"/><stop stop-color="#a0e859" offset="1"/></linearGradient><linearGradient id="ab" x1="1048.1" x2="1009.8" y1="1075.5" y2="1075.5" gradientUnits="userSpaceOnUse"><stop stop-color="#cdf4a8" offset="0"/><stop stop-color="#bdef8c" offset=".145"/><stop stop-color="#8ae234" stop-opacity="0" offset="1"/></linearGradient><clipPath id="bs"><rect x="1028" y="972" width="48" height="224" rx="3.9688" ry="3.9688"/></clipPath><linearGradient id="aa" x1="1065" x2="1030" y1="969.5" y2="961.5" gradientUnits="userSpaceOnUse"><stop stop-color="#73d216" offset="0"/><stop stop-color="#d7f6ba" offset="1"/></linearGradient><clipPath id="bq"><rect x="1028" y="842" width="48" height="224" rx="3.9688" ry="3.9688"/></clipPath><linearGradient id="z" x1="1201.5" x2="1167" y1="725" y2="590.5" gradientUnits="userSpaceOnUse"><stop stop-color="#4e9a06" offset="0"/><stop stop-color="#73d216" offset="1"/></linearGradient><clipPath id="br"><rect x="1168" y="652" width="48" height="224" rx="3.9688" ry="3.9688"/></clipPath><filter id="bl"><feGaussianBlur stdDeviation="0.685"/></filter><linearGradient id="y" x1="1028" x2="1071.3" y1="821.28" y2="821.28" gradientTransform="translate(0,11)" gradientUnits="userSpaceOnUse"><stop stop-color="#fff" stop-opacity="0" offset="0"/><stop stop-color="#fff" offset=".22284"/><stop stop-color="#fff" stop-opacity=".62609" offset=".59987"/><stop stop-color="#fff" stop-opacity="0" offset="1"/></linearGradient><linearGradient id="x" x1="1048.4" x2="1048.4" y1="654.69" y2="653" gradientUnits="userSpaceOnUse"><stop stop-color="#fff" offset="0"/><stop stop-color="#fff" stop-opacity="0" offset="1"/></linearGradient><radialGradient id="h" cx="1029.5" cy="764" r=".5" gradientTransform="matrix(607.63 -350.83 359.34 622.37 -899063 -113544)" gradientUnits="userSpaceOnUse" xlink:href="#a"/><radialGradient id="g" cx="1029.5" cy="763.95" r=".5" gradientTransform="matrix(494.19 -498.06 125.34 124.37 -603462 418504)" gradientUnits="userSpaceOnUse" xlink:href="#a"/><linearGradient id="w" x1="1046.7" x2="1046.7" y1="653" y2="667.76" gradientTransform="matrix(1.0455 0 0 .96633 -47.818 -1505.3)" gradientUnits="userSpaceOnUse"><stop stop-color="#fff" stop-opacity="0" offset="0"/><stop stop-color="#fff" offset=".094597"/><stop stop-color="#fff" stop-opacity="0" offset="1"/></linearGradient><linearGradient id="au" x1="82.814" x2="4.9106" y1="191.34" y2="45.536" gradientTransform="translate(0,2)" gradientUnits="userSpaceOnUse"><stop offset="0"/><stop stop-opacity="0" offset="1"/></linearGradient><radialGradient id="u" cx="106.07" cy="268.09" r="13.965" gradientTransform="matrix(1.0363 0 0 .29516 -3.8534 188.96)" gradientUnits="userSpaceOnUse" xlink:href="#c"/><radialGradient id="t" cx="106.07" cy="268.09" r="13.965" gradientTransform="matrix(1.0044 -7.0497e-7 6.188e-7 .28606 -.46527 191.4)" gradientUnits="userSpaceOnUse" xlink:href="#c"/><radialGradient id="s" cx="106.07" cy="268.09" r="13.965" gradientTransform="matrix(1 0 0 .28481 0 191.74)" gradientUnits="userSpaceOnUse" xlink:href="#c"/><radialGradient id="r" cx="142.08" cy="236.93" r="8" gradientTransform="matrix(1.3129 0 0 1.3129 -44.154 -74.19)" gradientUnits="userSpaceOnUse"><stop stop-color="#fff" offset="0"/><stop stop-color="#eeeeec" offset=".25"/><stop stop-color="#888a85" offset=".76182"/><stop stop-color="#babdb6" offset="1"/></radialGradient><linearGradient id="at" x1="139.88" x2="148" y1="248.12" y2="248.12" gradientTransform="matrix(.98462 0 0 .74105 2.2769 59.326)" gradientUnits="userSpaceOnUse" xlink:href="#b"/><linearGradient id="as" x1="145.25" x2="145.25" y1="253.13" y2="245.37" gradientUnits="userSpaceOnUse"><stop offset="0"/><stop stop-opacity="0" offset="1"/></linearGradient><radialGradient id="q" cx="141.89" cy="237.32" r="8" gradientTransform="matrix(1.3129 0 0 1.3129 -44.154 -74.19)" gradientUnits="userSpaceOnUse"><stop stop-color="#fff" offset="0"/><stop stop-color="#fff" offset=".1995"/><stop stop-color="#888a85" offset=".76182"/><stop stop-color="#babdb6" offset="1"/></radialGradient><linearGradient id="ar" x1="140" x2="148.02" y1="220.5" y2="220.5" gradientUnits="userSpaceOnUse" xlink:href="#b"/><radialGradient id="p" cx="143.94" cy="216.06" r="4.0625" gradientTransform="matrix(1.7037 0 0 1.9692 -221.29 -210.48)" gradientUnits="userSpaceOnUse"><stop stop-opacity="0" offset="0"/><stop stop-opacity="0" offset=".56557"/><stop offset="1"/></radialGradient><linearGradient id="aq" x1="-148" x2="-139.88" y1="-260" y2="-260" gradientTransform="matrix(.98462 0 0 1 277.57 524.71)" gradientUnits="userSpaceOnUse" xlink:href="#b"/><linearGradient id="ap" x1="-148" x2="-139.88" y1="-260" y2="-260" gradientTransform="translate(423.75 244.65)" gradientUnits="userSpaceOnUse" xlink:href="#b"/><radialGradient id="o" cx="124.1" cy="249.71" r="16.44" gradientTransform="matrix(1.0538 0 0 .62886 -6.6719 92.677)" gradientUnits="userSpaceOnUse"><stop stop-color="#fff" offset="0"/><stop stop-color="#fff" stop-opacity="0" offset="1"/></radialGradient><radialGradient id="f" cx="142.08" cy="236.93" r="8" gradientTransform="matrix(1.3129 0 0 1.3129 -44.154 -74.19)" gradientUnits="userSpaceOnUse" xlink:href="#ae"/><radialGradient id="n" cx="164.1" cy="249.71" r="16.44" gradientTransform="matrix(1 0 0 .59677 0 100.69)" gradientUnits="userSpaceOnUse"><stop stop-color="#fff" offset="0"/><stop stop-color="#fff" stop-opacity="0" offset="1"/></radialGradient><radialGradient id="m" cx="144" cy="136" r="104" gradientTransform="matrix(1.8235 0 0 1.327 -118.59 -48.474)" gradientUnits="userSpaceOnUse"><stop stop-color="#fff" offset="0"/><stop stop-color="#fff" offset=".33537"/><stop stop-color="#eeeeec" offset="1"/></radialGradient><linearGradient id="ao" x1="140" x2="140" y1="208" y2="125.46" gradientUnits="userSpaceOnUse"><stop stop-color="#fff" stop-opacity="0" offset="0"/><stop stop-color="#fff" offset=".5"/><stop stop-color="#fff" stop-opacity="0" offset="1"/></linearGradient><linearGradient id="an" x1="51.625" x2="51.625" y1="68.875" y2="72.003" gradientTransform="translate(0,-4)" gradientUnits="userSpaceOnUse"><stop offset="0"/><stop stop-opacity="0" offset="1"/></linearGradient><linearGradient id="am" x1="141.9" x2="141.9" y1="64.188" y2="65" gradientUnits="userSpaceOnUse"><stop offset="0"/><stop stop-opacity="0" offset="1"/></linearGradient><linearGradient id="al" x1="86.25" x2="86.25" y1="56" y2="68.023" gradientTransform="translate(0,-4)" gradientUnits="userSpaceOnUse"><stop stop-color="#888a85" offset="0"/><stop stop-color="#fff" offset=".33366"/><stop stop-color="#888a85" offset=".66683"/><stop stop-color="#babdb6" offset="1"/></linearGradient><linearGradient id="ak" x1="133.5" x2="133.5" y1="58.5" y2="64.299" gradientUnits="userSpaceOnUse"><stop stop-color="#fff" offset="0"/><stop stop-color="#fff" stop-opacity="0" offset="1"/></linearGradient><radialGradient id="l" cx="144" cy="138" r="92" gradientTransform="matrix(-.40726 .89169 -1.3245 -.60496 385.43 93.082)" gradientUnits="userSpaceOnUse"><stop stop-color="#729fcf" offset="0"/><stop stop-color="#729fcf" stop-opacity="0" offset="1"/></radialGradient><linearGradient id="aj" x1="128.75" x2="161.5" y1="112" y2="135.75" gradientTransform="translate(-4)" gradientUnits="userSpaceOnUse"><stop stop-color="#729fcf" offset="0"/><stop stop-color="#3465a4" offset="1"/></linearGradient><radialGradient id="k" cx="117" cy="142.51" r="32" gradientTransform="matrix(-1.0549 0 0 -.875 226.43 270.69)" gradientUnits="userSpaceOnUse"><stop stop-color="#ce5c00" offset="0"/><stop stop-color="#f57900" offset=".6875"/><stop stop-color="#ce5c00" offset="1"/></radialGradient><linearGradient id="ai" x1="81" x2="144" y1="153.75" y2="153.75" gradientTransform="translate(-4)" gradientUnits="userSpaceOnUse"><stop stop-color="#fff" stop-opacity="0" offset="0"/><stop stop-color="#fff" offset=".21341"/><stop stop-color="#fff" stop-opacity=".49804" offset=".37398"/><stop stop-color="#fdd79e" stop-opacity="0" offset=".68849"/><stop stop-color="#fcaf3e" stop-opacity=".77682" offset=".85714"/><stop stop-color="#fff" stop-opacity="0" offset="1"/></linearGradient><linearGradient id="ah" x1="124.38" x2="94.25" y1="158.88" y2="123" gradientTransform="translate(-4)" gradientUnits="userSpaceOnUse"><stop stop-color="#f57900" offset="0"/><stop stop-color="#fcaf3e" offset="1"/></linearGradient><linearGradient id="ag" x1="125.75" x2="145.75" y1="120.75" y2="141.75" gradientTransform="translate(-4)" gradientUnits="userSpaceOnUse"><stop stop-color="#3465a4" offset="0"/><stop stop-color="#729fcf" offset="1"/></linearGradient><radialGradient id="j" cx="94.883" cy="171.43" r="31.969" gradientTransform="matrix(1.7307 0 0 .7444 -73.968 34.383)" gradientUnits="userSpaceOnUse"><stop stop-color="#fff" offset="0"/><stop stop-color="#fff" stop-opacity="0" offset="1"/></radialGradient><radialGradient id="i" cx="129.62" cy="128" r="16" gradientTransform="matrix(1.6719 5.2246e-8 0 .25 -91.092 96)" gradientUnits="userSpaceOnUse"><stop stop-color="#fff" offset="0"/><stop stop-color="#fff" stop-opacity="0" offset="1"/></radialGradient><radialGradient id="e" cx="96.125" cy="164.12" r="4.375" gradientUnits="userSpaceOnUse" xlink:href="#a"/><linearGradient id="af" x1="155.25" x2="125.25" y1="172" y2="77" gradientUnits="userSpaceOnUse"><stop stop-color="#fff" offset="0"/><stop stop-color="#fff" stop-opacity="0" offset=".29449"/><stop stop-color="#fff" stop-opacity=".24706" offset=".53292"/><stop stop-color="#fff" stop-opacity="0" offset=".76232"/><stop stop-color="#fff" stop-opacity="0" offset="1"/></linearGradient><radialGradient id="d" cx="105.1" cy="260.63" r="3.1355" gradientUnits="userSpaceOnUse" xlink:href="#a"/></defs><g transform="translate(-416 -28)"><g><g transform="translate(388)" enable-background="new"><path d="m38.719 55c-1.5049 0-2.7188 2.676-2.7188 6s1.2139 6 2.7188 6h1.2812v141c0 1.108 0.892 2 2 2h204c1.108 0 2-0.892 2-2v-141h1.2812c1.5049 0 2.7188-2.676 2.7188-6s-1.2139-6-2.7188-6z" enable-background="new" fill="url(#au)" filter="url(#bk)" opacity=".3"/><path d="m139.88 198v35.156c-2.2856 1.3808-3.8305 3.866-3.875 6.7188l-26.219 16.562c-0.21318 0.12308-0.43187 0.28458-0.65625 0.4375-0.91201-0.55976-1.9772-0.875-3.125-0.875-3.312 0-6 2.688-6 6s2.688 6 6 6 6-2.688 6-6c0-0.18635-0.0146-0.38047-0.0313-0.5625l28.062-14.5c0.20722 0.11883 0.40668 0.24347 0.625 0.34375l0.21875 1.0312c-1.0543 0.89445-1.75 2.1976-1.75 3.6875 0 2.691 2.184 4.875 4.875 4.875s4.875-2.184 4.875-4.875c0-1.4899-0.69568-2.793-1.75-3.6875l0.21875-1.0312c0.23144-0.10631 0.43731-0.24788 0.65625-0.375l28.031 14.469c-0.0205 0.20162-0.03125 0.418-0.03125 0.625 0 3.312 2.688 6 6 6s6-2.688 6-6-2.688-6-6-6c-1.178 0-2.2602 0.35024-3.1875 0.9375-0.21319-0.14405-0.42285-0.28954-0.625-0.40625l-26.188-16.531c0-2.9555-1.6143-5.5211-4-6.9062v-35.094z" enable-background="new" filter="url(#aw)" opacity=".45365"/><g enable-background="new"><g transform="translate(0,-20)"><path transform="matrix(1 0 0 .88333 0 51.267)" d="m144 253c-4.3662 0-7.9205 1.4698-8 3.2812l-26.219 6.9062c-0.20883 0.0502-0.43656 0.12531-0.65625 0.1875-0.91348-0.23431-1.9743-0.375-3.125-0.375-3.312 0-6 1.12-6 2.5s2.688 2.5 6 2.5 6-1.12 6-2.5c0-0.0863-0.0108-0.16599-0.0313-0.25l28.094-6.0312c1.1663 0.27697 2.4999 0.4375 3.9375 0.4375s2.7712-0.16053 3.9375-0.4375c0.0105 3e-3 0.0207-3e-3 0.0313 0l28.062 6.0312c-0.0205 0.084-0.0313 0.16375-0.0313 0.25 0 1.38 2.688 2.5 6 2.5s6-1.12 6-2.5-2.688-2.5-6-2.5c-1.1781 0-2.2602 0.16155-3.1875 0.40625-0.21124-0.0594-0.42464-0.1393-0.625-0.1875l-26.187-6.9062c-0.04008-1.8257-3.6089-3.3125-8-3.3125z" enable-background="new" filter="url(#ay)" opacity=".5"/><ellipse transform="matrix(.50124 0 0 .58949 90.835 117.62)" cx="106.07" cy="268.09" rx="13.965" ry="3.9775" enable-background="new" fill="url(#u)" opacity=".55794"/><g transform="translate(0,20)"><ellipse transform="matrix(.57285 0 0 .84853 45.24 39.142)" cx="106.07" cy="268.09" rx="13.965" ry="3.9775" fill="url(#t)" opacity=".55794"/><ellipse transform="matrix(.57285 0 0 .84853 121.24 39.142)" cx="106.07" cy="268.09" rx="13.965" ry="3.9775" enable-background="new" fill="url(#s)" opacity=".55794"/></g></g><rect transform="matrix(1.0926 0 0 .56387 -12.333 119.01)" x="36" y="261.41" width="216" height="9.1716" rx="18.586" ry="4.5858" enable-background="new" filter="url(#ax)" opacity=".07"/></g><g><circle transform="matrix(.60938 0 0 .60938 56.174 105.83)" cx="144.12" cy="239.88" r="8" enable-background="new" fill="url(#r)"/><path d="m144 241c2.216 0 4.3314 1.3605 4 3.0105l-1 4.979c-0.3314 1.65-0.784 3.0105-3 3.0105s-2.6686-1.3605-3-3.0105l-1-4.979c-0.3314-1.65 1.784-3.0105 4-3.0105z" enable-background="new" fill="url(#at)"/><path d="m144 241c-2.216 0-4.3314 1.35-4 3l0.875 4.3125c-1.0543 0.89445-1.75 2.1976-1.75 3.6875 0 2.691 2.184 4.875 4.875 4.875s4.875-2.184 4.875-4.875c0-1.4899-0.69568-2.793-1.75-3.6875l0.875-4.3125c0.3314-1.65-1.784-3-4-3z" enable-background="new" fill="url(#as)" filter="url(#az)" opacity=".25"/></g><circle transform="translate(-.125 .125)" cx="144.12" cy="239.88" r="8" fill="url(#q)"/><rect x="139.88" y="200" width="8.125" height="35.05" rx="4.0625" ry="1.5876" fill="url(#ar)" filter="url(#bc)"/><rect transform="translate(120)" x="19.875" y="207" width="8.125" height="8" rx="0" ry="0" enable-background="new" fill="url(#p)" opacity=".3691"/><path transform="matrix(-.5 .86603 .86603 .5 0 0)" d="m135.85 247.61c2.216 0 4 1.784 4 4l-1.5 31.698c0 2.216-0.0519 5-2.2679 5-2.216 0-3-3.516-3-5.732l-1.2321-30.966c0-2.216 1.784-4 4-4z" enable-background="new" fill="url(#aq)" filter="url(#bb)"/><path transform="matrix(.5 .86603 .86603 -.5 0 0)" d="m280.05-38.945c2.2506 0 2.3304 2.8119 2.3304 5.0625l1.5 31.87c0 2.2506-1.8119 4.0625-4.0625 4.0625-2.2506 0-4.0625-1.8119-4.0625-4.0625l1.2321-31.138c0-2.2506 0.81187-5.7946 3.0625-5.7946z" enable-background="new" fill="url(#ap)" filter="url(#ba)"/><path d="m107.66 259.34 31.466-19.445 1.4142 1.7678-31.643 17.854z" fill="url(#o)" fill-rule="evenodd" opacity=".59009"/><circle transform="matrix(.75 0 0 .75 -2.0938 82.094)" cx="144.12" cy="239.88" r="8" enable-background="new" fill="url(#f)"/><path d="m180.54 259.34-31.466-19.445-1.4142 1.7678 31.643 17.854z" enable-background="new" fill="url(#n)" fill-rule="evenodd" opacity=".59009"/><circle transform="matrix(.75 0 0 .75 73.906 82.094)" cx="144.12" cy="239.88" r="8" enable-background="new" fill="url(#f)"/><path transform="translate(0,-60)" d="m142.94 257.25c-1.4174 0-2.695 0.19266-3.875 0.65625-0.58998 0.23179-1.1773 0.49875-1.75 1.0312s-1.1875 1.4883-1.1875 2.6562v30.219c-1.8998 1.5976-3.1814 3.8302-3.625 6.375l-24.656 13.562c-0.90328-0.31115-1.8506-0.5-2.8438-0.5-4.8061 0-8.75 3.9439-8.75 8.75s3.9439 8.75 8.75 8.75c4.3653 0 7.8648-3.3002 8.5-7.5l25.719-13.281c1.1874 0.45421 2.436 0.78125 3.7812 0.78125 1.3793 0 2.6429-0.3393 3.8438-0.8125l25.656 13.25c0.60873 4.2293 4.1135 7.5625 8.5 7.5625 4.8061 0 8.75-3.9439 8.75-8.75s-3.9439-8.75-8.75-8.75c-1.0482 0-2.0114 0.22184-2.9375 0.5625l-24.531-13.5c-0.42764-2.6434-1.7958-4.9348-3.7812-6.5625v-30.156c0-1.168-0.61482-2.1238-1.1875-2.6562s-1.16-0.79946-1.75-1.0312c-1.18-0.46359-2.4576-0.65625-3.875-0.65625zm0 2.75c2.2506 0 4.0625 0.71421 4.0625 1.5938v31.5c2.3857 1.3852 4 3.9508 4 6.9062l26.188 14.531c0.20215 0.11671 0.41181 0.2622 0.625 0.40625 0.92727-0.58726 2.0095-0.9375 3.1875-0.9375 3.312 0 6 2.688 6 6s-2.688 6-6 6-6-2.688-6-6c0-0.207 0.0108-0.42338 0.0313-0.625l-28.031-14.469c-1.179 0.68453-2.5395 1.0938-4 1.0938-1.4452 0-2.7982-0.39129-3.9688-1.0625l-28.062 14.5c0.01665 0.18203 0.03125 0.37615 0.03125 0.5625 0 3.312-2.688 6-6 6s-6-2.688-6-6 2.688-6 6-6c1.1478 0 2.213 0.31524 3.125 0.875 0.22438-0.15292 0.44307-0.31442 0.65625-0.4375l26.219-14.562c0.0445-2.8528 1.5894-5.3379 3.875-6.7188v-31.562c0-0.87955 1.8119-1.5938 4.0625-1.5938z" clip-path="url(#bo)" enable-background="new" filter="url(#av)" opacity=".34135"/><rect x="40" y="56" width="208" height="152" rx="0" ry="0" fill="url(#m)"/><path d="m42 58v148h204v-148z" enable-background="new" fill="url(#ao)"/><rect transform="translate(0,180)" x="40" y="-124" width="208" height="152" rx="2.4749" ry="2.4749" clip-path="url(#bp)" enable-background="new" fill="none" filter="url(#bj)" stroke="#888a85"/><rect x="40" y="56" width="208" height="12" rx=".25" ry=".019737" enable-background="new" fill="url(#an)" opacity=".054393"/><rect x="42.164" y="56" width="203.67" height="150" rx="0" ry="0" enable-background="new" fill="none" stroke="#fff" stroke-width="2"/><rect transform="matrix(1.0097 0 0 2.3125 -1.3981 -83.688)" x="41" y="63" width="206" height="2" rx="1.3269" ry=".042105" fill="url(#am)" filter="url(#bi)" opacity=".77027"/><g transform="translate(0,10)"><g transform="translate(0,-10)"><rect x="36" y="52" width="216" height="12" rx="2.7164" ry="6" fill="url(#al)"/><path transform="translate(0,-4)" d="m38.719 57.75c0.14243 0 0.22487-0.08371 0.13281 2e-3 -0.09206 0.08566-0.28645 0.33535-0.46289 0.72461-0.35289 0.77848-0.63867 2.0744-0.63867 3.5234s0.28579 2.7449 0.63867 3.5234c0.17644 0.38926 0.37083 0.63895 0.46289 0.72461 0.09206 0.08566 0.0096 2e-3 -0.13281 2e-3h210.56c-0.14243 0-0.22487 0.08371-0.13281-2e-3 0.0921-0.08566 0.28645-0.33535 0.46289-0.72461 0.35288-0.77852 0.63867-2.0745 0.63867-3.5234s-0.28579-2.7449-0.63867-3.5234c-0.17644-0.38926-0.37083-0.63895-0.46289-0.72461-0.0921-0.08566-0.01-2e-3 0.13281-2e-3z" enable-background="new" fill="url(#ak)" filter="url(#be)" opacity=".82427"/></g><path transform="translate(0,-14)" d="m30 49v24h227v-24zm8.7188 6h209.56c1.5049 0 2.7188 2.676 2.7188 6s-1.2139 6-2.7188 6h-209.56c-1.5049 0-2.7188-2.676-2.7188-6s1.2139-6 2.7188-6z" enable-background="new" filter="url(#bd)" mask="url(#v)" opacity=".64414"/></g><g><path d="m52 88v4h184v-4zm0 8v4h184v-4zm0 8v4h184v-4zm0 8v4h184v-4zm0 8v4h184v-4zm0 8v4h184v-4zm0 8v4h184v-4zm0 8v4h184v-4zm0 8v4h184v-4zm0 8v4h184v-4zm0 8v4h184v-4zm0 8v4h184v-4zm0 8v4h184v-4z" fill="url(#l)" opacity=".083004"/><g transform="translate(0,4)"><path d="m116 101v36h32v-8c0-15.456-14.336-28-32-28zm-8 12c-17.664 0-32 12.544-32 28v8c0 15.456 14.336 28 32 28s32-12.544 32-28v-8h-32z" enable-background="new" filter="url(#bf)" opacity=".14592"/><path d="m116 100v28h32c0-15.456-14.336-28-32-28z" fill="url(#aj)"/><path d="m76.344 140h-0.34375v8c0 15.456 14.336 28 32 28 17.664 0 32-12.544 32-28v-8z" enable-background="new" fill="url(#k)"/><path d="m76.344 140h-0.34375v8c0 15.456 14.336 28 32 28 17.664 0 32-12.544 32-28v-8z" enable-background="new" fill="url(#ai)" opacity=".60944"/><path d="m108 112c-17.664 0-32 12.544-32 28 0 15.456 14.336 28 32 28 17.664 0 32-12.544 32-28h-32z" enable-background="new" fill="url(#ah)"/><rect x="116" y="128" width="32" height="8" fill="url(#ag)"/><path d="m76.031 141.5c0.85759 15.316 14.857 27.5 31.969 27.5 17.112 0 31.111-12.184 31.969-27.5-0.93118 14.201-14.907 25.5-31.969 25.5-17.062 0-31.038-11.299-31.969-25.5z" enable-background="new" fill="url(#j)" filter="url(#bh)" opacity=".69528"/><rect x="116" y="127" width="32" height="2" enable-background="new" fill="url(#i)" filter="url(#bg)" opacity=".3176"/><circle transform="matrix(1.2857 0 0 1.2857 -32.714 -47.893)" cx="96.125" cy="164.12" r="4.375" fill="url(#e)" opacity=".3176"/><circle transform="matrix(1 0 0 .88571 20 -17.243)" cx="96.125" cy="164.12" r="4.375" enable-background="new" fill="url(#e)" opacity=".54936"/></g><rect x="164" y="96" width="37.25" height="4" rx="2" ry="2" opacity=".15"/><path d="m165.59 96.027c-1.174 3.469 4.1009 0.05455 0 0zm-0.5918-0.48632c2.2178-1.4951 3.787 3.4266 0.79932 2.6162-0.87496 4.4687-0.89007-1.859-0.79932-2.6162zm5.3936 1.5967c-2.055-0.81802-1.3645 4.9603-2.0863 0.96107-0.2255-1.2029 1.4367-2.4757 2.0863-0.96107zm3.249 1.002c-2.4917-0.03111-2.5784 1.2763-0.42565 1.5992-3.2317 1.4964-3.5066-3.768-0.3946-3.0554 0.5549 0.24224 0.83721 0.87787 0.82025 1.4563zm-0.53906-0.15821c-0.28558-2.2315-3.1709 0.71121-0.31103 0.03445l0.17779-0.01969zm3.9785-0.71777c2.3842-3.2771 2.4095 5.2025 1.7196 1.0204-0.81776-3.1049-2.0051 1.3331-2.0877 1.2823 0.32689-1.4248-1.3099-3.9279-1.5524-1.265-0.76267 3.6897-1.5376-3.9545 1.6134-1.4071zm4.7842 1.002c-4.0169 0.75206 2.1563 1.8828 0 0zm1.0752-0.22265c1.4076 2.8778-4.7301 1.902-1.8768-0.14373 2.976 0.07257-2.0382-1.5073 0.83884-1.3076 0.67514 0.10732 1.1557 0.77502 1.038 1.4513zm1.6465-2.3408c0.48881 1.2943 1.1927 1.1612-0.14523 2.2808 0.53005 1.0932 1.4024 2.7268-0.19532 1.1662-0.34098-0.98198-0.94078-2.8937 0.34055-3.447zm1.7666 2.918c-0.56479-1.8696 1.0267-2.0954 0.49161-0.151 1.6386 3.118 2.0545-4.312 2.3671-0.21464 0.62166 2.0204-3.1046 2.465-2.8587 0.36564zm5.7656-1.4824c-2.055-0.81802-1.3645 4.9603-2.0863 0.96107-0.22552-1.2029 1.4367-2.4757 2.0863-0.96107zm2.0625 1.1279c-4.0169 0.75206 2.1563 1.8828 0 0zm1.0752-0.22265c1.4076 2.8778-4.7301 1.902-1.8768-0.14373 2.976 0.07257-2.0382-1.5073 0.83885-1.3076 0.67513 0.10732 1.1557 0.77502 1.038 1.4513zm1.6465-2.3408c0.48881 1.2943 1.1927 1.1612-0.14524 2.2808 0.53005 1.0932 1.4024 2.7268-0.19532 1.1662-0.34097-0.98198-0.94078-2.8937 0.34056-3.447zm3.3135 2.5635c-4.0169 0.75206 2.1563 1.8828 0 0zm1.0752-0.22265c1.4076 2.8778-4.7301 1.902-1.8768-0.14373 2.976 0.07257-2.0382-1.5073 0.83885-1.3076 0.67513 0.10732 1.1557 0.77502 1.038 1.4513z" fill="#888a85"/><rect x="164" y="104" width="46.875" height="4" rx="2" ry="2" enable-background="new" opacity=".05"/><path d="m164.98 103.36c1.1565-0.0824 0.25488 1.8932 0.53906 2.6831 0.33797 0.85658-0.411 2.9633-0.53906 1.16v-3.8431zm3.1553 2.9092c-3.9764 1.2338 2.4134 1.7799 0 0zm1.0752-0.22265c0.24595 1.6788-0.26919 1.9462-0.99902 1.8164-2.79 0.74389-1.6106-2.8258 0.45996-2.0684-0.19675-1.4246-3.7323-0.27233-0.87598-1.2363 0.85069-0.10873 1.521 0.66707 1.415 1.4883zm5.1152-1.3125c0.35311 0.81444-3.2702 0.0782-1.0664 1.2656 3.1772 0.38201-0.89971 3.6008-1.2656 1.2422 2.7858 0.89682 1.6557-0.80416 0.0791-1.3762-0.42338-1.3749 1.3948-1.5109 2.2529-1.1316zm0.98144 1.8896c-0.22387-0.70695 0.17001-3.0426 0.53906-1.4497-0.75449 1.8851 1.7405 3.4924 1.6699 0.78711-0.40061-1.5412 0.92321-1.7164 0.53907-0.0716 0.20118 0.68986-0.1339 3.0612-0.53907 1.5252-0.65596 1.1334-2.4419 0.51967-2.209-0.79101zm4.3857 0.80273c0.40719 1.0527-0.61696 2.7431-0.54199 0.84587v-3.6349c0.85749 0.61655 2.8054-0.88347 2.9356 1.6436 0.22367 1.3284-1.5558 2.4762-2.3936 1.1455zm1.834-1.1455c-2.3268-4.9461-2.2326 4.8338 0 0zm4.2598-0.13769c-0.35263 0.72697-3.9016-0.41912-1.7842 1.3308 1.426-0.30829 2.5714 0.18884 0.44532 0.52954-3.6248-0.0286-0.54896-5.7234 1.2422-2.5159l0.0967 0.65552zm-0.53906-0.15821c-0.32454-2.4447-4.0234 0.61099 0 0zm3.3252-0.84375c-2.3156-0.82576-0.57014 2.8366-1.9165 2.7774-0.0125-1.0831-2e-3 -2.1892-5e-3 -3.2812 0.45981 0.88254 1.8349-1.1494 1.9219 0.5039zm2.8037-0.37792c0.0129 0.77298-2.8982-0.10637-1.9548 2.0515 0.39254 1.2152 3.4828 0.33706 0.97339 1.1887-2.8186-0.13306-1.6213-4.636 0.98145-3.2402zm2.4346 1.5058c-3.9764 1.2338 2.4134 1.7799 0 0zm1.0752-0.22265c0.24595 1.6788-0.26919 1.9462-0.99902 1.8164-2.79 0.74389-1.6106-2.8258 0.45996-2.0684-0.19675-1.4246-3.7323-0.27233-0.87598-1.2363 0.85069-0.10873 1.521 0.66707 1.415 1.4883zm0.87891-1.4092c0.72701 0.24141 2.9587-0.58779 2.4439 0.62783-0.34107 0.65985-2.192 2.0128-1.553 2.2228 1.2157-0.34348 2.5252 0.5628 0.59636 0.43066-1.4856 0.37944-2.0397-0.48063-0.74433-1.4417 0.96694-0.94716 1.6313-1.7554-0.21987-1.4089-0.43653-5e-3 -0.61387 0.12991-0.52311-0.43066zm3.1523 0c0.72701 0.24141 2.9588-0.58779 2.444 0.62783-0.34107 0.65985-2.192 2.0128-1.553 2.2228 1.2157-0.34348 2.5252 0.5628 0.59636 0.43066-1.4856 0.37944-2.0397-0.48063-0.74433-1.4417 0.96694-0.94716 1.6313-1.7554-0.21986-1.4089-0.43653-5e-3 -0.61387 0.12991-0.52312-0.43066zm4.6582 0.37793c-2.5743 0.58403 0.67631 4.3917 0.93457 1.2656 0.0365-0.55153-0.27595-1.2945-0.93457-1.2656zm0-0.45703c4.0386 0.72211-1.0347 6.0702-1.5059 1.7226-0.0595-0.8595 0.5461-1.8046 1.5059-1.7226zm2.3965-1.1982c1.1565-0.0824 0.25487 1.8932 0.53906 2.6831 0.33797 0.85658-0.411 2.9633-0.53906 1.16v-3.8431zm3.1553 2.9092c-3.9764 1.2338 2.4134 1.7799 0 0zm1.0752-0.22265c0.24595 1.6788-0.26919 1.9462-0.99903 1.8164-2.79 0.74389-1.6106-2.8258 0.45997-2.0684-0.19676-1.4246-3.7323-0.27233-0.87598-1.2363 0.85069-0.10873 1.521 0.66707 1.415 1.4883z" enable-background="new" fill="#babdb6"/><rect x="174" y="136" width="28" height="4" rx="2" ry="2" enable-background="new" opacity=".15"/><path d="m175 135.5c1.1481 0.25827 0.78035 4.5353 0.0218 4.026-0.0474-1.3411-0.01-2.6841-0.0218-4.026zm3.8379 1.1894c-0.62183 0.62786-3.0486 0.66437-0.55302 1.3684 2.5857 1.33-2.9466 2.6019-1.3017 1.278 3.4244 0.43357-2.7291-2.411 0.65316-2.8176 0.40588-0.0348 0.82432 0.0114 1.2016 0.17116zm1.5586 2.6924c-0.15235 4.3626-1.2324-2.5484-0.175-2.6451 3.6133-1.5303 3.089 5.0603 0.175 2.6451zm1.834-1.1455c-1.0106-3.7521-2.9279 1.547-0.73644 1.185 0.32695-0.33994 0.53711-0.76455 0.73644-1.185zm4.2598-0.1377c-1.1747 0.0743-3.7429 0.7431-1.2684 1.2511 3.1587 0.47817-3.2999 1.2032-1.6491-1.4619 0.40894-1.9008 2.9062-1.8107 2.9175 0.21086zm-0.53906-0.1582c-0.0374-2.1817-3.503 0.30973-0.66659 0.0738zm1.957-2.2793c-0.3736 1.3605 2.1068 0.87487-1e-3 1.726-0.83174 1.4754 2.3145 3.0983-0.12989 2.1201-0.5683-0.85843-1.1372-3.5384 0.131-3.8461zm2.3555 0c-0.3736 1.3605 2.1068 0.87487-1e-3 1.726-0.83175 1.4754 2.3145 3.0983-0.12989 2.1201-0.5683-0.85843-1.1372-3.5384 0.131-3.8461zm3.0938 1.3096c-2.8168 0.75664 1.4761 4.3496 0.89654 0.83113-0.0857-0.41524-0.41602-0.86822-0.89654-0.83113zm0-0.45703c4.0628 0.51743-1.231 5.978-1.5059 1.7227-0.0815-0.84809 0.5872-1.824 1.5059-1.7227zm4.2978 0.58301c-2.0051-1.1563-1.3591 5.09-1.9227 1.5511-0.7447-1.5861 1.133-3.2094 1.9227-1.5511zm3.249 1.002c-1.1747 0.0743-3.7429 0.7431-1.2684 1.2511 3.1587 0.47817-3.2999 1.2032-1.6491-1.4619 0.40894-1.9008 2.9062-1.8107 2.9175 0.21086zm-0.53907-0.1582c-0.0374-2.1817-3.503 0.30973-0.66659 0.0738z" fill="#888a85"/><rect x="174" y="144" width="25.375" height="4" rx="2" ry="2" enable-background="new" opacity=".05"/><path d="m175.94 143.7c-0.3736 1.3605 2.1068 0.87486-1e-3 1.726-0.83175 1.4754 2.3145 3.0983-0.12989 2.1202-0.5683-0.85844-1.1372-3.5384 0.131-3.8461zm3.0938 1.3096c-2.8168 0.75663 1.4761 4.3495 0.89654 0.83112-0.0857-0.41525-0.41602-0.86822-0.89654-0.83112zm0-0.45703c4.0628 0.51743-1.2311 5.978-1.5059 1.7226-0.0814-0.84809 0.5872-1.824 1.5059-1.7226zm4.9512 0.70898c2.5531-3.1507 2.5382 5.1405 1.6517 1.4882 0.58728-2.7365-2.5973-1.5492-1.5432 0.67946-1.0576 1.8082 0.0146-4.2644-2.0809-1.7985 0.29443 1.8888-0.76691 3.054-0.61246 0.50546-0.87017-1.5882 2.0263-2.0653 2.5849-0.87461zm5.6484 1.0137c-1.0106-3.7521-2.9279 1.547-0.73643 1.185 0.32694-0.33993 0.5371-0.76456 0.73643-1.185zm-1.834-1.1455c3.9383-2.2664 1.4689 5.6214-0.60643 2.1802-0.16165-1.3377 0.37258-6.0753 0.60643-2.1802zm4.7783 1.1338c-3.6832 0.77243 2.0403 1.8865 0 0zm1.0752-0.22265c1.2391 2.9472-4.721 2.0855-1.8768-0.14373 2.8402-0.0986-0.46468-0.98842-0.32874-1.0731 0.97672-0.63941 2.3592-0.0671 2.2055 1.2168zm1.1133-2.6865c1.4645 0.40644 0.0656 7.0851 0 2.8823v-2.8823zm4.4707 2.7832c-1.1747 0.0743-3.7429 0.74309-1.2684 1.2511 3.1587 0.47817-3.2999 1.2032-1.6491-1.4619 0.40894-1.9008 2.9062-1.8107 2.9175 0.21086zm-0.53907-0.1582c-0.0374-2.1817-3.503 0.30973-0.66659 0.0738z" enable-background="new" fill="#babdb6"/><rect x="174" y="152" width="44" height="4" rx="2" ry="2" enable-background="new" opacity=".05"/><path d="m177.6 152.76c-1.567 0.0856-3.2994 2.1622-0.81269 2.7371 1.6215 1.48-4.3265-1.0593-0.83504-2.8384 0.51608-0.28128 1.1548-0.17562 1.6477 0.10126zm2.2148 0.25195c-2.8168 0.75663 1.4761 4.3495 0.89654 0.83112-0.0857-0.41525-0.41602-0.86822-0.89654-0.83112zm0-0.45703c4.0628 0.51743-1.2311 5.978-1.5059 1.7226-0.0814-0.84809 0.5872-1.824 1.5059-1.7226zm5.124 1.3799c0.39481 1.9078-0.84681 2.6133-0.49193 0.14695-1.4097-2.3822-1.7155 0.78342-1.9791 1.7419-0.70572-0.85581-0.40818-3.7778 0.55849-3.0246 0.80077-0.66436 2.1587 0.0808 1.9126 1.1358zm4.6523-2.5781c-0.33562 0.56337-1.7319 1.4668-0.14355 1.2773-1.5551 0.21667-0.55177 5.1712-1.5262 2.0872 0.28868-1.4322-0.99458-3.4743 1.6698-3.3645zm1.7197 1.6553c-2.8168 0.75664 1.4761 4.3495 0.89654 0.83112-0.0857-0.41525-0.41602-0.86822-0.89654-0.83112zm0-0.45703c4.0628 0.51743-1.2311 5.978-1.5059 1.7226-0.0814-0.8481 0.5872-1.824 1.5059-1.7226zm4.7578 0.20508c-1.567 0.0856-3.2994 2.1622-0.81269 2.7371 1.6215 1.48-4.3265-1.0593-0.83504-2.8384 0.51608-0.28128 1.1548-0.17562 1.6477 0.10126zm3.6709 1.1748c0.39481 1.9078-0.84681 2.6133-0.49193 0.14695-1.4097-2.3822-1.7155 0.78342-1.9791 1.7419-0.87227-0.98467 0.0448-6.7696 0.28388-2.8842 0.73962 0.0929 2.2696-1.0939 2.1872 0.99536zm1.0811-1.3008c1.5483 0.46766-0.14224 5.3948-0.0599 1.6583 0.14795-0.54172 0.011-1.108 0.0599-1.6583zm0-1.2773c1.5216-0.2107-0.44569 1.678 0 0zm5.2354 0c-0.33562 0.56337-1.7319 1.4668-0.14356 1.2773-1.5551 0.21667-0.55176 5.1712-1.5262 2.0872 0.28868-1.4322-0.99459-3.4743 1.6698-3.3645zm1.9394 2.9092c-3.6832 0.77243 2.0403 1.8865 0 0zm1.0752-0.22265c1.2391 2.9472-4.721 2.0855-1.8768-0.14373 2.8402-0.0986-0.46468-0.98842-0.32875-1.0731 0.97673-0.63941 2.3592-0.0671 2.2056 1.2168zm1.6465-2.3408c-0.3736 1.3605 2.1068 0.87486-1e-3 1.726-0.83175 1.4754 2.3145 3.0983-0.12989 2.1202-0.5683-0.85844-1.1372-3.5384 0.131-3.8461zm1.7666 2.918c-0.39475-1.9075 0.84636-2.624 0.49161-0.151 1.4048 2.3869 1.7236-0.77465 1.9807-1.7422 0.69862 0.85201 0.41232 3.7674-0.55616 3.0294-0.80036 0.66412-2.1596-0.0823-1.9162-1.1362zm3.8643-1.9863c1.5483 0.46766-0.14223 5.3948-0.0599 1.6583 0.14795-0.54172 0.011-1.108 0.0599-1.6583zm0-1.2773c1.5216-0.2107-0.44568 1.678 0 0z" enable-background="new" fill="#babdb6"/><path d="m141 98v10.094h1v-9.0938h17v-1z" enable-background="new" fill="#d3d7cf"/><path d="m176 172v-12.094h-1v11.094h-33v1z" enable-background="new" fill="#d3d7cf"/><path d="m55.789 72.135h176.39c2.1145 0 3.8167 1.7023 3.8167 3.8167v7.9817h-184.02v-7.9817c0-2.1145 1.7023-3.8167 3.8167-3.8167z" fill="#eeeeec" opacity=".4"/><path d="m51.969 192v4c0 2.216 1.784 4 4 4h176.03c2.216 0 4-1.784 4-4v-4z" enable-background="new" fill="#eeeeec" opacity=".4"/><path d="m57.557 77.976c-3.6076 0.55113 2.0511 2.2974 0 0zm1.0752-0.22266c1.2659 3.1076-4.8737 1.9447-1.73-0.25958 2.8284 0.18111-0.74054-0.98015-0.48471-0.95168 0.97776-0.64573 2.3678-0.07965 2.2147 1.2113zm1.1133-2.6865c1.0227 0.61532 0.70182 3.8316 0.13917 4.4496-0.31965-1.4256-0.05016-2.9821-0.13917-4.4496zm1.6641 0c1.0227 0.61532 0.70181 3.8316 0.13917 4.4496-0.31965-1.4256-0.05016-2.9821-0.13917-4.4496zm3.1553 2.9092c-3.6076 0.55113 2.0511 2.2974 0 0zm1.0752-0.22266c1.2659 3.1076-4.8737 1.9447-1.73-0.25958 2.8284 0.18111-0.74054-0.98015-0.48471-0.95168 0.97776-0.64573 2.3678-0.07965 2.2147 1.2113zm3.4746-1.2832c-2.2522 0.0066-2.9394 2.992-0.0827 2.8076-2.5591 2.1283-3.6291-3.7667-0.37048-3.0037zm3.3047 0c-2.2522 0.0066-2.9394 2.992-0.0827 2.8076-2.5591 2.1283-3.6291-3.7667-0.37048-3.0037l0.45318 0.19613zm0.94336-0.12598c1.5163 0.37797-0.08809 5.3674-0.0643 1.7349 0.15814-0.56627 0.01231-1.1593 0.0643-1.7349zm0-1.2773c1.5117-0.20241-0.43783 1.6651 0 0zm3.1553 2.9092c-3.6076 0.55113 2.0511 2.2974 0 0zm1.0752-0.22266c1.2659 3.1076-4.8737 1.9447-1.73-0.25958 2.8284 0.18111-0.74054-0.98015-0.48471-0.95168 0.97776-0.64573 2.3678-0.07965 2.2147 1.2113zm5.1152-1.3125c-0.56049 0.63787-3.0908 0.65179-0.55253 1.3686 2.1425 0.72717-1.5644 3.2931-1.7795 1.1393 1.3715 1.3511 2.7075-1.1129 0.53833-0.92724-1.6282-1.0797 0.83062-2.3718 1.7937-1.5806zm3.3984 0.0293c-2.2522 0.0066-2.9394 2.992-0.0827 2.8076-2.5591 2.1283-3.6291-3.7667-0.37048-3.0037l0.45318 0.19613zm2.4346 1.5059c-3.6076 0.55113 2.0511 2.2974 0 0zm1.0752-0.22266c1.2659 3.1076-4.8737 1.9447-1.73-0.25958 2.8284 0.18111-0.74054-0.98015-0.48471-0.95168 0.97776-0.64573 2.3678-0.07965 2.2147 1.2113zm3.0146-0.90527c-1.9953-1.1532-1.3508 5.0528-1.9254 1.5638-0.37881-1.6782 0.23918-2.5139 1.8624-2.0037l0.063 0.4399zm1.0928 2.2852c0.4794 1.7667-0.96822 2.1922-0.54199 0.08731-0.6908-2.3004 0.66726-3.8088 2.6758-2.2579 1.0272 1.3547-0.78373 3.9571-2.1338 2.1706zm1.834-1.1455c-1.144-3.9169-2.7152 3.2424-0.06153 0.53101l0.06153-0.53101zm2.9443-0.01172c-3.6076 0.55113 2.0511 2.2974 0 0zm1.0752-0.22266c1.2659 3.1076-4.8737 1.9447-1.73-0.25958 2.8284 0.18111-0.74054-0.98015-0.48471-0.95168 0.97776-0.64573 2.3678-0.07965 2.2147 1.2113zm1.251 1.1279c1.7178 0.06919-1.0263 2.8016 0 0zm5.7744-2.4404c-0.56049 0.63787-3.0908 0.65179-0.55253 1.3686 2.1425 0.72716-1.5644 3.2931-1.7795 1.1393 1.3715 1.3511 2.7075-1.1129 0.53833-0.92724-1.6282-1.0797 0.83062-2.3718 1.7937-1.5806zm3.3984 0.0293c-2.2522 0.0066-2.9394 2.992-0.0827 2.8076-2.5591 2.1283-3.6291-3.7667-0.37048-3.0037zm2.4346 1.5059c-3.6076 0.55113 2.0511 2.2974 0 0zm1.0752-0.22266c1.2659 3.1076-4.8737 1.9447-1.73-0.25958 2.8284 0.18111-0.74054-0.98015-0.48471-0.95168 0.97776-0.64573 2.3678-0.07964 2.2147 1.2113zm3.0146-0.90527c-1.9954-1.1532-1.3508 5.0528-1.9254 1.5638-0.37881-1.6782 0.23917-2.5138 1.8624-2.0037zm1.0928 2.2852c0.47939 1.7667-0.96821 2.1922-0.54199 0.08731-0.6908-2.3004 0.66726-3.8088 2.6758-2.2579 1.0272 1.3547-0.78373 3.9571-2.1338 2.1706zm1.834-1.1455c-1.144-3.9169-2.7152 3.2424-0.0615 0.53101l0.0615-0.53101zm2.9443-0.01172c-3.6076 0.55115 2.0512 2.2974 0 0zm1.0752-0.22266c1.2658 3.1076-4.8737 1.9447-1.73-0.25958 2.8284 0.18111-0.74054-0.98015-0.48471-0.95168 0.97776-0.64573 2.3678-0.07965 2.2147 1.2113zm1.1133-2.6865c1.0228 0.61532 0.70181 3.8316 0.13917 4.4496-0.31965-1.4256-0.0502-2.9821-0.13917-4.4496zm1.6641 0c1.0228 0.61531 0.70183 3.8316 0.13917 4.4496-0.31965-1.4256-0.0502-2.9821-0.13917-4.4496zm3.1553 2.9092c-3.6076 0.55113 2.0511 2.2974 0 0zm1.0752-0.22266c1.2659 3.1076-4.8737 1.9447-1.73-0.25958 2.8284 0.18111-0.74054-0.98015-0.48471-0.95168 0.97776-0.64573 2.3678-0.07965 2.2147 1.2113zm3.4746-1.2832c-2.2522 0.0066-2.9394 2.992-0.0827 2.8076-2.5591 2.1283-3.6291-3.7667-0.37048-3.0037zm3.3047 0c-2.2522 0.0066-2.9394 2.992-0.0827 2.8076-2.5591 2.1283-3.6291-3.7667-0.37048-3.0037zm0.94336-0.12598c1.5163 0.37796-0.0881 5.3674-0.0643 1.7349 0.15814-0.56627 0.0123-1.1593 0.0643-1.7349zm0-1.2773c1.5117-0.20241-0.43783 1.6651 0 0zm3.1553 2.9092c-3.6076 0.55112 2.0511 2.2974 0 0zm1.0752-0.22266c1.2658 3.1076-4.8737 1.9447-1.73-0.25958 2.8284 0.18111-0.74053-0.98014-0.4847-0.95168 0.97776-0.64573 2.3678-0.07964 2.2147 1.2113z" fill="#fff"/><rect x="56.125" y="76" width="86.5" height="3.875" rx="2.125" ry="1.8125" fill="#fff" opacity=".2"/><path d="m214.41 196.23c0.256-0.76512-0.80207-1.6512-1.4504-1.0565-0.62719 0.63003-0.54476 1.8858 0.28754 2.3024 0.70314 0.20853 1.2839-0.60664 1.1629-1.2458zm-1.834-1.1455c0.46011-0.90774 2.0442-0.67064 2.2474 0.31597 0.43288 0.94625 0.0179 2.3326-1.0645 2.6012-0.49125-0.38077-1.4923-0.0303-1.7191-0.58017-0.13199-0.82731 0.12945-1.6635 2e-3 -2.4907 0.1-0.46422-0.26144-1.4411 0.21529-1.5814 0.6699 0.30347 0.17539 1.2017 0.319 1.7351zm3.2871-1.7754c0.85791 0.10405 0.49146 1.1384 0.51084 1.7143 0.0706 0.94643 6e-3 1.8964 0.0282 2.8443-0.85789-0.104-0.49148-1.1384-0.51086-1.7142-0.0706-0.9463-6e-3 -1.8966-0.0282-2.8444zm1.6641 1.2773c0.93915 0.13086 0.41758 1.2631 0.52197 1.8764 0.11007 0.36688 0.14746 1.6295-0.45961 1.1101-0.23915-0.85911 0.0883-1.7501-0.0606-2.6193 2e-3 -0.1224 3e-3 -0.24488-2e-3 -0.36723zm0-1.2773c0.64358-0.4941 0.59842 1.1593 8e-3 0.56771-0.0456-0.18721-3e-3 -0.37855-8e-3 -0.56771zm4.3916 2.5781c-0.18511 0.5296 0.42288 1.7873-0.42873 1.7609-0.48784-0.69985 0.31831-1.5854-0.20173-2.2854-0.41587-0.66014-1.5938-0.30866-1.5796 0.4718-0.14154 0.5939 0.23452 1.2494-0.0778 1.8048-0.72732 0.37894-0.49019-0.95372-0.44-1.3769 0.0986-0.47243-0.39076-1.7096 0.39004-1.6325 0.46072 0.56275 0.92277-0.44032 1.4442-0.10115 0.58755 0.13693 1.0242 0.75748 0.89366 1.3584zm3.2402-0.80273c0.1201-0.49131-0.34824-1.7259 0.45011-1.5889 0.30553 0.81614-0.0719 1.6844 0.0675 2.5217-0.0186 0.56335 0.21677 1.5797-0.19031 1.8441-0.52835-0.50313-1.0713 0.28721-1.6367 0.0553-0.81077-0.16902-1.1498-1.0353-1.1028-1.7837 4e-3 -0.79446 0.59995-1.7027 1.477-1.624 0.37768 0.0288 0.76234 0.22612 0.9353 0.5756zm-1.8369 1.1455c-0.25934 0.76659 0.80293 1.6534 1.4517 1.0576 0.63023-0.62939 0.54472-1.8886-0.28979-2.303-0.70282-0.20887-1.2838 0.6064-1.1619 1.2454zm4.9775-0.0117c-0.68598-0.45277-1.5286 0.7896-0.82748 1.2337 0.60773 0.33676 1.4758-0.32874 1.3073-0.99288-0.0844-0.17057-0.2887-0.29873-0.47986-0.24082zm1.0752-0.22266c-0.10194 0.5346 0.36857 2.0039-0.62301 1.6792-0.61569 0.12112-1.2752 0.62875-1.8263 6e-3 -0.66095-0.57115-0.25634-1.6927 0.53565-1.8676 0.46651 0.0678 1.6526 0.01 1.0371-0.7066-0.39604-0.61941-1.4788 0.44248-1.4678-0.36489 0.78922-0.64463 2.2795-0.12839 2.3417 0.94667-4e-3 0.10241 5e-3 0.20456 3e-3 0.30694z" fill="#fff"/><rect x="212" y="193.98" width="16.971" height="4.0217" rx="1.7457" ry="1.5468" fill="#fff" opacity=".2"/><path d="m116 104v28h32c0-15.456-14.336-28-32-28zm-8 12c-17.664 0-32 12.544-32 28 0 15.456 14.336 28 32 28 17.664 0 32-12.544 32-28h-32z" enable-background="new" fill="url(#af)" opacity=".32189"/></g><circle transform="matrix(1.2963 0 0 1.2963 -31.14 -77.689)" cx="105.1" cy="260.63" r="3.1355" fill="url(#d)" opacity=".59009"/><circle transform="matrix(1.2963 0 0 1.2963 43.86 -77.689)" cx="105.1" cy="260.63" r="3.1355" enable-background="new" fill="url(#d)" opacity=".59009"/></g><g transform="translate(-395.89 -21)" enable-background="new"><g transform="translate(-12.111 -581)"><g transform="matrix(.95656 0 0 1 45.66 -.53033)"><rect transform="matrix(.3237 0 0 .41667 1003.2 772.08)" x="60" y="244" width="176" height="12" rx="30.842" ry="6" filter="url(#bn)" opacity=".18696"/><rect transform="matrix(.24206 0 0 .18573 1020.2 832.96)" x="22.995" y="223.44" width="211" height="18.114" rx="4.9924" ry="9.0572" fill-rule="evenodd" filter="url(#bm)" opacity=".8"/></g><rect x="1028" y="652" width="48" height="224" rx="3.9688" ry="3.9688" fill="url(#ac)" opacity=".7"/><rect transform="matrix(1.4,0,0,1,-411.2,-320)" x="1028" y="972" width="20" height="224" rx="0" ry="0" clip-path="url(#bs)" fill="url(#ab)"/><path transform="translate(0,-190)" d="m1030 842h42.062c2.1987 0 3.9688 1.7701 3.9688 3.9688v216.06c0 2.1987-1.7701 3.9688-3.9688 3.9688h-42.062c-2.1987 0-3.9688-1.7701-3.9688-3.9688v-216.06c0-2.1987 1.7701-3.9688 3.9688-3.9688z" clip-path="url(#bq)" fill="none" opacity=".5" stroke="url(#aa)" stroke-linecap="square" stroke-width="6"/><path transform="translate(-140)" d="m1172 652h40.062c2.1987 0 3.9688 1.7701 3.9688 3.9688v216.06c0 2.1987-1.7701 3.9688-3.9688 3.9688h-40.062c-2.1987 0-3.9688-1.7701-3.9688-3.9688v-216.06c0-2.1987 1.7701-3.9688 3.9688-3.9688z" clip-path="url(#br)" fill="none" filter="url(#bl)" stroke="url(#z)" stroke-linecap="square" stroke-width="2"/><g fill="#4e9a06" opacity=".5"><g transform="matrix(.66667 0 0 1 260 0)"><rect x="1158" y="667" width="12" height="1"/><rect x="1158" y="683" width="12" height="1"/><rect x="1158" y="699" width="12" height="1"/><rect x="1158" y="715" width="12" height="1"/><rect x="1158" y="731" width="12" height="1"/><rect x="1158" y="747" width="12" height="1"/><rect x="1158" y="763" width="12" height="1"/><rect x="1158" y="779" width="12" height="1"/><rect x="1158" y="795" width="12" height="1"/><rect x="1158" y="811" width="12" height="1"/><rect x="1158" y="827" width="12" height="1"/><rect x="1158" y="843" width="12" height="1"/><rect x="1158" y="859" width="12" height="1"/></g><g transform="matrix(1.3333 0 0 1 -512 0)"><rect x="1158" y="659" width="12" height="1"/><rect x="1158" y="675" width="12" height="1"/><rect x="1158" y="691" width="12" height="1"/><rect x="1158" y="707" width="12" height="1"/><rect x="1158" y="723" width="12" height="1"/><rect x="1158" y="739" width="12" height="1"/><rect x="1158" y="755" width="12" height="1"/><rect x="1158" y="771" width="12" height="1"/><rect x="1158" y="787" width="12" height="1"/><rect x="1158" y="803" width="12" height="1"/><rect x="1158" y="819" width="12" height="1"/><rect x="1158" y="835" width="12" height="1"/><rect x="1158" y="851" width="12" height="1"/><rect x="1158" y="867" width="12" height="1"/></g></g><path d="m1076 718.12-19.875 6.5312c-7.9381 4.2331-25.917 20.893-28.125-9.1562v38.938c7.562 19.915 18.325-9.978 28-12.719l20-6.5938zm0 21-19.875 7.5312c-7.7933 2.134-17.228 29.506-28.125 15.844v109.94c4.6804-23.695 4.0554-47.133 28-71.719l20-8.5938z" fill="url(#y)" opacity=".2"/><g transform="translate(4)" fill="#fff" opacity=".2"><g transform="translate(-140)"><rect x="1168" y="668" width="8" height="1"/><rect x="1168" y="684" width="8" height="1"/><rect x="1168" y="700" width="8" height="1"/><rect x="1168" y="716" width="8" height="1"/><rect x="1168" y="732" width="8" height="1"/><rect x="1168" y="748" width="8" height="1"/><rect x="1168" y="764" width="8" height="1"/><rect x="1168" y="780" width="8" height="1"/><rect x="1168" y="796" width="8" height="1"/><rect x="1168" y="812" width="8" height="1"/><rect x="1168" y="828" width="8" height="1"/><rect x="1168" y="844" width="8" height="1"/><rect x="1168" y="860" width="8" height="1"/></g><g transform="matrix(2,0,0,1,-1308,0)"><rect x="1168" y="660" width="8" height="1"/><rect x="1168" y="676" width="8" height="1"/><rect x="1168" y="692" width="8" height="1"/><rect x="1168" y="708" width="8" height="1"/><rect x="1168" y="724" width="8" height="1"/><rect x="1168" y="740" width="8" height="1"/><rect x="1168" y="756" width="8" height="1"/><rect x="1168" y="772" width="8" height="1"/><rect x="1168" y="788" width="8" height="1"/><rect x="1168" y="804" width="8" height="1"/><rect x="1168" y="820" width="8" height="1"/><rect x="1168" y="836" width="8" height="1"/><rect x="1168" y="852" width="8" height="1"/><rect x="1168" y="868" width="8" height="1"/></g></g><path d="m1031.1 653h41.702c0.6365 0 1.149 0.43206 1.149 0.96875s-0.5125 0.96875-1.149 0.96875h-17.101s-25.75-0.96875-25.75-0.96875c0-0.53669 0.5125-0.96875 1.149-0.96875z" fill="url(#x)" opacity=".68261"/><rect x="1029" y="655" width="1" height="218" rx=".5" ry=".8831" fill="url(#h)" opacity=".96087"/><rect x="1073" y="655" width="1" height="218" rx=".5" ry=".8831" fill="url(#g)" opacity=".6913"/><rect transform="scale(1,-1)" x="1029" y="-874.31" width="46" height="17.938" rx="1.2012" ry=".93613" fill="url(#w)" opacity=".38261"/></g></g></g></g></svg>
