<?xml version="1.0" encoding="UTF-8"?>
<svg version="1.0" viewBox="0 0 256 256" xmlns="http://www.w3.org/2000/svg" xmlns:xlink="http://www.w3.org/1999/xlink"><defs><filter id="at" x="-.16294" y="-2.3897" width="1.3259" height="5.7795" color-interpolation-filters="sRGB"><feGaussianBlur stdDeviation="11.948684"/></filter><filter id="as" x="-.093476" y="-1.094" width="1.187" height="3.188" color-interpolation-filters="sRGB"><feGaussianBlur stdDeviation="8.257079"/></filter><filter id="af" color-interpolation-filters="sRGB"><feGaussianBlur stdDeviation="2.43"/></filter><clipPath id="au"><path d="m36 19c-0.56266 0-1 0.43734-1 1v217c0 0.56266 0.43734 1 1 1h184c0.56266 0 1-0.43734 1-1v-171c0-13.558-10.858-25.296-16.281-30.719-5.4231-5.4231-17.161-16.281-30.719-16.281z" fill="url(#linearGradient6013) #000000" fill-rule="evenodd"/></clipPath><filter id="aq" color-interpolation-filters="sRGB"><feGaussianBlur stdDeviation="2.025"/></filter><linearGradient id="b"><stop stop-color="#fff" offset="0"/><stop stop-color="#fff" stop-opacity="0" offset="1"/></linearGradient><filter id="ar" x="-.10594" y="-.11513" width="1.2119" height="1.2303" color-interpolation-filters="sRGB"><feGaussianBlur stdDeviation="3.0222701"/></filter><mask id="s" maskUnits="userSpaceOnUse"><path d="m36-31c-0.56266 0-1 0.43734-1 1v217c0 0.56266 0.43734 1 1 1h184c0.56266 0 1-0.43734 1-1v-171c0-13.558-12.858-23.296-18.281-28.719-5.4231-5.4231-15.161-18.281-28.719-18.281z" fill="#fff" fill-rule="evenodd"/></mask><filter id="ap" x="-.24138" y="-.24138" width="1.4828" height="1.4828" color-interpolation-filters="sRGB"><feGaussianBlur stdDeviation="4.7270115"/></filter><filter id="ao" color-interpolation-filters="sRGB"><feGaussianBlur stdDeviation="0.27169794"/></filter><filter id="an" x="-.13103" y="-.13103" width="1.2621" height="1.2621" color-interpolation-filters="sRGB"><feGaussianBlur stdDeviation="2.566092"/></filter><filter id="ak" color-interpolation-filters="sRGB"><feGaussianBlur stdDeviation="0.30732727"/></filter><filter id="ag" x="-.031646" y="-.10174" width="1.0633" height="1.2035" color-interpolation-filters="sRGB"><feGaussianBlur stdDeviation="0.35931052"/></filter><linearGradient id="u" x1="181.99" x2="185" y1="769.75" y2="782.75" gradientTransform="translate(0,12)" gradientUnits="userSpaceOnUse"><stop stop-color="#729fcf" offset="0"/><stop stop-color="#729fcf" stop-opacity="0" offset="1"/></linearGradient><filter id="al" color-interpolation-filters="sRGB"><feGaussianBlur stdDeviation="1.0452761"/></filter><linearGradient id="aa" x1="65.713" x2="75.836" y1="403.2" y2="386.17" gradientTransform="matrix(5.1859 0 0 5.6396 -225.1 -1409.6)" gradientUnits="userSpaceOnUse" xlink:href="#a"/><linearGradient id="a"><stop stop-color="#729fcf" offset="0"/><stop stop-color="#729fcf" stop-opacity=".8869" offset=".5"/><stop stop-color="#729fcf" stop-opacity="0" offset="1"/></linearGradient><linearGradient id="y" x1="75.211" x2="79.066" y1="382.73" y2="396.77" gradientTransform="matrix(5.1859 0 0 5.6396 -225.1 -1409.6)" gradientUnits="userSpaceOnUse" xlink:href="#a"/><linearGradient id="x" x1="68.846" x2="80.924" y1="403.7" y2="384.4" gradientTransform="matrix(5.1859 0 0 5.6396 -225.1 -1409.6)" gradientUnits="userSpaceOnUse" xlink:href="#a"/><linearGradient id="w" x1="80.03" x2="84.202" y1="381.58" y2="394.29" gradientTransform="matrix(5.1859 0 0 5.6396 -225.1 -1409.6)" gradientUnits="userSpaceOnUse" xlink:href="#a"/><linearGradient id="v" x1="81.862" x2="84.851" y1="401.53" y2="386" gradientTransform="matrix(5.1859 0 0 5.6396 -225.1 -1409.6)" gradientUnits="userSpaceOnUse" xlink:href="#a"/><linearGradient id="ab" x1="84.755" x2="86.972" y1="384.2" y2="390.21" gradientTransform="matrix(5.1859 0 0 5.6396 -225.1 -1409.6)" gradientUnits="userSpaceOnUse" xlink:href="#a"/><linearGradient id="t" x1="72.116" x2="72.116" y1="375.9" y2="389.5" gradientUnits="userSpaceOnUse"><stop stop-color="#e9b96e" offset="0"/><stop stop-color="#e9b96e" stop-opacity="0" offset="1"/></linearGradient><radialGradient id="c" cx="78.965" cy="384.21" r="8.0925" gradientTransform="matrix(2.0482 -.46562 .11228 .41765 -126.86 263.97)" gradientUnits="userSpaceOnUse" xlink:href="#b"/><filter id="aj" x="-.046525" y="-.14551" width="1.093" height="1.291" color-interpolation-filters="sRGB"><feGaussianBlur stdDeviation="0.31390401"/></filter><linearGradient id="z" x1="75.21" x2="91.407" y1="386.5" y2="397.92" gradientUnits="userSpaceOnUse"><stop stop-color="#3465a4" offset="0"/><stop stop-color="#9ebdde" offset=".47534"/><stop stop-color="#729fcf" stop-opacity="0" offset="1"/></linearGradient><radialGradient id="e" cx="197.38" cy="775.5" r="2.375" gradientUnits="userSpaceOnUse" xlink:href="#b"/><radialGradient id="f" cx="218.25" cy="775.5" r="2.125" gradientUnits="userSpaceOnUse" xlink:href="#b"/><radialGradient id="d" cx="166.25" cy="786.88" r="3.375" gradientUnits="userSpaceOnUse" xlink:href="#b"/><filter id="ah" x="-.072052" y="-.22535" width="1.1441" height="1.4507" color-interpolation-filters="sRGB"><feGaussianBlur stdDeviation="0.48613453"/></filter><filter id="am" color-interpolation-filters="sRGB"><feGaussianBlur stdDeviation="0.18519411"/></filter><filter id="ai" color-interpolation-filters="sRGB"><feGaussianBlur stdDeviation="0.15156158"/></filter><linearGradient id="ae" x1="84" x2="-104.07" y1="200.5" y2="-127.99" gradientUnits="userSpaceOnUse"><stop offset="0"/><stop stop-opacity="0" offset="1"/></linearGradient><radialGradient id="r" cx="-80.661" cy="88.983" r="18" gradientTransform="matrix(25.306 2.1794e-6 -1.0731e-6 12.46 2199.2 -911.49)" gradientUnits="userSpaceOnUse"><stop stop-color="#fff" offset="0"/><stop stop-color="#d3d7cf" offset="1"/></radialGradient><radialGradient id="q" cx="128.59" cy="116.47" r="92.902" gradientTransform="matrix(3.5967 -.28529 .17691 2.2303 -355.12 -121.58)" gradientUnits="userSpaceOnUse"><stop stop-color="#fff" offset="0"/><stop stop-color="#fff" stop-opacity="0" offset="1"/></radialGradient><radialGradient id="p" cx="36" cy="45.297" r="84.203" gradientTransform="matrix(0 2.7411 -1.8799 0 120.78 -78.804)" gradientUnits="userSpaceOnUse"><stop stop-color="#fff" offset="0"/><stop stop-color="#fff" stop-opacity="0" offset="1"/></radialGradient><radialGradient id="o" cx="127.75" cy="261.27" r="92.25" gradientTransform="matrix(1.663 0 0 .34037 -84.702 148.57)" gradientUnits="userSpaceOnUse" xlink:href="#b"/><radialGradient id="n" cx="20.48" cy="31.231" r="93" gradientTransform="matrix(0 1.0485 -3.8781 0 165.49 13.855)" gradientUnits="userSpaceOnUse"><stop stop-color="#fff" offset="0"/><stop stop-color="#fff" stop-opacity="0" offset="1"/></radialGradient><radialGradient id="m" cx="127.75" cy="236.25" r="92.25" gradientTransform="matrix(1.5709 0 0 1.1159 -53.057 .95481)" gradientUnits="userSpaceOnUse" xlink:href="#b"/><radialGradient id="l" cx="210.96" cy="38.58" r="34.234" gradientTransform="matrix(1.0442 0 0 .96082 -12.745 6.3495)" gradientUnits="userSpaceOnUse"><stop offset="0"/><stop stop-opacity="0" offset="1"/></radialGradient><radialGradient id="k" cx="196.36" cy="44.213" r="23.763" gradientTransform="matrix(1 0 0 .98931 0 .47264)" gradientUnits="userSpaceOnUse"><stop offset="0"/><stop stop-opacity="0" offset="1"/></radialGradient><linearGradient id="ad" x1="190.98" x2="196.45" y1="52.973" y2="39.564" gradientTransform="translate(-1.5 2.5214)" gradientUnits="userSpaceOnUse"><stop offset="0"/><stop stop-opacity="0" offset="1"/></linearGradient><radialGradient id="j" cx="190.88" cy="49.25" r="23.5" gradientTransform="matrix(1.4473 0 0 1.4473 -85.751 -21.529)" gradientUnits="userSpaceOnUse"><stop stop-color="#fff" offset="0"/><stop stop-color="#fff" stop-opacity="0" offset="1"/></radialGradient><radialGradient id="i" cx="192.25" cy="45.75" r="23.5" gradientTransform="matrix(.5972 -.4509 1.7045 2.2575 -.54025 29.158)" gradientUnits="userSpaceOnUse"><stop stop-color="#fff" offset="0"/><stop stop-color="#e6e6e6" offset=".44761"/><stop stop-color="#cbcbcb" offset=".81268"/><stop stop-color="#dbdbdb" offset="1"/></radialGradient><radialGradient id="h" cx="186.77" cy="27.786" r="8.9714" gradientTransform="matrix(2.1152 0 0 2.9279 -207.44 -53.617)" gradientUnits="userSpaceOnUse"><stop stop-color="#fff" offset="0"/><stop stop-color="#fff" stop-opacity="0" offset="1"/></radialGradient><radialGradient id="g" cx="208.68" cy="39.762" r="13.625" gradientTransform="matrix(.99733 .072992 -.11677 1.5955 5.1997 -29.524)" gradientUnits="userSpaceOnUse"><stop stop-color="#fff" offset="0"/><stop stop-color="#fff" stop-opacity="0" offset="1"/></radialGradient><linearGradient id="ac" x1="189.25" x2="189.25" y1="23.662" y2="43.888" gradientUnits="userSpaceOnUse"><stop stop-color="#fff" offset="0"/><stop stop-color="#fff" stop-opacity="0" offset="1"/></linearGradient></defs><g transform="translate(-1224,-336)"><g transform="translate(800,304)"><rect transform="matrix(1.1875 0 0 .625 372.25 116)" x="60" y="244" width="176" height="12" rx="30.842" ry="6" filter="url(#at)" opacity=".3"/><rect transform="matrix(.88797 0 0 .18573 434.71 228.96)" x="22.995" y="223.44" width="211" height="18.114" rx="4.9924" ry="9.0572" fill-rule="evenodd" filter="url(#as)" opacity=".8"/><path transform="matrix(.98925 0 0 1.0129 401.72 .5305)" d="m55.872 47.328c-0.56266 0-1 0.43734-1 1l-1.0109 217c0 0.56266 0.43734 1 1 1h186.02c0.56266 0 1-0.43734 1-1l-1.0109-171c0-13.558-10.858-25.296-16.281-30.719-5.4231-5.4231-17.161-16.281-30.719-16.281z" fill="url(#ae)" fill-rule="evenodd" filter="url(#af)" opacity=".7"/><g transform="matrix(.98925 0 0 1.0232 401.72 .044255)"><g transform="translate(19.872 27.828)"><path d="m36 19c-0.56266 0-1 0.43734-1 1v217c0 0.56266 0.43734 1 1 1h184c0.56266 0 1-0.43734 1-1v-171c0-13.558-10.858-25.296-16.281-30.719-5.4231-5.4231-17.161-16.281-30.719-16.281z" fill="url(#r)"/><path d="m36.591 19.704c-0.55904 0-0.99357 0.43453-0.99357 0.99357v215.61c0 0.55904 0.43453 0.99357 0.99357 0.99357h182.82c0.55904 0 0.99357-0.43453 0.99357-0.99357v-169.9c0-13.471-10.788-25.133-16.177-30.521-5.3882-5.3882-17.051-16.177-30.521-16.177z" fill="none" stroke="url(#q)" stroke-dashoffset=".7" stroke-linecap="round" stroke-width=".99397"/><path d="m36 19c-0.56266 0-1 0.43734-1 1v217c0 0.56266 0.43734 1 1 1h184c0.56266 0 1-0.43734 1-1v-171c0-13.558-10.858-25.296-16.281-30.719-5.4231-5.4231-17.161-16.281-30.719-16.281z" clip-path="url(#au)" fill="none" filter="url(#aq)" opacity=".072289" stroke="#000" stroke-dashoffset=".7" stroke-linecap="round" stroke-width=".99397"/><path d="m36.625 19.875c-0.56266 0-1 0.43734-1 1v217c0 0.56266 0.43734 1 1 1v-217c0-0.56266 0.43734-1 1-1h138c11.863 0 22.341 8.3199 28.406 14.031-5.8462-5.6773-16.801-15.031-29.406-15.031z" fill="url(#p)" fill-rule="evenodd"/><rect x="35.5" y="186.25" width="184.5" height="51.25" rx="1.0156" ry="1.0156" fill="url(#o)" fill-rule="evenodd" opacity=".56024"/></g><path d="m55.875 46.812c-0.56266-1e-6 -1 0.43734-1 1v88.188h186v-42.188c-1e-5 -13.558-10.858-25.296-16.281-30.719-5.4231-5.4231-17.161-16.281-30.719-16.281z" fill="url(#n)"/><rect x="55.372" y="263.83" width="184.5" height="1.5" rx="1.0156" ry="1.0156" fill="url(#m)" fill-rule="evenodd"/></g></g><g transform="translate(1197,-290)"><rect x="221.19" y="852" width="10.812" height="4" rx="2" ry="2" opacity=".03"/><rect x="192" y="656.12" width="32" height="3.875" rx="1.9375" ry="1.9375" opacity=".03"/><path d="m194.09 659.51c0.23373 0.7315-0.23899 2.7166-0.54199 1.1187 0.21228-1.2297-0.43259-3.2229 0.33712-3.9625 0.29917 1.0434 1.4856-0.83539 2.1718 0.37448 0.91495 0.98463 0.38211 3.3425-1.2335 3.0177-0.30676-0.0676-0.58842-0.26592-0.73341-0.54834zm1.834-1.1455c0.25206-1.9591-2.6892-1.1483-1.8199 0.54133 0.49326 1.1292 2.0241 0.75117 1.8199-0.54133zm3.3545-1.1396c-1.9997-0.69381-0.94301 2.4002-1.6981 2.8047-0.32564-0.79828-0.50531-2.8774 0.11649-3.3624 0.15418 1.2591 1.6033-1.1988 1.5816 0.55768zm3.249 1.002c-0.36622 0.72228-3.7102-0.40443-1.9442 1.2341 0.70065 0.3385 2.768-0.25815 1.212 0.59497-2.072 0.73906-3.2666-2.4572-1.3376-3.31 1.0145-0.45052 2.1924 0.36501 2.0698 1.4809zm-0.53906-0.1582c0.33999-1.9936-3.3212-0.0755-1.0846 2e-3 0.36155-5.6e-4 0.72309-1e-3 1.0846-2e-3zm3.9785-0.71778c0.83387-1.6271 2.8926-0.0366 2.2148 1.4136 0.34618 0.78373-0.50404 1.9558-0.54199 0.61622 0.30576-0.99528-0.28464-3.2582-1.4521-1.7521-0.41697 0.55569 0.30963 3.1406-0.69548 2.0665 0.28769-1.0076-0.0786-3.6402-1.428-2.066-0.41742 0.55565 0.3089 3.14-0.69598 2.066 0.2758-0.72496-0.50179-3.3405 0.52082-2.8368 0.0789 0.58684 1.7525-1.1092 2.0779 0.49254zm4.7842 1.002c-1.5212-0.52413-1.2548 2.0442 0.086 1.1376 0.40511-0.2464 0.8119-1.3985-0.086-1.1376zm1.0752-0.22266c0.0649 0.67478 0.0964 2.7018-0.63702 1.5137-1.152 1.6113-3.3988-1.1862-1.241-1.6575 0.71681 0.054 2.0443-0.10925 0.84466-0.80928-0.7409 0.0898-2.2926 8e-3 -0.85936-0.52129 0.99254-0.18163 2.0214 0.33988 1.8927 1.4743zm1.6465-2.3408c-0.60446 1.3608 1.011 0.53553 1.1104 1.2424-1.4718-0.30235-1.3012 1.5088-0.88104 2.4603 0.9835-0.29505 1.2063 0.87245 0.0209 0.50784-1.556-0.44663-0.20774-2.6282-1.1969-3.1556 0.92808-0.12554-0.17846-1.272 0.94674-1.055zm1.7666 2.918c-0.1972-0.72251 0.15651-3.0425 0.53906-1.3648-0.32169 1.0311 0.3195 3.2583 1.5246 1.7744 0.45098-0.5467-0.30408-3.1648 0.70783-2.088-0.27442 0.72433 0.49891 3.3368-0.51758 2.8365-0.26809-0.28483-1.8904 0.86027-2.1927-0.53614-0.0758-0.19698-0.0933-0.41408-0.0612-0.62199zm5.7656-1.4824c-1.9997-0.6938-0.94301 2.4002-1.6981 2.8047-0.32564-0.79829-0.50531-2.8774 0.11649-3.3624 0.15419 1.2591 1.6033-1.1988 1.5816 0.55768zm2.0625 1.1279c-1.5212-0.52414-1.2548 2.0442 0.086 1.1376 0.40511-0.2464 0.81192-1.3985-0.086-1.1376zm1.0752-0.22266c0.0649 0.67478 0.0964 2.7018-0.63702 1.5137-1.152 1.6113-3.3988-1.1862-1.241-1.6575 0.7168 0.054 2.0443-0.10924 0.84465-0.80928-0.7409 0.0897-2.2926 8e-3 -0.85935-0.52129 0.99253-0.18163 2.0214 0.33988 1.8927 1.4743z" fill="#d3d7cf"/><rect x="70" y="664" width="162" height="1" fill="#d3d7cf" opacity=".5"/><path d="m140.51 800.27 25.93-16.919 10.372 11.279 20.744-22.558 10.372 11.279 10.372-11.279 5.1859 5.6396v50.756h-82.975v-28.198" fill="url(#u)" fill-rule="evenodd" filter="url(#al)" opacity=".33333"/><g transform="translate(0,2)" fill-rule="evenodd" opacity=".5"><path d="m166.44 781.34-25.938 16.938v10l25.938-16.938z" fill="url(#aa)"/><path d="m176.81 792.62-10.375-11.281v10l10.375 11.281z" fill="url(#y)"/><path d="m197.56 770.06-20.75 22.562v10l20.75-22.562z" fill="url(#x)"/><path d="m197.56 770.06v10l10.375 11.281v-10z" fill="url(#w)"/><path d="m207.94 791.34 10.344-11.281v-10l-10.344 11.281z" fill="url(#v)"/><path d="m218.28 780.06 5.1875 5.6562v-10l-5.1875-5.6562z" fill="url(#ab)"/></g><g transform="translate(240)" opacity=".7" stroke-linejoin="round"><g transform="translate(-240)" fill="none" stroke="#888a85"><rect x="91.5" y="684.5" width="20" height="12"/><rect x="111.5" y="684.5" width="20" height="12"/><rect x="131.5" y="684.5" width="20" height="12"/><rect x="151.5" y="684.5" width="20" height="12"/><rect x="171.5" y="684.5" width="20" height="12"/><rect x="191.5" y="684.5" width="20" height="12"/><rect x="211.5" y="684.5" width="20" height="12"/><rect x="91.5" y="696.5" width="20" height="12"/><rect x="111.5" y="696.5" width="20" height="12"/><rect x="131.5" y="696.5" width="20" height="12"/><rect x="151.5" y="696.5" width="20" height="12"/><rect x="171.5" y="696.5" width="20" height="12"/><rect x="191.5" y="696.5" width="20" height="12"/><rect x="211.5" y="696.5" width="20" height="12"/><rect x="91.5" y="708.5" width="20" height="12"/><rect x="111.5" y="708.5" width="20" height="12"/><rect x="131.5" y="708.5" width="20" height="12"/><rect x="151.5" y="708.5" width="20" height="12"/><rect x="171.5" y="708.5" width="20" height="12"/><rect x="191.5" y="708.5" width="20" height="12"/><rect x="211.5" y="708.5" width="20" height="12"/><rect x="91.5" y="720.5" width="20" height="12"/><rect x="111.5" y="720.5" width="20" height="12"/><rect x="131.5" y="720.5" width="20" height="12"/><rect x="151.5" y="720.5" width="20" height="12"/><rect x="171.5" y="720.5" width="20" height="12"/><rect x="191.5" y="720.5" width="20" height="12"/><rect x="211.5" y="720.5" width="20" height="12"/><rect x="91.5" y="732.5" width="20" height="12"/><rect x="111.5" y="732.5" width="20" height="12"/><rect x="131.5" y="732.5" width="20" height="12"/><rect x="151.5" y="732.5" width="20" height="12"/><rect x="171.5" y="732.5" width="20" height="12"/><rect x="191.5" y="732.5" width="20" height="12"/><rect x="211.5" y="732.5" width="20" height="12"/><rect x="91.5" y="744.5" width="20" height="12"/><rect x="111.5" y="744.5" width="20" height="12"/><rect x="91.5" y="756.5" width="20" height="12"/><rect x="111.5" y="756.5" width="20" height="12"/><rect x="91.5" y="768.5" width="20" height="12"/><rect x="111.5" y="768.5" width="20" height="12"/><rect x="91.5" y="780.5" width="20" height="12"/><rect x="111.5" y="780.5" width="20" height="12"/><rect x="91.5" y="792.5" width="20" height="12"/><rect x="111.5" y="792.5" width="20" height="12"/><rect x="91.5" y="804.5" width="20" height="12"/><rect x="111.5" y="804.5" width="20" height="12"/><rect x="91.5" y="816.5" width="20" height="12"/><rect x="111.5" y="816.5" width="20" height="12"/><rect x="91.5" y="828.5" width="20" height="12"/><rect x="111.5" y="828.5" width="20" height="12"/></g><g transform="translate(-240)" fill="#babdb6" stroke="#555753"><rect x="72.5" y="804.5" width="19" height="12"/><rect x="72.5" y="684.5" width="19" height="12"/><rect x="72.5" y="696.5" width="19" height="12"/><rect x="72.5" y="708.5" width="19" height="12"/><rect x="72.5" y="720.5" width="19" height="12"/><rect x="72.5" y="732.5" width="19" height="12"/><rect x="72.5" y="744.5" width="19" height="12"/><rect x="72.5" y="756.5" width="19" height="12"/><rect x="72.5" y="768.5" width="19" height="12"/><rect x="72.5" y="780.5" width="19" height="12"/><rect x="72.5" y="792.5" width="19" height="12"/><rect x="72.5" y="816.5" width="19" height="12"/><rect x="72.5" y="828.5" width="19" height="12"/></g><g transform="translate(-240)" fill="#729fcf" stroke="#204a87"><rect x="72.5" y="672.5" width="19" height="12"/><rect x="91.5" y="672.5" width="20" height="12"/><rect x="111.5" y="672.5" width="20" height="12"/><rect x="131.5" y="672.5" width="20" height="12"/><rect x="151.5" y="672.5" width="20" height="12"/><rect x="171.5" y="672.5" width="20" height="12"/><rect x="191.5" y="672.5" width="20" height="12"/><rect x="211.5" y="672.5" width="20" height="12"/></g></g><path d="m144.38 675.41c-0.31492 2.3421 0.41517 6.632 0.5968 1.7851-9.2e-4 -0.57802 0.17457-1.5836-0.5968-1.7851zm15.188 0c-0.0621 2.1868-0.0811 6.536 0.94622 2.1157 1.9182-0.11736 1.7461 4.3076 1.6242 0.16305-1.3016-2.4279-1.9757 0.0932-2.5704-2.2787zm59 0c-0.31492 2.3421 0.41517 6.632 0.5968 1.7851-9.2e-4 -0.57802 0.17457-1.5836-0.5968-1.7851zm1.6562 0c-0.43097 1.7675 1.4544-0.22296 0 0zm-142.41 0.34375c-1.6189 2.5231 2.8776 6.3128 0.39817 2.2047 1.5963-2.2858 1.5108 0.0885-0.39817-2.2047zm22.781 0c-1.6189 2.5231 2.8776 6.3128 0.39816 2.2047 1.5963-2.2858 1.5109 0.0885-0.39816-2.2047zm56.625 0c-1.6272 2.5263 2.8663 6.3159 0.39841 2.218 1.5691-2.3043 1.537 0.08-0.39841-2.218zm-75.906 0.84375c-2.328 0.32635 2.8556 1.6548-0.96875 1.5938-0.15552 4.9296 5.333-0.52094 0.96875-1.5938zm4.125 0c-2.8448-0.79262-1.319 6.0502-0.8245 1.3298 1.911-2.3389 1.6851 5.3074 1.9699-0.01-0.01992-0.53851-0.38074-1.6463-1.1454-1.3203zm13.094 0c-3.2868 0.22656 2.7562 3.95-1.2812 2.6875 3.4976 2.6964 0.66857-2.9977 1.5689-2.1104 1.1228 0.25923 1.0413-0.8695-0.28769-0.57713zm23.531 0c-2.4139 0.2937 2.8447 1.6634-1 1.5938-0.15639 4.8954 5.3072-0.46459 1-1.5938zm4.0938 0c-2.8342-0.78326-1.3319 6.0313-0.79728 1.3559 1.8925-2.3875 1.6853 5.296 1.9424-0.0705-0.0113-0.53247-0.38989-1.6495-1.1451-1.2854zm13.562 0c-2.8784-0.78497-1.4285 6.118-0.70339 1.2647l0.56488-0.80117zm25.031 0c-5.0591 0.89154 3.8535 5.1927-0.83362 2.3757 1.5333-0.64881 3.8538-1.2979 0.83362-2.3757zm17.844 0c-5.8769 3.6406 6.0018 4.4196 0 0zm4.0312 0c-2.9098-0.82274-1.4639 6.1267-0.71377 1.2778l0.55421-0.81486zm12.312 0c-2.8784-0.78497-1.4285 6.118-0.70339 1.2647l0.56488-0.80117zm2 0c-5.8769 3.6406 6.0018 4.4196 0 0zm3.8125 0c-4.7105 0.57176 3.1121 5.7141-1.0169 1.9765-0.41023-1.5282 3.318-1.8488 1.0169-1.9765zm18.281 0c-2.4139 0.2937 2.8447 1.6634-1 1.5938-0.11453 4.9067 5.2819-0.48684 1-1.5938zm-120.47 0.0937c1.9969 2.0737-0.43214 6.8824 2.2543 2.5739 0.94127-2.489 0.66549-2.8232-0.78168-0.49262-0.88287-0.418-0.19048-2.413-1.4726-2.0813zm13.125 0c0.15275 4.2345 1.9925 2.262 2.3656 1.4644 1.2228 5.4187 2.5669-5.0514 0.9712 0.77-0.55793-3.5224-1.8192-0.98525-2.2249-0.27105-0.16499-0.66763-0.28367-1.7234-1.1119-1.9634zm24.844 0c-1.5988 4.3926 5.1095 3.4524 2.2623 0.38266-0.60264 4.6492-1.4317 1.9852-2.2623-0.38266zm35.562 0c0.18114 4.2436 2.0132 2.2255 2.3872 1.4769 1.2185 5.4214 2.5438-5.0452 0.96974 0.73874-0.5755-3.9063-1.9447-0.41594-2.2636-0.15409-0.14004-0.72575-0.15001-1.8937-1.0934-2.0616zm44.125 0c4e-3 2.1726-0.62938 6.832 0.63029 2.0194-0.0367-0.63798 0.14137-1.7205-0.63029-2.0194zm-55.469 0.375c3.2143 1.6849-3.2989 0.89061 0 0zm17.844 0c3.8363 3.0695-3.7233 3.1101 0 0zm18.344 0c3.8363 3.0695-3.7233 3.1101 0 0zm-119.28 1.25c2.2222 1.8832-3.3962 0.57855 0 0zm40.75 0c2.1072 1.9236-3.3543 0.53407 0 0zm100.97 0c2.1072 1.9236-3.3543 0.53407 0 0z" fill="#fff"/><g transform="matrix(4.9915 0 0 5.3335 -210.41 -1284.9)" fill="url(#t)"><rect x="68.5" y="380.5" width="20.033" height="18" fill="none" stroke="#2e3436" stroke-dasharray="0.387623, 0.387623" stroke-dashoffset=".096906" stroke-linejoin="round" stroke-width=".19381"/></g><path transform="matrix(5.1859 0 0 5.6396 -225.1 -1404.6)" d="m70.5 391.5 5-3 2 2 4-4 2 2 2-2 1 1" fill="none" filter="url(#aj)" stroke="url(#c)" stroke-linecap="round" stroke-linejoin="round" stroke-width=".18491"/><g transform="matrix(5.1859 0 0 5.6396 -225.1 -1404.6)"><path d="m70.5 391.5 5-3 2 2 4-4 2 2 2-2 1 1v9h-16v-5" fill="url(#z)" fill-rule="evenodd"/></g><path d="m162.25 688c-0.3365 8e-3 -0.74935 0.0753-1.25 0.1875 3.7446-0.0349 0.20763 2.9372 1.25 3.5312 0.97959-1.4894 2.3555-3.7736 0-3.7188zm-35.469 0.0937c-0.12055-7e-3 -0.2413 5e-3 -0.3125 0.0313-2.4419 0.0784-2.1231 1.8466-1.2188 2.9375-0.0832-0.27853 0.13701-0.67522 0.96875-1.1875 2.2483 1.4901 0.145 1.9422-0.6875 1.5 0.85773 0.79547 1.9898 0.92285 2.0312-1.125-2.0478-0.50123-3.1141-1.5748-0.1875-1.625 0.20312-0.32411-0.2321-0.50962-0.59375-0.53125zm60 0c-0.12055-7e-3 -0.2413 5e-3 -0.3125 0.0313-2.4419 0.0784-2.1231 1.8466-1.2188 2.9375-0.0832-0.27853 0.13701-0.67522 0.96875-1.1875 2.2483 1.4901 0.145 1.9422-0.6875 1.5 0.85773 0.79547 1.9898 0.92285 2.0312-1.125-2.0478-0.50123-3.1141-1.5748-0.1875-1.625 0.20313-0.32411-0.2321-0.50962-0.59375-0.53125zm-90.312 0.0313c-3.4525 0.52783 3.6722 0.65755-0.1875 2.25-3.6483 1.9846 4.498 1.9593 0.03125 1.0625 0.46395-0.97128 3.5023-2.8852 0.15625-3.3125zm5.9375 0c-4.4427 0.70032 1.4856 6.6631 1.5 1.9688 0.0849-0.80395-0.34297-2.0589-1.5-1.9688zm34.312 0-0.3125 0.0625c-1.4452 0.10472 1.4832 2.5691-0.65625 3.7812 3.3964 0.95649 0.44839-2.4422 0.96875-3.8438zm5.625 0c-1.7643 0.44376-1.6641 2.0791-1 3.0625-0.11847-0.23218 0.10359-0.56173 1-0.96875 0.87979 0.47854 1.1079 0.80931 1.0312 1.0312 0.15491-0.29661 0.2849-0.68775 0.375-1.2188-0.31427-0.73771 0.32131-2.0832-1.4062-1.9062zm3.4375 0c-3.6115 1.6265 3.6342 3.0507-0.625 3.7812 2.9824 1.1015 3.5259-4.0458 0.625-3.7812zm10.906 0c-4.4081 0.73056 1.4833 6.6528 1.5312 1.9688 0.0647-0.80783-0.37685-2.0526-1.5312-1.9688zm25.625 0c-3.0476 0.76883-0.32572 5.7739 1 3.1875-0.43034 0.60356-3.6015 0.12105-1-1.0938 0.88322 0.4742 1.1093 0.80898 1.0312 1.0312 0.10605-0.221 0.19842-0.48269 0.28125-0.8125-0.22643-0.9475 0.63882-2.4164-1.3125-2.3125zm14.188 0c-3.4525 0.52783 3.6722 0.65755-0.1875 2.25-3.6483 1.9846 4.4981 1.9593 0.0313 1.0625 0.46395-0.97128 3.5023-2.8852 0.15625-3.3125zm9.75 0c-4.4101 0.71464 1.4859 6.6562 1.5 1.9688 0.0849-0.80395-0.34297-2.0589-1.5-1.9688zm15.938 0c-3.1356 0.3326 3.7336 1.1886-0.4375 2.4688-3.0231 2.1946 4.847 1.1022 0.25 1.0312 0.17202-1.1678 3.7236-3.2214 0.1875-3.5zm4.1562 0-0.3125 0.0625c-1.4452 0.10472 1.4832 2.5691-0.65625 3.7812 3.3525 0.95213 0.4609-2.4692 0.96875-3.8438zm-109.5 0.0313-0.46875 0.0313c-1.6354 0.36302 1.3929 2.4036-0.5625 3.75 3.4342 0.95276 0.0939-2.4008 1.0312-3.7812zm60 0-0.46875 0.0313c-1.6354 0.36302 1.3929 2.4036-0.5625 3.75 3.4342 0.95276 0.0939-2.4008 1.0312-3.7812zm25.875 0-0.5 0.0313c-1.036 0.19555 1.0167 2.6407-0.46875 3.7812 3.4471 0.78258-0.2329-2.3743 0.96875-3.8125zm14.219 0-0.46875 0.0313c-1.6354 0.36302 1.3929 2.4036-0.5625 3.75 3.4342 0.95276 0.0939-2.4008 1.0312-3.7812zm-110.5 0.0313c-1.965 1.7463-2.1537 3.1543 0.6875 3.5938 0.50782-0.46406 0.47452-3.3266-0.6875-3.5938zm16.094 0c-1.9531 1.7459-2.1686 3.1395 0.65625 3.5938 0.5521-0.49947 0.42966-3.2428-0.65625-3.5938zm43.906 0c-1.9283 1.7393-2.1265 3.1559 0.6875 3.5938 0.5558-0.48126 0.44735-3.3003-0.6875-3.5938zm-64.031 0.3124c3.0802 1.232-1.6506 5.0072-0.875 1.125 0.0351-0.4484 0.2075-1.1153 0.875-1.125zm39.938 0c2.8663 1.4352-2.8576 1.355 0 0zm3.75 0c3.4766 2.3039-3.451 2.1249 0 0zm10.594 0c3.1167 1.2155-1.658 5.0172-0.875 1.125 0.0351-0.4484 0.2075-1.1153 0.875-1.125zm25.625 0c2.8663 1.4352-2.8576 1.355 0 0zm23.938 0c3.1167 1.2155-1.658 5.0172-0.875 1.125 0.0351-0.4484 0.2075-1.1153 0.875-1.125zm-99.656 0.15625c1.4289 1.6899-2.7098 2.99-0.46875 0.625zm16.094 0c1.4289 1.6899-2.7098 2.99-0.46875 0.625zm43.906 0c1.1383 2.2026-3.0596 3.0198 0 0zm-41.344 2.4375c0.0412 0.10484 0.13486 0.18217 0.25 0.25-0.0844-0.0805-0.17263-0.15798-0.25-0.25zm60 0c0.0412 0.10484 0.13486 0.18217 0.25 0.25-0.0844-0.0805-0.17263-0.15798-0.25-0.25zm-41.906 0.21875c-0.2526 0.34505-1.395 0.34021-1.8438 0.0313 0.53971 0.65905 1.3165 0.91441 1.8438-0.0313zm-44.125 0.0313c-0.38107 1.8038 1.7798-0.19721 0 0zm19.906 0c-0.38107 1.8038 1.7798-0.19721 0 0zm20.031 0c-0.38107 1.8038 1.7798-0.19721 0 0zm20.094 0c-0.38107 1.8038 1.7798-0.19721 0 0zm19.875 0c-0.38107 1.8038 1.7798-0.19721 0 0zm20.125 0c-0.38107 1.8038 1.7798-0.19721 0 0zm19.969 0c-0.38107 1.8038 1.7798-0.19721 0 0zm-52.969 8.6562c-0.32852 0.0121-0.73663 0.0684-1.2188 0.1875 3.7753-0.0432 0.16582 2.8492 1.2812 3.375 1.0355-1.332 2.2371-3.647-0.0625-3.5625zm-64.125 0.0937c-0.27214 0.0151-0.5657 0.0359-0.90625 0.0937 4.208-0.47745-1.0288 5.5606 1.9062 2.3438 1.15-1.6395 0.90496-2.543-1-2.4375zm20 0c-0.27214 0.0151-0.5657 0.0359-0.90625 0.0937 4.208-0.47745-1.0288 5.5606 1.9062 2.3438 1.15-1.6395 0.90496-2.543-1-2.4375zm100 0c-0.27214 0.0151-0.5657 0.0359-0.90625 0.0937 4.2081-0.47745-1.0288 5.5606 1.9062 2.3438 1.15-1.6395 0.90495-2.543-1-2.4375zm-115.03 0.0313c-0.12295-5e-3 -0.23766 5e-3 -0.3125 0.0313-2.4356 0.0883-2.0962 1.7536-1.1875 2.7812-0.0881-0.26243 0.11157-0.62909 0.9375-1.125 2.1982 1.3335 0.32594 1.8059-0.5625 1.4688 0.84605 0.67922 1.8992 0.74182 1.9375-1.125-2.0868-0.46528-3.066-1.5482-0.15625-1.5625 0.18262-0.31777-0.28741-0.4525-0.65625-0.46875zm55.875 0c-0.11279-0.0109-0.2289 9e-3 -0.34375 0.0313-1.689 0.65575-1.5963 1.86-1 2.6875 0.0638-0.19564 0.35656-0.43247 1-0.71875 2.3066 1.1478 0.38519 1.4758-0.5625 1.1875 0.88115 0.69707 2.0931 0.61174 1.75-1.7188 0.60366-0.58483-0.0542-1.3927-0.84375-1.4688zm-36.5 0.0313c-1.7622 0.41996-1.662 1.9429-1 2.875-0.11847-0.21997 0.10359-0.52062 1-0.90625 0.91696 0.47254 1.1394 0.79089 1.0312 1 0.15766-0.28204 0.2837-0.64644 0.375-1.1562-0.30952-0.69875 0.29617-1.9594-1.4062-1.8125zm1.0312 2.9687c-0.18934 0.36594-1.4096 0.36607-1.875 0.0625 0.54762 0.63357 1.3482 0.87994 1.875-0.0625zm14.938-2.9688c-3.4533 0.49864 3.6872 0.62008-0.1875 2.125-3.6948 1.8791 4.5101 1.8489 0.0313 1 0.46449-0.92031 3.5024-2.72 0.15625-3.125zm3.875 0c-3.2245 0.0183 3.3849 1.3951-0.5625 1.5312 3.7175 1.0777-2.9787 2.5978 0.84375 2.25 1.5064-0.46896 1.8526-3.9774-0.28125-3.7812zm36.438 0-0.3125 0.0313c-1.4443 0.099 1.4815 2.4457-0.65625 3.5938 3.3962 0.90606 0.44758-2.2982 0.96875-3.625zm3.9688 0-0.46875 0.0313c-1.6341 0.34423 1.3898 2.3186-0.5625 3.5938 3.4325 0.90243 0.0952-2.3176 1.0312-3.625zm15.531 0c-3.9123 1.5667 3.9987 2.8276-0.75 3.5312 3.0364 1.2414 3.7249-3.7639 0.75-3.5312zm14.531 0c-3.2382 0.0171 3.3627 1.3846-0.5625 1.5312 3.754 1.0325-3.0775 2.6506 0.875 2.25 1.4206-0.51066 1.8182-3.9586-0.3125-3.7812zm9.6875 0c-1.7622 0.41996-1.662 1.9429-1 2.875-0.11847-0.21997 0.10359-0.52062 1-0.90625 0.91696 0.47254 1.1394 0.79089 1.0312 1 0.15766-0.28204 0.2837-0.64644 0.375-1.1562-0.30951-0.69875 0.29617-1.9594-1.4062-1.8125zm1.0312 2.9688c-0.18934 0.36594-1.4096 0.36607-1.875 0.0625 0.54762 0.63357 1.3482 0.87994 1.875-0.0625zm-131.84-2.9375c-1.21 1.7581 4.607 2.8279-0.09375 3.4375 3.7031 0.69493 3.0874-2.0486 0.71875-2.6562 1.9401-1.0182 2.2567-0.66999-0.625-0.78125zm21.469 0c-1.9534 1.6542-2.1687 2.9763 0.65625 3.4062 0.55144-0.47172 0.43056-3.0746-0.65625-3.4062zm20 0c-1.9534 1.6542-2.1687 2.9763 0.65625 3.4062 0.55145-0.47172 0.43057-3.0746-0.65625-3.4062zm18.531 0c-1.21 1.7581 4.607 2.8279-0.0937 3.4375 3.7031 0.69493 3.0874-2.0486 0.71875-2.6562 1.9401-1.0182 2.2567-0.66999-0.625-0.78125zm20 0c-1.21 1.7581 4.607 2.8279-0.0937 3.4375 3.7031 0.69493 3.0874-2.0486 0.71875-2.6562 1.9401-1.0182 2.2567-0.66999-0.625-0.78125zm21.469 0c-1.9534 1.6542-2.1687 2.9763 0.65625 3.4062 0.55145-0.47172 0.43057-3.0746-0.65625-3.4062zm8.0625 0c-1.2007 1.772 4.6718 2.8313-0.0937 3.4375 3.7248 0.70566 3.0957-2.0224 0.75-2.6562 2.0242-1.0204 2.164-0.67108-0.65625-0.78125zm-78.719 0.3125c2.8663 1.3598-2.8576 1.2838 0 0zm36.156 0c2.9939 1.6718-2.8272 1.1585 0 0zm39.938 0c3.5181 2.134-3.4244 2.0554 0 0zm23.906 0c2.8663 1.3598-2.8576 1.2838 0 0zm-109.19 0.125c1.1579 2.1014-3.1226 2.8561 0 0zm20 0c1.1579 2.1014-3.1226 2.8561 0 0zm60 0c1.1579 2.1014-3.1226 2.8561 0 0zm-35.656 2.25c-0.049 0.19924 0.12492 0.34665 0.40625 0.4375-0.15654-0.12663-0.28211-0.26913-0.40625-0.4375zm-56.031 0.0937c0.0457 0.10522 0.15318 0.18574 0.28125 0.25-0.0948-0.0827-0.19482-0.15363-0.28125-0.25zm-6.125 0.25c-0.38118 1.7093 1.7801-0.18686 0 0zm20 0c-0.38118 1.7093 1.7801-0.18686 0 0zm20 0c-0.38118 1.7093 1.7801-0.18686 0 0zm20 0c-0.38118 1.7093 1.7801-0.18686 0 0zm20 0c-0.38118 1.7093 1.7801-0.18686 0 0zm20 0c-0.38118 1.7093 1.7801-0.18686 0 0zm20 0c-0.38118 1.7093 1.7801-0.18686 0 0zm-36.5 8.7812c-0.11279-0.0112-0.2289 9e-3 -0.34375 0.0313-1.6924 0.67607-1.5997 1.9297-1 2.7812 0.049-0.20498 0.3326-0.44449 1-0.75 2.3066 1.1809 0.38519 1.5154-0.5625 1.2188 0.88115 0.71718 2.0931 0.64773 1.75-1.75 0.60366-0.60173-0.0542-1.453-0.84375-1.5312zm-1.3438 2.8125c-0.049 0.20498 0.12492 0.37528 0.40625 0.46875-0.16149-0.1344-0.27961-0.28893-0.40625-0.46875zm-85.281-2.7812c-1.7303 0.19104 3.2748 1.4699-0.125 1.7812 3.9657 0.63554-3.2369 2.5558 0.875 2.125 1.4206-0.52539 1.8182-4.0887-0.3125-3.9062-0.17974 2e-3 -0.32214-0.0127-0.4375 0zm7.1562 0c-0.34129-6e-3 -1.2695 0.12542-2.125 0.0313-1.2193 1.8174 4.6527 2.9044-0.0937 3.5312 3.7995 0.7591 2.9994-2.1435 0.8125-2.7188 1.5087-0.69469 1.7475-0.83734 1.4062-0.84375zm12.844 0c-1.7303 0.19104 3.2748 1.4699-0.125 1.7812 3.9657 0.63554-3.2369 2.5558 0.875 2.125 1.4206-0.52539 1.8182-4.0887-0.3125-3.9062-0.17974 2e-3 -0.32214-0.0127-0.4375 0zm9.9062 0c-2.6122 0.32963 1.5003 1.0038 0.9375 1.9062 0.80954-0.8994 1.2868-1.7685-0.9375-1.9062zm0.9375 1.9062c-0.12988 0.20826-0.51405 0.42508-1.2812 0.65625-3.477 1.7566 4.7348 1.0805 0 0.78125 0.22012-0.40869 0.81102-0.91508 1.2812-1.4375zm9.1562-1.9062c-1.7303 0.19104 3.2748 1.4699-0.125 1.7812 3.9657 0.63554-3.2369 2.5558 0.875 2.125 1.4206-0.52539 1.8182-4.0887-0.3125-3.9062-0.17974 2e-3 -0.32214-0.0127-0.4375 0zm6.2812 0c-4.4081 0.71218 1.4833 6.4722 1.5312 1.9062 0.0647-0.78745-0.37685-1.988-1.5312-1.9062zm23.625 0c-2.6122 0.32963 1.5003 1.0038 0.9375 1.9062 0.80955-0.8994 1.2868-1.7685-0.9375-1.9062zm0.9375 1.9062c-0.12988 0.20826-0.51405 0.42508-1.2812 0.65625-3.477 1.7567 4.7349 1.0805 0 0.78125 0.22013-0.40869 0.81102-0.91508 1.2812-1.4375zm18.875-1.9062c-3.6483 1.6448 3.6801 2.9126-0.5625 3.6562 2.978 1.0848 3.4238-3.9338 0.5625-3.6562zm16 0c-1.7264 0.19147 3.2974 1.4801-0.125 1.7812 4.0167 0.6568-3.2101 2.5945 0.875 2.125 1.4206-0.52539 1.8182-4.0887-0.3125-3.9062-0.17962 2e-3 -0.32241-0.0128-0.4375 0zm4.4062 0c-1.7622 0.43208-1.662 2.0098-1 2.9688-0.11847-0.22632 0.10359-0.54075 1-0.9375 0.87979 0.46647 1.1079 0.78366 1.0312 1 0.15349-0.28857 0.28552-0.67347 0.375-1.1875-0.30951-0.7189 0.29617-1.9948-1.4062-1.8438zm10.875 0c-1.7303 0.19104 3.2748 1.4699-0.125 1.7812 3.9657 0.63554-3.2369 2.5558 0.875 2.125 1.4206-0.52539 1.8182-4.0887-0.3125-3.9062-0.17974 2e-3 -0.32214-0.0127-0.4375 0zm5.9062 0c-3.917 1.6006 3.9774 2.9117-0.71875 3.625 3.0222 1.286 3.6767-3.8781 0.71875-3.625zm-116.59 0.0313c-1.9303 1.696-2.1272 3.076 0.6875 3.5 0.55156-0.45895 0.45305-3.2201-0.6875-3.5zm15.781 0c-1.0871 0.12098 0.97616 2.6406-0.5 3.7188 3.4717 0.77217-0.19318-2.3096 1-3.7188zm24.219 0c-1.9303 1.696-2.1272 3.076 0.6875 3.5 0.55157-0.45895 0.45305-3.2201-0.6875-3.5zm10.469 0c-1.9552 1.7023-2.1692 3.06 0.65625 3.5 0.54787-0.47665 0.43537-3.1642-0.65625-3.5zm5.3125 0c-1.0871 0.12098 0.97616 2.6406-0.5 3.7188 3.4717 0.77217-0.19318-2.3096 1-3.7188zm14.688 0c-1.9552 1.7023-2.1692 3.06 0.65625 3.5 0.54787-0.47665 0.43537-3.1642-0.65625-3.5zm20 0c-1.9552 1.7023-2.1692 3.06 0.65625 3.5 0.54787-0.47665 0.43537-3.1642-0.65625-3.5zm30.125 0c-1.7651 0.37552 1.7664 2.4325-0.5625 3.6562 3.3241 1.1179 0.36271-2.1683 0.96875-3.6562zm-84.625 0.34375c3.1167 1.1849-1.658 4.8878-0.875 1.0938 0.0351-0.43715 0.2075-1.0843 0.875-1.0938zm40 0c3.0503 1.6526-2.9066 1.2738 0 0zm3.75 0c3.5491 2.1429-3.3835 2.1723 0 0zm20.094 0c3.0799 1.4754-2.9571 1.4541 0 0zm17.094 0c3.5181 2.1956-3.4244 2.1147 0 0zm-116.75 0.125c1.1593 2.1695-3.1202 2.9313 0 0zm40 0c1.1593 2.1695-3.1202 2.9313 0 0zm10.469 0c1.1593 2.1695-3.1202 2.9313 0 0zm20 0c1.1593 2.1695-3.1202 2.9313 0 0zm20 0c1.1593 2.1695-3.1202 2.9313 0 0zm10.219 2.5625c-0.18934 0.3765-1.4096 0.37483-1.875 0.0625 0.54658 0.65061 1.3481 0.90078 1.875-0.0625zm-108.03 0.0937c-0.3818 1.7603 1.7818-0.19243 0 0zm20 0c-0.38179 1.7603 1.7818-0.19243 0 0zm20 0c-0.38179 1.7603 1.7818-0.19243 0 0zm20 0c-0.38179 1.7603 1.7818-0.19243 0 0zm20 0c-0.38179 1.7603 1.7818-0.19243 0 0zm20 0c-0.38179 1.7603 1.7818-0.19243 0 0zm21 0c-0.38179 1.7603 1.7818-0.19243 0 0zm-54.219 8.8126c-0.32852 0.0121-0.73663 0.0684-1.2188 0.1875 3.7753-0.0432 0.16582 2.8492 1.2812 3.375 1.0355-1.332 2.2371-3.647-0.0625-3.5625zm-64.125 0.0937c-0.27214 0.0151-0.5657 0.0359-0.90625 0.0937 4.208-0.47745-1.0288 5.5606 1.9062 2.3438 1.15-1.6395 0.90496-2.543-1-2.4375zm20 0c-0.27214 0.0151-0.5657 0.0359-0.90625 0.0937 4.208-0.47745-1.0288 5.5606 1.9062 2.3438 1.15-1.6395 0.90496-2.543-1-2.4375zm100 0c-0.27214 0.0151-0.5657 0.0359-0.90625 0.0937 4.2081-0.47745-1.0288 5.5606 1.9062 2.3438 1.15-1.6395 0.90495-2.543-1-2.4375zm-115.03 0.0313c-0.12295-5e-3 -0.23766 5e-3 -0.3125 0.0313-2.4356 0.0883-2.0962 1.7536-1.1875 2.7812-0.0881-0.26243 0.11157-0.62909 0.9375-1.125 2.1982 1.3335 0.32594 1.8059-0.5625 1.4688 0.84605 0.67922 1.8992 0.74182 1.9375-1.125-2.0868-0.46528-3.066-1.5482-0.15625-1.5625 0.18262-0.31777-0.28741-0.4525-0.65625-0.46875zm55.875 0c-0.11279-0.0109-0.2289 9e-3 -0.34375 0.0313-1.689 0.65575-1.5963 1.86-1 2.6875 0.0638-0.19564 0.35656-0.43247 1-0.71875 2.3066 1.1478 0.38519 1.4758-0.5625 1.1875 0.88115 0.69707 2.0931 0.61174 1.75-1.7188 0.60366-0.58483-0.0542-1.3927-0.84375-1.4688zm-36.5 0.0313c-1.7622 0.41996-1.662 1.9429-1 2.875-0.11847-0.21997 0.10359-0.52062 1-0.90625 0.91696 0.47254 1.1394 0.79089 1.0312 1 0.15766-0.28204 0.2837-0.64644 0.375-1.1562-0.30952-0.69875 0.29617-1.9594-1.4062-1.8125zm1.0312 2.9687c-0.18934 0.36594-1.4096 0.36607-1.875 0.0625 0.54762 0.63357 1.3482 0.87994 1.875-0.0625zm14.938-2.9688c-3.4533 0.49864 3.6872 0.62008-0.1875 2.125-3.6948 1.8791 4.5101 1.8489 0.0313 1 0.46449-0.92031 3.5024-2.72 0.15625-3.125zm3.875 0c-3.2245 0.0183 3.3849 1.3951-0.5625 1.5312 3.7175 1.0777-2.9787 2.5978 0.84375 2.25 1.5064-0.46896 1.8526-3.9774-0.28125-3.7812zm36.438 0-0.3125 0.0313c-1.4443 0.099 1.4815 2.4457-0.65625 3.5938 3.3962 0.90606 0.44758-2.2982 0.96875-3.625zm3.9688 0-0.46875 0.0313c-1.6341 0.34423 1.3898 2.3186-0.5625 3.5938 3.4325 0.90243 0.0952-2.3176 1.0312-3.625zm15.531 0c-3.9123 1.5667 3.9987 2.8276-0.75 3.5312 3.0364 1.2414 3.7249-3.7639 0.75-3.5312zm14.531 0c-3.2382 0.0171 3.3627 1.3846-0.5625 1.5312 3.754 1.0325-3.0775 2.6506 0.875 2.25 1.4206-0.51066 1.8182-3.9586-0.3125-3.7812zm9.6875 0c-1.7622 0.41996-1.662 1.9429-1 2.875-0.11847-0.21997 0.10359-0.52062 1-0.90625 0.91696 0.47254 1.1394 0.79089 1.0312 1 0.15766-0.28204 0.2837-0.64644 0.375-1.1562-0.30951-0.69875 0.29617-1.9594-1.4062-1.8125zm1.0312 2.9688c-0.18934 0.36594-1.4096 0.36607-1.875 0.0625 0.54762 0.63357 1.3482 0.87994 1.875-0.0625zm-131.84-2.9375c-1.21 1.7581 4.607 2.8279-0.09375 3.4375 3.7031 0.69493 3.0874-2.0486 0.71875-2.6562 1.9401-1.0182 2.2567-0.66999-0.625-0.78125zm21.469 0c-1.9534 1.6542-2.1687 2.9763 0.65625 3.4062 0.55144-0.47172 0.43056-3.0746-0.65625-3.4062zm20 0c-1.9534 1.6542-2.1687 2.9763 0.65625 3.4062 0.55145-0.47172 0.43057-3.0746-0.65625-3.4062zm18.531 0c-1.21 1.7581 4.607 2.8279-0.0937 3.4375 3.7031 0.69493 3.0874-2.0486 0.71875-2.6562 1.9401-1.0182 2.2567-0.66999-0.625-0.78125zm20 0c-1.21 1.7581 4.607 2.8279-0.0937 3.4375 3.7031 0.69493 3.0874-2.0486 0.71875-2.6562 1.9401-1.0182 2.2567-0.66999-0.625-0.78125zm21.469 0c-1.9534 1.6542-2.1687 2.9763 0.65625 3.4062 0.55145-0.47172 0.43057-3.0746-0.65625-3.4062zm8.0625 0c-1.2007 1.772 4.6718 2.8313-0.0937 3.4375 3.7248 0.70566 3.0957-2.0224 0.75-2.6562 2.0242-1.0204 2.164-0.67108-0.65625-0.78125zm-78.719 0.3125c2.8663 1.3598-2.8576 1.2838 0 0zm36.156 0c2.9939 1.6718-2.8272 1.1585 0 0zm39.938 0c3.5181 2.134-3.4244 2.0554 0 0zm23.906 0c2.8663 1.3598-2.8576 1.2838 0 0zm-109.19 0.125c1.1579 2.1014-3.1226 2.8561 0 0zm20 0c1.1579 2.1014-3.1226 2.8561 0 0zm60 0c1.1579 2.1014-3.1226 2.8561 0 0zm-35.656 2.25c-0.049 0.19924 0.12492 0.34665 0.40625 0.4375-0.15654-0.12663-0.28211-0.26913-0.40625-0.4375zm-56.031 0.0937c0.0457 0.10522 0.15318 0.18574 0.28125 0.25-0.0948-0.0827-0.19482-0.15363-0.28125-0.25zm-6.125 0.25c-0.38118 1.7093 1.7801-0.18686 0 0zm20 0c-0.38118 1.7093 1.7801-0.18686 0 0zm20 0c-0.38118 1.7093 1.7801-0.18686 0 0zm20 0c-0.38118 1.7093 1.7801-0.18686 0 0zm20 0c-0.38118 1.7093 1.7801-0.18686 0 0zm20 0c-0.38118 1.7093 1.7801-0.18686 0 0zm20 0c-0.38118 1.7093 1.7801-0.18686 0 0zm-57.219 8.7813c-0.3365 8e-3 -0.74935 0.0753-1.25 0.1875 3.7446-0.0349 0.20763 2.9372 1.25 3.5312 0.97959-1.4894 2.3555-3.7736 0-3.7188zm-35.469 0.0937c-0.12055-7e-3 -0.2413 5e-3 -0.3125 0.0313-2.4419 0.0784-2.1231 1.8466-1.2188 2.9375-0.0832-0.27853 0.13701-0.67522 0.96875-1.1875 2.2483 1.4901 0.145 1.9422-0.6875 1.5 0.85773 0.79547 1.9898 0.92285 2.0312-1.125-2.0478-0.50123-3.1141-1.5748-0.1875-1.625 0.20312-0.32411-0.2321-0.50962-0.59375-0.53125zm60 0c-0.12055-7e-3 -0.2413 5e-3 -0.3125 0.0313-2.4419 0.0784-2.1231 1.8466-1.2188 2.9375-0.0832-0.27853 0.13701-0.67522 0.96875-1.1875 2.2483 1.4901 0.145 1.9422-0.6875 1.5 0.85773 0.79547 1.9898 0.92285 2.0312-1.125-2.0478-0.50123-3.1141-1.5748-0.1875-1.625 0.20313-0.32411-0.2321-0.50962-0.59375-0.53125zm-90.312 0.0313c-3.4525 0.52783 3.6722 0.65755-0.1875 2.25-3.6483 1.9846 4.498 1.9593 0.03125 1.0625 0.46395-0.97128 3.5023-2.8852 0.15625-3.3125zm5.9375 0c-4.4427 0.70032 1.4856 6.6631 1.5 1.9688 0.0849-0.80395-0.34297-2.0589-1.5-1.9688zm34.312 0-0.3125 0.0625c-1.4452 0.10472 1.4832 2.5691-0.65625 3.7812 3.3964 0.95649 0.44839-2.4422 0.96875-3.8438zm5.625 0c-1.7643 0.44376-1.6641 2.0791-1 3.0625-0.11847-0.23218 0.10359-0.56173 1-0.96875 0.87979 0.47854 1.1079 0.80931 1.0312 1.0312 0.15491-0.29661 0.2849-0.68775 0.375-1.2188-0.31427-0.73771 0.32131-2.0832-1.4062-1.9062zm3.4375 0c-3.6115 1.6265 3.6342 3.0507-0.625 3.7812 2.9824 1.1015 3.5259-4.0458 0.625-3.7812zm10.906 0c-4.4081 0.73056 1.4833 6.6528 1.5312 1.9688 0.0647-0.80783-0.37685-2.0526-1.5312-1.9688zm25.625 0c-3.0476 0.76883-0.32572 5.7739 1 3.1875-0.43034 0.60356-3.6015 0.12105-1-1.0938 0.88322 0.4742 1.1093 0.80898 1.0312 1.0312 0.10605-0.221 0.19842-0.48269 0.28125-0.8125-0.22643-0.9475 0.63882-2.4164-1.3125-2.3125zm14.188 0c-3.4525 0.52783 3.6722 0.65755-0.1875 2.25-3.6483 1.9846 4.4981 1.9593 0.0313 1.0625 0.46395-0.97128 3.5023-2.8852 0.15625-3.3125zm9.75 0c-4.4101 0.71464 1.4859 6.6562 1.5 1.9688 0.0849-0.80395-0.34297-2.0589-1.5-1.9688zm15.938 0c-3.1356 0.3326 3.7336 1.1886-0.4375 2.4688-3.0231 2.1946 4.847 1.1022 0.25 1.0312 0.17202-1.1678 3.7236-3.2214 0.1875-3.5zm4.1562 0-0.3125 0.0625c-1.4452 0.10472 1.4832 2.5691-0.65625 3.7812 3.3525 0.95213 0.4609-2.4692 0.96875-3.8438zm-109.5 0.0313-0.46875 0.0313c-1.6354 0.36302 1.3929 2.4036-0.5625 3.75 3.4342 0.95276 0.0939-2.4008 1.0312-3.7812zm60 0-0.46875 0.0313c-1.6354 0.36302 1.3929 2.4036-0.5625 3.75 3.4342 0.95276 0.0939-2.4008 1.0312-3.7812zm25.875 0-0.5 0.0313c-1.036 0.19555 1.0167 2.6407-0.46875 3.7812 3.4471 0.78258-0.2329-2.3743 0.96875-3.8125zm14.219 0-0.46875 0.0313c-1.6354 0.36302 1.3929 2.4036-0.5625 3.75 3.4342 0.95276 0.0939-2.4008 1.0312-3.7812zm-110.5 0.0313c-1.965 1.7463-2.1537 3.1543 0.6875 3.5938 0.50782-0.46406 0.47452-3.3266-0.6875-3.5938zm16.094 0c-1.9531 1.7459-2.1686 3.1395 0.65625 3.5938 0.5521-0.49947 0.42966-3.2428-0.65625-3.5938zm43.906 0c-1.9283 1.7393-2.1265 3.1559 0.6875 3.5938 0.5558-0.48126 0.44735-3.3003-0.6875-3.5938zm-64.031 0.3124c3.0802 1.232-1.6506 5.0072-0.875 1.125 0.0351-0.4484 0.2075-1.1153 0.875-1.125zm39.938 0c2.8663 1.4352-2.8576 1.355 0 0zm3.75 0c3.4766 2.3039-3.451 2.1249 0 0zm10.594 0c3.1167 1.2155-1.658 5.0172-0.875 1.125 0.0351-0.4484 0.2075-1.1153 0.875-1.125zm25.625 0c2.8663 1.4352-2.8576 1.355 0 0zm23.938 0c3.1167 1.2155-1.658 5.0172-0.875 1.125 0.0351-0.4484 0.2075-1.1153 0.875-1.125zm-99.656 0.15625c1.4289 1.6899-2.7098 2.99-0.46875 0.625zm16.094 0c1.4289 1.6899-2.7098 2.99-0.46875 0.625zm43.906 0c1.1383 2.2026-3.0596 3.0198 0 0zm-41.344 2.4375c0.0412 0.10484 0.13486 0.18217 0.25 0.25-0.0844-0.0805-0.17263-0.15798-0.25-0.25zm60 0c0.0412 0.10484 0.13486 0.18217 0.25 0.25-0.0844-0.0805-0.17263-0.15798-0.25-0.25zm-41.906 0.21875c-0.2526 0.34505-1.395 0.34021-1.8438 0.0313 0.53971 0.65905 1.3165 0.91441 1.8438-0.0313zm-44.125 0.0313c-0.38107 1.8038 1.7798-0.19721 0 0zm19.906 0c-0.38107 1.8038 1.7798-0.19721 0 0zm20.031 0c-0.38107 1.8038 1.7798-0.19721 0 0zm20.094 0c-0.38107 1.8038 1.7798-0.19721 0 0zm19.875 0c-0.38107 1.8038 1.7798-0.19721 0 0zm20.125 0c-0.38107 1.8038 1.7798-0.19721 0 0zm19.969 0c-0.38107 1.8038 1.7798-0.19721 0 0zm-117.09 8.75c-0.27214 0.0151-0.5657 0.0359-0.90625 0.0937 4.208-0.47745-1.0288 5.5606 1.9062 2.3438 1.15-1.6395 0.90496-2.543-1-2.4375zm4.3438 0.0625c-1.7622 0.41996-1.662 1.9429-1 2.875-0.11847-0.21997 0.10359-0.52062 1-0.90625 0.91696 0.47254 1.1394 0.79089 1.0312 1 0.15766-0.28204 0.2837-0.64644 0.375-1.1562-0.30952-0.69875 0.29617-1.9594-1.4062-1.8125zm1.0312 2.9687c-0.18934 0.36594-1.4096 0.36607-1.875 0.0625 0.54762 0.63357 1.3482 0.87994 1.875-0.0625zm14.938-2.9688c-3.4533 0.49864 3.6872 0.62008-0.1875 2.125-3.6948 1.8791 4.5101 1.8489 0.0313 1 0.46449-0.92031 3.5024-2.72 0.15625-3.125zm3.875 0c-3.2245 0.0183 3.3849 1.3951-0.5625 1.5312 3.7175 1.0777-2.9787 2.5978 0.84375 2.25 1.5064-0.46896 1.8526-3.9774-0.28125-3.7812zm-29.188 0.0313c-1.9534 1.6542-2.1687 2.9763 0.65625 3.4062 0.55144-0.47172 0.43056-3.0746-0.65625-3.4062zm20 0c-1.9534 1.6542-2.1687 2.9763 0.65625 3.4062 0.55145-0.47172 0.43057-3.0746-0.65625-3.4062zm-10.656 0.31245c2.8663 1.3598-2.8576 1.2838 0 0zm-9.1875 0.125c1.1579 2.1014-3.1226 2.8561 0 0zm20 0c1.1579 2.1014-3.1226 2.8561 0 0zm-17.812 2.5938c-0.38118 1.7093 1.7801-0.18686 0 0zm20 0c-0.38118 1.7093 1.7801-0.18686 0 0zm-13.219 8.7812c-0.32852 0.0121-0.73663 0.0684-1.2188 0.1875 3.7753-0.0432 0.16582 2.8492 1.2812 3.375 1.0355-1.332 2.2371-3.647-0.0625-3.5625zm-3.2812 0.125c-0.11279-0.0109-0.2289 9e-3 -0.34375 0.0313-1.689 0.65575-1.5963 1.86-1 2.6875 0.0638-0.19564 0.35656-0.43247 1-0.71875 2.3066 1.1478 0.38519 1.4758-0.5625 1.1875 0.88115 0.69707 2.0931 0.61174 1.75-1.7188 0.60366-0.58483-0.0542-1.3927-0.84375-1.4688zm19.781 0.0313-0.3125 0.0313c-1.4443 0.099 1.4815 2.4457-0.65625 3.5938 3.3962 0.90606 0.44758-2.2982 0.96875-3.625zm3.9688 0-0.46875 0.0313c-1.6341 0.34423 1.3898 2.3186-0.5625 3.5938 3.4325 0.90243 0.0952-2.3176 1.0312-3.625zm-31.062 0.0313c-1.21 1.7581 4.607 2.8279-0.09375 3.4375 3.7031 0.69493 3.0874-2.0486 0.71875-2.6562 1.9401-1.0182 2.2567-0.66999-0.625-0.78125zm20 0c-1.21 1.7581 4.607 2.8279-0.0937 3.4375 3.7031 0.69493 3.0874-2.0486 0.71875-2.6562 1.9401-1.0182 2.2567-0.66999-0.625-0.78125zm-13.031 0.3124c2.9939 1.6718-2.8272 1.1585 0 0zm-1 2.375c-0.049 0.19924 0.12492 0.34665 0.40625 0.4375-0.15654-0.12663-0.28211-0.26913-0.40625-0.4375zm-2.1562 0.34375c-0.38118 1.7093 1.7801-0.18686 0 0zm20 0c-0.38118 1.7093 1.7801-0.18686 0 0zm2.6562 8.875c-0.27214 0.0151-0.5657 0.0359-0.90625 0.0937 4.2081-0.47745-1.0288 5.5606 1.9062 2.3438 1.15-1.6395 0.90495-2.543-1-2.4375zm-19.875 0.0625c-3.9123 1.5667 3.9987 2.8276-0.75 3.5312 3.0364 1.2414 3.7249-3.7639 0.75-3.5312zm14.531 0c-3.2382 0.0171 3.3627 1.3846-0.5625 1.5312 3.754 1.0325-3.0775 2.6506 0.875 2.25 1.4206-0.51066 1.8182-3.9586-0.3125-3.7812zm9.6875 0c-1.7622 0.41996-1.662 1.9429-1 2.875-0.11847-0.21997 0.10359-0.52062 1-0.90625 0.91696 0.47254 1.1394 0.79089 1.0312 1 0.15766-0.28204 0.2837-0.64644 0.375-1.1562-0.30952-0.69875 0.29617-1.9594-1.4062-1.8125zm1.0312 2.9688c-0.18934 0.36594-1.4096 0.36607-1.875 0.0625 0.54762 0.63357 1.3482 0.87994 1.875-0.0625zm-30.375-2.9375c-1.9534 1.6542-2.1687 2.9763 0.65625 3.4062 0.55145-0.47172 0.43057-3.0746-0.65625-3.4062zm8.0625 0c-1.2007 1.772 4.6718 2.8313-0.0937 3.4375 3.7248 0.70566 3.0957-2.0224 0.75-2.6562 2.0243-1.0204 2.164-0.67108-0.65625-0.78125zm-2.625 0.3125c3.5181 2.134-3.4244 2.0554 0 0zm23.906 0c2.8663 1.3598-2.8576 1.2838 0 0zm-29.188 0.125c1.1579 2.1014-3.1226 2.8561 0 0zm2.1875 2.5938c-0.38118 1.7093 1.7801-0.18686 0 0zm20 0c-0.38118 1.7093 1.7801-0.18686 0 0zm-23.125 8.8125c-1.7303 0.19104 3.2748 1.4699-0.125 1.7812 3.9657 0.63554-3.2369 2.5558 0.875 2.125 1.4206-0.52539 1.8182-4.0887-0.3125-3.9062-0.17974 2e-3 -0.32214-0.0127-0.4375 0zm7.1562 0c-0.34129-6e-3 -1.2695 0.12542-2.125 0.0313-1.2193 1.8174 4.6527 2.9044-0.0937 3.5312 3.7995 0.7591 2.9994-2.1435 0.8125-2.7188 1.5087-0.69469 1.7475-0.83734 1.4062-0.84375zm12.844 0c-1.7303 0.19104 3.2748 1.4699-0.125 1.7812 3.9657 0.63554-3.2369 2.5558 0.875 2.125 1.4206-0.52539 1.8182-4.0887-0.3125-3.9062-0.17974 2e-3 -0.32214-0.0127-0.4375 0zm9.9062 0c-2.6122 0.32963 1.5003 1.0038 0.9375 1.9062 0.80954-0.8994 1.2868-1.7685-0.9375-1.9062zm0.9375 1.9062c-0.12988 0.20826-0.51405 0.42508-1.2812 0.65625-3.477 1.7566 4.7348 1.0805 0 0.78125 0.22012-0.40869 0.81102-0.91508 1.2812-1.4375zm-20.531-1.875c-1.9303 1.696-2.1272 3.076 0.6875 3.5 0.55156-0.45895 0.45305-3.2201-0.6875-3.5zm15.781 0c-1.0871 0.12098 0.97616 2.6406-0.5 3.7188 3.4717 0.77217-0.19318-2.3096 1-3.7188zm-15.625 0.46875c1.1593 2.1695-3.1202 2.9313 0 0zm-7.3438 2.6562c-0.3818 1.7603 1.7818-0.19243 0 0zm20 0c-0.38179 1.7603 1.7818-0.19243 0 0zm-23.125 8.8438c-1.7303 0.19104 3.2748 1.4699-0.125 1.7812 3.9657 0.63554-3.2369 2.5558 0.875 2.125 1.4206-0.52539 1.8182-4.0887-0.3125-3.9062-0.17974 2e-3 -0.32214-0.0127-0.4375 0zm6.2812 0c-4.4081 0.71218 1.4833 6.4722 1.5312 1.9062 0.0647-0.78745-0.37685-1.988-1.5312-1.9062zm23.625 0c-2.6122 0.32963 1.5003 1.0038 0.9375 1.9062 0.80955-0.8994 1.2868-1.7685-0.9375-1.9062zm0.9375 1.9062c-0.12988 0.20826-0.51405 0.42508-1.2812 0.65625-3.477 1.7567 4.7349 1.0805 0 0.78125 0.22012-0.40869 0.81102-0.91508 1.2812-1.4375zm-20.531-1.875c-1.9303 1.696-2.1272 3.076 0.6875 3.5 0.55157-0.45895 0.45305-3.2201-0.6875-3.5zm10.469 0c-1.9552 1.7023-2.1692 3.06 0.65625 3.5 0.54788-0.47665 0.43537-3.1642-0.65625-3.5zm5.3125 0c-1.0871 0.12098 0.97616 2.6406-0.5 3.7188 3.4717 0.77217-0.19318-2.3096 1-3.7188zm-19.812 0.34375c3.1167 1.1849-1.658 4.8878-0.875 1.0938 0.0351-0.43715 0.2075-1.0843 0.875-1.0938zm4.1875 0.125c1.1593 2.1695-3.1202 2.9313 0 0zm10.469 0c1.1593 2.1695-3.1202 2.9313 0 0zm-17.812 2.6562c-0.38179 1.7603 1.7818-0.19243 0 0zm20 0c-0.38179 1.7603 1.7818-0.19243 0 0zm-17.344 8.9062c-0.27214 0.0151-0.5657 0.0359-0.90625 0.0937 4.208-0.47745-1.0288 5.5606 1.9062 2.3438 1.15-1.6395 0.90496-2.543-1-2.4375zm20 0c-0.27214 0.0151-0.5657 0.0359-0.90625 0.0937 4.208-0.47745-1.0288 5.5606 1.9062 2.3438 1.15-1.6395 0.90496-2.543-1-2.4375zm-15.031 0.0313c-0.12295-5e-3 -0.23766 5e-3 -0.3125 0.0313-2.4356 0.0883-2.0962 1.7536-1.1875 2.7812-0.0881-0.26243 0.11157-0.62909 0.9375-1.125 2.1982 1.3335 0.32594 1.8059-0.5625 1.4688 0.84605 0.67922 1.8992 0.74182 1.9375-1.125-2.0868-0.46528-3.066-1.5482-0.15625-1.5625 0.18262-0.31777-0.28741-0.4525-0.65625-0.46875zm19.375 0.0313c-1.7622 0.41996-1.662 1.9429-1 2.875-0.11847-0.21997 0.10359-0.52062 1-0.90625 0.91696 0.47254 1.1394 0.79089 1.0312 1 0.15766-0.28204 0.2837-0.64644 0.375-1.1562-0.30952-0.69875 0.29617-1.9594-1.4062-1.8125zm1.0312 2.9686c-0.18934 0.36594-1.4096 0.36607-1.875 0.0625 0.54762 0.63357 1.3482 0.87994 1.875-0.0625zm-31.844-2.9375c-1.21 1.7581 4.607 2.8279-0.09375 3.4375 3.7031 0.69493 3.0874-2.0486 0.71875-2.6562 1.9401-1.0182 2.2567-0.66999-0.625-0.78125zm21.469 0c-1.9534 1.6542-2.1687 2.9763 0.65625 3.4062 0.55144-0.47172 0.43056-3.0746-0.65625-3.4062zm9.3438 0.3125c2.8663 1.3598-2.8576 1.2838 0 0zm-9.1875 0.125c1.1579 2.1014-3.1226 2.8561 0 0zm-11.688 2.3438c0.0457 0.10522 0.15318 0.18574 0.28125 0.25-0.0948-0.0827-0.19482-0.15363-0.28125-0.25zm-6.125 0.25c-0.38118 1.7093 1.7801-0.18686 0 0zm20 0c-0.38118 1.7093 1.7801-0.18686 0 0zm-13.219 8.7812c-0.32852 0.0121-0.73663 0.0684-1.2188 0.1875 3.7753-0.0432 0.16582 2.8492 1.2812 3.375 1.0355-1.332 2.2371-3.647-0.0625-3.5625zm-3.2812 0.125c-0.11279-0.0109-0.2289 9e-3 -0.34375 0.0313-1.689 0.65575-1.5963 1.86-1 2.6875 0.0638-0.19564 0.35656-0.43247 1-0.71875 2.3066 1.1478 0.38519 1.4758-0.5625 1.1875 0.88115 0.69707 2.0931 0.61174 1.75-1.7188 0.60366-0.58483-0.0542-1.3927-0.84375-1.4688zm19.781 0.0313-0.3125 0.0313c-1.4443 0.099 1.4815 2.4457-0.65625 3.5938 3.3962 0.90606 0.44758-2.2982 0.96875-3.625zm3.9688 0-0.46875 0.0313c-1.6341 0.34423 1.3898 2.3186-0.5625 3.5938 3.4325 0.90243 0.0952-2.3176 1.0312-3.625zm-31.062 0.0313c-1.21 1.7581 4.607 2.8279-0.09375 3.4375 3.7031 0.69493 3.0874-2.0486 0.71875-2.6562 1.9401-1.0182 2.2567-0.66999-0.625-0.78125zm20 0c-1.21 1.7581 4.607 2.8279-0.0937 3.4375 3.7031 0.69493 3.0874-2.0486 0.71875-2.6562 1.9401-1.0182 2.2567-0.66999-0.625-0.78125zm-13.031 0.3124c2.9939 1.6718-2.8272 1.1585 0 0zm-1 2.375c-0.049 0.19924 0.12492 0.34665 0.40625 0.4375-0.15654-0.12663-0.28211-0.26913-0.40625-0.4375zm-2.1562 0.34375c-0.38118 1.7093 1.7801-0.18686 0 0zm20 0c-0.38118 1.7093 1.7801-0.18686 0 0zm2.6562 8.875c-0.27214 0.0151-0.5657 0.0359-0.90625 0.0937 4.2081-0.47745-1.0288 5.5606 1.9062 2.3438 1.15-1.6395 0.90495-2.543-1-2.4375zm-19.875 0.0625c-3.9123 1.5667 3.9987 2.8276-0.75 3.5312 3.0364 1.2414 3.7249-3.7639 0.75-3.5312zm14.531 0c-3.2382 0.0171 3.3627 1.3846-0.5625 1.5312 3.754 1.0325-3.0775 2.6506 0.875 2.25 1.4206-0.51066 1.8182-3.9586-0.3125-3.7812zm9.6875 0c-1.7622 0.41996-1.662 1.9429-1 2.875-0.11847-0.21997 0.10359-0.52062 1-0.90625 0.91696 0.47254 1.1394 0.79089 1.0312 1 0.15766-0.28204 0.2837-0.64644 0.375-1.1562-0.30952-0.69875 0.29617-1.9594-1.4062-1.8125zm1.0312 2.9688c-0.18934 0.36594-1.4096 0.36607-1.875 0.0625 0.54762 0.63357 1.3482 0.87994 1.875-0.0625zm-30.375-2.9375c-1.9534 1.6542-2.1687 2.9763 0.65625 3.4062 0.55145-0.47172 0.43057-3.0746-0.65625-3.4062zm8.0625 0c-1.2007 1.772 4.6718 2.8313-0.0937 3.4375 3.7248 0.70566 3.0957-2.0224 0.75-2.6562 2.0243-1.0204 2.164-0.67108-0.65625-0.78125zm-2.625 0.3125c3.5181 2.134-3.4244 2.0554 0 0zm23.906 0c2.8663 1.3598-2.8576 1.2838 0 0zm-29.188 0.125c1.1579 2.1014-3.1226 2.8561 0 0zm2.1875 2.5938c-0.38118 1.7093 1.7801-0.18686 0 0zm20 0c-0.38118 1.7093 1.7801-0.18686 0 0z" fill="#babdb6"/><path d="m78.531 688.56c-3.4705 0.9263 0.71429 4.049 0.80728 3.5608-3.6542 2.572 3.3876-0.89185 0.41157-3.3972l-0.51134-0.24408-0.70751 0.0804zm3.8438 0c-2.3383 0.27736 2.7979 1.6371-0.96875 1.5625-0.2282 4.8911 5.3493-0.43528 0.96875-1.5625zm4.1562 0c-2.9015-0.8941-1.471 6.1033-0.71402 1.2672l0.5568-0.81804zm-7.875 0.4375c3.8212 2.943-3.6368 3.1091 0 0zm4.0625 1.25c2.1515 1.9407-3.3563 0.56355 0 0zm0.125 9.0938c-0.31398 2.3462 0.41226 6.6328 0.59742 1.7834-7.33e-4 -0.57655 0.17788-1.5876-0.59742-1.7834zm1.6562 0c-0.43182 1.7704 1.4556-0.22524 0 0zm-5.5312 1.2812c-1.6203 4.4367 5.158 3.414 2.2898 0.39901-0.66611 4.7266-1.4823 1.9488-2.2898-0.39901zm5.5312 0c-0.44277 2.6858 0.7603 4.2182 0.58186 0.57653 0.22143-0.40514-0.24948-0.7868-0.58186-0.57653zm-6.3125 10.719c0.17336 2.2332-0.51334 5.314 1.0233 3.4002 3.6753 2.7392-1.6953-0.84762 1.4942-2.0014-3.6534 2.1437-0.66737 1.2454-2.5175-1.3988zm7.0938 0c-0.31398 2.3462 0.41226 6.6328 0.59742 1.7834-7.33e-4 -0.57655 0.17788-1.5876-0.59742-1.7834zm-2.5312 1.2188c-2.4131 0.26251 2.8409 1.6449-1 1.5625-0.19599 4.8918 5.3242-0.43373 1-1.5625zm0.34375 1.6875c2.1081 1.926-3.3497 0.56778 0 0zm-5.2188 9.0938c-0.31398 2.3462 0.41226 6.6328 0.59742 1.7834-7.33e-4 -0.57655 0.17788-1.5876-0.59742-1.7834zm2.8125 1.2188c-2.4037 0.26388 2.8368 1.6447-1 1.5625-0.14159 4.9 5.2934-0.45787 1-1.5625zm4.0938 0c-2.7915-0.54946-1.8967 6.9436-0.13094 2.8773 1.735 1.6762 2.0802-3.1855 0.13094-2.8773zm-0.125 0.4375c3.7166 3.1228-3.639 3.1376 0 0zm-3.625 1.25c2.1081 1.926-3.3497 0.56778 0 0zm-2.8125 9.0938c-0.43182 1.7704 1.4556-0.22524 0 0zm5.3125 0c0.17466 2.241-0.51768 5.3039 1.0302 3.4054 3.525 2.645-1.541-0.76659 1.4917-2.0087-3.6586 2.1403-0.67137 1.2556-2.5219-1.3967zm-2.5 1.2188c-2.4423 0.25693 2.8481 1.6257-0.96875 1.5625-0.23095 4.8942 5.2929-0.44356 0.96875-1.5625zm-2.8125 0.0625c-4.47e-4 2.1737-0.61518 6.8414 0.6312 2.022-0.0395-0.63713 0.14342-1.7259-0.6312-2.022zm3.1562 1.625c2.1081 1.926-3.3497 0.56778 0 0zm5.2812 9.0938c0.60212 1.9772-5.0632 2.5291-1.1715 4.5604 2.3835 1.1415 2.2013-4.4499 1.1715-4.5604zm-8.5 1.2188c-2.4423 0.25693 2.8481 1.6257-0.96875 1.5625-0.23095 4.8942 5.2929-0.44356 0.96875-1.5625zm4.125 0c-2.8605-0.82422-1.3987 6.0103-0.78717 1.2847 1.9079-1.5886 1.7376 4.7962 1.8743-0.14985-0.06901-0.46152-0.35863-1.4883-1.0872-1.1348zm3.4688 0.4375c3.7364 3.1539-3.6888 3.1051 0 0zm-7.25 1.25c2.1081 1.926-3.3497 0.56778 0 0zm2.6875 9.0938c-0.4264 1.7906 1.5179-0.26921 0 0zm-2.3438 0.34375c-1.638 2.541 2.8637 6.3398 0.39721 2.2291 1.6579-2.2813 1.5084 0.0817-0.39721-2.2291zm5.125 0.875c-3.4744 0.92849 0.72208 4.0481 0.8043 3.5619-3.6385 2.5712 3.3856-0.89345 0.41471-3.3981l-0.51088-0.24258zm-2.7812 0.0625c-0.47172 2.7144 0.81268 4.2155 0.61347 0.56187 0.22135-0.43422-0.28621-0.77071-0.61347-0.56187zm2.9062 0.375c3.8212 2.943-3.6368 3.1091 0 0zm-6.0625 10.344c-0.07462 2.1959-0.07568 6.541 0.9968 2.148 1.9394-0.14561 1.3706 4.3349 1.7709 0.61781-1.0415-1.7634-2.0719-1.6494-2.7677-2.7658zm7.375 0c-0.33748 2.3927 0.44803 6.6385 0.63139 1.7638 0.0032-0.57202 0.17428-1.6166-0.63139-1.7638zm-3.9375 1.2812c1.9842 2.091-0.4185 6.8847 2.2788 2.5902 1.0258-2.3656 0.49988-3.1108-0.71042-0.42969-0.95024-0.31121-0.22607-2.4617-1.5683-2.1605zm-2.3125 11.938c-2.8737-0.85494-1.4277 6.096-0.7116 1.2482l0.56395-0.80032zm2 0c-2.3289 0.28356 2.8049 1.6303-0.96875 1.5625-0.2282 4.8911 5.3493-0.43528 0.96875-1.5625zm3.8125 0c-5.8958 3.6029 6.0222 4.3726 0 0zm0 0.4375c3.8256 3.066-3.7325 3.1359 0 0zm-3.4688 1.25c2.1515 1.9407-3.3563 0.56355 0 0zm4.3125 9.0938c0.60954 1.9681-5.0089 2.5467-1.148 4.5562 2.3767 1.1568 2.2429-4.5184 1.148-4.5562zm-6.5312 1.2188c-2.9052-0.89243-1.4622 6.1043-0.72262 1.2613l0.55254-0.81398zm2 0c-5.987 3.5419 6.0458 4.4304 0 0zm0 0.4375c3.775 3.1005-3.7207 3.0975 0 0zm3.625 0c3.7679 3.0873-3.651 3.1769 0 0zm-4.8438 10.344c-0.0486 2.1842-0.11551 6.5208 0.98193 2.1471 1.96-0.16553 1.3883 4.345 1.7834 0.61384-1.0249-1.8129-2.1263-1.5566-2.7654-2.7609zm-2.3438 0.34375c-1.6307 2.5315 2.8718 6.3325 0.39478 2.2221 1.6809-2.2707 1.4911 0.0845-0.39478-2.2221zm7.4375 0.875c-5.9246 3.6605 6.1224 4.3246 0 0zm0 0.4375c3.8256 3.066-3.7325 3.1359 0 0zm-8 10.344c0.1937 2.2158-0.53774 5.2899 0.99892 3.4054 3.5247 2.6563-1.5508-0.79636 1.5197-2.0129-3.6339 2.042-0.76748 1.3928-2.5186-1.3925zm4.6562 1.2188c-5.1124 0.83581 3.8909 5.2187-0.84768 2.3412 1.6075-0.54564 3.7948-1.3536 0.84768-2.3412zm3.9062 0c-2.8605-0.82422-1.3987 6.0103-0.78717 1.2847 1.9079-1.5886 1.7376 4.7962 1.8743-0.14985-0.06901-0.46152-0.35863-1.4883-1.0872-1.1348zm-3.9062 0.4375c3.298 1.3037-3.6157 1.2941 0 0zm-3.3125 10.688c-1.638 2.541 2.8637 6.3398 0.39721 2.2291 1.6579-2.2813 1.5084 0.0817-0.39721-2.2291zm4 0.875c-2.9077-0.92411-1.4528 6.1058-0.76158 1.2641l0.55515-0.7978zm2 0c-2.4098 0.26453 2.839 1.6426-1 1.5625-0.19599 4.8918 5.3242-0.43373 1-1.5625zm0.3125 1.6875c2.2229 1.8853-3.3913 0.61218 0 0z" fill="#babdb6"/><path transform="matrix(5.1859 0 0 5.6396 -225.1 -1404.6)" d="m70.5 391.5 5-3 2 2 4-4 2 2 2-2 1 1" fill="none" opacity=".63514" stroke="url(#c)" stroke-linecap="round" stroke-linejoin="round" stroke-width=".18491"/><g opacity=".33333"><circle transform="matrix(1.7368 0 0 1.7368 -145.43 -571.42)" cx="197.38" cy="775.5" r="2.375" fill="url(#e)"/><circle transform="matrix(1.4706 0 0 1.4706 -102.71 -364.94)" cx="218.25" cy="775.5" r="2.125" fill="url(#f)"/><circle transform="translate(0 -.25)" cx="166.25" cy="786.88" r="3.375" fill="url(#d)"/></g><path transform="matrix(5.1859 0 0 5.6396 -225.1 -1403.6)" d="m70.5 391.5 5-3 2 2 4-4 2 2 2-2 1 1" fill="none" filter="url(#ah)" opacity=".63514" stroke="#204a87" stroke-linecap="round" stroke-linejoin="round" stroke-width=".18491"/><path transform="matrix(5.1859 0 0 5.6396 -225.1 -1404.6)" d="m70.5 391.5 5-3 2 2 4-4 2 2 2-2 1 1" fill="none" filter="url(#am)" opacity=".63514" stroke="url(#c)" stroke-linecap="round" stroke-linejoin="round" stroke-width=".18491"/><path transform="matrix(5.1859 0 0 5.6396 -225.1 -1404.6)" d="m70.5 382.5v14h16" fill="none" filter="url(#ai)" stroke="#fff" stroke-linecap="square" stroke-width=".18491px"/><path transform="matrix(5.1859 0 0 5.6396 -225.1 -1404.6)" d="m70.5 382.5v14h16" fill="none" stroke="#babdb6" stroke-linecap="square" stroke-width=".18491px"/><g fill="#fff"><rect x="216" y="676" width="12" height="4" rx="2" ry="2" opacity=".25"/><rect x="76" y="676" width="12" height="4" rx="2" ry="2" opacity=".25"/><rect x="96" y="676" width="12" height="4" rx="2" ry="2" opacity=".25"/><rect x="116" y="676" width="12" height="4" rx="2" ry="2" opacity=".25"/><rect x="136" y="676" width="12" height="4" rx="2" ry="2" opacity=".25"/><rect x="156" y="676" width="12" height="4" rx="2" ry="2" opacity=".25"/><rect x="176" y="676" width="12" height="4" rx="2" ry="2" opacity=".25"/><rect x="196" y="676" width="12" height="4" rx="2" ry="2" opacity=".25"/></g><path d="m78 688c-1.108 0-2 0.892-2 2s0.892 2 2 2h8c1.108 0 2-0.892 2-2s-0.892-2-2-2zm20 0c-1.108 0-2 0.892-2 2s0.892 2 2 2h8c1.108 0 2-0.892 2-2s-0.892-2-2-2zm20 0c-1.108 0-2 0.892-2 2s0.892 2 2 2h8c1.108 0 2-0.892 2-2s-0.892-2-2-2zm20 0c-1.108 0-2 0.892-2 2s0.892 2 2 2h8c1.108 0 2-0.892 2-2s-0.892-2-2-2zm20 0c-1.108 0-2 0.892-2 2s0.892 2 2 2h8c1.108 0 2-0.892 2-2s-0.892-2-2-2zm20 0c-1.108 0-2 0.892-2 2s0.892 2 2 2h8c1.108 0 2-0.892 2-2s-0.892-2-2-2zm20 0c-1.108 0-2 0.892-2 2s0.892 2 2 2h8c1.108 0 2-0.892 2-2s-0.892-2-2-2zm20 0c-1.108 0-2 0.892-2 2s0.892 2 2 2h8c1.108 0 2-0.892 2-2s-0.892-2-2-2zm-140 12c-1.108 0-2 0.892-2 2s0.892 2 2 2h8c1.108 0 2-0.892 2-2s-0.892-2-2-2zm20 0c-1.108 0-2 0.892-2 2s0.892 2 2 2h8c1.108 0 2-0.892 2-2s-0.892-2-2-2zm20 0c-1.108 0-2 0.892-2 2s0.892 2 2 2h8c1.108 0 2-0.892 2-2s-0.892-2-2-2zm20 0c-1.108 0-2 0.892-2 2s0.892 2 2 2h8c1.108 0 2-0.892 2-2s-0.892-2-2-2zm20 0c-1.108 0-2 0.892-2 2s0.892 2 2 2h8c1.108 0 2-0.892 2-2s-0.892-2-2-2zm20 0c-1.108 0-2 0.892-2 2s0.892 2 2 2h8c1.108 0 2-0.892 2-2s-0.892-2-2-2zm20 0c-1.108 0-2 0.892-2 2s0.892 2 2 2h8c1.108 0 2-0.892 2-2s-0.892-2-2-2zm20 0c-1.108 0-2 0.892-2 2s0.892 2 2 2h8c1.108 0 2-0.892 2-2s-0.892-2-2-2zm-140 12c-1.108 0-2 0.892-2 2s0.892 2 2 2h8c1.108 0 2-0.892 2-2s-0.892-2-2-2zm20 0c-1.108 0-2 0.892-2 2s0.892 2 2 2h8c1.108 0 2-0.892 2-2s-0.892-2-2-2zm20 0c-1.108 0-2 0.892-2 2s0.892 2 2 2h8c1.108 0 2-0.892 2-2s-0.892-2-2-2zm20 0c-1.108 0-2 0.892-2 2s0.892 2 2 2h8c1.108 0 2-0.892 2-2s-0.892-2-2-2zm20 0c-1.108 0-2 0.892-2 2s0.892 2 2 2h8c1.108 0 2-0.892 2-2s-0.892-2-2-2zm20 0c-1.108 0-2 0.892-2 2s0.892 2 2 2h8c1.108 0 2-0.892 2-2s-0.892-2-2-2zm20 0c-1.108 0-2 0.892-2 2s0.892 2 2 2h8c1.108 0 2-0.892 2-2s-0.892-2-2-2zm20 0c-1.108 0-2 0.892-2 2s0.892 2 2 2h8c1.108 0 2-0.892 2-2s-0.892-2-2-2zm-140 12c-1.108 0-2 0.892-2 2s0.892 2 2 2h8c1.108 0 2-0.892 2-2s-0.892-2-2-2zm20 0c-1.108 0-2 0.892-2 2s0.892 2 2 2h8c1.108 0 2-0.892 2-2s-0.892-2-2-2zm20 0c-1.108 0-2 0.892-2 2s0.892 2 2 2h8c1.108 0 2-0.892 2-2s-0.892-2-2-2zm20 0c-1.108 0-2 0.892-2 2s0.892 2 2 2h8c1.108 0 2-0.892 2-2s-0.892-2-2-2zm20 0c-1.108 0-2 0.892-2 2s0.892 2 2 2h8c1.108 0 2-0.892 2-2s-0.892-2-2-2zm20 0c-1.108 0-2 0.892-2 2s0.892 2 2 2h8c1.108 0 2-0.892 2-2s-0.892-2-2-2zm20 0c-1.108 0-2 0.892-2 2s0.892 2 2 2h8c1.108 0 2-0.892 2-2s-0.892-2-2-2zm20 0c-1.108 0-2 0.892-2 2s0.892 2 2 2h8c1.108 0 2-0.892 2-2s-0.892-2-2-2zm-140 12c-1.108 0-2 0.892-2 2s0.892 2 2 2h8c1.108 0 2-0.892 2-2s-0.892-2-2-2zm20 0c-1.108 0-2 0.892-2 2s0.892 2 2 2h8c1.108 0 2-0.892 2-2s-0.892-2-2-2zm20 0c-1.108 0-2 0.892-2 2s0.892 2 2 2h8c1.108 0 2-0.892 2-2s-0.892-2-2-2zm20 0c-1.108 0-2 0.892-2 2s0.892 2 2 2h8c1.108 0 2-0.892 2-2s-0.892-2-2-2zm20 0c-1.108 0-2 0.892-2 2s0.892 2 2 2h8c1.108 0 2-0.892 2-2s-0.892-2-2-2zm20 0c-1.108 0-2 0.892-2 2s0.892 2 2 2h8c1.108 0 2-0.892 2-2s-0.892-2-2-2zm20 0c-1.108 0-2 0.892-2 2s0.892 2 2 2h8c1.108 0 2-0.892 2-2s-0.892-2-2-2zm20 0c-1.108 0-2 0.892-2 2s0.892 2 2 2h8c1.108 0 2-0.892 2-2s-0.892-2-2-2zm-140 12c-1.108 0-2 0.892-2 2s0.892 2 2 2h8c1.108 0 2-0.892 2-2s-0.892-2-2-2zm20 0c-1.108 0-2 0.892-2 2s0.892 2 2 2h8c1.108 0 2-0.892 2-2s-0.892-2-2-2zm20 0c-1.108 0-2 0.892-2 2s0.892 2 2 2h8c1.108 0 2-0.892 2-2s-0.892-2-2-2zm-40 12c-1.108 0-2 0.892-2 2s0.892 2 2 2h8c1.108 0 2-0.892 2-2s-0.892-2-2-2zm20 0c-1.108 0-2 0.892-2 2s0.892 2 2 2h8c1.108 0 2-0.892 2-2s-0.892-2-2-2zm20 0c-1.108 0-2 0.892-2 2s0.892 2 2 2h8c1.108 0 2-0.892 2-2s-0.892-2-2-2zm-40 12c-1.108 0-2 0.892-2 2s0.892 2 2 2h8c1.108 0 2-0.892 2-2s-0.892-2-2-2zm20 0c-1.108 0-2 0.892-2 2s0.892 2 2 2h8c1.108 0 2-0.892 2-2s-0.892-2-2-2zm20 0c-1.108 0-2 0.892-2 2s0.892 2 2 2h8c1.108 0 2-0.892 2-2s-0.892-2-2-2zm-40 12c-1.108 0-2 0.892-2 2s0.892 2 2 2h8c1.108 0 2-0.892 2-2s-0.892-2-2-2zm20 0c-1.108 0-2 0.892-2 2s0.892 2 2 2h8c1.108 0 2-0.892 2-2s-0.892-2-2-2zm20 0c-1.108 0-2 0.892-2 2s0.892 2 2 2h8c1.108 0 2-0.892 2-2s-0.892-2-2-2zm-40 12c-1.108 0-2 0.892-2 2s0.892 2 2 2h8c1.108 0 2-0.892 2-2s-0.892-2-2-2zm20 0c-1.108 0-2 0.892-2 2s0.892 2 2 2h8c1.108 0 2-0.892 2-2s-0.892-2-2-2zm20 0c-1.108 0-2 0.892-2 2s0.892 2 2 2h8c1.108 0 2-0.892 2-2s-0.892-2-2-2zm-40 12c-1.108 0-2 0.892-2 2s0.892 2 2 2h8c1.108 0 2-0.892 2-2s-0.892-2-2-2zm20 0c-1.108 0-2 0.892-2 2s0.892 2 2 2h8c1.108 0 2-0.892 2-2s-0.892-2-2-2zm20 0c-1.108 0-2 0.892-2 2s0.892 2 2 2h8c1.108 0 2-0.892 2-2s-0.892-2-2-2zm-40 12c-1.108 0-2 0.892-2 2s0.892 2 2 2h8c1.108 0 2-0.892 2-2s-0.892-2-2-2zm20 0c-1.108 0-2 0.892-2 2s0.892 2 2 2h8c1.108 0 2-0.892 2-2s-0.892-2-2-2zm20 0c-1.108 0-2 0.892-2 2s0.892 2 2 2h8c1.108 0 2-0.892 2-2s-0.892-2-2-2zm-40 12c-1.108 0-2 0.892-2 2s0.892 2 2 2h8c1.108 0 2-0.892 2-2s-0.892-2-2-2zm20 0c-1.108 0-2 0.892-2 2s0.892 2 2 2h8c1.108 0 2-0.892 2-2s-0.892-2-2-2zm20 0c-1.108 0-2 0.892-2 2s0.892 2 2 2h8c1.108 0 2-0.892 2-2s-0.892-2-2-2z" opacity=".05"/><rect x="72" y="656.12" width="68" height="3.875" rx="1.9375" ry="1.9375" opacity=".03"/><path d="m74.307 658.35c-3.7655 0.35858 2.207 2.5428 0 0zm1.0752-0.22266c1.4606 3.6761-5.6184 0.99542-1.433-0.13656 2.6695-0.65766-3.2727-0.92055 0.19952-1.3385 0.9612-0.12508 1.3013 0.68952 1.2335 1.475zm3.8408-0.1084c0.43169 2.0438-0.9007 2.607-0.51145 0.30021-0.6906-2.7796-2.2392 0.26048-1.8297 1.6803-0.96174-0.68-0.47327-3.9975 0.42424-3.1115 0.80027-0.66075 2.1512 0.078 1.9169 1.131zm1.6143-2.2324c-0.66975 1.2811 2.5843 1.0202 0.09691 1.4935-1.4224 1.4978 2.5422 3.4394-0.35297 2.3721-0.13199-0.96292-1.209-3.8031 0.25606-3.8656zm3.3135 2.5635c-3.7655 0.35858 2.207 2.5428 0 0zm1.0752-0.22266c1.4606 3.6761-5.6184 0.99542-1.433-0.13656 2.6695-0.65766-3.2727-0.92055 0.19952-1.3385 0.9612-0.12508 1.3013 0.68952 1.2335 1.475zm3.8408-0.1084c0.43169 2.0438-0.9007 2.607-0.51145 0.30021-0.6906-2.7796-2.2392 0.26048-1.8297 1.6803-0.96174-0.68-0.47327-3.9975 0.42424-3.1115 0.80027-0.66075 2.1512 0.078 1.9169 1.131zm1.0811-1.3008c1.7182 0.71973-0.39843 5.5994 0 1.3028v-0.65143zm0-1.2773c1.3805-0.11327-0.37421 1.4707 0 0zm1.8018 3.8144c1.8871 0.15375-1.0066 2.7466 0 0zm4.2158-3.4688c-0.66975 1.2811 2.5843 1.0202 0.09691 1.4935-1.4224 1.4978 2.5422 3.4394-0.35297 2.3721-0.13199-0.96292-1.209-3.8031 0.25606-3.8656zm3.3135 2.5635c-3.7655 0.35858 2.207 2.5428 0 0zm1.0752-0.22266c1.4606 3.6761-5.6184 0.99543-1.433-0.13656 2.6695-0.65766-3.2727-0.92055 0.19952-1.3385 0.96119-0.12508 1.3013 0.68951 1.2335 1.475zm1.6348 1.3799c-5e-3 4.9532-1.7749-3.7899 0.41737-2.5958 3.1781-1.5445 2.0228 5.2336-0.41737 2.5958zm1.834-1.1455c-0.55001-3.5715-3.3398 2.3904-0.27229 0.96886l0.16534-0.29598zm1.4531-1.6436c1.7182 0.71975-0.39842 5.5994 0 1.3028v-0.65143zm0-1.2773c1.3805-0.11327-0.37422 1.4707 0 0zm2.9355 1.6553c-2.8197 0.76231 1.4886 4.2786 0.89654 0.83112-0.0857-0.41525-0.41602-0.86822-0.89654-0.83112zm0-0.45703c3.8417 0.52413-0.91132 6.2087-1.5187 1.7822-0.0528-0.86363 0.53616-1.8823 1.5187-1.7822zm4.7578 0.20508c-1.1849-0.0331-3.3877 1.7257-1.1384 2.665 3.0238 0.58884-2.9885 0.97921-1.3822-1.6154 0.23291-1.1537 1.5585-1.6944 2.5206-1.0496zm2.2148 0.25195c-2.8197 0.76231 1.4886 4.2786 0.89654 0.83112-0.0857-0.41525-0.41602-0.86822-0.89654-0.83112zm0-0.45703c3.8417 0.52412-0.91134 6.2087-1.5187 1.7822-0.0528-0.86363 0.53617-1.8823 1.5187-1.7822zm4.8398-0.85254c-0.66974 1.2811 2.5843 1.0202 0.0969 1.4935-1.4224 1.4978 2.5422 3.4394-0.35297 2.3721-0.13198-0.96292-1.209-3.803 0.25606-3.8656zm3.3135 2.5635c-3.7655 0.35858 2.2069 2.5428 0 0zm1.0752-0.22266c1.4606 3.6761-5.6184 0.99542-1.433-0.13656 2.6695-0.65766-3.2727-0.92054 0.19952-1.3385 0.96118-0.12508 1.3013 0.68951 1.2335 1.475zm3.0146-0.90527c-2.0917-0.86207-1.2658 5.2003-1.8972 1.4695-1.1472-1.6978 1.7176-2.8556 1.8972-1.4695zm2.0625 1.1279c-3.7655 0.35858 2.207 2.5428 0 0zm1.0752-0.22266c1.4606 3.6761-5.6184 0.99543-1.433-0.13656 2.6695-0.65765-3.2727-0.92055 0.19952-1.3385 0.96119-0.12508 1.3013 0.68951 1.2335 1.475zm1.6348 1.3799c-5e-3 4.9532-1.7749-3.7899 0.41738-2.5958 3.1781-1.5445 2.0228 5.2336-0.41738 2.5958zm1.834-1.1455c-0.55002-3.5715-3.3398 2.3904-0.2723 0.96886l0.16535-0.29598zm1.4531-1.6436c1.7182 0.71974-0.39843 5.5994 0 1.3028v-0.65143zm0-1.2773c1.3805-0.11327-0.37421 1.4707 0 0zm3.1553 2.9092c-3.7656 0.35859 2.207 2.5428 0 0zm1.0752-0.22266c1.4606 3.6761-5.6184 0.99542-1.433-0.13656 2.6695-0.65766-3.2727-0.92055 0.19952-1.3385 0.96119-0.12508 1.3013 0.68951 1.2335 1.475z" fill="#d3d7cf"/><rect x="70" y="848" width="164" height="1" fill="#d3d7cf" opacity=".5"/><path d="m221.76 855.49c0.41398 0.16833 1.1211-0.0622 0.98217-0.6074-0.0472-0.47442 0.0213-0.95942-0.0545-1.4284-0.051-0.45151-0.72674-0.75091-0.58806-1.1684 0.34931-0.12573 0.89532-0.20408 1.1883 0.046 0.1315 0.39784-0.0278 0.82341 0.0235 1.2343-2e-3 0.61308-8.5e-4 1.2262 0.0123 1.8392 0.24387 0.12689 1.1335 3e-3 0.73561 0.47044-0.46712 0.24167-0.98565-0.10653-1.4698 0.0509-0.31889 0.0677-0.92359 0.0439-0.82951-0.43655zm5.3438-2.9508c-0.33187 0.56686-0.82708 1.0151-1.1699 1.5744-0.1424 0.54262 0.64549 0.43463 0.98287 0.48646 0.39191-0.10636 0.0985-0.66736 0.18705-0.97961v-1.0812zm-0.15527-0.45282c0.47282-0.25899 1.0119 0.38982 0.76612 0.83271-0.0141 0.51377-0.0729 1.0348 0.03 1.5434 0.4198-0.0461 0.72655 0.56071 0.15923 0.59219-0.45185 0.13514 0.0154 0.74152-0.43008 0.85899-0.59068 0.087-0.14823-0.71892-0.60458-0.86449-0.44067-0.2147-0.95459 0.12756-1.388-0.14663-0.36615-0.24049-0.10733-0.71439 0.053-1.0043 0.41412-0.64595 0.9475-1.2052 1.4143-1.8118zm4.1426 1.77c0.82257 4e-3 1.2427 1.2613 0.56037 1.7395-0.59273 0.4693-1.409 0.47526-2.1168 0.32671-0.64621 0.16569-0.16199-0.97245 0.20432-0.40588 0.55802 0.14264 1.3002 0.0927 1.6227-0.45435 0.22156-0.52408-0.40137-1.1334-0.92315-0.9251-0.4082 0.18019-0.7282-0.56303-0.16211-0.48726 0.36441 0.0198 1.1493-0.0825 0.93751-0.60752-0.30632-0.28789-0.72914-0.42874-1.115-0.58364-0.19337-0.0643-0.79206-0.26953-0.31159-0.35345 0.40341-0.0418 0.8204-0.11244 1.2236-0.0468 0.53446 0.11269 1.0478 0.68158 0.8316 1.2451-0.12724 0.30171-0.43221 0.50714-0.75137 0.55268z" fill="#d3d7cf"/></g><g transform="translate(1200 307.93)" fill-rule="evenodd"><g transform="matrix(.98925 0 0 1.0232 21.376 24.59)"><path transform="matrix(.76048 0 0 .87302 56.123 8.4826)" d="m162 24c-2.7302 0-5.4062 0.18108-8.0312 0.5625-3.1702 5.9491-4.9688 12.73-4.9688 19.938 0 23.46 19.04 42.5 42.5 42.5 9.7773 0 18.785-3.3191 25.969-8.875-0.73575-29.997-25.296-54.125-55.469-54.125z" fill="url(#l)" filter="url(#ar)" opacity=".16868"/><path transform="translate(0,50)" d="m174-31c13.558 0 22.308 11.846 27.731 17.269s19.269 16.173 19.269 29.731c0-13.558-20.111-8.6028-26.192-8.6028-0.6357 0-1.2268-0.51769-1.1502-1.1502 2.5084-20.705-6.1006-37.247-19.658-37.247z" filter="url(#ap)" mask="url(#s)" opacity=".37952"/><path d="m172.59 20.722c24.827-0.87083 48.543 30.546 47.5 47 0-13.558-7.491-16.365-29.984-16.365-0.6357 0-1.1502-0.51307-1.1502-1.1502 0-22.493-2.8077-29.484-16.365-29.484z" fill="url(#k)" filter="url(#ao)" opacity=".42771"/><path d="m171.45 22.448c13.558 0 25.308 10.846 30.731 16.269s16.269 17.173 16.269 30.731c0-13.558-6.991-16.365-29.484-16.365-0.6357 0-1.1502-0.51307-1.1502-1.1502 0-22.493-2.8077-29.484-16.365-29.484z" fill="url(#ad)" filter="url(#an)" opacity=".27711"/><path d="m173.12 19.75c13.558 0 25.308 10.846 30.731 16.269s16.269 17.173 16.269 30.731c0-13.558-6.991-16.365-29.484-16.365-0.6357 0-1.1502-0.51307-1.1502-1.1502 0-22.493-2.8077-29.484-16.365-29.484z" fill="url(#j)"/><path d="m174 19c13.558 0 25.308 10.846 30.731 16.269s16.269 17.173 16.269 30.731c0-13.558-6.991-16.365-29.484-16.365-0.6357 0-1.1502-0.51307-1.1502-1.1502 0-22.493-2.8077-29.484-16.365-29.484z" fill="url(#i)"/><path d="m174.13 19.031c15.481 1.0337 16.019 13.643 16.263 26.517-0.74413-7.7303 1.374-15.978-4.2426-22.627 4.5078 1.5017 9.8111 5.7816 14.938 9.1924-5.4964-4.8666-14.015-13.001-26.958-13.081z" fill="url(#h)" filter="url(#ak)"/><path d="m219.38 57.625c-3.971-8.9-17.43-7.2964-27.25-8 9.9276-0.23867 24.598-2.9842 27.25 8z" fill="url(#g)" filter="url(#ag)"/></g><path transform="matrix(.98925 0 0 1.0232 21.376 24.59)" d="m174 19c13.558 0 25.308 10.846 30.731 16.269s16.269 17.173 16.269 30.731c0-13.558-6.991-16.365-29.484-16.365-0.6357 0-1.1502-0.51307-1.1502-1.1502 0-22.493-2.8077-29.484-16.365-29.484z" fill="url(#ac)"/></g></g></svg>
