<?xml version="1.0" encoding="UTF-8"?>
<svg enable-background="new" version="1.0" viewBox="0 0 256 256" xmlns="http://www.w3.org/2000/svg" xmlns:xlink="http://www.w3.org/1999/xlink"><defs><linearGradient id="f"><stop stop-color="#5d5d5d" offset="0"/><stop stop-color="#2f2f2f" offset=".70606"/><stop stop-color="#141414" offset="1"/></linearGradient><linearGradient id="c"><stop stop-color="#c17d11" offset="0"/><stop stop-color="#e9b96e" offset="1"/></linearGradient><linearGradient id="q"><stop stop-color="#e9b96e" offset="0"/><stop stop-color="#fff" stop-opacity="0" offset="1"/></linearGradient><clipPath id="ak"><path d="m-520.25 113.28-26.031 12.938c-0.66016 0.35547-0.78483 0.93947-0.8125 1.1562h-0.0312v25.5c0 1.125 0.5 3 2 3.5l33.438 11.344h0.9375l22.92-14.012-0.9205-29.707-31.5-10.719z" color="#000000" enable-background="accumulate" fill="none" stroke="#000" stroke-width="1px"/></clipPath><filter id="ai"><feGaussianBlur stdDeviation="0.34017319"/></filter><filter id="ah"><feGaussianBlur stdDeviation="0.99698795"/></filter><filter id="ag" x="-.14911" y="-.33957" width="1.2982" height="1.6791"><feGaussianBlur stdDeviation="3.5725402"/></filter><linearGradient id="e"><stop stop-color="#3f3f3f" offset="0"/><stop stop-color="#141414" offset="1"/></linearGradient><filter id="af"><feGaussianBlur stdDeviation="2.1471874"/></filter><filter id="ae" x="-.13521" y="-.33567" width="1.2704" height="1.6713"><feGaussianBlur stdDeviation="12.269642"/></filter><linearGradient id="ac" x1="-281.2" x2="-316.11" y1="261.7" y2="131.4" gradientUnits="userSpaceOnUse"><stop stop-color="#c00" offset="0"/><stop stop-color="#a00000" offset="1"/></linearGradient><radialGradient id="p" cx="-341.47" cy="209.63" r="20.875" gradientTransform="matrix(1.5604 .076013 -.12722 2.6116 212.78 -329.53)" gradientUnits="userSpaceOnUse"><stop stop-color="#ff5d5d" offset="0"/><stop stop-color="#ff0101" offset="1"/></radialGradient><radialGradient id="o" cx="-351.74" cy="177.82" r="20.875" gradientTransform="matrix(3.9344 0 -4.6939e-8 3.544 1041.7 -523.46)" gradientUnits="userSpaceOnUse"><stop stop-color="#ff5d5d" offset="0"/><stop stop-color="#ff0101" offset="1"/></radialGradient><radialGradient id="n" cx="-387.84" cy="202.28" r="20.875" gradientTransform="matrix(5.4648 0 -6.1402e-8 9.1463 1701.3 -1680.9)" gradientUnits="userSpaceOnUse"><stop stop-color="#ff5d5d" offset="0"/><stop stop-color="#ff0101" offset="1"/></radialGradient><linearGradient id="ab" x1="-457.5" x2="-387.25" y1="221.75" y2="221.75" gradientUnits="userSpaceOnUse"><stop stop-color="#141414" offset="0"/><stop stop-color="#343434" offset="1"/></linearGradient><linearGradient id="aa" x1="-484.91" x2="-487.16" y1="-66.859" y2="-36.323" gradientTransform="matrix(.86739 -.49764 .13316 .99109 0 100)" gradientUnits="userSpaceOnUse"><stop stop-color="#080808" offset="0"/><stop stop-color="#2a2a2a" offset="1"/></linearGradient><radialGradient id="m" cx="-389.06" cy="204.73" r="35.125" gradientTransform="matrix(1.2374 0 0 1.198 94.164 -52.158)" gradientUnits="userSpaceOnUse"><stop offset="0"/><stop stop-opacity="0" offset="1"/></radialGradient><linearGradient id="z" x1="-417.28" x2="-414.75" y1="184.31" y2="174.88" gradientUnits="userSpaceOnUse"><stop stop-color="#787878" offset="0"/><stop stop-color="#3a3a3a" offset="1"/></linearGradient><radialGradient id="l" cx="-446.29" cy="299.6" r="7.7782" gradientTransform="matrix(1.1892 .058639 -.1078 .98252 115.33 31.565)" gradientUnits="userSpaceOnUse" xlink:href="#f"/><radialGradient id="k" cx="-439.37" cy="299.38" r="7.7782" gradientTransform="matrix(1 -6.0132e-8 0 1.2955 0 -88.359)" gradientUnits="userSpaceOnUse" xlink:href="#e"/><radialGradient id="b" cx="-439.37" cy="299.38" r="7.7782" gradientTransform="matrix(1 -6.0132e-8 0 1.2955 0 -88.359)" gradientUnits="userSpaceOnUse"><stop stop-color="#3f3f3f" offset="0"/><stop stop-color="#141414" offset="1"/></radialGradient><linearGradient id="y" x1="-432.54" x2="-393.54" y1="332.02" y2="215.02" gradientUnits="userSpaceOnUse"><stop stop-color="#8b8d88" offset="0"/><stop stop-color="#2e2f2d" offset=".14514"/><stop stop-color="#8d908a" offset=".24194"/><stop stop-color="#555753" offset=".32135"/><stop stop-color="#494b47" offset=".81047"/><stop offset="1"/></linearGradient><linearGradient id="x" x1="-537.8" x2="-475.87" y1="204.84" y2="198.41" gradientTransform="translate(74 28.406)" gradientUnits="userSpaceOnUse"><stop stop-color="#c17d11" offset="0"/><stop stop-color="#e9b96e" offset="1"/></linearGradient><linearGradient id="w" x1="-481.8" x2="-498.37" y1="240.25" y2="178.41" gradientTransform="translate(74 28.406)" gradientUnits="userSpaceOnUse" xlink:href="#c"/><linearGradient id="v" x1="-523.78" x2="-516.75" y1="240.52" y2="206.69" gradientTransform="translate(74 28.406)" gradientUnits="userSpaceOnUse" xlink:href="#c"/><linearGradient id="u" x1="-448.69" x2="-448.51" y1="230.97" y2="230.33" gradientUnits="userSpaceOnUse"><stop stop-color="#523a13" offset="0"/><stop stop-color="#d3983c" stop-opacity="0" offset="1"/></linearGradient><linearGradient id="d" x1="-91.906" x2="-31.75" y1="13.246" y2="220" gradientTransform="translate(-363.75 34.27)" gradientUnits="userSpaceOnUse" xlink:href="#q"/><radialGradient id="j" cx="-447.31" cy="251.8" r="29.25" gradientTransform="matrix(1 0 0 .75184 0 62.487)" gradientUnits="userSpaceOnUse"><stop stop-color="#f6e4c9" offset="0"/><stop stop-color="#e9b96e" offset="1"/></radialGradient><linearGradient id="t" x1="-522.62" x2="-528.75" y1="149.12" y2="110.5" gradientUnits="userSpaceOnUse"><stop offset="0"/><stop stop-opacity="0" offset="1"/></linearGradient><linearGradient id="s" x1="-430.63" x2="-430.13" y1="236.86" y2="237.75" gradientUnits="userSpaceOnUse"><stop stop-color="#efca91" offset="0"/><stop stop-color="#f6e4c9" offset=".44198"/><stop stop-color="#e6be7f" offset="1"/></linearGradient><radialGradient id="i" cx="-376.18" cy="163.68" r="89.979" gradientTransform="matrix(1.0138 0 0 .87917 5.1733 24.846)" gradientUnits="userSpaceOnUse"><stop stop-color="#ff9393" offset="0"/><stop stop-color="#c20000" offset="1"/></radialGradient><clipPath id="aj"><path d="m185 115.75-91.125 39.5v118.62l90.875 29.125 89-46.25v-112.25z" color="#000000" enable-background="accumulate" fill="none" stroke="#000" stroke-width="2"/></clipPath><filter id="ad" color-interpolation-filters="sRGB"><feGaussianBlur stdDeviation="0.9178125"/></filter><linearGradient id="r" x1="213.52" x2="215.75" y1="253.1" y2="32.375" gradientUnits="userSpaceOnUse"><stop offset="0"/><stop stop-opacity="0" offset="1"/></linearGradient><radialGradient id="h" cx="107.91" cy="310.43" r="33.87" gradientTransform="matrix(2.4458 0 0 2.2776 -156.02 -397.31)" gradientUnits="userSpaceOnUse"><stop stop-color="#fff" offset="0"/><stop stop-color="#fff" stop-opacity="0" offset="1"/></radialGradient><radialGradient id="g" cx="-439.37" cy="299.38" r="7.7782" gradientTransform="matrix(1.199 .0086295 -.016434 1.5555 92.342 -162.42)" gradientUnits="userSpaceOnUse" xlink:href="#f"/><radialGradient id="a" cx="-446.35" cy="299.77" r="7.7782" gradientTransform="matrix(1.6502 -.17855 .13935 1.2879 247.17 -165.47)" gradientUnits="userSpaceOnUse" xlink:href="#e"/></defs><g transform="translate(-35,2)"><g><g transform="translate(558.81 18)"><path d="m-287.26 140.84-89.803 45.962-14.496-4.5962-55.298 31.457c-1.875 1.125-5.1203 1.8805-8.1203 0.50554l-50.072-17.82 36.77-21.567 82.44-47.597z" color="#000000" enable-background="accumulate" fill="#080808" filter="url(#ae)"/><path d="m-284.26 138.84-89.803 45.962-14.496-4.5962-55.298 31.457c-1.875 1.125-5.1203 1.8805-8.1203 0.50554l-50.072-17.82 36.77-21.567 82.44-47.597z" color="#000000" enable-background="accumulate" fill="#080808" filter="url(#af)"/><path transform="translate(0,-100)" d="m-374.25 168.75v116.5l89.25-46.5v-112z" fill="url(#ac)"/><path d="m-318.76 75.447c-1.0109 0.03454-2.0938 0.25-3.2812 0.65625l-23.25 12.25v46.75l12.75-5.75-0.5-10c10.785 5.5127 20.714 5.3144 29.5-2.5-11.405 1.9366-15.233-2.1783-18-5.5 0 0 12.815-10.407 12.75-22.75-0.0279-5.3128-2.8924-13.398-9.9688-13.156zm-6.7188 15.594c0.41193-0.01706 0.82571 0.04517 1.1875 0.21875 1.9295 0.92573 2.2077 4.3574 0.625 7.6562-1.5827 3.2989-4.4455 5.207-6.375 4.2812s-2.2077-4.3574-0.625-7.6562c1.286-2.6803 3.4025-4.4261 5.1875-4.5z" fill="#ff5a5a"/><path d="m-320.18 74.74c-1.0109 0.03454-2.0938 0.25-3.2812 0.65625l-23.25 12.25v46.75l12.75-5.75-0.5-10c10.785 5.5127 20.714 5.3144 29.5-2.5-11.405 1.9366-15.233-2.1783-18-5.5 0 0 12.815-10.407 12.75-22.75-0.0279-5.3128-2.8924-13.398-9.9688-13.156zm-6.7188 15.594c0.41193-0.01706 0.82571 0.04517 1.1875 0.21875 1.9295 0.92573 2.2077 4.3574 0.625 7.6562-1.5827 3.2989-4.4455 5.207-6.375 4.2813s-2.2077-4.3574-0.625-7.6563c1.286-2.6803 3.4025-4.4261 5.1875-4.5z" fill="#900"/><path transform="translate(0,-100)" d="m-319.47 175.09c-1.0109 0.0345-2.0938 0.25-3.2812 0.65625l-23.25 12.25v46.75l12.75-5.75-0.5-10c10.785 5.5127 20.714 5.3144 29.5-2.5-11.405 1.9366-15.233-2.1783-18-5.5 0 0 12.815-10.407 12.75-22.75-0.0279-5.3128-2.8924-13.398-9.9688-13.156zm-6.7188 15.594c0.41193-0.0171 0.82571 0.0452 1.1875 0.21875 1.9295 0.92573 2.2077 4.3574 0.625 7.6562s-4.4455 5.207-6.375 4.2812-2.2077-4.3574-0.625-7.6562c1.286-2.6803 3.4025-4.4261 5.1875-4.5z" fill="url(#p)"/><path transform="translate(0,-100)" d="m-374.25 168.75-90.75-31.5 91.25-39.25 88.75 28.75z" color="#000000" enable-background="accumulate" fill="url(#o)"/><path transform="translate(0,-100)" d="m-374.25 168.75-90.75-31.5-0.25 116.5 91.25 31.5z" color="#000000" enable-background="accumulate" fill="url(#n)"/><path transform="translate(-558.81 -118)" d="m185 115.75-91.125 39.5v118.62l90.875 29.125 89-46.25v-112.25z" clip-path="url(#aj)" color="#000000" enable-background="accumulate" fill="none" filter="url(#ad)" stroke="url(#r)" stroke-width="2"/><path transform="translate(0,-100)" d="m-457.5 159.92 1.25 97.328 69 23.5v-97z" fill="url(#ab)"/><path transform="translate(0,-100)" d="m-387.16 252.19-60 34.406c-5.4287 3.1145-9.0471 11.137-8.125 18l0.0312 0.3125c0.92212 6.8633 6.0401 9.8645 11.469 6.75l56.812-32.594c-0.11532-0.71889-0.1875-1.4621-0.1875-2.2188v-24.656z" color="#000000" enable-background="new" fill="url(#aa)" fill-rule="evenodd"/><ellipse transform="matrix(.5368 .11245 -.11245 .5368 -157.74 73.254)" cx="-442.3" cy="299.06" rx="7.7782" ry="10.076" color="#000000" enable-background="accumulate" fill="url(#a)"/><ellipse transform="matrix(.5368 .11245 -.11245 .5368 -145.81 66.352)" cx="-442.3" cy="299.06" rx="7.7782" ry="10.076" color="#000000" enable-background="accumulate" fill="url(#a)"/><ellipse transform="matrix(.5368 .11245 -.11245 .5368 -134.32 60.165)" cx="-442.3" cy="299.06" rx="7.7782" ry="10.076" color="#000000" enable-background="accumulate" fill="url(#a)"/><path transform="translate(0,-100)" d="m-457.5 160.1 1.25 97.152 69 23.5v-97z" fill="url(#m)"/><path transform="translate(0,-100)" d="m-448.37 164.62-4.8035 2.7438-3.0804 6.64 68.75 20.75v-10.75z" fill="url(#z)"/><path d="m-453.49 67.982 65.736 21.475" fill="none" opacity=".17143" stroke="#fff" stroke-width="1px"/><ellipse transform="matrix(.79269 .20503 -.16606 .97875 -48.398 -2.7105)" cx="-442.3" cy="299.06" rx="7.7782" ry="10.076" color="#000000" enable-background="accumulate" fill="url(#l)"/><ellipse transform="matrix(.5368 .11245 -.11245 .5368 -156.42 73.254)" cx="-442.3" cy="299.06" rx="7.7782" ry="10.076" color="#000000" enable-background="accumulate" fill="url(#k)"/><ellipse transform="matrix(.5368 .11245 -.11245 .5368 -144.75 66.794)" cx="-442.3" cy="299.06" rx="7.7782" ry="10.076" color="#000000" enable-background="accumulate" fill="url(#b)"/><ellipse transform="matrix(.5368 .11245 -.11245 .5368 -133.29 60.338)" cx="-442.3" cy="299.06" rx="7.7782" ry="10.076" color="#000000" enable-background="accumulate" fill="url(#b)"/><ellipse transform="matrix(.5368 .11245 -.11245 .5368 -124.24 53.356)" cx="-442.3" cy="299.06" rx="7.7782" ry="10.076" color="#000000" enable-background="accumulate" fill="url(#a)"/><ellipse transform="matrix(.5368 .11245 -.11245 .5368 -123.37 53.621)" cx="-442.3" cy="299.06" rx="7.7782" ry="10.076" color="#000000" enable-background="accumulate" fill="url(#b)"/><path transform="translate(0,-100)" d="m-387.85 252.21-60.104 35.355c-3.5355 2.4749-6.3449 6.4383-6.7175 10.607-1.0723 11.994 7.4246 15.556 7.4246 15.556l-54.447-19.445s-6.1013-4.9576-4.9498-11.667c0.77973-4.5434 3.5355-9.5459 8.4853-12.728l110.66-62.579z" fill="url(#y)"/><path d="m-474.75 163.25 34.75 11.25 22.75-15.25-31.25-10z" color="#000000" enable-background="new" fill-rule="evenodd" filter="url(#ag)" opacity=".65714"/><path d="m-474.75 163.25 34.75 11.25 22.75-15.25-31.25-10z" color="#000000" enable-background="new" fill-rule="evenodd" filter="url(#ah)" opacity=".96327"/><g transform="translate(.25 1.25)"><path transform="translate(0,-100)" d="m-476.5 233.25 0.17678 25.5c0 1.125 0.5 2.9116 2 3.4116l33.25 11.427-0.67693-29.588z" color="#000000" enable-background="accumulate" fill="url(#x)" fill-rule="evenodd"/><path transform="translate(0,-100)" d="m-441.8 244.16 23.677-14.287 1.0089 29.707-23.023 14.013z" color="#000000" enable-background="accumulate" fill="url(#w)" fill-rule="evenodd"/><path transform="translate(0,-100)" d="m-441.8 244.16 23.677-14.287-31.505-10.729-26.013 12.937c-0.8125 0.4375-0.83051 1.2627-0.83051 1.2627z" color="#000000" enable-background="accumulate" fill="url(#v)" fill-rule="evenodd"/><path transform="translate(0,-100)" d="m-462.88 225.75 33 11.25-0.0625 0.0625-33.438-11.062z" color="#000000" enable-background="accumulate" fill="url(#u)" fill-rule="evenodd" opacity=".71837"/><path d="m-465.24 126.97 32.565 11.56 5.0952-3.2925-33.028-10.566z" enable-background="new" fill="url(#d)" fill-rule="evenodd"/><path d="m-432.01 145.62-0.66437-7.0859 5.504-2.5191 0.14721 5.0855-0.89019-0.16268-0.63859 1.3608-0.68359-0.091-0.49551 1.2234-0.58864-0.18218-0.51176 1.239-0.65173-0.12159z" enable-background="new" fill="url(#d)" fill-rule="evenodd"/><path d="m-465.24 126.97 32.565 11.56-0.37098 0.19302-32.249-11.677z" enable-background="new" fill="#c2a577" fill-rule="evenodd"/><path transform="translate(0,-100)" d="m-475.68 232.13c-0.18578 0.0505-0.32571 0.81722-0.13226 0.99274l34.062 10.625 23.188-13.938 0.5 0.25-0.125 0.4375-23.312 13.812 1.394 29.253c-0.28059 0.2856-0.62052 0.30413-1.019 0.0594l-1-29.438-34.438-10.812c0.0419-0.6432 0.44813-1.1875 0.88226-1.2428z" color="#000000" enable-background="new" fill="url(#j)" fill-rule="evenodd"/><path transform="translate(70.75 5.8645)" d="m-520.25 113.28-26.031 12.938c-0.66016 0.35547-0.78483 0.93947-0.8125 1.1562h-0.0312v25.5c0 1.125 0.5 3 2 3.5l33.438 11.344h0.9375l22.92-13.923-0.9205-29.796-31.5-10.719z" clip-path="url(#ak)" color="#000000" enable-background="accumulate" fill="none" filter="url(#ai)" opacity=".51429" stroke="url(#t)" stroke-width="1px"/><path d="m-432.68 138.84-0.0312 0.0312 0.6875 7.0938 0.53125-1.25 0.625 0.125 0.53125-1.25 0.59375 0.1875 0.5-1.2188 0.65625 0.0937 0.65625-1.375 0.875 0.15625v-0.34375l-0.875-0.15625-0.65625 1.3438-0.65625-0.0625-0.5 1.2188-0.59375-0.1875-0.53125 1.2188-0.625-0.0937-0.53125 1.25-0.65625-6.7812z" enable-background="new" fill="#725933" fill-opacity=".20276" fill-rule="evenodd"/><path transform="translate(0,-100)" d="m-433.32 238.32c0.51779 0.0567 0.77854 0.37051 0.70711 1.0165l5.458-3.3146c0-0.53946-0.25404-0.79639-0.64081-0.86179z" color="#000000" enable-background="new" fill="url(#s)" fill-rule="evenodd"/></g><path d="m-453.44 67.026 65.692 21.431" fill="none" opacity=".17143" stroke="#000" stroke-width="1px"/><path transform="translate(0,-100)" d="m-464.92 136.96 90.51 31.113 89.449-41.543-88.212 43.134-0.88389 115.08-1.4142-115.26z" color="#000000" enable-background="accumulate" fill="url(#i)"/><path transform="translate(-558.81 -118)" d="m171.12 268.64-60.624 35.956c-3.5355 2.4749-6.6586 7.0504-7.0312 11.219-0.62212 6.9589 2.3019 11.079 4.5938 13.312-2.199-2.3026-4.5288-6.3235-3.9375-12.938 0.37265-4.1683 3.1832-8.1394 6.7188-10.614l60.125-35.354zm-59.562 63.081s-0.48812-0.20347-1.1875-0.65625z" fill="url(#h)" opacity=".5102"/><ellipse transform="matrix(.88588 .20503 -.18558 .97875 .6499 -2.7105)" cx="-442.3" cy="299.06" rx="7.7782" ry="10.076" color="#000000" enable-background="accumulate" fill="url(#g)"/></g></g></g></svg>
