<?xml version="1.0" encoding="UTF-8" standalone="no"?>
<svg
   xmlns:osb="http://www.openswatchbook.org/uri/2009/osb"
   xmlns:dc="http://purl.org/dc/elements/1.1/"
   xmlns:cc="http://creativecommons.org/ns#"
   xmlns:rdf="http://www.w3.org/1999/02/22-rdf-syntax-ns#"
   xmlns:svg="http://www.w3.org/2000/svg"
   xmlns="http://www.w3.org/2000/svg"
   xmlns:xlink="http://www.w3.org/1999/xlink"
   style="display:inline;enable-background:new"
   version="1.0"
   id="svg11300"
   height="256"
   width="256">
  <title
     id="title3004">Suru Icon Theme Template</title>
  <defs
     id="defs3">
    <clipPath
       id="clipPath9430"
       clipPathUnits="userSpaceOnUse">
      <path
         style="color:#000000;display:inline;overflow:visible;visibility:visible;fill:#ffffff;fill-opacity:1;fill-rule:nonzero;stroke:none;stroke-width:1;marker:none;enable-background:new"
         d="m 166.0625,-196 h 179.875 C 491.2348,-196 512,-175.28677 512,-30.125 v 148.25 C 512,263.28618 491.2348,284 345.9375,284 H 166.0625 C 20.7652,284 0,263.28618 0,118.125 V -30.125 C 0,-175.28677 20.7652,-196 166.0625,-196 Z"
         id="path9432" />
    </clipPath>
    <clipPath
       id="clipPath1082"
       clipPathUnits="userSpaceOnUse">
      <path
         style="display:inline;opacity:1;fill:#8c59d9;fill-opacity:1;stroke:none;stroke-width:2;stroke-linecap:round;stroke-linejoin:round;stroke-miterlimit:4;stroke-dasharray:none;stroke-dashoffset:0;stroke-opacity:1;enable-background:new"
         d="M 361.9375,-212 C 507.2348,-212 528,-191.28677 528,-46.125 V 70.125 C 528,215.28618 507.2348,236 361.9375,236 H 214.0625 C 68.7652,236 48,215.28618 48,70.125 V -46.125 C 48,-191.28677 68.7652,-212 214.0625,-212 Z"
         id="path1084" />
    </clipPath>
    <clipPath
       id="clipPath994"
       clipPathUnits="userSpaceOnUse">
      <path
         id="path996"
         d="m 335.73108,62 c -8.82418,0 -9.77365,0.90635 -9.7304,9.74838 V 84 96.25162 c -0.0433,8.84203 0.90622,9.74838 9.7304,9.74838 h 16.53919 c 8.82418,0 9.7304,-0.90625 9.7304,-9.74838 V 84 71.74838 C 362.00067,62.90625 361.09445,62 352.27027,62 Z"
         style="color:#000000;display:inline;overflow:visible;visibility:visible;fill:#cdcdcd;fill-opacity:1;fill-rule:nonzero;stroke:none;stroke-width:2;stroke-miterlimit:4;stroke-dasharray:none;stroke-opacity:1;marker:none;enable-background:accumulate" />
    </clipPath>
    <clipPath
       id="clipPath994-5"
       clipPathUnits="userSpaceOnUse">
      <path
         id="path996-3"
         d="m 335.73108,62 c -8.82418,0 -9.77365,0.90635 -9.7304,9.74838 V 84 96.25162 c -0.0433,8.84203 0.90622,9.74838 9.7304,9.74838 h 16.53919 c 8.82418,0 9.7304,-0.90625 9.7304,-9.74838 V 84 71.74838 C 362.00067,62.90625 361.09445,62 352.27027,62 Z"
         style="color:#000000;display:inline;overflow:visible;visibility:visible;fill:#cdcdcd;fill-opacity:1;fill-rule:nonzero;stroke:none;stroke-width:2;stroke-miterlimit:4;stroke-dasharray:none;stroke-opacity:1;marker:none;enable-background:accumulate" />
    </clipPath>
    <clipPath
       id="clipPath971"
       clipPathUnits="userSpaceOnUse">
      <path
         id="path973"
         d="m 327.8652,189 c -4.41209,0 -4.88682,0.45318 -4.8652,4.87419 V 200 206.12581 C 322.9783,210.54682 323.45311,211 327.8652,211 h 8.2696 C 340.54689,211 341,210.54688 341,206.12581 V 200 193.87419 C 341,189.45313 340.54688,189 336.13479,189 Z"
         style="color:#000000;display:inline;overflow:visible;visibility:visible;opacity:1;fill:#46a926;fill-opacity:1;fill-rule:nonzero;stroke:none;stroke-width:2;stroke-miterlimit:4;stroke-dasharray:none;stroke-opacity:1;marker:none;enable-background:accumulate" />
    </clipPath>
    <clipPath
       id="clipPath983"
       clipPathUnits="userSpaceOnUse">
      <path
         style="color:#000000;display:inline;overflow:visible;visibility:visible;opacity:1;fill:#46a926;fill-opacity:1;fill-rule:nonzero;stroke:none;stroke-width:2;stroke-miterlimit:4;stroke-dasharray:none;stroke-opacity:1;marker:none;enable-background:accumulate"
         d="m 325.09646,237 c -2.80769,0 -3.10979,0.28839 -3.09603,3.10176 V 244 v 3.89824 c -0.0138,2.81337 0.28834,3.10176 3.09603,3.10176 h 5.8075 C 333.71166,251 334,250.71165 334,247.89824 V 244 240.10176 C 334,237.28836 333.71165,237 330.90396,237 Z"
         id="path985" />
    </clipPath>
    <clipPath
       id="clipPath959"
       clipPathUnits="userSpaceOnUse">
      <path
         id="path961"
         d="m 330.1929,133.99999 c -5.61538,0 -6.21958,0.57678 -6.19206,6.20352 v 7.79648 7.79648 c -0.0276,5.62673 0.57668,6.20351 6.19206,6.20351 h 11.615 c 5.6154,0 6.19208,-0.5767 6.19208,-6.20351 v -7.79648 -7.79648 c 0,-5.6268 -0.5767,-6.20352 -6.19208,-6.20352 z"
         style="color:#000000;display:inline;overflow:visible;visibility:visible;opacity:1;fill:#46a926;fill-opacity:1;fill-rule:nonzero;stroke:none;stroke-width:2;stroke-miterlimit:4;stroke-dasharray:none;stroke-opacity:1;marker:none;enable-background:accumulate" />
    </clipPath>
    <filter
       height="1.048"
       y="-0.024"
       width="1.048"
       x="-0.024"
       id="filter945"
       style="color-interpolation-filters:sRGB">
      <feGaussianBlur
         id="feGaussianBlur947"
         stdDeviation="2.24" />
    </filter>
    <filter
       height="1.12"
       y="-0.059999999"
       width="1.12"
       x="-0.059999999"
       id="filter951"
       style="color-interpolation-filters:sRGB">
      <feGaussianBlur
         id="feGaussianBlur953"
         stdDeviation="5.6" />
    </filter>
    <linearGradient
       id="linearGradient3045">
      <stop
         style="stop-color:#847784;stop-opacity:0.99607843"
         offset="0"
         id="stop3047" />
      <stop
         style="stop-color:#695f69;stop-opacity:1"
         offset="1"
         id="stop3049" />
    </linearGradient>
    <linearGradient
       id="linearGradient4213">
      <stop
         id="stop4215"
         offset="0"
         style="stop-color:#b1d7f3;stop-opacity:1" />
      <stop
         id="stop4217"
         offset="1"
         style="stop-color:#8fafda;stop-opacity:1" />
    </linearGradient>
    <linearGradient
       id="linearGradient5460"
       osb:paint="gradient">
      <stop
         style="stop-color:#e6e6e6;stop-opacity:1"
         offset="0"
         id="stop5462" />
      <stop
         style="stop-color:#ffffff;stop-opacity:1"
         offset="1"
         id="stop5464" />
    </linearGradient>
    <linearGradient
       id="linearGradient5476"
       osb:paint="solid">
      <stop
         style="stop-color:#772953;stop-opacity:1;"
         offset="0"
         id="stop5478" />
    </linearGradient>
    <filter
       style="color-interpolation-filters:sRGB"
       id="filter4154">
      <feComposite
         id="feComposite4156"
         in2="SourceGraphic"
         k3="0"
         k2="1"
         k1="0"
         result="composite1"
         k4="0"
         operator="arithmetic" />
      <feColorMatrix
         id="feColorMatrix4158"
         type="saturate"
         values="0"
         result="colormatrix1"
         in="composite1" />
      <feFlood
         id="feFlood4160"
         result="flood1"
         flood-color="rgb(72,59,72)" />
      <feBlend
         id="feBlend4162"
         result="blend1"
         mode="multiply"
         in2="colormatrix1"
         in="flood1" />
      <feBlend
         id="feBlend4164"
         mode="screen"
         in2="blend1"
         result="blend2" />
      <feColorMatrix
         id="feColorMatrix4166"
         type="saturate"
         values="1"
         result="colormatrix2"
         in="blend2" />
      <feComposite
         id="feComposite4168"
         operator="in"
         result="composite2"
         in2="SourceGraphic"
         in="colormatrix2" />
    </filter>
    <clipPath
       clipPathUnits="userSpaceOnUse"
       id="clipPath3062">
      <rect
         style="color:#000000;display:inline;overflow:visible;visibility:visible;fill:url(#linearGradient3066);fill-opacity:1;fill-rule:nonzero;stroke:none;stroke-width:40;marker:none;enable-background:new"
         id="rect3064"
         width="475.66452"
         height="445.93549"
         x="34.167744"
         y="-194.96773" />
    </clipPath>
    <linearGradient
       xlink:href="#linearGradient3045"
       id="linearGradient3066"
       gradientUnits="userSpaceOnUse"
       gradientTransform="matrix(1.8580645,0,0,1.8736786,4.4387126,-288.65166)"
       x1="256"
       y1="50"
       x2="256"
       y2="288" />
  </defs>
  <metadata
     id="metadata4">
    <rdf:RDF>
      <cc:Work
         rdf:about="">
        <dc:format>image/svg+xml</dc:format>
        <dc:type
           rdf:resource="http://purl.org/dc/dcmitype/StillImage" />
        <dc:creator>
          <cc:Agent>
            <dc:title>Sam Hewitt</dc:title>
          </cc:Agent>
        </dc:creator>
        <dc:source />
        <cc:license
           rdf:resource="http://creativecommons.org/licenses/by-sa/4.0/" />
        <dc:title>Suru Icon Theme Template</dc:title>
        <dc:subject>
          <rdf:Bag />
        </dc:subject>
        <dc:date />
        <dc:rights>
          <cc:Agent>
            <dc:title />
          </cc:Agent>
        </dc:rights>
        <dc:publisher>
          <cc:Agent>
            <dc:title />
          </cc:Agent>
        </dc:publisher>
        <dc:identifier />
        <dc:relation />
        <dc:language />
        <dc:coverage />
        <dc:description />
        <dc:contributor>
          <cc:Agent>
            <dc:title />
          </cc:Agent>
        </dc:contributor>
      </cc:Work>
      <cc:Work
         rdf:about="">
        <dc:format>image/svg+xml</dc:format>
        <dc:type
           rdf:resource="http://purl.org/dc/dcmitype/StillImage" />
      </cc:Work>
      <cc:License
         rdf:about="http://creativecommons.org/licenses/by-sa/4.0/">
        <cc:permits
           rdf:resource="http://creativecommons.org/ns#Reproduction" />
        <cc:permits
           rdf:resource="http://creativecommons.org/ns#Distribution" />
        <cc:requires
           rdf:resource="http://creativecommons.org/ns#Notice" />
        <cc:requires
           rdf:resource="http://creativecommons.org/ns#Attribution" />
        <cc:permits
           rdf:resource="http://creativecommons.org/ns#DerivativeWorks" />
        <cc:requires
           rdf:resource="http://creativecommons.org/ns#ShareAlike" />
      </cc:License>
    </rdf:RDF>
  </metadata>
  <g
     transform="translate(-24,-28)"
     id="layer1"
     style="display:inline">
    <g
       id="layer7"
       style="display:none">
      <text
         id="context"
         style="font-style:normal;font-variant:normal;font-weight:normal;font-stretch:normal;line-height:0%;font-family:'DejaVu Sans';-inkscape-font-specification:'DejaVu Sans';display:inline;fill:#000000;fill-opacity:1;stroke:none;enable-background:new"
         x="19.006836"
         xml:space="preserve"
         y="-8.2548828"><tspan
           id="tspan3933"
           x="19.006836"
           y="-8.2548828"
           style="font-style:normal;font-variant:normal;font-weight:normal;font-stretch:normal;font-size:18px;line-height:1.25;font-family:'DejaVu Sans';-inkscape-font-specification:'DejaVu Sans'">emblems</tspan></text>
      <text
         id="icon-name"
         style="font-style:normal;font-variant:normal;font-weight:bold;font-stretch:normal;line-height:0%;font-family:'DejaVu Sans';-inkscape-font-specification:'DejaVu Sans Bold';text-align:start;writing-mode:lr-tb;text-anchor:start;display:inline;fill:#000000;fill-opacity:1;stroke:none;enable-background:new"
         x="146.48828"
         xml:space="preserve"
         y="-8.2548828"><tspan
           id="tspan924"
           x="146.48828"
           y="-8.2548828"
           style="font-style:normal;font-variant:normal;font-weight:bold;font-stretch:normal;font-size:18px;line-height:1.25;font-family:'DejaVu Sans';-inkscape-font-specification:'DejaVu Sans Bold'">emblem-danger</tspan></text>
      <rect
         y="236"
         x="320"
         height="16"
         width="16"
         id="rect16x16"
         style="display:inline;overflow:visible;visibility:visible;fill:#cdcdcd;fill-opacity:1;fill-rule:nonzero;stroke:none;stroke-width:2;marker:none;enable-background:accumulate" />
      <rect
         y="188"
         x="320"
         height="24"
         width="24"
         id="rect24x24"
         style="display:inline;overflow:visible;visibility:visible;fill:#cdcdcd;fill-opacity:1;fill-rule:nonzero;stroke:none;stroke-width:2;marker:none;enable-background:accumulate" />
      <rect
         y="132"
         x="320"
         height="32"
         width="32"
         id="rect32x32"
         style="display:inline;overflow:visible;visibility:visible;fill:#cdcdcd;fill-opacity:1;fill-rule:nonzero;stroke:none;stroke-width:2;marker:none;enable-background:accumulate" />
      <rect
         style="display:inline;overflow:visible;visibility:visible;fill:#cdcdcd;fill-opacity:1;fill-rule:nonzero;stroke:none;stroke-width:2;marker:none;enable-background:accumulate"
         id="rect48x48"
         width="48"
         height="48"
         x="320"
         y="60" />
      <rect
         y="28"
         x="24"
         height="256"
         width="256"
         id="rect3951"
         style="display:inline;overflow:visible;visibility:visible;fill:#cdcdcd;fill-opacity:1;fill-rule:nonzero;stroke:none;stroke-width:2;marker:none;enable-background:accumulate" />
      <rect
         style="display:inline;overflow:visible;visibility:visible;fill:#cdcdcd;fill-opacity:1;fill-rule:nonzero;stroke:none;stroke-width:1;marker:none;enable-background:accumulate"
         id="rect841"
         width="8"
         height="8"
         x="320"
         y="268" />
    </g>
    <g
       style="display:inline"
       id="layer2">
      <rect
         ry="7.5"
         rx="7.5"
         y="-336"
         x="-252"
         height="15"
         width="15"
         id="rect892"
         style="display:inline;opacity:0.2;fill:#000000;fill-opacity:1;stroke:none;stroke-width:1;stroke-opacity:0.25098039;enable-background:new"
         transform="matrix(0,-1,-1,0,0,0)" />
      <rect
         ry="21"
         rx="21"
         y="-365"
         x="-106"
         height="42"
         width="42"
         id="rect894"
         style="display:inline;opacity:0.2;fill:#000000;fill-opacity:1;stroke:none;stroke-width:1.02439022;stroke-miterlimit:4;stroke-dasharray:none;stroke-opacity:0.25098039;enable-background:new"
         transform="matrix(0,-1,-1,0,0,0)" />
      <rect
         transform="matrix(0,-1,-1,0,0,0)"
         style="display:inline;opacity:0.2;fill:#000000;fill-opacity:1;stroke:none;stroke-width:1.0476191;stroke-opacity:0.25098039;enable-background:new"
         id="rect896"
         width="22"
         height="22"
         x="-212"
         y="-343"
         rx="11"
         ry="11" />
      <rect
         ry="15"
         rx="15"
         y="-351"
         x="-164"
         height="30"
         width="30"
         id="rect876"
         style="display:inline;opacity:0.2;fill:#000000;fill-opacity:1;stroke:none;stroke-width:1.03448272;stroke-opacity:0.25098039;enable-background:new"
         transform="matrix(0,-1,-1,0,0,0)" />
      <rect
         ry="112"
         rx="112"
         y="-264"
         x="-270"
         height="224"
         width="224"
         id="rect949"
         style="display:inline;opacity:0.1;fill:#000000;fill-opacity:1;stroke:none;stroke-width:0.5;filter:url(#filter951);enable-background:new"
         transform="matrix(0,-1,-1,0,0,0)" />
      <rect
         transform="matrix(0,-1,-1,0,0,0)"
         style="display:inline;opacity:0.5;fill:#000000;fill-opacity:1;stroke:none;stroke-width:0.5;filter:url(#filter945);enable-background:new"
         id="rect939"
         width="224"
         height="224"
         x="-270"
         y="-264"
         rx="112"
         ry="112" />
      <rect
         transform="matrix(0,-1,-1,0,0,0)"
         style="display:inline;fill:#da1636;fill-opacity:1;stroke:none;stroke-width:1;stroke-opacity:0.25098039;enable-background:new"
         id="rect4414"
         width="15"
         height="15"
         x="-251"
         y="-336"
         rx="7.5"
         ry="7.5" />
      <rect
         ry="21"
         rx="21"
         y="-365"
         x="-106"
         height="42"
         width="42"
         id="rect917"
         style="display:inline;opacity:0.1;fill:#000000;fill-opacity:1;stroke:none;stroke-width:1.04999995;stroke-opacity:0.25098039;enable-background:new"
         transform="matrix(0,-1,-1,0,0,0)" />
      <rect
         transform="matrix(0,-1,-1,0,0,0)"
         style="display:inline;fill:#da1636;fill-opacity:1;stroke:none;stroke-width:1.02439022;stroke-miterlimit:4;stroke-dasharray:none;stroke-opacity:0.25098039;enable-background:new"
         id="rect4408"
         width="42"
         height="42"
         x="-105"
         y="-365"
         rx="21"
         ry="21" />
      <rect
         ry="11"
         rx="11"
         y="-343"
         x="-211"
         height="22"
         width="22"
         id="rect4410"
         style="display:inline;fill:#da1636;fill-opacity:1;stroke:none;stroke-width:1.0476191;stroke-opacity:0.25098039;enable-background:new"
         transform="matrix(0,-1,-1,0,0,0)" />
      <rect
         transform="matrix(0,-1,-1,0,0,0)"
         style="display:inline;fill:#da1636;fill-opacity:1;stroke:none;stroke-width:1.03448272;stroke-opacity:0.25098039;enable-background:new"
         id="rect4412"
         width="30"
         height="30"
         x="-163"
         y="-351"
         rx="15"
         ry="15" />
      <rect
         ry="112"
         rx="112"
         y="-264"
         x="-268"
         height="224"
         width="224"
         id="rect4418"
         style="display:inline;fill:#da1636;fill-opacity:1;stroke:none;stroke-width:0.5;enable-background:new"
         transform="matrix(0,-1,-1,0,0,0)" />
      <rect
         ry="1"
         rx="1"
         y="-328"
         x="-276"
         height="8"
         width="8"
         id="rect4420"
         style="display:inline;fill:#da1636;fill-opacity:1;stroke:none;stroke-width:1.14285719;stroke-opacity:0.25098039;enable-background:new"
         transform="matrix(0,-1,-1,0,0,0)" />
    </g>
    <g
       style="display:inline"
       id="layer6">
      <g
         id="text913"
         style="font-style:normal;font-weight:normal;font-size:203.96600342px;line-height:1000%;font-family:sans-serif;text-align:center;letter-spacing:0px;word-spacing:0px;text-anchor:middle;display:inline;fill:#ffffff;fill-opacity:1;stroke:none;stroke-width:5.09915018px;stroke-linecap:butt;stroke-linejoin:miter;stroke-opacity:1;enable-background:new"
         aria-label="!"
         transform="translate(0,-2e-6)">
        <path
           id="path939"
           style="font-style:normal;font-variant:normal;font-weight:300;font-stretch:normal;font-family:Ubuntu;-inkscape-font-specification:'Ubuntu Light';text-align:center;text-anchor:middle;fill:#ffffff;fill-opacity:1;stroke-width:5.09915018px"
           d="m 159.13404,123.36543 q 0,8.77054 -0.40793,16.52125 -0.20397,7.54674 -0.81586,14.68555 -0.6119,7.13881 -1.42777,13.86969 -0.61189,6.73088 -1.42776,13.46176 h -6.11898 q -1.83569,-13.66573 -3.05949,-27.33145 -1.01983,-13.66572 -1.01983,-31.2068 V 83.999994 h 14.27762 z m 4.07932,93.21247 q 0,4.69121 -3.05949,7.95467 -2.85552,3.26346 -8.15864,3.26346 -5.30311,0 -8.3626,-3.26346 -2.85553,-3.26346 -2.85553,-7.95467 0,-4.69122 2.85553,-7.95468 3.05949,-3.26345 8.3626,-3.26345 5.30312,0 8.15864,3.26345 3.05949,3.26346 3.05949,7.95468 z" />
      </g>
      <g
         id="text925"
         style="font-style:normal;font-weight:normal;font-size:39.71631241px;line-height:1000%;font-family:sans-serif;text-align:center;letter-spacing:0px;word-spacing:0px;text-anchor:middle;display:inline;fill:#ffffff;fill-opacity:1;stroke:none;stroke-width:0.99290776px;stroke-linecap:butt;stroke-linejoin:miter;stroke-opacity:1;enable-background:new"
         aria-label="!"
         transform="translate(0,-2e-6)">
        <path
           id="path947"
           style="font-style:normal;font-variant:normal;font-weight:normal;font-stretch:normal;font-family:Ubuntu;-inkscape-font-specification:Ubuntu;text-align:center;text-anchor:middle;fill:#ffffff;fill-opacity:1;stroke-width:0.99290776px"
           d="m 345.98675,77.466669 q 0,3.33617 -0.2383,6.076596 -0.2383,2.700709 -0.59575,5.401419 h -2.30354 q -0.35745,-2.70071 -0.59575,-5.401419 -0.23829,-2.740426 -0.23829,-6.076596 v -7.466667 h 3.97163 z m 0.67517,17.912057 q 0,1.072341 -0.71489,1.866667 -0.71489,0.794326 -1.9461,0.794326 -1.2312,0 -1.9461,-0.794326 -0.71489,-0.794326 -0.71489,-1.866667 0,-1.07234 0.71489,-1.866667 0.7149,-0.794326 1.9461,-0.794326 1.23121,0 1.9461,0.794326 0.71489,0.794327 0.71489,1.866667 z" />
      </g>
      <g
         id="text929"
         style="font-style:normal;font-weight:normal;font-size:25.49575043px;line-height:1000%;font-family:sans-serif;text-align:center;letter-spacing:0px;word-spacing:0px;text-anchor:middle;display:inline;fill:#ffffff;fill-opacity:1;stroke:none;stroke-width:0.63739383px;stroke-linecap:butt;stroke-linejoin:miter;stroke-opacity:1;enable-background:new"
         aria-label="!"
         transform="translate(1.5e-5,1e-5)">
        <path
           id="path951"
           style="font-style:normal;font-variant:normal;font-weight:normal;font-stretch:normal;font-family:Ubuntu;-inkscape-font-specification:Ubuntu;text-align:center;text-anchor:middle;fill:#ffffff;fill-opacity:1;stroke-width:0.63739383px"
           d="m 337.27477,143.79319 q 0,2.14165 -0.15297,3.90085 -0.15298,1.73372 -0.38244,3.46743 h -1.47875 q -0.22946,-1.73371 -0.38244,-3.46743 -0.15297,-1.7592 -0.15297,-3.90085 v -4.7932 h 2.54957 z m 0.43343,11.49859 q 0,0.68838 -0.45892,1.1983 -0.45893,0.50991 -1.24929,0.50991 -0.79037,0 -1.2493,-0.50991 -0.45892,-0.50992 -0.45892,-1.1983 0,-0.68839 0.45892,-1.1983 0.45893,-0.50992 1.2493,-0.50992 0.79036,0 1.24929,0.50992 0.45892,0.50991 0.45892,1.1983 z" />
      </g>
      <g
         id="text933"
         style="font-style:normal;font-weight:normal;font-size:16.99716759px;line-height:1000%;font-family:sans-serif;text-align:center;letter-spacing:0px;word-spacing:0px;text-anchor:middle;display:inline;fill:#ffffff;fill-opacity:1;stroke:none;stroke-width:0.42492923px;stroke-linecap:butt;stroke-linejoin:miter;stroke-opacity:1;enable-background:new"
         aria-label="!"
         transform="translate(1e-5)">
        <path
           id="path954"
           style="font-style:normal;font-variant:normal;font-weight:normal;font-stretch:normal;font-family:Ubuntu;-inkscape-font-specification:Ubuntu;text-align:center;text-anchor:middle;fill:#ffffff;fill-opacity:1;stroke-width:0.42492923px"
           d="m 332.84985,197.19547 q 0,1.42776 -0.10198,2.60056 -0.10199,1.15581 -0.25496,2.31162 h -0.98584 q -0.15297,-1.15581 -0.25495,-2.31162 -0.10199,-1.1728 -0.10199,-2.60056 V 194 h 1.69972 z m 0.28895,7.66572 q 0,0.45892 -0.30595,0.79887 Q 332.5269,206 331.99999,206 q -0.52691,0 -0.83286,-0.33994 -0.30595,-0.33995 -0.30595,-0.79887 0,-0.45892 0.30595,-0.79887 0.30595,-0.33994 0.83286,-0.33994 0.52691,0 0.83286,0.33994 0.30595,0.33995 0.30595,0.79887 z" />
      </g>
      <g
         id="text937"
         style="font-style:normal;font-weight:normal;font-size:12.74787521px;line-height:1000%;font-family:sans-serif;text-align:center;letter-spacing:0px;word-spacing:0px;text-anchor:middle;display:inline;fill:#ffffff;fill-opacity:1;stroke:none;stroke-width:0.31869692px;stroke-linecap:butt;stroke-linejoin:miter;stroke-opacity:1;enable-background:new"
         aria-label="!"
         transform="translate(0.49999)">
        <path
           id="path957"
           style="font-style:normal;font-variant:normal;font-weight:normal;font-stretch:normal;font-family:Ubuntu;-inkscape-font-specification:Ubuntu;text-align:center;text-anchor:middle;fill:#ffffff;fill-opacity:1;stroke-width:0.31869692px"
           d="m 328.6374,241.3966 q 0,1.07082 -0.0765,1.95042 -0.0765,0.86686 -0.19121,1.73371 h -0.73938 q -0.11473,-0.86685 -0.19122,-1.73371 -0.0765,-0.8796 -0.0765,-1.95042 V 239 h 1.27479 z m 0.21672,5.74929 q 0,0.34419 -0.22947,0.59915 Q 328.39519,248 328.00001,248 q -0.39519,0 -0.62465,-0.25496 -0.22946,-0.25496 -0.22946,-0.59915 0,-0.34419 0.22946,-0.59915 0.22946,-0.25496 0.62465,-0.25496 0.39518,0 0.62464,0.25496 0.22947,0.25496 0.22947,0.59915 z" />
      </g>
      <g
         id="text937-6"
         style="font-style:normal;font-weight:normal;font-size:12.74787521px;line-height:1000%;font-family:sans-serif;text-align:center;letter-spacing:0px;word-spacing:0px;text-anchor:middle;display:inline;fill:#ffffff;fill-opacity:1;stroke:none;stroke-width:0.31869692px;stroke-linecap:butt;stroke-linejoin:miter;stroke-opacity:1;enable-background:new"
         aria-label="!"
         transform="matrix(0.74978701,0,0,0.74978701,78.069853,89.426863)">
        <path
           id="path957-2"
           style="font-style:normal;font-variant:normal;font-weight:normal;font-stretch:normal;font-family:Ubuntu;-inkscape-font-specification:Ubuntu;text-align:center;text-anchor:middle;fill:#ffffff;fill-opacity:1;stroke-width:0.31869692px"
           d="m 328.6374,241.3966 q 0,1.07082 -0.0765,1.95042 -0.0765,0.86686 -0.19121,1.73371 h -0.73938 q -0.11473,-0.86685 -0.19122,-1.73371 -0.0765,-0.8796 -0.0765,-1.95042 V 239 h 1.27479 z m 0.21672,5.74929 q 0,0.34419 -0.22947,0.59915 Q 328.39519,248 328.00001,248 q -0.39519,0 -0.62465,-0.25496 -0.22946,-0.25496 -0.22946,-0.59915 0,-0.34419 0.22946,-0.59915 0.22946,-0.25496 0.62465,-0.25496 0.39518,0 0.62464,0.25496 0.22947,0.25496 0.22947,0.59915 z" />
      </g>
    </g>
  </g>
</svg>
