<?xml version="1.0" encoding="UTF-8" standalone="no"?>
<svg
   xmlns:osb="http://www.openswatchbook.org/uri/2009/osb"
   xmlns:dc="http://purl.org/dc/elements/1.1/"
   xmlns:cc="http://creativecommons.org/ns#"
   xmlns:rdf="http://www.w3.org/1999/02/22-rdf-syntax-ns#"
   xmlns:svg="http://www.w3.org/2000/svg"
   xmlns="http://www.w3.org/2000/svg"
   xmlns:xlink="http://www.w3.org/1999/xlink"
   style="display:inline;enable-background:new"
   version="1.0"
   id="svg11300"
   height="256"
   width="256">
  <title
     id="title3004">Suru Icon Theme Template</title>
  <defs
     id="defs3">
    <clipPath
       id="clipPath9430"
       clipPathUnits="userSpaceOnUse">
      <path
         style="color:#000000;display:inline;overflow:visible;visibility:visible;fill:#ffffff;fill-opacity:1;fill-rule:nonzero;stroke:none;stroke-width:1;marker:none;enable-background:new"
         d="m 166.0625,-196 h 179.875 C 491.2348,-196 512,-175.28677 512,-30.125 v 148.25 C 512,263.28618 491.2348,284 345.9375,284 H 166.0625 C 20.7652,284 0,263.28618 0,118.125 V -30.125 C 0,-175.28677 20.7652,-196 166.0625,-196 Z"
         id="path9432" />
    </clipPath>
    <clipPath
       id="clipPath1082"
       clipPathUnits="userSpaceOnUse">
      <path
         style="display:inline;opacity:1;fill:#8c59d9;fill-opacity:1;stroke:none;stroke-width:2;stroke-linecap:round;stroke-linejoin:round;stroke-miterlimit:4;stroke-dasharray:none;stroke-dashoffset:0;stroke-opacity:1;enable-background:new"
         d="M 361.9375,-212 C 507.2348,-212 528,-191.28677 528,-46.125 V 70.125 C 528,215.28618 507.2348,236 361.9375,236 H 214.0625 C 68.7652,236 48,215.28618 48,70.125 V -46.125 C 48,-191.28677 68.7652,-212 214.0625,-212 Z"
         id="path1084" />
    </clipPath>
    <clipPath
       id="clipPath994"
       clipPathUnits="userSpaceOnUse">
      <path
         id="path996"
         d="m 335.73108,62 c -8.82418,0 -9.77365,0.90635 -9.7304,9.74838 V 84 96.25162 c -0.0433,8.84203 0.90622,9.74838 9.7304,9.74838 h 16.53919 c 8.82418,0 9.7304,-0.90625 9.7304,-9.74838 V 84 71.74838 C 362.00067,62.90625 361.09445,62 352.27027,62 Z"
         style="color:#000000;display:inline;overflow:visible;visibility:visible;fill:#cdcdcd;fill-opacity:1;fill-rule:nonzero;stroke:none;stroke-width:2;stroke-miterlimit:4;stroke-dasharray:none;stroke-opacity:1;marker:none;enable-background:accumulate" />
    </clipPath>
    <clipPath
       id="clipPath994-5"
       clipPathUnits="userSpaceOnUse">
      <path
         id="path996-3"
         d="m 335.73108,62 c -8.82418,0 -9.77365,0.90635 -9.7304,9.74838 V 84 96.25162 c -0.0433,8.84203 0.90622,9.74838 9.7304,9.74838 h 16.53919 c 8.82418,0 9.7304,-0.90625 9.7304,-9.74838 V 84 71.74838 C 362.00067,62.90625 361.09445,62 352.27027,62 Z"
         style="color:#000000;display:inline;overflow:visible;visibility:visible;fill:#cdcdcd;fill-opacity:1;fill-rule:nonzero;stroke:none;stroke-width:2;stroke-miterlimit:4;stroke-dasharray:none;stroke-opacity:1;marker:none;enable-background:accumulate" />
    </clipPath>
    <clipPath
       id="clipPath971"
       clipPathUnits="userSpaceOnUse">
      <path
         id="path973"
         d="m 327.8652,189 c -4.41209,0 -4.88682,0.45318 -4.8652,4.87419 V 200 206.12581 C 322.9783,210.54682 323.45311,211 327.8652,211 h 8.2696 C 340.54689,211 341,210.54688 341,206.12581 V 200 193.87419 C 341,189.45313 340.54688,189 336.13479,189 Z"
         style="color:#000000;display:inline;overflow:visible;visibility:visible;opacity:1;fill:#46a926;fill-opacity:1;fill-rule:nonzero;stroke:none;stroke-width:2;stroke-miterlimit:4;stroke-dasharray:none;stroke-opacity:1;marker:none;enable-background:accumulate" />
    </clipPath>
    <clipPath
       id="clipPath983"
       clipPathUnits="userSpaceOnUse">
      <path
         style="color:#000000;display:inline;overflow:visible;visibility:visible;opacity:1;fill:#46a926;fill-opacity:1;fill-rule:nonzero;stroke:none;stroke-width:2;stroke-miterlimit:4;stroke-dasharray:none;stroke-opacity:1;marker:none;enable-background:accumulate"
         d="m 325.09646,237 c -2.80769,0 -3.10979,0.28839 -3.09603,3.10176 V 244 v 3.89824 c -0.0138,2.81337 0.28834,3.10176 3.09603,3.10176 h 5.8075 C 333.71166,251 334,250.71165 334,247.89824 V 244 240.10176 C 334,237.28836 333.71165,237 330.90396,237 Z"
         id="path985" />
    </clipPath>
    <clipPath
       id="clipPath959"
       clipPathUnits="userSpaceOnUse">
      <path
         id="path961"
         d="m 330.1929,133.99999 c -5.61538,0 -6.21958,0.57678 -6.19206,6.20352 v 7.79648 7.79648 c -0.0276,5.62673 0.57668,6.20351 6.19206,6.20351 h 11.615 c 5.6154,0 6.19208,-0.5767 6.19208,-6.20351 v -7.79648 -7.79648 c 0,-5.6268 -0.5767,-6.20352 -6.19208,-6.20352 z"
         style="color:#000000;display:inline;overflow:visible;visibility:visible;opacity:1;fill:#46a926;fill-opacity:1;fill-rule:nonzero;stroke:none;stroke-width:2;stroke-miterlimit:4;stroke-dasharray:none;stroke-opacity:1;marker:none;enable-background:accumulate" />
    </clipPath>
    <linearGradient
       id="linearGradient3045">
      <stop
         style="stop-color:#847784;stop-opacity:0.99607843"
         offset="0"
         id="stop3047" />
      <stop
         style="stop-color:#695f69;stop-opacity:1"
         offset="1"
         id="stop3049" />
    </linearGradient>
    <linearGradient
       id="linearGradient4213">
      <stop
         id="stop4215"
         offset="0"
         style="stop-color:#b1d7f3;stop-opacity:1" />
      <stop
         id="stop4217"
         offset="1"
         style="stop-color:#8fafda;stop-opacity:1" />
    </linearGradient>
    <linearGradient
       id="linearGradient5460"
       osb:paint="gradient">
      <stop
         style="stop-color:#e6e6e6;stop-opacity:1"
         offset="0"
         id="stop5462" />
      <stop
         style="stop-color:#ffffff;stop-opacity:1"
         offset="1"
         id="stop5464" />
    </linearGradient>
    <linearGradient
       id="linearGradient5476"
       osb:paint="solid">
      <stop
         style="stop-color:#772953;stop-opacity:1;"
         offset="0"
         id="stop5478" />
    </linearGradient>
    <filter
       style="color-interpolation-filters:sRGB"
       id="filter4154">
      <feComposite
         id="feComposite4156"
         in2="SourceGraphic"
         k3="0"
         k2="1"
         k1="0"
         result="composite1"
         k4="0"
         operator="arithmetic" />
      <feColorMatrix
         id="feColorMatrix4158"
         type="saturate"
         values="0"
         result="colormatrix1"
         in="composite1" />
      <feFlood
         id="feFlood4160"
         result="flood1"
         flood-color="rgb(72,59,72)" />
      <feBlend
         id="feBlend4162"
         result="blend1"
         mode="multiply"
         in2="colormatrix1"
         in="flood1" />
      <feBlend
         id="feBlend4164"
         mode="screen"
         in2="blend1"
         result="blend2" />
      <feColorMatrix
         id="feColorMatrix4166"
         type="saturate"
         values="1"
         result="colormatrix2"
         in="blend2" />
      <feComposite
         id="feComposite4168"
         operator="in"
         result="composite2"
         in2="SourceGraphic"
         in="colormatrix2" />
    </filter>
    <clipPath
       clipPathUnits="userSpaceOnUse"
       id="clipPath3062">
      <rect
         style="color:#000000;display:inline;overflow:visible;visibility:visible;fill:url(#linearGradient3066);fill-opacity:1;fill-rule:nonzero;stroke:none;stroke-width:40;marker:none;enable-background:new"
         id="rect3064"
         width="475.66452"
         height="445.93549"
         x="34.167744"
         y="-194.96773" />
    </clipPath>
    <linearGradient
       xlink:href="#linearGradient3045"
       id="linearGradient3066"
       gradientUnits="userSpaceOnUse"
       gradientTransform="matrix(1.8580645,0,0,1.8736786,4.4387126,-288.65166)"
       x1="256"
       y1="50"
       x2="256"
       y2="288" />
    <linearGradient
       y2="207.36522"
       x2="35.310345"
       y1="419.23337"
       x1="459.03448"
       gradientTransform="matrix(0,-0.07208805,0.07208601,0,312.87045,165.81816)"
       gradientUnits="userSpaceOnUse"
       id="linearGradient924"
       xlink:href="#linearGradient4338" />
    <linearGradient
       id="linearGradient4338">
      <stop
         id="stop4340"
         offset="0"
         style="stop-color:#f2f2f2;stop-opacity:1" />
      <stop
         id="stop4342"
         offset="1"
         style="stop-color:#f9f9f9;stop-opacity:1" />
    </linearGradient>
    <linearGradient
       y2="207.36522"
       x2="35.310345"
       y1="419.23337"
       x1="459.03448"
       gradientTransform="matrix(0,-0.03604403,0.03604301,0,316.43523,252.90909)"
       gradientUnits="userSpaceOnUse"
       id="linearGradient920"
       xlink:href="#linearGradient4338" />
    <linearGradient
       y2="207.36522"
       x2="35.310345"
       y1="419.23337"
       x1="459.03448"
       gradientTransform="matrix(0,-0.05664062,0.05663901,0,314.2547,214)"
       gradientUnits="userSpaceOnUse"
       id="linearGradient916"
       xlink:href="#linearGradient4338" />
    <linearGradient
       gradientTransform="matrix(0,-0.453125,0.45311204,0,26.012405,268)"
       xlink:href="#linearGradient4338"
       id="linearGradient4226"
       x1="529.65515"
       y1="401.58368"
       x2="-35.310345"
       y2="119.09284"
       gradientUnits="userSpaceOnUse" />
    <linearGradient
       y2="207.36522"
       x2="35.310345"
       y1="419.23337"
       x1="459.03448"
       gradientTransform="matrix(0,-0.11328125,0.11327801,0,308.51008,112)"
       gradientUnits="userSpaceOnUse"
       id="linearGradient1024"
       xlink:href="#linearGradient4338" />
  </defs>
  <metadata
     id="metadata4">
    <rdf:RDF>
      <cc:Work
         rdf:about="">
        <dc:format>image/svg+xml</dc:format>
        <dc:type
           rdf:resource="http://purl.org/dc/dcmitype/StillImage" />
        <dc:creator>
          <cc:Agent>
            <dc:title>Sam Hewitt</dc:title>
          </cc:Agent>
        </dc:creator>
        <dc:source />
        <cc:license
           rdf:resource="http://creativecommons.org/licenses/by-sa/4.0/" />
        <dc:title>Suru Icon Theme Template</dc:title>
        <dc:subject>
          <rdf:Bag />
        </dc:subject>
        <dc:date />
        <dc:rights>
          <cc:Agent>
            <dc:title />
          </cc:Agent>
        </dc:rights>
        <dc:publisher>
          <cc:Agent>
            <dc:title />
          </cc:Agent>
        </dc:publisher>
        <dc:identifier />
        <dc:relation />
        <dc:language />
        <dc:coverage />
        <dc:description />
        <dc:contributor>
          <cc:Agent>
            <dc:title />
          </cc:Agent>
        </dc:contributor>
      </cc:Work>
      <cc:Work
         rdf:about="">
        <dc:format>image/svg+xml</dc:format>
        <dc:type
           rdf:resource="http://purl.org/dc/dcmitype/StillImage" />
      </cc:Work>
      <cc:License
         rdf:about="http://creativecommons.org/licenses/by-sa/4.0/">
        <cc:permits
           rdf:resource="http://creativecommons.org/ns#Reproduction" />
        <cc:permits
           rdf:resource="http://creativecommons.org/ns#Distribution" />
        <cc:requires
           rdf:resource="http://creativecommons.org/ns#Notice" />
        <cc:requires
           rdf:resource="http://creativecommons.org/ns#Attribution" />
        <cc:permits
           rdf:resource="http://creativecommons.org/ns#DerivativeWorks" />
        <cc:requires
           rdf:resource="http://creativecommons.org/ns#ShareAlike" />
      </cc:License>
    </rdf:RDF>
  </metadata>
  <g
     transform="translate(-24,-28)"
     id="layer1"
     style="display:inline">
    <g
       id="layer7"
       style="display:none">
      <text
         id="context"
         style="font-style:normal;font-variant:normal;font-weight:normal;font-stretch:normal;line-height:0%;font-family:'DejaVu Sans';-inkscape-font-specification:'DejaVu Sans';display:inline;fill:#000000;fill-opacity:1;stroke:none;enable-background:new"
         x="19.006836"
         xml:space="preserve"
         y="-8.2548828"><tspan
           id="tspan3933"
           x="19.006836"
           y="-8.2548828"
           style="font-style:normal;font-variant:normal;font-weight:normal;font-stretch:normal;font-size:18px;line-height:1.25;font-family:'DejaVu Sans';-inkscape-font-specification:'DejaVu Sans'">emblems</tspan></text>
      <text
         id="icon-name"
         style="font-style:normal;font-variant:normal;font-weight:bold;font-stretch:normal;line-height:0%;font-family:'DejaVu Sans';-inkscape-font-specification:'DejaVu Sans Bold';text-align:start;writing-mode:lr-tb;text-anchor:start;display:inline;fill:#000000;fill-opacity:1;stroke:none;enable-background:new"
         x="146.48828"
         xml:space="preserve"
         y="-8.2548828"><tspan
           id="tspan924"
           x="146.48828"
           y="-8.2548828"
           style="font-style:normal;font-variant:normal;font-weight:bold;font-stretch:normal;font-size:18px;line-height:1.25;font-family:'DejaVu Sans';-inkscape-font-specification:'DejaVu Sans Bold'">emblem-documents</tspan></text>
      <rect
         y="236"
         x="320"
         height="16"
         width="16"
         id="rect16x16"
         style="display:inline;overflow:visible;visibility:visible;fill:#cdcdcd;fill-opacity:1;fill-rule:nonzero;stroke:none;stroke-width:2;marker:none;enable-background:accumulate" />
      <rect
         y="188"
         x="320"
         height="24"
         width="24"
         id="rect24x24"
         style="display:inline;overflow:visible;visibility:visible;fill:#cdcdcd;fill-opacity:1;fill-rule:nonzero;stroke:none;stroke-width:2;marker:none;enable-background:accumulate" />
      <rect
         y="132"
         x="320"
         height="32"
         width="32"
         id="rect32x32"
         style="display:inline;overflow:visible;visibility:visible;fill:#cdcdcd;fill-opacity:1;fill-rule:nonzero;stroke:none;stroke-width:2;marker:none;enable-background:accumulate" />
      <rect
         style="display:inline;overflow:visible;visibility:visible;fill:#cdcdcd;fill-opacity:1;fill-rule:nonzero;stroke:none;stroke-width:2;marker:none;enable-background:accumulate"
         id="rect48x48"
         width="48"
         height="48"
         x="320"
         y="60" />
      <rect
         y="28"
         x="24"
         height="256"
         width="256"
         id="rect3951"
         style="display:inline;overflow:visible;visibility:visible;fill:#cdcdcd;fill-opacity:1;fill-rule:nonzero;stroke:none;stroke-width:2;marker:none;enable-background:accumulate" />
      <rect
         style="display:inline;overflow:visible;visibility:visible;fill:#cdcdcd;fill-opacity:1;fill-rule:nonzero;stroke:none;stroke-width:1;marker:none;enable-background:accumulate"
         id="rect841"
         width="8"
         height="8"
         x="320"
         y="268" />
    </g>
    <g
       style="display:inline;opacity:0.2"
       id="layer3">
      <path
         id="path964"
         d="m 335.71846,62.999893 c -8.82418,0 -9.77365,0.90635 -9.7304,9.74838 v 12.25162 12.25162 c -0.0433,8.842027 0.90622,9.748377 9.7304,9.748377 h 16.53919 c 8.82418,0 9.7304,-0.90625 9.7304,-9.748377 v -12.25162 -12.25162 c 0,-8.84213 -0.90622,-9.74838 -9.7304,-9.74838 z"
         style="color:#000000;display:inline;overflow:visible;visibility:visible;fill:#000000;fill-opacity:1;fill-rule:nonzero;stroke:none;stroke-width:1;marker:none;enable-background:accumulate" />
      <path
         id="rect4158"
         d="m 102.89643,45.999022 c -35.296733,0 -39.09462,3.625418 -38.92163,38.99353 v 73.006458 73.00647 c -0.17299,35.36812 3.624897,38.99353 38.92163,38.99353 h 98.15676 c 35.29672,0 38.92162,-3.625 38.92162,-38.99353 V 157.99901 84.992552 c 0,-35.368533 -3.6249,-38.99353 -38.92162,-38.99353 z"
         style="color:#000000;display:inline;overflow:visible;visibility:visible;fill:#000000;fill-opacity:1;fill-rule:nonzero;stroke:none;stroke-width:1;marker:none;enable-background:accumulate" />
      <path
         id="path931"
         d="M 102.92188,44 C 67.625152,44 63.82701,47.626029 64,82.994141 v 2 C 63.82701,49.626029 67.625152,46 102.92188,46 h 98.15624 C 236.37485,46 240,49.625608 240,84.994141 v -2 C 240,47.625608 236.37485,44 201.07812,44 Z"
         style="color:#000000;display:inline;overflow:visible;visibility:visible;opacity:0.6;fill:#ffffff;fill-opacity:1;fill-rule:nonzero;stroke:none;stroke-width:1;marker:none;enable-background:accumulate" />
      <path
         style="color:#000000;display:inline;overflow:visible;visibility:visible;fill:#000000;fill-opacity:1;fill-rule:nonzero;stroke:none;stroke-width:1;marker:none;enable-background:accumulate"
         d="m 327.8652,212.01294 c -4.41209,0 -4.88682,-0.45318 -4.8652,-4.87419 v -6.12581 -6.12581 c -0.0217,-4.42101 0.45311,-4.87419 4.8652,-4.87419 h 8.2696 c 4.41209,0 4.8652,0.45312 4.8652,4.87419 v 6.12581 6.12581 c 0,4.42106 -0.45312,4.87419 -4.86521,4.87419 z"
         id="path914" />
      <path
         id="path918"
         d="m 325.09646,237.99418 c -2.80769,0 -3.10979,0.28839 -3.09603,3.10176 v 3.89824 3.89824 c -0.0138,2.81337 0.28834,3.10176 3.09603,3.10176 h 5.8075 c 2.8077,0 3.09604,-0.28835 3.09604,-3.10176 v -3.89824 -3.89824 c 0,-2.8134 -0.28835,-3.10176 -3.09604,-3.10176 z"
         style="color:#000000;display:inline;overflow:visible;visibility:visible;fill:#000000;fill-opacity:1;fill-rule:nonzero;stroke:none;stroke-width:1;marker:none;enable-background:accumulate" />
      <path
         style="color:#000000;display:inline;overflow:visible;visibility:visible;fill:#000000;fill-opacity:1;fill-rule:nonzero;stroke:none;stroke-width:0.99999994;marker:none;enable-background:accumulate"
         d="m 330.20616,135.00805 c -5.61538,0 -6.21958,0.57678 -6.19206,6.20352 v 7.79648 7.79648 c -0.0276,5.62673 0.57668,6.20351 6.19206,6.20351 h 11.615 c 5.6154,0 6.19208,-0.5767 6.19208,-6.20351 v -7.79648 -7.79648 c 0,-5.6268 -0.5767,-6.20352 -6.19208,-6.20352 z"
         id="path922" />
      <rect
         ry="1"
         rx="1"
         y="-328"
         x="-276"
         height="8"
         width="8"
         id="rect4420-2"
         style="display:inline;fill:#ffffff;fill-opacity:1;stroke:none;stroke-width:1.14285719;stroke-opacity:0.25098039;enable-background:new"
         transform="matrix(0,-1,-1,0,0,0)" />
    </g>
    <g
       id="g123"
       style="display:inline">
      <path
         style="color:#000000;display:inline;overflow:visible;visibility:visible;fill:url(#linearGradient1024);fill-opacity:1;fill-rule:nonzero;stroke:none;stroke-width:1;marker:none;enable-background:accumulate"
         d="m 335.73108,62 c -8.82418,0 -9.77365,0.90635 -9.7304,9.74838 V 84 96.25162 c -0.0433,8.84203 0.90622,9.74838 9.7304,9.74838 h 16.53919 c 8.82418,0 9.7304,-0.90625 9.7304,-9.74838 V 84 71.74838 C 362.00067,62.90625 361.09445,62 352.27027,62 Z"
         id="path109" />
      <path
         style="color:#000000;display:inline;overflow:visible;visibility:visible;fill:url(#linearGradient4226);fill-opacity:1;fill-rule:nonzero;stroke:none;stroke-width:1;marker:none;enable-background:accumulate"
         d="M 102.89643,44 C 67.599702,44 63.801815,47.625418 63.974805,82.99353 V 156 229.00647 C 63.801815,264.37459 67.599702,268 102.89643,268 h 98.15676 c 35.29672,0 38.92162,-3.625 38.92162,-38.99353 V 156 82.99353 C 239.97481,47.624997 236.34991,44 201.05319,44 Z"
         id="path111" />
      <path
         style="color:#000000;display:inline;overflow:visible;visibility:visible;opacity:0.6;fill:#ffffff;fill-opacity:1;fill-rule:nonzero;stroke:none;stroke-width:1;marker:none;enable-background:accumulate"
         d="M 102.92188,44 C 67.625152,44 63.82701,47.626029 64,82.994141 v 2 C 63.82701,49.626029 67.625152,46 102.92188,46 h 98.15624 C 236.37485,46 240,49.625608 240,84.994141 v -2 C 240,47.625608 236.37485,44 201.07812,44 Z"
         id="path113" />
      <path
         id="path115"
         d="m 327.8652,189 c -4.41209,0 -4.88682,0.45318 -4.8652,4.87419 V 200 206.12581 C 322.9783,210.54682 323.45311,211 327.8652,211 h 8.2696 C 340.54689,211 341,210.54688 341,206.12581 V 200 193.87419 C 341,189.45313 340.54688,189 336.13479,189 Z"
         style="color:#000000;display:inline;overflow:visible;visibility:visible;fill:url(#linearGradient916);fill-opacity:1;fill-rule:nonzero;stroke:none;stroke-width:1;marker:none;enable-background:accumulate" />
      <path
         style="color:#000000;display:inline;overflow:visible;visibility:visible;fill:url(#linearGradient920);fill-opacity:1;fill-rule:nonzero;stroke:none;stroke-width:1;marker:none;enable-background:accumulate"
         d="m 325.09646,237 c -2.80769,0 -3.10979,0.28839 -3.09603,3.10176 V 244 v 3.89824 c -0.0138,2.81337 0.28834,3.10176 3.09603,3.10176 h 5.8075 C 333.71166,251 334,250.71165 334,247.89824 V 244 240.10176 C 334,237.28836 333.71165,237 330.90396,237 Z"
         id="path117" />
      <path
         id="path119"
         d="m 330.1929,133.99999 c -5.61538,0 -6.21958,0.57678 -6.19206,6.20352 v 7.79648 7.79648 c -0.0276,5.62673 0.57668,6.20351 6.19206,6.20351 h 11.615 c 5.6154,0 6.19208,-0.5767 6.19208,-6.20351 v -7.79648 -7.79648 c 0,-5.6268 -0.5767,-6.20352 -6.19208,-6.20352 z"
         style="color:#000000;display:inline;overflow:visible;visibility:visible;fill:url(#linearGradient924);fill-opacity:1;fill-rule:nonzero;stroke:none;stroke-width:0.99999994;marker:none;enable-background:accumulate" />
      <rect
         transform="matrix(0,-1,-1,0,0,0)"
         style="display:inline;fill:#ffffff;fill-opacity:1;stroke:none;stroke-width:1.14285719;stroke-opacity:0.25098039;enable-background:new"
         id="rect121"
         width="8"
         height="8"
         x="-276"
         y="-328"
         rx="1"
         ry="1" />
    </g>
    <g
       id="layer4">
      <path
         style="display:inline;opacity:1;fill:#999999;fill-opacity:1;stroke:none;stroke-width:2;stroke-linecap:square;stroke-linejoin:round;stroke-miterlimit:4;stroke-dasharray:none;stroke-dashoffset:0;stroke-opacity:1;enable-background:new"
         d="m 96,160 h 112 v 4 H 96 Z"
         id="path1147" />
      <path
         id="path1157"
         d="m 96,172 h 112 v 4 H 96 Z"
         style="display:inline;opacity:1;fill:#999999;fill-opacity:1;stroke:none;stroke-width:2;stroke-linecap:square;stroke-linejoin:round;stroke-miterlimit:4;stroke-dasharray:none;stroke-dashoffset:0;stroke-opacity:1;enable-background:new" />
      <path
         style="display:inline;opacity:1;fill:#999999;fill-opacity:1;stroke:none;stroke-width:2;stroke-linecap:square;stroke-linejoin:round;stroke-miterlimit:4;stroke-dasharray:none;stroke-dashoffset:0;stroke-opacity:1;enable-background:new"
         d="m 96,184 h 112 v 4 H 96 Z"
         id="path1159" />
      <path
         id="path1161"
         d="m 96,196 h 56 v 4 H 96 Z"
         style="display:inline;opacity:1;fill:#999999;fill-opacity:1;stroke:none;stroke-width:2;stroke-linecap:square;stroke-linejoin:round;stroke-miterlimit:4;stroke-dasharray:none;stroke-dashoffset:0;stroke-opacity:1;enable-background:new" />
      <path
         style="display:inline;opacity:1;fill:#999999;fill-opacity:1;stroke:none;stroke-width:2;stroke-linecap:square;stroke-linejoin:round;stroke-miterlimit:4;stroke-dasharray:none;stroke-dashoffset:0;stroke-opacity:1;enable-background:new"
         d="m 326,195 h 12 v 1 h -12 z"
         id="path1052" />
      <path
         style="display:inline;opacity:1;fill:#999999;fill-opacity:1;stroke:none;stroke-width:2;stroke-linecap:square;stroke-linejoin:round;stroke-miterlimit:4;stroke-dasharray:none;stroke-dashoffset:0;stroke-opacity:1;enable-background:new"
         d="m 326,198 h 12 v 1 h -12 z"
         id="path1054" />
      <path
         style="display:inline;opacity:1;fill:#999999;fill-opacity:1;stroke:none;stroke-width:2;stroke-linecap:square;stroke-linejoin:round;stroke-miterlimit:4;stroke-dasharray:none;stroke-dashoffset:0;stroke-opacity:1;enable-background:new"
         d="m 326,201 h 12 v 1 h -12 z"
         id="path1056" />
      <path
         style="display:inline;opacity:1;fill:#999999;fill-opacity:1;stroke:none;stroke-width:2;stroke-linecap:square;stroke-linejoin:round;stroke-miterlimit:4;stroke-dasharray:none;stroke-dashoffset:0;stroke-opacity:1;enable-background:new"
         d="m 326,204 h 6 v 1 h -6 z"
         id="path1058" />
      <path
         id="path1078"
         d="m 324,241 h 8 v 1 h -8 z"
         style="display:inline;opacity:1;fill:#999999;fill-opacity:1;stroke:none;stroke-width:2;stroke-linecap:square;stroke-linejoin:round;stroke-miterlimit:4;stroke-dasharray:none;stroke-dashoffset:0;stroke-opacity:1;enable-background:new" />
      <path
         id="path1080"
         d="m 324,243 h 8 v 1 h -8 z"
         style="display:inline;opacity:1;fill:#999999;fill-opacity:1;stroke:none;stroke-width:2;stroke-linecap:square;stroke-linejoin:round;stroke-miterlimit:4;stroke-dasharray:none;stroke-dashoffset:0;stroke-opacity:1;enable-background:new" />
      <path
         id="path1082"
         d="m 324,245 h 4 v 1 h -4 z"
         style="display:inline;opacity:1;fill:#999999;fill-opacity:1;stroke:none;stroke-width:2;stroke-linecap:square;stroke-linejoin:round;stroke-miterlimit:4;stroke-dasharray:none;stroke-dashoffset:0;stroke-opacity:1;enable-background:new" />
      <path
         id="path938"
         d="m 96,124 h 112 v 4 H 96 Z"
         style="display:inline;opacity:1;fill:#999999;fill-opacity:1;stroke:none;stroke-width:2;stroke-linecap:square;stroke-linejoin:round;stroke-miterlimit:4;stroke-dasharray:none;stroke-dashoffset:0;stroke-opacity:1;enable-background:new" />
      <path
         style="display:inline;opacity:1;fill:#999999;fill-opacity:1;stroke:none;stroke-width:2;stroke-linecap:square;stroke-linejoin:round;stroke-miterlimit:4;stroke-dasharray:none;stroke-dashoffset:0;stroke-opacity:1;enable-background:new"
         d="m 96,136 h 112 v 4 H 96 Z"
         id="path940" />
      <path
         id="path942"
         d="m 96,148 h 112 v 4 H 96 Z"
         style="display:inline;opacity:1;fill:#999999;fill-opacity:1;stroke:none;stroke-width:2;stroke-linecap:square;stroke-linejoin:round;stroke-miterlimit:4;stroke-dasharray:none;stroke-dashoffset:0;stroke-opacity:1;enable-background:new" />
      <path
         style="display:inline;opacity:1;fill:#999999;fill-opacity:1;stroke:none;stroke-width:2;stroke-linecap:square;stroke-linejoin:round;stroke-miterlimit:4;stroke-dasharray:none;stroke-dashoffset:0;stroke-opacity:1;enable-background:new"
         d="m 96,112 h 112 v 4 H 96 Z"
         id="path950" />
      <g
         style="display:inline;fill:#999999;fill-opacity:1;enable-background:new"
         id="g1000">
        <path
           style="opacity:1;fill:#999999;fill-opacity:1;stroke:none;stroke-width:2;stroke-linecap:square;stroke-linejoin:round;stroke-miterlimit:4;stroke-dasharray:none;stroke-dashoffset:0;stroke-opacity:1"
           d="m 332,84 h 24 v 1 h -24 z"
           id="rect1105" />
        <path
           style="opacity:1;fill:#999999;fill-opacity:1;stroke:none;stroke-width:2;stroke-linecap:square;stroke-linejoin:round;stroke-miterlimit:4;stroke-dasharray:none;stroke-dashoffset:0;stroke-opacity:1"
           d="m 332,87 h 24 v 1 h -24 z"
           id="rect1107" />
        <path
           style="opacity:1;fill:#999999;fill-opacity:1;stroke:none;stroke-width:2;stroke-linecap:square;stroke-linejoin:round;stroke-miterlimit:4;stroke-dasharray:none;stroke-dashoffset:0;stroke-opacity:1"
           d="m 332,90 h 24 v 1 h -24 z"
           id="rect1109" />
        <path
           style="opacity:1;fill:#999999;fill-opacity:1;stroke:none;stroke-width:2;stroke-linecap:square;stroke-linejoin:round;stroke-miterlimit:4;stroke-dasharray:none;stroke-dashoffset:0;stroke-opacity:1"
           d="m 332,93 h 12 v 1 h -12 z"
           id="rect1134" />
        <path
           id="path967"
           d="m 332,75 h 24 v 1 h -24 z"
           style="opacity:1;fill:#999999;fill-opacity:1;stroke:none;stroke-width:2;stroke-linecap:square;stroke-linejoin:round;stroke-miterlimit:4;stroke-dasharray:none;stroke-dashoffset:0;stroke-opacity:1" />
        <path
           id="path969"
           d="m 332,78 h 24 v 1 h -24 z"
           style="opacity:1;fill:#999999;fill-opacity:1;stroke:none;stroke-width:2;stroke-linecap:square;stroke-linejoin:round;stroke-miterlimit:4;stroke-dasharray:none;stroke-dashoffset:0;stroke-opacity:1" />
        <path
           id="path971"
           d="m 332,81 h 24 v 1 h -24 z"
           style="opacity:1;fill:#999999;fill-opacity:1;stroke:none;stroke-width:2;stroke-linecap:square;stroke-linejoin:round;stroke-miterlimit:4;stroke-dasharray:none;stroke-dashoffset:0;stroke-opacity:1" />
      </g>
      <g
         style="display:inline;fill:#999999;fill-opacity:1;enable-background:new"
         transform="translate(0,1)"
         id="g1038">
        <path
           id="path1002"
           d="m 328,146 h 16 v 0.5 h -16 z"
           style="opacity:1;fill:#999999;fill-opacity:1;stroke:none;stroke-width:2;stroke-linecap:square;stroke-linejoin:round;stroke-miterlimit:4;stroke-dasharray:none;stroke-dashoffset:0;stroke-opacity:1" />
        <path
           id="path1004"
           d="m 328,148 h 16 v 0.5 h -16 z"
           style="opacity:1;fill:#999999;fill-opacity:1;stroke:none;stroke-width:2;stroke-linecap:square;stroke-linejoin:round;stroke-miterlimit:4;stroke-dasharray:none;stroke-dashoffset:0;stroke-opacity:1" />
        <path
           id="path1008"
           d="m 328,152 h 16 v 0.5 h -16 z"
           style="opacity:1;fill:#999999;fill-opacity:1;stroke:none;stroke-width:2;stroke-linecap:square;stroke-linejoin:round;stroke-miterlimit:4;stroke-dasharray:none;stroke-dashoffset:0;stroke-opacity:1" />
        <path
           id="path1010"
           d="m 328,154 h 8 v 0.5 h -8 z"
           style="opacity:1;fill:#999999;fill-opacity:1;stroke:none;stroke-width:2;stroke-linecap:square;stroke-linejoin:round;stroke-miterlimit:4;stroke-dasharray:none;stroke-dashoffset:0;stroke-opacity:1" />
        <path
           style="opacity:1;fill:#999999;fill-opacity:1;stroke:none;stroke-width:2;stroke-linecap:square;stroke-linejoin:round;stroke-miterlimit:4;stroke-dasharray:none;stroke-dashoffset:0;stroke-opacity:1"
           d="m 328,140 h 16 v 0.5 h -16 z"
           id="path1012" />
        <path
           style="opacity:1;fill:#999999;fill-opacity:1;stroke:none;stroke-width:2;stroke-linecap:square;stroke-linejoin:round;stroke-miterlimit:4;stroke-dasharray:none;stroke-dashoffset:0;stroke-opacity:1"
           d="m 328,142 h 16 v 0.5 h -16 z"
           id="path1015" />
        <path
           style="opacity:1;fill:#999999;fill-opacity:1;stroke:none;stroke-width:2;stroke-linecap:square;stroke-linejoin:round;stroke-miterlimit:4;stroke-dasharray:none;stroke-dashoffset:0;stroke-opacity:1"
           d="m 328,144 h 16 v 0.5 h -16 z"
           id="path1017" />
        <path
           style="opacity:1;fill:#999999;fill-opacity:1;stroke:none;stroke-width:2;stroke-linecap:square;stroke-linejoin:round;stroke-miterlimit:4;stroke-dasharray:none;stroke-dashoffset:0;stroke-opacity:1"
           d="m 328,150 h 16 v 0.5 h -16 z"
           id="path1028" />
      </g>
      <path
         id="path1080-5"
         d="m 321,271 h 6 v 1 h -6 z"
         style="display:inline;opacity:1;fill:#999999;fill-opacity:1;stroke:none;stroke-width:1.73205161;stroke-linecap:square;stroke-linejoin:round;stroke-miterlimit:4;stroke-dasharray:none;stroke-dashoffset:0;stroke-opacity:1;enable-background:new" />
      <path
         id="path1082-6"
         d="m 321,273 h 4 v 1 h -4 z"
         style="display:inline;opacity:1;fill:#999999;fill-opacity:1;stroke:none;stroke-width:2;stroke-linecap:square;stroke-linejoin:round;stroke-miterlimit:4;stroke-dasharray:none;stroke-dashoffset:0;stroke-opacity:1;enable-background:new" />
      <path
         id="path1080-5-9"
         d="m 321,269 h 6 v 1 h -6 z"
         style="display:inline;opacity:1;fill:#999999;fill-opacity:1;stroke:none;stroke-width:1.73205161;stroke-linecap:square;stroke-linejoin:round;stroke-miterlimit:4;stroke-dasharray:none;stroke-dashoffset:0;stroke-opacity:1;enable-background:new" />
    </g>
  </g>
</svg>
