<?xml version="1.0" encoding="UTF-8" standalone="no"?>
<!-- Created with Inkscape (http://www.inkscape.org/) -->

<svg
   xmlns:dc="http://purl.org/dc/elements/1.1/"
   xmlns:cc="http://creativecommons.org/ns#"
   xmlns:rdf="http://www.w3.org/1999/02/22-rdf-syntax-ns#"
   xmlns:svg="http://www.w3.org/2000/svg"
   xmlns="http://www.w3.org/2000/svg"
   xmlns:sodipodi="http://sodipodi.sourceforge.net/DTD/sodipodi-0.dtd"
   xmlns:inkscape="http://www.inkscape.org/namespaces/inkscape"
   id="svg2910"
   height="22"
   width="22"
   version="1.1"
   inkscape:version="0.48.4 r9939"
   sodipodi:docname="distributor-logo.svg">
  <defs
     id="defs9" />
  <sodipodi:namedview
     pagecolor="#ffffff"
     bordercolor="#666666"
     borderopacity="1"
     objecttolerance="10"
     gridtolerance="10"
     guidetolerance="10"
     inkscape:pageopacity="0"
     inkscape:pageshadow="2"
     inkscape:window-width="1855"
     inkscape:window-height="1056"
     id="namedview7"
     showgrid="false"
     fit-margin-top="0"
     fit-margin-left="0"
     fit-margin-right="0"
     fit-margin-bottom="0"
     inkscape:zoom="14.75"
     inkscape:cx="6.4745763"
     inkscape:cy="32.40678"
     inkscape:window-x="65"
     inkscape:window-y="24"
     inkscape:window-maximized="1"
     inkscape:current-layer="svg2910" />
  <metadata
     id="metadata2916">
    <rdf:RDF>
      <cc:Work
         rdf:about="">
        <dc:format>image/svg+xml</dc:format>
        <dc:type
           rdf:resource="http://purl.org/dc/dcmitype/StillImage" />
        <dc:title />
      </cc:Work>
    </rdf:RDF>
  </metadata>
  <g
     id="g2846"
     transform="matrix(0.24268632,0,0,-0.24268899,0,22)">
    <path
       id="path24"
       style="fill:#e13f20"
       d="M 90.652,45.325 C 90.652,20.293 70.359,0 45.326,0 20.293,0 0,20.293 0,45.325 c 0,25.033 20.293,45.326 45.326,45.326 25.033,0 45.326,-20.293 45.326,-45.326"
       inkscape:connector-curvature="0" />
    <path
       id="path26"
       style="fill:#ffffff"
       d="m 57.711,66.78 c 2.8946,-1.6719 6.5938,-0.6817 8.2637,2.2129 1.6719,2.8945 0.6816,6.5937 -2.2129,8.2656 -2.8945,1.6699 -6.5937,0.6777 -8.2656,-2.2168 C 53.8263,72.1491 54.8185,68.4499 57.711,66.78 z M 45.326,27.648 c -2.6602,0 -5.1836,0.5918 -7.4453,1.6446 l -4.2051,-7.5352 c 3.5117,-1.7402 7.4668,-2.7226 11.65,-2.7226 2.4336,0 4.7871,0.3378 7.0234,0.957 0.3945,2.4316 1.8379,4.6699 4.1387,6 2.2988,1.3262 4.9551,1.457 7.2558,0.5879 4.4747,4.4004 7.3868,10.385 7.8106,17.051 l -8.625,0.1269 c -0.793,-9.031 -8.37,-16.11 -17.604,-16.11 z m 0,35.354 c 9.2343,0 16.81,-7.08 17.605,-16.109 l 8.6231,0.1269 c -0.4238,6.666 -3.3359,12.65 -7.8106,17.051 -2.3007,-0.8691 -4.9589,-0.7363 -7.2558,0.5879 -2.3008,1.3281 -3.7442,3.5684 -4.1387,6 -2.2363,0.6172 -4.5898,0.9551 -7.0234,0.9551 -4.1836,0 -8.1387,-0.9825 -11.65,-2.7207 l 4.2051,-7.5352 c 2.2617,1.0527 4.7851,1.6445 7.4453,1.6445 z M 27.65,45.325 c 0,5.9805 2.9707,11.264 7.5156,14.463 l -4.4238,7.4102 c -5.2949,-3.5391 -9.2344,-8.9473 -10.871,-15.281 1.9101,-1.5586 3.1328,-3.9316 3.1328,-6.5918 0,-2.6586 -1.2227,-5.0316 -3.1328,-6.5902 1.6348,-6.336 5.5742,-11.744 10.871,-15.283 l 4.4238,7.4121 C 30.6207,34.0615 27.65,39.3448 27.65,45.3253 z M 57.713,23.873 c -2.8945,-1.6718 -3.8867,-5.371 -2.2149,-8.2636 1.67,-2.8946 5.3692,-3.8867 8.2637,-2.2149 2.8945,1.67 3.8867,5.3692 2.2149,8.2637 -1.67,2.8926 -5.3711,3.8848 -8.2637,2.2148 z M 14.506,51.377 c -3.3438,0 -6.0528,-2.7089 -6.0528,-6.0527 0,-3.3422 2.709,-6.0512 6.0528,-6.0512 3.3418,0 6.0507,2.709 6.0507,6.0512 0,3.3438 -2.7089,6.0527 -6.0507,6.0527"
       inkscape:connector-curvature="0" />
  </g>
</svg>
