<?xml version="1.0" encoding="UTF-8" standalone="no"?>
<svg
   xmlns:osb="http://www.openswatchbook.org/uri/2009/osb"
   xmlns:dc="http://purl.org/dc/elements/1.1/"
   xmlns:cc="http://creativecommons.org/ns#"
   xmlns:rdf="http://www.w3.org/1999/02/22-rdf-syntax-ns#"
   xmlns:svg="http://www.w3.org/2000/svg"
   xmlns="http://www.w3.org/2000/svg"
   xmlns:xlink="http://www.w3.org/1999/xlink"
   style="display:inline;enable-background:new"
   version="1.0"
   id="svg11300"
   height="256"
   width="256">
  <title
     id="title3004">Suru Icon Theme Template</title>
  <defs
     id="defs3">
    <clipPath
       id="clipPath9430"
       clipPathUnits="userSpaceOnUse">
      <path
         style="color:#000000;display:inline;overflow:visible;visibility:visible;fill:#ffffff;fill-opacity:1;fill-rule:nonzero;stroke:none;stroke-width:1;marker:none;enable-background:new"
         d="m 166.0625,-196 h 179.875 C 491.2348,-196 512,-175.28677 512,-30.125 v 148.25 C 512,263.28618 491.2348,284 345.9375,284 H 166.0625 C 20.7652,284 0,263.28618 0,118.125 V -30.125 C 0,-175.28677 20.7652,-196 166.0625,-196 Z"
         id="path9432" />
    </clipPath>
    <clipPath
       id="clipPath1082"
       clipPathUnits="userSpaceOnUse">
      <path
         style="display:inline;opacity:1;fill:#8c59d9;fill-opacity:1;stroke:none;stroke-width:2;stroke-linecap:round;stroke-linejoin:round;stroke-miterlimit:4;stroke-dasharray:none;stroke-dashoffset:0;stroke-opacity:1;enable-background:new"
         d="M 361.9375,-212 C 507.2348,-212 528,-191.28677 528,-46.125 V 70.125 C 528,215.28618 507.2348,236 361.9375,236 H 214.0625 C 68.7652,236 48,215.28618 48,70.125 V -46.125 C 48,-191.28677 68.7652,-212 214.0625,-212 Z"
         id="path1084" />
    </clipPath>
    <clipPath
       id="clipPath994"
       clipPathUnits="userSpaceOnUse">
      <path
         id="path996"
         d="m 335.73108,62 c -8.82418,0 -9.77365,0.90635 -9.7304,9.74838 V 84 96.25162 c -0.0433,8.84203 0.90622,9.74838 9.7304,9.74838 h 16.53919 c 8.82418,0 9.7304,-0.90625 9.7304,-9.74838 V 84 71.74838 C 362.00067,62.90625 361.09445,62 352.27027,62 Z"
         style="color:#000000;display:inline;overflow:visible;visibility:visible;fill:#cdcdcd;fill-opacity:1;fill-rule:nonzero;stroke:none;stroke-width:2;stroke-miterlimit:4;stroke-dasharray:none;stroke-opacity:1;marker:none;enable-background:accumulate" />
    </clipPath>
    <clipPath
       id="clipPath994-5"
       clipPathUnits="userSpaceOnUse">
      <path
         id="path996-3"
         d="m 335.73108,62 c -8.82418,0 -9.77365,0.90635 -9.7304,9.74838 V 84 96.25162 c -0.0433,8.84203 0.90622,9.74838 9.7304,9.74838 h 16.53919 c 8.82418,0 9.7304,-0.90625 9.7304,-9.74838 V 84 71.74838 C 362.00067,62.90625 361.09445,62 352.27027,62 Z"
         style="color:#000000;display:inline;overflow:visible;visibility:visible;fill:#cdcdcd;fill-opacity:1;fill-rule:nonzero;stroke:none;stroke-width:2;stroke-miterlimit:4;stroke-dasharray:none;stroke-opacity:1;marker:none;enable-background:accumulate" />
    </clipPath>
    <clipPath
       id="clipPath971"
       clipPathUnits="userSpaceOnUse">
      <path
         id="path973"
         d="m 327.8652,189 c -4.41209,0 -4.88682,0.45318 -4.8652,4.87419 V 200 206.12581 C 322.9783,210.54682 323.45311,211 327.8652,211 h 8.2696 C 340.54689,211 341,210.54688 341,206.12581 V 200 193.87419 C 341,189.45313 340.54688,189 336.13479,189 Z"
         style="color:#000000;display:inline;overflow:visible;visibility:visible;opacity:1;fill:#46a926;fill-opacity:1;fill-rule:nonzero;stroke:none;stroke-width:2;stroke-miterlimit:4;stroke-dasharray:none;stroke-opacity:1;marker:none;enable-background:accumulate" />
    </clipPath>
    <clipPath
       id="clipPath983"
       clipPathUnits="userSpaceOnUse">
      <path
         style="color:#000000;display:inline;overflow:visible;visibility:visible;opacity:1;fill:#46a926;fill-opacity:1;fill-rule:nonzero;stroke:none;stroke-width:2;stroke-miterlimit:4;stroke-dasharray:none;stroke-opacity:1;marker:none;enable-background:accumulate"
         d="m 325.09646,237 c -2.80769,0 -3.10979,0.28839 -3.09603,3.10176 V 244 v 3.89824 c -0.0138,2.81337 0.28834,3.10176 3.09603,3.10176 h 5.8075 C 333.71166,251 334,250.71165 334,247.89824 V 244 240.10176 C 334,237.28836 333.71165,237 330.90396,237 Z"
         id="path985" />
    </clipPath>
    <clipPath
       id="clipPath959"
       clipPathUnits="userSpaceOnUse">
      <path
         id="path961"
         d="m 330.1929,133.99999 c -5.61538,0 -6.21958,0.57678 -6.19206,6.20352 v 7.79648 7.79648 c -0.0276,5.62673 0.57668,6.20351 6.19206,6.20351 h 11.615 c 5.6154,0 6.19208,-0.5767 6.19208,-6.20351 v -7.79648 -7.79648 c 0,-5.6268 -0.5767,-6.20352 -6.19208,-6.20352 z"
         style="color:#000000;display:inline;overflow:visible;visibility:visible;opacity:1;fill:#46a926;fill-opacity:1;fill-rule:nonzero;stroke:none;stroke-width:2;stroke-miterlimit:4;stroke-dasharray:none;stroke-opacity:1;marker:none;enable-background:accumulate" />
    </clipPath>
    <filter
       height="1.048"
       y="-0.024"
       width="1.048"
       x="-0.024"
       id="filter945"
       style="color-interpolation-filters:sRGB">
      <feGaussianBlur
         id="feGaussianBlur947"
         stdDeviation="2.24" />
    </filter>
    <filter
       height="1.12"
       y="-0.059999999"
       width="1.12"
       x="-0.059999999"
       id="filter951"
       style="color-interpolation-filters:sRGB">
      <feGaussianBlur
         id="feGaussianBlur953"
         stdDeviation="5.6" />
    </filter>
    <linearGradient
       id="linearGradient3045">
      <stop
         style="stop-color:#847784;stop-opacity:0.99607843"
         offset="0"
         id="stop3047" />
      <stop
         style="stop-color:#695f69;stop-opacity:1"
         offset="1"
         id="stop3049" />
    </linearGradient>
    <linearGradient
       id="linearGradient4213">
      <stop
         id="stop4215"
         offset="0"
         style="stop-color:#b1d7f3;stop-opacity:1" />
      <stop
         id="stop4217"
         offset="1"
         style="stop-color:#8fafda;stop-opacity:1" />
    </linearGradient>
    <linearGradient
       id="linearGradient5460"
       osb:paint="gradient">
      <stop
         style="stop-color:#e6e6e6;stop-opacity:1"
         offset="0"
         id="stop5462" />
      <stop
         style="stop-color:#ffffff;stop-opacity:1"
         offset="1"
         id="stop5464" />
    </linearGradient>
    <linearGradient
       id="linearGradient5476"
       osb:paint="solid">
      <stop
         style="stop-color:#772953;stop-opacity:1;"
         offset="0"
         id="stop5478" />
    </linearGradient>
    <filter
       style="color-interpolation-filters:sRGB"
       id="filter4154">
      <feComposite
         id="feComposite4156"
         in2="SourceGraphic"
         k3="0"
         k2="1"
         k1="0"
         result="composite1"
         k4="0"
         operator="arithmetic" />
      <feColorMatrix
         id="feColorMatrix4158"
         type="saturate"
         values="0"
         result="colormatrix1"
         in="composite1" />
      <feFlood
         id="feFlood4160"
         result="flood1"
         flood-color="rgb(72,59,72)" />
      <feBlend
         id="feBlend4162"
         result="blend1"
         mode="multiply"
         in2="colormatrix1"
         in="flood1" />
      <feBlend
         id="feBlend4164"
         mode="screen"
         in2="blend1"
         result="blend2" />
      <feColorMatrix
         id="feColorMatrix4166"
         type="saturate"
         values="1"
         result="colormatrix2"
         in="blend2" />
      <feComposite
         id="feComposite4168"
         operator="in"
         result="composite2"
         in2="SourceGraphic"
         in="colormatrix2" />
    </filter>
    <clipPath
       clipPathUnits="userSpaceOnUse"
       id="clipPath3062">
      <rect
         style="color:#000000;display:inline;overflow:visible;visibility:visible;fill:url(#linearGradient3066);fill-opacity:1;fill-rule:nonzero;stroke:none;stroke-width:40;marker:none;enable-background:new"
         id="rect3064"
         width="475.66452"
         height="445.93549"
         x="34.167744"
         y="-194.96773" />
    </clipPath>
    <linearGradient
       xlink:href="#linearGradient3045"
       id="linearGradient3066"
       gradientUnits="userSpaceOnUse"
       gradientTransform="matrix(1.8580645,0,0,1.8736786,4.4387126,-288.65166)"
       x1="256"
       y1="50"
       x2="256"
       y2="288" />
  </defs>
  <metadata
     id="metadata4">
    <rdf:RDF>
      <cc:Work
         rdf:about="">
        <dc:format>image/svg+xml</dc:format>
        <dc:type
           rdf:resource="http://purl.org/dc/dcmitype/StillImage" />
        <dc:creator>
          <cc:Agent>
            <dc:title>Sam Hewitt</dc:title>
          </cc:Agent>
        </dc:creator>
        <dc:source />
        <cc:license
           rdf:resource="http://creativecommons.org/licenses/by-sa/4.0/" />
        <dc:title>Suru Icon Theme Template</dc:title>
        <dc:subject>
          <rdf:Bag />
        </dc:subject>
        <dc:date />
        <dc:rights>
          <cc:Agent>
            <dc:title />
          </cc:Agent>
        </dc:rights>
        <dc:publisher>
          <cc:Agent>
            <dc:title />
          </cc:Agent>
        </dc:publisher>
        <dc:identifier />
        <dc:relation />
        <dc:language />
        <dc:coverage />
        <dc:description />
        <dc:contributor>
          <cc:Agent>
            <dc:title />
          </cc:Agent>
        </dc:contributor>
      </cc:Work>
      <cc:Work
         rdf:about="">
        <dc:format>image/svg+xml</dc:format>
        <dc:type
           rdf:resource="http://purl.org/dc/dcmitype/StillImage" />
      </cc:Work>
      <cc:License
         rdf:about="http://creativecommons.org/licenses/by-sa/4.0/">
        <cc:permits
           rdf:resource="http://creativecommons.org/ns#Reproduction" />
        <cc:permits
           rdf:resource="http://creativecommons.org/ns#Distribution" />
        <cc:requires
           rdf:resource="http://creativecommons.org/ns#Notice" />
        <cc:requires
           rdf:resource="http://creativecommons.org/ns#Attribution" />
        <cc:permits
           rdf:resource="http://creativecommons.org/ns#DerivativeWorks" />
        <cc:requires
           rdf:resource="http://creativecommons.org/ns#ShareAlike" />
      </cc:License>
    </rdf:RDF>
  </metadata>
  <g
     transform="translate(-24,-28)"
     id="layer1"
     style="display:inline">
    <g
       id="layer7"
       style="display:none">
      <text
         id="context"
         style="font-style:normal;font-variant:normal;font-weight:normal;font-stretch:normal;line-height:0%;font-family:'DejaVu Sans';-inkscape-font-specification:'DejaVu Sans';display:inline;fill:#000000;fill-opacity:1;stroke:none;enable-background:new"
         x="19.006836"
         xml:space="preserve"
         y="-8.2548828"><tspan
           id="tspan3933"
           x="19.006836"
           y="-8.2548828"
           style="font-style:normal;font-variant:normal;font-weight:normal;font-stretch:normal;font-size:18px;line-height:1.25;font-family:'DejaVu Sans';-inkscape-font-specification:'DejaVu Sans'">emblems</tspan></text>
      <text
         id="icon-name"
         style="font-style:normal;font-variant:normal;font-weight:bold;font-stretch:normal;line-height:0%;font-family:'DejaVu Sans';-inkscape-font-specification:'DejaVu Sans Bold';text-align:start;writing-mode:lr-tb;text-anchor:start;display:inline;fill:#000000;fill-opacity:1;stroke:none;enable-background:new"
         x="146.48828"
         xml:space="preserve"
         y="-8.2548828"><tspan
           id="tspan924"
           x="146.48828"
           y="-8.2548828"
           style="font-style:normal;font-variant:normal;font-weight:bold;font-stretch:normal;font-size:18px;line-height:1.25;font-family:'DejaVu Sans';-inkscape-font-specification:'DejaVu Sans Bold'">emblem-downloads</tspan></text>
      <rect
         y="236"
         x="320"
         height="16"
         width="16"
         id="rect16x16"
         style="display:inline;overflow:visible;visibility:visible;fill:#cdcdcd;fill-opacity:1;fill-rule:nonzero;stroke:none;stroke-width:2;marker:none;enable-background:accumulate" />
      <rect
         y="188"
         x="320"
         height="24"
         width="24"
         id="rect24x24"
         style="display:inline;overflow:visible;visibility:visible;fill:#cdcdcd;fill-opacity:1;fill-rule:nonzero;stroke:none;stroke-width:2;marker:none;enable-background:accumulate" />
      <rect
         y="132"
         x="320"
         height="32"
         width="32"
         id="rect32x32"
         style="display:inline;overflow:visible;visibility:visible;fill:#cdcdcd;fill-opacity:1;fill-rule:nonzero;stroke:none;stroke-width:2;marker:none;enable-background:accumulate" />
      <rect
         style="display:inline;overflow:visible;visibility:visible;fill:#cdcdcd;fill-opacity:1;fill-rule:nonzero;stroke:none;stroke-width:2;marker:none;enable-background:accumulate"
         id="rect48x48"
         width="48"
         height="48"
         x="320"
         y="60" />
      <rect
         y="28"
         x="24"
         height="256"
         width="256"
         id="rect3951"
         style="display:inline;overflow:visible;visibility:visible;fill:#cdcdcd;fill-opacity:1;fill-rule:nonzero;stroke:none;stroke-width:2;marker:none;enable-background:accumulate" />
      <rect
         style="display:inline;overflow:visible;visibility:visible;fill:#cdcdcd;fill-opacity:1;fill-rule:nonzero;stroke:none;stroke-width:1;marker:none;enable-background:accumulate"
         id="rect841"
         width="8"
         height="8"
         x="320"
         y="268" />
    </g>
    <g
       style="display:inline;opacity:1"
       id="layer2">
      <rect
         ry="7.5"
         rx="7.5"
         y="-336"
         x="-252"
         height="15"
         width="15"
         id="rect892"
         style="display:inline;opacity:0.2;fill:#000000;fill-opacity:1;stroke:none;stroke-width:1;stroke-opacity:0.25098039;enable-background:new"
         transform="matrix(0,-1,-1,0,0,0)" />
      <rect
         ry="21"
         rx="21"
         y="-365"
         x="-106"
         height="42"
         width="42"
         id="rect894"
         style="display:inline;opacity:0.2;fill:#000000;fill-opacity:1;stroke:none;stroke-width:1.02439022;stroke-miterlimit:4;stroke-dasharray:none;stroke-opacity:0.25098039;enable-background:new"
         transform="matrix(0,-1,-1,0,0,0)" />
      <rect
         transform="matrix(0,-1,-1,0,0,0)"
         style="display:inline;opacity:0.2;fill:#000000;fill-opacity:1;stroke:none;stroke-width:1.0476191;stroke-opacity:0.25098039;enable-background:new"
         id="rect896"
         width="22"
         height="22"
         x="-212"
         y="-343"
         rx="11"
         ry="11" />
      <rect
         ry="15"
         rx="15"
         y="-351"
         x="-164"
         height="30"
         width="30"
         id="rect876"
         style="display:inline;opacity:0.2;fill:#000000;fill-opacity:1;stroke:none;stroke-width:1.03448272;stroke-opacity:0.25098039;enable-background:new"
         transform="matrix(0,-1,-1,0,0,0)" />
      <rect
         ry="112"
         rx="112"
         y="-264"
         x="-270"
         height="224"
         width="224"
         id="rect949"
         style="display:inline;opacity:0.1;fill:#000000;fill-opacity:1;stroke:none;stroke-width:0.5;filter:url(#filter951);enable-background:new"
         transform="matrix(0,-1,-1,0,0,0)" />
      <rect
         transform="matrix(0,-1,-1,0,0,0)"
         style="display:inline;opacity:0.5;fill:#000000;fill-opacity:1;stroke:none;stroke-width:0.5;filter:url(#filter945);enable-background:new"
         id="rect939"
         width="224"
         height="224"
         x="-270"
         y="-264"
         rx="112"
         ry="112" />
      <rect
         transform="matrix(0,-1,-1,0,0,0)"
         style="display:inline;fill:#5884f4;fill-opacity:1;stroke:none;stroke-width:1;stroke-opacity:0.25098039;enable-background:new"
         id="rect4414"
         width="15"
         height="15"
         x="-251"
         y="-336"
         rx="7.5"
         ry="7.5" />
      <rect
         ry="21"
         rx="21"
         y="-365"
         x="-106"
         height="42"
         width="42"
         id="rect917"
         style="display:inline;opacity:0.1;fill:#000000;fill-opacity:1;stroke:none;stroke-width:1.04999995;stroke-opacity:0.25098039;enable-background:new"
         transform="matrix(0,-1,-1,0,0,0)" />
      <rect
         transform="matrix(0,-1,-1,0,0,0)"
         style="display:inline;fill:#5884f4;fill-opacity:1;stroke:none;stroke-width:1.02439022;stroke-miterlimit:4;stroke-dasharray:none;stroke-opacity:0.25098039;enable-background:new"
         id="rect4408"
         width="42"
         height="42"
         x="-105"
         y="-365"
         rx="21"
         ry="21" />
      <rect
         ry="11"
         rx="11"
         y="-343"
         x="-211"
         height="22"
         width="22"
         id="rect4410"
         style="display:inline;fill:#5884f4;fill-opacity:1;stroke:none;stroke-width:1.0476191;stroke-opacity:0.25098039;enable-background:new"
         transform="matrix(0,-1,-1,0,0,0)" />
      <rect
         transform="matrix(0,-1,-1,0,0,0)"
         style="display:inline;fill:#5884f4;fill-opacity:1;stroke:none;stroke-width:1.03448272;stroke-opacity:0.25098039;enable-background:new"
         id="rect4412"
         width="30"
         height="30"
         x="-163"
         y="-351"
         rx="15"
         ry="15" />
      <rect
         ry="112"
         rx="112"
         y="-264.125"
         x="-267.75"
         height="224"
         width="224"
         id="rect4418"
         style="display:inline;fill:#5884f4;fill-opacity:1;stroke:none;stroke-width:0.5;enable-background:new"
         transform="matrix(0,-1,-1,0,0,0)" />
      <rect
         ry="1"
         rx="1"
         y="-328"
         x="-276"
         height="8"
         width="8"
         id="rect4420"
         style="display:inline;fill:#5884f4;fill-opacity:1;stroke:none;stroke-width:1.14285719;stroke-opacity:0.25098039;enable-background:new"
         transform="matrix(0,-1,-1,0,0,0)" />
      <path
         id="path1351"
         d="m 129.89139,83.500671 44.46723,-0.01983 V 135.3791 l 16.85616,0.01 c -6.89259,13.75761 -19.3154,37.90646 -39.08978,67.35381 -19.77846,-29.45204 -32.19667,-53.61418 -39.0898,-67.37302 l 16.85619,0.01 z M 100.24656,216.90234 v 11.11682 h 103.75688 v -11.11682 z"
         style="color:#000000;display:inline;overflow:visible;visibility:visible;fill:#ffffff;fill-opacity:1;fill-rule:nonzero;stroke:none;stroke-width:1.85243487;marker:none;enable-background:accumulate" />
      <path
         id="path1351-6"
         d="m 339.95596,70.791762 8.08808,-0.0037 v 9.4397 l 3.06594,0.0017 c -1.25368,2.502421 -3.51324,6.894821 -7.10998,12.25096 -3.59748,-5.356991 -5.85621,-9.75181 -7.10999,-12.254385 l 3.06595,0.0017 z m -5.39205,24.26424 v 2.022031 h 18.87218 v -2.022031 z"
         style="color:#000000;display:inline;overflow:visible;visibility:visible;fill:#ffffff;fill-opacity:1;fill-rule:nonzero;stroke:none;stroke-width:0.33693677;marker:none;enable-background:accumulate" />
      <path
         id="path1351-6-7"
         d="m 333.0088,138.2801 5.98239,-0.003 v 6.98213 l 2.26775,0.001 c -0.9273,1.85088 -2.5986,5.09975 -5.25895,9.06145 -2.66089,-3.96233 -4.33158,-7.21299 -5.25895,-9.06403 l 2.26776,10e-4 z m -3.98827,17.94719 v 1.49561 h 13.95893 v -1.49561 z"
         style="color:#000000;display:inline;overflow:visible;visibility:visible;opacity:1;fill:#ffffff;fill-opacity:1;fill-rule:nonzero;stroke:none;stroke-width:0.24921733;marker:none;enable-background:accumulate" />
      <path
         id="path1351-6-7-5"
         d="m 329.84062,192.98298 4.31877,-0.002 v 5.0405 l 1.63712,7.2e-4 c -0.66943,1.33618 -1.87597,3.6816 -3.79651,6.54159 -1.92094,-2.86046 -3.12703,-5.20716 -3.79651,-6.54344 l 1.63713,7.2e-4 z m -2.87919,12.95635 v 1.07969 h 10.07714 v -1.07969 z"
         style="color:#000000;display:inline;overflow:visible;visibility:visible;opacity:1;fill:#ffffff;fill-opacity:1;fill-rule:nonzero;stroke:none;stroke-width:0.17991364;marker:none;enable-background:accumulate" />
      <path
         id="path1351-6-7-5-3"
         d="m 327.0366,238.74443 2.92679,-0.001 v 3.41592 l 1.10947,4.8e-4 c -0.45367,0.90553 -1.27133,2.49499 -2.57287,4.43319 -1.30181,-1.93851 -2.11916,-3.52886 -2.57287,-4.43444 l 1.10948,4.9e-4 z m -1.95121,8.78043 v 0.7317 h 6.82921 v -0.7317 z"
         style="color:#000000;display:inline;overflow:visible;visibility:visible;opacity:1;fill:#ffffff;fill-opacity:1;fill-rule:nonzero;stroke:none;stroke-width:0.12192622;marker:none;enable-background:accumulate" />
      <path
         id="path1351-6-7-5-3-5"
         d="m 323.07921,269.00777 1.84157,-6.3e-4 v 2.14932 l 0.69807,3e-4 c -0.28544,0.56976 -0.79992,1.56986 -1.61885,2.78937 -0.81912,-1.21971 -1.33338,-2.22037 -1.61886,-2.79015 l 0.69807,3e-4 z m -1.22769,5.52469 v 0.4604 h 4.29695 v -0.4604 z"
         style="color:#000000;display:inline;overflow:visible;visibility:visible;opacity:1;fill:#ffffff;fill-opacity:1;fill-rule:nonzero;stroke:none;stroke-width:0.07671653;marker:none;enable-background:accumulate" />
    </g>
    <g
       style="display:inline"
       id="layer6" />
  </g>
</svg>
