<?xml version="1.0" encoding="UTF-8" standalone="no"?>
<svg
   xmlns:dc="http://purl.org/dc/elements/1.1/"
   xmlns:cc="http://creativecommons.org/ns#"
   xmlns:rdf="http://www.w3.org/1999/02/22-rdf-syntax-ns#"
   xmlns:svg="http://www.w3.org/2000/svg"
   xmlns="http://www.w3.org/2000/svg"
   xmlns:xlink="http://www.w3.org/1999/xlink"
   width="48"
   version="1.0"
   style="display:inline;enable-background:new"
   id="svg11300"
   height="48">
  <title
     id="title8836">Optical Drive</title>
  <metadata
     id="metadata154">
    <rdf:RDF>
      <cc:Work
         rdf:about="">
        <dc:format>image/svg+xml</dc:format>
        <dc:type
           rdf:resource="http://purl.org/dc/dcmitype/StillImage" />
        <dc:title />
        <dc:creator>
          <cc:Agent>
            <dc:title />
          </cc:Agent>
        </dc:creator>
        <dc:contributor>
          <cc:Agent>
            <dc:title />
          </cc:Agent>
        </dc:contributor>
        <dc:source />
        <cc:license
           rdf:resource="" />
        <dc:subject>
          <rdf:Bag />
        </dc:subject>
      </cc:Work>
    </rdf:RDF>
  </metadata>
  <defs
     id="defs3">
    <linearGradient
       id="linearGradient4801">
      <stop
         style="stop-color:#8ae234;stop-opacity:1"
         offset="0"
         id="stop4803" />
      <stop
         style="stop-color:#6dc714;stop-opacity:1"
         offset="1"
         id="stop4805" />
    </linearGradient>
    <linearGradient
       id="linearGradient2844">
      <stop
         style="stop-color:white;stop-opacity:1;"
         offset="0"
         id="stop2846" />
      <stop
         style="stop-color:white;stop-opacity:0;"
         offset="1"
         id="stop2848" />
    </linearGradient>
    <linearGradient
       id="linearGradient2964">
      <stop
         style="stop-color:black;stop-opacity:1;"
         offset="0"
         id="stop2966" />
      <stop
         style="stop-color:black;stop-opacity:0;"
         offset="1"
         id="stop2968" />
    </linearGradient>
    <linearGradient
       id="linearGradient2946">
      <stop
         style="stop-color:#8ae234;stop-opacity:1"
         offset="0"
         id="stop2948" />
      <stop
         style="stop-color:#73d216;stop-opacity:1"
         offset="1"
         id="stop2950" />
    </linearGradient>
    <linearGradient
       id="linearGradient2894">
      <stop
         style="stop-color:white;stop-opacity:1;"
         offset="0"
         id="stop2896" />
      <stop
         style="stop-color:white;stop-opacity:0.43629342"
         offset="1"
         id="stop2898" />
    </linearGradient>
    <radialGradient
       xlink:href="#linearGradient2946"
       r="20.988943"
       id="radialGradient2478"
       gradientUnits="userSpaceOnUse"
       gradientTransform="matrix(0.7779357,-0.5099058,0.2249132,0.3431361,8.710057,35.620936)"
       fy="-18.43367"
       fx="17.315821"
       cy="-18.43367"
       cx="17.315821" />
    <radialGradient
       xlink:href="#linearGradient4801"
       r="5.4701443"
       id="radialGradient2480"
       gradientUnits="userSpaceOnUse"
       gradientTransform="matrix(1.3852938,0,0,1.1828585,-2.1985396,-3.7252664)"
       fy="22.561522"
       fx="7.0907202"
       cy="22.561522"
       cx="7.0907202" />
    <radialGradient
       xlink:href="#linearGradient2946"
       r="5.4555612"
       id="radialGradient2482"
       gradientUnits="userSpaceOnUse"
       gradientTransform="matrix(1.065299,0,0,1.069873,-2.349853,-1.383156)"
       fy="21.517693"
       fx="35.407703"
       cy="21.517693"
       cx="35.407703" />
    <linearGradient
       y2="31.375868"
       y1="28.301006"
       xlink:href="#linearGradient2844"
       x2="72.375"
       x1="72.375"
       id="linearGradient3887"
       gradientUnits="userSpaceOnUse"
       gradientTransform="translate(-118,2)" />
    <linearGradient
       y2="10.352213"
       y1="6.5408134"
       xlink:href="#linearGradient2844"
       x2="92.586792"
       x1="92.586792"
       id="linearGradient3890"
       gradientUnits="userSpaceOnUse"
       gradientTransform="translate(-118,2)" />
    <linearGradient
       y2="11.299405"
       y1="14.127917"
       xlink:href="#linearGradient2894"
       x2="21.578205"
       x1="22.547333"
       id="linearGradient2751"
       gradientUnits="userSpaceOnUse" />
    <linearGradient
       y2="31.375868"
       y1="28.301006"
       xlink:href="#linearGradient2844"
       x2="72.375"
       x1="72.375"
       id="linearGradient6229"
       gradientUnits="userSpaceOnUse"
       gradientTransform="translate(-118,2)" />
    <linearGradient
       y2="10.352213"
       y1="6.5408134"
       xlink:href="#linearGradient2844"
       x2="92.586792"
       x1="92.586792"
       id="linearGradient6232"
       gradientUnits="userSpaceOnUse"
       gradientTransform="translate(-118,2)" />
    <radialGradient
       xlink:href="#linearGradient2964"
       r="24.218407"
       id="radialGradient6242"
       gradientUnits="userSpaceOnUse"
       gradientTransform="matrix(0.8644729,0,0,0.1591846,-129.80583,33.593328)"
       fy="29"
       fx="24.218407"
       cy="29"
       cx="24.218407" />
    <radialGradient
       xlink:href="#linearGradient2946"
       r="20.988943"
       id="radialGradient6244"
       gradientUnits="userSpaceOnUse"
       gradientTransform="matrix(0.7779357,-0.5099058,0.2249132,0.3431361,8.710057,35.620936)"
       fy="-18.43367"
       fx="17.315821"
       cy="-18.43367"
       cx="17.315821" />
    <radialGradient
       xlink:href="#linearGradient4801"
       r="5.4701443"
       id="radialGradient6246"
       gradientUnits="userSpaceOnUse"
       gradientTransform="matrix(1.3852938,0,0,1.1828585,-2.1985396,-3.7252664)"
       fy="22.561522"
       fx="7.0907202"
       cy="22.561522"
       cx="7.0907202" />
    <radialGradient
       xlink:href="#linearGradient2946"
       r="5.4555612"
       id="radialGradient6248"
       gradientUnits="userSpaceOnUse"
       gradientTransform="matrix(1.065299,0,0,1.069873,-2.349853,-1.383156)"
       fy="21.517693"
       fx="35.407703"
       cy="21.517693"
       cx="35.407703" />
    <linearGradient
       y2="11.299405"
       y1="14.127917"
       xlink:href="#linearGradient2894"
       x2="21.578205"
       x1="22.547333"
       id="linearGradient6250"
       gradientUnits="userSpaceOnUse" />
    <radialGradient
       xlink:href="#linearGradient2964"
       r="24.218407"
       id="radialGradient6279"
       gradientUnits="userSpaceOnUse"
       gradientTransform="matrix(0.3936701,0,0,0.1423215,-124.50253,34.082362)"
       fy="29"
       fx="24.218407"
       cy="29"
       cx="24.218407" />
    <radialGradient
       xlink:href="#linearGradient2946"
       r="20.988943"
       id="radialGradient6193"
       gradientUnits="userSpaceOnUse"
       gradientTransform="matrix(0.7779357,-0.5099058,0.2249132,0.3431361,8.710057,35.620936)"
       fy="-18.43367"
       fx="17.315821"
       cy="-18.43367"
       cx="17.315821" />
    <radialGradient
       xlink:href="#linearGradient4801"
       r="5.4701443"
       id="radialGradient6195"
       gradientUnits="userSpaceOnUse"
       gradientTransform="matrix(1.3852938,0,0,1.1828585,-2.1985396,-3.7252664)"
       fy="22.561522"
       fx="7.0907202"
       cy="22.561522"
       cx="7.0907202" />
    <radialGradient
       xlink:href="#linearGradient2946"
       r="5.4555612"
       id="radialGradient6197"
       gradientUnits="userSpaceOnUse"
       gradientTransform="matrix(1.065299,0,0,1.069873,-2.349853,-1.383156)"
       fy="21.517693"
       fx="35.407703"
       cy="21.517693"
       cx="35.407703" />
    <linearGradient
       y2="12.955575"
       y1="14.127917"
       xlink:href="#linearGradient2894"
       x2="22.174427"
       x1="22.547333"
       id="linearGradient6199"
       gradientUnits="userSpaceOnUse" />
    <linearGradient
       y2="10.352213"
       y1="6.5408134"
       xlink:href="#linearGradient2844"
       x2="92.586792"
       x1="92.586792"
       id="linearGradient6201"
       gradientUnits="userSpaceOnUse"
       gradientTransform="translate(-118,2)" />
    <linearGradient
       y2="31.375868"
       y1="28.301006"
       xlink:href="#linearGradient2844"
       x2="72.375"
       x1="72.375"
       id="linearGradient6203"
       gradientUnits="userSpaceOnUse"
       gradientTransform="translate(-118,2)" />
    <radialGradient
       xlink:href="#linearGradient2964"
       r="24.218407"
       id="radialGradient6205"
       gradientUnits="userSpaceOnUse"
       gradientTransform="matrix(0.8106455,0,0,0.244745,-59.805832,30.548802)"
       fy="29"
       fx="24.218407"
       cy="29"
       cx="24.218407" />
    <linearGradient
       id="linearGradient8172">
      <stop
         style="stop-color:#ffffff;stop-opacity:1;"
         offset="0"
         id="stop8174" />
      <stop
         style="stop-color:#ffffff;stop-opacity:0;"
         offset="1"
         id="stop8176" />
    </linearGradient>
    <linearGradient
       id="linearGradient4833">
      <stop
         style="stop-color:#8ae234;stop-opacity:1"
         offset="0"
         id="stop4835" />
      <stop
         style="stop-color:#63b513;stop-opacity:1"
         offset="1"
         id="stop4837" />
    </linearGradient>
    <linearGradient
       id="linearGradient4827">
      <stop
         style="stop-color:#8ae234;stop-opacity:1"
         offset="0"
         id="stop4829" />
      <stop
         style="stop-color:#63b612;stop-opacity:1"
         offset="1"
         id="stop4831" />
    </linearGradient>
    <linearGradient
       id="linearGradient4000">
      <stop
         style="stop-color:#4e9a06;stop-opacity:1;"
         offset="0"
         id="stop4002" />
      <stop
         style="stop-color:#4e9a06;stop-opacity:0;"
         offset="1"
         id="stop4004" />
    </linearGradient>
    <linearGradient
       id="linearGradient3992">
      <stop
         style="stop-color:#4e9a06;stop-opacity:1;"
         offset="0"
         id="stop3994" />
      <stop
         style="stop-color:#4e9a06;stop-opacity:0;"
         offset="1"
         id="stop3996" />
    </linearGradient>
    <radialGradient
       xlink:href="#linearGradient2964"
       r="24.218407"
       id="radialGradient6428"
       gradientUnits="userSpaceOnUse"
       gradientTransform="matrix(0.3201244,0,0,0.09664995,0.174649,15.356416)"
       fy="29"
       fx="24.218407"
       cy="29"
       cx="24.218407" />
    <radialGradient
       xlink:href="#linearGradient2946"
       r="20.988943"
       id="radialGradient6430"
       gradientUnits="userSpaceOnUse"
       gradientTransform="matrix(0.772611,-0.8991781,0.313033,0.268969,10.144147,45.704498)"
       fy="-31.017405"
       fx="18.706072"
       cy="-31.017405"
       cx="18.706072" />
    <radialGradient
       xlink:href="#linearGradient4827"
       r="5.4701443"
       id="radialGradient6432"
       gradientUnits="userSpaceOnUse"
       gradientTransform="matrix(1.172449,1.635808e-7,-1.396764e-7,1.001117,-0.689313,0.375097)"
       fy="22.955854"
       fx="6.8288355"
       cy="22.955854"
       cx="6.8288355" />
    <linearGradient
       y2="24.445797"
       y1="31.585321"
       xlink:href="#linearGradient4000"
       x2="4.5704455"
       x1="4.570446"
       id="linearGradient6434"
       gradientUnits="userSpaceOnUse" />
    <radialGradient
       xlink:href="#linearGradient4833"
       r="5.4555612"
       id="radialGradient6436"
       gradientUnits="userSpaceOnUse"
       gradientTransform="matrix(1.065299,0,0,1.069873,-2.349853,-1.383156)"
       fy="22.349407"
       fx="36.314796"
       cy="22.349407"
       cx="36.314796" />
    <linearGradient
       y2="14.59966"
       y1="17.728373"
       xlink:href="#linearGradient3992"
       x2="-46.397331"
       x1="-46.397331"
       id="linearGradient6438"
       gradientUnits="userSpaceOnUse" />
    <linearGradient
       y2="11.931311"
       y1="6.5408134"
       xlink:href="#linearGradient2844"
       x2="92.390625"
       x1="92.586792"
       id="linearGradient6442"
       gradientUnits="userSpaceOnUse"
       gradientTransform="matrix(0.5037656,0,0,0.5037656,-31.56548,-0.928401)" />
    <linearGradient
       y2="32"
       y1="28.301006"
       xlink:href="#linearGradient2844"
       x2="72.550453"
       x1="72.375"
       id="linearGradient6444"
       gradientUnits="userSpaceOnUse"
       gradientTransform="matrix(0.5037656,0,0,0.5037656,-31.56548,-0.928401)" />
    <radialGradient
       xlink:href="#linearGradient8172"
       r="4.807271"
       id="radialGradient8180"
       gradientUnits="userSpaceOnUse"
       gradientTransform="matrix(1.5722652,0,0,1.70162,10.053399,-10.411161)"
       fy="15.217962"
       fx="-17.567728"
       cy="15.217962"
       cx="-17.567728" />
    <linearGradient
       id="linearGradient8080">
      <stop
         style="stop-color:#ffffff;stop-opacity:1;"
         offset="0"
         id="stop8082" />
      <stop
         style="stop-color:#ffffff;stop-opacity:0;"
         offset="1"
         id="stop8084" />
    </linearGradient>
    <linearGradient
       id="linearGradient8047">
      <stop
         style="stop-color:#8ae234;stop-opacity:1"
         offset="0"
         id="stop8049" />
      <stop
         style="stop-color:#4e9a06;stop-opacity:1"
         offset="1"
         id="stop8051" />
    </linearGradient>
    <linearGradient
       id="linearGradient8041">
      <stop
         style="stop-color:#8ae234;stop-opacity:1"
         offset="0"
         id="stop8043" />
      <stop
         style="stop-color:#4e9a06;stop-opacity:1"
         offset="1"
         id="stop8045" />
    </linearGradient>
    <linearGradient
       id="linearGradient8035">
      <stop
         style="stop-color:#8ae234;stop-opacity:1"
         offset="0"
         id="stop8037" />
      <stop
         style="stop-color:#73d216;stop-opacity:1"
         offset="1"
         id="stop8039" />
    </linearGradient>
    <radialGradient
       xlink:href="#linearGradient8035"
       r="6.9673138"
       id="radialGradient8101"
       gradientUnits="userSpaceOnUse"
       gradientTransform="matrix(0.8697734,-0.1649201,0.0498243,0.3044848,-3.5691186,47.688095)"
       fy="69.4813"
       fx="-0.82365507"
       cy="69.4813"
       cx="-0.82365507" />
    <radialGradient
       xlink:href="#linearGradient8047"
       r="1.75"
       id="radialGradient8103"
       gradientUnits="userSpaceOnUse"
       gradientTransform="matrix(1.4038271,1.3365368,-0.7424561,0.7071009,21.426678,5.6116883)"
       fy="29.69562"
       fx="1.9816328"
       cy="29.69562"
       cx="1.9816328" />
    <radialGradient
       xlink:href="#linearGradient8041"
       r="1.75"
       id="radialGradient8105"
       gradientUnits="userSpaceOnUse"
       gradientTransform="matrix(1.7142168,1.6320697,-0.8708059,0.8293388,24.772562,0.9521771)"
       fy="30.247513"
       fx="2.1775692"
       cy="30.247513"
       cx="2.1775692" />
    <radialGradient
       xlink:href="#linearGradient8080"
       r="3.2539198"
       id="radialGradient8107"
       gradientUnits="userSpaceOnUse"
       gradientTransform="matrix(1.5173424,-0.8760381,0.516805,0.8951324,-29.908126,12.345027)"
       fy="49.82066"
       fx="8.042182"
       cy="49.82066"
       cx="8.042182" />
  </defs>
  <g
     transform="translate(-296,-50)"
     style="display:none"
     id="layer6">
    <rect
       y="50"
       x="296"
       width="48"
       style="display:inline;overflow:visible;visibility:visible;fill:#eeeeec;fill-opacity:1;fill-rule:nonzero;stroke:none;stroke-width:2;marker:none;enable-background:accumulate"
       id="rect6284"
       height="48" />
    <rect
       y="126"
       x="303"
       width="32"
       style="display:inline;overflow:visible;visibility:visible;fill:#eeeeec;fill-opacity:1;fill-rule:nonzero;stroke:none;stroke-width:2;marker:none;enable-background:accumulate"
       id="rect6592"
       height="32" />
    <rect
       y="177"
       x="303"
       width="22"
       style="display:inline;overflow:visible;visibility:visible;fill:#eeeeec;fill-opacity:1;fill-rule:nonzero;stroke:none;stroke-width:2;marker:none;enable-background:accumulate"
       id="rect6749"
       height="22" />
    <rect
       y="219"
       x="303"
       width="16"
       style="display:inline;overflow:visible;visibility:visible;fill:#eeeeec;fill-opacity:1;fill-rule:nonzero;stroke:none;stroke-width:2;marker:none;enable-background:accumulate"
       id="rect6833"
       height="16" />
    <text
       y="21.513618"
       xml:space="preserve"
       x="20.970737"
       style="font-style:normal;font-weight:normal;line-height:0%;font-family:'Bitstream Vera Sans';display:inline;fill:#000000;fill-opacity:1;stroke:none;enable-background:new"
       id="context"><tspan
         style="font-size:18.30070686px;line-height:1.25"
         y="21.513618"
         x="20.970737"
         id="tspan2716">actions</tspan></text>
    <text
       y="21.513618"
       xml:space="preserve"
       x="191.97073"
       style="font-style:normal;font-variant:normal;font-weight:bold;font-stretch:normal;line-height:0%;font-family:'Droid Sans';-inkscape-font-specification:'Droid Sans Bold';text-align:start;writing-mode:lr-tb;text-anchor:start;display:inline;fill:#000000;fill-opacity:1;stroke:none;enable-background:new"
       id="icon-name"><tspan
         style="font-size:18.30070686px;line-height:1.25"
         y="21.513618"
         x="191.97073"
         id="tspan3023">call-start</tspan></text>
  </g>
  <g
     transform="translate(-296,-50)"
     style="display:inline"
     id="layer2">
    <g
       transform="translate(296,50)"
       style="display:inline;enable-background:new"
       id="g48">
      <g
         transform="translate(131)"
         id="g6807">
        <rect
           y="34.354492"
           x="-129.80583"
           width="41.872326"
           style="opacity:0.1261261;fill:url(#radialGradient6242);fill-opacity:1;stroke:none"
           id="rect2972"
           height="7.7104387" />
        <rect
           y="34.762894"
           x="-124.50253"
           width="19.068132"
           style="display:inline;opacity:0.43243247;fill:url(#radialGradient6279);fill-opacity:1;stroke:none"
           id="rect6277"
           height="6.8936372" />
        <g
           transform="translate(-70)"
           id="g6252">
          <g
             transform="rotate(135,-5.4135054,12.04886)"
             id="g2924">
            <rect
               y="28.027283"
               x="-3.9337273"
               width="12.034268"
               transform="rotate(-14.999995)"
               style="fill:#8ae234;fill-opacity:1;stroke:#4e9a06;stroke-width:1.00000119;stroke-linecap:round;stroke-linejoin:miter;stroke-miterlimit:4;stroke-dasharray:none;stroke-dashoffset:0;stroke-opacity:1"
               ry="1.4805068"
               rx="1.4805068"
               id="rect2926"
               height="4.0000005" />
            <rect
               y="15.599967"
               x="-50.304844"
               width="12.034268"
               transform="matrix(-0.965926,-0.258819,-0.258819,0.965926,0,0)"
               style="fill:#8ae234;fill-opacity:1;stroke:#4e9a06;stroke-width:1.00000107;stroke-linecap:round;stroke-linejoin:miter;stroke-miterlimit:4;stroke-dasharray:none;stroke-dashoffset:0;stroke-opacity:1"
               ry="1.4805068"
               rx="1.4805068"
               id="rect2928"
               height="4.0000005" />
            <path
               style="fill:url(#radialGradient6244);fill-opacity:1;stroke:#4e9a06;stroke-width:1;stroke-linecap:round;stroke-linejoin:miter;stroke-miterlimit:4;stroke-dasharray:none;stroke-dashoffset:0;stroke-opacity:1"
               id="path2930"
               d="M 24,14.5 C 13.540342,14.5 4.9369948,19.115197 4.0625,25 3.4945247,26.229253 3.3411412,27.653245 3.71875,29.0625 3.8062083,29.388899 3.9270339,29.702183 4.0625,30 l 11.40625,-3.0625 c -0.03159,-0.32565 -0.06879,-0.673601 -0.15625,-1 C 15.104309,25.160519 14.74048,24.477891 14.28125,23.875 15.658933,21.324703 19.487863,19.5 24,19.5 c 4.512138,0 8.341068,1.824703 9.71875,4.375 -0.457667,0.601943 -0.792292,1.287323 -1,2.0625 -0.08746,0.326399 -0.155909,0.674351 -0.1875,1 L 43.9375,30 c 0.135466,-0.297817 0.256289,-0.611102 0.34375,-0.9375 0.385521,-1.438785 0.222381,-2.90981 -0.375,-4.15625 C 42.954722,19.066284 34.403892,14.5 24,14.5 Z" />
            <path
               transform="translate(0,4)"
               style="fill:url(#radialGradient6246);fill-opacity:1;stroke:none"
               id="path2932"
               d="m 10.277344,18.03125 c -0.7076333,-0.09867 -1.4447576,-0.05396 -2.1855471,0.144531 -2.9519842,0.790983 -4.7066922,3.812828 -3.9160157,6.763672 0.044861,0.167424 0.1188349,0.328688 0.1816407,0.492188 L 14.935547,22.589844 c -0.02396,-0.180618 -0.03739,-0.369999 -0.08008,-0.529297 -0.593055,-2.213312 -2.444371,-3.731773 -4.578125,-4.029297 z" />
            <path
               transform="translate(0,4)"
               style="fill:url(#radialGradient6248);fill-opacity:1;stroke:none"
               id="path2934"
               d="m 37.753906,18.037109 c -2.132083,0.297292 -3.979668,1.811834 -4.572265,4.023438 -0.04676,0.174503 -0.06795,0.351221 -0.09961,0.529297 l 10.558594,2.833984 c 0.06168,-0.161175 0.133538,-0.319436 0.177734,-0.484375 0.790818,-2.951373 -0.929943,-5.96764 -3.878906,-6.757812 -0.740247,-0.198349 -1.478503,-0.24312 -2.185547,-0.144532 z" />
            <path
               transform="translate(-1.7626838e-7,4.0000004)"
               style="opacity:0.41891898;fill:none;stroke:url(#linearGradient6250);stroke-width:1;stroke-linecap:round;stroke-linejoin:miter;stroke-miterlimit:4;stroke-dasharray:none;stroke-dashoffset:0;stroke-opacity:1"
               id="path2936"
               d="m 24,11.529297 c -5.078343,0 -9.69642,1.130813 -13.082031,2.923828 -3.3856112,1.793015 -5.4651185,4.203837 -5.8359378,6.699219 a 1.0300627,1.0300627 0 0 1 -0.083984,0.279297 c -0.4705563,1.018411 -0.5998247,2.190876 -0.2851563,3.365234 -0.041434,-0.154633 -0.020861,-0.120236 0.052734,0.121094 0.00774,0.02538 -0.0019,0.01401 0.00391,0.03711 a 1.0300627,1.0300627 0 0 1 0.039063,0.212891 c -0.00703,-0.08744 -0.00181,-0.01843 0.029297,0.09766 a 1.0300627,1.0300627 0 0 1 0.00586,0.01563 l 0.2460938,0.986328 c 0.069403,0.2534 0.2812538,0.373001 0.5507812,0.300781 a 1.0300627,1.0300627 0 0 1 0,-0.002 l 8.78125,-2.34375 c 0.254183,-0.06908 0.375062,-0.28085 0.302734,-0.550781 a 1.0300627,1.0300627 0 0 1 -0.0059,-0.01563 l -0.248047,-0.990234 c 0.0168,0.06233 0.01179,0.0395 -0.04883,-0.08203 a 1.0300627,1.0300627 0 0 1 -0.08594,-0.246093 c -0.03883,-0.184053 -0.04326,-0.230592 -0.01758,-0.134766 C 14.148777,21.570235 13.851978,21.01337 13.460938,20.5 A 1.0300627,1.0300627 0 0 1 13.375,19.384766 c 1.659329,-3.071665 5.835187,-4.914063 10.625,-4.914063 4.789814,0 8.965672,1.842397 10.625,4.914063 a 1.0300627,1.0300627 0 0 1 -0.08594,1.113281 c -0.376082,0.49464 -0.650758,1.050425 -0.826171,1.705078 -0.0053,0.01967 -0.01261,0.05603 -0.02539,0.107422 a 1.0300627,1.0300627 0 0 1 -0.101562,0.253906 c -0.05501,0.09841 -0.06545,0.13523 -0.05664,0.101563 L 33.28125,23.65625 a 1.0300627,1.0300627 0 0 1 -0.0059,0.01563 c -0.07233,0.26993 0.04855,0.481699 0.302734,0.550781 l 8.78125,2.34375 a 1.0300627,1.0300627 0 0 1 0,0.002 c 0.269529,0.07222 0.481378,-0.04738 0.550781,-0.300781 L 43.15625,25.28125 a 1.0300627,1.0300627 0 0 1 0.0059,-0.01563 c 0.0311,-0.116081 0.03632,-0.185097 0.0293,-0.09766 -0.01266,0.157628 -0.0098,0.148619 0,-0.01172 a 1.0300627,1.0300627 0 0 1 0.04297,-0.238281 c 0.07359,-0.241319 0.09416,-0.275711 0.05273,-0.121094 0.321296,-1.199093 0.181919,-2.41778 -0.310547,-3.445313 a 1.0300627,1.0300627 0 0 1 -0.08594,-0.279296 C 42.486757,18.593543 40.393872,16.200246 37.017578,14.423828 33.641284,12.64741 29.051262,11.529297 24,11.529297 Z" />
          </g>
          <path
             style="display:inline;opacity:0.8;fill:url(#linearGradient6232);fill-opacity:1;stroke:none"
             id="path2867"
             d="m -25.40625,8.0625 -2.375,4.125 c 0.457297,0.501182 1.112349,0.8125 1.84375,0.8125 1.379999,0 2.499997,-1.12 2.5,-2.5 0,-1.196763 -0.845015,-2.192714 -1.96875,-2.4375 z" />
          <path
             style="display:inline;opacity:0.8;fill:url(#linearGradient6229);fill-opacity:1;stroke:none"
             id="path2876"
             d="m -44.1875,29.6875 -4.15625,2.4375 c 0.280181,1.074325 1.244558,1.875 2.40625,1.875 1.379999,0 2.499997,-1.12 2.5,-2.5 0,-0.7061 -0.278764,-1.357739 -0.75,-1.8125 z" />
          <circle
             r="0.734375"
             cy="6.578125"
             cx="91.234375"
             transform="translate(-118.5,1.1875)"
             style="fill:#ecfbdd;fill-opacity:1;stroke:none"
             id="path2864" />
          <circle
             r="0.734375"
             cy="6.578125"
             cx="91.234375"
             transform="translate(-136.96875,22.15625)"
             style="display:inline;fill:#ecfbdd;fill-opacity:1;stroke:none"
             id="path2866" />
          <g
             style="display:inline"
             id="g6005">
            <g
               transform="rotate(135,-5.4135054,12.04886)"
               id="g6009">
              <rect
                 y="28.027283"
                 x="-3.9337273"
                 width="12.034268"
                 transform="rotate(-14.999995)"
                 style="fill:#8ae234;fill-opacity:1;stroke:#4e9a06;stroke-width:1.00000119;stroke-linecap:round;stroke-linejoin:miter;stroke-miterlimit:4;stroke-dasharray:none;stroke-dashoffset:0;stroke-opacity:1"
                 ry="1.4805068"
                 rx="1.4805068"
                 id="rect6011"
                 height="4.0000005" />
              <rect
                 y="15.599967"
                 x="-50.304844"
                 width="12.034268"
                 transform="matrix(-0.965926,-0.258819,-0.258819,0.965926,0,0)"
                 style="fill:#8ae234;fill-opacity:1;stroke:#4e9a06;stroke-width:1.00000107;stroke-linecap:round;stroke-linejoin:miter;stroke-miterlimit:4;stroke-dasharray:none;stroke-dashoffset:0;stroke-opacity:1"
                 ry="1.4805068"
                 rx="1.4805068"
                 id="rect6013"
                 height="4.0000005" />
              <path
                 style="fill:url(#radialGradient2478);fill-opacity:1;stroke:#4e9a06;stroke-width:1;stroke-linecap:round;stroke-linejoin:miter;stroke-miterlimit:4;stroke-dasharray:none;stroke-dashoffset:0;stroke-opacity:1"
                 id="path6015"
                 d="M 24,14.5 C 13.540342,14.5 4.9369948,19.115197 4.0625,25 3.4945247,26.229253 3.3411412,27.653245 3.71875,29.0625 3.8062083,29.388899 3.9270339,29.702183 4.0625,30 l 11.40625,-3.0625 c -0.03159,-0.32565 -0.06879,-0.673601 -0.15625,-1 C 15.104309,25.160519 14.74048,24.477891 14.28125,23.875 15.658933,21.324703 19.487863,19.5 24,19.5 c 4.512138,0 8.341068,1.824703 9.71875,4.375 -0.457667,0.601943 -0.792292,1.287323 -1,2.0625 -0.08746,0.326399 -0.155909,0.674351 -0.1875,1 L 43.9375,30 c 0.135466,-0.297817 0.256289,-0.611102 0.34375,-0.9375 0.385521,-1.438785 0.222381,-2.90981 -0.375,-4.15625 C 42.954722,19.066284 34.403892,14.5 24,14.5 Z" />
              <path
                 transform="translate(0,4)"
                 style="fill:url(#radialGradient2480);fill-opacity:1;stroke:none"
                 id="path6017"
                 d="m 10.277344,18.03125 c -0.7076333,-0.09867 -1.4447576,-0.05396 -2.1855471,0.144531 -2.9519842,0.790983 -4.7066922,3.812828 -3.9160157,6.763672 0.044861,0.167424 0.1188349,0.328688 0.1816407,0.492188 L 14.935547,22.589844 c -0.02396,-0.180618 -0.03739,-0.369999 -0.08008,-0.529297 -0.593055,-2.213312 -2.444371,-3.731773 -4.578125,-4.029297 z" />
              <path
                 transform="translate(0,4)"
                 style="fill:url(#radialGradient2482);fill-opacity:1;stroke:none"
                 id="path6019"
                 d="m 37.753906,18.037109 c -2.132083,0.297292 -3.979668,1.811834 -4.572265,4.023438 -0.04676,0.174503 -0.06795,0.351221 -0.09961,0.529297 l 10.558594,2.833984 c 0.06168,-0.161175 0.133538,-0.319436 0.177734,-0.484375 0.790818,-2.951373 -0.929943,-5.96764 -3.878906,-6.757812 -0.740247,-0.198349 -1.478503,-0.24312 -2.185547,-0.144532 z" />
              <path
                 transform="translate(-1.7626838e-7,4.0000004)"
                 style="opacity:0.41891898;fill:none;stroke:url(#linearGradient2751);stroke-width:1;stroke-linecap:round;stroke-linejoin:miter;stroke-miterlimit:4;stroke-dasharray:none;stroke-dashoffset:0;stroke-opacity:1"
                 id="path6021"
                 d="m 24,11.529297 c -5.078343,0 -9.69642,1.130813 -13.082031,2.923828 -3.3856112,1.793015 -5.4651185,4.203837 -5.8359378,6.699219 a 1.0300627,1.0300627 0 0 1 -0.083984,0.279297 c -0.4705563,1.018411 -0.5998247,2.190876 -0.2851563,3.365234 -0.041434,-0.154633 -0.020861,-0.120236 0.052734,0.121094 0.00774,0.02538 -0.0019,0.01401 0.00391,0.03711 a 1.0300627,1.0300627 0 0 1 0.039063,0.212891 c -0.00703,-0.08744 -0.00181,-0.01843 0.029297,0.09766 a 1.0300627,1.0300627 0 0 1 0.00586,0.01563 l 0.2460938,0.986328 c 0.069403,0.2534 0.2812538,0.373001 0.5507812,0.300781 a 1.0300627,1.0300627 0 0 1 0,-0.002 l 8.78125,-2.34375 c 0.254183,-0.06908 0.375062,-0.28085 0.302734,-0.550781 a 1.0300627,1.0300627 0 0 1 -0.0059,-0.01563 l -0.248047,-0.990234 c 0.0168,0.06233 0.01179,0.0395 -0.04883,-0.08203 a 1.0300627,1.0300627 0 0 1 -0.08594,-0.246093 c -0.03883,-0.184053 -0.04326,-0.230592 -0.01758,-0.134766 C 14.148777,21.570235 13.851978,21.01337 13.460938,20.5 A 1.0300627,1.0300627 0 0 1 13.375,19.384766 c 1.659329,-3.071665 5.835187,-4.914063 10.625,-4.914063 4.789814,0 8.965672,1.842397 10.625,4.914063 a 1.0300627,1.0300627 0 0 1 -0.08594,1.113281 c -0.376082,0.49464 -0.650758,1.050425 -0.826171,1.705078 -0.0053,0.01967 -0.01261,0.05603 -0.02539,0.107422 a 1.0300627,1.0300627 0 0 1 -0.101562,0.253906 c -0.05501,0.09841 -0.06545,0.13523 -0.05664,0.101563 L 33.28125,23.65625 a 1.0300627,1.0300627 0 0 1 -0.0059,0.01563 c -0.07233,0.26993 0.04855,0.481699 0.302734,0.550781 l 8.78125,2.34375 a 1.0300627,1.0300627 0 0 1 0,0.002 c 0.269529,0.07222 0.481378,-0.04738 0.550781,-0.300781 L 43.15625,25.28125 a 1.0300627,1.0300627 0 0 1 0.0059,-0.01563 c 0.0311,-0.116081 0.03632,-0.185097 0.0293,-0.09766 -0.01266,0.157628 -0.0098,0.148619 0,-0.01172 a 1.0300627,1.0300627 0 0 1 0.04297,-0.238281 c 0.07359,-0.241319 0.09416,-0.275711 0.05273,-0.121094 0.321296,-1.199093 0.181919,-2.41778 -0.310547,-3.445313 a 1.0300627,1.0300627 0 0 1 -0.08594,-0.279296 C 42.486757,18.593543 40.393872,16.200246 37.017578,14.423828 33.641284,12.64741 29.051262,11.529297 24,11.529297 Z" />
            </g>
            <path
               style="display:inline;opacity:0.90540538;fill:url(#linearGradient3890);fill-opacity:1;stroke:none"
               id="path6023"
               d="m -25.40625,8.0625 -2.375,4.125 c 0.457297,0.501182 1.112349,0.8125 1.84375,0.8125 1.379999,0 2.499997,-1.12 2.5,-2.5 0,-1.196763 -0.845015,-2.192714 -1.96875,-2.4375 z" />
            <path
               style="display:inline;opacity:0.90540538;fill:url(#linearGradient3887);fill-opacity:1;stroke:none"
               id="path6025"
               d="m -44.1875,29.6875 -4.15625,2.4375 c 0.280181,1.074325 1.244558,1.875 2.40625,1.875 1.379999,0 2.499997,-1.12 2.5,-2.5 0,-0.7061 -0.278764,-1.357739 -0.75,-1.8125 z" />
            <circle
               r="0.734375"
               cy="6.578125"
               cx="91.234375"
               transform="translate(-118.5,1.1875)"
               style="fill:#ecfbdd;fill-opacity:1;stroke:none"
               id="path6027" />
            <circle
               r="0.734375"
               cy="6.578125"
               cx="91.234375"
               transform="translate(-136.96875,22.15625)"
               style="display:inline;fill:#ecfbdd;fill-opacity:1;stroke:none"
               id="path6029" />
          </g>
        </g>
      </g>
    </g>
    <g
       transform="translate(303,126)"
       style="display:inline;enable-background:new"
       id="g32">
      <g
         transform="matrix(0.6671139,0,0,0.6671139,40.723871,-0.732604)"
         style="display:inline"
         id="g6165">
        <rect
           y="31.719082"
           x="-59.805828"
           width="39.265091"
           style="opacity:0.2;fill:url(#radialGradient6205);fill-opacity:1;stroke:none"
           id="rect6167"
           height="11.85473" />
        <g
           transform="rotate(135,-5.4135054,12.04886)"
           id="g6169">
          <rect
             y="28.78261"
             x="-3.9303646"
             width="12.03427"
             transform="rotate(-14.999998)"
             style="fill:#8ae234;fill-opacity:1;stroke:#4e9a06;stroke-width:1.49899638;stroke-linecap:round;stroke-linejoin:miter;stroke-miterlimit:4;stroke-dasharray:none;stroke-dashoffset:0;stroke-opacity:1"
             ry="2.0000005"
             rx="2.0000005"
             id="rect6171"
             height="4.000001" />
          <rect
             y="16.252417"
             x="-50.685425"
             width="12.03427"
             transform="matrix(-0.9659258,-0.258819,-0.258819,0.9659258,0,0)"
             style="fill:#8ae234;fill-opacity:1;stroke:#4e9a06;stroke-width:1.49899614;stroke-linecap:round;stroke-linejoin:miter;stroke-miterlimit:4;stroke-dasharray:none;stroke-dashoffset:0;stroke-opacity:1"
             ry="2.0000005"
             rx="2.0000005"
             id="rect6173"
             height="4.000001" />
          <path
             style="fill:url(#radialGradient6193);fill-opacity:1;stroke:#4e9a06;stroke-width:1.49899435;stroke-linecap:round;stroke-linejoin:miter;stroke-miterlimit:4;stroke-dasharray:none;stroke-dashoffset:0;stroke-opacity:1"
             id="path6175"
             d="M 24,14.5 C 13.540342,14.5 4.9369948,19.115197 4.0625,25 3.4945247,26.229253 3.3411412,27.653245 3.71875,29.0625 3.8062083,29.388899 3.9270339,29.702183 4.0625,30 l 11.40625,-3.0625 c -0.03159,-0.32565 -0.06879,-0.673601 -0.15625,-1 C 15.104309,25.160519 14.74048,24.477891 14.28125,23.875 15.658933,21.324703 19.487863,19.5 24,19.5 c 4.512138,0 8.341068,1.824703 9.71875,4.375 -0.457667,0.601943 -0.792292,1.287323 -1,2.0625 -0.08746,0.326399 -0.155909,0.674351 -0.1875,1 L 43.9375,30 c 0.135466,-0.297817 0.256289,-0.611102 0.34375,-0.9375 0.385521,-1.438785 0.222381,-2.90981 -0.375,-4.15625 C 42.954722,19.066284 34.403892,14.5 24,14.5 Z" />
          <path
             transform="translate(0,4)"
             style="fill:url(#radialGradient6195);fill-opacity:1;stroke:none"
             id="path6177"
             d="m 10.277344,18.03125 c -0.7076333,-0.09867 -1.4447576,-0.05396 -2.1855471,0.144531 -2.9519842,0.790983 -4.7066922,3.812828 -3.9160157,6.763672 0.044861,0.167424 0.1188349,0.328688 0.1816407,0.492188 L 14.935547,22.589844 c -0.02396,-0.180618 -0.03739,-0.369999 -0.08008,-0.529297 -0.593055,-2.213312 -2.444371,-3.731773 -4.578125,-4.029297 z" />
          <path
             transform="translate(0,4)"
             style="fill:url(#radialGradient6197);fill-opacity:1;stroke:none"
             id="path6179"
             d="m 37.753906,18.037109 c -2.132083,0.297292 -3.979668,1.811834 -4.572265,4.023438 -0.04676,0.174503 -0.06795,0.351221 -0.09961,0.529297 l 10.558594,2.833984 c 0.06168,-0.161175 0.133538,-0.319436 0.177734,-0.484375 0.790818,-2.951373 -0.929943,-5.96764 -3.878906,-6.757812 -0.740247,-0.198349 -1.478503,-0.24312 -2.185547,-0.144532 z" />
          <path
             transform="translate(-1.7626838e-7,4.0000004)"
             style="opacity:0.61711713;fill:none;stroke:url(#linearGradient6199);stroke-width:1.49899399;stroke-linecap:round;stroke-linejoin:round;stroke-miterlimit:4;stroke-dashoffset:0;stroke-opacity:1"
             id="path6181"
             d="m 24,11.96875 c -5.014472,0 -9.566124,1.122623 -12.875,2.875 C 7.8161239,16.596127 5.842811,18.911847 5.5,21.21875 5.488286,21.357945 5.456716,21.494748 5.40625,21.625 4.9767687,22.554514 4.8368692,23.612181 5.125,24.6875 5.059884,24.444485 5.089848,24.461033 5.1875,24.78125 c 0.00634,0.0208 -0.0054,0.01155 0,0.03125 0.03214,0.101583 0.053097,0.20637 0.0625,0.3125 -0.013005,-0.161852 -0.034107,-0.09604 0,0.03125 1.112e-4,0.01042 1.112e-4,0.02083 0,0.03125 l 0.3905307,1.608966 c 0.00786,0.02935 -0.019499,-0.01765 0.03125,-0.03125 l 8.7812503,-2.34375 c 0.02935,-0.0079 0.0136,0.0195 0,-0.03125 C 14.45292,24.3798 14.312389,23.760416 14.3125,23.75 l -0.25,-1 c 0.04318,0.161153 0.04273,0.179577 -0.03125,0.03125 -0.05587,-0.108909 -0.09786,-0.224393 -0.125,-0.34375 -0.04967,-0.235435 -0.04339,-0.286935 0,-0.125 C 13.752947,21.740363 13.487289,21.225624 13.125,20.75 12.784621,20.297186 12.735939,19.688669 13,19.1875 c 1.778079,-3.29149 6.09311,-5.15625 11,-5.15625 4.906891,0 9.221922,1.864759 11,5.15625 0.264061,0.501169 0.215379,1.109686 -0.125,1.5625 -0.341684,0.449397 -0.588203,0.958664 -0.75,1.5625 -0.0028,0.01057 -0.01747,0.03835 -0.03125,0.09375 -0.02453,0.130075 -0.06658,0.256224 -0.125,0.375 -0.05805,0.10385 -0.06281,0.117798 -0.03125,0 l -0.156313,1.530873 c 1.11e-4,0.01042 1.11e-4,0.02083 0,0.03125 -0.0136,0.05075 -0.02935,0.02339 0,0.03125 l 8.78125,2.34375 c 0,0 -0.0703,-0.532771 -0.06244,-0.562123 l 0.25,-0.96875 c -1.11e-4,-0.01042 -1.11e-4,-0.02083 0,-0.03125 0.03411,-0.127285 0.013,-0.193103 0,-0.03125 0.007,-0.116667 0.02802,-0.232071 0.0625,-0.34375 0.09765,-0.320201 0.127612,-0.336742 0.0625,-0.09375 0.294216,-1.098031 0.16698,-2.221016 -0.28125,-3.15625 -0.05842,-0.118776 -0.100473,-0.244925 -0.125,-0.375 C 42.095196,18.863576 40.112545,16.548801 36.8125,14.8125 33.512455,13.076199 28.987729,11.96875 24,11.96875 Z" />
        </g>
        <path
           style="display:inline;fill:url(#linearGradient6201);fill-opacity:1;stroke:none"
           id="path6183"
           d="m -25.40625,8.0625 -2.375,4.125 c 0.457297,0.501182 1.112349,0.8125 1.84375,0.8125 1.379999,0 2.499997,-1.12 2.5,-2.5 0,-1.196763 -0.845015,-2.192714 -1.96875,-2.4375 z" />
        <path
           style="display:inline;fill:url(#linearGradient6203);fill-opacity:1;stroke:none"
           id="path6185"
           d="m -44.1875,29.6875 -4.15625,2.4375 c 0.280181,1.074325 1.244558,1.875 2.40625,1.875 1.379999,0 2.499997,-1.12 2.5,-2.5 0,-0.7061 -0.278764,-1.357739 -0.75,-1.8125 z" />
        <circle
           r="0.734375"
           cy="6.578125"
           cx="91.234375"
           transform="translate(-118.5,1.1875)"
           style="fill:#ecfbdd;fill-opacity:1;stroke:none"
           id="path6187" />
        <circle
           r="0.734375"
           cy="6.578125"
           cx="91.234375"
           transform="translate(-136.96875,22.15625)"
           style="display:inline;fill:#ecfbdd;fill-opacity:1;stroke:none"
           id="path6189" />
      </g>
    </g>
    <g
       transform="translate(303,177)"
       style="display:inline;enable-background:new"
       id="g22">
      <g
         transform="translate(30,-1)"
         id="g2662">
        <g
           transform="translate(-28,2)"
           id="g6412">
          <rect
             y="15.818558"
             x="0.1746521"
             width="15.505809"
             style="opacity:0.2;fill:url(#radialGradient6428);fill-opacity:1;stroke:none"
             id="rect2492"
             height="4.6814399" />
          <g
             id="g6398">
            <g
               transform="matrix(-0.3562162,0.3562162,-0.3562162,-0.3562162,27.515344,10.354246)"
               id="g2500">
              <path
                 style="fill:url(#radialGradient6430);fill-opacity:1;stroke:#448705;stroke-width:1.78654456;stroke-linecap:round;stroke-linejoin:round;stroke-miterlimit:4;stroke-dasharray:none;stroke-dashoffset:0;stroke-opacity:1"
                 id="path2542"
                 d="m 24,13.998047 c -5.303646,0 -10.142539,1.165196 -13.798828,3.101562 -3.6195023,1.916884 -6.1000223,4.614551 -6.6054689,7.734375 -0.5995919,1.322432 -0.7653106,2.851692 -0.3613281,4.359375 0.096588,0.360472 0.2272733,0.697488 0.3710938,1.013672 a 0.50193566,0.50193566 0 0 0 0.5878906,0.277344 l 11.4062496,-3.0625 a 0.50193566,0.50193566 0 0 0 0.369141,-0.533203 c -0.03193,-0.329139 -0.07054,-0.703865 -0.171875,-1.082031 -0.190002,-0.7091 -0.517789,-1.328853 -0.902344,-1.896485 1.347589,-2.19305 4.86683,-3.908203 9.105469,-3.908203 4.26306,0 7.807131,1.732031 9.136719,3.943359 -0.376709,0.570581 -0.716363,1.167237 -0.902344,1.861329 -0.09359,0.349295 -0.168124,0.721231 -0.203125,1.082031 a 0.50193566,0.50193566 0 0 0 0.369141,0.533203 l 11.40625,3.0625 a 0.50193566,0.50193566 0 0 0 0.58789,-0.277344 c 0.143822,-0.316186 0.274504,-0.653207 0.371094,-1.013672 0.413054,-1.541538 0.239645,-3.119655 -0.394531,-4.464843 C 43.823292,21.636413 41.338506,18.965681 37.732422,17.068359 34.087165,15.150428 29.275372,13.998047 24,13.998047 Z" />
              <path
                 transform="translate(0,4)"
                 style="fill:url(#radialGradient6432);fill-opacity:1;stroke:none"
                 id="path2508"
                 d="m 10.277344,18.03125 c -0.7076333,-0.09867 -1.4447576,-0.05396 -2.1855471,0.144531 -2.9519842,0.790983 -4.7066922,3.812828 -3.9160157,6.763672 0.044861,0.167424 0.1188349,0.328688 0.1816407,0.492188 L 14.935547,22.589844 c -0.02396,-0.180618 -0.03739,-0.369999 -0.08008,-0.529297 -0.593055,-2.213312 -2.444371,-3.731773 -4.578125,-4.029297 z" />
              <rect
                 y="28.702452"
                 x="-4.0504165"
                 width="12.03427"
                 transform="rotate(-14.999998)"
                 style="fill:#8ae234;fill-opacity:1;stroke:url(#linearGradient6434);stroke-width:1.58803964;stroke-linecap:round;stroke-linejoin:miter;stroke-miterlimit:4;stroke-dasharray:none;stroke-dashoffset:0;stroke-opacity:1"
                 ry="1.480507"
                 rx="1.480507"
                 id="rect2502"
                 height="4.000001" />
              <path
                 transform="translate(0,4)"
                 style="fill:url(#radialGradient6436);fill-opacity:1;stroke:none"
                 id="path2510"
                 d="m 37.753906,18.037109 c -2.132083,0.297292 -3.979668,1.811834 -4.572265,4.023438 -0.04676,0.174503 -0.06795,0.351221 -0.09961,0.529297 l 10.558594,2.833984 c 0.06168,-0.161175 0.133538,-0.319436 0.177734,-0.484375 0.790818,-2.951373 -0.929943,-5.96764 -3.878906,-6.757812 -0.740247,-0.198349 -1.478503,-0.24312 -2.185547,-0.144532 z" />
              <rect
                 y="16.243025"
                 x="-50.541378"
                 width="12.03427"
                 transform="matrix(-0.9659258,-0.258819,-0.258819,0.9659258,0,0)"
                 style="fill:#8ae234;fill-opacity:1;stroke:url(#linearGradient6438);stroke-width:1.58803964;stroke-linecap:round;stroke-linejoin:miter;stroke-miterlimit:4;stroke-dasharray:none;stroke-dashoffset:0;stroke-opacity:1"
                 ry="1.480507"
                 rx="1.480507"
                 id="rect2504"
                 height="4.000001" />
            </g>
            <path
               style="display:inline;opacity:0.8;fill:url(#linearGradient6442);fill-opacity:1;stroke:none"
               id="path2514"
               d="m 15.080066,2.125678 -1.196443,2.078033 c 0.23037,0.252478 0.560363,0.409309 0.928818,0.409309 0.695196,0 1.259412,-0.564217 1.259414,-1.259414 0,-0.602888 -0.42569,-1.104614 -0.991789,-1.227928 z" />
            <path
               style="display:inline;opacity:0.8;fill:url(#linearGradient6444);fill-opacity:1;stroke:none"
               id="path2516"
               d="m 5.618718,13.019609 -2.093775,1.227929 c 0.141145,0.541207 0.626965,0.94456 1.212186,0.94456 0.695196,0 1.259412,-0.564217 1.259414,-1.259414 0,-0.355709 -0.140432,-0.683982 -0.377825,-0.913075 z" />
            <circle
               r="0.734375"
               cy="6.578125"
               cx="91.234375"
               transform="matrix(0.6645941,0,0,0.6808511,-46.62189,-2.478724)"
               style="fill:#ecfbdd;fill-opacity:1;stroke:none"
               id="path2518" />
            <circle
               r="0.734375"
               cy="6.578125"
               cx="91.234375"
               transform="matrix(0.6808513,0,0,0.6808513,-57.617046,8.021275)"
               style="display:inline;fill:#ecfbdd;fill-opacity:1;stroke:none"
               id="path2520" />
            <circle
               r="0.734375"
               cy="6.578125"
               cx="91.234375"
               transform="matrix(0.6808513,0,0,0.6808513,-51.797703,9.341781)"
               style="display:inline;fill:#ecfbdd;fill-opacity:1;stroke:none"
               id="path2791" />
          </g>
        </g>
        <path
           style="display:inline;opacity:0.30180179;fill:none;stroke:#ffffff;stroke-width:1;stroke-linecap:round;stroke-linejoin:round;stroke-miterlimit:4;stroke-dasharray:none;stroke-dashoffset:0;stroke-opacity:1"
           id="path8163"
           d="m -13.365234,3.65625 c -0.07858,0.1377137 -0.173086,0.3734968 -0.408204,0.7089844 l 0.05078,-0.078125 c -0.581506,1.0280314 -1.169891,2.0113664 -1.71875,3.0058594 0.150771,0.1429405 0.539929,0.3610295 0.779297,0.9882812 l -0.341797,-0.4414062 c 0.09552,0.067999 0.459099,0.1634637 0.949218,0.4609374 0.24506,0.1487369 0.554514,0.4060327 0.716797,0.8085938 0.156687,0.38868 0.120425,0.8194713 0.0059,1.203125 -0.378425,2.764272 -2.456035,4.968683 -4.900391,5.957031 a 0.96411183,0.96411183 0 0 1 -0.123047,0.03906 c -0.229462,0.05854 -0.799631,0.279506 -1.435547,0.361328 -0.317957,0.04091 -0.678717,0.06358 -1.09375,-0.0957 -0.415032,-0.159286 -0.830165,-0.602396 -0.955078,-1.080078 a 0.96411183,0.96411183 0 0 1 -0.02539,-0.148438 c -0.02211,-0.221104 -0.179927,-0.283514 -0.658204,-0.619141 a 0.96411183,0.96411183 0 0 1 -0.210937,-0.205078 c -0.0457,0.01756 -0.07441,0.02342 -0.109375,0.05078 a 0.96411183,0.96411183 0 0 1 -0.107422,0.07226 c -1.135944,0.664275 -2.273799,1.308975 -3.375,1.972657 0.08573,0.16779 0.265534,0.404154 0.316406,0.949218 l -0.05273,-0.240234 c 0.130504,0.359281 0.780878,0.86843 1.347656,1.160156 a 0.96411183,0.96411183 0 0 1 0.01563,0.0098 c 0.72118,0.389061 1.520439,0.656585 2.232422,0.634765 a 0.96411183,0.96411183 0 0 1 0.01758,-0.002 c 2.582827,-0.03402 5.015722,-1.453063 7.050781,-3.251953 2.244548,-2.060721 4.121847,-4.646602 4.56836,-7.5468749 0.151414,-1.0926749 -0.01277,-2.2167321 -0.582031,-3.0234375 a 0.96411183,0.96411183 0 0 1 -0.107422,-0.1953125 c -0.262213,-0.6481786 -0.813001,-1.2112056 -1.339844,-1.3242187 l 0.660156,-0.095703 c -0.291856,0.157508 -0.685088,0.1577293 -0.914062,0.087891 -0.138156,-0.042139 -0.18066,-0.080802 -0.251953,-0.1230469 z" />
        <path
           style="display:inline;opacity:0.41891892;fill:none;stroke:#ffffff;stroke-width:1;stroke-linecap:round;stroke-linejoin:round;stroke-miterlimit:4;stroke-dashoffset:0;stroke-opacity:1"
           id="path8167"
           d="m -20.875,16.5625 c -0.415032,-0.159286 -0.843837,-0.584818 -0.96875,-1.0625 -0.01471,-0.05113 -0.02516,-0.103394 -0.03125,-0.15625 -0.02211,-0.221104 -0.177973,-0.289374 -0.65625,-0.625 -0.07084,-0.05357 -0.133934,-0.116662 -0.1875,-0.1875 -0.0463,0.01762 -0.0891,0.0032 -0.125,0.03125 -0.02906,0.03336 -0.06039,0.06469 -0.09375,0.09375 -1.134628,0.663506 -2.274974,1.305885 -3.375,1.96875 M -12.84375,3.78125 V 3.75 c -0.09134,-0.00595 -0.212482,0.052225 -0.28125,0.03125 -0.138645,-0.042288 -0.178637,-0.08265 -0.25,-0.125 -0.06785,0.1205689 -0.169233,0.3535784 -0.34375,0.625 -0.02751,0.042794 -0.03091,0.048678 -0.0625,0.09375 -0.559966,0.9859836 -1.127924,1.9500382 -1.65625,2.90625 0.08532,0.08035 0.269141,0.3711069 0.4375,0.5625" />
        <path
           style="display:inline;opacity:0.56756759;fill:none;stroke:url(#radialGradient8180);stroke-width:1;stroke-linecap:round;stroke-linejoin:round;stroke-miterlimit:4;stroke-dashoffset:0;stroke-opacity:1"
           id="path8170"
           d="m -15.4375,7.28125 c 0.08532,0.08035 0.269141,0.3711069 0.4375,0.5625 0.09552,0.067999 0.44738,0.1712763 0.9375,0.46875 0.24506,0.1487369 0.556467,0.3786889 0.71875,0.78125 0.137941,0.342177 0.08052,0.7155113 0,1.0625 h 0.0625 c -0.0075,0.06635 -0.05299,0.121792 -0.0625,0.1875 -0.396592,2.740932 -2.445283,4.95507 -4.875,5.9375 -0.04092,0.01319 -0.08268,0.02363 -0.125,0.03125 -0.229463,0.05854 -0.801585,0.261928 -1.4375,0.34375 -0.317958,0.04091 -0.678718,0.06554 -1.09375,-0.09375 -0.415032,-0.159286 -0.843837,-0.584818 -0.96875,-1.0625 -0.01471,-0.05113 -0.02516,-0.103394 -0.03125,-0.15625" />
      </g>
    </g>
    <g
       transform="translate(303,219)"
       style="display:inline;enable-background:new"
       id="g16">
      <g
         transform="translate(0,-40)"
         id="g8088">
        <g
           transform="matrix(-0.7503429,0.7504588,-0.6970499,-0.6971576,55.72467,96.476402)"
           style="display:inline;fill:#cc0000;stroke:none"
           id="g7984">
          <path
             style="display:inline;fill:url(#radialGradient8101);fill-opacity:1;stroke:none"
             id="path7986"
             d="m -0.5,65.5 c -3.5,0 -6.9625267,1 -6.9625267,5 0,2 4.644876,1 4.644876,0.125 0,-0.65178 0,-0.625 0,-0.625 0,-1.5 0.4644876,-1.5 2.3176507,-1.5 1.8531631,0 2.3272253,0 2.3272253,1.5 0,0 0,-0.02678 0,0.625 0,0.875 4.644876,1.875 4.644876,-0.125 0,-4 -3.4721013,-5 -6.9721013,-5 z" />
        </g>
        <ellipse
           ry="1.5"
           rx="1.75"
           cy="29.5"
           cx="2.75"
           transform="matrix(-0.9957856,0.9959394,-1.0455751,-1.0457366,37.574644,79.074207)"
           style="fill:url(#radialGradient8103);fill-opacity:1;stroke:none"
           id="use7988" />
        <ellipse
           ry="1.5"
           rx="1.75"
           cy="29.5"
           cx="2.75"
           transform="matrix(-0.9957856,0.9959394,-1.0455751,-1.0457366,44.545143,72.102631)"
           style="display:inline;fill:url(#radialGradient8105);fill-opacity:1;stroke:none"
           id="path7990" />
        <path
           transform="matrix(-0.7503429,0.7504588,-0.6970499,-0.6971576,48.754172,89.504825)"
           style="display:inline;opacity:0.3;fill:none;stroke:#ffffff;stroke-width:0.87989759;stroke-linecap:round;stroke-linejoin:round;stroke-miterlimit:4;stroke-dasharray:none;stroke-dashoffset:0;stroke-opacity:1"
           id="path7992"
           d="m -0.5,56.339844 c -1.6699341,0 -3.2826277,0.259598 -4.3769531,0.888672 -1.0943255,0.629073 -1.7519531,1.514497 -1.7519531,3.271484 0,0.173794 -0.034877,0.111859 0.1992187,0.205078 0.2340958,0.09322 0.7142873,0.144321 1.2109375,0.09766 0.4966502,-0.04667 1.0160321,-0.178523 1.3496094,-0.320312 0.1151344,-0.04894 0.1610645,-0.08366 0.2167968,-0.119141 V 60 c 1e-7,-0.417907 0.020755,-0.77614 0.1445313,-1.138672 0.123776,-0.362532 0.410488,-0.727162 0.7558594,-0.914062 0.6907428,-0.373801 1.3253716,-0.28711 2.2519531,-0.28711 0.92658155,0 1.5612103,-0.08669 2.2519531,0.28711 0.3453714,0.1869 0.6320834,0.55153 0.7558594,0.914062 C 2.6315885,59.22386 2.6523438,59.582093 2.6523438,60 v 0.363281 c 0.055732,0.03548 0.1016624,0.0702 0.2167968,0.119141 0.3335774,0.141789 0.8529592,0.273647 1.3496094,0.320312 0.4966502,0.04666 0.9768417,-0.0044 1.2109375,-0.09766 C 5.6637833,60.611859 5.6289062,60.673794 5.6289062,60.5 5.6289063,58.743013 4.9712786,57.857589 3.8769531,57.228516 2.7826276,56.599442 1.1699341,56.339844 -0.5,56.339844 Z" />
        <g
           transform="matrix(-0.7503429,0.7504588,-0.6970499,-0.6971576,38.754171,89.504826)"
           style="display:inline;fill:none"
           id="g7994">
          <path
             style="display:inline;fill:none;stroke:#448705;stroke-width:0.87989759;stroke-linecap:round;stroke-linejoin:round;stroke-miterlimit:4;stroke-dasharray:none;stroke-dashoffset:0;stroke-opacity:1"
             id="path7996"
             d="m -7.1636202,48.326913 c -3.4999998,0 -6.9625268,1 -6.9625268,5 0,2 4.6448761,1 4.6448761,0.125 0,-0.65178 0,-0.625 0,-0.625 0,-1.5 0.4644876,-1.5 2.3176507,-1.5 1.8531631,0 2.3272253,0 2.3272253,1.5 0,0 0,-0.02678 0,0.625 0,0.875 4.64487599,1.875 4.64487599,-0.125 0,-4 -3.47210129,-5 -6.97210129,-5 z" />
        </g>
        <circle
           r="0.75"
           cy="28.75"
           cx="2.75"
           transform="matrix(-0.9293998,0.9295434,-0.9293998,-0.9295434,40.790465,67.653909)"
           style="display:inline;opacity:0.56306308;fill:#ffffff;fill-opacity:1;stroke:none"
           id="path8000" />
        <path
           transform="matrix(-0.7503429,0.7504588,-0.6970499,-0.6971576,48.754172,89.504825)"
           style="display:inline;opacity:0.68468472;fill:none;stroke:#ffffff;stroke-width:0.87989759;stroke-linecap:round;stroke-linejoin:round;stroke-miterlimit:4;stroke-dashoffset:0;stroke-opacity:1"
           id="path8067"
           d="m 2.65625,60.375 c 0.055982,0.03543 0.1053337,0.04554 0.21875,0.09375 0.3335773,0.141789 0.8470998,0.297085 1.34375,0.34375 0.4966502,0.04666 0.9846542,-5.31e-4 1.21875,-0.09375 C 5.6715958,60.625531 5.625,60.673794 5.625,60.5 m -12.25,0 c 0,0.173794 -0.046596,0.125531 0.1875,0.21875 0.2340958,0.09322 0.7220998,0.140415 1.21875,0.09375 0.4966502,-0.04666 1.0101727,-0.201961 1.34375,-0.34375 0.1134163,-0.04821 0.1627681,-0.05832 0.21875,-0.09375" />
        <circle
           r="0.75"
           cy="28.75"
           cx="2.75"
           transform="matrix(-0.9293998,0.9295434,-0.9293998,-0.9295434,33.790465,74.682348)"
           style="display:inline;opacity:0.56306308;fill:#ffffff;fill-opacity:1;stroke:none"
           id="path8053" />
        <path
           style="display:inline;opacity:0.94144143;fill:none;stroke:url(#radialGradient8107);stroke-width:0.89999998;stroke-linecap:round;stroke-linejoin:round;stroke-miterlimit:4;stroke-dashoffset:0;stroke-opacity:1"
           id="path8070"
           d="m 9.413226,44.67007 c 0.074551,0.07456 0.18887,0.1889 0.217828,0.217862 0.026062,0.02607 0.038217,0.03822 0.043565,0.04357 0.291302,0.291347 0.507112,0.555931 0.66694,0.901561 0.159829,0.345631 0.219596,0.826944 0.09073,1.21643 -0.257736,0.778972 -0.796972,1.189246 -1.492226,1.884608 -0.695254,0.695361 -1.105465,1.234681 -1.884317,1.492456 -0.389425,0.128889 -0.870664,0.06911 -1.216241,-0.09074 -0.345577,-0.159853 -0.61012,-0.375696 -0.901422,-0.667043 -0.00535,-0.0053 -0.017504,-0.01751 -0.043566,-0.04357" />
      </g>
    </g>
  </g>
  <g
     transform="translate(-296,-50)"
     style="display:inline"
     id="layer4" />
</svg>
