<?xml version="1.0" encoding="UTF-8" standalone="no"?>
<svg
   xmlns:dc="http://purl.org/dc/elements/1.1/"
   xmlns:cc="http://creativecommons.org/ns#"
   xmlns:rdf="http://www.w3.org/1999/02/22-rdf-syntax-ns#"
   xmlns:svg="http://www.w3.org/2000/svg"
   xmlns="http://www.w3.org/2000/svg"
   xmlns:xlink="http://www.w3.org/1999/xlink"
   width="48"
   version="1.0"
   style="display:inline;enable-background:new"
   id="svg11300"
   height="48">
  <title
     id="title8836">Optical Drive</title>
  <metadata
     id="metadata154">
    <rdf:RDF>
      <cc:Work
         rdf:about="">
        <dc:format>image/svg+xml</dc:format>
        <dc:type
           rdf:resource="http://purl.org/dc/dcmitype/StillImage" />
        <dc:title />
        <dc:creator>
          <cc:Agent>
            <dc:title />
          </cc:Agent>
        </dc:creator>
        <dc:contributor>
          <cc:Agent>
            <dc:title />
          </cc:Agent>
        </dc:contributor>
        <dc:source />
        <cc:license
           rdf:resource="" />
        <dc:subject>
          <rdf:Bag />
        </dc:subject>
      </cc:Work>
    </rdf:RDF>
  </metadata>
  <defs
     id="defs3">
    <linearGradient
       id="linearGradient6019">
      <stop
         style="stop-color:#000000;stop-opacity:1;"
         offset="0"
         id="stop6021" />
      <stop
         style="stop-color:#000000;stop-opacity:0;"
         offset="1"
         id="stop6023" />
    </linearGradient>
    <linearGradient
       id="linearGradient5999">
      <stop
         style="stop-color:#c4a000;stop-opacity:1;"
         offset="0"
         id="stop6001" />
      <stop
         style="stop-color:#c4a000;stop-opacity:0;"
         offset="1"
         id="stop6003" />
    </linearGradient>
    <linearGradient
       id="linearGradient5987">
      <stop
         style="stop-color:#d7c20f;stop-opacity:1"
         offset="0"
         id="stop5989" />
      <stop
         style="stop-color:#b6970d;stop-opacity:1"
         offset="1"
         id="stop5991" />
    </linearGradient>
    <linearGradient
       id="linearGradient5981">
      <stop
         style="stop-color:#ffffff;stop-opacity:1;"
         offset="0"
         id="stop5983" />
      <stop
         style="stop-color:#ffffff;stop-opacity:0.69411765"
         offset="1"
         id="stop5985" />
    </linearGradient>
    <linearGradient
       id="linearGradient5996">
      <stop
         style="stop-color:#8f5902;stop-opacity:1;"
         offset="0"
         id="stop5998" />
      <stop
         style="stop-color:#73521e;stop-opacity:1"
         offset="1"
         id="stop6000" />
    </linearGradient>
    <linearGradient
       id="linearGradient5984">
      <stop
         style="stop-color:#ffffff;stop-opacity:1;"
         offset="0"
         id="stop5986" />
      <stop
         style="stop-color:#ffffff;stop-opacity:0.13438736"
         offset="1"
         id="stop5988" />
    </linearGradient>
    <linearGradient
       id="linearGradient5974">
      <stop
         style="stop-color:#ad7fa8;stop-opacity:1;"
         offset="0"
         id="stop5976" />
      <stop
         style="stop-color:#dac6d8;stop-opacity:1"
         offset="1"
         id="stop5978" />
    </linearGradient>
    <linearGradient
       id="linearGradient5966">
      <stop
         style="stop-color:#fdef72;stop-opacity:1"
         offset="0"
         id="stop5968" />
      <stop
         style="stop-color:#e2cb0b;stop-opacity:1"
         offset="1"
         id="stop5970" />
    </linearGradient>
    <linearGradient
       id="linearGradient5958">
      <stop
         style="stop-color:#c17d11;stop-opacity:1;"
         offset="0"
         id="stop5960" />
      <stop
         style="stop-color:#e9b96e;stop-opacity:1"
         offset="1"
         id="stop5962" />
    </linearGradient>
    <linearGradient
       y2="8"
       y1="16"
       xlink:href="#linearGradient5958"
       x2="26"
       x1="28"
       id="linearGradient5964"
       gradientUnits="userSpaceOnUse"
       gradientTransform="translate(-2)" />
    <linearGradient
       y2="30.742676"
       y1="25.060659"
       xlink:href="#linearGradient5966"
       x2="30.208115"
       x1="20.933708"
       id="linearGradient5972"
       gradientUnits="userSpaceOnUse"
       gradientTransform="translate(-2)" />
    <linearGradient
       y2="20.618719"
       y1="23.145937"
       xlink:href="#linearGradient5974"
       x2="21.59099"
       x1="27.651777"
       id="linearGradient5980"
       gradientUnits="userSpaceOnUse"
       gradientTransform="matrix(0.9768193,0,0,1,-1.3746633,0)" />
    <linearGradient
       y2="16.685888"
       y1="8"
       xlink:href="#linearGradient5984"
       x2="33.447109"
       x1="28"
       id="linearGradient5994"
       gradientUnits="userSpaceOnUse" />
    <linearGradient
       y2="18"
       y1="9.2407961"
       xlink:href="#linearGradient5996"
       x2="34"
       x1="30.324829"
       id="linearGradient6002"
       gradientUnits="userSpaceOnUse"
       gradientTransform="translate(-2)" />
    <linearGradient
       y2="37.029255"
       y1="41.955986"
       xlink:href="#linearGradient5981"
       x2="18.985712"
       x1="22.319767"
       id="linearGradient5973"
       gradientUnits="userSpaceOnUse"
       gradientTransform="translate(-2)" />
    <linearGradient
       y2="37.845814"
       y1="27.446827"
       xlink:href="#linearGradient5987"
       x2="29.494455"
       x1="17.032078"
       id="linearGradient5993"
       gradientUnits="userSpaceOnUse"
       gradientTransform="translate(-2)" />
    <linearGradient
       y2="34.728424"
       y1="36.218422"
       xlink:href="#linearGradient5999"
       x2="23.489431"
       x1="27.354809"
       id="linearGradient6005"
       gradientUnits="userSpaceOnUse"
       gradientTransform="translate(-2)" />
    <radialGradient
       xlink:href="#linearGradient6019"
       r="20"
       id="radialGradient6025"
       gradientUnits="userSpaceOnUse"
       gradientTransform="matrix(1,0,0,0.45,0,37.95)"
       fy="69"
       fx="28.603323"
       cy="69"
       cx="38" />
    <linearGradient
       y2="16.685888"
       y1="8"
       xlink:href="#linearGradient5984"
       x2="33.447109"
       x1="28"
       id="linearGradient5447"
       gradientUnits="userSpaceOnUse"
       gradientTransform="matrix(0.6076684,0,0,0.5970213,1.0527902,0.4980868)" />
    <linearGradient
       y2="18"
       y1="9.2407961"
       xlink:href="#linearGradient5996"
       x2="34"
       x1="30.324829"
       id="linearGradient6033"
       gradientUnits="userSpaceOnUse"
       gradientTransform="matrix(0.680655,0,0,0.6797837,-1.4100242,-0.1775122)" />
    <linearGradient
       y2="18"
       y1="9.2407961"
       xlink:href="#linearGradient5996"
       x2="34"
       x1="30.324829"
       id="linearGradient6036"
       gradientUnits="userSpaceOnUse"
       gradientTransform="matrix(0.680655,0,0,0.6797837,-1.4341746,-0.1822871)" />
    <linearGradient
       id="linearGradient6008">
      <stop
         style="stop-color:#a76802;stop-opacity:1"
         offset="0"
         id="stop6010" />
      <stop
         style="stop-color:#73521e;stop-opacity:1"
         offset="1"
         id="stop6012" />
    </linearGradient>
    <linearGradient
       y2="2.5"
       y1="3.5"
       xlink:href="#linearGradient6008"
       x2="14.906248"
       x1="15.5"
       id="linearGradient6006"
       gradientUnits="userSpaceOnUse"
       gradientTransform="translate(1)" />
    <radialGradient
       r="20"
       fy="69"
       fx="28.603323"
       cy="69"
       cx="38"
       gradientTransform="matrix(1,0,0,0.45,0,37.95)"
       gradientUnits="userSpaceOnUse"
       id="radialGradient458908"
       xlink:href="#linearGradient6019" />
    <linearGradient
       y2="8"
       x2="26"
       y1="16"
       x1="28"
       gradientTransform="translate(-2)"
       gradientUnits="userSpaceOnUse"
       id="linearGradient458910"
       xlink:href="#linearGradient5958" />
    <linearGradient
       y2="30.742676"
       x2="30.208115"
       y1="25.060659"
       x1="20.933708"
       gradientTransform="translate(-2)"
       gradientUnits="userSpaceOnUse"
       id="linearGradient458912"
       xlink:href="#linearGradient5966" />
    <linearGradient
       y2="37.845814"
       x2="29.494455"
       y1="27.446827"
       x1="17.032078"
       gradientTransform="translate(-2)"
       gradientUnits="userSpaceOnUse"
       id="linearGradient458914"
       xlink:href="#linearGradient5987" />
    <linearGradient
       y2="37.029255"
       x2="18.985712"
       y1="41.955986"
       x1="22.319767"
       gradientTransform="translate(-2)"
       gradientUnits="userSpaceOnUse"
       id="linearGradient458916"
       xlink:href="#linearGradient5981" />
    <linearGradient
       y2="34.728424"
       x2="23.489431"
       y1="36.218422"
       x1="27.354809"
       gradientTransform="translate(-2)"
       gradientUnits="userSpaceOnUse"
       id="linearGradient458918"
       xlink:href="#linearGradient5999" />
    <linearGradient
       y2="20.618719"
       x2="21.59099"
       y1="23.145937"
       x1="27.651777"
       gradientTransform="matrix(0.9768193,0,0,1,-1.3746633,0)"
       gradientUnits="userSpaceOnUse"
       id="linearGradient458920"
       xlink:href="#linearGradient5974" />
    <radialGradient
       r="20"
       fy="69"
       fx="28.603323"
       cy="69"
       cx="38"
       gradientTransform="matrix(1,0,0,0.45,0,37.95)"
       gradientUnits="userSpaceOnUse"
       id="radialGradient458922"
       xlink:href="#linearGradient6019" />
    <linearGradient
       y2="8"
       x2="26"
       y1="16"
       x1="28"
       gradientTransform="translate(-2)"
       gradientUnits="userSpaceOnUse"
       id="linearGradient458924"
       xlink:href="#linearGradient5958" />
    <linearGradient
       y2="18"
       x2="34"
       y1="9.2407961"
       x1="30.324829"
       gradientTransform="matrix(0.680655,0,0,0.6797837,-1.4100242,-0.1775122)"
       gradientUnits="userSpaceOnUse"
       id="linearGradient458926"
       xlink:href="#linearGradient5996" />
    <linearGradient
       y2="16.685888"
       x2="33.447109"
       y1="8"
       x1="28"
       gradientTransform="matrix(0.6076684,0,0,0.5970213,1.0527902,0.4980868)"
       gradientUnits="userSpaceOnUse"
       id="linearGradient458928"
       xlink:href="#linearGradient5984" />
    <linearGradient
       y2="30.742676"
       x2="30.208115"
       y1="25.060659"
       x1="20.933708"
       gradientTransform="translate(-2)"
       gradientUnits="userSpaceOnUse"
       id="linearGradient458930"
       xlink:href="#linearGradient5966" />
    <linearGradient
       y2="37.845814"
       x2="29.494455"
       y1="27.446827"
       x1="17.032078"
       gradientTransform="translate(-2)"
       gradientUnits="userSpaceOnUse"
       id="linearGradient458932"
       xlink:href="#linearGradient5987" />
    <linearGradient
       y2="37.029255"
       x2="18.985712"
       y1="41.955986"
       x1="22.319767"
       gradientTransform="translate(-2)"
       gradientUnits="userSpaceOnUse"
       id="linearGradient458934"
       xlink:href="#linearGradient5981" />
    <linearGradient
       y2="34.728424"
       x2="23.489431"
       y1="36.218422"
       x1="27.354809"
       gradientTransform="translate(-2)"
       gradientUnits="userSpaceOnUse"
       id="linearGradient458936"
       xlink:href="#linearGradient5999" />
    <linearGradient
       y2="20.618719"
       x2="21.59099"
       y1="23.145937"
       x1="27.651777"
       gradientTransform="matrix(0.9768193,0,0,1,-1.3746633,0)"
       gradientUnits="userSpaceOnUse"
       id="linearGradient458938"
       xlink:href="#linearGradient5974" />
    <linearGradient
       y2="8"
       x2="26"
       y1="16"
       x1="28"
       gradientTransform="translate(-2)"
       gradientUnits="userSpaceOnUse"
       id="linearGradient458940"
       xlink:href="#linearGradient5958" />
    <linearGradient
       y2="18"
       x2="34"
       y1="9.2407961"
       x1="30.324829"
       gradientTransform="matrix(0.680655,0,0,0.6797837,-1.4100242,-0.1775122)"
       gradientUnits="userSpaceOnUse"
       id="linearGradient458942"
       xlink:href="#linearGradient5996" />
    <linearGradient
       y2="30.742676"
       x2="30.208115"
       y1="25.060659"
       x1="20.933708"
       gradientTransform="translate(-2)"
       gradientUnits="userSpaceOnUse"
       id="linearGradient458944"
       xlink:href="#linearGradient5966" />
    <linearGradient
       y2="37.845814"
       x2="29.494455"
       y1="27.446827"
       x1="17.032078"
       gradientTransform="translate(-2)"
       gradientUnits="userSpaceOnUse"
       id="linearGradient458946"
       xlink:href="#linearGradient5987" />
    <linearGradient
       y2="20.618719"
       x2="21.59099"
       y1="23.145937"
       x1="27.651777"
       gradientTransform="matrix(0.9768193,0,0,1,-1.3746633,0)"
       gradientUnits="userSpaceOnUse"
       id="linearGradient458948"
       xlink:href="#linearGradient5974" />
    <linearGradient
       y2="2.5"
       x2="14.906248"
       y1="3.5"
       x1="15.5"
       gradientTransform="translate(1)"
       gradientUnits="userSpaceOnUse"
       id="linearGradient458950"
       xlink:href="#linearGradient6008" />
  </defs>
  <g
     transform="translate(-296,-50)"
     style="display:none"
     id="layer6">
    <rect
       y="50"
       x="296"
       width="48"
       style="display:inline;overflow:visible;visibility:visible;fill:#eeeeec;fill-opacity:1;fill-rule:nonzero;stroke:none;stroke-width:2;marker:none;enable-background:accumulate"
       id="rect6284"
       height="48" />
    <rect
       y="126"
       x="303"
       width="32"
       style="display:inline;overflow:visible;visibility:visible;fill:#eeeeec;fill-opacity:1;fill-rule:nonzero;stroke:none;stroke-width:2;marker:none;enable-background:accumulate"
       id="rect6592"
       height="32" />
    <rect
       y="177"
       x="303"
       width="22"
       style="display:inline;overflow:visible;visibility:visible;fill:#eeeeec;fill-opacity:1;fill-rule:nonzero;stroke:none;stroke-width:2;marker:none;enable-background:accumulate"
       id="rect6749"
       height="22" />
    <rect
       y="219"
       x="303"
       width="16"
       style="display:inline;overflow:visible;visibility:visible;fill:#eeeeec;fill-opacity:1;fill-rule:nonzero;stroke:none;stroke-width:2;marker:none;enable-background:accumulate"
       id="rect6833"
       height="16" />
    <text
       y="21.513618"
       xml:space="preserve"
       x="20.970737"
       style="font-style:normal;font-weight:normal;line-height:0%;font-family:'Bitstream Vera Sans';display:inline;fill:#000000;fill-opacity:1;stroke:none;enable-background:new"
       id="context"><tspan
         style="font-size:18.30070686px;line-height:1.25"
         y="21.513618"
         x="20.970737"
         id="tspan2716">actions</tspan></text>
    <text
       y="21.513618"
       xml:space="preserve"
       x="191.97073"
       style="font-style:normal;font-variant:normal;font-weight:bold;font-stretch:normal;line-height:0%;font-family:'Droid Sans';-inkscape-font-specification:'Droid Sans Bold';text-align:start;writing-mode:lr-tb;text-anchor:start;display:inline;fill:#000000;fill-opacity:1;stroke:none;enable-background:new"
       id="icon-name"><tspan
         style="font-size:18.30070686px;line-height:1.25"
         y="21.513618"
         x="191.97073"
         id="tspan3023">edit-clear-all</tspan></text>
  </g>
  <g
     transform="translate(-296,-50)"
     style="display:inline"
     id="layer2">
    <g
       transform="translate(296,50)"
       style="display:inline;enable-background:new"
       id="g48">
      <ellipse
         ry="9"
         rx="20"
         cy="69"
         cx="38"
         transform="matrix(1,0,0,0.6666668,-13.999999,-5.0000087)"
         style="opacity:0.25;fill:url(#radialGradient458908);fill-opacity:1;stroke:none;stroke-width:0.99999994;stroke-linecap:round;stroke-linejoin:round;stroke-miterlimit:20;stroke-dasharray:none;stroke-opacity:1"
         id="path6017" />
      <path
         style="fill:url(#linearGradient458910);fill-opacity:1;fill-rule:evenodd;stroke:url(#linearGradient6002);stroke-width:1px;stroke-linecap:butt;stroke-linejoin:miter;stroke-opacity:1"
         id="path5371"
         d="m 34.59375,2.46875 c -8.203217,0.1056503 -9.3968,16.247526 -11.75,19.15625 l 4,1.4375 C 29.475623,18.689953 42.599746,4.1545034 35.40625,2.5 35.12676,2.4690309 34.85837,2.4653419 34.59375,2.46875 Z m -1.03125,2.0625 c 0.193563,-0.018739 0.367986,0.00572 0.53125,0.09375 0.653056,0.3521226 0.723655,1.4948771 0.15625,2.53125 -0.567405,1.0363729 -1.565696,1.6021225 -2.21875,1.25 C 31.378197,8.0541272 31.307595,6.9113729 31.875,5.875 32.300554,5.0977202 32.981812,4.5874659 33.5625,4.53125 Z" />
      <path
         transform="translate(-2)"
         style="opacity:0.26666667;fill:none;fill-opacity:1;fill-rule:evenodd;stroke:url(#linearGradient5994);stroke-width:1px;stroke-linecap:butt;stroke-linejoin:miter;stroke-opacity:1"
         id="path5992"
         d="m 36.607422,3.4726562 c -1.721619,0.022173 -3.025503,0.8402493 -4.205078,2.265625 -1.179576,1.4253758 -2.144428,3.4514011 -2.933594,5.6035158 -0.789166,2.152114 -1.410368,4.422551 -1.986328,6.363281 -0.399235,1.345245 -0.776838,2.424818 -1.22461,3.361328 l 2.207032,0.792969 c 1.619888,-2.496279 4.999189,-6.593456 7.490234,-10.625 1.325839,-2.1457566 2.309091,-4.2092911 2.525391,-5.59375 0.10815,-0.6922294 0.02944,-1.1651169 -0.140625,-1.4609375 -0.166113,-0.2889417 -0.456736,-0.5224937 -1.13086,-0.6855469 -0.192432,-0.016958 -0.385855,-0.024263 -0.601562,-0.021484 z" />
      <path
         style="fill:url(#linearGradient458912);fill-opacity:1;fill-rule:evenodd;stroke:url(#linearGradient458914);stroke-width:0.99999994;stroke-linecap:butt;stroke-linejoin:miter;stroke-miterlimit:20;stroke-dasharray:none;stroke-opacity:1"
         id="path5367"
         d="m 20.5,16.5 c 0.709506,2.003007 -0.541388,3.737831 -1,5 C 14.308433,23.045674 10.713199,31.203726 5.3674175,35.453585 6.0352055,36.150983 6.819644,36.897763 7.5,37.5 l 4.0625,-3.53125 -3.067556,4.524649 C 10.704181,40.284382 13,41.5 14.5,42 L 17.25,38.34375 15.5,42.5 c 1.451994,0.588882 4.985286,1.482025 7,1.5 l 2.00389,-3.402497 -0.513169,3.464997 c 0.829563,0.158359 2.438165,0.374216 3.509279,0.40625 3.362186,-5.5 4,-14.46875 2,-18.46875 -0.5,-2 1.5,-4.5 3,-5.5 -2.5,-2 -8.205589,-4.303726 -12,-4 z" />
      <path
         style="opacity:0.26666667;fill:#c4a000;fill-rule:evenodd;stroke:none;stroke-width:1px;stroke-linecap:butt;stroke-linejoin:miter;stroke-opacity:1"
         id="path5975"
         d="M 9,38.5 C 13.816495,33.489105 13.465023,31.296074 19.116117,26.972272 16.133675,31.800703 15.650278,34.31233 12,40.5 Z" />
      <path
         style="opacity:0.41568627;fill:#c4a000;fill-rule:evenodd;stroke:none;stroke-width:1px;stroke-linecap:butt;stroke-linejoin:miter;stroke-opacity:1"
         id="path5979"
         d="m 16.149808,42.202452 4.346027,-9.840147 c 1.664513,-2.983727 2.859672,-5.970052 4.528973,-8.347353 -1.601954,5.418037 -4.89069,12.121793 -7.53125,18.625 z" />
      <path
         style="opacity:0.47843137;fill:none;fill-opacity:1;fill-rule:evenodd;stroke:url(#linearGradient458916);stroke-width:0.99999994px;stroke-linecap:butt;stroke-linejoin:miter;stroke-opacity:1"
         id="path6014"
         d="m 21.625,17.5 c 0.09674,1.915146 -0.922943,3.529645 -1.21875,4.34375 -0.104103,0.284709 -0.33533,0.504374 -0.625,0.59375 -5.453398,2.234644 -7.629803,8.574038 -12.9946384,13.086167 0.2016424,0.199854 0.4920308,0.417304 0.6945296,0.608231 L 16.5,28.5 9.923385,38.310313 c 1.270033,1.027613 2.722201,1.884544 4.226656,2.489165 L 21.144394,31.5 16.869501,41.911612 C 18.46507,42.437269 19.967804,42.738908 21.81451,43 l 4.61873,-7.6875 -1.37074,7.906817 1.875,0.225995 c 1.433213,-2.535494 2.132382,-5.66653 2.53125,-8.789062 0.423945,-3.318846 -0.005,-6.541178 -0.84375,-8.21875 -0.02716,-0.06021 -0.0481,-0.123035 -0.0625,-0.1875 -0.346858,-1.387431 0.169142,-2.745627 0.875,-3.875 0.426893,-0.683029 0.930372,-1.290779 1.464959,-1.801777 C 29.730977,19.790532 28.315762,19.113157 26.53125,18.46875 24.769173,17.832444 23.033252,17.518725 21.625,17.5 Z" />
      <path
         style="opacity:0.24705882;fill:url(#linearGradient458918);fill-opacity:1;fill-rule:evenodd;stroke:none;stroke-width:1px;stroke-linecap:butt;stroke-linejoin:miter;stroke-opacity:1"
         id="path5977"
         d="m 18.96875,43 c 2.177566,-5.751871 6.395916,-10.068943 8.016913,-15.935412 0.05154,3.662073 0.24972,10.203726 -1.891913,16.716662 -0.319766,0.0018 -0.173927,-0.110809 -0.46988,-0.118553 l 0.800792,-5.724517 -3.281486,5.554384 C 19.952368,43.33624 20.848565,43.525163 18.96875,43 Z" />
      <path
         style="opacity:0.48235294;fill:#c4a000;fill-rule:evenodd;stroke:none;stroke-width:1px;stroke-linecap:butt;stroke-linejoin:miter;stroke-opacity:1"
         id="path5995"
         d="m 21.003067,22.610447 c -1.251995,0.616379 -2.062209,1.527278 -2.983106,2.364388 1.226487,-0.708643 2.378986,-1.448994 3.999573,-1.988738 z" />
      <path
         style="opacity:0.48235294;fill:#c4a000;fill-rule:evenodd;stroke:none;stroke-width:1px;stroke-linecap:butt;stroke-linejoin:miter;stroke-opacity:1"
         id="path5997"
         d="m 23.008698,23.061049 -1.016465,1.988738 2.980713,-1.58825 z" />
      <path
         style="opacity:0.48235294;fill:#c4a000;fill-rule:evenodd;stroke:none;stroke-width:1px;stroke-linecap:butt;stroke-linejoin:miter;stroke-opacity:1"
         id="path6007"
         d="m 22.939805,17.961399 -0.895193,1.707022 1.565727,0.502084 z" />
      <path
         style="opacity:0.48235294;fill:#c4a000;fill-rule:evenodd;stroke:none;stroke-width:1px;stroke-linecap:butt;stroke-linejoin:miter;stroke-opacity:1"
         id="path6009"
         d="m 29.923254,19.88537 -2.460248,1.835447 1.565727,0.502084 z" />
      <path
         style="opacity:0.48235294;fill:#c4a000;fill-rule:evenodd;stroke:none;stroke-width:1px;stroke-linecap:butt;stroke-linejoin:miter;stroke-opacity:1"
         id="path6011"
         d="m 26.012925,17.938566 -1.513911,2.524614 1.565727,0.502084 z" />
      <path
         style="opacity:0.2;fill:#000000;fill-opacity:1;fill-rule:evenodd;stroke:none;stroke-width:1px;stroke-linecap:butt;stroke-linejoin:round;stroke-opacity:1"
         id="path6013"
         d="m 18.967726,22.024699 c -0.56678,-2.965484 9.332835,2.152903 11.036822,2.994369 -0.0065,1.079068 0,2 -0.976819,2 -2.567538,-1.39298 -6.535255,-3.605143 -10.060003,-4.994369 z" />
      <path
         style="fill:url(#linearGradient458920);fill-opacity:1;fill-rule:evenodd;stroke:#5c3566;stroke-width:1px;stroke-linecap:butt;stroke-linejoin:round;stroke-opacity:1"
         id="path5373"
         d="m 18.650133,21.5 c -0.48841,-1 0,-2 0.97682,-2 3.99144,0.975417 7.324875,2.206232 10.745012,4 0.48841,1 0,2 -0.976819,2 -3.533943,-1.86442 -6.866711,-3.074813 -10.745013,-4 z" />
    </g>
    <g
       transform="translate(303,126)"
       style="display:inline;enable-background:new"
       id="g32">
      <ellipse
         ry="9"
         rx="20"
         cy="69"
         cx="38"
         transform="matrix(0.7,0,0,0.5,-10.599999,-7)"
         style="opacity:0.25;fill:url(#radialGradient458922);fill-opacity:1;stroke:none;stroke-width:0.99999994;stroke-linecap:round;stroke-linejoin:round;stroke-miterlimit:20;stroke-dasharray:none;stroke-opacity:1"
         id="path78" />
      <path
         style="fill:url(#linearGradient458924);fill-opacity:1;fill-rule:evenodd;stroke:url(#linearGradient458926);stroke-width:1px;stroke-linecap:butt;stroke-linejoin:miter;stroke-opacity:1"
         id="path80"
         d="m 23,1.5 c -5.043999,0.073245 -6.280587,10.733642 -7.878401,12.716193 l 2.913434,1.245771 C 19.096049,13.701468 22.5,9.6928437 24.518491,6.4830495 25.863147,4.3447847 26.047026,1.9805074 24.050729,1.521947 23.860492,1.5008949 23.180115,1.4976836 23,1.5 Z M 22.767835,2.4953784 C 22.899584,2.4826407 23.12879,2.4401582 23.239918,2.5 23.684423,2.7393677 23.760414,3.9235724 23.374207,4.6280814 22.988,5.3325905 22.198022,5.7762862 21.753519,5.5369195 21.309014,5.2975527 21.233021,4.113348 21.619229,3.408838 21.908885,2.8804561 22.372586,2.5335934 22.767835,2.4953784 Z" />
      <path
         style="opacity:0.26666667;fill:none;fill-opacity:1;fill-rule:evenodd;stroke:url(#linearGradient458928);stroke-width:1px;stroke-linecap:round;stroke-linejoin:miter;stroke-opacity:1"
         id="path82"
         d="m 23.5,2.5 c -1.528501,-0.2042525 -2.572927,0.8134597 -3.29854,2 -1.507299,2.3611641 -2.073439,4.896071 -2.999579,7.5 l 1.600248,0.527092 C 20.610761,10.079597 23,7.5 24.25,4.75 24.444434,4.1994597 24.743518,3.1272824 24.259033,2.673638 24.012418,2.4962306 23.797359,2.4886638 23.5,2.5 Z" />
      <path
         style="fill:url(#linearGradient458930);fill-opacity:1;fill-rule:evenodd;stroke:url(#linearGradient458932);stroke-width:0.99999988;stroke-linecap:butt;stroke-linejoin:miter;stroke-miterlimit:20;stroke-dasharray:none;stroke-opacity:1"
         id="path84"
         d="m 13.654546,10.527388 c 0.522993,1.430357 -0.399067,2.669202 -0.73712,3.570523 C 9.0906117,15.201683 6.4404887,21.027386 2.5,24.062229 2.9922407,24.560244 3.4984951,25.56994 4,26 l 3,-3 -2.5,3.5 c 1.6284754,1.278949 3,2 4.5,2.5 l 2.5,-3 -1.5,3.5 c 1.070296,0.420523 3.514911,0.487164 5,0.5 l 1.5,-2.5 v 3 c 0.714983,0.0096 1.527506,-0.02553 2.314396,-1e-6 C 20.560031,26.572424 21,20.5 20.288637,17.311381 c -0.368559,-1.428209 1.105683,-3.21347 2.211365,-3.927575 -1.842804,-1.428208 -6.048514,-3.07331 -8.845456,-2.856418 z" />
      <path
         style="opacity:0.26666667;fill:#c4a000;fill-rule:evenodd;stroke:none;stroke-width:1px;stroke-linecap:butt;stroke-linejoin:miter;stroke-opacity:1"
         id="path86"
         d="M 5.1844465,26.325109 C 8.5713127,22.797294 9.026259,20.544081 13,17.5 c -2.097196,3.399355 -2.66803,6 -5.5,10.321555 z" />
      <path
         style="opacity:0.41568627;fill:#c4a000;fill-rule:evenodd;stroke:none;stroke-width:1px;stroke-linecap:butt;stroke-linejoin:miter;stroke-opacity:1"
         id="path88"
         d="M 10.69819,29.196907 14.5,20.280422 c 1.170454,-2.10063 0.826179,-2.106733 2,-3.780422 -0.750814,4 -2.643209,8.249698 -4.5,12.828143 z" />
      <path
         style="opacity:0.47843137;fill:none;fill-opacity:1;fill-rule:evenodd;stroke:url(#linearGradient458934);stroke-width:0.99999994px;stroke-linecap:butt;stroke-linejoin:miter;stroke-opacity:1"
         id="path90"
         d="m 14.460035,11.5 c 0.06819,1.328473 -0.65061,2.448397 -0.859133,3.013114 -0.07339,0.197492 -0.236385,0.349867 -0.440583,0.411864 -3.5753777,1.818988 -5.4968536,6.105364 -9.2818528,9.232115 L 4.113301,24.5 11.5,17.5 5.8572887,26.243616 c 0.8952853,0.71282 1.8309405,1.109529 2.8914771,1.528935 L 14.651572,20.5 11.350542,28.74518 C 12.549606,28.852243 13.144244,28.9891 14.5,29 L 17.593141,23.576383 17.5,29.5 18.20498,29.4974 C 19.411107,25.984859 20,21.5 19.350492,17.569581 19.105982,16.607167 19.469726,15.665033 19.967307,14.881624 20.268237,14.407829 20.123152,13.854462 20.5,13.5 c -1.783884,-1.294633 -3.882083,-1.807357 -6.039965,-2 z" />
      <path
         style="opacity:0.24705882;fill:url(#linearGradient458936);fill-opacity:1;fill-rule:evenodd;stroke:none;stroke-width:1px;stroke-linecap:butt;stroke-linejoin:miter;stroke-opacity:1"
         id="path92"
         d="M 12.5,29.360657 C 14.031223,25.311174 16.860146,22.130163 18,18 c 0.03624,2.578205 0.505956,7.414705 -1,12 l 0.06541,-4.379788 -2.307477,3.910447 C 13.217397,29.420602 13.82185,29.730386 12.5,29.360657 Z" />
      <path
         style="opacity:0.48235294;fill:#c4a000;fill-rule:evenodd;stroke:none;stroke-width:1px;stroke-linecap:butt;stroke-linejoin:miter;stroke-opacity:1"
         id="path94"
         d="m 14,14.5 c -0.880379,0.433949 -1.852443,1.91065 -2.5,2.5 0.862442,-0.498905 2.360434,-1.620005 3.5,-2 z" />
      <path
         style="opacity:0.48235294;fill:#c4a000;fill-rule:evenodd;stroke:none;stroke-width:1px;stroke-linecap:butt;stroke-linejoin:miter;stroke-opacity:1"
         id="path96"
         d="m 15.5,15 -1.5,2.5 3,-2 z" />
      <path
         style="opacity:0.48235294;fill:#c4a000;fill-rule:evenodd;stroke:none;stroke-width:1px;stroke-linecap:butt;stroke-linejoin:miter;stroke-opacity:1"
         id="path98"
         d="m 15.5,11 -1,1.5 1.5,0.5 z" />
      <path
         style="opacity:0.48235294;fill:#c4a000;fill-rule:evenodd;stroke:none;stroke-width:1px;stroke-linecap:butt;stroke-linejoin:miter;stroke-opacity:1"
         id="path100"
         d="M 20.5,13 18.404984,14 19.5,14.5 Z" />
      <path
         style="opacity:0.48235294;fill:#c4a000;fill-rule:evenodd;stroke:none;stroke-width:1px;stroke-linecap:butt;stroke-linejoin:miter;stroke-opacity:1"
         id="path102"
         d="m 18,12 -1.5,1 1.5,1 z" />
      <path
         style="opacity:0.2;fill:#000000;fill-opacity:1;fill-rule:evenodd;stroke:none;stroke-width:1px;stroke-linecap:butt;stroke-linejoin:round;stroke-opacity:1"
         id="path104"
         d="m 12.525469,14.458688 c -0.409521,-2.223977 6.743334,1.614579 7.974531,2.24564 -0.0047,0.809251 0,1.499909 -0.705789,1.499909 -1.855146,-1.044672 -4.721975,-2.703693 -7.268742,-3.745549 z" />
      <path
         style="fill:url(#linearGradient458938);fill-opacity:1;fill-rule:evenodd;stroke:#5c3566;stroke-width:1.00000012px;stroke-linecap:butt;stroke-linejoin:round;stroke-opacity:1"
         id="path106"
         d="m 12.497417,13.90699 c -0.335416,-0.703496 0,-1.40699 0.670833,-1.40699 2.741129,0.686201 5.030372,1.552073 7.379157,2.813981 0.335417,0.703495 0,1.406991 -0.670832,1.406991 -2.426942,-1.311611 -4.715726,-2.163118 -7.379158,-2.813982 z" />
      <path
         style="opacity:0.24705882;fill:none;fill-opacity:1;fill-rule:evenodd;stroke:url(#linearGradient6036);stroke-width:1px;stroke-linecap:butt;stroke-linejoin:miter;stroke-opacity:1"
         id="path5449"
         d="m 22.770228,2.5040126 c 0.131749,-0.012738 0.25047,0.00389 0.361598,0.06373 0.444505,0.2393677 0.493953,1.4101633 0.107746,2.1146723 -0.386207,0.7045091 -1.0657,1.0890964 -1.510203,0.8497297 C 21.284864,5.2927778 21.235414,4.1219822 21.621622,3.4174722 21.911278,2.8890903 22.374979,2.5422276 22.770228,2.5040126 Z" />
    </g>
    <g
       transform="translate(303,177)"
       style="display:inline;enable-background:new"
       id="g22">
      <ellipse
         ry="9"
         rx="20"
         cy="69"
         cx="38"
         transform="matrix(0.475,0,0,0.3333333,-6.5500008,-4)"
         style="opacity:0.25;fill:url(#radialGradient6025);fill-opacity:1;stroke:none;stroke-width:0.99999994;stroke-linecap:round;stroke-linejoin:round;stroke-miterlimit:20;stroke-dasharray:none;stroke-opacity:1"
         id="path110" />
      <path
         style="fill:url(#linearGradient458940);fill-opacity:1;fill-rule:evenodd;stroke:url(#linearGradient458942);stroke-width:1px;stroke-linecap:butt;stroke-linejoin:miter;stroke-opacity:1"
         id="path112"
         d="M 16.890525,0.50045672 C 13.490109,0.55251363 12.656462,8.1291625 11.579294,9.5382182 l 1.964094,0.8854048 C 14.258673,9.1723882 16.553449,6.3233442 17.914217,4.0420525 18.820717,2.5223259 18.94468,0.84196709 17.598874,0.51605451 17.470626,0.50109233 17.01195,0.49880983 16.890525,0.50045672 Z" />
      <path
         style="opacity:0.34901961;fill:none;fill-opacity:1;fill-rule:evenodd;stroke:url(#linearGradient5447);stroke-width:1px;stroke-linecap:round;stroke-linejoin:miter;stroke-opacity:1"
         id="path114"
         d="M 16.94194,1.5710975 C 16.10661,1.450325 15.598328,2.2984121 15.201778,3 14.378036,4.3961283 14.006138,5.6486634 13.5,7.188336 l 0.87454,0.3116637 c 0.988422,-1.4471753 2.294149,-2.9724606 2.977277,-4.5985038 0.106259,-0.3255281 0.269708,-0.959494 0.0049,-1.2277283 -0.13474,-0.1048994 -0.25227,-0.1093739 -0.414777,-0.1026701 z" />
      <path
         style="fill:url(#linearGradient458944);fill-opacity:1;fill-rule:evenodd;stroke:url(#linearGradient458946);stroke-width:0.99999982;stroke-linecap:butt;stroke-linejoin:miter;stroke-miterlimit:20;stroke-dasharray:none;stroke-opacity:1"
         id="path116"
         d="M 10.521493,7.5126007 C 10.897589,8.4426254 10.234515,9.2481284 9.991413,9.8341716 7.2394619,10.55185 5.3336969,14.52673 2.5,16.5 c 0.3539818,0.323811 0.6393562,0.720373 1,1 L 5.5,16 4,18 c 1.1710746,0.831579 1.9213152,1.174898 3,1.5 l 2,-2 -1,2.5 c 0.7696747,0.273426 2.432037,0.491654 3.5,0.5 l 1,-2 v 2 c 0.514161,0.0062 1.0999,-0.0166 1.66577,0 1.255326,-2.553728 1.63801,-6.503158 1.126452,-8.576415 C 15.027183,10.994957 15.70488,9.9643139 16.5,9.5 15.174798,8.5713715 12.532839,7.3715766 10.521493,7.5126007 Z" />
      <path
         style="opacity:0.26666667;fill:#c4a000;fill-rule:evenodd;stroke:none;stroke-width:1px;stroke-linecap:butt;stroke-linejoin:miter;stroke-opacity:1"
         id="path118"
         d="M 4.719935,17.902662 C 6.900113,15.152842 7.1787116,14.064806 10,12 8.5342498,14.379497 7.9792907,15.474976 6,18.5 Z" />
      <path
         style="opacity:0.41568627;fill:#c4a000;fill-rule:evenodd;stroke:none;stroke-width:1px;stroke-linecap:butt;stroke-linejoin:miter;stroke-opacity:1"
         id="path120"
         d="m 8.6829177,19.631627 1.6571213,-4.22578 C 11.15808,13.935437 11.179605,13.171557 12,12 c -0.524751,2.79994 -0.702271,4.659273 -2,7.864116 z" />
      <path
         style="opacity:0.47843137;fill:none;fill-opacity:1;fill-rule:evenodd;stroke:url(#linearGradient5973);stroke-width:0.99999994px;stroke-linecap:butt;stroke-linejoin:miter;stroke-opacity:1"
         id="path122"
         d="M 11.50854,8.5578202 C 11.556052,9.3696647 10.856488,10.154895 10.711208,10.5 10.660079,10.62069 10.546516,10.713808 10.40425,10.751695 7.788252,11.5 6.6370426,14.589207 4,16.5 c 1.6471184,1.841175 5.231184,3.404122 9.48141,2.998406 0.840319,-2.146547 1.250606,-4.887295 0.798088,-7.289218 -0.170352,-0.588141 0.08307,-1.163891 0.429741,-1.64264 C 14.9189,10.277006 14.530555,9.8725463 14.793109,9.6559312 13.897607,9.1913635 12.588896,8.7844873 11.50854,8.5578202 Z" />
      <path
         style="opacity:0.24705882;fill:url(#linearGradient6005);fill-opacity:1;fill-rule:evenodd;stroke:none;stroke-width:1px;stroke-linecap:butt;stroke-linejoin:miter;stroke-opacity:1"
         id="path124"
         d="m 14,12 c 0.02533,1.804705 0.05253,4.790363 -1,8 V 16.341002 L 11.17767,20 Z" />
      <path
         style="opacity:0.66666667;fill:#c4a000;fill-rule:evenodd;stroke:none;stroke-width:1px;stroke-linecap:butt;stroke-linejoin:miter;stroke-opacity:1"
         id="path126"
         d="M 11,9.5 C 10.384695,9.803758 9.452584,11.587464 9,12 9.602769,11.650774 11.203546,10.265991 12,10 Z" />
      <path
         style="opacity:0.48235294;fill:#c4a000;fill-rule:evenodd;stroke:none;stroke-width:1px;stroke-linecap:butt;stroke-linejoin:miter;stroke-opacity:1"
         id="path128"
         d="M 11.951635,10.150007 11,12 13,10.5 Z" />
      <path
         style="opacity:0.48235294;fill:#c4a000;fill-rule:evenodd;stroke:none;stroke-width:1px;stroke-linecap:butt;stroke-linejoin:miter;stroke-opacity:1"
         id="path130"
         d="M 15.080371,8.700285 13.5,9.5 l 1.5,1 z" />
      <path
         style="opacity:0.48235294;fill:#c4a000;fill-rule:evenodd;stroke:none;stroke-width:1px;stroke-linecap:butt;stroke-linejoin:miter;stroke-opacity:1"
         id="path132"
         d="M 12.5,7.5 12,9 13.333097,9.40027 Z" />
      <path
         style="opacity:0.2;fill:#000000;fill-opacity:1;fill-rule:evenodd;stroke:none;stroke-width:1px;stroke-linecap:butt;stroke-linejoin:round;stroke-opacity:1"
         id="path134"
         d="M 9.5,9.5 C 9.213782,7.943249 14.882572,11.558267 15.743068,12 15.739795,12.566464 15.493283,13 15,13 13.703421,12.268745 11.27996,10.229284 9.5,9.5 Z" />
      <path
         style="fill:url(#linearGradient458948);fill-opacity:1;fill-rule:evenodd;stroke:none;stroke-width:1.00000012px;stroke-linecap:butt;stroke-linejoin:round;stroke-opacity:1"
         id="path136"
         d="M 9.1108,9.3333318 C 8.8283667,8.6666652 9.435133,8 10,8 12.308135,8.6502772 14.022233,9.3041536 16,10.5 16.282434,11.166666 15.8892,12 15.324333,12 13.280756,10.757053 11.353513,9.9501238 9.1108,9.3333318 Z" />
      <path
         style="opacity:1;fill:url(#linearGradient458950);fill-opacity:1;fill-rule:evenodd;stroke:none;stroke-width:0.99999994px;stroke-linecap:butt;stroke-linejoin:miter;stroke-opacity:1"
         id="path138"
         d="m 16.557664,1.5035556 c 0.119348,-0.011287 0.226897,0.00345 0.327563,0.056474 0.402669,0.2121148 0.447462,1.24961 0.0976,1.8739063 -0.349858,0.6242973 -0.965394,0.9650969 -1.36806,0.7529834 C 15.2121,3.9748058 15.167305,2.9373118 15.517157,2.3130133 15.779552,1.8447908 16.199609,1.5374199 16.557655,1.5035557 Z" />
    </g>
    <g
       transform="translate(303,219)"
       style="display:inline;enable-background:new"
       id="g16">
      <path
         style="fill:url(#linearGradient5964);fill-opacity:1;fill-rule:evenodd;stroke:url(#linearGradient6033);stroke-width:1px;stroke-linecap:butt;stroke-linejoin:miter;stroke-opacity:1"
         id="path141"
         d="M 13.037318,0.50034286 C 10.132386,0.53938336 9.4202112,6.2215551 8.5000003,7.2782881 l 1.6779007,0.664017 c 0.611058,-0.938374 2.571458,-3.0750388 3.733945,-4.7859127 0.774411,-1.1397317 0.88031,-2.39993094 -0.269395,-2.64435184 -0.109561,-0.011221 -0.501401,-0.0129328 -0.605133,-0.0116977 z" />
      <path
         style="fill:url(#linearGradient5972);fill-opacity:1;fill-rule:evenodd;stroke:url(#linearGradient5993);stroke-width:0.99999994;stroke-linecap:butt;stroke-linejoin:miter;stroke-miterlimit:20;stroke-dasharray:none;stroke-opacity:1"
         id="path143"
         d="M 7.5,5.3535534 C 7.795504,6.0689638 7.6910086,6.5491934 7.5,7 5.2422428,7.3835701 3.313759,10.215932 1.5,12 v 0.5 c 0.2781285,0.249087 0.716637,0.7849 1,1 L 4,12 3,13.752829 C 3.9201301,14.392512 4.1524619,14.249919 5,14.5 L 6.5,13 6,14.84532 C 6.6464466,15.5 8.1608862,15.49358 9,15.5 L 9.5,14 v 1.5 c 0.4039832,0.0048 0.754261,-0.01277 1.198874,0 1.129801,-1.877028 0.917341,-4.924556 0.852158,-6.5981563 C 11.39418,8.3637987 11.938851,7.9612315 12.5,8 L 13,7.5 C 12.061269,6.7049705 9.1538384,4.9075976 7.5,4.8232233 Z" />
      <path
         style="opacity:0.41568627;fill:#c4a000;fill-rule:evenodd;stroke:none;stroke-width:1px;stroke-linecap:butt;stroke-linejoin:miter;stroke-opacity:1"
         id="path145"
         d="M 6.521888,14.687429 7.5,11.5 C 8.111138,10.397253 8.387103,9.3786189 9,8.5 8.607972,10.599838 8.726434,12.5 8,15 Z" />
      <path
         style="fill:url(#linearGradient5980);fill-opacity:1;fill-rule:evenodd;stroke:none;stroke-width:1.00000012px;stroke-linecap:butt;stroke-linejoin:round;stroke-opacity:1"
         id="path147"
         d="M 6.5,7 C 6.2890009,6.500027 6.5780014,5.8232233 7,5.8232233 8.7243522,6.3109043 10.831816,7.2799417 12.309359,8.1767767 12.520358,8.6767487 11.921999,9.2790291 11.5,9.2790291 9.9732928,8.3468701 8.175477,7.462568 6.5,7 Z" />
      <path
         style="opacity:1;fill:url(#linearGradient6006);fill-opacity:1;fill-rule:evenodd;stroke:none;stroke-width:0.99999994px;stroke-linecap:butt;stroke-linejoin:miter;stroke-opacity:1"
         id="path149"
         d="m 12.731347,1.6607109 c 0.08916,-0.00674 0.169509,0.00206 0.244714,0.033731 0.300825,0.1266935 0.334289,0.7463764 0.07292,1.1192608 C 12.78761,3.1865877 12.327758,3.390143 12.026936,3.2634502 11.726113,3.1367575 11.692648,2.5170754 11.954016,2.1441896 12.150045,1.8645262 12.463859,1.6809375 12.731347,1.6607109 Z" />
    </g>
  </g>
  <g
     transform="translate(-296,-50)"
     style="display:inline"
     id="layer4" />
</svg>
