<?xml version="1.0" encoding="UTF-8" standalone="no"?>
<svg
   xmlns:dc="http://purl.org/dc/elements/1.1/"
   xmlns:cc="http://creativecommons.org/ns#"
   xmlns:rdf="http://www.w3.org/1999/02/22-rdf-syntax-ns#"
   xmlns:svg="http://www.w3.org/2000/svg"
   xmlns="http://www.w3.org/2000/svg"
   xmlns:xlink="http://www.w3.org/1999/xlink"
   width="48"
   version="1.0"
   style="display:inline;enable-background:new"
   id="svg11300"
   height="48">
  <title
     id="title8836">Optical Drive</title>
  <metadata
     id="metadata154">
    <rdf:RDF>
      <cc:Work
         rdf:about="">
        <dc:format>image/svg+xml</dc:format>
        <dc:type
           rdf:resource="http://purl.org/dc/dcmitype/StillImage" />
        <dc:title>Optical Drive</dc:title>
        <dc:creator>
          <cc:Agent>
            <dc:title />
          </cc:Agent>
        </dc:creator>
        <dc:contributor>
          <cc:Agent>
            <dc:title />
          </cc:Agent>
        </dc:contributor>
        <dc:source />
        <cc:license
           rdf:resource="" />
        <dc:subject>
          <rdf:Bag />
        </dc:subject>
      </cc:Work>
    </rdf:RDF>
  </metadata>
  <defs
     id="defs3">
    <linearGradient
       id="linearGradient7077">
      <stop
         id="stop7079"
         offset="0"
         style="stop-color:#888a85;stop-opacity:1;" />
      <stop
         style="stop-color:#888a85;stop-opacity:0.89803922;"
         offset="0.61538231"
         id="stop7085" />
      <stop
         id="stop7081"
         offset="1"
         style="stop-color:#888a85;stop-opacity:0;" />
    </linearGradient>
    <radialGradient
       gradientUnits="userSpaceOnUse"
       gradientTransform="matrix(2.470582,0,0,1.9004442,-461.76274,-208.50871)"
       r="5.2619252"
       fy="232.05559"
       fx="314"
       cy="232.05559"
       cx="314"
       id="radialGradient7083"
       xlink:href="#linearGradient7077" />
    <linearGradient
       id="linearGradient7077-4">
      <stop
         id="stop7079-9"
         offset="0"
         style="stop-color:#888a85;stop-opacity:1;" />
      <stop
         style="stop-color:#888a85;stop-opacity:0.89803922;"
         offset="0.61538231"
         id="stop7085-4" />
      <stop
         id="stop7081-6"
         offset="1"
         style="stop-color:#888a85;stop-opacity:0;" />
    </linearGradient>
    <radialGradient
       gradientUnits="userSpaceOnUse"
       gradientTransform="matrix(2.470582,0,0,1.9004442,-461.76274,-208.50871)"
       r="5.2619252"
       fy="232.05559"
       fx="314"
       cy="232.05559"
       cx="314"
       id="radialGradient7083-0-3"
       xlink:href="#linearGradient7077-4-5" />
    <linearGradient
       id="linearGradient7077-4-5">
      <stop
         id="stop7079-9-0"
         offset="0"
         style="stop-color:#888a85;stop-opacity:1;" />
      <stop
         style="stop-color:#888a85;stop-opacity:0.89803922;"
         offset="0.61538231"
         id="stop7085-4-9" />
      <stop
         id="stop7081-6-3"
         offset="1"
         style="stop-color:#888a85;stop-opacity:0;" />
    </linearGradient>
    <radialGradient
       gradientUnits="userSpaceOnUse"
       gradientTransform="matrix(2.470582,0,0,1.9004442,-461.76274,-208.50871)"
       r="5.2619252"
       fy="232.05559"
       fx="314"
       cy="232.05559"
       cx="314"
       id="radialGradient7083-0-9"
       xlink:href="#linearGradient7077-4-6" />
    <linearGradient
       id="linearGradient7077-4-6">
      <stop
         id="stop7079-9-4"
         offset="0"
         style="stop-color:#888a85;stop-opacity:1;" />
      <stop
         style="stop-color:#888a85;stop-opacity:0.89803922;"
         offset="0.61538231"
         id="stop7085-4-0" />
      <stop
         id="stop7081-6-7"
         offset="1"
         style="stop-color:#888a85;stop-opacity:0;" />
    </linearGradient>
    <radialGradient
       r="5.2619252"
       fy="232.05559"
       fx="314"
       cy="232.05559"
       cx="314"
       gradientTransform="matrix(2.470582,0,0,1.9004442,-481.76274,-208.50871)"
       gradientUnits="userSpaceOnUse"
       id="radialGradient6258"
       xlink:href="#linearGradient7077-4" />
    <radialGradient
       r="5.2619252"
       fy="232.05559"
       fx="314"
       cy="232.05559"
       cx="314"
       gradientTransform="matrix(2.470582,0,0,1.9004442,-481.76274,-208.50871)"
       gradientUnits="userSpaceOnUse"
       id="radialGradient1638600"
       xlink:href="#linearGradient7077-4" />
  </defs>
  <g
     transform="translate(84,-50)"
     style="display:inline"
     id="layer1">
    <g
       style="display:none"
       id="layer3">
      <rect
         y="50"
         x="316"
         width="48"
         style="display:inline;overflow:visible;visibility:visible;fill:#eeeeec;fill-opacity:1;fill-rule:nonzero;stroke:none;stroke-width:2;marker:none;enable-background:accumulate"
         id="rect6284"
         height="48" />
      <rect
         y="126"
         x="323"
         width="32"
         style="display:inline;overflow:visible;visibility:visible;fill:#eeeeec;fill-opacity:1;fill-rule:nonzero;stroke:none;stroke-width:2;marker:none;enable-background:accumulate"
         id="rect6592"
         height="32" />
      <rect
         y="177"
         x="323"
         width="22"
         style="display:inline;overflow:visible;visibility:visible;fill:#eeeeec;fill-opacity:1;fill-rule:nonzero;stroke:none;stroke-width:2;marker:none;enable-background:accumulate"
         id="rect6749"
         height="22" />
      <rect
         y="219"
         x="323"
         width="16"
         style="display:inline;overflow:visible;visibility:visible;fill:#eeeeec;fill-opacity:1;fill-rule:nonzero;stroke:none;stroke-width:2;marker:none;enable-background:accumulate"
         id="rect6833"
         height="16" />
      <text
         y="21.513618"
         xml:space="preserve"
         x="40.970734"
         style="font-style:normal;font-weight:normal;line-height:0%;font-family:'Bitstream Vera Sans';display:inline;fill:#000000;fill-opacity:1;stroke:none;enable-background:new"
         id="context"><tspan
           style="font-size:18.30070686px;line-height:1.25"
           y="21.513618"
           x="40.970734"
           id="tspan2716">actions</tspan></text>
      <text
         y="21.513618"
         xml:space="preserve"
         x="211.9707"
         style="font-style:normal;font-variant:normal;font-weight:bold;font-stretch:normal;line-height:0%;font-family:'Droid Sans';-inkscape-font-specification:'Droid Sans Bold';text-align:start;writing-mode:lr-tb;text-anchor:start;display:inline;fill:#000000;fill-opacity:1;stroke:none;enable-background:new"
         id="icon-name"><tspan
           style="font-size:18.30070686px;line-height:1.25"
           y="21.513618"
           x="211.9707"
           id="tspan3023">edit-clear</tspan></text>
    </g>
    <g
       id="layer4">
      <g
         transform="translate(20)"
         id="g6464">
        <g
           style="display:inline;enable-background:new"
           id="g27033"
           transform="translate(303,219)">
          <g
             style="display:inline"
             id="g27035"
             transform="translate(-41,-760)">
            <path
               style="color:#000000;display:inline;overflow:visible;visibility:visible;fill:#babdb6;fill-opacity:1;fill-rule:nonzero;stroke:none;stroke-width:1;marker:none;enable-background:accumulate"
               d="m 126,540 -6,6 6,6 h 9.0353 C 135.56563,551.9779 136,551.50823 136,551 v -10 c 0,-0.53079 -0.34561,-1 -1.0089,-1 z m 1,3 h 1 c 0.0104,-1.2e-4 0.0208,-4.6e-4 0.0313,0 0.25495,0.0112 0.50987,0.12858 0.6875,0.3125 l 1.2812,1.28125 1.3125,-1.28125 C 131.57812,543.082 131.75917,543.007 132,543 h 1 v 1 c 0,0.28647 -0.0343,0.55065 -0.25,0.75 l -1.28125,1.28125 1.25,1.25 C 132.90694,547.46942 132.99999,547.7347 133,548 v 1 h -1 c -0.2653,-10e-6 -0.53059,-0.0931 -0.71875,-0.28125 L 130,547.4375 l -1.28125,1.28125 C 128.53059,548.90694 128.26529,549 128,549 h -1 v -1 c 0,-0.26529 0.0931,-0.53058 0.28125,-0.71875 l 1.28125,-1.25 -1.28125,-1.28125 C 127.07051,544.55537 126.97809,544.28075 127,544 Z"
               transform="translate(-79,222)"
               id="path27041" />
          </g>
        </g>
        <g
           transform="translate(0,-5.8005171e-6)"
           style="display:inline;enable-background:new"
           id="g7044">
          <g
             style="display:inline;fill:#babdb6;fill-opacity:1"
             id="g6262"
             transform="translate(305.9337,180.0442)">
            <path
               style="color:#000000;display:inline;overflow:visible;visibility:visible;fill:#babdb6;fill-opacity:1;fill-rule:nonzero;stroke:#888a85;stroke-width:0.99999994;marker:none;enable-background:accumulate"
               d="m 5.854161,1.47408 -6.437512,6.52589 6.437512,6.43752 H 15 c 0.990973,0 1.583348,-0.47235 1.583348,-1.43749 V 2.91161 C 16.583348,1.98857 15.954726,1.47408 15,1.47408 Z"
               id="path6268" />
            <path
               style="color:#000000;display:inline;overflow:visible;visibility:visible;fill:#888a85;fill-opacity:1;fill-rule:nonzero;stroke:none;stroke-width:1;marker:none;enable-background:accumulate"
               d="m 7.022097,4 h 1 c 0.0104,-1.2e-4 0.0208,-4.6e-4 0.0313,0 0.25495,0.0112 0.50987,0.12858 0.6875,0.3125 l 1.2812,1.28125 1.3125,-1.28125 C 11.600217,4.082 11.781267,4.007 12.022097,4 h 1 v 1 c 0,0.28647 -0.0343,0.55065 -0.25,0.75 l -1.28125,1.28125 1.25,1.25 C 12.929037,8.46942 13.022087,8.7347 13.022097,9 v 1 h -1 c -0.2653,-10e-6 -0.53059,-0.0931 -0.71875,-0.28125 L 10.022097,8.4375 8.740847,9.71875 C 8.552687,9.90694 8.287387,10 8.022097,10 h -1 V 9 c 0,-0.26529 0.0931,-0.53058 0.28125,-0.71875 l 1.28125,-1.25 L 7.303347,5.75 C 7.092607,5.55537 7.000187,5.28075 7.022097,5 Z"
               id="path7042" />
            <path
               id="path6266"
               d="m 7.022097,5 h 1 c 0.0104,-1.2e-4 0.0208,-4.6e-4 0.0313,0 0.25495,0.0112 0.50987,0.12858 0.6875,0.3125 l 1.2812,1.28125 1.3125,-1.28125 C 11.600217,5.082 11.781267,5.007 12.022097,5 h 1 v 1 c 0,0.28647 -0.0343,0.55065 -0.25,0.75 l -1.28125,1.28125 1.25,1.25 c 0.18819,0.18817 0.28124,0.45345 0.28125,0.71875 v 1 h -1 c -0.2653,-10e-6 -0.53059,-0.0931 -0.71875,-0.28125 L 10.022097,9.4375 8.740847,10.71875 C 8.552687,10.90694 8.287387,11 8.022097,11 h -1 v -1 c 0,-0.26529 0.0931,-0.53058 0.28125,-0.71875 l 1.28125,-1.25 L 7.303347,6.75 C 7.092607,6.55537 7.000187,6.28075 7.022097,6 Z"
               style="color:#000000;display:inline;overflow:visible;visibility:visible;fill:#eeeeec;fill-opacity:1;fill-rule:nonzero;stroke:none;stroke-width:1;marker:none;enable-background:accumulate" />
          </g>
          <path
             id="path6270"
             d="m 306,188 6,-6 h 9 c 1,0 1,1 1,1 h -10 z"
             style="color:#bebebe;display:inline;overflow:visible;visibility:visible;opacity:0.48979594;fill:#ffffff;fill-opacity:1;fill-rule:nonzero;stroke:none;stroke-width:1;marker:none;enable-background:accumulate" />
        </g>
        <g
           style="display:inline;enable-background:new"
           id="g7051"
           transform="matrix(1.5456693,0,0,1.5456693,-167.02808,-148.04602)">
          <g
             transform="translate(305.9337,180.0442)"
             id="g7053"
             style="display:inline;fill:#babdb6;fill-opacity:1">
            <path
               id="path7055"
               d="m 5.854161,1.47408 -6.437512,6.52589 6.437512,6.43752 H 15 c 0.990973,0 1.583348,-0.47235 1.583348,-1.43749 V 2.91161 C 16.583348,1.98857 15.954726,1.47408 15,1.47408 Z"
               style="color:#000000;display:inline;overflow:visible;visibility:visible;fill:#babdb6;fill-opacity:1;fill-rule:nonzero;stroke:#888a85;stroke-width:0.6469689;marker:none;enable-background:accumulate" />
            <path
               id="path7057"
               d="m 7.022097,4.3719499 h 1 c 0.0104,-1.2e-4 0.0208,-4.6e-4 0.0313,0 0.25495,0.0112 0.50987,0.12858 0.6875,0.3125 l 1.2812,1.28125 1.3125,-1.28125 c 0.26562,-0.2305 0.44667,-0.3055 0.6875,-0.3125 h 1 v 1 c 0,0.28647 -0.0343,0.55065 -0.25,0.75 l -1.28125,1.28125 1.25,1.25 c 0.18819,0.18817 0.28124,0.45345 0.28125,0.71875 V 10.37195 h -1 c -0.2653,-10e-6 -0.53059,-0.0931 -0.71875,-0.28125 L 10.022097,8.8094499 8.740847,10.0907 c -0.18816,0.18819 -0.45346,0.28125 -0.71875,0.28125 h -1 V 9.3719499 c 0,-0.26529 0.0931,-0.53058 0.28125,-0.71875 l 1.28125,-1.25 -1.28125,-1.28125 c -0.21074,-0.19463 -0.30316,-0.46925 -0.28125,-0.75 z"
               style="color:#000000;display:inline;overflow:visible;visibility:visible;fill:#888a85;fill-opacity:1;fill-rule:nonzero;stroke:none;stroke-width:1;marker:none;enable-background:accumulate" />
            <path
               style="color:#000000;display:inline;overflow:visible;visibility:visible;fill:#eeeeec;fill-opacity:1;fill-rule:nonzero;stroke:none;stroke-width:1;marker:none;enable-background:accumulate"
               d="m 7.022097,5.0285923 h 1 c 0.0104,-1.2e-4 0.0208,-4.6e-4 0.0313,0 0.25495,0.0112 0.50987,0.12858 0.6875,0.3125 l 1.2812,1.28125 1.3125,-1.28125 c 0.26562,-0.2305 0.44667,-0.3055 0.6875,-0.3125 h 1 v 1 c 0,0.28647 -0.0343,0.55065 -0.25,0.75 l -1.28125,1.28125 1.25,1.25 c 0.18819,0.18817 0.28124,0.45345 0.28125,0.7187497 v 1 h -1 c -0.2653,-10e-6 -0.53059,-0.0931 -0.71875,-0.28125 l -1.28125,-1.2812497 -1.28125,1.2812497 c -0.18816,0.18819 -0.45346,0.28125 -0.71875,0.28125 h -1 v -1 c 0,-0.2652897 0.0931,-0.5305797 0.28125,-0.7187497 l 1.28125,-1.25 -1.28125,-1.28125 c -0.21074,-0.19463 -0.30316,-0.46925 -0.28125,-0.75 z"
               id="path7059" />
          </g>
          <path
             style="color:#bebebe;display:inline;overflow:visible;visibility:visible;opacity:0.48979594;fill:#ffffff;fill-opacity:1;fill-rule:nonzero;stroke:none;stroke-width:1;marker:none;enable-background:accumulate"
             d="m 306,187.82804 6,-6 h 9 c 1,0 1.20869,0.64697 1.20869,0.64697 h -10.3515 z"
             id="path7061" />
        </g>
        <g
           style="display:inline;enable-background:new"
           transform="matrix(1.5456693,0,0,1.5456693,-164.0047,-216.10438)"
           id="g7063">
          <g
             style="display:inline;fill:#babdb6;fill-opacity:1"
             id="g7065"
             transform="translate(305.9337,180.0442)">
            <path
               style="color:#000000;display:inline;overflow:visible;visibility:visible;fill:#babdb6;fill-opacity:1;fill-rule:nonzero;stroke:#888a85;stroke-width:0.6469689;marker:none;enable-background:accumulate"
               d="m 5.854161,1.47408 -6.437512,6.52589 6.437512,6.43752 H 15 c 0.990973,0 1.583348,-0.47235 1.583348,-1.43749 V 2.91161 C 16.583348,1.98857 15.954726,1.47408 15,1.47408 Z"
               id="path7067" />
            <path
               style="color:#000000;display:inline;overflow:visible;visibility:visible;fill:#888a85;fill-opacity:1;fill-rule:nonzero;stroke:none;stroke-width:1;marker:none;enable-background:accumulate"
               d="m 7.022097,4.3719499 h 1 c 0.0104,-1.2e-4 0.0208,-4.6e-4 0.0313,0 0.25495,0.0112 0.50987,0.12858 0.6875,0.3125 l 1.2812,1.28125 1.3125,-1.28125 c 0.26562,-0.2305 0.44667,-0.3055 0.6875,-0.3125 h 1 v 1 c 0,0.28647 -0.0343,0.55065 -0.25,0.75 l -1.28125,1.28125 1.25,1.25 c 0.18819,0.18817 0.28124,0.45345 0.28125,0.71875 V 10.37195 h -1 c -0.2653,-10e-6 -0.53059,-0.0931 -0.71875,-0.28125 L 10.022097,8.8094499 8.740847,10.0907 c -0.18816,0.18819 -0.45346,0.28125 -0.71875,0.28125 h -1 V 9.3719499 c 0,-0.26529 0.0931,-0.53058 0.28125,-0.71875 l 1.28125,-1.25 -1.28125,-1.28125 c -0.21074,-0.19463 -0.30316,-0.46925 -0.28125,-0.75 z"
               id="path7069" />
            <path
               id="path7071"
               d="m 7.022097,5.0285923 h 1 c 0.0104,-1.2e-4 0.0208,-4.6e-4 0.0313,0 0.25495,0.0112 0.50987,0.12858 0.6875,0.3125 l 1.2812,1.28125 1.3125,-1.28125 c 0.26562,-0.2305 0.44667,-0.3055 0.6875,-0.3125 h 1 v 1 c 0,0.28647 -0.0343,0.55065 -0.25,0.75 l -1.28125,1.28125 1.25,1.25 c 0.18819,0.18817 0.28124,0.45345 0.28125,0.7187497 v 1 h -1 c -0.2653,-10e-6 -0.53059,-0.0931 -0.71875,-0.28125 l -1.28125,-1.2812497 -1.28125,1.2812497 c -0.18816,0.18819 -0.45346,0.28125 -0.71875,0.28125 h -1 v -1 c 0,-0.2652897 0.0931,-0.5305797 0.28125,-0.7187497 l 1.28125,-1.25 -1.28125,-1.28125 c -0.21074,-0.19463 -0.30316,-0.46925 -0.28125,-0.75 z"
               style="color:#000000;display:inline;overflow:visible;visibility:visible;fill:#eeeeec;fill-opacity:1;fill-rule:nonzero;stroke:none;stroke-width:1;marker:none;enable-background:accumulate" />
          </g>
          <path
             id="path7073"
             d="m 306,187.82804 6,-6 h 9 c 1,0 1.20869,0.64697 1.20869,0.64697 h -10.3515 z"
             style="color:#bebebe;display:inline;overflow:visible;visibility:visible;opacity:0.48979594;fill:#ffffff;fill-opacity:1;fill-rule:nonzero;stroke:none;stroke-width:1;marker:none;enable-background:accumulate" />
        </g>
        <path
           style="color:#bebebe;display:inline;overflow:visible;visibility:visible;fill:none;stroke:url(#radialGradient1638600);stroke-width:1;stroke-opacity:1;marker:none;enable-background:accumulate"
           d="m 318.50741,221.99728 0.0221,9.50175 c 0,0.83969 2.5e-4,0.99437 -0.99437,0.99437 h -8.3748 l -5.51322,-5.51322 4.83926,-4.99395"
           id="path7075" />
        <path
           style="color:#000000;display:inline;overflow:visible;visibility:visible;fill:#888a85;fill-opacity:1;fill-rule:nonzero;stroke:none;stroke-width:1;marker:none;enable-background:accumulate"
           d="m 310,223 h 1 c 0.0104,-1.2e-4 0.0208,-4.6e-4 0.0313,0 0.25495,0.0112 0.50987,0.12858 0.6875,0.3125 l 1.2812,1.28125 1.3125,-1.28125 C 314.57812,223.082 314.75917,223.007 315,223 h 1 v 1 c 0,0.28647 -0.0343,0.55065 -0.25,0.75 l -1.28125,1.28125 1.25,1.25 C 315.90694,227.46942 315.99999,227.7347 316,228 v 1 h -1 c -0.2653,-1e-5 -0.53059,-0.0931 -0.71875,-0.28125 L 313,227.4375 l -1.28125,1.28125 C 311.53059,228.90694 311.26529,229 311,229 h -1 v -1 c 0,-0.26529 0.0931,-0.53058 0.28125,-0.71875 l 1.28125,-1.25 -1.28125,-1.28125 C 310.07051,224.55537 309.97809,224.28075 310,224 Z"
           id="path7105" />
        <path
           id="path6266-4"
           d="m 310,224 h 1 c 0.0104,-1.2e-4 0.0208,-4.6e-4 0.0313,0 0.25495,0.0112 0.50987,0.12858 0.6875,0.3125 l 1.2812,1.28125 1.3125,-1.28125 C 314.57812,224.082 314.75917,224.007 315,224 h 1 v 1 c 0,0.28647 -0.0343,0.55065 -0.25,0.75 l -1.28125,1.28125 1.25,1.25 C 315.90694,228.46942 315.99999,228.7347 316,229 v 1 h -1 c -0.2653,-1e-5 -0.53059,-0.0931 -0.71875,-0.28125 L 313,228.4375 l -1.28125,1.28125 C 311.53059,229.90694 311.26529,230 311,230 h -1 v -1 c 0,-0.26529 0.0931,-0.53058 0.28125,-0.71875 l 1.28125,-1.25 -1.28125,-1.28125 C 310.07051,225.55537 309.97809,225.28075 310,225 Z"
           style="color:#000000;display:inline;overflow:visible;visibility:visible;fill:#eeeeec;fill-opacity:1;fill-rule:nonzero;stroke:none;stroke-width:1;marker:none;enable-background:accumulate" />
      </g>
    </g>
  </g>
  <g
     transform="translate(84,-50)"
     style="display:inline"
     id="g6394">
    <g
       style="display:none"
       id="g6396">
      <rect
         transform="scale(-1,1)"
         y="50"
         x="36"
         width="48"
         style="display:inline;overflow:visible;visibility:visible;fill:#eeeeec;fill-opacity:1;fill-rule:nonzero;stroke:none;stroke-width:2;marker:none;enable-background:accumulate"
         id="rect6398"
         height="48" />
      <rect
         transform="scale(-1,1)"
         y="126"
         x="43"
         width="32"
         style="display:inline;overflow:visible;visibility:visible;fill:#eeeeec;fill-opacity:1;fill-rule:nonzero;stroke:none;stroke-width:2;marker:none;enable-background:accumulate"
         id="rect6400"
         height="32" />
      <rect
         transform="scale(-1,1)"
         y="177"
         x="43"
         width="22"
         style="display:inline;overflow:visible;visibility:visible;fill:#eeeeec;fill-opacity:1;fill-rule:nonzero;stroke:none;stroke-width:2;marker:none;enable-background:accumulate"
         id="rect6402"
         height="22" />
      <rect
         transform="scale(-1,1)"
         y="219"
         x="43"
         width="16"
         style="display:inline;overflow:visible;visibility:visible;fill:#eeeeec;fill-opacity:1;fill-rule:nonzero;stroke:none;stroke-width:2;marker:none;enable-background:accumulate"
         id="rect6404"
         height="16" />
      <text
         y="21.513618"
         xml:space="preserve"
         x="-359.02927"
         style="font-style:normal;font-weight:normal;line-height:0%;font-family:'Bitstream Vera Sans';display:inline;fill:#000000;fill-opacity:1;stroke:none;enable-background:new"
         id="text6406"><tspan
           style="font-size:18.30070686px;line-height:1.25"
           y="21.513618"
           x="-359.02927"
           id="tspan6408">actions</tspan></text>
      <text
         y="21.513618"
         xml:space="preserve"
         x="-188.02927"
         style="font-style:normal;font-variant:normal;font-weight:bold;font-stretch:normal;line-height:0%;font-family:'Droid Sans';-inkscape-font-specification:'Droid Sans Bold';text-align:start;writing-mode:lr-tb;text-anchor:start;display:inline;fill:#000000;fill-opacity:1;stroke:none;enable-background:new"
         id="text6410"><tspan
           style="font-size:18.30070686px;line-height:1.25"
           y="21.513618"
           x="-188.02927"
           id="tspan6412">edit-clear-rtl</tspan></text>
    </g>
    <g
       id="g6414">
      <use
         transform="matrix(-1,0,0,1,280,-2.8005171e-6)"
         height="1"
         width="1"
         id="use6490-1"
         xlink:href="#g6464"
         y="0"
         x="0"
         style="display:inline;enable-background:new" />
    </g>
  </g>
</svg>
