<?xml version="1.0" encoding="UTF-8"?>
<svg enable-background="new" version="1.0" viewBox="0 0 256 256" xmlns="http://www.w3.org/2000/svg" xmlns:xlink="http://www.w3.org/1999/xlink"><defs><filter id="ao" x="-.089088" y="-.26489" width="1.1782" height="1.5298" color-interpolation-filters="sRGB"><feGaussianBlur stdDeviation="0.51736111"/></filter><filter id="au" x="-.094329" y="-.28047" width="1.1887" height="1.5609" color-interpolation-filters="sRGB"><feGaussianBlur stdDeviation="0.54779412"/></filter><filter id="at" x="-.43765" y="-.43765" width="1.8753" height="1.8753" color-interpolation-filters="sRGB"><feGaussianBlur stdDeviation="0.79779412"/></filter><filter id="aq" x="-.091874" y="-.20845" width="1.1837" height="1.4169" color-interpolation-filters="sRGB"><feGaussianBlur stdDeviation="0.50811126"/></filter><clipPath id="m"><circle cx="314.97" cy="177.84" r="8.5312" enable-background="accumulate" fill="none" stroke="#ce5c00" stroke-linecap="round" stroke-linejoin="round" stroke-width=".087521"/></clipPath><filter id="ar" color-interpolation-filters="sRGB"><feGaussianBlur stdDeviation="0.0853125"/></filter><filter id="av" x="-.060222" y="-.10389" width="1.1204" height="1.2078" color-interpolation-filters="sRGB"><feGaussianBlur stdDeviation="4.1144816"/></filter><filter id="aj" color-interpolation-filters="sRGB"><feGaussianBlur stdDeviation="0.170625"/></filter><radialGradient id="f" cx="142.75" cy="172.87" r="16.25" gradientTransform="matrix(1 0 0 .49231 0 89.646)" gradientUnits="userSpaceOnUse" xlink:href="#ai"/><linearGradient id="ai"><stop stop-color="#fdfcbc" offset="0"/><stop stop-color="#fdfcbc" stop-opacity="0" offset="1"/></linearGradient><filter id="l" x="-.10702" y="-.081841" width="1.214" height="1.1637" color-interpolation-filters="sRGB"><feGaussianBlur stdDeviation="1.4492839"/></filter><radialGradient id="e" cx="172.5" cy="101.34" r="8.5" gradientTransform="matrix(.35294 0 0 .54902 108.62 48.613)" gradientUnits="userSpaceOnUse" xlink:href="#ad"/><linearGradient id="ad"><stop stop-color="#b3b3b3" offset="0"/><stop offset="1"/></linearGradient><radialGradient id="d" cx="175.62" cy="130.62" r="5.625" gradientTransform="matrix(2.4905 0 0 2.9335 -261.77 -251.8)" gradientUnits="userSpaceOnUse" xlink:href="#ae"/><linearGradient id="ae"><stop stop-color="#fcfbb6" offset="0"/><stop stop-color="#fcfbb6" stop-opacity="0" offset="1"/></linearGradient><filter id="k" x="-.18307" y="-.15542" width="1.3661" height="1.3108" color-interpolation-filters="sRGB"><feGaussianBlur stdDeviation="0.85812722"/></filter><radialGradient id="c" cx="171.69" cy="140.91" r="8.5" gradientTransform="matrix(.087521 0 0 .071114 301 167.17)" gradientUnits="userSpaceOnUse" xlink:href="#af"/><linearGradient id="af"><stop stop-color="#fff" offset="0"/><stop stop-color="#fff" stop-opacity="0" offset="1"/></linearGradient><radialGradient id="b" cx="172.75" cy="113.19" r="7.625" gradientTransform="matrix(.087521 0 0 .15137 301.13 157.91)" gradientUnits="userSpaceOnUse" xlink:href="#a"/><linearGradient id="a"><stop stop-color="#fefcd6" offset="0"/><stop stop-color="#fefcd6" stop-opacity="0" offset="1"/></linearGradient><radialGradient id="n" cx="168.37" cy="110.94" r="7.625" gradientTransform="matrix(.75715 1.4229 -2.6528 1.4116 336.7 -292.12)" gradientUnits="userSpaceOnUse" xlink:href="#a"/><filter id="j" x="-.22608" y="-.1777" width="1.4522" height="1.3554" color-interpolation-filters="sRGB"><feGaussianBlur stdDeviation="1.9984637"/></filter><filter id="ap" color-interpolation-filters="sRGB"><feGaussianBlur stdDeviation="0.27873744"/></filter><radialGradient id="o" cx="169.5" cy="110.73" r="7.625" gradientTransform="matrix(1.3958 .80589 -1.4397 2.4936 94.573 -308.27)" gradientUnits="userSpaceOnUse" xlink:href="#a"/><linearGradient id="aa" x1="24.767" x2="23.001" y1="22.151" y2="13.614" gradientTransform="matrix(.2907 0 0 .2907 307.92 171.95)" gradientUnits="userSpaceOnUse" xlink:href="#h"/><linearGradient id="h"><stop stop-color="#729fcf" offset="0"/><stop stop-color="#35689e" offset=".16566"/><stop stop-color="#729fcf" offset=".62931"/><stop stop-color="#729fcf" stop-opacity="0" offset="1"/></linearGradient><linearGradient id="z" x1="36.593" x2="35.032" y1="18.229" y2="13.809" gradientTransform="matrix(.2907 0 0 .2907 304.44 172.3)" gradientUnits="userSpaceOnUse" xlink:href="#i"/><linearGradient id="i"><stop stop-color="#d6e0f8" offset="0"/><stop stop-color="#d6e0f8" stop-opacity="0" offset="1"/></linearGradient><radialGradient id="g" cx="14.438" cy="24.438" r="1.1875" gradientUnits="userSpaceOnUse"><stop stop-color="#fff" offset="0"/><stop stop-color="#fff" stop-opacity="0" offset="1"/></radialGradient><linearGradient id="ac" x1="314.99" x2="314.64" y1="177.45" y2="175.96" gradientUnits="userSpaceOnUse"><stop stop-color="#204a87" offset="0"/><stop stop-color="#204a87" stop-opacity="0" offset="1"/></linearGradient><clipPath id="ay"><path d="m314.16 174.85s0.13505 2.3094 0.19597 2.8382c0.15435 1.3492 2.7684 0.75976 0.63746-0.93716-0.57401-0.4571 0.45777-1.3258 0.45777-1.3258 0.16882 0.25322-1.2216-0.47087-1.2912-0.57522z" enable-background="new" fill="none" stroke="#204a87" stroke-width=".16162"/></clipPath><filter id="an" color-interpolation-filters="sRGB"><feGaussianBlur stdDeviation="0.052600617"/></filter><radialGradient id="p" cx="179.5" cy="145.54" r="6.375" gradientTransform="matrix(.10726 0 0 .058366 298.42 169.21)" gradientUnits="userSpaceOnUse"><stop stop-color="#edd400" offset="0"/><stop stop-color="#edd400" stop-opacity="0" offset="1"/></radialGradient><radialGradient id="v" cx="314.11" cy="187.63" r="5.8438" gradientTransform="matrix(.99731 -.073293 .052419 .71328 -9.0125 72.341)" gradientUnits="userSpaceOnUse"><stop stop-color="#a45d03" offset="0"/><stop stop-color="#eca222" stop-opacity="0" offset="1"/></radialGradient><filter id="as" x="-.093659" y="-.27042" width="1.1873" height="1.5408" color-interpolation-filters="sRGB"><feGaussianBlur stdDeviation="0.45609948"/></filter><radialGradient id="x" cx="313.95" cy="179.55" r="5.8438" gradientTransform="matrix(1.4351 1.1852e-6 -3.2937e-7 .3988 -136.6 107.76)" gradientUnits="userSpaceOnUse"><stop offset="0"/><stop stop-opacity="0" offset="1"/></radialGradient><radialGradient id="w" cx="314.15" cy="185.48" r="5.8438" gradientTransform="matrix(1.2638 0 0 .3101 -82.576 123.12)" gradientUnits="userSpaceOnUse"><stop stop-color="#fff" offset="0"/><stop stop-color="#fff" stop-opacity="0" offset="1"/></radialGradient><linearGradient id="ab" x1="313.1" x2="313.27" y1="179.64" y2="175.83" gradientTransform="translate(0 -.17504)" gradientUnits="userSpaceOnUse"><stop offset="0"/><stop stop-opacity="0" offset="1"/></linearGradient><filter id="am" x="-.11053" y="-.038809" width="1.2211" height="1.0776" color-interpolation-filters="sRGB"><feGaussianBlur stdDeviation="0.10235889"/></filter><linearGradient id="ag" x1="17.617" x2="16.829" y1="27.258" y2="9.0224" gradientTransform="matrix(.2907 0 0 .2907 307.92 171.95)" gradientUnits="userSpaceOnUse" xlink:href="#h"/><radialGradient id="y" cx="13.665" cy="20.542" r="4.3086" gradientTransform="matrix(.39823 0 0 .82706 306.45 161.7)" gradientUnits="userSpaceOnUse" xlink:href="#i"/><radialGradient id="u" cx="106.62" cy="172.39" r="9.25" gradientTransform="matrix(1 0 0 .46625 0 89.436)" gradientUnits="userSpaceOnUse"><stop stop-color="#fce94f" offset="0"/><stop stop-color="#fce94f" stop-opacity="0" offset="1"/></radialGradient><clipPath id="ax"><path d="m120.14 102.33s-1.6564 21.218-3.2241 27.068c-1.4498 5.4099-6.1921 14.771-3.5704 25.355 3.2868 13.27-2.6885 17.852-9.1554 18.136-5.9613 0.26187-12.956-2.6064-12.688-13.164 0.38333-14.821 23.872-20.361 15.77-33.814-4.1296-6.8579-7.5588-13.243-6.5125-13.999 0 0 19.38-9.5823 19.38-9.5823z" enable-background="new" fill="#2e3436"/></clipPath><filter id="al" x="-.065513" y="-.14051" width="1.131" height="1.281" color-interpolation-filters="sRGB"><feGaussianBlur stdDeviation="0.50499928"/></filter><clipPath id="aw"><path d="m313.75 174.11s-0.14497 1.857-0.28218 2.3691c-0.12689 0.47348-0.54194 1.2928-0.31249 2.2191 0.28767 1.1614-0.2353 1.5624-0.80129 1.5873-0.52174 0.0229-1.1339-0.22812-1.1105-1.1521 0.0336-1.2971 2.0893-1.782 1.3802-2.9595-0.36143-0.60021-0.66156-1.159-0.56998-1.2252l1.6962-0.83866z" enable-background="new" fill="none" stroke="#204a87" stroke-width=".17504"/></clipPath><filter id="ak" color-interpolation-filters="sRGB"><feGaussianBlur stdDeviation="0.069286705"/></filter><linearGradient id="ah" x1="312.5" x2="312.76" y1="178.05" y2="176.04" gradientUnits="userSpaceOnUse"><stop stop-color="#204a87" offset="0"/><stop stop-color="#204a87" stop-opacity="0" offset="1"/></linearGradient><radialGradient id="t" cx="314.03" cy="185.22" r="6.9688" gradientTransform="matrix(1 0 0 .33632 0 122.93)" gradientUnits="userSpaceOnUse"><stop offset="0"/><stop stop-opacity="0" offset="1"/></radialGradient><radialGradient id="s" cx="314.97" cy="174.44" r="9.0312" gradientTransform="matrix(1.0104 0 0 1.2333 -3.2773 -40.211)" gradientUnits="userSpaceOnUse"><stop stop-color="#ffed50" offset="0"/><stop stop-color="#e16f00" offset=".83825"/><stop stop-color="#8e5502" offset="1"/></radialGradient><radialGradient id="r" cx="140.19" cy="286.6" r="81.986" gradientTransform="matrix(1.3652 -2.348e-8 0 .53696 -51.204 92.821)" gradientUnits="userSpaceOnUse"><stop stop-color="#fff" offset="0"/><stop stop-color="#fff" stop-opacity="0" offset="1"/></radialGradient><radialGradient id="q" cx="141.58" cy="30.179" r="90.828" gradientTransform="matrix(.13119 0 0 .057822 295.52 168.16)" gradientUnits="userSpaceOnUse"><stop stop-color="#fff" offset="0"/><stop stop-color="#fff" stop-opacity="0" offset="1"/></radialGradient></defs><g transform="translate(-820,-28)"><g transform="matrix(11.426 0 0 11.426 -2641.9 -1885.6)" enable-background="new"><g opacity=".63547"><ellipse transform="matrix(.68602 0 0 .68602 98.599 58.176)" cx="314.03" cy="185.22" rx="6.9688" ry="2.3438" enable-background="accumulate" filter="url(#ao)"/><ellipse transform="matrix(1.24 0 0 1.24 -75.368 -44.496)" cx="314.03" cy="185.22" rx="6.9688" ry="2.3438" enable-background="accumulate" fill="url(#t)" filter="url(#au)"/></g><circle transform="matrix(1.0344 0 0 1.0344 -11.698 -6.1114)" cx="314.97" cy="177.84" r="8.5312" enable-background="accumulate" fill="url(#s)"/><circle transform="matrix(1.4 0 0 1.4 -126.24 -72.825)" cx="314.5" cy="175.38" r="2.1875" enable-background="accumulate" fill="#fcffcd" filter="url(#at)"/><circle transform="matrix(1.0344 0 0 1.0344 -11.698 -6.1114)" cx="314.97" cy="177.84" r="8.5312" clip-path="url(#m)" enable-background="accumulate" fill="none" filter="url(#ar)" stroke="#000" stroke-linecap="round" stroke-linejoin="round" stroke-width=".042307"/><path transform="matrix(.094994 0 0 .087521 300.65 165.11)" d="m58.219 144.19c-1.5992 126.96 166.23 123.05 163.94 10.219-2.1677 94.357-161.55 97.864-163.91-10.219z" fill="url(#r)" fill-rule="evenodd" filter="url(#av)" opacity=".55172"/><path transform="matrix(.8945 0 0 .74568 33.137 43.141)" d="m314.09 169.63c-3.6633 0-6.6377 2.0382-6.6377 4.5485 0 0.45252 0.0987 0.88918 0.27858 1.3018 0.81756-1.8766 3.3559-3.2467 6.3592-3.2467 3.0033 0 5.5416 1.37 6.3592 3.2467 0.17987-0.41262 0.2763-0.84928 0.2763-1.3018 0-2.5103-2.9722-4.5485-6.6355-4.5485z" enable-background="accumulate" fill="url(#q)" filter="url(#aq)"/><circle transform="matrix(.9958 0 0 .9958 .44883 .74749)" cx="314.97" cy="177.84" r="8.5312" clip-path="url(#m)" enable-background="accumulate" fill="none" filter="url(#aj)" stroke="#fff" stroke-linecap="round" stroke-linejoin="round" stroke-width=".043945"/></g><g transform="matrix(11.426 0 0 11.426 -2662 -1868.4)" enable-background="new"><path transform="matrix(.84249 0 0 1 49.243 0)" d="m313.75 173.94s-0.14497 1.857-0.28218 2.3691c-0.12689 0.47348-0.2575 1.4459-0.0281 2.3722 0.28767 1.1614-0.2353 1.5624-0.80129 1.5873-0.52174 0.0229-1.1339-0.22812-1.1105-1.1521 0.0335-1.2971 1.8049-1.9352 1.0958-3.1126-0.36143-0.60021-0.66156-1.159-0.56998-1.2252l1.6962-0.83866z" enable-background="new" fill="url(#ab)" filter="url(#am)" opacity=".19565"/><path d="m313.75 174.11s-0.14497 1.857-0.28218 2.3691c-0.12689 0.47348-0.54194 1.2928-0.31249 2.2191 0.28767 1.1614-0.2353 1.5624-0.80129 1.5873-0.52174 0.0229-1.1339-0.22812-1.1105-1.1521 0.0336-1.2971 2.0893-1.782 1.3802-2.9595-0.36143-0.60021-0.66156-1.159-0.56998-1.2252l1.6962-0.83866z" enable-background="new" fill="url(#ag)"/><path d="m313.74 174.14s-0.17146 1.7692-0.42582 2.6141-0.62846 1.0106-0.37845 1.9832c0.12974 0.50467-0.16203 1.0586-0.61956 1.0586-0.47458 0-0.87549-0.28137-0.84643-0.89342 0.0542-1.1406 0.75596-0.72727 1.2706-1.742 0.42313-0.83435-0.56548-2.3154-0.56548-2.3154z" enable-background="new" fill="url(#y)" opacity=".57065"/><circle transform="matrix(.2907 0 0 .2907 307.77 171.77)" cx="14.438" cy="24.438" r="1.1875" enable-background="new" fill="#fff"/><circle transform="matrix(.62236 0 0 .62236 303.09 163.72)" cx="14.438" cy="24.438" r="1.1875" enable-background="new" fill="url(#g)"/><path transform="matrix(.087521 0 0 .087521 303.23 165.15)" d="m94.875 167.38c5.641 1.604 10.945 5.1157 18.5-4.125-2.9394 12.561-16.059 9.0601-18.5 4.125z" clip-path="url(#ax)" enable-background="accumulate" fill="url(#u)" filter="url(#al)"/><path d="m313.75 174.11s-0.14497 1.857-0.28218 2.3691c-0.12689 0.47348-0.54194 1.2928-0.31249 2.2191 0.28767 1.1614-0.2353 1.5624-0.80129 1.5873-0.52174 0.0229-1.1339-0.22812-1.1105-1.1521 0.0336-1.2971 2.0893-1.782 1.3802-2.9595-0.36143-0.60021-0.66156-1.159-0.56998-1.2252l1.6962-0.83866z" clip-path="url(#aw)" enable-background="new" fill="none" filter="url(#ak)" stroke="url(#ah)" stroke-width=".17504"/></g><g transform="matrix(5.3571 0 0 -5.3571 -739.24 1160.7)" enable-background="new" fill-rule="evenodd"><path transform="matrix(1.2242 0 0 1.2242 -70.023 -43.992)" d="m308.09 178.54c4.8193 4.7286 8.4159 3.0811 11.688 0-3.7031 5.3001-7.5941 5.4934-11.688 0z" fill="url(#v)" filter="url(#as)"/><path d="m306.8 177.65c5.9892 4.7183 10.354 3.1548 14.308 0-4.7104 4.4711-9.4772 4.6712-14.308 0z" fill="url(#x)"/><path d="m306.8 177.02c6.0905 5.7889 10.636 3.7719 14.77 0-4.8625 4.4711-9.7832 4.6712-14.77 0z" fill="url(#w)" opacity=".5468"/></g><g transform="matrix(11.426 0 0 13.403 -2644.5 -2205.1)" enable-background="new"><g transform="translate(2.4725 -.52513)"><path d="m314.16 174.85s0.13505 2.3094 0.19597 2.8382c0.15435 1.3492 2.7684 0.75976 0.63746-0.93716-0.57401-0.4571 0.45777-1.3258 0.45777-1.3258 0.16882 0.25322-1.2216-0.47087-1.2912-0.57522z" enable-background="new" fill="url(#aa)"/><path d="m314.41 175.78s0.0958 1.3824 0.21 1.7087c0.0899 0.25695 0.21487 0.48136 0.60382 0.44967 0.32508-0.0265 0.27519-0.48836-0.14133-0.71948-0.68832-0.3819-0.67249-1.4132-0.67249-1.4389z" enable-background="new" fill="url(#z)" opacity=".52174"/><circle transform="matrix(.22642 0 0 .208 311.8 172.58)" cx="14.438" cy="24.438" r="1.1875" enable-background="new" fill="url(#g)"/><path d="m314.16 174.85s0.13505 2.3094 0.19597 2.8382c0.15435 1.3492 2.7684 0.75976 0.63746-0.93716-0.57401-0.4571 0.45777-1.3258 0.45777-1.3258 0.16882 0.25322-1.2216-0.47087-1.2912-0.57522z" clip-path="url(#ay)" enable-background="new" fill="none" filter="url(#an)" stroke="url(#ac)" stroke-width=".16162"/></g><path d="m316.94 177.17c0.0196 0.53408 0.78829 0.86551 1.094 0.50872-0.41405-0.0743-0.82763-0.0953-1.094-0.50872z" enable-background="new" fill="url(#p)" opacity=".52174"/></g><g transform="matrix(11.426 0 0 9.2209 -2638.5 -1476.7)" enable-background="new"><path transform="matrix(.057899 0 0 -.087521 308.27 191.28)" d="m126.5 187s2.2108-41.347 15.5-41.5c13.731-0.15831 17 42.5 17 42.5-18.752-25.665-25.888-10.267-32.5-1z" fill="url(#f)" fill-rule="evenodd" filter="url(#l)" opacity=".49754"/><g transform="translate(.52513 -1.1815)"><g transform="matrix(.087521 0 0 .087521 300.65 165.15)" enable-background="new"><path transform="translate(5.9999 -.49998)" d="m164.16 99.938c-1.9275 3.6675-3.1562 9.2801-3.1562 15.562 0 11.04 3.808 20 8.5 20 3.3413 0 6.2362-4.5533 7.625-11.156-2.8705-3.6595-5.664-7.9556-8.125-12.781-2.0145-3.9502-3.6196-7.876-4.8438-11.625z" enable-background="accumulate" fill="url(#e)"/><path transform="matrix(1.1333 0 0 1 -23.417 0)" d="m170 119.75s0.97644 13.116 5.25 13.25c4.2253 0.13228 6-12.75 6-12.75-3.0256 4.18-4.5212 17.54-11.25-0.5z" fill="url(#d)" fill-rule="evenodd" filter="url(#k)" opacity=".30542"/></g><path d="m315.25 176.29c0.47539 1.162 1.026 1.2214 1.4879 0.0656-0.43206 0.8599-0.91039 1.0812-1.4879-0.0656z" fill="url(#c)" fill-rule="evenodd"/><path transform="matrix(.087521 0 0 .087521 301.05 165.13)" d="m166 99.75 15.75 27.25c-6.8004-5.7239-12.181-16.832-15.75-27.25z" fill="#b76609" fill-rule="evenodd" filter="url(#ap)"/><path d="m315.58 173.88 1.3347 2.3084c-0.2824-0.87122-0.75657-1.6105-1.3347-2.3084z" fill="url(#b)" fill-rule="evenodd"/><path transform="matrix(.087521 0 0 .087521 301.13 165.13)" d="m165.12 100 15.25 26.375c11.924-21.662 5.5312-29.355-15.25-26.375z" fill="url(#o)" fill-rule="evenodd" filter="url(#j)" opacity=".27179"/><path d="m315.54 173.88c0.41622 0.97671 0.88617 1.7654 1.4055 2.3811-0.57584-0.4971-1.1202-1.5235-1.4055-2.3811z" fill="#754004" fill-rule="evenodd"/></g></g><g transform="matrix(11.426 0 0 9.2209 -2650.5 -1476.7)" enable-background="new"><path transform="matrix(.057899 0 0 -.087521 303.72 191.28)" d="m126.5 187s2.2108-41.347 15.5-41.5c13.731-0.15831 13.221 42.75 13.221 42.75-15.307-21.808-19.866-9.915-28.721-1.25z" fill="url(#f)" fill-rule="evenodd" filter="url(#l)" opacity=".49754"/><g transform="matrix(-1 0 0 1 627.96 -1.1815)"><g transform="matrix(.087521 0 0 .087521 300.65 165.15)" enable-background="new"><path transform="translate(5.9999 -.49998)" d="m164.16 99.938c-1.9275 3.6675-3.1562 9.2801-3.1562 15.562 0 11.04 3.808 20 8.5 20 3.3413 0 6.2362-4.5533 7.625-11.156-2.8705-3.6595-5.664-7.9556-8.125-12.781-2.0145-3.9502-3.6196-7.876-4.8438-11.625z" enable-background="accumulate" fill="url(#e)"/><path transform="matrix(1.1333 0 0 1 -23.417 0)" d="m170 119.75s0.97644 13.116 5.25 13.25c4.2253 0.13228 6-12.75 6-12.75-3.0256 4.18-4.5212 17.54-11.25-0.5z" fill="url(#d)" fill-rule="evenodd" filter="url(#k)" opacity=".30542"/></g><path d="m315.25 176.29c0.47539 1.162 1.026 1.2214 1.4879 0.0656-0.43206 0.8599-0.91039 1.0812-1.4879-0.0656z" fill="url(#c)" fill-rule="evenodd"/><path d="m315.58 173.88 1.3347 2.3084c-0.2824-0.87122-0.75657-1.6105-1.3347-2.3084z" fill="url(#b)" fill-rule="evenodd"/><path transform="matrix(.087521 0 0 .087521 301.13 165.13)" d="m165.12 100 15.25 26.375c11.924-21.662 5.5312-29.355-15.25-26.375z" fill="url(#n)" fill-rule="evenodd" filter="url(#j)" opacity=".21026"/><path d="m315.54 173.88c0.41622 0.97671 0.88617 1.7654 1.4055 2.3811-0.57584-0.4971-1.1202-1.5235-1.4055-2.3811z" fill="#754004" fill-rule="evenodd"/></g></g></g></svg>
