<?xml version="1.0" encoding="UTF-8"?>
<svg enable-background="new" version="1.0" viewBox="0 0 256 256" xmlns="http://www.w3.org/2000/svg" xmlns:xlink="http://www.w3.org/1999/xlink"><defs><filter id="ah" x="-.089088" y="-.26489" width="1.1782" height="1.5298" color-interpolation-filters="sRGB"><feGaussianBlur stdDeviation="0.51736111"/></filter><filter id="aq" x="-.094329" y="-.28047" width="1.1887" height="1.5609" color-interpolation-filters="sRGB"><feGaussianBlur stdDeviation="0.54779412"/></filter><filter id="ap" x="-.43765" y="-.43765" width="1.8753" height="1.8753" color-interpolation-filters="sRGB"><feGaussianBlur stdDeviation="0.79779412"/></filter><filter id="ak" x="-.091874" y="-.20845" width="1.1837" height="1.4169" color-interpolation-filters="sRGB"><feGaussianBlur stdDeviation="0.50811126"/></filter><clipPath id="h"><circle cx="314.97" cy="177.84" r="8.5312" enable-background="accumulate" fill="none" stroke="#ce5c00" stroke-linecap="round" stroke-linejoin="round" stroke-width=".087521"/></clipPath><filter id="ao" color-interpolation-filters="sRGB"><feGaussianBlur stdDeviation="0.0853125"/></filter><filter id="ar" x="-.060222" y="-.10389" width="1.1204" height="1.2078" color-interpolation-filters="sRGB"><feGaussianBlur stdDeviation="4.1144816"/></filter><filter id="af" color-interpolation-filters="sRGB"><feGaussianBlur stdDeviation="0.170625"/></filter><radialGradient id="q" cx="313.3" cy="181.03" r="5.9688" gradientTransform="matrix(1.1917 0 -3.3652e-7 4.1201 -87.417 -564.51)" gradientUnits="userSpaceOnUse"><stop stop-color="#fff" offset="0"/><stop stop-color="#b7beb0" offset=".74911"/><stop stop-color="#c1c7bc" offset="1"/></radialGradient><linearGradient id="ac" x1="314.22" x2="313.96" y1="178.65" y2="182.6" gradientTransform="matrix(.4079 0 0 .71372 158.67 51.155)" gradientUnits="userSpaceOnUse" xlink:href="#b"/><linearGradient id="b"><stop stop-color="#b1b2ae" offset="0"/><stop stop-color="#b1b2ae" stop-opacity="0" offset="1"/></linearGradient><linearGradient id="aa" x1="314.22" x2="313.96" y1="178.65" y2="182.6" gradientTransform="matrix(-.4079 0 -.079043 .71372 426.21 51.014)" gradientUnits="userSpaceOnUse" xlink:href="#b"/><radialGradient id="w" cx="318.12" cy="132.69" r="10" gradientTransform="matrix(.74405 -.028319 .015781 .41387 47.673 133.49)" gradientUnits="userSpaceOnUse"><stop stop-opacity="0" offset="0"/><stop offset="1"/></radialGradient><filter id="an" color-interpolation-filters="sRGB"><feGaussianBlur stdDeviation="0.039747512"/></filter><filter id="am" x="-.11723" y="-.29708" width="1.2345" height="1.5942" color-interpolation-filters="sRGB"><feGaussianBlur stdDeviation="0.099215247"/></filter><filter id="al" x="-.14538" y="-.19929" width="1.2908" height="1.3986" color-interpolation-filters="sRGB"><feGaussianBlur stdDeviation="0.13223598"/></filter><linearGradient id="ab" x1="314.22" x2="313.96" y1="178.65" y2="182.6" gradientTransform="matrix(.4079 0 .079043 .71372 147.27 51.076)" gradientUnits="userSpaceOnUse" xlink:href="#b"/><radialGradient id="x" cx="135.38" cy="268.97" r="81.986" gradientTransform="matrix(.069598 0 0 .038367 277.03 174.74)" gradientUnits="userSpaceOnUse"><stop stop-color="#fff" offset="0"/><stop stop-color="#fff" stop-opacity="0" offset="1"/></radialGradient><linearGradient id="c" x1="306.91" x2="321.08" y1="181.34" y2="181.34" gradientUnits="userSpaceOnUse" xlink:href="#ad"/><linearGradient id="ad"><stop offset="0"/><stop stop-opacity=".34239" offset=".5"/><stop offset="1"/></linearGradient><clipPath id="g"><path d="m306.95 177.82c-0.11961 9.8478 14.959 9.2739 14.091 0.0735-4.4924 0.89839-8.1633 1.0518-14.091-0.0735z" fill="url(#radialGradient6412)" fill-rule="evenodd"/></clipPath><filter id="aj" color-interpolation-filters="sRGB"><feGaussianBlur stdDeviation="0.23162282"/></filter><filter id="ai" color-interpolation-filters="sRGB"><feGaussianBlur stdDeviation="0.053054439"/></filter><radialGradient id="v" cx="140.25" cy="210.5" r="78.75" gradientTransform="matrix(.063071 3.5843e-8 -1.6896e-8 .029731 278.21 171.98)" gradientUnits="userSpaceOnUse"><stop stop-color="#fce94f" offset="0"/><stop stop-color="#fce94f" stop-opacity="0" offset="1"/></radialGradient><filter id="ag" x="-.038059" y="-.19652" width="1.0761" height="1.393" color-interpolation-filters="sRGB"><feGaussianBlur stdDeviation="0.21859524"/></filter><radialGradient id="u" cx="140.12" cy="227.74" r="79.625" gradientTransform="matrix(2.139 0 0 .1239 -159.61 124.51)" gradientUnits="userSpaceOnUse"><stop offset="0"/><stop stop-opacity="0" offset="1"/></radialGradient><filter id="f" x="-.0091993" y="-.15882" width="1.0184" height="1.3176" color-interpolation-filters="sRGB"><feGaussianBlur stdDeviation="0.61041283"/></filter><radialGradient id="t" cx="140.12" cy="227.27" r="79.625" gradientTransform="matrix(1 0 0 .21638 0 102.62)" gradientUnits="userSpaceOnUse" xlink:href="#a"/><linearGradient id="a"><stop stop-color="#fff" offset="0"/><stop stop-color="#fff" stop-opacity="0" offset="1"/></linearGradient><radialGradient id="s" cx="171.84" cy="227.27" r="79.625" gradientTransform="matrix(.031739 -3.6869e-8 1.4044e-8 .01209 282.29 175.69)" gradientUnits="userSpaceOnUse" xlink:href="#a"/><radialGradient id="r" cx="140.5" cy="210.27" r="26" gradientTransform="matrix(.062465 0 0 .02367 305.21 177.56)" gradientUnits="userSpaceOnUse"><stop offset="0"/><stop stop-opacity="0" offset="1"/></radialGradient><linearGradient id="z" x1="62.732" x2="76.625" y1="164.94" y2="189.69" gradientTransform="matrix(.087521 0 0 .087521 274.47 165.15)" gradientUnits="userSpaceOnUse"><stop stop-color="#bc6300" offset="0"/><stop stop-color="#bc6300" stop-opacity="0" offset="1"/></linearGradient><linearGradient id="d" x1="54.5" x2="80.125" y1="173.88" y2="173.88" gradientUnits="userSpaceOnUse" xlink:href="#a"/><filter id="e" color-interpolation-filters="sRGB"><feGaussianBlur stdDeviation="0.64945652"/></filter><linearGradient id="y" x1="64.663" x2="64.663" y1="145.25" y2="182.94" gradientTransform="matrix(-.073164 0 0 .087521 298.31 165.22)" gradientUnits="userSpaceOnUse"><stop stop-color="#9e5300" offset="0"/><stop stop-color="#bc6300" stop-opacity=".82745" offset=".1"/><stop stop-color="#bc6300" stop-opacity="0" offset="1"/></linearGradient><radialGradient id="p" cx="314.03" cy="185.22" r="6.9688" gradientTransform="matrix(1 0 0 .33632 0 122.93)" gradientUnits="userSpaceOnUse"><stop offset="0"/><stop stop-opacity="0" offset="1"/></radialGradient><radialGradient id="o" cx="314.97" cy="174.44" r="9.0312" gradientTransform="matrix(1.0104 0 0 1.2333 -3.2773 -40.211)" gradientUnits="userSpaceOnUse"><stop stop-color="#ffed50" offset="0"/><stop stop-color="#e16f00" offset=".83825"/><stop stop-color="#8e5502" offset="1"/></radialGradient><radialGradient id="n" cx="140.19" cy="286.6" r="81.986" gradientTransform="matrix(1.3652 -2.348e-8 0 .53696 -51.204 92.821)" gradientUnits="userSpaceOnUse"><stop stop-color="#fff" offset="0"/><stop stop-color="#fff" stop-opacity="0" offset="1"/></radialGradient><radialGradient id="m" cx="141.58" cy="30.179" r="90.828" gradientTransform="matrix(.13119 0 0 .057822 295.52 168.16)" gradientUnits="userSpaceOnUse"><stop stop-color="#fff" offset="0"/><stop stop-color="#fff" stop-opacity="0" offset="1"/></radialGradient><radialGradient id="l" cx="316.68" cy="174.14" r="1.0168" gradientTransform="matrix(1.8512 0 0 1.0555 -269.54 -9.4164)" gradientUnits="userSpaceOnUse"><stop offset="0"/><stop stop-opacity="0" offset="1"/></radialGradient><radialGradient id="k" cx="316.67" cy="174.44" r="1.0156" gradientTransform="matrix(1 0 0 .47294 0 92.148)" gradientUnits="userSpaceOnUse"><stop stop-color="#fff" offset="0"/><stop stop-color="#fff" stop-opacity="0" offset="1"/></radialGradient><radialGradient id="j" cx="316.67" cy="173.81" r="1.0156" gradientTransform="matrix(1.8402 0 0 .72613 -266.07 48.316)" gradientUnits="userSpaceOnUse"><stop offset="0"/><stop stop-opacity="0" offset="1"/></radialGradient><radialGradient id="i" cx="316.65" cy="174.13" r="1.0915" gradientTransform="matrix(.99997 -.0082456 .0060153 .72949 -1.0367 49.655)" gradientUnits="userSpaceOnUse"><stop stop-color="#fff" offset="0"/><stop stop-color="#fff" stop-opacity="0" offset="1"/></radialGradient></defs><g transform="translate(-420,-628)"><g><g transform="matrix(11.426 0 0 11.426 -3041.9 -1285.6)" enable-background="new"><g opacity=".63547"><ellipse transform="matrix(.68602 0 0 .68602 98.599 58.176)" cx="314.03" cy="185.22" rx="6.9688" ry="2.3438" enable-background="accumulate" filter="url(#ah)"/><ellipse transform="matrix(1.24 0 0 1.24 -75.368 -44.496)" cx="314.03" cy="185.22" rx="6.9688" ry="2.3438" enable-background="accumulate" fill="url(#p)" filter="url(#aq)"/></g><circle transform="matrix(1.0344 0 0 1.0344 -11.698 -6.1114)" cx="314.97" cy="177.84" r="8.5312" enable-background="accumulate" fill="url(#o)"/><circle transform="matrix(1.4 0 0 1.4 -126.24 -72.825)" cx="314.5" cy="175.38" r="2.1875" enable-background="accumulate" fill="#fcffcd" filter="url(#ap)"/><circle transform="matrix(1.0344 0 0 1.0344 -11.698 -6.1114)" cx="314.97" cy="177.84" r="8.5312" clip-path="url(#h)" enable-background="accumulate" fill="none" filter="url(#ao)" stroke="#000" stroke-linecap="round" stroke-linejoin="round" stroke-width=".042307"/><path transform="matrix(.094994 0 0 .087521 300.65 165.11)" d="m58.219 144.19c-1.5992 126.96 166.23 123.05 163.94 10.219-2.1677 94.357-161.55 97.864-163.91-10.219z" fill="url(#n)" fill-rule="evenodd" filter="url(#ar)" opacity=".55172"/><path transform="matrix(.8945 0 0 .74568 33.137 43.141)" d="m314.09 169.63c-3.6633 0-6.6377 2.0382-6.6377 4.5485 0 0.45252 0.0987 0.88918 0.27858 1.3018 0.81756-1.8766 3.3559-3.2467 6.3592-3.2467 3.0033 0 5.5416 1.37 6.3592 3.2467 0.17987-0.41262 0.2763-0.84928 0.2763-1.3018 0-2.5103-2.9722-4.5485-6.6355-4.5485z" enable-background="accumulate" fill="url(#m)" filter="url(#ak)"/><circle transform="matrix(.9958 0 0 .9958 .44883 .74749)" cx="314.97" cy="177.84" r="8.5312" clip-path="url(#h)" enable-background="accumulate" fill="none" filter="url(#af)" stroke="#fff" stroke-linecap="round" stroke-linejoin="round" stroke-width=".043945"/></g><g transform="matrix(11.426 0 0 11.426 -2730.3 -1301.1)" enable-background="new"><path d="m282.19 178.86h9.1044v2.8069c-0.74698 3.9171-8.1051 4.0314-9.0004 0z" fill="#fff" fill-rule="evenodd" opacity=".51205" stroke="#fff" stroke-width=".087521px"/><path d="m279.72 177.82c-0.11961 9.8478 14.959 9.2739 14.091 0.0735-4.4924 0.89839-8.1633 1.0518-14.091-0.0735z" fill="url(#q)" fill-rule="evenodd"/><path d="m286.13 178.65h1.1092c-0.55321 0.18101-0.31307 1.8906-0.46594 2.8351-0.11898-1.0144-0.27042-2.6506-0.64321-2.8351z" fill="url(#ac)" fill-rule="evenodd" opacity=".32512"/><path d="m284.5 178.61-0.97641-0.0937c0.53316 0.18101 0.10541 1.875 0.15369 2.8195 0.17755-1.0924 0.43115-2.3695 0.82272-2.7258z" fill="url(#aa)" fill-rule="evenodd" opacity=".32512"/><path d="m279.88 178.99c-0.0616-0.31391-0.0602-0.75409-0.0656-1.1804 4.9001 1.0498 9.5119 1.0102 13.887 0.0766 0.1 0.6608 0.11165 1.4748-0.0709 2.1355-3.139-1.43-9.5808-1.3804-13.75-1.0317z" fill="url(#w)" fill-rule="evenodd" opacity=".039409"/><g id="ae" transform="translate(-27.23)"><path d="m317.69 175.31c-0.2772-1.2353-1.6262-1.3148-2.0312-0.0313 0.0216-1.539 2.1115-1.4794 2.0312 0.0313z" fill="url(#l)" fill-rule="evenodd"/><path d="m317.69 175.31c-0.2772-1.2353-1.6262-1.3148-2.0312-0.0313 0.45562-1.0712 1.7468-0.9918 2.0312 0.0313z" fill="url(#k)" fill-rule="evenodd" filter="url(#an)"/><path d="m317.69 175.39c-0.50694-0.61172-1.2651-0.77873-2.0312-0.0313 0.45562-1.0712 1.7468-0.9918 2.0312 0.0313z" fill="url(#j)" fill-rule="evenodd" filter="url(#am)" opacity=".133"/><path d="m317.69 175.15c0.47502-3.2732-2.7424-2.6922-2.0312-0.0313 0.0216-1.539 2.1115-1.4794 2.0312 0.0313z" fill="url(#i)" fill-rule="evenodd" filter="url(#al)"/></g><use transform="translate(-5.2513)" width="400" height="300" xlink:href="#ae"/><path d="m288.85 178.68 1.1092-0.0937c-0.53316 0.18101-0.10541 1.875-0.15369 2.8195-0.27905-0.9519-0.43115-2.7677-0.95546-2.7258z" fill="url(#ab)" fill-rule="evenodd" opacity=".32512"/><path d="m279.53 177.51c-0.13943 10.527 14.493 10.203 14.293 0.84732-0.0963 9.1445-13.994 9.4196-14.291-0.84732h-3e-3z" fill="url(#x)" fill-rule="evenodd" opacity=".42857"/><path transform="translate(-27.23)" d="m307.04 177.82c-0.11813 9.8478 14.774 9.2739 13.917 0.0735-4.4367 0.89839-8.0622 1.0518-13.917-0.0735z" clip-path="url(#g)" fill="none" filter="url(#aj)" opacity=".51232" stroke="url(#c)" stroke-width=".26256"/><path transform="translate(-27.23)" d="m307.04 177.82c-0.11813 9.8478 14.774 9.2739 13.917 0.0735-4.4367 0.89839-8.0622 1.0518-13.917-0.0735z" clip-path="url(#g)" fill="none" filter="url(#ai)" opacity=".3399" stroke="url(#c)" stroke-width=".087521"/><path d="m280.16 177.54c4.7201 1.0021 9.2976 0.86287 13.785 0 0 0-4.8509-1.9821-7.0455-1.9692-2.1063 0.0124-6.7392 1.9692-6.7392 1.9692z" fill="url(#v)" fill-rule="evenodd" filter="url(#ag)"/><path transform="matrix(.087521 0 0 .087521 274.47 165.23)" d="m60.5 143.5c63.706 13.466 114.13 10.69 159.25 1.25-56.008 10.732-108.56 8.3091-159.25-1.25z" fill="url(#u)" fill-rule="evenodd" filter="url(#f)" opacity=".28079"/><path transform="matrix(.087521 0 0 .12445 274.47 159.55)" d="m60.5 143.5c52.745 6.5713 102.99 8.3915 159.25 1.25-56.008 10.732-108.56 8.3091-159.25-1.25z" fill="url(#t)" fill-rule="evenodd" filter="url(#f)" opacity=".35468"/><path d="m282.15 177.98c3.0365 0.36716 5.9292 0.46886 9.1679 0.0698-3.2243 0.59965-6.25 0.46425-9.1679-0.0698z" fill="url(#s)" fill-rule="evenodd" opacity=".49754"/><g transform="matrix(2.086 0 0 2.5821 -368.24 -287.33)" fill-rule="evenodd" opacity=".24631"><path d="m312.36 182.42c1.1775 0.15602 2.1326 0.15889 3.2638-0.0156-0.47666 0.0171-0.96821 0.18311-1.4264 0.0156l-0.18132 0.0625-0.18132-0.0625c-0.49159 0.14866-0.98317 3e-3 -1.4748 0z" fill="#fff"/><path d="m313.83 182.37c-0.45157 0.0911-0.9781 0.0323-1.4679 0.0469 0.49262 0.0239 0.9944 0.12103 1.4679-8e-3l0.19521 0.0547 0.17178-0.0547c0.42409 0.16982 0.93168 0.0332 1.4133-8e-3 -0.47606 0.0144-0.97476 0.14201-1.4133-0.0312l-0.17178 0.0703-0.19521-0.0703z" fill="url(#r)" opacity=".12808"/></g><path d="m279.8 177.82-0.38291-0.0875c-0.0476 2.5542 0.97623 4.0203 2.2865 5.3279-1.8169-2.2454-1.798-3.5078-1.9036-5.2404z" fill="url(#z)" fill-rule="evenodd"/><path transform="matrix(.087521 0 0 .087521 274.47 165.15)" d="m54.5 143.12 2 0.625c-0.54362 29.183 11.529 46.435 26.125 60.875-23.76-22.281-26.918-41.704-28.125-61.5z" fill="url(#d)" fill-rule="evenodd" filter="url(#e)" opacity=".50739"/><path d="m293.74 177.9 0.43271-0.0985c0.0398 2.5542-0.81609 4.0203-1.9114 5.3279 1.5189-2.2454 1.6156-4.1642 1.4787-5.2294z" fill="url(#y)" fill-rule="evenodd"/><path transform="matrix(-.078186 0 0 .087521 298.7 165.22)" d="m54.5 143.12 2 0.625c-0.54362 29.183 11.529 46.435 26.125 60.875-23.76-22.281-26.918-41.704-28.125-61.5z" fill="url(#d)" fill-rule="evenodd" filter="url(#e)" opacity=".50739"/></g></g></g></svg>
