<?xml version="1.0" encoding="UTF-8"?>
<svg enable-background="new" version="1.0" viewBox="0 0 256 256" xmlns="http://www.w3.org/2000/svg" xmlns:xlink="http://www.w3.org/1999/xlink"><defs><filter id="y" x="-.089088" y="-.26489" width="1.1782" height="1.5298" color-interpolation-filters="sRGB"><feGaussianBlur stdDeviation="0.51736111"/></filter><filter id="ae" x="-.094329" y="-.28047" width="1.1887" height="1.5609" color-interpolation-filters="sRGB"><feGaussianBlur stdDeviation="0.54779412"/></filter><filter id="ad" x="-.43765" y="-.43765" width="1.8753" height="1.8753" color-interpolation-filters="sRGB"><feGaussianBlur stdDeviation="0.79779412"/></filter><filter id="aa" x="-.091874" y="-.20845" width="1.1837" height="1.4169" color-interpolation-filters="sRGB"><feGaussianBlur stdDeviation="0.50811126"/></filter><clipPath id="j"><circle cx="314.97" cy="177.84" r="8.5312" enable-background="accumulate" fill="none" stroke="#ce5c00" stroke-linecap="round" stroke-linejoin="round" stroke-width=".087521"/></clipPath><filter id="ab" color-interpolation-filters="sRGB"><feGaussianBlur stdDeviation="0.0853125"/></filter><filter id="af" x="-.060222" y="-.10389" width="1.1204" height="1.2078" color-interpolation-filters="sRGB"><feGaussianBlur stdDeviation="4.1144816"/></filter><filter id="x" color-interpolation-filters="sRGB"><feGaussianBlur stdDeviation="0.170625"/></filter><radialGradient id="m" cx="314.11" cy="187.63" r="5.8438" gradientTransform="matrix(.99731 -.073293 .052419 .71328 -9.0125 72.341)" gradientUnits="userSpaceOnUse"><stop stop-color="#a45d03" offset="0"/><stop stop-color="#eca222" stop-opacity="0" offset="1"/></radialGradient><filter id="ac" x="-.093659" y="-.27042" width="1.1873" height="1.5408" color-interpolation-filters="sRGB"><feGaussianBlur stdDeviation="0.45609948"/></filter><radialGradient id="n" cx="313.95" cy="179.55" r="5.8438" gradientTransform="matrix(1.4351 1.1852e-6 -3.2937e-7 .3988 -136.6 107.76)" gradientUnits="userSpaceOnUse"><stop offset="0"/><stop stop-opacity="0" offset="1"/></radialGradient><radialGradient id="f" cx="142.75" cy="172.87" r="16.25" gradientTransform="matrix(1 0 0 .49231 0 89.646)" gradientUnits="userSpaceOnUse" xlink:href="#w"/><linearGradient id="w"><stop stop-color="#fdfcbc" offset="0"/><stop stop-color="#fdfcbc" stop-opacity="0" offset="1"/></linearGradient><filter id="i" x="-.10702" y="-.081841" width="1.214" height="1.1637" color-interpolation-filters="sRGB"><feGaussianBlur stdDeviation="1.4492839"/></filter><radialGradient id="e" cx="172.5" cy="101.34" r="8.5" gradientTransform="matrix(.35294 0 0 .54902 108.62 48.613)" gradientUnits="userSpaceOnUse" xlink:href="#t"/><linearGradient id="t"><stop stop-color="#b3b3b3" offset="0"/><stop offset="1"/></linearGradient><radialGradient id="d" cx="175.62" cy="130.62" r="5.625" gradientTransform="matrix(2.4905 0 0 2.9335 -261.77 -251.8)" gradientUnits="userSpaceOnUse" xlink:href="#u"/><linearGradient id="u"><stop stop-color="#fcfbb6" offset="0"/><stop stop-color="#fcfbb6" stop-opacity="0" offset="1"/></linearGradient><filter id="h" x="-.18307" y="-.15542" width="1.3661" height="1.3108" color-interpolation-filters="sRGB"><feGaussianBlur stdDeviation="0.85812722"/></filter><radialGradient id="c" cx="171.69" cy="140.91" r="8.5" gradientTransform="matrix(.087521 0 0 .071114 301 167.17)" gradientUnits="userSpaceOnUse" xlink:href="#v"/><linearGradient id="v"><stop stop-color="#fff" offset="0"/><stop stop-color="#fff" stop-opacity="0" offset="1"/></linearGradient><radialGradient id="b" cx="172.75" cy="113.19" r="7.625" gradientTransform="matrix(.087521 0 0 .15137 301.13 157.91)" gradientUnits="userSpaceOnUse" xlink:href="#a"/><linearGradient id="a"><stop stop-color="#fefcd6" offset="0"/><stop stop-color="#fefcd6" stop-opacity="0" offset="1"/></linearGradient><radialGradient id="k" cx="168.37" cy="110.94" r="7.625" gradientTransform="matrix(.75715 1.4229 -2.6528 1.4116 336.7 -292.12)" gradientUnits="userSpaceOnUse" xlink:href="#a"/><filter id="g" x="-.22608" y="-.1777" width="1.4522" height="1.3554" color-interpolation-filters="sRGB"><feGaussianBlur stdDeviation="1.9984637"/></filter><filter id="z" color-interpolation-filters="sRGB"><feGaussianBlur stdDeviation="0.27873744"/></filter><radialGradient id="l" cx="169.5" cy="110.73" r="7.625" gradientTransform="matrix(1.3958 .80589 -1.4397 2.4936 94.573 -308.27)" gradientUnits="userSpaceOnUse" xlink:href="#a"/><radialGradient id="s" cx="314.15" cy="185.48" r="5.8438" gradientTransform="matrix(1.2638 0 0 .3101 -82.576 123.12)" gradientUnits="userSpaceOnUse"><stop stop-color="#fff" offset="0"/><stop stop-color="#fff" stop-opacity="0" offset="1"/></radialGradient><radialGradient id="r" cx="314.03" cy="185.22" r="6.9688" gradientTransform="matrix(1 0 0 .33632 0 122.93)" gradientUnits="userSpaceOnUse"><stop offset="0"/><stop stop-opacity="0" offset="1"/></radialGradient><radialGradient id="q" cx="314.97" cy="174.44" r="9.0312" gradientTransform="matrix(1.0104 0 0 1.2333 -3.2773 -40.211)" gradientUnits="userSpaceOnUse"><stop stop-color="#ffed50" offset="0"/><stop stop-color="#e16f00" offset=".83825"/><stop stop-color="#8e5502" offset="1"/></radialGradient><radialGradient id="p" cx="140.19" cy="286.6" r="81.986" gradientTransform="matrix(1.3652 -2.348e-8 0 .53696 -51.204 92.821)" gradientUnits="userSpaceOnUse"><stop stop-color="#fff" offset="0"/><stop stop-color="#fff" stop-opacity="0" offset="1"/></radialGradient><radialGradient id="o" cx="141.58" cy="30.179" r="90.828" gradientTransform="matrix(.13119 0 0 .057822 295.52 168.16)" gradientUnits="userSpaceOnUse"><stop stop-color="#fff" offset="0"/><stop stop-color="#fff" stop-opacity="0" offset="1"/></radialGradient></defs><g transform="translate(-20,272)"><g transform="matrix(11.426 0 0 11.426 -3441.9 -2185.6)" enable-background="new"><g opacity=".63547"><ellipse transform="matrix(.68602 0 0 .68602 98.599 58.176)" cx="314.03" cy="185.22" rx="6.9688" ry="2.3438" enable-background="accumulate" filter="url(#y)"/><ellipse transform="matrix(1.24 0 0 1.24 -75.368 -44.496)" cx="314.03" cy="185.22" rx="6.9688" ry="2.3438" enable-background="accumulate" fill="url(#r)" filter="url(#ae)"/></g><circle transform="matrix(1.0344 0 0 1.0344 -11.698 -6.1114)" cx="314.97" cy="177.84" r="8.5312" enable-background="accumulate" fill="url(#q)"/><circle transform="matrix(1.4 0 0 1.4 -126.24 -72.825)" cx="314.5" cy="175.38" r="2.1875" enable-background="accumulate" fill="#fcffcd" filter="url(#ad)"/><circle transform="matrix(1.0344 0 0 1.0344 -11.698 -6.1114)" cx="314.97" cy="177.84" r="8.5312" clip-path="url(#j)" enable-background="accumulate" fill="none" filter="url(#ab)" stroke="#000" stroke-linecap="round" stroke-linejoin="round" stroke-width=".042307"/><path transform="matrix(.094994 0 0 .087521 300.65 165.11)" d="m58.219 144.19c-1.5992 126.96 166.23 123.05 163.94 10.219-2.1677 94.357-161.55 97.864-163.91-10.219z" fill="url(#p)" fill-rule="evenodd" filter="url(#af)" opacity=".55172"/><path transform="matrix(.8945 0 0 .74568 33.137 43.141)" d="m314.09 169.63c-3.6633 0-6.6377 2.0382-6.6377 4.5485 0 0.45252 0.0987 0.88918 0.27858 1.3018 0.81756-1.8766 3.3559-3.2467 6.3592-3.2467 3.0033 0 5.5416 1.37 6.3592 3.2467 0.17987-0.41262 0.2763-0.84928 0.2763-1.3018 0-2.5103-2.9722-4.5485-6.6355-4.5485z" enable-background="accumulate" fill="url(#o)" filter="url(#aa)"/><circle transform="matrix(.9958 0 0 .9958 .44883 .74749)" cx="314.97" cy="177.84" r="8.5312" clip-path="url(#j)" enable-background="accumulate" fill="none" filter="url(#x)" stroke="#fff" stroke-linecap="round" stroke-linejoin="round" stroke-width=".043945"/></g><g transform="matrix(5.3571 0 0 -5.3571 -1536.6 841.55)" enable-background="new" fill-rule="evenodd"><path transform="matrix(1.2242 0 0 1.2242 -70.023 -43.992)" d="m308.09 178.54c4.8193 4.7286 8.4159 3.0811 11.688 0-3.7031 5.3001-7.5941 5.4934-11.688 0z" fill="url(#m)" filter="url(#ac)"/><path d="m306.8 177.65c5.9892 4.7183 10.354 3.1548 14.308 0-4.7104 4.4711-9.4772 4.6712-14.308 0z" fill="url(#n)"/><path d="m306.8 177.02c6.0905 5.7889 10.636 3.7719 14.77 0-4.8625 4.4711-9.7832 4.6712-14.77 0z" fill="url(#s)" opacity=".5468"/></g><g transform="matrix(11.426 0 0 11.426 -3435.9 -2187.6)" enable-background="new"><path transform="matrix(.057899 0 0 -.087521 308.27 191.28)" d="m126.5 187s2.2108-41.347 15.5-41.5c13.731-0.15831 17 42.5 17 42.5-18.752-25.665-25.888-10.267-32.5-1z" fill="url(#f)" fill-rule="evenodd" filter="url(#i)" opacity=".49754"/><g transform="translate(.52513 -1.1815)"><g transform="matrix(.087521 0 0 .087521 300.65 165.15)" enable-background="new"><path transform="translate(5.9999 -.49998)" d="m164.16 99.938c-1.9275 3.6675-3.1562 9.2801-3.1562 15.562 0 11.04 3.808 20 8.5 20 3.3413 0 6.2362-4.5533 7.625-11.156-2.8705-3.6595-5.664-7.9556-8.125-12.781-2.0145-3.9502-3.6196-7.876-4.8438-11.625z" enable-background="accumulate" fill="url(#e)"/><path transform="matrix(1.1333 0 0 1 -23.417 0)" d="m170 119.75s0.97644 13.116 5.25 13.25c4.2253 0.13228 6-12.75 6-12.75-3.0256 4.18-4.5212 17.54-11.25-0.5z" fill="url(#d)" fill-rule="evenodd" filter="url(#h)" opacity=".30542"/></g><path d="m315.25 176.29c0.47539 1.162 1.026 1.2214 1.4879 0.0656-0.43206 0.8599-0.91039 1.0812-1.4879-0.0656z" fill="url(#c)" fill-rule="evenodd"/><path transform="matrix(.087521 0 0 .087521 301.05 165.13)" d="m166 99.75 15.75 27.25c-6.8004-5.7239-12.181-16.832-15.75-27.25z" fill="#b76609" fill-rule="evenodd" filter="url(#z)"/><path d="m315.58 173.88 1.3347 2.3084c-0.2824-0.87122-0.75657-1.6105-1.3347-2.3084z" fill="url(#b)" fill-rule="evenodd"/><path transform="matrix(.087521 0 0 .087521 301.13 165.13)" d="m165.12 100 15.25 26.375c11.924-21.662 5.5312-29.355-15.25-26.375z" fill="url(#l)" fill-rule="evenodd" filter="url(#g)" opacity=".27179"/><path d="m315.54 173.88c0.41622 0.97671 0.88617 1.7654 1.4055 2.3811-0.57584-0.4971-1.1202-1.5235-1.4055-2.3811z" fill="#754004" fill-rule="evenodd"/></g></g><g transform="matrix(11.426 0 0 11.426 -3447.9 -2187.6)" enable-background="new"><path transform="matrix(.057899 0 0 -.087521 303.72 191.28)" d="m126.5 187s2.2108-41.347 15.5-41.5c13.731-0.15831 17 42.5 17 42.5-15.307-21.808-23.645-10.165-32.5-1z" fill="url(#f)" fill-rule="evenodd" filter="url(#i)" opacity=".49754"/><g transform="matrix(-1 0 0 1 627.96 -1.1815)"><g transform="matrix(.087521 0 0 .087521 300.65 165.15)" enable-background="new"><path transform="translate(5.9999 -.49998)" d="m164.16 99.938c-1.9275 3.6675-3.1562 9.2801-3.1562 15.562 0 11.04 3.808 20 8.5 20 3.3413 0 6.2362-4.5533 7.625-11.156-2.8705-3.6595-5.664-7.9556-8.125-12.781-2.0145-3.9502-3.6196-7.876-4.8438-11.625z" enable-background="accumulate" fill="url(#e)"/><path transform="matrix(1.1333 0 0 1 -23.417 0)" d="m170 119.75s0.97644 13.116 5.25 13.25c4.2253 0.13228 6-12.75 6-12.75-3.0256 4.18-4.5212 17.54-11.25-0.5z" fill="url(#d)" fill-rule="evenodd" filter="url(#h)" opacity=".30542"/></g><path d="m315.25 176.29c0.47539 1.162 1.026 1.2214 1.4879 0.0656-0.43206 0.8599-0.91039 1.0812-1.4879-0.0656z" fill="url(#c)" fill-rule="evenodd"/><path d="m315.58 173.88 1.3347 2.3084c-0.2824-0.87122-0.75657-1.6105-1.3347-2.3084z" fill="url(#b)" fill-rule="evenodd"/><path transform="matrix(.087521 0 0 .087521 301.13 165.13)" d="m165.12 100 15.25 26.375c11.924-21.662 5.5312-29.355-15.25-26.375z" fill="url(#k)" fill-rule="evenodd" filter="url(#g)" opacity=".21026"/><path d="m315.54 173.88c0.41622 0.97671 0.88617 1.7654 1.4055 2.3811-0.57584-0.4971-1.1202-1.5235-1.4055-2.3811z" fill="#754004" fill-rule="evenodd"/></g></g></g></svg>
