<?xml version="1.0" encoding="UTF-8"?>
<svg enable-background="new" version="1.0" viewBox="0 0 256 256" xmlns="http://www.w3.org/2000/svg" xmlns:xlink="http://www.w3.org/1999/xlink"><defs><filter id="aa" x="-.089088" y="-.26489" width="1.1782" height="1.5298" color-interpolation-filters="sRGB"><feGaussianBlur stdDeviation="0.51736111"/></filter><radialGradient id="k" cx="314.03" cy="185.22" r="6.9688" gradientTransform="matrix(1 0 0 .33632 0 122.93)" gradientUnits="userSpaceOnUse"><stop offset="0"/><stop stop-opacity="0" offset="1"/></radialGradient><filter id="ag" x="-.094329" y="-.28047" width="1.1887" height="1.5609" color-interpolation-filters="sRGB"><feGaussianBlur stdDeviation="0.54779412"/></filter><radialGradient id="l" cx="314.97" cy="174.44" r="9.0312" gradientTransform="matrix(1.0104 0 0 1.2333 -3.2773 -40.211)" gradientUnits="userSpaceOnUse"><stop stop-color="#ef8f29" offset="0"/><stop stop-color="#ac0000" offset=".7"/><stop stop-color="#720606" offset="1"/></radialGradient><radialGradient id="o" cx="141.58" cy="30.179" r="90.828" gradientTransform="matrix(.21201 0 0 .093444 284.08 167.08)" gradientUnits="userSpaceOnUse"><stop stop-color="#fade82" offset="0"/><stop stop-color="#f61000" stop-opacity="0" offset="1"/></radialGradient><filter id="ak" x="-.11342" y="-.25732" width="1.2268" height="1.5146" color-interpolation-filters="sRGB"><feGaussianBlur stdDeviation="0.62724953"/></filter><clipPath id="am"><circle transform="matrix(.062515 0 0 .062515 306.61 170.67)" cx="126" cy="134" r="97" enable-background="accumulate" fill="#edd400"/></clipPath><filter id="af" x="-.43765" y="-.43765" width="1.8753" height="1.8753" color-interpolation-filters="sRGB"><feGaussianBlur stdDeviation="0.79779412"/></filter><clipPath id="d"><circle cx="314.97" cy="177.84" r="8.5312" enable-background="accumulate" fill="none" stroke="#ce5c00" stroke-linecap="round" stroke-linejoin="round" stroke-width=".087521"/></clipPath><filter id="ae" color-interpolation-filters="sRGB"><feGaussianBlur stdDeviation="0.0853125"/></filter><radialGradient id="n" cx="140.19" cy="286.6" r="81.986" gradientTransform="matrix(1.3652 -2.348e-8 0 .53696 -51.204 92.821)" gradientUnits="userSpaceOnUse"><stop stop-color="#ffef14" offset="0"/><stop stop-color="#cab926" stop-opacity=".38119" offset="1"/></radialGradient><filter id="ai" x="-.060222" y="-.10389" width="1.1204" height="1.2078" color-interpolation-filters="sRGB"><feGaussianBlur stdDeviation="4.1144816"/></filter><filter id="y" color-interpolation-filters="sRGB"><feGaussianBlur stdDeviation="0.170625"/></filter><filter id="ah" x="-.16005" y="-.17432" width="1.3201" height="1.3486" color-interpolation-filters="sRGB"><feGaussianBlur stdDeviation="3.0504458"/></filter><filter id="aj" x="-.18307" y="-.15542" width="1.3661" height="1.3108" color-interpolation-filters="sRGB"><feGaussianBlur stdDeviation="0.85812722"/></filter><filter id="ac" color-interpolation-filters="sRGB"><feGaussianBlur stdDeviation="0.27873744"/></filter><linearGradient id="b"><stop stop-color="#fefcd6" offset="0"/><stop stop-color="#fefcd6" stop-opacity="0" offset="1"/></linearGradient><filter id="ab" x="-.22608" y="-.1777" width="1.4522" height="1.3554" color-interpolation-filters="sRGB"><feGaussianBlur stdDeviation="1.9984637"/></filter><radialGradient id="t" cx="314.13" cy="179.36" r="5.5164" gradientTransform="matrix(1 -1.7545e-6 9.8948e-7 .56397 -.00017747 78.075)" gradientUnits="userSpaceOnUse" xlink:href="#c"/><linearGradient id="c"><stop stop-opacity="0" offset="0"/><stop offset="1"/></linearGradient><filter id="ad" color-interpolation-filters="sRGB"><feGaussianBlur stdDeviation="0.068443052"/></filter><radialGradient id="s" cx="314.13" cy="182.96" r="5.6479" gradientTransform="matrix(1.0209 0 0 .26116 -6.5536 129.94)" gradientUnits="userSpaceOnUse"><stop stop-color="#fff" stop-opacity=".63636" offset="0"/><stop stop-color="#fff" stop-opacity="0" offset="1"/></radialGradient><radialGradient id="r" cx="314.13" cy="186.48" r="5.7358" gradientTransform="matrix(.99743 .013541 -.0094033 .52175 2.5628 77.152)" gradientUnits="userSpaceOnUse"><stop stop-color="#fff" offset="0"/><stop stop-color="#fff" stop-opacity="0" offset="1"/></radialGradient><linearGradient id="w" x1="331.06" x2="331.06" y1="377.85" y2="381.75" gradientTransform="matrix(.39509 0 0 .2287 183.33 92.69)" gradientUnits="userSpaceOnUse"><stop stop-color="#2c0000" offset="0"/><stop stop-color="#2c0000" offset="1"/></linearGradient><linearGradient id="v" x1="317.79" x2="342.24" y1="376.17" y2="376.17" gradientTransform="matrix(.39509 0 0 .24255 183.42 87.806)" gradientUnits="userSpaceOnUse"><stop stop-color="#717171" offset="0"/><stop stop-color="#666" offset=".054302"/><stop stop-color="#fff" offset=".34579"/><stop stop-color="#fff" offset=".72487"/><stop stop-color="#969696" offset="1"/></linearGradient><clipPath id="al"><path d="m308.94 177.89c-1.1568-0.2774 0.81814 3.05 5.1732 3.05 4.3122 0 6.4351-3.3197 5.1732-3.05-3.2929 0.70375-7.5302 0.67535-10.346 0z" enable-background="new" fill="none" stroke="#310000" stroke-width=".08766"/></clipPath><filter id="z" color-interpolation-filters="sRGB"><feGaussianBlur stdDeviation="0.085553815"/></filter><radialGradient id="q" cx="319.78" cy="176.18" r="5.7762" gradientTransform="matrix(.48112 -.042311 .0037275 .042359 165.01 184.27)" gradientUnits="userSpaceOnUse" xlink:href="#a"/><linearGradient id="a"><stop stop-color="#fff" offset="0"/><stop stop-color="#fff" stop-opacity="0" offset="1"/></linearGradient><radialGradient id="p" cx="319.85" cy="175.52" r="5.7762" gradientTransform="matrix(-.48112 -.042311 -.0037275 .042359 463.23 184.3)" gradientUnits="userSpaceOnUse" xlink:href="#a"/><radialGradient id="m" cx="314.13" cy="179.36" r="5.5164" gradientTransform="matrix(1 -1.7545e-6 9.8948e-7 .56397 -.00017747 78.206)" gradientUnits="userSpaceOnUse" xlink:href="#c"/><linearGradient id="u" x1="317.79" x2="342.24" y1="376.17" y2="376.17" gradientTransform="matrix(.39509 0 0 -.24255 183.42 270.79)" gradientUnits="userSpaceOnUse"><stop stop-color="#717171" offset="0"/><stop stop-color="#666" offset=".069159"/><stop stop-color="#fff" offset=".46258"/><stop stop-color="#fff" offset=".57007"/><stop stop-color="#969696" offset="1"/></linearGradient><radialGradient id="j" cx="142.75" cy="172.87" r="16.25" gradientTransform="matrix(1 0 0 .49231 0 89.646)" gradientUnits="userSpaceOnUse"><stop stop-color="#fdfcbc" offset="0"/><stop stop-color="#fdfcbc" stop-opacity="0" offset="1"/></radialGradient><radialGradient id="i" cx="172.5" cy="101.34" r="8.5" gradientTransform="matrix(.35294 0 0 .54902 108.62 48.613)" gradientUnits="userSpaceOnUse"><stop stop-color="#b3b3b3" offset="0"/><stop offset="1"/></radialGradient><radialGradient id="h" cx="175.62" cy="130.62" r="5.625" gradientTransform="matrix(2.4905 0 0 2.9335 -261.77 -251.8)" gradientUnits="userSpaceOnUse"><stop stop-color="#fcfbb6" offset="0"/><stop stop-color="#fcfbb6" stop-opacity="0" offset="1"/></radialGradient><radialGradient id="g" cx="171.69" cy="140.91" r="8.5" gradientTransform="matrix(.087521 0 0 .071114 301 167.17)" gradientUnits="userSpaceOnUse"><stop stop-color="#fff" offset="0"/><stop stop-color="#fff" stop-opacity="0" offset="1"/></radialGradient><radialGradient id="f" cx="172.75" cy="113.19" r="7.625" gradientTransform="matrix(.087521 0 0 .15137 301.13 157.91)" gradientUnits="userSpaceOnUse" xlink:href="#b"/><radialGradient id="e" cx="169.5" cy="110.73" r="7.625" gradientTransform="matrix(1.3958 .80589 -1.4397 2.4936 94.573 -308.27)" gradientUnits="userSpaceOnUse" xlink:href="#b"/></defs><g transform="translate(-1220,-28)"><g><g transform="translate(1090.5 -355.79)"><g transform="matrix(11.426 0 0 11.426 -3328 -1525.6)" opacity=".63547"><ellipse transform="matrix(.68602 0 0 .68602 98.599 58.176)" cx="314.03" cy="185.22" rx="6.9688" ry="2.3438" enable-background="accumulate" filter="url(#aa)"/><ellipse transform="matrix(1.24 0 0 1.24 -75.368 -44.496)" cx="314.03" cy="185.22" rx="6.9688" ry="2.3438" enable-background="accumulate" fill="url(#k)" filter="url(#ag)"/></g><circle transform="matrix(11.818 0 0 11.818 -3461.7 -1595.4)" cx="314.97" cy="177.84" r="8.5312" enable-background="accumulate" fill="url(#l)"/><path transform="matrix(10.22 0 0 8.5199 -2949.4 -1017.7)" d="m314.09 169.63c-3.6633 0-6.6377 2.0382-6.6377 4.5485 0 0.45252 0.0987 0.88918 0.27858 1.3018 0.81756-1.8766 3.3559-3.2467 6.3592-3.2467 3.0033 0 5.5416 1.37 6.3592 3.2467 0.17987-0.41262 0.2763-0.84928 0.2763-1.3018 0-2.5103-2.9722-4.5485-6.6355-4.5485z" enable-background="accumulate" fill="url(#o)" filter="url(#ak)"/><circle transform="matrix(15.996 0 0 15.996 -4770.4 -2357.7)" cx="314.5" cy="175.38" r="2.1875" clip-path="url(#am)" color="#000000" enable-background="accumulate" fill="#f7ff83" filter="url(#af)"/><circle transform="matrix(11.818 0 0 11.818 -3461.7 -1595.4)" cx="314.97" cy="177.84" r="8.5312" clip-path="url(#d)" enable-background="accumulate" fill="none" filter="url(#ae)" stroke="#000" stroke-linecap="round" stroke-linejoin="round" stroke-width=".042307"/><path transform="matrix(1.0854 0 0 1 107.16 363.92)" d="m58.219 144.19c-1.5992 126.96 166.23 123.05 163.94 10.219-2.1677 94.357-161.55 97.864-163.91-10.219z" fill="url(#n)" fill-rule="evenodd" filter="url(#ai)" opacity=".39109"/><circle transform="matrix(11.378 0 0 11.378 -3322.9 -1517.1)" cx="314.97" cy="177.84" r="8.5312" clip-path="url(#d)" enable-background="accumulate" fill="none" filter="url(#y)" stroke="#fff" stroke-linecap="round" stroke-linejoin="round" stroke-width=".043945"/><g id="x" transform="matrix(11.426 0 0 11.426 -3328 -1518.6)"><path transform="matrix(.063602 -.02942 -.045776 -.060834 310.32 192.3)" d="m126.5 187s2.2108-41.347 15.5-41.5c13.731-0.15831 17 42.5 17 42.5-18.752-25.665-25.888-10.267-32.5-1z" enable-background="new" fill="url(#j)" fill-rule="evenodd" filter="url(#ah)" opacity=".49754"/><g transform="matrix(.86128 -.50813 .41007 .69507 -33.035 214.9)" enable-background="new"><g transform="matrix(.087521 0 0 .087521 300.65 165.15)" enable-background="new"><path transform="translate(5.9999 -.49998)" d="m164.16 99.938c-1.9275 3.6675-3.1562 9.2801-3.1562 15.562 0 11.04 3.808 20 8.5 20 3.3413 0 6.2362-4.5533 7.625-11.156-2.8705-3.6595-5.664-7.9556-8.125-12.781-2.0145-3.9502-3.6196-7.876-4.8438-11.625z" enable-background="accumulate" fill="url(#i)"/><path transform="matrix(1.1333 0 0 1 -23.417 0)" d="m170 119.75s0.97644 13.116 5.25 13.25c4.2253 0.13228 6-12.75 6-12.75-3.0256 4.18-4.5212 17.54-11.25-0.5z" fill="url(#h)" fill-rule="evenodd" filter="url(#aj)" opacity=".30542"/></g><path d="m315.25 176.29c0.47539 1.162 1.026 1.2214 1.4879 0.0656-0.43206 0.8599-0.91039 1.0812-1.4879-0.0656z" fill="url(#g)" fill-rule="evenodd"/><path transform="matrix(.087521 0 0 .087521 301.05 165.13)" d="m166 99.75 15.75 27.25c-6.8004-5.7239-12.181-16.832-15.75-27.25z" fill="#b76609" fill-rule="evenodd" filter="url(#ac)"/><path d="m315.58 173.88 1.3347 2.3084c-0.2824-0.87122-0.75657-1.6105-1.3347-2.3084z" fill="url(#f)" fill-rule="evenodd"/><path transform="matrix(.087521 0 0 .087521 301.13 165.13)" d="m165.12 100 15.25 26.375c11.924-21.662 5.5312-29.355-15.25-26.375z" fill="url(#e)" fill-rule="evenodd" filter="url(#ab)" opacity=".27179"/><path d="m315.54 173.88c0.41622 0.97671 0.88617 1.7654 1.4055 2.3811-0.57584-0.4971-1.1202-1.5235-1.4055-2.3811z" fill="#754004" fill-rule="evenodd"/></g></g><use transform="matrix(-1 0 0 1 522.31 0)" width="1600" height="1200" xlink:href="#x"/><g transform="matrix(7.7132 0 0 -7.7132 -2163.5 1926.8)" enable-background="new"><path d="m308.94 177.71c-1.1568-0.2774 0.81814 3.05 5.1732 3.05 4.3122 0 6.4351-3.3197 5.1732-3.05-3.2929 0.70375-7.5302 0.67535-10.346 0z" enable-background="new" fill="url(#t)" filter="url(#ad)" opacity=".4604"/><path d="m308.59 177.17c-0.11699 0.10303 1.305 1.2073 5.5273 1.0908 4.2222-0.11651 5.9131-0.71322 5.393-1.1102-2.3584-1.8001-8.095-2.4686-10.92 0.0194z" enable-background="new" fill="url(#s)" opacity=".64851" stroke="url(#r)" stroke-width=".25929"/><path d="m308.94 177.89c-1.1568-0.2774 0.81814 3.05 5.1732 3.05 4.3122 0 6.4351-3.3197 5.1732-3.05-3.2929 0.70375-7.5302 0.67535-10.346 0z" enable-background="new" fill="url(#w)"/><path d="m309.41 179.04 9.4457-0.0284c0.34353-0.43497 0.83271-1.122 0.46164-1.0609-3.5197 0.57896-7.116 0.69619-10.468-0.0475-0.51656-0.11461 0.0666 0.76765 0.56042 1.1367z" enable-background="new" fill="url(#v)"/><path d="m308.94 177.89c-1.1568-0.2774 0.81814 3.05 5.1732 3.05 4.3122 0 6.4351-3.3197 5.1732-3.05-3.2929 0.70375-7.5302 0.67535-10.346 0z" clip-path="url(#al)" enable-background="new" fill="none" filter="url(#z)" stroke="#310000" stroke-width=".12965"/><path d="m308.81 177.69c-0.0856 0.0165-0.16035 0.0795-0.21492 0.15346-0.10913 0.14781-0.0858 0.32668-0.0307 0.49108 0.11022 0.32878 0.40124 0.69609 0.85966 1.1049 0.91682 0.81766 2.5074 1.6574 4.6974 1.6574 2.1693 0 3.8006-0.81025 4.7281-1.6267 0.46375-0.40824 0.75326-0.80147 0.85965-1.1356 0.0532-0.16708 0.0581-0.34855-0.0614-0.49108-0.11955-0.14253-0.30101-0.16341-0.49123-0.12277-3.2002 0.68372-7.3459 0.65309-10.07 0-0.0898-0.0215-0.19073-0.0472-0.27632-0.0307z" enable-background="new" fill="none" stroke="url(#q)" stroke-width=".12965"/><path d="m319.43 177.72c0.0856 0.0165 0.16035 0.0795 0.21492 0.15346 0.10913 0.14781 0.0858 0.32668 0.0307 0.49108-0.11022 0.32878-0.40124 0.69609-0.85966 1.1049-0.91682 0.81766-2.5074 1.6574-4.6974 1.6574-2.1693 0-3.8006-0.81025-4.7281-1.6267-0.46375-0.40824-0.75326-0.80147-0.85965-1.1356-0.0532-0.16708-0.0581-0.34855 0.0614-0.49108 0.11955-0.14253 0.30101-0.16341 0.49123-0.12277 3.2002 0.68372 7.3459 0.65309 10.07 0 0.0898-0.0215 0.19073-0.0472 0.27632-0.0307z" enable-background="new" fill="none" opacity=".36634" stroke="url(#p)" stroke-width=".12965"/><path d="m308.94 177.84c-1.1568-0.2774 0.81814 3.05 5.1732 3.05 4.3122 0 6.4351-3.3197 5.1732-3.05-3.2929 0.70375-7.5302 0.67535-10.346 0z" enable-background="new" fill="url(#m)" opacity=".31683"/><path d="m318.56 179.32c-2.5983 2.0225-6.3383 1.8581-8.6255 0.21628 3.1581-0.46591 5.7-0.56466 8.6255-0.21628z" enable-background="new" fill="url(#u)"/></g><path d="m223.48 544.95s10.721-14.035 37.188-13.354c26.467 0.68106 38.033 15.889 38.033 15.889s-16.021-11.159-38.371-12.171c-22.35-1.0117-36.85 9.6351-36.85 9.6351z" color="#000000" enable-background="accumulate" fill="#2c0000" opacity=".29703"/></g></g></g></svg>
