<?xml version="1.0" encoding="UTF-8"?>
<svg enable-background="new" version="1.0" viewBox="0 0 256 256" xmlns="http://www.w3.org/2000/svg" xmlns:xlink="http://www.w3.org/1999/xlink"><defs><linearGradient id="u"><stop stop-color="#d2d6ce" offset="0"/><stop stop-color="#d2d6ce" stop-opacity="0" offset="1"/></linearGradient><filter id="ae" x="-.089088" y="-.26489" width="1.1782" height="1.5298" color-interpolation-filters="sRGB"><feGaussianBlur stdDeviation="0.51736111"/></filter><filter id="aj" x="-.094329" y="-.28047" width="1.1887" height="1.5609" color-interpolation-filters="sRGB"><feGaussianBlur stdDeviation="0.54779412"/></filter><filter id="ai" x="-.43765" y="-.43765" width="1.8753" height="1.8753" color-interpolation-filters="sRGB"><feGaussianBlur stdDeviation="0.79779412"/></filter><filter id="af" x="-.091874" y="-.20845" width="1.1837" height="1.4169" color-interpolation-filters="sRGB"><feGaussianBlur stdDeviation="0.50811126"/></filter><clipPath id="d"><circle cx="314.97" cy="177.84" r="8.5312" enable-background="accumulate" fill="none" stroke="#ce5c00" stroke-linecap="round" stroke-linejoin="round" stroke-width=".087521"/></clipPath><filter id="ag" color-interpolation-filters="sRGB"><feGaussianBlur stdDeviation="0.0853125"/></filter><filter id="ak" x="-.060222" y="-.10389" width="1.1204" height="1.2078" color-interpolation-filters="sRGB"><feGaussianBlur stdDeviation="4.1144816"/></filter><filter id="aa" color-interpolation-filters="sRGB"><feGaussianBlur stdDeviation="0.170625"/></filter><radialGradient id="t" cx="314.11" cy="187.63" r="5.8438" gradientTransform="matrix(.99731 -.073293 .052419 .71328 -9.0125 72.341)" gradientUnits="userSpaceOnUse"><stop stop-color="#a45d03" offset="0"/><stop stop-color="#eca222" stop-opacity="0" offset="1"/></radialGradient><filter id="ah" x="-.093659" y="-.27042" width="1.1873" height="1.5408" color-interpolation-filters="sRGB"><feGaussianBlur stdDeviation="0.45609948"/></filter><radialGradient id="s" cx="313.95" cy="179.55" r="5.8438" gradientTransform="matrix(1.4351 1.1852e-6 -3.2937e-7 .3988 -136.6 107.76)" gradientUnits="userSpaceOnUse"><stop offset="0"/><stop stop-opacity="0" offset="1"/></radialGradient><radialGradient id="g" cx="314.15" cy="185.48" r="5.8438" gradientTransform="matrix(1.2242 0 0 .3101 -70.397 123.76)" gradientUnits="userSpaceOnUse"><stop stop-color="#fff" offset="0"/><stop stop-color="#fff" stop-opacity="0" offset="1"/></radialGradient><filter id="ad" color-interpolation-filters="sRGB"><feGaussianBlur stdDeviation="1.7126201"/></filter><filter id="ac" x="-.18615" y="-.31432" width="1.3723" height="1.6286" color-interpolation-filters="sRGB"><feGaussianBlur stdDeviation="7.5640721"/></filter><filter id="ab" x="-.20901" y="-.34494" width="1.418" height="1.6899" color-interpolation-filters="sRGB"><feGaussianBlur stdDeviation="6.8146639"/></filter><radialGradient id="b" cx="244.09" cy="422.47" r="2.1562" gradientUnits="userSpaceOnUse" xlink:href="#v"/><linearGradient id="v"><stop stop-color="#d3d7cf" offset="0"/><stop stop-color="#b4baad" offset=".85587"/><stop stop-color="#8f9985" offset="1"/></linearGradient><clipPath id="al"><path d="m162 120.5-5.75 0.25s-2.2962-4.7037-8.9375-4.6875c-6.7038 0.0163-8.3594 5.0312-8.3594 5.0312l-6.1094 0.0625c-1.7588 0.14638-1.3471 2.5045 0.26562 2.4062l6.7656-0.10937s1.3836-5.2031 7.375-5.2031c6.0551 0 8.3125 5.125 8.3125 5.125l6.375-0.25c1.8519-0.14069 1.665-2.5644 0.0625-2.625z" color="#000000" enable-background="new" fill="none" stroke="#000"/></clipPath><filter id="z" x="-.035493" y="-.14932" width="1.071" height="1.2986" color-interpolation-filters="sRGB"><feGaussianBlur stdDeviation="0.46680477"/></filter><radialGradient id="a" cx="226.8" cy="409.28" r="11.844" gradientUnits="userSpaceOnUse" xlink:href="#u"/><linearGradient id="c"><stop stop-color="#fff" offset="0"/><stop stop-color="#fff" stop-opacity="0" offset="1"/></linearGradient><radialGradient id="f" cx="191.18" cy="478.07" r="36" gradientTransform="matrix(2.4142 0 0 .78489 -270.38 -225.42)" gradientUnits="userSpaceOnUse" xlink:href="#c"/><radialGradient id="e" cx="172.54" cy="483.17" r="36" gradientTransform="matrix(2.0429 -.57862 .26732 .46739 -416.41 35.931)" gradientUnits="userSpaceOnUse" xlink:href="#c"/><filter id="y" color-interpolation-filters="sRGB"><feGaussianBlur stdDeviation="0.6273676"/></filter><radialGradient id="r" cx="314.03" cy="185.22" r="6.9688" gradientTransform="matrix(1 0 0 .33632 0 122.93)" gradientUnits="userSpaceOnUse"><stop offset="0"/><stop stop-opacity="0" offset="1"/></radialGradient><radialGradient id="q" cx="314.97" cy="174.44" r="9.0312" gradientTransform="matrix(1.0104 0 0 1.2333 -3.2773 -40.211)" gradientUnits="userSpaceOnUse"><stop stop-color="#ffed50" offset="0"/><stop stop-color="#e16f00" offset=".83825"/><stop stop-color="#8e5502" offset="1"/></radialGradient><radialGradient id="p" cx="140.19" cy="286.6" r="81.986" gradientTransform="matrix(1.3652 -2.348e-8 0 .53696 -51.204 92.821)" gradientUnits="userSpaceOnUse"><stop stop-color="#fff" offset="0"/><stop stop-color="#fff" stop-opacity="0" offset="1"/></radialGradient><radialGradient id="o" cx="141.58" cy="30.179" r="90.828" gradientTransform="matrix(.13119 0 0 .057822 295.52 168.16)" gradientUnits="userSpaceOnUse"><stop stop-color="#fff" offset="0"/><stop stop-color="#fff" stop-opacity="0" offset="1"/></radialGradient><radialGradient id="n" cx="151.79" cy="144.54" r="66.915" gradientTransform="matrix(1 0 0 .70286 0 40.834)" gradientUnits="userSpaceOnUse"><stop stop-color="#090909" stop-opacity="0" offset="0"/><stop stop-color="#090909" offset="1"/></radialGradient><radialGradient id="m" cx="150.79" cy="144.63" r="52.871" gradientTransform="matrix(1 0 0 .62393 0 51.681)" gradientUnits="userSpaceOnUse"><stop stop-color="#090909" stop-opacity="0" offset="0"/><stop stop-color="#090909" offset="1"/></radialGradient><radialGradient id="l" cx="188.43" cy="117.02" r="48.761" gradientTransform="matrix(.99851 .054617 -.082033 1.4997 10.984 -77.61)" gradientUnits="userSpaceOnUse"><stop stop-color="#838383" offset="0"/><stop stop-opacity=".9" offset="1"/></radialGradient><linearGradient id="w" x1="247.13" x2="246.94" y1="122.39" y2="121.53" gradientUnits="userSpaceOnUse"><stop stop-color="#b4baad" offset="0"/><stop stop-color="#f4f5f3" offset="1"/></linearGradient><radialGradient id="k" cx="244.09" cy="422.47" r="2.1562" gradientUnits="userSpaceOnUse"><stop stop-color="#d3d7cf" offset="0"/><stop stop-color="#b4baad" offset=".85587"/><stop stop-color="#8f9985" offset="1"/></radialGradient><radialGradient id="j" cx="188.07" cy="486.29" r="47.179" gradientTransform="matrix(1 0 0 .3463 0 291.52)" gradientUnits="userSpaceOnUse"><stop stop-color="#eeeeec" offset="0"/><stop stop-color="#eeeeec" stop-opacity="0" offset="1"/></radialGradient><radialGradient id="i" cx="204.62" cy="375.27" r="44.25" gradientTransform="matrix(1 0 0 .26977 0 304.82)" gradientUnits="userSpaceOnUse"><stop stop-color="#fff" offset="0"/><stop stop-color="#fff" stop-opacity="0" offset="1"/></radialGradient><radialGradient id="h" cx="196.03" cy="403.84" r="39.126" gradientTransform="matrix(2.2395 0 0 1.357 -242.98 -137.17)" gradientUnits="userSpaceOnUse"><stop stop-color="#0e213d" offset="0"/><stop stop-color="#204b8b" offset="1"/></radialGradient></defs><g transform="translate(-20,-28)"><g transform="matrix(11.426 0 0 11.426 -3441.9 -1885.6)" enable-background="new"><g opacity=".63547"><ellipse transform="matrix(.68602 0 0 .68602 98.599 58.176)" cx="314.03" cy="185.22" rx="6.9688" ry="2.3438" enable-background="accumulate" filter="url(#ae)"/><ellipse transform="matrix(1.24 0 0 1.24 -75.368 -44.496)" cx="314.03" cy="185.22" rx="6.9688" ry="2.3438" enable-background="accumulate" fill="url(#r)" filter="url(#aj)"/></g><circle transform="matrix(1.0344 0 0 1.0344 -11.698 -6.1114)" cx="314.97" cy="177.84" r="8.5312" enable-background="accumulate" fill="url(#q)"/><circle transform="matrix(1.4 0 0 1.4 -126.24 -72.825)" cx="314.5" cy="175.38" r="2.1875" enable-background="accumulate" fill="#fcffcd" filter="url(#ai)"/><circle transform="matrix(1.0344 0 0 1.0344 -11.698 -6.1114)" cx="314.97" cy="177.84" r="8.5312" clip-path="url(#d)" enable-background="accumulate" fill="none" filter="url(#ag)" stroke="#000" stroke-linecap="round" stroke-linejoin="round" stroke-width=".042307"/><path transform="matrix(.094994 0 0 .087521 300.65 165.11)" d="m58.219 144.19c-1.5992 126.96 166.23 123.05 163.94 10.219-2.1677 94.357-161.55 97.864-163.91-10.219z" fill="url(#p)" fill-rule="evenodd" filter="url(#ak)" opacity=".55172"/><path transform="matrix(.8945 0 0 .74568 33.137 43.141)" d="m314.09 169.63c-3.6633 0-6.6377 2.0382-6.6377 4.5485 0 0.45252 0.0987 0.88918 0.27858 1.3018 0.81756-1.8766 3.3559-3.2467 6.3592-3.2467 3.0033 0 5.5416 1.37 6.3592 3.2467 0.17987-0.41262 0.2763-0.84928 0.2763-1.3018 0-2.5103-2.9722-4.5485-6.6355-4.5485z" enable-background="accumulate" fill="url(#o)" filter="url(#af)"/><circle transform="matrix(.9958 0 0 .9958 .44883 .74749)" cx="314.97" cy="177.84" r="8.5312" clip-path="url(#d)" enable-background="accumulate" fill="none" filter="url(#aa)" stroke="#fff" stroke-linecap="round" stroke-linejoin="round" stroke-width=".043945"/></g><g id="x" transform="translate(0,-12)"><path d="m150.26 132.7c28.469-31.661 83.458-30.805 94.874-5.584 1.4113 3.1181 1.5648 5.3297 0.32538 9.4362-9.3218 30.885-70.712 44.208-95.012 7.8092-1.7571-2.632-2.5756-9.0053-0.18722-11.661z" color="#000000" enable-background="new" fill="url(#n)" fill-rule="evenodd" filter="url(#ac)" opacity=".48507"/><path d="m150.26 132.7c28.469-31.661 83.458-30.805 94.874-5.584 1.4113 3.1181 1.5648 5.3297 0.32538 9.4362-9.3218 30.885-70.712 44.208-95.012 7.8092-1.7571-2.632-2.5756-9.0053-0.18722-11.661z" color="#000000" enable-background="new" fill="url(#m)" fill-rule="evenodd" filter="url(#ad)" opacity=".1791"/><path d="m154.76 128.7c28.469-31.661 83.458-30.805 94.874-5.584 1.4113 3.1181 1.5648 5.3297 0.32538 9.4362-9.3218 30.885-70.712 44.208-95.012 7.8092-1.7571-2.632-2.5756-9.0053-0.18722-11.661z" color="#000000" enable-background="new" fill="url(#l)" fill-rule="evenodd" opacity=".8097"/><path d="m252.62 119.88-11.375 2c-0.60364 0.68206-1.1022 1.3563 0.5 1.875l11.5-2.125c0.8236-1.1265 0.0962-1.4366-0.625-1.75z" color="#000000" enable-background="new" fill="url(#w)" fill-rule="evenodd"/><circle transform="translate(.375 -300.62)" cx="244.09" cy="422.78" r="2.1562" color="#000000" enable-background="new" fill="url(#k)" fill-rule="evenodd"/><g transform="translate(-.0625 -.25)"><path transform="translate(0,-300)" d="m245.19 421.44-1.0775 1.8663" color="#000000" enable-background="new" fill="#d3d7cf" fill-rule="evenodd" stroke="#555753" stroke-linecap="round"/><path d="m243.69 121.87 1.9111 0.99594" color="#000000" enable-background="new" fill="#d3d7cf" fill-rule="evenodd" stroke="#555753" stroke-linecap="round"/></g><path transform="translate(0,-300)" d="m154.12 429.62c-1.5889 2.9935-0.768 8.3826 0.8125 10.75 22.782 34.124 78.173 24.529 92.688-2.25-14.799 26.517-69.816 35.291-92.5 1.875-1.5344-2.2603-2.3414-7.3249-1-10.375z" color="#000000" enable-background="new" fill="url(#j)" fill-rule="evenodd"/><path transform="translate(0,-300)" d="m154.5 429.38s21.01-21.325 48.25-23.875c27.262-2.5524 40.25 9.5 40.25 9.5s-13.907-10.489-40.25-8-48.25 22.375-48.25 22.375z" color="#000000" enable-background="new" fill="url(#i)" fill-rule="evenodd" opacity=".8097"/><path transform="translate(0,-288)" d="m229.75 408.5c15.134 27.146-48.154 42.764-66.5 23.5-21.522-22.599 53.976-45.963 66.5-23.5z" color="#000000" enable-background="new" fill="url(#h)" fill-rule="evenodd" filter="url(#ab)" opacity=".40672"/></g><circle transform="matrix(.5743 -.53308 .65493 .70557 -160.98 -59.035)" cx="226.8" cy="409.28" r="11.844" color="#000000" enable-background="new" fill="url(#a)" opacity=".35821"/><use transform="matrix(-1 0 0 1 294.88 0)" width="1600" height="1200" xlink:href="#x"/><g transform="matrix(11.426 0 0 11.426 -3438.9 -1878.6)" enable-background="new" fill-rule="evenodd"><path transform="matrix(1.2242 0 0 1.2242 -70.397 -40.445)" d="m308.09 178.54c4.8193 4.7286 8.4159 3.0811 11.688 0-3.7031 5.3001-7.5941 5.4934-11.688 0z" fill="url(#t)" filter="url(#ah)"/><path d="m306.8 177.65c5.9892 4.7183 10.354 3.1548 14.308 0-4.7104 4.4711-9.4772 4.6712-14.308 0z" fill="url(#s)"/><path d="m306.8 177.65c5.9 5.7889 10.303 3.7719 14.308 0-4.7104 4.4711-9.4772 4.6712-14.308 0z" fill="url(#g)" opacity=".5468"/></g><path d="m162 120.5-5.75 0.25s-2.2962-4.7037-8.9375-4.6875c-6.7038 0.0163-8.3594 5.0312-8.3594 5.0312l-6.1094 0.0625c-1.7588 0.14638-1.3471 2.5045 0.26562 2.4062l6.7656-0.10937s1.3836-5.2031 7.375-5.2031c6.0551 0 8.3125 5.125 8.3125 5.125l6.375-0.25c1.8519-0.14069 1.665-2.5644 0.0625-2.625z" color="#000000" enable-background="new" fill="#d2d6ce" fill-rule="evenodd"/><path d="m162 120.5-5.75 0.25s-2.2962-4.7037-8.9375-4.6875c-6.7038 0.0163-8.3594 5.0312-8.3594 5.0312l-6.1094 0.0625c-1.7588 0.14638-1.3471 2.5045 0.26562 2.4062l6.7656-0.10937s1.3836-5.2031 7.375-5.2031c6.0551 0 8.3125 5.125 8.3125 5.125l6.375-0.25c1.8519-0.14069 1.665-2.5644 0.0625-2.625z" clip-path="url(#al)" color="#000000" enable-background="new" fill="none" filter="url(#z)" opacity=".51119" stroke="#000"/><g transform="translate(-84.844 -.15625)" enable-background="new" fill-rule="evenodd"><circle transform="translate(.375 -300.62)" cx="244.09" cy="422.78" r="2.1562" color="#000000" enable-background="new" fill="url(#b)"/><g transform="translate(-.0625 -.25)" fill="#d3d7cf" stroke="#555753" stroke-linecap="round"><path transform="translate(0,-300)" d="m245.19 421.44-1.0775 1.8663" color="#000000" enable-background="new"/><path d="m243.69 121.87 1.9111 0.99594" color="#000000" enable-background="new"/></g></g><g transform="translate(-108.97 -.031251)" enable-background="new" fill-rule="evenodd"><circle transform="translate(.375 -300.62)" cx="244.09" cy="422.78" r="2.1562" color="#000000" enable-background="new" fill="url(#b)"/><g transform="translate(-.0625 -.25)" fill="#d3d7cf" stroke="#555753" stroke-linecap="round"><path transform="translate(0,-300)" d="m245.19 421.44-1.0775 1.8663" color="#000000" enable-background="new"/><path d="m243.69 121.87 1.9111 0.99594" color="#000000" enable-background="new"/></g></g><circle transform="matrix(.18231 .09359 -.1822 .35493 277.03 -44.796)" cx="226.8" cy="409.28" r="11.844" color="#000000" enable-background="new" fill="url(#a)" opacity=".51119"/><circle transform="matrix(.94014 -.36066 -1.1792 -.98054 383.71 595.95)" cx="226.8" cy="409.28" r="11.844" color="#000000" enable-background="new" fill="url(#a)" opacity=".22388"/><circle transform="matrix(.94014 -.36066 -1.1792 -.98054 333.21 612.45)" cx="226.8" cy="409.28" r="11.844" color="#000000" enable-background="new" fill="url(#a)" opacity=".12313"/><circle transform="matrix(-.24658 .29737 -.57892 -.48004 344.81 249.43)" cx="226.8" cy="409.28" r="11.844" color="#000000" enable-background="new" fill="url(#a)" opacity=".51119"/><circle transform="matrix(-.083564 .10078 -.19619 -.16268 151.68 169.51)" cx="226.8" cy="409.28" r="11.844" color="#000000" enable-background="new" fill="url(#a)" opacity=".51119"/><path d="m213.5 133.5 0.75 1.875c4.5452-0.37265 6.8735-2.2232 9.5-3.875l-0.875-0.375c-2.8101 1.3165-5.5917 2.6805-9.375 2.375zm-49-8.125 1.125-0.875c16.367 9.0996 31.95 13.216 46.25 9.375l-0.625 2.25c-24.21 6.3617-33.518-4.2514-46.75-10.75zm49.625 11.75 1.125 9c5.5708-1.2104 11.085-2.6195 16-6.125l-6.75-7.375c-2.5598 2.1902-5.6488 3.4762-10.375 4.5zm-50.25-11.125-4.625 3.5c11.569 15.412 30.074 19.894 52.625 18l-0.25-9.375c-14.588 4.9402-29.515 3.1613-47.75-12.125z" color="#000000" enable-background="new" fill="url(#f)" fill-rule="evenodd" opacity=".22015"/><path d="m71.717 139.8c8.8943 1.2305 20.093 2.4448 32.635 0.59527l0.14845 1.8176c-14.169 2.3038-25.18 0.0281-33.438-1.6222zm-0.96998 1.3126c12.303 2.8212 22.478 4.1014 33.836 2.1579l0.24237 3.11c-13.103 2.3854-27.571 1.8552-36.8-2.0752zm59.359-8.9846 0.23743 1.4896c-8.5924 4.2634-16.401 6.7819-23.451 8.1557l-0.14297-1.7542c7.4163-1.3122 15.261-3.7456 23.357-7.8911zm0.20265 2.2347-4.0103 4.1631c-4.9704 3.3346-11.718 5.8232-19.039 7.3817l-0.26881-3.1025c7.01-1.459 14.537-4.1412 23.318-8.4423z" color="#000000" enable-background="new" fill="url(#e)" fill-rule="evenodd" opacity=".22015"/><circle transform="matrix(1.3954 -.53308 1.5913 .70557 -744.17 -63.035)" cx="226.8" cy="409.28" r="11.844" color="#000000" enable-background="new" fill="url(#a)" filter="url(#y)" opacity=".1194"/></g></svg>
