<?xml version="1.0" encoding="UTF-8"?>
<svg enable-background="new" version="1.0" viewBox="0 0 256 256" xmlns="http://www.w3.org/2000/svg" xmlns:xlink="http://www.w3.org/1999/xlink"><defs><filter id="af" x="-.089088" y="-.26489" width="1.1782" height="1.5298" color-interpolation-filters="sRGB"><feGaussianBlur stdDeviation="0.51736111"/></filter><filter id="am" x="-.094329" y="-.28047" width="1.1887" height="1.5609" color-interpolation-filters="sRGB"><feGaussianBlur stdDeviation="0.54779412"/></filter><filter id="al" x="-.43765" y="-.43765" width="1.8753" height="1.8753" color-interpolation-filters="sRGB"><feGaussianBlur stdDeviation="0.79779412"/></filter><filter id="ag" x="-.091874" y="-.20845" width="1.1837" height="1.4169" color-interpolation-filters="sRGB"><feGaussianBlur stdDeviation="0.50811126"/></filter><clipPath id="i"><circle cx="314.97" cy="177.84" r="8.5312" enable-background="accumulate" fill="none" stroke="#ce5c00" stroke-linecap="round" stroke-linejoin="round" stroke-width=".087521"/></clipPath><filter id="aj" color-interpolation-filters="sRGB"><feGaussianBlur stdDeviation="0.0853125"/></filter><filter id="an" x="-.060222" y="-.10389" width="1.1204" height="1.2078" color-interpolation-filters="sRGB"><feGaussianBlur stdDeviation="4.1144816"/></filter><filter id="ad" color-interpolation-filters="sRGB"><feGaussianBlur stdDeviation="0.170625"/></filter><radialGradient id="b" cx="142.75" cy="172.87" r="16.25" gradientTransform="matrix(1 0 0 .49231 0 89.646)" gradientUnits="userSpaceOnUse" xlink:href="#ab"/><linearGradient id="ab"><stop stop-color="#fdfcbc" offset="0"/><stop stop-color="#fdfcbc" stop-opacity="0" offset="1"/></linearGradient><filter id="h" x="-.10702" y="-.081841" width="1.214" height="1.1637" color-interpolation-filters="sRGB"><feGaussianBlur stdDeviation="1.4492839"/></filter><filter id="ao" x="-.18307" y="-.15542" width="1.3661" height="1.3108" color-interpolation-filters="sRGB"><feGaussianBlur stdDeviation="0.85812722"/></filter><radialGradient id="q" cx="171.69" cy="140.91" r="8.5" gradientTransform="matrix(.087521 0 0 .029344 302.23 173.06)" gradientUnits="userSpaceOnUse" xlink:href="#e"/><linearGradient id="e"><stop stop-color="#fff" offset="0"/><stop stop-color="#fff" stop-opacity="0" offset="1"/></linearGradient><radialGradient id="p" cx="171.69" cy="140.91" r="8.5" gradientTransform="matrix(-.087521 0 0 .029344 326.14 173.06)" gradientUnits="userSpaceOnUse" xlink:href="#e"/><radialGradient id="m" cx="314.11" cy="187.63" r="5.8438" gradientTransform="matrix(.99731 -.073293 .052419 .71328 -9.0125 72.341)" gradientUnits="userSpaceOnUse"><stop stop-color="#a45d03" offset="0"/><stop stop-color="#eca222" stop-opacity="0" offset="1"/></radialGradient><filter id="ak" x="-.093659" y="-.27042" width="1.1873" height="1.5408" color-interpolation-filters="sRGB"><feGaussianBlur stdDeviation="0.45609948"/></filter><radialGradient id="o" cx="313.95" cy="179.55" r="5.8438" gradientTransform="matrix(1.4351 1.1852e-6 -3.2937e-7 .3988 -136.6 107.76)" gradientUnits="userSpaceOnUse"><stop offset="0"/><stop stop-opacity="0" offset="1"/></radialGradient><radialGradient id="n" cx="314.15" cy="185.48" r="5.8438" gradientTransform="matrix(1.2242 0 0 .3101 -70.397 123.76)" gradientUnits="userSpaceOnUse"><stop stop-color="#fff" offset="0"/><stop stop-color="#fff" stop-opacity="0" offset="1"/></radialGradient><filter id="ae" x="-.050555" y="-.11324" width="1.1011" height="1.2265" color-interpolation-filters="sRGB"><feGaussianBlur stdDeviation="3.7847554"/></filter><radialGradient id="a" cx="17.589" cy="16.384" r="8.3085" gradientUnits="userSpaceOnUse" xlink:href="#aa"/><linearGradient id="aa"><stop stop-color="#729fcf" stop-opacity=".20784" offset="0"/><stop stop-color="#729fcf" stop-opacity=".67619" offset="1"/></linearGradient><linearGradient id="y" x1="12.862" x2="12.671" y1="5.0454" y2="9.6776" gradientTransform="matrix(4.0952 0 0 4.0306 -293.02 63.214)" gradientUnits="userSpaceOnUse" xlink:href="#d"/><linearGradient id="d"><stop stop-color="#a9a9a9" offset="0"/><stop stop-color="#414141" stop-opacity="0" offset="1"/></linearGradient><filter id="ah" color-interpolation-filters="sRGB"><feGaussianBlur stdDeviation="0.39264575"/></filter><radialGradient id="l" cx="16.218" cy="13.261" r="6.6562" gradientTransform="matrix(12.684 2.1858 -1.0997 6.3815 -437.01 -33.691)" gradientUnits="userSpaceOnUse" xlink:href="#f"/><linearGradient id="f"><stop stop-color="#fff" offset="0"/><stop stop-color="#fff" stop-opacity=".24762" offset="1"/></linearGradient><radialGradient id="k" cx="143.72" cy="85.529" r="14.142" gradientTransform="matrix(1.3252 0 0 .2525 -385.56 70.191)" gradientUnits="userSpaceOnUse"><stop stop-color="#fff" offset="0"/><stop stop-color="#fff" stop-opacity="0" offset="1"/></radialGradient><linearGradient id="c" x1="92.75" x2="92.75" y1="82" y2="110.5" gradientUnits="userSpaceOnUse" xlink:href="#z"/><linearGradient id="z"><stop offset="0"/><stop stop-opacity="0" offset="1"/></linearGradient><filter id="g" color-interpolation-filters="sRGB"><feGaussianBlur stdDeviation="0.30400896"/></filter><radialGradient id="j" cx="16.218" cy="13.261" r="6.6562" gradientTransform="matrix(11.595 5.588 -2.8113 5.8334 -290.86 -79.908)" gradientUnits="userSpaceOnUse" xlink:href="#f"/><linearGradient id="x" x1="12.862" x2="12.671" y1="5.0454" y2="9.6776" gradientTransform="matrix(4.0952 0 0 4.0306 -195.52 63.214)" gradientUnits="userSpaceOnUse" xlink:href="#d"/><filter id="ai" color-interpolation-filters="sRGB"><feGaussianBlur stdDeviation="0.39264575"/></filter><radialGradient id="w" cx="314.03" cy="185.22" r="6.9688" gradientTransform="matrix(1 0 0 .33632 0 122.93)" gradientUnits="userSpaceOnUse"><stop offset="0"/><stop stop-opacity="0" offset="1"/></radialGradient><radialGradient id="v" cx="314.97" cy="174.44" r="9.0312" gradientTransform="matrix(1.0104 0 0 1.2333 -3.2773 -40.211)" gradientUnits="userSpaceOnUse"><stop stop-color="#ffed50" offset="0"/><stop stop-color="#e16f00" offset=".83825"/><stop stop-color="#8e5502" offset="1"/></radialGradient><radialGradient id="u" cx="140.19" cy="286.6" r="81.986" gradientTransform="matrix(1.3652 -2.348e-8 0 .53696 -51.204 92.821)" gradientUnits="userSpaceOnUse"><stop stop-color="#fff" offset="0"/><stop stop-color="#fff" stop-opacity="0" offset="1"/></radialGradient><radialGradient id="t" cx="141.58" cy="30.179" r="90.828" gradientTransform="matrix(.13119 0 0 .057822 295.52 168.16)" gradientUnits="userSpaceOnUse"><stop stop-color="#fff" offset="0"/><stop stop-color="#fff" stop-opacity="0" offset="1"/></radialGradient><radialGradient id="s" cx="172.5" cy="101.34" r="8.5" gradientTransform="matrix(.35294 0 0 .46667 111.62 58.146)" gradientUnits="userSpaceOnUse"><stop stop-color="#b3b3b3" offset="0"/><stop offset="1"/></radialGradient><radialGradient id="r" cx="175.62" cy="130.62" r="5.625" gradientTransform="matrix(2.4905 0 0 2.9335 -261.77 -251.8)" gradientUnits="userSpaceOnUse"><stop stop-color="#fcfbb6" offset="0"/><stop stop-color="#fcfbb6" stop-opacity="0" offset="1"/></radialGradient></defs><g transform="translate(-820,-628)"><g><g transform="matrix(11.426 0 0 11.426 -2641.9 -1285.6)" enable-background="new"><g opacity=".63547"><ellipse transform="matrix(.68602 0 0 .68602 98.599 58.176)" cx="314.03" cy="185.22" rx="6.9688" ry="2.3438" enable-background="accumulate" filter="url(#af)"/><ellipse transform="matrix(1.24 0 0 1.24 -75.368 -44.496)" cx="314.03" cy="185.22" rx="6.9688" ry="2.3438" enable-background="accumulate" fill="url(#w)" filter="url(#am)"/></g><circle transform="matrix(1.0344 0 0 1.0344 -11.698 -6.1114)" cx="314.97" cy="177.84" r="8.5312" enable-background="accumulate" fill="url(#v)"/><circle transform="matrix(1.4 0 0 1.4 -126.24 -72.825)" cx="314.5" cy="175.38" r="2.1875" enable-background="accumulate" fill="#fcffcd" filter="url(#al)"/><circle transform="matrix(1.0344 0 0 1.0344 -11.698 -6.1114)" cx="314.97" cy="177.84" r="8.5312" clip-path="url(#i)" enable-background="accumulate" fill="none" filter="url(#aj)" stroke="#000" stroke-linecap="round" stroke-linejoin="round" stroke-width=".042307"/><path transform="matrix(.094994 0 0 .087521 300.65 165.11)" d="m58.219 144.19c-1.5992 126.96 166.23 123.05 163.94 10.219-2.1677 94.357-161.55 97.864-163.91-10.219z" fill="url(#u)" fill-rule="evenodd" filter="url(#an)" opacity=".55172"/><path transform="matrix(.8945 0 0 .74568 33.137 43.141)" d="m314.09 169.63c-3.6633 0-6.6377 2.0382-6.6377 4.5485 0 0.45252 0.0987 0.88918 0.27858 1.3018 0.81756-1.8766 3.3559-3.2467 6.3592-3.2467 3.0033 0 5.5416 1.37 6.3592 3.2467 0.17987-0.41262 0.2763-0.84928 0.2763-1.3018 0-2.5103-2.9722-4.5485-6.6355-4.5485z" enable-background="accumulate" fill="url(#t)" filter="url(#ag)"/><circle transform="matrix(.9958 0 0 .9958 .44883 .74749)" cx="314.97" cy="177.84" r="8.5312" clip-path="url(#i)" enable-background="accumulate" fill="none" filter="url(#ad)" stroke="#fff" stroke-linecap="round" stroke-linejoin="round" stroke-width=".043945"/></g><g transform="matrix(11.426 0 0 11.426 -2643.6 -1287.7)" enable-background="new"><path transform="matrix(.057899 0 0 -.087521 303.26 192.5)" d="m126.5 187s2.2108-41.347 15.5-41.5c13.731-0.15831 17 42.5 17 42.5-15.307-21.808-23.645-10.165-32.5-1z" fill="url(#b)" fill-rule="evenodd" filter="url(#h)" opacity=".49754"/><path transform="matrix(.057899 0 0 -.087521 308.51 192.5)" d="m126.5 187s2.2108-41.347 15.5-41.5c13.731-0.15831 17 42.5 17 42.5-18.752-25.665-25.888-10.267-32.5-1z" fill="url(#b)" fill-rule="evenodd" filter="url(#h)" opacity=".49754"/><g id="ac" transform="matrix(.087521 0 0 .036115 301.88 172.23)" enable-background="new"><ellipse transform="matrix(1 0 0 1.1765 3 -20.294)" cx="172.5" cy="115" rx="8.5" ry="17" enable-background="accumulate" fill="url(#s)" opacity=".84236"/><path transform="matrix(1.1333 0 0 1 -23.417 0)" d="m170 119.75s0.97644 13.116 5.25 13.25c4.2253 0.13228 6-12.75 6-12.75-3.0256 4.18-4.5212 17.54-11.25-0.5z" fill="url(#r)" fill-rule="evenodd" filter="url(#ao)" opacity=".30542"/></g><use transform="translate(-6.1265)" width="400" height="300" xlink:href="#ac"/><path d="m316.47 176.82c0.47539 0.47947 1.026 0.50401 1.4879 0.0271-0.43206 0.35482-0.91039 0.44614-1.4879-0.0271z" fill="url(#q)" fill-rule="evenodd"/><path d="m311.9 176.82c-0.47539 0.47947-1.026 0.50401-1.4879 0.0271 0.43206 0.35482 0.91039 0.44614 1.4879-0.0271z" fill="url(#p)" fill-rule="evenodd"/><g transform="matrix(.64589 0 0 .83905 111.17 30.782)" fill-rule="evenodd"><path transform="matrix(1.2242 0 0 1.2242 -70.397 -40.445)" d="m308.09 178.54c4.8193 4.7286 8.4159 3.0811 11.688 0-3.7031 5.3001-7.5941 5.4934-11.688 0z" fill="url(#m)" filter="url(#ak)"/><path d="m306.8 177.65c5.9892 4.7183 10.354 3.1548 14.308 0-4.7104 4.4711-9.4772 4.6712-14.308 0z" fill="url(#o)"/><path d="m306.8 177.65c5.9 5.7889 10.303 3.7719 14.308 0-4.7104 4.4711-9.4772 4.6712-14.308 0z" fill="url(#n)" opacity=".5468"/></g><g transform="matrix(.087521 0 0 .087521 301.67 165.18)" enable-background="new"><g transform="matrix(.92208 0 0 1.0623 325.63 1.3953)" filter="url(#ae)" opacity=".41089"><circle transform="matrix(4.6427 0 0 4.5546 -327.89 29.814)" cx="17.589" cy="18.478" r="8.3085" fill="none" stroke="#000" stroke-linecap="round" stroke-miterlimit="10" stroke-width=".99484"/><path d="m-211.75 94.703c8.6242-7.4096 22.076-7.5624 30.74-0.07854l-0.13064-0.39205-1.9445 4.773c-6.9965-4.8419-14.789-11.462-26.34 0.53033z" fill-rule="evenodd"/><circle transform="matrix(4.6427 0 0 4.5546 -229.89 29.814)" cx="17.589" cy="18.478" r="8.3085" fill="none" stroke="#000" stroke-linecap="round" stroke-miterlimit="10" stroke-width=".99484"/></g><g transform="translate(341)"><circle transform="matrix(4.7329 0 0 4.5546 -329.73 29.564)" cx="17.589" cy="18.478" r="8.3085" fill="url(#a)" fill-rule="evenodd"/><circle transform="matrix(4.6427 0 0 4.5546 -327.89 29.814)" cx="17.589" cy="18.478" r="8.3085" fill="none" stroke="#000" stroke-linecap="round" stroke-miterlimit="10" stroke-width=".98462"/><path transform="matrix(.98738 0 0 .98738 -3.1053 1.4324)" d="m-245.93 74.55c-21.852 0-39.672 17.413-39.672 38.921 0 21.507 17.821 38.921 39.672 38.921 21.852 0 39.544-17.413 39.544-38.921 0-21.507-17.693-38.921-39.544-38.921zm0 0.8817c21.307 0 38.521 17.069 38.521 38.039 0 20.97-17.214 38.039-38.521 38.039-21.307 1e-5 -38.649-17.069-38.649-38.039 0-20.97 17.342-38.039 38.649-38.039z" fill="url(#y)" fill-rule="evenodd" filter="url(#ah)"/><path d="m-211.75 94.703c8.6242-7.4096 22.076-7.5624 30.74-0.07854l-0.13064-0.39205-1.9445 4.773c-6.9965-4.8419-14.789-11.462-26.34 0.53033z" fill-rule="evenodd"/><path d="m-240.23 79.521c-19.394-3.3421-37.865 10.005-41.281 29.83-0.98665 5.7255-0.32919 11.263 1.1773 16.47 4.3613 2.561 9.1098 4.6105 14.368 5.5167 22.982 3.9604 44.525-11.385 49.929-34.269-5.1045-8.8979-13.44-15.695-24.193-17.548z" fill="url(#l)" fill-rule="evenodd" opacity=".83422"/><path d="m-210.47 95.012 0.53033 0.88388c8.9124-6.1489 18.487-6.4319 27.4-0.17678l0.35355-0.88388c-8.889-5.7912-17.531-6.7347-28.284 0.17678z" enable-background="accumulate" fill="url(#k)" opacity=".5396"/><circle transform="matrix(1.238 0 0 1.2051 -358.75 -18.602)" cx="91" cy="110.5" r="30" enable-background="accumulate" fill="none" filter="url(#g)" opacity=".5297" stroke="url(#c)" stroke-miterlimit="10" stroke-width=".81871"/><circle transform="matrix(4.7329 0 0 4.5546 -231.73 29.564)" cx="17.589" cy="18.478" r="8.3085" fill="url(#a)" fill-rule="evenodd"/><circle transform="matrix(4.6427 0 0 4.5546 -229.89 29.814)" cx="17.589" cy="18.478" r="8.3085" fill="none" stroke="#000" stroke-linecap="round" stroke-miterlimit="10" stroke-width=".98462"/><path d="m-132.78 83.029c-17.728-8.5439-39.157-0.78753-47.89 17.335-2.5223 5.2338-3.4123 10.739-3.395 16.16 3.4894 3.6611 7.4917 6.9368 12.299 9.2534 21.008 10.124 45.939 1.2917 57.425-19.226-2.4622-9.9582-8.6085-18.784-18.438-23.522z" fill="url(#j)" fill-rule="evenodd" opacity=".83422"/><circle transform="matrix(1.238 0 0 1.2051 -260.75 -18.602)" cx="91" cy="110.5" r="30" enable-background="accumulate" fill="none" filter="url(#g)" opacity=".5297" stroke="url(#c)" stroke-miterlimit="10" stroke-width=".81871"/><path transform="matrix(.98738 0 0 .98738 -1.8745 1.4324)" d="m-148.43 74.55c-21.852 0-39.672 17.413-39.672 38.921 0 21.507 17.821 38.921 39.672 38.921 21.852 0 39.544-17.413 39.544-38.921 0-21.507-17.693-38.921-39.544-38.921zm0 0.8817c21.307 0 38.521 17.069 38.521 38.039 0 20.97-17.214 38.039-38.521 38.039-21.307 1e-5 -38.649-17.069-38.649-38.039 0-20.97 17.342-38.039 38.649-38.039z" fill="url(#x)" fill-rule="evenodd" filter="url(#ai)"/></g></g></g></g></g></svg>
