<?xml version="1.0" encoding="UTF-8"?>
<svg enable-background="new" version="1.0" viewBox="0 0 256 256" xmlns="http://www.w3.org/2000/svg" xmlns:xlink="http://www.w3.org/1999/xlink"><defs><filter id="q" x="-.089088" y="-.26489" width="1.1782" height="1.5298" color-interpolation-filters="sRGB"><feGaussianBlur stdDeviation="0.51736111"/></filter><filter id="v" x="-.094329" y="-.28047" width="1.1887" height="1.5609" color-interpolation-filters="sRGB"><feGaussianBlur stdDeviation="0.54779412"/></filter><filter id="u" x="-.43765" y="-.43765" width="1.8753" height="1.8753" color-interpolation-filters="sRGB"><feGaussianBlur stdDeviation="0.79779412"/></filter><filter id="r" x="-.091874" y="-.20845" width="1.1837" height="1.4169" color-interpolation-filters="sRGB"><feGaussianBlur stdDeviation="0.50811126"/></filter><clipPath id="b"><circle cx="314.97" cy="177.84" r="8.5312" enable-background="accumulate" fill="none" stroke="#ce5c00" stroke-linecap="round" stroke-linejoin="round" stroke-width=".087521"/></clipPath><filter id="t" color-interpolation-filters="sRGB"><feGaussianBlur stdDeviation="0.0853125"/></filter><filter id="x" x="-.060222" y="-.10389" width="1.1204" height="1.2078" color-interpolation-filters="sRGB"><feGaussianBlur stdDeviation="4.1144816"/></filter><filter id="p" color-interpolation-filters="sRGB"><feGaussianBlur stdDeviation="0.170625"/></filter><radialGradient id="i" cx="314.34" cy="184.97" r="5.8438" gradientTransform="matrix(.99731 -.073293 .052419 .71328 -9.0125 72.341)" gradientUnits="userSpaceOnUse"><stop stop-color="#a45d03" offset="0"/><stop stop-color="#eca222" stop-opacity="0" offset="1"/></radialGradient><filter id="s" x="-.043049" y="-1.1453" width="1.0861" height="3.2905" color-interpolation-filters="sRGB"><feGaussianBlur stdDeviation="0.12358303"/></filter><radialGradient id="g" cx="313.95" cy="179.55" r="5.8438" gradientTransform="matrix(1.4351 1.1852e-6 -3.2937e-7 .3988 -136.6 107.76)" gradientUnits="userSpaceOnUse"><stop offset="0"/><stop stop-opacity="0" offset="1"/></radialGradient><radialGradient id="c" cx="314.86" cy="174.48" r="5.8438" gradientTransform="matrix(.69472 0 0 .17598 95.846 150.58)" gradientUnits="userSpaceOnUse"><stop stop-color="#fff" offset="0"/><stop stop-color="#fff" stop-opacity="0" offset="1"/></radialGradient><radialGradient id="h" cx="171.69" cy="140.91" r="8.5" gradientTransform="matrix(-1 0 0 .81254 289.93 -263.82)" gradientUnits="userSpaceOnUse"><stop stop-color="#fff" offset="0"/><stop stop-color="#fff" stop-opacity="0" offset="1"/></radialGradient><radialGradient id="k" cx="172.5" cy="101.34" r="8.5" gradientTransform="matrix(.35294 0 0 .46667 111.62 58.146)" gradientUnits="userSpaceOnUse"><stop stop-color="#b3b3b3" offset="0"/><stop offset="1"/></radialGradient><filter id="y" x="-.18307" y="-.15542" width="1.3661" height="1.3108" color-interpolation-filters="sRGB"><feGaussianBlur stdDeviation="0.85812722"/></filter><radialGradient id="a" cx="175.62" cy="130.62" r="5.625" gradientTransform="matrix(2.4905 0 0 2.9335 -261.77 -251.8)" gradientUnits="userSpaceOnUse"><stop stop-color="#fcfbb6" offset="0"/><stop stop-color="#fcfbb6" stop-opacity="0" offset="1"/></radialGradient><radialGradient id="f" cx="142.75" cy="172.87" r="16.25" gradientTransform="matrix(1 0 0 .49231 0 89.646)" gradientUnits="userSpaceOnUse"><stop stop-color="#fdfcbc" offset="0"/><stop stop-color="#fdfcbc" stop-opacity="0" offset="1"/></radialGradient><filter id="aa" x="-.10702" y="-.081841" width="1.214" height="1.1637" color-interpolation-filters="sRGB"><feGaussianBlur stdDeviation="1.4492839"/></filter><radialGradient id="e" cx="172.5" cy="101.34" r="8.5" gradientTransform="matrix(.35294 0 0 .54902 108.62 48.613)" gradientUnits="userSpaceOnUse"><stop stop-color="#b3b3b3" offset="0"/><stop offset="1"/></radialGradient><filter id="z" x="-.18307" y="-.15542" width="1.3661" height="1.3108" color-interpolation-filters="sRGB"><feGaussianBlur stdDeviation="0.85812722"/></filter><radialGradient id="d" cx="171.69" cy="140.91" r="8.5" gradientTransform="matrix(.087521 0 0 .071114 301 167.17)" gradientUnits="userSpaceOnUse"><stop stop-color="#fff" offset="0"/><stop stop-color="#fff" stop-opacity="0" offset="1"/></radialGradient><radialGradient id="j" cx="170.67" cy="112.96" r="17" gradientTransform="matrix(.99849 .054892 -.058824 1.07 8.4845 -320.42)" gradientUnits="userSpaceOnUse"><stop stop-color="#eeeeec" offset="0"/><stop stop-color="#eeeeec" stop-opacity="0" offset="1"/></radialGradient><filter id="w" x="-.12084" y="-.25083" width="1.2417" height="1.5017"><feGaussianBlur stdDeviation="1.7119408"/></filter><radialGradient id="o" cx="314.03" cy="185.22" r="6.9688" gradientTransform="matrix(1 0 0 .33632 0 122.93)" gradientUnits="userSpaceOnUse"><stop offset="0"/><stop stop-opacity="0" offset="1"/></radialGradient><radialGradient id="n" cx="314.97" cy="174.44" r="9.0312" gradientTransform="matrix(1.0104 0 0 1.2333 -3.2773 -40.211)" gradientUnits="userSpaceOnUse"><stop stop-color="#ffed50" offset="0"/><stop stop-color="#e16f00" offset=".83825"/><stop stop-color="#8e5502" offset="1"/></radialGradient><radialGradient id="m" cx="140.19" cy="286.6" r="81.986" gradientTransform="matrix(1.3652 -2.348e-8 0 .53696 -51.204 92.821)" gradientUnits="userSpaceOnUse"><stop stop-color="#fff" offset="0"/><stop stop-color="#fff" stop-opacity="0" offset="1"/></radialGradient><radialGradient id="l" cx="141.58" cy="30.179" r="90.828" gradientTransform="matrix(.13119 0 0 .057822 295.52 168.16)" gradientUnits="userSpaceOnUse"><stop stop-color="#fff" offset="0"/><stop stop-color="#fff" stop-opacity="0" offset="1"/></radialGradient></defs><g transform="translate(-20,272)"><g enable-background="new"><g transform="matrix(11.426 0 0 11.426 -3441.9 -2185.6)" enable-background="new"><g opacity=".63547"><ellipse transform="matrix(.68602 0 0 .68602 98.599 58.176)" cx="314.03" cy="185.22" rx="6.9688" ry="2.3438" enable-background="accumulate" filter="url(#q)"/><ellipse transform="matrix(1.24 0 0 1.24 -75.368 -44.496)" cx="314.03" cy="185.22" rx="6.9688" ry="2.3438" enable-background="accumulate" fill="url(#o)" filter="url(#v)"/></g><circle transform="matrix(1.0344 0 0 1.0344 -11.698 -6.1114)" cx="314.97" cy="177.84" r="8.5312" enable-background="accumulate" fill="url(#n)"/><circle transform="matrix(1.4 0 0 1.4 -126.24 -72.825)" cx="314.5" cy="175.38" r="2.1875" enable-background="accumulate" fill="#fcffcd" filter="url(#u)"/><circle transform="matrix(1.0344 0 0 1.0344 -11.698 -6.1114)" cx="314.97" cy="177.84" r="8.5312" clip-path="url(#b)" enable-background="accumulate" fill="none" filter="url(#t)" stroke="#000" stroke-linecap="round" stroke-linejoin="round" stroke-width=".042307"/><path transform="matrix(.094994 0 0 .087521 300.65 165.11)" d="m58.219 144.19c-1.5992 126.96 166.23 123.05 163.94 10.219-2.1677 94.357-161.55 97.864-163.91-10.219z" fill="url(#m)" fill-rule="evenodd" filter="url(#x)" opacity=".55172"/><path transform="matrix(.8945 0 0 .74568 33.137 43.141)" d="m314.09 169.63c-3.6633 0-6.6377 2.0382-6.6377 4.5485 0 0.45252 0.0987 0.88918 0.27858 1.3018 0.81756-1.8766 3.3559-3.2467 6.3592-3.2467 3.0033 0 5.5416 1.37 6.3592 3.2467 0.17987-0.41262 0.2763-0.84928 0.2763-1.3018 0-2.5103-2.9722-4.5485-6.6355-4.5485z" enable-background="accumulate" fill="url(#l)" filter="url(#r)"/><circle transform="matrix(.9958 0 0 .9958 .44883 .74749)" cx="314.97" cy="177.84" r="8.5312" clip-path="url(#b)" enable-background="accumulate" fill="none" filter="url(#p)" stroke="#fff" stroke-linecap="round" stroke-linejoin="round" stroke-width=".043945"/></g><rect x="20" y="-272" width="256" height="256" enable-background="accumulate" opacity="0" stroke-width="2"/></g><g transform="matrix(9.4345 -2.0967 2.0967 9.4345 -3184.8 -1175)" enable-background="new" fill-rule="evenodd"><path transform="matrix(.89396 0 0 1.9001 33.47 -162.01)" d="m311.04 180.93c-0.0728 0.0485 3.4685 0.52863 6.8887 0.0447l-6.8887-0.0447z" fill="url(#i)" filter="url(#s)" opacity=".76238"/><path d="m309.53 180.28c3.1224 0.65325 7.2579-1.1219 8.7838 0.49642-2.469-1.0522-3.963 1.2885-8.7838-0.49642z" fill="url(#g)"/><path d="m309.2 180.28c4.8266 2.3283 7.4652 0.75024 9.1044 0.45114-1.7575-0.90847-4.2023 1.2811-9.1044-0.45114z" fill="url(#c)" opacity=".5468"/></g><path d="m96.819-211.89c8.7038-8.8676 17.408-21.389 26.111-15.075-11.971-9.6772-19.407 1.0512-26.111 15.075z" enable-background="new" fill-rule="evenodd"/><g enable-background="new"><g transform="matrix(-1 0 0 1 293.93 -286.89)" enable-background="new"><ellipse transform="matrix(1 0 0 1.1765 3 -20.294)" cx="172.5" cy="115" rx="8.5" ry="17" enable-background="accumulate" fill="url(#k)" opacity=".84236"/><path transform="matrix(1.1333 0 0 1 -23.417 0)" d="m170 119.75s0.97644 13.116 5.25 13.25c4.2253 0.13228 6-12.75 6-12.75-3.0256 4.18-4.5212 17.54-11.25-0.5z" fill="url(#a)" fill-rule="evenodd" filter="url(#y)" opacity=".30542"/></g><path d="m127.18-159.64c-5.4317 13.276-11.723 13.956-17 0.74953 4.9366 9.825 10.402 12.354 17-0.74953z" enable-background="new" fill="url(#h)" fill-rule="evenodd"/></g><g transform="matrix(-11.363 -1.1938 -.96342 9.1704 3942.9 -1397.2)" enable-background="new"><g transform="translate(.52513 -1.1815)"><g transform="matrix(.087521 0 0 .087521 300.65 165.15)" enable-background="new"><path transform="translate(5.9999 -.49998)" d="m164.16 99.938c-1.9275 3.6675-3.1562 9.2801-3.1562 15.562 0 11.04 3.808 20 8.5 20 3.3413 0 8.7216-10.148 9.5338-21.81-5.3751-2.9316-9.9588-8.2856-14.878-13.753z" enable-background="accumulate" fill="url(#e)"/><path transform="matrix(1.1333 0 0 1 -23.417 0)" d="m170 119.75s0.97644 13.116 5.25 13.25c4.2253 0.13228 6-12.75 6-12.75-3.0256 4.18-4.5212 17.54-11.25-0.5z" fill="url(#a)" fill-rule="evenodd" filter="url(#z)" opacity=".30542"/></g><path d="m315.25 176.29c0.47539 1.162 1.026 1.2214 1.4879 0.0656-0.43206 0.8599-0.91039 1.0812-1.4879-0.0656z" fill="url(#d)" fill-rule="evenodd"/></g><path transform="matrix(.057899 0 0 -.087521 308.27 191.28)" d="m126.5 187s2.2108-41.347 15.5-41.5c13.731-0.15831 17 42.5 17 42.5-18.752-25.665-25.888-10.267-32.5-1z" fill="url(#f)" fill-rule="evenodd" filter="url(#aa)" opacity=".49754"/></g><path transform="matrix(1.7225 0 0 1.7225 -126.64 132.07)" d="m157.25-185c11.765-7.1851 22.886-11.796 34-16.375-9.3514 8.6062-19.083 16.608-34 16.375z" color="#000000" enable-background="new" fill="url(#j)" fill-rule="evenodd" filter="url(#w)" opacity=".49505"/></g></svg>
