<?xml version="1.0" encoding="UTF-8"?>
<svg enable-background="new" version="1.0" viewBox="0 0 256 256" xmlns="http://www.w3.org/2000/svg" xmlns:xlink="http://www.w3.org/1999/xlink"><defs><filter id="u" x="-.089088" y="-.26489" width="1.1782" height="1.5298" color-interpolation-filters="sRGB"><feGaussianBlur stdDeviation="0.51736111"/></filter><filter id="y" x="-.094329" y="-.28047" width="1.1887" height="1.5609" color-interpolation-filters="sRGB"><feGaussianBlur stdDeviation="0.54779412"/></filter><filter id="x" x="-.43765" y="-.43765" width="1.8753" height="1.8753" color-interpolation-filters="sRGB"><feGaussianBlur stdDeviation="0.79779412"/></filter><filter id="v" x="-.091874" y="-.20845" width="1.1837" height="1.4169" color-interpolation-filters="sRGB"><feGaussianBlur stdDeviation="0.50811126"/></filter><clipPath id="d"><circle cx="314.97" cy="177.84" r="8.5312" enable-background="accumulate" fill="none" stroke="#ce5c00" stroke-linecap="round" stroke-linejoin="round" stroke-width=".087521"/></clipPath><filter id="w" color-interpolation-filters="sRGB"><feGaussianBlur stdDeviation="0.0853125"/></filter><filter id="z" x="-.060222" y="-.10389" width="1.1204" height="1.2078" color-interpolation-filters="sRGB"><feGaussianBlur stdDeviation="4.1144816"/></filter><filter id="t" color-interpolation-filters="sRGB"><feGaussianBlur stdDeviation="0.170625"/></filter><linearGradient id="q"><stop stop-color="#fdfcbc" offset="0"/><stop stop-color="#fdfcbc" stop-opacity="0" offset="1"/></linearGradient><filter id="c" x="-.10702" y="-.081841" width="1.214" height="1.1637" color-interpolation-filters="sRGB"><feGaussianBlur stdDeviation="1.4492839"/></filter><radialGradient id="a" cx="142.75" cy="172.87" r="16.25" gradientTransform="matrix(1 0 0 .49231 0 89.646)" gradientUnits="userSpaceOnUse" xlink:href="#q"/><filter id="aa" x="-.18307" y="-.15542" width="1.3661" height="1.3108" color-interpolation-filters="sRGB"><feGaussianBlur stdDeviation="0.85812722"/></filter><linearGradient id="b"><stop stop-color="#fff" offset="0"/><stop stop-color="#fff" stop-opacity="0" offset="1"/></linearGradient><radialGradient id="h" cx="171.69" cy="140.91" r="8.5" gradientTransform="matrix(-1 0 0 .81254 690.69 326.81)" gradientUnits="userSpaceOnUse" xlink:href="#b"/><radialGradient id="g" cx="171.69" cy="140.91" r="8.5" gradientTransform="matrix(1 0 0 .81254 405.44 326.81)" gradientUnits="userSpaceOnUse" xlink:href="#b"/><radialGradient id="f" cx="313.95" cy="179.55" r="5.8438" gradientTransform="matrix(1.4351 1.1852e-6 -3.2937e-7 .3988 -136.6 107.76)" gradientUnits="userSpaceOnUse"><stop offset="0"/><stop stop-opacity="0" offset="1"/></radialGradient><radialGradient id="e" cx="314.86" cy="174.48" r="5.8438" gradientTransform="matrix(.69472 0 0 .17598 95.846 150.58)" gradientUnits="userSpaceOnUse"><stop stop-color="#fff" offset="0"/><stop stop-color="#fff" stop-opacity="0" offset="1"/></radialGradient><filter id="s" x="-.36008" y="-.36008" width="1.7202" height="1.7202" color-interpolation-filters="sRGB"><feGaussianBlur stdDeviation="10.577299"/></filter><radialGradient id="o" cx="314.03" cy="185.22" r="6.9688" gradientTransform="matrix(1 0 0 .33632 0 122.93)" gradientUnits="userSpaceOnUse"><stop offset="0"/><stop stop-opacity="0" offset="1"/></radialGradient><radialGradient id="n" cx="314.97" cy="174.44" r="9.0312" gradientTransform="matrix(1.0104 0 0 1.2333 -3.2773 -40.211)" gradientUnits="userSpaceOnUse"><stop stop-color="#ffed50" offset="0"/><stop stop-color="#e16f00" offset=".83825"/><stop stop-color="#8e5502" offset="1"/></radialGradient><radialGradient id="m" cx="140.19" cy="286.6" r="81.986" gradientTransform="matrix(1.3652 -2.348e-8 0 .53696 -51.204 92.821)" gradientUnits="userSpaceOnUse"><stop stop-color="#fff" offset="0"/><stop stop-color="#fff" stop-opacity="0" offset="1"/></radialGradient><radialGradient id="l" cx="141.58" cy="30.179" r="90.828" gradientTransform="matrix(.13119 0 0 .057822 295.52 168.16)" gradientUnits="userSpaceOnUse"><stop stop-color="#fff" offset="0"/><stop stop-color="#fff" stop-opacity="0" offset="1"/></radialGradient><radialGradient id="k" cx="511.44" cy="751.18" r="49.52" gradientTransform="matrix(2.0735 -.50676 .36284 1.3658 -826.9 16.689)" gradientUnits="userSpaceOnUse"><stop stop-color="#ef2929" stop-opacity="0" offset="0"/><stop stop-color="#ef2929" stop-opacity="0" offset=".2584"/><stop stop-color="#ef2929" offset=".6152"/><stop stop-color="#ef2929" stop-opacity="0" offset="1"/></radialGradient><radialGradient id="j" cx="172.5" cy="101.34" r="8.5" gradientTransform="matrix(.35294 0 0 .46667 111.62 58.146)" gradientUnits="userSpaceOnUse"><stop stop-color="#b3b3b3" offset="0"/><stop offset="1"/></radialGradient><radialGradient id="i" cx="175.62" cy="130.62" r="5.625" gradientTransform="matrix(2.4905 0 0 2.9335 -261.77 -251.8)" gradientUnits="userSpaceOnUse"><stop stop-color="#fcfbb6" offset="0"/><stop stop-color="#fcfbb6" stop-opacity="0" offset="1"/></radialGradient></defs><g transform="translate(-420,-328)"><g><g transform="matrix(11.426 0 0 11.426 -3041.9 -1585.6)" enable-background="new"><g opacity=".63547"><ellipse transform="matrix(.68602 0 0 .68602 98.599 58.176)" cx="314.03" cy="185.22" rx="6.9688" ry="2.3438" enable-background="accumulate" filter="url(#u)"/><ellipse transform="matrix(1.24 0 0 1.24 -75.368 -44.496)" cx="314.03" cy="185.22" rx="6.9688" ry="2.3438" enable-background="accumulate" fill="url(#o)" filter="url(#y)"/></g><circle transform="matrix(1.0344 0 0 1.0344 -11.698 -6.1114)" cx="314.97" cy="177.84" r="8.5312" enable-background="accumulate" fill="url(#n)"/><circle transform="matrix(1.4 0 0 1.4 -126.24 -72.825)" cx="314.5" cy="175.38" r="2.1875" enable-background="accumulate" fill="#fcffcd" filter="url(#x)"/><circle transform="matrix(1.0344 0 0 1.0344 -11.698 -6.1114)" cx="314.97" cy="177.84" r="8.5312" clip-path="url(#d)" enable-background="accumulate" fill="none" filter="url(#w)" stroke="#000" stroke-linecap="round" stroke-linejoin="round" stroke-width=".042307"/><path transform="matrix(.094994 0 0 .087521 300.65 165.11)" d="m58.219 144.19c-1.5992 126.96 166.23 123.05 163.94 10.219-2.1677 94.357-161.55 97.864-163.91-10.219z" fill="url(#m)" fill-rule="evenodd" filter="url(#z)" opacity=".55172"/><path transform="matrix(.8945 0 0 .74568 33.137 43.141)" d="m314.09 169.63c-3.6633 0-6.6377 2.0382-6.6377 4.5485 0 0.45252 0.0987 0.88918 0.27858 1.3018 0.81756-1.8766 3.3559-3.2467 6.3592-3.2467 3.0033 0 5.5416 1.37 6.3592 3.2467 0.17987-0.41262 0.2763-0.84928 0.2763-1.3018 0-2.5103-2.9722-4.5485-6.6355-4.5485z" enable-background="accumulate" fill="url(#l)" filter="url(#v)"/><circle transform="matrix(.9958 0 0 .9958 .44883 .74749)" cx="314.97" cy="177.84" r="8.5312" clip-path="url(#d)" enable-background="accumulate" fill="none" filter="url(#t)" stroke="#fff" stroke-linecap="round" stroke-linejoin="round" stroke-width=".043945"/></g><g transform="translate(0,24)"><use transform="matrix(-1,0,0,1,1096,0)" width="1600" height="1200" xlink:href="#p"/><circle id="p" transform="matrix(.90087 0 0 .93924 45.887 -251.86)" cx="500.75" cy="771.75" r="35.25" color="#000000" enable-background="new" fill="url(#k)" filter="url(#s)"/><path transform="matrix(.66154 0 0 -1 423.26 616.23)" d="m126.5 187s2.2108-41.347 15.5-41.5c13.731-0.15831 17 42.5 17 42.5-15.307-21.808-23.645-10.165-32.5-1z" fill="url(#a)" fill-rule="evenodd" filter="url(#c)" opacity=".49754"/><path transform="matrix(.66154 0 0 -1 483.26 616.23)" d="m126.5 187s2.2108-41.347 15.5-41.5c13.731-0.15831 17 42.5 17 42.5-18.752-25.665-25.888-10.267-32.5-1z" fill="url(#a)" fill-rule="evenodd" filter="url(#c)" opacity=".49754"/><g id="r" transform="translate(401.44 303.73)" enable-background="new"><path transform="matrix(1 0 0 1.1765 3 -20.294)" d="m181.35 104.18c0 9.3888-4.1591 27.819-8.8536 27.819s-8.5-7.6112-8.5-17c0-6.0039-2.0584-16.699 5.636-16.699 4.6944 0 11.718 5.8808 11.718 5.8808z" enable-background="accumulate" fill="url(#j)" opacity=".84236"/><path transform="matrix(1.1333 0 0 1 -23.417 0)" d="m170 119.75s0.97644 13.116 5.25 13.25c4.2253 0.13228 6-12.75 6-12.75-3.0256 4.18-4.5212 17.54-11.25-0.5z" fill="url(#i)" fill-rule="evenodd" filter="url(#aa)" opacity=".30542"/></g><path d="m495.44 390.73c8.7038-8.8676 17.408-21.389 26.111-15.075-11.971-9.677-19.407 1.0512-26.111 15.075z" enable-background="new" fill-rule="evenodd"/><path d="m598.56 394.73c-8.7038-8.8677-19.908-30.889-31.861-18.575 11.721-18.427 25.157 4.5512 31.861 18.575z" enable-background="new" fill-rule="evenodd"/><use transform="matrix(-1 0 0 1 1095.5 0)" width="400" height="300" xlink:href="#r"/><path d="m568.19 430.98c5.4317 13.276 11.723 13.956 17 0.74953-4.9366 9.825-10.402 12.354-17-0.74953z" fill="url(#g)" fill-rule="evenodd"/><path d="m527.94 430.98c-5.4317 13.276-11.723 13.956-17 0.74953 4.9366 9.825 10.402 12.354 17-0.74953z" fill="url(#h)" fill-rule="evenodd"/><g transform="matrix(4.0617 0 0 11.426 -727.75 -1570.5)" fill-rule="evenodd"><path d="m310.39 181.02c3.1543-0.18218 8.572-0.25537 8.4006 0.0875 0 0-2.563 0.16384-8.4006-0.0875z" fill="url(#f)"/><path d="m310.38 181.02c6.14 1.1911 8.5529-0.0427 8.4135 0.0619-0.38679 0.20155-7.7328-0.0381-8.4135-0.0619z" fill="url(#e)" opacity=".5468"/></g></g></g></g></svg>
