<?xml version="1.0" encoding="UTF-8"?>
<svg enable-background="new" version="1.0" viewBox="0 0 256 256" xmlns="http://www.w3.org/2000/svg" xmlns:xlink="http://www.w3.org/1999/xlink"><defs><filter id="bx" x="-.089088" y="-.26489" width="1.1782" height="1.5298" color-interpolation-filters="sRGB"><feGaussianBlur stdDeviation="0.51736111"/></filter><filter id="ce" x="-.094329" y="-.28047" width="1.1887" height="1.5609" color-interpolation-filters="sRGB"><feGaussianBlur stdDeviation="0.54779412"/></filter><filter id="cd" x="-.43765" y="-.43765" width="1.8753" height="1.8753" color-interpolation-filters="sRGB"><feGaussianBlur stdDeviation="0.79779412"/></filter><filter id="by" x="-.091874" y="-.20845" width="1.1837" height="1.4169" color-interpolation-filters="sRGB"><feGaussianBlur stdDeviation="0.50811126"/></filter><clipPath id="ab"><circle cx="314.97" cy="177.84" r="8.5312" enable-background="accumulate" fill="none" stroke="#ce5c00" stroke-linecap="round" stroke-linejoin="round" stroke-width=".087521"/></clipPath><filter id="cc" color-interpolation-filters="sRGB"><feGaussianBlur stdDeviation="0.0853125"/></filter><filter id="cf" x="-.060222" y="-.10389" width="1.1204" height="1.2078" color-interpolation-filters="sRGB"><feGaussianBlur stdDeviation="4.1144816"/></filter><filter id="bw" color-interpolation-filters="sRGB"><feGaussianBlur stdDeviation="0.170625"/></filter><filter id="cb" color-interpolation-filters="sRGB"><feGaussianBlur stdDeviation="0.039747512"/></filter><filter id="ca" x="-.11723" y="-.29708" width="1.2345" height="1.5942" color-interpolation-filters="sRGB"><feGaussianBlur stdDeviation="0.099215247"/></filter><filter id="bz" x="-.14538" y="-.19929" width="1.2908" height="1.3986" color-interpolation-filters="sRGB"><feGaussianBlur stdDeviation="0.13223598"/></filter><filter id="cg" color-interpolation-filters="sRGB"><feGaussianBlur stdDeviation="0.3313202"/></filter><filter id="ci" x="-.10702" y="-.081841" width="1.214" height="1.1637" color-interpolation-filters="sRGB"><feGaussianBlur stdDeviation="1.4492839"/></filter><filter id="ch" color-interpolation-filters="sRGB"><feGaussianBlur stdDeviation="1.1328502"/></filter><linearGradient id="au" x1="36.593" x2="35.032" y1="18.229" y2="13.809" gradientTransform="matrix(.2907 0 0 .2907 304.44 172.3)" gradientUnits="userSpaceOnUse"><stop stop-color="#d6e0f8" offset="0"/><stop stop-color="#d6e0f8" stop-opacity="0" offset="1"/></linearGradient><radialGradient id="w" cx="14.438" cy="24.438" r="1.1875" gradientUnits="userSpaceOnUse"><stop stop-color="#fff" offset="0"/><stop stop-color="#fff" stop-opacity="0" offset="1"/></radialGradient><linearGradient id="y" x1="314.99" x2="314.64" y1="177.45" y2="175.96" gradientUnits="userSpaceOnUse" xlink:href="#ax"/><linearGradient id="ax"><stop stop-color="#204a87" offset="0"/><stop stop-color="#204a87" stop-opacity="0" offset="1"/></linearGradient><filter id="aa" color-interpolation-filters="sRGB"><feGaussianBlur stdDeviation="0.052600617"/></filter><linearGradient id="bi" x1="40.417" x2="46.404" y1="1.9139" y2="9.2939" gradientTransform="scale(1.0327 .96838)" gradientUnits="userSpaceOnUse"><stop stop-color="#8db1d8" offset="0"/><stop stop-color="#3465a4" offset="1"/></linearGradient><linearGradient id="z" x1="32.875" x2="31.592" y1="13.156" y2="5.7135" gradientUnits="userSpaceOnUse" xlink:href="#b"/><linearGradient id="b"><stop stop-color="#729fcf" offset="0"/><stop stop-color="#fff" offset="1"/></linearGradient><linearGradient id="bs" x1="17.764" x2="16" y1="4.5018" y2="-1.7008" gradientTransform="matrix(1.8134 0 0 1.8095 186.58 87.738)" gradientUnits="userSpaceOnUse" xlink:href="#b"/><linearGradient id="br" x1="17.764" x2="16" y1="4.5018" y2="-1.7008" gradientTransform="translate(316.05 56.984)" gradientUnits="userSpaceOnUse" xlink:href="#b"/><radialGradient id="at" cx="142.75" cy="206.87" r="14.25" gradientTransform="matrix(1 0 0 1.3509 0 -69.211)" gradientUnits="userSpaceOnUse"><stop stop-color="#fff" offset="0"/><stop stop-color="#fff" stop-opacity="0" offset="1"/></radialGradient><radialGradient id="as" cx="142.75" cy="204.65" r="14.25" gradientTransform="matrix(2.6844 0 0 3.6263 -240.45 -534.89)" gradientUnits="userSpaceOnUse"><stop offset="0"/><stop stop-color="#e31e1e" offset="1"/></radialGradient><radialGradient id="ar" cx="142.75" cy="172.87" r="16.25" gradientTransform="matrix(1 0 0 1.3077 15.25 -61.481)" gradientUnits="userSpaceOnUse"><stop stop-color="#fdfcbc" offset="0"/><stop stop-color="#fdfcbc" stop-opacity="0" offset="1"/></radialGradient><radialGradient id="aq" cx="142.75" cy="207.52" r="14.75" gradientTransform="matrix(1 0 0 1.339 0 -66.864)" gradientUnits="userSpaceOnUse"><stop stop-color="#fff" offset="0"/><stop stop-color="#fff" stop-opacity="0" offset="1"/></radialGradient><radialGradient id="ap" cx="133.12" cy="161.57" r="23.625" gradientTransform="matrix(1.8783 -.010582 .0051866 .92062 -117.76 15.042)" gradientUnits="userSpaceOnUse"><stop stop-color="#4575aa" offset="0"/><stop stop-color="#4575aa" stop-opacity="0" offset="1"/></radialGradient><linearGradient id="bp" x1="23.309" x2="23.001" y1="22.582" y2="13.614" gradientTransform="matrix(.2907 0 0 .2907 307.92 171.95)" gradientUnits="userSpaceOnUse"><stop stop-color="#729fcf" offset="0"/><stop stop-color="#35689e" offset=".16566"/><stop stop-color="#729fcf" offset=".62931"/><stop stop-color="#729fcf" stop-opacity="0" offset="1"/></linearGradient><radialGradient id="ao" cx="179.5" cy="145.54" r="6.375" gradientTransform="matrix(.10726 0 0 .058366 298.03 169.26)" gradientUnits="userSpaceOnUse"><stop stop-color="#edd400" offset="0"/><stop stop-color="#edd400" stop-opacity="0" offset="1"/></radialGradient><clipPath id="cj"><path d="m314.16 174.85s-0.0294 2.0018-0.14145 2.5727c-0.38645 1.9692 3.1058 1.0253 0.97488-0.67164-0.57401-0.4571 0.45777-1.3258 0.45777-1.3258 0.16882 0.25322-1.2216-0.47087-1.2912-0.57522z" enable-background="new" fill="none" filter="url(#aa)" stroke="url(#y)" stroke-width=".25562"/></clipPath><radialGradient id="k" cx="142.75" cy="206.87" r="14.25" gradientTransform="matrix(1 0 0 1.3509 0 -69.211)" gradientUnits="userSpaceOnUse" xlink:href="#c"/><linearGradient id="c"><stop stop-color="#fff" offset="0"/><stop stop-color="#fff" stop-opacity="0" offset="1"/></linearGradient><filter id="p" color-interpolation-filters="sRGB"><feGaussianBlur stdDeviation="1.1328502"/></filter><radialGradient id="j" cx="142.75" cy="204.65" r="14.25" gradientTransform="matrix(2.6844 0 0 3.6263 -240.45 -534.89)" gradientUnits="userSpaceOnUse" xlink:href="#bu"/><linearGradient id="bu"><stop offset="0"/><stop stop-color="#e31e1e" offset="1"/></linearGradient><radialGradient id="i" cx="142.75" cy="172.87" r="16.25" gradientTransform="matrix(1 0 0 1.3077 15.25 -61.481)" gradientUnits="userSpaceOnUse" xlink:href="#bt"/><linearGradient id="bt"><stop stop-color="#fdfcbc" offset="0"/><stop stop-color="#fdfcbc" stop-opacity="0" offset="1"/></linearGradient><filter id="q" x="-.10702" y="-.081841" width="1.214" height="1.1637" color-interpolation-filters="sRGB"><feGaussianBlur stdDeviation="1.4492839"/></filter><radialGradient id="h" cx="142.75" cy="207.52" r="14.75" gradientTransform="matrix(1 0 0 1.339 0 -66.864)" gradientUnits="userSpaceOnUse" xlink:href="#c"/><filter id="o" color-interpolation-filters="sRGB"><feGaussianBlur stdDeviation="0.3313202"/></filter><linearGradient id="bq"><stop stop-color="#4575aa" offset="0"/><stop stop-color="#4575aa" stop-opacity="0" offset="1"/></linearGradient><linearGradient id="aw"><stop stop-color="#729fcf" offset="0"/><stop stop-color="#35689e" offset=".16566"/><stop stop-color="#729fcf" offset=".62931"/><stop stop-color="#729fcf" stop-opacity="0" offset="1"/></linearGradient><linearGradient id="bj"><stop stop-color="#d6e0f8" offset="0"/><stop stop-color="#d6e0f8" stop-opacity="0" offset="1"/></linearGradient><linearGradient id="av"><stop stop-color="#edd400" offset="0"/><stop stop-color="#edd400" stop-opacity="0" offset="1"/></linearGradient><radialGradient id="f" cx="316.68" cy="174.14" r="1.0168" gradientTransform="matrix(1.8512 0 0 1.0555 -269.54 -9.4164)" gradientUnits="userSpaceOnUse" xlink:href="#a"/><linearGradient id="a"><stop offset="0"/><stop stop-opacity="0" offset="1"/></linearGradient><radialGradient id="e" cx="316.67" cy="174.44" r="1.0156" gradientTransform="matrix(1 0 0 .47294 0 92.148)" gradientUnits="userSpaceOnUse" xlink:href="#c"/><filter id="n" color-interpolation-filters="sRGB"><feGaussianBlur stdDeviation="0.039747512"/></filter><radialGradient id="d" cx="316.67" cy="173.81" r="1.0156" gradientTransform="matrix(1.8402 0 0 .72613 -266.07 48.316)" gradientUnits="userSpaceOnUse" xlink:href="#a"/><filter id="m" x="-.11723" y="-.29708" width="1.2345" height="1.5942" color-interpolation-filters="sRGB"><feGaussianBlur stdDeviation="0.099215247"/></filter><filter id="l" x="-.14538" y="-.19929" width="1.2908" height="1.3986" color-interpolation-filters="sRGB"><feGaussianBlur stdDeviation="0.13223598"/></filter><radialGradient id="g" cx="316.65" cy="174.13" r="1.0915" gradientTransform="matrix(.99997 -.0082456 .0060153 .72949 -1.0367 49.655)" gradientUnits="userSpaceOnUse" xlink:href="#c"/><radialGradient id="t" cx="133.12" cy="161.57" r="23.625" gradientTransform="matrix(1.8783 -.010582 .0051866 .92062 -117.76 15.042)" gradientUnits="userSpaceOnUse" xlink:href="#bq"/><linearGradient id="v" x1="23.309" x2="23.001" y1="22.582" y2="13.614" gradientTransform="matrix(.50975 0 0 .50067 303.48 168.17)" gradientUnits="userSpaceOnUse" xlink:href="#aw"/><linearGradient id="u" x1="36.593" x2="35.448" y1="18.229" y2="10.573" gradientTransform="matrix(.39468 0 0 .39468 301.43 170.89)" gradientUnits="userSpaceOnUse" xlink:href="#bj"/><radialGradient id="s" cx="14.438" cy="24.438" r="1.1875" gradientUnits="userSpaceOnUse" xlink:href="#c"/><radialGradient id="r" cx="179.5" cy="145.54" r="6.375" gradientTransform="matrix(.31621 0 0 .19344 261.68 150.21)" gradientUnits="userSpaceOnUse" xlink:href="#av"/><linearGradient id="bn" x1="17.764" x2="16" y1="4.5018" y2="-1.7008" gradientTransform="translate(308,130)" gradientUnits="userSpaceOnUse" xlink:href="#b"/><linearGradient id="bm" x1="17.764" x2="16" y1="4.5018" y2="-1.7008" gradientTransform="translate(313,126)" gradientUnits="userSpaceOnUse" xlink:href="#b"/><radialGradient id="am" cx="315.53" cy="450.92" r="2.6016" gradientTransform="matrix(1.2022 .6461 -2.0686 3.8491 868.93 -1488.3)" gradientUnits="userSpaceOnUse"><stop stop-color="#1a3352" offset="0"/><stop stop-color="#3465a4" stop-opacity="0" offset="1"/></radialGradient><radialGradient id="al" cx="315.53" cy="450.92" r="2.6016" gradientTransform="matrix(5.0822 2.7313 -8.7445 16.271 2479.9 -8001.9)" gradientUnits="userSpaceOnUse"><stop stop-color="#1a3352" offset="0"/><stop stop-color="#3465a4" stop-opacity="0" offset="1"/></radialGradient><linearGradient id="bo" x1="23.309" x2="23.001" y1="22.582" y2="13.614" gradientTransform="matrix(-3.3981 0 0 3.9152 216.93 111.81)" gradientUnits="userSpaceOnUse"><stop stop-color="#729fcf" offset="0"/><stop stop-color="#35689e" offset=".16566"/><stop stop-color="#729fcf" offset=".62931"/><stop stop-color="#729fcf" stop-opacity="0" offset="1"/></linearGradient><radialGradient id="an" cx="179.5" cy="145.54" r="6.375" gradientTransform="matrix(-2.1079 0 0 1.5127 512.09 -24.521)" gradientUnits="userSpaceOnUse"><stop stop-color="#edd400" offset="0"/><stop stop-color="#edd400" stop-opacity="0" offset="1"/></radialGradient><radialGradient id="ak" cx="133.12" cy="161.57" r="23.625" gradientTransform="matrix(1.8471 -.0083917 .0051005 .73007 -110.21 46.809)" gradientUnits="userSpaceOnUse"><stop stop-color="#4575aa" offset="0"/><stop stop-color="#4575aa" stop-opacity="0" offset="1"/></radialGradient><linearGradient id="bl"><stop stop-color="#1a3352" offset="0"/><stop stop-color="#3465a4" stop-opacity="0" offset="1"/></linearGradient><radialGradient id="x" cx="315.53" cy="450.92" r="2.6016" gradientTransform="matrix(9.3551 4.9579 -16.096 29.536 4451.6 -14672)" gradientUnits="userSpaceOnUse" xlink:href="#bl"/><linearGradient id="bk" x1="18.42" x2="17.219" y1="6.0018" y2="1.1429" gradientTransform="translate(305,176)" gradientUnits="userSpaceOnUse" xlink:href="#b"/><linearGradient id="bh" x1="26.139" x2="24.087" y1="6.5018" y2="1.5496" gradientTransform="translate(304,183)" gradientUnits="userSpaceOnUse"><stop stop-color="#729fcf" offset="0"/><stop stop-color="#fff" offset="1"/></linearGradient><linearGradient id="bg" x1="311.38" x2="311.38" y1="182.81" y2="185.25" gradientUnits="userSpaceOnUse"><stop offset="0"/><stop stop-opacity="0" offset="1"/></linearGradient><linearGradient id="bf" x1="311.38" x2="311.38" y1="182.81" y2="185.25" gradientTransform="translate(5,-1)" gradientUnits="userSpaceOnUse"><stop offset="0"/><stop stop-opacity="0" offset="1"/></linearGradient><linearGradient id="be" x1="311.38" x2="311.38" y1="182.81" y2="185.25" gradientTransform="translate(1,39)" gradientUnits="userSpaceOnUse"><stop offset="0"/><stop stop-opacity="0" offset="1"/></linearGradient><linearGradient id="ba" x1="311.38" x2="311.38" y1="182.81" y2="185.25" gradientTransform="translate(-3,40)" gradientUnits="userSpaceOnUse"><stop offset="0"/><stop stop-opacity="0" offset="1"/></linearGradient><linearGradient id="ay" x1="18.42" x2="17.219" y1="6.0018" y2="1.1429" gradientTransform="translate(298,218)" gradientUnits="userSpaceOnUse"><stop stop-color="#729fcf" offset="0"/><stop stop-color="#fff" offset="1"/></linearGradient><linearGradient id="bd" x1="311.38" x2="311.38" y1="182.81" y2="185.25" gradientTransform="translate(398,-262)" gradientUnits="userSpaceOnUse" xlink:href="#a"/><linearGradient id="bb" x1="311.38" x2="311.38" y1="182.81" y2="185.25" gradientTransform="translate(401,-262)" gradientUnits="userSpaceOnUse" xlink:href="#a"/><linearGradient id="bc" x1="311.38" x2="311.38" y1="182.81" y2="185.25" gradientTransform="translate(400,-302)" gradientUnits="userSpaceOnUse" xlink:href="#a"/><linearGradient id="az" x1="311.38" x2="311.38" y1="182.81" y2="185.25" gradientTransform="translate(405,-302)" gradientUnits="userSpaceOnUse" xlink:href="#a"/><radialGradient id="aj" cx="314.03" cy="185.22" r="6.9688" gradientTransform="matrix(1 0 0 .33632 0 122.93)" gradientUnits="userSpaceOnUse"><stop offset="0"/><stop stop-opacity="0" offset="1"/></radialGradient><radialGradient id="ai" cx="314.97" cy="174.44" r="9.0312" gradientTransform="matrix(1.0104 0 0 1.2333 -3.2773 -40.211)" gradientUnits="userSpaceOnUse"><stop stop-color="#ffed50" offset="0"/><stop stop-color="#e16f00" offset=".83825"/><stop stop-color="#8e5502" offset="1"/></radialGradient><radialGradient id="ah" cx="140.19" cy="286.6" r="81.986" gradientTransform="matrix(1.3652 -2.348e-8 0 .53696 -51.204 92.821)" gradientUnits="userSpaceOnUse"><stop stop-color="#fff" offset="0"/><stop stop-color="#fff" stop-opacity="0" offset="1"/></radialGradient><radialGradient id="ag" cx="141.58" cy="30.179" r="90.828" gradientTransform="matrix(.13119 0 0 .057822 295.52 168.16)" gradientUnits="userSpaceOnUse"><stop stop-color="#fff" offset="0"/><stop stop-color="#fff" stop-opacity="0" offset="1"/></radialGradient><radialGradient id="af" cx="316.68" cy="174.14" r="1.0168" gradientTransform="matrix(1.8512 0 0 1.0555 -269.54 -9.4164)" gradientUnits="userSpaceOnUse"><stop offset="0"/><stop stop-opacity="0" offset="1"/></radialGradient><radialGradient id="ae" cx="316.67" cy="174.44" r="1.0156" gradientTransform="matrix(1 0 0 .47294 0 92.148)" gradientUnits="userSpaceOnUse"><stop stop-color="#fff" offset="0"/><stop stop-color="#fff" stop-opacity="0" offset="1"/></radialGradient><radialGradient id="ad" cx="316.67" cy="173.81" r="1.0156" gradientTransform="matrix(1.8402 0 0 .72613 -266.07 48.316)" gradientUnits="userSpaceOnUse"><stop offset="0"/><stop stop-opacity="0" offset="1"/></radialGradient><radialGradient id="ac" cx="316.65" cy="174.13" r="1.0915" gradientTransform="matrix(.99997 -.0082456 .0060153 .72949 -1.0367 49.655)" gradientUnits="userSpaceOnUse"><stop stop-color="#fff" offset="0"/><stop stop-color="#fff" stop-opacity="0" offset="1"/></radialGradient></defs><g transform="translate(-20,-28)"><g transform="translate(0,300)" enable-background="new"><g transform="matrix(11.426 0 0 11.426 -3441.9 -2185.6)" enable-background="new"><g opacity=".63547"><ellipse transform="matrix(.68602 0 0 .68602 98.599 58.176)" cx="314.03" cy="185.22" rx="6.9688" ry="2.3438" enable-background="accumulate" filter="url(#bx)"/><ellipse transform="matrix(1.24 0 0 1.24 -75.368 -44.496)" cx="314.03" cy="185.22" rx="6.9688" ry="2.3438" enable-background="accumulate" fill="url(#aj)" filter="url(#ce)"/></g><circle transform="matrix(1.0344 0 0 1.0344 -11.698 -6.1114)" cx="314.97" cy="177.84" r="8.5312" enable-background="accumulate" fill="url(#ai)"/><circle transform="matrix(1.4 0 0 1.4 -126.24 -72.825)" cx="314.5" cy="175.38" r="2.1875" enable-background="accumulate" fill="#fcffcd" filter="url(#cd)"/><circle transform="matrix(1.0344 0 0 1.0344 -11.698 -6.1114)" cx="314.97" cy="177.84" r="8.5312" clip-path="url(#ab)" enable-background="accumulate" fill="none" filter="url(#cc)" stroke="#000" stroke-linecap="round" stroke-linejoin="round" stroke-width=".042307"/><path transform="matrix(.094994 0 0 .087521 300.65 165.11)" d="m58.219 144.19c-1.5992 126.96 166.23 123.05 163.94 10.219-2.1677 94.357-161.55 97.864-163.91-10.219z" fill="url(#ah)" fill-rule="evenodd" filter="url(#cf)" opacity=".55172"/><path transform="matrix(.8945 0 0 .74568 33.137 43.141)" d="m314.09 169.63c-3.6633 0-6.6377 2.0382-6.6377 4.5485 0 0.45252 0.0987 0.88918 0.27858 1.3018 0.81756-1.8766 3.3559-3.2467 6.3592-3.2467 3.0033 0 5.5416 1.37 6.3592 3.2467 0.17987-0.41262 0.2763-0.84928 0.2763-1.3018 0-2.5103-2.9722-4.5485-6.6355-4.5485z" enable-background="accumulate" fill="url(#ag)" filter="url(#by)"/><circle transform="matrix(.9958 0 0 .9958 .44883 .74749)" cx="314.97" cy="177.84" r="8.5312" clip-path="url(#ab)" enable-background="accumulate" fill="none" filter="url(#bw)" stroke="#fff" stroke-linecap="round" stroke-linejoin="round" stroke-width=".043945"/></g><rect x="20" y="-272" width="256" height="256" enable-background="accumulate" opacity="0" stroke-width="2"/></g><path d="m216.5 88.643v3.619h3.6268l-3.6268 4.5238v2.7143h9.067v-3.619h-3.6268l3.6268-4.5238v-2.7143z" enable-background="new" fill="url(#bs)" stroke="#3465a4" stroke-linecap="round"/><g transform="matrix(1.8134 0 0 1.8095 170.26 60.595)" enable-background="new"><path d="m31 9 5 2e-6v1.0536l-3.2046 3.9464h3.2046l-5e-6 1h-5l5e-6 -1.0536 3.21-3.9464-3.21-2e-6z" fill="#729fcf" stroke="#3465a4" stroke-width="1.1041"/><path d="m31 9 5 2e-6v1.0536l-3.2046 3.9464h3.2046l-5e-6 1h-5l5e-6 -1.0536 3.21-3.9464-3.21-2e-6v-1" fill="url(#z)"/></g><g transform="matrix(1.8134 0 0 1.8095 164.81 60.595)" enable-background="new"><path d="m40 1 7-6.5e-7 6e-3 2.0714-4.006 3.9286h4l3e-6 2h-7l-2e-6 -2.0714 4-3.9286-3.994 7e-7z" fill="#729fcf" stroke="#3465a4" stroke-width="1.1041"/><path d="m40 1 7-6.5e-7 6e-3 2.0714-4.006 3.9286h4l3e-6 2h-7l-2e-6 -2.0714 4-3.9286-3.994 7e-7 -0.005989-2" fill="url(#bi)"/><g opacity=".5"><path d="m40.5 2.5v-1h6" fill="none" stroke="#fff" stroke-linecap="square" stroke-width=".55204px"/><path d="m43.062 7c-0.27614 0.025888-0.47901 0.27073-0.45312 0.54688s0.27073 0.47901 0.54688 0.45312h3.8438v-1h-3.8438c-0.03118-0.00294-0.06257-0.00294-0.09375 0z" fill="#fff" fill-rule="evenodd"/><path d="m44.094 3c-0.08581 0.03114-0.16146 0.085176-0.21875 0.15625l-3.7188 3.625-0.15625 0.15625v2.0625h1v-1.6562l3.5625-3.5c0.16175-0.15748 0.19794-0.4038 0.088303-0.60114-0.10963-0.19734-0.33789-0.29675-0.55705-0.24261z" fill="#fff" fill-rule="evenodd"/></g></g><g transform="matrix(.23655 0 0 .23655 282.29 39.61)" enable-background="new"><g transform="matrix(1.8555 0 0 2.0277 -143.69 -154.58)"><ellipse transform="matrix(1.8914 -.27357 .10053 .69503 -122.97 47.372)" cx="142.75" cy="197.25" rx="14.25" ry="19.25" enable-background="accumulate" fill="url(#k)" opacity=".84236"/><ellipse transform="matrix(1.7113 -.24752 .10053 .69503 -97.909 39.135)" cx="142.75" cy="197.25" rx="14.25" ry="19.25" enable-background="accumulate" fill="#924801" filter="url(#p)" opacity=".84236"/><ellipse transform="matrix(1.7113 -.24752 .10053 .69503 -97.506 41.915)" cx="142.75" cy="197.25" rx="14.25" ry="19.25" enable-background="accumulate" fill="url(#j)" opacity=".84236"/><path transform="matrix(1.7113 -.24752 .10053 .69503 -122.58 52.759)" d="m141.75 176.83s2.2108-41.347 15.5-41.5c13.731-0.15831 17 42.5 17 42.5-15.307-21.808-23.645-10.165-32.5-1z" enable-background="new" fill="url(#i)" fill-rule="evenodd" filter="url(#q)"/><ellipse transform="matrix(1.8914 -.27357 .10053 .69503 -122.97 47.372)" cx="142.75" cy="197.25" rx="14.25" ry="19.25" enable-background="accumulate" fill="none" filter="url(#o)" opacity=".84236" stroke="url(#h)" stroke-linecap="round" stroke-linejoin="round" stroke-width="1.9778"/></g><path d="m172.04 164.71c-7.8313 2.6197-3.1995 6.1796-5.8714 7.213-4.4707 1.7292-6.4645-1.6346-9.5738-3.0963-2.3652-1.1119-4.4937 1.4927-7.231 1.452-1.5196-0.0227-4.0782-1.6444-4.0782-1.6444l-3.3985 14.251 0.3253 2.7057-3.5431 2.7406s3.6422-14.53-3.7385-22.228c-2.7716-2.8908-5.938-2.6364-7.4334-4.4958-1.8327-2.2787-1.9234-7.7726-1.9234-7.7726 9.3066 11.467 29.876 12.655 46.466 10.875z" color="#000000" enable-background="new" fill="url(#ak)" fill-rule="evenodd" opacity=".57426"/><g transform="matrix(14.465 0 0 17.5 -4445.6 -2957.7)" enable-background="new" fill-rule="evenodd"><path d="m317.69 175.31c-0.17915-1.0392-1.5753-1.2131-2.0312-0.0313 0.0216-1.539 2.1115-1.4794 2.0312 0.0313z" fill="url(#f)"/><path d="m317.69 175.31c-0.21841-1.0589-1.5841-1.1886-2.0312-0.0313 0.45562-0.89822 1.7468-0.7135 2.0312 0.0313z" fill="url(#e)" filter="url(#n)"/><path d="m317.69 175.39c-0.50694-0.61172-1.2651-0.77873-2.0312-0.0313 0.45562-1.0712 1.7468-0.9918 2.0312 0.0313z" fill="url(#d)" filter="url(#m)" opacity=".133"/><path d="m317.69 175.15c0.47502-3.2732-2.7424-2.6922-2.0312-0.0313 0.0216-1.539 2.1115-1.4794 2.0312 0.0313z" fill="url(#g)" filter="url(#l)"/></g><g transform="matrix(14.465 0 0 17.5 -4394.9 -2961.9)" enable-background="new" fill-rule="evenodd"><path d="m317.69 175.31c-0.17915-1.0392-1.5753-1.2131-2.0312-0.0313 0.0216-1.539 2.1115-1.4794 2.0312 0.0313z" fill="url(#f)"/><path d="m317.69 175.31c-0.21841-1.0589-1.5841-1.1886-2.0312-0.0313 0.45562-0.89822 1.7468-0.7135 2.0312 0.0313z" fill="url(#e)" filter="url(#n)"/><path d="m317.69 175.39c-0.50694-0.61172-1.2651-0.77873-2.0312-0.0313 0.45562-1.0712 1.7468-0.9918 2.0312 0.0313z" fill="url(#d)" filter="url(#m)" opacity=".133"/><path d="m317.69 175.15c0.47502-3.2732-2.7424-2.6922-2.0312-0.0313 0.0216-1.539 2.1115-1.4794 2.0312 0.0313z" fill="url(#g)" filter="url(#l)"/></g><path d="m143.98 150.85s1.7587 33.585 1.046 40.708c-1.8043 18.171-33.878 6.1598-8.9685-16.694 6.7097-6.1562-7.1715-16.267-7.1715-16.267-1.9733 3.4104 14.28-6.3414 15.093-7.7469h4.4e-4z" enable-background="new" fill="url(#bo)"/><path d="m126.93 191.42c1.4632 3.0985 5.035 7.6113 9.1543 7.0993 4.1114-0.5111 8.9677-3.3629 8.594-10.462l0.077-15.218 12.262 0.145c5.02 0 4.6237-3.9632 4.6237-3.9632" color="#000000" enable-background="new" fill="none" stroke="url(#al)" stroke-width="4.2274"/><circle transform="matrix(-5.2143 0 0 5.2143 208.1 60.58)" cx="14.438" cy="24.438" r="1.1875" enable-background="new" fill="url(#w)"/><rect x="129.81" y="183.42" width="4.2274" height="4.2274" color="#000000" enable-background="new" fill="#fff"/><path d="m148.12 181.81c-0.38537 13.842-15.492 22.431-21.5 13.184 8.1372-1.9258 16.265-2.4701 21.5-13.184z" enable-background="new" fill="url(#an)" opacity=".52174"/></g><path d="m332.55 57.484v2h2l-2 2.5v1.5h5v-2h-2l2-2.5v-1.5z" enable-background="new" fill="url(#br)" stroke="#3465a4" stroke-linecap="round"/><g transform="translate(307.05 41.984)" enable-background="new"><path d="m31 9 5 2e-6v1.0536l-3.2046 3.9464h3.2046l-5e-6 1h-5l5e-6 -1.0536 3.21-3.9464-3.21-2e-6z" fill="#729fcf" stroke="#3465a4" stroke-width="2"/><path d="m31 9 5 2e-6v1.0536l-3.2046 3.9464h3.2046l-5e-6 1h-5l5e-6 -1.0536 3.21-3.9464-3.21-2e-6v-1" fill="url(#z)"/></g><g transform="matrix(1.8555 0 0 2.0277 -143.69 -154.58)"><ellipse transform="matrix(1.8914 -.27357 .10053 .69503 -122.97 47.372)" cx="142.75" cy="197.25" rx="14.25" ry="19.25" enable-background="accumulate" fill="url(#at)" opacity=".84236"/><ellipse transform="matrix(1.7113 -.24752 .10053 .69503 -97.909 39.135)" cx="142.75" cy="197.25" rx="14.25" ry="19.25" enable-background="accumulate" fill="#924801" filter="url(#ch)" opacity=".84236"/><ellipse transform="matrix(1.7113 -.24752 .10053 .69503 -97.506 41.915)" cx="142.75" cy="197.25" rx="14.25" ry="19.25" enable-background="accumulate" fill="url(#as)" opacity=".84236"/><path transform="matrix(1.7113 -.24752 .10053 .69503 -122.58 52.759)" d="m141.75 176.83s2.2108-41.347 15.5-41.5c13.731-0.15831 17 42.5 17 42.5-15.307-21.808-23.645-10.165-32.5-1z" enable-background="new" fill="url(#ar)" fill-rule="evenodd" filter="url(#ci)"/><ellipse transform="matrix(1.8914 -.27357 .10053 .69503 -122.97 47.372)" cx="142.75" cy="197.25" rx="14.25" ry="19.25" enable-background="accumulate" fill="none" filter="url(#cg)" opacity=".84236" stroke="url(#aq)" stroke-linecap="round" stroke-linejoin="round" stroke-width=".46786"/></g><g id="bv" transform="matrix(11.426 0 0 7.3463 -3491.6 -1189.1)" enable-background="new"><path d="m317.69 175.31c-0.2772-1.2353-1.6262-1.3148-2.0312-0.0313 0.0216-1.539 2.1115-1.4794 2.0312 0.0313z" fill="url(#af)" fill-rule="evenodd"/><path d="m317.69 175.31c-0.2772-1.2353-1.6262-1.3148-2.0312-0.0313 0.45562-1.0712 1.7468-0.9918 2.0312 0.0313z" fill="url(#ae)" fill-rule="evenodd" filter="url(#cb)"/><path d="m317.69 175.39c-0.50694-0.61172-1.2651-0.77873-2.0312-0.0313 0.45562-1.0712 1.7468-0.9918 2.0312 0.0313z" fill="url(#ad)" fill-rule="evenodd" filter="url(#ca)" opacity=".133"/><path d="m317.69 175.15c0.47502-3.2732-2.7424-2.6922-2.0312-0.0313 0.0216-1.539 2.1115-1.4794 2.0312 0.0313z" fill="url(#ac)" fill-rule="evenodd" filter="url(#bz)"/></g><use transform="translate(58.343 -5.8647)" width="400" height="300" enable-background="new" xlink:href="#bv"/><path d="m169.25 163.71c-7.9635 3.3034-3.2536 7.7924-5.9706 9.0956-4.5461 2.1805-6.5735-2.0613-9.7353-3.9044-2.405-1.402-4.5696 1.8824-7.3529 1.8309-1.5452-0.0286-4.1471-2.0735-4.1471-2.0735l-3.4559 17.971 0.33088 3.4118-3.6029 3.4559s3.7037-18.322-3.8015-28.029c-2.8184-3.6454-6.0382-3.3246-7.5588-5.6691-1.8637-2.8736-1.9559-9.8015-1.9559-9.8015 9.4636 14.46 30.38 15.958 47.25 13.713z" color="#000000" enable-background="new" fill="url(#ap)" fill-rule="evenodd" opacity=".57426"/><g transform="matrix(-7.224 0 0 8.4741 2428.1 -1310.1)" enable-background="new"><g transform="translate(2.4725 -.52513)"><path d="m314.16 174.85s-0.15046 2.4937-0.0895 3.0226c0.15435 1.3492 2.8982 0.45737 0.76724-1.2396-0.57401-0.4571 0.6135-1.2078 0.6135-1.2078 0.16882 0.25322-1.2216-0.47087-1.2912-0.57522z" enable-background="new" fill="url(#bp)"/><path d="m314.41 175.78s0.0958 1.3824 0.21 1.7087c0.0899 0.25695 0.21487 0.48136 0.60382 0.44967 0.32508-0.0265 0.27519-0.48836-0.14133-0.71948-0.68832-0.3819-0.67249-1.4132-0.67249-1.4389z" enable-background="new" fill="url(#au)" opacity=".52174"/><circle transform="matrix(.22642 0 0 .208 311.8 172.58)" cx="14.438" cy="24.438" r="1.1875" enable-background="new" fill="url(#w)"/><path d="m314.16 174.85s-0.0294 2.0018-0.14145 2.5727c-0.38645 1.9692 3.1058 1.0253 0.97488-0.67164-0.57401-0.4571 0.45777-1.3258 0.45777-1.3258 0.16882 0.25322-1.2216-0.47087-1.2912-0.57522z" clip-path="url(#cj)" enable-background="new" fill="none" filter="url(#aa)" stroke="url(#y)" stroke-width=".25562"/></g><path d="m316.55 177.22c0.0196 0.53408 0.78829 0.86551 1.094 0.50872-0.41405-0.0743-0.82763-0.0953-1.094-0.50872z" enable-background="new" fill="url(#ao)" opacity=".52174"/></g><g transform="matrix(.14903 0 0 .14903 295.11 120.22)" enable-background="new"><g transform="matrix(1.8555 0 0 2.0277 -143.69 -154.58)"><ellipse transform="matrix(1.8914 -.27357 .10053 .69503 -122.97 47.372)" cx="142.75" cy="197.25" rx="14.25" ry="19.25" enable-background="accumulate" fill="url(#k)" opacity=".84236"/><ellipse transform="matrix(1.7113 -.24752 .10053 .69503 -97.909 39.135)" cx="142.75" cy="197.25" rx="14.25" ry="19.25" enable-background="accumulate" fill="#924801" filter="url(#p)" opacity=".84236"/><ellipse transform="matrix(1.7113 -.24752 .10053 .69503 -97.506 41.915)" cx="142.75" cy="197.25" rx="14.25" ry="19.25" enable-background="accumulate" fill="url(#j)" opacity=".84236"/><path transform="matrix(1.7113 -.24752 .10053 .69503 -122.58 52.759)" d="m141.75 176.83s2.2108-41.347 15.5-41.5c13.731-0.15831 17 42.5 17 42.5-15.307-21.808-23.645-10.165-32.5-1z" enable-background="new" fill="url(#i)" fill-rule="evenodd" filter="url(#q)"/><ellipse transform="matrix(1.8914 -.27357 .10053 .69503 -122.97 47.372)" cx="142.75" cy="197.25" rx="14.25" ry="19.25" enable-background="accumulate" fill="none" filter="url(#o)" opacity=".84236" stroke="url(#h)" stroke-linecap="round" stroke-linejoin="round" stroke-width="3.1394"/></g><path d="m169.25 163.71c-7.9635 3.3034-3.2536 7.7924-5.9706 9.0956-4.5461 2.1805-6.5735-2.0613-9.7353-3.9044-2.405-1.402-4.5696 1.8824-7.3529 1.8309-1.5452-0.0286-4.1471-2.0735-4.1471-2.0735l-3.4559 17.971 0.33088 3.4118-3.6029 3.4559s3.7037-18.322-3.8015-28.029c-2.8184-3.6454-6.0382-3.3246-7.5588-5.6691-1.8637-2.8736-1.9559-9.8015-1.9559-9.8015 9.4636 14.46 30.38 15.958 47.25 13.713z" color="#000000" enable-background="new" fill="url(#t)" fill-rule="evenodd" opacity=".57426"/><g transform="matrix(-7.224 0 0 8.4741 2428.1 -1310.1)" enable-background="new"><g transform="translate(2.4725 -.52513)"><path d="m314.43 173.17s-0.26384 4.2949-0.15692 5.2057c0.27066 2.3237 5.082 0.7877 1.3454-2.1349-1.0065-0.78725 1.0758-2.0802 1.0758-2.0802 0.29602 0.43612-2.1422-0.81095-2.2642-0.99068h-7e-5z" enable-background="new" fill="url(#v)"/><path d="m315.17 175.57s0.03 1.9277 0.0183 2.3899c-0.0216 0.85627 0.82536 0.881 0.90188-0.0544 0.0765-0.93538-0.0164-1.7304-0.0893-2.2366-0.13586-0.94344-0.83092-0.064-0.83092-0.0989z" enable-background="new" fill="url(#u)" opacity=".52174"/><circle transform="matrix(.78219 0 0 .66681 304.81 161.62)" cx="14.438" cy="24.438" r="1.1875" enable-background="new" fill="url(#s)"/></g><path d="m316.28 176.6c0.0578 1.7701 2.3239 2.8685 3.2252 1.686-1.2206-0.24627-2.4399-0.31587-3.2252-1.686z" enable-background="new" fill="url(#r)" opacity=".52174"/></g><g transform="matrix(14.465 0 0 17.5 -4447.2 -2960.8)" enable-background="new" fill-rule="evenodd"><path d="m317.69 175.31c-0.17915-1.0392-1.5753-1.2131-2.0312-0.0313 0.0216-1.539 2.1115-1.4794 2.0312 0.0313z" fill="url(#f)"/><path d="m317.69 175.31c-0.21841-1.0589-1.5841-1.1886-2.0312-0.0313 0.45562-0.89822 1.7468-0.7135 2.0312 0.0313z" fill="url(#e)" filter="url(#n)"/><path d="m317.69 175.39c-0.50694-0.61172-1.2651-0.77873-2.0312-0.0313 0.45562-1.0712 1.7468-0.9918 2.0312 0.0313z" fill="url(#d)" filter="url(#m)" opacity=".133"/><path d="m317.69 175.15c0.47502-3.2732-2.7424-2.6922-2.0312-0.0313 0.0216-1.539 2.1115-1.4794 2.0312 0.0313z" fill="url(#g)" filter="url(#l)"/></g><g transform="matrix(14.465 0 0 17.5 -4393.5 -2967.6)" enable-background="new" fill-rule="evenodd"><path d="m317.69 175.31c-0.17915-1.0392-1.5753-1.2131-2.0312-0.0313 0.0216-1.539 2.1115-1.4794 2.0312 0.0313z" fill="url(#f)"/><path d="m317.69 175.31c-0.21841-1.0589-1.5841-1.1886-2.0312-0.0313 0.45562-0.89822 1.7468-0.7135 2.0312 0.0313z" fill="url(#e)" filter="url(#n)"/><path d="m317.69 175.39c-0.50694-0.61172-1.2651-0.77873-2.0312-0.0313 0.45562-1.0712 1.7468-0.9918 2.0312 0.0313z" fill="url(#d)" filter="url(#m)" opacity=".133"/><path d="m317.69 175.15c0.47502-3.2732-2.7424-2.6922-2.0312-0.0313 0.0216-1.539 2.1115-1.4794 2.0312 0.0313z" fill="url(#g)" filter="url(#l)"/></g></g><path d="m324.5 130.5v2h2l-2 2.5v1.5h5v-2h-2l2-2.5v-1.5z" enable-background="new" fill="url(#bn)" stroke="#3465a4" stroke-linecap="round"/><path d="m329.5 126.5v2h2l-2 2.5v1.5h5v-2h-2l2-2.5v-1.5z" enable-background="new" fill="url(#bm)" stroke="#3465a4" stroke-linecap="round"/><path transform="translate(0,-300)" d="m312.32 449.89c0.34613 0.73297 1.1911 1.8005 2.1655 1.6794 0.97257-0.12089 2.1213-0.79549 2.0329-2.4749l0.0183-3.5999 2.9005 0.0343c1.1875 0 1.0938-0.9375 1.0938-0.9375" color="#000000" enable-background="new" fill="none" stroke="url(#am)"/><rect x="313" y="148" width="1" height="1" color="#000000" enable-background="new" fill="#fff"/><g transform="matrix(.074366 0 0 .074366 303.16 177.64)" enable-background="new"><g transform="matrix(1.8555 0 0 2.0277 -143.69 -154.58)"><ellipse transform="matrix(1.8914 -.27357 .10053 .69503 -122.97 47.372)" cx="142.75" cy="197.25" rx="14.25" ry="19.25" enable-background="accumulate" fill="url(#k)" opacity=".84236"/><ellipse transform="matrix(1.7113 -.24752 .10053 .69503 -97.909 39.135)" cx="142.75" cy="197.25" rx="14.25" ry="19.25" enable-background="accumulate" fill="#924801" filter="url(#p)" opacity=".84236"/><ellipse transform="matrix(1.7113 -.24752 .10053 .69503 -97.506 41.915)" cx="142.75" cy="197.25" rx="14.25" ry="19.25" enable-background="accumulate" fill="url(#j)" opacity=".84236"/><path transform="matrix(1.7113 -.24752 .10053 .69503 -122.58 52.759)" d="m141.75 176.83s2.2108-41.347 15.5-41.5c13.731-0.15831 17 42.5 17 42.5-15.307-21.808-23.645-10.165-32.5-1z" enable-background="new" fill="url(#i)" fill-rule="evenodd" filter="url(#q)"/><ellipse transform="matrix(1.8914 -.27357 .10053 .69503 -122.97 47.372)" cx="142.75" cy="197.25" rx="14.25" ry="19.25" enable-background="accumulate" fill="none" filter="url(#o)" opacity=".84236" stroke="url(#h)" stroke-linecap="round" stroke-linejoin="round" stroke-width="6.2914"/></g><path d="m169.25 163.71c-7.9635 3.3034-3.2536 7.7924-5.9706 9.0956-4.5461 2.1805-6.5735-2.0613-9.7353-3.9044-2.405-1.402-4.5696 1.8824-7.3529 1.8309-1.5452-0.0286-4.1471-2.0735-4.1471-2.0735l-3.4559 17.971 0.33088 3.4118-3.6029 3.4559s3.7037-18.322-3.8015-28.029c-2.8184-3.6454-6.0382-3.3246-7.5588-5.6691-1.8637-2.8736-1.9559-9.8015-1.9559-9.8015 9.4636 14.46 30.38 15.958 47.25 13.713z" color="#000000" enable-background="new" fill="url(#t)" fill-rule="evenodd" opacity=".57426"/><g transform="matrix(-12.164 0 0 10.597 4006.6 -1676.6)" enable-background="new"><g transform="translate(2.4725 -.52513)"><path d="m314.43 173.17s-0.26384 4.2949-0.15692 5.2057c0.27066 2.3237 5.082 0.7877 1.3454-2.1349-1.0065-0.78725 1.0758-2.0802 1.0758-2.0802 0.29602 0.43612-2.1422-0.81095-2.2642-0.99068h-7e-5z" enable-background="new" fill="url(#v)"/><path d="m315.17 175.57s0.03 1.9277 0.0183 2.3899c-0.0216 0.85627 0.82536 0.881 0.90188-0.0544 0.0765-0.93538-0.0164-1.7304-0.0893-2.2366-0.13586-0.94344-0.83092-0.064-0.83092-0.0989z" enable-background="new" fill="url(#u)" opacity=".52174"/><circle transform="matrix(.78219 0 0 .66681 304.81 161.62)" cx="14.438" cy="24.438" r="1.1875" enable-background="new" fill="url(#s)"/></g><path d="m316.28 176.6c0.0578 1.7701 2.3239 2.8685 3.2252 1.686-1.2206-0.24627-2.4399-0.31587-3.2252-1.686z" enable-background="new" fill="url(#r)" opacity=".52174"/></g><path d="m120.28 200.93c2.6934 5.6246 9.2682 13.816 16.851 12.887 7.5681-0.92766 16.507-6.1043 15.819-18.991l0.14241-27.624 22.57 0.26318c9.2405 0 8.511-7.194 8.511-7.194" color="#000000" enable-background="new" fill="none" stroke="url(#x)" stroke-width="13.447"/></g><path d="m310.47 184.63c0.0216-1.539 2.1115-1.4794 2.0312 0.0313" enable-background="new" fill="none" stroke="url(#bg)" stroke-width="1px"/><g transform="matrix(.074366 0 0 .074366 299.53 217.39)" enable-background="new"><g transform="matrix(1.8555 0 0 2.0277 -143.69 -154.58)"><ellipse transform="matrix(1.8914 -.27357 .10053 .69503 -122.97 47.372)" cx="142.75" cy="197.25" rx="14.25" ry="19.25" enable-background="accumulate" fill="url(#k)" opacity=".84236"/><ellipse transform="matrix(1.7113 -.24752 .10053 .69503 -97.909 39.135)" cx="142.75" cy="197.25" rx="14.25" ry="19.25" enable-background="accumulate" fill="#924801" filter="url(#p)" opacity=".84236"/><ellipse transform="matrix(1.7113 -.24752 .10053 .69503 -97.506 41.915)" cx="142.75" cy="197.25" rx="14.25" ry="19.25" enable-background="accumulate" fill="url(#j)" opacity=".84236"/><path transform="matrix(1.7113 -.24752 .10053 .69503 -122.58 52.759)" d="m141.75 176.83s2.2108-41.347 15.5-41.5c13.731-0.15831 17 42.5 17 42.5-15.307-21.808-23.645-10.165-32.5-1z" enable-background="new" fill="url(#i)" fill-rule="evenodd" filter="url(#q)"/><ellipse transform="matrix(1.8914 -.27357 .10053 .69503 -122.97 47.372)" cx="142.75" cy="197.25" rx="14.25" ry="19.25" enable-background="accumulate" fill="none" filter="url(#o)" opacity=".84236" stroke="url(#h)" stroke-linecap="round" stroke-linejoin="round" stroke-width="6.2914"/></g><path d="m169.25 163.71c-7.9635 3.3034-3.2536 7.7924-5.9706 9.0956-4.5461 2.1805-6.5735-2.0613-9.7353-3.9044-2.405-1.402-4.5696 1.8824-7.3529 1.8309-1.5452-0.0286-4.1471-2.0735-4.1471-2.0735l-3.4559 17.971 0.33088 3.4118-3.6029 3.4559s3.7037-18.322-3.8015-28.029c-2.8184-3.6454-6.0382-3.3246-7.5588-5.6691-1.8637-2.8736-1.9559-9.8015-1.9559-9.8015 9.4636 14.46 30.38 15.958 47.25 13.713z" color="#000000" enable-background="new" fill="url(#t)" fill-rule="evenodd" opacity=".57426"/><g transform="matrix(-12.164 0 0 10.597 4006.6 -1676.6)" enable-background="new"><g transform="translate(2.4725 -.52513)"><path d="m314.43 173.17s-0.26384 4.2949-0.15692 5.2057c0.27066 2.3237 5.082 0.7877 1.3454-2.1349-1.0065-0.78725 1.0758-2.0802 1.0758-2.0802 0.29602 0.43612-2.1422-0.81095-2.2642-0.99068h-7e-5z" enable-background="new" fill="url(#v)"/><path d="m315.17 175.57s0.03 1.9277 0.0183 2.3899c-0.0216 0.85627 0.82536 0.881 0.90188-0.0544 0.0765-0.93538-0.0164-1.7304-0.0893-2.2366-0.13586-0.94344-0.83092-0.064-0.83092-0.0989z" enable-background="new" fill="url(#u)" opacity=".52174"/><circle transform="matrix(.78219 0 0 .66681 304.81 161.62)" cx="14.438" cy="24.438" r="1.1875" enable-background="new" fill="url(#s)"/></g><path d="m316.28 176.6c0.0578 1.7701 2.3239 2.8685 3.2252 1.686-1.2206-0.24627-2.4399-0.31587-3.2252-1.686z" enable-background="new" fill="url(#r)" opacity=".52174"/></g><path d="m120.28 200.93c2.6934 5.6246 9.2682 13.816 16.851 12.887 7.5681-0.92766 16.507-6.1043 15.819-18.991l0.14241-27.624 22.57 0.26318c9.2405 0 8.511-7.194 8.511-7.194" color="#000000" enable-background="new" fill="none" stroke="url(#x)" stroke-width="13.447"/></g><path d="m315.47 183.63c0.0216-1.539 2.1115-1.4794 2.0312 0.0313" enable-background="new" fill="none" stroke="url(#bf)" stroke-width="1px"/><path d="m321.5 177.5v2h1.1382l-1.1382 1.5v1.5h4v-2h-1.1105l1.1105-1.5v-1.5z" enable-background="new" fill="url(#bk)" stroke="#3465a4" stroke-linecap="round"/><g transform="translate(-9,-4)"><rect x="327.5" y="185.5" width="4" height="4" color="#000000" enable-background="new" fill="url(#bh)" stroke="#3465a4" stroke-linecap="round"/><rect x="328" y="187" width="1" height="1.0156" color="#000000" enable-background="new" fill="#3465a4"/><rect x="330" y="187" width="1" height="1.0156" color="#000000" enable-background="new" fill="#3465a4"/></g><path d="m311.47 223.63c0.0216-1.539 2.1115-1.4794 2.0312 0.0313" enable-background="new" fill="none" stroke="url(#be)" stroke-width="1px"/><path d="m307.47 224.63c0.0216-1.539 2.1115-1.4794 2.0312 0.0313" enable-background="new" fill="none" stroke="url(#ba)" stroke-width="1px"/><path d="m314.5 219.5v2h1.1382l-1.1382 1.5v1.5h4v-2h-1.1105l1.1105-1.5v-1.5z" enable-background="new" fill="url(#ay)" stroke="#3465a4" stroke-linecap="round"/><path d="m708.47-77.372c0.0216-1.539 2.1115-1.4794 2.0312 0.0313" enable-background="new" fill="none" stroke="url(#bd)" stroke-width="1px"/><path d="m711.47-77.372c0.0216-1.539 2.1115-1.4794 2.0312 0.0313" enable-background="new" fill="none" stroke="url(#bb)" stroke-width="1px"/><path d="m710.47-117.37c0.0216-1.539 2.1115-1.4794 2.0312 0.0313" enable-background="new" fill="none" stroke="url(#bc)" stroke-width="1px"/><path d="m715.47-117.37c0.0216-1.539 2.1115-1.4794 2.0312 0.0313" enable-background="new" fill="none" stroke="url(#az)" stroke-width="1px"/></g></svg>
