<?xml version="1.0" encoding="UTF-8"?>
<svg enable-background="new" version="1.0" viewBox="0 0 256 256" xmlns="http://www.w3.org/2000/svg" xmlns:xlink="http://www.w3.org/1999/xlink"><defs><filter id="ag" x="-.089088" y="-.26489" width="1.1782" height="1.5298" color-interpolation-filters="sRGB"><feGaussianBlur stdDeviation="0.51736111"/></filter><filter id="ak" x="-.094329" y="-.28047" width="1.1887" height="1.5609" color-interpolation-filters="sRGB"><feGaussianBlur stdDeviation="0.54779412"/></filter><filter id="aj" x="-.43765" y="-.43765" width="1.8753" height="1.8753" color-interpolation-filters="sRGB"><feGaussianBlur stdDeviation="0.79779412"/></filter><filter id="ah" x="-.091874" y="-.20845" width="1.1837" height="1.4169" color-interpolation-filters="sRGB"><feGaussianBlur stdDeviation="0.50811126"/></filter><clipPath id="n"><circle cx="314.97" cy="177.84" r="8.5312" enable-background="accumulate" fill="none" stroke="#ce5c00" stroke-linecap="round" stroke-linejoin="round" stroke-width=".087521"/></clipPath><filter id="ai" color-interpolation-filters="sRGB"><feGaussianBlur stdDeviation="0.0853125"/></filter><filter id="al" x="-.060222" y="-.10389" width="1.1204" height="1.2078" color-interpolation-filters="sRGB"><feGaussianBlur stdDeviation="4.1144816"/></filter><filter id="af" color-interpolation-filters="sRGB"><feGaussianBlur stdDeviation="0.170625"/></filter><radialGradient id="o" cx="1363" cy="151" r="91" gradientUnits="userSpaceOnUse"><stop stop-color="#4e9a06" offset="0"/><stop stop-color="#4e9a06" stop-opacity="0" offset="1"/></radialGradient><filter id="ae" x="-.10545" y="-.28827" width="1.2109" height="1.5765" color-interpolation-filters="sRGB"><feGaussianBlur stdDeviation="4.0310353"/></filter><radialGradient id="v" cx="199.82" cy="160.12" r="5.8438" gradientTransform="matrix(0 4.2212 24.572 0 -2545.7 -940.78)" gradientUnits="userSpaceOnUse"><stop offset="0"/><stop stop-opacity="0" offset="1"/></radialGradient><radialGradient id="u" cx="1325.3" cy="-45.929" r="45.874" gradientTransform="matrix(1.0963 -.54335 .16243 .32775 -118.47 655.59)" gradientUnits="userSpaceOnUse"><stop offset="0"/><stop stop-opacity="0" offset="1"/></radialGradient><radialGradient id="f" cx="142.75" cy="172.87" r="16.25" gradientTransform="matrix(1 0 0 .49231 0 89.646)" gradientUnits="userSpaceOnUse" xlink:href="#ad"/><linearGradient id="ad"><stop stop-color="#fdfcbc" offset="0"/><stop stop-color="#fdfcbc" stop-opacity="0" offset="1"/></linearGradient><filter id="m" x="-.10702" y="-.081841" width="1.214" height="1.1637" color-interpolation-filters="sRGB"><feGaussianBlur stdDeviation="1.4492839"/></filter><radialGradient id="e" cx="172.5" cy="101.34" r="8.5" gradientTransform="matrix(.35294 0 0 .54902 108.62 48.613)" gradientUnits="userSpaceOnUse" xlink:href="#y"/><linearGradient id="y"><stop stop-color="#b3b3b3" offset="0"/><stop offset="1"/></linearGradient><radialGradient id="d" cx="175.62" cy="130.62" r="5.625" gradientTransform="matrix(2.4905 0 0 2.9335 -261.77 -251.8)" gradientUnits="userSpaceOnUse" xlink:href="#z"/><linearGradient id="z"><stop stop-color="#fcfbb6" offset="0"/><stop stop-color="#fcfbb6" stop-opacity="0" offset="1"/></linearGradient><filter id="l" x="-.18307" y="-.15542" width="1.3661" height="1.3108" color-interpolation-filters="sRGB"><feGaussianBlur stdDeviation="0.85812722"/></filter><radialGradient id="c" cx="171.69" cy="140.91" r="8.5" gradientTransform="matrix(.087521 0 0 .071114 301 167.17)" gradientUnits="userSpaceOnUse" xlink:href="#aa"/><linearGradient id="aa"><stop stop-color="#fff" offset="0"/><stop stop-color="#fff" stop-opacity="0" offset="1"/></linearGradient><filter id="i" color-interpolation-filters="sRGB"><feGaussianBlur stdDeviation="0.27873744"/></filter><radialGradient id="b" cx="172.75" cy="113.19" r="7.625" gradientTransform="matrix(.087521 0 0 .15137 301.13 157.91)" gradientUnits="userSpaceOnUse" xlink:href="#g"/><linearGradient id="g"><stop stop-color="#fefcd6" offset="0"/><stop stop-color="#fefcd6" stop-opacity="0" offset="1"/></linearGradient><radialGradient id="a" cx="169.5" cy="110.73" r="7.625" gradientTransform="matrix(1.3958 .80589 -1.4397 2.4936 94.573 -308.27)" gradientUnits="userSpaceOnUse" xlink:href="#g"/><filter id="h" x="-.22608" y="-.1777" width="1.4522" height="1.3554" color-interpolation-filters="sRGB"><feGaussianBlur stdDeviation="1.9984637"/></filter><filter id="k" x="-.047937" y="-.13382" width="1.0959" height="1.2676" color-interpolation-filters="sRGB"><feGaussianBlur stdDeviation="0.87634607"/></filter><filter id="j" x="-.10187" y="-.28437" width="1.2037" height="1.5687" color-interpolation-filters="sRGB"><feGaussianBlur stdDeviation="1.8622354"/></filter><linearGradient id="ac" x1="18.826" x2="19.236" y1="-140.43" y2="-134.39" gradientUnits="userSpaceOnUse"><stop stop-color="#fff" offset="0"/><stop stop-color="#fff" stop-opacity="0" offset="1"/></linearGradient><radialGradient id="t" cx="18.729" cy="13.699" r="20.785" gradientTransform="matrix(1.0382 0 0 2.7299 .25915 -62.938)" gradientUnits="userSpaceOnUse"><stop stop-color="#fff" offset="0"/><stop stop-color="#fff" offset=".45783"/><stop stop-color="#d3d7cf" offset="1"/></radialGradient><linearGradient id="ab" x1="25.75" x2="28.906" y1="9.1562" y2="8.8442" gradientTransform="translate(0,-36.5)" gradientUnits="userSpaceOnUse"><stop offset="0"/><stop stop-opacity="0" offset="1"/></linearGradient><radialGradient id="x" cx="3.594" cy="-15.321" r="11.861" gradientTransform="matrix(1.3917 -.64441 .2192 .4734 1.9506 -9.4621)" gradientUnits="userSpaceOnUse"><stop offset="0"/><stop stop-opacity="0" offset="1"/></radialGradient><radialGradient id="w" cx="40.22" cy="-23.847" r="7.1602" gradientTransform="matrix(1.6489 .35583 -.058106 .26926 -27.483 -34.87)" gradientUnits="userSpaceOnUse"><stop offset="0"/><stop stop-opacity="0" offset="1"/></radialGradient><radialGradient id="s" cx="314.03" cy="185.22" r="6.9688" gradientTransform="matrix(1 0 0 .33632 0 122.93)" gradientUnits="userSpaceOnUse"><stop offset="0"/><stop stop-opacity="0" offset="1"/></radialGradient><radialGradient id="r" cx="314.97" cy="174.44" r="9.0312" gradientTransform="matrix(1.0104 0 0 1.2333 -3.2773 -40.211)" gradientUnits="userSpaceOnUse"><stop stop-color="#ffed50" offset="0"/><stop stop-color="#e16f00" offset=".83825"/><stop stop-color="#8e5502" offset="1"/></radialGradient><radialGradient id="q" cx="140.19" cy="286.6" r="81.986" gradientTransform="matrix(1.3652 -2.348e-8 0 .53696 -51.204 92.821)" gradientUnits="userSpaceOnUse"><stop stop-color="#fff" offset="0"/><stop stop-color="#fff" stop-opacity="0" offset="1"/></radialGradient><radialGradient id="p" cx="141.58" cy="30.179" r="90.828" gradientTransform="matrix(.13119 0 0 .057822 295.52 168.16)" gradientUnits="userSpaceOnUse"><stop stop-color="#fff" offset="0"/><stop stop-color="#fff" stop-opacity="0" offset="1"/></radialGradient></defs><g transform="translate(-1220,272)"><g transform="matrix(11.426 0 0 11.426 -2241.9 -2185.6)" enable-background="new"><g opacity=".63547"><ellipse transform="matrix(.68602 0 0 .68602 98.599 58.176)" cx="314.03" cy="185.22" rx="6.9688" ry="2.3438" enable-background="accumulate" filter="url(#ag)"/><ellipse transform="matrix(1.24 0 0 1.24 -75.368 -44.496)" cx="314.03" cy="185.22" rx="6.9688" ry="2.3438" enable-background="accumulate" fill="url(#s)" filter="url(#ak)"/></g><circle transform="matrix(1.0344 0 0 1.0344 -11.698 -6.1114)" cx="314.97" cy="177.84" r="8.5312" enable-background="accumulate" fill="url(#r)"/><circle transform="matrix(1.4 0 0 1.4 -126.24 -72.825)" cx="314.5" cy="175.38" r="2.1875" enable-background="accumulate" fill="#fcffcd" filter="url(#aj)"/><circle transform="matrix(1.0344 0 0 1.0344 -11.698 -6.1114)" cx="314.97" cy="177.84" r="8.5312" clip-path="url(#n)" enable-background="accumulate" fill="none" filter="url(#ai)" stroke="#000" stroke-linecap="round" stroke-linejoin="round" stroke-width=".042307"/><path transform="matrix(.094994 0 0 .087521 300.65 165.11)" d="m58.219 144.19c-1.5992 126.96 166.23 123.05 163.94 10.219-2.1677 94.357-161.55 97.864-163.91-10.219z" fill="url(#q)" fill-rule="evenodd" filter="url(#al)" opacity=".55172"/><path transform="matrix(.8945 0 0 .74568 33.137 43.141)" d="m314.09 169.63c-3.6633 0-6.6377 2.0382-6.6377 4.5485 0 0.45252 0.0987 0.88918 0.27858 1.3018 0.81756-1.8766 3.3559-3.2467 6.3592-3.2467 3.0033 0 5.5416 1.37 6.3592 3.2467 0.17987-0.41262 0.2763-0.84928 0.2763-1.3018 0-2.5103-2.9722-4.5485-6.6355-4.5485z" enable-background="accumulate" fill="url(#p)" filter="url(#ah)"/><circle transform="matrix(.9958 0 0 .9958 .44883 .74749)" cx="314.97" cy="177.84" r="8.5312" clip-path="url(#n)" enable-background="accumulate" fill="none" filter="url(#af)" stroke="#fff" stroke-linecap="round" stroke-linejoin="round" stroke-width=".043945"/></g><circle transform="matrix(1.0879 0 0 1.0879 -132.82 -319.27)" cx="1363" cy="151" r="91" color="#000000" enable-background="accumulate" fill="url(#o)" opacity=".73134"/><g transform="matrix(1 0 0 .7732 -12 -33.743)" enable-background="new" fill-rule="evenodd"><path d="m1414.6-97.294-10.96 3.1018c-18.737 5.3028-39.843-13.013-60.458-16.263-16.318-2.5727-49.498-2.4749-49.498-2.4749s33.036 1.5415 49.144 4.9497c21.476 4.5441 43.428 25.126 61.518 15.91z" color="#000000" enable-background="accumulate" fill="url(#v)" opacity=".59701"/><path d="m1414.4-96.379-10.253 5.4577c-18.018 9.5908-40.904-13.102-61.518-16.352-16.318-2.5727-48.967-5.6568-48.967-5.6568s33.036 1.5415 49.144 4.9497c21.476 4.5441 43.058 23.804 61.518 15.91z" color="#000000" enable-background="accumulate" fill="#eeeeec" opacity=".27612"/><path transform="matrix(-1 0 0 1 2689.7 2.5867)" d="m1289.8-87.779 16.44 9.2313c16.943 9.5134 35.326-13.749 54.978-20.771 13.136-4.694 29.522-6.7175 29.522-6.7175s-9.8787-0.0495-25.986 3.3588c-21.476 4.5441-42.398 17.349-61.518 15.91z" color="#000000" enable-background="accumulate" fill="url(#u)" filter="url(#ae)" opacity=".27612"/></g><g transform="matrix(9.8408 -5.8058 4.6854 7.9417 -2547.9 283.71)" enable-background="new"><path transform="matrix(.057899 0 0 -.087521 308.27 191.28)" d="m126.5 187s2.2108-41.347 15.5-41.5c13.731-0.15831 17 42.5 17 42.5-18.752-25.665-25.888-10.267-32.5-1z" fill="url(#f)" fill-rule="evenodd" filter="url(#m)" opacity=".49754"/><g transform="translate(.52513 -1.1815)"><g transform="matrix(.087521 0 0 .087521 300.65 165.15)" enable-background="new"><path transform="translate(5.9999 -.49998)" d="m164.16 99.938c-1.9275 3.6675-3.1562 9.2801-3.1562 15.562 0 11.04 3.808 20 8.5 20 3.3413 0 6.2362-4.5533 7.625-11.156-2.8705-3.6595-5.664-7.9556-8.125-12.781-2.0145-3.9502-3.6196-7.876-4.8438-11.625z" enable-background="accumulate" fill="url(#e)"/><path transform="matrix(1.1333 0 0 1 -23.417 0)" d="m170 119.75s0.97644 13.116 5.25 13.25c4.2253 0.13228 6-12.75 6-12.75-3.0256 4.18-4.5212 17.54-11.25-0.5z" fill="url(#d)" fill-rule="evenodd" filter="url(#l)" opacity=".30542"/></g><path d="m315.25 176.29c0.47539 1.162 1.026 1.2214 1.4879 0.0656-0.43206 0.8599-0.91039 1.0812-1.4879-0.0656z" fill="url(#c)" fill-rule="evenodd"/><path transform="matrix(.087521 0 0 .087521 301.05 165.13)" d="m166 99.75 15.75 27.25c-6.8004-5.7239-12.181-16.832-15.75-27.25z" fill="#b76609" fill-rule="evenodd" filter="url(#i)"/><path d="m315.58 173.88 1.3347 2.3084c-0.2824-0.87122-0.75657-1.6105-1.3347-2.3084z" fill="url(#b)" fill-rule="evenodd"/><path transform="matrix(.087521 0 0 .087521 301.13 165.13)" d="m165.12 100 15.25 26.375c11.924-21.662 5.5312-29.355-15.25-26.375z" fill="url(#a)" fill-rule="evenodd" filter="url(#h)" opacity=".27179"/><path d="m315.54 173.88c0.41622 0.97671 0.88617 1.7654 1.4055 2.3811-0.57584-0.4971-1.1202-1.5235-1.4055-2.3811z" fill="#754004" fill-rule="evenodd"/></g></g><g transform="matrix(-9.8408 -5.8058 -4.6854 7.9417 5249.9 283.71)" enable-background="new"><path transform="matrix(.055926 .018569 .018281 -.084539 305.07 187.92)" d="m126.5 187s2.2108-41.347 15.5-41.5c13.731-0.15831 17 42.5 17 42.5-18.752-25.665-25.888-10.267-32.5-1z" fill="url(#f)" fill-rule="evenodd" filter="url(#m)" opacity=".49754"/><g transform="translate(.52513 -1.1815)"><g transform="matrix(.087521 0 0 .087521 300.65 165.15)" enable-background="new"><path transform="translate(5.9999 -.49998)" d="m164.16 99.938c-1.9275 3.6675-3.1562 9.2801-3.1562 15.562 0 11.04 3.808 20 8.5 20 3.3413 0 6.2362-4.5533 7.625-11.156-2.8705-3.6595-5.664-7.9556-8.125-12.781-2.0145-3.9502-3.6196-7.876-4.8438-11.625z" enable-background="accumulate" fill="url(#e)"/><path transform="matrix(1.1333 0 0 1 -23.417 0)" d="m170 119.75s0.97644 13.116 5.25 13.25c4.2253 0.13228 6-12.75 6-12.75-3.0256 4.18-4.5212 17.54-11.25-0.5z" fill="url(#d)" fill-rule="evenodd" filter="url(#l)" opacity=".30542"/></g><path d="m315.25 176.29c0.47539 1.162 1.026 1.2214 1.4879 0.0656-0.43206 0.8599-0.91039 1.0812-1.4879-0.0656z" fill="url(#c)" fill-rule="evenodd"/><path transform="matrix(.087521 0 0 .087521 301.05 165.13)" d="m166 99.75 15.75 27.25c-6.8004-5.7239-12.181-16.832-15.75-27.25z" fill="#b76609" fill-rule="evenodd" filter="url(#i)"/><path d="m315.58 173.88 1.3347 2.3084c-0.2824-0.87122-0.75657-1.6105-1.3347-2.3084z" fill="url(#b)" fill-rule="evenodd"/><path transform="matrix(.087521 0 0 .087521 301.13 165.13)" d="m165.12 100 15.25 26.375c11.924-21.662 5.5312-29.355-15.25-26.375z" fill="url(#a)" fill-rule="evenodd" filter="url(#h)" opacity=".27179"/><path d="m315.54 173.88c0.41622 0.97671 0.88617 1.7654 1.4055 2.3811-0.57584-0.4971-1.1202-1.5235-1.4055-2.3811z" fill="#754004" fill-rule="evenodd"/></g></g><path transform="translate(0,-300)" d="m1297.5 144c13.66 21.426 24.404 10.778 35.5 4-12.868 5.3923-25.272 7.7674-35.5-4z" color="#000000" enable-background="accumulate" fill="#c87903" fill-rule="evenodd" opacity=".20896"/><path d="m1293.3-148c16.882 26.48 30.161 13.32 43.875 4.9436-15.904 6.6644-31.234 9.5998-43.875-4.9436z" color="#000000" enable-background="accumulate" fill="#c87903" fill-rule="evenodd" filter="url(#j)" opacity=".20896"/><path d="m1409.5-158.5c-13.66 21.426-24.404 10.778-35.5 4 10.975 7.9165 23.167 10.573 35.5-4z" color="#000000" enable-background="accumulate" fill="#c87903" fill-rule="evenodd" opacity=".22388"/><path d="m1415.7-152c-16.882 26.48-30.161 13.32-43.875 4.9436 15.904 9.3137 31.234 12.284 43.875-4.9436z" color="#000000" enable-background="accumulate" fill="#c87903" fill-rule="evenodd" filter="url(#k)" opacity=".22388"/><path d="m1293.3-148c16.882 9.0274 30.161 6.4656 43.875 4.9436-15.904 6.6644-31.234 9.5998-43.875-4.9436z" color="#000000" enable-background="accumulate" fill="#fdc878" fill-rule="evenodd" filter="url(#j)" opacity=".20896"/><path d="m1415.7-152c-20.678 13.197-31.417 8.9245-43.875 4.9436 15.904 9.3137 31.234 12.284 43.875-4.9436z" color="#000000" enable-background="accumulate" fill="#fedeaf" fill-rule="evenodd" filter="url(#k)" opacity=".22388"/><g transform="matrix(4.6874 .53698 -.53698 4.6874 1224.8 -112.61)" enable-background="new"><ellipse transform="matrix(2.2078 -.59159 .4553 1.6992 40.743 221.87)" cx="19.562" cy="-135.97" rx="6.125" ry="5.9688" fill="url(#ac)" fill-rule="evenodd"/><path d="m28.781-30.875c-7.2172-0.008807-14.449 1.6095-21.531 5.5938-2.3504 3.3355-3.75 7.3936-3.75 11.781 0 0.932 0.066844 1.8509 0.1875 2.75 10.723-12.636 24.435-12.547 38.719-11.719-0.74165-1.5186-1.6413-2.9388-2.7188-4.2188-0.07252-0.0245-0.1493-0.04984-0.21875-0.0625-0.01927-0.08856-0.04154-0.16621-0.0625-0.25-1.1275-1.2853-2.3994-2.4355-3.8125-3.4062-2.2621-0.29537-4.5414-0.46598-6.8125-0.46875z" opacity=".057915" stroke="#000" stroke-linecap="round" stroke-linejoin="round" stroke-width=".21195"/><path d="m36.312-31.312c-10-1.431-20.152-0.29081-29.991 5.551-2.3645 2.105-3.4562 4.6484-2.7001 6.3246-1.6662 1.348-1.327 5.2638-0.61075 8.479 10.966-13.629 25.183-13.35 39.978-12.475-0.10182-1.4038-2.1513-4.0793-3.5297-4.3306-0.50344-2.3138-1.5867-2.969-3.1462-3.5493z" fill="url(#t)" stroke="#d3d7cf" stroke-linecap="round" stroke-linejoin="round" stroke-width=".21195"/><path d="m2.5236-16.89c5.2779-5.4023 12.906-10.735 23.722-12.376-9.3981 0.88302-18.398 5.8834-22.503 9.7423-0.71564 0.80117-1.1137 1.4332-1.2193 2.6333z" fill="url(#x)" fill-rule="evenodd" opacity=".10425"/><path d="m41.085-26.429c-5.4989-1.8668-7.7027-2.1505-14.32-1.7586 5.9068-0.97314 8.0346-0.49152 12.493 0.31805 0.89242 0.40342 1.5556 0.72605 1.8271 1.4405z" fill="url(#w)" fill-rule="evenodd" opacity=".10425"/><path d="m24.969-31.188c2.2832 1.7692 1.635 4.9527 2.0938 7.1875 4.4395-0.49757 10.646-0.23062 15.219 0.03125-0.18954-0.51943-0.4922-1.155-0.96875-1.75-0.65725-0.82063-1.5142-1.4541-1.9375-1.5312-0.20664-0.03792-0.36833-0.19961-0.40625-0.40625-0.2377-1.0925-0.5787-1.7057-1.0312-2.1562-0.42684-0.42497-0.9923-0.7338-1.6875-1-0.02042-0.0029-0.04208 0.0029-0.0625 0-3.4612-0.38539-7.3627-0.74551-11.219-0.375z" fill="url(#ab)" opacity=".069498"/></g></g></svg>
