<?xml version="1.0" encoding="UTF-8"?>
<svg enable-background="new" version="1.0" viewBox="0 0 256 256" xmlns="http://www.w3.org/2000/svg" xmlns:xlink="http://www.w3.org/1999/xlink"><defs><clipPath id="at"><path d="m165.19 180.34c40.344 72.675 97.558 40.645 84.195-3.388-11.604-38.238-26.38-93.922 2.1044-99.504l-0.72661-1.0175c-33.568 10.025-9.1596 81.726-5.1266 97.735 10.693 42.444-40.788 57.745-74.241-0.37087z" enable-background="accumulate" fill="#4e0505"/></clipPath><filter id="as" color-interpolation-filters="sRGB"><feGaussianBlur stdDeviation="1.6715111"/></filter><filter id="aj" x="-.089088" y="-.26489" width="1.1782" height="1.5298" color-interpolation-filters="sRGB"><feGaussianBlur stdDeviation="0.51736111"/></filter><radialGradient id="l" cx="314.03" cy="185.22" r="6.9688" gradientTransform="matrix(1 0 0 .33632 0 122.93)" gradientUnits="userSpaceOnUse"><stop offset="0"/><stop stop-opacity="0" offset="1"/></radialGradient><filter id="an" x="-.094329" y="-.28047" width="1.1887" height="1.5609" color-interpolation-filters="sRGB"><feGaussianBlur stdDeviation="0.54779412"/></filter><radialGradient id="n" cx="314.97" cy="174.44" r="9.0312" gradientTransform="matrix(1.0104 0 0 1.2333 -3.2773 -40.211)" gradientUnits="userSpaceOnUse"><stop stop-color="#ef8f29" offset="0"/><stop stop-color="#ac0000" offset=".7"/><stop stop-color="#720606" offset="1"/></radialGradient><radialGradient id="u" cx="141.58" cy="30.179" r="90.828" gradientTransform="matrix(.21201 0 0 .093444 284.08 167.08)" gradientUnits="userSpaceOnUse"><stop stop-color="#fade82" offset="0"/><stop stop-color="#f61000" stop-opacity="0" offset="1"/></radialGradient><filter id="aq" x="-.11342" y="-.25732" width="1.2268" height="1.5146" color-interpolation-filters="sRGB"><feGaussianBlur stdDeviation="0.62724953"/></filter><clipPath id="au"><circle transform="matrix(.062515 0 0 .062515 306.61 170.67)" cx="126" cy="134" r="97" enable-background="accumulate" fill="#edd400"/></clipPath><filter id="am" x="-.43765" y="-.43765" width="1.8753" height="1.8753" color-interpolation-filters="sRGB"><feGaussianBlur stdDeviation="0.79779412"/></filter><clipPath id="i"><circle cx="314.97" cy="177.84" r="8.5312" enable-background="accumulate" fill="none" stroke="#ce5c00" stroke-linecap="round" stroke-linejoin="round" stroke-width=".087521"/></clipPath><filter id="al" color-interpolation-filters="sRGB"><feGaussianBlur stdDeviation="0.0853125"/></filter><radialGradient id="r" cx="140.19" cy="286.6" r="81.986" gradientTransform="matrix(1.3652 -2.348e-8 0 .53696 -51.204 92.821)" gradientUnits="userSpaceOnUse"><stop stop-color="#ffef14" offset="0"/><stop stop-color="#cab926" stop-opacity=".38119" offset="1"/></radialGradient><filter id="ao" x="-.060222" y="-.10389" width="1.1204" height="1.2078" color-interpolation-filters="sRGB"><feGaussianBlur stdDeviation="4.1144816"/></filter><filter id="ai" color-interpolation-filters="sRGB"><feGaussianBlur stdDeviation="0.170625"/></filter><filter id="ap" x="-.18307" y="-.15542" width="1.3661" height="1.3108" color-interpolation-filters="sRGB"><feGaussianBlur stdDeviation="0.85812722"/></filter><radialGradient id="t" cx="171.69" cy="140.91" r="8.5" gradientTransform="matrix(.087521 0 0 .071114 301.7 165.25)" gradientUnits="userSpaceOnUse" xlink:href="#a"/><linearGradient id="a"><stop stop-color="#fff" offset="0"/><stop stop-color="#fff" stop-opacity="0" offset="1"/></linearGradient><radialGradient id="s" cx="171.69" cy="140.91" r="8.5" gradientTransform="matrix(-.087522 0 0 .071114 326.14 165.76)" gradientUnits="userSpaceOnUse" xlink:href="#a"/><radialGradient id="q" cx="313.95" cy="179.55" r="5.8438" gradientTransform="matrix(1.4351 1.1852e-6 -3.2937e-7 .3988 -136.6 107.76)" gradientUnits="userSpaceOnUse"><stop offset="0"/><stop stop-opacity="0" offset="1"/></radialGradient><radialGradient id="p" cx="312.7" cy="186.57" r="5.8438" gradientTransform="matrix(1.2242 0 0 .3101 -70.397 123.76)" gradientUnits="userSpaceOnUse"><stop stop-color="#fff" offset="0"/><stop stop-color="#fff" stop-opacity="0" offset="1"/></radialGradient><radialGradient id="ac" cx="219.06" cy="242.29" r="20.96" gradientTransform="matrix(1 .062149 -.023839 .38358 5.7759 116.75)" gradientUnits="userSpaceOnUse"><stop stop-color="#edd400" offset="0"/><stop stop-color="#edd400" stop-opacity="0" offset="1"/></radialGradient><filter id="ar" x="-.036749" y="-.16336" width="1.0735" height="1.3267" color-interpolation-filters="sRGB"><feGaussianBlur stdDeviation="0.64188503"/></filter><clipPath id="j"><path d="m118.62 209.5c2.5833-0.38773 5.1667-0.51062 7.75 0.75 0 0 0.28209 5.4813-1.625 5.625-2.3783 0.17918-6.125-6.375-6.125-6.375z" enable-background="accumulate" fill="none" stroke="#000" stroke-width=".087521"/></clipPath><filter id="h" x="-.086485" y="-.10106" width="1.173" height="1.2021" color-interpolation-filters="sRGB"><feGaussianBlur stdDeviation="0.27980347"/></filter><linearGradient id="f" x1="182.1" x2="183.49" y1="187.81" y2="191.97" gradientUnits="userSpaceOnUse" xlink:href="#g"/><linearGradient id="g"><stop offset="0"/><stop stop-opacity="0" offset="1"/></linearGradient><radialGradient id="aa" cx="176.34" cy="187.83" r="5.676" gradientTransform="matrix(.17427 -.057824 .099042 .29849 269.03 135.82)" gradientUnits="userSpaceOnUse"><stop stop-color="#571313" offset="0"/><stop stop-color="#a00" stop-opacity="0" offset="1"/></radialGradient><radialGradient id="ab" cx="181.33" cy="186.89" r="5.676" gradientTransform="matrix(.15375 -.076332 .14447 .29098 263.9 140.71)" gradientUnits="userSpaceOnUse" xlink:href="#e"/><linearGradient id="e"><stop stop-color="#fce94f" offset="0"/><stop stop-color="#a00" stop-opacity="0" offset="1"/></linearGradient><radialGradient id="z" cx="182.74" cy="186.91" r="5.676" gradientTransform="matrix(-.16166 .0082968 .017454 .34007 339.62 118.06)" gradientUnits="userSpaceOnUse" xlink:href="#e"/><radialGradient id="y" cx="181.01" cy="186.98" r="5.676" gradientTransform="matrix(-.27881 .032899 .028786 .24395 358.67 131.59)" gradientUnits="userSpaceOnUse"><stop stop-color="#450603" offset="0"/><stop stop-color="#a00" stop-opacity="0" offset="1"/></radialGradient><radialGradient id="x" cx="241.75" cy="85.562" r="8.625" gradientTransform="matrix(.65641 .70712 -.3373 .31311 111.92 -112.17)" gradientUnits="userSpaceOnUse" xlink:href="#a"/><radialGradient id="w" cx="241.75" cy="85.562" r="8.625" gradientTransform="matrix(.76009 .59427 -.38078 .48702 90.578 -99.774)" gradientUnits="userSpaceOnUse" xlink:href="#a"/><radialGradient id="v" cx="253.98" cy="80.115" r="6.375" gradientTransform="matrix(1.549 -1.3255 .48952 .57206 -180.39 370.03)" gradientUnits="userSpaceOnUse"><stop stop-color="#fff" offset="0"/><stop stop-color="#fff" stop-opacity="0" offset="1"/></radialGradient><radialGradient id="c" cx="177.56" cy="69.59" r="9.496" gradientTransform="matrix(1 0 0 .6548 0 24.022)" gradientUnits="userSpaceOnUse" xlink:href="#g"/><radialGradient id="d" cx="318.61" cy="170.59" r=".8242" gradientTransform="matrix(.94748 .31983 -1.2484 3.6983 229.7 -561.61)" gradientUnits="userSpaceOnUse" xlink:href="#ag"/><linearGradient id="ag"><stop stop-color="#4e0505" offset="0"/><stop offset="1"/></linearGradient><radialGradient id="o" cx="173.33" cy="58.524" r="4.8358" gradientTransform="matrix(1.3058 .34318 -2.8115 10.697 110.55 -617.95)" gradientUnits="userSpaceOnUse"><stop stop-color="#fff" offset="0"/><stop stop-color="#fff" stop-opacity="0" offset="1"/></radialGradient><filter id="ak" x="-.26856" y="-.089254" width="1.5371" height="1.1785" color-interpolation-filters="sRGB"><feGaussianBlur stdDeviation="1.0822378"/></filter><radialGradient id="m" cx="182.12" cy="58.899" r="2.3375" gradientTransform="matrix(5.5457 0 0 5.2229 -825.95 -246.1)" gradientUnits="userSpaceOnUse"><stop stop-color="#fed163" offset="0"/><stop stop-color="#fed163" stop-opacity="0" offset="1"/></radialGradient><filter id="b" x="-.3194" y="-.062723" width="1.6388" height="1.1254" color-interpolation-filters="sRGB"><feGaussianBlur stdDeviation="0.6221794"/></filter><linearGradient id="af" x1="169.51" x2="180.92" y1="55.165" y2="57.767" gradientUnits="userSpaceOnUse"><stop stop-color="#eeeeec" stop-opacity="0" offset="0"/><stop stop-color="#fff" offset=".5282"/><stop stop-color="#eeeeec" stop-opacity="0" offset="1"/></linearGradient><radialGradient id="k" cx="182.12" cy="58.899" r="2.3375" gradientTransform="matrix(5.5457 0 0 5.2229 -825.95 -246.1)" gradientUnits="userSpaceOnUse"><stop stop-color="#fff9e8" offset="0"/><stop stop-color="#fed163" stop-opacity="0" offset="1"/></radialGradient><radialGradient id="ae" cx="172.5" cy="101.34" r="8.5" gradientTransform="matrix(.35294 0 0 .46667 111.62 58.146)" gradientUnits="userSpaceOnUse"><stop stop-color="#b3b3b3" offset="0"/><stop offset="1"/></radialGradient><radialGradient id="ad" cx="175.62" cy="130.62" r="5.625" gradientTransform="matrix(2.4905 0 0 2.9335 -261.77 -251.8)" gradientUnits="userSpaceOnUse"><stop stop-color="#fcfbb6" offset="0"/><stop stop-color="#fcfbb6" stop-opacity="0" offset="1"/></radialGradient></defs><g transform="translate(-20 -628)"><g><g transform="matrix(11.426 0 0 11.426 -3457.7 -1280.7)" enable-background="new"><path transform="matrix(.087521 0 0 .087521 302.93 165.15)" d="m165.19 180.34c40.344 72.675 97.558 40.645 84.195-3.388-11.604-38.238-26.38-93.922 2.1044-99.504l-0.72661-1.0175c-33.568 10.025-9.1596 81.726-5.1266 97.735 10.693 42.444-40.788 57.745-74.241-0.37087z" enable-background="accumulate" fill="#4e0505"/><path transform="matrix(.087521 0 0 .087521 302.93 165.15)" d="m167.86 176.96c32.675 59.56 92.848 43.243 79.485-0.79025-11.604-38.238-24.342-93.136 4.1424-98.719l-0.72661-1.0175c-33.568 10.025-7.9008 84.111-3.8678 100.12 10.693 42.444-43.335 56.829-76.788-1.2869z" clip-path="url(#at)" enable-background="accumulate" fill="#eeeeec" filter="url(#as)"/><path transform="matrix(.087521 0 0 .087521 302.93 165.15)" d="m247.12 95.944c0.59338-25.366 16.608-25.236 24.323-26.04-24.17-3.5993-31.366 5.9176-44.095 18.465 0 0 8.7188-5.4293 12.787-4.6461 3.5736 0.68798 6.9301 9.5324 6.9852 12.221z" enable-background="accumulate" fill="#4e0505"/><g opacity=".63547"><ellipse transform="matrix(.68602 0 0 .68602 98.599 58.176)" cx="314.03" cy="185.22" rx="6.9688" ry="2.3438" enable-background="accumulate" filter="url(#aj)"/><ellipse transform="matrix(1.24 0 0 1.24 -75.368 -44.496)" cx="314.03" cy="185.22" rx="6.9688" ry="2.3438" enable-background="accumulate" fill="url(#l)" filter="url(#an)"/></g><circle transform="matrix(1.0344 0 0 1.0344 -11.698 -6.1114)" cx="314.97" cy="177.84" r="8.5312" enable-background="accumulate" fill="url(#n)"/><path transform="matrix(.8945 0 0 .74568 33.137 44.454)" d="m314.09 169.63c-3.6633 0-6.6377 2.0382-6.6377 4.5485 0 0.45252 0.0987 0.88918 0.27858 1.3018 0.81756-1.8766 3.3559-3.2467 6.3592-3.2467 3.0033 0 5.5416 1.37 6.3592 3.2467 0.17987-0.41262 0.2763-0.84928 0.2763-1.3018 0-2.5103-2.9722-4.5485-6.6355-4.5485z" enable-background="accumulate" fill="url(#u)" filter="url(#aq)"/><circle transform="matrix(1.4 0 0 1.4 -126.24 -72.825)" cx="314.5" cy="175.38" r="2.1875" clip-path="url(#au)" color="#000000" enable-background="accumulate" fill="#f7ff83" filter="url(#am)"/><circle transform="matrix(1.0344 0 0 1.0344 -11.698 -6.1114)" cx="314.97" cy="177.84" r="8.5312" clip-path="url(#i)" enable-background="accumulate" fill="none" filter="url(#al)" stroke="#000" stroke-linecap="round" stroke-linejoin="round" stroke-width=".042307"/><path transform="matrix(.094994 0 0 .087521 300.65 165.37)" d="m58.219 144.19c-1.5992 126.96 166.23 123.05 163.94 10.219-2.1677 94.357-161.55 97.864-163.91-10.219z" fill="url(#r)" fill-rule="evenodd" filter="url(#ao)" opacity=".39109"/><circle transform="matrix(.9958 0 0 .9958 .44883 .74749)" cx="314.97" cy="177.84" r="8.5312" clip-path="url(#i)" enable-background="accumulate" fill="none" filter="url(#ai)" stroke="#fff" stroke-linecap="round" stroke-linejoin="round" stroke-width=".043945"/><g transform="rotate(-5.4167 314.01 174.5)"><g id="ah" transform="matrix(.048137 0 0 .048137 308.26 168.63)" enable-background="new"><ellipse transform="matrix(1 0 0 1.1765 3 -20.294)" cx="172.5" cy="115" rx="8.5" ry="17" enable-background="accumulate" fill="url(#ae)" opacity=".84236"/><path transform="matrix(1.1333 0 0 1 -23.417 0)" d="m170 119.75s0.97644 13.116 5.25 13.25c4.2253 0.13228 6-12.75 6-12.75-3.0256 4.18-4.5212 17.54-11.25-0.5z" fill="url(#ad)" fill-rule="evenodd" filter="url(#ap)" opacity=".30542"/></g><use transform="translate(-5.6007 .50854)" width="400" height="300" xlink:href="#ah"/><path d="m315.95 174.37c0.47539 1.162 1.026 1.2214 1.4879 0.0656-0.43206 0.85991-0.91039 1.0812-1.4879-0.0656z" fill="url(#t)" fill-rule="evenodd" opacity=".42079"/><path d="m311.9 174.87c-0.47539 1.162-1.026 1.2214-1.4879 0.0656 0.43206 0.8599 0.91039 1.0812 1.4879-0.0656z" fill="url(#s)" fill-rule="evenodd" opacity=".42079"/></g><g transform="matrix(.67791 -.26353 .26353 .67791 56.13 143.25)" fill-rule="evenodd"><path d="m306.8 177.65c5.9892 4.7183 10.354 3.1548 14.308 0-4.7104 4.4711-9.4772 4.6712-14.308 0z" fill="url(#q)"/><path d="m306.8 177.65c5.9 5.7889 10.303 3.7719 14.308 0-4.7104 4.4711-9.4772 4.6712-14.308 0z" fill="url(#p)" opacity=".5468"/></g><path transform="matrix(.087521 0 0 .087521 302.93 165.15)" d="m198.1 215.81 2.1116-2.7282c8.4881 5.4815 21.482 13.599 39.809 1.6875-9.6047 7.4341-20.729 12.404-41.92 1.0408z" enable-background="accumulate" fill="url(#ac)" filter="url(#ar)"/><g><g transform="matrix(-.82067 .57141 .57141 .82067 471.33 -148.1)"><path d="m313.19 183.44c0.22609-0.0339 0.45219-0.0447 0.67829 0.0656 0 0 0.0247 0.47973-0.14223 0.4923-0.20815 0.0157-0.53606-0.55795-0.53606-0.55795z" enable-background="accumulate" fill="#a4ac9b"/><path transform="matrix(.087521 0 0 .087521 302.81 165.1)" d="m118.62 209.5c2.5833-0.38773 5.1667-0.51062 7.75 0.75 0 0 0.28209 5.4813-1.625 5.625-2.3783 0.17918-6.125-6.375-6.125-6.375z" clip-path="url(#j)" enable-background="accumulate" fill="none" filter="url(#h)" opacity=".42079" stroke="#000"/><path d="m313.69 183.91c-0.15838-0.088-0.27148-0.2666-0.37196-0.47043l0.22974-0.0109c2.9e-4 0.17617 0.0545 0.33435 0.14222 0.48137z" enable-background="accumulate" fill="#fff"/></g><path transform="matrix(.087521 0 0 .087521 302.93 165.15)" d="m179.12 190.71 1.5026 2.0771c1.3078-4.2649 2.8023-5.6048 4.4636-4.331l-0.0442-2.8726c-2.1057 1.248-4.27 2.2907-5.922 5.1265z" enable-background="accumulate" fill="url(#f)" opacity=".38119"/></g><g transform="matrix(-.64612 .43045 .43045 .64612 441.37 -71.174)"><g transform="matrix(-.82067 .57141 .57141 .82067 471.33 -148.1)"><path d="m313.19 183.44c0.22609-0.0339 0.45219-0.0447 0.67829 0.0656 0 0 0.0247 0.47973-0.14223 0.4923-0.20815 0.0157-0.53606-0.55795-0.53606-0.55795z" enable-background="accumulate" fill="#a4ac9b"/><path transform="matrix(.087521 0 0 .087521 302.81 165.1)" d="m118.62 209.5c2.5833-0.38773 5.1667-0.51062 7.75 0.75 0 0 0.28209 5.4813-1.625 5.625-2.3783 0.17918-6.125-6.375-6.125-6.375z" clip-path="url(#j)" enable-background="accumulate" fill="none" filter="url(#h)" opacity=".42079" stroke="#000" stroke-width="1.288"/><path d="m313.69 183.91c-0.15838-0.088-0.27148-0.2666-0.37196-0.47043l0.22974-0.0109c2.9e-4 0.17617 0.0545 0.33435 0.14222 0.48137z" enable-background="accumulate" fill="#fff" opacity=".39109"/></g><path transform="matrix(.087521 0 0 .087521 302.93 165.15)" d="m179.12 190.71 1.5026 2.0771c1.3078-4.2649 2.8023-5.6048 4.4636-4.331l-0.0442-2.8726c-2.1057 1.248-4.27 2.2907-5.922 5.1265z" enable-background="accumulate" fill="url(#f)" opacity=".75248"/></g><g opacity=".5297"><path d="m317.34 182.6c0.6773-0.37266 1.4116-0.90998 2.2883-2.0333-1.23-0.76652-2.4441-0.49132-2.2883 2.0333z" enable-background="accumulate" fill="url(#aa)"/><path d="m317.33 182.61c0.72663-0.41744 1.4245-0.91948 2.3012-2.0428-1.23-0.76652-2.4569-0.48182-2.3012 2.0428z" enable-background="accumulate" fill="url(#ab)" opacity=".81188"/></g><g transform="translate(.26256 .043761)" opacity=".38119"><path d="m315.11 183.29c-0.74378 0.0251-1.2718 0.16153-2.6629-0.1472 0.46108-1.374 1.1765-1.8995 2.6629 0.1472z" enable-background="accumulate" fill="url(#z)" opacity=".98"/><path d="m315.11 183.29c-0.74378 0.0251-1.2718 0.16153-2.6629-0.1472 0.46108-1.374 1.1765-1.8995 2.6629 0.1472z" enable-background="accumulate" fill="url(#y)" opacity=".64356"/></g><path transform="matrix(.087521 0 0 .087521 302.93 165.15)" d="m233.12 84.875c8.105-5.2955 11.181 0.12974 13.5 6.375 0.91733-4.5679 1.8547-9.089 3.75-11.375-1.5535 1.9233-3.2106 3.173-4.125 9.25-2.639-10.462-9.0347-7.3747-13.125-4.25z" enable-background="accumulate" fill="url(#x)" opacity=".40099"/><path transform="matrix(.087521 0 0 .087521 302.93 165.15)" d="m233.12 84.875c8.4622-6.0099 11.49-0.4878 13.5 6.375 0.91733-4.5679 1.8547-9.089 3.75-11.375-1.5535 1.9233-2.7106-0.32699-3.625 5.75-2.5783-9.1474-8.8915-4.6144-13.625-0.75z" enable-background="accumulate" fill="url(#w)" opacity=".42574"/><path transform="matrix(.087521 0 0 .087521 302.93 165.15)" d="m247.96 84.316c2.8452-6.547 7.0259-12.806 14.164-13.566-8.6015 0.66699-12.764 6.5293-14.164 13.566z" enable-background="accumulate" fill="url(#v)" opacity=".42574"/><g><g transform="translate(-.038229 -.1623)" fill="url(#c)"><ellipse transform="matrix(.081914 .030823 -.030823 .081914 305.9 159.97)" cx="177.56" cy="69.59" rx="9.496" ry="6.218" enable-background="accumulate"/><ellipse transform="matrix(.10088 .041069 -.037959 .10915 303.15 156.34)" cx="177.56" cy="69.59" rx="9.496" ry="6.218" enable-background="accumulate" opacity=".60396"/></g><path d="m317.6 170.41c-0.5008 0.63038 1.0033 1.5247 1.3896 0.722 0.43223-0.89816-0.10346-2.1523-0.64643-2.7137-0.11932-0.12361-0.36971 4e-3 -0.33267 0.15629 0.15588 0.64116-0.0826 1.4226-0.41051 1.8354z" enable-background="accumulate" fill="url(#d)"/><path transform="matrix(.087521 0 0 .087521 302.87 165.14)" d="m174.78 40.614c0.70089 7.2249 0.0346 13.617-5.2635 23.17 1.2917 2.4591 2.6506 4.8817 6.5473 5.9303 5.5962-12.023 2.7392-21.292-1.2838-29.101z" enable-background="accumulate" fill="url(#o)" filter="url(#ak)" opacity=".66832"/><path transform="matrix(.087521 0 0 .087521 302.93 165.15)" d="m180.62 46.373c4.5129 9.9991 5.0017 18.586-1.2593 23.807 1.6034-8.4591 3.2087-16.791 1.2593-23.807z" enable-background="accumulate" fill="url(#m)" filter="url(#b)" opacity=".66832"/></g><g transform="matrix(-.9545 .29821 .29821 .9545 561.18 -85.265)"><g transform="translate(-.038229 -.1623)" fill="url(#c)"><ellipse transform="matrix(.081914 .030823 -.030823 .081914 305.9 159.97)" cx="177.56" cy="69.59" rx="9.496" ry="6.218" enable-background="accumulate"/><ellipse transform="matrix(.10088 .041069 -.037959 .10915 303.15 156.34)" cx="177.56" cy="69.59" rx="9.496" ry="6.218" enable-background="accumulate" opacity=".60396"/></g><path d="m317.6 170.41c-0.5008 0.63038 1.0033 1.5247 1.3896 0.722 0.43223-0.89816-0.10346-2.1523-0.64643-2.7137-0.11932-0.12361-0.36971 4e-3 -0.33267 0.15629 0.15588 0.64116-0.0826 1.4226-0.41051 1.8354z" enable-background="accumulate" fill="url(#d)"/><path transform="matrix(.087521 0 0 .087521 302.87 165.14)" d="m174.78 40.614c0.70089 7.2249 0.0346 13.617-5.2635 23.17 1.2917 2.4591 2.6506 4.8817 6.5473 5.9303 5.5962-12.023 2.7392-21.292-1.2838-29.101z" enable-background="accumulate" fill="url(#af)" filter="url(#b)" opacity=".44554"/><path transform="matrix(.087521 0 0 .087521 302.93 165.15)" d="m180.62 46.373c4.5129 9.9991 5.0017 18.586-1.2593 23.807 1.6034-8.4591 3.2087-16.791 1.2593-23.807z" enable-background="accumulate" fill="url(#k)" filter="url(#b)" opacity=".30693"/></g></g></g></g></svg>
