<?xml version="1.0" encoding="UTF-8"?>
<svg enable-background="new" version="1.0" viewBox="0 0 256 256" xmlns="http://www.w3.org/2000/svg" xmlns:xlink="http://www.w3.org/1999/xlink"><defs><filter id="w" x="-.089088" y="-.26489" width="1.1782" height="1.5298" color-interpolation-filters="sRGB"><feGaussianBlur stdDeviation="0.51736111"/></filter><filter id="ae" x="-.094329" y="-.28047" width="1.1887" height="1.5609" color-interpolation-filters="sRGB"><feGaussianBlur stdDeviation="0.54779412"/></filter><filter id="ad" x="-.43765" y="-.43765" width="1.8753" height="1.8753" color-interpolation-filters="sRGB"><feGaussianBlur stdDeviation="0.79779412"/></filter><filter id="x" x="-.091874" y="-.20845" width="1.1837" height="1.4169" color-interpolation-filters="sRGB"><feGaussianBlur stdDeviation="0.50811126"/></filter><clipPath id="c"><circle cx="314.97" cy="177.84" r="8.5312" enable-background="accumulate" fill="none" stroke="#ce5c00" stroke-linecap="round" stroke-linejoin="round" stroke-width=".087521"/></clipPath><filter id="ac" color-interpolation-filters="sRGB"><feGaussianBlur stdDeviation="0.0853125"/></filter><filter id="af" x="-.060222" y="-.10389" width="1.1204" height="1.2078" color-interpolation-filters="sRGB"><feGaussianBlur stdDeviation="4.1144816"/></filter><filter id="u" color-interpolation-filters="sRGB"><feGaussianBlur stdDeviation="0.170625"/></filter><filter id="ab" color-interpolation-filters="sRGB"><feGaussianBlur stdDeviation="0.039747512"/></filter><filter id="aa" x="-.11723" y="-.29708" width="1.2345" height="1.5942" color-interpolation-filters="sRGB"><feGaussianBlur stdDeviation="0.099215247"/></filter><filter id="z" x="-.14538" y="-.19929" width="1.2908" height="1.3986" color-interpolation-filters="sRGB"><feGaussianBlur stdDeviation="0.13223598"/></filter><radialGradient id="q" cx="314.13" cy="179.36" r="5.5164" gradientTransform="matrix(1 -1.7545e-6 9.8948e-7 .56397 -.00017747 78.075)" gradientUnits="userSpaceOnUse" xlink:href="#b"/><linearGradient id="b"><stop stop-opacity="0" offset="0"/><stop offset="1"/></linearGradient><filter id="y" color-interpolation-filters="sRGB"><feGaussianBlur stdDeviation="0.068443052"/></filter><radialGradient id="p" cx="314.13" cy="182.96" r="5.6479" gradientTransform="matrix(1 0 0 .29475 0 126.7)" gradientUnits="userSpaceOnUse"><stop stop-color="#fff" stop-opacity=".63636" offset="0"/><stop stop-color="#fff" stop-opacity="0" offset="1"/></radialGradient><radialGradient id="o" cx="314.13" cy="186.48" r="5.7358" gradientTransform="matrix(.97704 .015283 -.0092111 .58886 8.93 67.127)" gradientUnits="userSpaceOnUse"><stop stop-color="#fff" offset="0"/><stop stop-color="#fff" stop-opacity="0" offset="1"/></radialGradient><linearGradient id="s" x1="331.06" x2="331.06" y1="377.85" y2="381.75" gradientTransform="matrix(.39509 0 0 .2287 183.33 92.69)" gradientUnits="userSpaceOnUse"><stop stop-color="#a40000" offset="0"/><stop stop-color="#ec0000" offset="1"/></linearGradient><linearGradient id="r" x1="317.79" x2="342.24" y1="376.17" y2="376.17" gradientTransform="matrix(.39509 0 0 .24255 183.42 87.806)" gradientUnits="userSpaceOnUse"><stop stop-color="#717171" offset="0"/><stop stop-color="#666" offset=".054302"/><stop stop-color="#fff" offset=".34579"/><stop stop-color="#fff" offset=".72487"/><stop stop-color="#969696" offset="1"/></linearGradient><clipPath id="ag"><path d="m308.94 177.89c-1.1568-0.2774 0.81814 3.05 5.1732 3.05 4.3122 0 6.4351-3.3197 5.1732-3.05-3.2929 0.70375-7.5302 0.67535-10.346 0z" enable-background="new" fill="none" stroke="#310000" stroke-width=".08766"/></clipPath><filter id="v" color-interpolation-filters="sRGB"><feGaussianBlur stdDeviation="0.085553815"/></filter><radialGradient id="n" cx="319.78" cy="176.18" r="5.7762" gradientTransform="matrix(.48112 -.042311 .0037275 .042359 165.01 184.27)" gradientUnits="userSpaceOnUse" xlink:href="#a"/><linearGradient id="a"><stop stop-color="#fff" offset="0"/><stop stop-color="#fff" stop-opacity="0" offset="1"/></linearGradient><radialGradient id="m" cx="319.85" cy="175.52" r="5.7762" gradientTransform="matrix(-.48112 -.042311 -.0037275 .042359 463.23 184.3)" gradientUnits="userSpaceOnUse" xlink:href="#a"/><radialGradient id="l" cx="314.13" cy="179.36" r="5.5164" gradientTransform="matrix(1 -1.7545e-6 9.8948e-7 .56397 -.00017747 78.206)" gradientUnits="userSpaceOnUse" xlink:href="#b"/><radialGradient id="k" cx="314.03" cy="185.22" r="6.9688" gradientTransform="matrix(1 0 0 .33632 0 122.93)" gradientUnits="userSpaceOnUse"><stop offset="0"/><stop stop-opacity="0" offset="1"/></radialGradient><radialGradient id="j" cx="314.97" cy="174.44" r="9.0312" gradientTransform="matrix(1.0104 0 0 1.2333 -3.2773 -40.211)" gradientUnits="userSpaceOnUse"><stop stop-color="#ffed50" offset="0"/><stop stop-color="#e16f00" offset=".83825"/><stop stop-color="#8e5502" offset="1"/></radialGradient><radialGradient id="i" cx="140.19" cy="286.6" r="81.986" gradientTransform="matrix(1.3652 -2.348e-8 0 .53696 -51.204 92.821)" gradientUnits="userSpaceOnUse"><stop stop-color="#fff" offset="0"/><stop stop-color="#fff" stop-opacity="0" offset="1"/></radialGradient><radialGradient id="h" cx="141.58" cy="30.179" r="90.828" gradientTransform="matrix(.13119 0 0 .057822 295.52 168.16)" gradientUnits="userSpaceOnUse"><stop stop-color="#fff" offset="0"/><stop stop-color="#fff" stop-opacity="0" offset="1"/></radialGradient><radialGradient id="g" cx="316.68" cy="174.14" r="1.0168" gradientTransform="matrix(1.8512 0 0 1.0555 -269.54 -9.4164)" gradientUnits="userSpaceOnUse"><stop offset="0"/><stop stop-opacity="0" offset="1"/></radialGradient><radialGradient id="f" cx="316.67" cy="174.44" r="1.0156" gradientTransform="matrix(1 0 0 .47294 0 92.148)" gradientUnits="userSpaceOnUse"><stop stop-color="#fff" offset="0"/><stop stop-color="#fff" stop-opacity="0" offset="1"/></radialGradient><radialGradient id="e" cx="316.67" cy="173.81" r="1.0156" gradientTransform="matrix(1.8402 0 0 .72613 -266.07 48.316)" gradientUnits="userSpaceOnUse"><stop offset="0"/><stop stop-opacity="0" offset="1"/></radialGradient><radialGradient id="d" cx="316.65" cy="174.13" r="1.0915" gradientTransform="matrix(.99997 -.0082456 .0060153 .72949 -1.0367 49.655)" gradientUnits="userSpaceOnUse"><stop stop-color="#fff" offset="0"/><stop stop-color="#fff" stop-opacity="0" offset="1"/></radialGradient></defs><g transform="translate(-420,-28)"><g transform="matrix(11.426 0 0 11.426 -3041.9 -1885.6)" enable-background="new"><g opacity=".63547"><ellipse transform="matrix(.68602 0 0 .68602 98.599 58.176)" cx="314.03" cy="185.22" rx="6.9688" ry="2.3438" enable-background="accumulate" filter="url(#w)"/><ellipse transform="matrix(1.24 0 0 1.24 -75.368 -44.496)" cx="314.03" cy="185.22" rx="6.9688" ry="2.3438" enable-background="accumulate" fill="url(#k)" filter="url(#ae)"/></g><circle transform="matrix(1.0344 0 0 1.0344 -11.698 -6.1114)" cx="314.97" cy="177.84" r="8.5312" enable-background="accumulate" fill="url(#j)"/><circle transform="matrix(1.4 0 0 1.4 -126.24 -72.825)" cx="314.5" cy="175.38" r="2.1875" enable-background="accumulate" fill="#fcffcd" filter="url(#ad)"/><circle transform="matrix(1.0344 0 0 1.0344 -11.698 -6.1114)" cx="314.97" cy="177.84" r="8.5312" clip-path="url(#c)" enable-background="accumulate" fill="none" filter="url(#ac)" stroke="#000" stroke-linecap="round" stroke-linejoin="round" stroke-width=".042307"/><path transform="matrix(.094994 0 0 .087521 300.65 165.11)" d="m58.219 144.19c-1.5992 126.96 166.23 123.05 163.94 10.219-2.1677 94.357-161.55 97.864-163.91-10.219z" fill="url(#i)" fill-rule="evenodd" filter="url(#af)" opacity=".55172"/><path transform="matrix(.8945 0 0 .74568 33.137 43.141)" d="m314.09 169.63c-3.6633 0-6.6377 2.0382-6.6377 4.5485 0 0.45252 0.0987 0.88918 0.27858 1.3018 0.81756-1.8766 3.3559-3.2467 6.3592-3.2467 3.0033 0 5.5416 1.37 6.3592 3.2467 0.17987-0.41262 0.2763-0.84928 0.2763-1.3018 0-2.5103-2.9722-4.5485-6.6355-4.5485z" enable-background="accumulate" fill="url(#h)" filter="url(#x)"/><circle transform="matrix(.9958 0 0 .9958 .44883 .74749)" cx="314.97" cy="177.84" r="8.5312" clip-path="url(#c)" enable-background="accumulate" fill="none" filter="url(#u)" stroke="#fff" stroke-linecap="round" stroke-linejoin="round" stroke-width=".043945"/></g><g transform="translate(405.34 -5.4555)" enable-background="new"><g id="t" transform="matrix(11.426 0 0 11.426 -3447.2 -1887)"><path d="m317.69 175.31c-0.2772-1.2353-1.6262-1.3148-2.0312-0.0313 0.0216-1.539 2.1115-1.4794 2.0312 0.0313z" fill="url(#g)" fill-rule="evenodd"/><path d="m317.69 175.31c-0.2772-1.2353-1.6262-1.3148-2.0312-0.0313 0.45562-1.0712 1.7468-0.9918 2.0312 0.0313z" fill="url(#f)" fill-rule="evenodd" filter="url(#ab)"/><path d="m317.69 175.39c-0.50694-0.61172-1.2651-0.77873-2.0312-0.0313 0.45562-1.0712 1.7468-0.9918 2.0312 0.0313z" fill="url(#e)" fill-rule="evenodd" filter="url(#aa)" opacity=".133"/><path d="m317.69 175.15c0.47502-3.2732-2.7424-2.6922-2.0312-0.0313 0.0216-1.539 2.1115-1.4794 2.0312 0.0313z" fill="url(#d)" fill-rule="evenodd" filter="url(#z)"/></g><use transform="translate(-60)" width="400" height="300" xlink:href="#t"/><g transform="matrix(11.408 0 0 11.408 -3440.8 -1886.6)" enable-background="new"><path d="m308.94 177.71c-1.1568-0.2774 0.81814 3.05 5.1732 3.05 4.3122 0 6.4351-3.3197 5.1732-3.05-3.2929 0.70375-7.5302 0.67535-10.346 0z" enable-background="new" fill="url(#q)" filter="url(#y)" opacity=".4604"/><path d="m308.94 178.19c-1.1568-0.2774 0.81814 3.05 5.1732 3.05 4.3122 0 6.4351-3.3197 5.1732-3.05-3.2929 0.70375-7.5302 0.67535-10.346 0z" enable-background="new" fill="url(#p)" opacity=".64851" stroke="url(#o)" stroke-width=".17532"/><path d="m308.94 177.89c-1.1568-0.2774 0.81814 3.05 5.1732 3.05 4.3122 0 6.4351-3.3197 5.1732-3.05-3.2929 0.70375-7.5302 0.67535-10.346 0z" enable-background="new" fill="url(#s)"/><path d="m309.41 179.04 9.4457-0.0284c0.34353-0.43497 0.83271-1.122 0.46164-1.0609-3.5197 0.57896-7.116 0.69619-10.468-0.0475-0.51656-0.11461 0.0666 0.76765 0.56042 1.1367z" enable-background="new" fill="url(#r)"/><path d="m308.94 177.89c-1.1568-0.2774 0.81814 3.05 5.1732 3.05 4.3122 0 6.4351-3.3197 5.1732-3.05-3.2929 0.70375-7.5302 0.67535-10.346 0z" clip-path="url(#ag)" enable-background="new" fill="none" filter="url(#v)" stroke="#310000" stroke-width=".08766"/><path d="m308.81 177.69c-0.0856 0.0165-0.16035 0.0795-0.21492 0.15346-0.10913 0.14781-0.0858 0.32668-0.0307 0.49108 0.11022 0.32878 0.40124 0.69609 0.85966 1.1049 0.91682 0.81766 2.5074 1.6574 4.6974 1.6574 2.1693 0 3.8006-0.81025 4.7281-1.6267 0.46375-0.40824 0.75326-0.80147 0.85965-1.1356 0.0532-0.16708 0.0581-0.34855-0.0614-0.49108-0.11955-0.14253-0.30101-0.16341-0.49123-0.12277-3.2002 0.68372-7.3459 0.65309-10.07 0-0.0898-0.0215-0.19073-0.0472-0.27632-0.0307z" enable-background="new" fill="none" stroke="url(#n)" stroke-width=".08766"/><path d="m319.43 177.72c0.0856 0.0165 0.16035 0.0795 0.21492 0.15346 0.10913 0.14781 0.0858 0.32668 0.0307 0.49108-0.11022 0.32878-0.40124 0.69609-0.85966 1.1049-0.91682 0.81766-2.5074 1.6574-4.6974 1.6574-2.1693 0-3.8006-0.81025-4.7281-1.6267-0.46375-0.40824-0.75326-0.80147-0.85965-1.1356-0.0532-0.16708-0.0581-0.34855 0.0614-0.49108 0.11955-0.14253 0.30101-0.16341 0.49123-0.12277 3.2002 0.68372 7.3459 0.65309 10.07 0 0.0898-0.0215 0.19073-0.0472 0.27632-0.0307z" enable-background="new" fill="none" opacity=".36634" stroke="url(#m)" stroke-width=".08766"/><path d="m308.94 177.84c-1.1568-0.2774 0.81814 3.05 5.1732 3.05 4.3122 0 6.4351-3.3197 5.1732-3.05-3.2929 0.70375-7.5302 0.67535-10.346 0z" enable-background="new" fill="url(#l)" opacity=".31683"/></g><path d="m89.5 156.25 106.75-0.5-1.5 1.75c-34.333-1.5832-69-1.5001-104 0.25z" enable-background="new" opacity=".36634"/></g></g></svg>
