<?xml version="1.0" encoding="UTF-8"?>
<svg enable-background="new" version="1.0" viewBox="0 0 256 256" xmlns="http://www.w3.org/2000/svg" xmlns:xlink="http://www.w3.org/1999/xlink"><defs><filter id="s" x="-.089088" y="-.26489" width="1.1782" height="1.5298" color-interpolation-filters="sRGB"><feGaussianBlur stdDeviation="0.51736111"/></filter><filter id="x" x="-.094329" y="-.28047" width="1.1887" height="1.5609" color-interpolation-filters="sRGB"><feGaussianBlur stdDeviation="0.54779412"/></filter><filter id="w" x="-.43765" y="-.43765" width="1.8753" height="1.8753" color-interpolation-filters="sRGB"><feGaussianBlur stdDeviation="0.79779412"/></filter><filter id="t" x="-.091874" y="-.20845" width="1.1837" height="1.4169" color-interpolation-filters="sRGB"><feGaussianBlur stdDeviation="0.50811126"/></filter><clipPath id="d"><circle cx="314.97" cy="177.84" r="8.5312" enable-background="accumulate" fill="none" stroke="#ce5c00" stroke-linecap="round" stroke-linejoin="round" stroke-width=".087521"/></clipPath><filter id="u" color-interpolation-filters="sRGB"><feGaussianBlur stdDeviation="0.0853125"/></filter><filter id="y" x="-.060222" y="-.10389" width="1.1204" height="1.2078" color-interpolation-filters="sRGB"><feGaussianBlur stdDeviation="4.1144816"/></filter><filter id="r" color-interpolation-filters="sRGB"><feGaussianBlur stdDeviation="0.170625"/></filter><filter id="v" x="-.093659" y="-.27042" width="1.1873" height="1.5408" color-interpolation-filters="sRGB"><feGaussianBlur stdDeviation="0.45609948"/></filter><linearGradient id="p"><stop stop-color="#fdfcbc" offset="0"/><stop stop-color="#fdfcbc" stop-opacity="0" offset="1"/></linearGradient><filter id="c" x="-.10702" y="-.081841" width="1.214" height="1.1637" color-interpolation-filters="sRGB"><feGaussianBlur stdDeviation="1.4492839"/></filter><filter id="z" x="-.18307" y="-.15542" width="1.3661" height="1.3108" color-interpolation-filters="sRGB"><feGaussianBlur stdDeviation="0.85812722"/></filter><linearGradient id="b"><stop stop-color="#fff" offset="0"/><stop stop-color="#fff" stop-opacity="0" offset="1"/></linearGradient><radialGradient id="a" cx="142.75" cy="172.87" r="16.25" gradientTransform="matrix(1 0 0 .49231 0 89.646)" gradientUnits="userSpaceOnUse" xlink:href="#p"/><radialGradient id="o" cx="171.69" cy="140.91" r="8.5" gradientTransform="matrix(1 0 0 .81254 3e-6 31.072)" gradientUnits="userSpaceOnUse" xlink:href="#b"/><radialGradient id="n" cx="171.69" cy="140.91" r="8.5" gradientTransform="matrix(-1 0 0 .81254 285.25 31.072)" gradientUnits="userSpaceOnUse" xlink:href="#b"/><radialGradient id="m" cx="314.11" cy="187.63" r="5.8438" gradientTransform="matrix(.99731 -.073293 .052419 .71328 -9.0125 72.341)" gradientUnits="userSpaceOnUse"><stop stop-color="#a45d03" offset="0"/><stop stop-color="#eca222" stop-opacity="0" offset="1"/></radialGradient><radialGradient id="l" cx="313.95" cy="179.55" r="5.8438" gradientTransform="matrix(1.4351 1.1852e-6 -3.2937e-7 .3988 -136.6 107.76)" gradientUnits="userSpaceOnUse"><stop offset="0"/><stop stop-opacity="0" offset="1"/></radialGradient><radialGradient id="k" cx="314.15" cy="185.48" r="5.8438" gradientTransform="matrix(1.2242 0 0 .3101 -70.397 123.76)" gradientUnits="userSpaceOnUse"><stop stop-color="#fff" offset="0"/><stop stop-color="#fff" stop-opacity="0" offset="1"/></radialGradient><radialGradient id="j" cx="314.03" cy="185.22" r="6.9688" gradientTransform="matrix(1 0 0 .33632 0 122.93)" gradientUnits="userSpaceOnUse"><stop offset="0"/><stop stop-opacity="0" offset="1"/></radialGradient><radialGradient id="i" cx="314.97" cy="174.44" r="9.0312" gradientTransform="matrix(1.0104 0 0 1.2333 -3.2773 -40.211)" gradientUnits="userSpaceOnUse"><stop stop-color="#ffed50" offset="0"/><stop stop-color="#e16f00" offset=".83825"/><stop stop-color="#8e5502" offset="1"/></radialGradient><radialGradient id="h" cx="140.19" cy="286.6" r="81.986" gradientTransform="matrix(1.3652 -2.348e-8 0 .53696 -51.204 92.821)" gradientUnits="userSpaceOnUse"><stop stop-color="#fff" offset="0"/><stop stop-color="#fff" stop-opacity="0" offset="1"/></radialGradient><radialGradient id="g" cx="141.58" cy="30.179" r="90.828" gradientTransform="matrix(.13119 0 0 .057822 295.52 168.16)" gradientUnits="userSpaceOnUse"><stop stop-color="#fff" offset="0"/><stop stop-color="#fff" stop-opacity="0" offset="1"/></radialGradient><radialGradient id="f" cx="172.5" cy="101.34" r="8.5" gradientTransform="matrix(.35294 0 0 .46667 111.62 58.146)" gradientUnits="userSpaceOnUse"><stop stop-color="#b3b3b3" offset="0"/><stop offset="1"/></radialGradient><radialGradient id="e" cx="175.62" cy="130.62" r="5.625" gradientTransform="matrix(2.4905 0 0 2.9335 -261.77 -251.8)" gradientUnits="userSpaceOnUse"><stop stop-color="#fcfbb6" offset="0"/><stop stop-color="#fcfbb6" stop-opacity="0" offset="1"/></radialGradient></defs><g transform="translate(-420,272)"><g transform="matrix(11.426 0 0 11.426 -3041.9 -2185.6)" enable-background="new"><g opacity=".63547"><ellipse transform="matrix(.68602 0 0 .68602 98.599 58.176)" cx="314.03" cy="185.22" rx="6.9688" ry="2.3438" enable-background="accumulate" filter="url(#s)"/><ellipse transform="matrix(1.24 0 0 1.24 -75.368 -44.496)" cx="314.03" cy="185.22" rx="6.9688" ry="2.3438" enable-background="accumulate" fill="url(#j)" filter="url(#x)"/></g><circle transform="matrix(1.0344 0 0 1.0344 -11.698 -6.1114)" cx="314.97" cy="177.84" r="8.5312" enable-background="accumulate" fill="url(#i)"/><circle transform="matrix(1.4 0 0 1.4 -126.24 -72.825)" cx="314.5" cy="175.38" r="2.1875" enable-background="accumulate" fill="#fcffcd" filter="url(#w)"/><circle transform="matrix(1.0344 0 0 1.0344 -11.698 -6.1114)" cx="314.97" cy="177.84" r="8.5312" clip-path="url(#d)" enable-background="accumulate" fill="none" filter="url(#u)" stroke="#000" stroke-linecap="round" stroke-linejoin="round" stroke-width=".042307"/><path transform="matrix(.094994 0 0 .087521 300.65 165.11)" d="m58.219 144.19c-1.5992 126.96 166.23 123.05 163.94 10.219-2.1677 94.357-161.55 97.864-163.91-10.219z" fill="url(#h)" fill-rule="evenodd" filter="url(#y)" opacity=".55172"/><path transform="matrix(.8945 0 0 .74568 33.137 43.141)" d="m314.09 169.63c-3.6633 0-6.6377 2.0382-6.6377 4.5485 0 0.45252 0.0987 0.88918 0.27858 1.3018 0.81756-1.8766 3.3559-3.2467 6.3592-3.2467 3.0033 0 5.5416 1.37 6.3592 3.2467 0.17987-0.41262 0.2763-0.84928 0.2763-1.3018 0-2.5103-2.9722-4.5485-6.6355-4.5485z" enable-background="accumulate" fill="url(#g)" filter="url(#t)"/><circle transform="matrix(.9958 0 0 .9958 .44883 .74749)" cx="314.97" cy="177.84" r="8.5312" clip-path="url(#d)" enable-background="accumulate" fill="none" filter="url(#r)" stroke="#fff" stroke-linecap="round" stroke-linejoin="round" stroke-width=".043945"/></g><g transform="translate(406 -314)" enable-background="new"><path transform="matrix(.66154 0 0 -1 17.815 320.5)" d="m126.5 187s2.2108-41.347 15.5-41.5c13.731-0.15831 17 42.5 17 42.5-15.307-21.808-23.645-10.165-32.5-1z" fill="url(#a)" fill-rule="evenodd" filter="url(#c)" opacity=".49754"/><path transform="matrix(.66154 0 0 -1 77.815 320.5)" d="m126.5 187s2.2108-41.347 15.5-41.5c13.731-0.15831 17 42.5 17 42.5-18.752-25.665-25.888-10.267-32.5-1z" fill="url(#a)" fill-rule="evenodd" filter="url(#c)" opacity=".49754"/><g id="q" transform="translate(-4 8)" enable-background="new"><ellipse transform="matrix(1 0 0 1.1765 3 -20.294)" cx="172.5" cy="115" rx="8.5" ry="17" enable-background="accumulate" fill="url(#f)" opacity=".84236"/><path transform="matrix(1.1333 0 0 1 -23.417 0)" d="m170 119.75s0.97644 13.116 5.25 13.25c4.2253 0.13228 6-12.75 6-12.75-3.0256 4.18-4.5212 17.54-11.25-0.5z" fill="url(#e)" fill-rule="evenodd" filter="url(#z)" opacity=".30542"/></g><use transform="translate(-58)" width="400" height="300" xlink:href="#q"/><path d="m162.75 135.25c5.4317 13.276 11.723 13.956 17 0.75-4.9366 9.825-10.402 12.354-17-0.75z" fill="url(#o)" fill-rule="evenodd"/><path d="m122.5 135.25c-5.4317 13.276-11.723 13.956-17 0.74999 4.9366 9.825 10.402 12.354 17-0.74999z" fill="url(#n)" fill-rule="evenodd"/></g><g transform="matrix(11.426 0 0 11.426 -3041.2 -2193)" enable-background="new" fill-rule="evenodd"><path transform="matrix(1.2242 0 0 1.2242 -70.397 -40.445)" d="m308.09 178.54c4.8193 4.7286 8.4159 3.0811 11.688 0-3.7031 5.3001-7.5941 5.4934-11.688 0z" fill="url(#m)" filter="url(#v)"/><path d="m306.8 177.65c5.9892 4.7183 10.354 3.1548 14.308 0-4.7104 4.4711-9.4772 4.6712-14.308 0z" fill="url(#l)"/><path d="m306.8 177.65c5.9 5.7889 10.303 3.7719 14.308 0-4.7104 4.4711-9.4772 4.6712-14.308 0z" fill="url(#k)" opacity=".5468"/></g></g></svg>
