<?xml version="1.0" encoding="UTF-8" standalone="no"?>
<svg
   xmlns:dc="http://purl.org/dc/elements/1.1/"
   xmlns:cc="http://creativecommons.org/ns#"
   xmlns:rdf="http://www.w3.org/1999/02/22-rdf-syntax-ns#"
   xmlns:svg="http://www.w3.org/2000/svg"
   xmlns="http://www.w3.org/2000/svg"
   xmlns:xlink="http://www.w3.org/1999/xlink"
   width="256"
   version="1.0"
   style="display:inline;enable-background:new"
   id="svg11300"
   height="256">
  <title
     id="title8836">Optical Drive</title>
  <metadata
     id="metadata154">
    <rdf:RDF>
      <cc:Work
         rdf:about="">
        <dc:format>image/svg+xml</dc:format>
        <dc:type
           rdf:resource="http://purl.org/dc/dcmitype/StillImage" />
        <dc:title>Warning</dc:title>
        <dc:creator>
          <cc:Agent>
            <dc:title>Jakub Steiner</dc:title>
          </cc:Agent>
        </dc:creator>
        <dc:contributor>
          <cc:Agent>
            <dc:title>Lapo Calamandrei</dc:title>
          </cc:Agent>
        </dc:contributor>
        <dc:source />
        <cc:license
           rdf:resource="" />
        <dc:subject>
          <rdf:Bag>
            <rdf:li>dialog</rdf:li>
            <rdf:li>warning</rdf:li>
            <rdf:li>sign</rdf:li>
            <rdf:li>exclamation</rdf:li>
            <rdf:li>mark</rdf:li>
          </rdf:Bag>
        </dc:subject>
      </cc:Work>
    </rdf:RDF>
  </metadata>
  <defs
     id="defs3">
    <linearGradient
       id="linearGradient3305">
      <stop
         id="stop3307"
         offset="0"
         style="stop-color:#ffffff;stop-opacity:1;" />
      <stop
         id="stop3309"
         offset="1"
         style="stop-color:#ffffff;stop-opacity:0;" />
    </linearGradient>
    <linearGradient
       id="linearGradient8751">
      <stop
         id="stop8753"
         offset="0"
         style="stop-color:#b45000;stop-opacity:1;" />
      <stop
         id="stop8755"
         offset="1"
         style="stop-color:#f57900;stop-opacity:1" />
    </linearGradient>
    <linearGradient
       id="linearGradient11223"
       gradientUnits="userSpaceOnUse"
       x1="4.1914001"
       y1="11.1133"
       x2="47.319698"
       y2="56.052299">
      <stop
         offset="0"
         style="stop-color:#ffffff;stop-opacity:1;"
         id="stop11225" />
      <stop
         offset="1"
         style="stop-color:#ffffff;stop-opacity:0"
         id="stop11227" />
    </linearGradient>
    <filter
       id="filter5468">
      <feGaussianBlur
         id="feGaussianBlur5470"
         stdDeviation="2.3481713" />
    </filter>
    <linearGradient
       y2="154.19772"
       x2="89.831696"
       y1="52.708382"
       x1="85.687943"
       gradientUnits="userSpaceOnUse"
       id="linearGradient5551"
       xlink:href="#linearGradient5343" />
    <linearGradient
       id="linearGradient5402">
      <stop
         id="stop5404"
         offset="0"
         style="stop-color:#ffffff;stop-opacity:1;" />
      <stop
         id="stop5406"
         offset="1"
         style="stop-color:#ffffff;stop-opacity:0;" />
    </linearGradient>
    <radialGradient
       gradientUnits="userSpaceOnUse"
       gradientTransform="matrix(1.6739663,0,0,1.6098814,-53.178311,-27.61411)"
       r="50.668388"
       fy="44.534161"
       fx="79.377068"
       cy="44.534161"
       cx="79.377068"
       id="radialGradient5408"
       xlink:href="#linearGradient5402" />
    <filter
       id="filter5393"
       height="2.1671088"
       y="-0.58355439"
       width="1.0732967"
       x="-0.036648341">
      <feGaussianBlur
         id="feGaussianBlur5395"
         stdDeviation="3.1609195" />
    </filter>
    <filter
       id="filter5339">
      <feGaussianBlur
         id="feGaussianBlur5341"
         stdDeviation="0.78272377" />
    </filter>
    <linearGradient
       id="linearGradient5343">
      <stop
         id="stop5345"
         offset="0"
         style="stop-color:#ffffff;stop-opacity:1;" />
      <stop
         id="stop5347"
         offset="1"
         style="stop-color:#ffffff;stop-opacity:0;" />
    </linearGradient>
    <linearGradient
       gradientUnits="userSpaceOnUse"
       y2="154.19772"
       x2="89.831696"
       y1="52.708382"
       x1="85.687943"
       id="linearGradient5349"
       xlink:href="#linearGradient5343" />
    <linearGradient
       id="linearGradient5252">
      <stop
         style="stop-color:#fed496;stop-opacity:1;"
         offset="0"
         id="stop5256" />
      <stop
         style="stop-color:#fcaf3e;stop-opacity:1;"
         offset="1"
         id="stop5254" />
    </linearGradient>
    <radialGradient
       gradientUnits="userSpaceOnUse"
       gradientTransform="matrix(2.9649475,0,0,2.798458,-168.66561,-93.568577)"
       r="53.630905"
       fy="52.854641"
       fx="85.837212"
       cy="52.854641"
       cx="85.837212"
       id="radialGradient5258"
       xlink:href="#linearGradient5252" />
    <linearGradient
       id="linearGradient5244">
      <stop
         id="stop5246"
         offset="0"
         style="stop-color:#f57900;stop-opacity:1;" />
      <stop
         id="stop5248"
         offset="1"
         style="stop-color:#be5d00;stop-opacity:1;" />
    </linearGradient>
    <linearGradient
       gradientUnits="userSpaceOnUse"
       y2="184.59053"
       x2="103.88659"
       y1="37.143745"
       x1="94.644783"
       id="linearGradient5250"
       xlink:href="#linearGradient5244" />
    <filter
       id="filter5232"
       height="2.8515742"
       y="-0.92578709"
       width="1.190117"
       x="-0.095058501">
      <feGaussianBlur
         id="feGaussianBlur5234"
         stdDeviation="8.8721264" />
    </filter>
    <filter
       height="1.5439744"
       y="-0.2719872"
       width="1.0558546"
       x="-0.027927255"
       id="filter5760">
      <feGaussianBlur
         id="feGaussianBlur5762"
         stdDeviation="2.6065439" />
    </filter>
    <radialGradient
       r="50.668388"
       fy="44.534161"
       fx="79.377068"
       cy="44.534161"
       cx="79.377068"
       gradientTransform="matrix(0.1980196,0,0,0.1904388,294.50053,214.06736)"
       gradientUnits="userSpaceOnUse"
       id="radialGradient10039"
       xlink:href="#linearGradient5402" />
    <radialGradient
       r="50.668388"
       fy="44.534161"
       fx="79.377068"
       cy="44.534161"
       cx="79.377068"
       gradientTransform="matrix(0.2527298,0,0,0.2430545,293.06756,169.79774)"
       gradientUnits="userSpaceOnUse"
       id="radialGradient10120"
       xlink:href="#linearGradient5402" />
    <linearGradient
       y2="45.930267"
       x2="30.840555"
       y1="23.197418"
       x1="30.7416"
       gradientTransform="matrix(0.7131359,0,-0.00310426,0.7398444,299.06585,164.5109)"
       gradientUnits="userSpaceOnUse"
       id="linearGradient10153"
       xlink:href="#linearGradient11223" />
    <linearGradient
       xlink:href="#linearGradient11223"
       id="linearGradient3948"
       gradientUnits="userSpaceOnUse"
       gradientTransform="matrix(0.646153,0,-0.00281268,0.671002,2.320937,4.636421)"
       x1="29.296146"
       y1="23.050772"
       x2="29.404421"
       y2="47.924393" />
    <radialGradient
       r="50.668388"
       fy="44.534161"
       fx="79.377068"
       cy="44.534161"
       cx="79.377068"
       gradientTransform="matrix(0.3446429,0,0,0.3314489,290.64326,116.83586)"
       gradientUnits="userSpaceOnUse"
       id="radialGradient11069"
       xlink:href="#linearGradient5402" />
    <radialGradient
       gradientUnits="userSpaceOnUse"
       gradientTransform="matrix(3.1664345,0,0,2.9768053,-23.374294,-36.321335)"
       r="3.1744459"
       fy="18.438032"
       fx="10.789291"
       cy="18.438032"
       cx="10.789291"
       id="radialGradient11189"
       xlink:href="#linearGradient5252" />
    <radialGradient
       gradientUnits="userSpaceOnUse"
       gradientTransform="matrix(2.4941586,0,0,2.3469628,-469.37458,-243.64069)"
       r="6.6103396"
       fy="181.81029"
       fx="314.13974"
       cy="181.81029"
       cx="314.13974"
       id="radialGradient11197"
       xlink:href="#linearGradient5252" />
    <radialGradient
       gradientUnits="userSpaceOnUse"
       gradientTransform="matrix(2.8946843,0,0,2.7262632,-30.275303,-38.952907)"
       r="5.8246169"
       fy="22.667664"
       fx="15.979075"
       cy="22.667664"
       cx="15.979075"
       id="radialGradient11205"
       xlink:href="#linearGradient5252" />
    <filter
       height="1.8313844"
       y="-0.41569221"
       width="1.0566853"
       x="-0.028342649"
       id="filter11277">
      <feGaussianBlur
         id="feGaussianBlur11279"
         stdDeviation="0.51961525" />
    </filter>
    <linearGradient
       gradientUnits="userSpaceOnUse"
       y2="20.377439"
       x2="15.982101"
       y1="32.205784"
       x1="16.282061"
       id="linearGradient8765"
       xlink:href="#linearGradient8751" />
    <linearGradient
       gradientUnits="userSpaceOnUse"
       y2="181.60797"
       x2="324.875"
       y1="197.10638"
       x1="324.875"
       id="linearGradient8773"
       xlink:href="#linearGradient8751" />
    <linearGradient
       gradientUnits="userSpaceOnUse"
       y2="17.912388"
       x2="10.790868"
       y1="24.860193"
       x1="10.790868"
       id="linearGradient8781"
       xlink:href="#linearGradient8751" />
    <filter
       height="3.037528"
       y="-1.018764"
       width="1.1389225"
       x="-0.069461182"
       id="filter3290">
      <feGaussianBlur
         id="feGaussianBlur3292"
         stdDeviation="1.273455" />
    </filter>
    <filter
       height="2.5573435"
       y="-0.7786718"
       width="1.1300185"
       x="-0.065009244"
       id="filter3301">
      <feGaussianBlur
         id="feGaussianBlur3303"
         stdDeviation="1.1051462" />
    </filter>
    <linearGradient
       y2="108.88097"
       x2="367.69171"
       y1="66.084328"
       x1="356.2244"
       gradientTransform="translate(-60)"
       gradientUnits="userSpaceOnUse"
       id="linearGradient3350"
       xlink:href="#linearGradient5244" />
    <linearGradient
       y2="24.250439"
       x2="21.898489"
       y1="41.57951"
       x1="21.898489"
       gradientTransform="matrix(1.566667,0,0,1.566667,267.08507,25.16008)"
       gradientUnits="userSpaceOnUse"
       id="linearGradient3352"
       xlink:href="#linearGradient8751" />
    <radialGradient
       r="8.803154"
       fy="27.925562"
       fx="21.080828"
       cy="27.925562"
       cx="21.080828"
       gradientTransform="matrix(4.3782515,0,0,4.1269482,207.81454,-48.389615)"
       gradientUnits="userSpaceOnUse"
       id="radialGradient3354"
       xlink:href="#linearGradient5252" />
    <linearGradient
       y2="64.619339"
       x2="23.020128"
       y1="27.42046"
       x1="22.858202"
       gradientTransform="matrix(1.0123066,0,-0.00440654,1.0512367,270.72121,32.423808)"
       gradientUnits="userSpaceOnUse"
       id="linearGradient3356"
       xlink:href="#linearGradient11223" />
    <radialGradient
       r="50.668388"
       fy="44.534161"
       fx="79.377068"
       cy="44.534161"
       cx="79.377068"
       gradientTransform="matrix(0.5111798,0,0,0.4916103,257.55424,38.311797)"
       gradientUnits="userSpaceOnUse"
       id="radialGradient3358"
       xlink:href="#linearGradient5402" />
    <linearGradient
       y2="88.944656"
       x2="311.875"
       y1="91.875"
       x1="311.875"
       gradientUnits="userSpaceOnUse"
       id="linearGradient3360"
       xlink:href="#linearGradient3305" />
    <filter
       height="2.018764"
       y="-0.50938201"
       width="1.0694612"
       x="-0.034730591"
       id="filter3369">
      <feGaussianBlur
         id="feGaussianBlur3371"
         stdDeviation="0.63672748" />
    </filter>
    <linearGradient
       gradientUnits="userSpaceOnUse"
       y2="36.035572"
       x2="20.111847"
       y1="19.542961"
       x1="14.110614"
       id="linearGradient3387"
       xlink:href="#linearGradient5244" />
    <linearGradient
       y2="88.944656"
       x2="311.875"
       y1="91.875"
       x1="311.875"
       gradientUnits="userSpaceOnUse"
       id="linearGradient3391"
       xlink:href="#linearGradient3305" />
    <filter
       height="2.5497029"
       y="-0.77485144"
       width="1.1056616"
       x="-0.052830782"
       id="filter3395">
      <feGaussianBlur
         id="feGaussianBlur3397"
         stdDeviation="0.9685643" />
    </filter>
  </defs>
  <g
     transform="translate(-16,-28)"
     style="display:inline"
     id="layer1">
    <g
       style="display:none"
       id="layer6">
      <rect
         y="50"
         x="296"
         width="48"
         style="display:inline;overflow:visible;visibility:visible;fill:#eeeeec;fill-opacity:1;fill-rule:nonzero;stroke:none;stroke-width:2;marker:none;enable-background:accumulate"
         id="rect6284"
         height="48" />
      <rect
         y="126"
         x="303"
         width="32"
         style="display:inline;overflow:visible;visibility:visible;fill:#eeeeec;fill-opacity:1;fill-rule:nonzero;stroke:none;stroke-width:2;marker:none;enable-background:accumulate"
         id="rect6592"
         height="32" />
      <rect
         y="177"
         x="303"
         width="22"
         style="display:inline;overflow:visible;visibility:visible;fill:#eeeeec;fill-opacity:1;fill-rule:nonzero;stroke:none;stroke-width:2;marker:none;enable-background:accumulate"
         id="rect6749"
         height="22" />
      <rect
         y="219"
         x="303"
         width="16"
         style="display:inline;overflow:visible;visibility:visible;fill:#eeeeec;fill-opacity:1;fill-rule:nonzero;stroke:none;stroke-width:2;marker:none;enable-background:accumulate"
         id="rect6833"
         height="16" />
      <rect
         y="176"
         x="302"
         width="24"
         style="display:inline;overflow:visible;visibility:visible;fill:#eeeeec;fill-opacity:1;fill-rule:nonzero;stroke:none;stroke-width:2;marker:none;enable-background:accumulate"
         id="rect8104"
         height="24" />
      <rect
         y="28"
         x="16"
         width="256"
         style="display:inline;overflow:visible;visibility:visible;fill:#eeeeec;fill-opacity:1;fill-rule:nonzero;stroke:none;stroke-width:2;marker:none;enable-background:accumulate"
         id="rect6282"
         height="256" />
      <text
         y="21.513618"
         xml:space="preserve"
         x="20.970737"
         style="font-style:normal;font-weight:normal;line-height:0%;font-family:'Bitstream Vera Sans';display:inline;fill:#000000;fill-opacity:1;stroke:none;enable-background:new"
         id="context"><tspan
           style="font-size:18.30070686px;line-height:1.25"
           y="21.513618"
           x="20.970737"
           id="tspan2716">status</tspan></text>
      <text
         y="21.513618"
         xml:space="preserve"
         x="191.97073"
         style="font-style:normal;font-variant:normal;font-weight:bold;font-stretch:normal;line-height:0%;font-family:'Droid Sans';-inkscape-font-specification:'Droid Sans Bold';text-align:start;writing-mode:lr-tb;text-anchor:start;display:inline;fill:#000000;fill-opacity:1;stroke:none;enable-background:new"
         id="icon-name"><tspan
           style="font-size:18.30070686px;line-height:1.25"
           y="21.513618"
           x="191.97073"
           id="tspan3023">dialog-warning</tspan></text>
    </g>
    <g
       style="display:inline"
       id="layer2">
      <g
         transform="translate(303,219)"
         id="g10021"
         style="display:inline;enable-background:new">
        <g
           transform="matrix(1.566667,0,0,1.566667,-8.925566,-23.94764)"
           id="g7435">
          <path
             style="fill:#f57900;fill-opacity:1;fill-rule:nonzero;stroke:url(#linearGradient8781);stroke-width:0.63829827;stroke-miterlimit:4;stroke-dasharray:none;stroke-opacity:1"
             d="m 15.471133,23.595538 -4.12134,-7.658602 c -0.11846,-0.212739 -0.33281,-0.330928 -0.571529,-0.330928 -0.238721,0 -0.45417,0.141825 -0.57443,0.354565 l -4.0906492,7.658605 c -0.096288,0.1891 -0.097388,0.449115 0.021172,0.638216 0.11856,0.189101 0.3091368,0.283651 0.5478575,0.283651 h 8.2119887 c 0.238721,0 0.45407,-0.118187 0.550358,-0.307289 0.120159,-0.189102 0.121161,-0.425478 0.02657,-0.638218 z"
             id="path10024" />
          <path
             id="path10026"
             d="m 7.6410107,23.351404 c -0.065156,0.107061 -8.251e-4,0.192711 0.1070048,0.192711 h 6.0816025 c 0.107831,0 0.172895,-0.08565 0.108657,-0.192711 l -3.05955,-5.695667 c -0.06424,-0.107061 -0.150502,-0.107061 -0.194093,0 z"
             style="fill:url(#radialGradient11189);fill-opacity:1;fill-rule:nonzero;stroke:none;stroke-miterlimit:4" />
          <path
             id="path10028"
             d="m 10.643864,21.654268 -0.477527,-2.541964 1.273689,0.005 -0.4875,2.539377 z"
             style="fill:#121312;fill-opacity:1;fill-rule:nonzero;stroke:none;stroke-width:2.46129537;stroke-miterlimit:4" />
          <rect
             style="opacity:1;fill:#000000;fill-opacity:1;stroke:none;stroke-width:1;stroke-linecap:square;stroke-linejoin:round;stroke-miterlimit:4;stroke-dasharray:none;stroke-dashoffset:1.20000052;stroke-opacity:1"
             id="rect1906"
             width="1.276596"
             height="0.69300079"
             x="10.165255"
             y="22.306999"
             rx="0"
             ry="0" />
        </g>
      </g>
      <path
         style="display:inline;opacity:0.47126435;fill:url(#radialGradient10039);fill-opacity:1;fill-rule:nonzero;stroke:none;stroke-width:0.63829809;stroke-miterlimit:4;stroke-dasharray:none;stroke-opacity:1;enable-background:new"
         d="m 310.93619,219.78214 c -0.38671,0 -0.73513,0.23211 -0.92994,0.58067 l -5.66799,10.73005 11.76098,-2.80664 -4.23732,-7.96338 c -0.1919,-0.34856 -0.53901,-0.5407 -0.92573,-0.5407 z"
         id="path10037" />
      <g
         transform="translate(0,0.1325825)"
         style="opacity:0.4"
         id="g10953" />
      <path
         style="display:inline;opacity:0.1;fill:#000000;fill-opacity:1;fill-rule:nonzero;stroke:#000000;stroke-width:1.00000024;stroke-miterlimit:4;stroke-dasharray:none;stroke-opacity:1;enable-background:new"
         d="m 324.33756,196.52932 -8.97696,-16.82114 c -0.25803,-0.46725 -0.72492,-0.72684 -1.24489,-0.72684 -0.51997,0 -0.98926,0.31151 -1.2512,0.77876 l -8.91011,16.82114 c -0.20974,0.41533 -0.21213,0.98642 0.0461,1.40176 0.25825,0.41534 0.67335,0.623 1.19333,0.623 h 17.88707 c 0.51997,0 0.98904,-0.25958 1.19877,-0.67492 0.26173,-0.41534 0.26391,-0.93451 0.0579,-1.40176 z"
         id="path11291" />
      <path
         style="display:inline;opacity:0.15;fill:#000000;fill-opacity:1;fill-rule:nonzero;stroke:#000000;stroke-width:1.00000024;stroke-miterlimit:4;stroke-dasharray:none;stroke-opacity:1;enable-background:new"
         d="m 324.33756,195.52932 -8.97696,-16.82114 c -0.25803,-0.46725 -0.72492,-0.72684 -1.24489,-0.72684 -0.51997,0 -0.98926,0.31151 -1.2512,0.77876 l -8.91011,16.82114 c -0.20974,0.41533 -0.21213,0.98642 0.0461,1.40176 0.25825,0.41534 0.67335,0.623 1.19333,0.623 h 17.88707 c 0.51997,0 0.98904,-0.25958 1.19877,-0.67492 0.26173,-0.41534 0.26391,-0.93451 0.0579,-1.40176 z"
         id="path11289" />
      <path
         style="fill:#f57900;fill-opacity:1;fill-rule:nonzero;stroke:url(#linearGradient8773);stroke-width:1.00000024;stroke-miterlimit:4;stroke-dasharray:none;stroke-opacity:1"
         d="m 324.33756,194.52932 -8.97696,-16.82114 c -0.25803,-0.46725 -0.72492,-0.72684 -1.24489,-0.72684 -0.51997,0 -0.98926,0.31151 -1.2512,0.77876 l -8.91011,16.82114 c -0.20974,0.41533 -0.21213,0.98642 0.0461,1.40176 0.25825,0.41534 0.67335,0.623 1.19333,0.623 h 17.88707 c 0.51997,0 0.98904,-0.25958 1.19877,-0.67492 0.26173,-0.41534 0.26391,-0.93451 0.0579,-1.40176 z"
         id="path10109" />
      <path
         id="path10111"
         d="m 307.58389,193.60007 c -0.13568,0.22314 -0.002,0.40166 0.22282,0.40166 h 12.66409 c 0.22454,0 0.36003,-0.17852 0.22626,-0.40166 l -6.37109,-11.87143 c -0.13376,-0.22315 -0.3134,-0.22315 -0.40417,0 z"
         style="fill:url(#radialGradient11197);fill-opacity:1;fill-rule:nonzero;stroke:none;stroke-miterlimit:4" />
      <path
         style="opacity:0.7;fill:none;fill-opacity:1;fill-rule:nonzero;stroke:url(#linearGradient10153);stroke-width:1.00000024;stroke-miterlimit:4;stroke-dasharray:none;stroke-opacity:1"
         d="m 322.91893,193.8044 -8.00671,-14.93763 c -0.34099,-0.6454 -0.28652,-0.85247 -0.80474,-0.85247 -0.44572,0 -0.50215,0.30157 -0.82424,0.91078 l -7.91784,14.92556 c -0.45977,0.84046 -0.73,1.14793 -0.5087,1.51785 0.2213,0.36992 0.54964,0.26139 1.59951,0.28552 h 15.56203 c 0.97742,0.0121 1.19759,0.0261 1.37743,-0.34382 0.2244,-0.36993 -0.0478,-0.7518 -0.47674,-1.50579 z"
         id="path1325" />
      <g
         style="fill:#121312;fill-opacity:1;fill-rule:nonzero;stroke:#000000;stroke-width:1.76948965;stroke-miterlimit:4"
         transform="matrix(0.5034939,0,0,0.4796868,302.07132,175.63768)"
         id="g10114">
        <path
           style="fill:#121312;fill-opacity:1;stroke:none"
           d="m 23.9,36.5 c -1.3,0 -2.3,-1 -2.3,-2.3 0,-1.4 0.9,-2.3 2.3,-2.3 1.4,0 2.2,0.9 2.3,2.3 0,1.3 -0.9,2.3 -2.3,2.3 z M 23.167629,29.066754 21.9,19.1 h 4 l -1.267629,11.609518 z"
           id="path10116" />
      </g>
      <path
         style="display:inline;opacity:0.47126435;fill:url(#radialGradient10120);fill-opacity:1;fill-rule:nonzero;stroke:none;stroke-width:0.63829809;stroke-miterlimit:4;stroke-dasharray:none;stroke-opacity:1;enable-background:new"
         d="m 314.04417,177.09144 c -0.49355,0 -0.93824,0.29624 -1.18687,0.7411 l -7.23398,13.69462 15.01038,-3.58208 -5.40803,-10.16355 c -0.24492,-0.44486 -0.68794,-0.69009 -1.1815,-0.69009 z"
         id="path10118" />
      <g
         transform="translate(0,-9.8477183)"
         id="g3399">
        <rect
           style="display:inline;opacity:0.3;fill:#000000;fill-opacity:1;stroke:none;stroke-width:1;stroke-linecap:round;stroke-linejoin:miter;stroke-miterlimit:4;stroke-dasharray:none;stroke-opacity:1;filter:url(#filter11277);enable-background:new"
           id="rect11281"
           width="44"
           height="3"
           x="298"
           y="91"
           rx="3.25"
           ry="1.5"
           transform="matrix(0.6705525,0,0,0.89407,104.45092,80.152071)" />
        <rect
           style="display:inline;opacity:0.5;fill:#000000;fill-opacity:1;stroke:none;stroke-width:1;stroke-linecap:round;stroke-linejoin:miter;stroke-miterlimit:4;stroke-dasharray:none;stroke-opacity:1;filter:url(#filter3395);enable-background:new"
           id="rect11283"
           width="44"
           height="3"
           x="298"
           y="91"
           rx="3.25"
           ry="1.5"
           transform="matrix(0.6705525,0,0,1.0617081,104.45092,64.468768)" />
      </g>
      <g
         transform="translate(302.917,124.9919)"
         id="g11039">
        <g
           transform="matrix(1.566667,0,0,1.566667,-8.925566,-23.94764)"
           id="g11041">
          <g
             style="display:inline"
             transform="matrix(0.00997958,0,0,0.00919818,24.80809,31.71552)"
             id="g6707" />
          <g
             id="g3952"
             transform="matrix(0.00997958,0,0,0.00919818,24.80809,31.71552)"
             style="display:inline" />
          <path
             style="fill:url(#linearGradient3387);fill-opacity:1;fill-rule:nonzero;stroke:url(#linearGradient8765);stroke-width:0.63829792;stroke-miterlimit:4;stroke-dasharray:none;stroke-opacity:1"
             d="m 24.964759,31.668454 -7.909937,-14.83484 c -0.227356,-0.412079 -0.638748,-0.641011 -1.096915,-0.641011 -0.458168,0 -0.871671,0.274718 -1.102481,0.686797 L 7.0043917,31.714242 c -0.1848027,0.366292 -0.1869138,0.869944 0.040635,1.236236 0.2275479,0.366292 0.5933149,0.549438 1.0514829,0.549438 H 23.857479 c 0.458167,0 0.871478,-0.228932 1.056282,-0.595225 0.230618,-0.366292 0.232537,-0.824157 0.051,-1.236237 z"
             id="path11057" />
          <path
             id="path11059"
             d="m 10.202469,30.848938 c -0.119551,0.196797 -0.0015,0.354235 0.196337,0.354235 h 11.158801 c 0.197852,0 0.317235,-0.157438 0.199366,-0.354235 L 16.143175,20.379324 c -0.11787,-0.196797 -0.27615,-0.196797 -0.356132,0 z"
             style="fill:url(#radialGradient11205);fill-opacity:1;fill-rule:nonzero;stroke:none;stroke-miterlimit:4" />
          <path
             style="opacity:0.7;fill:none;fill-opacity:1;fill-rule:nonzero;stroke:url(#linearGradient3948);stroke-width:0.63829798;stroke-miterlimit:4;stroke-dasharray:none;stroke-opacity:1"
             d="M 24.093759,31.20417 16.839094,17.616404 c -0.30897,-0.585346 -0.41979,-0.773148 -0.889336,-0.773148 -0.403847,0 -0.615151,0.273509 -0.906991,0.826028 L 7.8686237,31.246108 c -0.4165882,0.762259 -0.4612219,0.960952 -0.260705,1.296452 0.2005156,0.335501 0.4579683,0.317228 1.4092315,0.339113 H 23.117497 c 0.885609,0.01094 1.085099,-0.05649 1.248045,-0.391993 0.203329,-0.335501 0.116844,-0.601681 -0.271783,-1.28551 z"
             id="path11061" />
          <g
             style="fill:#121312;fill-opacity:1;fill-rule:nonzero;stroke:#000000;stroke-width:1.48204494;stroke-miterlimit:4"
             transform="matrix(0.371688,0,0,0.377392,7.064967,16.27672)"
             id="g11063">
            <path
               style="fill:#121312;fill-opacity:1;stroke:none"
               d="m 23.9,36.5 c -1.3,0 -2.3,-1 -2.3,-2.3 0,-1.4 0.9,-2.3 2.3,-2.3 1.4,0 2.2,0.9 2.3,2.3 0,1.3 -0.9,2.3 -2.3,2.3 z M 23.167629,29.066754 21.9,19.1 h 4 l -1.267629,11.609518 z"
               id="path11065" />
          </g>
        </g>
      </g>
      <path
         style="display:inline;opacity:0.47126435;fill:url(#radialGradient11069);fill-opacity:1;fill-rule:nonzero;stroke:none;stroke-width:0.63829809;stroke-miterlimit:4;stroke-dasharray:none;stroke-opacity:1;enable-background:new"
         d="m 319.24867,126.78214 c -0.67305,0 -1.27946,0.40398 -1.61851,1.01062 l -9.86485,18.6751 20.46938,-4.88482 -7.37483,-13.85984 c -0.334,-0.60664 -0.93813,-0.94106 -1.61119,-0.94106 z"
         id="path11067" />
      <rect
         transform="matrix(1,0,0,0.8333333,0,16.291667)"
         ry="1.5"
         rx="3.25"
         y="91"
         x="298"
         height="3"
         width="44"
         id="rect11249"
         style="opacity:0.5;fill:#000000;fill-opacity:1;stroke:none;stroke-width:1;stroke-linecap:round;stroke-linejoin:miter;stroke-miterlimit:4;stroke-dasharray:none;stroke-opacity:1;filter:url(#filter3290)" />
      <g
         style="display:inline"
         transform="matrix(0.02362979,0,0,0.02179773,341.01717,89.321893)"
         id="g11139" />
      <g
         id="g11147"
         transform="matrix(0.02362979,0,0,0.02179773,341.01717,89.321893)"
         style="display:inline" />
      <rect
         transform="matrix(1,0,0,0.8333333,0,16.291667)"
         ry="1.5"
         rx="3.25"
         y="91"
         x="298"
         height="3"
         width="44"
         id="rect3363"
         style="display:inline;opacity:0.3;fill:#000000;fill-opacity:1;stroke:none;stroke-width:1;stroke-linecap:round;stroke-linejoin:miter;stroke-miterlimit:4;stroke-dasharray:none;stroke-opacity:1;filter:url(#filter3369);enable-background:new" />
      <g
         transform="translate(20)"
         id="g3340">
        <path
           id="path11155"
           d="M 321.38815,89.210357 302.65888,54.054926 c -0.53833,-0.976539 -1.51244,-1.51906 -2.59729,-1.51906 -1.08486,0 -2.06395,0.651023 -2.61047,1.627565 l -18.5898,35.155432 c -0.43757,0.868035 -0.44257,2.061583 0.0962,2.929619 0.53879,0.868035 1.40486,1.302052 2.48972,1.302052 h 37.31905 c 1.08486,0 2.0635,-0.542521 2.50108,-1.410558 0.54606,-0.868035 0.55061,-1.953078 0.12076,-2.929619 z"
           style="fill:url(#linearGradient3350);fill-opacity:1;fill-rule:nonzero;stroke:url(#linearGradient3352);stroke-width:1.0000006;stroke-miterlimit:4;stroke-dasharray:none;stroke-opacity:1" />
        <path
           style="fill:url(#radialGradient3354);fill-opacity:1;fill-rule:nonzero;stroke:none;stroke-miterlimit:4"
           d="m 286.43378,87.268257 c -0.28308,0.466367 -0.004,0.839463 0.46489,0.839463 h 26.42196 c 0.46848,0 0.75116,-0.373096 0.47207,-0.839463 l -13.29244,-24.81076 c -0.27909,-0.466367 -0.65387,-0.466367 -0.84325,0 z"
           id="path11157" />
        <path
           id="path11159"
           d="M 319.70872,88.410306 302.18855,55.566874 c -0.74617,-1.414858 -1.01381,-1.868802 -2.14777,-1.868802 -0.9753,0 -1.4856,0.661109 -2.1904,1.99662 l -17.32571,32.816985 c -1.00607,1.84248 -1.11386,2.322747 -0.62961,3.133696 0.48425,0.810951 1.10601,0.766782 3.40333,0.81968 h 34.05263 c 2.13877,0.02645 2.62054,-0.136549 3.01406,-0.947497 0.49104,-0.810952 0.28218,-1.454343 -0.65636,-3.10725 z"
           style="opacity:0.7;fill:none;fill-opacity:1;fill-rule:nonzero;stroke:url(#linearGradient3356);stroke-width:1.00000072;stroke-miterlimit:4;stroke-dasharray:none;stroke-opacity:1" />
        <g
           id="g11161"
           transform="matrix(0.8800893,0,0,0.8943381,279.00476,52.735221)"
           style="fill:#121312;fill-opacity:1;fill-rule:nonzero;stroke:#000000;stroke-width:0.98018837;stroke-miterlimit:4">
          <path
             id="path11163"
             d="m 23.9,36.5 c -1.3,0 -2.3,-1 -2.3,-2.3 0,-1.4 0.9,-2.3 2.3,-2.3 1.4,0 2.2,0.9 2.3,2.3 0,1.3 -0.9,2.3 -2.3,2.3 z M 23.167629,29.066754 21.9,19.1 h 4 l -1.267629,11.609518 z"
             style="fill:#121312;fill-opacity:1;stroke:none" />
        </g>
        <path
           id="path11179"
           d="m 299.98224,53.06428 c -0.99828,0 -1.89772,0.599185 -2.40061,1.498974 l -14.63169,27.699199 30.3605,-7.245235 -10.93847,-20.557139 c -0.49537,-0.899788 -1.39144,-1.395799 -2.38973,-1.395799 z"
           style="display:inline;opacity:0.47126435;fill:url(#radialGradient3358);fill-opacity:1;fill-rule:nonzero;stroke:none;stroke-width:0.63829809;stroke-miterlimit:4;stroke-dasharray:none;stroke-opacity:1;enable-background:new" />
        <path
           style="display:inline;opacity:0.4;fill:url(#linearGradient3360);fill-opacity:1;fill-rule:nonzero;stroke:none;stroke-width:0.63829809;stroke-miterlimit:4;stroke-dasharray:none;stroke-opacity:1;filter:url(#filter3301);enable-background:new"
           d="m 339.9375,88.96875 c -0.26945,0.24808 -0.68006,0.406251 -1.15625,0.40625 H 301.4375 c -0.49851,0 -0.82815,-0.117108 -1.09375,-0.34375 l -0.4375,0.8125 c -0.2418,0.47964 -0.21806,1.29799 0.0625,1.75 0.35173,0.56668 0.71274,0.78125 1.46875,0.78125 h 37.34375 c 0.68504,0 1.22624,-0.36218 1.4375,-0.78125 0.0307,-0.03453 0.0592,-0.06306 0.0937,-0.09375 0.30221,-0.4804 0.30413,-1.12157 0,-1.8125 z"
           id="path3296"
           transform="matrix(1,0,0,1.2201835,-20,-20.33945)" />
      </g>
      <path
         style="display:inline;opacity:0.4;fill:url(#linearGradient3391);fill-opacity:1;fill-rule:nonzero;stroke:none;stroke-width:0.63829809;stroke-miterlimit:4;stroke-dasharray:none;stroke-opacity:1;filter:url(#filter3301);enable-background:new"
         d="m 339.9375,88.96875 c -0.26945,0.24808 -0.68006,0.406251 -1.15625,0.40625 H 301.4375 c -0.49851,0 -0.82815,-0.117108 -1.09375,-0.34375 l -0.4375,0.8125 c -0.2418,0.47964 -0.21806,1.29799 0.0625,1.75 0.35173,0.56668 0.71274,0.78125 1.46875,0.78125 h 37.34375 c 0.68504,0 1.22624,-0.36218 1.4375,-0.78125 0.0307,-0.03453 0.0592,-0.06306 0.0937,-0.09375 0.30221,-0.4804 0.30413,-1.12157 0,-1.8125 z"
         id="path3389"
         transform="matrix(0.6691729,0,0,0.8165138,104.911,76.949541)" />
    </g>
    <g
       style="display:inline"
       id="layer4">
      <g
         id="g9958"
         transform="matrix(1.566667,0,0,1.566667,9.244317,10.530731)">
        <rect
           ry="12.78972"
           rx="12.037382"
           transform="matrix(0.6098021,0,0,0.5739318,9.3160883,25.010383)"
           y="209"
           x="15"
           height="23"
           width="224"
           id="rect5125"
           style="display:block;overflow:visible;visibility:visible;opacity:0.65517243;fill:#000000;fill-opacity:1;fill-rule:nonzero;stroke:none;stroke-width:2;stroke-linecap:butt;stroke-linejoin:miter;stroke-miterlimit:10;stroke-dasharray:none;stroke-dashoffset:0;stroke-opacity:1;marker:none;marker-start:none;marker-mid:none;marker-end:none;filter:url(#filter5760);enable-background:accumulate" />
        <rect
           style="display:block;overflow:visible;visibility:visible;opacity:0.65517243;fill:#000000;fill-opacity:1;fill-rule:nonzero;stroke:none;stroke-width:2;stroke-linecap:butt;stroke-linejoin:miter;stroke-miterlimit:10;stroke-dasharray:none;stroke-dashoffset:0;stroke-opacity:1;marker:none;marker-start:none;marker-mid:none;marker-end:none;filter:url(#filter5232);enable-background:accumulate"
           id="rect4573"
           width="224"
           height="23"
           x="15"
           y="209"
           transform="matrix(0.6382976,0,0,0.6007511,5.6971683,21.011632)"
           rx="11.5"
           ry="12.21875" />
        <path
           style="fill:url(#linearGradient5250);fill-opacity:1;fill-rule:nonzero;stroke:none;stroke-width:0.63829809;stroke-miterlimit:4;stroke-dasharray:none;stroke-opacity:1"
           d="M 157.74232,141.64108 94.445558,22.674116 c -1.819338,-3.304637 -5.111378,-5.140544 -8.777713,-5.140544 -3.666345,0 -6.975264,2.203083 -8.822251,5.507725 L 14.020183,142.00827 c -1.478824,2.93745 -1.495718,6.97645 0.325169,9.91391 1.82088,2.93745 4.747814,4.40618 8.414159,4.40618 H 148.88167 c 3.66633,0 6.97372,-1.83591 8.45255,-4.77337 1.84545,-2.93746 1.86081,-6.60927 0.4081,-9.91391 z"
           id="path6485" />
        <path
           id="path6496"
           d="m 32.648373,137.43821 c -1.100791,1.81602 -0.01394,3.26877 1.80779,3.26877 H 137.20227 c 1.82173,0 2.92094,-1.45275 1.83571,-3.26877 L 87.348188,40.830157 c -1.085303,-1.815941 -2.542684,-1.815941 -3.279133,0 z"
           style="fill:url(#radialGradient5258);fill-opacity:1;fill-rule:nonzero;stroke:none;stroke-miterlimit:4" />
        <g
           style="fill:#121312;fill-opacity:1;fill-rule:nonzero;stroke:#000000;stroke-width:0.18500587;stroke-miterlimit:4"
           transform="matrix(2.9743185,0,0,3.0264653,14.504915,17.569898)"
           id="g6498">
          <path
             style="fill:#121312;fill-opacity:1;stroke:none"
             d="m 23.9,36.5 c -1.3,0 -2.3,-1 -2.3,-2.3 0,-1.4 0.9,-2.3 2.3,-2.3 1.4,0 2.2,0.9 2.3,2.3 0,1.3 -0.9,2.3 -2.3,2.3 z M 23.167629,29.066754 21.9,19.1 h 4 l -1.267629,11.609518 z"
             id="path6500" />
        </g>
        <path
           style="fill:url(#linearGradient5349);fill-opacity:1;fill-rule:nonzero;stroke:none;stroke-width:0.63829809;stroke-miterlimit:4;stroke-dasharray:none;stroke-opacity:1;filter:url(#filter5339)"
           d="m 85.500504,18.317748 c -3.610553,0 -6.863448,2.167196 -8.682331,5.421545 L 14.941842,140.89172 c -0.915744,1.819 -1.25767,4.06986 -0.942866,6.20728 0.157848,-1.08515 0.473417,-2.13184 0.942866,-3.06434 L 76.818173,26.882219 c 1.818883,-3.254347 5.071778,-5.421544 8.682331,-5.421544 3.610545,0 6.851388,1.793976 8.643044,5.048329 L 156.49131,143.68113 c 0.43615,0.99206 0.72664,2.01615 0.88398,3.04477 0.30705,-2.03448 0.002,-4.17309 -0.88398,-6.18771 L 94.143548,23.366075 c -1.791656,-3.254347 -5.032499,-5.048327 -8.643044,-5.048327 z"
           id="path5262"
           transform="matrix(0.955552,0,0,0.955552,3.808628,3.0378953)" />
        <path
           style="display:block;overflow:visible;visibility:visible;opacity:0.28160921;fill:#ffffff;fill-opacity:1;fill-rule:nonzero;stroke:none;stroke-width:2;stroke-linecap:butt;stroke-linejoin:miter;stroke-miterlimit:10;stroke-dasharray:none;stroke-dashoffset:0;stroke-opacity:1;marker:none;marker-start:none;marker-mid:none;marker-end:none;filter:url(#filter5393);enable-background:accumulate"
           d="m 30,218 h 196 l 11,-13 -13,8 -206.627418,1 z"
           id="path5351"
           transform="matrix(0.6382977,0,0,0.6382977,5.6971686,15.285724)" />
        <path
           style="opacity:0.47126435;fill:url(#radialGradient5408);fill-opacity:1;fill-rule:nonzero;stroke:none;stroke-width:0.63829809;stroke-miterlimit:4;stroke-dasharray:none;stroke-opacity:1"
           d="m 85.761126,20.695974 c -3.269116,0 -6.214391,1.962248 -7.861263,4.908849 L 29.985275,116.31167 129.40716,92.585631 93.586819,25.266891 c -1.622225,-2.94659 -4.556579,-4.570917 -7.825693,-4.570917 z"
           id="path5397" />
        <path
           id="path5410"
           d="m 85.500504,18.317748 c -3.610553,0 -6.863448,2.167196 -8.682331,5.421545 L 14.941842,140.89172 c -0.915744,1.819 -1.25767,4.06986 -0.942866,6.20728 0.157848,-1.08515 0.473417,-2.13184 0.942866,-3.06434 L 76.818173,26.882219 c 1.818883,-3.254347 5.071778,-5.421544 8.682331,-5.421544 3.610545,0 6.851388,1.793976 8.643044,5.048329 L 156.49131,143.68113 c 0.43615,0.99206 0.72664,2.01615 0.88398,3.04477 0.30705,-2.03448 0.002,-4.17309 -0.88398,-6.18771 L 94.143548,23.366075 c -1.791656,-3.254347 -5.032499,-5.048327 -8.643044,-5.048327 z"
           style="fill:url(#linearGradient5551);fill-opacity:1;fill-rule:nonzero;stroke:none;stroke-width:0.63829809;stroke-miterlimit:4;stroke-dasharray:none;stroke-opacity:1;filter:url(#filter5468)"
           transform="matrix(0.955552,0,0,0.955552,3.808628,3.0378953)" />
      </g>
    </g>
    <g
       transform="translate(20,30)"
       style="display:inline;enable-background:new"
       id="g256" />
    <g
       transform="translate(-577.97771,370.7754)"
       style="display:inline;enable-background:new"
       id="g4021" />
    <g
       style="enable-background:new"
       id="g10306"
       transform="translate(-457.73144,-1.374928)">
      <g
         style="display:none"
         id="layer3">
        <rect
           y="20"
           x="20"
           height="256"
           width="256"
           id="rect6282-8"
           style="display:inline;overflow:visible;visibility:visible;fill:#eeeeec;fill-opacity:1;fill-rule:nonzero;stroke:none;stroke-width:2;marker:none;enable-background:accumulate" />
        <rect
           style="display:inline;overflow:visible;visibility:visible;fill:#eeeeec;fill-opacity:1;fill-rule:nonzero;stroke:none;stroke-width:2;marker:none;enable-background:accumulate"
           id="rect6284-8"
           width="48"
           height="48"
           x="296.0625"
           y="39.99633" />
        <rect
           y="115.99633"
           x="303"
           height="32"
           width="32"
           id="rect6592-5"
           style="display:inline;overflow:visible;visibility:visible;fill:#eeeeec;fill-opacity:1;fill-rule:nonzero;stroke:none;stroke-width:2;marker:none;enable-background:accumulate" />
        <rect
           style="display:inline;overflow:visible;visibility:visible;fill:#eeeeec;fill-opacity:1;fill-rule:nonzero;stroke:none;stroke-width:2;marker:none;enable-background:accumulate"
           id="rect6749-0"
           width="22"
           height="22"
           x="303"
           y="167.05884" />
        <rect
           y="209"
           x="303"
           height="16"
           width="16"
           id="rect6833-9"
           style="display:inline;overflow:visible;visibility:visible;fill:#eeeeec;fill-opacity:1;fill-rule:nonzero;stroke:none;stroke-width:2;marker:none;enable-background:accumulate" />
        <rect
           y="165.95343"
           x="301.95709"
           height="24"
           width="24"
           id="rect5028"
           style="display:inline;overflow:visible;visibility:visible;fill:#eeeeec;fill-opacity:1;fill-rule:nonzero;stroke:none;stroke-width:2;marker:none;enable-background:accumulate" />
      </g>
      <g
         style="display:inline"
         id="layer1-6">
        <rect
           y="171.59863"
           x="23.5"
           height="256"
           width="256"
           id="256x256"
           style="display:none;overflow:visible;visibility:visible;fill:#eeeeec;fill-opacity:1;fill-rule:nonzero;stroke:none;stroke-width:5;marker:none;enable-background:accumulate" />
        <rect
           style="display:none;overflow:visible;visibility:visible;fill:#eeeeec;fill-opacity:1;fill-rule:nonzero;stroke:none;stroke-width:5;marker:none;enable-background:accumulate"
           id="48x48"
           width="48"
           height="48"
           x="-38.5"
           y="171.59863" />
        <rect
           y="171.59863"
           x="-123.5"
           height="24"
           width="24"
           id="24x24"
           style="display:none;overflow:visible;visibility:visible;fill:#eeeeec;fill-opacity:1;fill-rule:nonzero;stroke:none;stroke-width:5;marker:none;enable-background:accumulate" />
        <rect
           style="display:none;overflow:visible;visibility:visible;fill:#eeeeec;fill-opacity:1;fill-rule:nonzero;stroke:none;stroke-width:5;marker:none;enable-background:accumulate"
           id="16x16"
           width="16"
           height="16"
           x="-155.5"
           y="171.59863" />
        <rect
           style="display:none;overflow:visible;visibility:visible;fill:#eeeeec;fill-opacity:1;fill-rule:nonzero;stroke:none;stroke-width:5;marker:none;enable-background:accumulate"
           id="32x32"
           width="32"
           height="32"
           x="-87.5"
           y="171.59863" />
      </g>
    </g>
    <g
       transform="translate(-393,-62.246031)"
       style="display:inline;enable-background:new"
       id="g4445" />
    <g
       transform="translate(-364.39697,166.26869)"
       style="display:inline;enable-background:new"
       id="g5542" />
  </g>
</svg>
