<?xml version="1.0" encoding="UTF-8" standalone="no"?>
<svg
   xmlns:dc="http://purl.org/dc/elements/1.1/"
   xmlns:cc="http://creativecommons.org/ns#"
   xmlns:rdf="http://www.w3.org/1999/02/22-rdf-syntax-ns#"
   xmlns:svg="http://www.w3.org/2000/svg"
   xmlns="http://www.w3.org/2000/svg"
   xmlns:xlink="http://www.w3.org/1999/xlink"
   width="16"
   version="1.0"
   style="display:inline;enable-background:new"
   id="svg11300"
   height="16">
  <title
     id="title8836">Optical Drive</title>
  <metadata
     id="metadata154">
    <rdf:RDF>
      <cc:Work
         rdf:about="">
        <dc:format>image/svg+xml</dc:format>
        <dc:type
           rdf:resource="http://purl.org/dc/dcmitype/StillImage" />
        <dc:title />
        <dc:creator>
          <cc:Agent>
            <dc:title />
          </cc:Agent>
        </dc:creator>
        <dc:contributor>
          <cc:Agent>
            <dc:title />
          </cc:Agent>
        </dc:contributor>
        <dc:source />
        <cc:license
           rdf:resource="" />
        <dc:subject>
          <rdf:Bag />
        </dc:subject>
      </cc:Work>
    </rdf:RDF>
  </metadata>
  <defs
     id="defs3">
    <linearGradient
       id="linearGradient6868">
      <stop
         style="stop-color:#787a73;stop-opacity:1"
         offset="0"
         id="stop6870" />
      <stop
         style="stop-color:#a6a7a5;stop-opacity:1"
         offset="1"
         id="stop6872" />
    </linearGradient>
    <linearGradient
       id="linearGradient6997">
      <stop
         style="stop-color:#ebedea;stop-opacity:1"
         offset="0"
         id="stop6999" />
      <stop
         style="stop-color:#ccd2c8;stop-opacity:1"
         offset="1"
         id="stop7001" />
    </linearGradient>
    <linearGradient
       id="linearGradient6957">
      <stop
         style="stop-color:#000000;stop-opacity:1;"
         offset="0"
         id="stop6959" />
      <stop
         style="stop-color:#000000;stop-opacity:0;"
         offset="1"
         id="stop6961" />
    </linearGradient>
    <radialGradient
       xlink:href="#linearGradient6957"
       r="6.3620529"
       id="radialGradient6963"
       gradientUnits="userSpaceOnUse"
       gradientTransform="matrix(0.8248568,-0.0025088,4.1186836e-4,0.4615378,1.1894136,9.8231788)"
       fy="18.245768"
       fx="6.8339977"
       cy="18.245768"
       cx="6.8339977" />
    <linearGradient
       y2="15.916803"
       y1="5.9594917"
       xlink:href="#linearGradient6997"
       x2="11.013494"
       x1="11.013494"
       id="linearGradient7003"
       gradientUnits="userSpaceOnUse"
       gradientTransform="matrix(2.2252954,0,0,2.0735335,0.02155706,2.7276043)" />
    <linearGradient
       y2="0.99801207"
       y1="11.714401"
       xlink:href="#linearGradient6868"
       x2="10.0904"
       x1="10.227501"
       id="linearGradient6874"
       gradientUnits="userSpaceOnUse"
       gradientTransform="matrix(2.2166179,0,0,2.0917609,0.130786,2.3623591)" />
    <linearGradient
       id="linearGradient12722">
      <stop
         style="stop-color:#636661;stop-opacity:1"
         offset="0"
         id="stop12724" />
      <stop
         style="stop-color:#6f716c;stop-opacity:1"
         offset="1"
         id="stop12726" />
    </linearGradient>
    <linearGradient
       y2="1.116985"
       y1="8"
       xlink:href="#linearGradient12722"
       x2="8.000001"
       x1="8.000001"
       id="linearGradient12728"
       gradientUnits="userSpaceOnUse" />
    <radialGradient
       r="6.3620529"
       fy="18.245768"
       fx="6.8339977"
       cy="18.245768"
       cx="6.8339977"
       gradientTransform="matrix(0.8248568,-0.0025088,4.1186836e-4,0.4615378,1.1894136,9.8231788)"
       gradientUnits="userSpaceOnUse"
       id="radialGradient1487635"
       xlink:href="#linearGradient6957" />
    <linearGradient
       y2="0.99801207"
       x2="10.0904"
       y1="11.714401"
       x1="10.227501"
       gradientTransform="matrix(2.2166179,0,0,2.0917609,0.130786,2.3623591)"
       gradientUnits="userSpaceOnUse"
       id="linearGradient1487637"
       xlink:href="#linearGradient6868" />
    <linearGradient
       y2="15.916803"
       x2="11.013494"
       y1="5.9594917"
       x1="11.013494"
       gradientTransform="matrix(2.2252954,0,0,2.0735335,0.02155706,2.7276043)"
       gradientUnits="userSpaceOnUse"
       id="linearGradient1487639"
       xlink:href="#linearGradient6997" />
    <radialGradient
       r="6.3620529"
       fy="18.245768"
       fx="6.8339977"
       cy="18.245768"
       cx="6.8339977"
       gradientTransform="matrix(0.8248568,-0.0025088,4.1186836e-4,0.4615378,1.1894136,9.8231788)"
       gradientUnits="userSpaceOnUse"
       id="radialGradient1487641"
       xlink:href="#linearGradient6957" />
    <linearGradient
       y2="0.99801207"
       x2="10.0904"
       y1="11.714401"
       x1="10.227501"
       gradientTransform="matrix(2.2166179,0,0,2.0917609,0.130786,2.3623591)"
       gradientUnits="userSpaceOnUse"
       id="linearGradient1487643"
       xlink:href="#linearGradient6868" />
    <linearGradient
       y2="15.916803"
       x2="11.013494"
       y1="5.9594917"
       x1="11.013494"
       gradientTransform="matrix(2.2252954,0,0,2.0735335,0.02155706,2.7276043)"
       gradientUnits="userSpaceOnUse"
       id="linearGradient1487645"
       xlink:href="#linearGradient6997" />
    <linearGradient
       y2="15.916803"
       x2="11.013494"
       y1="5.9594917"
       x1="11.013494"
       gradientTransform="matrix(2.2252954,0,0,2.0735335,0.02155706,2.7276043)"
       gradientUnits="userSpaceOnUse"
       id="linearGradient1487647"
       xlink:href="#linearGradient6997" />
  </defs>
  <g
     transform="translate(-303,-219)"
     style="display:none"
     id="layer6">
    <rect
       y="50"
       x="296"
       width="48"
       style="display:inline;overflow:visible;visibility:visible;fill:#eeeeec;fill-opacity:1;fill-rule:nonzero;stroke:none;stroke-width:2;marker:none;enable-background:accumulate"
       id="rect6284"
       height="48" />
    <rect
       y="126"
       x="303"
       width="32"
       style="display:inline;overflow:visible;visibility:visible;fill:#eeeeec;fill-opacity:1;fill-rule:nonzero;stroke:none;stroke-width:2;marker:none;enable-background:accumulate"
       id="rect6592"
       height="32" />
    <rect
       y="177"
       x="303"
       width="22"
       style="display:inline;overflow:visible;visibility:visible;fill:#eeeeec;fill-opacity:1;fill-rule:nonzero;stroke:none;stroke-width:2;marker:none;enable-background:accumulate"
       id="rect6749"
       height="22" />
    <rect
       y="219"
       x="303"
       width="16"
       style="display:inline;overflow:visible;visibility:visible;fill:#eeeeec;fill-opacity:1;fill-rule:nonzero;stroke:none;stroke-width:2;marker:none;enable-background:accumulate"
       id="rect6833"
       height="16" />
    <text
       y="21.513618"
       xml:space="preserve"
       x="20.970737"
       style="font-style:normal;font-weight:normal;line-height:0%;font-family:'Bitstream Vera Sans';display:inline;fill:#000000;fill-opacity:1;stroke:none;enable-background:new"
       id="context"><tspan
         style="font-size:18.30070686px;line-height:1.25"
         y="21.513618"
         x="20.970737"
         id="tspan2716">status</tspan></text>
    <text
       y="21.513618"
       xml:space="preserve"
       x="191.97073"
       style="font-style:normal;font-variant:normal;font-weight:bold;font-stretch:normal;line-height:0%;font-family:'Droid Sans';-inkscape-font-specification:'Droid Sans Bold';text-align:start;writing-mode:lr-tb;text-anchor:start;display:inline;fill:#000000;fill-opacity:1;stroke:none;enable-background:new"
       id="icon-name"><tspan
         style="font-size:18.30070686px;line-height:1.25"
         y="21.513618"
         x="191.97073"
         id="tspan3023">mail-attachment</tspan></text>
  </g>
  <g
     transform="translate(-303,-219)"
     style="display:inline"
     id="layer2">
    <g
       transform="translate(296,50)"
       style="display:inline;enable-background:new"
       id="g48">
      <ellipse
         ry="2.936332"
         rx="6.3620529"
         cy="18.211184"
         cx="6.8356547"
         transform="matrix(2.2791386,0,0,0.8514024,9.9205951,28.994954)"
         style="opacity:0.1956522;fill:url(#radialGradient1487635);fill-opacity:1;stroke:none;stroke-width:1;stroke-linecap:round;stroke-linejoin:miter;stroke-miterlimit:4;stroke-dasharray:none;stroke-dashoffset:0;stroke-opacity:1"
         id="path6955" />
      <path
         style="fill:none;fill-rule:evenodd;stroke:url(#linearGradient1487637);stroke-width:3.00000048;stroke-linecap:round;stroke-linejoin:miter;stroke-miterlimit:4;stroke-dasharray:none;stroke-opacity:1"
         id="path4915"
         d="M 14.551581,30.640241 V 13.012035 c 0,0 -0.572143,-7.5120346 9.904239,-7.5120346 10.476379,0 10.055489,7.5120346 10.055489,7.5120346 v 22.908937 c 0,0 -4.964724,8.356754 -8.462714,8.356754 -3.399033,0 -7.479702,-8.294888 -7.479702,-8.294888 V 20.174173 c 0,0 -0.213597,-4.620546 5.173771,-4.620546 5.288419,0 4.747392,3.458153 4.747392,3.458153 v 9.611832" />
      <path
         style="fill:none;fill-rule:evenodd;stroke:url(#linearGradient1487639);stroke-width:0.99999988;stroke-linecap:round;stroke-linejoin:miter;stroke-miterlimit:4;stroke-dasharray:none;stroke-opacity:1"
         id="path5904"
         d="M 14.546033,30.674974 V 13.334498 c 0,0 -0.411744,-8.0519682 10.013269,-7.7993805 10.361867,0.2525877 9.954333,7.7993805 9.954333,7.7993805 v 22.629786 c 0,0 -4.515857,8.322214 -8.152454,8.322214 -3.537579,0 -7.778067,-8.256745 -7.778067,-8.256745 v -15.61603 c 0,0 0.336665,-4.915687 5.244919,-4.852175 4.971939,0.06351 4.678629,3.754323 4.678629,3.754323 v 9.143219" />
      <path
         style="opacity:0.58695649;fill:none;fill-rule:evenodd;stroke:#ffffff;stroke-width:0.99999982px;stroke-linecap:round;stroke-linejoin:miter;stroke-opacity:1"
         id="path5909"
         d="M 34.475963,14.117229 V 28.680905" />
      <path
         style="opacity:0.58695649;fill:none;fill-rule:evenodd;stroke:#ffffff;stroke-width:1px;stroke-linecap:round;stroke-linejoin:miter;stroke-opacity:1"
         id="path5911"
         d="M 18.499999,24.352423 V 35.096121" />
      <ellipse
         ry="1.4288518"
         rx="1.7190874"
         cy="14.989696"
         cx="16.766684"
         transform="matrix(0.2908521,0,0,0.3499312,29.623374,20.254638)"
         style="opacity:0.58695649;fill:#ffffff;fill-opacity:1;stroke:none;stroke-width:1;stroke-linecap:round;stroke-linejoin:miter;stroke-miterlimit:4;stroke-dasharray:none;stroke-dashoffset:0;stroke-opacity:1"
         id="path5913" />
      <ellipse
         ry="1.4288518"
         rx="1.7190874"
         cy="14.989696"
         cx="16.766684"
         transform="matrix(0.290852,0,0,0.3499314,13.623376,22.254635)"
         style="opacity:0.58695649;fill:#ffffff;fill-opacity:1;stroke:none;stroke-width:1;stroke-linecap:round;stroke-linejoin:miter;stroke-miterlimit:4;stroke-dasharray:none;stroke-dashoffset:0;stroke-opacity:1"
         id="path5915" />
    </g>
    <g
       transform="translate(303,126)"
       style="display:inline;enable-background:new"
       id="g32">
      <ellipse
         ry="2.936332"
         rx="6.3620529"
         cy="18.211184"
         cx="6.8356547"
         transform="matrix(2.0433656,0,0,1.0216828,2.0322584,10.393947)"
         style="opacity:0.17391304;fill:url(#radialGradient1487641);fill-opacity:1;stroke:none;stroke-width:1;stroke-linecap:round;stroke-linejoin:miter;stroke-miterlimit:4;stroke-dasharray:none;stroke-dashoffset:0;stroke-opacity:1"
         id="path43" />
      <path
         style="fill:none;fill-rule:evenodd;stroke:url(#linearGradient1487643);stroke-width:3.00000048;stroke-linecap:round;stroke-linejoin:miter;stroke-miterlimit:4;stroke-dasharray:none;stroke-opacity:1"
         id="path45"
         d="M 8.5038897,20.020753 V 7.7352921 c 0,0 -0.4011509,-5.235292 6.9442153,-5.235292 7.345364,0 7.050263,5.235292 7.050263,5.235292 V 23.701003 c 0,0 -2.660035,5.823994 -5.112601,5.823994 -2.383184,0 -4.8146,-5.780878 -4.8146,-5.780878 V 12.726734 c 0,0 -0.832035,-3.2201538 2.945241,-3.2201538 3.7079,0 3.025892,2.4100578 3.025892,2.4100578 v 6.698684" />
      <path
         style="fill:none;fill-rule:evenodd;stroke:url(#linearGradient1487645);stroke-width:0.99999994;stroke-linecap:round;stroke-linejoin:miter;stroke-miterlimit:4;stroke-dasharray:none;stroke-opacity:1"
         id="path47"
         d="M 8.4999992,19.961625 V 7.7704566 c 0,0 0.1712178,-5.2169584 7.0206608,-5.2169584 6.910879,0 6.979339,5.2169584 6.979339,5.2169584 V 23.680258 c 0,0 -2.471613,5.850907 -5.021361,5.850907 -2.480323,0 -4.998392,-5.804879 -4.998392,-5.804879 V 12.747484 c 0,0 -0.370737,-3.233982 3.070615,-3.1893304 3.486004,0.044652 2.914533,2.4174894 2.914533,2.4174894 v 6.428112" />
      <path
         style="opacity:0.58695649;fill:none;fill-rule:evenodd;stroke:#ffffff;stroke-width:0.99999982px;stroke-linecap:round;stroke-linejoin:miter;stroke-opacity:1"
         id="path49"
         d="M 22.473586,8.3207534 V 18.559701" />
      <path
         style="opacity:0.58695649;fill:none;fill-rule:evenodd;stroke:#ffffff;stroke-width:1px;stroke-linecap:round;stroke-linejoin:miter;stroke-opacity:1"
         id="path51"
         d="m 12.5,15.516575 v 7.553324" />
      <ellipse
         ry="1.4288518"
         rx="1.7190874"
         cy="14.989696"
         cx="16.766684"
         transform="matrix(0.2908522,0,0,0.3499315,17.623372,11.254633)"
         style="opacity:0.58695649;fill:#ffffff;fill-opacity:1;stroke:none;stroke-width:1;stroke-linecap:round;stroke-linejoin:miter;stroke-miterlimit:4;stroke-dasharray:none;stroke-dashoffset:0;stroke-opacity:1"
         id="path53" />
      <ellipse
         ry="1.4288518"
         rx="1.7190874"
         cy="14.989696"
         cx="16.766684"
         transform="matrix(0.290852,0,0,0.3499313,7.6233766,12.254636)"
         style="opacity:0.58695649;fill:#ffffff;fill-opacity:1;stroke:none;stroke-width:1;stroke-linecap:round;stroke-linejoin:miter;stroke-miterlimit:4;stroke-dasharray:none;stroke-dashoffset:0;stroke-opacity:1"
         id="path55" />
      <path
         style="opacity:0.27717393;fill:none;fill-rule:evenodd;stroke:#ffffff;stroke-width:1px;stroke-linecap:round;stroke-linejoin:miter;stroke-opacity:1"
         id="path5903"
         d="m 10.5,12.5 v 9.512759" />
    </g>
    <g
       transform="translate(303,177)"
       style="display:inline;enable-background:new"
       id="g22">
      <ellipse
         ry="2.936332"
         rx="6.3620529"
         cy="18.211184"
         cx="6.8356547"
         transform="matrix(1.3360467,0,0,0.6811219,2.3672462,7.5959643)"
         style="opacity:0.35326089;fill:url(#radialGradient6963);fill-opacity:1;stroke:none;stroke-width:1;stroke-linecap:round;stroke-linejoin:miter;stroke-miterlimit:4;stroke-dasharray:none;stroke-dashoffset:0;stroke-opacity:1"
         id="path59" />
      <path
         style="fill:none;fill-rule:evenodd;stroke:url(#linearGradient6874);stroke-width:3;stroke-linecap:round;stroke-linejoin:miter;stroke-miterlimit:4;stroke-dasharray:none;stroke-opacity:1"
         id="path61"
         d="M 6.505765,13.518698 V 5.0912494 c 0,0 -0.2581159,-3.5912494 4.468175,-3.5912494 4.726291,0 4.536411,3.5912494 4.536411,3.5912494 V 16.043237 c 0,0 -2.498349,3.474376 -4.076425,3.474376 -1.5334321,0 -2.9156565,-3.50606 -2.9156565,-3.50606 V 8.4539661 c 0,0 -0.2965045,-1.9945193 2.1339395,-1.9945193 2.385806,0 1.852967,1.5000777 1.852967,1.5000777 v 4.5950915" />
      <path
         style="fill:none;fill-rule:evenodd;stroke:url(#linearGradient1487647);stroke-width:1;stroke-linecap:round;stroke-linejoin:miter;stroke-miterlimit:4;stroke-dasharray:none;stroke-opacity:1"
         id="path63"
         d="M 6.5269874,13.478138 V 5.1153712 c 0,0 0.1097385,-3.5786732 4.4997476,-3.5786732 4.429386,0 4.473264,3.5786732 4.473264,3.5786732 V 16.029006 c 0,0 -2.372751,3.462209 -4.00696,3.462209 -1.5897122,0 -2.9816123,-3.430635 -2.9816123,-3.430635 V 8.5294591 c 0,0 0.095986,-2.0346345 2.0727013,-2.0346345 C 12.56222,6.4948246 12.513442,8 12.513442,8 v 4.409487" />
      <path
         style="opacity:0.58695649;fill:none;fill-rule:evenodd;stroke:#ffffff;stroke-width:0.99999994px;stroke-linecap:round;stroke-linejoin:miter;stroke-opacity:1"
         id="path65"
         d="M 15.5,5.4928579 V 12.516461" />
      <path
         style="opacity:0.58695649;fill:none;fill-rule:evenodd;stroke:#ffffff;stroke-width:1px;stroke-linecap:round;stroke-linejoin:miter;stroke-opacity:1"
         id="path67"
         d="m 8.5000003,10.42897 v 5.181348" />
      <ellipse
         ry="1.4288518"
         rx="1.7190874"
         cy="14.989696"
         cx="16.766684"
         transform="matrix(0.2770085,0,0,0.3499316,10.879284,6.2546323)"
         style="opacity:0.58695649;fill:#ffffff;fill-opacity:1;stroke:none;stroke-width:1;stroke-linecap:round;stroke-linejoin:miter;stroke-miterlimit:4;stroke-dasharray:none;stroke-dashoffset:0;stroke-opacity:1"
         id="path69" />
      <ellipse
         ry="1.4288518"
         rx="1.7190874"
         cy="14.989696"
         cx="16.766684"
         transform="matrix(0.2770085,0,0,0.3499316,3.8792843,6.2546323)"
         style="opacity:0.58695649;fill:#ffffff;fill-opacity:1;stroke:none;stroke-width:1;stroke-linecap:round;stroke-linejoin:miter;stroke-miterlimit:4;stroke-dasharray:none;stroke-dashoffset:0;stroke-opacity:1"
         id="path71" />
    </g>
    <g
       transform="translate(303,219)"
       style="display:inline;enable-background:new"
       id="g16">
      <path
         style="fill:none;fill-rule:evenodd;stroke:url(#linearGradient12728);stroke-width:3;stroke-linecap:round;stroke-linejoin:miter;stroke-miterlimit:4;stroke-dasharray:none;stroke-opacity:1"
         id="path74"
         d="M 4.5019449,10.171685 V 4.0911444 c 0,0 -0.2005753,-2.5911444 3.4721071,-2.5911444 3.672684,0 3.525133,2.5911444 3.525133,2.5911444 V 11.99318 L 8.8226635,14.5 6.507073,11.97032 V 6.9639151 c 0,0 -0.6716673,-1.4390779 1.21697,-1.4390779 1.8539502,0 1.4398942,1.0823303 1.4398942,1.0823303 v 2.8689167" />
      <path
         style="fill:none;fill-rule:evenodd;stroke:url(#linearGradient7003);stroke-width:0.99999994;stroke-linecap:round;stroke-linejoin:miter;stroke-miterlimit:4;stroke-dasharray:none;stroke-opacity:1"
         id="path76"
         d="M 4.5,10.146221 V 4.0911447 c 0,0 0.085609,-2.5911446 3.5103301,-2.5911446 3.4554389,0 3.4896709,2.5911446 3.4896709,2.5911446 V 11.993181 L 8.954573,14.5 6.4946113,12.016042 V 6.5631209 c 0,0 -0.059075,-1.071316 1.4829949,-1.071316 1.5431435,0 1.5050909,0.6879603 1.5050909,0.6879603 v 3.1926967" />
      <path
         style="opacity:0.58695649;fill:none;fill-rule:evenodd;stroke:#ffffff;stroke-width:1px;stroke-linecap:round;stroke-linejoin:miter;stroke-opacity:1"
         id="path78"
         d="m 11.5,4.4819817 v 5.036037" />
      <ellipse
         ry="1.4288518"
         rx="1.7190874"
         cy="14.989696"
         cx="16.766684"
         transform="matrix(0.2908521,0,0,0.3499312,6.623374,3.2546377)"
         style="opacity:0.58695649;fill:#ffffff;fill-opacity:1;stroke:none;stroke-width:1;stroke-linecap:round;stroke-linejoin:miter;stroke-miterlimit:4;stroke-dasharray:none;stroke-dashoffset:0;stroke-opacity:1"
         id="path80" />
      <path
         style="opacity:0.60326089;fill:none;fill-rule:evenodd;stroke:#ffffff;stroke-width:1px;stroke-linecap:butt;stroke-linejoin:miter;stroke-opacity:1"
         id="path8836"
         d="M 6.5041334,12 9,14.516047 11.524314,12" />
    </g>
  </g>
  <g
     transform="translate(-303,-219)"
     style="display:inline"
     id="layer4" />
</svg>
